M48
; DRILL file {KiCad 8.0.6-8.0.6-0~ubuntu24.04.1} date 2024-10-19T18:08:10+0100
; FORMAT={-:-/ absolute / inch / decimal}
; #@! TF.CreationDate,2024-10-19T18:08:10+01:00
; #@! TF.GenerationSoftware,Kicad,Pcbnew,8.0.6-8.0.6-0~ubuntu24.04.1
; #@! TF.FileFunction,Plated,1,2,PTH
FMAT,2
INCH
; #@! TA.AperFunction,Plated,PTH,ViaDrill
T1C0.0118
; #@! TA.AperFunction,Plated,PTH,ComponentDrill
T2C0.0295
; #@! TA.AperFunction,Plated,PTH,ComponentDrill
T3C0.0433
; #@! TA.AperFunction,Plated,PTH,ComponentDrill
T4C0.0807
%
G90
G05
T1
X0.0915Y-0.5797
X0.1113Y-0.5384
X0.1201Y-0.3701
X0.1203Y-0.4645
X0.128Y-0.5827
X0.1299Y-0.0925
X0.1437Y-0.4193
X0.1457Y-0.5059
X0.1594Y-0.6201
X0.1693Y-0.374
X0.2283Y-0.2874
X0.2283Y-0.687
X0.3091Y-0.1535
X0.6024Y-0.6555
X0.6024Y-0.9094
X0.6378Y-0.5217
X0.6909Y-0.2874
X0.7835Y-0.5256
X0.7933Y-0.2165
X0.8858Y-0.7854
X1.0118Y-0.0472
X1.0846Y-0.3228
X1.128Y-0.9469
X1.4094Y-0.3189
X1.4134Y-0.124
X1.4193Y-0.5236
X1.5335Y-0.5039
X1.6417Y-0.3465
X1.6831Y-0.5138
X1.6969Y-0.6142
X1.7224Y-0.0728
X1.7421Y-0.2933
X1.752Y-0.6949
X1.8228Y-0.5787
X1.8327Y-0.4578
X1.8327Y-0.5453
X1.8592Y-0.505
X1.8662Y-0.4245
X1.8754Y-0.4671
X1.876Y-0.5787
X1.8898Y-0.9193
T2
X0.2736Y-0.9154
X0.3524Y-0.9154
X0.4311Y-0.9154
X0.5098Y-0.9154
T3
X0.7146Y-0.4921
X0.8209Y-0.2707
X0.8209Y-0.7136
X1.1201Y-0.2579
X1.1476Y-0.7136
T4
G00X0.9754Y-0.2707
M15
G01X0.9931Y-0.2707
M16
G05
G00X0.9754Y-0.7136
M15
G01X0.9931Y-0.7136
M16
G05
M30
