%TF.GenerationSoftware,KiCad,Pcbnew,9.0.4*%
%TF.CreationDate,2025-08-26T17:00:48+01:00*%
%TF.ProjectId,dial,6469616c-2e6b-4696-9361-645f70636258,rev?*%
%TF.SameCoordinates,Original*%
%TF.FileFunction,Copper,L2,Bot*%
%TF.FilePolarity,Positive*%
%FSLAX46Y46*%
G04 Gerber Fmt 4.6, Leading zero omitted, Abs format (unit mm)*
G04 Created by KiCad (PCBNEW 9.0.4) date 2025-08-26 17:00:48*
%MOMM*%
%LPD*%
G01*
G04 APERTURE LIST*
%TA.AperFunction,ComponentPad*%
%ADD10O,3.400000X3.000000*%
%TD*%
%TA.AperFunction,ComponentPad*%
%ADD11C,1.600000*%
%TD*%
%TA.AperFunction,SMDPad,CuDef*%
%ADD12R,2.000000X1.000000*%
%TD*%
%TA.AperFunction,SMDPad,CuDef*%
%ADD13R,2.500000X1.000000*%
%TD*%
%TA.AperFunction,ViaPad*%
%ADD14C,0.600000*%
%TD*%
%TA.AperFunction,Conductor*%
%ADD15C,0.200000*%
%TD*%
%TA.AperFunction,Conductor*%
%ADD16C,0.400000*%
%TD*%
G04 APERTURE END LIST*
D10*
%TO.P,SW7,1*%
%TO.N,N/C*%
X27000000Y-18125000D03*
%TO.P,SW7,2*%
X27000000Y-6875000D03*
D11*
%TO.P,SW7,A,A*%
%TO.N,ENC_A*%
X22850000Y-18125000D03*
%TO.P,SW7,B,B*%
%TO.N,ENC_B*%
X22850000Y-6875000D03*
%TO.P,SW7,C,C*%
%TO.N,GND*%
X31150000Y-18125000D03*
%TO.P,SW7,S1,S1*%
%TO.N,Interrupt5V*%
X30450000Y-6550000D03*
%TO.P,SW7,S2,S2*%
%TO.N,SW1*%
X20150000Y-12500000D03*
%TD*%
D12*
%TO.P,J5,1,Pin_1*%
%TO.N,MOSI*%
X47575000Y-18850000D03*
%TO.P,J5,2,Pin_2*%
%TO.N,MISO*%
X47575000Y-16310000D03*
%TO.P,J5,3,Pin_3*%
%TO.N,SCLK*%
X47575000Y-13770000D03*
%TO.P,J5,4,Pin_4*%
%TO.N,PS*%
X47575000Y-11230000D03*
%TO.P,J5,5,Pin_5*%
%TO.N,GND*%
X47575000Y-8690000D03*
%TO.P,J5,6,Pin_6*%
%TO.N,5V*%
X47575000Y-6150000D03*
%TD*%
D13*
%TO.P,J3,1,Pin_1*%
%TO.N,5V*%
X8025000Y-6150000D03*
%TO.P,J3,2,Pin_2*%
%TO.N,GND*%
X8025000Y-8690000D03*
%TO.P,J3,3,Pin_3*%
%TO.N,PS*%
X8025000Y-11230000D03*
%TO.P,J3,4,Pin_4*%
%TO.N,SCLK*%
X8025000Y-13770000D03*
%TO.P,J3,5,Pin_5*%
%TO.N,MISO*%
X8025000Y-16310000D03*
%TO.P,J3,6,Pin_6*%
%TO.N,MOSI*%
X8025000Y-18850000D03*
%TD*%
D14*
%TO.N,VDD*%
X15150000Y-9700000D03*
X6676334Y-23930161D03*
%TO.N,GND*%
X23200000Y-11600000D03*
X25675000Y-11500000D03*
X35800000Y-8100000D03*
X15725000Y-3100000D03*
X21900000Y-13350000D03*
X41400000Y-16900000D03*
X20600000Y-18625000D03*
X25700000Y-1200000D03*
X14175000Y-7475000D03*
X51250000Y-8750000D03*
X9675000Y-12450000D03*
X22150000Y-5500000D03*
X47750000Y-1850000D03*
X5800000Y-17450000D03*
X29550000Y-8200000D03*
X24500000Y-19950000D03*
X35900000Y-3150000D03*
X4650000Y-20225000D03*
X5800000Y-7300000D03*
X2025000Y-9075000D03*
X36050000Y-13300000D03*
X15300000Y-23100000D03*
X45500000Y-7400000D03*
X46750000Y-9750000D03*
X50075000Y-16325000D03*
X3125000Y-16275000D03*
X48320000Y-20420000D03*
X8800000Y-14950000D03*
X13650000Y-20550000D03*
X7400000Y-12450000D03*
X42375000Y-20250000D03*
X18200000Y-13250000D03*
X17922499Y-16475000D03*
X4175000Y-12175000D03*
X43600000Y-11750000D03*
X7103235Y-15171765D03*
X15950000Y-5275000D03*
X32500000Y-11525000D03*
X7850000Y-3900000D03*
X9000000Y-17775000D03*
X5910000Y-1260000D03*
X28650000Y-24050000D03*
X46350000Y-4750000D03*
X15825000Y-12675000D03*
%TO.N,5V*%
X10000000Y-6150000D03*
X50025000Y-9400000D03*
X45550000Y-6150000D03*
%TO.N,MOSI*%
X43350000Y-18850000D03*
X14975000Y-18850000D03*
X8075000Y-19975000D03*
%TO.N,MISO*%
X45050000Y-16310000D03*
X9600000Y-16310000D03*
%TO.N,SCLK*%
X10425000Y-13770000D03*
X46200000Y-14050000D03*
%TO.N,PS*%
X50125000Y-12475000D03*
X10025000Y-11230000D03*
%TO.N,Interrupt5V*%
X29525000Y-2500000D03*
X3275000Y-12825000D03*
%TO.N,NRST*%
X13687499Y-9600000D03*
X8000000Y-23935000D03*
%TD*%
D15*
%TO.N,VDD*%
X14449000Y-8999000D02*
X15150000Y-9700000D01*
X6676334Y-23930161D02*
X6676334Y-21143434D01*
X4798000Y-10802000D02*
X6109000Y-9491000D01*
X11991900Y-9491000D02*
X12483900Y-8999000D01*
X6676334Y-21143434D02*
X4798000Y-19265100D01*
X6109000Y-9491000D02*
X11991900Y-9491000D01*
X4798000Y-19265100D02*
X4798000Y-10802000D01*
X12483900Y-8999000D02*
X14449000Y-8999000D01*
%TO.N,GND*%
X45900000Y-15150000D02*
X47250000Y-15150000D01*
X13000000Y-16000000D02*
X19425000Y-16000000D01*
X6645000Y-17280000D02*
X11720000Y-17280000D01*
X15300000Y-13725000D02*
X15525000Y-13950000D01*
D16*
X47490000Y-8775000D02*
X47575000Y-8690000D01*
D15*
X6475000Y-17110000D02*
X6645000Y-17280000D01*
X11720000Y-17280000D02*
X13000000Y-16000000D01*
D16*
X11650000Y-8250000D02*
X16725000Y-8250000D01*
D15*
X6475000Y-12450000D02*
X6474000Y-12449000D01*
X15525000Y-13950000D02*
X21425000Y-13950000D01*
D16*
X11210000Y-8690000D02*
X11650000Y-8250000D01*
D15*
X17241480Y-8775000D02*
X17250000Y-8775000D01*
D16*
X16725000Y-8250000D02*
X17250000Y-8775000D01*
D15*
X6475000Y-15075000D02*
X6475000Y-17110000D01*
X6475000Y-12450000D02*
X6475000Y-15075000D01*
X8800000Y-14950000D02*
X19075000Y-14950000D01*
X6474000Y-12449000D02*
X6474000Y-10429000D01*
X6474000Y-10429000D02*
X15587480Y-10429000D01*
X21425000Y-13950000D02*
X40400000Y-13950000D01*
X15587480Y-10429000D02*
X17241480Y-8775000D01*
X6600000Y-14950000D02*
X8800000Y-14950000D01*
X46750000Y-9515000D02*
X47575000Y-8690000D01*
X9675000Y-12450000D02*
X14025000Y-12450000D01*
D16*
X17250000Y-8775000D02*
X47490000Y-8775000D01*
D15*
X7400000Y-12450000D02*
X9675000Y-12450000D01*
X45700000Y-14950000D02*
X45900000Y-15150000D01*
X6475000Y-15075000D02*
X6600000Y-14950000D01*
X14025000Y-12450000D02*
X15300000Y-13725000D01*
X19075000Y-14950000D02*
X45700000Y-14950000D01*
X40400000Y-13950000D02*
X40975000Y-13375000D01*
X46750000Y-9750000D02*
X46750000Y-9515000D01*
X6475000Y-12450000D02*
X7400000Y-12450000D01*
D16*
X8025000Y-8690000D02*
X11210000Y-8690000D01*
D15*
X19425000Y-16000000D02*
X40175000Y-16000000D01*
D16*
%TO.N,5V*%
X37910050Y-6150000D02*
X45550000Y-6150000D01*
D15*
X47575000Y-6150000D02*
X50025000Y-8600000D01*
D16*
X13150000Y-3825000D02*
X35585050Y-3825000D01*
X35585050Y-3825000D02*
X37910050Y-6150000D01*
X45550000Y-6150000D02*
X47575000Y-6150000D01*
X8025000Y-6150000D02*
X10000000Y-6150000D01*
D15*
X50025000Y-8600000D02*
X50025000Y-9400000D01*
D16*
X10825000Y-6150000D02*
X13150000Y-3825000D01*
X10000000Y-6150000D02*
X10825000Y-6150000D01*
%TO.N,MOSI*%
X38875000Y-18850000D02*
X43350000Y-18850000D01*
D15*
X8075000Y-18900000D02*
X8025000Y-18850000D01*
D16*
X18075000Y-21650000D02*
X36075000Y-21650000D01*
X15275000Y-18850000D02*
X18075000Y-21650000D01*
X8025000Y-18850000D02*
X14975000Y-18850000D01*
X14975000Y-18850000D02*
X15275000Y-18850000D01*
X43350000Y-18850000D02*
X47575000Y-18850000D01*
D15*
X8075000Y-19975000D02*
X8075000Y-18900000D01*
D16*
X36075000Y-21650000D02*
X38875000Y-18850000D01*
%TO.N,MISO*%
X45050000Y-16310000D02*
X44710000Y-16310000D01*
X9600000Y-16310000D02*
X8025000Y-16310000D01*
X47575000Y-16310000D02*
X45050000Y-16310000D01*
X9940000Y-16310000D02*
X9600000Y-16310000D01*
X43900000Y-15500000D02*
X10750000Y-15500000D01*
X10750000Y-15500000D02*
X9940000Y-16310000D01*
X44710000Y-16310000D02*
X43900000Y-15500000D01*
%TO.N,SCLK*%
X9325000Y-13770000D02*
X10425000Y-13770000D01*
X44350000Y-14450000D02*
X44750000Y-14050000D01*
X8025000Y-13770000D02*
X9325000Y-13770000D01*
X11725000Y-14450000D02*
X44350000Y-14450000D01*
X46200000Y-14050000D02*
X47295000Y-14050000D01*
X44750000Y-14050000D02*
X46200000Y-14050000D01*
X11045000Y-13770000D02*
X11725000Y-14450000D01*
X47295000Y-14050000D02*
X47575000Y-13770000D01*
X10425000Y-13770000D02*
X11045000Y-13770000D01*
%TO.N,PS*%
X10025000Y-11230000D02*
X15495000Y-11230000D01*
X44270000Y-10625000D02*
X44875000Y-11230000D01*
D15*
X50125000Y-12475000D02*
X48880000Y-11230000D01*
X48880000Y-11230000D02*
X47575000Y-11230000D01*
D16*
X16100000Y-10625000D02*
X44270000Y-10625000D01*
X44875000Y-11230000D02*
X47575000Y-11230000D01*
X8025000Y-11230000D02*
X10025000Y-11230000D01*
X15495000Y-11230000D02*
X16100000Y-10625000D01*
D15*
%TO.N,Interrupt5V*%
X3275000Y-5600000D02*
X6500000Y-2375000D01*
X3275000Y-12825000D02*
X3275000Y-5600000D01*
X29400000Y-2375000D02*
X29525000Y-2500000D01*
X6500000Y-2375000D02*
X29400000Y-2375000D01*
%TO.N,NRST*%
X6275100Y-9892000D02*
X12158000Y-9892000D01*
X12158000Y-9892000D02*
X12450000Y-9600000D01*
X8000000Y-23935000D02*
X8000000Y-21900000D01*
X5199000Y-10968100D02*
X6275100Y-9892000D01*
X8000000Y-21900000D02*
X5199000Y-19099000D01*
X12450000Y-9600000D02*
X13687499Y-9600000D01*
X5199000Y-19099000D02*
X5199000Y-10968100D01*
%TD*%
%TA.AperFunction,Conductor*%
%TO.N,GND*%
G36*
X51502992Y-100681D02*
G01*
X51783256Y-117633D01*
X51795111Y-119073D01*
X51958223Y-148964D01*
X51983638Y-153622D01*
X52037468Y-182709D01*
X52063920Y-237880D01*
X52052891Y-298064D01*
X52008593Y-340270D01*
X51965793Y-350000D01*
X50999997Y-350000D01*
X50299998Y-650000D01*
X49799999Y-1050000D01*
X49600005Y-1349990D01*
X49599998Y-1350002D01*
X49400001Y-1749996D01*
X49300000Y-2050000D01*
X49300000Y-3050002D01*
X49599997Y-3749995D01*
X49600000Y-3750000D01*
X50097817Y-4347381D01*
X50100000Y-4350000D01*
X50900000Y-4750000D01*
X51899998Y-4750000D01*
X51900000Y-4750000D01*
X52500000Y-4650000D01*
X53100000Y-4150000D01*
X53500000Y-3650000D01*
X53700000Y-2950000D01*
X53700000Y-2478186D01*
X53708575Y-2451792D01*
X53715540Y-2424937D01*
X53717944Y-2422957D01*
X53718907Y-2419995D01*
X53741357Y-2403683D01*
X53762778Y-2386050D01*
X53765886Y-2385861D01*
X53768407Y-2384031D01*
X53796159Y-2384031D01*
X53823852Y-2382356D01*
X53826477Y-2384031D01*
X53829593Y-2384031D01*
X53852050Y-2400347D01*
X53875433Y-2415266D01*
X53876572Y-2418163D01*
X53879093Y-2419995D01*
X53897819Y-2472209D01*
X53899319Y-2497007D01*
X53899500Y-2502984D01*
X53899500Y-5019991D01*
X53914798Y-5056926D01*
X53914799Y-5056927D01*
X53914800Y-5056929D01*
X53943071Y-5085200D01*
X53943072Y-5085200D01*
X53943073Y-5085201D01*
X53980008Y-5100500D01*
X53980009Y-5100500D01*
X54800500Y-5100500D01*
X54858691Y-5119407D01*
X54894655Y-5168907D01*
X54899500Y-5199500D01*
X54899500Y-19800500D01*
X54880593Y-19858691D01*
X54831093Y-19894655D01*
X54800500Y-19899500D01*
X53980008Y-19899500D01*
X53943073Y-19914798D01*
X53914798Y-19943073D01*
X53899500Y-19980008D01*
X53899500Y-22497015D01*
X53899319Y-22502992D01*
X53897819Y-22527790D01*
X53875433Y-22584733D01*
X53823852Y-22617643D01*
X53762778Y-22613949D01*
X53715540Y-22575062D01*
X53700000Y-22521813D01*
X53700000Y-21900000D01*
X53641612Y-21754030D01*
X53500000Y-21400000D01*
X53100000Y-20900000D01*
X52600000Y-20500000D01*
X52000000Y-20300000D01*
X51000000Y-20300000D01*
X50999997Y-20300000D01*
X50299998Y-20600000D01*
X49799999Y-21000000D01*
X49600005Y-21299990D01*
X49599998Y-21300002D01*
X49400001Y-21699996D01*
X49300000Y-22000000D01*
X49300000Y-23000002D01*
X49599997Y-23699995D01*
X49600000Y-23700000D01*
X49797967Y-23937561D01*
X50100000Y-24300000D01*
X50900000Y-24700000D01*
X51521813Y-24700000D01*
X51548206Y-24708575D01*
X51575062Y-24715540D01*
X51577041Y-24717944D01*
X51580004Y-24718907D01*
X51596315Y-24741357D01*
X51613949Y-24762778D01*
X51614137Y-24765886D01*
X51615968Y-24768407D01*
X51615968Y-24796158D01*
X51617643Y-24823852D01*
X51615968Y-24826477D01*
X51615968Y-24829593D01*
X51599651Y-24852050D01*
X51584733Y-24875433D01*
X51581835Y-24876572D01*
X51580004Y-24879093D01*
X51527790Y-24897819D01*
X51502992Y-24899319D01*
X51497015Y-24899500D01*
X2502985Y-24899500D01*
X2497008Y-24899319D01*
X2472210Y-24897819D01*
X2415267Y-24875433D01*
X2382357Y-24823852D01*
X2386051Y-24762778D01*
X2424938Y-24715540D01*
X2478187Y-24700000D01*
X2899998Y-24700000D01*
X2900000Y-24700000D01*
X3500000Y-24600000D01*
X4100000Y-24100000D01*
X4500000Y-23600000D01*
X4670009Y-23004965D01*
X4704175Y-22954209D01*
X4761651Y-22933228D01*
X4820482Y-22950037D01*
X4858197Y-22998215D01*
X4864200Y-23032164D01*
X4864200Y-23078439D01*
X4904803Y-23229970D01*
X4983241Y-23365830D01*
X5094170Y-23476759D01*
X5230030Y-23555197D01*
X5381561Y-23595800D01*
X5381562Y-23595800D01*
X5538438Y-23595800D01*
X5538439Y-23595800D01*
X5689970Y-23555197D01*
X5825830Y-23476759D01*
X5936759Y-23365830D01*
X6015197Y-23229970D01*
X6055800Y-23078439D01*
X6055800Y-22921561D01*
X6015197Y-22770030D01*
X5936759Y-22634170D01*
X5825830Y-22523241D01*
X5689970Y-22444803D01*
X5538439Y-22404200D01*
X5381561Y-22404200D01*
X5230030Y-22444803D01*
X5094170Y-22523241D01*
X4983241Y-22634170D01*
X4904801Y-22770032D01*
X4904801Y-22770033D01*
X4894626Y-22808009D01*
X4861302Y-22859323D01*
X4804181Y-22881249D01*
X4745080Y-22865413D01*
X4706575Y-22817863D01*
X4700000Y-22782385D01*
X4700000Y-21900000D01*
X4641612Y-21754030D01*
X4500000Y-21400000D01*
X4100000Y-20900000D01*
X3600000Y-20500000D01*
X3000000Y-20300000D01*
X2000000Y-20300000D01*
X1999997Y-20300000D01*
X1299998Y-20600000D01*
X799999Y-21000000D01*
X600005Y-21299990D01*
X599998Y-21300002D01*
X400001Y-21699996D01*
X300000Y-22000000D01*
X300000Y-22521813D01*
X291424Y-22548206D01*
X284460Y-22575062D01*
X282055Y-22577041D01*
X281093Y-22580004D01*
X258642Y-22596315D01*
X237222Y-22613949D01*
X234113Y-22614137D01*
X231593Y-22615968D01*
X203841Y-22615968D01*
X176148Y-22617643D01*
X173523Y-22615968D01*
X170407Y-22615968D01*
X147949Y-22599651D01*
X124567Y-22584733D01*
X123427Y-22581835D01*
X120907Y-22580004D01*
X102181Y-22527790D01*
X100681Y-22502992D01*
X100500Y-22497015D01*
X100500Y-19980008D01*
X85201Y-19943073D01*
X85200Y-19943072D01*
X85200Y-19943071D01*
X56929Y-19914800D01*
X56927Y-19914799D01*
X56926Y-19914798D01*
X19992Y-19899500D01*
X19991Y-19899500D01*
X-800500Y-19899500D01*
X-858691Y-19880593D01*
X-894655Y-19831093D01*
X-899500Y-19800500D01*
X-899500Y-5199500D01*
X-880593Y-5141309D01*
X-831093Y-5105345D01*
X-800500Y-5100500D01*
X19992Y-5100500D01*
X43283Y-5090852D01*
X56929Y-5085200D01*
X85200Y-5056929D01*
X100500Y-5019991D01*
X100500Y-2502984D01*
X100681Y-2497007D01*
X102181Y-2472209D01*
X124567Y-2415266D01*
X176148Y-2382356D01*
X237222Y-2386050D01*
X284460Y-2424937D01*
X300000Y-2478186D01*
X300000Y-3000002D01*
X599997Y-3699995D01*
X600000Y-3700000D01*
X1100000Y-4300000D01*
X1900000Y-4700000D01*
X2899998Y-4700000D01*
X2900000Y-4700000D01*
X3500000Y-4600000D01*
X3923540Y-4247049D01*
X3980344Y-4224323D01*
X4039661Y-4239327D01*
X4078831Y-4286330D01*
X4082893Y-4347381D01*
X4056919Y-4393109D01*
X3090489Y-5359540D01*
X3090488Y-5359539D01*
X3034539Y-5415489D01*
X2994980Y-5484007D01*
X2994978Y-5484011D01*
X2974500Y-5560435D01*
X2974500Y-12376679D01*
X2955593Y-12434870D01*
X2945509Y-12446676D01*
X2874500Y-12517686D01*
X2874497Y-12517689D01*
X2874496Y-12517690D01*
X2808609Y-12631809D01*
X2808608Y-12631814D01*
X2774500Y-12759108D01*
X2774500Y-12890892D01*
X2804579Y-13003151D01*
X2808609Y-13018190D01*
X2874496Y-13132309D01*
X2874498Y-13132311D01*
X2874500Y-13132314D01*
X2967686Y-13225500D01*
X2967688Y-13225501D01*
X2967690Y-13225503D01*
X3081810Y-13291390D01*
X3081808Y-13291390D01*
X3081812Y-13291391D01*
X3081814Y-13291392D01*
X3209108Y-13325500D01*
X3209110Y-13325500D01*
X3340890Y-13325500D01*
X3340892Y-13325500D01*
X3468186Y-13291392D01*
X3468188Y-13291390D01*
X3468190Y-13291390D01*
X3582309Y-13225503D01*
X3582309Y-13225502D01*
X3582314Y-13225500D01*
X3675500Y-13132314D01*
X3705049Y-13081134D01*
X3741390Y-13018190D01*
X3741390Y-13018188D01*
X3741392Y-13018186D01*
X3775500Y-12890892D01*
X3775500Y-12759108D01*
X3741392Y-12631814D01*
X3741390Y-12631811D01*
X3741390Y-12631809D01*
X3675503Y-12517690D01*
X3675501Y-12517688D01*
X3675500Y-12517686D01*
X3604494Y-12446680D01*
X3576719Y-12392166D01*
X3575500Y-12376679D01*
X3575500Y-10762435D01*
X4497500Y-10762435D01*
X4497500Y-10762438D01*
X4497500Y-19304662D01*
X4517979Y-19381089D01*
X4528609Y-19399500D01*
X4557540Y-19449611D01*
X6346839Y-21238910D01*
X6374615Y-21293425D01*
X6375834Y-21308912D01*
X6375834Y-23481840D01*
X6356927Y-23540031D01*
X6346843Y-23551837D01*
X6302881Y-23595800D01*
X6275831Y-23622850D01*
X6275830Y-23622851D01*
X6209943Y-23736970D01*
X6208645Y-23741814D01*
X6175834Y-23864269D01*
X6175834Y-23996053D01*
X6201318Y-24091163D01*
X6209943Y-24123351D01*
X6275830Y-24237470D01*
X6275832Y-24237472D01*
X6275834Y-24237475D01*
X6369020Y-24330661D01*
X6369022Y-24330662D01*
X6369024Y-24330664D01*
X6483144Y-24396551D01*
X6483142Y-24396551D01*
X6483146Y-24396552D01*
X6483148Y-24396553D01*
X6610442Y-24430661D01*
X6610444Y-24430661D01*
X6742224Y-24430661D01*
X6742226Y-24430661D01*
X6869520Y-24396553D01*
X6869522Y-24396551D01*
X6869524Y-24396551D01*
X6983643Y-24330664D01*
X6983643Y-24330663D01*
X6983648Y-24330661D01*
X7076834Y-24237475D01*
X7142726Y-24123347D01*
X7176834Y-23996053D01*
X7176834Y-23864269D01*
X7142726Y-23736975D01*
X7142724Y-23736972D01*
X7142724Y-23736970D01*
X7076837Y-23622851D01*
X7076835Y-23622849D01*
X7076834Y-23622847D01*
X7005828Y-23551841D01*
X6978053Y-23497327D01*
X6976834Y-23481840D01*
X6976834Y-21540813D01*
X6995741Y-21482622D01*
X7045241Y-21446658D01*
X7106427Y-21446658D01*
X7145838Y-21470809D01*
X7670504Y-21995475D01*
X7698281Y-22049992D01*
X7699500Y-22065479D01*
X7699500Y-23486679D01*
X7680593Y-23544870D01*
X7670509Y-23556676D01*
X7631386Y-23595800D01*
X7599497Y-23627689D01*
X7599496Y-23627690D01*
X7533609Y-23741809D01*
X7533608Y-23741814D01*
X7499500Y-23869108D01*
X7499500Y-24000892D01*
X7501192Y-24007206D01*
X7533609Y-24128190D01*
X7599496Y-24242309D01*
X7599498Y-24242311D01*
X7599500Y-24242314D01*
X7692686Y-24335500D01*
X7692688Y-24335501D01*
X7692690Y-24335503D01*
X7806810Y-24401390D01*
X7806808Y-24401390D01*
X7806812Y-24401391D01*
X7806814Y-24401392D01*
X7934108Y-24435500D01*
X7934110Y-24435500D01*
X8065890Y-24435500D01*
X8065892Y-24435500D01*
X8193186Y-24401392D01*
X8193188Y-24401390D01*
X8193190Y-24401390D01*
X8307309Y-24335503D01*
X8307309Y-24335502D01*
X8307314Y-24335500D01*
X8400500Y-24242314D01*
X8466392Y-24128186D01*
X8500500Y-24000892D01*
X8500500Y-23937561D01*
X9944200Y-23937561D01*
X9944200Y-24094439D01*
X9984803Y-24245970D01*
X10063241Y-24381830D01*
X10174170Y-24492759D01*
X10310030Y-24571197D01*
X10461561Y-24611800D01*
X10461562Y-24611800D01*
X10618438Y-24611800D01*
X10618439Y-24611800D01*
X10769970Y-24571197D01*
X10905830Y-24492759D01*
X11016759Y-24381830D01*
X11095197Y-24245970D01*
X11135800Y-24094439D01*
X11135800Y-23937561D01*
X11095197Y-23786030D01*
X11016759Y-23650170D01*
X10905830Y-23539241D01*
X10769970Y-23460803D01*
X10618439Y-23420200D01*
X10461561Y-23420200D01*
X10310030Y-23460803D01*
X10174170Y-23539241D01*
X10063241Y-23650170D01*
X9984803Y-23786030D01*
X9944200Y-23937561D01*
X8500500Y-23937561D01*
X8500500Y-23869108D01*
X8466392Y-23741814D01*
X8466390Y-23741811D01*
X8466390Y-23741809D01*
X8400503Y-23627690D01*
X8400501Y-23627688D01*
X8400500Y-23627686D01*
X8329494Y-23556680D01*
X8301719Y-23502166D01*
X8300500Y-23486679D01*
X8300500Y-21905561D01*
X9944200Y-21905561D01*
X9944200Y-22062439D01*
X9984803Y-22213970D01*
X10063241Y-22349830D01*
X10174170Y-22460759D01*
X10310030Y-22539197D01*
X10461561Y-22579800D01*
X10461562Y-22579800D01*
X10618438Y-22579800D01*
X10618439Y-22579800D01*
X10769970Y-22539197D01*
X10905830Y-22460759D01*
X11016759Y-22349830D01*
X11095197Y-22213970D01*
X11135800Y-22062439D01*
X11135800Y-21905561D01*
X11095197Y-21754030D01*
X11016759Y-21618170D01*
X10905830Y-21507241D01*
X10769970Y-21428803D01*
X10618439Y-21388200D01*
X10461561Y-21388200D01*
X10310030Y-21428803D01*
X10174170Y-21507241D01*
X10063241Y-21618170D01*
X9984803Y-21754030D01*
X9944200Y-21905561D01*
X8300500Y-21905561D01*
X8300500Y-21860437D01*
X8300499Y-21860435D01*
X8280021Y-21784011D01*
X8280019Y-21784007D01*
X8240460Y-21715489D01*
X8184511Y-21659539D01*
X8184511Y-21659540D01*
X5528496Y-19003525D01*
X5500719Y-18949008D01*
X5499500Y-18933521D01*
X5499500Y-18330253D01*
X6574500Y-18330253D01*
X6574500Y-19369746D01*
X6574501Y-19369758D01*
X6585490Y-19425000D01*
X6586133Y-19428231D01*
X6630448Y-19494552D01*
X6696769Y-19538867D01*
X6741231Y-19547711D01*
X6755241Y-19550498D01*
X6755246Y-19550498D01*
X6755252Y-19550500D01*
X7570684Y-19550500D01*
X7628875Y-19569407D01*
X7664839Y-19618907D01*
X7664839Y-19680093D01*
X7656420Y-19699000D01*
X7608609Y-19781809D01*
X7603601Y-19800500D01*
X7574500Y-19909108D01*
X7574500Y-20040892D01*
X7590472Y-20100500D01*
X7608609Y-20168190D01*
X7674496Y-20282309D01*
X7674498Y-20282311D01*
X7674500Y-20282314D01*
X7767686Y-20375500D01*
X7767688Y-20375501D01*
X7767690Y-20375503D01*
X7881810Y-20441390D01*
X7881808Y-20441390D01*
X7881812Y-20441391D01*
X7881814Y-20441392D01*
X8009108Y-20475500D01*
X8009110Y-20475500D01*
X8140890Y-20475500D01*
X8140892Y-20475500D01*
X8268186Y-20441392D01*
X8268188Y-20441390D01*
X8268190Y-20441390D01*
X8382309Y-20375503D01*
X8382309Y-20375502D01*
X8382314Y-20375500D01*
X8475500Y-20282314D01*
X8541392Y-20168186D01*
X8575500Y-20040892D01*
X8575500Y-19909108D01*
X8541392Y-19781814D01*
X8541390Y-19781811D01*
X8541390Y-19781809D01*
X8493580Y-19699000D01*
X8480858Y-19639152D01*
X8505745Y-19583256D01*
X8558733Y-19552663D01*
X8579316Y-19550500D01*
X9294747Y-19550500D01*
X9294748Y-19550500D01*
X9353231Y-19538867D01*
X9419552Y-19494552D01*
X9463867Y-19428231D01*
X9475500Y-19369748D01*
X9475500Y-19349500D01*
X9494407Y-19291309D01*
X9543907Y-19255345D01*
X9574500Y-19250500D01*
X14641160Y-19250500D01*
X14690658Y-19263763D01*
X14781814Y-19316392D01*
X14909108Y-19350500D01*
X14909110Y-19350500D01*
X15040890Y-19350500D01*
X15040892Y-19350500D01*
X15118350Y-19329745D01*
X15179449Y-19332947D01*
X15213975Y-19355368D01*
X17829087Y-21970480D01*
X17829089Y-21970481D01*
X17829090Y-21970482D01*
X17829091Y-21970483D01*
X17920408Y-22023205D01*
X17920406Y-22023205D01*
X17920410Y-22023206D01*
X17920412Y-22023207D01*
X18022273Y-22050500D01*
X18022275Y-22050500D01*
X36127725Y-22050500D01*
X36127727Y-22050500D01*
X36229588Y-22023207D01*
X36229590Y-22023205D01*
X36229592Y-22023205D01*
X36320908Y-21970483D01*
X36320908Y-21970482D01*
X36320913Y-21970480D01*
X39011897Y-19279496D01*
X39066414Y-19251719D01*
X39081901Y-19250500D01*
X43016160Y-19250500D01*
X43065658Y-19263763D01*
X43156814Y-19316392D01*
X43284108Y-19350500D01*
X43284110Y-19350500D01*
X43415890Y-19350500D01*
X43415892Y-19350500D01*
X43543186Y-19316392D01*
X43634341Y-19263763D01*
X43683840Y-19250500D01*
X46275500Y-19250500D01*
X46333691Y-19269407D01*
X46369655Y-19318907D01*
X46374500Y-19349500D01*
X46374500Y-19369746D01*
X46374501Y-19369758D01*
X46385490Y-19425000D01*
X46386133Y-19428231D01*
X46430448Y-19494552D01*
X46496769Y-19538867D01*
X46541231Y-19547711D01*
X46555241Y-19550498D01*
X46555246Y-19550498D01*
X46555252Y-19550500D01*
X46555253Y-19550500D01*
X48594747Y-19550500D01*
X48594748Y-19550500D01*
X48653231Y-19538867D01*
X48719552Y-19494552D01*
X48763867Y-19428231D01*
X48775500Y-19369748D01*
X48775500Y-18330252D01*
X48763867Y-18271769D01*
X48719552Y-18205448D01*
X48707521Y-18197409D01*
X48653233Y-18161134D01*
X48653231Y-18161133D01*
X48653228Y-18161132D01*
X48653227Y-18161132D01*
X48594758Y-18149501D01*
X48594748Y-18149500D01*
X46555252Y-18149500D01*
X46555251Y-18149500D01*
X46555241Y-18149501D01*
X46496772Y-18161132D01*
X46496766Y-18161134D01*
X46430451Y-18205445D01*
X46430445Y-18205451D01*
X46386134Y-18271766D01*
X46386132Y-18271772D01*
X46374501Y-18330241D01*
X46374500Y-18330253D01*
X46374500Y-18350500D01*
X46355593Y-18408691D01*
X46306093Y-18444655D01*
X46275500Y-18449500D01*
X43683840Y-18449500D01*
X43634341Y-18436236D01*
X43543186Y-18383608D01*
X43415892Y-18349500D01*
X43284108Y-18349500D01*
X43156814Y-18383608D01*
X43156813Y-18383608D01*
X43156811Y-18383609D01*
X43113369Y-18408691D01*
X43065658Y-18436236D01*
X43016160Y-18449500D01*
X38927727Y-18449500D01*
X38822273Y-18449500D01*
X38772979Y-18462708D01*
X38720407Y-18476794D01*
X38629091Y-18529516D01*
X35938103Y-21220504D01*
X35883586Y-21248281D01*
X35868099Y-21249500D01*
X18281901Y-21249500D01*
X18223710Y-21230593D01*
X18211897Y-21220504D01*
X16871986Y-19880593D01*
X15520913Y-18529520D01*
X15520910Y-18529518D01*
X15520909Y-18529517D01*
X15520908Y-18529516D01*
X15429591Y-18476794D01*
X15429593Y-18476794D01*
X15377021Y-18462708D01*
X15327727Y-18449500D01*
X15327725Y-18449500D01*
X15308840Y-18449500D01*
X15259341Y-18436236D01*
X15168186Y-18383608D01*
X15040892Y-18349500D01*
X14909108Y-18349500D01*
X14781814Y-18383608D01*
X14781813Y-18383608D01*
X14781811Y-18383609D01*
X14738369Y-18408691D01*
X14690658Y-18436236D01*
X14641160Y-18449500D01*
X9574500Y-18449500D01*
X9516309Y-18430593D01*
X9480345Y-18381093D01*
X9475500Y-18350500D01*
X9475500Y-18330253D01*
X9475498Y-18330241D01*
X9472711Y-18316231D01*
X9463867Y-18271769D01*
X9419552Y-18205448D01*
X9407521Y-18197409D01*
X9353233Y-18161134D01*
X9353231Y-18161133D01*
X9353228Y-18161132D01*
X9353227Y-18161132D01*
X9294758Y-18149501D01*
X9294748Y-18149500D01*
X6755252Y-18149500D01*
X6755251Y-18149500D01*
X6755241Y-18149501D01*
X6696772Y-18161132D01*
X6696766Y-18161134D01*
X6630451Y-18205445D01*
X6630445Y-18205451D01*
X6586134Y-18271766D01*
X6586132Y-18271772D01*
X6574501Y-18330241D01*
X6574500Y-18330253D01*
X5499500Y-18330253D01*
X5499500Y-18026456D01*
X21849500Y-18026456D01*
X21849500Y-18223543D01*
X21887949Y-18416834D01*
X21887949Y-18416836D01*
X21963367Y-18598913D01*
X21963368Y-18598914D01*
X22072861Y-18762782D01*
X22212218Y-18902139D01*
X22376086Y-19011632D01*
X22558165Y-19087051D01*
X22751459Y-19125500D01*
X22751460Y-19125500D01*
X22948540Y-19125500D01*
X22948541Y-19125500D01*
X23141835Y-19087051D01*
X23323914Y-19011632D01*
X23487782Y-18902139D01*
X23627139Y-18762782D01*
X23736632Y-18598914D01*
X23812051Y-18416835D01*
X23850500Y-18223541D01*
X23850500Y-18026459D01*
X23847931Y-18013543D01*
X25099500Y-18013543D01*
X25099500Y-18236457D01*
X25125058Y-18430593D01*
X25128595Y-18457455D01*
X25128595Y-18457460D01*
X25186290Y-18672782D01*
X25271592Y-18878722D01*
X25271595Y-18878727D01*
X25383048Y-19071767D01*
X25383052Y-19071774D01*
X25518753Y-19248624D01*
X25676376Y-19406247D01*
X25853226Y-19541948D01*
X25871785Y-19552663D01*
X26046272Y-19653404D01*
X26046277Y-19653407D01*
X26156350Y-19699000D01*
X26252219Y-19738710D01*
X26467537Y-19796404D01*
X26688543Y-19825500D01*
X26688544Y-19825500D01*
X27311456Y-19825500D01*
X27311457Y-19825500D01*
X27532463Y-19796404D01*
X27747781Y-19738710D01*
X27919249Y-19667686D01*
X27953722Y-19653407D01*
X27953723Y-19653405D01*
X27953726Y-19653405D01*
X28146774Y-19541948D01*
X28323624Y-19406247D01*
X28481247Y-19248624D01*
X28616948Y-19071774D01*
X28728405Y-18878726D01*
X28813710Y-18672781D01*
X28871404Y-18457463D01*
X28900500Y-18236457D01*
X28900500Y-18022684D01*
X29850000Y-18022684D01*
X29850000Y-18227315D01*
X29882008Y-18429412D01*
X29945243Y-18624027D01*
X30038139Y-18806348D01*
X30038143Y-18806353D01*
X30070523Y-18850920D01*
X30070524Y-18850920D01*
X30626212Y-18295232D01*
X30637482Y-18337292D01*
X30709890Y-18462708D01*
X30812292Y-18565110D01*
X30937708Y-18637518D01*
X30979765Y-18648787D01*
X30424078Y-19204475D01*
X30468647Y-19236858D01*
X30650972Y-19329756D01*
X30845587Y-19392991D01*
X31047685Y-19425000D01*
X31252315Y-19425000D01*
X31454412Y-19392991D01*
X31649027Y-19329756D01*
X31831342Y-19236863D01*
X31831350Y-19236858D01*
X31875920Y-19204475D01*
X31320232Y-18648787D01*
X31362292Y-18637518D01*
X31487708Y-18565110D01*
X31590110Y-18462708D01*
X31662518Y-18337292D01*
X31673787Y-18295232D01*
X32229475Y-18850920D01*
X32261858Y-18806350D01*
X32261863Y-18806342D01*
X32354756Y-18624027D01*
X32417991Y-18429412D01*
X32450000Y-18227315D01*
X32450000Y-18022684D01*
X32417991Y-17820587D01*
X32354756Y-17625972D01*
X32261858Y-17443647D01*
X32229475Y-17399078D01*
X31673787Y-17954765D01*
X31662518Y-17912708D01*
X31590110Y-17787292D01*
X31487708Y-17684890D01*
X31362292Y-17612482D01*
X31320232Y-17601212D01*
X31875920Y-17045524D01*
X31875920Y-17045523D01*
X31831353Y-17013143D01*
X31831348Y-17013139D01*
X31649027Y-16920243D01*
X31454412Y-16857008D01*
X31252315Y-16825000D01*
X31047685Y-16825000D01*
X30845587Y-16857008D01*
X30650972Y-16920243D01*
X30468651Y-17013139D01*
X30468647Y-17013141D01*
X30424078Y-17045523D01*
X30979767Y-17601212D01*
X30937708Y-17612482D01*
X30812292Y-17684890D01*
X30709890Y-17787292D01*
X30637482Y-17912708D01*
X30626212Y-17954767D01*
X30070523Y-17399078D01*
X30038141Y-17443647D01*
X30038139Y-17443651D01*
X29945243Y-17625972D01*
X29882008Y-17820587D01*
X29850000Y-18022684D01*
X28900500Y-18022684D01*
X28900500Y-18013543D01*
X28871404Y-17792537D01*
X28813710Y-17577219D01*
X28797953Y-17539179D01*
X28728407Y-17371277D01*
X28728404Y-17371272D01*
X28616949Y-17178228D01*
X28616948Y-17178226D01*
X28481247Y-17001376D01*
X28323624Y-16843753D01*
X28146774Y-16708052D01*
X28146771Y-16708050D01*
X27953727Y-16596595D01*
X27953722Y-16596592D01*
X27747782Y-16511290D01*
X27652839Y-16485850D01*
X27532463Y-16453596D01*
X27532460Y-16453595D01*
X27532458Y-16453595D01*
X27311457Y-16424500D01*
X26688543Y-16424500D01*
X26688542Y-16424500D01*
X26467544Y-16453595D01*
X26467539Y-16453595D01*
X26252217Y-16511290D01*
X26046277Y-16596592D01*
X26046272Y-16596595D01*
X25853228Y-16708050D01*
X25676379Y-16843750D01*
X25518750Y-17001379D01*
X25383050Y-17178228D01*
X25271595Y-17371272D01*
X25271592Y-17371277D01*
X25186290Y-17577217D01*
X25128595Y-17792539D01*
X25128595Y-17792544D01*
X25099500Y-18013543D01*
X23847931Y-18013543D01*
X23812051Y-17833165D01*
X23736632Y-17651086D01*
X23627139Y-17487218D01*
X23487782Y-17347861D01*
X23323914Y-17238368D01*
X23323915Y-17238368D01*
X23323913Y-17238367D01*
X23141835Y-17162949D01*
X22948543Y-17124500D01*
X22948541Y-17124500D01*
X22751459Y-17124500D01*
X22751456Y-17124500D01*
X22558165Y-17162949D01*
X22558163Y-17162949D01*
X22376086Y-17238367D01*
X22212218Y-17347861D01*
X22212214Y-17347864D01*
X22072864Y-17487214D01*
X22072861Y-17487218D01*
X21963367Y-17651086D01*
X21887949Y-17833163D01*
X21887949Y-17833165D01*
X21849500Y-18026456D01*
X5499500Y-18026456D01*
X5499500Y-15790253D01*
X6574500Y-15790253D01*
X6574500Y-16829746D01*
X6574501Y-16829758D01*
X6579922Y-16857008D01*
X6586133Y-16888231D01*
X6630448Y-16954552D01*
X6696769Y-16998867D01*
X6741231Y-17007711D01*
X6755241Y-17010498D01*
X6755246Y-17010498D01*
X6755252Y-17010500D01*
X6755253Y-17010500D01*
X9294747Y-17010500D01*
X9294748Y-17010500D01*
X9353231Y-16998867D01*
X9419552Y-16954552D01*
X9463867Y-16888231D01*
X9463868Y-16888225D01*
X9467597Y-16879224D01*
X9469236Y-16879903D01*
X9493371Y-16836805D01*
X9548935Y-16811187D01*
X9560575Y-16810500D01*
X9665890Y-16810500D01*
X9665892Y-16810500D01*
X9793186Y-16776392D01*
X9884341Y-16723763D01*
X9933840Y-16710500D01*
X9992725Y-16710500D01*
X9992727Y-16710500D01*
X10094588Y-16683207D01*
X10094590Y-16683205D01*
X10094592Y-16683205D01*
X10185908Y-16630483D01*
X10185908Y-16630482D01*
X10185913Y-16630480D01*
X10886897Y-15929496D01*
X10941414Y-15901719D01*
X10956901Y-15900500D01*
X43693099Y-15900500D01*
X43751290Y-15919407D01*
X43763103Y-15929496D01*
X44464087Y-16630480D01*
X44464089Y-16630481D01*
X44464090Y-16630482D01*
X44464091Y-16630483D01*
X44555408Y-16683205D01*
X44555406Y-16683205D01*
X44555410Y-16683206D01*
X44555412Y-16683207D01*
X44657273Y-16710500D01*
X44716160Y-16710500D01*
X44765658Y-16723763D01*
X44856814Y-16776392D01*
X44984108Y-16810500D01*
X44984110Y-16810500D01*
X45115890Y-16810500D01*
X45115892Y-16810500D01*
X45243186Y-16776392D01*
X45334341Y-16723763D01*
X45383840Y-16710500D01*
X46275500Y-16710500D01*
X46333691Y-16729407D01*
X46369655Y-16778907D01*
X46374500Y-16809500D01*
X46374500Y-16829746D01*
X46374501Y-16829758D01*
X46379922Y-16857008D01*
X46386133Y-16888231D01*
X46430448Y-16954552D01*
X46496769Y-16998867D01*
X46541231Y-17007711D01*
X46555241Y-17010498D01*
X46555246Y-17010498D01*
X46555252Y-17010500D01*
X46555253Y-17010500D01*
X48594747Y-17010500D01*
X48594748Y-17010500D01*
X48653231Y-16998867D01*
X48719552Y-16954552D01*
X48763867Y-16888231D01*
X48775500Y-16829748D01*
X48775500Y-15790252D01*
X48763867Y-15731769D01*
X48719552Y-15665448D01*
X48719548Y-15665445D01*
X48653233Y-15621134D01*
X48653231Y-15621133D01*
X48653228Y-15621132D01*
X48653227Y-15621132D01*
X48594758Y-15609501D01*
X48594748Y-15609500D01*
X46555252Y-15609500D01*
X46555251Y-15609500D01*
X46555241Y-15609501D01*
X46496772Y-15621132D01*
X46496766Y-15621134D01*
X46430451Y-15665445D01*
X46430445Y-15665451D01*
X46386134Y-15731766D01*
X46386132Y-15731772D01*
X46374501Y-15790241D01*
X46374500Y-15790253D01*
X46374500Y-15810500D01*
X46355593Y-15868691D01*
X46306093Y-15904655D01*
X46275500Y-15909500D01*
X45383840Y-15909500D01*
X45334341Y-15896236D01*
X45243186Y-15843608D01*
X45115892Y-15809500D01*
X44984108Y-15809500D01*
X44947220Y-15819383D01*
X44875103Y-15838707D01*
X44814002Y-15835504D01*
X44779477Y-15813084D01*
X44575893Y-15609500D01*
X44145913Y-15179520D01*
X44145910Y-15179518D01*
X44145909Y-15179517D01*
X44145908Y-15179516D01*
X44054591Y-15126794D01*
X44054593Y-15126794D01*
X44015070Y-15116204D01*
X43952727Y-15099500D01*
X10802727Y-15099500D01*
X10697273Y-15099500D01*
X10634929Y-15116204D01*
X10595407Y-15126794D01*
X10504091Y-15179516D01*
X10504086Y-15179520D01*
X9870520Y-15813084D01*
X9816004Y-15840861D01*
X9774895Y-15838707D01*
X9665892Y-15809500D01*
X9560575Y-15809500D01*
X9502384Y-15790593D01*
X9466420Y-15741093D01*
X9464192Y-15732557D01*
X9463867Y-15731772D01*
X9463867Y-15731769D01*
X9419552Y-15665448D01*
X9419548Y-15665445D01*
X9353233Y-15621134D01*
X9353231Y-15621133D01*
X9353228Y-15621132D01*
X9353227Y-15621132D01*
X9294758Y-15609501D01*
X9294748Y-15609500D01*
X6755252Y-15609500D01*
X6755251Y-15609500D01*
X6755241Y-15609501D01*
X6696772Y-15621132D01*
X6696766Y-15621134D01*
X6630451Y-15665445D01*
X6630445Y-15665451D01*
X6586134Y-15731766D01*
X6586132Y-15731772D01*
X6574501Y-15790241D01*
X6574500Y-15790253D01*
X5499500Y-15790253D01*
X5499500Y-13250253D01*
X6574500Y-13250253D01*
X6574500Y-14289746D01*
X6574501Y-14289758D01*
X6586132Y-14348227D01*
X6586133Y-14348231D01*
X6630448Y-14414552D01*
X6696769Y-14458867D01*
X6730377Y-14465552D01*
X6755241Y-14470498D01*
X6755246Y-14470498D01*
X6755252Y-14470500D01*
X6755253Y-14470500D01*
X9294747Y-14470500D01*
X9294748Y-14470500D01*
X9353231Y-14458867D01*
X9419552Y-14414552D01*
X9463867Y-14348231D01*
X9475500Y-14289748D01*
X9475500Y-14269500D01*
X9494407Y-14211309D01*
X9543907Y-14175345D01*
X9574500Y-14170500D01*
X10091160Y-14170500D01*
X10140658Y-14183763D01*
X10231814Y-14236392D01*
X10359108Y-14270500D01*
X10359110Y-14270500D01*
X10490890Y-14270500D01*
X10490892Y-14270500D01*
X10618186Y-14236392D01*
X10709341Y-14183763D01*
X10758840Y-14170500D01*
X10838099Y-14170500D01*
X10896290Y-14189407D01*
X10908103Y-14199496D01*
X11479087Y-14770480D01*
X11479089Y-14770481D01*
X11479090Y-14770482D01*
X11479091Y-14770483D01*
X11570408Y-14823205D01*
X11570406Y-14823205D01*
X11570410Y-14823206D01*
X11570412Y-14823207D01*
X11672273Y-14850500D01*
X11672275Y-14850500D01*
X44402725Y-14850500D01*
X44402727Y-14850500D01*
X44504588Y-14823207D01*
X44504590Y-14823205D01*
X44504592Y-14823205D01*
X44595908Y-14770483D01*
X44595908Y-14770482D01*
X44595913Y-14770480D01*
X44741405Y-14624987D01*
X44886898Y-14479496D01*
X44941414Y-14451719D01*
X44956901Y-14450500D01*
X45866160Y-14450500D01*
X45915658Y-14463763D01*
X46006814Y-14516392D01*
X46134108Y-14550500D01*
X46134110Y-14550500D01*
X46265890Y-14550500D01*
X46265892Y-14550500D01*
X46393186Y-14516392D01*
X46461563Y-14476913D01*
X46521410Y-14464192D01*
X46530372Y-14465551D01*
X46555252Y-14470500D01*
X46555253Y-14470500D01*
X48594747Y-14470500D01*
X48594748Y-14470500D01*
X48653231Y-14458867D01*
X48719552Y-14414552D01*
X48763867Y-14348231D01*
X48775500Y-14289748D01*
X48775500Y-13250252D01*
X48763867Y-13191769D01*
X48719552Y-13125448D01*
X48719548Y-13125445D01*
X48653233Y-13081134D01*
X48653231Y-13081133D01*
X48653228Y-13081132D01*
X48653227Y-13081132D01*
X48594758Y-13069501D01*
X48594748Y-13069500D01*
X46555252Y-13069500D01*
X46555251Y-13069500D01*
X46555241Y-13069501D01*
X46496772Y-13081132D01*
X46496766Y-13081134D01*
X46430451Y-13125445D01*
X46430445Y-13125451D01*
X46386134Y-13191766D01*
X46386132Y-13191772D01*
X46374501Y-13250241D01*
X46374500Y-13250253D01*
X46374500Y-13450910D01*
X46355593Y-13509101D01*
X46306093Y-13545065D01*
X46272381Y-13548166D01*
X46272381Y-13549500D01*
X46265892Y-13549500D01*
X46134108Y-13549500D01*
X46006814Y-13583608D01*
X46006813Y-13583608D01*
X46006811Y-13583609D01*
X45958750Y-13611357D01*
X45915658Y-13636236D01*
X45866160Y-13649500D01*
X44697273Y-13649500D01*
X44595413Y-13676793D01*
X44513897Y-13723856D01*
X44513895Y-13723856D01*
X44504086Y-13729520D01*
X44213103Y-14020504D01*
X44158586Y-14048281D01*
X44143099Y-14049500D01*
X11931901Y-14049500D01*
X11873710Y-14030593D01*
X11861897Y-14020504D01*
X11290913Y-13449520D01*
X11290910Y-13449518D01*
X11290909Y-13449517D01*
X11290908Y-13449516D01*
X11199591Y-13396794D01*
X11199593Y-13396794D01*
X11160070Y-13386204D01*
X11097727Y-13369500D01*
X11097725Y-13369500D01*
X10758840Y-13369500D01*
X10709341Y-13356236D01*
X10618186Y-13303608D01*
X10490892Y-13269500D01*
X10359108Y-13269500D01*
X10231814Y-13303608D01*
X10231813Y-13303608D01*
X10231811Y-13303609D01*
X10193896Y-13325500D01*
X10140658Y-13356236D01*
X10091160Y-13369500D01*
X9574500Y-13369500D01*
X9516309Y-13350593D01*
X9480345Y-13301093D01*
X9475500Y-13270500D01*
X9475500Y-13250253D01*
X9475498Y-13250241D01*
X9470577Y-13225503D01*
X9463867Y-13191769D01*
X9419552Y-13125448D01*
X9419548Y-13125445D01*
X9353233Y-13081134D01*
X9353231Y-13081133D01*
X9353228Y-13081132D01*
X9353227Y-13081132D01*
X9294758Y-13069501D01*
X9294748Y-13069500D01*
X6755252Y-13069500D01*
X6755251Y-13069500D01*
X6755241Y-13069501D01*
X6696772Y-13081132D01*
X6696766Y-13081134D01*
X6630451Y-13125445D01*
X6630445Y-13125451D01*
X6586134Y-13191766D01*
X6586132Y-13191772D01*
X6574501Y-13250241D01*
X6574500Y-13250253D01*
X5499500Y-13250253D01*
X5499500Y-12401456D01*
X19149500Y-12401456D01*
X19149500Y-12598543D01*
X19187949Y-12791834D01*
X19187949Y-12791836D01*
X19263367Y-12973913D01*
X19292950Y-13018186D01*
X19372861Y-13137782D01*
X19512218Y-13277139D01*
X19676086Y-13386632D01*
X19858165Y-13462051D01*
X20051459Y-13500500D01*
X20051460Y-13500500D01*
X20248540Y-13500500D01*
X20248541Y-13500500D01*
X20441835Y-13462051D01*
X20623914Y-13386632D01*
X20787782Y-13277139D01*
X20927139Y-13137782D01*
X21036632Y-12973914D01*
X21112051Y-12791835D01*
X21150500Y-12598541D01*
X21150500Y-12401459D01*
X21112051Y-12208165D01*
X21036632Y-12026086D01*
X20927139Y-11862218D01*
X20787782Y-11722861D01*
X20623914Y-11613368D01*
X20623915Y-11613368D01*
X20623913Y-11613367D01*
X20441835Y-11537949D01*
X20248543Y-11499500D01*
X20248541Y-11499500D01*
X20051459Y-11499500D01*
X20051456Y-11499500D01*
X19858165Y-11537949D01*
X19858163Y-11537949D01*
X19676086Y-11613367D01*
X19512218Y-11722861D01*
X19512214Y-11722864D01*
X19372864Y-11862214D01*
X19372861Y-11862218D01*
X19263367Y-12026086D01*
X19187949Y-12208163D01*
X19187949Y-12208165D01*
X19149500Y-12401456D01*
X5499500Y-12401456D01*
X5499500Y-11133579D01*
X5518407Y-11075388D01*
X5528496Y-11063575D01*
X5881818Y-10710253D01*
X6574500Y-10710253D01*
X6574500Y-11749746D01*
X6574501Y-11749758D01*
X6586132Y-11808227D01*
X6586134Y-11808233D01*
X6630445Y-11874548D01*
X6630448Y-11874552D01*
X6696769Y-11918867D01*
X6741231Y-11927711D01*
X6755241Y-11930498D01*
X6755246Y-11930498D01*
X6755252Y-11930500D01*
X6755253Y-11930500D01*
X9294747Y-11930500D01*
X9294748Y-11930500D01*
X9353231Y-11918867D01*
X9419552Y-11874552D01*
X9463867Y-11808231D01*
X9475500Y-11749748D01*
X9475500Y-11729500D01*
X9480345Y-11714588D01*
X9480345Y-11698907D01*
X9489561Y-11686221D01*
X9494407Y-11671309D01*
X9507092Y-11662092D01*
X9516309Y-11649407D01*
X9531221Y-11644561D01*
X9543907Y-11635345D01*
X9574500Y-11630500D01*
X9691160Y-11630500D01*
X9740658Y-11643763D01*
X9831814Y-11696392D01*
X9959108Y-11730500D01*
X9959110Y-11730500D01*
X10090890Y-11730500D01*
X10090892Y-11730500D01*
X10218186Y-11696392D01*
X10309341Y-11643763D01*
X10358840Y-11630500D01*
X15547725Y-11630500D01*
X15547727Y-11630500D01*
X15649588Y-11603207D01*
X15649590Y-11603205D01*
X15649592Y-11603205D01*
X15740908Y-11550483D01*
X15740908Y-11550482D01*
X15740913Y-11550480D01*
X16236897Y-11054496D01*
X16291414Y-11026719D01*
X16306901Y-11025500D01*
X44063099Y-11025500D01*
X44121290Y-11044407D01*
X44133103Y-11054496D01*
X44629087Y-11550480D01*
X44629089Y-11550481D01*
X44629090Y-11550482D01*
X44629091Y-11550483D01*
X44720408Y-11603205D01*
X44720406Y-11603205D01*
X44720410Y-11603206D01*
X44720412Y-11603207D01*
X44822273Y-11630500D01*
X46275500Y-11630500D01*
X46333691Y-11649407D01*
X46369655Y-11698907D01*
X46374500Y-11729500D01*
X46374500Y-11749746D01*
X46374501Y-11749758D01*
X46386132Y-11808227D01*
X46386134Y-11808233D01*
X46430445Y-11874548D01*
X46430448Y-11874552D01*
X46496769Y-11918867D01*
X46541231Y-11927711D01*
X46555241Y-11930498D01*
X46555246Y-11930498D01*
X46555252Y-11930500D01*
X46555253Y-11930500D01*
X48594747Y-11930500D01*
X48594748Y-11930500D01*
X48653231Y-11918867D01*
X48719552Y-11874552D01*
X48763867Y-11808231D01*
X48772428Y-11765188D01*
X48802326Y-11711806D01*
X48857891Y-11686191D01*
X48917900Y-11698128D01*
X48939530Y-11714501D01*
X49595504Y-12370475D01*
X49623281Y-12424992D01*
X49624500Y-12440479D01*
X49624500Y-12540892D01*
X49648861Y-12631809D01*
X49658609Y-12668190D01*
X49724496Y-12782309D01*
X49724498Y-12782311D01*
X49724500Y-12782314D01*
X49817686Y-12875500D01*
X49817688Y-12875501D01*
X49817690Y-12875503D01*
X49931810Y-12941390D01*
X49931808Y-12941390D01*
X49931812Y-12941391D01*
X49931814Y-12941392D01*
X50059108Y-12975500D01*
X50059110Y-12975500D01*
X50190890Y-12975500D01*
X50190892Y-12975500D01*
X50318186Y-12941392D01*
X50318188Y-12941390D01*
X50318190Y-12941390D01*
X50432309Y-12875503D01*
X50432309Y-12875502D01*
X50432314Y-12875500D01*
X50525500Y-12782314D01*
X50525503Y-12782309D01*
X50591390Y-12668190D01*
X50591390Y-12668188D01*
X50591392Y-12668186D01*
X50625500Y-12540892D01*
X50625500Y-12409108D01*
X50591392Y-12281814D01*
X50591390Y-12281811D01*
X50591390Y-12281809D01*
X50525503Y-12167690D01*
X50525501Y-12167688D01*
X50525500Y-12167686D01*
X50432314Y-12074500D01*
X50432311Y-12074498D01*
X50432309Y-12074496D01*
X50318189Y-12008609D01*
X50318191Y-12008609D01*
X50268799Y-11995375D01*
X50190892Y-11974500D01*
X50090479Y-11974500D01*
X50032288Y-11955593D01*
X50020475Y-11945504D01*
X49574471Y-11499500D01*
X49064511Y-10989540D01*
X49055066Y-10984087D01*
X48995989Y-10949979D01*
X48995988Y-10949978D01*
X48995987Y-10949978D01*
X48919564Y-10929500D01*
X48919562Y-10929500D01*
X48874500Y-10929500D01*
X48816309Y-10910593D01*
X48780345Y-10861093D01*
X48775500Y-10830500D01*
X48775500Y-10710253D01*
X48775498Y-10710241D01*
X48770677Y-10686007D01*
X48763867Y-10651769D01*
X48719552Y-10585448D01*
X48683772Y-10561540D01*
X48653233Y-10541134D01*
X48653231Y-10541133D01*
X48653228Y-10541132D01*
X48653227Y-10541132D01*
X48594758Y-10529501D01*
X48594748Y-10529500D01*
X46555252Y-10529500D01*
X46555251Y-10529500D01*
X46555241Y-10529501D01*
X46496772Y-10541132D01*
X46496766Y-10541134D01*
X46430451Y-10585445D01*
X46430445Y-10585451D01*
X46386134Y-10651766D01*
X46386132Y-10651772D01*
X46374501Y-10710241D01*
X46374500Y-10710253D01*
X46374500Y-10730500D01*
X46355593Y-10788691D01*
X46306093Y-10824655D01*
X46275500Y-10829500D01*
X45081901Y-10829500D01*
X45023710Y-10810593D01*
X45011897Y-10800504D01*
X44772932Y-10561539D01*
X44515913Y-10304520D01*
X44515910Y-10304518D01*
X44515909Y-10304517D01*
X44515908Y-10304516D01*
X44424591Y-10251794D01*
X44424593Y-10251794D01*
X44385070Y-10241204D01*
X44322727Y-10224500D01*
X16152727Y-10224500D01*
X16047273Y-10224500D01*
X15984929Y-10241204D01*
X15945407Y-10251794D01*
X15854091Y-10304516D01*
X15358103Y-10800504D01*
X15303586Y-10828281D01*
X15288099Y-10829500D01*
X10358840Y-10829500D01*
X10309341Y-10816236D01*
X10218186Y-10763608D01*
X10090892Y-10729500D01*
X9959108Y-10729500D01*
X9831814Y-10763608D01*
X9831813Y-10763608D01*
X9831811Y-10763609D01*
X9788369Y-10788691D01*
X9740658Y-10816236D01*
X9691160Y-10829500D01*
X9574500Y-10829500D01*
X9516309Y-10810593D01*
X9480345Y-10761093D01*
X9475500Y-10730500D01*
X9475500Y-10710253D01*
X9475498Y-10710241D01*
X9470677Y-10686007D01*
X9463867Y-10651769D01*
X9419552Y-10585448D01*
X9383772Y-10561540D01*
X9353233Y-10541134D01*
X9353231Y-10541133D01*
X9353228Y-10541132D01*
X9353227Y-10541132D01*
X9294758Y-10529501D01*
X9294748Y-10529500D01*
X6755252Y-10529500D01*
X6755251Y-10529500D01*
X6755241Y-10529501D01*
X6696772Y-10541132D01*
X6696766Y-10541134D01*
X6630451Y-10585445D01*
X6630445Y-10585451D01*
X6586134Y-10651766D01*
X6586132Y-10651772D01*
X6574501Y-10710241D01*
X6574500Y-10710253D01*
X5881818Y-10710253D01*
X6370575Y-10221496D01*
X6425092Y-10193719D01*
X6440579Y-10192500D01*
X12197563Y-10192500D01*
X12197563Y-10192499D01*
X12273989Y-10172021D01*
X12342511Y-10132460D01*
X12398460Y-10076511D01*
X12545475Y-9929496D01*
X12599992Y-9901719D01*
X12615479Y-9900500D01*
X13239178Y-9900500D01*
X13297369Y-9919407D01*
X13309175Y-9929490D01*
X13380185Y-10000500D01*
X13380187Y-10000501D01*
X13380189Y-10000503D01*
X13494309Y-10066390D01*
X13494307Y-10066390D01*
X13494311Y-10066391D01*
X13494313Y-10066392D01*
X13621607Y-10100500D01*
X13621609Y-10100500D01*
X13753389Y-10100500D01*
X13753391Y-10100500D01*
X13880685Y-10066392D01*
X13880687Y-10066390D01*
X13880689Y-10066390D01*
X13994808Y-10000503D01*
X13994808Y-10000502D01*
X13994813Y-10000500D01*
X14087999Y-9907314D01*
X14096156Y-9893186D01*
X14153889Y-9793190D01*
X14153889Y-9793188D01*
X14153891Y-9793186D01*
X14187999Y-9665892D01*
X14187999Y-9534108D01*
X14158528Y-9424120D01*
X14160000Y-9396042D01*
X14160000Y-9367907D01*
X14161589Y-9365719D01*
X14161731Y-9363022D01*
X14179419Y-9341177D01*
X14195964Y-9318407D01*
X14198536Y-9317571D01*
X14200236Y-9315472D01*
X14254155Y-9299500D01*
X14283521Y-9299500D01*
X14341712Y-9318407D01*
X14353525Y-9328496D01*
X14620504Y-9595475D01*
X14648281Y-9649992D01*
X14649500Y-9665479D01*
X14649500Y-9765892D01*
X14658773Y-9800500D01*
X14683609Y-9893190D01*
X14749496Y-10007309D01*
X14749498Y-10007311D01*
X14749500Y-10007314D01*
X14842686Y-10100500D01*
X14842688Y-10100501D01*
X14842690Y-10100503D01*
X14956810Y-10166390D01*
X14956808Y-10166390D01*
X14956812Y-10166391D01*
X14956814Y-10166392D01*
X15084108Y-10200500D01*
X15084110Y-10200500D01*
X15215890Y-10200500D01*
X15215892Y-10200500D01*
X15343186Y-10166392D01*
X15343188Y-10166390D01*
X15343190Y-10166390D01*
X15457309Y-10100503D01*
X15457309Y-10100502D01*
X15457314Y-10100500D01*
X15550500Y-10007314D01*
X15554434Y-10000500D01*
X15616390Y-9893190D01*
X15616390Y-9893188D01*
X15616392Y-9893186D01*
X15650500Y-9765892D01*
X15650500Y-9634108D01*
X15616392Y-9506814D01*
X15616390Y-9506811D01*
X15616390Y-9506809D01*
X15550503Y-9392690D01*
X15550501Y-9392688D01*
X15550500Y-9392686D01*
X15457314Y-9299500D01*
X15457311Y-9299498D01*
X15457309Y-9299496D01*
X15350490Y-9237824D01*
X46074999Y-9237824D01*
X46081401Y-9297370D01*
X46081403Y-9297381D01*
X46131646Y-9432088D01*
X46131647Y-9432090D01*
X46217807Y-9547184D01*
X46217815Y-9547192D01*
X46332909Y-9633352D01*
X46332911Y-9633353D01*
X46467618Y-9683596D01*
X46467629Y-9683598D01*
X46527176Y-9690000D01*
X47324999Y-9690000D01*
X47325000Y-9689999D01*
X47325000Y-8940001D01*
X47825000Y-8940001D01*
X47825000Y-9689999D01*
X47825001Y-9690000D01*
X48622824Y-9690000D01*
X48682370Y-9683598D01*
X48682381Y-9683596D01*
X48817088Y-9633353D01*
X48817090Y-9633352D01*
X48932184Y-9547192D01*
X48932192Y-9547184D01*
X49018352Y-9432090D01*
X49018353Y-9432088D01*
X49068596Y-9297381D01*
X49068598Y-9297370D01*
X49075000Y-9237824D01*
X49075000Y-8940001D01*
X49074999Y-8940000D01*
X47825001Y-8940000D01*
X47825000Y-8940001D01*
X47325000Y-8940001D01*
X47324999Y-8940000D01*
X46075001Y-8940000D01*
X46075000Y-8940001D01*
X46075000Y-9237824D01*
X46074999Y-9237824D01*
X15350490Y-9237824D01*
X15343189Y-9233609D01*
X15343191Y-9233609D01*
X15293799Y-9220375D01*
X15215892Y-9199500D01*
X15115479Y-9199500D01*
X15057288Y-9180593D01*
X15045475Y-9170504D01*
X14843968Y-8968997D01*
X14843966Y-8968994D01*
X14633510Y-8758539D01*
X14564992Y-8718980D01*
X14564988Y-8718978D01*
X14488564Y-8698500D01*
X14488562Y-8698500D01*
X12444338Y-8698500D01*
X12444335Y-8698500D01*
X12367911Y-8718978D01*
X12367907Y-8718980D01*
X12299389Y-8758539D01*
X11896424Y-9161504D01*
X11841908Y-9189281D01*
X11826421Y-9190500D01*
X9874000Y-9190500D01*
X9815809Y-9171593D01*
X9779845Y-9122093D01*
X9775000Y-9091500D01*
X9775000Y-8940001D01*
X9774999Y-8940000D01*
X6275001Y-8940000D01*
X6275000Y-8940001D01*
X6275000Y-9091500D01*
X6256093Y-9149691D01*
X6206593Y-9185655D01*
X6176000Y-9190500D01*
X6069435Y-9190500D01*
X5993014Y-9210977D01*
X5993009Y-9210979D01*
X5943680Y-9239458D01*
X5943681Y-9239459D01*
X5924491Y-9250538D01*
X4613489Y-10561540D01*
X4613488Y-10561539D01*
X4557539Y-10617489D01*
X4517980Y-10686007D01*
X4517978Y-10686011D01*
X4497500Y-10762435D01*
X3575500Y-10762435D01*
X3575500Y-8142175D01*
X6275000Y-8142175D01*
X6275000Y-8439999D01*
X6275001Y-8440000D01*
X7774999Y-8440000D01*
X7775000Y-8439999D01*
X7775000Y-7690001D01*
X8275000Y-7690001D01*
X8275000Y-8439999D01*
X8275001Y-8440000D01*
X9774999Y-8440000D01*
X9775000Y-8439999D01*
X9775000Y-8142175D01*
X9768598Y-8082629D01*
X9768596Y-8082618D01*
X9718353Y-7947911D01*
X9718352Y-7947909D01*
X9632192Y-7832815D01*
X9632184Y-7832807D01*
X9517090Y-7746647D01*
X9517088Y-7746646D01*
X9382381Y-7696403D01*
X9382370Y-7696401D01*
X9322824Y-7690000D01*
X8275001Y-7690000D01*
X8275000Y-7690001D01*
X7775000Y-7690001D01*
X7774999Y-7690000D01*
X6727176Y-7690000D01*
X6667629Y-7696401D01*
X6667618Y-7696403D01*
X6532911Y-7746646D01*
X6532909Y-7746647D01*
X6417815Y-7832807D01*
X6417807Y-7832815D01*
X6331647Y-7947909D01*
X6331646Y-7947911D01*
X6281403Y-8082618D01*
X6281401Y-8082629D01*
X6275000Y-8142175D01*
X3575500Y-8142175D01*
X3575500Y-5765479D01*
X3577968Y-5757881D01*
X3576719Y-5749992D01*
X3587243Y-5729336D01*
X3594407Y-5707288D01*
X3604496Y-5695475D01*
X3669718Y-5630253D01*
X6574500Y-5630253D01*
X6574500Y-6669746D01*
X6574501Y-6669758D01*
X6586132Y-6728227D01*
X6586134Y-6728233D01*
X6615361Y-6771973D01*
X6630448Y-6794552D01*
X6696769Y-6838867D01*
X6741231Y-6847711D01*
X6755241Y-6850498D01*
X6755246Y-6850498D01*
X6755252Y-6850500D01*
X6755253Y-6850500D01*
X9294747Y-6850500D01*
X9294748Y-6850500D01*
X9353231Y-6838867D01*
X9419552Y-6794552D01*
X9431644Y-6776456D01*
X21849500Y-6776456D01*
X21849500Y-6973543D01*
X21887949Y-7166834D01*
X21887949Y-7166836D01*
X21963367Y-7348913D01*
X21963368Y-7348914D01*
X22072861Y-7512782D01*
X22212218Y-7652139D01*
X22376086Y-7761632D01*
X22558165Y-7837051D01*
X22751459Y-7875500D01*
X22751460Y-7875500D01*
X22948540Y-7875500D01*
X22948541Y-7875500D01*
X23141835Y-7837051D01*
X23323914Y-7761632D01*
X23487782Y-7652139D01*
X23627139Y-7512782D01*
X23736632Y-7348914D01*
X23812051Y-7166835D01*
X23850500Y-6973541D01*
X23850500Y-6776459D01*
X23847931Y-6763542D01*
X25099500Y-6763542D01*
X25099500Y-6986457D01*
X25128595Y-7207455D01*
X25128595Y-7207460D01*
X25186290Y-7422782D01*
X25271592Y-7628722D01*
X25271595Y-7628727D01*
X25383050Y-7821771D01*
X25383052Y-7821774D01*
X25518753Y-7998624D01*
X25676376Y-8156247D01*
X25853226Y-8291948D01*
X25853228Y-8291949D01*
X26046272Y-8403404D01*
X26046277Y-8403407D01*
X26214179Y-8472953D01*
X26252219Y-8488710D01*
X26467537Y-8546404D01*
X26688543Y-8575500D01*
X26688544Y-8575500D01*
X27311456Y-8575500D01*
X27311457Y-8575500D01*
X27532463Y-8546404D01*
X27747781Y-8488710D01*
X27924553Y-8415489D01*
X27953722Y-8403407D01*
X27953723Y-8403405D01*
X27953726Y-8403405D01*
X28146774Y-8291948D01*
X28323624Y-8156247D01*
X28337696Y-8142175D01*
X46075000Y-8142175D01*
X46075000Y-8439999D01*
X46075001Y-8440000D01*
X47324999Y-8440000D01*
X47325000Y-8439999D01*
X47325000Y-7690001D01*
X47324999Y-7690000D01*
X46527176Y-7690000D01*
X46467629Y-7696401D01*
X46467618Y-7696403D01*
X46332911Y-7746646D01*
X46332909Y-7746647D01*
X46217815Y-7832807D01*
X46217807Y-7832815D01*
X46131647Y-7947909D01*
X46131646Y-7947911D01*
X46081403Y-8082618D01*
X46081401Y-8082629D01*
X46075000Y-8142175D01*
X28337696Y-8142175D01*
X28481247Y-7998624D01*
X28616948Y-7821774D01*
X28728405Y-7628726D01*
X28750447Y-7575513D01*
X28776733Y-7512051D01*
X28813710Y-7422781D01*
X28871404Y-7207463D01*
X28900500Y-6986457D01*
X28900500Y-6763543D01*
X28871404Y-6542537D01*
X28852096Y-6470480D01*
X28846999Y-6451456D01*
X29449500Y-6451456D01*
X29449500Y-6648543D01*
X29487949Y-6841834D01*
X29487949Y-6841836D01*
X29563367Y-7023913D01*
X29563368Y-7023914D01*
X29672861Y-7187782D01*
X29812218Y-7327139D01*
X29976086Y-7436632D01*
X30158165Y-7512051D01*
X30351459Y-7550500D01*
X30351460Y-7550500D01*
X30548540Y-7550500D01*
X30548541Y-7550500D01*
X30741835Y-7512051D01*
X30923914Y-7436632D01*
X31087782Y-7327139D01*
X31227139Y-7187782D01*
X31336632Y-7023914D01*
X31412051Y-6841835D01*
X31450500Y-6648541D01*
X31450500Y-6451459D01*
X31412051Y-6258165D01*
X31336632Y-6076086D01*
X31227139Y-5912218D01*
X31087782Y-5772861D01*
X30954207Y-5683609D01*
X30923913Y-5663367D01*
X30741835Y-5587949D01*
X30548543Y-5549500D01*
X30548541Y-5549500D01*
X30351459Y-5549500D01*
X30351456Y-5549500D01*
X30158165Y-5587949D01*
X30158163Y-5587949D01*
X29976086Y-5663367D01*
X29812218Y-5772861D01*
X29812214Y-5772864D01*
X29672864Y-5912214D01*
X29672861Y-5912218D01*
X29563367Y-6076086D01*
X29487949Y-6258163D01*
X29487949Y-6258165D01*
X29449500Y-6451456D01*
X28846999Y-6451456D01*
X28845995Y-6447710D01*
X28813710Y-6327219D01*
X28785106Y-6258163D01*
X28728407Y-6121277D01*
X28728404Y-6121272D01*
X28616949Y-5928228D01*
X28616948Y-5928226D01*
X28481247Y-5751376D01*
X28323624Y-5593753D01*
X28146774Y-5458052D01*
X28146771Y-5458050D01*
X27953727Y-5346595D01*
X27953722Y-5346592D01*
X27747782Y-5261290D01*
X27652839Y-5235850D01*
X27532463Y-5203596D01*
X27532460Y-5203595D01*
X27532458Y-5203595D01*
X27311457Y-5174500D01*
X26688543Y-5174500D01*
X26688542Y-5174500D01*
X26467544Y-5203595D01*
X26467539Y-5203595D01*
X26252217Y-5261290D01*
X26046277Y-5346592D01*
X26046272Y-5346595D01*
X25853228Y-5458050D01*
X25676379Y-5593750D01*
X25518750Y-5751379D01*
X25383050Y-5928228D01*
X25271595Y-6121272D01*
X25271592Y-6121277D01*
X25186290Y-6327217D01*
X25128595Y-6542539D01*
X25128595Y-6542544D01*
X25099500Y-6763542D01*
X23847931Y-6763542D01*
X23812051Y-6583165D01*
X23736632Y-6401086D01*
X23627139Y-6237218D01*
X23487782Y-6097861D01*
X23323914Y-5988368D01*
X23323915Y-5988368D01*
X23323913Y-5988367D01*
X23141835Y-5912949D01*
X22948543Y-5874500D01*
X22948541Y-5874500D01*
X22751459Y-5874500D01*
X22751456Y-5874500D01*
X22558165Y-5912949D01*
X22558163Y-5912949D01*
X22376086Y-5988367D01*
X22212218Y-6097861D01*
X22212214Y-6097864D01*
X22072864Y-6237214D01*
X22072861Y-6237218D01*
X21963367Y-6401086D01*
X21887949Y-6583163D01*
X21887949Y-6583165D01*
X21849500Y-6776456D01*
X9431644Y-6776456D01*
X9463867Y-6728231D01*
X9475500Y-6669748D01*
X9475500Y-6640876D01*
X9476992Y-6632379D01*
X9487487Y-6612605D01*
X9494407Y-6591309D01*
X9501543Y-6586123D01*
X9505678Y-6578335D01*
X9525791Y-6568506D01*
X9543907Y-6555345D01*
X9556956Y-6553278D01*
X9560651Y-6551473D01*
X9564304Y-6552114D01*
X9574500Y-6550500D01*
X9666160Y-6550500D01*
X9715658Y-6563763D01*
X9806814Y-6616392D01*
X9934108Y-6650500D01*
X9934110Y-6650500D01*
X10065890Y-6650500D01*
X10065892Y-6650500D01*
X10193186Y-6616392D01*
X10284341Y-6563763D01*
X10333840Y-6550500D01*
X10877725Y-6550500D01*
X10877727Y-6550500D01*
X10979588Y-6523207D01*
X10979590Y-6523205D01*
X10979592Y-6523205D01*
X11070908Y-6470483D01*
X11070908Y-6470482D01*
X11070913Y-6470480D01*
X13286896Y-4254495D01*
X13341413Y-4226719D01*
X13356900Y-4225500D01*
X35378149Y-4225500D01*
X35436340Y-4244407D01*
X35448153Y-4254496D01*
X37589568Y-6395910D01*
X37589570Y-6395913D01*
X37664137Y-6470480D01*
X37749051Y-6519505D01*
X37755463Y-6523207D01*
X37857320Y-6550500D01*
X37857322Y-6550501D01*
X37857323Y-6550501D01*
X37968840Y-6550501D01*
X37968856Y-6550500D01*
X45216160Y-6550500D01*
X45265658Y-6563763D01*
X45356814Y-6616392D01*
X45484108Y-6650500D01*
X45484110Y-6650500D01*
X45615890Y-6650500D01*
X45615892Y-6650500D01*
X45743186Y-6616392D01*
X45834341Y-6563763D01*
X45883840Y-6550500D01*
X46275500Y-6550500D01*
X46333691Y-6569407D01*
X46369655Y-6618907D01*
X46374500Y-6649500D01*
X46374500Y-6669746D01*
X46374501Y-6669758D01*
X46386132Y-6728227D01*
X46386134Y-6728233D01*
X46415361Y-6771973D01*
X46430448Y-6794552D01*
X46496769Y-6838867D01*
X46541231Y-6847711D01*
X46555241Y-6850498D01*
X46555246Y-6850498D01*
X46555252Y-6850500D01*
X47809521Y-6850500D01*
X47867712Y-6869407D01*
X47879525Y-6879496D01*
X48521025Y-7520996D01*
X48548802Y-7575513D01*
X48539231Y-7635945D01*
X48495966Y-7679210D01*
X48451021Y-7690000D01*
X47825001Y-7690000D01*
X47825000Y-7690001D01*
X47825000Y-8439999D01*
X47825001Y-8440000D01*
X49074999Y-8440000D01*
X49075000Y-8439999D01*
X49075000Y-8313979D01*
X49093907Y-8255788D01*
X49143407Y-8219824D01*
X49204593Y-8219824D01*
X49244004Y-8243975D01*
X49695504Y-8695475D01*
X49699130Y-8702592D01*
X49705593Y-8707288D01*
X49712756Y-8729336D01*
X49723281Y-8749992D01*
X49724500Y-8765479D01*
X49724500Y-8951679D01*
X49705593Y-9009870D01*
X49695509Y-9021676D01*
X49625686Y-9091500D01*
X49624497Y-9092689D01*
X49624496Y-9092690D01*
X49558609Y-9206809D01*
X49546892Y-9250538D01*
X49524500Y-9334108D01*
X49524500Y-9465892D01*
X49535464Y-9506809D01*
X49558609Y-9593190D01*
X49624496Y-9707309D01*
X49624498Y-9707311D01*
X49624500Y-9707314D01*
X49717686Y-9800500D01*
X49717688Y-9800501D01*
X49717690Y-9800503D01*
X49831810Y-9866390D01*
X49831808Y-9866390D01*
X49831812Y-9866391D01*
X49831814Y-9866392D01*
X49959108Y-9900500D01*
X49959110Y-9900500D01*
X50090890Y-9900500D01*
X50090892Y-9900500D01*
X50218186Y-9866392D01*
X50218188Y-9866390D01*
X50218190Y-9866390D01*
X50332309Y-9800503D01*
X50332309Y-9800502D01*
X50332314Y-9800500D01*
X50425500Y-9707314D01*
X50435497Y-9689999D01*
X50491390Y-9593190D01*
X50491390Y-9593188D01*
X50491392Y-9593186D01*
X50525500Y-9465892D01*
X50525500Y-9334108D01*
X50491392Y-9206814D01*
X50491390Y-9206811D01*
X50491390Y-9206809D01*
X50425503Y-9092690D01*
X50425501Y-9092688D01*
X50425500Y-9092686D01*
X50354494Y-9021680D01*
X50326719Y-8967166D01*
X50325500Y-8951679D01*
X50325500Y-8560437D01*
X50325499Y-8560435D01*
X50321739Y-8546404D01*
X50305021Y-8484011D01*
X50265460Y-8415489D01*
X50253375Y-8403404D01*
X50209511Y-8359539D01*
X50209511Y-8359540D01*
X48746950Y-6896979D01*
X48719173Y-6842462D01*
X48728744Y-6782030D01*
X48734639Y-6771973D01*
X48740272Y-6763543D01*
X48763867Y-6728231D01*
X48775500Y-6669748D01*
X48775500Y-5630252D01*
X48763867Y-5571769D01*
X48719552Y-5505448D01*
X48687464Y-5484007D01*
X48653233Y-5461134D01*
X48653231Y-5461133D01*
X48653228Y-5461132D01*
X48653227Y-5461132D01*
X48594758Y-5449501D01*
X48594748Y-5449500D01*
X46555252Y-5449500D01*
X46555251Y-5449500D01*
X46555241Y-5449501D01*
X46496772Y-5461132D01*
X46496766Y-5461134D01*
X46430451Y-5505445D01*
X46430445Y-5505451D01*
X46386134Y-5571766D01*
X46386132Y-5571772D01*
X46374501Y-5630241D01*
X46374500Y-5630253D01*
X46374500Y-5650500D01*
X46355593Y-5708691D01*
X46306093Y-5744655D01*
X46275500Y-5749500D01*
X45883840Y-5749500D01*
X45834341Y-5736236D01*
X45743186Y-5683608D01*
X45615892Y-5649500D01*
X45484108Y-5649500D01*
X45356814Y-5683608D01*
X45356813Y-5683608D01*
X45356811Y-5683609D01*
X45315799Y-5707288D01*
X45265658Y-5736236D01*
X45216160Y-5749500D01*
X38116950Y-5749500D01*
X38058759Y-5730593D01*
X38046946Y-5720504D01*
X36976441Y-4649999D01*
X35830963Y-3504520D01*
X35830960Y-3504518D01*
X35830958Y-3504516D01*
X35739641Y-3451794D01*
X35739643Y-3451794D01*
X35700120Y-3441204D01*
X35637777Y-3424500D01*
X35637775Y-3424500D01*
X13208806Y-3424500D01*
X13208790Y-3424499D01*
X13202727Y-3424499D01*
X13097273Y-3424499D01*
X13097270Y-3424499D01*
X12995413Y-3451792D01*
X12995409Y-3451794D01*
X12904087Y-3504519D01*
X12829519Y-3579086D01*
X12829520Y-3579087D01*
X10688103Y-5720504D01*
X10633586Y-5748281D01*
X10618099Y-5749500D01*
X10333840Y-5749500D01*
X10284341Y-5736236D01*
X10193186Y-5683608D01*
X10065892Y-5649500D01*
X9934108Y-5649500D01*
X9806814Y-5683608D01*
X9806813Y-5683608D01*
X9806811Y-5683609D01*
X9765799Y-5707288D01*
X9715658Y-5736236D01*
X9666160Y-5749500D01*
X9574500Y-5749500D01*
X9516309Y-5730593D01*
X9480345Y-5681093D01*
X9475500Y-5650500D01*
X9475500Y-5630253D01*
X9475498Y-5630241D01*
X9467085Y-5587949D01*
X9463867Y-5571769D01*
X9419552Y-5505448D01*
X9387464Y-5484007D01*
X9353233Y-5461134D01*
X9353231Y-5461133D01*
X9353228Y-5461132D01*
X9353227Y-5461132D01*
X9294758Y-5449501D01*
X9294748Y-5449500D01*
X6755252Y-5449500D01*
X6755251Y-5449500D01*
X6755241Y-5449501D01*
X6696772Y-5461132D01*
X6696766Y-5461134D01*
X6630451Y-5505445D01*
X6630445Y-5505451D01*
X6586134Y-5571766D01*
X6586132Y-5571772D01*
X6574501Y-5630241D01*
X6574500Y-5630253D01*
X3669718Y-5630253D01*
X6595475Y-2704496D01*
X6649992Y-2676719D01*
X6665479Y-2675500D01*
X28991239Y-2675500D01*
X29049430Y-2694407D01*
X29076975Y-2725000D01*
X29124496Y-2807309D01*
X29124498Y-2807311D01*
X29124500Y-2807314D01*
X29217686Y-2900500D01*
X29217688Y-2900501D01*
X29217690Y-2900503D01*
X29331810Y-2966390D01*
X29331808Y-2966390D01*
X29331812Y-2966391D01*
X29331814Y-2966392D01*
X29459108Y-3000500D01*
X29459110Y-3000500D01*
X29590890Y-3000500D01*
X29590892Y-3000500D01*
X29718186Y-2966392D01*
X29718188Y-2966390D01*
X29718190Y-2966390D01*
X29832309Y-2900503D01*
X29832309Y-2900502D01*
X29832314Y-2900500D01*
X29925500Y-2807314D01*
X29991392Y-2693186D01*
X30025500Y-2565892D01*
X30025500Y-2434108D01*
X29991392Y-2306814D01*
X29991390Y-2306811D01*
X29991390Y-2306809D01*
X29925503Y-2192690D01*
X29925501Y-2192688D01*
X29925500Y-2192686D01*
X29832314Y-2099500D01*
X29832311Y-2099498D01*
X29832309Y-2099496D01*
X29718189Y-2033609D01*
X29718191Y-2033609D01*
X29668799Y-2020375D01*
X29590892Y-1999500D01*
X29459108Y-1999500D01*
X29331814Y-2033608D01*
X29283958Y-2061237D01*
X29234460Y-2074500D01*
X6539562Y-2074500D01*
X6460438Y-2074500D01*
X6413661Y-2087033D01*
X6384007Y-2094979D01*
X6315493Y-2134536D01*
X6315492Y-2134537D01*
X4363829Y-4086199D01*
X4309312Y-4113976D01*
X4248880Y-4104405D01*
X4205615Y-4061140D01*
X4196044Y-4000708D01*
X4216517Y-3954352D01*
X4500000Y-3600000D01*
X4700000Y-2900000D01*
X4700000Y-1900000D01*
X4500000Y-1400000D01*
X4100000Y-900000D01*
X3631563Y-525250D01*
X3600000Y-500000D01*
X3000000Y-300000D01*
X2478187Y-300000D01*
X2419996Y-281093D01*
X2384032Y-231593D01*
X2384032Y-170407D01*
X2419996Y-120907D01*
X2472210Y-102181D01*
X2497008Y-100681D01*
X2502985Y-100500D01*
X2526929Y-100500D01*
X51473071Y-100500D01*
X51497015Y-100500D01*
X51502992Y-100681D01*
G37*
%TD.AperFunction*%
%TD*%
M02*
