M48
; DRILL file {KiCad 8.0.7} date 2025-01-16T14:49:51+0000
; FORMAT={-:-/ absolute / inch / decimal}
; #@! TF.CreationDate,2025-01-16T14:49:51+00:00
; #@! TF.GenerationSoftware,Kicad,Pcbnew,8.0.7
; #@! TF.FileFunction,Plated,1,2,PTH
FMAT,2
INCH
; #@! TA.AperFunction,Plated,PTH,ViaDrill
T1C0.0118
; #@! TA.AperFunction,Plated,PTH,ComponentDrill
T2C0.0118
; #@! TA.AperFunction,Plated,PTH,ComponentDrill
T3C0.0236
; #@! TA.AperFunction,Plated,PTH,ComponentDrill
T4C0.0276
; #@! TA.AperFunction,Plated,PTH,ComponentDrill
T5C0.0295
; #@! TA.AperFunction,Plated,PTH,ComponentDrill
T6C0.0394
; #@! TA.AperFunction,Plated,PTH,ComponentDrill
T7C0.0433
; #@! TA.AperFunction,Plated,PTH,ComponentDrill
T8C0.0472
; #@! TA.AperFunction,Plated,PTH,ComponentDrill
T9C0.0591
; #@! TA.AperFunction,Plated,PTH,ComponentDrill
T10C0.0807
%
G90
G05
T1
X-0.002Y-0.4439
X0.0098Y-0.7431
X0.0364Y-3.9488
X0.0551Y-3.6339
X0.065Y-6.026
X0.0659Y-0.0817
X0.0697Y-2.763
X0.0876Y-0.3327
X0.0915Y-3.7687
X0.0921Y-2.5024
X0.1102Y-5.8485
X0.1133Y-2.7178
X0.1149Y-2.5464
X0.128Y-3.6309
X0.1329Y-5.9429
X0.1398Y-3.7864
X0.1516Y-2.6575
X0.1533Y-2.7244
X0.1535Y-2.5719
X0.1562Y-3.6789
X0.1565Y-0.3455
X0.1654Y-1.6959
X0.1663Y-1.4213
X0.1693Y-0.5039
X0.1693Y-3.6112
X0.1713Y-0.561
X0.187Y-3.747
X0.189Y-0.7254
X0.1919Y-4.5364
X0.1939Y-3.7923
X0.1959Y-1.8524
X0.2215Y-0.247
X0.2215Y-3.937
X0.2244Y-0.8199
X0.2283Y-3.439
X0.2283Y-3.878
X0.2315Y-2.2646
X0.2333Y-3.503
X0.2362Y-2.811
X0.2372Y-1.3504
X0.2496Y-3.2606
X0.2628Y-1.8553
X0.2687Y-5.5856
X0.2697Y-0.1378
X0.2707Y-0.1841
X0.2785Y-5.0866
X0.2846Y-2.3236
X0.2879Y-2.8219
X0.2958Y-2.5664
X0.3031Y-5.7618
X0.312Y-3.4715
X0.314Y-1.3484
X0.315Y-1.4547
X0.315Y-3.878
X0.3159Y-0.2421
X0.3159Y-0.3421
X0.3159Y-0.4421
X0.3159Y-2.6681
X0.3258Y-2.6142
X0.3268Y-0.7844
X0.3287Y-4.9469
X0.3425Y-3.9823
X0.3524Y-0.2874
X0.3543Y-5.6781
X0.3596Y-4.8429
X0.3661Y-0.7008
X0.3727Y-0.6149
X0.373Y-0.5098
X0.3827Y-1.6085
X0.3856Y-1.6612
X0.3858Y-0.1348
X0.3858Y-0.1781
X0.3888Y-1.5177
X0.3937Y-2.3681
X0.3957Y-2.1535
X0.3967Y-1.8051
X0.3976Y-2.9409
X0.4Y-2.6976
X0.4035Y-4.7402
X0.4063Y-2.4209
X0.4085Y-4.6427
X0.4193Y-1.8494
X0.4232Y-1.8957
X0.4252Y-4.0
X0.4301Y-0.2638
X0.4488Y-0.3317
X0.4524Y-2.2898
X0.4539Y-0.3633
X0.4646Y-0.1102
X0.4646Y-3.5374
X0.4657Y-2.8406
X0.4675Y-0.2766
X0.4695Y-0.7805
X0.4882Y-3.8494
X0.4885Y-0.6064
X0.4894Y-5.1839
X0.4902Y-3.3907
X0.4921Y-1.6821
X0.4921Y-3.4646
X0.4951Y-3.2274
X0.4961Y-1.5089
X0.5Y-1.4124
X0.5197Y-0.7776
X0.5228Y-5.5272
X0.5335Y-0.6772
X0.5423Y-3.5098
X0.5453Y-1.7648
X0.5463Y-2.003
X0.5522Y-0.8947
X0.5551Y-4.1486
X0.5583Y-5.3909
X0.5591Y-2.335
X0.563Y-6.0778
X0.5669Y-3.9665
X0.5677Y-2.8394
X0.5679Y-3.8878
X0.5846Y-1.7313
X0.5915Y-4.9508
X0.5965Y-4.7244
X0.5984Y-0.0256
X0.6014Y-0.6309
X0.6073Y-2.753
X0.6193Y-4.9933
X0.6211Y-0.5364
X0.6228Y-2.2685
X0.625Y-0.5876
X0.6339Y-2.5457
X0.6594Y-1.6447
X0.6614Y-0.8563
X0.6665Y-2.8831
X0.6732Y-3.5876
X0.6772Y-1.4065
X0.686Y-3.8898
X0.689Y-3.9409
X0.6921Y-5.1398
X0.6972Y-5.3264
X0.6988Y-1.8258
X0.6992Y-2.4193
X0.7031Y-5.4827
X0.7106Y-5.2106
X0.7165Y-1.8839
X0.7232Y-5.0878
X0.7264Y-0.1161
X0.7453Y-3.0701
X0.749Y-0.5128
X0.7687Y-1.9537
X0.7766Y-3.7982
X0.7785Y-4.9193
X0.7795Y-4.8374
X0.7805Y-5.3809
X0.7874Y-1.5246
X0.7969Y-5.2075
X0.8102Y-2.285
X0.8169Y-5.3947
X0.8209Y-0.8602
X0.822Y-2.6031
X0.8317Y-4.9232
X0.8331Y-5.5874
X0.8337Y-4.7902
X0.8376Y-1.8484
X0.8445Y-3.4665
X0.848Y-2.5335
X0.8484Y-1.7136
X0.8514Y-3.3878
X0.8524Y-4.1516
X0.8553Y-0.2195
X0.8563Y-0.7362
X0.8573Y-1.4094
X0.8593Y-0.1437
X0.8628Y-0.6535
X0.876Y-4.9764
X0.878Y-0.5217
X0.8917Y-0.6102
X0.9157Y-2.6209
X0.9163Y-0.0837
X0.9199Y-0.7598
X0.9311Y-3.765
X0.9417Y-2.3417
X0.9459Y-0.4577
X0.9476Y-0.9022
X0.952Y-5.1449
X0.9547Y-3.9724
X0.9557Y-3.7177
X0.9583Y-0.7756
X0.9587Y-5.2563
X0.9601Y-0.8268
X0.9705Y-0.5768
X0.9764Y-0.0965
X0.9783Y-0.6339
X0.9791Y-5.4701
X1.0Y-0.497
X1.0012Y-2.1516
X1.0189Y-5.5921
X1.024Y-2.5154
X1.0276Y-0.1988
X1.0374Y-1.4035
X1.0398Y-2.3594
X1.0413Y-1.7156
X1.0433Y-1.8504
X1.0492Y-0.2382
X1.0541Y-3.249
X1.0571Y-0.5866
X1.061Y-2.8831
X1.0689Y-4.3504
X1.079Y-0.7714
X1.0823Y-5.3177
X1.0836Y-4.0235
X1.0866Y-0.2224
X1.0866Y-6.2992
X1.0965Y-1.5315
X1.1161Y-0.2598
X1.1161Y-0.9114
X1.122Y-1.9262
X1.126Y-3.6783
X1.1276Y-0.6407
X1.1276Y-3.0665
X1.1378Y-0.6909
X1.1378Y-0.7343
X1.1409Y-5.1886
X1.1508Y-2.5421
X1.1535Y-0.7874
X1.1594Y-6.0856
X1.1614Y-0.5669
X1.1644Y-4.1476
X1.1738Y-0.9065
X1.1815Y-5.4823
X1.1831Y-0.185
X1.1831Y-3.8248
X1.189Y-0.7303
X1.2Y-4.9717
X1.2096Y-1.4026
X1.2122Y-5.5878
X1.2154Y-5.285
X1.2189Y-0.2598
X1.2274Y-1.7126
X1.2539Y-0.7874
X1.2547Y-2.5492
X1.2559Y-0.565
X1.2579Y-0.8543
X1.2825Y-3.8937
X1.2864Y-1.5522
X1.3061Y-3.4823
X1.3071Y-1.613
X1.3091Y-1.7585
X1.3366Y-0.565
X1.3492Y-5.2081
X1.354Y-5.8957
X1.3563Y-4.1388
X1.3591Y-5.3797
X1.3756Y-2.7906
X1.3843Y-2.5024
X1.4016Y-3.3927
X1.4031Y-5.8602
X1.4045Y-3.8435
X1.4173Y-1.4026
X1.4232Y-5.1447
X1.4291Y-0.8839
X1.438Y-5.8458
X1.4528Y-0.7776
X1.4616Y-5.8169
X1.4744Y-1.9752
X1.4799Y-5.5128
X1.4823Y-0.1909
X1.4823Y-1.5217
X1.4931Y-5.9311
X1.5008Y-2.6335
X1.5064Y-5.8116
X1.5079Y-1.7421
X1.5197Y-3.6152
X1.5323Y-3.0701
X1.5374Y-0.5689
X1.5374Y-5.8169
X1.5394Y-3.9154
X1.5423Y-3.2392
X1.5472Y-5.9508
X1.561Y-5.9202
X1.5669Y-1.4045
X1.5669Y-4.0167
X1.5689Y-5.8327
X1.5718Y-5.9705
X1.5756Y-2.8713
X1.5846Y-0.8976
X1.5866Y-0.8031
X1.5907Y-0.4978
X1.6185Y-2.3697
X1.624Y-5.9508
X1.626Y-3.5906
X1.626Y-5.9124
X1.6295Y-4.1098
X1.6319Y-0.6693
X1.6378Y-3.8789
X1.6437Y-3.8248
X1.6467Y-3.4695
X1.6642Y-2.9835
X1.6713Y-5.9311
X1.6821Y-6.0787
X1.6831Y-0.8602
X1.689Y-1.6919
X1.7037Y-1.5522
X1.704Y-5.8327
X1.7087Y-0.9567
X1.7165Y-3.765
X1.7252Y-2.2169
X1.7268Y-2.7252
X1.7274Y-3.3829
X1.7283Y-0.1555
X1.7295Y-2.6268
X1.736Y-1.6602
X1.7421Y-3.9183
X1.748Y-4.3303
X1.75Y-0.7579
X1.7539Y-1.8386
X1.7569Y-1.4626
X1.7706Y-3.7511
X1.7874Y-2.4144
X1.7874Y-4.5941
X1.7963Y-0.0463
X1.8012Y-0.2884
X1.8061Y-1.3465
X1.8075Y-2.5213
X1.8091Y-2.7118
X1.81Y-1.6663
X1.811Y-3.7165
X1.813Y-0.7402
X1.814Y-3.4311
X1.815Y-1.6051
X1.8396Y-3.7705
X1.8435Y-3.4764
X1.8435Y-3.564
X1.8711Y-3.3809
X1.873Y-0.6421
X1.874Y-1.7598
X1.8907Y-4.0089
X1.8937Y-5.753
X1.8957Y-6.0118
X1.8988Y-2.9673
X1.9063Y-2.813
X1.9069Y-1.8976
X1.9085Y-0.8579
X1.9173Y-0.1831
X1.9207Y-1.9724
X1.9232Y-0.6969
X1.9419Y-1.2697
X1.9429Y-0.2441
X1.9547Y-4.5925
X1.9557Y-3.7411
X1.9557Y-4.7963
X1.9587Y-4.8967
X1.9636Y-4.6998
X1.9656Y-1.7136
X1.9663Y-2.6079
X1.967Y-1.3991
X1.9695Y-1.4547
X1.9724Y-3.8337
X1.9734Y-5.0128
X1.9764Y-1.6122
X1.9783Y-0.5217
X1.9791Y-5.3819
X1.9868Y-2.5118
X1.9876Y-2.5591
X1.989Y-6.1996
X2.0Y-0.439
X2.0Y-1.4902
X2.0043Y-2.6367
X2.0118Y-0.6339
X2.0197Y-0.3386
X2.0217Y-0.8228
X2.0276Y-1.6654
X2.0314Y-2.5062
X2.0592Y-2.7252
X2.0854Y-2.6185
X2.0925Y-0.4803
X2.5364Y-3.9488
X2.5472Y-5.3809
X2.5551Y-3.6339
X2.561Y-4.937
X2.5659Y-5.2569
X2.5687Y-5.0139
X2.5797Y-2.4833
X2.5799Y-4.5248
X2.5874Y-0.3591
X2.5915Y-3.7687
X2.5925Y-6.0091
X2.6055Y-0.6291
X2.6152Y-1.4183
X2.6161Y-1.7057
X2.6188Y-5.8169
X2.623Y-2.7667
X2.628Y-3.6309
X2.6289Y-2.6309
X2.6398Y-3.7864
X2.6545Y-1.5827
X2.6555Y-1.5108
X2.6562Y-3.6789
X2.6626Y-0.4193
X2.6644Y-2.6053
X2.6693Y-3.6112
X2.6831Y-2.9222
X2.6841Y-1.2549
X2.686Y-1.8465
X2.687Y-3.747
X2.6939Y-3.7923
X2.7087Y-6.0709
X2.7185Y-6.1417
X2.7215Y-0.2904
X2.7215Y-3.937
X2.7254Y-5.6102
X2.7283Y-2.4134
X2.7283Y-2.813
X2.7283Y-3.439
X2.7283Y-3.878
X2.7327Y-2.1756
X2.7333Y-3.503
X2.7377Y-5.6933
X2.7417Y-5.0535
X2.7425Y-0.0791
X2.747Y-0.2431
X2.747Y-1.3415
X2.7496Y-3.2606
X2.7697Y-2.9852
X2.7797Y-2.7233
X2.7831Y-4.6378
X2.8041Y-5.7411
X2.8091Y-2.2795
X2.812Y-3.4715
X2.814Y-2.5226
X2.815Y-3.878
X2.8159Y-1.4508
X2.8159Y-1.5051
X2.8159Y-1.7051
X2.8159Y-1.8051
X2.8164Y-0.5005
X2.8179Y-2.9124
X2.8425Y-3.9823
X2.8465Y-2.7146
X2.8543Y-2.8258
X2.8602Y-5.0484
X2.8612Y-1.5591
X2.8652Y-0.7067
X2.8689Y-1.3522
X2.8711Y-1.6535
X2.878Y-2.7681
X2.8789Y-1.7539
X2.8809Y-2.6161
X2.8809Y-5.8346
X2.8819Y-0.4528
X2.8829Y-1.6051
X2.8893Y-0.6166
X2.8898Y-4.3858
X2.8937Y-2.3681
X2.8947Y-2.5681
X2.9104Y-2.6681
X2.913Y-4.5945
X2.9252Y-4.0
X2.9291Y-1.2815
X2.9341Y-5.4152
X2.9343Y-1.5519
X2.9646Y-3.5374
X2.9741Y-1.5584
X2.9754Y-0.685
X2.9774Y-5.5827
X2.9882Y-3.8494
X2.9892Y-1.501
X2.9902Y-3.3907
X2.9921Y-3.4646
X2.9951Y-3.2274
X3.0236Y-1.2067
X3.0276Y-1.9065
X3.0374Y-2.935
X3.0423Y-3.5098
X3.0429Y-5.5642
X3.0469Y-5.0496
X3.048Y-5.4169
X3.0551Y-4.1486
X3.0551Y-4.9386
X3.0581Y-2.4203
X3.0591Y-1.3317
X3.062Y-1.5827
X3.0669Y-3.9665
X3.0679Y-3.8878
X3.0787Y-0.9478
X3.0846Y-1.6388
X3.0896Y-2.8681
X3.1024Y-3.0354
X3.1161Y-0.8209
X3.1191Y-2.248
X3.122Y-0.6328
X3.123Y-2.0236
X3.123Y-2.625
X3.128Y-2.3337
X3.1654Y-0.5856
X3.1663Y-4.8356
X3.1703Y-5.7835
X3.1705Y-5.9146
X3.1732Y-3.5876
X3.186Y-3.8898
X3.189Y-3.9409
X3.2056Y-2.7746
X3.2136Y-1.2372
X3.2165Y-2.6476
X3.2254Y-0.4902
X3.2451Y-0.937
X3.2589Y-0.8533
X3.2766Y-3.7982
X3.3061Y-0.9035
X3.3061Y-1.3278
X3.311Y-2.8593
X3.3142Y-5.0472
X3.3173Y-5.4
X3.3197Y-6.1272
X3.3205Y-4.9386
X3.3445Y-3.4665
X3.3514Y-3.3878
X3.3524Y-4.1516
X3.3622Y-2.6516
X3.3671Y-1.4242
X3.372Y-2.3425
X3.378Y-0.8465
X3.3799Y-0.6752
X3.3809Y-4.3888
X3.3819Y-1.4902
X3.3848Y-1.0974
X3.398Y-5.7205
X3.4134Y-2.5827
X3.4213Y-5.9665
X3.4262Y-1.7136
X3.4272Y-0.8593
X3.4311Y-3.765
X3.4327Y-5.5654
X3.4449Y-1.6781
X3.4449Y-1.7943
X3.4488Y-1.2894
X3.4547Y-3.9724
X3.4557Y-3.7177
X3.4567Y-5.9244
X3.4646Y-2.9114
X3.4665Y-0.8297
X3.471Y-1.7087
X3.4902Y-0.8543
X3.4911Y-0.7579
X3.498Y-1.8514
X3.5108Y-2.5787
X3.5118Y-2.1732
X3.5276Y-6.2274
X3.5404Y-1.3337
X3.5535Y-6.311
X3.5541Y-3.249
X3.5561Y-1.8514
X3.561Y-1.2717
X3.5669Y-0.7254
X3.5732Y-5.4571
X3.574Y-5.1988
X3.5768Y-5.9811
X3.5787Y-1.753
X3.5799Y-5.7205
X3.5836Y-4.0235
X3.5921Y-4.9386
X3.5984Y-6.0325
X3.5994Y-6.1565
X3.6077Y-1.9258
X3.625Y-0.4892
X3.626Y-3.6783
X3.628Y-3.0728
X3.6339Y-4.4045
X3.6348Y-1.9665
X3.6378Y-4.8366
X3.6488Y-5.0508
X3.6624Y-2.2244
X3.6634Y-2.4488
X3.6644Y-4.1476
X3.6703Y-2.001
X3.6709Y-0.5059
X3.6831Y-3.8248
X3.685Y-1.7864
X3.689Y-1.3947
X3.6929Y-1.5404
X3.6929Y-1.6299
X3.702Y-5.9244
X3.7234Y-1.0974
X3.7323Y-1.1762
X3.7608Y-1.4695
X3.7766Y-1.7461
X3.7776Y-0.7628
X3.7795Y-2.5797
X3.7825Y-3.8937
X3.7933Y-1.3593
X3.7933Y-1.6211
X3.8041Y-0.5266
X3.8061Y-3.4823
X3.8091Y-0.7244
X3.8165Y-5.772
X3.8232Y-5.0472
X3.8232Y-5.5614
X3.8278Y-1.5335
X3.8303Y-5.3929
X3.8319Y-4.5961
X3.8494Y-4.3819
X3.8516Y-4.9386
X3.8524Y-4.8396
X3.8563Y-4.1388
X3.872Y-0.9528
X3.872Y-6.002
X3.8839Y-1.2776
X3.9016Y-3.3927
X3.9045Y-3.8435
X3.9094Y-2.4449
X3.9124Y-1.4409
X3.9134Y-2.25
X3.9154Y-0.8661
X3.9193Y-2.6496
X3.935Y-1.8002
X3.9353Y-0.8063
X3.9616Y-1.78
X3.9713Y-5.9197
X3.9827Y-5.8154
X3.997Y-1.7904
X4.0103Y-0.7761
X4.0143Y-1.4986
X4.0197Y-3.6152
X4.0236Y-1.6851
X4.0256Y-1.8051
X4.0276Y-1.4301
X4.0394Y-3.9154
X4.0423Y-3.2392
X4.063Y-1.689
X4.0669Y-4.0167
X4.0679Y-0.7224
X4.0709Y-1.5581
X4.0758Y-6.0049
X4.0827Y-4.7372
X4.0856Y-4.6152
X4.0876Y-1.4961
X4.0886Y-1.749
X4.0937Y-5.4197
X4.0937Y-6.1969
X4.0957Y-5.0469
X4.1033Y-1.8376
X4.1063Y-4.8356
X4.1083Y-5.5472
X4.1152Y-0.7087
X4.1228Y-4.9386
X4.124Y-1.6467
X4.126Y-3.5906
X4.1295Y-4.1098
X4.1299Y-2.7913
X4.1339Y-6.1378
X4.1378Y-1.501
X4.1378Y-3.8789
X4.1398Y-4.4006
X4.1437Y-3.8248
X4.1467Y-3.4695
X4.1683Y-2.9232
X4.1752Y-1.6486
X4.2037Y-1.6102
X4.2067Y-2.8681
X4.2075Y-5.1988
X4.2136Y-0.062
X4.2146Y-0.4783
X4.2165Y-3.765
X4.2165Y-2.5886
X4.2224Y-5.9169
X4.2264Y-0.2933
X4.2274Y-3.3829
X4.2303Y-1.2037
X4.2343Y-6.0709
X4.2362Y-1.5354
X4.2421Y-3.9183
X4.2456Y-0.6471
X4.2706Y-3.7511
X4.2736Y-2.7681
X4.2746Y-0.4311
X4.2785Y-1.0984
X4.2833Y-0.5996
X4.2843Y-6.128
X4.2864Y-0.2953
X4.2913Y-2.4173
X4.2933Y-2.3681
X4.2943Y-1.7136
X4.31Y-0.3421
X4.311Y-3.7165
X4.314Y-3.4311
X4.3189Y-2.6791
X4.3189Y-4.3917
X4.3219Y-0.5421
X4.3219Y-5.9616
X4.3248Y-2.313
X4.3268Y-4.7431
X4.3287Y-4.8494
X4.3396Y-3.7705
X4.3406Y-2.5098
X4.3435Y-3.4764
X4.3435Y-3.564
X4.3563Y-4.6398
X4.3567Y-6.278
X4.3612Y-1.7648
X4.3711Y-3.3809
X4.3799Y-2.1988
X4.3839Y-1.8937
X4.3907Y-4.0089
X4.3976Y-0.2825
X4.4024Y-2.9299
X4.4083Y-5.3394
X4.4104Y-5.6152
X4.4122Y-5.0594
X4.4301Y-0.8199
X4.4425Y-4.9232
X4.4429Y-5.8602
X4.4449Y-1.3307
X4.4465Y-4.798
X4.4557Y-3.7411
X4.4695Y-2.4961
X4.4715Y-2.7687
X4.4724Y-3.8337
X4.4734Y-2.6171
X4.4744Y-1.4232
X4.4774Y-1.2746
X4.4892Y-5.8002
X4.4961Y-4.5384
X4.5177Y-2.4705
X4.5221Y-5.7559
X4.5854Y-6.0445
X4.5949Y-5.4772
X4.5969Y-4.8984
X5.0049Y-0.6939
X5.0579Y-1.2445
X5.0662Y-0.6318
X5.0679Y-0.1181
X5.0709Y-1.7047
X5.0748Y-1.5512
X5.0805Y-0.5427
X5.088Y-0.5118
X5.0906Y-1.4035
X5.1063Y-0.3799
X5.11Y-0.4893
X5.1102Y-2.6417
X5.1102Y-3.7047
X5.1142Y-0.6142
X5.122Y-1.252
X5.1309Y-2.4961
X5.1309Y-3.5591
X5.1339Y-2.7549
X5.1339Y-3.8179
X5.1594Y-1.1654
X5.1654Y-3.9764
X5.1673Y-2.688
X5.1673Y-3.751
X5.1713Y-1.4331
X5.1781Y-0.7923
X5.1821Y-0.3228
X5.1909Y-2.4291
X5.1909Y-3.4921
X5.2047Y-1.2756
X5.2205Y-1.7343
X5.2257Y-2.8036
X5.2257Y-3.8666
X5.2333Y-0.7156
X5.2333Y-0.4459
X5.2421Y-2.8671
X5.2421Y-3.9301
X5.2461Y-0.6663
X5.252Y-1.2146
X5.2559Y-1.8642
X5.2638Y-0.7943
X5.2638Y-1.2549
X5.2677Y-1.6445
X5.2756Y-3.9813
X5.2815Y-1.4488
X5.2815Y-1.5531
X5.2825Y-0.3583
X5.2923Y-2.7215
X5.2923Y-3.7844
X5.3061Y-3.3425
X5.3086Y-0.1757
X5.311Y-2.4045
X5.311Y-3.4675
X5.315Y-2.5266
X5.315Y-3.5896
X5.3159Y-1.5051
X5.3159Y-1.7051
X5.3169Y-3.2392
X5.3445Y-1.4587
X5.3691Y-0.1368
X5.3711Y-3.6752
X5.372Y-1.5512
X5.3799Y-1.5984
X5.3839Y-2.6681
X5.3839Y-3.7311
X5.3842Y-1.7926
X5.3848Y-0.3622
X5.3937Y-2.4681
X5.3937Y-3.5311
X5.4144Y-3.3681
X5.4173Y-1.3346
X5.4222Y-0.4657
X5.4262Y-2.6093
X5.4262Y-3.6722
X5.4272Y-1.1063
X5.4447Y-0.1878
X5.4488Y-0.7963
X5.4537Y-2.5917
X5.4577Y-2.5157
X5.4577Y-3.5787
X5.4587Y-1.748
X5.4596Y-2.7136
X5.4596Y-3.7766
X5.4626Y-1.4567
X5.4626Y-2.814
X5.4626Y-3.877
X5.4675Y-2.1762
X5.4675Y-2.2096
X5.4675Y-2.2431
X5.4724Y-1.5551
X5.4734Y-0.6663
X5.4764Y-3.2254
X5.4774Y-3.3445
X5.48Y-0.293
X5.4823Y-1.3701
X5.4852Y-0.497
X5.4852Y-2.9114
X5.4852Y-3.9744
X5.498Y-1.6772
X5.501Y-2.1762
X5.501Y-2.2096
X5.501Y-2.2431
X5.5039Y-0.6191
X5.5098Y-0.6663
X5.5202Y-2.5007
X5.5295Y-3.3563
X5.5305Y-2.5917
X5.5315Y-1.1181
X5.5394Y-1.2677
X5.5433Y-1.3445
X5.5443Y-0.1368
X5.5659Y-0.8514
X5.5669Y-3.4852
X5.5685Y-0.3032
X5.5699Y-2.5276
X5.5709Y-0.6663
X5.5807Y-1.4528
X5.5807Y-1.6437
X5.5837Y-3.0039
X5.5837Y-4.0669
X5.5886Y-0.2126
X5.5925Y-1.812
X5.5965Y-0.499
X5.6004Y-0.9429
X5.6063Y-0.6171
X5.6122Y-1.6051
X5.6122Y-2.6348
X5.6122Y-3.6978
X5.6171Y-0.7933
X5.632Y-0.4657
X5.6378Y-2.0118
X5.6447Y-3.5581
X5.6496Y-1.1437
X5.6516Y-0.3455
X5.6516Y-1.7051
X5.6526Y-2.5681
X5.6526Y-3.6311
X5.6594Y-0.2496
X5.6614Y-1.3327
X5.6663Y-3.4114
X5.6683Y-3.4774
X5.6693Y-1.1024
X5.6693Y-1.9341
X5.6752Y-1.6043
X5.6801Y-0.0669
X5.6821Y-2.5246
X5.6821Y-3.5876
X5.6841Y-3.2274
X5.6969Y-2.627
X5.6969Y-3.69
X5.7057Y-2.4055
X5.7057Y-3.4685
X5.7173Y-1.4626
X5.7313Y-0.5421
X5.7411Y-0.4961
X5.7411Y-0.6988
X5.7421Y-0.2904
X5.7431Y-0.1959
X5.75Y-0.9459
X5.752Y-1.7579
X5.7539Y-2.9144
X5.7539Y-3.9774
X5.7559Y-2.8159
X5.7559Y-3.8789
X5.7618Y-1.3819
X5.7677Y-1.1043
X5.7717Y-2.4163
X5.7717Y-3.4793
X5.7963Y-0.248
X5.8001Y-1.3877
X5.815Y-2.6496
X5.815Y-3.7126
X5.8228Y-1.622
X5.8248Y-0.6614
X5.8268Y-2.4724
X5.8268Y-3.5354
X5.8287Y-1.5098
X5.8307Y-1.9281
X5.8307Y-2.685
X5.8307Y-3.748
X5.8327Y-2.5974
X5.8327Y-3.6604
X5.8378Y-2.7598
X5.8406Y-0.7726
X5.844Y-0.5571
X5.8465Y-1.4154
X5.8593Y-0.3888
X5.8642Y-2.5846
X5.8642Y-3.6476
X5.8681Y-1.6949
X5.8868Y-0.4213
X5.8878Y-0.469
X5.9116Y-0.4407
X5.9145Y-0.4857
X5.928Y-2.7744
X5.9331Y-1.8366
X5.937Y-3.0472
X5.937Y-4.1102
X5.9518Y-0.9016
X5.9528Y-0.3494
X5.9587Y-1.3071
X5.9852Y-0.5285
X5.9911Y-0.7195
X5.9961Y-1.5709
X6.3622Y-0.5906
X6.3632Y-3.8829
X6.3652Y-0.4094
X6.3681Y-0.2776
X6.373Y-1.6024
X6.3819Y-0.1024
X6.3917Y-0.7569
X6.4085Y-1.4931
X6.4154Y-1.1929
X6.4245Y-3.8208
X6.4262Y-3.3071
X6.438Y-2.1949
X6.4387Y-3.7316
X6.4463Y-3.7008
X6.4646Y-3.5689
X6.4656Y-0.4085
X6.4683Y-3.6782
X6.4695Y-0.5689
X6.4705Y-2.7362
X6.4724Y-0.5217
X6.4724Y-3.8031
X6.4734Y-1.4626
X6.4744Y-0.6555
X6.4759Y-0.465
X6.4875Y-1.5362
X6.4882Y-2.501
X6.4882Y-1.6604
X6.4931Y-1.5916
X6.499Y-0.3307
X6.4991Y-0.1751
X6.4994Y-0.1067
X6.5012Y-0.6061
X6.5039Y-0.4262
X6.5098Y-0.5758
X6.5118Y-1.4862
X6.5231Y-1.6284
X6.5236Y-1.8327
X6.5251Y-2.6472
X6.5305Y-2.686
X6.5325Y-0.749
X6.5335Y-2.249
X6.5353Y-2.5613
X6.5364Y-3.9813
X6.5404Y-3.5118
X6.5728Y-1.3474
X6.5738Y-0.2893
X6.5738Y-2.4114
X6.5748Y-1.1161
X6.5807Y-1.3839
X6.5896Y-0.0994
X6.5896Y-1.811
X6.5915Y-3.9045
X6.5916Y-3.6349
X6.6004Y-2.8022
X6.6043Y-0.7431
X6.6043Y-3.8553
X6.6063Y-2.3031
X6.6073Y-1.3061
X6.6076Y-0.6627
X6.6102Y-1.8514
X6.6211Y-0.2923
X6.622Y-0.0994
X6.622Y-3.9833
X6.627Y-0.4852
X6.6339Y-0.7943
X6.6447Y-1.439
X6.6457Y-1.5445
X6.6467Y-1.3504
X6.6486Y-0.2018
X6.6545Y-0.0984
X6.6575Y-0.3976
X6.6644Y-2.6339
X6.6668Y-3.3647
X6.6683Y-0.487
X6.6742Y-0.5421
X6.6742Y-2.7681
X6.6742Y-2.8681
X6.6762Y-1.8494
X6.6781Y-2.4114
X6.685Y-0.0994
X6.686Y-0.1299
X6.6959Y-1.1644
X6.7087Y-2.6075
X6.72Y-1.3518
X6.7274Y-3.3258
X6.7431Y-1.1096
X6.7441Y-2.5681
X6.7451Y-1.9272
X6.7461Y-1.5679
X6.7461Y-2.4656
X6.75Y-1.2549
X6.753Y-0.5106
X6.7539Y-1.6555
X6.7579Y-1.7461
X6.7785Y-0.0994
X6.7904Y-0.5817
X6.8012Y-0.128
X6.8029Y-3.3767
X6.8071Y-3.9852
X6.8081Y-0.0994
X6.81Y-0.7717
X6.811Y-2.8346
X6.813Y-0.7126
X6.815Y-2.8986
X6.8199Y-0.3784
X6.8278Y-1.5815
X6.8307Y-1.6516
X6.8317Y-2.7205
X6.8346Y-1.7441
X6.8376Y-0.0994
X6.8383Y-3.482
X6.8435Y-3.686
X6.8524Y-2.6339
X6.8543Y-0.7185
X6.8622Y-3.8081
X6.8711Y-0.1004
X6.8858Y-0.1565
X6.8996Y-0.3012
X6.9016Y-0.5696
X6.9026Y-0.1004
X6.9045Y-1.4203
X6.9065Y-1.9222
X6.9103Y-0.5999
X6.9144Y-2.7205
X6.9154Y-0.7185
X6.9154Y-2.8376
X6.9154Y-2.8976
X6.9183Y-0.4439
X6.9193Y-0.936
X6.9291Y-3.8553
X6.9331Y-0.1004
X6.9346Y-1.3784
X6.9449Y-0.19
X6.9467Y-0.367
X6.9547Y-3.688
X6.9636Y-0.1014
X6.9646Y-3.8061
X6.9658Y-0.55
X6.9705Y-1.1673
X6.9892Y-1.8415
X6.99Y-1.3781
X6.9902Y-3.0305
X6.9941Y-0.1014
X6.9961Y-2.6161
X7.0013Y-0.4285
X7.0069Y-0.1516
X7.0157Y-2.4163
X7.0177Y-3.4386
X7.0236Y-1.253
X7.026Y-2.5138
X7.0276Y-0.1014
X7.0276Y-1.438
X7.0285Y-0.4528
X7.0305Y-2.5681
X7.0374Y-0.8583
X7.0384Y-3.2559
X7.0404Y-1.3484
X7.0453Y-1.6506
X7.0463Y-1.9626
X7.06Y-0.3898
X7.062Y-0.5
X7.063Y-0.1014
X7.0659Y-0.5955
X7.0738Y-2.6368
X7.0756Y-1.7051
X7.0768Y-2.1929
X7.0807Y-0.189
X7.0846Y-0.6978
X7.0856Y-2.4055
X7.0887Y-1.4027
X7.0896Y-3.7311
X7.0906Y-0.2992
X7.0915Y-0.7844
X7.0925Y-1.3425
X7.0955Y-0.1014
X7.0994Y-3.685
X7.0994Y-3.8878
X7.1004Y-3.4793
X7.1014Y-3.3848
X7.111Y-1.8051
X7.1309Y-0.1024
X7.1358Y-0.1467
X7.1378Y-2.815
X7.1417Y-2.9094
X7.1486Y-1.7392
X7.1545Y-3.437
X7.1555Y-0.1841
X7.1644Y-1.5384
X7.1654Y-0.8455
X7.1683Y-2.635
X7.1684Y-2.5412
X7.1696Y-1.5764
X7.1732Y-1.4675
X7.1772Y-0.5305
X7.1772Y-0.5719
X7.1831Y-3.8504
X7.185Y-2.4705
X7.186Y-0.373
X7.1905Y-1.6222
X7.1919Y-2.6093
X7.1939Y-1.4961
X7.1959Y-1.9459
X7.1978Y-2.7087
X7.1988Y-3.9616
X7.1998Y-0.2096
X7.2023Y-3.7461
X7.2116Y-0.4872
X7.2126Y-1.4085
X7.2165Y-1.8543
X7.2175Y-3.5778
X7.2195Y-2.7628
X7.2321Y-0.6356
X7.2372Y-0.3445
X7.2411Y-0.4193
X7.2451Y-3.6102
X7.2461Y-3.658
X7.25Y-0.938
X7.2638Y-1.7008
X7.2677Y-0.4445
X7.2699Y-3.6296
X7.2707Y-2.998
X7.2728Y-3.6747
X7.2884Y-2.6181
X7.2972Y-0.8051
X7.31Y-4.0906
X7.311Y-3.5384
X7.315Y-0.3031
X7.3228Y-0.5079
X7.3317Y-0.7441
X7.3435Y-3.7175
X7.3494Y-3.9085
T2
X3.4921Y-1.4793
X3.4921Y-1.5384
X3.5512Y-1.4793
X3.5512Y-1.5384
X3.6102Y-1.4793
X3.6102Y-1.5384
X6.9927Y-0.0502
T5
X0.2303Y-0.9291
X0.2303Y-1.9921
X0.2303Y-3.0551
X0.2303Y-4.1181
X0.2303Y-6.3228
X0.3091Y-0.9291
X0.3091Y-1.9921
X0.3091Y-3.0551
X0.3091Y-4.1181
X0.3091Y-6.3228
X0.3878Y-0.9291
X0.3878Y-1.9921
X0.3878Y-3.0551
X0.3878Y-4.1181
X0.3878Y-6.3228
X0.4665Y-0.9291
X0.4665Y-1.9921
X0.4665Y-3.0551
X0.4665Y-4.1181
X0.4665Y-6.3228
X1.2146Y-0.6476
X1.2933Y-0.6476
X1.4902Y-0.6476
X1.5689Y-0.6476
X2.7303Y-0.9291
X2.7303Y-1.9921
X2.7303Y-3.0551
X2.7303Y-4.1181
X2.7303Y-6.3228
X2.8091Y-0.9291
X2.8091Y-1.9921
X2.8091Y-3.0551
X2.8091Y-4.1181
X2.8091Y-6.3228
X2.8878Y-0.9291
X2.8878Y-1.9921
X2.8878Y-3.0551
X2.8878Y-4.1181
X2.8878Y-6.3228
X2.9665Y-0.9291
X2.9665Y-1.9921
X2.9665Y-3.0551
X2.9665Y-4.1181
X2.9665Y-6.3228
X5.2303Y-0.9291
X5.2303Y-1.9921
X5.2307Y-3.0551
X5.2307Y-4.1181
X5.3091Y-0.9291
X5.3091Y-1.9921
X5.3094Y-3.0551
X5.3094Y-4.1181
X5.3878Y-0.9291
X5.3878Y-1.9921
X5.3882Y-3.0551
X5.3882Y-4.1181
X5.4665Y-0.9291
X5.4665Y-1.9921
X5.4669Y-3.0551
X5.4669Y-4.1181
X6.5886Y-0.9291
X6.5886Y-1.9921
X6.5886Y-3.0551
X6.6673Y-0.9291
X6.6673Y-1.9921
X6.6673Y-3.0551
X6.7461Y-0.9291
X6.7461Y-1.9921
X6.7461Y-3.0551
X6.8248Y-0.9291
X6.8248Y-1.9921
X6.8248Y-3.0551
T6
X0.4134Y-1.1917
X0.4134Y-1.2917
X0.4134Y-1.3917
X0.5906Y-1.1917
X0.5906Y-1.2917
X0.5906Y-1.3917
X0.7193Y-2.5197
X0.7193Y-2.6181
X0.7193Y-2.7165
X0.7677Y-1.1917
X0.7677Y-1.2917
X0.7677Y-1.3917
X0.9449Y-1.1917
X0.9449Y-1.2917
X0.9449Y-1.3917
X0.9646Y-2.2744
X1.063Y-2.2744
X1.122Y-1.1917
X1.122Y-1.2917
X1.122Y-1.3917
X1.1614Y-2.2744
X1.2992Y-1.1917
X1.2992Y-1.2917
X1.2992Y-1.3917
X1.4764Y-1.1907
X1.4764Y-1.2907
X1.4764Y-1.3907
X1.6535Y-1.19
X1.6535Y-1.29
X1.6535Y-1.39
X3.0315Y-0.0768
X3.0315Y-0.1768
X3.0315Y-0.3209
X3.0315Y-0.4209
X3.1315Y-0.0768
X3.1315Y-0.1768
X3.1315Y-0.3209
X3.1315Y-0.4209
X3.2315Y-0.0768
X3.2315Y-0.1768
X3.2315Y-0.3209
X3.2315Y-0.4209
X3.3315Y-0.0768
X3.3315Y-0.1768
X3.3315Y-0.3209
X3.3315Y-0.4209
X3.4315Y-0.0768
X3.4315Y-0.1768
X3.4315Y-0.3209
X3.4315Y-0.4209
X3.5315Y-0.0768
X3.5315Y-0.1768
X3.5315Y-0.3209
X3.5315Y-0.4209
X3.6315Y-0.0768
X3.6315Y-0.1768
X3.6315Y-0.3209
X3.6315Y-0.4209
X3.7315Y-0.0768
X3.7315Y-0.1768
X3.7315Y-0.3209
X3.7315Y-0.4209
X3.8315Y-0.0768
X3.8315Y-0.1768
X3.8315Y-0.3209
X3.8315Y-0.4209
X3.9315Y-0.0768
X3.9315Y-0.1768
X3.9315Y-0.3209
X3.9315Y-0.4209
X4.0315Y-0.0768
X4.0315Y-0.1768
X4.0315Y-0.3209
X4.0315Y-0.4209
T7
X3.2933Y-2.6181
X3.3996Y-2.3967
X3.3996Y-2.8396
X3.6988Y-2.3839
X3.7264Y-2.8396
T8
X1.2894Y-2.4902
X1.2894Y-2.7461
X1.4665Y-2.4902
X1.4665Y-2.7461
X6.7053Y-2.2783
X6.8553Y-2.2783
X7.0053Y-2.2783
T9
X0.8661Y-2.3691
X0.8661Y-2.8671
X1.2598Y-2.3652
X1.2598Y-2.8671
T3
G00X0.4303Y-0.0709
M15
G01X0.4303Y-0.0472
M16
G05
G00X0.4303Y-0.2205
M15
G01X0.4303Y-0.1969
M16
G05
G00X0.7705Y-0.0709
M15
G01X0.7705Y-0.0472
M16
G05
G00X0.7705Y-0.2205
M15
G01X0.7705Y-0.1969
M16
G05
G00X5.1959Y-0.0531
M15
G01X5.1959Y-0.0295
M16
G05
G00X5.1959Y-0.2276
M15
G01X5.1959Y-0.1843
M16
G05
G00X5.536Y-0.0531
M15
G01X5.536Y-0.0295
M16
G05
G00X5.536Y-0.2276
M15
G01X5.536Y-0.1843
M16
G05
G00X6.5541Y-3.2421
M15
G01X6.5541Y-3.2185
M16
G05
G00X6.5541Y-3.4165
M15
G01X6.5541Y-3.3732
M16
G05
G00X6.8943Y-3.2421
M15
G01X6.8943Y-3.2185
M16
G05
G00X6.8943Y-3.4165
M15
G01X6.8943Y-3.3732
M16
G05
T4
G00X1.5335Y-0.1102
M15
G01X1.5335Y-0.0787
M16
G05
G00X1.622Y-0.0945
M15
G01X1.6142Y-0.0945
M16
G05
G00X1.7008Y-0.0945
M15
G01X1.6929Y-0.0945
M16
G05
G00X1.7795Y-0.0945
M15
G01X1.7717Y-0.0945
M16
G05
G00X1.8602Y-0.1102
M15
G01X1.8602Y-0.0787
M16
G05
T10
G00X3.5541Y-2.3967
M15
G01X3.5719Y-2.3967
M16
G05
G00X3.5541Y-2.8396
M15
G01X3.5719Y-2.8396
M16
G05
M30
