%TF.GenerationSoftware,KiCad,Pcbnew,8.0.7*%
%TF.CreationDate,2025-01-16T14:49:51+00:00*%
%TF.ProjectId,Panel3B,50616e65-6c33-4422-9e6b-696361645f70,rev?*%
%TF.SameCoordinates,Original*%
%TF.FileFunction,Other,ECO2*%
%FSLAX46Y46*%
G04 Gerber Fmt 4.6, Leading zero omitted, Abs format (unit mm)*
G04 Created by KiCad (PCBNEW 8.0.7) date 2025-01-16 14:49:51*
%MOMM*%
%LPD*%
G01*
G04 APERTURE LIST*
%ADD10C,0.150000*%
%ADD11C,0.300000*%
%ADD12C,0.350000*%
%ADD13O,0.600000X1.700000*%
%ADD14O,0.600000X1.200000*%
%ADD15O,0.700000X1.500000*%
%ADD16O,0.900000X0.700000*%
%ADD17O,2.500000X2.050000*%
G04 APERTURE END LIST*
D10*
X162503570Y-5544104D02*
X162979760Y-5544104D01*
X162408332Y-5829819D02*
X162741665Y-4829819D01*
X162741665Y-4829819D02*
X163074998Y-5829819D01*
X163408332Y-5163152D02*
X163408332Y-5829819D01*
X163408332Y-5258390D02*
X163455951Y-5210771D01*
X163455951Y-5210771D02*
X163551189Y-5163152D01*
X163551189Y-5163152D02*
X163694046Y-5163152D01*
X163694046Y-5163152D02*
X163789284Y-5210771D01*
X163789284Y-5210771D02*
X163836903Y-5306009D01*
X163836903Y-5306009D02*
X163836903Y-5829819D01*
X164170237Y-5163152D02*
X164551189Y-5163152D01*
X164313094Y-4829819D02*
X164313094Y-5686961D01*
X164313094Y-5686961D02*
X164360713Y-5782200D01*
X164360713Y-5782200D02*
X164455951Y-5829819D01*
X164455951Y-5829819D02*
X164551189Y-5829819D01*
X165265475Y-5782200D02*
X165170237Y-5829819D01*
X165170237Y-5829819D02*
X164979761Y-5829819D01*
X164979761Y-5829819D02*
X164884523Y-5782200D01*
X164884523Y-5782200D02*
X164836904Y-5686961D01*
X164836904Y-5686961D02*
X164836904Y-5306009D01*
X164836904Y-5306009D02*
X164884523Y-5210771D01*
X164884523Y-5210771D02*
X164979761Y-5163152D01*
X164979761Y-5163152D02*
X165170237Y-5163152D01*
X165170237Y-5163152D02*
X165265475Y-5210771D01*
X165265475Y-5210771D02*
X165313094Y-5306009D01*
X165313094Y-5306009D02*
X165313094Y-5401247D01*
X165313094Y-5401247D02*
X164836904Y-5496485D01*
X165741666Y-5163152D02*
X165741666Y-5829819D01*
X165741666Y-5258390D02*
X165789285Y-5210771D01*
X165789285Y-5210771D02*
X165884523Y-5163152D01*
X165884523Y-5163152D02*
X166027380Y-5163152D01*
X166027380Y-5163152D02*
X166122618Y-5210771D01*
X166122618Y-5210771D02*
X166170237Y-5306009D01*
X166170237Y-5306009D02*
X166170237Y-5829819D01*
X166646428Y-5163152D02*
X166646428Y-5829819D01*
X166646428Y-5258390D02*
X166694047Y-5210771D01*
X166694047Y-5210771D02*
X166789285Y-5163152D01*
X166789285Y-5163152D02*
X166932142Y-5163152D01*
X166932142Y-5163152D02*
X167027380Y-5210771D01*
X167027380Y-5210771D02*
X167074999Y-5306009D01*
X167074999Y-5306009D02*
X167074999Y-5829819D01*
X167979761Y-5829819D02*
X167979761Y-5306009D01*
X167979761Y-5306009D02*
X167932142Y-5210771D01*
X167932142Y-5210771D02*
X167836904Y-5163152D01*
X167836904Y-5163152D02*
X167646428Y-5163152D01*
X167646428Y-5163152D02*
X167551190Y-5210771D01*
X167979761Y-5782200D02*
X167884523Y-5829819D01*
X167884523Y-5829819D02*
X167646428Y-5829819D01*
X167646428Y-5829819D02*
X167551190Y-5782200D01*
X167551190Y-5782200D02*
X167503571Y-5686961D01*
X167503571Y-5686961D02*
X167503571Y-5591723D01*
X167503571Y-5591723D02*
X167551190Y-5496485D01*
X167551190Y-5496485D02*
X167646428Y-5448866D01*
X167646428Y-5448866D02*
X167884523Y-5448866D01*
X167884523Y-5448866D02*
X167979761Y-5401247D01*
X168217857Y-5925057D02*
X168979761Y-5925057D01*
X169217857Y-5829819D02*
X169217857Y-4829819D01*
X169217857Y-4829819D02*
X169551190Y-5544104D01*
X169551190Y-5544104D02*
X169884523Y-4829819D01*
X169884523Y-4829819D02*
X169884523Y-5829819D01*
X170360714Y-5829819D02*
X170360714Y-4829819D01*
X171170237Y-5306009D02*
X170836904Y-5306009D01*
X170836904Y-5829819D02*
X170836904Y-4829819D01*
X170836904Y-4829819D02*
X171313094Y-4829819D01*
X171646428Y-5544104D02*
X172122618Y-5544104D01*
X171551190Y-5829819D02*
X171884523Y-4829819D01*
X171884523Y-4829819D02*
X172217856Y-5829819D01*
X172313095Y-5925057D02*
X173074999Y-5925057D01*
X173884523Y-5734580D02*
X173836904Y-5782200D01*
X173836904Y-5782200D02*
X173694047Y-5829819D01*
X173694047Y-5829819D02*
X173598809Y-5829819D01*
X173598809Y-5829819D02*
X173455952Y-5782200D01*
X173455952Y-5782200D02*
X173360714Y-5686961D01*
X173360714Y-5686961D02*
X173313095Y-5591723D01*
X173313095Y-5591723D02*
X173265476Y-5401247D01*
X173265476Y-5401247D02*
X173265476Y-5258390D01*
X173265476Y-5258390D02*
X173313095Y-5067914D01*
X173313095Y-5067914D02*
X173360714Y-4972676D01*
X173360714Y-4972676D02*
X173455952Y-4877438D01*
X173455952Y-4877438D02*
X173598809Y-4829819D01*
X173598809Y-4829819D02*
X173694047Y-4829819D01*
X173694047Y-4829819D02*
X173836904Y-4877438D01*
X173836904Y-4877438D02*
X173884523Y-4925057D01*
X174217857Y-5163152D02*
X174455952Y-5829819D01*
X174694047Y-5163152D02*
X174455952Y-5829819D01*
X174455952Y-5829819D02*
X174360714Y-6067914D01*
X174360714Y-6067914D02*
X174313095Y-6115533D01*
X174313095Y-6115533D02*
X174217857Y-6163152D01*
X175075000Y-5163152D02*
X175075000Y-6163152D01*
X175075000Y-5210771D02*
X175170238Y-5163152D01*
X175170238Y-5163152D02*
X175360714Y-5163152D01*
X175360714Y-5163152D02*
X175455952Y-5210771D01*
X175455952Y-5210771D02*
X175503571Y-5258390D01*
X175503571Y-5258390D02*
X175551190Y-5353628D01*
X175551190Y-5353628D02*
X175551190Y-5639342D01*
X175551190Y-5639342D02*
X175503571Y-5734580D01*
X175503571Y-5734580D02*
X175455952Y-5782200D01*
X175455952Y-5782200D02*
X175360714Y-5829819D01*
X175360714Y-5829819D02*
X175170238Y-5829819D01*
X175170238Y-5829819D02*
X175075000Y-5782200D01*
X175979762Y-5829819D02*
X175979762Y-5163152D01*
X175979762Y-5353628D02*
X176027381Y-5258390D01*
X176027381Y-5258390D02*
X176075000Y-5210771D01*
X176075000Y-5210771D02*
X176170238Y-5163152D01*
X176170238Y-5163152D02*
X176265476Y-5163152D01*
X176979762Y-5782200D02*
X176884524Y-5829819D01*
X176884524Y-5829819D02*
X176694048Y-5829819D01*
X176694048Y-5829819D02*
X176598810Y-5782200D01*
X176598810Y-5782200D02*
X176551191Y-5686961D01*
X176551191Y-5686961D02*
X176551191Y-5306009D01*
X176551191Y-5306009D02*
X176598810Y-5210771D01*
X176598810Y-5210771D02*
X176694048Y-5163152D01*
X176694048Y-5163152D02*
X176884524Y-5163152D01*
X176884524Y-5163152D02*
X176979762Y-5210771D01*
X176979762Y-5210771D02*
X177027381Y-5306009D01*
X177027381Y-5306009D02*
X177027381Y-5401247D01*
X177027381Y-5401247D02*
X176551191Y-5496485D01*
X177408334Y-5782200D02*
X177503572Y-5829819D01*
X177503572Y-5829819D02*
X177694048Y-5829819D01*
X177694048Y-5829819D02*
X177789286Y-5782200D01*
X177789286Y-5782200D02*
X177836905Y-5686961D01*
X177836905Y-5686961D02*
X177836905Y-5639342D01*
X177836905Y-5639342D02*
X177789286Y-5544104D01*
X177789286Y-5544104D02*
X177694048Y-5496485D01*
X177694048Y-5496485D02*
X177551191Y-5496485D01*
X177551191Y-5496485D02*
X177455953Y-5448866D01*
X177455953Y-5448866D02*
X177408334Y-5353628D01*
X177408334Y-5353628D02*
X177408334Y-5306009D01*
X177408334Y-5306009D02*
X177455953Y-5210771D01*
X177455953Y-5210771D02*
X177551191Y-5163152D01*
X177551191Y-5163152D02*
X177694048Y-5163152D01*
X177694048Y-5163152D02*
X177789286Y-5210771D01*
X178217858Y-5782200D02*
X178313096Y-5829819D01*
X178313096Y-5829819D02*
X178503572Y-5829819D01*
X178503572Y-5829819D02*
X178598810Y-5782200D01*
X178598810Y-5782200D02*
X178646429Y-5686961D01*
X178646429Y-5686961D02*
X178646429Y-5639342D01*
X178646429Y-5639342D02*
X178598810Y-5544104D01*
X178598810Y-5544104D02*
X178503572Y-5496485D01*
X178503572Y-5496485D02*
X178360715Y-5496485D01*
X178360715Y-5496485D02*
X178265477Y-5448866D01*
X178265477Y-5448866D02*
X178217858Y-5353628D01*
X178217858Y-5353628D02*
X178217858Y-5306009D01*
X178217858Y-5306009D02*
X178265477Y-5210771D01*
X178265477Y-5210771D02*
X178360715Y-5163152D01*
X178360715Y-5163152D02*
X178503572Y-5163152D01*
X178503572Y-5163152D02*
X178598810Y-5210771D01*
X162257200Y-26665475D02*
X162304819Y-26570237D01*
X162304819Y-26570237D02*
X162304819Y-26379761D01*
X162304819Y-26379761D02*
X162257200Y-26284523D01*
X162257200Y-26284523D02*
X162161961Y-26236904D01*
X162161961Y-26236904D02*
X162114342Y-26236904D01*
X162114342Y-26236904D02*
X162019104Y-26284523D01*
X162019104Y-26284523D02*
X161971485Y-26379761D01*
X161971485Y-26379761D02*
X161971485Y-26522618D01*
X161971485Y-26522618D02*
X161923866Y-26617856D01*
X161923866Y-26617856D02*
X161828628Y-26665475D01*
X161828628Y-26665475D02*
X161781009Y-26665475D01*
X161781009Y-26665475D02*
X161685771Y-26617856D01*
X161685771Y-26617856D02*
X161638152Y-26522618D01*
X161638152Y-26522618D02*
X161638152Y-26379761D01*
X161638152Y-26379761D02*
X161685771Y-26284523D01*
X161638152Y-25903570D02*
X162304819Y-25713094D01*
X162304819Y-25713094D02*
X161828628Y-25522618D01*
X161828628Y-25522618D02*
X162304819Y-25332142D01*
X162304819Y-25332142D02*
X161638152Y-25141666D01*
X162304819Y-24332142D02*
X161304819Y-24332142D01*
X162257200Y-24332142D02*
X162304819Y-24427380D01*
X162304819Y-24427380D02*
X162304819Y-24617856D01*
X162304819Y-24617856D02*
X162257200Y-24713094D01*
X162257200Y-24713094D02*
X162209580Y-24760713D01*
X162209580Y-24760713D02*
X162114342Y-24808332D01*
X162114342Y-24808332D02*
X161828628Y-24808332D01*
X161828628Y-24808332D02*
X161733390Y-24760713D01*
X161733390Y-24760713D02*
X161685771Y-24713094D01*
X161685771Y-24713094D02*
X161638152Y-24617856D01*
X161638152Y-24617856D02*
X161638152Y-24427380D01*
X161638152Y-24427380D02*
X161685771Y-24332142D01*
X162400057Y-24094047D02*
X162400057Y-23332142D01*
X161638152Y-22665475D02*
X162304819Y-22665475D01*
X161257200Y-22903570D02*
X161971485Y-23141665D01*
X161971485Y-23141665D02*
X161971485Y-22522618D01*
X161638152Y-22141665D02*
X162638152Y-22141665D01*
X161685771Y-22141665D02*
X161638152Y-22046427D01*
X161638152Y-22046427D02*
X161638152Y-21855951D01*
X161638152Y-21855951D02*
X161685771Y-21760713D01*
X161685771Y-21760713D02*
X161733390Y-21713094D01*
X161733390Y-21713094D02*
X161828628Y-21665475D01*
X161828628Y-21665475D02*
X162114342Y-21665475D01*
X162114342Y-21665475D02*
X162209580Y-21713094D01*
X162209580Y-21713094D02*
X162257200Y-21760713D01*
X162257200Y-21760713D02*
X162304819Y-21855951D01*
X162304819Y-21855951D02*
X162304819Y-22046427D01*
X162304819Y-22046427D02*
X162257200Y-22141665D01*
X162304819Y-21236903D02*
X161638152Y-21236903D01*
X161304819Y-21236903D02*
X161352438Y-21284522D01*
X161352438Y-21284522D02*
X161400057Y-21236903D01*
X161400057Y-21236903D02*
X161352438Y-21189284D01*
X161352438Y-21189284D02*
X161304819Y-21236903D01*
X161304819Y-21236903D02*
X161400057Y-21236903D01*
X161638152Y-20760713D02*
X162304819Y-20760713D01*
X161733390Y-20760713D02*
X161685771Y-20713094D01*
X161685771Y-20713094D02*
X161638152Y-20617856D01*
X161638152Y-20617856D02*
X161638152Y-20474999D01*
X161638152Y-20474999D02*
X161685771Y-20379761D01*
X161685771Y-20379761D02*
X161781009Y-20332142D01*
X161781009Y-20332142D02*
X162304819Y-20332142D01*
X127757200Y-26665475D02*
X127804819Y-26570237D01*
X127804819Y-26570237D02*
X127804819Y-26379761D01*
X127804819Y-26379761D02*
X127757200Y-26284523D01*
X127757200Y-26284523D02*
X127661961Y-26236904D01*
X127661961Y-26236904D02*
X127614342Y-26236904D01*
X127614342Y-26236904D02*
X127519104Y-26284523D01*
X127519104Y-26284523D02*
X127471485Y-26379761D01*
X127471485Y-26379761D02*
X127471485Y-26522618D01*
X127471485Y-26522618D02*
X127423866Y-26617856D01*
X127423866Y-26617856D02*
X127328628Y-26665475D01*
X127328628Y-26665475D02*
X127281009Y-26665475D01*
X127281009Y-26665475D02*
X127185771Y-26617856D01*
X127185771Y-26617856D02*
X127138152Y-26522618D01*
X127138152Y-26522618D02*
X127138152Y-26379761D01*
X127138152Y-26379761D02*
X127185771Y-26284523D01*
X127138152Y-25903570D02*
X127804819Y-25713094D01*
X127804819Y-25713094D02*
X127328628Y-25522618D01*
X127328628Y-25522618D02*
X127804819Y-25332142D01*
X127804819Y-25332142D02*
X127138152Y-25141666D01*
X127804819Y-24332142D02*
X126804819Y-24332142D01*
X127757200Y-24332142D02*
X127804819Y-24427380D01*
X127804819Y-24427380D02*
X127804819Y-24617856D01*
X127804819Y-24617856D02*
X127757200Y-24713094D01*
X127757200Y-24713094D02*
X127709580Y-24760713D01*
X127709580Y-24760713D02*
X127614342Y-24808332D01*
X127614342Y-24808332D02*
X127328628Y-24808332D01*
X127328628Y-24808332D02*
X127233390Y-24760713D01*
X127233390Y-24760713D02*
X127185771Y-24713094D01*
X127185771Y-24713094D02*
X127138152Y-24617856D01*
X127138152Y-24617856D02*
X127138152Y-24427380D01*
X127138152Y-24427380D02*
X127185771Y-24332142D01*
X127900057Y-24094047D02*
X127900057Y-23332142D01*
X127138152Y-22665475D02*
X127804819Y-22665475D01*
X126757200Y-22903570D02*
X127471485Y-23141665D01*
X127471485Y-23141665D02*
X127471485Y-22522618D01*
X127138152Y-22141665D02*
X128138152Y-22141665D01*
X127185771Y-22141665D02*
X127138152Y-22046427D01*
X127138152Y-22046427D02*
X127138152Y-21855951D01*
X127138152Y-21855951D02*
X127185771Y-21760713D01*
X127185771Y-21760713D02*
X127233390Y-21713094D01*
X127233390Y-21713094D02*
X127328628Y-21665475D01*
X127328628Y-21665475D02*
X127614342Y-21665475D01*
X127614342Y-21665475D02*
X127709580Y-21713094D01*
X127709580Y-21713094D02*
X127757200Y-21760713D01*
X127757200Y-21760713D02*
X127804819Y-21855951D01*
X127804819Y-21855951D02*
X127804819Y-22046427D01*
X127804819Y-22046427D02*
X127757200Y-22141665D01*
X127804819Y-21236903D02*
X127138152Y-21236903D01*
X126804819Y-21236903D02*
X126852438Y-21284522D01*
X126852438Y-21284522D02*
X126900057Y-21236903D01*
X126900057Y-21236903D02*
X126852438Y-21189284D01*
X126852438Y-21189284D02*
X126804819Y-21236903D01*
X126804819Y-21236903D02*
X126900057Y-21236903D01*
X127138152Y-20760713D02*
X127804819Y-20760713D01*
X127233390Y-20760713D02*
X127185771Y-20713094D01*
X127185771Y-20713094D02*
X127138152Y-20617856D01*
X127138152Y-20617856D02*
X127138152Y-20474999D01*
X127138152Y-20474999D02*
X127185771Y-20379761D01*
X127185771Y-20379761D02*
X127281009Y-20332142D01*
X127281009Y-20332142D02*
X127804819Y-20332142D01*
X19849998Y-9359580D02*
X19802379Y-9407200D01*
X19802379Y-9407200D02*
X19659522Y-9454819D01*
X19659522Y-9454819D02*
X19564284Y-9454819D01*
X19564284Y-9454819D02*
X19421427Y-9407200D01*
X19421427Y-9407200D02*
X19326189Y-9311961D01*
X19326189Y-9311961D02*
X19278570Y-9216723D01*
X19278570Y-9216723D02*
X19230951Y-9026247D01*
X19230951Y-9026247D02*
X19230951Y-8883390D01*
X19230951Y-8883390D02*
X19278570Y-8692914D01*
X19278570Y-8692914D02*
X19326189Y-8597676D01*
X19326189Y-8597676D02*
X19421427Y-8502438D01*
X19421427Y-8502438D02*
X19564284Y-8454819D01*
X19564284Y-8454819D02*
X19659522Y-8454819D01*
X19659522Y-8454819D02*
X19802379Y-8502438D01*
X19802379Y-8502438D02*
X19849998Y-8550057D01*
X20421427Y-9454819D02*
X20326189Y-9407200D01*
X20326189Y-9407200D02*
X20278570Y-9359580D01*
X20278570Y-9359580D02*
X20230951Y-9264342D01*
X20230951Y-9264342D02*
X20230951Y-8978628D01*
X20230951Y-8978628D02*
X20278570Y-8883390D01*
X20278570Y-8883390D02*
X20326189Y-8835771D01*
X20326189Y-8835771D02*
X20421427Y-8788152D01*
X20421427Y-8788152D02*
X20564284Y-8788152D01*
X20564284Y-8788152D02*
X20659522Y-8835771D01*
X20659522Y-8835771D02*
X20707141Y-8883390D01*
X20707141Y-8883390D02*
X20754760Y-8978628D01*
X20754760Y-8978628D02*
X20754760Y-9264342D01*
X20754760Y-9264342D02*
X20707141Y-9359580D01*
X20707141Y-9359580D02*
X20659522Y-9407200D01*
X20659522Y-9407200D02*
X20564284Y-9454819D01*
X20564284Y-9454819D02*
X20421427Y-9454819D01*
X21183332Y-8788152D02*
X21183332Y-9454819D01*
X21183332Y-8883390D02*
X21230951Y-8835771D01*
X21230951Y-8835771D02*
X21326189Y-8788152D01*
X21326189Y-8788152D02*
X21469046Y-8788152D01*
X21469046Y-8788152D02*
X21564284Y-8835771D01*
X21564284Y-8835771D02*
X21611903Y-8931009D01*
X21611903Y-8931009D02*
X21611903Y-9454819D01*
X22088094Y-8788152D02*
X22088094Y-9454819D01*
X22088094Y-8883390D02*
X22135713Y-8835771D01*
X22135713Y-8835771D02*
X22230951Y-8788152D01*
X22230951Y-8788152D02*
X22373808Y-8788152D01*
X22373808Y-8788152D02*
X22469046Y-8835771D01*
X22469046Y-8835771D02*
X22516665Y-8931009D01*
X22516665Y-8931009D02*
X22516665Y-9454819D01*
X23326189Y-8931009D02*
X23469046Y-8978628D01*
X23469046Y-8978628D02*
X23516665Y-9026247D01*
X23516665Y-9026247D02*
X23564284Y-9121485D01*
X23564284Y-9121485D02*
X23564284Y-9264342D01*
X23564284Y-9264342D02*
X23516665Y-9359580D01*
X23516665Y-9359580D02*
X23469046Y-9407200D01*
X23469046Y-9407200D02*
X23373808Y-9454819D01*
X23373808Y-9454819D02*
X22992856Y-9454819D01*
X22992856Y-9454819D02*
X22992856Y-8454819D01*
X22992856Y-8454819D02*
X23326189Y-8454819D01*
X23326189Y-8454819D02*
X23421427Y-8502438D01*
X23421427Y-8502438D02*
X23469046Y-8550057D01*
X23469046Y-8550057D02*
X23516665Y-8645295D01*
X23516665Y-8645295D02*
X23516665Y-8740533D01*
X23516665Y-8740533D02*
X23469046Y-8835771D01*
X23469046Y-8835771D02*
X23421427Y-8883390D01*
X23421427Y-8883390D02*
X23326189Y-8931009D01*
X23326189Y-8931009D02*
X22992856Y-8931009D01*
X24421427Y-9454819D02*
X24421427Y-8931009D01*
X24421427Y-8931009D02*
X24373808Y-8835771D01*
X24373808Y-8835771D02*
X24278570Y-8788152D01*
X24278570Y-8788152D02*
X24088094Y-8788152D01*
X24088094Y-8788152D02*
X23992856Y-8835771D01*
X24421427Y-9407200D02*
X24326189Y-9454819D01*
X24326189Y-9454819D02*
X24088094Y-9454819D01*
X24088094Y-9454819D02*
X23992856Y-9407200D01*
X23992856Y-9407200D02*
X23945237Y-9311961D01*
X23945237Y-9311961D02*
X23945237Y-9216723D01*
X23945237Y-9216723D02*
X23992856Y-9121485D01*
X23992856Y-9121485D02*
X24088094Y-9073866D01*
X24088094Y-9073866D02*
X24326189Y-9073866D01*
X24326189Y-9073866D02*
X24421427Y-9026247D01*
X24754761Y-8788152D02*
X25135713Y-8788152D01*
X24897618Y-8454819D02*
X24897618Y-9311961D01*
X24897618Y-9311961D02*
X24945237Y-9407200D01*
X24945237Y-9407200D02*
X25040475Y-9454819D01*
X25040475Y-9454819D02*
X25135713Y-9454819D01*
X25326190Y-8788152D02*
X25707142Y-8788152D01*
X25469047Y-8454819D02*
X25469047Y-9311961D01*
X25469047Y-9311961D02*
X25516666Y-9407200D01*
X25516666Y-9407200D02*
X25611904Y-9454819D01*
X25611904Y-9454819D02*
X25707142Y-9454819D01*
X26421428Y-9407200D02*
X26326190Y-9454819D01*
X26326190Y-9454819D02*
X26135714Y-9454819D01*
X26135714Y-9454819D02*
X26040476Y-9407200D01*
X26040476Y-9407200D02*
X25992857Y-9311961D01*
X25992857Y-9311961D02*
X25992857Y-8931009D01*
X25992857Y-8931009D02*
X26040476Y-8835771D01*
X26040476Y-8835771D02*
X26135714Y-8788152D01*
X26135714Y-8788152D02*
X26326190Y-8788152D01*
X26326190Y-8788152D02*
X26421428Y-8835771D01*
X26421428Y-8835771D02*
X26469047Y-8931009D01*
X26469047Y-8931009D02*
X26469047Y-9026247D01*
X26469047Y-9026247D02*
X25992857Y-9121485D01*
X26897619Y-9454819D02*
X26897619Y-8788152D01*
X26897619Y-8978628D02*
X26945238Y-8883390D01*
X26945238Y-8883390D02*
X26992857Y-8835771D01*
X26992857Y-8835771D02*
X27088095Y-8788152D01*
X27088095Y-8788152D02*
X27183333Y-8788152D01*
X27421429Y-8788152D02*
X27659524Y-9454819D01*
X27897619Y-8788152D02*
X27659524Y-9454819D01*
X27659524Y-9454819D02*
X27564286Y-9692914D01*
X27564286Y-9692914D02*
X27516667Y-9740533D01*
X27516667Y-9740533D02*
X27421429Y-9788152D01*
X28040477Y-9550057D02*
X28802381Y-9550057D01*
X29326191Y-8454819D02*
X29326191Y-9169104D01*
X29326191Y-9169104D02*
X29278572Y-9311961D01*
X29278572Y-9311961D02*
X29183334Y-9407200D01*
X29183334Y-9407200D02*
X29040477Y-9454819D01*
X29040477Y-9454819D02*
X28945239Y-9454819D01*
X29754763Y-9407200D02*
X29897620Y-9454819D01*
X29897620Y-9454819D02*
X30135715Y-9454819D01*
X30135715Y-9454819D02*
X30230953Y-9407200D01*
X30230953Y-9407200D02*
X30278572Y-9359580D01*
X30278572Y-9359580D02*
X30326191Y-9264342D01*
X30326191Y-9264342D02*
X30326191Y-9169104D01*
X30326191Y-9169104D02*
X30278572Y-9073866D01*
X30278572Y-9073866D02*
X30230953Y-9026247D01*
X30230953Y-9026247D02*
X30135715Y-8978628D01*
X30135715Y-8978628D02*
X29945239Y-8931009D01*
X29945239Y-8931009D02*
X29850001Y-8883390D01*
X29850001Y-8883390D02*
X29802382Y-8835771D01*
X29802382Y-8835771D02*
X29754763Y-8740533D01*
X29754763Y-8740533D02*
X29754763Y-8645295D01*
X29754763Y-8645295D02*
X29802382Y-8550057D01*
X29802382Y-8550057D02*
X29850001Y-8502438D01*
X29850001Y-8502438D02*
X29945239Y-8454819D01*
X29945239Y-8454819D02*
X30183334Y-8454819D01*
X30183334Y-8454819D02*
X30326191Y-8502438D01*
X30611906Y-8454819D02*
X31183334Y-8454819D01*
X30897620Y-9454819D02*
X30897620Y-8454819D01*
X31278573Y-9550057D02*
X32040477Y-9550057D01*
X32230954Y-9407200D02*
X32373811Y-9454819D01*
X32373811Y-9454819D02*
X32611906Y-9454819D01*
X32611906Y-9454819D02*
X32707144Y-9407200D01*
X32707144Y-9407200D02*
X32754763Y-9359580D01*
X32754763Y-9359580D02*
X32802382Y-9264342D01*
X32802382Y-9264342D02*
X32802382Y-9169104D01*
X32802382Y-9169104D02*
X32754763Y-9073866D01*
X32754763Y-9073866D02*
X32707144Y-9026247D01*
X32707144Y-9026247D02*
X32611906Y-8978628D01*
X32611906Y-8978628D02*
X32421430Y-8931009D01*
X32421430Y-8931009D02*
X32326192Y-8883390D01*
X32326192Y-8883390D02*
X32278573Y-8835771D01*
X32278573Y-8835771D02*
X32230954Y-8740533D01*
X32230954Y-8740533D02*
X32230954Y-8645295D01*
X32230954Y-8645295D02*
X32278573Y-8550057D01*
X32278573Y-8550057D02*
X32326192Y-8502438D01*
X32326192Y-8502438D02*
X32421430Y-8454819D01*
X32421430Y-8454819D02*
X32659525Y-8454819D01*
X32659525Y-8454819D02*
X32802382Y-8502438D01*
X33183335Y-8550057D02*
X33230954Y-8502438D01*
X33230954Y-8502438D02*
X33326192Y-8454819D01*
X33326192Y-8454819D02*
X33564287Y-8454819D01*
X33564287Y-8454819D02*
X33659525Y-8502438D01*
X33659525Y-8502438D02*
X33707144Y-8550057D01*
X33707144Y-8550057D02*
X33754763Y-8645295D01*
X33754763Y-8645295D02*
X33754763Y-8740533D01*
X33754763Y-8740533D02*
X33707144Y-8883390D01*
X33707144Y-8883390D02*
X33135716Y-9454819D01*
X33135716Y-9454819D02*
X33754763Y-9454819D01*
X34516668Y-8931009D02*
X34659525Y-8978628D01*
X34659525Y-8978628D02*
X34707144Y-9026247D01*
X34707144Y-9026247D02*
X34754763Y-9121485D01*
X34754763Y-9121485D02*
X34754763Y-9264342D01*
X34754763Y-9264342D02*
X34707144Y-9359580D01*
X34707144Y-9359580D02*
X34659525Y-9407200D01*
X34659525Y-9407200D02*
X34564287Y-9454819D01*
X34564287Y-9454819D02*
X34183335Y-9454819D01*
X34183335Y-9454819D02*
X34183335Y-8454819D01*
X34183335Y-8454819D02*
X34516668Y-8454819D01*
X34516668Y-8454819D02*
X34611906Y-8502438D01*
X34611906Y-8502438D02*
X34659525Y-8550057D01*
X34659525Y-8550057D02*
X34707144Y-8645295D01*
X34707144Y-8645295D02*
X34707144Y-8740533D01*
X34707144Y-8740533D02*
X34659525Y-8835771D01*
X34659525Y-8835771D02*
X34611906Y-8883390D01*
X34611906Y-8883390D02*
X34516668Y-8931009D01*
X34516668Y-8931009D02*
X34183335Y-8931009D01*
X35183335Y-9073866D02*
X35945240Y-9073866D01*
X36421430Y-9454819D02*
X36421430Y-8454819D01*
X36421430Y-8454819D02*
X36802382Y-8454819D01*
X36802382Y-8454819D02*
X36897620Y-8502438D01*
X36897620Y-8502438D02*
X36945239Y-8550057D01*
X36945239Y-8550057D02*
X36992858Y-8645295D01*
X36992858Y-8645295D02*
X36992858Y-8788152D01*
X36992858Y-8788152D02*
X36945239Y-8883390D01*
X36945239Y-8883390D02*
X36897620Y-8931009D01*
X36897620Y-8931009D02*
X36802382Y-8978628D01*
X36802382Y-8978628D02*
X36421430Y-8978628D01*
X37421430Y-9454819D02*
X37421430Y-8454819D01*
X37421430Y-8931009D02*
X37992858Y-8931009D01*
X37992858Y-9454819D02*
X37992858Y-8454819D01*
X38469049Y-9073866D02*
X39230954Y-9073866D01*
X39707144Y-9454819D02*
X39707144Y-8454819D01*
X40278572Y-9454819D02*
X39850001Y-8883390D01*
X40278572Y-8454819D02*
X39707144Y-9026247D01*
X40707144Y-9073866D02*
X41469049Y-9073866D01*
X41897620Y-9407200D02*
X42040477Y-9454819D01*
X42040477Y-9454819D02*
X42278572Y-9454819D01*
X42278572Y-9454819D02*
X42373810Y-9407200D01*
X42373810Y-9407200D02*
X42421429Y-9359580D01*
X42421429Y-9359580D02*
X42469048Y-9264342D01*
X42469048Y-9264342D02*
X42469048Y-9169104D01*
X42469048Y-9169104D02*
X42421429Y-9073866D01*
X42421429Y-9073866D02*
X42373810Y-9026247D01*
X42373810Y-9026247D02*
X42278572Y-8978628D01*
X42278572Y-8978628D02*
X42088096Y-8931009D01*
X42088096Y-8931009D02*
X41992858Y-8883390D01*
X41992858Y-8883390D02*
X41945239Y-8835771D01*
X41945239Y-8835771D02*
X41897620Y-8740533D01*
X41897620Y-8740533D02*
X41897620Y-8645295D01*
X41897620Y-8645295D02*
X41945239Y-8550057D01*
X41945239Y-8550057D02*
X41992858Y-8502438D01*
X41992858Y-8502438D02*
X42088096Y-8454819D01*
X42088096Y-8454819D02*
X42326191Y-8454819D01*
X42326191Y-8454819D02*
X42469048Y-8502438D01*
X146332200Y-20280952D02*
X146379819Y-20138095D01*
X146379819Y-20138095D02*
X146379819Y-19900000D01*
X146379819Y-19900000D02*
X146332200Y-19804762D01*
X146332200Y-19804762D02*
X146284580Y-19757143D01*
X146284580Y-19757143D02*
X146189342Y-19709524D01*
X146189342Y-19709524D02*
X146094104Y-19709524D01*
X146094104Y-19709524D02*
X145998866Y-19757143D01*
X145998866Y-19757143D02*
X145951247Y-19804762D01*
X145951247Y-19804762D02*
X145903628Y-19900000D01*
X145903628Y-19900000D02*
X145856009Y-20090476D01*
X145856009Y-20090476D02*
X145808390Y-20185714D01*
X145808390Y-20185714D02*
X145760771Y-20233333D01*
X145760771Y-20233333D02*
X145665533Y-20280952D01*
X145665533Y-20280952D02*
X145570295Y-20280952D01*
X145570295Y-20280952D02*
X145475057Y-20233333D01*
X145475057Y-20233333D02*
X145427438Y-20185714D01*
X145427438Y-20185714D02*
X145379819Y-20090476D01*
X145379819Y-20090476D02*
X145379819Y-19852381D01*
X145379819Y-19852381D02*
X145427438Y-19709524D01*
X145379819Y-19423809D02*
X145379819Y-18852381D01*
X146379819Y-19138095D02*
X145379819Y-19138095D01*
X146379819Y-18519047D02*
X145379819Y-18519047D01*
X145379819Y-18519047D02*
X146094104Y-18185714D01*
X146094104Y-18185714D02*
X145379819Y-17852381D01*
X145379819Y-17852381D02*
X146379819Y-17852381D01*
X145379819Y-17471428D02*
X145379819Y-16852381D01*
X145379819Y-16852381D02*
X145760771Y-17185714D01*
X145760771Y-17185714D02*
X145760771Y-17042857D01*
X145760771Y-17042857D02*
X145808390Y-16947619D01*
X145808390Y-16947619D02*
X145856009Y-16900000D01*
X145856009Y-16900000D02*
X145951247Y-16852381D01*
X145951247Y-16852381D02*
X146189342Y-16852381D01*
X146189342Y-16852381D02*
X146284580Y-16900000D01*
X146284580Y-16900000D02*
X146332200Y-16947619D01*
X146332200Y-16947619D02*
X146379819Y-17042857D01*
X146379819Y-17042857D02*
X146379819Y-17328571D01*
X146379819Y-17328571D02*
X146332200Y-17423809D01*
X146332200Y-17423809D02*
X146284580Y-17471428D01*
X145475057Y-16471428D02*
X145427438Y-16423809D01*
X145427438Y-16423809D02*
X145379819Y-16328571D01*
X145379819Y-16328571D02*
X145379819Y-16090476D01*
X145379819Y-16090476D02*
X145427438Y-15995238D01*
X145427438Y-15995238D02*
X145475057Y-15947619D01*
X145475057Y-15947619D02*
X145570295Y-15900000D01*
X145570295Y-15900000D02*
X145665533Y-15900000D01*
X145665533Y-15900000D02*
X145808390Y-15947619D01*
X145808390Y-15947619D02*
X146379819Y-16519047D01*
X146379819Y-16519047D02*
X146379819Y-15900000D01*
X145856009Y-15138095D02*
X145856009Y-15471428D01*
X146379819Y-15471428D02*
X145379819Y-15471428D01*
X145379819Y-15471428D02*
X145379819Y-14995238D01*
X146379819Y-14090476D02*
X146379819Y-14661904D01*
X146379819Y-14376190D02*
X145379819Y-14376190D01*
X145379819Y-14376190D02*
X145522676Y-14471428D01*
X145522676Y-14471428D02*
X145617914Y-14566666D01*
X145617914Y-14566666D02*
X145665533Y-14661904D01*
X145379819Y-13471428D02*
X145379819Y-13376190D01*
X145379819Y-13376190D02*
X145427438Y-13280952D01*
X145427438Y-13280952D02*
X145475057Y-13233333D01*
X145475057Y-13233333D02*
X145570295Y-13185714D01*
X145570295Y-13185714D02*
X145760771Y-13138095D01*
X145760771Y-13138095D02*
X145998866Y-13138095D01*
X145998866Y-13138095D02*
X146189342Y-13185714D01*
X146189342Y-13185714D02*
X146284580Y-13233333D01*
X146284580Y-13233333D02*
X146332200Y-13280952D01*
X146332200Y-13280952D02*
X146379819Y-13376190D01*
X146379819Y-13376190D02*
X146379819Y-13471428D01*
X146379819Y-13471428D02*
X146332200Y-13566666D01*
X146332200Y-13566666D02*
X146284580Y-13614285D01*
X146284580Y-13614285D02*
X146189342Y-13661904D01*
X146189342Y-13661904D02*
X145998866Y-13709523D01*
X145998866Y-13709523D02*
X145760771Y-13709523D01*
X145760771Y-13709523D02*
X145570295Y-13661904D01*
X145570295Y-13661904D02*
X145475057Y-13614285D01*
X145475057Y-13614285D02*
X145427438Y-13566666D01*
X145427438Y-13566666D02*
X145379819Y-13471428D01*
X145379819Y-12804761D02*
X145379819Y-12185714D01*
X145379819Y-12185714D02*
X145760771Y-12519047D01*
X145760771Y-12519047D02*
X145760771Y-12376190D01*
X145760771Y-12376190D02*
X145808390Y-12280952D01*
X145808390Y-12280952D02*
X145856009Y-12233333D01*
X145856009Y-12233333D02*
X145951247Y-12185714D01*
X145951247Y-12185714D02*
X146189342Y-12185714D01*
X146189342Y-12185714D02*
X146284580Y-12233333D01*
X146284580Y-12233333D02*
X146332200Y-12280952D01*
X146332200Y-12280952D02*
X146379819Y-12376190D01*
X146379819Y-12376190D02*
X146379819Y-12661904D01*
X146379819Y-12661904D02*
X146332200Y-12757142D01*
X146332200Y-12757142D02*
X146284580Y-12804761D01*
X146284580Y-11185714D02*
X146332200Y-11233333D01*
X146332200Y-11233333D02*
X146379819Y-11376190D01*
X146379819Y-11376190D02*
X146379819Y-11471428D01*
X146379819Y-11471428D02*
X146332200Y-11614285D01*
X146332200Y-11614285D02*
X146236961Y-11709523D01*
X146236961Y-11709523D02*
X146141723Y-11757142D01*
X146141723Y-11757142D02*
X145951247Y-11804761D01*
X145951247Y-11804761D02*
X145808390Y-11804761D01*
X145808390Y-11804761D02*
X145617914Y-11757142D01*
X145617914Y-11757142D02*
X145522676Y-11709523D01*
X145522676Y-11709523D02*
X145427438Y-11614285D01*
X145427438Y-11614285D02*
X145379819Y-11471428D01*
X145379819Y-11471428D02*
X145379819Y-11376190D01*
X145379819Y-11376190D02*
X145427438Y-11233333D01*
X145427438Y-11233333D02*
X145475057Y-11185714D01*
X145808390Y-10614285D02*
X145760771Y-10709523D01*
X145760771Y-10709523D02*
X145713152Y-10757142D01*
X145713152Y-10757142D02*
X145617914Y-10804761D01*
X145617914Y-10804761D02*
X145570295Y-10804761D01*
X145570295Y-10804761D02*
X145475057Y-10757142D01*
X145475057Y-10757142D02*
X145427438Y-10709523D01*
X145427438Y-10709523D02*
X145379819Y-10614285D01*
X145379819Y-10614285D02*
X145379819Y-10423809D01*
X145379819Y-10423809D02*
X145427438Y-10328571D01*
X145427438Y-10328571D02*
X145475057Y-10280952D01*
X145475057Y-10280952D02*
X145570295Y-10233333D01*
X145570295Y-10233333D02*
X145617914Y-10233333D01*
X145617914Y-10233333D02*
X145713152Y-10280952D01*
X145713152Y-10280952D02*
X145760771Y-10328571D01*
X145760771Y-10328571D02*
X145808390Y-10423809D01*
X145808390Y-10423809D02*
X145808390Y-10614285D01*
X145808390Y-10614285D02*
X145856009Y-10709523D01*
X145856009Y-10709523D02*
X145903628Y-10757142D01*
X145903628Y-10757142D02*
X145998866Y-10804761D01*
X145998866Y-10804761D02*
X146189342Y-10804761D01*
X146189342Y-10804761D02*
X146284580Y-10757142D01*
X146284580Y-10757142D02*
X146332200Y-10709523D01*
X146332200Y-10709523D02*
X146379819Y-10614285D01*
X146379819Y-10614285D02*
X146379819Y-10423809D01*
X146379819Y-10423809D02*
X146332200Y-10328571D01*
X146332200Y-10328571D02*
X146284580Y-10280952D01*
X146284580Y-10280952D02*
X146189342Y-10233333D01*
X146189342Y-10233333D02*
X145998866Y-10233333D01*
X145998866Y-10233333D02*
X145903628Y-10280952D01*
X145903628Y-10280952D02*
X145856009Y-10328571D01*
X145856009Y-10328571D02*
X145808390Y-10423809D01*
X145379819Y-9947618D02*
X145379819Y-9376190D01*
X146379819Y-9661904D02*
X145379819Y-9661904D01*
X145379819Y-8614285D02*
X145379819Y-8804761D01*
X145379819Y-8804761D02*
X145427438Y-8899999D01*
X145427438Y-8899999D02*
X145475057Y-8947618D01*
X145475057Y-8947618D02*
X145617914Y-9042856D01*
X145617914Y-9042856D02*
X145808390Y-9090475D01*
X145808390Y-9090475D02*
X146189342Y-9090475D01*
X146189342Y-9090475D02*
X146284580Y-9042856D01*
X146284580Y-9042856D02*
X146332200Y-8995237D01*
X146332200Y-8995237D02*
X146379819Y-8899999D01*
X146379819Y-8899999D02*
X146379819Y-8709523D01*
X146379819Y-8709523D02*
X146332200Y-8614285D01*
X146332200Y-8614285D02*
X146284580Y-8566666D01*
X146284580Y-8566666D02*
X146189342Y-8519047D01*
X146189342Y-8519047D02*
X145951247Y-8519047D01*
X145951247Y-8519047D02*
X145856009Y-8566666D01*
X145856009Y-8566666D02*
X145808390Y-8614285D01*
X145808390Y-8614285D02*
X145760771Y-8709523D01*
X145760771Y-8709523D02*
X145760771Y-8899999D01*
X145760771Y-8899999D02*
X145808390Y-8995237D01*
X145808390Y-8995237D02*
X145856009Y-9042856D01*
X145856009Y-9042856D02*
X145951247Y-9090475D01*
X757200Y-26665475D02*
X804819Y-26570237D01*
X804819Y-26570237D02*
X804819Y-26379761D01*
X804819Y-26379761D02*
X757200Y-26284523D01*
X757200Y-26284523D02*
X661961Y-26236904D01*
X661961Y-26236904D02*
X614342Y-26236904D01*
X614342Y-26236904D02*
X519104Y-26284523D01*
X519104Y-26284523D02*
X471485Y-26379761D01*
X471485Y-26379761D02*
X471485Y-26522618D01*
X471485Y-26522618D02*
X423866Y-26617856D01*
X423866Y-26617856D02*
X328628Y-26665475D01*
X328628Y-26665475D02*
X281009Y-26665475D01*
X281009Y-26665475D02*
X185771Y-26617856D01*
X185771Y-26617856D02*
X138152Y-26522618D01*
X138152Y-26522618D02*
X138152Y-26379761D01*
X138152Y-26379761D02*
X185771Y-26284523D01*
X138152Y-25903570D02*
X804819Y-25713094D01*
X804819Y-25713094D02*
X328628Y-25522618D01*
X328628Y-25522618D02*
X804819Y-25332142D01*
X804819Y-25332142D02*
X138152Y-25141666D01*
X804819Y-24332142D02*
X-195180Y-24332142D01*
X757200Y-24332142D02*
X804819Y-24427380D01*
X804819Y-24427380D02*
X804819Y-24617856D01*
X804819Y-24617856D02*
X757200Y-24713094D01*
X757200Y-24713094D02*
X709580Y-24760713D01*
X709580Y-24760713D02*
X614342Y-24808332D01*
X614342Y-24808332D02*
X328628Y-24808332D01*
X328628Y-24808332D02*
X233390Y-24760713D01*
X233390Y-24760713D02*
X185771Y-24713094D01*
X185771Y-24713094D02*
X138152Y-24617856D01*
X138152Y-24617856D02*
X138152Y-24427380D01*
X138152Y-24427380D02*
X185771Y-24332142D01*
X900057Y-24094047D02*
X900057Y-23332142D01*
X138152Y-22665475D02*
X804819Y-22665475D01*
X-242800Y-22903570D02*
X471485Y-23141665D01*
X471485Y-23141665D02*
X471485Y-22522618D01*
X138152Y-22141665D02*
X1138152Y-22141665D01*
X185771Y-22141665D02*
X138152Y-22046427D01*
X138152Y-22046427D02*
X138152Y-21855951D01*
X138152Y-21855951D02*
X185771Y-21760713D01*
X185771Y-21760713D02*
X233390Y-21713094D01*
X233390Y-21713094D02*
X328628Y-21665475D01*
X328628Y-21665475D02*
X614342Y-21665475D01*
X614342Y-21665475D02*
X709580Y-21713094D01*
X709580Y-21713094D02*
X757200Y-21760713D01*
X757200Y-21760713D02*
X804819Y-21855951D01*
X804819Y-21855951D02*
X804819Y-22046427D01*
X804819Y-22046427D02*
X757200Y-22141665D01*
X804819Y-21236903D02*
X138152Y-21236903D01*
X-195180Y-21236903D02*
X-147561Y-21284522D01*
X-147561Y-21284522D02*
X-99942Y-21236903D01*
X-99942Y-21236903D02*
X-147561Y-21189284D01*
X-147561Y-21189284D02*
X-195180Y-21236903D01*
X-195180Y-21236903D02*
X-99942Y-21236903D01*
X138152Y-20760713D02*
X804819Y-20760713D01*
X233390Y-20760713D02*
X185771Y-20713094D01*
X185771Y-20713094D02*
X138152Y-20617856D01*
X138152Y-20617856D02*
X138152Y-20474999D01*
X138152Y-20474999D02*
X185771Y-20379761D01*
X185771Y-20379761D02*
X281009Y-20332142D01*
X281009Y-20332142D02*
X804819Y-20332142D01*
X168473809Y-17262319D02*
X168807142Y-18262319D01*
X168807142Y-18262319D02*
X169140475Y-17262319D01*
X169949999Y-18262319D02*
X169473809Y-18262319D01*
X169473809Y-18262319D02*
X169473809Y-17262319D01*
X170759523Y-17262319D02*
X170283333Y-17262319D01*
X170283333Y-17262319D02*
X170235714Y-17738509D01*
X170235714Y-17738509D02*
X170283333Y-17690890D01*
X170283333Y-17690890D02*
X170378571Y-17643271D01*
X170378571Y-17643271D02*
X170616666Y-17643271D01*
X170616666Y-17643271D02*
X170711904Y-17690890D01*
X170711904Y-17690890D02*
X170759523Y-17738509D01*
X170759523Y-17738509D02*
X170807142Y-17833747D01*
X170807142Y-17833747D02*
X170807142Y-18071842D01*
X170807142Y-18071842D02*
X170759523Y-18167080D01*
X170759523Y-18167080D02*
X170711904Y-18214700D01*
X170711904Y-18214700D02*
X170616666Y-18262319D01*
X170616666Y-18262319D02*
X170378571Y-18262319D01*
X170378571Y-18262319D02*
X170283333Y-18214700D01*
X170283333Y-18214700D02*
X170235714Y-18167080D01*
X171140476Y-17262319D02*
X171759523Y-17262319D01*
X171759523Y-17262319D02*
X171426190Y-17643271D01*
X171426190Y-17643271D02*
X171569047Y-17643271D01*
X171569047Y-17643271D02*
X171664285Y-17690890D01*
X171664285Y-17690890D02*
X171711904Y-17738509D01*
X171711904Y-17738509D02*
X171759523Y-17833747D01*
X171759523Y-17833747D02*
X171759523Y-18071842D01*
X171759523Y-18071842D02*
X171711904Y-18167080D01*
X171711904Y-18167080D02*
X171664285Y-18214700D01*
X171664285Y-18214700D02*
X171569047Y-18262319D01*
X171569047Y-18262319D02*
X171283333Y-18262319D01*
X171283333Y-18262319D02*
X171188095Y-18214700D01*
X171188095Y-18214700D02*
X171140476Y-18167080D01*
X172664285Y-18262319D02*
X172188095Y-18262319D01*
X172188095Y-18262319D02*
X172188095Y-17262319D01*
X172902381Y-17262319D02*
X173521428Y-17262319D01*
X173521428Y-17262319D02*
X173188095Y-17643271D01*
X173188095Y-17643271D02*
X173330952Y-17643271D01*
X173330952Y-17643271D02*
X173426190Y-17690890D01*
X173426190Y-17690890D02*
X173473809Y-17738509D01*
X173473809Y-17738509D02*
X173521428Y-17833747D01*
X173521428Y-17833747D02*
X173521428Y-18071842D01*
X173521428Y-18071842D02*
X173473809Y-18167080D01*
X173473809Y-18167080D02*
X173426190Y-18214700D01*
X173426190Y-18214700D02*
X173330952Y-18262319D01*
X173330952Y-18262319D02*
X173045238Y-18262319D01*
X173045238Y-18262319D02*
X172950000Y-18214700D01*
X172950000Y-18214700D02*
X172902381Y-18167080D01*
X174521428Y-18167080D02*
X174473809Y-18214700D01*
X174473809Y-18214700D02*
X174330952Y-18262319D01*
X174330952Y-18262319D02*
X174235714Y-18262319D01*
X174235714Y-18262319D02*
X174092857Y-18214700D01*
X174092857Y-18214700D02*
X173997619Y-18119461D01*
X173997619Y-18119461D02*
X173950000Y-18024223D01*
X173950000Y-18024223D02*
X173902381Y-17833747D01*
X173902381Y-17833747D02*
X173902381Y-17690890D01*
X173902381Y-17690890D02*
X173950000Y-17500414D01*
X173950000Y-17500414D02*
X173997619Y-17405176D01*
X173997619Y-17405176D02*
X174092857Y-17309938D01*
X174092857Y-17309938D02*
X174235714Y-17262319D01*
X174235714Y-17262319D02*
X174330952Y-17262319D01*
X174330952Y-17262319D02*
X174473809Y-17309938D01*
X174473809Y-17309938D02*
X174521428Y-17357557D01*
X174854762Y-17262319D02*
X175521428Y-18262319D01*
X175521428Y-17262319D02*
X174854762Y-18262319D01*
X175759524Y-17262319D02*
X176092857Y-18262319D01*
X176092857Y-18262319D02*
X176426190Y-17262319D01*
X176950000Y-17262319D02*
X177045238Y-17262319D01*
X177045238Y-17262319D02*
X177140476Y-17309938D01*
X177140476Y-17309938D02*
X177188095Y-17357557D01*
X177188095Y-17357557D02*
X177235714Y-17452795D01*
X177235714Y-17452795D02*
X177283333Y-17643271D01*
X177283333Y-17643271D02*
X177283333Y-17881366D01*
X177283333Y-17881366D02*
X177235714Y-18071842D01*
X177235714Y-18071842D02*
X177188095Y-18167080D01*
X177188095Y-18167080D02*
X177140476Y-18214700D01*
X177140476Y-18214700D02*
X177045238Y-18262319D01*
X177045238Y-18262319D02*
X176950000Y-18262319D01*
X176950000Y-18262319D02*
X176854762Y-18214700D01*
X176854762Y-18214700D02*
X176807143Y-18167080D01*
X176807143Y-18167080D02*
X176759524Y-18071842D01*
X176759524Y-18071842D02*
X176711905Y-17881366D01*
X176711905Y-17881366D02*
X176711905Y-17643271D01*
X176711905Y-17643271D02*
X176759524Y-17452795D01*
X176759524Y-17452795D02*
X176807143Y-17357557D01*
X176807143Y-17357557D02*
X176854762Y-17309938D01*
X176854762Y-17309938D02*
X176950000Y-17262319D01*
X177711905Y-18262319D02*
X177711905Y-17262319D01*
X177711905Y-17262319D02*
X177950000Y-17262319D01*
X177950000Y-17262319D02*
X178092857Y-17309938D01*
X178092857Y-17309938D02*
X178188095Y-17405176D01*
X178188095Y-17405176D02*
X178235714Y-17500414D01*
X178235714Y-17500414D02*
X178283333Y-17690890D01*
X178283333Y-17690890D02*
X178283333Y-17833747D01*
X178283333Y-17833747D02*
X178235714Y-18024223D01*
X178235714Y-18024223D02*
X178188095Y-18119461D01*
X178188095Y-18119461D02*
X178092857Y-18214700D01*
X178092857Y-18214700D02*
X177950000Y-18262319D01*
X177950000Y-18262319D02*
X177711905Y-18262319D01*
X178711905Y-18262319D02*
X178711905Y-17262319D01*
X178711905Y-17738509D02*
X179283333Y-17738509D01*
X179283333Y-18262319D02*
X179283333Y-17262319D01*
X176954819Y-13136309D02*
X175954819Y-13136309D01*
X175954819Y-13136309D02*
X176954819Y-12564881D01*
X176954819Y-12564881D02*
X175954819Y-12564881D01*
X176954819Y-11517262D02*
X176478628Y-11850595D01*
X176954819Y-12088690D02*
X175954819Y-12088690D01*
X175954819Y-12088690D02*
X175954819Y-11707738D01*
X175954819Y-11707738D02*
X176002438Y-11612500D01*
X176002438Y-11612500D02*
X176050057Y-11564881D01*
X176050057Y-11564881D02*
X176145295Y-11517262D01*
X176145295Y-11517262D02*
X176288152Y-11517262D01*
X176288152Y-11517262D02*
X176383390Y-11564881D01*
X176383390Y-11564881D02*
X176431009Y-11612500D01*
X176431009Y-11612500D02*
X176478628Y-11707738D01*
X176478628Y-11707738D02*
X176478628Y-12088690D01*
X176431009Y-10755357D02*
X176431009Y-11088690D01*
X176954819Y-11088690D02*
X175954819Y-11088690D01*
X175954819Y-11088690D02*
X175954819Y-10612500D01*
X176050057Y-10279166D02*
X176002438Y-10231547D01*
X176002438Y-10231547D02*
X175954819Y-10136309D01*
X175954819Y-10136309D02*
X175954819Y-9898214D01*
X175954819Y-9898214D02*
X176002438Y-9802976D01*
X176002438Y-9802976D02*
X176050057Y-9755357D01*
X176050057Y-9755357D02*
X176145295Y-9707738D01*
X176145295Y-9707738D02*
X176240533Y-9707738D01*
X176240533Y-9707738D02*
X176383390Y-9755357D01*
X176383390Y-9755357D02*
X176954819Y-10326785D01*
X176954819Y-10326785D02*
X176954819Y-9707738D01*
X176288152Y-8850595D02*
X176954819Y-8850595D01*
X175907200Y-9088690D02*
X176621485Y-9326785D01*
X176621485Y-9326785D02*
X176621485Y-8707738D01*
X176954819Y-7850595D02*
X176954819Y-8326785D01*
X176954819Y-8326785D02*
X175954819Y-8326785D01*
X175954819Y-7326785D02*
X175954819Y-7231547D01*
X175954819Y-7231547D02*
X176002438Y-7136309D01*
X176002438Y-7136309D02*
X176050057Y-7088690D01*
X176050057Y-7088690D02*
X176145295Y-7041071D01*
X176145295Y-7041071D02*
X176335771Y-6993452D01*
X176335771Y-6993452D02*
X176573866Y-6993452D01*
X176573866Y-6993452D02*
X176764342Y-7041071D01*
X176764342Y-7041071D02*
X176859580Y-7088690D01*
X176859580Y-7088690D02*
X176907200Y-7136309D01*
X176907200Y-7136309D02*
X176954819Y-7231547D01*
X176954819Y-7231547D02*
X176954819Y-7326785D01*
X176954819Y-7326785D02*
X176907200Y-7422023D01*
X176907200Y-7422023D02*
X176859580Y-7469642D01*
X176859580Y-7469642D02*
X176764342Y-7517261D01*
X176764342Y-7517261D02*
X176573866Y-7564880D01*
X176573866Y-7564880D02*
X176335771Y-7564880D01*
X176335771Y-7564880D02*
X176145295Y-7517261D01*
X176145295Y-7517261D02*
X176050057Y-7469642D01*
X176050057Y-7469642D02*
X176002438Y-7422023D01*
X176002438Y-7422023D02*
X175954819Y-7326785D01*
X176954819Y-6041071D02*
X176954819Y-6612499D01*
X176954819Y-6326785D02*
X175954819Y-6326785D01*
X175954819Y-6326785D02*
X176097676Y-6422023D01*
X176097676Y-6422023D02*
X176192914Y-6517261D01*
X176192914Y-6517261D02*
X176240533Y-6612499D01*
X26849998Y-9359580D02*
X26802379Y-9407200D01*
X26802379Y-9407200D02*
X26659522Y-9454819D01*
X26659522Y-9454819D02*
X26564284Y-9454819D01*
X26564284Y-9454819D02*
X26421427Y-9407200D01*
X26421427Y-9407200D02*
X26326189Y-9311961D01*
X26326189Y-9311961D02*
X26278570Y-9216723D01*
X26278570Y-9216723D02*
X26230951Y-9026247D01*
X26230951Y-9026247D02*
X26230951Y-8883390D01*
X26230951Y-8883390D02*
X26278570Y-8692914D01*
X26278570Y-8692914D02*
X26326189Y-8597676D01*
X26326189Y-8597676D02*
X26421427Y-8502438D01*
X26421427Y-8502438D02*
X26564284Y-8454819D01*
X26564284Y-8454819D02*
X26659522Y-8454819D01*
X26659522Y-8454819D02*
X26802379Y-8502438D01*
X26802379Y-8502438D02*
X26849998Y-8550057D01*
X27421427Y-9454819D02*
X27326189Y-9407200D01*
X27326189Y-9407200D02*
X27278570Y-9359580D01*
X27278570Y-9359580D02*
X27230951Y-9264342D01*
X27230951Y-9264342D02*
X27230951Y-8978628D01*
X27230951Y-8978628D02*
X27278570Y-8883390D01*
X27278570Y-8883390D02*
X27326189Y-8835771D01*
X27326189Y-8835771D02*
X27421427Y-8788152D01*
X27421427Y-8788152D02*
X27564284Y-8788152D01*
X27564284Y-8788152D02*
X27659522Y-8835771D01*
X27659522Y-8835771D02*
X27707141Y-8883390D01*
X27707141Y-8883390D02*
X27754760Y-8978628D01*
X27754760Y-8978628D02*
X27754760Y-9264342D01*
X27754760Y-9264342D02*
X27707141Y-9359580D01*
X27707141Y-9359580D02*
X27659522Y-9407200D01*
X27659522Y-9407200D02*
X27564284Y-9454819D01*
X27564284Y-9454819D02*
X27421427Y-9454819D01*
X28183332Y-8788152D02*
X28183332Y-9454819D01*
X28183332Y-8883390D02*
X28230951Y-8835771D01*
X28230951Y-8835771D02*
X28326189Y-8788152D01*
X28326189Y-8788152D02*
X28469046Y-8788152D01*
X28469046Y-8788152D02*
X28564284Y-8835771D01*
X28564284Y-8835771D02*
X28611903Y-8931009D01*
X28611903Y-8931009D02*
X28611903Y-9454819D01*
X29088094Y-8788152D02*
X29088094Y-9454819D01*
X29088094Y-8883390D02*
X29135713Y-8835771D01*
X29135713Y-8835771D02*
X29230951Y-8788152D01*
X29230951Y-8788152D02*
X29373808Y-8788152D01*
X29373808Y-8788152D02*
X29469046Y-8835771D01*
X29469046Y-8835771D02*
X29516665Y-8931009D01*
X29516665Y-8931009D02*
X29516665Y-9454819D01*
X30326189Y-8931009D02*
X30469046Y-8978628D01*
X30469046Y-8978628D02*
X30516665Y-9026247D01*
X30516665Y-9026247D02*
X30564284Y-9121485D01*
X30564284Y-9121485D02*
X30564284Y-9264342D01*
X30564284Y-9264342D02*
X30516665Y-9359580D01*
X30516665Y-9359580D02*
X30469046Y-9407200D01*
X30469046Y-9407200D02*
X30373808Y-9454819D01*
X30373808Y-9454819D02*
X29992856Y-9454819D01*
X29992856Y-9454819D02*
X29992856Y-8454819D01*
X29992856Y-8454819D02*
X30326189Y-8454819D01*
X30326189Y-8454819D02*
X30421427Y-8502438D01*
X30421427Y-8502438D02*
X30469046Y-8550057D01*
X30469046Y-8550057D02*
X30516665Y-8645295D01*
X30516665Y-8645295D02*
X30516665Y-8740533D01*
X30516665Y-8740533D02*
X30469046Y-8835771D01*
X30469046Y-8835771D02*
X30421427Y-8883390D01*
X30421427Y-8883390D02*
X30326189Y-8931009D01*
X30326189Y-8931009D02*
X29992856Y-8931009D01*
X31421427Y-9454819D02*
X31421427Y-8931009D01*
X31421427Y-8931009D02*
X31373808Y-8835771D01*
X31373808Y-8835771D02*
X31278570Y-8788152D01*
X31278570Y-8788152D02*
X31088094Y-8788152D01*
X31088094Y-8788152D02*
X30992856Y-8835771D01*
X31421427Y-9407200D02*
X31326189Y-9454819D01*
X31326189Y-9454819D02*
X31088094Y-9454819D01*
X31088094Y-9454819D02*
X30992856Y-9407200D01*
X30992856Y-9407200D02*
X30945237Y-9311961D01*
X30945237Y-9311961D02*
X30945237Y-9216723D01*
X30945237Y-9216723D02*
X30992856Y-9121485D01*
X30992856Y-9121485D02*
X31088094Y-9073866D01*
X31088094Y-9073866D02*
X31326189Y-9073866D01*
X31326189Y-9073866D02*
X31421427Y-9026247D01*
X31754761Y-8788152D02*
X32135713Y-8788152D01*
X31897618Y-8454819D02*
X31897618Y-9311961D01*
X31897618Y-9311961D02*
X31945237Y-9407200D01*
X31945237Y-9407200D02*
X32040475Y-9454819D01*
X32040475Y-9454819D02*
X32135713Y-9454819D01*
X32326190Y-8788152D02*
X32707142Y-8788152D01*
X32469047Y-8454819D02*
X32469047Y-9311961D01*
X32469047Y-9311961D02*
X32516666Y-9407200D01*
X32516666Y-9407200D02*
X32611904Y-9454819D01*
X32611904Y-9454819D02*
X32707142Y-9454819D01*
X33421428Y-9407200D02*
X33326190Y-9454819D01*
X33326190Y-9454819D02*
X33135714Y-9454819D01*
X33135714Y-9454819D02*
X33040476Y-9407200D01*
X33040476Y-9407200D02*
X32992857Y-9311961D01*
X32992857Y-9311961D02*
X32992857Y-8931009D01*
X32992857Y-8931009D02*
X33040476Y-8835771D01*
X33040476Y-8835771D02*
X33135714Y-8788152D01*
X33135714Y-8788152D02*
X33326190Y-8788152D01*
X33326190Y-8788152D02*
X33421428Y-8835771D01*
X33421428Y-8835771D02*
X33469047Y-8931009D01*
X33469047Y-8931009D02*
X33469047Y-9026247D01*
X33469047Y-9026247D02*
X32992857Y-9121485D01*
X33897619Y-9454819D02*
X33897619Y-8788152D01*
X33897619Y-8978628D02*
X33945238Y-8883390D01*
X33945238Y-8883390D02*
X33992857Y-8835771D01*
X33992857Y-8835771D02*
X34088095Y-8788152D01*
X34088095Y-8788152D02*
X34183333Y-8788152D01*
X34421429Y-8788152D02*
X34659524Y-9454819D01*
X34897619Y-8788152D02*
X34659524Y-9454819D01*
X34659524Y-9454819D02*
X34564286Y-9692914D01*
X34564286Y-9692914D02*
X34516667Y-9740533D01*
X34516667Y-9740533D02*
X34421429Y-9788152D01*
X35040477Y-9550057D02*
X35802381Y-9550057D01*
X36326191Y-8454819D02*
X36326191Y-9169104D01*
X36326191Y-9169104D02*
X36278572Y-9311961D01*
X36278572Y-9311961D02*
X36183334Y-9407200D01*
X36183334Y-9407200D02*
X36040477Y-9454819D01*
X36040477Y-9454819D02*
X35945239Y-9454819D01*
X36754763Y-9407200D02*
X36897620Y-9454819D01*
X36897620Y-9454819D02*
X37135715Y-9454819D01*
X37135715Y-9454819D02*
X37230953Y-9407200D01*
X37230953Y-9407200D02*
X37278572Y-9359580D01*
X37278572Y-9359580D02*
X37326191Y-9264342D01*
X37326191Y-9264342D02*
X37326191Y-9169104D01*
X37326191Y-9169104D02*
X37278572Y-9073866D01*
X37278572Y-9073866D02*
X37230953Y-9026247D01*
X37230953Y-9026247D02*
X37135715Y-8978628D01*
X37135715Y-8978628D02*
X36945239Y-8931009D01*
X36945239Y-8931009D02*
X36850001Y-8883390D01*
X36850001Y-8883390D02*
X36802382Y-8835771D01*
X36802382Y-8835771D02*
X36754763Y-8740533D01*
X36754763Y-8740533D02*
X36754763Y-8645295D01*
X36754763Y-8645295D02*
X36802382Y-8550057D01*
X36802382Y-8550057D02*
X36850001Y-8502438D01*
X36850001Y-8502438D02*
X36945239Y-8454819D01*
X36945239Y-8454819D02*
X37183334Y-8454819D01*
X37183334Y-8454819D02*
X37326191Y-8502438D01*
X37611906Y-8454819D02*
X38183334Y-8454819D01*
X37897620Y-9454819D02*
X37897620Y-8454819D01*
X38278573Y-9550057D02*
X39040477Y-9550057D01*
X39230954Y-9407200D02*
X39373811Y-9454819D01*
X39373811Y-9454819D02*
X39611906Y-9454819D01*
X39611906Y-9454819D02*
X39707144Y-9407200D01*
X39707144Y-9407200D02*
X39754763Y-9359580D01*
X39754763Y-9359580D02*
X39802382Y-9264342D01*
X39802382Y-9264342D02*
X39802382Y-9169104D01*
X39802382Y-9169104D02*
X39754763Y-9073866D01*
X39754763Y-9073866D02*
X39707144Y-9026247D01*
X39707144Y-9026247D02*
X39611906Y-8978628D01*
X39611906Y-8978628D02*
X39421430Y-8931009D01*
X39421430Y-8931009D02*
X39326192Y-8883390D01*
X39326192Y-8883390D02*
X39278573Y-8835771D01*
X39278573Y-8835771D02*
X39230954Y-8740533D01*
X39230954Y-8740533D02*
X39230954Y-8645295D01*
X39230954Y-8645295D02*
X39278573Y-8550057D01*
X39278573Y-8550057D02*
X39326192Y-8502438D01*
X39326192Y-8502438D02*
X39421430Y-8454819D01*
X39421430Y-8454819D02*
X39659525Y-8454819D01*
X39659525Y-8454819D02*
X39802382Y-8502438D01*
X40183335Y-8550057D02*
X40230954Y-8502438D01*
X40230954Y-8502438D02*
X40326192Y-8454819D01*
X40326192Y-8454819D02*
X40564287Y-8454819D01*
X40564287Y-8454819D02*
X40659525Y-8502438D01*
X40659525Y-8502438D02*
X40707144Y-8550057D01*
X40707144Y-8550057D02*
X40754763Y-8645295D01*
X40754763Y-8645295D02*
X40754763Y-8740533D01*
X40754763Y-8740533D02*
X40707144Y-8883390D01*
X40707144Y-8883390D02*
X40135716Y-9454819D01*
X40135716Y-9454819D02*
X40754763Y-9454819D01*
X41516668Y-8931009D02*
X41659525Y-8978628D01*
X41659525Y-8978628D02*
X41707144Y-9026247D01*
X41707144Y-9026247D02*
X41754763Y-9121485D01*
X41754763Y-9121485D02*
X41754763Y-9264342D01*
X41754763Y-9264342D02*
X41707144Y-9359580D01*
X41707144Y-9359580D02*
X41659525Y-9407200D01*
X41659525Y-9407200D02*
X41564287Y-9454819D01*
X41564287Y-9454819D02*
X41183335Y-9454819D01*
X41183335Y-9454819D02*
X41183335Y-8454819D01*
X41183335Y-8454819D02*
X41516668Y-8454819D01*
X41516668Y-8454819D02*
X41611906Y-8502438D01*
X41611906Y-8502438D02*
X41659525Y-8550057D01*
X41659525Y-8550057D02*
X41707144Y-8645295D01*
X41707144Y-8645295D02*
X41707144Y-8740533D01*
X41707144Y-8740533D02*
X41659525Y-8835771D01*
X41659525Y-8835771D02*
X41611906Y-8883390D01*
X41611906Y-8883390D02*
X41516668Y-8931009D01*
X41516668Y-8931009D02*
X41183335Y-8931009D01*
X42183335Y-9073866D02*
X42945240Y-9073866D01*
X43421430Y-9454819D02*
X43421430Y-8454819D01*
X43421430Y-8454819D02*
X43802382Y-8454819D01*
X43802382Y-8454819D02*
X43897620Y-8502438D01*
X43897620Y-8502438D02*
X43945239Y-8550057D01*
X43945239Y-8550057D02*
X43992858Y-8645295D01*
X43992858Y-8645295D02*
X43992858Y-8788152D01*
X43992858Y-8788152D02*
X43945239Y-8883390D01*
X43945239Y-8883390D02*
X43897620Y-8931009D01*
X43897620Y-8931009D02*
X43802382Y-8978628D01*
X43802382Y-8978628D02*
X43421430Y-8978628D01*
X44421430Y-9454819D02*
X44421430Y-8454819D01*
X44421430Y-8931009D02*
X44992858Y-8931009D01*
X44992858Y-9454819D02*
X44992858Y-8454819D01*
X45469049Y-9073866D02*
X46230954Y-9073866D01*
X46707144Y-9454819D02*
X46707144Y-8454819D01*
X47278572Y-9454819D02*
X46850001Y-8883390D01*
X47278572Y-8454819D02*
X46707144Y-9026247D01*
X47707144Y-9073866D02*
X48469049Y-9073866D01*
X48897620Y-9407200D02*
X49040477Y-9454819D01*
X49040477Y-9454819D02*
X49278572Y-9454819D01*
X49278572Y-9454819D02*
X49373810Y-9407200D01*
X49373810Y-9407200D02*
X49421429Y-9359580D01*
X49421429Y-9359580D02*
X49469048Y-9264342D01*
X49469048Y-9264342D02*
X49469048Y-9169104D01*
X49469048Y-9169104D02*
X49421429Y-9073866D01*
X49421429Y-9073866D02*
X49373810Y-9026247D01*
X49373810Y-9026247D02*
X49278572Y-8978628D01*
X49278572Y-8978628D02*
X49088096Y-8931009D01*
X49088096Y-8931009D02*
X48992858Y-8883390D01*
X48992858Y-8883390D02*
X48945239Y-8835771D01*
X48945239Y-8835771D02*
X48897620Y-8740533D01*
X48897620Y-8740533D02*
X48897620Y-8645295D01*
X48897620Y-8645295D02*
X48945239Y-8550057D01*
X48945239Y-8550057D02*
X48992858Y-8502438D01*
X48992858Y-8502438D02*
X49088096Y-8454819D01*
X49088096Y-8454819D02*
X49326191Y-8454819D01*
X49326191Y-8454819D02*
X49469048Y-8502438D01*
X64257200Y-163665475D02*
X64304819Y-163570237D01*
X64304819Y-163570237D02*
X64304819Y-163379761D01*
X64304819Y-163379761D02*
X64257200Y-163284523D01*
X64257200Y-163284523D02*
X64161961Y-163236904D01*
X64161961Y-163236904D02*
X64114342Y-163236904D01*
X64114342Y-163236904D02*
X64019104Y-163284523D01*
X64019104Y-163284523D02*
X63971485Y-163379761D01*
X63971485Y-163379761D02*
X63971485Y-163522618D01*
X63971485Y-163522618D02*
X63923866Y-163617856D01*
X63923866Y-163617856D02*
X63828628Y-163665475D01*
X63828628Y-163665475D02*
X63781009Y-163665475D01*
X63781009Y-163665475D02*
X63685771Y-163617856D01*
X63685771Y-163617856D02*
X63638152Y-163522618D01*
X63638152Y-163522618D02*
X63638152Y-163379761D01*
X63638152Y-163379761D02*
X63685771Y-163284523D01*
X63638152Y-162903570D02*
X64304819Y-162713094D01*
X64304819Y-162713094D02*
X63828628Y-162522618D01*
X63828628Y-162522618D02*
X64304819Y-162332142D01*
X64304819Y-162332142D02*
X63638152Y-162141666D01*
X64304819Y-161332142D02*
X63304819Y-161332142D01*
X64257200Y-161332142D02*
X64304819Y-161427380D01*
X64304819Y-161427380D02*
X64304819Y-161617856D01*
X64304819Y-161617856D02*
X64257200Y-161713094D01*
X64257200Y-161713094D02*
X64209580Y-161760713D01*
X64209580Y-161760713D02*
X64114342Y-161808332D01*
X64114342Y-161808332D02*
X63828628Y-161808332D01*
X63828628Y-161808332D02*
X63733390Y-161760713D01*
X63733390Y-161760713D02*
X63685771Y-161713094D01*
X63685771Y-161713094D02*
X63638152Y-161617856D01*
X63638152Y-161617856D02*
X63638152Y-161427380D01*
X63638152Y-161427380D02*
X63685771Y-161332142D01*
X64400057Y-161094047D02*
X64400057Y-160332142D01*
X63638152Y-159665475D02*
X64304819Y-159665475D01*
X63257200Y-159903570D02*
X63971485Y-160141665D01*
X63971485Y-160141665D02*
X63971485Y-159522618D01*
X63638152Y-159141665D02*
X64638152Y-159141665D01*
X63685771Y-159141665D02*
X63638152Y-159046427D01*
X63638152Y-159046427D02*
X63638152Y-158855951D01*
X63638152Y-158855951D02*
X63685771Y-158760713D01*
X63685771Y-158760713D02*
X63733390Y-158713094D01*
X63733390Y-158713094D02*
X63828628Y-158665475D01*
X63828628Y-158665475D02*
X64114342Y-158665475D01*
X64114342Y-158665475D02*
X64209580Y-158713094D01*
X64209580Y-158713094D02*
X64257200Y-158760713D01*
X64257200Y-158760713D02*
X64304819Y-158855951D01*
X64304819Y-158855951D02*
X64304819Y-159046427D01*
X64304819Y-159046427D02*
X64257200Y-159141665D01*
X64304819Y-158236903D02*
X63638152Y-158236903D01*
X63304819Y-158236903D02*
X63352438Y-158284522D01*
X63352438Y-158284522D02*
X63400057Y-158236903D01*
X63400057Y-158236903D02*
X63352438Y-158189284D01*
X63352438Y-158189284D02*
X63304819Y-158236903D01*
X63304819Y-158236903D02*
X63400057Y-158236903D01*
X63638152Y-157760713D02*
X64304819Y-157760713D01*
X63733390Y-157760713D02*
X63685771Y-157713094D01*
X63685771Y-157713094D02*
X63638152Y-157617856D01*
X63638152Y-157617856D02*
X63638152Y-157474999D01*
X63638152Y-157474999D02*
X63685771Y-157379761D01*
X63685771Y-157379761D02*
X63781009Y-157332142D01*
X63781009Y-157332142D02*
X64304819Y-157332142D01*
X64257200Y-53665475D02*
X64304819Y-53570237D01*
X64304819Y-53570237D02*
X64304819Y-53379761D01*
X64304819Y-53379761D02*
X64257200Y-53284523D01*
X64257200Y-53284523D02*
X64161961Y-53236904D01*
X64161961Y-53236904D02*
X64114342Y-53236904D01*
X64114342Y-53236904D02*
X64019104Y-53284523D01*
X64019104Y-53284523D02*
X63971485Y-53379761D01*
X63971485Y-53379761D02*
X63971485Y-53522618D01*
X63971485Y-53522618D02*
X63923866Y-53617856D01*
X63923866Y-53617856D02*
X63828628Y-53665475D01*
X63828628Y-53665475D02*
X63781009Y-53665475D01*
X63781009Y-53665475D02*
X63685771Y-53617856D01*
X63685771Y-53617856D02*
X63638152Y-53522618D01*
X63638152Y-53522618D02*
X63638152Y-53379761D01*
X63638152Y-53379761D02*
X63685771Y-53284523D01*
X63638152Y-52903570D02*
X64304819Y-52713094D01*
X64304819Y-52713094D02*
X63828628Y-52522618D01*
X63828628Y-52522618D02*
X64304819Y-52332142D01*
X64304819Y-52332142D02*
X63638152Y-52141666D01*
X64304819Y-51332142D02*
X63304819Y-51332142D01*
X64257200Y-51332142D02*
X64304819Y-51427380D01*
X64304819Y-51427380D02*
X64304819Y-51617856D01*
X64304819Y-51617856D02*
X64257200Y-51713094D01*
X64257200Y-51713094D02*
X64209580Y-51760713D01*
X64209580Y-51760713D02*
X64114342Y-51808332D01*
X64114342Y-51808332D02*
X63828628Y-51808332D01*
X63828628Y-51808332D02*
X63733390Y-51760713D01*
X63733390Y-51760713D02*
X63685771Y-51713094D01*
X63685771Y-51713094D02*
X63638152Y-51617856D01*
X63638152Y-51617856D02*
X63638152Y-51427380D01*
X63638152Y-51427380D02*
X63685771Y-51332142D01*
X64400057Y-51094047D02*
X64400057Y-50332142D01*
X63638152Y-49665475D02*
X64304819Y-49665475D01*
X63257200Y-49903570D02*
X63971485Y-50141665D01*
X63971485Y-50141665D02*
X63971485Y-49522618D01*
X63638152Y-49141665D02*
X64638152Y-49141665D01*
X63685771Y-49141665D02*
X63638152Y-49046427D01*
X63638152Y-49046427D02*
X63638152Y-48855951D01*
X63638152Y-48855951D02*
X63685771Y-48760713D01*
X63685771Y-48760713D02*
X63733390Y-48713094D01*
X63733390Y-48713094D02*
X63828628Y-48665475D01*
X63828628Y-48665475D02*
X64114342Y-48665475D01*
X64114342Y-48665475D02*
X64209580Y-48713094D01*
X64209580Y-48713094D02*
X64257200Y-48760713D01*
X64257200Y-48760713D02*
X64304819Y-48855951D01*
X64304819Y-48855951D02*
X64304819Y-49046427D01*
X64304819Y-49046427D02*
X64257200Y-49141665D01*
X64304819Y-48236903D02*
X63638152Y-48236903D01*
X63304819Y-48236903D02*
X63352438Y-48284522D01*
X63352438Y-48284522D02*
X63400057Y-48236903D01*
X63400057Y-48236903D02*
X63352438Y-48189284D01*
X63352438Y-48189284D02*
X63304819Y-48236903D01*
X63304819Y-48236903D02*
X63400057Y-48236903D01*
X63638152Y-47760713D02*
X64304819Y-47760713D01*
X63733390Y-47760713D02*
X63685771Y-47713094D01*
X63685771Y-47713094D02*
X63638152Y-47617856D01*
X63638152Y-47617856D02*
X63638152Y-47474999D01*
X63638152Y-47474999D02*
X63685771Y-47379761D01*
X63685771Y-47379761D02*
X63781009Y-47332142D01*
X63781009Y-47332142D02*
X64304819Y-47332142D01*
X162257200Y-53665475D02*
X162304819Y-53570237D01*
X162304819Y-53570237D02*
X162304819Y-53379761D01*
X162304819Y-53379761D02*
X162257200Y-53284523D01*
X162257200Y-53284523D02*
X162161961Y-53236904D01*
X162161961Y-53236904D02*
X162114342Y-53236904D01*
X162114342Y-53236904D02*
X162019104Y-53284523D01*
X162019104Y-53284523D02*
X161971485Y-53379761D01*
X161971485Y-53379761D02*
X161971485Y-53522618D01*
X161971485Y-53522618D02*
X161923866Y-53617856D01*
X161923866Y-53617856D02*
X161828628Y-53665475D01*
X161828628Y-53665475D02*
X161781009Y-53665475D01*
X161781009Y-53665475D02*
X161685771Y-53617856D01*
X161685771Y-53617856D02*
X161638152Y-53522618D01*
X161638152Y-53522618D02*
X161638152Y-53379761D01*
X161638152Y-53379761D02*
X161685771Y-53284523D01*
X161638152Y-52903570D02*
X162304819Y-52713094D01*
X162304819Y-52713094D02*
X161828628Y-52522618D01*
X161828628Y-52522618D02*
X162304819Y-52332142D01*
X162304819Y-52332142D02*
X161638152Y-52141666D01*
X162304819Y-51332142D02*
X161304819Y-51332142D01*
X162257200Y-51332142D02*
X162304819Y-51427380D01*
X162304819Y-51427380D02*
X162304819Y-51617856D01*
X162304819Y-51617856D02*
X162257200Y-51713094D01*
X162257200Y-51713094D02*
X162209580Y-51760713D01*
X162209580Y-51760713D02*
X162114342Y-51808332D01*
X162114342Y-51808332D02*
X161828628Y-51808332D01*
X161828628Y-51808332D02*
X161733390Y-51760713D01*
X161733390Y-51760713D02*
X161685771Y-51713094D01*
X161685771Y-51713094D02*
X161638152Y-51617856D01*
X161638152Y-51617856D02*
X161638152Y-51427380D01*
X161638152Y-51427380D02*
X161685771Y-51332142D01*
X162400057Y-51094047D02*
X162400057Y-50332142D01*
X161638152Y-49665475D02*
X162304819Y-49665475D01*
X161257200Y-49903570D02*
X161971485Y-50141665D01*
X161971485Y-50141665D02*
X161971485Y-49522618D01*
X161638152Y-49141665D02*
X162638152Y-49141665D01*
X161685771Y-49141665D02*
X161638152Y-49046427D01*
X161638152Y-49046427D02*
X161638152Y-48855951D01*
X161638152Y-48855951D02*
X161685771Y-48760713D01*
X161685771Y-48760713D02*
X161733390Y-48713094D01*
X161733390Y-48713094D02*
X161828628Y-48665475D01*
X161828628Y-48665475D02*
X162114342Y-48665475D01*
X162114342Y-48665475D02*
X162209580Y-48713094D01*
X162209580Y-48713094D02*
X162257200Y-48760713D01*
X162257200Y-48760713D02*
X162304819Y-48855951D01*
X162304819Y-48855951D02*
X162304819Y-49046427D01*
X162304819Y-49046427D02*
X162257200Y-49141665D01*
X162304819Y-48236903D02*
X161638152Y-48236903D01*
X161304819Y-48236903D02*
X161352438Y-48284522D01*
X161352438Y-48284522D02*
X161400057Y-48236903D01*
X161400057Y-48236903D02*
X161352438Y-48189284D01*
X161352438Y-48189284D02*
X161304819Y-48236903D01*
X161304819Y-48236903D02*
X161400057Y-48236903D01*
X161638152Y-47760713D02*
X162304819Y-47760713D01*
X161733390Y-47760713D02*
X161685771Y-47713094D01*
X161685771Y-47713094D02*
X161638152Y-47617856D01*
X161638152Y-47617856D02*
X161638152Y-47474999D01*
X161638152Y-47474999D02*
X161685771Y-47379761D01*
X161685771Y-47379761D02*
X161781009Y-47332142D01*
X161781009Y-47332142D02*
X162304819Y-47332142D01*
D11*
X177615000Y-1275000D03*
D12*
X129500000Y-103500000D03*
X167350000Y-23600000D03*
X169350000Y-23600000D03*
X171350000Y-23600000D03*
X173350000Y-23600000D03*
X33000000Y-35350000D03*
X33000000Y-32810000D03*
X33000000Y-30270000D03*
X115000000Y-22500000D03*
X37500000Y-35325000D03*
X37500000Y-32785000D03*
X37500000Y-30245000D03*
X51500000Y-29550000D03*
D11*
X91700000Y-37575000D03*
X90200000Y-37575000D03*
X88700000Y-37575000D03*
X91700000Y-39075000D03*
X90200000Y-39075000D03*
X88700000Y-39075000D03*
D12*
X149500000Y-2550000D03*
X5850000Y-160600000D03*
X7850000Y-160600000D03*
X9850000Y-160600000D03*
X11850000Y-160600000D03*
X115000000Y-49500000D03*
X2500000Y-29500000D03*
X69350000Y-77600000D03*
X71350000Y-77600000D03*
X73350000Y-77600000D03*
X75350000Y-77600000D03*
X66000000Y-49500000D03*
X22000000Y-72825000D03*
X32000000Y-72825000D03*
X27000000Y-70800000D03*
X27000000Y-62200000D03*
X22000000Y-60175000D03*
X32000000Y-60075000D03*
X24500000Y-57770000D03*
X27000000Y-57770000D03*
X29500000Y-57770000D03*
X18270000Y-64000000D03*
X18270000Y-66500000D03*
X18270000Y-69000000D03*
X32750000Y-69750000D03*
X37250000Y-69750000D03*
X32750000Y-63250000D03*
X37250000Y-63250000D03*
X115000000Y-103500000D03*
X132850000Y-50600000D03*
X134850000Y-50600000D03*
X136850000Y-50600000D03*
X138850000Y-50600000D03*
X167905000Y-85700000D03*
X173685000Y-85700000D03*
D13*
X166475000Y-86230000D03*
X175115000Y-86230000D03*
D14*
X166475000Y-82050000D03*
X175115000Y-82050000D03*
D12*
X5850000Y-77600000D03*
X7850000Y-77600000D03*
X9850000Y-77600000D03*
X11850000Y-77600000D03*
X184000000Y-56550000D03*
X132850000Y-23600000D03*
X134850000Y-23600000D03*
X136850000Y-23600000D03*
X138850000Y-23600000D03*
X2500000Y-103500000D03*
X15000000Y-35350000D03*
X15000000Y-32810000D03*
X15000000Y-30270000D03*
X51500000Y-49500000D03*
X129500000Y-76500000D03*
X115000000Y-159500000D03*
X115000000Y-76500000D03*
X2500000Y-76500000D03*
X115000000Y-56550000D03*
X149500000Y-29550000D03*
X2500000Y-159500000D03*
D15*
X47250000Y-2400000D03*
X38950000Y-2400000D03*
D16*
X45100000Y-2400000D03*
X43100000Y-2400000D03*
X41100000Y-2400000D03*
D12*
X164000000Y-103500000D03*
X66000000Y-159500000D03*
X2500000Y-56500000D03*
X115000000Y-29550000D03*
X32850000Y-16450000D03*
X30850000Y-16450000D03*
D14*
X10930000Y-1500000D03*
X10930000Y-5300000D03*
X19570000Y-1500000D03*
X19570000Y-5300000D03*
D12*
X69350000Y-104600000D03*
X71350000Y-104600000D03*
X73350000Y-104600000D03*
X75350000Y-104600000D03*
X132860000Y-104600000D03*
X134860000Y-104600000D03*
X136860000Y-104600000D03*
X138860000Y-104600000D03*
X77000000Y-4490000D03*
X77000000Y-1950000D03*
X79540000Y-4490000D03*
X79540000Y-1950000D03*
X82080000Y-4490000D03*
X82080000Y-1950000D03*
X84620000Y-4490000D03*
X84620000Y-1950000D03*
X87160000Y-4490000D03*
X87160000Y-1950000D03*
X89700000Y-4490000D03*
X89700000Y-1950000D03*
X92240000Y-4490000D03*
X92240000Y-1950000D03*
X94780000Y-4490000D03*
X94780000Y-1950000D03*
X97320000Y-4490000D03*
X97320000Y-1950000D03*
X99860000Y-4490000D03*
X99860000Y-1950000D03*
X102400000Y-4490000D03*
X102400000Y-1950000D03*
X28500000Y-35350000D03*
X28500000Y-32810000D03*
X28500000Y-30270000D03*
X5850000Y-23600000D03*
X7850000Y-23600000D03*
X9850000Y-23600000D03*
X11850000Y-23600000D03*
X164000000Y-76500000D03*
X132860000Y-77600000D03*
X134860000Y-77600000D03*
X136860000Y-77600000D03*
X138860000Y-77600000D03*
X2500000Y-83500000D03*
X51500000Y-83550000D03*
X66000000Y-83500000D03*
X164000000Y-49500000D03*
X66000000Y-29500000D03*
X184000000Y-29550000D03*
X77000000Y-10690000D03*
X77000000Y-8150000D03*
X79540000Y-10690000D03*
X79540000Y-8150000D03*
X82080000Y-10690000D03*
X82080000Y-8150000D03*
X84620000Y-10690000D03*
X84620000Y-8150000D03*
X87160000Y-10690000D03*
X87160000Y-8150000D03*
X89700000Y-10690000D03*
X89700000Y-8150000D03*
X92240000Y-10690000D03*
X92240000Y-8150000D03*
X94780000Y-10690000D03*
X94780000Y-8150000D03*
X97320000Y-10690000D03*
X97320000Y-8150000D03*
X99860000Y-10690000D03*
X99860000Y-8150000D03*
X102400000Y-10690000D03*
X102400000Y-8150000D03*
X149500000Y-83550000D03*
X51500000Y-76500000D03*
X51500000Y-56550000D03*
X69350000Y-23600000D03*
X71350000Y-23600000D03*
X73350000Y-23600000D03*
X75350000Y-23600000D03*
X51500000Y-103500000D03*
X2500000Y-49500000D03*
X10500000Y-35350000D03*
X10500000Y-32810000D03*
X10500000Y-30270000D03*
X129500000Y-22500000D03*
X51500000Y-2550000D03*
X115000000Y-83550000D03*
D17*
X90500000Y-72125000D03*
X90500000Y-60875000D03*
D12*
X86350000Y-72125000D03*
X86350000Y-60875000D03*
X94650000Y-72125000D03*
X93950000Y-60550000D03*
X83650000Y-66500000D03*
X115000000Y-110550000D03*
X39850000Y-16450000D03*
X37850000Y-16450000D03*
X66000000Y-110500000D03*
X66000000Y-2500000D03*
X5850000Y-50600000D03*
X7850000Y-50600000D03*
X9850000Y-50600000D03*
X11850000Y-50600000D03*
X51500000Y-159500000D03*
X164000000Y-22500000D03*
X167350000Y-77600000D03*
X169350000Y-77600000D03*
X171350000Y-77600000D03*
X173350000Y-77600000D03*
X66000000Y-22500000D03*
X129500000Y-49500000D03*
X51500000Y-110550000D03*
X69350000Y-160600000D03*
X71350000Y-160600000D03*
X73350000Y-160600000D03*
X75350000Y-160600000D03*
X66000000Y-56500000D03*
X69350000Y-50600000D03*
X71350000Y-50600000D03*
X73350000Y-50600000D03*
X75350000Y-50600000D03*
X170315000Y-57870000D03*
X174125000Y-57870000D03*
X177935000Y-57870000D03*
X184000000Y-83550000D03*
X115000000Y-2550000D03*
X5850000Y-104600000D03*
X7850000Y-104600000D03*
X9850000Y-104600000D03*
X11850000Y-104600000D03*
X66000000Y-76500000D03*
X149500000Y-56550000D03*
X167350000Y-50600000D03*
X169350000Y-50600000D03*
X171350000Y-50600000D03*
X173350000Y-50600000D03*
X2500000Y-22500000D03*
X2500000Y-110500000D03*
X19500000Y-35350000D03*
X19500000Y-32810000D03*
X19500000Y-30270000D03*
X66000000Y-103500000D03*
X184000000Y-2500000D03*
X42000000Y-35305000D03*
X42000000Y-32765000D03*
X42000000Y-30225000D03*
X133405000Y-4700000D03*
X139185000Y-4700000D03*
D13*
X131975000Y-5230000D03*
X140615000Y-5230000D03*
D14*
X131975000Y-1050000D03*
X140615000Y-1050000D03*
D12*
X24000000Y-35350000D03*
X24000000Y-32810000D03*
X24000000Y-30270000D03*
M02*
