%TF.GenerationSoftware,KiCad,Pcbnew,8.0.8*%
%TF.CreationDate,2025-07-25T14:28:59+01:00*%
%TF.ProjectId,LightSound,4c696768-7453-46f7-956e-642e6b696361,rev?*%
%TF.SameCoordinates,Original*%
%TF.FileFunction,Copper,L2,Bot*%
%TF.FilePolarity,Positive*%
%FSLAX46Y46*%
G04 Gerber Fmt 4.6, Leading zero omitted, Abs format (unit mm)*
G04 Created by KiCad (PCBNEW 8.0.8) date 2025-07-25 14:28:59*
%MOMM*%
%LPD*%
G01*
G04 APERTURE LIST*
%TA.AperFunction,ComponentPad*%
%ADD10R,1.350000X1.350000*%
%TD*%
%TA.AperFunction,ComponentPad*%
%ADD11O,1.350000X1.350000*%
%TD*%
%TA.AperFunction,SMDPad,CuDef*%
%ADD12R,2.500000X1.000000*%
%TD*%
%TA.AperFunction,SMDPad,CuDef*%
%ADD13R,2.000000X1.000000*%
%TD*%
%TA.AperFunction,ViaPad*%
%ADD14C,0.600000*%
%TD*%
%TA.AperFunction,Conductor*%
%ADD15C,0.200000*%
%TD*%
%ADD16C,0.300000*%
%ADD17C,0.350000*%
G04 APERTURE END LIST*
D10*
%TO.P,J4,1,Pin_1*%
%TO.N,5V*%
X5860000Y-23600000D03*
D11*
%TO.P,J4,2,Pin_2*%
%TO.N,GND*%
X7860000Y-23600000D03*
%TO.P,J4,3,Pin_3*%
%TO.N,SWDIO*%
X9860000Y-23600000D03*
%TO.P,J4,4,Pin_4*%
%TO.N,SWDCLK*%
X11860000Y-23600000D03*
%TD*%
D12*
%TO.P,J1,1,Pin_1*%
%TO.N,5V*%
X8025000Y-6150000D03*
%TO.P,J1,2,Pin_2*%
%TO.N,GND*%
X8025000Y-8690000D03*
%TO.P,J1,3,Pin_3*%
%TO.N,PS*%
X8025000Y-11230000D03*
%TO.P,J1,4,Pin_4*%
%TO.N,SCLK*%
X8025000Y-13770000D03*
%TO.P,J1,5,Pin_5*%
%TO.N,MISO*%
X8025000Y-16310000D03*
%TO.P,J1,6,Pin_6*%
%TO.N,MOSI*%
X8025000Y-18850000D03*
%TD*%
D13*
%TO.P,J2,1,Pin_1*%
%TO.N,MOSI*%
X18575000Y-18850000D03*
%TO.P,J2,2,Pin_2*%
%TO.N,MISO*%
X18575000Y-16310000D03*
%TO.P,J2,3,Pin_3*%
%TO.N,SCLK*%
X18575000Y-13770000D03*
%TO.P,J2,4,Pin_4*%
%TO.N,PS*%
X18575000Y-11230000D03*
%TO.P,J2,5,Pin_5*%
%TO.N,GND*%
X18575000Y-8690000D03*
%TO.P,J2,6,Pin_6*%
%TO.N,5V*%
X18575000Y-6150000D03*
%TD*%
D14*
%TO.N,VDD*%
X15241335Y-4417849D03*
X4000000Y-1680000D03*
X17279657Y-4729657D03*
X4000000Y-5500000D03*
%TO.N,GND*%
X5733685Y-17211027D03*
X16925000Y-5650000D03*
X16375000Y-9375000D03*
X21150000Y-11975000D03*
X7000000Y-20125000D03*
X11950000Y-4800000D03*
X4200000Y-20000000D03*
X19600000Y-7375000D03*
X20700000Y-13300000D03*
X15550000Y-12925000D03*
X3325000Y-9400000D03*
X14047892Y-8637892D03*
X21000000Y-8800000D03*
X10750000Y-9950000D03*
X15200000Y-3500000D03*
X12325000Y-19950000D03*
X11750000Y-17475000D03*
X9425000Y-12350000D03*
X1600000Y-2150000D03*
X6100000Y-4000000D03*
X2800000Y-13100000D03*
X4860000Y-620000D03*
X11280000Y-2900000D03*
X23800000Y-23400000D03*
X16975000Y-7325000D03*
X19150000Y-20025000D03*
X5010000Y-5490000D03*
X8660000Y-7440000D03*
X19730000Y-680000D03*
X19200000Y-17525000D03*
X11675000Y-14925000D03*
X10000000Y-8690000D03*
X3400000Y-15975000D03*
X4850000Y-7700000D03*
X14825000Y-22300000D03*
X10825000Y-12275000D03*
%TO.N,5V*%
X17925000Y-7100000D03*
X7900000Y-7075000D03*
%TO.N,MOSI*%
X21950000Y-11650000D03*
X6150000Y-18825000D03*
%TO.N,MISO*%
X21100000Y-14200000D03*
X7425000Y-15125000D03*
%TO.N,SCLK*%
X17700000Y-12725000D03*
X9750000Y-13770000D03*
%TO.N,PS*%
X16575000Y-11230000D03*
X8000000Y-10175000D03*
%TO.N,SDA*%
X14450000Y-7700000D03*
X15725000Y-7900000D03*
%TO.N,Interrupt5V*%
X17325000Y-10125000D03*
X4250000Y-14275000D03*
%TD*%
D15*
%TO.N,VDD*%
X15273486Y-4450000D02*
X17000000Y-4450000D01*
X17000000Y-4450000D02*
X17279657Y-4729657D01*
X15241335Y-4417849D02*
X15273486Y-4450000D01*
X4000000Y-5500000D02*
X4000000Y-1680000D01*
%TO.N,GND*%
X18575000Y-8690000D02*
X10000000Y-8690000D01*
X10000000Y-8690000D02*
X8025000Y-8690000D01*
%TO.N,5V*%
X7900000Y-7075000D02*
X7900000Y-6275000D01*
X11350000Y-3850000D02*
X12600000Y-3850000D01*
X17925000Y-6800000D02*
X18575000Y-6150000D01*
X18475000Y-6250000D02*
X18575000Y-6150000D01*
X7900000Y-6275000D02*
X8025000Y-6150000D01*
X8025000Y-6150000D02*
X10275000Y-3900000D01*
X15000000Y-6250000D02*
X18475000Y-6250000D01*
X12600000Y-3850000D02*
X15000000Y-6250000D01*
X10275000Y-3900000D02*
X11300000Y-3900000D01*
X11300000Y-3900000D02*
X11350000Y-3850000D01*
X17925000Y-7100000D02*
X17925000Y-6800000D01*
%TO.N,MOSI*%
X22425000Y-12125000D02*
X21950000Y-11650000D01*
X18575000Y-18850000D02*
X8025000Y-18850000D01*
X18575000Y-18850000D02*
X19700000Y-18850000D01*
X19700000Y-18850000D02*
X22100000Y-16450000D01*
X22425000Y-16125000D02*
X22425000Y-12775000D01*
X8000000Y-18825000D02*
X8025000Y-18850000D01*
X6150000Y-18825000D02*
X8000000Y-18825000D01*
X22425000Y-12775000D02*
X22425000Y-12125000D01*
X22100000Y-16450000D02*
X22425000Y-16125000D01*
%TO.N,MISO*%
X7425000Y-15125000D02*
X7425000Y-15710000D01*
X19915000Y-16310000D02*
X18575000Y-16310000D01*
X7425000Y-15710000D02*
X8025000Y-16310000D01*
X8025000Y-16310000D02*
X18575000Y-16310000D01*
X21100000Y-15125000D02*
X19915000Y-16310000D01*
X21100000Y-14200000D02*
X21100000Y-15125000D01*
%TO.N,SCLK*%
X17700000Y-12895000D02*
X18575000Y-13770000D01*
X18575000Y-13770000D02*
X9750000Y-13770000D01*
X17700000Y-12725000D02*
X17700000Y-12895000D01*
X9750000Y-13770000D02*
X8025000Y-13770000D01*
%TO.N,PS*%
X16575000Y-11230000D02*
X18575000Y-11230000D01*
X8000000Y-11205000D02*
X8025000Y-11230000D01*
X8025000Y-11230000D02*
X16575000Y-11230000D01*
X8000000Y-10175000D02*
X8000000Y-11205000D01*
%TO.N,SDA*%
X15525000Y-7700000D02*
X15725000Y-7900000D01*
X14450000Y-7700000D02*
X15525000Y-7700000D01*
%TO.N,Interrupt5V*%
X4325000Y-11900000D02*
X4325000Y-14200000D01*
X4325000Y-14200000D02*
X4250000Y-14275000D01*
X6650000Y-9575000D02*
X4325000Y-11900000D01*
X8850000Y-9575000D02*
X6650000Y-9575000D01*
X14723529Y-10800000D02*
X10075000Y-10800000D01*
X15398529Y-10125000D02*
X14723529Y-10800000D01*
X10075000Y-10800000D02*
X8850000Y-9575000D01*
X17325000Y-10125000D02*
X15398529Y-10125000D01*
%TD*%
%TA.AperFunction,Conductor*%
%TO.N,GND*%
G36*
X22502992Y-100681D02*
G01*
X22783256Y-117633D01*
X22795111Y-119073D01*
X22958223Y-148964D01*
X22983638Y-153622D01*
X23037468Y-182709D01*
X23063920Y-237880D01*
X23052891Y-298064D01*
X23008593Y-340270D01*
X22965793Y-350000D01*
X21999997Y-350000D01*
X21299998Y-650000D01*
X20799999Y-1050000D01*
X20600005Y-1349990D01*
X20599998Y-1350002D01*
X20400001Y-1749996D01*
X20300000Y-2050000D01*
X20300000Y-3050002D01*
X20599997Y-3749995D01*
X20600000Y-3750000D01*
X20999297Y-4229157D01*
X21100000Y-4350000D01*
X21900000Y-4750000D01*
X22899998Y-4750000D01*
X22900000Y-4750000D01*
X23500000Y-4650000D01*
X24100000Y-4150000D01*
X24500000Y-3650000D01*
X24700000Y-2950000D01*
X24700000Y-2478186D01*
X24718907Y-2419995D01*
X24768407Y-2384031D01*
X24829593Y-2384031D01*
X24879093Y-2419995D01*
X24897819Y-2472209D01*
X24899319Y-2497007D01*
X24899500Y-2502984D01*
X24899500Y-5019991D01*
X24914798Y-5056926D01*
X24914799Y-5056927D01*
X24914800Y-5056929D01*
X24943071Y-5085200D01*
X24943072Y-5085200D01*
X24943073Y-5085201D01*
X24980008Y-5100500D01*
X24980009Y-5100500D01*
X25800500Y-5100500D01*
X25858691Y-5119407D01*
X25894655Y-5168907D01*
X25899500Y-5199500D01*
X25899500Y-19800500D01*
X25880593Y-19858691D01*
X25831093Y-19894655D01*
X25800500Y-19899500D01*
X24980008Y-19899500D01*
X24943073Y-19914798D01*
X24914798Y-19943073D01*
X24899500Y-19980008D01*
X24899500Y-22497015D01*
X24899319Y-22502993D01*
X24882366Y-22783251D01*
X24880925Y-22795118D01*
X24830854Y-23068346D01*
X24827993Y-23079954D01*
X24745353Y-23345154D01*
X24741114Y-23356332D01*
X24627107Y-23609646D01*
X24621551Y-23620231D01*
X24477849Y-23857944D01*
X24471058Y-23867783D01*
X24299749Y-24086443D01*
X24291822Y-24095392D01*
X24095392Y-24291822D01*
X24086443Y-24299749D01*
X23867783Y-24471058D01*
X23857944Y-24477849D01*
X23620231Y-24621551D01*
X23609646Y-24627107D01*
X23356332Y-24741114D01*
X23345154Y-24745353D01*
X23079954Y-24827993D01*
X23068346Y-24830854D01*
X22795118Y-24880925D01*
X22783251Y-24882366D01*
X22527790Y-24897819D01*
X22502991Y-24899319D01*
X22497015Y-24899500D01*
X8287877Y-24899500D01*
X8229686Y-24880593D01*
X8193722Y-24831093D01*
X8193722Y-24769907D01*
X8229686Y-24720407D01*
X8252114Y-24708185D01*
X8385986Y-24656322D01*
X8385991Y-24656319D01*
X8571126Y-24541688D01*
X8571129Y-24541686D01*
X8732052Y-24394987D01*
X8863283Y-24221209D01*
X8863288Y-24221200D01*
X8940605Y-24065927D01*
X8983467Y-24022265D01*
X9043808Y-24012135D01*
X9098579Y-24039407D01*
X9114962Y-24060555D01*
X9147805Y-24117440D01*
X9241239Y-24221209D01*
X9264463Y-24247003D01*
X9270950Y-24254207D01*
X9419839Y-24362381D01*
X9419843Y-24362383D01*
X9419845Y-24362384D01*
X9475485Y-24387156D01*
X9587966Y-24437236D01*
X9767981Y-24475500D01*
X9767983Y-24475500D01*
X9952017Y-24475500D01*
X9952019Y-24475500D01*
X10132034Y-24437236D01*
X10300161Y-24362381D01*
X10449050Y-24254207D01*
X10572195Y-24117440D01*
X10664214Y-23958059D01*
X10721085Y-23783029D01*
X10740322Y-23600000D01*
X10979678Y-23600000D01*
X10996483Y-23759893D01*
X10998916Y-23783034D01*
X11055784Y-23958054D01*
X11055790Y-23958068D01*
X11092855Y-24022265D01*
X11147805Y-24117440D01*
X11241239Y-24221209D01*
X11264463Y-24247003D01*
X11270950Y-24254207D01*
X11419839Y-24362381D01*
X11419843Y-24362383D01*
X11419845Y-24362384D01*
X11475485Y-24387156D01*
X11587966Y-24437236D01*
X11767981Y-24475500D01*
X11767983Y-24475500D01*
X11952017Y-24475500D01*
X11952019Y-24475500D01*
X12132034Y-24437236D01*
X12300161Y-24362381D01*
X12449050Y-24254207D01*
X12572195Y-24117440D01*
X12664214Y-23958059D01*
X12721085Y-23783029D01*
X12740322Y-23600000D01*
X12721085Y-23416971D01*
X12664214Y-23241941D01*
X12664211Y-23241936D01*
X12664209Y-23241931D01*
X12614704Y-23156187D01*
X12572195Y-23082560D01*
X12449050Y-22945793D01*
X12300161Y-22837619D01*
X12300157Y-22837617D01*
X12300154Y-22837615D01*
X12132036Y-22762765D01*
X12132034Y-22762764D01*
X12132031Y-22762763D01*
X12132030Y-22762763D01*
X12085135Y-22752795D01*
X11952019Y-22724500D01*
X11767981Y-22724500D01*
X11670797Y-22745157D01*
X11587969Y-22762763D01*
X11587963Y-22762765D01*
X11419845Y-22837615D01*
X11419842Y-22837617D01*
X11419839Y-22837618D01*
X11419839Y-22837619D01*
X11407245Y-22846769D01*
X11270948Y-22945794D01*
X11147803Y-23082562D01*
X11147803Y-23082563D01*
X11055790Y-23241931D01*
X11055784Y-23241945D01*
X10998916Y-23416965D01*
X10998915Y-23416969D01*
X10998915Y-23416971D01*
X10979678Y-23600000D01*
X10740322Y-23600000D01*
X10721085Y-23416971D01*
X10664214Y-23241941D01*
X10664211Y-23241936D01*
X10664209Y-23241931D01*
X10614704Y-23156187D01*
X10572195Y-23082560D01*
X10449050Y-22945793D01*
X10300161Y-22837619D01*
X10300157Y-22837617D01*
X10300154Y-22837615D01*
X10132036Y-22762765D01*
X10132034Y-22762764D01*
X10132031Y-22762763D01*
X10132030Y-22762763D01*
X10085135Y-22752795D01*
X9952019Y-22724500D01*
X9767981Y-22724500D01*
X9670797Y-22745157D01*
X9587969Y-22762763D01*
X9587963Y-22762765D01*
X9419845Y-22837615D01*
X9419842Y-22837617D01*
X9419839Y-22837618D01*
X9419839Y-22837619D01*
X9407245Y-22846769D01*
X9270948Y-22945794D01*
X9147804Y-23082561D01*
X9114962Y-23139445D01*
X9069492Y-23180385D01*
X9008642Y-23186780D01*
X8955654Y-23156187D01*
X8940605Y-23134072D01*
X8863288Y-22978799D01*
X8863283Y-22978790D01*
X8732052Y-22805012D01*
X8571129Y-22658313D01*
X8571126Y-22658311D01*
X8385991Y-22543680D01*
X8385986Y-22543677D01*
X8182932Y-22465013D01*
X8182926Y-22465011D01*
X8110000Y-22451379D01*
X8110000Y-23319670D01*
X8090255Y-23299925D01*
X8004745Y-23250556D01*
X7909370Y-23225000D01*
X7810630Y-23225000D01*
X7715255Y-23250556D01*
X7629745Y-23299925D01*
X7610000Y-23319670D01*
X7610000Y-22451379D01*
X7609999Y-22451379D01*
X7537073Y-22465011D01*
X7537067Y-22465013D01*
X7334013Y-22543677D01*
X7334008Y-22543680D01*
X7148873Y-22658311D01*
X7148870Y-22658313D01*
X6987944Y-22805015D01*
X6905383Y-22914343D01*
X6855227Y-22949386D01*
X6794052Y-22948255D01*
X6745225Y-22911382D01*
X6729283Y-22873999D01*
X6723867Y-22846769D01*
X6679552Y-22780448D01*
X6653088Y-22762765D01*
X6613233Y-22736134D01*
X6613231Y-22736133D01*
X6613228Y-22736132D01*
X6613227Y-22736132D01*
X6554758Y-22724501D01*
X6554748Y-22724500D01*
X5165252Y-22724500D01*
X5165251Y-22724500D01*
X5165241Y-22724501D01*
X5106772Y-22736132D01*
X5106766Y-22736134D01*
X5040451Y-22780445D01*
X5040445Y-22780451D01*
X4996134Y-22846766D01*
X4996132Y-22846772D01*
X4984501Y-22905241D01*
X4984500Y-22905253D01*
X4984500Y-24294746D01*
X4984501Y-24294758D01*
X4996132Y-24353227D01*
X4996134Y-24353233D01*
X5002249Y-24362384D01*
X5040448Y-24419552D01*
X5106769Y-24463867D01*
X5142921Y-24471058D01*
X5165241Y-24475498D01*
X5165246Y-24475498D01*
X5165252Y-24475500D01*
X5165253Y-24475500D01*
X6554747Y-24475500D01*
X6554748Y-24475500D01*
X6613231Y-24463867D01*
X6679552Y-24419552D01*
X6723867Y-24353231D01*
X6729283Y-24326001D01*
X6759178Y-24272619D01*
X6814743Y-24247003D01*
X6874753Y-24258940D01*
X6905384Y-24285656D01*
X6987947Y-24394987D01*
X7148870Y-24541686D01*
X7148873Y-24541688D01*
X7334008Y-24656319D01*
X7334013Y-24656322D01*
X7467886Y-24708185D01*
X7515317Y-24746837D01*
X7530971Y-24805986D01*
X7508868Y-24863040D01*
X7457451Y-24896205D01*
X7432123Y-24899500D01*
X2502985Y-24899500D01*
X2497008Y-24899319D01*
X2472210Y-24897819D01*
X2415267Y-24875433D01*
X2382357Y-24823852D01*
X2386051Y-24762778D01*
X2424938Y-24715540D01*
X2478187Y-24700000D01*
X2899998Y-24700000D01*
X2900000Y-24700000D01*
X3500000Y-24600000D01*
X4100000Y-24100000D01*
X4500000Y-23600000D01*
X4700000Y-22900000D01*
X4700000Y-21900000D01*
X4500000Y-21400000D01*
X4100000Y-20900000D01*
X3600000Y-20500000D01*
X3000000Y-20300000D01*
X2000000Y-20300000D01*
X1999997Y-20300000D01*
X1299998Y-20600000D01*
X799999Y-21000000D01*
X600005Y-21299990D01*
X599998Y-21300002D01*
X400001Y-21699996D01*
X300000Y-22000000D01*
X300000Y-22521813D01*
X281093Y-22580004D01*
X231593Y-22615968D01*
X170407Y-22615968D01*
X120907Y-22580004D01*
X102181Y-22527790D01*
X100681Y-22502992D01*
X100500Y-22497015D01*
X100500Y-19980008D01*
X85201Y-19943073D01*
X85200Y-19943072D01*
X85200Y-19943071D01*
X56929Y-19914800D01*
X56927Y-19914799D01*
X56926Y-19914798D01*
X19992Y-19899500D01*
X19991Y-19899500D01*
X-800500Y-19899500D01*
X-858691Y-19880593D01*
X-894655Y-19831093D01*
X-899500Y-19800500D01*
X-899500Y-18824997D01*
X5644353Y-18824997D01*
X5644353Y-18825002D01*
X5664834Y-18967456D01*
X5695458Y-19034511D01*
X5724623Y-19098373D01*
X5786174Y-19169407D01*
X5818873Y-19207144D01*
X5888361Y-19251801D01*
X5939947Y-19284953D01*
X6046403Y-19316211D01*
X6078035Y-19325499D01*
X6078036Y-19325499D01*
X6078039Y-19325500D01*
X6078041Y-19325500D01*
X6221959Y-19325500D01*
X6221961Y-19325500D01*
X6360053Y-19284953D01*
X6421977Y-19245156D01*
X6481152Y-19229602D01*
X6538168Y-19251801D01*
X6571247Y-19303273D01*
X6574500Y-19328441D01*
X6574500Y-19369746D01*
X6574501Y-19369758D01*
X6586132Y-19428227D01*
X6586133Y-19428231D01*
X6630448Y-19494552D01*
X6696769Y-19538867D01*
X6741231Y-19547711D01*
X6755241Y-19550498D01*
X6755246Y-19550498D01*
X6755252Y-19550500D01*
X6755253Y-19550500D01*
X9294747Y-19550500D01*
X9294748Y-19550500D01*
X9353231Y-19538867D01*
X9419552Y-19494552D01*
X9463867Y-19428231D01*
X9475500Y-19369748D01*
X9475500Y-19249500D01*
X9494407Y-19191309D01*
X9543907Y-19155345D01*
X9574500Y-19150500D01*
X17275500Y-19150500D01*
X17333691Y-19169407D01*
X17369655Y-19218907D01*
X17374500Y-19249500D01*
X17374500Y-19369746D01*
X17374501Y-19369758D01*
X17386132Y-19428227D01*
X17386133Y-19428231D01*
X17430448Y-19494552D01*
X17496769Y-19538867D01*
X17541231Y-19547711D01*
X17555241Y-19550498D01*
X17555246Y-19550498D01*
X17555252Y-19550500D01*
X17555253Y-19550500D01*
X19594747Y-19550500D01*
X19594748Y-19550500D01*
X19653231Y-19538867D01*
X19719552Y-19494552D01*
X19763867Y-19428231D01*
X19775500Y-19369748D01*
X19775500Y-19210554D01*
X19794407Y-19152363D01*
X19824998Y-19124819D01*
X19884511Y-19090460D01*
X19940460Y-19034511D01*
X22340460Y-16634511D01*
X22665460Y-16309511D01*
X22705021Y-16240989D01*
X22725500Y-16164562D01*
X22725500Y-12735438D01*
X22725500Y-12085438D01*
X22705021Y-12009011D01*
X22704026Y-12007288D01*
X22665460Y-11940489D01*
X22609511Y-11884539D01*
X22609511Y-11884540D01*
X22480546Y-11755575D01*
X22452769Y-11701058D01*
X22452558Y-11671482D01*
X22455647Y-11650000D01*
X22450204Y-11612145D01*
X22435165Y-11507543D01*
X22375377Y-11376628D01*
X22375377Y-11376627D01*
X22281128Y-11267857D01*
X22281127Y-11267856D01*
X22281126Y-11267855D01*
X22160057Y-11190049D01*
X22160054Y-11190047D01*
X22160053Y-11190047D01*
X22160050Y-11190046D01*
X22021964Y-11149500D01*
X22021961Y-11149500D01*
X21878039Y-11149500D01*
X21878035Y-11149500D01*
X21739949Y-11190046D01*
X21739942Y-11190049D01*
X21618873Y-11267855D01*
X21524622Y-11376628D01*
X21464834Y-11507543D01*
X21444353Y-11649997D01*
X21444353Y-11650002D01*
X21464834Y-11792456D01*
X21495880Y-11860435D01*
X21524623Y-11923373D01*
X21597335Y-12007288D01*
X21618873Y-12032144D01*
X21739942Y-12109950D01*
X21739947Y-12109953D01*
X21846403Y-12141211D01*
X21878035Y-12150499D01*
X21878036Y-12150499D01*
X21878039Y-12150500D01*
X21878041Y-12150500D01*
X21984521Y-12150500D01*
X22042712Y-12169407D01*
X22054525Y-12179496D01*
X22095504Y-12220475D01*
X22123281Y-12274992D01*
X22124500Y-12290479D01*
X22124500Y-15959521D01*
X22105593Y-16017712D01*
X22095504Y-16029525D01*
X21915489Y-16209540D01*
X19884972Y-18240056D01*
X19830455Y-18267833D01*
X19770023Y-18258262D01*
X19732654Y-18225055D01*
X19719555Y-18205452D01*
X19719554Y-18205451D01*
X19719552Y-18205448D01*
X19719548Y-18205445D01*
X19653233Y-18161134D01*
X19653231Y-18161133D01*
X19653228Y-18161132D01*
X19653227Y-18161132D01*
X19594758Y-18149501D01*
X19594748Y-18149500D01*
X17555252Y-18149500D01*
X17555251Y-18149500D01*
X17555241Y-18149501D01*
X17496772Y-18161132D01*
X17496766Y-18161134D01*
X17430451Y-18205445D01*
X17430445Y-18205451D01*
X17386134Y-18271766D01*
X17386132Y-18271772D01*
X17374501Y-18330241D01*
X17374500Y-18330253D01*
X17374500Y-18450500D01*
X17355593Y-18508691D01*
X17306093Y-18544655D01*
X17275500Y-18549500D01*
X9574500Y-18549500D01*
X9516309Y-18530593D01*
X9480345Y-18481093D01*
X9475500Y-18450500D01*
X9475500Y-18330253D01*
X9475498Y-18330241D01*
X9472711Y-18316231D01*
X9463867Y-18271769D01*
X9419552Y-18205448D01*
X9419548Y-18205445D01*
X9353233Y-18161134D01*
X9353231Y-18161133D01*
X9353228Y-18161132D01*
X9353227Y-18161132D01*
X9294758Y-18149501D01*
X9294748Y-18149500D01*
X6755252Y-18149500D01*
X6755251Y-18149500D01*
X6755241Y-18149501D01*
X6696772Y-18161132D01*
X6696766Y-18161134D01*
X6630451Y-18205445D01*
X6630445Y-18205451D01*
X6586134Y-18271766D01*
X6586132Y-18271772D01*
X6574500Y-18330246D01*
X6574377Y-18331496D01*
X6574147Y-18332021D01*
X6573550Y-18335023D01*
X6572891Y-18334891D01*
X6549853Y-18387551D01*
X6497065Y-18418487D01*
X6436174Y-18412486D01*
X6422331Y-18405070D01*
X6360057Y-18365049D01*
X6360054Y-18365047D01*
X6360053Y-18365047D01*
X6360050Y-18365046D01*
X6221964Y-18324500D01*
X6221961Y-18324500D01*
X6078039Y-18324500D01*
X6078035Y-18324500D01*
X5939949Y-18365046D01*
X5939942Y-18365049D01*
X5818873Y-18442855D01*
X5724622Y-18551628D01*
X5664834Y-18682543D01*
X5644353Y-18824997D01*
X-899500Y-18824997D01*
X-899500Y-14274997D01*
X3744353Y-14274997D01*
X3744353Y-14275002D01*
X3764834Y-14417456D01*
X3789058Y-14470498D01*
X3824623Y-14548373D01*
X3870940Y-14601826D01*
X3918873Y-14657144D01*
X4039942Y-14734950D01*
X4039947Y-14734953D01*
X4146403Y-14766211D01*
X4178035Y-14775499D01*
X4178036Y-14775499D01*
X4178039Y-14775500D01*
X4178041Y-14775500D01*
X4321959Y-14775500D01*
X4321961Y-14775500D01*
X4460053Y-14734953D01*
X4581128Y-14657143D01*
X4675377Y-14548373D01*
X4735165Y-14417457D01*
X4755647Y-14275000D01*
X4754664Y-14268164D01*
X4735165Y-14132543D01*
X4715465Y-14089407D01*
X4675377Y-14001627D01*
X4672948Y-13998824D01*
X4649679Y-13971968D01*
X4625863Y-13915608D01*
X4625500Y-13907139D01*
X4625500Y-13250253D01*
X6574500Y-13250253D01*
X6574500Y-14289746D01*
X6574501Y-14289758D01*
X6580825Y-14321547D01*
X6586133Y-14348231D01*
X6630448Y-14414552D01*
X6696769Y-14458867D01*
X6741231Y-14467711D01*
X6755241Y-14470498D01*
X6755246Y-14470498D01*
X6755252Y-14470500D01*
X6755253Y-14470500D01*
X7188953Y-14470500D01*
X7247144Y-14489407D01*
X7283108Y-14538907D01*
X7283108Y-14600093D01*
X7247144Y-14649593D01*
X7216846Y-14664489D01*
X7214947Y-14665047D01*
X7214945Y-14665047D01*
X7214942Y-14665049D01*
X7093873Y-14742855D01*
X6999622Y-14851628D01*
X6939834Y-14982543D01*
X6919353Y-15124997D01*
X6919353Y-15125002D01*
X6939834Y-15267456D01*
X6999623Y-15398373D01*
X7040605Y-15445669D01*
X7064423Y-15502028D01*
X7050565Y-15561623D01*
X7004324Y-15601691D01*
X6965786Y-15609500D01*
X6755252Y-15609500D01*
X6755251Y-15609500D01*
X6755241Y-15609501D01*
X6696772Y-15621132D01*
X6696766Y-15621134D01*
X6630451Y-15665445D01*
X6630445Y-15665451D01*
X6586134Y-15731766D01*
X6586132Y-15731772D01*
X6574501Y-15790241D01*
X6574500Y-15790253D01*
X6574500Y-16829746D01*
X6574501Y-16829758D01*
X6586132Y-16888227D01*
X6586133Y-16888231D01*
X6630448Y-16954552D01*
X6696769Y-16998867D01*
X6741231Y-17007711D01*
X6755241Y-17010498D01*
X6755246Y-17010498D01*
X6755252Y-17010500D01*
X6755253Y-17010500D01*
X9294747Y-17010500D01*
X9294748Y-17010500D01*
X9353231Y-16998867D01*
X9419552Y-16954552D01*
X9463867Y-16888231D01*
X9475500Y-16829748D01*
X9475500Y-16709500D01*
X9494407Y-16651309D01*
X9543907Y-16615345D01*
X9574500Y-16610500D01*
X17275500Y-16610500D01*
X17333691Y-16629407D01*
X17369655Y-16678907D01*
X17374500Y-16709500D01*
X17374500Y-16829746D01*
X17374501Y-16829758D01*
X17386132Y-16888227D01*
X17386133Y-16888231D01*
X17430448Y-16954552D01*
X17496769Y-16998867D01*
X17541231Y-17007711D01*
X17555241Y-17010498D01*
X17555246Y-17010498D01*
X17555252Y-17010500D01*
X17555253Y-17010500D01*
X19594747Y-17010500D01*
X19594748Y-17010500D01*
X19653231Y-16998867D01*
X19719552Y-16954552D01*
X19763867Y-16888231D01*
X19775500Y-16829748D01*
X19775500Y-16709500D01*
X19794407Y-16651309D01*
X19843907Y-16615345D01*
X19874500Y-16610500D01*
X19954563Y-16610500D01*
X19954563Y-16610499D01*
X20030989Y-16590021D01*
X20099511Y-16550460D01*
X20155460Y-16494511D01*
X21340460Y-15309511D01*
X21380021Y-15240989D01*
X21400500Y-15164562D01*
X21400500Y-14653893D01*
X21419407Y-14595702D01*
X21426741Y-14587711D01*
X21426491Y-14587494D01*
X21439634Y-14572326D01*
X21525377Y-14473373D01*
X21585165Y-14342457D01*
X21592744Y-14289746D01*
X21605647Y-14200002D01*
X21605647Y-14199997D01*
X21585165Y-14057543D01*
X21559628Y-14001626D01*
X21525377Y-13926627D01*
X21431128Y-13817857D01*
X21431127Y-13817856D01*
X21431126Y-13817855D01*
X21310057Y-13740049D01*
X21310054Y-13740047D01*
X21310053Y-13740047D01*
X21310050Y-13740046D01*
X21171964Y-13699500D01*
X21171961Y-13699500D01*
X21028039Y-13699500D01*
X21028035Y-13699500D01*
X20889949Y-13740046D01*
X20889942Y-13740049D01*
X20768873Y-13817855D01*
X20674622Y-13926628D01*
X20614834Y-14057543D01*
X20594353Y-14199997D01*
X20594353Y-14200002D01*
X20614834Y-14342456D01*
X20647758Y-14414548D01*
X20674623Y-14473373D01*
X20739610Y-14548373D01*
X20773509Y-14587494D01*
X20771471Y-14589259D01*
X20796925Y-14631458D01*
X20799500Y-14653893D01*
X20799500Y-14959521D01*
X20780593Y-15017712D01*
X20770504Y-15029525D01*
X19944504Y-15855525D01*
X19889987Y-15883302D01*
X19829555Y-15873731D01*
X19786290Y-15830466D01*
X19777754Y-15794912D01*
X19775976Y-15795088D01*
X19775500Y-15790261D01*
X19775500Y-15790252D01*
X19763867Y-15731769D01*
X19719552Y-15665448D01*
X19719548Y-15665445D01*
X19653233Y-15621134D01*
X19653231Y-15621133D01*
X19653228Y-15621132D01*
X19653227Y-15621132D01*
X19594758Y-15609501D01*
X19594748Y-15609500D01*
X17555252Y-15609500D01*
X17555251Y-15609500D01*
X17555241Y-15609501D01*
X17496772Y-15621132D01*
X17496766Y-15621134D01*
X17430451Y-15665445D01*
X17430445Y-15665451D01*
X17386134Y-15731766D01*
X17386132Y-15731772D01*
X17374501Y-15790241D01*
X17374500Y-15790253D01*
X17374500Y-15910500D01*
X17355593Y-15968691D01*
X17306093Y-16004655D01*
X17275500Y-16009500D01*
X9574500Y-16009500D01*
X9516309Y-15990593D01*
X9480345Y-15941093D01*
X9475500Y-15910500D01*
X9475500Y-15790253D01*
X9475498Y-15790241D01*
X9472711Y-15776231D01*
X9463867Y-15731769D01*
X9419552Y-15665448D01*
X9419548Y-15665445D01*
X9353233Y-15621134D01*
X9353231Y-15621133D01*
X9353228Y-15621132D01*
X9353227Y-15621132D01*
X9294758Y-15609501D01*
X9294748Y-15609500D01*
X9294747Y-15609500D01*
X7884214Y-15609500D01*
X7826023Y-15590593D01*
X7790059Y-15541093D01*
X7790059Y-15479907D01*
X7809395Y-15445669D01*
X7850377Y-15398373D01*
X7910165Y-15267457D01*
X7930647Y-15125000D01*
X7915221Y-15017712D01*
X7910165Y-14982543D01*
X7850377Y-14851628D01*
X7850377Y-14851627D01*
X7756128Y-14742857D01*
X7756127Y-14742856D01*
X7756126Y-14742855D01*
X7635057Y-14665049D01*
X7635055Y-14665048D01*
X7635053Y-14665047D01*
X7633154Y-14664489D01*
X7631793Y-14663558D01*
X7628612Y-14662106D01*
X7628863Y-14661555D01*
X7582648Y-14629953D01*
X7562087Y-14572326D01*
X7579326Y-14513619D01*
X7627779Y-14476257D01*
X7661047Y-14470500D01*
X9294747Y-14470500D01*
X9294748Y-14470500D01*
X9353231Y-14458867D01*
X9419552Y-14414552D01*
X9463867Y-14348231D01*
X9469175Y-14321544D01*
X9499071Y-14268164D01*
X9554636Y-14242548D01*
X9594163Y-14245872D01*
X9678035Y-14270499D01*
X9678036Y-14270499D01*
X9678039Y-14270500D01*
X9678041Y-14270500D01*
X9821959Y-14270500D01*
X9821961Y-14270500D01*
X9960053Y-14229953D01*
X10081128Y-14152143D01*
X10122264Y-14104668D01*
X10174660Y-14073073D01*
X10197083Y-14070500D01*
X17275500Y-14070500D01*
X17333691Y-14089407D01*
X17369655Y-14138907D01*
X17374500Y-14169500D01*
X17374500Y-14289746D01*
X17374501Y-14289758D01*
X17380825Y-14321547D01*
X17386133Y-14348231D01*
X17430448Y-14414552D01*
X17496769Y-14458867D01*
X17541231Y-14467711D01*
X17555241Y-14470498D01*
X17555246Y-14470498D01*
X17555252Y-14470500D01*
X17555253Y-14470500D01*
X19594747Y-14470500D01*
X19594748Y-14470500D01*
X19653231Y-14458867D01*
X19719552Y-14414552D01*
X19763867Y-14348231D01*
X19775500Y-14289748D01*
X19775500Y-13250252D01*
X19763867Y-13191769D01*
X19719552Y-13125448D01*
X19719548Y-13125445D01*
X19653233Y-13081134D01*
X19653231Y-13081133D01*
X19653228Y-13081132D01*
X19653227Y-13081132D01*
X19594758Y-13069501D01*
X19594748Y-13069500D01*
X19594747Y-13069500D01*
X18340479Y-13069500D01*
X18282288Y-13050593D01*
X18270475Y-13040504D01*
X18206262Y-12976291D01*
X18178485Y-12921774D01*
X18184909Y-12874760D01*
X18183171Y-12874250D01*
X18185165Y-12867456D01*
X18205647Y-12725002D01*
X18205647Y-12724997D01*
X18185165Y-12582543D01*
X18125377Y-12451628D01*
X18125377Y-12451627D01*
X18031128Y-12342857D01*
X18031127Y-12342856D01*
X18031126Y-12342855D01*
X17910057Y-12265049D01*
X17910054Y-12265047D01*
X17910053Y-12265047D01*
X17910050Y-12265046D01*
X17771964Y-12224500D01*
X17771961Y-12224500D01*
X17628039Y-12224500D01*
X17628035Y-12224500D01*
X17489949Y-12265046D01*
X17489942Y-12265049D01*
X17368873Y-12342855D01*
X17274622Y-12451628D01*
X17214834Y-12582543D01*
X17194353Y-12724997D01*
X17194353Y-12725002D01*
X17214834Y-12867456D01*
X17217937Y-12874250D01*
X17274623Y-12998373D01*
X17364870Y-13102524D01*
X17388687Y-13158884D01*
X17387148Y-13186670D01*
X17386133Y-13191767D01*
X17386133Y-13191769D01*
X17377164Y-13236854D01*
X17374500Y-13250251D01*
X17374500Y-13370500D01*
X17355593Y-13428691D01*
X17306093Y-13464655D01*
X17275500Y-13469500D01*
X10197083Y-13469500D01*
X10138892Y-13450593D01*
X10122264Y-13435331D01*
X10081128Y-13387857D01*
X10024499Y-13351464D01*
X9960057Y-13310049D01*
X9960054Y-13310047D01*
X9960053Y-13310047D01*
X9960050Y-13310046D01*
X9821964Y-13269500D01*
X9821961Y-13269500D01*
X9678039Y-13269500D01*
X9678037Y-13269500D01*
X9678033Y-13269501D01*
X9594162Y-13294127D01*
X9533002Y-13292379D01*
X9484550Y-13255016D01*
X9469175Y-13218454D01*
X9463867Y-13191769D01*
X9419552Y-13125448D01*
X9419548Y-13125445D01*
X9353233Y-13081134D01*
X9353231Y-13081133D01*
X9353228Y-13081132D01*
X9353227Y-13081132D01*
X9294758Y-13069501D01*
X9294748Y-13069500D01*
X6755252Y-13069500D01*
X6755251Y-13069500D01*
X6755241Y-13069501D01*
X6696772Y-13081132D01*
X6696766Y-13081134D01*
X6630451Y-13125445D01*
X6630445Y-13125451D01*
X6586134Y-13191766D01*
X6586132Y-13191772D01*
X6574501Y-13250241D01*
X6574500Y-13250253D01*
X4625500Y-13250253D01*
X4625500Y-12065479D01*
X4644407Y-12007288D01*
X4654496Y-11995475D01*
X6745475Y-9904496D01*
X6799992Y-9876719D01*
X6815479Y-9875500D01*
X7432507Y-9875500D01*
X7490698Y-9894407D01*
X7526662Y-9943907D01*
X7526662Y-10005093D01*
X7522560Y-10015627D01*
X7514834Y-10032543D01*
X7494353Y-10174997D01*
X7494353Y-10175002D01*
X7514834Y-10317456D01*
X7547678Y-10389373D01*
X7554653Y-10450160D01*
X7524567Y-10503437D01*
X7468911Y-10528855D01*
X7457625Y-10529500D01*
X6755252Y-10529500D01*
X6755251Y-10529500D01*
X6755241Y-10529501D01*
X6696772Y-10541132D01*
X6696766Y-10541134D01*
X6630451Y-10585445D01*
X6630445Y-10585451D01*
X6586134Y-10651766D01*
X6586132Y-10651772D01*
X6574501Y-10710241D01*
X6574500Y-10710253D01*
X6574500Y-11749746D01*
X6574501Y-11749758D01*
X6581315Y-11784011D01*
X6586133Y-11808231D01*
X6630448Y-11874552D01*
X6696769Y-11918867D01*
X6741231Y-11927711D01*
X6755241Y-11930498D01*
X6755246Y-11930498D01*
X6755252Y-11930500D01*
X6755253Y-11930500D01*
X9294747Y-11930500D01*
X9294748Y-11930500D01*
X9353231Y-11918867D01*
X9419552Y-11874552D01*
X9463867Y-11808231D01*
X9475500Y-11749748D01*
X9475500Y-11629500D01*
X9494407Y-11571309D01*
X9543907Y-11535345D01*
X9574500Y-11530500D01*
X16127917Y-11530500D01*
X16186108Y-11549407D01*
X16202733Y-11564667D01*
X16243872Y-11612143D01*
X16364947Y-11689953D01*
X16451916Y-11715489D01*
X16503035Y-11730499D01*
X16503036Y-11730499D01*
X16503039Y-11730500D01*
X16503041Y-11730500D01*
X16646959Y-11730500D01*
X16646961Y-11730500D01*
X16785053Y-11689953D01*
X16906128Y-11612143D01*
X16947264Y-11564668D01*
X16999660Y-11533073D01*
X17022083Y-11530500D01*
X17275500Y-11530500D01*
X17333691Y-11549407D01*
X17369655Y-11598907D01*
X17374500Y-11629500D01*
X17374500Y-11749746D01*
X17374501Y-11749758D01*
X17381315Y-11784011D01*
X17386133Y-11808231D01*
X17430448Y-11874552D01*
X17496769Y-11918867D01*
X17541231Y-11927711D01*
X17555241Y-11930498D01*
X17555246Y-11930498D01*
X17555252Y-11930500D01*
X17555253Y-11930500D01*
X19594747Y-11930500D01*
X19594748Y-11930500D01*
X19653231Y-11918867D01*
X19719552Y-11874552D01*
X19763867Y-11808231D01*
X19775500Y-11749748D01*
X19775500Y-10710252D01*
X19763867Y-10651769D01*
X19719552Y-10585448D01*
X19719548Y-10585445D01*
X19653233Y-10541134D01*
X19653231Y-10541133D01*
X19653228Y-10541132D01*
X19653227Y-10541132D01*
X19594758Y-10529501D01*
X19594748Y-10529500D01*
X19594747Y-10529500D01*
X17844540Y-10529500D01*
X17786349Y-10510593D01*
X17750385Y-10461093D01*
X17750385Y-10399907D01*
X17754487Y-10389373D01*
X17767675Y-10360496D01*
X17810165Y-10267457D01*
X17830647Y-10125000D01*
X17810165Y-9982543D01*
X17750377Y-9851627D01*
X17750376Y-9851626D01*
X17750376Y-9851625D01*
X17746549Y-9845670D01*
X17748349Y-9844513D01*
X17728469Y-9797474D01*
X17742326Y-9737878D01*
X17788566Y-9697810D01*
X17827106Y-9690000D01*
X18324999Y-9690000D01*
X18325000Y-9689999D01*
X18325000Y-8940001D01*
X18825000Y-8940001D01*
X18825000Y-9689999D01*
X18825001Y-9690000D01*
X19622824Y-9690000D01*
X19682370Y-9683598D01*
X19682381Y-9683596D01*
X19817088Y-9633353D01*
X19817090Y-9633352D01*
X19932184Y-9547192D01*
X19932192Y-9547184D01*
X20018352Y-9432090D01*
X20018353Y-9432088D01*
X20068596Y-9297381D01*
X20068598Y-9297370D01*
X20075000Y-9237824D01*
X20075000Y-8940001D01*
X20074999Y-8940000D01*
X18825001Y-8940000D01*
X18825000Y-8940001D01*
X18325000Y-8940001D01*
X18324999Y-8940000D01*
X17075001Y-8940000D01*
X17075000Y-8940001D01*
X17075000Y-9237824D01*
X17074999Y-9237824D01*
X17081401Y-9297370D01*
X17081403Y-9297381D01*
X17131646Y-9432088D01*
X17131647Y-9432090D01*
X17186153Y-9504901D01*
X17205890Y-9562816D01*
X17187816Y-9621271D01*
X17138835Y-9657938D01*
X17134793Y-9659219D01*
X17114952Y-9665044D01*
X17114942Y-9665049D01*
X16993876Y-9742854D01*
X16993871Y-9742858D01*
X16952736Y-9790331D01*
X16900340Y-9821927D01*
X16877917Y-9824500D01*
X15358964Y-9824500D01*
X15282540Y-9844978D01*
X15282536Y-9844980D01*
X15265147Y-9855019D01*
X15265148Y-9855020D01*
X15214019Y-9884539D01*
X14628054Y-10470504D01*
X14573537Y-10498281D01*
X14558050Y-10499500D01*
X10240479Y-10499500D01*
X10182288Y-10480593D01*
X10170475Y-10470504D01*
X9491741Y-9791770D01*
X9463964Y-9737253D01*
X9473535Y-9676821D01*
X9511522Y-9637734D01*
X9511420Y-9637597D01*
X9512288Y-9636947D01*
X9514303Y-9634874D01*
X9517090Y-9633352D01*
X9632184Y-9547192D01*
X9632192Y-9547184D01*
X9718352Y-9432090D01*
X9718353Y-9432088D01*
X9768596Y-9297381D01*
X9768598Y-9297370D01*
X9775000Y-9237824D01*
X9775000Y-8940001D01*
X9774999Y-8940000D01*
X6275001Y-8940000D01*
X6275000Y-8940001D01*
X6275000Y-9237824D01*
X6274999Y-9237824D01*
X6281401Y-9297370D01*
X6281403Y-9297381D01*
X6319271Y-9398910D01*
X6321891Y-9460039D01*
X6296517Y-9503510D01*
X4140489Y-11659540D01*
X4140488Y-11659539D01*
X4084539Y-11715489D01*
X4044980Y-11784007D01*
X4044978Y-11784011D01*
X4024500Y-11860435D01*
X4024500Y-13770916D01*
X4005593Y-13829107D01*
X3979023Y-13854200D01*
X3918873Y-13892855D01*
X3824622Y-14001628D01*
X3764834Y-14132543D01*
X3744353Y-14274997D01*
X-899500Y-14274997D01*
X-899500Y-8142175D01*
X6275000Y-8142175D01*
X6275000Y-8439999D01*
X6275001Y-8440000D01*
X9774999Y-8440000D01*
X9775000Y-8439999D01*
X9775000Y-8142175D01*
X9768598Y-8082629D01*
X9768596Y-8082618D01*
X9718353Y-7947911D01*
X9718352Y-7947909D01*
X9632192Y-7832815D01*
X9632184Y-7832807D01*
X9517090Y-7746647D01*
X9517088Y-7746646D01*
X9392017Y-7699997D01*
X13944353Y-7699997D01*
X13944353Y-7700002D01*
X13964834Y-7842456D01*
X13991113Y-7899997D01*
X14024623Y-7973373D01*
X14098276Y-8058374D01*
X14118873Y-8082144D01*
X14239942Y-8159950D01*
X14239947Y-8159953D01*
X14346403Y-8191211D01*
X14378035Y-8200499D01*
X14378036Y-8200499D01*
X14378039Y-8200500D01*
X14378041Y-8200500D01*
X14521959Y-8200500D01*
X14521961Y-8200500D01*
X14660053Y-8159953D01*
X14781128Y-8082143D01*
X14822264Y-8034668D01*
X14874660Y-8003073D01*
X14897083Y-8000500D01*
X15157051Y-8000500D01*
X15215242Y-8019407D01*
X15247103Y-8058371D01*
X15299623Y-8173373D01*
X15393872Y-8282143D01*
X15393873Y-8282144D01*
X15514942Y-8359950D01*
X15514947Y-8359953D01*
X15621403Y-8391211D01*
X15653035Y-8400499D01*
X15653036Y-8400499D01*
X15653039Y-8400500D01*
X15653041Y-8400500D01*
X15796959Y-8400500D01*
X15796961Y-8400500D01*
X15935053Y-8359953D01*
X16056128Y-8282143D01*
X16150377Y-8173373D01*
X16210165Y-8042457D01*
X16230647Y-7900000D01*
X16220987Y-7832815D01*
X16210165Y-7757543D01*
X16205188Y-7746646D01*
X16150377Y-7626627D01*
X16056128Y-7517857D01*
X16056127Y-7517856D01*
X16056126Y-7517855D01*
X15935057Y-7440049D01*
X15935054Y-7440047D01*
X15935053Y-7440047D01*
X15935050Y-7440046D01*
X15796964Y-7399500D01*
X15796961Y-7399500D01*
X15653039Y-7399500D01*
X15653036Y-7399500D01*
X15637487Y-7404066D01*
X15583978Y-7404702D01*
X15564564Y-7399500D01*
X15564562Y-7399500D01*
X14897083Y-7399500D01*
X14838892Y-7380593D01*
X14822264Y-7365331D01*
X14807570Y-7348373D01*
X14781128Y-7317857D01*
X14748182Y-7296684D01*
X14660057Y-7240049D01*
X14660054Y-7240047D01*
X14660053Y-7240047D01*
X14660050Y-7240046D01*
X14521964Y-7199500D01*
X14521961Y-7199500D01*
X14378039Y-7199500D01*
X14378035Y-7199500D01*
X14239949Y-7240046D01*
X14239942Y-7240049D01*
X14118873Y-7317855D01*
X14024622Y-7426628D01*
X13964834Y-7557543D01*
X13944353Y-7699997D01*
X9392017Y-7699997D01*
X9382381Y-7696403D01*
X9382370Y-7696401D01*
X9322824Y-7690000D01*
X8205958Y-7690000D01*
X8147767Y-7671093D01*
X8111803Y-7621593D01*
X8111803Y-7560407D01*
X8147767Y-7510907D01*
X8152435Y-7507716D01*
X8231126Y-7457144D01*
X8231125Y-7457144D01*
X8231128Y-7457143D01*
X8325377Y-7348373D01*
X8385165Y-7217457D01*
X8391992Y-7169971D01*
X8405647Y-7075002D01*
X8405647Y-7074997D01*
X8389629Y-6963589D01*
X8400062Y-6903300D01*
X8443940Y-6860658D01*
X8487621Y-6850500D01*
X9294747Y-6850500D01*
X9294748Y-6850500D01*
X9353231Y-6838867D01*
X9419552Y-6794552D01*
X9463867Y-6728231D01*
X9475500Y-6669748D01*
X9475500Y-5630252D01*
X9463867Y-5571769D01*
X9419552Y-5505448D01*
X9411399Y-5500000D01*
X9353233Y-5461134D01*
X9344224Y-5457403D01*
X9345009Y-5455506D01*
X9302676Y-5431795D01*
X9277064Y-5376228D01*
X9289005Y-5316219D01*
X9305371Y-5294599D01*
X10370475Y-4229496D01*
X10424992Y-4201719D01*
X10440479Y-4200500D01*
X11339563Y-4200500D01*
X11339563Y-4200499D01*
X11415989Y-4180021D01*
X11426404Y-4174007D01*
X11444150Y-4163763D01*
X11493649Y-4150500D01*
X12434521Y-4150500D01*
X12492712Y-4169407D01*
X12504525Y-4179496D01*
X14815489Y-6490460D01*
X14815491Y-6490461D01*
X14815492Y-6490462D01*
X14815493Y-6490463D01*
X14884008Y-6530020D01*
X14884006Y-6530020D01*
X14884010Y-6530021D01*
X14884012Y-6530022D01*
X14960438Y-6550500D01*
X15039562Y-6550500D01*
X17275500Y-6550500D01*
X17333691Y-6569407D01*
X17369655Y-6618907D01*
X17374500Y-6649500D01*
X17374500Y-6669746D01*
X17374501Y-6669758D01*
X17386132Y-6728227D01*
X17386133Y-6728231D01*
X17430448Y-6794552D01*
X17430451Y-6794554D01*
X17437343Y-6801446D01*
X17434984Y-6803804D01*
X17462500Y-6838705D01*
X17464904Y-6899843D01*
X17459674Y-6914098D01*
X17439836Y-6957539D01*
X17439833Y-6957547D01*
X17419353Y-7099997D01*
X17419353Y-7100002D01*
X17439834Y-7242456D01*
X17474268Y-7317854D01*
X17499623Y-7373373D01*
X17593872Y-7482143D01*
X17593873Y-7482144D01*
X17633664Y-7507716D01*
X17672395Y-7555082D01*
X17675889Y-7616167D01*
X17642809Y-7667640D01*
X17585793Y-7689839D01*
X17580141Y-7690000D01*
X17527176Y-7690000D01*
X17467629Y-7696401D01*
X17467618Y-7696403D01*
X17332911Y-7746646D01*
X17332909Y-7746647D01*
X17217815Y-7832807D01*
X17217807Y-7832815D01*
X17131647Y-7947909D01*
X17131646Y-7947911D01*
X17081403Y-8082618D01*
X17081401Y-8082629D01*
X17075000Y-8142175D01*
X17075000Y-8439999D01*
X17075001Y-8440000D01*
X18324999Y-8440000D01*
X18325000Y-8439999D01*
X18325000Y-7690001D01*
X18825000Y-7690001D01*
X18825000Y-8439999D01*
X18825001Y-8440000D01*
X20074999Y-8440000D01*
X20075000Y-8439999D01*
X20075000Y-8142175D01*
X20068598Y-8082629D01*
X20068596Y-8082618D01*
X20018353Y-7947911D01*
X20018352Y-7947909D01*
X19932192Y-7832815D01*
X19932184Y-7832807D01*
X19817090Y-7746647D01*
X19817088Y-7746646D01*
X19682381Y-7696403D01*
X19682370Y-7696401D01*
X19622824Y-7690000D01*
X18825001Y-7690000D01*
X18825000Y-7690001D01*
X18325000Y-7690001D01*
X18324999Y-7690000D01*
X18269859Y-7690000D01*
X18211668Y-7671093D01*
X18175704Y-7621593D01*
X18175704Y-7560407D01*
X18211668Y-7510907D01*
X18216336Y-7507716D01*
X18256126Y-7482144D01*
X18256125Y-7482144D01*
X18256128Y-7482143D01*
X18350377Y-7373373D01*
X18410165Y-7242457D01*
X18430647Y-7100000D01*
X18427053Y-7075000D01*
X18411035Y-6963589D01*
X18421468Y-6903300D01*
X18465346Y-6860657D01*
X18509027Y-6850500D01*
X19594747Y-6850500D01*
X19594748Y-6850500D01*
X19653231Y-6838867D01*
X19719552Y-6794552D01*
X19763867Y-6728231D01*
X19775500Y-6669748D01*
X19775500Y-5630252D01*
X19763867Y-5571769D01*
X19719552Y-5505448D01*
X19711399Y-5500000D01*
X19653233Y-5461134D01*
X19653231Y-5461133D01*
X19653228Y-5461132D01*
X19653227Y-5461132D01*
X19594758Y-5449501D01*
X19594748Y-5449500D01*
X17555252Y-5449500D01*
X17555251Y-5449500D01*
X17555241Y-5449501D01*
X17496772Y-5461132D01*
X17496766Y-5461134D01*
X17430451Y-5505445D01*
X17430445Y-5505451D01*
X17386134Y-5571766D01*
X17386132Y-5571772D01*
X17374501Y-5630241D01*
X17374500Y-5630253D01*
X17374500Y-5850500D01*
X17355593Y-5908691D01*
X17306093Y-5944655D01*
X17275500Y-5949500D01*
X15165479Y-5949500D01*
X15107288Y-5930593D01*
X15095475Y-5920504D01*
X13944378Y-4769407D01*
X13592817Y-4417846D01*
X14735688Y-4417846D01*
X14735688Y-4417851D01*
X14756169Y-4560305D01*
X14768452Y-4587200D01*
X14815958Y-4691222D01*
X14869552Y-4753073D01*
X14910208Y-4799993D01*
X15031277Y-4877799D01*
X15031282Y-4877802D01*
X15137738Y-4909060D01*
X15169370Y-4918348D01*
X15169371Y-4918348D01*
X15169374Y-4918349D01*
X15169376Y-4918349D01*
X15313294Y-4918349D01*
X15313296Y-4918349D01*
X15451388Y-4877802D01*
X15572463Y-4799992D01*
X15585740Y-4784668D01*
X15638135Y-4753073D01*
X15660559Y-4750500D01*
X16691223Y-4750500D01*
X16749414Y-4769407D01*
X16785378Y-4818907D01*
X16789214Y-4835405D01*
X16793560Y-4865633D01*
X16794492Y-4872115D01*
X16854279Y-5003028D01*
X16854280Y-5003030D01*
X16911014Y-5068505D01*
X16948530Y-5111801D01*
X16994446Y-5141309D01*
X17069604Y-5189610D01*
X17176060Y-5220868D01*
X17207692Y-5230156D01*
X17207693Y-5230156D01*
X17207696Y-5230157D01*
X17207698Y-5230157D01*
X17351616Y-5230157D01*
X17351618Y-5230157D01*
X17489710Y-5189610D01*
X17610785Y-5111800D01*
X17705034Y-5003030D01*
X17764822Y-4872114D01*
X17775191Y-4799993D01*
X17785304Y-4729659D01*
X17785304Y-4729654D01*
X17764822Y-4587200D01*
X17705034Y-4456285D01*
X17705034Y-4456284D01*
X17610785Y-4347514D01*
X17610784Y-4347513D01*
X17610783Y-4347512D01*
X17489714Y-4269706D01*
X17489711Y-4269704D01*
X17489710Y-4269704D01*
X17489707Y-4269703D01*
X17351621Y-4229157D01*
X17351618Y-4229157D01*
X17243682Y-4229157D01*
X17190628Y-4211919D01*
X17190129Y-4212784D01*
X17186060Y-4210435D01*
X17185491Y-4210250D01*
X17184642Y-4209616D01*
X17184511Y-4209540D01*
X17168851Y-4200499D01*
X17133382Y-4180020D01*
X17133380Y-4180020D01*
X17115989Y-4169979D01*
X17115986Y-4169978D01*
X17039564Y-4149500D01*
X17039562Y-4149500D01*
X15716277Y-4149500D01*
X15658086Y-4130593D01*
X15641461Y-4115335D01*
X15572463Y-4035706D01*
X15572462Y-4035705D01*
X15572461Y-4035704D01*
X15451392Y-3957898D01*
X15451389Y-3957896D01*
X15451388Y-3957896D01*
X15451385Y-3957895D01*
X15313299Y-3917349D01*
X15313296Y-3917349D01*
X15169374Y-3917349D01*
X15169370Y-3917349D01*
X15031284Y-3957895D01*
X15031277Y-3957898D01*
X14910208Y-4035704D01*
X14815957Y-4144477D01*
X14756169Y-4275392D01*
X14735688Y-4417846D01*
X13592817Y-4417846D01*
X12784511Y-3609540D01*
X12784508Y-3609538D01*
X12767121Y-3599499D01*
X12767121Y-3599500D01*
X12715989Y-3569979D01*
X12715988Y-3569978D01*
X12715987Y-3569978D01*
X12639564Y-3549500D01*
X12639562Y-3549500D01*
X11389562Y-3549500D01*
X11310438Y-3549500D01*
X11234012Y-3569978D01*
X11234011Y-3569978D01*
X11234009Y-3569979D01*
X11205853Y-3586236D01*
X11156352Y-3599500D01*
X10314562Y-3599500D01*
X10235438Y-3599500D01*
X10197968Y-3609540D01*
X10159007Y-3619979D01*
X10090493Y-3659536D01*
X8329525Y-5420504D01*
X8275008Y-5448281D01*
X8259521Y-5449500D01*
X6755252Y-5449500D01*
X6755251Y-5449500D01*
X6755241Y-5449501D01*
X6696772Y-5461132D01*
X6696766Y-5461134D01*
X6630451Y-5505445D01*
X6630445Y-5505451D01*
X6586134Y-5571766D01*
X6586132Y-5571772D01*
X6574501Y-5630241D01*
X6574500Y-5630253D01*
X6574500Y-6669746D01*
X6574501Y-6669758D01*
X6586132Y-6728227D01*
X6586133Y-6728231D01*
X6630448Y-6794552D01*
X6696769Y-6838867D01*
X6741231Y-6847711D01*
X6755241Y-6850498D01*
X6755246Y-6850498D01*
X6755252Y-6850500D01*
X7312379Y-6850500D01*
X7370570Y-6869407D01*
X7406534Y-6918907D01*
X7410371Y-6963589D01*
X7394353Y-7074997D01*
X7394353Y-7075002D01*
X7414834Y-7217456D01*
X7460687Y-7317858D01*
X7474623Y-7348373D01*
X7554060Y-7440049D01*
X7568873Y-7457144D01*
X7647565Y-7507716D01*
X7686296Y-7555082D01*
X7689790Y-7616167D01*
X7656710Y-7667640D01*
X7599694Y-7689839D01*
X7594042Y-7690000D01*
X6727176Y-7690000D01*
X6667629Y-7696401D01*
X6667618Y-7696403D01*
X6532911Y-7746646D01*
X6532909Y-7746647D01*
X6417815Y-7832807D01*
X6417807Y-7832815D01*
X6331647Y-7947909D01*
X6331646Y-7947911D01*
X6281403Y-8082618D01*
X6281401Y-8082629D01*
X6275000Y-8142175D01*
X-899500Y-8142175D01*
X-899500Y-5199500D01*
X-880593Y-5141309D01*
X-831093Y-5105345D01*
X-800500Y-5100500D01*
X19992Y-5100500D01*
X43283Y-5090852D01*
X56929Y-5085200D01*
X85200Y-5056929D01*
X100500Y-5019991D01*
X100500Y-2502984D01*
X100681Y-2497007D01*
X117633Y-2216749D01*
X119072Y-2204890D01*
X169146Y-1931646D01*
X172004Y-1920052D01*
X246808Y-1679997D01*
X3494353Y-1679997D01*
X3494353Y-1680002D01*
X3514834Y-1822456D01*
X3574623Y-1953373D01*
X3673509Y-2067494D01*
X3671471Y-2069259D01*
X3696925Y-2111458D01*
X3699500Y-2133893D01*
X3699500Y-5046105D01*
X3680593Y-5104296D01*
X3673258Y-5112289D01*
X3673509Y-5112506D01*
X3574622Y-5226628D01*
X3514834Y-5357543D01*
X3494353Y-5499997D01*
X3494353Y-5500002D01*
X3514834Y-5642456D01*
X3574622Y-5773371D01*
X3574623Y-5773373D01*
X3668872Y-5882143D01*
X3668873Y-5882144D01*
X3789942Y-5959950D01*
X3789947Y-5959953D01*
X3896403Y-5991211D01*
X3928035Y-6000499D01*
X3928036Y-6000499D01*
X3928039Y-6000500D01*
X3928041Y-6000500D01*
X4071959Y-6000500D01*
X4071961Y-6000500D01*
X4210053Y-5959953D01*
X4331128Y-5882143D01*
X4425377Y-5773373D01*
X4485165Y-5642457D01*
X4495329Y-5571766D01*
X4505647Y-5500002D01*
X4505647Y-5499997D01*
X4485165Y-5357543D01*
X4426989Y-5230157D01*
X4425377Y-5226627D01*
X4331128Y-5117857D01*
X4331127Y-5117856D01*
X4326491Y-5112506D01*
X4328524Y-5110743D01*
X4303067Y-5068505D01*
X4300500Y-5046105D01*
X4300500Y-2133893D01*
X4319407Y-2075702D01*
X4326741Y-2067711D01*
X4326491Y-2067494D01*
X4331128Y-2062143D01*
X4425377Y-1953373D01*
X4485165Y-1822457D01*
X4505647Y-1680000D01*
X4502030Y-1654845D01*
X4485165Y-1537543D01*
X4425377Y-1406628D01*
X4425377Y-1406627D01*
X4331128Y-1297857D01*
X4331127Y-1297856D01*
X4331126Y-1297855D01*
X4210057Y-1220049D01*
X4210054Y-1220047D01*
X4210053Y-1220047D01*
X4210050Y-1220046D01*
X4071964Y-1179500D01*
X4071961Y-1179500D01*
X3928039Y-1179500D01*
X3928035Y-1179500D01*
X3789949Y-1220046D01*
X3789942Y-1220049D01*
X3668873Y-1297855D01*
X3574622Y-1406628D01*
X3514834Y-1537543D01*
X3494353Y-1679997D01*
X246808Y-1679997D01*
X254650Y-1654832D01*
X258880Y-1643679D01*
X372895Y-1390346D01*
X378444Y-1379775D01*
X522159Y-1142040D01*
X528930Y-1132230D01*
X700257Y-913547D01*
X708169Y-904615D01*
X904615Y-708169D01*
X913547Y-700257D01*
X1132230Y-528930D01*
X1142040Y-522159D01*
X1379775Y-378444D01*
X1390346Y-372895D01*
X1643679Y-258880D01*
X1654832Y-254650D01*
X1920052Y-172004D01*
X1931646Y-169146D01*
X2204890Y-119072D01*
X2216741Y-117633D01*
X2497008Y-100681D01*
X2502985Y-100500D01*
X2526929Y-100500D01*
X22473071Y-100500D01*
X22497015Y-100500D01*
X22502992Y-100681D01*
G37*
%TD.AperFunction*%
%TD*%
D16*
X15241335Y-4417849D03*
X4000000Y-1680000D03*
X17279657Y-4729657D03*
X4000000Y-5500000D03*
X5733685Y-17211027D03*
X16925000Y-5650000D03*
X16375000Y-9375000D03*
X21150000Y-11975000D03*
X7000000Y-20125000D03*
X11950000Y-4800000D03*
X4200000Y-20000000D03*
X19600000Y-7375000D03*
X20700000Y-13300000D03*
X15550000Y-12925000D03*
X3325000Y-9400000D03*
X14047892Y-8637892D03*
X21000000Y-8800000D03*
X10750000Y-9950000D03*
X15200000Y-3500000D03*
X12325000Y-19950000D03*
X11750000Y-17475000D03*
X9425000Y-12350000D03*
X1600000Y-2150000D03*
X6100000Y-4000000D03*
X2800000Y-13100000D03*
X4860000Y-620000D03*
X11280000Y-2900000D03*
X23800000Y-23400000D03*
X16975000Y-7325000D03*
X19150000Y-20025000D03*
X5010000Y-5490000D03*
X8660000Y-7440000D03*
X19730000Y-680000D03*
X19200000Y-17525000D03*
X11675000Y-14925000D03*
X10000000Y-8690000D03*
X3400000Y-15975000D03*
X4850000Y-7700000D03*
X14825000Y-22300000D03*
X10825000Y-12275000D03*
X17925000Y-7100000D03*
X7900000Y-7075000D03*
X21950000Y-11650000D03*
X6150000Y-18825000D03*
X21100000Y-14200000D03*
X7425000Y-15125000D03*
X17700000Y-12725000D03*
X9750000Y-13770000D03*
X16575000Y-11230000D03*
X8000000Y-10175000D03*
X14450000Y-7700000D03*
X15725000Y-7900000D03*
X17325000Y-10125000D03*
X4250000Y-14275000D03*
D17*
X5860000Y-23600000D03*
X7860000Y-23600000D03*
X9860000Y-23600000D03*
X11860000Y-23600000D03*
X22500000Y-2550000D03*
X2500000Y-22500000D03*
M02*
