<?xml version="1.0" standalone="no"?>
 <!DOCTYPE svg PUBLIC "-//W3C//DTD SVG 1.1//EN" 
 "http://www.w3.org/Graphics/SVG/1.1/DTD/svg11.dtd"> 
<svg
  xmlns:svg="http://www.w3.org/2000/svg"
  xmlns="http://www.w3.org/2000/svg"
  xmlns:xlink="http://www.w3.org/1999/xlink"
  version="1.1"
  width="210.0072mm" height="148.0058mm" viewBox="0.0000 0.0000 210.0072 148.0058">
<title>SVG Image created as Battery-F_Fab.svg date 2024/10/24 13:13:10 </title>
  <desc>Image generated by PCBNEW </desc>
<g style="fill:#000000; fill-opacity:1.0000;stroke:#000000; stroke-opacity:1.0000;
stroke-linecap:round; stroke-linejoin:round;"
 transform="translate(0 0) scale(1 1)">
</g>
<g style="fill:none; 
stroke:#000000; stroke-width:0.1500; stroke-opacity:1; 
stroke-linecap:round; stroke-linejoin:round;">
<path d="M90.0072 104.0058
L198.0072 104.0058
L198.0072 136.0058
L90.0072 136.0058
L90.0072 104.0058
" />
</g>
<g style="fill:none; 
stroke:#000000; stroke-width:0.1500; stroke-opacity:1; 
stroke-linecap:round; stroke-linejoin:round;">
<path d="M10.0000 10.0000
L200.0072 10.0000
L200.0072 138.0058
L10.0000 138.0058
L10.0000 10.0000
" />
</g>
<g style="fill:none; 
stroke:#000000; stroke-width:0.1500; stroke-opacity:1; 
stroke-linecap:round; stroke-linejoin:round;">
<path d="M12.0000 12.0000
L198.0072 12.0000
L198.0072 136.0058
L12.0000 136.0058
L12.0000 12.0000
" />
</g>
<g style="fill:none; 
stroke:#000000; stroke-width:0.1500; stroke-opacity:1; 
stroke-linecap:round; stroke-linejoin:round;">
<path d="M60.0000 12.0000
L60.0000 10.0000
" />
</g>
<g style="fill:none; 
stroke:#000000; stroke-width:0.1500; stroke-opacity:1; 
stroke-linecap:round; stroke-linejoin:round;">
<path d="M110.0000 12.0000
L110.0000 10.0000
" />
</g>
<g style="fill:none; 
stroke:#000000; stroke-width:0.1500; stroke-opacity:1; 
stroke-linecap:round; stroke-linejoin:round;">
<path d="M160.0000 12.0000
L160.0000 10.0000
" />
</g>
<g style="fill:none; 
stroke:#000000; stroke-width:0.1500; stroke-opacity:1; 
stroke-linecap:round; stroke-linejoin:round;">
<text x="35.0000" y="11.6500"
textLength="1.4281" font-size="1.7333" lengthAdjust="spacingAndGlyphs"
text-anchor="start" opacity="0" stroke-opacity="0">1</text>
<g class="stroked-text"><desc>1</desc>
<path d="M36.0892 11.5936
L35.3463 11.5936
" />
<path d="M35.7177 11.5936
L35.7177 10.2936
" />
<path d="M35.7177 10.2936
L35.5939 10.4793
" />
<path d="M35.5939 10.4793
L35.4701 10.6031
" />
<path d="M35.4701 10.6031
L35.3463 10.6650
" />
</g></g>
<g style="fill:none; 
stroke:#000000; stroke-width:0.1500; stroke-opacity:1; 
stroke-linecap:round; stroke-linejoin:round;">
<text x="85.0000" y="11.6500"
textLength="1.4281" font-size="1.7333" lengthAdjust="spacingAndGlyphs"
text-anchor="start" opacity="0" stroke-opacity="0">2</text>
<g class="stroked-text"><desc>2</desc>
<path d="M85.3463 10.4174
L85.4082 10.3555
" />
<path d="M85.4082 10.3555
L85.5320 10.2936
" />
<path d="M85.5320 10.2936
L85.8415 10.2936
" />
<path d="M85.8415 10.2936
L85.9654 10.3555
" />
<path d="M85.9654 10.3555
L86.0273 10.4174
" />
<path d="M86.0273 10.4174
L86.0892 10.5412
" />
<path d="M86.0892 10.5412
L86.0892 10.6650
" />
<path d="M86.0892 10.6650
L86.0273 10.8507
" />
<path d="M86.0273 10.8507
L85.2844 11.5936
" />
<path d="M85.2844 11.5936
L86.0892 11.5936
" />
</g></g>
<g style="fill:none; 
stroke:#000000; stroke-width:0.1500; stroke-opacity:1; 
stroke-linecap:round; stroke-linejoin:round;">
<text x="135.0000" y="11.6500"
textLength="1.4281" font-size="1.7333" lengthAdjust="spacingAndGlyphs"
text-anchor="start" opacity="0" stroke-opacity="0">3</text>
<g class="stroked-text"><desc>3</desc>
<path d="M135.2844 10.2936
L136.0892 10.2936
" />
<path d="M136.0892 10.2936
L135.6558 10.7888
" />
<path d="M135.6558 10.7888
L135.8415 10.7888
" />
<path d="M135.8415 10.7888
L135.9654 10.8507
" />
<path d="M135.9654 10.8507
L136.0273 10.9127
" />
<path d="M136.0273 10.9127
L136.0892 11.0365
" />
<path d="M136.0892 11.0365
L136.0892 11.3460
" />
<path d="M136.0892 11.3460
L136.0273 11.4698
" />
<path d="M136.0273 11.4698
L135.9654 11.5317
" />
<path d="M135.9654 11.5317
L135.8415 11.5936
" />
<path d="M135.8415 11.5936
L135.4701 11.5936
" />
<path d="M135.4701 11.5936
L135.3463 11.5317
" />
<path d="M135.3463 11.5317
L135.2844 11.4698
" />
</g></g>
<g style="fill:none; 
stroke:#000000; stroke-width:0.1500; stroke-opacity:1; 
stroke-linecap:round; stroke-linejoin:round;">
<text x="185.0000" y="11.6500"
textLength="1.4281" font-size="1.7333" lengthAdjust="spacingAndGlyphs"
text-anchor="start" opacity="0" stroke-opacity="0">4</text>
<g class="stroked-text"><desc>4</desc>
<path d="M185.9654 10.7269
L185.9654 11.5936
" />
<path d="M185.6558 10.2317
L185.3463 11.1603
" />
<path d="M185.3463 11.1603
L186.1511 11.1603
" />
</g></g>
<g style="fill:none; 
stroke:#000000; stroke-width:0.1500; stroke-opacity:1; 
stroke-linecap:round; stroke-linejoin:round;">
<path d="M60.0000 136.0058
L60.0000 138.0058
" />
</g>
<g style="fill:none; 
stroke:#000000; stroke-width:0.1500; stroke-opacity:1; 
stroke-linecap:round; stroke-linejoin:round;">
<path d="M110.0000 136.0058
L110.0000 138.0058
" />
</g>
<g style="fill:none; 
stroke:#000000; stroke-width:0.1500; stroke-opacity:1; 
stroke-linecap:round; stroke-linejoin:round;">
<path d="M160.0000 136.0058
L160.0000 138.0058
" />
</g>
<g style="fill:none; 
stroke:#000000; stroke-width:0.1500; stroke-opacity:1; 
stroke-linecap:round; stroke-linejoin:round;">
<text x="35.0000" y="137.6558"
textLength="1.4281" font-size="1.7333" lengthAdjust="spacingAndGlyphs"
text-anchor="start" opacity="0" stroke-opacity="0">1</text>
<g class="stroked-text"><desc>1</desc>
<path d="M36.0892 137.5994
L35.3463 137.5994
" />
<path d="M35.7177 137.5994
L35.7177 136.2994
" />
<path d="M35.7177 136.2994
L35.5939 136.4851
" />
<path d="M35.5939 136.4851
L35.4701 136.6089
" />
<path d="M35.4701 136.6089
L35.3463 136.6708
" />
</g></g>
<g style="fill:none; 
stroke:#000000; stroke-width:0.1500; stroke-opacity:1; 
stroke-linecap:round; stroke-linejoin:round;">
<text x="85.0000" y="137.6558"
textLength="1.4281" font-size="1.7333" lengthAdjust="spacingAndGlyphs"
text-anchor="start" opacity="0" stroke-opacity="0">2</text>
<g class="stroked-text"><desc>2</desc>
<path d="M85.3463 136.4232
L85.4082 136.3613
" />
<path d="M85.4082 136.3613
L85.5320 136.2994
" />
<path d="M85.5320 136.2994
L85.8415 136.2994
" />
<path d="M85.8415 136.2994
L85.9654 136.3613
" />
<path d="M85.9654 136.3613
L86.0273 136.4232
" />
<path d="M86.0273 136.4232
L86.0892 136.5470
" />
<path d="M86.0892 136.5470
L86.0892 136.6708
" />
<path d="M86.0892 136.6708
L86.0273 136.8565
" />
<path d="M86.0273 136.8565
L85.2844 137.5994
" />
<path d="M85.2844 137.5994
L86.0892 137.5994
" />
</g></g>
<g style="fill:none; 
stroke:#000000; stroke-width:0.1500; stroke-opacity:1; 
stroke-linecap:round; stroke-linejoin:round;">
<text x="135.0000" y="137.6558"
textLength="1.4281" font-size="1.7333" lengthAdjust="spacingAndGlyphs"
text-anchor="start" opacity="0" stroke-opacity="0">3</text>
<g class="stroked-text"><desc>3</desc>
<path d="M135.2844 136.2994
L136.0892 136.2994
" />
<path d="M136.0892 136.2994
L135.6558 136.7946
" />
<path d="M135.6558 136.7946
L135.8415 136.7946
" />
<path d="M135.8415 136.7946
L135.9654 136.8565
" />
<path d="M135.9654 136.8565
L136.0273 136.9185
" />
<path d="M136.0273 136.9185
L136.0892 137.0423
" />
<path d="M136.0892 137.0423
L136.0892 137.3518
" />
<path d="M136.0892 137.3518
L136.0273 137.4756
" />
<path d="M136.0273 137.4756
L135.9654 137.5375
" />
<path d="M135.9654 137.5375
L135.8415 137.5994
" />
<path d="M135.8415 137.5994
L135.4701 137.5994
" />
<path d="M135.4701 137.5994
L135.3463 137.5375
" />
<path d="M135.3463 137.5375
L135.2844 137.4756
" />
</g></g>
<g style="fill:none; 
stroke:#000000; stroke-width:0.1500; stroke-opacity:1; 
stroke-linecap:round; stroke-linejoin:round;">
<text x="185.0000" y="137.6558"
textLength="1.4281" font-size="1.7333" lengthAdjust="spacingAndGlyphs"
text-anchor="start" opacity="0" stroke-opacity="0">4</text>
<g class="stroked-text"><desc>4</desc>
<path d="M185.9654 136.7327
L185.9654 137.5994
" />
<path d="M185.6558 136.2375
L185.3463 137.1661
" />
<path d="M185.3463 137.1661
L186.1511 137.1661
" />
</g></g>
<g style="fill:none; 
stroke:#000000; stroke-width:0.1500; stroke-opacity:1; 
stroke-linecap:round; stroke-linejoin:round;">
<path d="M10.0000 60.0000
L12.0000 60.0000
" />
</g>
<g style="fill:none; 
stroke:#000000; stroke-width:0.1500; stroke-opacity:1; 
stroke-linecap:round; stroke-linejoin:round;">
<path d="M10.0000 110.0000
L12.0000 110.0000
" />
</g>
<g style="fill:none; 
stroke:#000000; stroke-width:0.1500; stroke-opacity:1; 
stroke-linecap:round; stroke-linejoin:round;">
<text x="11.0000" y="35.6500"
textLength="1.3043" font-size="1.7333" lengthAdjust="spacingAndGlyphs"
text-anchor="middle" opacity="0" stroke-opacity="0">A</text>
<g class="stroked-text"><desc>A</desc>
<path d="M10.6905 35.2222
L11.3095 35.2222
" />
<path d="M10.5667 35.5936
L11.0000 34.2936
" />
<path d="M11.0000 34.2936
L11.4333 35.5936
" />
</g></g>
<g style="fill:none; 
stroke:#000000; stroke-width:0.1500; stroke-opacity:1; 
stroke-linecap:round; stroke-linejoin:round;">
<text x="11.0000" y="85.6500"
textLength="1.4900" font-size="1.7333" lengthAdjust="spacingAndGlyphs"
text-anchor="middle" opacity="0" stroke-opacity="0">B</text>
<g class="stroked-text"><desc>B</desc>
<path d="M11.0929 84.9127
L11.2786 84.9746
" />
<path d="M11.2786 84.9746
L11.3405 85.0365
" />
<path d="M11.3405 85.0365
L11.4024 85.1603
" />
<path d="M11.4024 85.1603
L11.4024 85.3460
" />
<path d="M11.4024 85.3460
L11.3405 85.4698
" />
<path d="M11.3405 85.4698
L11.2786 85.5317
" />
<path d="M11.2786 85.5317
L11.1548 85.5936
" />
<path d="M11.1548 85.5936
L10.6595 85.5936
" />
<path d="M10.6595 85.5936
L10.6595 84.2936
" />
<path d="M10.6595 84.2936
L11.0929 84.2936
" />
<path d="M11.0929 84.2936
L11.2167 84.3555
" />
<path d="M11.2167 84.3555
L11.2786 84.4174
" />
<path d="M11.2786 84.4174
L11.3405 84.5412
" />
<path d="M11.3405 84.5412
L11.3405 84.6650
" />
<path d="M11.3405 84.6650
L11.2786 84.7888
" />
<path d="M11.2786 84.7888
L11.2167 84.8507
" />
<path d="M11.2167 84.8507
L11.0929 84.9127
" />
<path d="M11.0929 84.9127
L10.6595 84.9127
" />
</g></g>
<g style="fill:none; 
stroke:#000000; stroke-width:0.1500; stroke-opacity:1; 
stroke-linecap:round; stroke-linejoin:round;">
<text x="11.0000" y="135.6500"
textLength="1.4900" font-size="1.7333" lengthAdjust="spacingAndGlyphs"
text-anchor="middle" opacity="0" stroke-opacity="0">C</text>
<g class="stroked-text"><desc>C</desc>
<path d="M11.4024 135.4698
L11.3405 135.5317
" />
<path d="M11.3405 135.5317
L11.1548 135.5936
" />
<path d="M11.1548 135.5936
L11.0310 135.5936
" />
<path d="M11.0310 135.5936
L10.8452 135.5317
" />
<path d="M10.8452 135.5317
L10.7214 135.4079
" />
<path d="M10.7214 135.4079
L10.6595 135.2841
" />
<path d="M10.6595 135.2841
L10.5976 135.0365
" />
<path d="M10.5976 135.0365
L10.5976 134.8507
" />
<path d="M10.5976 134.8507
L10.6595 134.6031
" />
<path d="M10.6595 134.6031
L10.7214 134.4793
" />
<path d="M10.7214 134.4793
L10.8452 134.3555
" />
<path d="M10.8452 134.3555
L11.0310 134.2936
" />
<path d="M11.0310 134.2936
L11.1548 134.2936
" />
<path d="M11.1548 134.2936
L11.3405 134.3555
" />
<path d="M11.3405 134.3555
L11.4024 134.4174
" />
</g></g>
<g style="fill:none; 
stroke:#000000; stroke-width:0.1500; stroke-opacity:1; 
stroke-linecap:round; stroke-linejoin:round;">
<path d="M200.0072 60.0000
L198.0072 60.0000
" />
</g>
<g style="fill:none; 
stroke:#000000; stroke-width:0.1500; stroke-opacity:1; 
stroke-linecap:round; stroke-linejoin:round;">
<path d="M200.0072 110.0000
L198.0072 110.0000
" />
</g>
<g style="fill:none; 
stroke:#000000; stroke-width:0.1500; stroke-opacity:1; 
stroke-linecap:round; stroke-linejoin:round;">
<text x="199.0072" y="35.6500"
textLength="1.3043" font-size="1.7333" lengthAdjust="spacingAndGlyphs"
text-anchor="middle" opacity="0" stroke-opacity="0">A</text>
<g class="stroked-text"><desc>A</desc>
<path d="M198.6977 35.2222
L199.3167 35.2222
" />
<path d="M198.5739 35.5936
L199.0072 34.2936
" />
<path d="M199.0072 34.2936
L199.4405 35.5936
" />
</g></g>
<g style="fill:none; 
stroke:#000000; stroke-width:0.1500; stroke-opacity:1; 
stroke-linecap:round; stroke-linejoin:round;">
<text x="199.0072" y="85.6500"
textLength="1.4900" font-size="1.7333" lengthAdjust="spacingAndGlyphs"
text-anchor="middle" opacity="0" stroke-opacity="0">B</text>
<g class="stroked-text"><desc>B</desc>
<path d="M199.1001 84.9127
L199.2858 84.9746
" />
<path d="M199.2858 84.9746
L199.3477 85.0365
" />
<path d="M199.3477 85.0365
L199.4096 85.1603
" />
<path d="M199.4096 85.1603
L199.4096 85.3460
" />
<path d="M199.4096 85.3460
L199.3477 85.4698
" />
<path d="M199.3477 85.4698
L199.2858 85.5317
" />
<path d="M199.2858 85.5317
L199.1620 85.5936
" />
<path d="M199.1620 85.5936
L198.6667 85.5936
" />
<path d="M198.6667 85.5936
L198.6667 84.2936
" />
<path d="M198.6667 84.2936
L199.1001 84.2936
" />
<path d="M199.1001 84.2936
L199.2239 84.3555
" />
<path d="M199.2239 84.3555
L199.2858 84.4174
" />
<path d="M199.2858 84.4174
L199.3477 84.5412
" />
<path d="M199.3477 84.5412
L199.3477 84.6650
" />
<path d="M199.3477 84.6650
L199.2858 84.7888
" />
<path d="M199.2858 84.7888
L199.2239 84.8507
" />
<path d="M199.2239 84.8507
L199.1001 84.9127
" />
<path d="M199.1001 84.9127
L198.6667 84.9127
" />
</g></g>
<g style="fill:none; 
stroke:#000000; stroke-width:0.1500; stroke-opacity:1; 
stroke-linecap:round; stroke-linejoin:round;">
<text x="199.0072" y="135.6500"
textLength="1.4900" font-size="1.7333" lengthAdjust="spacingAndGlyphs"
text-anchor="middle" opacity="0" stroke-opacity="0">C</text>
<g class="stroked-text"><desc>C</desc>
<path d="M199.4096 135.4698
L199.3477 135.5317
" />
<path d="M199.3477 135.5317
L199.1620 135.5936
" />
<path d="M199.1620 135.5936
L199.0382 135.5936
" />
<path d="M199.0382 135.5936
L198.8524 135.5317
" />
<path d="M198.8524 135.5317
L198.7286 135.4079
" />
<path d="M198.7286 135.4079
L198.6667 135.2841
" />
<path d="M198.6667 135.2841
L198.6048 135.0365
" />
<path d="M198.6048 135.0365
L198.6048 134.8507
" />
<path d="M198.6048 134.8507
L198.6667 134.6031
" />
<path d="M198.6667 134.6031
L198.7286 134.4793
" />
<path d="M198.7286 134.4793
L198.8524 134.3555
" />
<path d="M198.8524 134.3555
L199.0382 134.2936
" />
<path d="M199.0382 134.2936
L199.1620 134.2936
" />
<path d="M199.1620 134.2936
L199.3477 134.3555
" />
<path d="M199.3477 134.3555
L199.4096 134.4174
" />
</g></g>
<g style="fill:none; 
stroke:#000000; stroke-width:0.1500; stroke-opacity:1; 
stroke-linecap:round; stroke-linejoin:round;">
<text x="113.0072" y="131.8558"
textLength="7.0071" font-size="2.0000" lengthAdjust="spacingAndGlyphs"
text-anchor="start" opacity="0" stroke-opacity="0">Date: </text>
<g class="stroked-text"><desc>Date: </desc>
<path d="M113.4630 131.7919
L113.4630 130.2919
" />
<path d="M113.4630 130.2919
L113.8202 130.2919
" />
<path d="M113.8202 130.2919
L114.0345 130.3634
" />
<path d="M114.0345 130.3634
L114.1773 130.5062
" />
<path d="M114.1773 130.5062
L114.2487 130.6491
" />
<path d="M114.2487 130.6491
L114.3202 130.9348
" />
<path d="M114.3202 130.9348
L114.3202 131.1491
" />
<path d="M114.3202 131.1491
L114.2487 131.4348
" />
<path d="M114.2487 131.4348
L114.1773 131.5776
" />
<path d="M114.1773 131.5776
L114.0345 131.7205
" />
<path d="M114.0345 131.7205
L113.8202 131.7919
" />
<path d="M113.8202 131.7919
L113.4630 131.7919
" />
<path d="M115.6059 131.7919
L115.6059 131.0062
" />
<path d="M115.6059 131.0062
L115.5345 130.8634
" />
<path d="M115.5345 130.8634
L115.3916 130.7919
" />
<path d="M115.3916 130.7919
L115.1059 130.7919
" />
<path d="M115.1059 130.7919
L114.9630 130.8634
" />
<path d="M115.6059 131.7205
L115.4630 131.7919
" />
<path d="M115.4630 131.7919
L115.1059 131.7919
" />
<path d="M115.1059 131.7919
L114.9630 131.7205
" />
<path d="M114.9630 131.7205
L114.8916 131.5776
" />
<path d="M114.8916 131.5776
L114.8916 131.4348
" />
<path d="M114.8916 131.4348
L114.9630 131.2919
" />
<path d="M114.9630 131.2919
L115.1059 131.2205
" />
<path d="M115.1059 131.2205
L115.4630 131.2205
" />
<path d="M115.4630 131.2205
L115.6059 131.1491
" />
<path d="M116.1059 130.7919
L116.6773 130.7919
" />
<path d="M116.3202 130.2919
L116.3202 131.5776
" />
<path d="M116.3202 131.5776
L116.3916 131.7205
" />
<path d="M116.3916 131.7205
L116.5345 131.7919
" />
<path d="M116.5345 131.7919
L116.6773 131.7919
" />
<path d="M117.7487 131.7205
L117.6059 131.7919
" />
<path d="M117.6059 131.7919
L117.3202 131.7919
" />
<path d="M117.3202 131.7919
L117.1773 131.7205
" />
<path d="M117.1773 131.7205
L117.1059 131.5776
" />
<path d="M117.1059 131.5776
L117.1059 131.0062
" />
<path d="M117.1059 131.0062
L117.1773 130.8634
" />
<path d="M117.1773 130.8634
L117.3202 130.7919
" />
<path d="M117.3202 130.7919
L117.6059 130.7919
" />
<path d="M117.6059 130.7919
L117.7487 130.8634
" />
<path d="M117.7487 130.8634
L117.8202 131.0062
" />
<path d="M117.8202 131.0062
L117.8202 131.1491
" />
<path d="M117.8202 131.1491
L117.1059 131.2919
" />
<path d="M118.4630 131.6491
L118.5345 131.7205
" />
<path d="M118.5345 131.7205
L118.4630 131.7919
" />
<path d="M118.4630 131.7919
L118.3916 131.7205
" />
<path d="M118.3916 131.7205
L118.4630 131.6491
" />
<path d="M118.4630 131.6491
L118.4630 131.7919
" />
<path d="M118.4630 130.8634
L118.5345 130.9348
" />
<path d="M118.5345 130.9348
L118.4630 131.0062
" />
<path d="M118.4630 131.0062
L118.3916 130.9348
" />
<path d="M118.3916 130.9348
L118.4630 130.8634
" />
<path d="M118.4630 130.8634
L118.4630 131.0062
" />
</g></g>
<g style="fill:none; 
stroke:#000000; stroke-width:0.1500; stroke-opacity:1; 
stroke-linecap:round; stroke-linejoin:round;">
<path d="M90.0072 132.5058
L198.0072 132.5058
" />
</g>
<g style="fill:none; 
stroke:#000000; stroke-width:0.1500; stroke-opacity:1; 
stroke-linecap:round; stroke-linejoin:round;">
<text x="91.0072" y="134.6558"
textLength="20.8643" font-size="2.0000" lengthAdjust="spacingAndGlyphs"
text-anchor="start" opacity="0" stroke-opacity="0">KiCad E.D.A. 8.0.6</text>
<g class="stroked-text"><desc>KiCad E.D.A. 8.0.6</desc>
<path d="M91.4630 134.5919
L91.4630 133.0919
" />
<path d="M92.3202 134.5919
L91.6773 133.7348
" />
<path d="M92.3202 133.0919
L91.4630 133.9491
" />
<path d="M92.9630 134.5919
L92.9630 133.5919
" />
<path d="M92.9630 133.0919
L92.8916 133.1634
" />
<path d="M92.8916 133.1634
L92.9630 133.2348
" />
<path d="M92.9630 133.2348
L93.0345 133.1634
" />
<path d="M93.0345 133.1634
L92.9630 133.0919
" />
<path d="M92.9630 133.0919
L92.9630 133.2348
" />
<path d="M94.5345 134.4491
L94.4630 134.5205
" />
<path d="M94.4630 134.5205
L94.2487 134.5919
" />
<path d="M94.2487 134.5919
L94.1059 134.5919
" />
<path d="M94.1059 134.5919
L93.8916 134.5205
" />
<path d="M93.8916 134.5205
L93.7487 134.3776
" />
<path d="M93.7487 134.3776
L93.6773 134.2348
" />
<path d="M93.6773 134.2348
L93.6059 133.9491
" />
<path d="M93.6059 133.9491
L93.6059 133.7348
" />
<path d="M93.6059 133.7348
L93.6773 133.4491
" />
<path d="M93.6773 133.4491
L93.7487 133.3062
" />
<path d="M93.7487 133.3062
L93.8916 133.1634
" />
<path d="M93.8916 133.1634
L94.1059 133.0919
" />
<path d="M94.1059 133.0919
L94.2487 133.0919
" />
<path d="M94.2487 133.0919
L94.4630 133.1634
" />
<path d="M94.4630 133.1634
L94.5345 133.2348
" />
<path d="M95.8202 134.5919
L95.8202 133.8062
" />
<path d="M95.8202 133.8062
L95.7487 133.6634
" />
<path d="M95.7487 133.6634
L95.6059 133.5919
" />
<path d="M95.6059 133.5919
L95.3202 133.5919
" />
<path d="M95.3202 133.5919
L95.1773 133.6634
" />
<path d="M95.8202 134.5205
L95.6773 134.5919
" />
<path d="M95.6773 134.5919
L95.3202 134.5919
" />
<path d="M95.3202 134.5919
L95.1773 134.5205
" />
<path d="M95.1773 134.5205
L95.1059 134.3776
" />
<path d="M95.1059 134.3776
L95.1059 134.2348
" />
<path d="M95.1059 134.2348
L95.1773 134.0919
" />
<path d="M95.1773 134.0919
L95.3202 134.0205
" />
<path d="M95.3202 134.0205
L95.6773 134.0205
" />
<path d="M95.6773 134.0205
L95.8202 133.9491
" />
<path d="M97.1773 134.5919
L97.1773 133.0919
" />
<path d="M97.1773 134.5205
L97.0345 134.5919
" />
<path d="M97.0345 134.5919
L96.7487 134.5919
" />
<path d="M96.7487 134.5919
L96.6059 134.5205
" />
<path d="M96.6059 134.5205
L96.5345 134.4491
" />
<path d="M96.5345 134.4491
L96.4630 134.3062
" />
<path d="M96.4630 134.3062
L96.4630 133.8776
" />
<path d="M96.4630 133.8776
L96.5345 133.7348
" />
<path d="M96.5345 133.7348
L96.6059 133.6634
" />
<path d="M96.6059 133.6634
L96.7487 133.5919
" />
<path d="M96.7487 133.5919
L97.0345 133.5919
" />
<path d="M97.0345 133.5919
L97.1773 133.6634
" />
<path d="M99.0345 133.8062
L99.5345 133.8062
" />
<path d="M99.7487 134.5919
L99.0345 134.5919
" />
<path d="M99.0345 134.5919
L99.0345 133.0919
" />
<path d="M99.0345 133.0919
L99.7487 133.0919
" />
<path d="M100.3916 134.4491
L100.4630 134.5205
" />
<path d="M100.4630 134.5205
L100.3916 134.5919
" />
<path d="M100.3916 134.5919
L100.3202 134.5205
" />
<path d="M100.3202 134.5205
L100.3916 134.4491
" />
<path d="M100.3916 134.4491
L100.3916 134.5919
" />
<path d="M101.1059 134.5919
L101.1059 133.0919
" />
<path d="M101.1059 133.0919
L101.4630 133.0919
" />
<path d="M101.4630 133.0919
L101.6773 133.1634
" />
<path d="M101.6773 133.1634
L101.8202 133.3062
" />
<path d="M101.8202 133.3062
L101.8916 133.4491
" />
<path d="M101.8916 133.4491
L101.9630 133.7348
" />
<path d="M101.9630 133.7348
L101.9630 133.9491
" />
<path d="M101.9630 133.9491
L101.8916 134.2348
" />
<path d="M101.8916 134.2348
L101.8202 134.3776
" />
<path d="M101.8202 134.3776
L101.6773 134.5205
" />
<path d="M101.6773 134.5205
L101.4630 134.5919
" />
<path d="M101.4630 134.5919
L101.1059 134.5919
" />
<path d="M102.6059 134.4491
L102.6773 134.5205
" />
<path d="M102.6773 134.5205
L102.6059 134.5919
" />
<path d="M102.6059 134.5919
L102.5345 134.5205
" />
<path d="M102.5345 134.5205
L102.6059 134.4491
" />
<path d="M102.6059 134.4491
L102.6059 134.5919
" />
<path d="M103.2487 134.1634
L103.9630 134.1634
" />
<path d="M103.1059 134.5919
L103.6059 133.0919
" />
<path d="M103.6059 133.0919
L104.1059 134.5919
" />
<path d="M104.6059 134.4491
L104.6773 134.5205
" />
<path d="M104.6773 134.5205
L104.6059 134.5919
" />
<path d="M104.6059 134.5919
L104.5345 134.5205
" />
<path d="M104.5345 134.5205
L104.6059 134.4491
" />
<path d="M104.6059 134.4491
L104.6059 134.5919
" />
<path d="M106.6773 133.7348
L106.5345 133.6634
" />
<path d="M106.5345 133.6634
L106.4630 133.5919
" />
<path d="M106.4630 133.5919
L106.3916 133.4491
" />
<path d="M106.3916 133.4491
L106.3916 133.3776
" />
<path d="M106.3916 133.3776
L106.4630 133.2348
" />
<path d="M106.4630 133.2348
L106.5345 133.1634
" />
<path d="M106.5345 133.1634
L106.6773 133.0919
" />
<path d="M106.6773 133.0919
L106.9630 133.0919
" />
<path d="M106.9630 133.0919
L107.1059 133.1634
" />
<path d="M107.1059 133.1634
L107.1773 133.2348
" />
<path d="M107.1773 133.2348
L107.2487 133.3776
" />
<path d="M107.2487 133.3776
L107.2487 133.4491
" />
<path d="M107.2487 133.4491
L107.1773 133.5919
" />
<path d="M107.1773 133.5919
L107.1059 133.6634
" />
<path d="M107.1059 133.6634
L106.9630 133.7348
" />
<path d="M106.9630 133.7348
L106.6773 133.7348
" />
<path d="M106.6773 133.7348
L106.5345 133.8062
" />
<path d="M106.5345 133.8062
L106.4630 133.8776
" />
<path d="M106.4630 133.8776
L106.3916 134.0205
" />
<path d="M106.3916 134.0205
L106.3916 134.3062
" />
<path d="M106.3916 134.3062
L106.4630 134.4491
" />
<path d="M106.4630 134.4491
L106.5345 134.5205
" />
<path d="M106.5345 134.5205
L106.6773 134.5919
" />
<path d="M106.6773 134.5919
L106.9630 134.5919
" />
<path d="M106.9630 134.5919
L107.1059 134.5205
" />
<path d="M107.1059 134.5205
L107.1773 134.4491
" />
<path d="M107.1773 134.4491
L107.2487 134.3062
" />
<path d="M107.2487 134.3062
L107.2487 134.0205
" />
<path d="M107.2487 134.0205
L107.1773 133.8776
" />
<path d="M107.1773 133.8776
L107.1059 133.8062
" />
<path d="M107.1059 133.8062
L106.9630 133.7348
" />
<path d="M107.8916 134.4491
L107.9630 134.5205
" />
<path d="M107.9630 134.5205
L107.8916 134.5919
" />
<path d="M107.8916 134.5919
L107.8202 134.5205
" />
<path d="M107.8202 134.5205
L107.8916 134.4491
" />
<path d="M107.8916 134.4491
L107.8916 134.5919
" />
<path d="M108.8916 133.0919
L109.0345 133.0919
" />
<path d="M109.0345 133.0919
L109.1773 133.1634
" />
<path d="M109.1773 133.1634
L109.2487 133.2348
" />
<path d="M109.2487 133.2348
L109.3202 133.3776
" />
<path d="M109.3202 133.3776
L109.3916 133.6634
" />
<path d="M109.3916 133.6634
L109.3916 134.0205
" />
<path d="M109.3916 134.0205
L109.3202 134.3062
" />
<path d="M109.3202 134.3062
L109.2487 134.4491
" />
<path d="M109.2487 134.4491
L109.1773 134.5205
" />
<path d="M109.1773 134.5205
L109.0345 134.5919
" />
<path d="M109.0345 134.5919
L108.8916 134.5919
" />
<path d="M108.8916 134.5919
L108.7487 134.5205
" />
<path d="M108.7487 134.5205
L108.6773 134.4491
" />
<path d="M108.6773 134.4491
L108.6059 134.3062
" />
<path d="M108.6059 134.3062
L108.5345 134.0205
" />
<path d="M108.5345 134.0205
L108.5345 133.6634
" />
<path d="M108.5345 133.6634
L108.6059 133.3776
" />
<path d="M108.6059 133.3776
L108.6773 133.2348
" />
<path d="M108.6773 133.2348
L108.7487 133.1634
" />
<path d="M108.7487 133.1634
L108.8916 133.0919
" />
<path d="M110.0345 134.4491
L110.1059 134.5205
" />
<path d="M110.1059 134.5205
L110.0345 134.5919
" />
<path d="M110.0345 134.5919
L109.9630 134.5205
" />
<path d="M109.9630 134.5205
L110.0345 134.4491
" />
<path d="M110.0345 134.4491
L110.0345 134.5919
" />
<path d="M111.3916 133.0919
L111.1059 133.0919
" />
<path d="M111.1059 133.0919
L110.9630 133.1634
" />
<path d="M110.9630 133.1634
L110.8916 133.2348
" />
<path d="M110.8916 133.2348
L110.7487 133.4491
" />
<path d="M110.7487 133.4491
L110.6773 133.7348
" />
<path d="M110.6773 133.7348
L110.6773 134.3062
" />
<path d="M110.6773 134.3062
L110.7487 134.4491
" />
<path d="M110.7487 134.4491
L110.8202 134.5205
" />
<path d="M110.8202 134.5205
L110.9630 134.5919
" />
<path d="M110.9630 134.5919
L111.2487 134.5919
" />
<path d="M111.2487 134.5919
L111.3916 134.5205
" />
<path d="M111.3916 134.5205
L111.4630 134.4491
" />
<path d="M111.4630 134.4491
L111.5345 134.3062
" />
<path d="M111.5345 134.3062
L111.5345 133.9491
" />
<path d="M111.5345 133.9491
L111.4630 133.8062
" />
<path d="M111.4630 133.8062
L111.3916 133.7348
" />
<path d="M111.3916 133.7348
L111.2487 133.6634
" />
<path d="M111.2487 133.6634
L110.9630 133.6634
" />
<path d="M110.9630 133.6634
L110.8202 133.7348
" />
<path d="M110.8202 133.7348
L110.7487 133.8062
" />
<path d="M110.7487 133.8062
L110.6773 133.9491
" />
</g></g>
<g style="fill:none; 
stroke:#000000; stroke-width:0.1500; stroke-opacity:1; 
stroke-linecap:round; stroke-linejoin:round;">
<path d="M90.0072 129.5058
L198.0072 129.5058
" />
</g>
<g style="fill:none; 
stroke:#000000; stroke-width:0.3000; stroke-opacity:1; 
stroke-linecap:round; stroke-linejoin:round;">
<text x="176.0072" y="131.8558"
textLength="6.3857" font-size="2.0000" lengthAdjust="spacingAndGlyphs"
text-anchor="start" opacity="0" stroke-opacity="0">Rev: </text>
<g class="stroked-text"><desc>Rev: </desc>
<path d="M177.4189 131.7841
L176.9189 131.0698
" />
<path d="M176.5617 131.7841
L176.5617 130.2841
" />
<path d="M176.5617 130.2841
L177.1331 130.2841
" />
<path d="M177.1331 130.2841
L177.2760 130.3556
" />
<path d="M177.2760 130.3556
L177.3474 130.4270
" />
<path d="M177.3474 130.4270
L177.4189 130.5698
" />
<path d="M177.4189 130.5698
L177.4189 130.7841
" />
<path d="M177.4189 130.7841
L177.3474 130.9270
" />
<path d="M177.3474 130.9270
L177.2760 130.9984
" />
<path d="M177.2760 130.9984
L177.1331 131.0698
" />
<path d="M177.1331 131.0698
L176.5617 131.0698
" />
<path d="M178.6331 131.7127
L178.4903 131.7841
" />
<path d="M178.4903 131.7841
L178.2046 131.7841
" />
<path d="M178.2046 131.7841
L178.0617 131.7127
" />
<path d="M178.0617 131.7127
L177.9903 131.5698
" />
<path d="M177.9903 131.5698
L177.9903 130.9984
" />
<path d="M177.9903 130.9984
L178.0617 130.8556
" />
<path d="M178.0617 130.8556
L178.2046 130.7841
" />
<path d="M178.2046 130.7841
L178.4903 130.7841
" />
<path d="M178.4903 130.7841
L178.6331 130.8556
" />
<path d="M178.6331 130.8556
L178.7046 130.9984
" />
<path d="M178.7046 130.9984
L178.7046 131.1413
" />
<path d="M178.7046 131.1413
L177.9903 131.2841
" />
<path d="M179.2046 130.7841
L179.5617 131.7841
" />
<path d="M179.5617 131.7841
L179.9189 130.7841
" />
<path d="M180.4903 131.6413
L180.5617 131.7127
" />
<path d="M180.5617 131.7127
L180.4903 131.7841
" />
<path d="M180.4903 131.7841
L180.4189 131.7127
" />
<path d="M180.4189 131.7127
L180.4903 131.6413
" />
<path d="M180.4903 131.6413
L180.4903 131.7841
" />
<path d="M180.4903 130.8556
L180.5617 130.9270
" />
<path d="M180.5617 130.9270
L180.4903 130.9984
" />
<path d="M180.4903 130.9984
L180.4189 130.9270
" />
<path d="M180.4189 130.9270
L180.4903 130.8556
" />
<path d="M180.4903 130.8556
L180.4903 130.9984
" />
</g></g>
<g style="fill:none; 
stroke:#000000; stroke-width:0.1500; stroke-opacity:1; 
stroke-linecap:round; stroke-linejoin:round;">
<text x="91.0072" y="131.8558"
textLength="9.3643" font-size="2.0000" lengthAdjust="spacingAndGlyphs"
text-anchor="start" opacity="0" stroke-opacity="0">Size: A5</text>
<g class="stroked-text"><desc>Size: A5</desc>
<path d="M91.3916 131.7205
L91.6059 131.7919
" />
<path d="M91.6059 131.7919
L91.9630 131.7919
" />
<path d="M91.9630 131.7919
L92.1059 131.7205
" />
<path d="M92.1059 131.7205
L92.1773 131.6491
" />
<path d="M92.1773 131.6491
L92.2487 131.5062
" />
<path d="M92.2487 131.5062
L92.2487 131.3634
" />
<path d="M92.2487 131.3634
L92.1773 131.2205
" />
<path d="M92.1773 131.2205
L92.1059 131.1491
" />
<path d="M92.1059 131.1491
L91.9630 131.0776
" />
<path d="M91.9630 131.0776
L91.6773 131.0062
" />
<path d="M91.6773 131.0062
L91.5345 130.9348
" />
<path d="M91.5345 130.9348
L91.4630 130.8634
" />
<path d="M91.4630 130.8634
L91.3916 130.7205
" />
<path d="M91.3916 130.7205
L91.3916 130.5776
" />
<path d="M91.3916 130.5776
L91.4630 130.4348
" />
<path d="M91.4630 130.4348
L91.5345 130.3634
" />
<path d="M91.5345 130.3634
L91.6773 130.2919
" />
<path d="M91.6773 130.2919
L92.0345 130.2919
" />
<path d="M92.0345 130.2919
L92.2487 130.3634
" />
<path d="M92.8916 131.7919
L92.8916 130.7919
" />
<path d="M92.8916 130.2919
L92.8202 130.3634
" />
<path d="M92.8202 130.3634
L92.8916 130.4348
" />
<path d="M92.8916 130.4348
L92.9630 130.3634
" />
<path d="M92.9630 130.3634
L92.8916 130.2919
" />
<path d="M92.8916 130.2919
L92.8916 130.4348
" />
<path d="M93.4630 130.7919
L94.2487 130.7919
" />
<path d="M94.2487 130.7919
L93.4630 131.7919
" />
<path d="M93.4630 131.7919
L94.2487 131.7919
" />
<path d="M95.3916 131.7205
L95.2487 131.7919
" />
<path d="M95.2487 131.7919
L94.9630 131.7919
" />
<path d="M94.9630 131.7919
L94.8202 131.7205
" />
<path d="M94.8202 131.7205
L94.7487 131.5776
" />
<path d="M94.7487 131.5776
L94.7487 131.0062
" />
<path d="M94.7487 131.0062
L94.8202 130.8634
" />
<path d="M94.8202 130.8634
L94.9630 130.7919
" />
<path d="M94.9630 130.7919
L95.2487 130.7919
" />
<path d="M95.2487 130.7919
L95.3916 130.8634
" />
<path d="M95.3916 130.8634
L95.4630 131.0062
" />
<path d="M95.4630 131.0062
L95.4630 131.1491
" />
<path d="M95.4630 131.1491
L94.7487 131.2919
" />
<path d="M96.1059 131.6491
L96.1773 131.7205
" />
<path d="M96.1773 131.7205
L96.1059 131.7919
" />
<path d="M96.1059 131.7919
L96.0345 131.7205
" />
<path d="M96.0345 131.7205
L96.1059 131.6491
" />
<path d="M96.1059 131.6491
L96.1059 131.7919
" />
<path d="M96.1059 130.8634
L96.1773 130.9348
" />
<path d="M96.1773 130.9348
L96.1059 131.0062
" />
<path d="M96.1059 131.0062
L96.0345 130.9348
" />
<path d="M96.0345 130.9348
L96.1059 130.8634
" />
<path d="M96.1059 130.8634
L96.1059 131.0062
" />
<path d="M97.8916 131.3634
L98.6059 131.3634
" />
<path d="M97.7487 131.7919
L98.2487 130.2919
" />
<path d="M98.2487 130.2919
L98.7487 131.7919
" />
<path d="M99.9630 130.2919
L99.2487 130.2919
" />
<path d="M99.2487 130.2919
L99.1773 131.0062
" />
<path d="M99.1773 131.0062
L99.2487 130.9348
" />
<path d="M99.2487 130.9348
L99.3916 130.8634
" />
<path d="M99.3916 130.8634
L99.7487 130.8634
" />
<path d="M99.7487 130.8634
L99.8916 130.9348
" />
<path d="M99.8916 130.9348
L99.9630 131.0062
" />
<path d="M99.9630 131.0062
L100.0345 131.1491
" />
<path d="M100.0345 131.1491
L100.0345 131.5062
" />
<path d="M100.0345 131.5062
L99.9630 131.6491
" />
<path d="M99.9630 131.6491
L99.8916 131.7205
" />
<path d="M99.8916 131.7205
L99.7487 131.7919
" />
<path d="M99.7487 131.7919
L99.3916 131.7919
" />
<path d="M99.3916 131.7919
L99.2487 131.7205
" />
<path d="M99.2487 131.7205
L99.1773 131.6491
" />
</g></g>
<g style="fill:none; 
stroke:#000000; stroke-width:0.1500; stroke-opacity:1; 
stroke-linecap:round; stroke-linejoin:round;">
<text x="176.0072" y="134.6558"
textLength="8.5071" font-size="2.0000" lengthAdjust="spacingAndGlyphs"
text-anchor="start" opacity="0" stroke-opacity="0">Id: 1/1</text>
<g class="stroked-text"><desc>Id: 1/1</desc>
<path d="M176.4630 134.5919
L176.4630 133.0919
" />
<path d="M177.8202 134.5919
L177.8202 133.0919
" />
<path d="M177.8202 134.5205
L177.6773 134.5919
" />
<path d="M177.6773 134.5919
L177.3916 134.5919
" />
<path d="M177.3916 134.5919
L177.2487 134.5205
" />
<path d="M177.2487 134.5205
L177.1773 134.4491
" />
<path d="M177.1773 134.4491
L177.1059 134.3062
" />
<path d="M177.1059 134.3062
L177.1059 133.8776
" />
<path d="M177.1059 133.8776
L177.1773 133.7348
" />
<path d="M177.1773 133.7348
L177.2487 133.6634
" />
<path d="M177.2487 133.6634
L177.3916 133.5919
" />
<path d="M177.3916 133.5919
L177.6773 133.5919
" />
<path d="M177.6773 133.5919
L177.8202 133.6634
" />
<path d="M178.5345 134.4491
L178.6059 134.5205
" />
<path d="M178.6059 134.5205
L178.5345 134.5919
" />
<path d="M178.5345 134.5919
L178.4630 134.5205
" />
<path d="M178.4630 134.5205
L178.5345 134.4491
" />
<path d="M178.5345 134.4491
L178.5345 134.5919
" />
<path d="M178.5345 133.6634
L178.6059 133.7348
" />
<path d="M178.6059 133.7348
L178.5345 133.8062
" />
<path d="M178.5345 133.8062
L178.4630 133.7348
" />
<path d="M178.4630 133.7348
L178.5345 133.6634
" />
<path d="M178.5345 133.6634
L178.5345 133.8062
" />
<path d="M181.1773 134.5919
L180.3202 134.5919
" />
<path d="M180.7487 134.5919
L180.7487 133.0919
" />
<path d="M180.7487 133.0919
L180.6059 133.3062
" />
<path d="M180.6059 133.3062
L180.4630 133.4491
" />
<path d="M180.4630 133.4491
L180.3202 133.5205
" />
<path d="M182.8916 133.0205
L181.6059 134.9491
" />
<path d="M184.1773 134.5919
L183.3202 134.5919
" />
<path d="M183.7487 134.5919
L183.7487 133.0919
" />
<path d="M183.7487 133.0919
L183.6059 133.3062
" />
<path d="M183.6059 133.3062
L183.4630 133.4491
" />
<path d="M183.4630 133.4491
L183.3202 133.5205
" />
</g></g>
<g style="fill:none; 
stroke:#000000; stroke-width:0.1500; stroke-opacity:1; 
stroke-linecap:round; stroke-linejoin:round;">
<path d="M90.0072 125.5058
L198.0072 125.5058
" />
</g>
<g style="fill:none; 
stroke:#000000; stroke-width:0.4000; stroke-opacity:1; 
stroke-linecap:round; stroke-linejoin:round;">
<text x="91.0072" y="128.3058"
textLength="9.6571" font-size="2.6667" lengthAdjust="spacingAndGlyphs"
text-anchor="start" opacity="0" stroke-opacity="0">Title: </text>
<g class="stroked-text"><desc>Title: </desc>
<path d="M91.6989 126.2102
L92.8418 126.2102
" />
<path d="M92.0204 128.2102
L92.2704 126.2102
" />
<path d="M93.2585 128.2102
L93.4251 126.8769
" />
<path d="M93.5085 126.2102
L93.4013 126.3055
" />
<path d="M93.4013 126.3055
L93.4846 126.4007
" />
<path d="M93.4846 126.4007
L93.5918 126.3055
" />
<path d="M93.5918 126.3055
L93.5085 126.2102
" />
<path d="M93.5085 126.2102
L93.4846 126.4007
" />
<path d="M94.0918 126.8769
L94.8537 126.8769
" />
<path d="M94.4608 126.2102
L94.2465 127.9245
" />
<path d="M94.2465 127.9245
L94.3180 128.1150
" />
<path d="M94.3180 128.1150
L94.4965 128.2102
" />
<path d="M94.4965 128.2102
L94.6870 128.2102
" />
<path d="M95.6394 128.2102
L95.4608 128.1150
" />
<path d="M95.4608 128.1150
L95.3894 127.9245
" />
<path d="M95.3894 127.9245
L95.6037 126.2102
" />
<path d="M97.1751 128.1150
L96.9727 128.2102
" />
<path d="M96.9727 128.2102
L96.5918 128.2102
" />
<path d="M96.5918 128.2102
L96.4132 128.1150
" />
<path d="M96.4132 128.1150
L96.3418 127.9245
" />
<path d="M96.3418 127.9245
L96.4370 127.1626
" />
<path d="M96.4370 127.1626
L96.5561 126.9721
" />
<path d="M96.5561 126.9721
L96.7585 126.8769
" />
<path d="M96.7585 126.8769
L97.1394 126.8769
" />
<path d="M97.1394 126.8769
L97.3180 126.9721
" />
<path d="M97.3180 126.9721
L97.3894 127.1626
" />
<path d="M97.3894 127.1626
L97.3656 127.3531
" />
<path d="M97.3656 127.3531
L96.3894 127.5436
" />
<path d="M98.1394 128.0198
L98.2227 128.1150
" />
<path d="M98.2227 128.1150
L98.1156 128.2102
" />
<path d="M98.1156 128.2102
L98.0323 128.1150
" />
<path d="M98.0323 128.1150
L98.1394 128.0198
" />
<path d="M98.1394 128.0198
L98.1156 128.2102
" />
<path d="M98.2704 126.9721
L98.3537 127.0674
" />
<path d="M98.3537 127.0674
L98.2465 127.1626
" />
<path d="M98.2465 127.1626
L98.1632 127.0674
" />
<path d="M98.1632 127.0674
L98.2704 126.9721
" />
<path d="M98.2704 126.9721
L98.2465 127.1626
" />
</g></g>
<g style="fill:none; 
stroke:#000000; stroke-width:0.1500; stroke-opacity:1; 
stroke-linecap:round; stroke-linejoin:round;">
<text x="91.0072" y="124.4558"
textLength="25.7929" font-size="2.0000" lengthAdjust="spacingAndGlyphs"
text-anchor="start" opacity="0" stroke-opacity="0">File: Battery.kicad_pcb</text>
<g class="stroked-text"><desc>File: Battery.kicad_pcb</desc>
<path d="M91.9630 123.6062
L91.4630 123.6062
" />
<path d="M91.4630 124.3919
L91.4630 122.8919
" />
<path d="M91.4630 122.8919
L92.1773 122.8919
" />
<path d="M92.7487 124.3919
L92.7487 123.3919
" />
<path d="M92.7487 122.8919
L92.6773 122.9634
" />
<path d="M92.6773 122.9634
L92.7487 123.0348
" />
<path d="M92.7487 123.0348
L92.8202 122.9634
" />
<path d="M92.8202 122.9634
L92.7487 122.8919
" />
<path d="M92.7487 122.8919
L92.7487 123.0348
" />
<path d="M93.6773 124.3919
L93.5345 124.3205
" />
<path d="M93.5345 124.3205
L93.4630 124.1776
" />
<path d="M93.4630 124.1776
L93.4630 122.8919
" />
<path d="M94.8202 124.3205
L94.6773 124.3919
" />
<path d="M94.6773 124.3919
L94.3916 124.3919
" />
<path d="M94.3916 124.3919
L94.2487 124.3205
" />
<path d="M94.2487 124.3205
L94.1773 124.1776
" />
<path d="M94.1773 124.1776
L94.1773 123.6062
" />
<path d="M94.1773 123.6062
L94.2487 123.4634
" />
<path d="M94.2487 123.4634
L94.3916 123.3919
" />
<path d="M94.3916 123.3919
L94.6773 123.3919
" />
<path d="M94.6773 123.3919
L94.8202 123.4634
" />
<path d="M94.8202 123.4634
L94.8916 123.6062
" />
<path d="M94.8916 123.6062
L94.8916 123.7491
" />
<path d="M94.8916 123.7491
L94.1773 123.8919
" />
<path d="M95.5345 124.2491
L95.6059 124.3205
" />
<path d="M95.6059 124.3205
L95.5345 124.3919
" />
<path d="M95.5345 124.3919
L95.4630 124.3205
" />
<path d="M95.4630 124.3205
L95.5345 124.2491
" />
<path d="M95.5345 124.2491
L95.5345 124.3919
" />
<path d="M95.5345 123.4634
L95.6059 123.5348
" />
<path d="M95.6059 123.5348
L95.5345 123.6062
" />
<path d="M95.5345 123.6062
L95.4630 123.5348
" />
<path d="M95.4630 123.5348
L95.5345 123.4634
" />
<path d="M95.5345 123.4634
L95.5345 123.6062
" />
<path d="M97.8916 123.6062
L98.1059 123.6776
" />
<path d="M98.1059 123.6776
L98.1773 123.7491
" />
<path d="M98.1773 123.7491
L98.2487 123.8919
" />
<path d="M98.2487 123.8919
L98.2487 124.1062
" />
<path d="M98.2487 124.1062
L98.1773 124.2491
" />
<path d="M98.1773 124.2491
L98.1059 124.3205
" />
<path d="M98.1059 124.3205
L97.9630 124.3919
" />
<path d="M97.9630 124.3919
L97.3916 124.3919
" />
<path d="M97.3916 124.3919
L97.3916 122.8919
" />
<path d="M97.3916 122.8919
L97.8916 122.8919
" />
<path d="M97.8916 122.8919
L98.0345 122.9634
" />
<path d="M98.0345 122.9634
L98.1059 123.0348
" />
<path d="M98.1059 123.0348
L98.1773 123.1776
" />
<path d="M98.1773 123.1776
L98.1773 123.3205
" />
<path d="M98.1773 123.3205
L98.1059 123.4634
" />
<path d="M98.1059 123.4634
L98.0345 123.5348
" />
<path d="M98.0345 123.5348
L97.8916 123.6062
" />
<path d="M97.8916 123.6062
L97.3916 123.6062
" />
<path d="M99.5345 124.3919
L99.5345 123.6062
" />
<path d="M99.5345 123.6062
L99.4630 123.4634
" />
<path d="M99.4630 123.4634
L99.3202 123.3919
" />
<path d="M99.3202 123.3919
L99.0345 123.3919
" />
<path d="M99.0345 123.3919
L98.8916 123.4634
" />
<path d="M99.5345 124.3205
L99.3916 124.3919
" />
<path d="M99.3916 124.3919
L99.0345 124.3919
" />
<path d="M99.0345 124.3919
L98.8916 124.3205
" />
<path d="M98.8916 124.3205
L98.8202 124.1776
" />
<path d="M98.8202 124.1776
L98.8202 124.0348
" />
<path d="M98.8202 124.0348
L98.8916 123.8919
" />
<path d="M98.8916 123.8919
L99.0345 123.8205
" />
<path d="M99.0345 123.8205
L99.3916 123.8205
" />
<path d="M99.3916 123.8205
L99.5345 123.7491
" />
<path d="M100.0345 123.3919
L100.6059 123.3919
" />
<path d="M100.2487 122.8919
L100.2487 124.1776
" />
<path d="M100.2487 124.1776
L100.3202 124.3205
" />
<path d="M100.3202 124.3205
L100.4630 124.3919
" />
<path d="M100.4630 124.3919
L100.6059 124.3919
" />
<path d="M100.8916 123.3919
L101.4630 123.3919
" />
<path d="M101.1059 122.8919
L101.1059 124.1776
" />
<path d="M101.1059 124.1776
L101.1773 124.3205
" />
<path d="M101.1773 124.3205
L101.3202 124.3919
" />
<path d="M101.3202 124.3919
L101.4630 124.3919
" />
<path d="M102.5345 124.3205
L102.3916 124.3919
" />
<path d="M102.3916 124.3919
L102.1059 124.3919
" />
<path d="M102.1059 124.3919
L101.9630 124.3205
" />
<path d="M101.9630 124.3205
L101.8916 124.1776
" />
<path d="M101.8916 124.1776
L101.8916 123.6062
" />
<path d="M101.8916 123.6062
L101.9630 123.4634
" />
<path d="M101.9630 123.4634
L102.1059 123.3919
" />
<path d="M102.1059 123.3919
L102.3916 123.3919
" />
<path d="M102.3916 123.3919
L102.5345 123.4634
" />
<path d="M102.5345 123.4634
L102.6059 123.6062
" />
<path d="M102.6059 123.6062
L102.6059 123.7491
" />
<path d="M102.6059 123.7491
L101.8916 123.8919
" />
<path d="M103.2487 124.3919
L103.2487 123.3919
" />
<path d="M103.2487 123.6776
L103.3202 123.5348
" />
<path d="M103.3202 123.5348
L103.3916 123.4634
" />
<path d="M103.3916 123.4634
L103.5345 123.3919
" />
<path d="M103.5345 123.3919
L103.6773 123.3919
" />
<path d="M104.0345 123.3919
L104.3916 124.3919
" />
<path d="M104.7487 123.3919
L104.3916 124.3919
" />
<path d="M104.3916 124.3919
L104.2487 124.7491
" />
<path d="M104.2487 124.7491
L104.1773 124.8205
" />
<path d="M104.1773 124.8205
L104.0345 124.8919
" />
<path d="M105.3202 124.2491
L105.3916 124.3205
" />
<path d="M105.3916 124.3205
L105.3202 124.3919
" />
<path d="M105.3202 124.3919
L105.2487 124.3205
" />
<path d="M105.2487 124.3205
L105.3202 124.2491
" />
<path d="M105.3202 124.2491
L105.3202 124.3919
" />
<path d="M106.0345 124.3919
L106.0345 122.8919
" />
<path d="M106.1773 123.8205
L106.6059 124.3919
" />
<path d="M106.6059 123.3919
L106.0345 123.9634
" />
<path d="M107.2487 124.3919
L107.2487 123.3919
" />
<path d="M107.2487 122.8919
L107.1773 122.9634
" />
<path d="M107.1773 122.9634
L107.2487 123.0348
" />
<path d="M107.2487 123.0348
L107.3202 122.9634
" />
<path d="M107.3202 122.9634
L107.2487 122.8919
" />
<path d="M107.2487 122.8919
L107.2487 123.0348
" />
<path d="M108.6059 124.3205
L108.4630 124.3919
" />
<path d="M108.4630 124.3919
L108.1773 124.3919
" />
<path d="M108.1773 124.3919
L108.0345 124.3205
" />
<path d="M108.0345 124.3205
L107.9630 124.2491
" />
<path d="M107.9630 124.2491
L107.8916 124.1062
" />
<path d="M107.8916 124.1062
L107.8916 123.6776
" />
<path d="M107.8916 123.6776
L107.9630 123.5348
" />
<path d="M107.9630 123.5348
L108.0345 123.4634
" />
<path d="M108.0345 123.4634
L108.1773 123.3919
" />
<path d="M108.1773 123.3919
L108.4630 123.3919
" />
<path d="M108.4630 123.3919
L108.6059 123.4634
" />
<path d="M109.8916 124.3919
L109.8916 123.6062
" />
<path d="M109.8916 123.6062
L109.8202 123.4634
" />
<path d="M109.8202 123.4634
L109.6773 123.3919
" />
<path d="M109.6773 123.3919
L109.3916 123.3919
" />
<path d="M109.3916 123.3919
L109.2487 123.4634
" />
<path d="M109.8916 124.3205
L109.7487 124.3919
" />
<path d="M109.7487 124.3919
L109.3916 124.3919
" />
<path d="M109.3916 124.3919
L109.2487 124.3205
" />
<path d="M109.2487 124.3205
L109.1773 124.1776
" />
<path d="M109.1773 124.1776
L109.1773 124.0348
" />
<path d="M109.1773 124.0348
L109.2487 123.8919
" />
<path d="M109.2487 123.8919
L109.3916 123.8205
" />
<path d="M109.3916 123.8205
L109.7487 123.8205
" />
<path d="M109.7487 123.8205
L109.8916 123.7491
" />
<path d="M111.2487 124.3919
L111.2487 122.8919
" />
<path d="M111.2487 124.3205
L111.1059 124.3919
" />
<path d="M111.1059 124.3919
L110.8202 124.3919
" />
<path d="M110.8202 124.3919
L110.6773 124.3205
" />
<path d="M110.6773 124.3205
L110.6059 124.2491
" />
<path d="M110.6059 124.2491
L110.5345 124.1062
" />
<path d="M110.5345 124.1062
L110.5345 123.6776
" />
<path d="M110.5345 123.6776
L110.6059 123.5348
" />
<path d="M110.6059 123.5348
L110.6773 123.4634
" />
<path d="M110.6773 123.4634
L110.8202 123.3919
" />
<path d="M110.8202 123.3919
L111.1059 123.3919
" />
<path d="M111.1059 123.3919
L111.2487 123.4634
" />
<path d="M111.6059 124.5348
L112.7487 124.5348
" />
<path d="M113.1059 123.3919
L113.1059 124.8919
" />
<path d="M113.1059 123.4634
L113.2487 123.3919
" />
<path d="M113.2487 123.3919
L113.5345 123.3919
" />
<path d="M113.5345 123.3919
L113.6773 123.4634
" />
<path d="M113.6773 123.4634
L113.7487 123.5348
" />
<path d="M113.7487 123.5348
L113.8202 123.6776
" />
<path d="M113.8202 123.6776
L113.8202 124.1062
" />
<path d="M113.8202 124.1062
L113.7487 124.2491
" />
<path d="M113.7487 124.2491
L113.6773 124.3205
" />
<path d="M113.6773 124.3205
L113.5345 124.3919
" />
<path d="M113.5345 124.3919
L113.2487 124.3919
" />
<path d="M113.2487 124.3919
L113.1059 124.3205
" />
<path d="M115.1059 124.3205
L114.9630 124.3919
" />
<path d="M114.9630 124.3919
L114.6773 124.3919
" />
<path d="M114.6773 124.3919
L114.5345 124.3205
" />
<path d="M114.5345 124.3205
L114.4630 124.2491
" />
<path d="M114.4630 124.2491
L114.3916 124.1062
" />
<path d="M114.3916 124.1062
L114.3916 123.6776
" />
<path d="M114.3916 123.6776
L114.4630 123.5348
" />
<path d="M114.4630 123.5348
L114.5345 123.4634
" />
<path d="M114.5345 123.4634
L114.6773 123.3919
" />
<path d="M114.6773 123.3919
L114.9630 123.3919
" />
<path d="M114.9630 123.3919
L115.1059 123.4634
" />
<path d="M115.7487 124.3919
L115.7487 122.8919
" />
<path d="M115.7487 123.4634
L115.8916 123.3919
" />
<path d="M115.8916 123.3919
L116.1773 123.3919
" />
<path d="M116.1773 123.3919
L116.3202 123.4634
" />
<path d="M116.3202 123.4634
L116.3916 123.5348
" />
<path d="M116.3916 123.5348
L116.4630 123.6776
" />
<path d="M116.4630 123.6776
L116.4630 124.1062
" />
<path d="M116.4630 124.1062
L116.3916 124.2491
" />
<path d="M116.3916 124.2491
L116.3202 124.3205
" />
<path d="M116.3202 124.3205
L116.1773 124.3919
" />
<path d="M116.1773 124.3919
L115.8916 124.3919
" />
<path d="M115.8916 124.3919
L115.7487 124.3205
" />
</g></g>
<g style="fill:none; 
stroke:#000000; stroke-width:0.1500; stroke-opacity:1; 
stroke-linecap:round; stroke-linejoin:round;">
<path d="M90.0072 119.5058
L198.0072 119.5058
" />
</g>
<g style="fill:none; 
stroke:#000000; stroke-width:0.1500; stroke-opacity:1; 
stroke-linecap:round; stroke-linejoin:round;">
<text x="91.0072" y="121.7558"
textLength="8.2214" font-size="2.0000" lengthAdjust="spacingAndGlyphs"
text-anchor="start" opacity="0" stroke-opacity="0">Sheet: </text>
<g class="stroked-text"><desc>Sheet: </desc>
<path d="M91.3916 121.6205
L91.6059 121.6919
" />
<path d="M91.6059 121.6919
L91.9630 121.6919
" />
<path d="M91.9630 121.6919
L92.1059 121.6205
" />
<path d="M92.1059 121.6205
L92.1773 121.5491
" />
<path d="M92.1773 121.5491
L92.2487 121.4062
" />
<path d="M92.2487 121.4062
L92.2487 121.2634
" />
<path d="M92.2487 121.2634
L92.1773 121.1205
" />
<path d="M92.1773 121.1205
L92.1059 121.0491
" />
<path d="M92.1059 121.0491
L91.9630 120.9776
" />
<path d="M91.9630 120.9776
L91.6773 120.9062
" />
<path d="M91.6773 120.9062
L91.5345 120.8348
" />
<path d="M91.5345 120.8348
L91.4630 120.7634
" />
<path d="M91.4630 120.7634
L91.3916 120.6205
" />
<path d="M91.3916 120.6205
L91.3916 120.4776
" />
<path d="M91.3916 120.4776
L91.4630 120.3348
" />
<path d="M91.4630 120.3348
L91.5345 120.2634
" />
<path d="M91.5345 120.2634
L91.6773 120.1919
" />
<path d="M91.6773 120.1919
L92.0345 120.1919
" />
<path d="M92.0345 120.1919
L92.2487 120.2634
" />
<path d="M92.8916 121.6919
L92.8916 120.1919
" />
<path d="M93.5345 121.6919
L93.5345 120.9062
" />
<path d="M93.5345 120.9062
L93.4630 120.7634
" />
<path d="M93.4630 120.7634
L93.3202 120.6919
" />
<path d="M93.3202 120.6919
L93.1059 120.6919
" />
<path d="M93.1059 120.6919
L92.9630 120.7634
" />
<path d="M92.9630 120.7634
L92.8916 120.8348
" />
<path d="M94.8202 121.6205
L94.6773 121.6919
" />
<path d="M94.6773 121.6919
L94.3916 121.6919
" />
<path d="M94.3916 121.6919
L94.2487 121.6205
" />
<path d="M94.2487 121.6205
L94.1773 121.4776
" />
<path d="M94.1773 121.4776
L94.1773 120.9062
" />
<path d="M94.1773 120.9062
L94.2487 120.7634
" />
<path d="M94.2487 120.7634
L94.3916 120.6919
" />
<path d="M94.3916 120.6919
L94.6773 120.6919
" />
<path d="M94.6773 120.6919
L94.8202 120.7634
" />
<path d="M94.8202 120.7634
L94.8916 120.9062
" />
<path d="M94.8916 120.9062
L94.8916 121.0491
" />
<path d="M94.8916 121.0491
L94.1773 121.1919
" />
<path d="M96.1059 121.6205
L95.9630 121.6919
" />
<path d="M95.9630 121.6919
L95.6773 121.6919
" />
<path d="M95.6773 121.6919
L95.5345 121.6205
" />
<path d="M95.5345 121.6205
L95.4630 121.4776
" />
<path d="M95.4630 121.4776
L95.4630 120.9062
" />
<path d="M95.4630 120.9062
L95.5345 120.7634
" />
<path d="M95.5345 120.7634
L95.6773 120.6919
" />
<path d="M95.6773 120.6919
L95.9630 120.6919
" />
<path d="M95.9630 120.6919
L96.1059 120.7634
" />
<path d="M96.1059 120.7634
L96.1773 120.9062
" />
<path d="M96.1773 120.9062
L96.1773 121.0491
" />
<path d="M96.1773 121.0491
L95.4630 121.1919
" />
<path d="M96.6059 120.6919
L97.1773 120.6919
" />
<path d="M96.8202 120.1919
L96.8202 121.4776
" />
<path d="M96.8202 121.4776
L96.8916 121.6205
" />
<path d="M96.8916 121.6205
L97.0345 121.6919
" />
<path d="M97.0345 121.6919
L97.1773 121.6919
" />
<path d="M97.6773 121.5491
L97.7487 121.6205
" />
<path d="M97.7487 121.6205
L97.6773 121.6919
" />
<path d="M97.6773 121.6919
L97.6059 121.6205
" />
<path d="M97.6059 121.6205
L97.6773 121.5491
" />
<path d="M97.6773 121.5491
L97.6773 121.6919
" />
<path d="M97.6773 120.7634
L97.7487 120.8348
" />
<path d="M97.7487 120.8348
L97.6773 120.9062
" />
<path d="M97.6773 120.9062
L97.6059 120.8348
" />
<path d="M97.6059 120.8348
L97.6773 120.7634
" />
<path d="M97.6773 120.7634
L97.6773 120.9062
" />
</g></g>
<g style="fill:none; 
stroke:#000000; stroke-width:0.3000; stroke-opacity:1; 
stroke-linecap:round; stroke-linejoin:round;">
<text x="91.0072" y="118.7558"
textLength="0.9000" font-size="2.0000" lengthAdjust="spacingAndGlyphs"
text-anchor="start" opacity="0" stroke-opacity="0"></text>
<g class="stroked-text"><desc></desc>
</g></g>
<g style="fill:none; 
stroke:#000000; stroke-width:0.1500; stroke-opacity:1; 
stroke-linecap:round; stroke-linejoin:round;">
<text x="91.0072" y="115.7558"
textLength="0.4500" font-size="2.0000" lengthAdjust="spacingAndGlyphs"
text-anchor="start" opacity="0" stroke-opacity="0"></text>
<g class="stroked-text"><desc></desc>
</g></g>
<g style="fill:none; 
stroke:#000000; stroke-width:0.1500; stroke-opacity:1; 
stroke-linecap:round; stroke-linejoin:round;">
<text x="91.0072" y="112.7558"
textLength="0.4500" font-size="2.0000" lengthAdjust="spacingAndGlyphs"
text-anchor="start" opacity="0" stroke-opacity="0"></text>
<g class="stroked-text"><desc></desc>
</g></g>
<g style="fill:none; 
stroke:#000000; stroke-width:0.1500; stroke-opacity:1; 
stroke-linecap:round; stroke-linejoin:round;">
<text x="91.0072" y="109.7558"
textLength="0.4500" font-size="2.0000" lengthAdjust="spacingAndGlyphs"
text-anchor="start" opacity="0" stroke-opacity="0"></text>
<g class="stroked-text"><desc></desc>
</g></g>
<g style="fill:none; 
stroke:#000000; stroke-width:0.1500; stroke-opacity:1; 
stroke-linecap:round; stroke-linejoin:round;">
<text x="91.0072" y="106.7558"
textLength="0.4500" font-size="2.0000" lengthAdjust="spacingAndGlyphs"
text-anchor="start" opacity="0" stroke-opacity="0"></text>
<g class="stroked-text"><desc></desc>
</g></g>
<g style="fill:none; 
stroke:#000000; stroke-width:0.1500; stroke-opacity:1; 
stroke-linecap:round; stroke-linejoin:round;">
<path d="M110.0072 129.5058
L110.0072 132.5058
" />
</g>
<g style="fill:none; 
stroke:#000000; stroke-width:0.1500; stroke-opacity:1; 
stroke-linecap:round; stroke-linejoin:round;">
<path d="M174.0072 129.5058
L174.0072 136.0058
" />
</g>
<g style="fill:none; 
stroke:#000000; stroke-width:0.0600; stroke-opacity:1; 
stroke-linecap:round; stroke-linejoin:round;">
<g transform="rotate(-90.000000 40.9125 21.8625)">
<text x="40.9125" y="22.0625"
textLength="1.2619" font-size="0.5333" lengthAdjust="spacingAndGlyphs"
text-anchor="middle" opacity="0" stroke-opacity="0">R13</text>
</g>
<g class="stroked-text"><desc>R13</desc>
<path d="M41.0944 22.1196
L40.9040 22.2530
" />
<path d="M41.0944 22.3482
L40.6944 22.3482
" />
<path d="M40.6944 22.3482
L40.6944 22.1958
" />
<path d="M40.6944 22.1958
L40.7135 22.1577
" />
<path d="M40.7135 22.1577
L40.7325 22.1387
" />
<path d="M40.7325 22.1387
L40.7706 22.1196
" />
<path d="M40.7706 22.1196
L40.8278 22.1196
" />
<path d="M40.8278 22.1196
L40.8659 22.1387
" />
<path d="M40.8659 22.1387
L40.8849 22.1577
" />
<path d="M40.8849 22.1577
L40.9040 22.1958
" />
<path d="M40.9040 22.1958
L40.9040 22.3482
" />
<path d="M41.0944 21.7387
L41.0944 21.9673
" />
<path d="M41.0944 21.8530
L40.6944 21.8530
" />
<path d="M40.6944 21.8530
L40.7516 21.8911
" />
<path d="M40.7516 21.8911
L40.7897 21.9292
" />
<path d="M40.7897 21.9292
L40.8087 21.9673
" />
<path d="M40.6944 21.6054
L40.6944 21.3577
" />
<path d="M40.6944 21.3577
L40.8468 21.4911
" />
<path d="M40.8468 21.4911
L40.8468 21.4339
" />
<path d="M40.8468 21.4339
L40.8659 21.3958
" />
<path d="M40.8659 21.3958
L40.8849 21.3768
" />
<path d="M40.8849 21.3768
L40.9230 21.3577
" />
<path d="M40.9230 21.3577
L41.0182 21.3577
" />
<path d="M41.0182 21.3577
L41.0563 21.3768
" />
<path d="M41.0563 21.3768
L41.0754 21.3958
" />
<path d="M41.0754 21.3958
L41.0944 21.4339
" />
<path d="M41.0944 21.4339
L41.0944 21.5482
" />
<path d="M41.0944 21.5482
L41.0754 21.5863
" />
<path d="M41.0754 21.5863
L41.0563 21.6054
" />
</g></g>
<g style="fill:none; 
stroke:#000000; stroke-width:0.1000; stroke-opacity:1; 
stroke-linecap:round; stroke-linejoin:round;">
<text x="28.1450" y="1.0000"
textLength="1.7238" font-size="0.6667" lengthAdjust="spacingAndGlyphs"
text-anchor="middle" opacity="0" stroke-opacity="0">SW1</text>
<g class="stroked-text"><desc>SW1</desc>
<path d="M27.4783 0.9523
L27.5498 0.9761
" />
<path d="M27.5498 0.9761
L27.6688 0.9761
" />
<path d="M27.6688 0.9761
L27.7164 0.9523
" />
<path d="M27.7164 0.9523
L27.7402 0.9285
" />
<path d="M27.7402 0.9285
L27.7640 0.8809
" />
<path d="M27.7640 0.8809
L27.7640 0.8333
" />
<path d="M27.7640 0.8333
L27.7402 0.7856
" />
<path d="M27.7402 0.7856
L27.7164 0.7618
" />
<path d="M27.7164 0.7618
L27.6688 0.7380
" />
<path d="M27.6688 0.7380
L27.5736 0.7142
" />
<path d="M27.5736 0.7142
L27.5260 0.6904
" />
<path d="M27.5260 0.6904
L27.5021 0.6666
" />
<path d="M27.5021 0.6666
L27.4783 0.6190
" />
<path d="M27.4783 0.6190
L27.4783 0.5713
" />
<path d="M27.4783 0.5713
L27.5021 0.5237
" />
<path d="M27.5021 0.5237
L27.5260 0.4999
" />
<path d="M27.5260 0.4999
L27.5736 0.4761
" />
<path d="M27.5736 0.4761
L27.6926 0.4761
" />
<path d="M27.6926 0.4761
L27.7640 0.4999
" />
<path d="M27.9307 0.4761
L28.0498 0.9761
" />
<path d="M28.0498 0.9761
L28.1450 0.6190
" />
<path d="M28.1450 0.6190
L28.2402 0.9761
" />
<path d="M28.2402 0.9761
L28.3593 0.4761
" />
<path d="M28.8117 0.9761
L28.5260 0.9761
" />
<path d="M28.6688 0.9761
L28.6688 0.4761
" />
<path d="M28.6688 0.4761
L28.6212 0.5475
" />
<path d="M28.6212 0.5475
L28.5736 0.5952
" />
<path d="M28.5736 0.5952
L28.5260 0.6190
" />
</g></g>
<g style="fill:none; 
stroke:#000000; stroke-width:0.0750; stroke-opacity:1; 
stroke-linecap:round; stroke-linejoin:round;">
<text x="44.0250" y="21.3625"
textLength="1.1250" font-size="0.6667" lengthAdjust="spacingAndGlyphs"
text-anchor="middle" opacity="0" stroke-opacity="0">U6</text>
<g class="stroked-text"><desc>U6</desc>
<path d="M43.6440 20.8399
L43.6440 21.2447
" />
<path d="M43.6440 21.2447
L43.6679 21.2923
" />
<path d="M43.6679 21.2923
L43.6917 21.3161
" />
<path d="M43.6917 21.3161
L43.7393 21.3399
" />
<path d="M43.7393 21.3399
L43.8345 21.3399
" />
<path d="M43.8345 21.3399
L43.8821 21.3161
" />
<path d="M43.8821 21.3161
L43.9060 21.2923
" />
<path d="M43.9060 21.2923
L43.9298 21.2447
" />
<path d="M43.9298 21.2447
L43.9298 20.8399
" />
<path d="M44.3821 20.8399
L44.2869 20.8399
" />
<path d="M44.2869 20.8399
L44.2393 20.8637
" />
<path d="M44.2393 20.8637
L44.2155 20.8875
" />
<path d="M44.2155 20.8875
L44.1679 20.9590
" />
<path d="M44.1679 20.9590
L44.1440 21.0542
" />
<path d="M44.1440 21.0542
L44.1440 21.2447
" />
<path d="M44.1440 21.2447
L44.1679 21.2923
" />
<path d="M44.1679 21.2923
L44.1917 21.3161
" />
<path d="M44.1917 21.3161
L44.2393 21.3399
" />
<path d="M44.2393 21.3399
L44.3345 21.3399
" />
<path d="M44.3345 21.3399
L44.3821 21.3161
" />
<path d="M44.3821 21.3161
L44.4060 21.2923
" />
<path d="M44.4060 21.2923
L44.4298 21.2447
" />
<path d="M44.4298 21.2447
L44.4298 21.1256
" />
<path d="M44.4298 21.1256
L44.4060 21.0780
" />
<path d="M44.4060 21.0780
L44.3821 21.0542
" />
<path d="M44.3821 21.0542
L44.3345 21.0304
" />
<path d="M44.3345 21.0304
L44.2393 21.0304
" />
<path d="M44.2393 21.0304
L44.1917 21.0542
" />
<path d="M44.1917 21.0542
L44.1679 21.0780
" />
<path d="M44.1679 21.0780
L44.1440 21.1256
" />
</g><text x="21.8575" y="7.2750"
textLength="1.1250" font-size="0.6667" lengthAdjust="spacingAndGlyphs"
text-anchor="middle" opacity="0" stroke-opacity="0">U8</text>
<g class="stroked-text"><desc>U8</desc>
<path d="M21.4765 6.7524
L21.4765 7.1572
" />
<path d="M21.4765 7.1572
L21.5004 7.2048
" />
<path d="M21.5004 7.2048
L21.5242 7.2286
" />
<path d="M21.5242 7.2286
L21.5718 7.2524
" />
<path d="M21.5718 7.2524
L21.6670 7.2524
" />
<path d="M21.6670 7.2524
L21.7146 7.2286
" />
<path d="M21.7146 7.2286
L21.7385 7.2048
" />
<path d="M21.7385 7.2048
L21.7623 7.1572
" />
<path d="M21.7623 7.1572
L21.7623 6.7524
" />
<path d="M22.0718 6.9667
L22.0242 6.9429
" />
<path d="M22.0242 6.9429
L22.0004 6.9191
" />
<path d="M22.0004 6.9191
L21.9765 6.8715
" />
<path d="M21.9765 6.8715
L21.9765 6.8476
" />
<path d="M21.9765 6.8476
L22.0004 6.8000
" />
<path d="M22.0004 6.8000
L22.0242 6.7762
" />
<path d="M22.0242 6.7762
L22.0718 6.7524
" />
<path d="M22.0718 6.7524
L22.1670 6.7524
" />
<path d="M22.1670 6.7524
L22.2146 6.7762
" />
<path d="M22.2146 6.7762
L22.2385 6.8000
" />
<path d="M22.2385 6.8000
L22.2623 6.8476
" />
<path d="M22.2623 6.8476
L22.2623 6.8715
" />
<path d="M22.2623 6.8715
L22.2385 6.9191
" />
<path d="M22.2385 6.9191
L22.2146 6.9429
" />
<path d="M22.2146 6.9429
L22.1670 6.9667
" />
<path d="M22.1670 6.9667
L22.0718 6.9667
" />
<path d="M22.0718 6.9667
L22.0242 6.9905
" />
<path d="M22.0242 6.9905
L22.0004 7.0143
" />
<path d="M22.0004 7.0143
L21.9765 7.0619
" />
<path d="M21.9765 7.0619
L21.9765 7.1572
" />
<path d="M21.9765 7.1572
L22.0004 7.2048
" />
<path d="M22.0004 7.2048
L22.0242 7.2286
" />
<path d="M22.0242 7.2286
L22.0718 7.2524
" />
<path d="M22.0718 7.2524
L22.1670 7.2524
" />
<path d="M22.1670 7.2524
L22.2146 7.2286
" />
<path d="M22.2146 7.2286
L22.2385 7.2048
" />
<path d="M22.2385 7.2048
L22.2623 7.1572
" />
<path d="M22.2623 7.1572
L22.2623 7.0619
" />
<path d="M22.2623 7.0619
L22.2385 7.0143
" />
<path d="M22.2385 7.0143
L22.2146 6.9905
" />
<path d="M22.2146 6.9905
L22.1670 6.9667
" />
</g><text x="21.0750" y="21.1500"
textLength="1.1250" font-size="0.6667" lengthAdjust="spacingAndGlyphs"
text-anchor="middle" opacity="0" stroke-opacity="0">U2</text>
<g class="stroked-text"><desc>U2</desc>
<path d="M20.6940 20.6274
L20.6940 21.0322
" />
<path d="M20.6940 21.0322
L20.7179 21.0798
" />
<path d="M20.7179 21.0798
L20.7417 21.1036
" />
<path d="M20.7417 21.1036
L20.7893 21.1274
" />
<path d="M20.7893 21.1274
L20.8845 21.1274
" />
<path d="M20.8845 21.1274
L20.9321 21.1036
" />
<path d="M20.9321 21.1036
L20.9560 21.0798
" />
<path d="M20.9560 21.0798
L20.9798 21.0322
" />
<path d="M20.9798 21.0322
L20.9798 20.6274
" />
<path d="M21.1940 20.6750
L21.2179 20.6512
" />
<path d="M21.2179 20.6512
L21.2655 20.6274
" />
<path d="M21.2655 20.6274
L21.3845 20.6274
" />
<path d="M21.3845 20.6274
L21.4321 20.6512
" />
<path d="M21.4321 20.6512
L21.4560 20.6750
" />
<path d="M21.4560 20.6750
L21.4798 20.7226
" />
<path d="M21.4798 20.7226
L21.4798 20.7703
" />
<path d="M21.4798 20.7703
L21.4560 20.8417
" />
<path d="M21.4560 20.8417
L21.1702 21.1274
" />
<path d="M21.1702 21.1274
L21.4798 21.1274
" />
</g><text x="12.5500" y="10.1500"
textLength="1.1250" font-size="0.6667" lengthAdjust="spacingAndGlyphs"
text-anchor="middle" opacity="0" stroke-opacity="0">Q2</text>
<g class="stroked-text"><desc>Q2</desc>
<path d="M12.5024 10.1750
L12.4548 10.1512
" />
<path d="M12.4548 10.1512
L12.4071 10.1036
" />
<path d="M12.4071 10.1036
L12.3357 10.0322
" />
<path d="M12.3357 10.0322
L12.2881 10.0084
" />
<path d="M12.2881 10.0084
L12.2405 10.0084
" />
<path d="M12.2643 10.1274
L12.2167 10.1036
" />
<path d="M12.2167 10.1036
L12.1690 10.0560
" />
<path d="M12.1690 10.0560
L12.1452 9.9607
" />
<path d="M12.1452 9.9607
L12.1452 9.7941
" />
<path d="M12.1452 9.7941
L12.1690 9.6988
" />
<path d="M12.1690 9.6988
L12.2167 9.6512
" />
<path d="M12.2167 9.6512
L12.2643 9.6274
" />
<path d="M12.2643 9.6274
L12.3595 9.6274
" />
<path d="M12.3595 9.6274
L12.4071 9.6512
" />
<path d="M12.4071 9.6512
L12.4548 9.6988
" />
<path d="M12.4548 9.6988
L12.4786 9.7941
" />
<path d="M12.4786 9.7941
L12.4786 9.9607
" />
<path d="M12.4786 9.9607
L12.4548 10.0560
" />
<path d="M12.4548 10.0560
L12.4071 10.1036
" />
<path d="M12.4071 10.1036
L12.3595 10.1274
" />
<path d="M12.3595 10.1274
L12.2643 10.1274
" />
<path d="M12.6690 9.6750
L12.6929 9.6512
" />
<path d="M12.6929 9.6512
L12.7405 9.6274
" />
<path d="M12.7405 9.6274
L12.8595 9.6274
" />
<path d="M12.8595 9.6274
L12.9071 9.6512
" />
<path d="M12.9071 9.6512
L12.9310 9.6750
" />
<path d="M12.9310 9.6750
L12.9548 9.7226
" />
<path d="M12.9548 9.7226
L12.9548 9.7703
" />
<path d="M12.9548 9.7703
L12.9310 9.8417
" />
<path d="M12.9310 9.8417
L12.6452 10.1274
" />
<path d="M12.6452 10.1274
L12.9548 10.1274
" />
</g></g>
<g style="fill:none; 
stroke:#000000; stroke-width:0.1500; stroke-opacity:1; 
stroke-linecap:round; stroke-linejoin:round;">
<text x="47.8000" y="3.0500"
textLength="2.2500" font-size="1.3333" lengthAdjust="spacingAndGlyphs"
text-anchor="middle" opacity="0" stroke-opacity="0">H2</text>
<g class="stroked-text"><desc>H2</desc>
<path d="M47.0381 3.0048
L47.0381 2.0048
" />
<path d="M47.0381 2.4810
L47.6095 2.4810
" />
<path d="M47.6095 3.0048
L47.6095 2.0048
" />
<path d="M48.0381 2.1001
L48.0857 2.0524
" />
<path d="M48.0857 2.0524
L48.1810 2.0048
" />
<path d="M48.1810 2.0048
L48.4190 2.0048
" />
<path d="M48.4190 2.0048
L48.5143 2.0524
" />
<path d="M48.5143 2.0524
L48.5619 2.1001
" />
<path d="M48.5619 2.1001
L48.6095 2.1953
" />
<path d="M48.6095 2.1953
L48.6095 2.2905
" />
<path d="M48.6095 2.2905
L48.5619 2.4334
" />
<path d="M48.5619 2.4334
L47.9905 3.0048
" />
<path d="M47.9905 3.0048
L48.6095 3.0048
" />
</g></g>
<g style="fill:none; 
stroke:#000000; stroke-width:0.0900; stroke-opacity:1; 
stroke-linecap:round; stroke-linejoin:round;">
<g transform="rotate(-90.000000 30.3500 17.6250)">
<text x="30.3500" y="17.9350"
textLength="1.2384" font-size="0.8267" lengthAdjust="spacingAndGlyphs"
text-anchor="middle" opacity="0" stroke-opacity="0">L1</text>
</g>
<g class="stroked-text"><desc>L1</desc>
<path d="M30.6321 17.7283
L30.6321 18.0236
" />
<path d="M30.6321 18.0236
L30.0121 18.0236
" />
<path d="M30.6321 17.1969
L30.6321 17.5512
" />
<path d="M30.6321 17.3740
L30.0121 17.3740
" />
<path d="M30.0121 17.3740
L30.1007 17.4331
" />
<path d="M30.1007 17.4331
L30.1598 17.4921
" />
<path d="M30.1598 17.4921
L30.1893 17.5512
" />
</g></g>
<g style="fill:none; 
stroke:#000000; stroke-width:0.1500; stroke-opacity:1; 
stroke-linecap:round; stroke-linejoin:round;">
<text x="2.8000" y="23.0000"
textLength="2.2500" font-size="1.3333" lengthAdjust="spacingAndGlyphs"
text-anchor="middle" opacity="0" stroke-opacity="0">H1</text>
<g class="stroked-text"><desc>H1</desc>
<path d="M2.0381 22.9548
L2.0381 21.9548
" />
<path d="M2.0381 22.4310
L2.6095 22.4310
" />
<path d="M2.6095 22.9548
L2.6095 21.9548
" />
<path d="M3.6095 22.9548
L3.0381 22.9548
" />
<path d="M3.3238 22.9548
L3.3238 21.9548
" />
<path d="M3.3238 21.9548
L3.2286 22.0977
" />
<path d="M3.2286 22.0977
L3.1333 22.1929
" />
<path d="M3.1333 22.1929
L3.0381 22.2405
" />
</g></g>
<g style="fill:none; 
stroke:#000000; stroke-width:0.1000; stroke-opacity:1; 
stroke-linecap:round; stroke-linejoin:round;">
<path d="M18.3250 20.8650
L18.8250 20.8650
" />
<path d="M18.3250 21.8650
L18.3250 20.8650
" />
<path d="M18.8250 20.8650
L18.8250 21.8650
" />
<path d="M18.8250 21.8650
L18.3250 21.8650
" />
</g>
<g style="fill:none; 
stroke:#000000; stroke-width:0.1200; stroke-opacity:1; 
stroke-linecap:round; stroke-linejoin:round;">
<path d="M0.3300 6.3000
L6.3300 6.3000
" />
<path d="M0.3300 18.7000
L0.3300 6.3000
" />
<path d="M6.3300 6.3000
L6.3300 18.7000
" />
<path d="M6.3300 18.7000
L0.3300 18.7000
" />
</g>
<g style="fill:none; 
stroke:#000000; stroke-width:0.1000; stroke-opacity:1; 
stroke-linecap:round; stroke-linejoin:round;">
<path d="M40.5000 21.0625
L41.3250 21.0625
" />
<path d="M40.5000 22.6625
L40.5000 21.0625
" />
<path d="M41.3250 21.0625
L41.3250 22.6625
" />
<path d="M41.3250 22.6625
L40.5000 22.6625
" />
<path d="M24.1000 15.8250
L25.9000 15.8250
" />
<path d="M24.1000 17.2250
L24.1000 15.8250
" />
<path d="M24.7000 16.1750
L24.7000 16.8750
" />
<path d="M24.7000 16.5250
L24.5000 16.5250
" />
<path d="M24.7000 16.5250
L25.2000 16.1750
" />
<path d="M25.2000 16.1750
L25.2000 16.8750
" />
<path d="M25.2000 16.5250
L25.4500 16.5250
" />
<path d="M25.2000 16.8750
L24.7000 16.5250
" />
<path d="M25.9000 15.8250
L25.9000 17.2250
" />
<path d="M25.9000 17.2250
L24.1000 17.2250
" />
</g>
<g style="fill:none; 
stroke:#000000; stroke-width:0.1200; stroke-opacity:1; 
stroke-linecap:round; stroke-linejoin:round;">
<path d="M43.6700 6.3000
L49.6700 6.3000
" />
<path d="M43.6700 18.7000
L43.6700 6.3000
" />
<path d="M49.6700 6.3000
L49.6700 18.7000
" />
<path d="M49.6700 18.7000
L43.6700 18.7000
" />
</g>
<g style="fill:none; 
stroke:#000000; stroke-width:0.1000; stroke-opacity:1; 
stroke-linecap:round; stroke-linejoin:round;">
<path d="M35.2000 20.4000
L36.4000 20.4000
" />
<path d="M35.2000 22.4000
L35.2000 20.4000
" />
<path d="M36.4000 20.4000
L36.4000 22.4000
" />
<path d="M36.4000 22.4000
L35.2000 22.4000
" />
<path d="M19.1250 7.3500
L19.6250 7.3500
" />
<path d="M19.1250 8.3500
L19.1250 7.3500
" />
<path d="M19.6250 7.3500
L19.6250 8.3500
" />
<path d="M19.6250 8.3500
L19.1250 8.3500
" />
<path d="M21.0000 4.2000
L22.0000 4.2000
" />
<path d="M21.0000 4.7000
L21.0000 4.2000
" />
<path d="M22.0000 4.2000
L22.0000 4.7000
" />
<path d="M22.0000 4.7000
L21.0000 4.7000
" />
<path d="M20.6125 1.1500
L20.6125 1.9500
" />
<path d="M20.6125 1.9500
L21.9125 1.9500
" />
<path d="M21.9125 1.9500
L22.2125 1.6500
" />
<path d="M22.2125 1.1500
L20.6125 1.1500
" />
<path d="M22.2125 1.6500
L22.2125 1.1500
" />
<path d="M24.1450 0.2500
L24.1450 4.6500
" />
<path d="M28.4450 -3.7500
L30.4450 -3.7500
" />
<path d="M28.4450 0.2500
L28.4450 -3.7500
" />
<path d="M30.4450 -3.7500
L30.4450 0.2500
" />
<path d="M32.7450 0.2500
L24.1450 0.2500
" />
<path d="M32.7450 4.6500
L24.1450 4.6500
" />
<path d="M32.7450 4.6500
L32.7450 0.2500
" />
<path d="M27.9500 19.9500
L28.9500 19.9500
" />
<path d="M27.9500 20.4500
L27.9500 19.9500
" />
<path d="M28.9500 19.9500
L28.9500 20.4500
" />
<path d="M28.9500 20.4500
L27.9500 20.4500
" />
<path d="M36.0250 10.1500
L36.0250 17.7500
" />
<path d="M36.0250 17.7500
L36.7250 17.7500
" />
<path d="M36.7250 16.1500
L41.2250 16.1500
" />
<path d="M36.7250 17.7500
L36.7250 16.1500
" />
<path d="M39.4750 15.0250
L39.9750 15.5250
" />
<path d="M39.9750 15.5250
L40.4750 15.0250
" />
<path d="M40.4750 15.0250
L39.4750 15.0250
" />
<path d="M41.2250 16.1500
L41.2250 17.7500
" />
<path d="M41.2250 17.7500
L41.9250 17.7500
" />
<path d="M41.9250 10.1500
L36.0250 10.1500
" />
<path d="M41.9250 17.7500
L41.9250 10.1500
" />
<path d="M9.1800 5.9000
L9.1800 -1.1000
" />
<path d="M18.1200 -1.1000
L9.1800 -1.1000
" />
<path d="M18.1200 5.9000
L9.1800 5.9000
" />
<path d="M18.1200 5.9000
L18.1200 -1.1000
" />
<path d="M43.1250 20.2125
L43.1250 22.6625
" />
<path d="M43.1250 20.2125
L43.7750 19.5625
" />
<path d="M44.9250 19.5625
L43.7750 19.5625
" />
<path d="M44.9250 19.5625
L44.9250 22.6625
" />
<path d="M44.9250 22.6625
L43.1250 22.6625
" />
<path d="M36.5150 5.8050
L40.9600 5.8050
" />
<path d="M36.5150 8.3450
L36.5150 5.8050
" />
<path d="M40.9600 5.8050
L41.5950 6.4400
" />
<path d="M41.5950 6.4400
L41.5950 8.3450
" />
<path d="M41.5950 8.3450
L36.5150 8.3450
" />
</g>
<g style="fill:none; 
stroke:#000000; stroke-width:0.1200; stroke-opacity:1; 
stroke-linecap:round; stroke-linejoin:round;">
<path d="M8.1150 7.3000
L9.8150 7.3000
" />
<path d="M8.1150 9.0000
L8.1150 7.3000
" />
<path d="M9.8150 7.3000
L9.8150 9.0000
" />
<path d="M9.8150 9.0000
L8.1150 9.0000
" />
</g>
<g style="fill:none; 
stroke:#000000; stroke-width:0.1000; stroke-opacity:1; 
stroke-linecap:round; stroke-linejoin:round;">
<path d="M23.3250 20.0000
L23.8250 20.0000
" />
<path d="M23.3250 21.0000
L23.3250 20.0000
" />
<path d="M23.8250 20.0000
L23.8250 21.0000
" />
<path d="M23.8250 21.0000
L23.3250 21.0000
" />
<path d="M20.3075 7.9250
L20.3075 6.1250
" />
<path d="M22.7575 6.1250
L20.3075 6.1250
" />
<path d="M22.7575 6.1250
L23.4075 6.7750
" />
<path d="M23.4075 7.9250
L20.3075 7.9250
" />
<path d="M23.4075 7.9250
L23.4075 6.7750
" />
<path d="M30.2750 20.1000
L32.2750 20.1000
" />
<path d="M30.2750 22.1000
L30.2750 20.1000
" />
<path d="M32.2750 20.1000
L32.2750 22.1000
" />
<path d="M32.2750 22.1000
L30.2750 22.1000
" />
<path d="M5.9500 22.2500
L13.9500 22.2500
" />
<path d="M5.9500 23.7500
L5.9500 22.2500
" />
<path d="M6.4500 24.2500
L5.9500 23.7500
" />
<path d="M13.9500 22.2500
L13.9500 24.2500
" />
<path d="M13.9500 24.2500
L6.4500 24.2500
" />
<path d="M20.1750 19.3500
L21.9750 19.3500
" />
<path d="M20.1750 22.4500
L20.1750 19.3500
" />
<path d="M20.1750 22.4500
L21.3250 22.4500
" />
<path d="M21.9750 21.8000
L21.3250 22.4500
" />
<path d="M21.9750 21.8000
L21.9750 19.3500
" />
<path d="M27.9900 22.0750
L28.9900 22.0750
" />
<path d="M27.9900 22.5750
L27.9900 22.0750
" />
<path d="M28.9900 22.0750
L28.9900 22.5750
" />
<path d="M28.9900 22.5750
L27.9900 22.5750
" />
<path d="M27.9650 21.0250
L28.9650 21.0250
" />
<path d="M27.9650 21.5250
L27.9650 21.0250
" />
<path d="M28.9650 21.0250
L28.9650 21.5250
" />
<path d="M28.9650 21.5250
L27.9650 21.5250
" />
<path d="M10.4500 12.2250
L10.9500 12.2250
" />
<path d="M10.4500 13.2250
L10.4500 12.2250
" />
<path d="M10.9500 12.2250
L10.9500 13.2250
" />
<path d="M10.9500 13.2250
L10.4500 13.2250
" />
<path d="M32.1750 16.8750
L33.3750 16.8750
" />
<path d="M32.1750 18.8750
L32.1750 16.8750
" />
<path d="M33.3750 16.8750
L33.3750 18.8750
" />
<path d="M33.3750 18.8750
L32.1750 18.8750
" />
<path d="M20.0500 2.9250
L21.0500 2.9250
" />
<path d="M20.0500 3.4250
L20.0500 2.9250
" />
<path d="M21.0500 2.9250
L21.0500 3.4250
" />
<path d="M21.0500 3.4250
L20.0500 3.4250
" />
<path d="M7.2715 15.3500
L7.7715 15.3500
" />
<path d="M7.2715 16.3500
L7.2715 15.3500
" />
<path d="M7.7715 15.3500
L7.7715 16.3500
" />
<path d="M7.7715 16.3500
L7.2715 16.3500
" />
<path d="M11.8500 11.4200
L11.8500 8.3800
" />
<path d="M12.7000 11.4200
L11.8500 11.4200
" />
<path d="M13.2500 8.3800
L11.8500 8.3800
" />
<path d="M13.2500 10.8500
L12.7000 11.4200
" />
<path d="M13.2500 10.8500
L13.2500 8.4000
" />
<path d="M10.5660 14.3750
L14.9660 14.3750
" />
<path d="M10.5660 20.8750
L10.5660 14.3750
" />
<path d="M13.9660 20.8750
L10.5660 20.8750
" />
<path d="M14.9660 14.3750
L14.9660 19.8750
" />
<path d="M14.9660 19.8750
L13.9660 20.8750
" />
<path d="M7.2715 11.3400
L7.7715 11.3400
" />
<path d="M7.2715 12.3400
L7.2715 11.3400
" />
<path d="M7.7715 11.3400
L7.7715 12.3400
" />
<path d="M7.7715 12.3400
L7.2715 12.3400
" />
<path d="M14.7750 6.9000
L15.7750 6.9000
" />
<path d="M14.7750 7.4000
L14.7750 6.9000
" />
<path d="M15.7750 6.9000
L15.7750 7.4000
" />
<path d="M15.7750 7.4000
L14.7750 7.4000
" />
<path d="M17.2250 18.3850
L17.7250 18.3850
" />
<path d="M17.2250 19.3850
L17.2250 18.3850
" />
<path d="M17.7250 18.3850
L17.7250 19.3850
" />
<path d="M17.7250 19.3850
L17.2250 19.3850
" />
<path d="M31.7500 7.9350
L32.2500 7.9350
" />
<path d="M31.7500 8.9350
L31.7500 7.9350
" />
<path d="M32.2500 7.9350
L32.2500 8.9350
" />
<path d="M32.2500 8.9350
L31.7500 8.9350
" />
<path d="M18.6500 10.9500
L20.0500 10.9500
" />
<path d="M18.6500 12.7500
L18.6500 10.9500
" />
<path d="M19.0000 11.6500
L19.7000 11.6500
" />
<path d="M19.0000 12.1500
L19.7000 12.1500
" />
<path d="M19.3500 11.6500
L19.3500 11.4000
" />
<path d="M19.3500 12.1500
L19.0000 11.6500
" />
<path d="M19.3500 12.1500
L19.3500 12.3500
" />
<path d="M19.7000 11.6500
L19.3500 12.1500
" />
<path d="M20.0500 10.9500
L20.0500 12.7500
" />
<path d="M20.0500 12.7500
L18.6500 12.7500
" />
<path d="M29.3500 16.3750
L31.3500 16.3750
" />
<path d="M29.3500 18.8750
L29.3500 16.3750
" />
<path d="M31.3500 16.3750
L31.3500 18.8750
" />
<path d="M31.3500 18.8750
L29.3500 18.8750
" />
<path d="M33.2000 20.4000
L34.4000 20.4000
" />
<path d="M33.2000 22.4000
L33.2000 20.4000
" />
<path d="M34.4000 20.4000
L34.4000 22.4000
" />
<path d="M34.4000 22.4000
L33.2000 22.4000
" />
<path d="M24.2250 7.4500
L24.7250 7.4500
" />
<path d="M24.2250 8.4500
L24.2250 7.4500
" />
<path d="M24.7250 7.4500
L24.7250 8.4500
" />
<path d="M24.7250 8.4500
L24.2250 8.4500
" />
<path d="M7.2965 13.3500
L7.7965 13.3500
" />
<path d="M7.2965 14.3500
L7.2965 13.3500
" />
<path d="M7.7965 13.3500
L7.7965 14.3500
" />
<path d="M7.7965 14.3500
L7.2965 14.3500
" />
<path d="M11.5500 12.2400
L12.0500 12.2400
" />
<path d="M11.5500 13.2400
L11.5500 12.2400
" />
<path d="M12.0500 12.2400
L12.0500 13.2400
" />
<path d="M12.0500 13.2400
L11.5500 13.2400
" />
<path d="M11.9750 6.9250
L12.9750 6.9250
" />
<path d="M11.9750 7.4250
L11.9750 6.9250
" />
<path d="M12.9750 6.9250
L12.9750 7.4250
" />
<path d="M12.9750 7.4250
L11.9750 7.4250
" />
<path d="M31.7500 6.0000
L32.2500 6.0000
" />
<path d="M31.7500 7.0000
L31.7500 6.0000
" />
<path d="M32.2500 6.0000
L32.2500 7.0000
" />
<path d="M32.2500 7.0000
L31.7500 7.0000
" />
<path d="M18.5250 17.3000
L19.0250 17.3000
" />
<path d="M18.5250 18.3000
L18.5250 17.3000
" />
<path d="M19.0250 17.3000
L19.0250 18.3000
" />
<path d="M19.0250 18.3000
L18.5250 18.3000
" />
<path d="M30.4250 22.9250
L31.4250 22.9250
" />
<path d="M30.4250 23.4250
L30.4250 22.9250
" />
<path d="M31.4250 22.9250
L31.4250 23.4250
" />
<path d="M31.4250 23.4250
L30.4250 23.4250
" />
<path d="M32.8000 7.9250
L33.3000 7.9250
" />
<path d="M32.8000 8.9250
L32.8000 7.9250
" />
<path d="M33.3000 7.9250
L33.3000 8.9250
" />
<path d="M33.3000 8.9250
L32.8000 8.9250
" />
<path d="M14.7750 9.0500
L14.7750 9.9000
" />
<path d="M14.7750 9.0500
L16.9750 9.0500
" />
<path d="M14.7750 9.9000
L15.2750 10.4000
" />
<path d="M15.2750 10.4000
L16.9750 10.4000
" />
<path d="M16.9750 9.0500
L16.9750 10.4000
" />
</g>
<g style="fill:none; 
stroke:#000000; stroke-width:0.1200; stroke-opacity:1; 
stroke-linecap:round; stroke-linejoin:round;">
<path d="M28.0801 8.5986
L28.0801 4.3695
" />
<path d="M30.7051 8.4986
L30.7051 4.2695
" />
</g>
<g style="fill:none; 
stroke:#000000; stroke-width:0.0500; stroke-opacity:1; 
stroke-linecap:round; stroke-linejoin:round;">
<path d="M0.0000 22.5000
L0.0000 2.5000
" />
<path d="M42.5000 0.0000
L47.5000 0.0000
" />
<path d="M2.5000 0.0000 A2.5000 2.5000 0.0 0 0 0.0000 2.5000" />
<path d="M40.0072 4.9000
L37.4928 4.9000
" />
<path d="M2.5000 0.0000
L35.0000 0.0000
" />
<path d="M40.0072 4.9000 A2.5000 2.5000 0.0 0 0 42.5072 2.4000" />
<path d="M50.0000 2.5000 A2.5000 2.5000 0.0 0 0 47.5000 0.0000" />
<path d="M47.5000 25.0000 A2.5000 2.5000 0.0 0 0 50.0000 22.5000" />
<path d="M47.5000 25.0000
L2.5000 25.0000
" />
<path d="M35.0000 2.4000
L35.0000 0.0000
" />
<path d="M34.9928 2.4000 A2.5000 2.5000 0.0 0 0 37.4928 4.9000" />
<path d="M0.0000 22.5000 A2.5000 2.5000 0.0 0 0 2.5000 25.0000" />
<path d="M50.0000 2.5000
L50.0000 22.5000
" />
<path d="M42.5000 2.4000
L42.5000 0.0000
" />
</g> 
</svg>
