%TF.GenerationSoftware,KiCad,Pcbnew,8.0.7-8.0.7-0~ubuntu24.04.1*%
%TF.CreationDate,2024-12-12T12:03:35+00:00*%
%TF.ProjectId,Screen,53637265-656e-42e6-9b69-6361645f7063,rev?*%
%TF.SameCoordinates,Original*%
%TF.FileFunction,Copper,L2,Bot*%
%TF.FilePolarity,Positive*%
%FSLAX46Y46*%
G04 Gerber Fmt 4.6, Leading zero omitted, Abs format (unit mm)*
G04 Created by KiCad (PCBNEW 8.0.7-8.0.7-0~ubuntu24.04.1) date 2024-12-12 12:03:35*
%MOMM*%
%LPD*%
G01*
G04 APERTURE LIST*
G04 Aperture macros list*
%AMRoundRect*
0 Rectangle with rounded corners*
0 $1 Rounding radius*
0 $2 $3 $4 $5 $6 $7 $8 $9 X,Y pos of 4 corners*
0 Add a 4 corners polygon primitive as box body*
4,1,4,$2,$3,$4,$5,$6,$7,$8,$9,$2,$3,0*
0 Add four circle primitives for the rounded corners*
1,1,$1+$1,$2,$3*
1,1,$1+$1,$4,$5*
1,1,$1+$1,$6,$7*
1,1,$1+$1,$8,$9*
0 Add four rect primitives between the rounded corners*
20,1,$1+$1,$2,$3,$4,$5,0*
20,1,$1+$1,$4,$5,$6,$7,0*
20,1,$1+$1,$6,$7,$8,$9,0*
20,1,$1+$1,$8,$9,$2,$3,0*%
G04 Aperture macros list end*
%TA.AperFunction,ComponentPad*%
%ADD10R,1.350000X1.350000*%
%TD*%
%TA.AperFunction,ComponentPad*%
%ADD11O,1.350000X1.350000*%
%TD*%
%TA.AperFunction,SMDPad,CuDef*%
%ADD12RoundRect,0.147500X-0.172500X0.147500X-0.172500X-0.147500X0.172500X-0.147500X0.172500X0.147500X0*%
%TD*%
%TA.AperFunction,SMDPad,CuDef*%
%ADD13R,2.000000X1.600000*%
%TD*%
%TA.AperFunction,SMDPad,CuDef*%
%ADD14R,1.250000X0.300000*%
%TD*%
%TA.AperFunction,SMDPad,CuDef*%
%ADD15R,1.060000X0.650000*%
%TD*%
%TA.AperFunction,SMDPad,CuDef*%
%ADD16RoundRect,0.147500X0.172500X-0.147500X0.172500X0.147500X-0.172500X0.147500X-0.172500X-0.147500X0*%
%TD*%
%TA.AperFunction,SMDPad,CuDef*%
%ADD17RoundRect,0.100000X-0.637500X-0.100000X0.637500X-0.100000X0.637500X0.100000X-0.637500X0.100000X0*%
%TD*%
%TA.AperFunction,SMDPad,CuDef*%
%ADD18R,0.800000X0.900000*%
%TD*%
%TA.AperFunction,SMDPad,CuDef*%
%ADD19RoundRect,0.147500X-0.147500X-0.172500X0.147500X-0.172500X0.147500X0.172500X-0.147500X0.172500X0*%
%TD*%
%TA.AperFunction,ViaPad*%
%ADD20C,0.600000*%
%TD*%
%TA.AperFunction,Conductor*%
%ADD21C,0.200000*%
%TD*%
%TA.AperFunction,Conductor*%
%ADD22C,0.400000*%
%TD*%
%ADD23C,0.300000*%
%ADD24C,0.350000*%
G04 APERTURE END LIST*
D10*
%TO.P,J4,1,Pin_1*%
%TO.N,5V*%
X6950000Y-51250000D03*
D11*
%TO.P,J4,2,Pin_2*%
%TO.N,GND*%
X8950000Y-51250000D03*
%TO.P,J4,3,Pin_3*%
%TO.N,SWDIO*%
X10950000Y-51250000D03*
%TO.P,J4,4,Pin_4*%
%TO.N,SWDCLK*%
X12950000Y-51250000D03*
%TD*%
D12*
%TO.P,C9,1*%
%TO.N,VDD*%
X20070000Y-32740000D03*
%TO.P,C9,2*%
%TO.N,GND*%
X20070000Y-33710000D03*
%TD*%
D13*
%TO.P,J1,*%
%TO.N,*%
X3000000Y-18100000D03*
X3000000Y-6900000D03*
D14*
%TO.P,J1,1,1*%
%TO.N,GND*%
X5655000Y-16250000D03*
%TO.P,J1,2,2*%
%TO.N,5V*%
X5655000Y-15750000D03*
%TO.P,J1,3,3*%
X5655000Y-15250000D03*
%TO.P,J1,4,4*%
%TO.N,GND*%
X5655000Y-14750000D03*
%TO.P,J1,5,5*%
%TO.N,PS*%
X5655000Y-14250000D03*
%TO.P,J1,6,6*%
%TO.N,GND*%
X5655000Y-13750000D03*
%TO.P,J1,7,7*%
%TO.N,SCLK*%
X5655000Y-13250000D03*
%TO.P,J1,8,8*%
%TO.N,GND*%
X5655000Y-12750000D03*
%TO.P,J1,9,9*%
%TO.N,MISO*%
X5655000Y-12250000D03*
%TO.P,J1,10,10*%
%TO.N,GND*%
X5655000Y-11750000D03*
%TO.P,J1,11,11*%
%TO.N,MOSI*%
X5655000Y-11250000D03*
%TO.P,J1,12,12*%
%TO.N,Interrupt5V*%
X5655000Y-10750000D03*
%TO.P,J1,13,13*%
%TO.N,GND*%
X5655000Y-10250000D03*
%TO.P,J1,14,14*%
%TO.N,5V*%
X5655000Y-9750000D03*
%TO.P,J1,15,15*%
X5655000Y-9250000D03*
%TO.P,J1,16,16*%
%TO.N,GND*%
X5655000Y-8750000D03*
%TD*%
%TO.P,J3,1,1*%
%TO.N,GND*%
X32935000Y-23295000D03*
%TO.P,J3,2,2*%
%TO.N,S_MOSI*%
X32935000Y-23795000D03*
%TO.P,J3,3,3*%
%TO.N,RESET*%
X32935000Y-24295000D03*
%TO.P,J3,4,4*%
%TO.N,TE*%
X32935000Y-24795000D03*
%TO.P,J3,5,5*%
%TO.N,CHIP_SELECT*%
X32935000Y-25295000D03*
%TO.P,J3,6,6*%
%TO.N,S_SCK*%
X32935000Y-25795000D03*
%TO.P,J3,7,7*%
%TO.N,DC*%
X32935000Y-26295000D03*
%TO.P,J3,8,8*%
%TO.N,GND*%
X32935000Y-26795000D03*
%TO.P,J3,9,9*%
X32935000Y-27295000D03*
%TO.P,J3,10,10*%
X32935000Y-27795000D03*
%TO.P,J3,11,11*%
X32935000Y-28295000D03*
%TO.P,J3,12,12*%
X32935000Y-28795000D03*
%TO.P,J3,13,13*%
X32935000Y-29295000D03*
%TO.P,J3,14,14*%
X32935000Y-29795000D03*
%TO.P,J3,15,15*%
X32935000Y-30295000D03*
%TO.P,J3,16,16*%
X32935000Y-30795000D03*
%TO.P,J3,17,17*%
%TO.N,VDD*%
X32935000Y-31295000D03*
%TO.P,J3,18,18*%
%TO.N,IM0*%
X32935000Y-31795000D03*
%TO.P,J3,19,19*%
%TO.N,IM1*%
X32935000Y-32295000D03*
%TO.P,J3,20,20*%
%TO.N,IM2*%
X32935000Y-32795000D03*
%TO.P,J3,21,21*%
%TO.N,LEDK*%
X32935000Y-33295000D03*
%TO.P,J3,22,22*%
%TO.N,VDD*%
X32935000Y-33795000D03*
D13*
%TO.P,J3,A*%
%TO.N,N/C*%
X35590000Y-21445000D03*
%TO.P,J3,B*%
X35590000Y-35645000D03*
%TD*%
%TO.P,J2,*%
%TO.N,*%
X52000000Y-6900000D03*
X52000000Y-18100000D03*
D14*
%TO.P,J2,1,1*%
%TO.N,GND*%
X49345000Y-8750000D03*
%TO.P,J2,2,2*%
%TO.N,5V*%
X49345000Y-9250000D03*
%TO.P,J2,3,3*%
X49345000Y-9750000D03*
%TO.P,J2,4,4*%
%TO.N,GND*%
X49345000Y-10250000D03*
%TO.P,J2,5,5*%
%TO.N,PS*%
X49345000Y-10750000D03*
%TO.P,J2,6,6*%
%TO.N,GND*%
X49345000Y-11250000D03*
%TO.P,J2,7,7*%
%TO.N,SCLK*%
X49345000Y-11750000D03*
%TO.P,J2,8,8*%
%TO.N,GND*%
X49345000Y-12250000D03*
%TO.P,J2,9,9*%
%TO.N,MISO*%
X49345000Y-12750000D03*
%TO.P,J2,10,10*%
%TO.N,GND*%
X49345000Y-13250000D03*
%TO.P,J2,11,11*%
%TO.N,MOSI*%
X49345000Y-13750000D03*
%TO.P,J2,12,12*%
%TO.N,Interrupt5V*%
X49345000Y-14250000D03*
%TO.P,J2,13,13*%
%TO.N,GND*%
X49345000Y-14750000D03*
%TO.P,J2,14,14*%
%TO.N,5V*%
X49345000Y-15250000D03*
%TO.P,J2,15,15*%
X49345000Y-15750000D03*
%TO.P,J2,16,16*%
%TO.N,GND*%
X49345000Y-16250000D03*
%TD*%
D12*
%TO.P,C8,1*%
%TO.N,5V*%
X15070000Y-31875000D03*
%TO.P,C8,2*%
%TO.N,GND*%
X15070000Y-32845000D03*
%TD*%
D15*
%TO.P,U2,1,IN*%
%TO.N,5V*%
X16470000Y-33710000D03*
%TO.P,U2,2,GND*%
%TO.N,GND*%
X16470000Y-32760000D03*
%TO.P,U2,3,EN*%
%TO.N,5V*%
X16470000Y-31810000D03*
%TO.P,U2,4,NC*%
%TO.N,unconnected-(U2-NC-Pad4)*%
X18670000Y-31810000D03*
%TO.P,U2,5,OUT*%
%TO.N,VDD*%
X18670000Y-33710000D03*
%TD*%
D16*
%TO.P,R2,1*%
%TO.N,Net-(U3-PA7)*%
X19020000Y-18160000D03*
%TO.P,R2,2*%
%TO.N,MOSI*%
X19020000Y-17190000D03*
%TD*%
D17*
%TO.P,U3,1,PB7/PB8*%
%TO.N,S_SCK*%
X16177500Y-27915000D03*
%TO.P,U3,2,PC14/PB9*%
%TO.N,IM0*%
X16177500Y-27265000D03*
%TO.P,U3,3,PC15*%
%TO.N,IM1*%
X16177500Y-26615000D03*
%TO.P,U3,4,VDD*%
%TO.N,VDD*%
X16177500Y-25965000D03*
%TO.P,U3,5,VSS*%
%TO.N,GND*%
X16177500Y-25315000D03*
%TO.P,U3,6,NRST*%
%TO.N,Net-(U3-NRST)*%
X16177500Y-24665000D03*
%TO.P,U3,7,PA0*%
%TO.N,TE*%
X16177500Y-24015000D03*
%TO.P,U3,8,PA1*%
%TO.N,Net-(U3-PA1)*%
X16177500Y-23365000D03*
%TO.P,U3,9,PA2*%
%TO.N,IM2*%
X16177500Y-22715000D03*
%TO.P,U3,10,PA3*%
%TO.N,S_MISO*%
X16177500Y-22065000D03*
%TO.P,U3,11,PA4*%
%TO.N,S_MOSI*%
X21902500Y-22065000D03*
%TO.P,U3,12,PA5*%
%TO.N,Net-(U3-PA5)*%
X21902500Y-22715000D03*
%TO.P,U3,13,PA6*%
%TO.N,Net-(U3-PA6)*%
X21902500Y-23365000D03*
%TO.P,U3,14,PA7*%
%TO.N,Net-(U3-PA7)*%
X21902500Y-24015000D03*
%TO.P,U3,15,PB0/PB1/PB2/PA8*%
%TO.N,RESET*%
X21902500Y-24665000D03*
%TO.P,U3,16,PA11/PA9*%
%TO.N,CHIP_SELECT*%
X21902500Y-25315000D03*
%TO.P,U3,17,PA12/PA10*%
%TO.N,DC*%
X21902500Y-25965000D03*
%TO.P,U3,18,PA13*%
%TO.N,SWDIO*%
X21902500Y-26615000D03*
%TO.P,U3,19,PA14/PA15*%
%TO.N,SWDCLK*%
X21902500Y-27265000D03*
%TO.P,U3,20,PB3/PB4/PB5/PB6*%
%TO.N,BACKLIGHT*%
X21902500Y-27915000D03*
%TD*%
D16*
%TO.P,R3,1*%
%TO.N,Net-(U3-PA5)*%
X21440000Y-18120000D03*
%TO.P,R3,2*%
%TO.N,SCLK*%
X21440000Y-17150000D03*
%TD*%
%TO.P,C2,1*%
%TO.N,VDD*%
X14330000Y-26630000D03*
%TO.P,C2,2*%
%TO.N,GND*%
X14330000Y-25660000D03*
%TD*%
%TO.P,R4,1*%
%TO.N,Net-(U3-PA6)*%
X20270000Y-18160000D03*
%TO.P,R4,2*%
%TO.N,MISO*%
X20270000Y-17190000D03*
%TD*%
%TO.P,R1,1*%
%TO.N,Net-(U3-PA1)*%
X13980000Y-20210000D03*
%TO.P,R1,2*%
%TO.N,PS*%
X13980000Y-19240000D03*
%TD*%
D18*
%TO.P,Q2,1,G*%
%TO.N,BACKLIGHT*%
X25240000Y-30040000D03*
%TO.P,Q2,2,S*%
%TO.N,GND*%
X27140000Y-30040000D03*
%TO.P,Q2,3,D*%
%TO.N,Net-(Q2-D)*%
X26190000Y-32040000D03*
%TD*%
D12*
%TO.P,C1,1*%
%TO.N,Net-(U3-NRST)*%
X14330000Y-23650000D03*
%TO.P,C1,2*%
%TO.N,GND*%
X14330000Y-24620000D03*
%TD*%
D19*
%TO.P,R5,1*%
%TO.N,Net-(Q2-D)*%
X29055000Y-31710000D03*
%TO.P,R5,2*%
%TO.N,LEDK*%
X30025000Y-31710000D03*
%TD*%
D12*
%TO.P,R7,1*%
%TO.N,BACKLIGHT*%
X23590000Y-31655000D03*
%TO.P,R7,2*%
%TO.N,VDD*%
X23590000Y-32625000D03*
%TD*%
D20*
%TO.N,VDD*%
X24230000Y-33670000D03*
X21070000Y-31820000D03*
%TO.N,GND*%
X13280000Y-33890000D03*
X45070000Y-10150000D03*
X17860000Y-32760000D03*
X49390000Y-8030000D03*
X30870000Y-27740000D03*
X27150000Y-2500000D03*
X36150000Y-24175000D03*
X12430000Y-25170000D03*
X25880000Y-35540000D03*
X34270000Y-25785000D03*
X10940000Y-19210000D03*
X1350000Y-12740000D03*
X51270000Y-28700000D03*
X20240000Y-25770000D03*
X24350000Y-27010000D03*
X18050000Y-25850000D03*
X27600000Y-51000000D03*
X3080000Y-1770000D03*
X5630000Y-7480000D03*
X30790000Y-35430000D03*
X50700000Y-16380000D03*
X50620000Y-14850000D03*
X5790000Y-17650000D03*
X30480000Y-19780000D03*
X2620000Y-26180000D03*
X50790000Y-8970000D03*
X45400000Y-1990000D03*
X8660000Y-16230000D03*
X15730000Y-20330000D03*
X1650000Y-45060000D03*
X53180000Y-12640000D03*
X14180000Y-30430000D03*
X30010000Y-32750000D03*
X22250000Y-19900000D03*
X18370000Y-22730000D03*
X34520000Y-30145000D03*
X49350000Y-17050000D03*
X21160000Y-35420000D03*
X50590000Y-12730000D03*
X24870000Y-32440000D03*
X27490000Y-28570000D03*
X37590000Y-33525000D03*
X51520000Y-48470000D03*
%TO.N,MOSI*%
X19020000Y-16180000D03*
X48210544Y-10967849D03*
X50714894Y-13603635D03*
X18930000Y-11950000D03*
%TO.N,MISO*%
X20270000Y-16140000D03*
X20200000Y-12970000D03*
%TO.N,SCLK*%
X48042483Y-11750000D03*
X21540000Y-13770000D03*
X21450000Y-16210000D03*
X48219998Y-13850000D03*
%TO.N,PS*%
X50470700Y-10704885D03*
X48090000Y-15350000D03*
%TO.N,IM0*%
X30910000Y-29690000D03*
X18500000Y-29580000D03*
%TO.N,IM2*%
X35050000Y-32705000D03*
X17470000Y-20970000D03*
%TO.N,IM1*%
X31030000Y-30540000D03*
X19650000Y-30390000D03*
%TO.N,S_SCK*%
X28980000Y-25290000D03*
X17710000Y-28790000D03*
%TO.N,TE*%
X24180000Y-24180000D03*
X17580000Y-24050000D03*
%TO.N,Interrupt5V*%
X48186008Y-10143856D03*
X51286163Y-14163685D03*
%TD*%
D21*
%TO.N,VDD*%
X14330000Y-28960000D02*
X14330000Y-26630000D01*
X31060000Y-33795000D02*
X30935000Y-33670000D01*
X15940000Y-30570000D02*
X14330000Y-28960000D01*
X20070000Y-31890000D02*
X20070000Y-31755000D01*
X18670000Y-33710000D02*
X19295000Y-34335000D01*
X23590000Y-33030000D02*
X23590000Y-32625000D01*
X23475000Y-32740000D02*
X23590000Y-32625000D01*
X21000000Y-31890000D02*
X21070000Y-31820000D01*
X35650000Y-32285000D02*
X34660000Y-31295000D01*
X34808529Y-33795000D02*
X35650000Y-32953529D01*
X32935000Y-33795000D02*
X31060000Y-33795000D01*
X20070000Y-31755000D02*
X18965000Y-30650000D01*
X14330000Y-26630000D02*
X14995000Y-25965000D01*
X34660000Y-31295000D02*
X32935000Y-31295000D01*
X19295000Y-34335000D02*
X20401948Y-34335000D01*
X20070000Y-32740000D02*
X20070000Y-31890000D01*
X20740000Y-33410000D02*
X20070000Y-32740000D01*
X35650000Y-32953529D02*
X35650000Y-32285000D01*
X20401948Y-34335000D02*
X20740000Y-33996948D01*
X20740000Y-33996948D02*
X20740000Y-33410000D01*
X15940000Y-30650000D02*
X15940000Y-30570000D01*
X18965000Y-30650000D02*
X15940000Y-30650000D01*
X20070000Y-31890000D02*
X21000000Y-31890000D01*
X30935000Y-33670000D02*
X24230000Y-33670000D01*
X24230000Y-33670000D02*
X23590000Y-33030000D01*
X14995000Y-25965000D02*
X16177500Y-25965000D01*
X32935000Y-33795000D02*
X34808529Y-33795000D01*
%TO.N,GND*%
X32935000Y-30795000D02*
X32935000Y-26795000D01*
X34270000Y-23755000D02*
X34270000Y-25785000D01*
X28230000Y-28950000D02*
X27140000Y-30040000D01*
X42140000Y-13110000D02*
X42280000Y-13250000D01*
X46820000Y-14750000D02*
X49345000Y-14750000D01*
X50220000Y-11250000D02*
X50336031Y-11366031D01*
X4730000Y-14560000D02*
X4920000Y-14750000D01*
X50520000Y-14750000D02*
X50620000Y-14850000D01*
X14675000Y-25315000D02*
X14330000Y-25660000D01*
X44005685Y-10250000D02*
X44105685Y-10150000D01*
X50077056Y-10250000D02*
X50222171Y-10104885D01*
X10990000Y-14370000D02*
X46440000Y-14370000D01*
X48480000Y-12250000D02*
X49345000Y-12250000D01*
X5655000Y-12750000D02*
X11815685Y-12750000D01*
X51886163Y-14543837D02*
X51580000Y-14850000D01*
X50220000Y-13250000D02*
X50505682Y-12964318D01*
X50222171Y-10104885D02*
X50719229Y-10104885D01*
X21351471Y-13110000D02*
X42140000Y-13110000D01*
X34270000Y-25785000D02*
X34270000Y-26625000D01*
X20891471Y-13570000D02*
X21351471Y-13110000D01*
X42280000Y-13250000D02*
X49345000Y-13250000D01*
X12060000Y-11750000D02*
X12880000Y-12570000D01*
X34100000Y-26795000D02*
X32935000Y-26795000D01*
X50719229Y-10104885D02*
X51070700Y-10456356D01*
X20070000Y-33696948D02*
X20070000Y-33710000D01*
X50505682Y-12964318D02*
X50505682Y-12419651D01*
X12635685Y-13570000D02*
X20891471Y-13570000D01*
X12880000Y-12570000D02*
X19490000Y-12570000D01*
X5655000Y-11750000D02*
X12060000Y-11750000D01*
X49345000Y-13250000D02*
X50220000Y-13250000D01*
X15070000Y-32845000D02*
X16385000Y-32845000D01*
X51886163Y-11916163D02*
X51886163Y-14543837D01*
X16177500Y-25315000D02*
X14675000Y-25315000D01*
X43950000Y-10250000D02*
X44005685Y-10250000D01*
X19750000Y-12310000D02*
X47260000Y-12310000D01*
X19490000Y-12570000D02*
X19750000Y-12310000D01*
X4920000Y-14750000D02*
X5655000Y-14750000D01*
X19133052Y-32760000D02*
X20070000Y-33696948D01*
X51070700Y-11089300D02*
X51065000Y-11095000D01*
X4730000Y-10300000D02*
X4730000Y-14560000D01*
X10370000Y-13750000D02*
X10990000Y-14370000D01*
X48380000Y-12350000D02*
X48480000Y-12250000D01*
X47300000Y-12350000D02*
X48380000Y-12350000D01*
X16470000Y-32760000D02*
X17860000Y-32760000D01*
X11815685Y-12750000D02*
X12635685Y-13570000D01*
X32935000Y-23295000D02*
X33810000Y-23295000D01*
X44105685Y-10150000D02*
X45070000Y-10150000D01*
X5655000Y-13750000D02*
X10370000Y-13750000D01*
X51580000Y-14850000D02*
X50620000Y-14850000D01*
X33810000Y-23295000D02*
X34270000Y-23755000D01*
X49345000Y-12250000D02*
X50336031Y-12250000D01*
X49345000Y-10250000D02*
X50077056Y-10250000D01*
X49345000Y-11250000D02*
X50220000Y-11250000D01*
X32655000Y-28950000D02*
X28230000Y-28950000D01*
X51070700Y-10456356D02*
X51070700Y-11089300D01*
X50336031Y-11366031D02*
X50336031Y-12250000D01*
X50336031Y-12250000D02*
X50505682Y-12419651D01*
X17860000Y-32760000D02*
X19133052Y-32760000D01*
X14330000Y-24620000D02*
X14330000Y-25660000D01*
X4780000Y-10250000D02*
X4730000Y-10300000D01*
X16385000Y-32845000D02*
X16470000Y-32760000D01*
X47260000Y-12310000D02*
X47300000Y-12350000D01*
X46440000Y-14370000D02*
X46820000Y-14750000D01*
X49345000Y-14750000D02*
X50520000Y-14750000D01*
X43950000Y-10250000D02*
X5655000Y-10250000D01*
X34270000Y-26625000D02*
X34100000Y-26795000D01*
X5655000Y-10250000D02*
X4780000Y-10250000D01*
X51065000Y-11095000D02*
X51886163Y-11916163D01*
%TO.N,Net-(U3-NRST)*%
X14330000Y-23650000D02*
X15345000Y-24665000D01*
X15345000Y-24665000D02*
X16177500Y-24665000D01*
%TO.N,5V*%
X50330000Y-9704885D02*
X50884915Y-9704885D01*
X49830000Y-15250000D02*
X50330000Y-15750000D01*
X5655000Y-15750000D02*
X5655000Y-15250000D01*
X16405000Y-31875000D02*
X16470000Y-31810000D01*
D22*
X6560000Y-9750000D02*
X7060000Y-9250000D01*
D21*
X14360000Y-32585000D02*
X15070000Y-31875000D01*
D22*
X7060000Y-9250000D02*
X48250000Y-9250000D01*
D21*
X49345000Y-9750000D02*
X48750000Y-9750000D01*
X14750001Y-31875000D02*
X15070000Y-31875000D01*
X14360000Y-33091948D02*
X14360000Y-32585000D01*
X5655000Y-15250000D02*
X8730000Y-15250000D01*
X6950000Y-47160000D02*
X6950000Y-51250000D01*
X11740000Y-18250000D02*
X11740000Y-28864999D01*
X4854314Y-15250000D02*
X5655000Y-15250000D01*
X4330000Y-14725686D02*
X4854314Y-15250000D01*
X50330000Y-15750000D02*
X49345000Y-15750000D01*
X8730000Y-15250000D02*
X11730000Y-18250000D01*
X5655000Y-9750000D02*
X4714314Y-9750000D01*
X50884915Y-9704885D02*
X52350000Y-11169970D01*
X52350000Y-14645686D02*
X51245686Y-15750000D01*
X51245686Y-15750000D02*
X50330000Y-15750000D01*
X11730000Y-18250000D02*
X11740000Y-18250000D01*
X5655000Y-9750000D02*
X6560000Y-9750000D01*
X14978052Y-33710000D02*
X14360000Y-33091948D01*
X49345000Y-15250000D02*
X49830000Y-15250000D01*
X16470000Y-37640000D02*
X6950000Y-47160000D01*
X16470000Y-33710000D02*
X14978052Y-33710000D01*
X11740000Y-28864999D02*
X14750001Y-31875000D01*
X52350000Y-11169970D02*
X52350000Y-14645686D01*
X5655000Y-9250000D02*
X7060000Y-9250000D01*
X15070000Y-31875000D02*
X16405000Y-31875000D01*
X49345000Y-9750000D02*
X49390115Y-9704885D01*
X4714314Y-9750000D02*
X4330000Y-10134314D01*
X48250000Y-9250000D02*
X49345000Y-9250000D01*
X48750000Y-9750000D02*
X48250000Y-9250000D01*
X16470000Y-33710000D02*
X16470000Y-37640000D01*
X4330000Y-10134314D02*
X4330000Y-14725686D01*
X49390115Y-9704885D02*
X50330000Y-9704885D01*
%TO.N,MOSI*%
X49369604Y-13725396D02*
X49345000Y-13750000D01*
X45370000Y-11250000D02*
X45420000Y-11200000D01*
X45420000Y-11200000D02*
X45470000Y-11150000D01*
X5655000Y-11250000D02*
X19020000Y-11250000D01*
X18930000Y-11950000D02*
X18930000Y-11340000D01*
X48028393Y-11150000D02*
X48210544Y-10967849D01*
X19020000Y-17190000D02*
X19020000Y-16180000D01*
X50593133Y-13725396D02*
X50714894Y-13603635D01*
X45470000Y-11150000D02*
X48028393Y-11150000D01*
X18930000Y-11340000D02*
X19020000Y-11250000D01*
X19020000Y-11250000D02*
X45370000Y-11250000D01*
X50349629Y-13725396D02*
X49369604Y-13725396D01*
X50349629Y-13725396D02*
X50593133Y-13725396D01*
%TO.N,MISO*%
X11981370Y-12350000D02*
X11981371Y-12350000D01*
X5655000Y-12250000D02*
X10800000Y-12250000D01*
X43310000Y-12750000D02*
X49345000Y-12750000D01*
X43270000Y-12710000D02*
X20460000Y-12710000D01*
X20270000Y-17190000D02*
X20270000Y-16140000D01*
X12400000Y-12768630D02*
X12601370Y-12970000D01*
X11881370Y-12250000D02*
X11981370Y-12350000D01*
X12601370Y-12970000D02*
X20200000Y-12970000D01*
X43270000Y-12710000D02*
X43310000Y-12750000D01*
X11981371Y-12350000D02*
X12400000Y-12768630D01*
X10800000Y-12250000D02*
X11881370Y-12250000D01*
X20460000Y-12710000D02*
X20200000Y-12970000D01*
%TO.N,SCLK*%
X21440000Y-17150000D02*
X21440000Y-16220000D01*
X11750000Y-13250000D02*
X12470000Y-13970000D01*
X49345000Y-11750000D02*
X48340000Y-11750000D01*
X48340000Y-11750000D02*
X48240000Y-11650000D01*
X48099998Y-13970000D02*
X48219998Y-13850000D01*
X5655000Y-13250000D02*
X11750000Y-13250000D01*
X21440000Y-16220000D02*
X21450000Y-16210000D01*
X12470000Y-13970000D02*
X48099998Y-13970000D01*
%TO.N,PS*%
X49345000Y-10750000D02*
X50353897Y-10750000D01*
X5655000Y-14250000D02*
X9280000Y-14250000D01*
X13980000Y-15670000D02*
X14300000Y-15350000D01*
X14300000Y-15350000D02*
X48090000Y-15350000D01*
X49345000Y-10750000D02*
X50425585Y-10750000D01*
X13980000Y-19240000D02*
X13980000Y-15670000D01*
X9280000Y-14250000D02*
X10380000Y-15350000D01*
X10380000Y-15350000D02*
X14300000Y-15350000D01*
%TO.N,SWDIO*%
X20290000Y-29480000D02*
X20290000Y-27490001D01*
X21165001Y-26615000D02*
X21902500Y-26615000D01*
X22210000Y-31400000D02*
X20290000Y-29480000D01*
X22210000Y-39990000D02*
X22210000Y-31400000D01*
X20290000Y-27490001D02*
X21165001Y-26615000D01*
X10950000Y-51250000D02*
X22210000Y-39990000D01*
%TO.N,SWDCLK*%
X20690000Y-27740001D02*
X20690000Y-28960000D01*
X22890000Y-31160000D02*
X22890000Y-41310000D01*
X22890000Y-41310000D02*
X12950000Y-51250000D01*
X21165001Y-27265000D02*
X20690000Y-27740001D01*
X21902500Y-27265000D02*
X21165001Y-27265000D01*
X20690000Y-28960000D02*
X22890000Y-31160000D01*
%TO.N,Net-(U3-PA1)*%
X13980000Y-20210000D02*
X13980000Y-21823456D01*
X15521544Y-23365000D02*
X16177500Y-23365000D01*
X13980000Y-21823456D02*
X15521544Y-23365000D01*
%TO.N,Net-(U3-PA5)*%
X21165001Y-22715000D02*
X21902500Y-22715000D01*
X20865000Y-22414999D02*
X21165001Y-22715000D01*
X21440000Y-18120000D02*
X20865000Y-18695000D01*
X20865000Y-18695000D02*
X20865000Y-22414999D01*
%TO.N,Net-(U3-PA6)*%
X20270000Y-18160000D02*
X20270000Y-22469999D01*
X20270000Y-22469999D02*
X21165001Y-23365000D01*
X21165001Y-23365000D02*
X21902500Y-23365000D01*
%TO.N,Net-(U3-PA7)*%
X19020000Y-18160000D02*
X19020000Y-21788456D01*
X21246544Y-24015000D02*
X21902500Y-24015000D01*
X19020000Y-21788456D02*
X21246544Y-24015000D01*
%TO.N,DC*%
X30585000Y-26295000D02*
X30265000Y-25975000D01*
X30265000Y-25965000D02*
X21902500Y-25965000D01*
X30265000Y-25975000D02*
X30265000Y-25965000D01*
X32935000Y-26295000D02*
X30585000Y-26295000D01*
%TO.N,CHIP_SELECT*%
X24560000Y-24650000D02*
X30081370Y-24650000D01*
X21902500Y-25315000D02*
X23895000Y-25315000D01*
X32935000Y-25295000D02*
X30726371Y-25295000D01*
X30726371Y-25295000D02*
X30130685Y-24699315D01*
X30081370Y-24650000D02*
X30130685Y-24699315D01*
X23895000Y-25315000D02*
X24560000Y-24650000D01*
%TO.N,IM0*%
X18500000Y-29580000D02*
X18460000Y-29540000D01*
X18460000Y-28691471D02*
X17033529Y-27265000D01*
X31720343Y-30381814D02*
X31028529Y-29690000D01*
X18460000Y-29540000D02*
X18460000Y-28691471D01*
X31028529Y-29690000D02*
X30910000Y-29690000D01*
X32125686Y-31795000D02*
X31720343Y-31389657D01*
X31720343Y-31389657D02*
X31720343Y-30381814D01*
X32935000Y-31795000D02*
X32125686Y-31795000D01*
X17033529Y-27265000D02*
X16177500Y-27265000D01*
%TO.N,IM2*%
X17470000Y-22159999D02*
X17470000Y-20970000D01*
X32985000Y-32845000D02*
X32935000Y-32795000D01*
X16177500Y-22715000D02*
X16914999Y-22715000D01*
X35050000Y-32705000D02*
X34910000Y-32845000D01*
X34910000Y-32845000D02*
X32985000Y-32845000D01*
X16914999Y-22715000D02*
X17470000Y-22159999D01*
%TO.N,RESET*%
X23650000Y-23580000D02*
X23646728Y-23576728D01*
X32935000Y-24295000D02*
X30857742Y-24295000D01*
X30857742Y-24295000D02*
X30142742Y-23580000D01*
X23646728Y-23576728D02*
X22558456Y-24665000D01*
X30142742Y-23580000D02*
X23650000Y-23580000D01*
X22558456Y-24665000D02*
X21902500Y-24665000D01*
%TO.N,LEDK*%
X30025000Y-31710000D02*
X31610000Y-33295000D01*
X31610000Y-33295000D02*
X32935000Y-33295000D01*
%TO.N,IM1*%
X16177500Y-26615000D02*
X16949215Y-26615000D01*
X16949215Y-26615000D02*
X19650000Y-29315785D01*
X19650000Y-29315785D02*
X19650000Y-30390000D01*
X32935000Y-32295000D02*
X32060000Y-32295000D01*
X32060000Y-32295000D02*
X31030000Y-31265000D01*
X31030000Y-31265000D02*
X31030000Y-30540000D01*
%TO.N,BACKLIGHT*%
X23590000Y-31655000D02*
X23625000Y-31655000D01*
X23625000Y-31655000D02*
X25240000Y-30040000D01*
X23115000Y-27915000D02*
X25240000Y-30040000D01*
X21902500Y-27915000D02*
X23115000Y-27915000D01*
%TO.N,Net-(Q2-D)*%
X26190000Y-32040000D02*
X28725000Y-32040000D01*
X28725000Y-32040000D02*
X29055000Y-31710000D01*
%TO.N,S_SCK*%
X16177500Y-27915000D02*
X16835000Y-27915000D01*
X32885000Y-25745000D02*
X32935000Y-25795000D01*
X32935000Y-25795000D02*
X30660685Y-25795000D01*
X30155685Y-25290000D02*
X28980000Y-25290000D01*
X30660685Y-25795000D02*
X30155685Y-25290000D01*
X16835000Y-27915000D02*
X17710000Y-28790000D01*
%TO.N,TE*%
X32935000Y-24795000D02*
X30792056Y-24795000D01*
X30177056Y-24180000D02*
X24180000Y-24180000D01*
X30792056Y-24795000D02*
X30177056Y-24180000D01*
X17580000Y-24050000D02*
X16212500Y-24050000D01*
X16212500Y-24050000D02*
X16177500Y-24015000D01*
%TO.N,S_MOSI*%
X32165000Y-23795000D02*
X32935000Y-23795000D01*
X22017500Y-21950000D02*
X21902500Y-22065000D01*
X30435000Y-22065000D02*
X32165000Y-23795000D01*
X21902500Y-22065000D02*
X30435000Y-22065000D01*
%TO.N,Interrupt5V*%
X45450000Y-10750000D02*
X45650000Y-10550000D01*
X45650000Y-10550000D02*
X47409473Y-10550000D01*
X49345000Y-14250000D02*
X51199848Y-14250000D01*
X5655000Y-10750000D02*
X45450000Y-10750000D01*
X47820000Y-10139473D02*
X48181625Y-10139473D01*
X48181625Y-10139473D02*
X48186008Y-10143856D01*
X47409473Y-10550000D02*
X47820000Y-10139473D01*
X51199848Y-14250000D02*
X51286163Y-14163685D01*
%TD*%
%TA.AperFunction,Conductor*%
%TO.N,GND*%
G36*
X9172712Y-14569407D02*
G01*
X9184525Y-14579496D01*
X10139540Y-15534511D01*
X10139539Y-15534511D01*
X10195489Y-15590460D01*
X10264007Y-15630019D01*
X10264011Y-15630021D01*
X10340435Y-15650499D01*
X10340437Y-15650500D01*
X10340438Y-15650500D01*
X10419562Y-15650500D01*
X13580500Y-15650500D01*
X13638691Y-15669407D01*
X13674655Y-15718907D01*
X13679500Y-15749500D01*
X13679500Y-18705916D01*
X13660593Y-18764107D01*
X13623981Y-18794856D01*
X13602494Y-18805360D01*
X13602492Y-18805362D01*
X13602490Y-18805363D01*
X13602489Y-18805364D01*
X13547374Y-18860479D01*
X13520364Y-18887489D01*
X13469355Y-18991828D01*
X13469355Y-18991830D01*
X13459500Y-19059472D01*
X13459500Y-19420528D01*
X13469355Y-19488170D01*
X13520364Y-19592511D01*
X13582851Y-19654998D01*
X13610627Y-19709513D01*
X13601056Y-19769945D01*
X13582852Y-19795000D01*
X13520364Y-19857489D01*
X13469355Y-19961828D01*
X13466706Y-19980009D01*
X13459500Y-20029472D01*
X13459500Y-20390528D01*
X13467363Y-20444500D01*
X13469355Y-20458171D01*
X13490022Y-20500445D01*
X13520364Y-20562511D01*
X13602489Y-20644636D01*
X13623980Y-20655142D01*
X13667954Y-20697685D01*
X13679500Y-20744083D01*
X13679500Y-21863020D01*
X13699978Y-21939443D01*
X13728914Y-21989562D01*
X13728913Y-21989562D01*
X13739538Y-22007964D01*
X13739540Y-22007967D01*
X14254783Y-22523210D01*
X14756426Y-23024853D01*
X14784203Y-23079370D01*
X14774632Y-23139802D01*
X14731367Y-23183067D01*
X14670935Y-23192638D01*
X14642941Y-23183798D01*
X14603170Y-23164355D01*
X14603171Y-23164355D01*
X14586259Y-23161891D01*
X14535528Y-23154500D01*
X14124472Y-23154500D01*
X14083886Y-23160413D01*
X14056828Y-23164355D01*
X13952489Y-23215364D01*
X13870364Y-23297489D01*
X13819355Y-23401828D01*
X13819355Y-23401830D01*
X13811444Y-23456133D01*
X13809500Y-23469475D01*
X13809500Y-23830526D01*
X13812742Y-23852779D01*
X13802421Y-23913087D01*
X13765173Y-23952263D01*
X13757492Y-23956805D01*
X13641805Y-24072492D01*
X13558532Y-24213299D01*
X13558532Y-24213300D01*
X13513005Y-24370000D01*
X14481000Y-24370000D01*
X14539191Y-24388907D01*
X14575155Y-24438407D01*
X14580000Y-24469000D01*
X14580000Y-25811000D01*
X14561093Y-25869191D01*
X14511593Y-25905155D01*
X14481000Y-25910000D01*
X13513006Y-25910000D01*
X13558532Y-26066699D01*
X13558532Y-26066700D01*
X13641805Y-26207507D01*
X13757491Y-26323193D01*
X13765168Y-26327733D01*
X13805632Y-26373627D01*
X13812741Y-26427219D01*
X13809500Y-26449472D01*
X13809500Y-26810528D01*
X13817384Y-26864641D01*
X13819355Y-26878171D01*
X13844859Y-26930340D01*
X13870364Y-26982511D01*
X13952489Y-27064636D01*
X13973980Y-27075142D01*
X14017954Y-27117685D01*
X14029500Y-27164083D01*
X14029500Y-28999564D01*
X14049978Y-29075988D01*
X14049979Y-29075989D01*
X14075415Y-29120046D01*
X14075416Y-29120048D01*
X14075417Y-29120048D01*
X14089540Y-29144511D01*
X14870775Y-29925746D01*
X15622540Y-30677511D01*
X15648162Y-30721891D01*
X15659977Y-30765986D01*
X15659980Y-30765992D01*
X15687336Y-30813373D01*
X15699540Y-30834511D01*
X15755489Y-30890460D01*
X15778329Y-30903647D01*
X15824007Y-30930019D01*
X15824011Y-30930021D01*
X15900435Y-30950499D01*
X15900437Y-30950500D01*
X15900438Y-30950500D01*
X18799521Y-30950500D01*
X18857712Y-30969407D01*
X18869525Y-30979496D01*
X19005525Y-31115496D01*
X19033302Y-31170013D01*
X19023731Y-31230445D01*
X18980466Y-31273710D01*
X18935521Y-31284500D01*
X18120252Y-31284500D01*
X18120251Y-31284500D01*
X18120241Y-31284501D01*
X18061772Y-31296132D01*
X18061766Y-31296134D01*
X17995451Y-31340445D01*
X17995445Y-31340451D01*
X17951134Y-31406766D01*
X17951132Y-31406772D01*
X17939501Y-31465241D01*
X17939500Y-31465253D01*
X17939500Y-32154746D01*
X17939501Y-32154758D01*
X17951132Y-32213227D01*
X17951134Y-32213233D01*
X17995445Y-32279548D01*
X17995448Y-32279552D01*
X18061769Y-32323867D01*
X18106231Y-32332711D01*
X18120241Y-32335498D01*
X18120246Y-32335498D01*
X18120252Y-32335500D01*
X18120253Y-32335500D01*
X19219747Y-32335500D01*
X19219748Y-32335500D01*
X19278231Y-32323867D01*
X19344552Y-32279552D01*
X19388867Y-32213231D01*
X19400500Y-32154748D01*
X19400500Y-31749479D01*
X19419407Y-31691288D01*
X19468907Y-31655324D01*
X19530093Y-31655324D01*
X19569504Y-31679475D01*
X19740504Y-31850475D01*
X19768281Y-31904992D01*
X19769500Y-31920479D01*
X19769500Y-32205916D01*
X19750593Y-32264107D01*
X19713981Y-32294856D01*
X19692494Y-32305360D01*
X19692492Y-32305362D01*
X19692490Y-32305363D01*
X19692489Y-32305364D01*
X19638349Y-32359504D01*
X19610364Y-32387489D01*
X19559355Y-32491828D01*
X19559355Y-32491830D01*
X19551682Y-32544500D01*
X19549500Y-32559475D01*
X19549500Y-32920526D01*
X19552742Y-32942779D01*
X19542421Y-33003087D01*
X19505173Y-33042263D01*
X19497492Y-33046805D01*
X19377404Y-33166894D01*
X19376182Y-33165672D01*
X19332232Y-33195523D01*
X19285326Y-33197544D01*
X19219750Y-33184500D01*
X19219748Y-33184500D01*
X18120252Y-33184500D01*
X18120251Y-33184500D01*
X18120241Y-33184501D01*
X18061772Y-33196132D01*
X18061766Y-33196134D01*
X17995451Y-33240445D01*
X17995445Y-33240451D01*
X17951134Y-33306766D01*
X17951132Y-33306772D01*
X17939501Y-33365241D01*
X17939500Y-33365253D01*
X17939500Y-34054746D01*
X17939501Y-34054758D01*
X17951132Y-34113227D01*
X17951134Y-34113233D01*
X17995445Y-34179548D01*
X17995448Y-34179552D01*
X18061769Y-34223867D01*
X18106231Y-34232711D01*
X18120241Y-34235498D01*
X18120246Y-34235498D01*
X18120252Y-34235500D01*
X18729521Y-34235500D01*
X18787712Y-34254407D01*
X18799525Y-34264496D01*
X19054540Y-34519511D01*
X19054539Y-34519511D01*
X19110489Y-34575460D01*
X19179007Y-34615019D01*
X19179011Y-34615021D01*
X19255435Y-34635499D01*
X19255437Y-34635500D01*
X19255438Y-34635500D01*
X20441511Y-34635500D01*
X20441511Y-34635499D01*
X20517937Y-34615021D01*
X20586459Y-34575460D01*
X20614433Y-34547485D01*
X20642409Y-34519511D01*
X20885610Y-34276309D01*
X20980460Y-34181459D01*
X21001222Y-34145498D01*
X21020020Y-34112940D01*
X21020020Y-34112938D01*
X21020022Y-34112936D01*
X21040500Y-34036510D01*
X21040500Y-33957386D01*
X21040500Y-33370438D01*
X21020021Y-33294011D01*
X21016466Y-33287854D01*
X20980460Y-33225489D01*
X20924511Y-33169539D01*
X20924511Y-33169540D01*
X20619496Y-32864525D01*
X20591719Y-32810008D01*
X20590500Y-32794521D01*
X20590500Y-32559475D01*
X20590500Y-32559472D01*
X20580645Y-32491830D01*
X20529636Y-32387489D01*
X20501648Y-32359501D01*
X20473873Y-32304987D01*
X20483444Y-32244555D01*
X20526709Y-32201290D01*
X20571654Y-32190500D01*
X20691686Y-32190500D01*
X20745209Y-32206216D01*
X20859323Y-32279552D01*
X20859947Y-32279953D01*
X20946483Y-32305362D01*
X20998035Y-32320499D01*
X20998036Y-32320499D01*
X20998039Y-32320500D01*
X20998041Y-32320500D01*
X21141959Y-32320500D01*
X21141961Y-32320500D01*
X21280053Y-32279953D01*
X21401128Y-32202143D01*
X21495377Y-32093373D01*
X21555165Y-31962457D01*
X21563689Y-31903170D01*
X21575647Y-31820002D01*
X21575647Y-31819997D01*
X21555165Y-31677543D01*
X21517227Y-31594471D01*
X21495377Y-31546627D01*
X21401128Y-31437857D01*
X21401127Y-31437856D01*
X21401126Y-31437855D01*
X21280057Y-31360049D01*
X21280054Y-31360047D01*
X21280053Y-31360047D01*
X21280050Y-31360046D01*
X21141964Y-31319500D01*
X21141961Y-31319500D01*
X20998039Y-31319500D01*
X20998035Y-31319500D01*
X20859949Y-31360046D01*
X20859942Y-31360049D01*
X20738873Y-31437855D01*
X20715134Y-31465252D01*
X20644623Y-31546627D01*
X20644622Y-31546628D01*
X20639987Y-31551978D01*
X20638327Y-31550539D01*
X20598927Y-31582756D01*
X20563012Y-31589500D01*
X20370478Y-31589500D01*
X20312287Y-31570593D01*
X20300474Y-31560503D01*
X20254511Y-31514539D01*
X20254511Y-31514540D01*
X19769222Y-31029251D01*
X19741445Y-30974734D01*
X19751016Y-30914302D01*
X19794281Y-30871037D01*
X19811331Y-30864258D01*
X19860053Y-30849953D01*
X19981128Y-30772143D01*
X20075377Y-30663373D01*
X20135165Y-30532457D01*
X20153050Y-30408061D01*
X20155647Y-30390002D01*
X20155647Y-30389997D01*
X20135165Y-30247543D01*
X20128392Y-30232712D01*
X20075377Y-30116627D01*
X19981128Y-30007857D01*
X19981127Y-30007856D01*
X19976491Y-30002506D01*
X19978524Y-30000743D01*
X19953067Y-29958505D01*
X19950500Y-29936105D01*
X19950500Y-29804478D01*
X19969407Y-29746287D01*
X20018907Y-29710323D01*
X20080093Y-29710323D01*
X20119501Y-29734472D01*
X21880505Y-31495476D01*
X21908281Y-31549991D01*
X21909500Y-31565478D01*
X21909500Y-39824520D01*
X21890593Y-39882711D01*
X21880504Y-39894524D01*
X11367175Y-50407852D01*
X11312658Y-50435629D01*
X11256905Y-50428289D01*
X11222040Y-50412766D01*
X11222035Y-50412764D01*
X11222034Y-50412764D01*
X11222031Y-50412763D01*
X11222030Y-50412763D01*
X11175135Y-50402795D01*
X11042019Y-50374500D01*
X10857981Y-50374500D01*
X10760797Y-50395157D01*
X10677969Y-50412763D01*
X10677963Y-50412765D01*
X10509845Y-50487615D01*
X10509842Y-50487617D01*
X10509839Y-50487618D01*
X10509839Y-50487619D01*
X10467571Y-50518328D01*
X10360948Y-50595794D01*
X10237804Y-50732561D01*
X10204962Y-50789445D01*
X10159492Y-50830385D01*
X10098642Y-50836780D01*
X10045654Y-50806187D01*
X10030605Y-50784072D01*
X9953288Y-50628799D01*
X9953283Y-50628790D01*
X9822052Y-50455012D01*
X9661129Y-50308313D01*
X9661126Y-50308311D01*
X9475991Y-50193680D01*
X9475986Y-50193677D01*
X9272932Y-50115013D01*
X9272926Y-50115011D01*
X9200000Y-50101379D01*
X9200000Y-50969670D01*
X9180255Y-50949925D01*
X9094745Y-50900556D01*
X8999370Y-50875000D01*
X8900630Y-50875000D01*
X8805255Y-50900556D01*
X8719745Y-50949925D01*
X8700000Y-50969670D01*
X8700000Y-50101379D01*
X8699999Y-50101379D01*
X8627073Y-50115011D01*
X8627067Y-50115013D01*
X8424013Y-50193677D01*
X8424008Y-50193680D01*
X8238873Y-50308311D01*
X8238870Y-50308313D01*
X8077944Y-50455015D01*
X7995383Y-50564343D01*
X7945227Y-50599386D01*
X7884052Y-50598255D01*
X7835225Y-50561382D01*
X7819283Y-50523999D01*
X7813867Y-50496769D01*
X7769552Y-50430448D01*
X7766321Y-50428289D01*
X7703233Y-50386134D01*
X7703231Y-50386133D01*
X7703228Y-50386132D01*
X7703227Y-50386132D01*
X7644758Y-50374501D01*
X7644748Y-50374500D01*
X7644747Y-50374500D01*
X7349500Y-50374500D01*
X7291309Y-50355593D01*
X7255345Y-50306093D01*
X7250500Y-50275500D01*
X7250500Y-47325478D01*
X7269407Y-47267287D01*
X7279490Y-47255480D01*
X16710460Y-37824511D01*
X16750021Y-37755989D01*
X16770500Y-37679562D01*
X16770500Y-34334500D01*
X16789407Y-34276309D01*
X16838907Y-34240345D01*
X16869500Y-34235500D01*
X17019747Y-34235500D01*
X17019748Y-34235500D01*
X17078231Y-34223867D01*
X17144552Y-34179552D01*
X17188867Y-34113231D01*
X17200500Y-34054748D01*
X17200500Y-33609041D01*
X17219407Y-33550850D01*
X17240171Y-33529788D01*
X17357184Y-33442192D01*
X17357192Y-33442184D01*
X17443352Y-33327090D01*
X17443353Y-33327088D01*
X17493596Y-33192381D01*
X17493598Y-33192370D01*
X17500000Y-33132824D01*
X17500000Y-33010001D01*
X17499999Y-33010000D01*
X15933001Y-33010000D01*
X15926261Y-33016739D01*
X15914093Y-33054191D01*
X15864593Y-33090155D01*
X15834000Y-33095000D01*
X14919000Y-33095000D01*
X14860809Y-33076093D01*
X14824845Y-33026593D01*
X14820000Y-32996000D01*
X14820000Y-32694000D01*
X14838907Y-32635809D01*
X14888407Y-32599845D01*
X14919000Y-32595000D01*
X15396999Y-32595000D01*
X15403738Y-32588260D01*
X15415907Y-32550809D01*
X15465407Y-32514845D01*
X15496000Y-32510000D01*
X17499999Y-32510000D01*
X17500000Y-32509999D01*
X17500000Y-32387175D01*
X17493598Y-32327629D01*
X17493596Y-32327618D01*
X17443353Y-32192911D01*
X17443352Y-32192909D01*
X17357192Y-32077815D01*
X17357184Y-32077807D01*
X17240171Y-31990210D01*
X17204918Y-31940201D01*
X17200500Y-31910957D01*
X17200500Y-31465253D01*
X17200498Y-31465241D01*
X17195050Y-31437855D01*
X17188867Y-31406769D01*
X17144552Y-31340448D01*
X17132641Y-31332489D01*
X17078233Y-31296134D01*
X17078231Y-31296133D01*
X17078228Y-31296132D01*
X17078227Y-31296132D01*
X17019758Y-31284501D01*
X17019748Y-31284500D01*
X15920252Y-31284500D01*
X15920251Y-31284500D01*
X15920241Y-31284501D01*
X15861772Y-31296132D01*
X15861766Y-31296134D01*
X15795451Y-31340445D01*
X15795445Y-31340451D01*
X15751134Y-31406766D01*
X15751132Y-31406772D01*
X15739501Y-31465241D01*
X15739500Y-31465253D01*
X15739500Y-31475500D01*
X15720593Y-31533691D01*
X15671093Y-31569655D01*
X15640500Y-31574500D01*
X15616862Y-31574500D01*
X15558671Y-31555593D01*
X15535700Y-31528242D01*
X15534405Y-31529168D01*
X15529638Y-31522492D01*
X15529636Y-31522490D01*
X15529636Y-31522489D01*
X15447511Y-31440364D01*
X15343170Y-31389355D01*
X15343171Y-31389355D01*
X15326259Y-31386891D01*
X15275528Y-31379500D01*
X14864472Y-31379500D01*
X14796830Y-31389355D01*
X14796828Y-31389355D01*
X14796826Y-31389356D01*
X14788127Y-31393609D01*
X14727545Y-31402179D01*
X14674644Y-31374672D01*
X12069496Y-28769524D01*
X12041719Y-28715007D01*
X12040500Y-28699520D01*
X12040500Y-25410000D01*
X13513005Y-25410000D01*
X14079999Y-25410000D01*
X14080000Y-25409999D01*
X14080000Y-24870001D01*
X14079999Y-24870000D01*
X13513006Y-24870000D01*
X13558531Y-25026698D01*
X13595734Y-25089606D01*
X13609081Y-25149318D01*
X13595734Y-25190394D01*
X13558531Y-25253301D01*
X13513005Y-25410000D01*
X12040500Y-25410000D01*
X12040500Y-18210437D01*
X12040499Y-18210435D01*
X12020021Y-18134011D01*
X12020019Y-18134007D01*
X11980461Y-18065491D01*
X11980460Y-18065489D01*
X11924511Y-18009540D01*
X11912138Y-18002396D01*
X11891635Y-17986664D01*
X10412341Y-16507370D01*
X8914511Y-15009540D01*
X8914508Y-15009538D01*
X8907872Y-15005706D01*
X8907872Y-15005707D01*
X8845989Y-14969979D01*
X8845988Y-14969978D01*
X8845987Y-14969978D01*
X8769564Y-14949500D01*
X8769562Y-14949500D01*
X6870507Y-14949500D01*
X6812316Y-14930593D01*
X6800503Y-14920504D01*
X6779999Y-14900000D01*
X6309689Y-14900000D01*
X6299988Y-14899524D01*
X6299751Y-14899500D01*
X6299748Y-14899500D01*
X5604000Y-14899500D01*
X5545809Y-14880593D01*
X5509845Y-14831093D01*
X5505000Y-14800500D01*
X5505000Y-14699500D01*
X5523907Y-14641309D01*
X5573407Y-14605345D01*
X5604000Y-14600500D01*
X6299744Y-14600500D01*
X6299748Y-14600500D01*
X6299751Y-14600499D01*
X6299988Y-14600476D01*
X6309689Y-14600000D01*
X6779999Y-14600000D01*
X6800503Y-14579496D01*
X6855020Y-14551719D01*
X6870507Y-14550500D01*
X9114521Y-14550500D01*
X9172712Y-14569407D01*
G37*
%TD.AperFunction*%
%TA.AperFunction,Conductor*%
G36*
X18657969Y-15669407D02*
G01*
X18693933Y-15718907D01*
X18693933Y-15780093D01*
X18674597Y-15814331D01*
X18594623Y-15906626D01*
X18534834Y-16037543D01*
X18514353Y-16179997D01*
X18514353Y-16180002D01*
X18534834Y-16322456D01*
X18576355Y-16413373D01*
X18594623Y-16453373D01*
X18671267Y-16541826D01*
X18693509Y-16567494D01*
X18691471Y-16569259D01*
X18716925Y-16611458D01*
X18719500Y-16633893D01*
X18719500Y-16655916D01*
X18700593Y-16714107D01*
X18663981Y-16744856D01*
X18642494Y-16755360D01*
X18642492Y-16755362D01*
X18642490Y-16755363D01*
X18642489Y-16755364D01*
X18600364Y-16797489D01*
X18560364Y-16837489D01*
X18509355Y-16941828D01*
X18509355Y-16941830D01*
X18499500Y-17009472D01*
X18499500Y-17370528D01*
X18506756Y-17420334D01*
X18509355Y-17438171D01*
X18534859Y-17490340D01*
X18560364Y-17542511D01*
X18622851Y-17604998D01*
X18650627Y-17659513D01*
X18641056Y-17719945D01*
X18622852Y-17745000D01*
X18560364Y-17807489D01*
X18509355Y-17911828D01*
X18509355Y-17911830D01*
X18499500Y-17979472D01*
X18499500Y-18340528D01*
X18505902Y-18384471D01*
X18509355Y-18408171D01*
X18534859Y-18460340D01*
X18560364Y-18512511D01*
X18642489Y-18594636D01*
X18663980Y-18605142D01*
X18707954Y-18647685D01*
X18719500Y-18694083D01*
X18719500Y-21828020D01*
X18739978Y-21904444D01*
X18739979Y-21904445D01*
X18760186Y-21939444D01*
X18779540Y-21972967D01*
X19885943Y-23079370D01*
X20939879Y-24133306D01*
X20962905Y-24178499D01*
X20965460Y-24177805D01*
X20967414Y-24184989D01*
X20972154Y-24195724D01*
X21012794Y-24287765D01*
X21016500Y-24296157D01*
X21014126Y-24297205D01*
X21027537Y-24342757D01*
X21014477Y-24382949D01*
X21016500Y-24383843D01*
X21012794Y-24392234D01*
X21012794Y-24392235D01*
X20980772Y-24464758D01*
X20967414Y-24495011D01*
X20964500Y-24520130D01*
X20964500Y-24809859D01*
X20964501Y-24809864D01*
X20967414Y-24834990D01*
X20982873Y-24870000D01*
X21001600Y-24912414D01*
X21016500Y-24946157D01*
X21014126Y-24947205D01*
X21027537Y-24992757D01*
X21014477Y-25032949D01*
X21016500Y-25033843D01*
X21012794Y-25042234D01*
X21012794Y-25042235D01*
X20996078Y-25080093D01*
X20967414Y-25145011D01*
X20964500Y-25170130D01*
X20964500Y-25459859D01*
X20964501Y-25459864D01*
X20967414Y-25484990D01*
X20984804Y-25524373D01*
X21003523Y-25566769D01*
X21016500Y-25596157D01*
X21014126Y-25597205D01*
X21027537Y-25642757D01*
X21014477Y-25682949D01*
X21016500Y-25683843D01*
X21012794Y-25692234D01*
X21012794Y-25692235D01*
X20998530Y-25724540D01*
X20967414Y-25795011D01*
X20964500Y-25820130D01*
X20964500Y-26109859D01*
X20964501Y-26109864D01*
X20967414Y-26134990D01*
X21016500Y-26246157D01*
X21014124Y-26247205D01*
X21027537Y-26292744D01*
X21010213Y-26346001D01*
X21009988Y-26346329D01*
X20984861Y-26369582D01*
X20985636Y-26370591D01*
X20980496Y-26374534D01*
X20105489Y-27249541D01*
X20105488Y-27249540D01*
X20049539Y-27305490D01*
X20009980Y-27374008D01*
X20009978Y-27374012D01*
X19989500Y-27450436D01*
X19989500Y-28991307D01*
X19970593Y-29049498D01*
X19921093Y-29085462D01*
X19859907Y-29085462D01*
X19820498Y-29061312D01*
X17133726Y-26374540D01*
X17125138Y-26369582D01*
X17113021Y-26362586D01*
X17109555Y-26360585D01*
X17068613Y-26315116D01*
X17062216Y-26254266D01*
X17068484Y-26234868D01*
X17112585Y-26134991D01*
X17115500Y-26109865D01*
X17115499Y-25989522D01*
X17134406Y-25931333D01*
X17154232Y-25910981D01*
X17242920Y-25842928D01*
X17242929Y-25842919D01*
X17339098Y-25717589D01*
X17339100Y-25717585D01*
X17399555Y-25571632D01*
X17407011Y-25515000D01*
X16076500Y-25515000D01*
X16018309Y-25496093D01*
X15982345Y-25446593D01*
X15977500Y-25416000D01*
X15977500Y-25214000D01*
X15996407Y-25155809D01*
X16045907Y-25119845D01*
X16076500Y-25115000D01*
X17407011Y-25115000D01*
X17407011Y-25114999D01*
X17399556Y-25058372D01*
X17399554Y-25058364D01*
X17339100Y-24912414D01*
X17339098Y-24912410D01*
X17242929Y-24787080D01*
X17242923Y-24787074D01*
X17154231Y-24719018D01*
X17119576Y-24668593D01*
X17115499Y-24640476D01*
X17115499Y-24527734D01*
X17134406Y-24469543D01*
X17183906Y-24433579D01*
X17245092Y-24433579D01*
X17268022Y-24444450D01*
X17346696Y-24495011D01*
X17369947Y-24509953D01*
X17476403Y-24541211D01*
X17508035Y-24550499D01*
X17508036Y-24550499D01*
X17508039Y-24550500D01*
X17508041Y-24550500D01*
X17651959Y-24550500D01*
X17651961Y-24550500D01*
X17790053Y-24509953D01*
X17911128Y-24432143D01*
X18005377Y-24323373D01*
X18065165Y-24192457D01*
X18085647Y-24050000D01*
X18084928Y-24045000D01*
X18065165Y-23907543D01*
X18052592Y-23880013D01*
X18005377Y-23776627D01*
X17911128Y-23667857D01*
X17911127Y-23667856D01*
X17911126Y-23667855D01*
X17790057Y-23590049D01*
X17790054Y-23590047D01*
X17790053Y-23590047D01*
X17790050Y-23590046D01*
X17651964Y-23549500D01*
X17651961Y-23549500D01*
X17508039Y-23549500D01*
X17508035Y-23549500D01*
X17369949Y-23590046D01*
X17369942Y-23590049D01*
X17253848Y-23664658D01*
X17194673Y-23680213D01*
X17137656Y-23658014D01*
X17104577Y-23606541D01*
X17108071Y-23545456D01*
X17109751Y-23541408D01*
X17112585Y-23534991D01*
X17115500Y-23509865D01*
X17115499Y-23220136D01*
X17112585Y-23195009D01*
X17067206Y-23092235D01*
X17067205Y-23092234D01*
X17063500Y-23083843D01*
X17065875Y-23082794D01*
X17052462Y-23037261D01*
X17069633Y-22984222D01*
X17069856Y-22983895D01*
X17095151Y-22960435D01*
X17094364Y-22959409D01*
X17099506Y-22955463D01*
X17099507Y-22955461D01*
X17099510Y-22955460D01*
X17155459Y-22899511D01*
X17710460Y-22344510D01*
X17726103Y-22317415D01*
X17750021Y-22275988D01*
X17770500Y-22199561D01*
X17770500Y-21423893D01*
X17789407Y-21365702D01*
X17796741Y-21357711D01*
X17796491Y-21357494D01*
X17801128Y-21352143D01*
X17895377Y-21243373D01*
X17955165Y-21112457D01*
X17975647Y-20970000D01*
X17955165Y-20827543D01*
X17895377Y-20696627D01*
X17801128Y-20587857D01*
X17801127Y-20587856D01*
X17801126Y-20587855D01*
X17680057Y-20510049D01*
X17680054Y-20510047D01*
X17680053Y-20510047D01*
X17680050Y-20510046D01*
X17541964Y-20469500D01*
X17541961Y-20469500D01*
X17398039Y-20469500D01*
X17398035Y-20469500D01*
X17259949Y-20510046D01*
X17259942Y-20510049D01*
X17138873Y-20587855D01*
X17044622Y-20696628D01*
X16984834Y-20827543D01*
X16964353Y-20969997D01*
X16964353Y-20970002D01*
X16984834Y-21112456D01*
X17044623Y-21243373D01*
X17143509Y-21357494D01*
X17141471Y-21359259D01*
X17166925Y-21401458D01*
X17169500Y-21423893D01*
X17169500Y-21655522D01*
X17150593Y-21713713D01*
X17101093Y-21749677D01*
X17039907Y-21749677D01*
X17000498Y-21725527D01*
X16987765Y-21712794D01*
X16884991Y-21667415D01*
X16884990Y-21667414D01*
X16884988Y-21667414D01*
X16859868Y-21664500D01*
X15495139Y-21664500D01*
X15495136Y-21664501D01*
X15470009Y-21667414D01*
X15367235Y-21712794D01*
X15287794Y-21792235D01*
X15242414Y-21895011D01*
X15239500Y-21920130D01*
X15239500Y-22209859D01*
X15239501Y-22209864D01*
X15242414Y-22234990D01*
X15255553Y-22264746D01*
X15278806Y-22317410D01*
X15291500Y-22346157D01*
X15289126Y-22347205D01*
X15302537Y-22392757D01*
X15289477Y-22432949D01*
X15291500Y-22433843D01*
X15287795Y-22442233D01*
X15287794Y-22442235D01*
X15265292Y-22493195D01*
X15224493Y-22538790D01*
X15164684Y-22551695D01*
X15108712Y-22526981D01*
X15104725Y-22523210D01*
X14309496Y-21727981D01*
X14281719Y-21673464D01*
X14280500Y-21657977D01*
X14280500Y-20744083D01*
X14299407Y-20685892D01*
X14336020Y-20655142D01*
X14357511Y-20644636D01*
X14439636Y-20562511D01*
X14490645Y-20458170D01*
X14500500Y-20390528D01*
X14500500Y-20029472D01*
X14490645Y-19961830D01*
X14439636Y-19857489D01*
X14377148Y-19795001D01*
X14349373Y-19740487D01*
X14358944Y-19680055D01*
X14377147Y-19654999D01*
X14439636Y-19592511D01*
X14490645Y-19488170D01*
X14500500Y-19420528D01*
X14500500Y-19059472D01*
X14490645Y-18991830D01*
X14439636Y-18887489D01*
X14357511Y-18805364D01*
X14357509Y-18805363D01*
X14357508Y-18805362D01*
X14357505Y-18805360D01*
X14336019Y-18794856D01*
X14292045Y-18752313D01*
X14280500Y-18705916D01*
X14280500Y-15835479D01*
X14299407Y-15777288D01*
X14309496Y-15765475D01*
X14395475Y-15679496D01*
X14449992Y-15651719D01*
X14465479Y-15650500D01*
X18599778Y-15650500D01*
X18657969Y-15669407D01*
G37*
%TD.AperFunction*%
%TA.AperFunction,Conductor*%
G36*
X50777627Y-10024292D02*
G01*
X50789440Y-10034381D01*
X50922997Y-10167938D01*
X50938028Y-10197440D01*
X50970572Y-10215513D01*
X52020504Y-11265445D01*
X52048281Y-11319962D01*
X52049500Y-11335449D01*
X52049500Y-14480207D01*
X52030593Y-14538398D01*
X52020504Y-14550211D01*
X51150211Y-15420504D01*
X51095694Y-15448281D01*
X51080207Y-15449500D01*
X50495479Y-15449500D01*
X50437288Y-15430593D01*
X50425475Y-15420504D01*
X50360008Y-15355037D01*
X50332231Y-15300520D01*
X50341802Y-15240088D01*
X50350759Y-15225704D01*
X50413352Y-15142090D01*
X50413353Y-15142088D01*
X50463596Y-15007381D01*
X50463598Y-15007370D01*
X50470000Y-14947820D01*
X50470000Y-14900001D01*
X50469999Y-14900000D01*
X49999689Y-14900000D01*
X49989988Y-14899524D01*
X49989751Y-14899500D01*
X49989748Y-14899500D01*
X48700252Y-14899500D01*
X48700248Y-14899500D01*
X48700012Y-14899524D01*
X48690311Y-14900000D01*
X48343383Y-14900000D01*
X48302257Y-14891054D01*
X48300054Y-14890048D01*
X48300053Y-14890047D01*
X48300050Y-14890046D01*
X48161964Y-14849500D01*
X48161961Y-14849500D01*
X48018039Y-14849500D01*
X48018035Y-14849500D01*
X47879949Y-14890046D01*
X47879942Y-14890049D01*
X47758876Y-14967854D01*
X47758873Y-14967856D01*
X47758872Y-14967857D01*
X47722756Y-15009538D01*
X47717736Y-15015331D01*
X47665340Y-15046927D01*
X47642917Y-15049500D01*
X10545479Y-15049500D01*
X10487288Y-15030593D01*
X10475475Y-15020504D01*
X9976186Y-14521215D01*
X9464511Y-14009540D01*
X9464508Y-14009538D01*
X9431464Y-13990460D01*
X9431462Y-13990459D01*
X9395989Y-13969979D01*
X9395986Y-13969978D01*
X9319564Y-13949500D01*
X9319562Y-13949500D01*
X6870507Y-13949500D01*
X6812316Y-13930593D01*
X6800503Y-13920504D01*
X6779999Y-13900000D01*
X6309689Y-13900000D01*
X6299988Y-13899524D01*
X6299751Y-13899500D01*
X6299748Y-13899500D01*
X5604000Y-13899500D01*
X5545809Y-13880593D01*
X5509845Y-13831093D01*
X5505000Y-13800500D01*
X5505000Y-13699500D01*
X5523907Y-13641309D01*
X5573407Y-13605345D01*
X5604000Y-13600500D01*
X6299744Y-13600500D01*
X6299748Y-13600500D01*
X6299751Y-13600499D01*
X6299988Y-13600476D01*
X6309689Y-13600000D01*
X6779999Y-13600000D01*
X6800503Y-13579496D01*
X6855020Y-13551719D01*
X6870507Y-13550500D01*
X11584521Y-13550500D01*
X11642712Y-13569407D01*
X11654525Y-13579496D01*
X12285489Y-14210460D01*
X12285491Y-14210461D01*
X12285492Y-14210462D01*
X12285493Y-14210463D01*
X12354008Y-14250020D01*
X12354006Y-14250020D01*
X12354010Y-14250021D01*
X12354012Y-14250022D01*
X12430438Y-14270500D01*
X21468039Y-14270500D01*
X21611961Y-14270500D01*
X47919486Y-14270500D01*
X47973009Y-14286216D01*
X48004013Y-14306141D01*
X48009945Y-14309953D01*
X48148037Y-14350500D01*
X48148042Y-14350500D01*
X48151120Y-14350943D01*
X48153455Y-14352090D01*
X48154831Y-14352495D01*
X48154761Y-14352733D01*
X48206029Y-14377938D01*
X48234584Y-14432051D01*
X48229794Y-14483527D01*
X48226404Y-14492616D01*
X48226401Y-14492629D01*
X48220000Y-14552175D01*
X48220000Y-14599999D01*
X48220001Y-14600000D01*
X48690311Y-14600000D01*
X48700012Y-14600476D01*
X48700248Y-14600499D01*
X48700252Y-14600500D01*
X48700256Y-14600500D01*
X49989744Y-14600500D01*
X49989748Y-14600500D01*
X49989751Y-14600499D01*
X49989988Y-14600476D01*
X49999689Y-14600000D01*
X50469999Y-14600000D01*
X50490503Y-14579496D01*
X50545020Y-14551719D01*
X50560507Y-14550500D01*
X50933236Y-14550500D01*
X50986759Y-14566216D01*
X51076105Y-14623635D01*
X51076110Y-14623638D01*
X51136293Y-14641309D01*
X51214198Y-14664184D01*
X51214199Y-14664184D01*
X51214202Y-14664185D01*
X51214204Y-14664185D01*
X51358122Y-14664185D01*
X51358124Y-14664185D01*
X51496216Y-14623638D01*
X51617291Y-14545828D01*
X51711540Y-14437058D01*
X51771328Y-14306142D01*
X51779397Y-14250020D01*
X51791810Y-14163687D01*
X51791810Y-14163682D01*
X51771328Y-14021228D01*
X51765989Y-14009538D01*
X51711540Y-13890312D01*
X51617291Y-13781542D01*
X51617290Y-13781541D01*
X51617289Y-13781540D01*
X51496220Y-13703734D01*
X51496217Y-13703732D01*
X51496216Y-13703732D01*
X51496213Y-13703731D01*
X51358127Y-13663185D01*
X51358124Y-13663185D01*
X51314887Y-13663185D01*
X51256696Y-13644278D01*
X51220732Y-13594778D01*
X51216895Y-13578274D01*
X51200059Y-13461178D01*
X51177204Y-13411133D01*
X51140271Y-13330262D01*
X51046022Y-13221492D01*
X51046021Y-13221491D01*
X51046020Y-13221490D01*
X50924951Y-13143684D01*
X50924948Y-13143682D01*
X50924947Y-13143682D01*
X50924944Y-13143681D01*
X50786858Y-13103135D01*
X50786855Y-13103135D01*
X50642933Y-13103135D01*
X50642929Y-13103135D01*
X50594264Y-13117425D01*
X50533103Y-13115677D01*
X50484651Y-13078314D01*
X50467940Y-13033016D01*
X50463598Y-12992629D01*
X50463596Y-12992618D01*
X50413354Y-12857913D01*
X50376984Y-12809329D01*
X50357247Y-12751415D01*
X50375321Y-12692960D01*
X50376984Y-12690671D01*
X50413354Y-12642086D01*
X50463596Y-12507381D01*
X50463598Y-12507370D01*
X50470000Y-12447824D01*
X50470000Y-12400001D01*
X50469999Y-12400000D01*
X49999689Y-12400000D01*
X49989988Y-12399524D01*
X49989751Y-12399500D01*
X49989748Y-12399500D01*
X49294000Y-12399500D01*
X49235809Y-12380593D01*
X49199845Y-12331093D01*
X49195000Y-12300500D01*
X49195000Y-12199500D01*
X49213907Y-12141309D01*
X49263407Y-12105345D01*
X49294000Y-12100500D01*
X49989744Y-12100500D01*
X49989748Y-12100500D01*
X49989751Y-12100499D01*
X49989988Y-12100476D01*
X49999689Y-12100000D01*
X50469999Y-12100000D01*
X50470000Y-12099999D01*
X50470000Y-12052175D01*
X50463598Y-11992629D01*
X50463596Y-11992618D01*
X50413354Y-11857913D01*
X50376984Y-11809329D01*
X50357247Y-11751415D01*
X50375321Y-11692960D01*
X50376984Y-11690671D01*
X50413354Y-11642086D01*
X50463596Y-11507381D01*
X50463598Y-11507370D01*
X50470000Y-11447824D01*
X50470000Y-11400001D01*
X50444388Y-11374389D01*
X50440891Y-11367526D01*
X50406245Y-11394243D01*
X50372976Y-11400000D01*
X49999689Y-11400000D01*
X49989988Y-11399524D01*
X49989751Y-11399500D01*
X49989748Y-11399500D01*
X49294000Y-11399500D01*
X49235809Y-11380593D01*
X49199845Y-11331093D01*
X49195000Y-11300500D01*
X49195000Y-11199500D01*
X49213907Y-11141309D01*
X49263407Y-11105345D01*
X49294000Y-11100500D01*
X49989744Y-11100500D01*
X49989748Y-11100500D01*
X49989751Y-11100499D01*
X49989988Y-11100476D01*
X49999689Y-11100000D01*
X50130688Y-11100000D01*
X50184211Y-11115716D01*
X50224035Y-11141309D01*
X50260647Y-11164838D01*
X50369379Y-11196764D01*
X50400867Y-11206010D01*
X50447633Y-11237988D01*
X50469447Y-11216175D01*
X50514392Y-11205385D01*
X50542659Y-11205385D01*
X50542661Y-11205385D01*
X50680753Y-11164838D01*
X50801828Y-11087028D01*
X50896077Y-10978258D01*
X50955865Y-10847342D01*
X50964043Y-10790460D01*
X50976347Y-10704887D01*
X50976347Y-10704882D01*
X50955865Y-10562428D01*
X50907008Y-10455448D01*
X50896077Y-10431512D01*
X50868772Y-10400000D01*
X50825749Y-10350348D01*
X50816124Y-10327573D01*
X50799470Y-10321226D01*
X50680757Y-10244934D01*
X50680754Y-10244932D01*
X50680753Y-10244932D01*
X50680750Y-10244931D01*
X50541109Y-10203929D01*
X50490602Y-10169393D01*
X50470040Y-10111766D01*
X50470000Y-10108939D01*
X50470000Y-10104385D01*
X50488907Y-10046194D01*
X50538407Y-10010230D01*
X50569000Y-10005385D01*
X50719436Y-10005385D01*
X50777627Y-10024292D01*
G37*
%TD.AperFunction*%
%TA.AperFunction,Conductor*%
G36*
X11774083Y-12569407D02*
G01*
X11785889Y-12579490D01*
X11796859Y-12590460D01*
X11796861Y-12590461D01*
X11802503Y-12596103D01*
X11802502Y-12596103D01*
X11802506Y-12596106D01*
X12159538Y-12953140D01*
X12159539Y-12953140D01*
X12360910Y-13154511D01*
X12360909Y-13154511D01*
X12416859Y-13210460D01*
X12485377Y-13250019D01*
X12485381Y-13250021D01*
X12561805Y-13270499D01*
X12561807Y-13270500D01*
X12561808Y-13270500D01*
X19752917Y-13270500D01*
X19811108Y-13289407D01*
X19827733Y-13304667D01*
X19868872Y-13352143D01*
X19989947Y-13429953D01*
X20076776Y-13455448D01*
X20128035Y-13470499D01*
X20128036Y-13470499D01*
X20128039Y-13470500D01*
X20128041Y-13470500D01*
X20271959Y-13470500D01*
X20271961Y-13470500D01*
X20410053Y-13429953D01*
X20531128Y-13352143D01*
X20625377Y-13243373D01*
X20685165Y-13112457D01*
X20687615Y-13095411D01*
X20714610Y-13040505D01*
X20768724Y-13011950D01*
X20785608Y-13010500D01*
X43133672Y-13010500D01*
X43183171Y-13023763D01*
X43194012Y-13030022D01*
X43270438Y-13050500D01*
X48129493Y-13050500D01*
X48187684Y-13069407D01*
X48199497Y-13079496D01*
X48220001Y-13100000D01*
X48690311Y-13100000D01*
X48700012Y-13100476D01*
X48700248Y-13100499D01*
X48700252Y-13100500D01*
X48700256Y-13100500D01*
X49396000Y-13100500D01*
X49454191Y-13119407D01*
X49490155Y-13168907D01*
X49495000Y-13199500D01*
X49495000Y-13300500D01*
X49476093Y-13358691D01*
X49426593Y-13394655D01*
X49396000Y-13399500D01*
X48700252Y-13399500D01*
X48700248Y-13399500D01*
X48700012Y-13399524D01*
X48690311Y-13400000D01*
X48473381Y-13400000D01*
X48432255Y-13391054D01*
X48430052Y-13390048D01*
X48430051Y-13390047D01*
X48430048Y-13390046D01*
X48291962Y-13349500D01*
X48291959Y-13349500D01*
X48148037Y-13349500D01*
X48148033Y-13349500D01*
X48009947Y-13390046D01*
X48009940Y-13390049D01*
X47888871Y-13467855D01*
X47822414Y-13544552D01*
X47794621Y-13576627D01*
X47778636Y-13611627D01*
X47737266Y-13656704D01*
X47688584Y-13669500D01*
X22107949Y-13669500D01*
X22049758Y-13650593D01*
X22017896Y-13611628D01*
X21965377Y-13496627D01*
X21871128Y-13387857D01*
X21871127Y-13387856D01*
X21871126Y-13387855D01*
X21750057Y-13310049D01*
X21750054Y-13310047D01*
X21750053Y-13310047D01*
X21750050Y-13310046D01*
X21611964Y-13269500D01*
X21611961Y-13269500D01*
X21468039Y-13269500D01*
X21468035Y-13269500D01*
X21329949Y-13310046D01*
X21329942Y-13310049D01*
X21208873Y-13387855D01*
X21114623Y-13496627D01*
X21062103Y-13611627D01*
X21020732Y-13656704D01*
X20972051Y-13669500D01*
X12635479Y-13669500D01*
X12577288Y-13650593D01*
X12565475Y-13640504D01*
X12255233Y-13330262D01*
X11934511Y-13009540D01*
X11934508Y-13009538D01*
X11901464Y-12990460D01*
X11901462Y-12990459D01*
X11865989Y-12969979D01*
X11865986Y-12969978D01*
X11789564Y-12949500D01*
X11789562Y-12949500D01*
X6870507Y-12949500D01*
X6812316Y-12930593D01*
X6800503Y-12920504D01*
X6779999Y-12900000D01*
X6309689Y-12900000D01*
X6299988Y-12899524D01*
X6299751Y-12899500D01*
X6299748Y-12899500D01*
X5604000Y-12899500D01*
X5545809Y-12880593D01*
X5509845Y-12831093D01*
X5505000Y-12800500D01*
X5505000Y-12699500D01*
X5523907Y-12641309D01*
X5573407Y-12605345D01*
X5604000Y-12600500D01*
X6299744Y-12600500D01*
X6299748Y-12600500D01*
X6299751Y-12600499D01*
X6299988Y-12600476D01*
X6309689Y-12600000D01*
X6779999Y-12600000D01*
X6800503Y-12579496D01*
X6855020Y-12551719D01*
X6870507Y-12550500D01*
X10760438Y-12550500D01*
X11715892Y-12550500D01*
X11774083Y-12569407D01*
G37*
%TD.AperFunction*%
%TA.AperFunction,Conductor*%
G36*
X47533181Y-11469407D02*
G01*
X47569145Y-11518907D01*
X47569145Y-11580093D01*
X47565043Y-11590627D01*
X47557317Y-11607543D01*
X47536836Y-11749997D01*
X47536836Y-11750002D01*
X47557317Y-11892456D01*
X47616373Y-12021769D01*
X47617106Y-12023373D01*
X47688773Y-12106082D01*
X47711356Y-12132144D01*
X47832425Y-12209950D01*
X47832430Y-12209953D01*
X47938886Y-12241211D01*
X47970518Y-12250499D01*
X47970519Y-12250499D01*
X47970522Y-12250500D01*
X47970524Y-12250500D01*
X48121000Y-12250500D01*
X48179191Y-12269407D01*
X48215155Y-12318907D01*
X48220000Y-12349500D01*
X48220000Y-12350500D01*
X48201093Y-12408691D01*
X48151593Y-12444655D01*
X48121000Y-12449500D01*
X43446327Y-12449500D01*
X43396829Y-12436237D01*
X43385989Y-12429979D01*
X43385987Y-12429978D01*
X43385985Y-12429977D01*
X43309564Y-12409500D01*
X43309562Y-12409500D01*
X20499562Y-12409500D01*
X20420438Y-12409500D01*
X20344012Y-12429978D01*
X20344011Y-12429978D01*
X20344009Y-12429979D01*
X20298532Y-12456236D01*
X20249031Y-12469500D01*
X20128035Y-12469500D01*
X19989949Y-12510046D01*
X19989942Y-12510049D01*
X19868876Y-12587854D01*
X19868871Y-12587858D01*
X19827736Y-12635331D01*
X19775340Y-12666927D01*
X19752917Y-12669500D01*
X12766849Y-12669500D01*
X12708658Y-12650593D01*
X12696845Y-12640504D01*
X12584511Y-12528170D01*
X12584511Y-12528169D01*
X12584510Y-12528169D01*
X12162424Y-12106082D01*
X12162424Y-12106083D01*
X12162423Y-12106082D01*
X12162423Y-12106081D01*
X12065880Y-12009539D01*
X12032834Y-11990460D01*
X12032832Y-11990459D01*
X11997359Y-11969979D01*
X11997356Y-11969978D01*
X11920934Y-11949500D01*
X11920932Y-11949500D01*
X10839562Y-11949500D01*
X6870507Y-11949500D01*
X6812316Y-11930593D01*
X6800503Y-11920504D01*
X6779999Y-11900000D01*
X6309689Y-11900000D01*
X6299988Y-11899524D01*
X6299751Y-11899500D01*
X6299748Y-11899500D01*
X5604000Y-11899500D01*
X5545809Y-11880593D01*
X5509845Y-11831093D01*
X5505000Y-11800500D01*
X5505000Y-11699500D01*
X5523907Y-11641309D01*
X5573407Y-11605345D01*
X5604000Y-11600500D01*
X6299744Y-11600500D01*
X6299748Y-11600500D01*
X6299751Y-11600499D01*
X6299988Y-11600476D01*
X6309689Y-11600000D01*
X6779999Y-11600000D01*
X6800503Y-11579496D01*
X6855020Y-11551719D01*
X6870507Y-11550500D01*
X18408176Y-11550500D01*
X18466367Y-11569407D01*
X18502331Y-11618907D01*
X18502331Y-11680093D01*
X18498229Y-11690627D01*
X18444834Y-11807543D01*
X18424353Y-11949997D01*
X18424353Y-11950002D01*
X18444834Y-12092456D01*
X18467145Y-12141309D01*
X18504623Y-12223373D01*
X18587403Y-12318907D01*
X18598873Y-12332144D01*
X18704461Y-12400001D01*
X18719947Y-12409953D01*
X18809463Y-12436237D01*
X18858035Y-12450499D01*
X18858036Y-12450499D01*
X18858039Y-12450500D01*
X18858041Y-12450500D01*
X19001959Y-12450500D01*
X19001961Y-12450500D01*
X19140053Y-12409953D01*
X19261128Y-12332143D01*
X19355377Y-12223373D01*
X19415165Y-12092457D01*
X19431588Y-11978231D01*
X19435647Y-11950002D01*
X19435647Y-11949997D01*
X19415165Y-11807543D01*
X19361771Y-11690627D01*
X19354796Y-11629840D01*
X19384882Y-11576563D01*
X19440538Y-11551145D01*
X19451824Y-11550500D01*
X45409563Y-11550500D01*
X45409563Y-11550499D01*
X45485989Y-11530021D01*
X45554511Y-11490460D01*
X45565476Y-11479494D01*
X45619991Y-11451719D01*
X45635478Y-11450500D01*
X47474990Y-11450500D01*
X47533181Y-11469407D01*
G37*
%TD.AperFunction*%
%TA.AperFunction,Conductor*%
G36*
X47790040Y-9669407D02*
G01*
X47826004Y-9718907D01*
X47826004Y-9780093D01*
X47790040Y-9829593D01*
X47757473Y-9845126D01*
X47704016Y-9859449D01*
X47704008Y-9859453D01*
X47692688Y-9865989D01*
X47692687Y-9865988D01*
X47635489Y-9899012D01*
X47313997Y-10220504D01*
X47259481Y-10248281D01*
X47243994Y-10249500D01*
X45689562Y-10249500D01*
X45610438Y-10249500D01*
X45563661Y-10262033D01*
X45534007Y-10269979D01*
X45465493Y-10309536D01*
X45465488Y-10309540D01*
X45354524Y-10420504D01*
X45300008Y-10448281D01*
X45284521Y-10449500D01*
X6870507Y-10449500D01*
X6812316Y-10430593D01*
X6800503Y-10420504D01*
X6779999Y-10400000D01*
X6309689Y-10400000D01*
X6299988Y-10399524D01*
X6299751Y-10399500D01*
X6299748Y-10399500D01*
X5604000Y-10399500D01*
X5545809Y-10380593D01*
X5509845Y-10331093D01*
X5505000Y-10300500D01*
X5505000Y-10199500D01*
X5523907Y-10141309D01*
X5573407Y-10105345D01*
X5604000Y-10100500D01*
X6299744Y-10100500D01*
X6299748Y-10100500D01*
X6299751Y-10100499D01*
X6299988Y-10100476D01*
X6309689Y-10100000D01*
X6338689Y-10100000D01*
X6388188Y-10113263D01*
X6405412Y-10123207D01*
X6507273Y-10150500D01*
X6507275Y-10150500D01*
X6612725Y-10150500D01*
X6612727Y-10150500D01*
X6714588Y-10123207D01*
X6714590Y-10123205D01*
X6714592Y-10123205D01*
X6731811Y-10113264D01*
X6779518Y-10100480D01*
X6798000Y-10081998D01*
X6798907Y-10079208D01*
X6808984Y-10067408D01*
X7196897Y-9679494D01*
X7251412Y-9651719D01*
X7266899Y-9650500D01*
X47731849Y-9650500D01*
X47790040Y-9669407D01*
G37*
%TD.AperFunction*%
%TA.AperFunction,Conductor*%
G36*
X52502992Y-100681D02*
G01*
X52783256Y-117633D01*
X52795111Y-119073D01*
X52958223Y-148964D01*
X52983638Y-153622D01*
X53037468Y-182709D01*
X53063920Y-237880D01*
X53052891Y-298064D01*
X53008593Y-340270D01*
X52965793Y-350000D01*
X51999997Y-350000D01*
X51299998Y-650000D01*
X50799999Y-1050000D01*
X50600005Y-1349990D01*
X50599998Y-1350002D01*
X50400001Y-1749996D01*
X50300000Y-2050000D01*
X50300000Y-3050002D01*
X50599997Y-3749995D01*
X50600000Y-3750000D01*
X51100000Y-4350000D01*
X51900000Y-4750000D01*
X52899998Y-4750000D01*
X52900000Y-4750000D01*
X53500000Y-4650000D01*
X54100000Y-4150000D01*
X54500000Y-3650000D01*
X54700000Y-2950000D01*
X54700000Y-2478186D01*
X54718907Y-2419995D01*
X54768407Y-2384031D01*
X54829593Y-2384031D01*
X54879093Y-2419995D01*
X54897819Y-2472209D01*
X54899319Y-2497007D01*
X54899500Y-2502984D01*
X54899500Y-50497015D01*
X54899319Y-50502993D01*
X54882366Y-50783251D01*
X54880925Y-50795118D01*
X54830854Y-51068346D01*
X54827993Y-51079954D01*
X54745353Y-51345154D01*
X54741114Y-51356332D01*
X54627107Y-51609646D01*
X54621551Y-51620231D01*
X54477849Y-51857944D01*
X54471058Y-51867783D01*
X54299749Y-52086443D01*
X54291822Y-52095392D01*
X54095392Y-52291822D01*
X54086443Y-52299749D01*
X53867783Y-52471058D01*
X53857944Y-52477849D01*
X53620231Y-52621551D01*
X53609646Y-52627107D01*
X53356332Y-52741114D01*
X53345154Y-52745353D01*
X53079954Y-52827993D01*
X53068346Y-52830854D01*
X52795118Y-52880925D01*
X52783251Y-52882366D01*
X52527790Y-52897819D01*
X52502991Y-52899319D01*
X52497015Y-52899500D01*
X2502985Y-52899500D01*
X2497008Y-52899319D01*
X2472210Y-52897819D01*
X2415267Y-52875433D01*
X2382357Y-52823852D01*
X2386051Y-52762778D01*
X2424938Y-52715540D01*
X2478187Y-52700000D01*
X2899998Y-52700000D01*
X2900000Y-52700000D01*
X3500000Y-52600000D01*
X4100000Y-52100000D01*
X4500000Y-51600000D01*
X4700000Y-50900000D01*
X4700000Y-49900000D01*
X4500000Y-49400000D01*
X4100000Y-48900000D01*
X3600000Y-48500000D01*
X3000000Y-48300000D01*
X2000000Y-48300000D01*
X1999997Y-48300000D01*
X1299998Y-48600000D01*
X799999Y-49000000D01*
X600005Y-49299990D01*
X599998Y-49300002D01*
X400001Y-49699996D01*
X300000Y-50000000D01*
X300000Y-50521813D01*
X281093Y-50580004D01*
X231593Y-50615968D01*
X170407Y-50615968D01*
X120907Y-50580004D01*
X102181Y-50527790D01*
X100681Y-50502992D01*
X100500Y-50497015D01*
X100500Y-17280253D01*
X1799500Y-17280253D01*
X1799500Y-18919746D01*
X1799501Y-18919758D01*
X1811132Y-18978227D01*
X1811134Y-18978233D01*
X1855445Y-19044548D01*
X1855448Y-19044552D01*
X1921769Y-19088867D01*
X1966231Y-19097711D01*
X1980241Y-19100498D01*
X1980246Y-19100498D01*
X1980252Y-19100500D01*
X1980253Y-19100500D01*
X4019747Y-19100500D01*
X4019748Y-19100500D01*
X4078231Y-19088867D01*
X4144552Y-19044552D01*
X4188867Y-18978231D01*
X4200500Y-18919748D01*
X4200500Y-17280252D01*
X4188867Y-17221769D01*
X4144552Y-17155448D01*
X4144548Y-17155445D01*
X4078233Y-17111134D01*
X4078231Y-17111133D01*
X4078228Y-17111132D01*
X4078227Y-17111132D01*
X4019758Y-17099501D01*
X4019748Y-17099500D01*
X1980252Y-17099500D01*
X1980251Y-17099500D01*
X1980241Y-17099501D01*
X1921772Y-17111132D01*
X1921766Y-17111134D01*
X1855451Y-17155445D01*
X1855445Y-17155451D01*
X1811134Y-17221766D01*
X1811132Y-17221772D01*
X1799501Y-17280241D01*
X1799500Y-17280253D01*
X100500Y-17280253D01*
X100500Y-16447824D01*
X4529999Y-16447824D01*
X4536401Y-16507370D01*
X4536403Y-16507381D01*
X4586646Y-16642088D01*
X4586647Y-16642090D01*
X4672807Y-16757184D01*
X4672815Y-16757192D01*
X4787909Y-16843352D01*
X4787911Y-16843353D01*
X4922618Y-16893596D01*
X4922629Y-16893598D01*
X4982176Y-16900000D01*
X5504999Y-16900000D01*
X5505000Y-16899999D01*
X5505000Y-16400001D01*
X5805000Y-16400001D01*
X5805000Y-16899999D01*
X5805001Y-16900000D01*
X6327824Y-16900000D01*
X6387370Y-16893598D01*
X6387381Y-16893596D01*
X6522088Y-16843353D01*
X6522090Y-16843352D01*
X6637184Y-16757192D01*
X6637192Y-16757184D01*
X6723352Y-16642090D01*
X6723353Y-16642088D01*
X6773596Y-16507381D01*
X6773598Y-16507370D01*
X6780000Y-16447824D01*
X6780000Y-16400001D01*
X6779999Y-16400000D01*
X5805001Y-16400000D01*
X5805000Y-16400001D01*
X5505000Y-16400001D01*
X5504999Y-16400000D01*
X4530001Y-16400000D01*
X4530000Y-16400001D01*
X4530000Y-16447824D01*
X4529999Y-16447824D01*
X100500Y-16447824D01*
X100500Y-10094749D01*
X4029500Y-10094749D01*
X4029500Y-14765248D01*
X4049977Y-14841671D01*
X4049978Y-14841673D01*
X4049979Y-14841675D01*
X4083364Y-14899500D01*
X4089540Y-14910197D01*
X4613854Y-15434511D01*
X4613853Y-15434511D01*
X4669803Y-15490460D01*
X4731837Y-15526276D01*
X4772778Y-15571746D01*
X4779173Y-15632596D01*
X4748581Y-15685584D01*
X4741667Y-15691265D01*
X4672812Y-15742810D01*
X4672807Y-15742815D01*
X4586647Y-15857909D01*
X4586646Y-15857911D01*
X4536403Y-15992618D01*
X4536401Y-15992629D01*
X4530000Y-16052175D01*
X4530000Y-16099999D01*
X4530001Y-16100000D01*
X5000311Y-16100000D01*
X5010012Y-16100476D01*
X5010248Y-16100499D01*
X5010252Y-16100500D01*
X5010256Y-16100500D01*
X6299744Y-16100500D01*
X6299748Y-16100500D01*
X6299751Y-16100499D01*
X6299988Y-16100476D01*
X6309689Y-16100000D01*
X6779999Y-16100000D01*
X6780000Y-16099999D01*
X6780000Y-16052175D01*
X6773598Y-15992629D01*
X6773596Y-15992618D01*
X6723353Y-15857911D01*
X6723352Y-15857909D01*
X6637192Y-15742815D01*
X6637184Y-15742807D01*
X6618410Y-15728753D01*
X6583157Y-15678745D01*
X6584031Y-15617565D01*
X6620698Y-15568584D01*
X6677739Y-15550500D01*
X8564521Y-15550500D01*
X8622712Y-15569407D01*
X8634525Y-15579496D01*
X11410504Y-18355475D01*
X11438281Y-18409992D01*
X11439500Y-18425479D01*
X11439500Y-28904563D01*
X11459978Y-28980987D01*
X11488540Y-29030456D01*
X11488541Y-29030459D01*
X11499536Y-29049504D01*
X11499537Y-29049506D01*
X11499540Y-29049510D01*
X12959776Y-30509746D01*
X14415025Y-31964995D01*
X14442802Y-32019512D01*
X14433231Y-32079944D01*
X14415025Y-32105002D01*
X14175489Y-32344539D01*
X14119539Y-32400489D01*
X14079980Y-32469007D01*
X14079978Y-32469011D01*
X14059500Y-32545435D01*
X14059500Y-33131512D01*
X14079978Y-33207936D01*
X14079980Y-33207940D01*
X14119538Y-33276456D01*
X14119540Y-33276459D01*
X14793541Y-33950460D01*
X14793543Y-33950461D01*
X14793545Y-33950463D01*
X14862060Y-33990020D01*
X14862058Y-33990020D01*
X14862062Y-33990021D01*
X14862064Y-33990022D01*
X14938490Y-34010500D01*
X15017614Y-34010500D01*
X15649451Y-34010500D01*
X15707642Y-34029407D01*
X15743606Y-34078907D01*
X15746548Y-34090184D01*
X15751132Y-34113227D01*
X15751134Y-34113233D01*
X15795445Y-34179548D01*
X15795448Y-34179552D01*
X15861769Y-34223867D01*
X15906231Y-34232711D01*
X15920241Y-34235498D01*
X15920246Y-34235498D01*
X15920252Y-34235500D01*
X16070500Y-34235500D01*
X16128691Y-34254407D01*
X16164655Y-34303907D01*
X16169500Y-34334500D01*
X16169500Y-37474521D01*
X16150593Y-37532712D01*
X16140504Y-37544525D01*
X6765489Y-46919540D01*
X6765488Y-46919539D01*
X6709539Y-46975489D01*
X6669980Y-47044007D01*
X6669978Y-47044011D01*
X6649500Y-47120435D01*
X6649500Y-50275500D01*
X6630593Y-50333691D01*
X6581093Y-50369655D01*
X6550500Y-50374500D01*
X6255252Y-50374500D01*
X6255251Y-50374500D01*
X6255241Y-50374501D01*
X6196772Y-50386132D01*
X6196766Y-50386134D01*
X6130451Y-50430445D01*
X6130445Y-50430451D01*
X6086134Y-50496766D01*
X6086132Y-50496772D01*
X6074501Y-50555241D01*
X6074500Y-50555253D01*
X6074500Y-51944746D01*
X6074501Y-51944758D01*
X6086132Y-52003227D01*
X6086134Y-52003233D01*
X6092249Y-52012384D01*
X6130448Y-52069552D01*
X6196769Y-52113867D01*
X6241231Y-52122711D01*
X6255241Y-52125498D01*
X6255246Y-52125498D01*
X6255252Y-52125500D01*
X6255253Y-52125500D01*
X7644747Y-52125500D01*
X7644748Y-52125500D01*
X7703231Y-52113867D01*
X7769552Y-52069552D01*
X7813867Y-52003231D01*
X7819283Y-51976001D01*
X7849178Y-51922619D01*
X7904743Y-51897003D01*
X7964753Y-51908940D01*
X7995384Y-51935656D01*
X8077947Y-52044987D01*
X8238870Y-52191686D01*
X8238873Y-52191688D01*
X8424008Y-52306319D01*
X8424013Y-52306322D01*
X8627070Y-52384987D01*
X8699999Y-52398620D01*
X8700000Y-52398620D01*
X8700000Y-51530330D01*
X8719745Y-51550075D01*
X8805255Y-51599444D01*
X8900630Y-51625000D01*
X8999370Y-51625000D01*
X9094745Y-51599444D01*
X9180255Y-51550075D01*
X9200000Y-51530330D01*
X9200000Y-52398620D01*
X9272929Y-52384987D01*
X9475986Y-52306322D01*
X9475991Y-52306319D01*
X9661126Y-52191688D01*
X9661129Y-52191686D01*
X9822052Y-52044987D01*
X9953283Y-51871209D01*
X9953288Y-51871200D01*
X10030605Y-51715927D01*
X10073467Y-51672265D01*
X10133808Y-51662135D01*
X10188579Y-51689407D01*
X10204962Y-51710555D01*
X10237805Y-51767440D01*
X10331239Y-51871209D01*
X10354463Y-51897003D01*
X10360950Y-51904207D01*
X10509839Y-52012381D01*
X10509843Y-52012383D01*
X10509845Y-52012384D01*
X10565485Y-52037156D01*
X10677966Y-52087236D01*
X10857981Y-52125500D01*
X10857983Y-52125500D01*
X11042017Y-52125500D01*
X11042019Y-52125500D01*
X11222034Y-52087236D01*
X11390161Y-52012381D01*
X11539050Y-51904207D01*
X11662195Y-51767440D01*
X11744433Y-51625000D01*
X11754209Y-51608068D01*
X11754209Y-51608066D01*
X11754214Y-51608059D01*
X11811085Y-51433029D01*
X11830322Y-51250000D01*
X11811085Y-51066971D01*
X11767765Y-50933649D01*
X11767765Y-50872465D01*
X11791914Y-50833055D01*
X22420498Y-40204472D01*
X22475013Y-40176697D01*
X22535445Y-40186268D01*
X22578710Y-40229533D01*
X22589500Y-40274478D01*
X22589500Y-41144520D01*
X22570593Y-41202711D01*
X22560504Y-41214524D01*
X13367175Y-50407852D01*
X13312658Y-50435629D01*
X13256905Y-50428289D01*
X13222040Y-50412766D01*
X13222035Y-50412764D01*
X13222034Y-50412764D01*
X13222031Y-50412763D01*
X13222030Y-50412763D01*
X13175135Y-50402795D01*
X13042019Y-50374500D01*
X12857981Y-50374500D01*
X12760797Y-50395157D01*
X12677969Y-50412763D01*
X12677963Y-50412765D01*
X12509845Y-50487615D01*
X12509842Y-50487617D01*
X12509839Y-50487618D01*
X12509839Y-50487619D01*
X12467571Y-50518328D01*
X12360948Y-50595794D01*
X12237803Y-50732562D01*
X12237803Y-50732563D01*
X12145790Y-50891931D01*
X12145784Y-50891945D01*
X12088916Y-51066965D01*
X12088915Y-51066969D01*
X12088915Y-51066971D01*
X12069678Y-51250000D01*
X12084891Y-51394745D01*
X12088916Y-51433034D01*
X12145784Y-51608054D01*
X12145790Y-51608068D01*
X12182855Y-51672265D01*
X12237805Y-51767440D01*
X12331239Y-51871209D01*
X12354463Y-51897003D01*
X12360950Y-51904207D01*
X12509839Y-52012381D01*
X12509843Y-52012383D01*
X12509845Y-52012384D01*
X12565485Y-52037156D01*
X12677966Y-52087236D01*
X12857981Y-52125500D01*
X12857983Y-52125500D01*
X13042017Y-52125500D01*
X13042019Y-52125500D01*
X13222034Y-52087236D01*
X13390161Y-52012381D01*
X13539050Y-51904207D01*
X13662195Y-51767440D01*
X13744433Y-51625000D01*
X13754209Y-51608068D01*
X13754209Y-51608066D01*
X13754214Y-51608059D01*
X13811085Y-51433029D01*
X13830322Y-51250000D01*
X13811085Y-51066971D01*
X13767765Y-50933649D01*
X13767765Y-50872465D01*
X13791914Y-50833055D01*
X23130460Y-41494511D01*
X23170021Y-41425989D01*
X23190500Y-41349562D01*
X23190500Y-34825253D01*
X34389500Y-34825253D01*
X34389500Y-36464746D01*
X34389501Y-36464758D01*
X34401132Y-36523227D01*
X34401133Y-36523231D01*
X34445448Y-36589552D01*
X34511769Y-36633867D01*
X34556231Y-36642711D01*
X34570241Y-36645498D01*
X34570246Y-36645498D01*
X34570252Y-36645500D01*
X34570253Y-36645500D01*
X36609747Y-36645500D01*
X36609748Y-36645500D01*
X36668231Y-36633867D01*
X36734552Y-36589552D01*
X36778867Y-36523231D01*
X36790500Y-36464748D01*
X36790500Y-34825252D01*
X36778867Y-34766769D01*
X36734552Y-34700448D01*
X36734548Y-34700445D01*
X36668233Y-34656134D01*
X36668231Y-34656133D01*
X36668228Y-34656132D01*
X36668227Y-34656132D01*
X36609758Y-34644501D01*
X36609748Y-34644500D01*
X34570252Y-34644500D01*
X34570251Y-34644500D01*
X34570241Y-34644501D01*
X34511772Y-34656132D01*
X34511766Y-34656134D01*
X34445451Y-34700445D01*
X34445445Y-34700451D01*
X34401134Y-34766766D01*
X34401132Y-34766772D01*
X34389501Y-34825241D01*
X34389500Y-34825253D01*
X23190500Y-34825253D01*
X23190500Y-33294478D01*
X23209407Y-33236287D01*
X23258907Y-33200323D01*
X23320093Y-33200323D01*
X23359504Y-33224475D01*
X23699453Y-33564425D01*
X23727230Y-33618941D01*
X23727442Y-33648515D01*
X23724353Y-33670002D01*
X23744834Y-33812456D01*
X23804622Y-33943371D01*
X23804623Y-33943373D01*
X23885326Y-34036510D01*
X23898873Y-34052144D01*
X23993927Y-34113231D01*
X24019947Y-34129953D01*
X24126403Y-34161211D01*
X24158035Y-34170499D01*
X24158036Y-34170499D01*
X24158039Y-34170500D01*
X24158041Y-34170500D01*
X24301959Y-34170500D01*
X24301961Y-34170500D01*
X24440053Y-34129953D01*
X24561128Y-34052143D01*
X24602264Y-34004668D01*
X24654660Y-33973073D01*
X24677083Y-33970500D01*
X30769521Y-33970500D01*
X30827712Y-33989407D01*
X30839524Y-33999496D01*
X30875487Y-34035458D01*
X30875493Y-34035463D01*
X30944008Y-34075020D01*
X30944006Y-34075020D01*
X30944010Y-34075021D01*
X30944012Y-34075022D01*
X31020438Y-34095500D01*
X31099562Y-34095500D01*
X32144318Y-34095500D01*
X32199320Y-34112185D01*
X32225907Y-34129950D01*
X32231769Y-34133867D01*
X32276231Y-34142711D01*
X32290241Y-34145498D01*
X32290246Y-34145498D01*
X32290252Y-34145500D01*
X32290253Y-34145500D01*
X33579747Y-34145500D01*
X33579748Y-34145500D01*
X33638231Y-34133867D01*
X33662896Y-34117385D01*
X33670680Y-34112185D01*
X33725682Y-34095500D01*
X34848092Y-34095500D01*
X34848092Y-34095499D01*
X34924518Y-34075021D01*
X34993040Y-34035460D01*
X35048989Y-33979511D01*
X35890460Y-33138040D01*
X35890463Y-33138035D01*
X35930020Y-33069521D01*
X35930020Y-33069519D01*
X35930022Y-33069517D01*
X35950500Y-32993091D01*
X35950500Y-32913967D01*
X35950500Y-32245438D01*
X35930021Y-32169011D01*
X35921786Y-32154748D01*
X35890460Y-32100489D01*
X35834511Y-32044539D01*
X35834511Y-32044540D01*
X34844511Y-31054540D01*
X34844508Y-31054538D01*
X34820194Y-31040500D01*
X34775990Y-31014979D01*
X34775985Y-31014977D01*
X34699564Y-30994500D01*
X34699562Y-30994500D01*
X34150507Y-30994500D01*
X34092316Y-30975593D01*
X34080503Y-30965504D01*
X34059999Y-30945000D01*
X33589689Y-30945000D01*
X33579988Y-30944524D01*
X33579751Y-30944500D01*
X33579748Y-30944500D01*
X32884000Y-30944500D01*
X32825809Y-30925593D01*
X32789845Y-30876093D01*
X32785000Y-30845500D01*
X32785000Y-30445001D01*
X33085000Y-30445001D01*
X33085000Y-30644999D01*
X33085001Y-30645000D01*
X34059999Y-30645000D01*
X34060000Y-30644999D01*
X34060000Y-30597175D01*
X34055528Y-30555584D01*
X34055528Y-30534416D01*
X34060000Y-30492824D01*
X34060000Y-30445001D01*
X34059999Y-30445000D01*
X33085001Y-30445000D01*
X33085000Y-30445001D01*
X32785000Y-30445001D01*
X32785000Y-29945001D01*
X33085000Y-29945001D01*
X33085000Y-30144999D01*
X33085001Y-30145000D01*
X34059999Y-30145000D01*
X34060000Y-30144999D01*
X34060000Y-30097175D01*
X34055528Y-30055584D01*
X34055528Y-30034416D01*
X34060000Y-29992824D01*
X34060000Y-29945001D01*
X34059999Y-29945000D01*
X33085001Y-29945000D01*
X33085000Y-29945001D01*
X32785000Y-29945001D01*
X32784999Y-29945000D01*
X31791463Y-29945000D01*
X31774732Y-29953524D01*
X31714300Y-29943949D01*
X31689246Y-29925746D01*
X31432588Y-29669088D01*
X31404811Y-29614571D01*
X31404625Y-29613348D01*
X31395165Y-29547543D01*
X31392713Y-29542175D01*
X31348335Y-29445001D01*
X31810000Y-29445001D01*
X31810000Y-29492826D01*
X31814471Y-29534419D01*
X31814471Y-29555581D01*
X31810000Y-29597173D01*
X31810000Y-29644999D01*
X31810001Y-29645000D01*
X32784999Y-29645000D01*
X32785000Y-29644999D01*
X32785000Y-29445001D01*
X33085000Y-29445001D01*
X33085000Y-29644999D01*
X33085001Y-29645000D01*
X34059999Y-29645000D01*
X34060000Y-29644999D01*
X34060000Y-29597175D01*
X34055528Y-29555584D01*
X34055528Y-29534416D01*
X34060000Y-29492824D01*
X34060000Y-29445001D01*
X34059999Y-29445000D01*
X33085001Y-29445000D01*
X33085000Y-29445001D01*
X32785000Y-29445001D01*
X32784999Y-29445000D01*
X31810001Y-29445000D01*
X31810000Y-29445001D01*
X31348335Y-29445001D01*
X31335378Y-29416629D01*
X31335377Y-29416628D01*
X31335377Y-29416627D01*
X31241128Y-29307857D01*
X31241127Y-29307856D01*
X31241126Y-29307855D01*
X31120057Y-29230049D01*
X31120054Y-29230047D01*
X31120053Y-29230047D01*
X31120050Y-29230046D01*
X30981964Y-29189500D01*
X30981961Y-29189500D01*
X30838039Y-29189500D01*
X30838035Y-29189500D01*
X30699949Y-29230046D01*
X30699942Y-29230049D01*
X30578873Y-29307855D01*
X30484622Y-29416628D01*
X30424834Y-29547543D01*
X30404353Y-29689997D01*
X30404353Y-29690002D01*
X30424834Y-29832456D01*
X30458183Y-29905479D01*
X30484623Y-29963373D01*
X30564524Y-30055584D01*
X30578873Y-30072144D01*
X30607540Y-30090567D01*
X30646271Y-30137933D01*
X30649765Y-30199018D01*
X30628837Y-30238681D01*
X30604623Y-30266626D01*
X30544834Y-30397543D01*
X30524353Y-30539997D01*
X30524353Y-30540002D01*
X30544834Y-30682456D01*
X30585794Y-30772143D01*
X30604623Y-30813373D01*
X30671453Y-30890500D01*
X30703509Y-30927494D01*
X30701471Y-30929259D01*
X30726925Y-30971458D01*
X30729500Y-30993893D01*
X30729500Y-31304564D01*
X30749977Y-31380985D01*
X30749978Y-31380987D01*
X30749979Y-31380989D01*
X30778263Y-31429979D01*
X30789540Y-31449511D01*
X31819540Y-32479511D01*
X31819539Y-32479511D01*
X31875489Y-32535460D01*
X31944007Y-32575019D01*
X31944011Y-32575021D01*
X32020438Y-32595500D01*
X32020446Y-32595500D01*
X32023413Y-32595891D01*
X32025359Y-32596819D01*
X32026706Y-32597180D01*
X32026639Y-32597429D01*
X32078640Y-32622227D01*
X32107841Y-32675995D01*
X32109500Y-32694045D01*
X32109500Y-32895500D01*
X32090593Y-32953691D01*
X32041093Y-32989655D01*
X32010500Y-32994500D01*
X31775479Y-32994500D01*
X31717288Y-32975593D01*
X31705475Y-32965504D01*
X30549496Y-31809525D01*
X30521719Y-31755008D01*
X30520500Y-31739521D01*
X30520500Y-31504475D01*
X30519189Y-31495474D01*
X30510645Y-31436830D01*
X30459636Y-31332489D01*
X30377511Y-31250364D01*
X30273170Y-31199355D01*
X30273171Y-31199355D01*
X30256259Y-31196891D01*
X30205528Y-31189500D01*
X29844472Y-31189500D01*
X29803886Y-31195413D01*
X29776828Y-31199355D01*
X29688876Y-31242353D01*
X29672489Y-31250364D01*
X29610001Y-31312851D01*
X29555487Y-31340627D01*
X29495055Y-31331056D01*
X29469999Y-31312852D01*
X29407511Y-31250364D01*
X29303170Y-31199355D01*
X29303171Y-31199355D01*
X29286259Y-31196891D01*
X29235528Y-31189500D01*
X28874472Y-31189500D01*
X28833886Y-31195413D01*
X28806828Y-31199355D01*
X28702489Y-31250364D01*
X28620364Y-31332489D01*
X28569355Y-31436828D01*
X28559500Y-31504475D01*
X28559500Y-31640500D01*
X28540593Y-31698691D01*
X28491093Y-31734655D01*
X28460500Y-31739500D01*
X26889500Y-31739500D01*
X26831309Y-31720593D01*
X26795345Y-31671093D01*
X26790500Y-31640500D01*
X26790500Y-31570253D01*
X26790498Y-31570241D01*
X26785801Y-31546627D01*
X26778867Y-31511769D01*
X26734552Y-31445448D01*
X26734548Y-31445445D01*
X26668233Y-31401134D01*
X26668231Y-31401133D01*
X26668228Y-31401132D01*
X26668227Y-31401132D01*
X26609758Y-31389501D01*
X26609748Y-31389500D01*
X25770252Y-31389500D01*
X25770251Y-31389500D01*
X25770241Y-31389501D01*
X25711772Y-31401132D01*
X25711766Y-31401134D01*
X25645451Y-31445445D01*
X25645445Y-31445451D01*
X25601134Y-31511766D01*
X25601132Y-31511772D01*
X25589501Y-31570241D01*
X25589500Y-31570253D01*
X25589500Y-32509746D01*
X25589501Y-32509758D01*
X25601132Y-32568227D01*
X25601134Y-32568233D01*
X25639234Y-32625252D01*
X25645448Y-32634552D01*
X25711769Y-32678867D01*
X25756231Y-32687711D01*
X25770241Y-32690498D01*
X25770246Y-32690498D01*
X25770252Y-32690500D01*
X25770253Y-32690500D01*
X26609747Y-32690500D01*
X26609748Y-32690500D01*
X26668231Y-32678867D01*
X26734552Y-32634552D01*
X26778867Y-32568231D01*
X26790500Y-32509748D01*
X26790500Y-32439500D01*
X26809407Y-32381309D01*
X26858907Y-32345345D01*
X26889500Y-32340500D01*
X28764563Y-32340500D01*
X28764563Y-32340499D01*
X28840989Y-32320021D01*
X28909511Y-32280460D01*
X28930476Y-32259494D01*
X28984991Y-32231719D01*
X29000478Y-32230500D01*
X29235524Y-32230500D01*
X29235528Y-32230500D01*
X29303170Y-32220645D01*
X29407511Y-32169636D01*
X29469998Y-32107148D01*
X29524513Y-32079373D01*
X29584945Y-32088944D01*
X29610000Y-32107147D01*
X29672489Y-32169636D01*
X29776830Y-32220645D01*
X29844472Y-32230500D01*
X30079521Y-32230500D01*
X30137712Y-32249407D01*
X30149525Y-32259496D01*
X31102576Y-33212547D01*
X31130353Y-33267064D01*
X31120782Y-33327496D01*
X31077517Y-33370761D01*
X31017085Y-33380332D01*
X31006950Y-33378178D01*
X30974562Y-33369500D01*
X24677083Y-33369500D01*
X24618892Y-33350593D01*
X24602264Y-33335331D01*
X24595475Y-33327496D01*
X24561128Y-33287857D01*
X24487358Y-33240448D01*
X24440057Y-33210049D01*
X24440054Y-33210047D01*
X24440053Y-33210047D01*
X24440050Y-33210046D01*
X24301964Y-33169500D01*
X24301961Y-33169500D01*
X24195479Y-33169500D01*
X24137288Y-33150593D01*
X24125475Y-33140504D01*
X24071000Y-33086029D01*
X24043223Y-33031512D01*
X24052064Y-32972544D01*
X24089729Y-32895500D01*
X24100645Y-32873170D01*
X24110500Y-32805528D01*
X24110500Y-32444472D01*
X24100645Y-32376830D01*
X24049636Y-32272489D01*
X23987148Y-32210001D01*
X23959373Y-32155487D01*
X23968944Y-32095055D01*
X23987147Y-32069999D01*
X24049636Y-32007511D01*
X24100645Y-31903170D01*
X24110500Y-31835528D01*
X24110500Y-31635479D01*
X24129407Y-31577288D01*
X24139496Y-31565475D01*
X24985475Y-30719496D01*
X25039992Y-30691719D01*
X25055479Y-30690500D01*
X25659747Y-30690500D01*
X25659748Y-30690500D01*
X25718231Y-30678867D01*
X25784552Y-30634552D01*
X25828867Y-30568231D01*
X25834915Y-30537824D01*
X26239999Y-30537824D01*
X26246401Y-30597370D01*
X26246403Y-30597381D01*
X26296646Y-30732088D01*
X26296647Y-30732090D01*
X26382807Y-30847184D01*
X26382815Y-30847192D01*
X26497909Y-30933352D01*
X26497911Y-30933353D01*
X26632618Y-30983596D01*
X26632629Y-30983598D01*
X26692176Y-30990000D01*
X26889999Y-30990000D01*
X26890000Y-30989999D01*
X26890000Y-30290001D01*
X27390000Y-30290001D01*
X27390000Y-30989999D01*
X27390001Y-30990000D01*
X27587824Y-30990000D01*
X27647370Y-30983598D01*
X27647381Y-30983596D01*
X27782088Y-30933353D01*
X27782090Y-30933352D01*
X27897184Y-30847192D01*
X27897192Y-30847184D01*
X27983352Y-30732090D01*
X27983353Y-30732088D01*
X28033596Y-30597381D01*
X28033598Y-30597370D01*
X28040000Y-30537824D01*
X28040000Y-30290001D01*
X28039999Y-30290000D01*
X27390001Y-30290000D01*
X27390000Y-30290001D01*
X26890000Y-30290001D01*
X26889999Y-30290000D01*
X26240001Y-30290000D01*
X26240000Y-30290001D01*
X26240000Y-30537824D01*
X26239999Y-30537824D01*
X25834915Y-30537824D01*
X25840500Y-30509748D01*
X25840500Y-29570252D01*
X25834915Y-29542175D01*
X26240000Y-29542175D01*
X26240000Y-29789999D01*
X26240001Y-29790000D01*
X26889999Y-29790000D01*
X26890000Y-29789999D01*
X26890000Y-29090001D01*
X27390000Y-29090001D01*
X27390000Y-29789999D01*
X27390001Y-29790000D01*
X28039999Y-29790000D01*
X28040000Y-29789999D01*
X28040000Y-29542175D01*
X28033598Y-29482629D01*
X28033596Y-29482618D01*
X27983353Y-29347911D01*
X27983352Y-29347909D01*
X27897192Y-29232815D01*
X27897184Y-29232807D01*
X27782090Y-29146647D01*
X27782088Y-29146646D01*
X27647381Y-29096403D01*
X27647370Y-29096401D01*
X27587824Y-29090000D01*
X27390001Y-29090000D01*
X27390000Y-29090001D01*
X26890000Y-29090001D01*
X26889999Y-29090000D01*
X26692176Y-29090000D01*
X26632629Y-29096401D01*
X26632618Y-29096403D01*
X26497911Y-29146646D01*
X26497909Y-29146647D01*
X26382815Y-29232807D01*
X26382807Y-29232815D01*
X26296647Y-29347909D01*
X26296646Y-29347911D01*
X26246403Y-29482618D01*
X26246401Y-29482629D01*
X26240000Y-29542175D01*
X25834915Y-29542175D01*
X25828867Y-29511769D01*
X25784552Y-29445448D01*
X25784548Y-29445445D01*
X25718233Y-29401134D01*
X25718231Y-29401133D01*
X25718228Y-29401132D01*
X25718227Y-29401132D01*
X25659758Y-29389501D01*
X25659748Y-29389500D01*
X25659747Y-29389500D01*
X25055479Y-29389500D01*
X24997288Y-29370593D01*
X24985475Y-29360504D01*
X24569972Y-28945001D01*
X31810000Y-28945001D01*
X31810000Y-28992826D01*
X31814471Y-29034419D01*
X31814471Y-29055581D01*
X31810000Y-29097173D01*
X31810000Y-29144999D01*
X31810001Y-29145000D01*
X32784999Y-29145000D01*
X32785000Y-29144999D01*
X32785000Y-28945001D01*
X33085000Y-28945001D01*
X33085000Y-29144999D01*
X33085001Y-29145000D01*
X34059999Y-29145000D01*
X34060000Y-29144999D01*
X34060000Y-29097175D01*
X34055528Y-29055584D01*
X34055528Y-29034416D01*
X34060000Y-28992824D01*
X34060000Y-28945001D01*
X34059999Y-28945000D01*
X33085001Y-28945000D01*
X33085000Y-28945001D01*
X32785000Y-28945001D01*
X32784999Y-28945000D01*
X31810001Y-28945000D01*
X31810000Y-28945001D01*
X24569972Y-28945001D01*
X24159387Y-28534416D01*
X24069972Y-28445001D01*
X31810000Y-28445001D01*
X31810000Y-28492826D01*
X31814471Y-28534419D01*
X31814471Y-28555581D01*
X31810000Y-28597173D01*
X31810000Y-28644999D01*
X31810001Y-28645000D01*
X32784999Y-28645000D01*
X32785000Y-28644999D01*
X32785000Y-28445001D01*
X33085000Y-28445001D01*
X33085000Y-28644999D01*
X33085001Y-28645000D01*
X34059999Y-28645000D01*
X34060000Y-28644999D01*
X34060000Y-28597175D01*
X34055528Y-28555584D01*
X34055528Y-28534416D01*
X34060000Y-28492824D01*
X34060000Y-28445001D01*
X34059999Y-28445000D01*
X33085001Y-28445000D01*
X33085000Y-28445001D01*
X32785000Y-28445001D01*
X32784999Y-28445000D01*
X31810001Y-28445000D01*
X31810000Y-28445001D01*
X24069972Y-28445001D01*
X23569972Y-27945001D01*
X31810000Y-27945001D01*
X31810000Y-27992826D01*
X31814471Y-28034419D01*
X31814471Y-28055581D01*
X31810000Y-28097173D01*
X31810000Y-28144999D01*
X31810001Y-28145000D01*
X32784999Y-28145000D01*
X32785000Y-28144999D01*
X32785000Y-27945001D01*
X33085000Y-27945001D01*
X33085000Y-28144999D01*
X33085001Y-28145000D01*
X34059999Y-28145000D01*
X34060000Y-28144999D01*
X34060000Y-28097175D01*
X34055528Y-28055584D01*
X34055528Y-28034416D01*
X34060000Y-27992824D01*
X34060000Y-27945001D01*
X34059999Y-27945000D01*
X33085001Y-27945000D01*
X33085000Y-27945001D01*
X32785000Y-27945001D01*
X32784999Y-27945000D01*
X31810001Y-27945000D01*
X31810000Y-27945001D01*
X23569972Y-27945001D01*
X23299511Y-27674540D01*
X23299508Y-27674538D01*
X23278804Y-27662584D01*
X23278804Y-27662585D01*
X23230989Y-27634979D01*
X23230988Y-27634978D01*
X23230987Y-27634978D01*
X23154564Y-27614500D01*
X23154562Y-27614500D01*
X22910258Y-27614500D01*
X22852067Y-27595593D01*
X22816103Y-27546093D01*
X22816103Y-27484907D01*
X22819693Y-27475513D01*
X22830765Y-27450436D01*
X22833165Y-27445001D01*
X31810000Y-27445001D01*
X31810000Y-27492826D01*
X31814471Y-27534419D01*
X31814471Y-27555581D01*
X31810000Y-27597173D01*
X31810000Y-27644999D01*
X31810001Y-27645000D01*
X32784999Y-27645000D01*
X32785000Y-27644999D01*
X32785000Y-27445001D01*
X33085000Y-27445001D01*
X33085000Y-27644999D01*
X33085001Y-27645000D01*
X34059999Y-27645000D01*
X34060000Y-27644999D01*
X34060000Y-27597175D01*
X34055528Y-27555584D01*
X34055528Y-27534416D01*
X34060000Y-27492824D01*
X34060000Y-27445001D01*
X34059999Y-27445000D01*
X33085001Y-27445000D01*
X33085000Y-27445001D01*
X32785000Y-27445001D01*
X32784999Y-27445000D01*
X31810001Y-27445000D01*
X31810000Y-27445001D01*
X22833165Y-27445001D01*
X22837585Y-27434991D01*
X22840500Y-27409865D01*
X22840499Y-27120136D01*
X22837585Y-27095009D01*
X22792206Y-26992235D01*
X22792205Y-26992234D01*
X22788500Y-26983843D01*
X22790875Y-26982794D01*
X22779742Y-26945001D01*
X31810000Y-26945001D01*
X31810000Y-26992826D01*
X31814471Y-27034419D01*
X31814471Y-27055581D01*
X31810000Y-27097173D01*
X31810000Y-27144999D01*
X31810001Y-27145000D01*
X32784999Y-27145000D01*
X32785000Y-27144999D01*
X32785000Y-26945001D01*
X33085000Y-26945001D01*
X33085000Y-27144999D01*
X33085001Y-27145000D01*
X34059999Y-27145000D01*
X34060000Y-27144999D01*
X34060000Y-27097175D01*
X34055528Y-27055584D01*
X34055528Y-27034416D01*
X34060000Y-26992824D01*
X34060000Y-26945001D01*
X34059999Y-26945000D01*
X33085001Y-26945000D01*
X33085000Y-26945001D01*
X32785000Y-26945001D01*
X32784999Y-26945000D01*
X31810001Y-26945000D01*
X31810000Y-26945001D01*
X22779742Y-26945001D01*
X22777462Y-26937261D01*
X22790526Y-26897051D01*
X22788500Y-26896157D01*
X22792204Y-26887766D01*
X22792206Y-26887765D01*
X22837585Y-26784991D01*
X22840500Y-26759865D01*
X22840499Y-26470136D01*
X22837585Y-26445009D01*
X22819692Y-26404487D01*
X22813485Y-26343619D01*
X22844241Y-26290725D01*
X22900213Y-26266011D01*
X22910258Y-26265500D01*
X30089521Y-26265500D01*
X30147712Y-26284407D01*
X30159525Y-26294496D01*
X30344540Y-26479511D01*
X30344539Y-26479511D01*
X30400489Y-26535460D01*
X30469007Y-26575019D01*
X30469011Y-26575021D01*
X30545435Y-26595499D01*
X30545437Y-26595500D01*
X30545438Y-26595500D01*
X30624562Y-26595500D01*
X31719493Y-26595500D01*
X31777684Y-26614407D01*
X31789497Y-26624496D01*
X31810001Y-26645000D01*
X32280311Y-26645000D01*
X32290012Y-26645476D01*
X32290248Y-26645499D01*
X32290252Y-26645500D01*
X32290256Y-26645500D01*
X33579744Y-26645500D01*
X33579748Y-26645500D01*
X33579751Y-26645499D01*
X33579988Y-26645476D01*
X33589689Y-26645000D01*
X34059999Y-26645000D01*
X34060000Y-26644999D01*
X34060000Y-26597175D01*
X34053598Y-26537629D01*
X34053596Y-26537618D01*
X34003353Y-26402911D01*
X34003352Y-26402909D01*
X33917192Y-26287815D01*
X33917184Y-26287807D01*
X33800171Y-26200210D01*
X33764918Y-26150201D01*
X33761866Y-26130000D01*
X33760976Y-26130088D01*
X33760500Y-26125261D01*
X33760500Y-26125252D01*
X33757439Y-26109865D01*
X33748379Y-26064315D01*
X33748379Y-26025685D01*
X33760498Y-25964758D01*
X33760500Y-25964746D01*
X33760500Y-25625253D01*
X33760498Y-25625241D01*
X33748379Y-25564315D01*
X33748379Y-25525685D01*
X33760498Y-25464758D01*
X33760500Y-25464746D01*
X33760500Y-25125253D01*
X33760498Y-25125241D01*
X33748379Y-25064315D01*
X33748379Y-25025685D01*
X33760498Y-24964758D01*
X33760500Y-24964746D01*
X33760500Y-24625253D01*
X33760498Y-24625241D01*
X33748379Y-24564315D01*
X33748379Y-24525685D01*
X33760498Y-24464758D01*
X33760500Y-24464746D01*
X33760500Y-24125253D01*
X33760498Y-24125241D01*
X33748379Y-24064315D01*
X33748379Y-24025685D01*
X33760498Y-23964758D01*
X33760497Y-23964758D01*
X33760500Y-23964748D01*
X33760500Y-23964737D01*
X33760976Y-23959912D01*
X33763388Y-23960149D01*
X33779407Y-23910850D01*
X33800171Y-23889788D01*
X33917184Y-23802192D01*
X33917192Y-23802184D01*
X34003352Y-23687090D01*
X34003353Y-23687088D01*
X34053596Y-23552381D01*
X34053598Y-23552370D01*
X34060000Y-23492824D01*
X34060000Y-23445001D01*
X34059999Y-23445000D01*
X33589689Y-23445000D01*
X33579988Y-23444524D01*
X33579751Y-23444500D01*
X33579748Y-23444500D01*
X32884000Y-23444500D01*
X32825809Y-23425593D01*
X32789845Y-23376093D01*
X32785000Y-23345500D01*
X32785000Y-22645001D01*
X33085000Y-22645001D01*
X33085000Y-23144999D01*
X33085001Y-23145000D01*
X34059999Y-23145000D01*
X34060000Y-23144999D01*
X34060000Y-23097175D01*
X34053598Y-23037629D01*
X34053596Y-23037618D01*
X34003353Y-22902911D01*
X34003352Y-22902909D01*
X33917192Y-22787815D01*
X33917184Y-22787807D01*
X33802090Y-22701647D01*
X33802088Y-22701646D01*
X33667381Y-22651403D01*
X33667370Y-22651401D01*
X33607824Y-22645000D01*
X33085001Y-22645000D01*
X33085000Y-22645001D01*
X32785000Y-22645001D01*
X32784999Y-22645000D01*
X32262176Y-22645000D01*
X32202629Y-22651401D01*
X32202618Y-22651403D01*
X32067911Y-22701646D01*
X32067909Y-22701647D01*
X31952815Y-22787807D01*
X31952807Y-22787815D01*
X31862865Y-22907962D01*
X31812856Y-22943215D01*
X31751677Y-22942341D01*
X31713608Y-22918637D01*
X31179378Y-22384407D01*
X30619511Y-21824540D01*
X30619508Y-21824538D01*
X30550992Y-21784980D01*
X30550988Y-21784978D01*
X30474564Y-21764500D01*
X30474562Y-21764500D01*
X22805479Y-21764500D01*
X22747288Y-21745593D01*
X22735477Y-21735505D01*
X22712766Y-21712795D01*
X22712765Y-21712794D01*
X22609991Y-21667415D01*
X22609990Y-21667414D01*
X22609988Y-21667414D01*
X22584869Y-21664500D01*
X22584865Y-21664500D01*
X22126078Y-21664500D01*
X22100456Y-21661127D01*
X22079537Y-21655522D01*
X22057062Y-21649500D01*
X21977938Y-21649500D01*
X21977936Y-21649500D01*
X21934542Y-21661127D01*
X21908921Y-21664500D01*
X21264500Y-21664500D01*
X21206309Y-21645593D01*
X21170345Y-21596093D01*
X21165500Y-21565500D01*
X21165500Y-20625253D01*
X34389500Y-20625253D01*
X34389500Y-22264746D01*
X34389501Y-22264758D01*
X34401132Y-22323227D01*
X34401134Y-22323233D01*
X34429718Y-22366011D01*
X34445448Y-22389552D01*
X34511769Y-22433867D01*
X34553838Y-22442235D01*
X34570241Y-22445498D01*
X34570246Y-22445498D01*
X34570252Y-22445500D01*
X34570253Y-22445500D01*
X36609747Y-22445500D01*
X36609748Y-22445500D01*
X36668231Y-22433867D01*
X36734552Y-22389552D01*
X36778867Y-22323231D01*
X36790500Y-22264748D01*
X36790500Y-20625252D01*
X36778867Y-20566769D01*
X36734552Y-20500448D01*
X36688236Y-20469500D01*
X36668233Y-20456134D01*
X36668231Y-20456133D01*
X36668228Y-20456132D01*
X36668227Y-20456132D01*
X36609758Y-20444501D01*
X36609748Y-20444500D01*
X34570252Y-20444500D01*
X34570251Y-20444500D01*
X34570241Y-20444501D01*
X34511772Y-20456132D01*
X34511766Y-20456134D01*
X34445451Y-20500445D01*
X34445445Y-20500451D01*
X34401134Y-20566766D01*
X34401132Y-20566772D01*
X34389501Y-20625241D01*
X34389500Y-20625253D01*
X21165500Y-20625253D01*
X21165500Y-19980008D01*
X39899500Y-19980008D01*
X39899500Y-37019991D01*
X39914798Y-37056926D01*
X39914799Y-37056927D01*
X39914800Y-37056929D01*
X39943071Y-37085200D01*
X39943072Y-37085200D01*
X39943073Y-37085201D01*
X39980008Y-37100500D01*
X39980009Y-37100500D01*
X44019992Y-37100500D01*
X44043283Y-37090852D01*
X44056929Y-37085200D01*
X44085200Y-37056929D01*
X44100500Y-37019991D01*
X44100500Y-19980009D01*
X44092969Y-19961828D01*
X44085201Y-19943073D01*
X44085200Y-19943072D01*
X44085200Y-19943071D01*
X44056929Y-19914800D01*
X44056927Y-19914799D01*
X44056926Y-19914798D01*
X44019992Y-19899500D01*
X44019991Y-19899500D01*
X40019991Y-19899500D01*
X39980009Y-19899500D01*
X39980008Y-19899500D01*
X39943073Y-19914798D01*
X39914798Y-19943073D01*
X39899500Y-19980008D01*
X21165500Y-19980008D01*
X21165500Y-18860479D01*
X21184407Y-18802288D01*
X21194496Y-18790475D01*
X21340475Y-18644496D01*
X21394992Y-18616719D01*
X21410479Y-18615500D01*
X21645524Y-18615500D01*
X21645528Y-18615500D01*
X21713170Y-18605645D01*
X21817511Y-18554636D01*
X21899636Y-18472511D01*
X21950645Y-18368170D01*
X21960500Y-18300528D01*
X21960500Y-17939472D01*
X21950645Y-17871830D01*
X21899636Y-17767489D01*
X21837148Y-17705001D01*
X21809373Y-17650487D01*
X21818944Y-17590055D01*
X21837147Y-17564999D01*
X21899636Y-17502511D01*
X21950645Y-17398170D01*
X21960500Y-17330528D01*
X21960500Y-17280253D01*
X50799500Y-17280253D01*
X50799500Y-18919746D01*
X50799501Y-18919758D01*
X50811132Y-18978227D01*
X50811134Y-18978233D01*
X50855445Y-19044548D01*
X50855448Y-19044552D01*
X50921769Y-19088867D01*
X50966231Y-19097711D01*
X50980241Y-19100498D01*
X50980246Y-19100498D01*
X50980252Y-19100500D01*
X50980253Y-19100500D01*
X53019747Y-19100500D01*
X53019748Y-19100500D01*
X53078231Y-19088867D01*
X53144552Y-19044552D01*
X53188867Y-18978231D01*
X53200500Y-18919748D01*
X53200500Y-17280252D01*
X53188867Y-17221769D01*
X53144552Y-17155448D01*
X53144548Y-17155445D01*
X53078233Y-17111134D01*
X53078231Y-17111133D01*
X53078228Y-17111132D01*
X53078227Y-17111132D01*
X53019758Y-17099501D01*
X53019748Y-17099500D01*
X50980252Y-17099500D01*
X50980251Y-17099500D01*
X50980241Y-17099501D01*
X50921772Y-17111132D01*
X50921766Y-17111134D01*
X50855451Y-17155445D01*
X50855445Y-17155451D01*
X50811134Y-17221766D01*
X50811132Y-17221772D01*
X50799501Y-17280241D01*
X50799500Y-17280253D01*
X21960500Y-17280253D01*
X21960500Y-16969472D01*
X21950645Y-16901830D01*
X21899636Y-16797489D01*
X21817511Y-16715364D01*
X21817509Y-16715363D01*
X21811710Y-16709564D01*
X21812601Y-16708672D01*
X21781219Y-16666222D01*
X21780712Y-16605038D01*
X21800298Y-16570019D01*
X21802486Y-16567494D01*
X21875377Y-16483373D01*
X21891612Y-16447824D01*
X48219999Y-16447824D01*
X48226401Y-16507370D01*
X48226403Y-16507381D01*
X48276646Y-16642088D01*
X48276647Y-16642090D01*
X48362807Y-16757184D01*
X48362815Y-16757192D01*
X48477909Y-16843352D01*
X48477911Y-16843353D01*
X48612618Y-16893596D01*
X48612629Y-16893598D01*
X48672176Y-16900000D01*
X49194999Y-16900000D01*
X49195000Y-16899999D01*
X49195000Y-16400001D01*
X49495000Y-16400001D01*
X49495000Y-16899999D01*
X49495001Y-16900000D01*
X50017824Y-16900000D01*
X50077370Y-16893598D01*
X50077381Y-16893596D01*
X50212088Y-16843353D01*
X50212090Y-16843352D01*
X50327184Y-16757192D01*
X50327192Y-16757184D01*
X50413352Y-16642090D01*
X50413353Y-16642088D01*
X50463596Y-16507381D01*
X50463598Y-16507370D01*
X50470000Y-16447824D01*
X50470000Y-16400001D01*
X50469999Y-16400000D01*
X49495001Y-16400000D01*
X49495000Y-16400001D01*
X49195000Y-16400001D01*
X49194999Y-16400000D01*
X48220001Y-16400000D01*
X48220000Y-16400001D01*
X48220000Y-16447824D01*
X48219999Y-16447824D01*
X21891612Y-16447824D01*
X21935165Y-16352457D01*
X21955647Y-16210000D01*
X21953506Y-16195110D01*
X21935165Y-16067543D01*
X21918028Y-16030019D01*
X21875377Y-15936627D01*
X21781128Y-15827857D01*
X21781127Y-15827856D01*
X21781126Y-15827855D01*
X21777047Y-15824321D01*
X21745449Y-15771926D01*
X21750684Y-15710965D01*
X21790750Y-15664723D01*
X21841876Y-15650500D01*
X47642917Y-15650500D01*
X47701108Y-15669407D01*
X47717733Y-15684667D01*
X47758872Y-15732143D01*
X47879947Y-15809953D01*
X47966882Y-15835479D01*
X48018035Y-15850499D01*
X48018036Y-15850499D01*
X48018039Y-15850500D01*
X48018041Y-15850500D01*
X48136825Y-15850500D01*
X48195016Y-15869407D01*
X48230980Y-15918907D01*
X48230980Y-15980093D01*
X48229583Y-15984098D01*
X48226402Y-15992625D01*
X48226401Y-15992629D01*
X48220000Y-16052175D01*
X48220000Y-16099999D01*
X48220001Y-16100000D01*
X48690311Y-16100000D01*
X48700012Y-16100476D01*
X48700248Y-16100499D01*
X48700252Y-16100500D01*
X48700256Y-16100500D01*
X49989744Y-16100500D01*
X49989748Y-16100500D01*
X49989751Y-16100499D01*
X49989988Y-16100476D01*
X49999689Y-16100000D01*
X50469999Y-16100000D01*
X50490503Y-16079496D01*
X50545020Y-16051719D01*
X50560507Y-16050500D01*
X51285249Y-16050500D01*
X51285249Y-16050499D01*
X51361675Y-16030021D01*
X51430197Y-15990460D01*
X51486146Y-15934511D01*
X52590460Y-14830197D01*
X52608917Y-14798227D01*
X52627927Y-14765303D01*
X52627940Y-14765278D01*
X52627958Y-14765248D01*
X52630021Y-14761675D01*
X52650500Y-14685248D01*
X52650500Y-11130408D01*
X52630021Y-11053981D01*
X52628011Y-11050500D01*
X52590460Y-10985459D01*
X52534511Y-10929509D01*
X52534511Y-10929510D01*
X51069426Y-9464425D01*
X51043575Y-9449500D01*
X51043573Y-9449498D01*
X51000902Y-9424863D01*
X50924479Y-9404385D01*
X50924477Y-9404385D01*
X50414776Y-9404385D01*
X50356585Y-9385478D01*
X50320621Y-9335978D01*
X50320621Y-9274792D01*
X50335523Y-9246055D01*
X50413354Y-9142087D01*
X50463596Y-9007381D01*
X50463598Y-9007370D01*
X50470000Y-8947824D01*
X50470000Y-8900001D01*
X50469999Y-8900000D01*
X49999689Y-8900000D01*
X49989988Y-8899524D01*
X49989751Y-8899500D01*
X49989748Y-8899500D01*
X48700252Y-8899500D01*
X48700248Y-8899500D01*
X48700012Y-8899524D01*
X48690311Y-8900000D01*
X48471310Y-8900000D01*
X48421811Y-8886737D01*
X48404588Y-8876793D01*
X48370633Y-8867695D01*
X48302727Y-8849500D01*
X7112727Y-8849500D01*
X7007273Y-8849500D01*
X6944929Y-8866204D01*
X6905407Y-8876794D01*
X6876979Y-8893208D01*
X6817131Y-8905930D01*
X6803812Y-8900000D01*
X6309689Y-8900000D01*
X6299988Y-8899524D01*
X6299751Y-8899500D01*
X6299748Y-8899500D01*
X5010252Y-8899500D01*
X5010248Y-8899500D01*
X5010012Y-8899524D01*
X5000311Y-8900000D01*
X4530001Y-8900000D01*
X4530000Y-8900001D01*
X4530000Y-8947824D01*
X4529999Y-8947824D01*
X4536401Y-9007370D01*
X4536403Y-9007381D01*
X4586646Y-9142088D01*
X4586647Y-9142090D01*
X4672807Y-9257184D01*
X4672815Y-9257192D01*
X4699354Y-9277059D01*
X4734607Y-9327067D01*
X4733733Y-9388246D01*
X4697066Y-9437228D01*
X4665650Y-9451938D01*
X4598324Y-9469979D01*
X4562853Y-9490459D01*
X4562852Y-9490459D01*
X4529803Y-9509539D01*
X4089539Y-9949803D01*
X4049980Y-10018321D01*
X4049978Y-10018325D01*
X4029500Y-10094749D01*
X100500Y-10094749D01*
X100500Y-8552175D01*
X4530000Y-8552175D01*
X4530000Y-8599999D01*
X4530001Y-8600000D01*
X5504999Y-8600000D01*
X5505000Y-8599999D01*
X5505000Y-8100001D01*
X5805000Y-8100001D01*
X5805000Y-8599999D01*
X5805001Y-8600000D01*
X6779999Y-8600000D01*
X6780000Y-8599999D01*
X6780000Y-8552175D01*
X48220000Y-8552175D01*
X48220000Y-8599999D01*
X48220001Y-8600000D01*
X49194999Y-8600000D01*
X49195000Y-8599999D01*
X49195000Y-8100001D01*
X49495000Y-8100001D01*
X49495000Y-8599999D01*
X49495001Y-8600000D01*
X50469999Y-8600000D01*
X50470000Y-8599999D01*
X50470000Y-8552175D01*
X50463598Y-8492629D01*
X50463596Y-8492618D01*
X50413353Y-8357911D01*
X50413352Y-8357909D01*
X50327192Y-8242815D01*
X50327184Y-8242807D01*
X50212090Y-8156647D01*
X50212088Y-8156646D01*
X50077381Y-8106403D01*
X50077370Y-8106401D01*
X50017824Y-8100000D01*
X49495001Y-8100000D01*
X49495000Y-8100001D01*
X49195000Y-8100001D01*
X49194999Y-8100000D01*
X48672176Y-8100000D01*
X48612629Y-8106401D01*
X48612618Y-8106403D01*
X48477911Y-8156646D01*
X48477909Y-8156647D01*
X48362815Y-8242807D01*
X48362807Y-8242815D01*
X48276647Y-8357909D01*
X48276646Y-8357911D01*
X48226403Y-8492618D01*
X48226401Y-8492629D01*
X48220000Y-8552175D01*
X6780000Y-8552175D01*
X6773598Y-8492629D01*
X6773596Y-8492618D01*
X6723353Y-8357911D01*
X6723352Y-8357909D01*
X6637192Y-8242815D01*
X6637184Y-8242807D01*
X6522090Y-8156647D01*
X6522088Y-8156646D01*
X6387381Y-8106403D01*
X6387370Y-8106401D01*
X6327824Y-8100000D01*
X5805001Y-8100000D01*
X5805000Y-8100001D01*
X5505000Y-8100001D01*
X5504999Y-8100000D01*
X4982176Y-8100000D01*
X4922629Y-8106401D01*
X4922618Y-8106403D01*
X4787911Y-8156646D01*
X4787909Y-8156647D01*
X4672815Y-8242807D01*
X4672807Y-8242815D01*
X4586647Y-8357909D01*
X4586646Y-8357911D01*
X4536403Y-8492618D01*
X4536401Y-8492629D01*
X4530000Y-8552175D01*
X100500Y-8552175D01*
X100500Y-6080253D01*
X1799500Y-6080253D01*
X1799500Y-7719746D01*
X1799501Y-7719758D01*
X1811132Y-7778227D01*
X1811133Y-7778231D01*
X1855448Y-7844552D01*
X1921769Y-7888867D01*
X1966231Y-7897711D01*
X1980241Y-7900498D01*
X1980246Y-7900498D01*
X1980252Y-7900500D01*
X1980253Y-7900500D01*
X4019747Y-7900500D01*
X4019748Y-7900500D01*
X4078231Y-7888867D01*
X4144552Y-7844552D01*
X4188867Y-7778231D01*
X4200500Y-7719748D01*
X4200500Y-6080253D01*
X50799500Y-6080253D01*
X50799500Y-7719746D01*
X50799501Y-7719758D01*
X50811132Y-7778227D01*
X50811133Y-7778231D01*
X50855448Y-7844552D01*
X50921769Y-7888867D01*
X50966231Y-7897711D01*
X50980241Y-7900498D01*
X50980246Y-7900498D01*
X50980252Y-7900500D01*
X50980253Y-7900500D01*
X53019747Y-7900500D01*
X53019748Y-7900500D01*
X53078231Y-7888867D01*
X53144552Y-7844552D01*
X53188867Y-7778231D01*
X53200500Y-7719748D01*
X53200500Y-6080252D01*
X53188867Y-6021769D01*
X53144552Y-5955448D01*
X53144548Y-5955445D01*
X53078233Y-5911134D01*
X53078231Y-5911133D01*
X53078228Y-5911132D01*
X53078227Y-5911132D01*
X53019758Y-5899501D01*
X53019748Y-5899500D01*
X50980252Y-5899500D01*
X50980251Y-5899500D01*
X50980241Y-5899501D01*
X50921772Y-5911132D01*
X50921766Y-5911134D01*
X50855451Y-5955445D01*
X50855445Y-5955451D01*
X50811134Y-6021766D01*
X50811132Y-6021772D01*
X50799501Y-6080241D01*
X50799500Y-6080253D01*
X4200500Y-6080253D01*
X4200500Y-6080252D01*
X4188867Y-6021769D01*
X4144552Y-5955448D01*
X4144548Y-5955445D01*
X4078233Y-5911134D01*
X4078231Y-5911133D01*
X4078228Y-5911132D01*
X4078227Y-5911132D01*
X4019758Y-5899501D01*
X4019748Y-5899500D01*
X1980252Y-5899500D01*
X1980251Y-5899500D01*
X1980241Y-5899501D01*
X1921772Y-5911132D01*
X1921766Y-5911134D01*
X1855451Y-5955445D01*
X1855445Y-5955451D01*
X1811134Y-6021766D01*
X1811132Y-6021772D01*
X1799501Y-6080241D01*
X1799500Y-6080253D01*
X100500Y-6080253D01*
X100500Y-2502984D01*
X100681Y-2497007D01*
X117633Y-2216749D01*
X119072Y-2204890D01*
X169146Y-1931646D01*
X172004Y-1920052D01*
X254650Y-1654832D01*
X258880Y-1643679D01*
X372895Y-1390346D01*
X378444Y-1379775D01*
X522159Y-1142040D01*
X528930Y-1132230D01*
X700257Y-913547D01*
X708169Y-904615D01*
X904615Y-708169D01*
X913547Y-700257D01*
X1132230Y-528930D01*
X1142040Y-522159D01*
X1379775Y-378444D01*
X1390346Y-372895D01*
X1643679Y-258880D01*
X1654832Y-254650D01*
X1920052Y-172004D01*
X1931646Y-169146D01*
X2204890Y-119072D01*
X2216741Y-117633D01*
X2497008Y-100681D01*
X2502985Y-100500D01*
X2526929Y-100500D01*
X52473071Y-100500D01*
X52497015Y-100500D01*
X52502992Y-100681D01*
G37*
%TD.AperFunction*%
%TD*%
D23*
X24230000Y-33670000D03*
X21070000Y-31820000D03*
X13280000Y-33890000D03*
X45070000Y-10150000D03*
X17860000Y-32760000D03*
X49390000Y-8030000D03*
X30870000Y-27740000D03*
X27150000Y-2500000D03*
X36150000Y-24175000D03*
X12430000Y-25170000D03*
X25880000Y-35540000D03*
X34270000Y-25785000D03*
X10940000Y-19210000D03*
X1350000Y-12740000D03*
X51270000Y-28700000D03*
X20240000Y-25770000D03*
X24350000Y-27010000D03*
X18050000Y-25850000D03*
X27600000Y-51000000D03*
X3080000Y-1770000D03*
X5630000Y-7480000D03*
X30790000Y-35430000D03*
X50700000Y-16380000D03*
X50620000Y-14850000D03*
X5790000Y-17650000D03*
X30480000Y-19780000D03*
X2620000Y-26180000D03*
X50790000Y-8970000D03*
X45400000Y-1990000D03*
X8660000Y-16230000D03*
X15730000Y-20330000D03*
X1650000Y-45060000D03*
X53180000Y-12640000D03*
X14180000Y-30430000D03*
X30010000Y-32750000D03*
X22250000Y-19900000D03*
X18370000Y-22730000D03*
X34520000Y-30145000D03*
X49350000Y-17050000D03*
X21160000Y-35420000D03*
X50590000Y-12730000D03*
X24870000Y-32440000D03*
X27490000Y-28570000D03*
X37590000Y-33525000D03*
X51520000Y-48470000D03*
X19020000Y-16180000D03*
X48210544Y-10967849D03*
X50714894Y-13603635D03*
X18930000Y-11950000D03*
X20270000Y-16140000D03*
X20200000Y-12970000D03*
X48042483Y-11750000D03*
X21540000Y-13770000D03*
X21450000Y-16210000D03*
X48219998Y-13850000D03*
X50470700Y-10704885D03*
X48090000Y-15350000D03*
X30910000Y-29690000D03*
X18500000Y-29580000D03*
X35050000Y-32705000D03*
X17470000Y-20970000D03*
X31030000Y-30540000D03*
X19650000Y-30390000D03*
X28980000Y-25290000D03*
X17710000Y-28790000D03*
X24180000Y-24180000D03*
X17580000Y-24050000D03*
X48186008Y-10143856D03*
X51286163Y-14163685D03*
D24*
X6950000Y-51250000D03*
X8950000Y-51250000D03*
X10950000Y-51250000D03*
X12950000Y-51250000D03*
X52500000Y-2550000D03*
X2500000Y-50500000D03*
M02*
