%TF.GenerationSoftware,KiCad,Pcbnew,8.0.7*%
%TF.CreationDate,2025-01-15T18:16:12+00:00*%
%TF.ProjectId,Screen,53637265-656e-42e6-9b69-6361645f7063,rev?*%
%TF.SameCoordinates,Original*%
%TF.FileFunction,Other,ECO1*%
%FSLAX46Y46*%
G04 Gerber Fmt 4.6, Leading zero omitted, Abs format (unit mm)*
G04 Created by KiCad (PCBNEW 8.0.7) date 2025-01-15 18:16:12*
%MOMM*%
%LPD*%
G01*
G04 APERTURE LIST*
%ADD10C,0.075000*%
%ADD11C,0.150000*%
%ADD12C,0.350000*%
G04 APERTURE END LIST*
D10*
X49535713Y-5934885D02*
X49535713Y-5634885D01*
X49535713Y-5634885D02*
X49635713Y-5849171D01*
X49635713Y-5849171D02*
X49735713Y-5634885D01*
X49735713Y-5634885D02*
X49735713Y-5934885D01*
X49864284Y-5663457D02*
X49878570Y-5649171D01*
X49878570Y-5649171D02*
X49907142Y-5634885D01*
X49907142Y-5634885D02*
X49978570Y-5634885D01*
X49978570Y-5634885D02*
X50007142Y-5649171D01*
X50007142Y-5649171D02*
X50021427Y-5663457D01*
X50021427Y-5663457D02*
X50035713Y-5692028D01*
X50035713Y-5692028D02*
X50035713Y-5720600D01*
X50035713Y-5720600D02*
X50021427Y-5763457D01*
X50021427Y-5763457D02*
X49849999Y-5934885D01*
X49849999Y-5934885D02*
X50035713Y-5934885D01*
X50164284Y-5906314D02*
X50178570Y-5920600D01*
X50178570Y-5920600D02*
X50164284Y-5934885D01*
X50164284Y-5934885D02*
X50149998Y-5920600D01*
X50149998Y-5920600D02*
X50164284Y-5906314D01*
X50164284Y-5906314D02*
X50164284Y-5934885D01*
X50449998Y-5634885D02*
X50307141Y-5634885D01*
X50307141Y-5634885D02*
X50292855Y-5777742D01*
X50292855Y-5777742D02*
X50307141Y-5763457D01*
X50307141Y-5763457D02*
X50335713Y-5749171D01*
X50335713Y-5749171D02*
X50407141Y-5749171D01*
X50407141Y-5749171D02*
X50435713Y-5763457D01*
X50435713Y-5763457D02*
X50449998Y-5777742D01*
X50449998Y-5777742D02*
X50464284Y-5806314D01*
X50464284Y-5806314D02*
X50464284Y-5877742D01*
X50464284Y-5877742D02*
X50449998Y-5906314D01*
X50449998Y-5906314D02*
X50435713Y-5920600D01*
X50435713Y-5920600D02*
X50407141Y-5934885D01*
X50407141Y-5934885D02*
X50335713Y-5934885D01*
X50335713Y-5934885D02*
X50307141Y-5920600D01*
X50307141Y-5920600D02*
X50292855Y-5906314D01*
X50592855Y-5934885D02*
X50592855Y-5634885D01*
X50592855Y-5634885D02*
X50692855Y-5849171D01*
X50692855Y-5849171D02*
X50792855Y-5634885D01*
X50792855Y-5634885D02*
X50792855Y-5934885D01*
X50978569Y-5934885D02*
X50949998Y-5920600D01*
X50949998Y-5920600D02*
X50935712Y-5906314D01*
X50935712Y-5906314D02*
X50921426Y-5877742D01*
X50921426Y-5877742D02*
X50921426Y-5792028D01*
X50921426Y-5792028D02*
X50935712Y-5763457D01*
X50935712Y-5763457D02*
X50949998Y-5749171D01*
X50949998Y-5749171D02*
X50978569Y-5734885D01*
X50978569Y-5734885D02*
X51021426Y-5734885D01*
X51021426Y-5734885D02*
X51049998Y-5749171D01*
X51049998Y-5749171D02*
X51064284Y-5763457D01*
X51064284Y-5763457D02*
X51078569Y-5792028D01*
X51078569Y-5792028D02*
X51078569Y-5877742D01*
X51078569Y-5877742D02*
X51064284Y-5906314D01*
X51064284Y-5906314D02*
X51049998Y-5920600D01*
X51049998Y-5920600D02*
X51021426Y-5934885D01*
X51021426Y-5934885D02*
X50978569Y-5934885D01*
X51335713Y-5734885D02*
X51335713Y-5934885D01*
X51207141Y-5734885D02*
X51207141Y-5892028D01*
X51207141Y-5892028D02*
X51221427Y-5920600D01*
X51221427Y-5920600D02*
X51249998Y-5934885D01*
X51249998Y-5934885D02*
X51292855Y-5934885D01*
X51292855Y-5934885D02*
X51321427Y-5920600D01*
X51321427Y-5920600D02*
X51335713Y-5906314D01*
X51478570Y-5734885D02*
X51478570Y-5934885D01*
X51478570Y-5763457D02*
X51492856Y-5749171D01*
X51492856Y-5749171D02*
X51521427Y-5734885D01*
X51521427Y-5734885D02*
X51564284Y-5734885D01*
X51564284Y-5734885D02*
X51592856Y-5749171D01*
X51592856Y-5749171D02*
X51607142Y-5777742D01*
X51607142Y-5777742D02*
X51607142Y-5934885D01*
X51707142Y-5734885D02*
X51821428Y-5734885D01*
X51749999Y-5634885D02*
X51749999Y-5892028D01*
X51749999Y-5892028D02*
X51764285Y-5920600D01*
X51764285Y-5920600D02*
X51792856Y-5934885D01*
X51792856Y-5934885D02*
X51821428Y-5934885D01*
X51921428Y-5934885D02*
X51921428Y-5734885D01*
X51921428Y-5634885D02*
X51907142Y-5649171D01*
X51907142Y-5649171D02*
X51921428Y-5663457D01*
X51921428Y-5663457D02*
X51935714Y-5649171D01*
X51935714Y-5649171D02*
X51921428Y-5634885D01*
X51921428Y-5634885D02*
X51921428Y-5663457D01*
X52064285Y-5734885D02*
X52064285Y-5934885D01*
X52064285Y-5763457D02*
X52078571Y-5749171D01*
X52078571Y-5749171D02*
X52107142Y-5734885D01*
X52107142Y-5734885D02*
X52149999Y-5734885D01*
X52149999Y-5734885D02*
X52178571Y-5749171D01*
X52178571Y-5749171D02*
X52192857Y-5777742D01*
X52192857Y-5777742D02*
X52192857Y-5934885D01*
X52464286Y-5734885D02*
X52464286Y-5977742D01*
X52464286Y-5977742D02*
X52450000Y-6006314D01*
X52450000Y-6006314D02*
X52435714Y-6020600D01*
X52435714Y-6020600D02*
X52407143Y-6034885D01*
X52407143Y-6034885D02*
X52364286Y-6034885D01*
X52364286Y-6034885D02*
X52335714Y-6020600D01*
X52464286Y-5920600D02*
X52435714Y-5934885D01*
X52435714Y-5934885D02*
X52378571Y-5934885D01*
X52378571Y-5934885D02*
X52350000Y-5920600D01*
X52350000Y-5920600D02*
X52335714Y-5906314D01*
X52335714Y-5906314D02*
X52321428Y-5877742D01*
X52321428Y-5877742D02*
X52321428Y-5792028D01*
X52321428Y-5792028D02*
X52335714Y-5763457D01*
X52335714Y-5763457D02*
X52350000Y-5749171D01*
X52350000Y-5749171D02*
X52378571Y-5734885D01*
X52378571Y-5734885D02*
X52435714Y-5734885D01*
X52435714Y-5734885D02*
X52464286Y-5749171D01*
X52607143Y-5934885D02*
X52607143Y-5634885D01*
X52607143Y-5777742D02*
X52778572Y-5777742D01*
X52778572Y-5934885D02*
X52778572Y-5634885D01*
X52964286Y-5934885D02*
X52935715Y-5920600D01*
X52935715Y-5920600D02*
X52921429Y-5906314D01*
X52921429Y-5906314D02*
X52907143Y-5877742D01*
X52907143Y-5877742D02*
X52907143Y-5792028D01*
X52907143Y-5792028D02*
X52921429Y-5763457D01*
X52921429Y-5763457D02*
X52935715Y-5749171D01*
X52935715Y-5749171D02*
X52964286Y-5734885D01*
X52964286Y-5734885D02*
X53007143Y-5734885D01*
X53007143Y-5734885D02*
X53035715Y-5749171D01*
X53035715Y-5749171D02*
X53050001Y-5763457D01*
X53050001Y-5763457D02*
X53064286Y-5792028D01*
X53064286Y-5792028D02*
X53064286Y-5877742D01*
X53064286Y-5877742D02*
X53050001Y-5906314D01*
X53050001Y-5906314D02*
X53035715Y-5920600D01*
X53035715Y-5920600D02*
X53007143Y-5934885D01*
X53007143Y-5934885D02*
X52964286Y-5934885D01*
X53235715Y-5934885D02*
X53207144Y-5920600D01*
X53207144Y-5920600D02*
X53192858Y-5892028D01*
X53192858Y-5892028D02*
X53192858Y-5634885D01*
X53464287Y-5920600D02*
X53435715Y-5934885D01*
X53435715Y-5934885D02*
X53378573Y-5934885D01*
X53378573Y-5934885D02*
X53350001Y-5920600D01*
X53350001Y-5920600D02*
X53335715Y-5892028D01*
X53335715Y-5892028D02*
X53335715Y-5777742D01*
X53335715Y-5777742D02*
X53350001Y-5749171D01*
X53350001Y-5749171D02*
X53378573Y-5734885D01*
X53378573Y-5734885D02*
X53435715Y-5734885D01*
X53435715Y-5734885D02*
X53464287Y-5749171D01*
X53464287Y-5749171D02*
X53478573Y-5777742D01*
X53478573Y-5777742D02*
X53478573Y-5806314D01*
X53478573Y-5806314D02*
X53335715Y-5834885D01*
X49535713Y-54884885D02*
X49535713Y-54584885D01*
X49535713Y-54584885D02*
X49635713Y-54799171D01*
X49635713Y-54799171D02*
X49735713Y-54584885D01*
X49735713Y-54584885D02*
X49735713Y-54884885D01*
X49864284Y-54613457D02*
X49878570Y-54599171D01*
X49878570Y-54599171D02*
X49907142Y-54584885D01*
X49907142Y-54584885D02*
X49978570Y-54584885D01*
X49978570Y-54584885D02*
X50007142Y-54599171D01*
X50007142Y-54599171D02*
X50021427Y-54613457D01*
X50021427Y-54613457D02*
X50035713Y-54642028D01*
X50035713Y-54642028D02*
X50035713Y-54670600D01*
X50035713Y-54670600D02*
X50021427Y-54713457D01*
X50021427Y-54713457D02*
X49849999Y-54884885D01*
X49849999Y-54884885D02*
X50035713Y-54884885D01*
X50164284Y-54856314D02*
X50178570Y-54870600D01*
X50178570Y-54870600D02*
X50164284Y-54884885D01*
X50164284Y-54884885D02*
X50149998Y-54870600D01*
X50149998Y-54870600D02*
X50164284Y-54856314D01*
X50164284Y-54856314D02*
X50164284Y-54884885D01*
X50449998Y-54584885D02*
X50307141Y-54584885D01*
X50307141Y-54584885D02*
X50292855Y-54727742D01*
X50292855Y-54727742D02*
X50307141Y-54713457D01*
X50307141Y-54713457D02*
X50335713Y-54699171D01*
X50335713Y-54699171D02*
X50407141Y-54699171D01*
X50407141Y-54699171D02*
X50435713Y-54713457D01*
X50435713Y-54713457D02*
X50449998Y-54727742D01*
X50449998Y-54727742D02*
X50464284Y-54756314D01*
X50464284Y-54756314D02*
X50464284Y-54827742D01*
X50464284Y-54827742D02*
X50449998Y-54856314D01*
X50449998Y-54856314D02*
X50435713Y-54870600D01*
X50435713Y-54870600D02*
X50407141Y-54884885D01*
X50407141Y-54884885D02*
X50335713Y-54884885D01*
X50335713Y-54884885D02*
X50307141Y-54870600D01*
X50307141Y-54870600D02*
X50292855Y-54856314D01*
X50592855Y-54884885D02*
X50592855Y-54584885D01*
X50592855Y-54584885D02*
X50692855Y-54799171D01*
X50692855Y-54799171D02*
X50792855Y-54584885D01*
X50792855Y-54584885D02*
X50792855Y-54884885D01*
X50978569Y-54884885D02*
X50949998Y-54870600D01*
X50949998Y-54870600D02*
X50935712Y-54856314D01*
X50935712Y-54856314D02*
X50921426Y-54827742D01*
X50921426Y-54827742D02*
X50921426Y-54742028D01*
X50921426Y-54742028D02*
X50935712Y-54713457D01*
X50935712Y-54713457D02*
X50949998Y-54699171D01*
X50949998Y-54699171D02*
X50978569Y-54684885D01*
X50978569Y-54684885D02*
X51021426Y-54684885D01*
X51021426Y-54684885D02*
X51049998Y-54699171D01*
X51049998Y-54699171D02*
X51064284Y-54713457D01*
X51064284Y-54713457D02*
X51078569Y-54742028D01*
X51078569Y-54742028D02*
X51078569Y-54827742D01*
X51078569Y-54827742D02*
X51064284Y-54856314D01*
X51064284Y-54856314D02*
X51049998Y-54870600D01*
X51049998Y-54870600D02*
X51021426Y-54884885D01*
X51021426Y-54884885D02*
X50978569Y-54884885D01*
X51335713Y-54684885D02*
X51335713Y-54884885D01*
X51207141Y-54684885D02*
X51207141Y-54842028D01*
X51207141Y-54842028D02*
X51221427Y-54870600D01*
X51221427Y-54870600D02*
X51249998Y-54884885D01*
X51249998Y-54884885D02*
X51292855Y-54884885D01*
X51292855Y-54884885D02*
X51321427Y-54870600D01*
X51321427Y-54870600D02*
X51335713Y-54856314D01*
X51478570Y-54684885D02*
X51478570Y-54884885D01*
X51478570Y-54713457D02*
X51492856Y-54699171D01*
X51492856Y-54699171D02*
X51521427Y-54684885D01*
X51521427Y-54684885D02*
X51564284Y-54684885D01*
X51564284Y-54684885D02*
X51592856Y-54699171D01*
X51592856Y-54699171D02*
X51607142Y-54727742D01*
X51607142Y-54727742D02*
X51607142Y-54884885D01*
X51707142Y-54684885D02*
X51821428Y-54684885D01*
X51749999Y-54584885D02*
X51749999Y-54842028D01*
X51749999Y-54842028D02*
X51764285Y-54870600D01*
X51764285Y-54870600D02*
X51792856Y-54884885D01*
X51792856Y-54884885D02*
X51821428Y-54884885D01*
X51921428Y-54884885D02*
X51921428Y-54684885D01*
X51921428Y-54584885D02*
X51907142Y-54599171D01*
X51907142Y-54599171D02*
X51921428Y-54613457D01*
X51921428Y-54613457D02*
X51935714Y-54599171D01*
X51935714Y-54599171D02*
X51921428Y-54584885D01*
X51921428Y-54584885D02*
X51921428Y-54613457D01*
X52064285Y-54684885D02*
X52064285Y-54884885D01*
X52064285Y-54713457D02*
X52078571Y-54699171D01*
X52078571Y-54699171D02*
X52107142Y-54684885D01*
X52107142Y-54684885D02*
X52149999Y-54684885D01*
X52149999Y-54684885D02*
X52178571Y-54699171D01*
X52178571Y-54699171D02*
X52192857Y-54727742D01*
X52192857Y-54727742D02*
X52192857Y-54884885D01*
X52464286Y-54684885D02*
X52464286Y-54927742D01*
X52464286Y-54927742D02*
X52450000Y-54956314D01*
X52450000Y-54956314D02*
X52435714Y-54970600D01*
X52435714Y-54970600D02*
X52407143Y-54984885D01*
X52407143Y-54984885D02*
X52364286Y-54984885D01*
X52364286Y-54984885D02*
X52335714Y-54970600D01*
X52464286Y-54870600D02*
X52435714Y-54884885D01*
X52435714Y-54884885D02*
X52378571Y-54884885D01*
X52378571Y-54884885D02*
X52350000Y-54870600D01*
X52350000Y-54870600D02*
X52335714Y-54856314D01*
X52335714Y-54856314D02*
X52321428Y-54827742D01*
X52321428Y-54827742D02*
X52321428Y-54742028D01*
X52321428Y-54742028D02*
X52335714Y-54713457D01*
X52335714Y-54713457D02*
X52350000Y-54699171D01*
X52350000Y-54699171D02*
X52378571Y-54684885D01*
X52378571Y-54684885D02*
X52435714Y-54684885D01*
X52435714Y-54684885D02*
X52464286Y-54699171D01*
X52607143Y-54884885D02*
X52607143Y-54584885D01*
X52607143Y-54727742D02*
X52778572Y-54727742D01*
X52778572Y-54884885D02*
X52778572Y-54584885D01*
X52964286Y-54884885D02*
X52935715Y-54870600D01*
X52935715Y-54870600D02*
X52921429Y-54856314D01*
X52921429Y-54856314D02*
X52907143Y-54827742D01*
X52907143Y-54827742D02*
X52907143Y-54742028D01*
X52907143Y-54742028D02*
X52921429Y-54713457D01*
X52921429Y-54713457D02*
X52935715Y-54699171D01*
X52935715Y-54699171D02*
X52964286Y-54684885D01*
X52964286Y-54684885D02*
X53007143Y-54684885D01*
X53007143Y-54684885D02*
X53035715Y-54699171D01*
X53035715Y-54699171D02*
X53050001Y-54713457D01*
X53050001Y-54713457D02*
X53064286Y-54742028D01*
X53064286Y-54742028D02*
X53064286Y-54827742D01*
X53064286Y-54827742D02*
X53050001Y-54856314D01*
X53050001Y-54856314D02*
X53035715Y-54870600D01*
X53035715Y-54870600D02*
X53007143Y-54884885D01*
X53007143Y-54884885D02*
X52964286Y-54884885D01*
X53235715Y-54884885D02*
X53207144Y-54870600D01*
X53207144Y-54870600D02*
X53192858Y-54842028D01*
X53192858Y-54842028D02*
X53192858Y-54584885D01*
X53464287Y-54870600D02*
X53435715Y-54884885D01*
X53435715Y-54884885D02*
X53378573Y-54884885D01*
X53378573Y-54884885D02*
X53350001Y-54870600D01*
X53350001Y-54870600D02*
X53335715Y-54842028D01*
X53335715Y-54842028D02*
X53335715Y-54727742D01*
X53335715Y-54727742D02*
X53350001Y-54699171D01*
X53350001Y-54699171D02*
X53378573Y-54684885D01*
X53378573Y-54684885D02*
X53435715Y-54684885D01*
X53435715Y-54684885D02*
X53464287Y-54699171D01*
X53464287Y-54699171D02*
X53478573Y-54727742D01*
X53478573Y-54727742D02*
X53478573Y-54756314D01*
X53478573Y-54756314D02*
X53335715Y-54784885D01*
X535713Y-54884885D02*
X535713Y-54584885D01*
X535713Y-54584885D02*
X635713Y-54799171D01*
X635713Y-54799171D02*
X735713Y-54584885D01*
X735713Y-54584885D02*
X735713Y-54884885D01*
X864284Y-54613457D02*
X878570Y-54599171D01*
X878570Y-54599171D02*
X907142Y-54584885D01*
X907142Y-54584885D02*
X978570Y-54584885D01*
X978570Y-54584885D02*
X1007142Y-54599171D01*
X1007142Y-54599171D02*
X1021427Y-54613457D01*
X1021427Y-54613457D02*
X1035713Y-54642028D01*
X1035713Y-54642028D02*
X1035713Y-54670600D01*
X1035713Y-54670600D02*
X1021427Y-54713457D01*
X1021427Y-54713457D02*
X849999Y-54884885D01*
X849999Y-54884885D02*
X1035713Y-54884885D01*
X1164284Y-54856314D02*
X1178570Y-54870600D01*
X1178570Y-54870600D02*
X1164284Y-54884885D01*
X1164284Y-54884885D02*
X1149998Y-54870600D01*
X1149998Y-54870600D02*
X1164284Y-54856314D01*
X1164284Y-54856314D02*
X1164284Y-54884885D01*
X1449998Y-54584885D02*
X1307141Y-54584885D01*
X1307141Y-54584885D02*
X1292855Y-54727742D01*
X1292855Y-54727742D02*
X1307141Y-54713457D01*
X1307141Y-54713457D02*
X1335713Y-54699171D01*
X1335713Y-54699171D02*
X1407141Y-54699171D01*
X1407141Y-54699171D02*
X1435713Y-54713457D01*
X1435713Y-54713457D02*
X1449998Y-54727742D01*
X1449998Y-54727742D02*
X1464284Y-54756314D01*
X1464284Y-54756314D02*
X1464284Y-54827742D01*
X1464284Y-54827742D02*
X1449998Y-54856314D01*
X1449998Y-54856314D02*
X1435713Y-54870600D01*
X1435713Y-54870600D02*
X1407141Y-54884885D01*
X1407141Y-54884885D02*
X1335713Y-54884885D01*
X1335713Y-54884885D02*
X1307141Y-54870600D01*
X1307141Y-54870600D02*
X1292855Y-54856314D01*
X1592855Y-54884885D02*
X1592855Y-54584885D01*
X1592855Y-54584885D02*
X1692855Y-54799171D01*
X1692855Y-54799171D02*
X1792855Y-54584885D01*
X1792855Y-54584885D02*
X1792855Y-54884885D01*
X1978569Y-54884885D02*
X1949998Y-54870600D01*
X1949998Y-54870600D02*
X1935712Y-54856314D01*
X1935712Y-54856314D02*
X1921426Y-54827742D01*
X1921426Y-54827742D02*
X1921426Y-54742028D01*
X1921426Y-54742028D02*
X1935712Y-54713457D01*
X1935712Y-54713457D02*
X1949998Y-54699171D01*
X1949998Y-54699171D02*
X1978569Y-54684885D01*
X1978569Y-54684885D02*
X2021426Y-54684885D01*
X2021426Y-54684885D02*
X2049998Y-54699171D01*
X2049998Y-54699171D02*
X2064284Y-54713457D01*
X2064284Y-54713457D02*
X2078569Y-54742028D01*
X2078569Y-54742028D02*
X2078569Y-54827742D01*
X2078569Y-54827742D02*
X2064284Y-54856314D01*
X2064284Y-54856314D02*
X2049998Y-54870600D01*
X2049998Y-54870600D02*
X2021426Y-54884885D01*
X2021426Y-54884885D02*
X1978569Y-54884885D01*
X2335713Y-54684885D02*
X2335713Y-54884885D01*
X2207141Y-54684885D02*
X2207141Y-54842028D01*
X2207141Y-54842028D02*
X2221427Y-54870600D01*
X2221427Y-54870600D02*
X2249998Y-54884885D01*
X2249998Y-54884885D02*
X2292855Y-54884885D01*
X2292855Y-54884885D02*
X2321427Y-54870600D01*
X2321427Y-54870600D02*
X2335713Y-54856314D01*
X2478570Y-54684885D02*
X2478570Y-54884885D01*
X2478570Y-54713457D02*
X2492856Y-54699171D01*
X2492856Y-54699171D02*
X2521427Y-54684885D01*
X2521427Y-54684885D02*
X2564284Y-54684885D01*
X2564284Y-54684885D02*
X2592856Y-54699171D01*
X2592856Y-54699171D02*
X2607142Y-54727742D01*
X2607142Y-54727742D02*
X2607142Y-54884885D01*
X2707142Y-54684885D02*
X2821428Y-54684885D01*
X2749999Y-54584885D02*
X2749999Y-54842028D01*
X2749999Y-54842028D02*
X2764285Y-54870600D01*
X2764285Y-54870600D02*
X2792856Y-54884885D01*
X2792856Y-54884885D02*
X2821428Y-54884885D01*
X2921428Y-54884885D02*
X2921428Y-54684885D01*
X2921428Y-54584885D02*
X2907142Y-54599171D01*
X2907142Y-54599171D02*
X2921428Y-54613457D01*
X2921428Y-54613457D02*
X2935714Y-54599171D01*
X2935714Y-54599171D02*
X2921428Y-54584885D01*
X2921428Y-54584885D02*
X2921428Y-54613457D01*
X3064285Y-54684885D02*
X3064285Y-54884885D01*
X3064285Y-54713457D02*
X3078571Y-54699171D01*
X3078571Y-54699171D02*
X3107142Y-54684885D01*
X3107142Y-54684885D02*
X3149999Y-54684885D01*
X3149999Y-54684885D02*
X3178571Y-54699171D01*
X3178571Y-54699171D02*
X3192857Y-54727742D01*
X3192857Y-54727742D02*
X3192857Y-54884885D01*
X3464286Y-54684885D02*
X3464286Y-54927742D01*
X3464286Y-54927742D02*
X3450000Y-54956314D01*
X3450000Y-54956314D02*
X3435714Y-54970600D01*
X3435714Y-54970600D02*
X3407143Y-54984885D01*
X3407143Y-54984885D02*
X3364286Y-54984885D01*
X3364286Y-54984885D02*
X3335714Y-54970600D01*
X3464286Y-54870600D02*
X3435714Y-54884885D01*
X3435714Y-54884885D02*
X3378571Y-54884885D01*
X3378571Y-54884885D02*
X3350000Y-54870600D01*
X3350000Y-54870600D02*
X3335714Y-54856314D01*
X3335714Y-54856314D02*
X3321428Y-54827742D01*
X3321428Y-54827742D02*
X3321428Y-54742028D01*
X3321428Y-54742028D02*
X3335714Y-54713457D01*
X3335714Y-54713457D02*
X3350000Y-54699171D01*
X3350000Y-54699171D02*
X3378571Y-54684885D01*
X3378571Y-54684885D02*
X3435714Y-54684885D01*
X3435714Y-54684885D02*
X3464286Y-54699171D01*
X3607143Y-54884885D02*
X3607143Y-54584885D01*
X3607143Y-54727742D02*
X3778572Y-54727742D01*
X3778572Y-54884885D02*
X3778572Y-54584885D01*
X3964286Y-54884885D02*
X3935715Y-54870600D01*
X3935715Y-54870600D02*
X3921429Y-54856314D01*
X3921429Y-54856314D02*
X3907143Y-54827742D01*
X3907143Y-54827742D02*
X3907143Y-54742028D01*
X3907143Y-54742028D02*
X3921429Y-54713457D01*
X3921429Y-54713457D02*
X3935715Y-54699171D01*
X3935715Y-54699171D02*
X3964286Y-54684885D01*
X3964286Y-54684885D02*
X4007143Y-54684885D01*
X4007143Y-54684885D02*
X4035715Y-54699171D01*
X4035715Y-54699171D02*
X4050001Y-54713457D01*
X4050001Y-54713457D02*
X4064286Y-54742028D01*
X4064286Y-54742028D02*
X4064286Y-54827742D01*
X4064286Y-54827742D02*
X4050001Y-54856314D01*
X4050001Y-54856314D02*
X4035715Y-54870600D01*
X4035715Y-54870600D02*
X4007143Y-54884885D01*
X4007143Y-54884885D02*
X3964286Y-54884885D01*
X4235715Y-54884885D02*
X4207144Y-54870600D01*
X4207144Y-54870600D02*
X4192858Y-54842028D01*
X4192858Y-54842028D02*
X4192858Y-54584885D01*
X4464287Y-54870600D02*
X4435715Y-54884885D01*
X4435715Y-54884885D02*
X4378573Y-54884885D01*
X4378573Y-54884885D02*
X4350001Y-54870600D01*
X4350001Y-54870600D02*
X4335715Y-54842028D01*
X4335715Y-54842028D02*
X4335715Y-54727742D01*
X4335715Y-54727742D02*
X4350001Y-54699171D01*
X4350001Y-54699171D02*
X4378573Y-54684885D01*
X4378573Y-54684885D02*
X4435715Y-54684885D01*
X4435715Y-54684885D02*
X4464287Y-54699171D01*
X4464287Y-54699171D02*
X4478573Y-54727742D01*
X4478573Y-54727742D02*
X4478573Y-54756314D01*
X4478573Y-54756314D02*
X4335715Y-54784885D01*
X535713Y-5884885D02*
X535713Y-5584885D01*
X535713Y-5584885D02*
X635713Y-5799171D01*
X635713Y-5799171D02*
X735713Y-5584885D01*
X735713Y-5584885D02*
X735713Y-5884885D01*
X864284Y-5613457D02*
X878570Y-5599171D01*
X878570Y-5599171D02*
X907142Y-5584885D01*
X907142Y-5584885D02*
X978570Y-5584885D01*
X978570Y-5584885D02*
X1007142Y-5599171D01*
X1007142Y-5599171D02*
X1021427Y-5613457D01*
X1021427Y-5613457D02*
X1035713Y-5642028D01*
X1035713Y-5642028D02*
X1035713Y-5670600D01*
X1035713Y-5670600D02*
X1021427Y-5713457D01*
X1021427Y-5713457D02*
X849999Y-5884885D01*
X849999Y-5884885D02*
X1035713Y-5884885D01*
X1164284Y-5856314D02*
X1178570Y-5870600D01*
X1178570Y-5870600D02*
X1164284Y-5884885D01*
X1164284Y-5884885D02*
X1149998Y-5870600D01*
X1149998Y-5870600D02*
X1164284Y-5856314D01*
X1164284Y-5856314D02*
X1164284Y-5884885D01*
X1449998Y-5584885D02*
X1307141Y-5584885D01*
X1307141Y-5584885D02*
X1292855Y-5727742D01*
X1292855Y-5727742D02*
X1307141Y-5713457D01*
X1307141Y-5713457D02*
X1335713Y-5699171D01*
X1335713Y-5699171D02*
X1407141Y-5699171D01*
X1407141Y-5699171D02*
X1435713Y-5713457D01*
X1435713Y-5713457D02*
X1449998Y-5727742D01*
X1449998Y-5727742D02*
X1464284Y-5756314D01*
X1464284Y-5756314D02*
X1464284Y-5827742D01*
X1464284Y-5827742D02*
X1449998Y-5856314D01*
X1449998Y-5856314D02*
X1435713Y-5870600D01*
X1435713Y-5870600D02*
X1407141Y-5884885D01*
X1407141Y-5884885D02*
X1335713Y-5884885D01*
X1335713Y-5884885D02*
X1307141Y-5870600D01*
X1307141Y-5870600D02*
X1292855Y-5856314D01*
X1592855Y-5884885D02*
X1592855Y-5584885D01*
X1592855Y-5584885D02*
X1692855Y-5799171D01*
X1692855Y-5799171D02*
X1792855Y-5584885D01*
X1792855Y-5584885D02*
X1792855Y-5884885D01*
X1978569Y-5884885D02*
X1949998Y-5870600D01*
X1949998Y-5870600D02*
X1935712Y-5856314D01*
X1935712Y-5856314D02*
X1921426Y-5827742D01*
X1921426Y-5827742D02*
X1921426Y-5742028D01*
X1921426Y-5742028D02*
X1935712Y-5713457D01*
X1935712Y-5713457D02*
X1949998Y-5699171D01*
X1949998Y-5699171D02*
X1978569Y-5684885D01*
X1978569Y-5684885D02*
X2021426Y-5684885D01*
X2021426Y-5684885D02*
X2049998Y-5699171D01*
X2049998Y-5699171D02*
X2064284Y-5713457D01*
X2064284Y-5713457D02*
X2078569Y-5742028D01*
X2078569Y-5742028D02*
X2078569Y-5827742D01*
X2078569Y-5827742D02*
X2064284Y-5856314D01*
X2064284Y-5856314D02*
X2049998Y-5870600D01*
X2049998Y-5870600D02*
X2021426Y-5884885D01*
X2021426Y-5884885D02*
X1978569Y-5884885D01*
X2335713Y-5684885D02*
X2335713Y-5884885D01*
X2207141Y-5684885D02*
X2207141Y-5842028D01*
X2207141Y-5842028D02*
X2221427Y-5870600D01*
X2221427Y-5870600D02*
X2249998Y-5884885D01*
X2249998Y-5884885D02*
X2292855Y-5884885D01*
X2292855Y-5884885D02*
X2321427Y-5870600D01*
X2321427Y-5870600D02*
X2335713Y-5856314D01*
X2478570Y-5684885D02*
X2478570Y-5884885D01*
X2478570Y-5713457D02*
X2492856Y-5699171D01*
X2492856Y-5699171D02*
X2521427Y-5684885D01*
X2521427Y-5684885D02*
X2564284Y-5684885D01*
X2564284Y-5684885D02*
X2592856Y-5699171D01*
X2592856Y-5699171D02*
X2607142Y-5727742D01*
X2607142Y-5727742D02*
X2607142Y-5884885D01*
X2707142Y-5684885D02*
X2821428Y-5684885D01*
X2749999Y-5584885D02*
X2749999Y-5842028D01*
X2749999Y-5842028D02*
X2764285Y-5870600D01*
X2764285Y-5870600D02*
X2792856Y-5884885D01*
X2792856Y-5884885D02*
X2821428Y-5884885D01*
X2921428Y-5884885D02*
X2921428Y-5684885D01*
X2921428Y-5584885D02*
X2907142Y-5599171D01*
X2907142Y-5599171D02*
X2921428Y-5613457D01*
X2921428Y-5613457D02*
X2935714Y-5599171D01*
X2935714Y-5599171D02*
X2921428Y-5584885D01*
X2921428Y-5584885D02*
X2921428Y-5613457D01*
X3064285Y-5684885D02*
X3064285Y-5884885D01*
X3064285Y-5713457D02*
X3078571Y-5699171D01*
X3078571Y-5699171D02*
X3107142Y-5684885D01*
X3107142Y-5684885D02*
X3149999Y-5684885D01*
X3149999Y-5684885D02*
X3178571Y-5699171D01*
X3178571Y-5699171D02*
X3192857Y-5727742D01*
X3192857Y-5727742D02*
X3192857Y-5884885D01*
X3464286Y-5684885D02*
X3464286Y-5927742D01*
X3464286Y-5927742D02*
X3450000Y-5956314D01*
X3450000Y-5956314D02*
X3435714Y-5970600D01*
X3435714Y-5970600D02*
X3407143Y-5984885D01*
X3407143Y-5984885D02*
X3364286Y-5984885D01*
X3364286Y-5984885D02*
X3335714Y-5970600D01*
X3464286Y-5870600D02*
X3435714Y-5884885D01*
X3435714Y-5884885D02*
X3378571Y-5884885D01*
X3378571Y-5884885D02*
X3350000Y-5870600D01*
X3350000Y-5870600D02*
X3335714Y-5856314D01*
X3335714Y-5856314D02*
X3321428Y-5827742D01*
X3321428Y-5827742D02*
X3321428Y-5742028D01*
X3321428Y-5742028D02*
X3335714Y-5713457D01*
X3335714Y-5713457D02*
X3350000Y-5699171D01*
X3350000Y-5699171D02*
X3378571Y-5684885D01*
X3378571Y-5684885D02*
X3435714Y-5684885D01*
X3435714Y-5684885D02*
X3464286Y-5699171D01*
X3607143Y-5884885D02*
X3607143Y-5584885D01*
X3607143Y-5727742D02*
X3778572Y-5727742D01*
X3778572Y-5884885D02*
X3778572Y-5584885D01*
X3964286Y-5884885D02*
X3935715Y-5870600D01*
X3935715Y-5870600D02*
X3921429Y-5856314D01*
X3921429Y-5856314D02*
X3907143Y-5827742D01*
X3907143Y-5827742D02*
X3907143Y-5742028D01*
X3907143Y-5742028D02*
X3921429Y-5713457D01*
X3921429Y-5713457D02*
X3935715Y-5699171D01*
X3935715Y-5699171D02*
X3964286Y-5684885D01*
X3964286Y-5684885D02*
X4007143Y-5684885D01*
X4007143Y-5684885D02*
X4035715Y-5699171D01*
X4035715Y-5699171D02*
X4050001Y-5713457D01*
X4050001Y-5713457D02*
X4064286Y-5742028D01*
X4064286Y-5742028D02*
X4064286Y-5827742D01*
X4064286Y-5827742D02*
X4050001Y-5856314D01*
X4050001Y-5856314D02*
X4035715Y-5870600D01*
X4035715Y-5870600D02*
X4007143Y-5884885D01*
X4007143Y-5884885D02*
X3964286Y-5884885D01*
X4235715Y-5884885D02*
X4207144Y-5870600D01*
X4207144Y-5870600D02*
X4192858Y-5842028D01*
X4192858Y-5842028D02*
X4192858Y-5584885D01*
X4464287Y-5870600D02*
X4435715Y-5884885D01*
X4435715Y-5884885D02*
X4378573Y-5884885D01*
X4378573Y-5884885D02*
X4350001Y-5870600D01*
X4350001Y-5870600D02*
X4335715Y-5842028D01*
X4335715Y-5842028D02*
X4335715Y-5727742D01*
X4335715Y-5727742D02*
X4350001Y-5699171D01*
X4350001Y-5699171D02*
X4378573Y-5684885D01*
X4378573Y-5684885D02*
X4435715Y-5684885D01*
X4435715Y-5684885D02*
X4464287Y-5699171D01*
X4464287Y-5699171D02*
X4478573Y-5727742D01*
X4478573Y-5727742D02*
X4478573Y-5756314D01*
X4478573Y-5756314D02*
X4335715Y-5784885D01*
X19648572Y-32829885D02*
X19648572Y-33029885D01*
X19577143Y-32715600D02*
X19505714Y-32929885D01*
X19505714Y-32929885D02*
X19691429Y-32929885D01*
X19805714Y-33001314D02*
X19820000Y-33015600D01*
X19820000Y-33015600D02*
X19805714Y-33029885D01*
X19805714Y-33029885D02*
X19791428Y-33015600D01*
X19791428Y-33015600D02*
X19805714Y-33001314D01*
X19805714Y-33001314D02*
X19805714Y-33029885D01*
X19920000Y-32729885D02*
X20120000Y-32729885D01*
X20120000Y-32729885D02*
X19991428Y-33029885D01*
X20362857Y-32829885D02*
X20362857Y-33029885D01*
X20234285Y-32829885D02*
X20234285Y-32987028D01*
X20234285Y-32987028D02*
X20248571Y-33015600D01*
X20248571Y-33015600D02*
X20277142Y-33029885D01*
X20277142Y-33029885D02*
X20319999Y-33029885D01*
X20319999Y-33029885D02*
X20348571Y-33015600D01*
X20348571Y-33015600D02*
X20362857Y-33001314D01*
X20605714Y-32872742D02*
X20505714Y-32872742D01*
X20505714Y-33029885D02*
X20505714Y-32729885D01*
X20505714Y-32729885D02*
X20648571Y-32729885D01*
X36057742Y-30385001D02*
X36057742Y-30485001D01*
X36214885Y-30485001D02*
X35914885Y-30485001D01*
X35914885Y-30485001D02*
X35914885Y-30342144D01*
X36057742Y-30127858D02*
X36057742Y-30227858D01*
X36214885Y-30227858D02*
X35914885Y-30227858D01*
X35914885Y-30227858D02*
X35914885Y-30085001D01*
X36186314Y-29799286D02*
X36200600Y-29813572D01*
X36200600Y-29813572D02*
X36214885Y-29856429D01*
X36214885Y-29856429D02*
X36214885Y-29885001D01*
X36214885Y-29885001D02*
X36200600Y-29927858D01*
X36200600Y-29927858D02*
X36172028Y-29956429D01*
X36172028Y-29956429D02*
X36143457Y-29970715D01*
X36143457Y-29970715D02*
X36086314Y-29985001D01*
X36086314Y-29985001D02*
X36043457Y-29985001D01*
X36043457Y-29985001D02*
X35986314Y-29970715D01*
X35986314Y-29970715D02*
X35957742Y-29956429D01*
X35957742Y-29956429D02*
X35929171Y-29927858D01*
X35929171Y-29927858D02*
X35914885Y-29885001D01*
X35914885Y-29885001D02*
X35914885Y-29856429D01*
X35914885Y-29856429D02*
X35929171Y-29813572D01*
X35929171Y-29813572D02*
X35943457Y-29799286D01*
X36243457Y-29742144D02*
X36243457Y-29513572D01*
X36200600Y-29313573D02*
X36214885Y-29342144D01*
X36214885Y-29342144D02*
X36214885Y-29399287D01*
X36214885Y-29399287D02*
X36200600Y-29427858D01*
X36200600Y-29427858D02*
X36186314Y-29442144D01*
X36186314Y-29442144D02*
X36157742Y-29456430D01*
X36157742Y-29456430D02*
X36072028Y-29456430D01*
X36072028Y-29456430D02*
X36043457Y-29442144D01*
X36043457Y-29442144D02*
X36029171Y-29427858D01*
X36029171Y-29427858D02*
X36014885Y-29399287D01*
X36014885Y-29399287D02*
X36014885Y-29342144D01*
X36014885Y-29342144D02*
X36029171Y-29313573D01*
X36214885Y-29142144D02*
X36200600Y-29170715D01*
X36200600Y-29170715D02*
X36186314Y-29185001D01*
X36186314Y-29185001D02*
X36157742Y-29199287D01*
X36157742Y-29199287D02*
X36072028Y-29199287D01*
X36072028Y-29199287D02*
X36043457Y-29185001D01*
X36043457Y-29185001D02*
X36029171Y-29170715D01*
X36029171Y-29170715D02*
X36014885Y-29142144D01*
X36014885Y-29142144D02*
X36014885Y-29099287D01*
X36014885Y-29099287D02*
X36029171Y-29070715D01*
X36029171Y-29070715D02*
X36043457Y-29056430D01*
X36043457Y-29056430D02*
X36072028Y-29042144D01*
X36072028Y-29042144D02*
X36157742Y-29042144D01*
X36157742Y-29042144D02*
X36186314Y-29056430D01*
X36186314Y-29056430D02*
X36200600Y-29070715D01*
X36200600Y-29070715D02*
X36214885Y-29099287D01*
X36214885Y-29099287D02*
X36214885Y-29142144D01*
X36014885Y-28913572D02*
X36214885Y-28913572D01*
X36043457Y-28913572D02*
X36029171Y-28899286D01*
X36029171Y-28899286D02*
X36014885Y-28870715D01*
X36014885Y-28870715D02*
X36014885Y-28827858D01*
X36014885Y-28827858D02*
X36029171Y-28799286D01*
X36029171Y-28799286D02*
X36057742Y-28785001D01*
X36057742Y-28785001D02*
X36214885Y-28785001D01*
X36014885Y-28642143D02*
X36214885Y-28642143D01*
X36043457Y-28642143D02*
X36029171Y-28627857D01*
X36029171Y-28627857D02*
X36014885Y-28599286D01*
X36014885Y-28599286D02*
X36014885Y-28556429D01*
X36014885Y-28556429D02*
X36029171Y-28527857D01*
X36029171Y-28527857D02*
X36057742Y-28513572D01*
X36057742Y-28513572D02*
X36214885Y-28513572D01*
X36200600Y-28256428D02*
X36214885Y-28285000D01*
X36214885Y-28285000D02*
X36214885Y-28342143D01*
X36214885Y-28342143D02*
X36200600Y-28370714D01*
X36200600Y-28370714D02*
X36172028Y-28385000D01*
X36172028Y-28385000D02*
X36057742Y-28385000D01*
X36057742Y-28385000D02*
X36029171Y-28370714D01*
X36029171Y-28370714D02*
X36014885Y-28342143D01*
X36014885Y-28342143D02*
X36014885Y-28285000D01*
X36014885Y-28285000D02*
X36029171Y-28256428D01*
X36029171Y-28256428D02*
X36057742Y-28242143D01*
X36057742Y-28242143D02*
X36086314Y-28242143D01*
X36086314Y-28242143D02*
X36114885Y-28385000D01*
X36200600Y-27985000D02*
X36214885Y-28013571D01*
X36214885Y-28013571D02*
X36214885Y-28070714D01*
X36214885Y-28070714D02*
X36200600Y-28099285D01*
X36200600Y-28099285D02*
X36186314Y-28113571D01*
X36186314Y-28113571D02*
X36157742Y-28127857D01*
X36157742Y-28127857D02*
X36072028Y-28127857D01*
X36072028Y-28127857D02*
X36043457Y-28113571D01*
X36043457Y-28113571D02*
X36029171Y-28099285D01*
X36029171Y-28099285D02*
X36014885Y-28070714D01*
X36014885Y-28070714D02*
X36014885Y-28013571D01*
X36014885Y-28013571D02*
X36029171Y-27985000D01*
X36014885Y-27899285D02*
X36014885Y-27784999D01*
X35914885Y-27856428D02*
X36172028Y-27856428D01*
X36172028Y-27856428D02*
X36200600Y-27842142D01*
X36200600Y-27842142D02*
X36214885Y-27813571D01*
X36214885Y-27813571D02*
X36214885Y-27784999D01*
X36214885Y-27642142D02*
X36200600Y-27670713D01*
X36200600Y-27670713D02*
X36186314Y-27684999D01*
X36186314Y-27684999D02*
X36157742Y-27699285D01*
X36157742Y-27699285D02*
X36072028Y-27699285D01*
X36072028Y-27699285D02*
X36043457Y-27684999D01*
X36043457Y-27684999D02*
X36029171Y-27670713D01*
X36029171Y-27670713D02*
X36014885Y-27642142D01*
X36014885Y-27642142D02*
X36014885Y-27599285D01*
X36014885Y-27599285D02*
X36029171Y-27570713D01*
X36029171Y-27570713D02*
X36043457Y-27556428D01*
X36043457Y-27556428D02*
X36072028Y-27542142D01*
X36072028Y-27542142D02*
X36157742Y-27542142D01*
X36157742Y-27542142D02*
X36186314Y-27556428D01*
X36186314Y-27556428D02*
X36200600Y-27570713D01*
X36200600Y-27570713D02*
X36214885Y-27599285D01*
X36214885Y-27599285D02*
X36214885Y-27642142D01*
X36214885Y-27413570D02*
X36014885Y-27413570D01*
X36072028Y-27413570D02*
X36043457Y-27399284D01*
X36043457Y-27399284D02*
X36029171Y-27384999D01*
X36029171Y-27384999D02*
X36014885Y-27356427D01*
X36014885Y-27356427D02*
X36014885Y-27327856D01*
X36243457Y-27299285D02*
X36243457Y-27070713D01*
X35943457Y-27013571D02*
X35929171Y-26999285D01*
X35929171Y-26999285D02*
X35914885Y-26970714D01*
X35914885Y-26970714D02*
X35914885Y-26899285D01*
X35914885Y-26899285D02*
X35929171Y-26870714D01*
X35929171Y-26870714D02*
X35943457Y-26856428D01*
X35943457Y-26856428D02*
X35972028Y-26842142D01*
X35972028Y-26842142D02*
X36000600Y-26842142D01*
X36000600Y-26842142D02*
X36043457Y-26856428D01*
X36043457Y-26856428D02*
X36214885Y-27027856D01*
X36214885Y-27027856D02*
X36214885Y-26842142D01*
X35943457Y-26727857D02*
X35929171Y-26713571D01*
X35929171Y-26713571D02*
X35914885Y-26685000D01*
X35914885Y-26685000D02*
X35914885Y-26613571D01*
X35914885Y-26613571D02*
X35929171Y-26585000D01*
X35929171Y-26585000D02*
X35943457Y-26570714D01*
X35943457Y-26570714D02*
X35972028Y-26556428D01*
X35972028Y-26556428D02*
X36000600Y-26556428D01*
X36000600Y-26556428D02*
X36043457Y-26570714D01*
X36043457Y-26570714D02*
X36214885Y-26742142D01*
X36214885Y-26742142D02*
X36214885Y-26556428D01*
X36014885Y-26427857D02*
X36314885Y-26427857D01*
X36029171Y-26427857D02*
X36014885Y-26399286D01*
X36014885Y-26399286D02*
X36014885Y-26342143D01*
X36014885Y-26342143D02*
X36029171Y-26313571D01*
X36029171Y-26313571D02*
X36043457Y-26299286D01*
X36043457Y-26299286D02*
X36072028Y-26285000D01*
X36072028Y-26285000D02*
X36157742Y-26285000D01*
X36157742Y-26285000D02*
X36186314Y-26299286D01*
X36186314Y-26299286D02*
X36200600Y-26313571D01*
X36200600Y-26313571D02*
X36214885Y-26342143D01*
X36214885Y-26342143D02*
X36214885Y-26399286D01*
X36214885Y-26399286D02*
X36200600Y-26427857D01*
X36243457Y-26227857D02*
X36243457Y-25999285D01*
X36214885Y-25799286D02*
X35914885Y-25799286D01*
X36200600Y-25799286D02*
X36214885Y-25827857D01*
X36214885Y-25827857D02*
X36214885Y-25885000D01*
X36214885Y-25885000D02*
X36200600Y-25913571D01*
X36200600Y-25913571D02*
X36186314Y-25927857D01*
X36186314Y-25927857D02*
X36157742Y-25942143D01*
X36157742Y-25942143D02*
X36072028Y-25942143D01*
X36072028Y-25942143D02*
X36043457Y-25927857D01*
X36043457Y-25927857D02*
X36029171Y-25913571D01*
X36029171Y-25913571D02*
X36014885Y-25885000D01*
X36014885Y-25885000D02*
X36014885Y-25827857D01*
X36014885Y-25827857D02*
X36029171Y-25799286D01*
X36014885Y-25527857D02*
X36214885Y-25527857D01*
X36014885Y-25656428D02*
X36172028Y-25656428D01*
X36172028Y-25656428D02*
X36200600Y-25642142D01*
X36200600Y-25642142D02*
X36214885Y-25613571D01*
X36214885Y-25613571D02*
X36214885Y-25570714D01*
X36214885Y-25570714D02*
X36200600Y-25542142D01*
X36200600Y-25542142D02*
X36186314Y-25527857D01*
X36214885Y-25256428D02*
X36057742Y-25256428D01*
X36057742Y-25256428D02*
X36029171Y-25270713D01*
X36029171Y-25270713D02*
X36014885Y-25299285D01*
X36014885Y-25299285D02*
X36014885Y-25356428D01*
X36014885Y-25356428D02*
X36029171Y-25384999D01*
X36200600Y-25256428D02*
X36214885Y-25284999D01*
X36214885Y-25284999D02*
X36214885Y-25356428D01*
X36214885Y-25356428D02*
X36200600Y-25384999D01*
X36200600Y-25384999D02*
X36172028Y-25399285D01*
X36172028Y-25399285D02*
X36143457Y-25399285D01*
X36143457Y-25399285D02*
X36114885Y-25384999D01*
X36114885Y-25384999D02*
X36100600Y-25356428D01*
X36100600Y-25356428D02*
X36100600Y-25284999D01*
X36100600Y-25284999D02*
X36086314Y-25256428D01*
X36214885Y-25070713D02*
X36200600Y-25099284D01*
X36200600Y-25099284D02*
X36172028Y-25113570D01*
X36172028Y-25113570D02*
X35914885Y-25113570D01*
X36243457Y-25027856D02*
X36243457Y-24799284D01*
X36200600Y-24742142D02*
X36214885Y-24713570D01*
X36214885Y-24713570D02*
X36214885Y-24656427D01*
X36214885Y-24656427D02*
X36200600Y-24627856D01*
X36200600Y-24627856D02*
X36172028Y-24613570D01*
X36172028Y-24613570D02*
X36157742Y-24613570D01*
X36157742Y-24613570D02*
X36129171Y-24627856D01*
X36129171Y-24627856D02*
X36114885Y-24656427D01*
X36114885Y-24656427D02*
X36114885Y-24699285D01*
X36114885Y-24699285D02*
X36100600Y-24727856D01*
X36100600Y-24727856D02*
X36072028Y-24742142D01*
X36072028Y-24742142D02*
X36057742Y-24742142D01*
X36057742Y-24742142D02*
X36029171Y-24727856D01*
X36029171Y-24727856D02*
X36014885Y-24699285D01*
X36014885Y-24699285D02*
X36014885Y-24656427D01*
X36014885Y-24656427D02*
X36029171Y-24627856D01*
X36214885Y-24484999D02*
X36014885Y-24484999D01*
X35914885Y-24484999D02*
X35929171Y-24499285D01*
X35929171Y-24499285D02*
X35943457Y-24484999D01*
X35943457Y-24484999D02*
X35929171Y-24470713D01*
X35929171Y-24470713D02*
X35914885Y-24484999D01*
X35914885Y-24484999D02*
X35943457Y-24484999D01*
X36214885Y-24213571D02*
X35914885Y-24213571D01*
X36200600Y-24213571D02*
X36214885Y-24242142D01*
X36214885Y-24242142D02*
X36214885Y-24299285D01*
X36214885Y-24299285D02*
X36200600Y-24327856D01*
X36200600Y-24327856D02*
X36186314Y-24342142D01*
X36186314Y-24342142D02*
X36157742Y-24356428D01*
X36157742Y-24356428D02*
X36072028Y-24356428D01*
X36072028Y-24356428D02*
X36043457Y-24342142D01*
X36043457Y-24342142D02*
X36029171Y-24327856D01*
X36029171Y-24327856D02*
X36014885Y-24299285D01*
X36014885Y-24299285D02*
X36014885Y-24242142D01*
X36014885Y-24242142D02*
X36029171Y-24213571D01*
X36200600Y-23956427D02*
X36214885Y-23984999D01*
X36214885Y-23984999D02*
X36214885Y-24042142D01*
X36214885Y-24042142D02*
X36200600Y-24070713D01*
X36200600Y-24070713D02*
X36172028Y-24084999D01*
X36172028Y-24084999D02*
X36057742Y-24084999D01*
X36057742Y-24084999D02*
X36029171Y-24070713D01*
X36029171Y-24070713D02*
X36014885Y-24042142D01*
X36014885Y-24042142D02*
X36014885Y-23984999D01*
X36014885Y-23984999D02*
X36029171Y-23956427D01*
X36029171Y-23956427D02*
X36057742Y-23942142D01*
X36057742Y-23942142D02*
X36086314Y-23942142D01*
X36086314Y-23942142D02*
X36114885Y-24084999D01*
X36214885Y-23684999D02*
X35914885Y-23684999D01*
X36200600Y-23684999D02*
X36214885Y-23713570D01*
X36214885Y-23713570D02*
X36214885Y-23770713D01*
X36214885Y-23770713D02*
X36200600Y-23799284D01*
X36200600Y-23799284D02*
X36186314Y-23813570D01*
X36186314Y-23813570D02*
X36157742Y-23827856D01*
X36157742Y-23827856D02*
X36072028Y-23827856D01*
X36072028Y-23827856D02*
X36043457Y-23813570D01*
X36043457Y-23813570D02*
X36029171Y-23799284D01*
X36029171Y-23799284D02*
X36014885Y-23770713D01*
X36014885Y-23770713D02*
X36014885Y-23713570D01*
X36014885Y-23713570D02*
X36029171Y-23684999D01*
X44357381Y-49519382D02*
X44257381Y-49519382D01*
X44257381Y-49676525D02*
X44257381Y-49376525D01*
X44257381Y-49376525D02*
X44400238Y-49376525D01*
X44614524Y-49519382D02*
X44514524Y-49519382D01*
X44514524Y-49676525D02*
X44514524Y-49376525D01*
X44514524Y-49376525D02*
X44657381Y-49376525D01*
X44943096Y-49647954D02*
X44928810Y-49662240D01*
X44928810Y-49662240D02*
X44885953Y-49676525D01*
X44885953Y-49676525D02*
X44857381Y-49676525D01*
X44857381Y-49676525D02*
X44814524Y-49662240D01*
X44814524Y-49662240D02*
X44785953Y-49633668D01*
X44785953Y-49633668D02*
X44771667Y-49605097D01*
X44771667Y-49605097D02*
X44757381Y-49547954D01*
X44757381Y-49547954D02*
X44757381Y-49505097D01*
X44757381Y-49505097D02*
X44771667Y-49447954D01*
X44771667Y-49447954D02*
X44785953Y-49419382D01*
X44785953Y-49419382D02*
X44814524Y-49390811D01*
X44814524Y-49390811D02*
X44857381Y-49376525D01*
X44857381Y-49376525D02*
X44885953Y-49376525D01*
X44885953Y-49376525D02*
X44928810Y-49390811D01*
X44928810Y-49390811D02*
X44943096Y-49405097D01*
X45000239Y-49705097D02*
X45228810Y-49705097D01*
X45428810Y-49662240D02*
X45400238Y-49676525D01*
X45400238Y-49676525D02*
X45343095Y-49676525D01*
X45343095Y-49676525D02*
X45314524Y-49662240D01*
X45314524Y-49662240D02*
X45300238Y-49647954D01*
X45300238Y-49647954D02*
X45285952Y-49619382D01*
X45285952Y-49619382D02*
X45285952Y-49533668D01*
X45285952Y-49533668D02*
X45300238Y-49505097D01*
X45300238Y-49505097D02*
X45314524Y-49490811D01*
X45314524Y-49490811D02*
X45343095Y-49476525D01*
X45343095Y-49476525D02*
X45400238Y-49476525D01*
X45400238Y-49476525D02*
X45428810Y-49490811D01*
X45600238Y-49676525D02*
X45571667Y-49662240D01*
X45571667Y-49662240D02*
X45557381Y-49647954D01*
X45557381Y-49647954D02*
X45543095Y-49619382D01*
X45543095Y-49619382D02*
X45543095Y-49533668D01*
X45543095Y-49533668D02*
X45557381Y-49505097D01*
X45557381Y-49505097D02*
X45571667Y-49490811D01*
X45571667Y-49490811D02*
X45600238Y-49476525D01*
X45600238Y-49476525D02*
X45643095Y-49476525D01*
X45643095Y-49476525D02*
X45671667Y-49490811D01*
X45671667Y-49490811D02*
X45685953Y-49505097D01*
X45685953Y-49505097D02*
X45700238Y-49533668D01*
X45700238Y-49533668D02*
X45700238Y-49619382D01*
X45700238Y-49619382D02*
X45685953Y-49647954D01*
X45685953Y-49647954D02*
X45671667Y-49662240D01*
X45671667Y-49662240D02*
X45643095Y-49676525D01*
X45643095Y-49676525D02*
X45600238Y-49676525D01*
X45828810Y-49476525D02*
X45828810Y-49676525D01*
X45828810Y-49505097D02*
X45843096Y-49490811D01*
X45843096Y-49490811D02*
X45871667Y-49476525D01*
X45871667Y-49476525D02*
X45914524Y-49476525D01*
X45914524Y-49476525D02*
X45943096Y-49490811D01*
X45943096Y-49490811D02*
X45957382Y-49519382D01*
X45957382Y-49519382D02*
X45957382Y-49676525D01*
X46100239Y-49476525D02*
X46100239Y-49676525D01*
X46100239Y-49505097D02*
X46114525Y-49490811D01*
X46114525Y-49490811D02*
X46143096Y-49476525D01*
X46143096Y-49476525D02*
X46185953Y-49476525D01*
X46185953Y-49476525D02*
X46214525Y-49490811D01*
X46214525Y-49490811D02*
X46228811Y-49519382D01*
X46228811Y-49519382D02*
X46228811Y-49676525D01*
X46485954Y-49662240D02*
X46457382Y-49676525D01*
X46457382Y-49676525D02*
X46400240Y-49676525D01*
X46400240Y-49676525D02*
X46371668Y-49662240D01*
X46371668Y-49662240D02*
X46357382Y-49633668D01*
X46357382Y-49633668D02*
X46357382Y-49519382D01*
X46357382Y-49519382D02*
X46371668Y-49490811D01*
X46371668Y-49490811D02*
X46400240Y-49476525D01*
X46400240Y-49476525D02*
X46457382Y-49476525D01*
X46457382Y-49476525D02*
X46485954Y-49490811D01*
X46485954Y-49490811D02*
X46500240Y-49519382D01*
X46500240Y-49519382D02*
X46500240Y-49547954D01*
X46500240Y-49547954D02*
X46357382Y-49576525D01*
X46757383Y-49662240D02*
X46728811Y-49676525D01*
X46728811Y-49676525D02*
X46671668Y-49676525D01*
X46671668Y-49676525D02*
X46643097Y-49662240D01*
X46643097Y-49662240D02*
X46628811Y-49647954D01*
X46628811Y-49647954D02*
X46614525Y-49619382D01*
X46614525Y-49619382D02*
X46614525Y-49533668D01*
X46614525Y-49533668D02*
X46628811Y-49505097D01*
X46628811Y-49505097D02*
X46643097Y-49490811D01*
X46643097Y-49490811D02*
X46671668Y-49476525D01*
X46671668Y-49476525D02*
X46728811Y-49476525D01*
X46728811Y-49476525D02*
X46757383Y-49490811D01*
X46843097Y-49476525D02*
X46957383Y-49476525D01*
X46885954Y-49376525D02*
X46885954Y-49633668D01*
X46885954Y-49633668D02*
X46900240Y-49662240D01*
X46900240Y-49662240D02*
X46928811Y-49676525D01*
X46928811Y-49676525D02*
X46957383Y-49676525D01*
X47100240Y-49676525D02*
X47071669Y-49662240D01*
X47071669Y-49662240D02*
X47057383Y-49647954D01*
X47057383Y-49647954D02*
X47043097Y-49619382D01*
X47043097Y-49619382D02*
X47043097Y-49533668D01*
X47043097Y-49533668D02*
X47057383Y-49505097D01*
X47057383Y-49505097D02*
X47071669Y-49490811D01*
X47071669Y-49490811D02*
X47100240Y-49476525D01*
X47100240Y-49476525D02*
X47143097Y-49476525D01*
X47143097Y-49476525D02*
X47171669Y-49490811D01*
X47171669Y-49490811D02*
X47185955Y-49505097D01*
X47185955Y-49505097D02*
X47200240Y-49533668D01*
X47200240Y-49533668D02*
X47200240Y-49619382D01*
X47200240Y-49619382D02*
X47185955Y-49647954D01*
X47185955Y-49647954D02*
X47171669Y-49662240D01*
X47171669Y-49662240D02*
X47143097Y-49676525D01*
X47143097Y-49676525D02*
X47100240Y-49676525D01*
X47328812Y-49676525D02*
X47328812Y-49476525D01*
X47328812Y-49533668D02*
X47343098Y-49505097D01*
X47343098Y-49505097D02*
X47357384Y-49490811D01*
X47357384Y-49490811D02*
X47385955Y-49476525D01*
X47385955Y-49476525D02*
X47414526Y-49476525D01*
X47443098Y-49705097D02*
X47671669Y-49705097D01*
X47900240Y-49676525D02*
X47728811Y-49676525D01*
X47814526Y-49676525D02*
X47814526Y-49376525D01*
X47814526Y-49376525D02*
X47785954Y-49419382D01*
X47785954Y-49419382D02*
X47757383Y-49447954D01*
X47757383Y-49447954D02*
X47728811Y-49462240D01*
X48157383Y-49376525D02*
X48100240Y-49376525D01*
X48100240Y-49376525D02*
X48071668Y-49390811D01*
X48071668Y-49390811D02*
X48057383Y-49405097D01*
X48057383Y-49405097D02*
X48028811Y-49447954D01*
X48028811Y-49447954D02*
X48014525Y-49505097D01*
X48014525Y-49505097D02*
X48014525Y-49619382D01*
X48014525Y-49619382D02*
X48028811Y-49647954D01*
X48028811Y-49647954D02*
X48043097Y-49662240D01*
X48043097Y-49662240D02*
X48071668Y-49676525D01*
X48071668Y-49676525D02*
X48128811Y-49676525D01*
X48128811Y-49676525D02*
X48157383Y-49662240D01*
X48157383Y-49662240D02*
X48171668Y-49647954D01*
X48171668Y-49647954D02*
X48185954Y-49619382D01*
X48185954Y-49619382D02*
X48185954Y-49547954D01*
X48185954Y-49547954D02*
X48171668Y-49519382D01*
X48171668Y-49519382D02*
X48157383Y-49505097D01*
X48157383Y-49505097D02*
X48128811Y-49490811D01*
X48128811Y-49490811D02*
X48071668Y-49490811D01*
X48071668Y-49490811D02*
X48043097Y-49505097D01*
X48043097Y-49505097D02*
X48028811Y-49519382D01*
X48028811Y-49519382D02*
X48014525Y-49547954D01*
X48314525Y-49476525D02*
X48314525Y-49776525D01*
X48314525Y-49490811D02*
X48343097Y-49476525D01*
X48343097Y-49476525D02*
X48400239Y-49476525D01*
X48400239Y-49476525D02*
X48428811Y-49490811D01*
X48428811Y-49490811D02*
X48443097Y-49505097D01*
X48443097Y-49505097D02*
X48457382Y-49533668D01*
X48457382Y-49533668D02*
X48457382Y-49619382D01*
X48457382Y-49619382D02*
X48443097Y-49647954D01*
X48443097Y-49647954D02*
X48428811Y-49662240D01*
X48428811Y-49662240D02*
X48400239Y-49676525D01*
X48400239Y-49676525D02*
X48343097Y-49676525D01*
X48343097Y-49676525D02*
X48314525Y-49662240D01*
X48514526Y-49705097D02*
X48743097Y-49705097D01*
X48814525Y-49676525D02*
X48814525Y-49376525D01*
X48943097Y-49676525D02*
X48943097Y-49519382D01*
X48943097Y-49519382D02*
X48928811Y-49490811D01*
X48928811Y-49490811D02*
X48900239Y-49476525D01*
X48900239Y-49476525D02*
X48857382Y-49476525D01*
X48857382Y-49476525D02*
X48828811Y-49490811D01*
X48828811Y-49490811D02*
X48814525Y-49505097D01*
X49085954Y-49676525D02*
X49085954Y-49476525D01*
X49085954Y-49376525D02*
X49071668Y-49390811D01*
X49071668Y-49390811D02*
X49085954Y-49405097D01*
X49085954Y-49405097D02*
X49100240Y-49390811D01*
X49100240Y-49390811D02*
X49085954Y-49376525D01*
X49085954Y-49376525D02*
X49085954Y-49405097D01*
X49228811Y-49476525D02*
X49228811Y-49676525D01*
X49228811Y-49505097D02*
X49243097Y-49490811D01*
X49243097Y-49490811D02*
X49271668Y-49476525D01*
X49271668Y-49476525D02*
X49314525Y-49476525D01*
X49314525Y-49476525D02*
X49343097Y-49490811D01*
X49343097Y-49490811D02*
X49357383Y-49519382D01*
X49357383Y-49519382D02*
X49357383Y-49676525D01*
X49628812Y-49476525D02*
X49628812Y-49719382D01*
X49628812Y-49719382D02*
X49614526Y-49747954D01*
X49614526Y-49747954D02*
X49600240Y-49762240D01*
X49600240Y-49762240D02*
X49571669Y-49776525D01*
X49571669Y-49776525D02*
X49528812Y-49776525D01*
X49528812Y-49776525D02*
X49500240Y-49762240D01*
X49628812Y-49662240D02*
X49600240Y-49676525D01*
X49600240Y-49676525D02*
X49543097Y-49676525D01*
X49543097Y-49676525D02*
X49514526Y-49662240D01*
X49514526Y-49662240D02*
X49500240Y-49647954D01*
X49500240Y-49647954D02*
X49485954Y-49619382D01*
X49485954Y-49619382D02*
X49485954Y-49533668D01*
X49485954Y-49533668D02*
X49500240Y-49505097D01*
X49500240Y-49505097D02*
X49514526Y-49490811D01*
X49514526Y-49490811D02*
X49543097Y-49476525D01*
X49543097Y-49476525D02*
X49600240Y-49476525D01*
X49600240Y-49476525D02*
X49628812Y-49490811D01*
X49885955Y-49662240D02*
X49857383Y-49676525D01*
X49857383Y-49676525D02*
X49800241Y-49676525D01*
X49800241Y-49676525D02*
X49771669Y-49662240D01*
X49771669Y-49662240D02*
X49757383Y-49633668D01*
X49757383Y-49633668D02*
X49757383Y-49519382D01*
X49757383Y-49519382D02*
X49771669Y-49490811D01*
X49771669Y-49490811D02*
X49800241Y-49476525D01*
X49800241Y-49476525D02*
X49857383Y-49476525D01*
X49857383Y-49476525D02*
X49885955Y-49490811D01*
X49885955Y-49490811D02*
X49900241Y-49519382D01*
X49900241Y-49519382D02*
X49900241Y-49547954D01*
X49900241Y-49547954D02*
X49757383Y-49576525D01*
X49957384Y-49705097D02*
X50185955Y-49705097D01*
X50300240Y-49676525D02*
X50271669Y-49662240D01*
X50271669Y-49662240D02*
X50257383Y-49633668D01*
X50257383Y-49633668D02*
X50257383Y-49376525D01*
X50457383Y-49676525D02*
X50428812Y-49662240D01*
X50428812Y-49662240D02*
X50414526Y-49647954D01*
X50414526Y-49647954D02*
X50400240Y-49619382D01*
X50400240Y-49619382D02*
X50400240Y-49533668D01*
X50400240Y-49533668D02*
X50414526Y-49505097D01*
X50414526Y-49505097D02*
X50428812Y-49490811D01*
X50428812Y-49490811D02*
X50457383Y-49476525D01*
X50457383Y-49476525D02*
X50500240Y-49476525D01*
X50500240Y-49476525D02*
X50528812Y-49490811D01*
X50528812Y-49490811D02*
X50543098Y-49505097D01*
X50543098Y-49505097D02*
X50557383Y-49533668D01*
X50557383Y-49533668D02*
X50557383Y-49619382D01*
X50557383Y-49619382D02*
X50543098Y-49647954D01*
X50543098Y-49647954D02*
X50528812Y-49662240D01*
X50528812Y-49662240D02*
X50500240Y-49676525D01*
X50500240Y-49676525D02*
X50457383Y-49676525D01*
X50814527Y-49662240D02*
X50785955Y-49676525D01*
X50785955Y-49676525D02*
X50728812Y-49676525D01*
X50728812Y-49676525D02*
X50700241Y-49662240D01*
X50700241Y-49662240D02*
X50685955Y-49647954D01*
X50685955Y-49647954D02*
X50671669Y-49619382D01*
X50671669Y-49619382D02*
X50671669Y-49533668D01*
X50671669Y-49533668D02*
X50685955Y-49505097D01*
X50685955Y-49505097D02*
X50700241Y-49490811D01*
X50700241Y-49490811D02*
X50728812Y-49476525D01*
X50728812Y-49476525D02*
X50785955Y-49476525D01*
X50785955Y-49476525D02*
X50814527Y-49490811D01*
X50943098Y-49676525D02*
X50943098Y-49376525D01*
X50971670Y-49562240D02*
X51057384Y-49676525D01*
X51057384Y-49476525D02*
X50943098Y-49590811D01*
X14648572Y-31964885D02*
X14648572Y-32164885D01*
X14577143Y-31850600D02*
X14505714Y-32064885D01*
X14505714Y-32064885D02*
X14691429Y-32064885D01*
X14805714Y-32136314D02*
X14820000Y-32150600D01*
X14820000Y-32150600D02*
X14805714Y-32164885D01*
X14805714Y-32164885D02*
X14791428Y-32150600D01*
X14791428Y-32150600D02*
X14805714Y-32136314D01*
X14805714Y-32136314D02*
X14805714Y-32164885D01*
X14920000Y-31864885D02*
X15120000Y-31864885D01*
X15120000Y-31864885D02*
X14991428Y-32164885D01*
X15362857Y-31964885D02*
X15362857Y-32164885D01*
X15234285Y-31964885D02*
X15234285Y-32122028D01*
X15234285Y-32122028D02*
X15248571Y-32150600D01*
X15248571Y-32150600D02*
X15277142Y-32164885D01*
X15277142Y-32164885D02*
X15319999Y-32164885D01*
X15319999Y-32164885D02*
X15348571Y-32150600D01*
X15348571Y-32150600D02*
X15362857Y-32136314D01*
X15605714Y-32007742D02*
X15505714Y-32007742D01*
X15505714Y-32164885D02*
X15505714Y-31864885D01*
X15505714Y-31864885D02*
X15648571Y-31864885D01*
X14804885Y-33309999D02*
X14504885Y-33309999D01*
X14504885Y-33309999D02*
X14719171Y-33209999D01*
X14719171Y-33209999D02*
X14504885Y-33109999D01*
X14504885Y-33109999D02*
X14804885Y-33109999D01*
X14647742Y-32967142D02*
X14647742Y-32867142D01*
X14804885Y-32824285D02*
X14804885Y-32967142D01*
X14804885Y-32967142D02*
X14504885Y-32967142D01*
X14504885Y-32967142D02*
X14504885Y-32824285D01*
X14504885Y-32567142D02*
X14504885Y-32624284D01*
X14504885Y-32624284D02*
X14519171Y-32652856D01*
X14519171Y-32652856D02*
X14533457Y-32667142D01*
X14533457Y-32667142D02*
X14576314Y-32695713D01*
X14576314Y-32695713D02*
X14633457Y-32709999D01*
X14633457Y-32709999D02*
X14747742Y-32709999D01*
X14747742Y-32709999D02*
X14776314Y-32695713D01*
X14776314Y-32695713D02*
X14790600Y-32681427D01*
X14790600Y-32681427D02*
X14804885Y-32652856D01*
X14804885Y-32652856D02*
X14804885Y-32595713D01*
X14804885Y-32595713D02*
X14790600Y-32567142D01*
X14790600Y-32567142D02*
X14776314Y-32552856D01*
X14776314Y-32552856D02*
X14747742Y-32538570D01*
X14747742Y-32538570D02*
X14676314Y-32538570D01*
X14676314Y-32538570D02*
X14647742Y-32552856D01*
X14647742Y-32552856D02*
X14633457Y-32567142D01*
X14633457Y-32567142D02*
X14619171Y-32595713D01*
X14619171Y-32595713D02*
X14619171Y-32652856D01*
X14619171Y-32652856D02*
X14633457Y-32681427D01*
X14633457Y-32681427D02*
X14647742Y-32695713D01*
X14647742Y-32695713D02*
X14676314Y-32709999D01*
X14533457Y-32424285D02*
X14519171Y-32409999D01*
X14519171Y-32409999D02*
X14504885Y-32381428D01*
X14504885Y-32381428D02*
X14504885Y-32309999D01*
X14504885Y-32309999D02*
X14519171Y-32281428D01*
X14519171Y-32281428D02*
X14533457Y-32267142D01*
X14533457Y-32267142D02*
X14562028Y-32252856D01*
X14562028Y-32252856D02*
X14590600Y-32252856D01*
X14590600Y-32252856D02*
X14633457Y-32267142D01*
X14633457Y-32267142D02*
X14804885Y-32438570D01*
X14804885Y-32438570D02*
X14804885Y-32252856D01*
X14804885Y-31967142D02*
X14804885Y-32138571D01*
X14804885Y-32052856D02*
X14504885Y-32052856D01*
X14504885Y-32052856D02*
X14547742Y-32081428D01*
X14547742Y-32081428D02*
X14576314Y-32109999D01*
X14576314Y-32109999D02*
X14590600Y-32138571D01*
X14804885Y-31681428D02*
X14804885Y-31852857D01*
X14804885Y-31767142D02*
X14504885Y-31767142D01*
X14504885Y-31767142D02*
X14547742Y-31795714D01*
X14547742Y-31795714D02*
X14576314Y-31824285D01*
X14576314Y-31824285D02*
X14590600Y-31852857D01*
X14776314Y-31381428D02*
X14790600Y-31395714D01*
X14790600Y-31395714D02*
X14804885Y-31438571D01*
X14804885Y-31438571D02*
X14804885Y-31467143D01*
X14804885Y-31467143D02*
X14790600Y-31510000D01*
X14790600Y-31510000D02*
X14762028Y-31538571D01*
X14762028Y-31538571D02*
X14733457Y-31552857D01*
X14733457Y-31552857D02*
X14676314Y-31567143D01*
X14676314Y-31567143D02*
X14633457Y-31567143D01*
X14633457Y-31567143D02*
X14576314Y-31552857D01*
X14576314Y-31552857D02*
X14547742Y-31538571D01*
X14547742Y-31538571D02*
X14519171Y-31510000D01*
X14519171Y-31510000D02*
X14504885Y-31467143D01*
X14504885Y-31467143D02*
X14504885Y-31438571D01*
X14504885Y-31438571D02*
X14519171Y-31395714D01*
X14519171Y-31395714D02*
X14533457Y-31381428D01*
X14504885Y-31281428D02*
X14504885Y-31095714D01*
X14504885Y-31095714D02*
X14619171Y-31195714D01*
X14619171Y-31195714D02*
X14619171Y-31152857D01*
X14619171Y-31152857D02*
X14633457Y-31124286D01*
X14633457Y-31124286D02*
X14647742Y-31110000D01*
X14647742Y-31110000D02*
X14676314Y-31095714D01*
X14676314Y-31095714D02*
X14747742Y-31095714D01*
X14747742Y-31095714D02*
X14776314Y-31110000D01*
X14776314Y-31110000D02*
X14790600Y-31124286D01*
X14790600Y-31124286D02*
X14804885Y-31152857D01*
X14804885Y-31152857D02*
X14804885Y-31238571D01*
X14804885Y-31238571D02*
X14790600Y-31267143D01*
X14790600Y-31267143D02*
X14776314Y-31281428D01*
X14504885Y-30995714D02*
X14504885Y-30810000D01*
X14504885Y-30810000D02*
X14619171Y-30910000D01*
X14619171Y-30910000D02*
X14619171Y-30867143D01*
X14619171Y-30867143D02*
X14633457Y-30838572D01*
X14633457Y-30838572D02*
X14647742Y-30824286D01*
X14647742Y-30824286D02*
X14676314Y-30810000D01*
X14676314Y-30810000D02*
X14747742Y-30810000D01*
X14747742Y-30810000D02*
X14776314Y-30824286D01*
X14776314Y-30824286D02*
X14790600Y-30838572D01*
X14790600Y-30838572D02*
X14804885Y-30867143D01*
X14804885Y-30867143D02*
X14804885Y-30952857D01*
X14804885Y-30952857D02*
X14790600Y-30981429D01*
X14790600Y-30981429D02*
X14776314Y-30995714D01*
X14804885Y-30681429D02*
X14504885Y-30681429D01*
X14504885Y-30681429D02*
X14719171Y-30581429D01*
X14719171Y-30581429D02*
X14504885Y-30481429D01*
X14504885Y-30481429D02*
X14804885Y-30481429D01*
X14504885Y-30195715D02*
X14504885Y-30338572D01*
X14504885Y-30338572D02*
X14647742Y-30352858D01*
X14647742Y-30352858D02*
X14633457Y-30338572D01*
X14633457Y-30338572D02*
X14619171Y-30310001D01*
X14619171Y-30310001D02*
X14619171Y-30238572D01*
X14619171Y-30238572D02*
X14633457Y-30210001D01*
X14633457Y-30210001D02*
X14647742Y-30195715D01*
X14647742Y-30195715D02*
X14676314Y-30181429D01*
X14676314Y-30181429D02*
X14747742Y-30181429D01*
X14747742Y-30181429D02*
X14776314Y-30195715D01*
X14776314Y-30195715D02*
X14790600Y-30210001D01*
X14790600Y-30210001D02*
X14804885Y-30238572D01*
X14804885Y-30238572D02*
X14804885Y-30310001D01*
X14804885Y-30310001D02*
X14790600Y-30338572D01*
X14790600Y-30338572D02*
X14776314Y-30352858D01*
X14519171Y-29895715D02*
X14504885Y-29924287D01*
X14504885Y-29924287D02*
X14504885Y-29967144D01*
X14504885Y-29967144D02*
X14519171Y-30010001D01*
X14519171Y-30010001D02*
X14547742Y-30038572D01*
X14547742Y-30038572D02*
X14576314Y-30052858D01*
X14576314Y-30052858D02*
X14633457Y-30067144D01*
X14633457Y-30067144D02*
X14676314Y-30067144D01*
X14676314Y-30067144D02*
X14733457Y-30052858D01*
X14733457Y-30052858D02*
X14762028Y-30038572D01*
X14762028Y-30038572D02*
X14790600Y-30010001D01*
X14790600Y-30010001D02*
X14804885Y-29967144D01*
X14804885Y-29967144D02*
X14804885Y-29938572D01*
X14804885Y-29938572D02*
X14790600Y-29895715D01*
X14790600Y-29895715D02*
X14776314Y-29881429D01*
X14776314Y-29881429D02*
X14676314Y-29881429D01*
X14676314Y-29881429D02*
X14676314Y-29938572D01*
X14690600Y-29752858D02*
X14690600Y-29524287D01*
X14804885Y-29381429D02*
X14504885Y-29381429D01*
X14504885Y-29381429D02*
X14804885Y-29210000D01*
X14804885Y-29210000D02*
X14504885Y-29210000D01*
X18132143Y-17179885D02*
X18332143Y-17179885D01*
X18332143Y-17179885D02*
X18203571Y-17479885D01*
X18589285Y-17179885D02*
X18446428Y-17179885D01*
X18446428Y-17179885D02*
X18432142Y-17322742D01*
X18432142Y-17322742D02*
X18446428Y-17308457D01*
X18446428Y-17308457D02*
X18475000Y-17294171D01*
X18475000Y-17294171D02*
X18546428Y-17294171D01*
X18546428Y-17294171D02*
X18575000Y-17308457D01*
X18575000Y-17308457D02*
X18589285Y-17322742D01*
X18589285Y-17322742D02*
X18603571Y-17351314D01*
X18603571Y-17351314D02*
X18603571Y-17422742D01*
X18603571Y-17422742D02*
X18589285Y-17451314D01*
X18589285Y-17451314D02*
X18575000Y-17465600D01*
X18575000Y-17465600D02*
X18546428Y-17479885D01*
X18546428Y-17479885D02*
X18475000Y-17479885D01*
X18475000Y-17479885D02*
X18446428Y-17465600D01*
X18446428Y-17465600D02*
X18432142Y-17451314D01*
X18903571Y-17479885D02*
X18803571Y-17337028D01*
X18732142Y-17479885D02*
X18732142Y-17179885D01*
X18732142Y-17179885D02*
X18846428Y-17179885D01*
X18846428Y-17179885D02*
X18874999Y-17194171D01*
X18874999Y-17194171D02*
X18889285Y-17208457D01*
X18889285Y-17208457D02*
X18903571Y-17237028D01*
X18903571Y-17237028D02*
X18903571Y-17279885D01*
X18903571Y-17279885D02*
X18889285Y-17308457D01*
X18889285Y-17308457D02*
X18874999Y-17322742D01*
X18874999Y-17322742D02*
X18846428Y-17337028D01*
X18846428Y-17337028D02*
X18732142Y-17337028D01*
X4656901Y-33436102D02*
X4556901Y-33436102D01*
X4556901Y-33593245D02*
X4556901Y-33293245D01*
X4556901Y-33293245D02*
X4699758Y-33293245D01*
X4914044Y-33436102D02*
X4814044Y-33436102D01*
X4814044Y-33593245D02*
X4814044Y-33293245D01*
X4814044Y-33293245D02*
X4956901Y-33293245D01*
X5242616Y-33564674D02*
X5228330Y-33578960D01*
X5228330Y-33578960D02*
X5185473Y-33593245D01*
X5185473Y-33593245D02*
X5156901Y-33593245D01*
X5156901Y-33593245D02*
X5114044Y-33578960D01*
X5114044Y-33578960D02*
X5085473Y-33550388D01*
X5085473Y-33550388D02*
X5071187Y-33521817D01*
X5071187Y-33521817D02*
X5056901Y-33464674D01*
X5056901Y-33464674D02*
X5056901Y-33421817D01*
X5056901Y-33421817D02*
X5071187Y-33364674D01*
X5071187Y-33364674D02*
X5085473Y-33336102D01*
X5085473Y-33336102D02*
X5114044Y-33307531D01*
X5114044Y-33307531D02*
X5156901Y-33293245D01*
X5156901Y-33293245D02*
X5185473Y-33293245D01*
X5185473Y-33293245D02*
X5228330Y-33307531D01*
X5228330Y-33307531D02*
X5242616Y-33321817D01*
X5299759Y-33621817D02*
X5528330Y-33621817D01*
X5728330Y-33578960D02*
X5699758Y-33593245D01*
X5699758Y-33593245D02*
X5642615Y-33593245D01*
X5642615Y-33593245D02*
X5614044Y-33578960D01*
X5614044Y-33578960D02*
X5599758Y-33564674D01*
X5599758Y-33564674D02*
X5585472Y-33536102D01*
X5585472Y-33536102D02*
X5585472Y-33450388D01*
X5585472Y-33450388D02*
X5599758Y-33421817D01*
X5599758Y-33421817D02*
X5614044Y-33407531D01*
X5614044Y-33407531D02*
X5642615Y-33393245D01*
X5642615Y-33393245D02*
X5699758Y-33393245D01*
X5699758Y-33393245D02*
X5728330Y-33407531D01*
X5899758Y-33593245D02*
X5871187Y-33578960D01*
X5871187Y-33578960D02*
X5856901Y-33564674D01*
X5856901Y-33564674D02*
X5842615Y-33536102D01*
X5842615Y-33536102D02*
X5842615Y-33450388D01*
X5842615Y-33450388D02*
X5856901Y-33421817D01*
X5856901Y-33421817D02*
X5871187Y-33407531D01*
X5871187Y-33407531D02*
X5899758Y-33393245D01*
X5899758Y-33393245D02*
X5942615Y-33393245D01*
X5942615Y-33393245D02*
X5971187Y-33407531D01*
X5971187Y-33407531D02*
X5985473Y-33421817D01*
X5985473Y-33421817D02*
X5999758Y-33450388D01*
X5999758Y-33450388D02*
X5999758Y-33536102D01*
X5999758Y-33536102D02*
X5985473Y-33564674D01*
X5985473Y-33564674D02*
X5971187Y-33578960D01*
X5971187Y-33578960D02*
X5942615Y-33593245D01*
X5942615Y-33593245D02*
X5899758Y-33593245D01*
X6128330Y-33393245D02*
X6128330Y-33593245D01*
X6128330Y-33421817D02*
X6142616Y-33407531D01*
X6142616Y-33407531D02*
X6171187Y-33393245D01*
X6171187Y-33393245D02*
X6214044Y-33393245D01*
X6214044Y-33393245D02*
X6242616Y-33407531D01*
X6242616Y-33407531D02*
X6256902Y-33436102D01*
X6256902Y-33436102D02*
X6256902Y-33593245D01*
X6399759Y-33393245D02*
X6399759Y-33593245D01*
X6399759Y-33421817D02*
X6414045Y-33407531D01*
X6414045Y-33407531D02*
X6442616Y-33393245D01*
X6442616Y-33393245D02*
X6485473Y-33393245D01*
X6485473Y-33393245D02*
X6514045Y-33407531D01*
X6514045Y-33407531D02*
X6528331Y-33436102D01*
X6528331Y-33436102D02*
X6528331Y-33593245D01*
X6785474Y-33578960D02*
X6756902Y-33593245D01*
X6756902Y-33593245D02*
X6699760Y-33593245D01*
X6699760Y-33593245D02*
X6671188Y-33578960D01*
X6671188Y-33578960D02*
X6656902Y-33550388D01*
X6656902Y-33550388D02*
X6656902Y-33436102D01*
X6656902Y-33436102D02*
X6671188Y-33407531D01*
X6671188Y-33407531D02*
X6699760Y-33393245D01*
X6699760Y-33393245D02*
X6756902Y-33393245D01*
X6756902Y-33393245D02*
X6785474Y-33407531D01*
X6785474Y-33407531D02*
X6799760Y-33436102D01*
X6799760Y-33436102D02*
X6799760Y-33464674D01*
X6799760Y-33464674D02*
X6656902Y-33493245D01*
X7056903Y-33578960D02*
X7028331Y-33593245D01*
X7028331Y-33593245D02*
X6971188Y-33593245D01*
X6971188Y-33593245D02*
X6942617Y-33578960D01*
X6942617Y-33578960D02*
X6928331Y-33564674D01*
X6928331Y-33564674D02*
X6914045Y-33536102D01*
X6914045Y-33536102D02*
X6914045Y-33450388D01*
X6914045Y-33450388D02*
X6928331Y-33421817D01*
X6928331Y-33421817D02*
X6942617Y-33407531D01*
X6942617Y-33407531D02*
X6971188Y-33393245D01*
X6971188Y-33393245D02*
X7028331Y-33393245D01*
X7028331Y-33393245D02*
X7056903Y-33407531D01*
X7142617Y-33393245D02*
X7256903Y-33393245D01*
X7185474Y-33293245D02*
X7185474Y-33550388D01*
X7185474Y-33550388D02*
X7199760Y-33578960D01*
X7199760Y-33578960D02*
X7228331Y-33593245D01*
X7228331Y-33593245D02*
X7256903Y-33593245D01*
X7399760Y-33593245D02*
X7371189Y-33578960D01*
X7371189Y-33578960D02*
X7356903Y-33564674D01*
X7356903Y-33564674D02*
X7342617Y-33536102D01*
X7342617Y-33536102D02*
X7342617Y-33450388D01*
X7342617Y-33450388D02*
X7356903Y-33421817D01*
X7356903Y-33421817D02*
X7371189Y-33407531D01*
X7371189Y-33407531D02*
X7399760Y-33393245D01*
X7399760Y-33393245D02*
X7442617Y-33393245D01*
X7442617Y-33393245D02*
X7471189Y-33407531D01*
X7471189Y-33407531D02*
X7485475Y-33421817D01*
X7485475Y-33421817D02*
X7499760Y-33450388D01*
X7499760Y-33450388D02*
X7499760Y-33536102D01*
X7499760Y-33536102D02*
X7485475Y-33564674D01*
X7485475Y-33564674D02*
X7471189Y-33578960D01*
X7471189Y-33578960D02*
X7442617Y-33593245D01*
X7442617Y-33593245D02*
X7399760Y-33593245D01*
X7628332Y-33593245D02*
X7628332Y-33393245D01*
X7628332Y-33450388D02*
X7642618Y-33421817D01*
X7642618Y-33421817D02*
X7656904Y-33407531D01*
X7656904Y-33407531D02*
X7685475Y-33393245D01*
X7685475Y-33393245D02*
X7714046Y-33393245D01*
X7742618Y-33621817D02*
X7971189Y-33621817D01*
X8199760Y-33593245D02*
X8028331Y-33593245D01*
X8114046Y-33593245D02*
X8114046Y-33293245D01*
X8114046Y-33293245D02*
X8085474Y-33336102D01*
X8085474Y-33336102D02*
X8056903Y-33364674D01*
X8056903Y-33364674D02*
X8028331Y-33378960D01*
X8456903Y-33293245D02*
X8399760Y-33293245D01*
X8399760Y-33293245D02*
X8371188Y-33307531D01*
X8371188Y-33307531D02*
X8356903Y-33321817D01*
X8356903Y-33321817D02*
X8328331Y-33364674D01*
X8328331Y-33364674D02*
X8314045Y-33421817D01*
X8314045Y-33421817D02*
X8314045Y-33536102D01*
X8314045Y-33536102D02*
X8328331Y-33564674D01*
X8328331Y-33564674D02*
X8342617Y-33578960D01*
X8342617Y-33578960D02*
X8371188Y-33593245D01*
X8371188Y-33593245D02*
X8428331Y-33593245D01*
X8428331Y-33593245D02*
X8456903Y-33578960D01*
X8456903Y-33578960D02*
X8471188Y-33564674D01*
X8471188Y-33564674D02*
X8485474Y-33536102D01*
X8485474Y-33536102D02*
X8485474Y-33464674D01*
X8485474Y-33464674D02*
X8471188Y-33436102D01*
X8471188Y-33436102D02*
X8456903Y-33421817D01*
X8456903Y-33421817D02*
X8428331Y-33407531D01*
X8428331Y-33407531D02*
X8371188Y-33407531D01*
X8371188Y-33407531D02*
X8342617Y-33421817D01*
X8342617Y-33421817D02*
X8328331Y-33436102D01*
X8328331Y-33436102D02*
X8314045Y-33464674D01*
X8614045Y-33393245D02*
X8614045Y-33693245D01*
X8614045Y-33407531D02*
X8642617Y-33393245D01*
X8642617Y-33393245D02*
X8699759Y-33393245D01*
X8699759Y-33393245D02*
X8728331Y-33407531D01*
X8728331Y-33407531D02*
X8742617Y-33421817D01*
X8742617Y-33421817D02*
X8756902Y-33450388D01*
X8756902Y-33450388D02*
X8756902Y-33536102D01*
X8756902Y-33536102D02*
X8742617Y-33564674D01*
X8742617Y-33564674D02*
X8728331Y-33578960D01*
X8728331Y-33578960D02*
X8699759Y-33593245D01*
X8699759Y-33593245D02*
X8642617Y-33593245D01*
X8642617Y-33593245D02*
X8614045Y-33578960D01*
X8814046Y-33621817D02*
X9042617Y-33621817D01*
X9114045Y-33593245D02*
X9114045Y-33293245D01*
X9242617Y-33593245D02*
X9242617Y-33436102D01*
X9242617Y-33436102D02*
X9228331Y-33407531D01*
X9228331Y-33407531D02*
X9199759Y-33393245D01*
X9199759Y-33393245D02*
X9156902Y-33393245D01*
X9156902Y-33393245D02*
X9128331Y-33407531D01*
X9128331Y-33407531D02*
X9114045Y-33421817D01*
X9385474Y-33593245D02*
X9385474Y-33393245D01*
X9385474Y-33293245D02*
X9371188Y-33307531D01*
X9371188Y-33307531D02*
X9385474Y-33321817D01*
X9385474Y-33321817D02*
X9399760Y-33307531D01*
X9399760Y-33307531D02*
X9385474Y-33293245D01*
X9385474Y-33293245D02*
X9385474Y-33321817D01*
X9528331Y-33393245D02*
X9528331Y-33593245D01*
X9528331Y-33421817D02*
X9542617Y-33407531D01*
X9542617Y-33407531D02*
X9571188Y-33393245D01*
X9571188Y-33393245D02*
X9614045Y-33393245D01*
X9614045Y-33393245D02*
X9642617Y-33407531D01*
X9642617Y-33407531D02*
X9656903Y-33436102D01*
X9656903Y-33436102D02*
X9656903Y-33593245D01*
X9928332Y-33393245D02*
X9928332Y-33636102D01*
X9928332Y-33636102D02*
X9914046Y-33664674D01*
X9914046Y-33664674D02*
X9899760Y-33678960D01*
X9899760Y-33678960D02*
X9871189Y-33693245D01*
X9871189Y-33693245D02*
X9828332Y-33693245D01*
X9828332Y-33693245D02*
X9799760Y-33678960D01*
X9928332Y-33578960D02*
X9899760Y-33593245D01*
X9899760Y-33593245D02*
X9842617Y-33593245D01*
X9842617Y-33593245D02*
X9814046Y-33578960D01*
X9814046Y-33578960D02*
X9799760Y-33564674D01*
X9799760Y-33564674D02*
X9785474Y-33536102D01*
X9785474Y-33536102D02*
X9785474Y-33450388D01*
X9785474Y-33450388D02*
X9799760Y-33421817D01*
X9799760Y-33421817D02*
X9814046Y-33407531D01*
X9814046Y-33407531D02*
X9842617Y-33393245D01*
X9842617Y-33393245D02*
X9899760Y-33393245D01*
X9899760Y-33393245D02*
X9928332Y-33407531D01*
X10185475Y-33578960D02*
X10156903Y-33593245D01*
X10156903Y-33593245D02*
X10099761Y-33593245D01*
X10099761Y-33593245D02*
X10071189Y-33578960D01*
X10071189Y-33578960D02*
X10056903Y-33550388D01*
X10056903Y-33550388D02*
X10056903Y-33436102D01*
X10056903Y-33436102D02*
X10071189Y-33407531D01*
X10071189Y-33407531D02*
X10099761Y-33393245D01*
X10099761Y-33393245D02*
X10156903Y-33393245D01*
X10156903Y-33393245D02*
X10185475Y-33407531D01*
X10185475Y-33407531D02*
X10199761Y-33436102D01*
X10199761Y-33436102D02*
X10199761Y-33464674D01*
X10199761Y-33464674D02*
X10056903Y-33493245D01*
X10256904Y-33621817D02*
X10485475Y-33621817D01*
X10599760Y-33593245D02*
X10571189Y-33578960D01*
X10571189Y-33578960D02*
X10556903Y-33550388D01*
X10556903Y-33550388D02*
X10556903Y-33293245D01*
X10756903Y-33593245D02*
X10728332Y-33578960D01*
X10728332Y-33578960D02*
X10714046Y-33564674D01*
X10714046Y-33564674D02*
X10699760Y-33536102D01*
X10699760Y-33536102D02*
X10699760Y-33450388D01*
X10699760Y-33450388D02*
X10714046Y-33421817D01*
X10714046Y-33421817D02*
X10728332Y-33407531D01*
X10728332Y-33407531D02*
X10756903Y-33393245D01*
X10756903Y-33393245D02*
X10799760Y-33393245D01*
X10799760Y-33393245D02*
X10828332Y-33407531D01*
X10828332Y-33407531D02*
X10842618Y-33421817D01*
X10842618Y-33421817D02*
X10856903Y-33450388D01*
X10856903Y-33450388D02*
X10856903Y-33536102D01*
X10856903Y-33536102D02*
X10842618Y-33564674D01*
X10842618Y-33564674D02*
X10828332Y-33578960D01*
X10828332Y-33578960D02*
X10799760Y-33593245D01*
X10799760Y-33593245D02*
X10756903Y-33593245D01*
X11114047Y-33578960D02*
X11085475Y-33593245D01*
X11085475Y-33593245D02*
X11028332Y-33593245D01*
X11028332Y-33593245D02*
X10999761Y-33578960D01*
X10999761Y-33578960D02*
X10985475Y-33564674D01*
X10985475Y-33564674D02*
X10971189Y-33536102D01*
X10971189Y-33536102D02*
X10971189Y-33450388D01*
X10971189Y-33450388D02*
X10985475Y-33421817D01*
X10985475Y-33421817D02*
X10999761Y-33407531D01*
X10999761Y-33407531D02*
X11028332Y-33393245D01*
X11028332Y-33393245D02*
X11085475Y-33393245D01*
X11085475Y-33393245D02*
X11114047Y-33407531D01*
X11242618Y-33593245D02*
X11242618Y-33293245D01*
X11271190Y-33478960D02*
X11356904Y-33593245D01*
X11356904Y-33393245D02*
X11242618Y-33507531D01*
D11*
X13040000Y-19697200D02*
X13182857Y-19744819D01*
X13182857Y-19744819D02*
X13420952Y-19744819D01*
X13420952Y-19744819D02*
X13516190Y-19697200D01*
X13516190Y-19697200D02*
X13563809Y-19649580D01*
X13563809Y-19649580D02*
X13611428Y-19554342D01*
X13611428Y-19554342D02*
X13611428Y-19459104D01*
X13611428Y-19459104D02*
X13563809Y-19363866D01*
X13563809Y-19363866D02*
X13516190Y-19316247D01*
X13516190Y-19316247D02*
X13420952Y-19268628D01*
X13420952Y-19268628D02*
X13230476Y-19221009D01*
X13230476Y-19221009D02*
X13135238Y-19173390D01*
X13135238Y-19173390D02*
X13087619Y-19125771D01*
X13087619Y-19125771D02*
X13040000Y-19030533D01*
X13040000Y-19030533D02*
X13040000Y-18935295D01*
X13040000Y-18935295D02*
X13087619Y-18840057D01*
X13087619Y-18840057D02*
X13135238Y-18792438D01*
X13135238Y-18792438D02*
X13230476Y-18744819D01*
X13230476Y-18744819D02*
X13468571Y-18744819D01*
X13468571Y-18744819D02*
X13611428Y-18792438D01*
X13897143Y-18744819D02*
X14468571Y-18744819D01*
X14182857Y-19744819D02*
X14182857Y-18744819D01*
X14801905Y-19744819D02*
X14801905Y-18744819D01*
X14801905Y-18744819D02*
X15135238Y-19459104D01*
X15135238Y-19459104D02*
X15468571Y-18744819D01*
X15468571Y-18744819D02*
X15468571Y-19744819D01*
X15849524Y-18744819D02*
X16468571Y-18744819D01*
X16468571Y-18744819D02*
X16135238Y-19125771D01*
X16135238Y-19125771D02*
X16278095Y-19125771D01*
X16278095Y-19125771D02*
X16373333Y-19173390D01*
X16373333Y-19173390D02*
X16420952Y-19221009D01*
X16420952Y-19221009D02*
X16468571Y-19316247D01*
X16468571Y-19316247D02*
X16468571Y-19554342D01*
X16468571Y-19554342D02*
X16420952Y-19649580D01*
X16420952Y-19649580D02*
X16373333Y-19697200D01*
X16373333Y-19697200D02*
X16278095Y-19744819D01*
X16278095Y-19744819D02*
X15992381Y-19744819D01*
X15992381Y-19744819D02*
X15897143Y-19697200D01*
X15897143Y-19697200D02*
X15849524Y-19649580D01*
X16849524Y-18840057D02*
X16897143Y-18792438D01*
X16897143Y-18792438D02*
X16992381Y-18744819D01*
X16992381Y-18744819D02*
X17230476Y-18744819D01*
X17230476Y-18744819D02*
X17325714Y-18792438D01*
X17325714Y-18792438D02*
X17373333Y-18840057D01*
X17373333Y-18840057D02*
X17420952Y-18935295D01*
X17420952Y-18935295D02*
X17420952Y-19030533D01*
X17420952Y-19030533D02*
X17373333Y-19173390D01*
X17373333Y-19173390D02*
X16801905Y-19744819D01*
X16801905Y-19744819D02*
X17420952Y-19744819D01*
X18373333Y-18792438D02*
X18278095Y-18744819D01*
X18278095Y-18744819D02*
X18135238Y-18744819D01*
X18135238Y-18744819D02*
X17992381Y-18792438D01*
X17992381Y-18792438D02*
X17897143Y-18887676D01*
X17897143Y-18887676D02*
X17849524Y-18982914D01*
X17849524Y-18982914D02*
X17801905Y-19173390D01*
X17801905Y-19173390D02*
X17801905Y-19316247D01*
X17801905Y-19316247D02*
X17849524Y-19506723D01*
X17849524Y-19506723D02*
X17897143Y-19601961D01*
X17897143Y-19601961D02*
X17992381Y-19697200D01*
X17992381Y-19697200D02*
X18135238Y-19744819D01*
X18135238Y-19744819D02*
X18230476Y-19744819D01*
X18230476Y-19744819D02*
X18373333Y-19697200D01*
X18373333Y-19697200D02*
X18420952Y-19649580D01*
X18420952Y-19649580D02*
X18420952Y-19316247D01*
X18420952Y-19316247D02*
X18230476Y-19316247D01*
X19040000Y-18744819D02*
X19135238Y-18744819D01*
X19135238Y-18744819D02*
X19230476Y-18792438D01*
X19230476Y-18792438D02*
X19278095Y-18840057D01*
X19278095Y-18840057D02*
X19325714Y-18935295D01*
X19325714Y-18935295D02*
X19373333Y-19125771D01*
X19373333Y-19125771D02*
X19373333Y-19363866D01*
X19373333Y-19363866D02*
X19325714Y-19554342D01*
X19325714Y-19554342D02*
X19278095Y-19649580D01*
X19278095Y-19649580D02*
X19230476Y-19697200D01*
X19230476Y-19697200D02*
X19135238Y-19744819D01*
X19135238Y-19744819D02*
X19040000Y-19744819D01*
X19040000Y-19744819D02*
X18944762Y-19697200D01*
X18944762Y-19697200D02*
X18897143Y-19649580D01*
X18897143Y-19649580D02*
X18849524Y-19554342D01*
X18849524Y-19554342D02*
X18801905Y-19363866D01*
X18801905Y-19363866D02*
X18801905Y-19125771D01*
X18801905Y-19125771D02*
X18849524Y-18935295D01*
X18849524Y-18935295D02*
X18897143Y-18840057D01*
X18897143Y-18840057D02*
X18944762Y-18792438D01*
X18944762Y-18792438D02*
X19040000Y-18744819D01*
X19706667Y-18744819D02*
X20325714Y-18744819D01*
X20325714Y-18744819D02*
X19992381Y-19125771D01*
X19992381Y-19125771D02*
X20135238Y-19125771D01*
X20135238Y-19125771D02*
X20230476Y-19173390D01*
X20230476Y-19173390D02*
X20278095Y-19221009D01*
X20278095Y-19221009D02*
X20325714Y-19316247D01*
X20325714Y-19316247D02*
X20325714Y-19554342D01*
X20325714Y-19554342D02*
X20278095Y-19649580D01*
X20278095Y-19649580D02*
X20230476Y-19697200D01*
X20230476Y-19697200D02*
X20135238Y-19744819D01*
X20135238Y-19744819D02*
X19849524Y-19744819D01*
X19849524Y-19744819D02*
X19754286Y-19697200D01*
X19754286Y-19697200D02*
X19706667Y-19649580D01*
X20944762Y-18744819D02*
X21040000Y-18744819D01*
X21040000Y-18744819D02*
X21135238Y-18792438D01*
X21135238Y-18792438D02*
X21182857Y-18840057D01*
X21182857Y-18840057D02*
X21230476Y-18935295D01*
X21230476Y-18935295D02*
X21278095Y-19125771D01*
X21278095Y-19125771D02*
X21278095Y-19363866D01*
X21278095Y-19363866D02*
X21230476Y-19554342D01*
X21230476Y-19554342D02*
X21182857Y-19649580D01*
X21182857Y-19649580D02*
X21135238Y-19697200D01*
X21135238Y-19697200D02*
X21040000Y-19744819D01*
X21040000Y-19744819D02*
X20944762Y-19744819D01*
X20944762Y-19744819D02*
X20849524Y-19697200D01*
X20849524Y-19697200D02*
X20801905Y-19649580D01*
X20801905Y-19649580D02*
X20754286Y-19554342D01*
X20754286Y-19554342D02*
X20706667Y-19363866D01*
X20706667Y-19363866D02*
X20706667Y-19125771D01*
X20706667Y-19125771D02*
X20754286Y-18935295D01*
X20754286Y-18935295D02*
X20801905Y-18840057D01*
X20801905Y-18840057D02*
X20849524Y-18792438D01*
X20849524Y-18792438D02*
X20944762Y-18744819D01*
X22040000Y-19221009D02*
X21706667Y-19221009D01*
X21706667Y-19744819D02*
X21706667Y-18744819D01*
X21706667Y-18744819D02*
X22182857Y-18744819D01*
X22992381Y-18744819D02*
X22801905Y-18744819D01*
X22801905Y-18744819D02*
X22706667Y-18792438D01*
X22706667Y-18792438D02*
X22659048Y-18840057D01*
X22659048Y-18840057D02*
X22563810Y-18982914D01*
X22563810Y-18982914D02*
X22516191Y-19173390D01*
X22516191Y-19173390D02*
X22516191Y-19554342D01*
X22516191Y-19554342D02*
X22563810Y-19649580D01*
X22563810Y-19649580D02*
X22611429Y-19697200D01*
X22611429Y-19697200D02*
X22706667Y-19744819D01*
X22706667Y-19744819D02*
X22897143Y-19744819D01*
X22897143Y-19744819D02*
X22992381Y-19697200D01*
X22992381Y-19697200D02*
X23040000Y-19649580D01*
X23040000Y-19649580D02*
X23087619Y-19554342D01*
X23087619Y-19554342D02*
X23087619Y-19316247D01*
X23087619Y-19316247D02*
X23040000Y-19221009D01*
X23040000Y-19221009D02*
X22992381Y-19173390D01*
X22992381Y-19173390D02*
X22897143Y-19125771D01*
X22897143Y-19125771D02*
X22706667Y-19125771D01*
X22706667Y-19125771D02*
X22611429Y-19173390D01*
X22611429Y-19173390D02*
X22563810Y-19221009D01*
X22563810Y-19221009D02*
X22516191Y-19316247D01*
X23516191Y-19744819D02*
X23516191Y-18744819D01*
X23516191Y-18744819D02*
X23897143Y-18744819D01*
X23897143Y-18744819D02*
X23992381Y-18792438D01*
X23992381Y-18792438D02*
X24040000Y-18840057D01*
X24040000Y-18840057D02*
X24087619Y-18935295D01*
X24087619Y-18935295D02*
X24087619Y-19078152D01*
X24087619Y-19078152D02*
X24040000Y-19173390D01*
X24040000Y-19173390D02*
X23992381Y-19221009D01*
X23992381Y-19221009D02*
X23897143Y-19268628D01*
X23897143Y-19268628D02*
X23516191Y-19268628D01*
X24944762Y-18744819D02*
X24754286Y-18744819D01*
X24754286Y-18744819D02*
X24659048Y-18792438D01*
X24659048Y-18792438D02*
X24611429Y-18840057D01*
X24611429Y-18840057D02*
X24516191Y-18982914D01*
X24516191Y-18982914D02*
X24468572Y-19173390D01*
X24468572Y-19173390D02*
X24468572Y-19554342D01*
X24468572Y-19554342D02*
X24516191Y-19649580D01*
X24516191Y-19649580D02*
X24563810Y-19697200D01*
X24563810Y-19697200D02*
X24659048Y-19744819D01*
X24659048Y-19744819D02*
X24849524Y-19744819D01*
X24849524Y-19744819D02*
X24944762Y-19697200D01*
X24944762Y-19697200D02*
X24992381Y-19649580D01*
X24992381Y-19649580D02*
X25040000Y-19554342D01*
X25040000Y-19554342D02*
X25040000Y-19316247D01*
X25040000Y-19316247D02*
X24992381Y-19221009D01*
X24992381Y-19221009D02*
X24944762Y-19173390D01*
X24944762Y-19173390D02*
X24849524Y-19125771D01*
X24849524Y-19125771D02*
X24659048Y-19125771D01*
X24659048Y-19125771D02*
X24563810Y-19173390D01*
X24563810Y-19173390D02*
X24516191Y-19221009D01*
X24516191Y-19221009D02*
X24468572Y-19316247D01*
D10*
X20552143Y-17139885D02*
X20752143Y-17139885D01*
X20752143Y-17139885D02*
X20623571Y-17439885D01*
X21009285Y-17139885D02*
X20866428Y-17139885D01*
X20866428Y-17139885D02*
X20852142Y-17282742D01*
X20852142Y-17282742D02*
X20866428Y-17268457D01*
X20866428Y-17268457D02*
X20895000Y-17254171D01*
X20895000Y-17254171D02*
X20966428Y-17254171D01*
X20966428Y-17254171D02*
X20995000Y-17268457D01*
X20995000Y-17268457D02*
X21009285Y-17282742D01*
X21009285Y-17282742D02*
X21023571Y-17311314D01*
X21023571Y-17311314D02*
X21023571Y-17382742D01*
X21023571Y-17382742D02*
X21009285Y-17411314D01*
X21009285Y-17411314D02*
X20995000Y-17425600D01*
X20995000Y-17425600D02*
X20966428Y-17439885D01*
X20966428Y-17439885D02*
X20895000Y-17439885D01*
X20895000Y-17439885D02*
X20866428Y-17425600D01*
X20866428Y-17425600D02*
X20852142Y-17411314D01*
X21323571Y-17439885D02*
X21223571Y-17297028D01*
X21152142Y-17439885D02*
X21152142Y-17139885D01*
X21152142Y-17139885D02*
X21266428Y-17139885D01*
X21266428Y-17139885D02*
X21294999Y-17154171D01*
X21294999Y-17154171D02*
X21309285Y-17168457D01*
X21309285Y-17168457D02*
X21323571Y-17197028D01*
X21323571Y-17197028D02*
X21323571Y-17239885D01*
X21323571Y-17239885D02*
X21309285Y-17268457D01*
X21309285Y-17268457D02*
X21294999Y-17282742D01*
X21294999Y-17282742D02*
X21266428Y-17297028D01*
X21266428Y-17297028D02*
X21152142Y-17297028D01*
X13908572Y-23409885D02*
X13908572Y-23609885D01*
X13837143Y-23295600D02*
X13765714Y-23509885D01*
X13765714Y-23509885D02*
X13951429Y-23509885D01*
X14065714Y-23581314D02*
X14080000Y-23595600D01*
X14080000Y-23595600D02*
X14065714Y-23609885D01*
X14065714Y-23609885D02*
X14051428Y-23595600D01*
X14051428Y-23595600D02*
X14065714Y-23581314D01*
X14065714Y-23581314D02*
X14065714Y-23609885D01*
X14180000Y-23309885D02*
X14380000Y-23309885D01*
X14380000Y-23309885D02*
X14251428Y-23609885D01*
X14622857Y-23409885D02*
X14622857Y-23609885D01*
X14494285Y-23409885D02*
X14494285Y-23567028D01*
X14494285Y-23567028D02*
X14508571Y-23595600D01*
X14508571Y-23595600D02*
X14537142Y-23609885D01*
X14537142Y-23609885D02*
X14579999Y-23609885D01*
X14579999Y-23609885D02*
X14608571Y-23595600D01*
X14608571Y-23595600D02*
X14622857Y-23581314D01*
X14865714Y-23452742D02*
X14765714Y-23452742D01*
X14765714Y-23609885D02*
X14765714Y-23309885D01*
X14765714Y-23309885D02*
X14908571Y-23309885D01*
X19382143Y-17179885D02*
X19582143Y-17179885D01*
X19582143Y-17179885D02*
X19453571Y-17479885D01*
X19839285Y-17179885D02*
X19696428Y-17179885D01*
X19696428Y-17179885D02*
X19682142Y-17322742D01*
X19682142Y-17322742D02*
X19696428Y-17308457D01*
X19696428Y-17308457D02*
X19725000Y-17294171D01*
X19725000Y-17294171D02*
X19796428Y-17294171D01*
X19796428Y-17294171D02*
X19825000Y-17308457D01*
X19825000Y-17308457D02*
X19839285Y-17322742D01*
X19839285Y-17322742D02*
X19853571Y-17351314D01*
X19853571Y-17351314D02*
X19853571Y-17422742D01*
X19853571Y-17422742D02*
X19839285Y-17451314D01*
X19839285Y-17451314D02*
X19825000Y-17465600D01*
X19825000Y-17465600D02*
X19796428Y-17479885D01*
X19796428Y-17479885D02*
X19725000Y-17479885D01*
X19725000Y-17479885D02*
X19696428Y-17465600D01*
X19696428Y-17465600D02*
X19682142Y-17451314D01*
X20153571Y-17479885D02*
X20053571Y-17337028D01*
X19982142Y-17479885D02*
X19982142Y-17179885D01*
X19982142Y-17179885D02*
X20096428Y-17179885D01*
X20096428Y-17179885D02*
X20124999Y-17194171D01*
X20124999Y-17194171D02*
X20139285Y-17208457D01*
X20139285Y-17208457D02*
X20153571Y-17237028D01*
X20153571Y-17237028D02*
X20153571Y-17279885D01*
X20153571Y-17279885D02*
X20139285Y-17308457D01*
X20139285Y-17308457D02*
X20124999Y-17322742D01*
X20124999Y-17322742D02*
X20096428Y-17337028D01*
X20096428Y-17337028D02*
X19982142Y-17337028D01*
X13587143Y-16889885D02*
X13787143Y-16889885D01*
X13787143Y-16889885D02*
X13658571Y-17189885D01*
X14044285Y-16889885D02*
X13901428Y-16889885D01*
X13901428Y-16889885D02*
X13887142Y-17032742D01*
X13887142Y-17032742D02*
X13901428Y-17018457D01*
X13901428Y-17018457D02*
X13930000Y-17004171D01*
X13930000Y-17004171D02*
X14001428Y-17004171D01*
X14001428Y-17004171D02*
X14030000Y-17018457D01*
X14030000Y-17018457D02*
X14044285Y-17032742D01*
X14044285Y-17032742D02*
X14058571Y-17061314D01*
X14058571Y-17061314D02*
X14058571Y-17132742D01*
X14058571Y-17132742D02*
X14044285Y-17161314D01*
X14044285Y-17161314D02*
X14030000Y-17175600D01*
X14030000Y-17175600D02*
X14001428Y-17189885D01*
X14001428Y-17189885D02*
X13930000Y-17189885D01*
X13930000Y-17189885D02*
X13901428Y-17175600D01*
X13901428Y-17175600D02*
X13887142Y-17161314D01*
X14358571Y-17189885D02*
X14258571Y-17047028D01*
X14187142Y-17189885D02*
X14187142Y-16889885D01*
X14187142Y-16889885D02*
X14301428Y-16889885D01*
X14301428Y-16889885D02*
X14329999Y-16904171D01*
X14329999Y-16904171D02*
X14344285Y-16918457D01*
X14344285Y-16918457D02*
X14358571Y-16947028D01*
X14358571Y-16947028D02*
X14358571Y-16989885D01*
X14358571Y-16989885D02*
X14344285Y-17018457D01*
X14344285Y-17018457D02*
X14329999Y-17032742D01*
X14329999Y-17032742D02*
X14301428Y-17047028D01*
X14301428Y-17047028D02*
X14187142Y-17047028D01*
X25140000Y-27174885D02*
X25140000Y-26874885D01*
X25140000Y-26874885D02*
X25311429Y-27174885D01*
X25311429Y-27174885D02*
X25311429Y-26874885D01*
X25382858Y-27203457D02*
X25611429Y-27203457D01*
X25682857Y-27174885D02*
X25682857Y-26874885D01*
X25682857Y-26874885D02*
X25782857Y-27089171D01*
X25782857Y-27089171D02*
X25882857Y-26874885D01*
X25882857Y-26874885D02*
X25882857Y-27174885D01*
X26082857Y-26874885D02*
X26140000Y-26874885D01*
X26140000Y-26874885D02*
X26168571Y-26889171D01*
X26168571Y-26889171D02*
X26197143Y-26917742D01*
X26197143Y-26917742D02*
X26211428Y-26974885D01*
X26211428Y-26974885D02*
X26211428Y-27074885D01*
X26211428Y-27074885D02*
X26197143Y-27132028D01*
X26197143Y-27132028D02*
X26168571Y-27160600D01*
X26168571Y-27160600D02*
X26140000Y-27174885D01*
X26140000Y-27174885D02*
X26082857Y-27174885D01*
X26082857Y-27174885D02*
X26054286Y-27160600D01*
X26054286Y-27160600D02*
X26025714Y-27132028D01*
X26025714Y-27132028D02*
X26011428Y-27074885D01*
X26011428Y-27074885D02*
X26011428Y-26974885D01*
X26011428Y-26974885D02*
X26025714Y-26917742D01*
X26025714Y-26917742D02*
X26054286Y-26889171D01*
X26054286Y-26889171D02*
X26082857Y-26874885D01*
X26325714Y-27160600D02*
X26368572Y-27174885D01*
X26368572Y-27174885D02*
X26440000Y-27174885D01*
X26440000Y-27174885D02*
X26468572Y-27160600D01*
X26468572Y-27160600D02*
X26482857Y-27146314D01*
X26482857Y-27146314D02*
X26497143Y-27117742D01*
X26497143Y-27117742D02*
X26497143Y-27089171D01*
X26497143Y-27089171D02*
X26482857Y-27060600D01*
X26482857Y-27060600D02*
X26468572Y-27046314D01*
X26468572Y-27046314D02*
X26440000Y-27032028D01*
X26440000Y-27032028D02*
X26382857Y-27017742D01*
X26382857Y-27017742D02*
X26354286Y-27003457D01*
X26354286Y-27003457D02*
X26340000Y-26989171D01*
X26340000Y-26989171D02*
X26325714Y-26960600D01*
X26325714Y-26960600D02*
X26325714Y-26932028D01*
X26325714Y-26932028D02*
X26340000Y-26903457D01*
X26340000Y-26903457D02*
X26354286Y-26889171D01*
X26354286Y-26889171D02*
X26382857Y-26874885D01*
X26382857Y-26874885D02*
X26454286Y-26874885D01*
X26454286Y-26874885D02*
X26497143Y-26889171D01*
X26725714Y-27017742D02*
X26625714Y-27017742D01*
X26625714Y-27174885D02*
X26625714Y-26874885D01*
X26625714Y-26874885D02*
X26768571Y-26874885D01*
X26882857Y-27017742D02*
X26982857Y-27017742D01*
X27025714Y-27174885D02*
X26882857Y-27174885D01*
X26882857Y-27174885D02*
X26882857Y-26874885D01*
X26882857Y-26874885D02*
X27025714Y-26874885D01*
X27111429Y-26874885D02*
X27282858Y-26874885D01*
X27197143Y-27174885D02*
X27197143Y-26874885D01*
X13837143Y-23639885D02*
X13865714Y-23639885D01*
X13865714Y-23639885D02*
X13894286Y-23654171D01*
X13894286Y-23654171D02*
X13908572Y-23668457D01*
X13908572Y-23668457D02*
X13922857Y-23697028D01*
X13922857Y-23697028D02*
X13937143Y-23754171D01*
X13937143Y-23754171D02*
X13937143Y-23825600D01*
X13937143Y-23825600D02*
X13922857Y-23882742D01*
X13922857Y-23882742D02*
X13908572Y-23911314D01*
X13908572Y-23911314D02*
X13894286Y-23925600D01*
X13894286Y-23925600D02*
X13865714Y-23939885D01*
X13865714Y-23939885D02*
X13837143Y-23939885D01*
X13837143Y-23939885D02*
X13808572Y-23925600D01*
X13808572Y-23925600D02*
X13794286Y-23911314D01*
X13794286Y-23911314D02*
X13780000Y-23882742D01*
X13780000Y-23882742D02*
X13765714Y-23825600D01*
X13765714Y-23825600D02*
X13765714Y-23754171D01*
X13765714Y-23754171D02*
X13780000Y-23697028D01*
X13780000Y-23697028D02*
X13794286Y-23668457D01*
X13794286Y-23668457D02*
X13808572Y-23654171D01*
X13808572Y-23654171D02*
X13837143Y-23639885D01*
X14065714Y-23911314D02*
X14080000Y-23925600D01*
X14080000Y-23925600D02*
X14065714Y-23939885D01*
X14065714Y-23939885D02*
X14051428Y-23925600D01*
X14051428Y-23925600D02*
X14065714Y-23911314D01*
X14065714Y-23911314D02*
X14065714Y-23939885D01*
X14365714Y-23939885D02*
X14194285Y-23939885D01*
X14280000Y-23939885D02*
X14280000Y-23639885D01*
X14280000Y-23639885D02*
X14251428Y-23682742D01*
X14251428Y-23682742D02*
X14222857Y-23711314D01*
X14222857Y-23711314D02*
X14194285Y-23725600D01*
X14622857Y-23739885D02*
X14622857Y-23939885D01*
X14494285Y-23739885D02*
X14494285Y-23897028D01*
X14494285Y-23897028D02*
X14508571Y-23925600D01*
X14508571Y-23925600D02*
X14537142Y-23939885D01*
X14537142Y-23939885D02*
X14579999Y-23939885D01*
X14579999Y-23939885D02*
X14608571Y-23925600D01*
X14608571Y-23925600D02*
X14622857Y-23911314D01*
X14865714Y-23782742D02*
X14765714Y-23782742D01*
X14765714Y-23939885D02*
X14765714Y-23639885D01*
X14765714Y-23639885D02*
X14908571Y-23639885D01*
D11*
X38610476Y-3134819D02*
X38705714Y-3134819D01*
X38705714Y-3134819D02*
X38800952Y-3182438D01*
X38800952Y-3182438D02*
X38848571Y-3230057D01*
X38848571Y-3230057D02*
X38896190Y-3325295D01*
X38896190Y-3325295D02*
X38943809Y-3515771D01*
X38943809Y-3515771D02*
X38943809Y-3753866D01*
X38943809Y-3753866D02*
X38896190Y-3944342D01*
X38896190Y-3944342D02*
X38848571Y-4039580D01*
X38848571Y-4039580D02*
X38800952Y-4087200D01*
X38800952Y-4087200D02*
X38705714Y-4134819D01*
X38705714Y-4134819D02*
X38610476Y-4134819D01*
X38610476Y-4134819D02*
X38515238Y-4087200D01*
X38515238Y-4087200D02*
X38467619Y-4039580D01*
X38467619Y-4039580D02*
X38420000Y-3944342D01*
X38420000Y-3944342D02*
X38372381Y-3753866D01*
X38372381Y-3753866D02*
X38372381Y-3515771D01*
X38372381Y-3515771D02*
X38420000Y-3325295D01*
X38420000Y-3325295D02*
X38467619Y-3230057D01*
X38467619Y-3230057D02*
X38515238Y-3182438D01*
X38515238Y-3182438D02*
X38610476Y-3134819D01*
X39896190Y-4134819D02*
X39324762Y-4134819D01*
X39610476Y-4134819D02*
X39610476Y-3134819D01*
X39610476Y-3134819D02*
X39515238Y-3277676D01*
X39515238Y-3277676D02*
X39420000Y-3372914D01*
X39420000Y-3372914D02*
X39324762Y-3420533D01*
X40229524Y-4134819D02*
X40753333Y-3468152D01*
X40229524Y-3468152D02*
X40753333Y-4134819D01*
X41324762Y-3134819D02*
X41420000Y-3134819D01*
X41420000Y-3134819D02*
X41515238Y-3182438D01*
X41515238Y-3182438D02*
X41562857Y-3230057D01*
X41562857Y-3230057D02*
X41610476Y-3325295D01*
X41610476Y-3325295D02*
X41658095Y-3515771D01*
X41658095Y-3515771D02*
X41658095Y-3753866D01*
X41658095Y-3753866D02*
X41610476Y-3944342D01*
X41610476Y-3944342D02*
X41562857Y-4039580D01*
X41562857Y-4039580D02*
X41515238Y-4087200D01*
X41515238Y-4087200D02*
X41420000Y-4134819D01*
X41420000Y-4134819D02*
X41324762Y-4134819D01*
X41324762Y-4134819D02*
X41229524Y-4087200D01*
X41229524Y-4087200D02*
X41181905Y-4039580D01*
X41181905Y-4039580D02*
X41134286Y-3944342D01*
X41134286Y-3944342D02*
X41086667Y-3753866D01*
X41086667Y-3753866D02*
X41086667Y-3515771D01*
X41086667Y-3515771D02*
X41134286Y-3325295D01*
X41134286Y-3325295D02*
X41181905Y-3230057D01*
X41181905Y-3230057D02*
X41229524Y-3182438D01*
X41229524Y-3182438D02*
X41324762Y-3134819D01*
X42515238Y-3134819D02*
X42324762Y-3134819D01*
X42324762Y-3134819D02*
X42229524Y-3182438D01*
X42229524Y-3182438D02*
X42181905Y-3230057D01*
X42181905Y-3230057D02*
X42086667Y-3372914D01*
X42086667Y-3372914D02*
X42039048Y-3563390D01*
X42039048Y-3563390D02*
X42039048Y-3944342D01*
X42039048Y-3944342D02*
X42086667Y-4039580D01*
X42086667Y-4039580D02*
X42134286Y-4087200D01*
X42134286Y-4087200D02*
X42229524Y-4134819D01*
X42229524Y-4134819D02*
X42420000Y-4134819D01*
X42420000Y-4134819D02*
X42515238Y-4087200D01*
X42515238Y-4087200D02*
X42562857Y-4039580D01*
X42562857Y-4039580D02*
X42610476Y-3944342D01*
X42610476Y-3944342D02*
X42610476Y-3706247D01*
X42610476Y-3706247D02*
X42562857Y-3611009D01*
X42562857Y-3611009D02*
X42515238Y-3563390D01*
X42515238Y-3563390D02*
X42420000Y-3515771D01*
X42420000Y-3515771D02*
X42229524Y-3515771D01*
X42229524Y-3515771D02*
X42134286Y-3563390D01*
X42134286Y-3563390D02*
X42086667Y-3611009D01*
X42086667Y-3611009D02*
X42039048Y-3706247D01*
X42800953Y-4230057D02*
X43562857Y-4230057D01*
X43753334Y-3230057D02*
X43800953Y-3182438D01*
X43800953Y-3182438D02*
X43896191Y-3134819D01*
X43896191Y-3134819D02*
X44134286Y-3134819D01*
X44134286Y-3134819D02*
X44229524Y-3182438D01*
X44229524Y-3182438D02*
X44277143Y-3230057D01*
X44277143Y-3230057D02*
X44324762Y-3325295D01*
X44324762Y-3325295D02*
X44324762Y-3420533D01*
X44324762Y-3420533D02*
X44277143Y-3563390D01*
X44277143Y-3563390D02*
X43705715Y-4134819D01*
X43705715Y-4134819D02*
X44324762Y-4134819D01*
X44753334Y-4039580D02*
X44800953Y-4087200D01*
X44800953Y-4087200D02*
X44753334Y-4134819D01*
X44753334Y-4134819D02*
X44705715Y-4087200D01*
X44705715Y-4087200D02*
X44753334Y-4039580D01*
X44753334Y-4039580D02*
X44753334Y-4134819D01*
X45705714Y-3134819D02*
X45229524Y-3134819D01*
X45229524Y-3134819D02*
X45181905Y-3611009D01*
X45181905Y-3611009D02*
X45229524Y-3563390D01*
X45229524Y-3563390D02*
X45324762Y-3515771D01*
X45324762Y-3515771D02*
X45562857Y-3515771D01*
X45562857Y-3515771D02*
X45658095Y-3563390D01*
X45658095Y-3563390D02*
X45705714Y-3611009D01*
X45705714Y-3611009D02*
X45753333Y-3706247D01*
X45753333Y-3706247D02*
X45753333Y-3944342D01*
X45753333Y-3944342D02*
X45705714Y-4039580D01*
X45705714Y-4039580D02*
X45658095Y-4087200D01*
X45658095Y-4087200D02*
X45562857Y-4134819D01*
X45562857Y-4134819D02*
X45324762Y-4134819D01*
X45324762Y-4134819D02*
X45229524Y-4087200D01*
X45229524Y-4087200D02*
X45181905Y-4039580D01*
X46610476Y-3468152D02*
X46610476Y-4134819D01*
X46372381Y-3087200D02*
X46134286Y-3801485D01*
X46134286Y-3801485D02*
X46753333Y-3801485D01*
X47134286Y-4134819D02*
X47134286Y-3468152D01*
X47134286Y-3563390D02*
X47181905Y-3515771D01*
X47181905Y-3515771D02*
X47277143Y-3468152D01*
X47277143Y-3468152D02*
X47420000Y-3468152D01*
X47420000Y-3468152D02*
X47515238Y-3515771D01*
X47515238Y-3515771D02*
X47562857Y-3611009D01*
X47562857Y-3611009D02*
X47562857Y-4134819D01*
X47562857Y-3611009D02*
X47610476Y-3515771D01*
X47610476Y-3515771D02*
X47705714Y-3468152D01*
X47705714Y-3468152D02*
X47848571Y-3468152D01*
X47848571Y-3468152D02*
X47943810Y-3515771D01*
X47943810Y-3515771D02*
X47991429Y-3611009D01*
X47991429Y-3611009D02*
X47991429Y-4134819D01*
X48467619Y-4134819D02*
X48467619Y-3468152D01*
X48467619Y-3563390D02*
X48515238Y-3515771D01*
X48515238Y-3515771D02*
X48610476Y-3468152D01*
X48610476Y-3468152D02*
X48753333Y-3468152D01*
X48753333Y-3468152D02*
X48848571Y-3515771D01*
X48848571Y-3515771D02*
X48896190Y-3611009D01*
X48896190Y-3611009D02*
X48896190Y-4134819D01*
X48896190Y-3611009D02*
X48943809Y-3515771D01*
X48943809Y-3515771D02*
X49039047Y-3468152D01*
X49039047Y-3468152D02*
X49181904Y-3468152D01*
X49181904Y-3468152D02*
X49277143Y-3515771D01*
X49277143Y-3515771D02*
X49324762Y-3611009D01*
X49324762Y-3611009D02*
X49324762Y-4134819D01*
X49562857Y-4230057D02*
X50324761Y-4230057D01*
X50896190Y-3611009D02*
X50562857Y-3611009D01*
X50562857Y-4134819D02*
X50562857Y-3134819D01*
X50562857Y-3134819D02*
X51039047Y-3134819D01*
X51800952Y-4087200D02*
X51705714Y-4134819D01*
X51705714Y-4134819D02*
X51515238Y-4134819D01*
X51515238Y-4134819D02*
X51420000Y-4087200D01*
X51420000Y-4087200D02*
X51372381Y-3991961D01*
X51372381Y-3991961D02*
X51372381Y-3611009D01*
X51372381Y-3611009D02*
X51420000Y-3515771D01*
X51420000Y-3515771D02*
X51515238Y-3468152D01*
X51515238Y-3468152D02*
X51705714Y-3468152D01*
X51705714Y-3468152D02*
X51800952Y-3515771D01*
X51800952Y-3515771D02*
X51848571Y-3611009D01*
X51848571Y-3611009D02*
X51848571Y-3706247D01*
X51848571Y-3706247D02*
X51372381Y-3801485D01*
X52277143Y-4134819D02*
X52277143Y-3468152D01*
X52277143Y-3563390D02*
X52324762Y-3515771D01*
X52324762Y-3515771D02*
X52420000Y-3468152D01*
X52420000Y-3468152D02*
X52562857Y-3468152D01*
X52562857Y-3468152D02*
X52658095Y-3515771D01*
X52658095Y-3515771D02*
X52705714Y-3611009D01*
X52705714Y-3611009D02*
X52705714Y-4134819D01*
X52705714Y-3611009D02*
X52753333Y-3515771D01*
X52753333Y-3515771D02*
X52848571Y-3468152D01*
X52848571Y-3468152D02*
X52991428Y-3468152D01*
X52991428Y-3468152D02*
X53086667Y-3515771D01*
X53086667Y-3515771D02*
X53134286Y-3611009D01*
X53134286Y-3611009D02*
X53134286Y-4134819D01*
X54039047Y-4134819D02*
X54039047Y-3611009D01*
X54039047Y-3611009D02*
X53991428Y-3515771D01*
X53991428Y-3515771D02*
X53896190Y-3468152D01*
X53896190Y-3468152D02*
X53705714Y-3468152D01*
X53705714Y-3468152D02*
X53610476Y-3515771D01*
X54039047Y-4087200D02*
X53943809Y-4134819D01*
X53943809Y-4134819D02*
X53705714Y-4134819D01*
X53705714Y-4134819D02*
X53610476Y-4087200D01*
X53610476Y-4087200D02*
X53562857Y-3991961D01*
X53562857Y-3991961D02*
X53562857Y-3896723D01*
X53562857Y-3896723D02*
X53610476Y-3801485D01*
X53610476Y-3801485D02*
X53705714Y-3753866D01*
X53705714Y-3753866D02*
X53943809Y-3753866D01*
X53943809Y-3753866D02*
X54039047Y-3706247D01*
X54658095Y-4134819D02*
X54562857Y-4087200D01*
X54562857Y-4087200D02*
X54515238Y-3991961D01*
X54515238Y-3991961D02*
X54515238Y-3134819D01*
X55420000Y-4087200D02*
X55324762Y-4134819D01*
X55324762Y-4134819D02*
X55134286Y-4134819D01*
X55134286Y-4134819D02*
X55039048Y-4087200D01*
X55039048Y-4087200D02*
X54991429Y-3991961D01*
X54991429Y-3991961D02*
X54991429Y-3611009D01*
X54991429Y-3611009D02*
X55039048Y-3515771D01*
X55039048Y-3515771D02*
X55134286Y-3468152D01*
X55134286Y-3468152D02*
X55324762Y-3468152D01*
X55324762Y-3468152D02*
X55420000Y-3515771D01*
X55420000Y-3515771D02*
X55467619Y-3611009D01*
X55467619Y-3611009D02*
X55467619Y-3706247D01*
X55467619Y-3706247D02*
X54991429Y-3801485D01*
D10*
X30844885Y-30417142D02*
X30844885Y-30588571D01*
X30844885Y-30502856D02*
X30544885Y-30502856D01*
X30544885Y-30502856D02*
X30587742Y-30531428D01*
X30587742Y-30531428D02*
X30616314Y-30559999D01*
X30616314Y-30559999D02*
X30630600Y-30588571D01*
X30544885Y-30231428D02*
X30544885Y-30202857D01*
X30544885Y-30202857D02*
X30559171Y-30174285D01*
X30559171Y-30174285D02*
X30573457Y-30160000D01*
X30573457Y-30160000D02*
X30602028Y-30145714D01*
X30602028Y-30145714D02*
X30659171Y-30131428D01*
X30659171Y-30131428D02*
X30730600Y-30131428D01*
X30730600Y-30131428D02*
X30787742Y-30145714D01*
X30787742Y-30145714D02*
X30816314Y-30160000D01*
X30816314Y-30160000D02*
X30830600Y-30174285D01*
X30830600Y-30174285D02*
X30844885Y-30202857D01*
X30844885Y-30202857D02*
X30844885Y-30231428D01*
X30844885Y-30231428D02*
X30830600Y-30260000D01*
X30830600Y-30260000D02*
X30816314Y-30274285D01*
X30816314Y-30274285D02*
X30787742Y-30288571D01*
X30787742Y-30288571D02*
X30730600Y-30302857D01*
X30730600Y-30302857D02*
X30659171Y-30302857D01*
X30659171Y-30302857D02*
X30602028Y-30288571D01*
X30602028Y-30288571D02*
X30573457Y-30274285D01*
X30573457Y-30274285D02*
X30559171Y-30260000D01*
X30559171Y-30260000D02*
X30544885Y-30231428D01*
X30844885Y-29831428D02*
X30702028Y-29931428D01*
X30844885Y-30002857D02*
X30544885Y-30002857D01*
X30544885Y-30002857D02*
X30544885Y-29888571D01*
X30544885Y-29888571D02*
X30559171Y-29860000D01*
X30559171Y-29860000D02*
X30573457Y-29845714D01*
X30573457Y-29845714D02*
X30602028Y-29831428D01*
X30602028Y-29831428D02*
X30644885Y-29831428D01*
X30644885Y-29831428D02*
X30673457Y-29845714D01*
X30673457Y-29845714D02*
X30687742Y-29860000D01*
X30687742Y-29860000D02*
X30702028Y-29888571D01*
X30702028Y-29888571D02*
X30702028Y-30002857D01*
D11*
X1222857Y-20774819D02*
X1318095Y-20774819D01*
X1318095Y-20774819D02*
X1413333Y-20822438D01*
X1413333Y-20822438D02*
X1460952Y-20870057D01*
X1460952Y-20870057D02*
X1508571Y-20965295D01*
X1508571Y-20965295D02*
X1556190Y-21155771D01*
X1556190Y-21155771D02*
X1556190Y-21393866D01*
X1556190Y-21393866D02*
X1508571Y-21584342D01*
X1508571Y-21584342D02*
X1460952Y-21679580D01*
X1460952Y-21679580D02*
X1413333Y-21727200D01*
X1413333Y-21727200D02*
X1318095Y-21774819D01*
X1318095Y-21774819D02*
X1222857Y-21774819D01*
X1222857Y-21774819D02*
X1127619Y-21727200D01*
X1127619Y-21727200D02*
X1080000Y-21679580D01*
X1080000Y-21679580D02*
X1032381Y-21584342D01*
X1032381Y-21584342D02*
X984762Y-21393866D01*
X984762Y-21393866D02*
X984762Y-21155771D01*
X984762Y-21155771D02*
X1032381Y-20965295D01*
X1032381Y-20965295D02*
X1080000Y-20870057D01*
X1080000Y-20870057D02*
X1127619Y-20822438D01*
X1127619Y-20822438D02*
X1222857Y-20774819D01*
X2508571Y-21774819D02*
X1937143Y-21774819D01*
X2222857Y-21774819D02*
X2222857Y-20774819D01*
X2222857Y-20774819D02*
X2127619Y-20917676D01*
X2127619Y-20917676D02*
X2032381Y-21012914D01*
X2032381Y-21012914D02*
X1937143Y-21060533D01*
X2841905Y-21774819D02*
X3365714Y-21108152D01*
X2841905Y-21108152D02*
X3365714Y-21774819D01*
X3937143Y-20774819D02*
X4032381Y-20774819D01*
X4032381Y-20774819D02*
X4127619Y-20822438D01*
X4127619Y-20822438D02*
X4175238Y-20870057D01*
X4175238Y-20870057D02*
X4222857Y-20965295D01*
X4222857Y-20965295D02*
X4270476Y-21155771D01*
X4270476Y-21155771D02*
X4270476Y-21393866D01*
X4270476Y-21393866D02*
X4222857Y-21584342D01*
X4222857Y-21584342D02*
X4175238Y-21679580D01*
X4175238Y-21679580D02*
X4127619Y-21727200D01*
X4127619Y-21727200D02*
X4032381Y-21774819D01*
X4032381Y-21774819D02*
X3937143Y-21774819D01*
X3937143Y-21774819D02*
X3841905Y-21727200D01*
X3841905Y-21727200D02*
X3794286Y-21679580D01*
X3794286Y-21679580D02*
X3746667Y-21584342D01*
X3746667Y-21584342D02*
X3699048Y-21393866D01*
X3699048Y-21393866D02*
X3699048Y-21155771D01*
X3699048Y-21155771D02*
X3746667Y-20965295D01*
X3746667Y-20965295D02*
X3794286Y-20870057D01*
X3794286Y-20870057D02*
X3841905Y-20822438D01*
X3841905Y-20822438D02*
X3937143Y-20774819D01*
X5127619Y-20774819D02*
X4937143Y-20774819D01*
X4937143Y-20774819D02*
X4841905Y-20822438D01*
X4841905Y-20822438D02*
X4794286Y-20870057D01*
X4794286Y-20870057D02*
X4699048Y-21012914D01*
X4699048Y-21012914D02*
X4651429Y-21203390D01*
X4651429Y-21203390D02*
X4651429Y-21584342D01*
X4651429Y-21584342D02*
X4699048Y-21679580D01*
X4699048Y-21679580D02*
X4746667Y-21727200D01*
X4746667Y-21727200D02*
X4841905Y-21774819D01*
X4841905Y-21774819D02*
X5032381Y-21774819D01*
X5032381Y-21774819D02*
X5127619Y-21727200D01*
X5127619Y-21727200D02*
X5175238Y-21679580D01*
X5175238Y-21679580D02*
X5222857Y-21584342D01*
X5222857Y-21584342D02*
X5222857Y-21346247D01*
X5222857Y-21346247D02*
X5175238Y-21251009D01*
X5175238Y-21251009D02*
X5127619Y-21203390D01*
X5127619Y-21203390D02*
X5032381Y-21155771D01*
X5032381Y-21155771D02*
X4841905Y-21155771D01*
X4841905Y-21155771D02*
X4746667Y-21203390D01*
X4746667Y-21203390D02*
X4699048Y-21251009D01*
X4699048Y-21251009D02*
X4651429Y-21346247D01*
X5413334Y-21870057D02*
X6175238Y-21870057D01*
X6365715Y-20870057D02*
X6413334Y-20822438D01*
X6413334Y-20822438D02*
X6508572Y-20774819D01*
X6508572Y-20774819D02*
X6746667Y-20774819D01*
X6746667Y-20774819D02*
X6841905Y-20822438D01*
X6841905Y-20822438D02*
X6889524Y-20870057D01*
X6889524Y-20870057D02*
X6937143Y-20965295D01*
X6937143Y-20965295D02*
X6937143Y-21060533D01*
X6937143Y-21060533D02*
X6889524Y-21203390D01*
X6889524Y-21203390D02*
X6318096Y-21774819D01*
X6318096Y-21774819D02*
X6937143Y-21774819D01*
X7365715Y-21679580D02*
X7413334Y-21727200D01*
X7413334Y-21727200D02*
X7365715Y-21774819D01*
X7365715Y-21774819D02*
X7318096Y-21727200D01*
X7318096Y-21727200D02*
X7365715Y-21679580D01*
X7365715Y-21679580D02*
X7365715Y-21774819D01*
X8318095Y-20774819D02*
X7841905Y-20774819D01*
X7841905Y-20774819D02*
X7794286Y-21251009D01*
X7794286Y-21251009D02*
X7841905Y-21203390D01*
X7841905Y-21203390D02*
X7937143Y-21155771D01*
X7937143Y-21155771D02*
X8175238Y-21155771D01*
X8175238Y-21155771D02*
X8270476Y-21203390D01*
X8270476Y-21203390D02*
X8318095Y-21251009D01*
X8318095Y-21251009D02*
X8365714Y-21346247D01*
X8365714Y-21346247D02*
X8365714Y-21584342D01*
X8365714Y-21584342D02*
X8318095Y-21679580D01*
X8318095Y-21679580D02*
X8270476Y-21727200D01*
X8270476Y-21727200D02*
X8175238Y-21774819D01*
X8175238Y-21774819D02*
X7937143Y-21774819D01*
X7937143Y-21774819D02*
X7841905Y-21727200D01*
X7841905Y-21727200D02*
X7794286Y-21679580D01*
X9222857Y-21108152D02*
X9222857Y-21774819D01*
X8984762Y-20727200D02*
X8746667Y-21441485D01*
X8746667Y-21441485D02*
X9365714Y-21441485D01*
X9746667Y-21774819D02*
X9746667Y-21108152D01*
X9746667Y-21203390D02*
X9794286Y-21155771D01*
X9794286Y-21155771D02*
X9889524Y-21108152D01*
X9889524Y-21108152D02*
X10032381Y-21108152D01*
X10032381Y-21108152D02*
X10127619Y-21155771D01*
X10127619Y-21155771D02*
X10175238Y-21251009D01*
X10175238Y-21251009D02*
X10175238Y-21774819D01*
X10175238Y-21251009D02*
X10222857Y-21155771D01*
X10222857Y-21155771D02*
X10318095Y-21108152D01*
X10318095Y-21108152D02*
X10460952Y-21108152D01*
X10460952Y-21108152D02*
X10556191Y-21155771D01*
X10556191Y-21155771D02*
X10603810Y-21251009D01*
X10603810Y-21251009D02*
X10603810Y-21774819D01*
X11080000Y-21774819D02*
X11080000Y-21108152D01*
X11080000Y-21203390D02*
X11127619Y-21155771D01*
X11127619Y-21155771D02*
X11222857Y-21108152D01*
X11222857Y-21108152D02*
X11365714Y-21108152D01*
X11365714Y-21108152D02*
X11460952Y-21155771D01*
X11460952Y-21155771D02*
X11508571Y-21251009D01*
X11508571Y-21251009D02*
X11508571Y-21774819D01*
X11508571Y-21251009D02*
X11556190Y-21155771D01*
X11556190Y-21155771D02*
X11651428Y-21108152D01*
X11651428Y-21108152D02*
X11794285Y-21108152D01*
X11794285Y-21108152D02*
X11889524Y-21155771D01*
X11889524Y-21155771D02*
X11937143Y-21251009D01*
X11937143Y-21251009D02*
X11937143Y-21774819D01*
X12175238Y-21870057D02*
X12937142Y-21870057D01*
X13175238Y-21774819D02*
X13175238Y-20774819D01*
X13175238Y-20774819D02*
X13508571Y-21489104D01*
X13508571Y-21489104D02*
X13841904Y-20774819D01*
X13841904Y-20774819D02*
X13841904Y-21774819D01*
X14746666Y-21774819D02*
X14746666Y-21251009D01*
X14746666Y-21251009D02*
X14699047Y-21155771D01*
X14699047Y-21155771D02*
X14603809Y-21108152D01*
X14603809Y-21108152D02*
X14413333Y-21108152D01*
X14413333Y-21108152D02*
X14318095Y-21155771D01*
X14746666Y-21727200D02*
X14651428Y-21774819D01*
X14651428Y-21774819D02*
X14413333Y-21774819D01*
X14413333Y-21774819D02*
X14318095Y-21727200D01*
X14318095Y-21727200D02*
X14270476Y-21631961D01*
X14270476Y-21631961D02*
X14270476Y-21536723D01*
X14270476Y-21536723D02*
X14318095Y-21441485D01*
X14318095Y-21441485D02*
X14413333Y-21393866D01*
X14413333Y-21393866D02*
X14651428Y-21393866D01*
X14651428Y-21393866D02*
X14746666Y-21346247D01*
X15365714Y-21774819D02*
X15270476Y-21727200D01*
X15270476Y-21727200D02*
X15222857Y-21631961D01*
X15222857Y-21631961D02*
X15222857Y-20774819D01*
X16127619Y-21727200D02*
X16032381Y-21774819D01*
X16032381Y-21774819D02*
X15841905Y-21774819D01*
X15841905Y-21774819D02*
X15746667Y-21727200D01*
X15746667Y-21727200D02*
X15699048Y-21631961D01*
X15699048Y-21631961D02*
X15699048Y-21251009D01*
X15699048Y-21251009D02*
X15746667Y-21155771D01*
X15746667Y-21155771D02*
X15841905Y-21108152D01*
X15841905Y-21108152D02*
X16032381Y-21108152D01*
X16032381Y-21108152D02*
X16127619Y-21155771D01*
X16127619Y-21155771D02*
X16175238Y-21251009D01*
X16175238Y-21251009D02*
X16175238Y-21346247D01*
X16175238Y-21346247D02*
X15699048Y-21441485D01*
D10*
X23382857Y-31944885D02*
X23211428Y-31944885D01*
X23297143Y-31944885D02*
X23297143Y-31644885D01*
X23297143Y-31644885D02*
X23268571Y-31687742D01*
X23268571Y-31687742D02*
X23240000Y-31716314D01*
X23240000Y-31716314D02*
X23211428Y-31730600D01*
X23568571Y-31644885D02*
X23597142Y-31644885D01*
X23597142Y-31644885D02*
X23625714Y-31659171D01*
X23625714Y-31659171D02*
X23640000Y-31673457D01*
X23640000Y-31673457D02*
X23654285Y-31702028D01*
X23654285Y-31702028D02*
X23668571Y-31759171D01*
X23668571Y-31759171D02*
X23668571Y-31830600D01*
X23668571Y-31830600D02*
X23654285Y-31887742D01*
X23654285Y-31887742D02*
X23640000Y-31916314D01*
X23640000Y-31916314D02*
X23625714Y-31930600D01*
X23625714Y-31930600D02*
X23597142Y-31944885D01*
X23597142Y-31944885D02*
X23568571Y-31944885D01*
X23568571Y-31944885D02*
X23540000Y-31930600D01*
X23540000Y-31930600D02*
X23525714Y-31916314D01*
X23525714Y-31916314D02*
X23511428Y-31887742D01*
X23511428Y-31887742D02*
X23497142Y-31830600D01*
X23497142Y-31830600D02*
X23497142Y-31759171D01*
X23497142Y-31759171D02*
X23511428Y-31702028D01*
X23511428Y-31702028D02*
X23525714Y-31673457D01*
X23525714Y-31673457D02*
X23540000Y-31659171D01*
X23540000Y-31659171D02*
X23568571Y-31644885D01*
X23797142Y-31944885D02*
X23797142Y-31644885D01*
X23968571Y-31944885D02*
X23839999Y-31773457D01*
X23968571Y-31644885D02*
X23797142Y-31816314D01*
D12*
X5850000Y-52600000D03*
X7850000Y-52600000D03*
X9850000Y-52600000D03*
X11850000Y-52600000D03*
X51500000Y-2550000D03*
X51500000Y-51500000D03*
X2500000Y-51500000D03*
X2500000Y-2500000D03*
M02*
