%TF.GenerationSoftware,KiCad,Pcbnew,8.0.7*%
%TF.CreationDate,2025-01-15T18:16:12+00:00*%
%TF.ProjectId,USB,5553422e-6b69-4636-9164-5f7063625858,rev?*%
%TF.SameCoordinates,Original*%
%TF.FileFunction,Profile,NP*%
%FSLAX46Y46*%
G04 Gerber Fmt 4.6, Leading zero omitted, Abs format (unit mm)*
G04 Created by KiCad (PCBNEW 8.0.7) date 2025-01-15 18:16:12*
%MOMM*%
%LPD*%
G01*
G04 APERTURE LIST*
%TA.AperFunction,Profile*%
%ADD10C,0.050000*%
%TD*%
%ADD11C,0.350000*%
%ADD12O,0.600000X1.700000*%
%ADD13O,0.600000X1.200000*%
G04 APERTURE END LIST*
D10*
X0Y-5000000D02*
X-1000000Y-5000000D01*
X26000000Y-20000000D02*
X26000000Y-5000000D01*
X-1000000Y-20000000D02*
X0Y-20000000D01*
X0Y-2500000D02*
G75*
G02*
X2500000Y0I2500000J0D01*
G01*
X26000000Y-5000000D02*
X25000000Y-5000000D01*
X-1000000Y-5000000D02*
X-1000000Y-20000000D01*
X2500000Y0D02*
X22500000Y0D01*
X25000000Y-5000000D02*
X25000000Y-2500000D01*
X22500000Y0D02*
G75*
G02*
X25000000Y-2500000I0J-2500000D01*
G01*
X25000000Y-22500000D02*
G75*
G02*
X22500000Y-25000000I-2500000J0D01*
G01*
X22500000Y-25000000D02*
X2500000Y-25000000D01*
X2500000Y-25000000D02*
G75*
G02*
X0Y-22500000I0J2500000D01*
G01*
X25000000Y-20000000D02*
X26000000Y-20000000D01*
X0Y-20000000D02*
X0Y-22500000D01*
X25000000Y-22500000D02*
X25000000Y-20000000D01*
X0Y-2500000D02*
X0Y-5000000D01*
D11*
X5850000Y-23600000D03*
X7850000Y-23600000D03*
X9850000Y-23600000D03*
X11850000Y-23600000D03*
X22500000Y-2550000D03*
X2500000Y-22500000D03*
X6405000Y-4700000D03*
X12185000Y-4700000D03*
D12*
X4975000Y-5230000D03*
X13615000Y-5230000D03*
D13*
X4975000Y-1050000D03*
X13615000Y-1050000D03*
M02*
