%TF.GenerationSoftware,KiCad,Pcbnew,8.0.7-8.0.7-0~ubuntu24.04.1*%
%TF.CreationDate,2024-12-12T12:03:35+00:00*%
%TF.ProjectId,Battery,42617474-6572-4792-9e6b-696361645f70,rev?*%
%TF.SameCoordinates,Original*%
%TF.FileFunction,Profile,NP*%
%FSLAX46Y46*%
G04 Gerber Fmt 4.6, Leading zero omitted, Abs format (unit mm)*
G04 Created by KiCad (PCBNEW 8.0.7-8.0.7-0~ubuntu24.04.1) date 2024-12-12 12:03:35*
%MOMM*%
%LPD*%
G01*
G04 APERTURE LIST*
%TA.AperFunction,Profile*%
%ADD10C,0.050000*%
%TD*%
%ADD11O,0.700000X1.500000*%
%ADD12O,0.900000X0.700000*%
%ADD13C,0.350000*%
%ADD14O,0.600000X1.200000*%
G04 APERTURE END LIST*
D10*
X0Y-22500000D02*
X0Y-2500000D01*
X42500000Y0D02*
X47500000Y0D01*
X0Y-2500000D02*
G75*
G02*
X2500000Y0I2500000J0D01*
G01*
X40007233Y-4900000D02*
X37492767Y-4900000D01*
X2500000Y0D02*
X35000000Y0D01*
X42507233Y-2400000D02*
G75*
G02*
X40007233Y-4900033I-2500033J0D01*
G01*
X47500000Y0D02*
G75*
G02*
X50000000Y-2500000I0J-2500000D01*
G01*
X50000000Y-22500000D02*
G75*
G02*
X47500000Y-25000000I-2500000J0D01*
G01*
X47500000Y-25000000D02*
X2500000Y-25000000D01*
X35000000Y-2400000D02*
X35000000Y0D01*
X37492767Y-4900000D02*
G75*
G02*
X34992800Y-2400000I33J2500000D01*
G01*
X2500000Y-25000000D02*
G75*
G02*
X0Y-22500000I0J2500000D01*
G01*
X50000000Y-2500000D02*
X50000000Y-22500000D01*
X42500000Y-2400000D02*
X42500000Y0D01*
D11*
X32525000Y-2450000D03*
X24225000Y-2450000D03*
D12*
X30375000Y-2450000D03*
X28375000Y-2450000D03*
X26375000Y-2450000D03*
D13*
X39975000Y-16400000D03*
X37975000Y-16400000D03*
D14*
X9330000Y-1500000D03*
X9330000Y-5300000D03*
X17970000Y-1500000D03*
X17970000Y-5300000D03*
D13*
X6950000Y-23250000D03*
X8950000Y-23250000D03*
X10950000Y-23250000D03*
X12950000Y-23250000D03*
X47500000Y-2550000D03*
X2500000Y-22500000D03*
M02*
