%TF.GenerationSoftware,KiCad,Pcbnew,8.0.7-8.0.7-0~ubuntu24.04.1*%
%TF.CreationDate,2024-12-12T12:03:35+00:00*%
%TF.ProjectId,Joystick,4a6f7973-7469-4636-9b2e-6b696361645f,rev?*%
%TF.SameCoordinates,Original*%
%TF.FileFunction,Legend,Bot*%
%TF.FilePolarity,Positive*%
%FSLAX46Y46*%
G04 Gerber Fmt 4.6, Leading zero omitted, Abs format (unit mm)*
G04 Created by KiCad (PCBNEW 8.0.7-8.0.7-0~ubuntu24.04.1) date 2024-12-12 12:03:35*
%MOMM*%
%LPD*%
G01*
G04 APERTURE LIST*
%ADD10C,0.250000*%
%ADD11C,0.150000*%
%ADD12C,0.350000*%
G04 APERTURE END LIST*
D10*
X51597142Y-22941099D02*
X51597142Y-23655384D01*
X51597142Y-23655384D02*
X51644761Y-23798241D01*
X51644761Y-23798241D02*
X51739999Y-23893480D01*
X51739999Y-23893480D02*
X51882856Y-23941099D01*
X51882856Y-23941099D02*
X51978094Y-23941099D01*
X50978094Y-23941099D02*
X51073332Y-23893480D01*
X51073332Y-23893480D02*
X51120951Y-23845860D01*
X51120951Y-23845860D02*
X51168570Y-23750622D01*
X51168570Y-23750622D02*
X51168570Y-23464908D01*
X51168570Y-23464908D02*
X51120951Y-23369670D01*
X51120951Y-23369670D02*
X51073332Y-23322051D01*
X51073332Y-23322051D02*
X50978094Y-23274432D01*
X50978094Y-23274432D02*
X50835237Y-23274432D01*
X50835237Y-23274432D02*
X50739999Y-23322051D01*
X50739999Y-23322051D02*
X50692380Y-23369670D01*
X50692380Y-23369670D02*
X50644761Y-23464908D01*
X50644761Y-23464908D02*
X50644761Y-23750622D01*
X50644761Y-23750622D02*
X50692380Y-23845860D01*
X50692380Y-23845860D02*
X50739999Y-23893480D01*
X50739999Y-23893480D02*
X50835237Y-23941099D01*
X50835237Y-23941099D02*
X50978094Y-23941099D01*
X50311427Y-23274432D02*
X50073332Y-23941099D01*
X49835237Y-23274432D02*
X50073332Y-23941099D01*
X50073332Y-23941099D02*
X50168570Y-24179194D01*
X50168570Y-24179194D02*
X50216189Y-24226813D01*
X50216189Y-24226813D02*
X50311427Y-24274432D01*
X49501903Y-23893480D02*
X49406665Y-23941099D01*
X49406665Y-23941099D02*
X49216189Y-23941099D01*
X49216189Y-23941099D02*
X49120951Y-23893480D01*
X49120951Y-23893480D02*
X49073332Y-23798241D01*
X49073332Y-23798241D02*
X49073332Y-23750622D01*
X49073332Y-23750622D02*
X49120951Y-23655384D01*
X49120951Y-23655384D02*
X49216189Y-23607765D01*
X49216189Y-23607765D02*
X49359046Y-23607765D01*
X49359046Y-23607765D02*
X49454284Y-23560146D01*
X49454284Y-23560146D02*
X49501903Y-23464908D01*
X49501903Y-23464908D02*
X49501903Y-23417289D01*
X49501903Y-23417289D02*
X49454284Y-23322051D01*
X49454284Y-23322051D02*
X49359046Y-23274432D01*
X49359046Y-23274432D02*
X49216189Y-23274432D01*
X49216189Y-23274432D02*
X49120951Y-23322051D01*
X48787617Y-23274432D02*
X48406665Y-23274432D01*
X48644760Y-22941099D02*
X48644760Y-23798241D01*
X48644760Y-23798241D02*
X48597141Y-23893480D01*
X48597141Y-23893480D02*
X48501903Y-23941099D01*
X48501903Y-23941099D02*
X48406665Y-23941099D01*
X48073331Y-23941099D02*
X48073331Y-23274432D01*
X48073331Y-22941099D02*
X48120950Y-22988718D01*
X48120950Y-22988718D02*
X48073331Y-23036337D01*
X48073331Y-23036337D02*
X48025712Y-22988718D01*
X48025712Y-22988718D02*
X48073331Y-22941099D01*
X48073331Y-22941099D02*
X48073331Y-23036337D01*
X47168570Y-23893480D02*
X47263808Y-23941099D01*
X47263808Y-23941099D02*
X47454284Y-23941099D01*
X47454284Y-23941099D02*
X47549522Y-23893480D01*
X47549522Y-23893480D02*
X47597141Y-23845860D01*
X47597141Y-23845860D02*
X47644760Y-23750622D01*
X47644760Y-23750622D02*
X47644760Y-23464908D01*
X47644760Y-23464908D02*
X47597141Y-23369670D01*
X47597141Y-23369670D02*
X47549522Y-23322051D01*
X47549522Y-23322051D02*
X47454284Y-23274432D01*
X47454284Y-23274432D02*
X47263808Y-23274432D01*
X47263808Y-23274432D02*
X47168570Y-23322051D01*
X46739998Y-23941099D02*
X46739998Y-22941099D01*
X46644760Y-23560146D02*
X46359046Y-23941099D01*
X46359046Y-23274432D02*
X46739998Y-23655384D01*
X45263807Y-23274432D02*
X45025712Y-23941099D01*
X45025712Y-23941099D02*
X44787617Y-23274432D01*
X44216188Y-22941099D02*
X44120950Y-22941099D01*
X44120950Y-22941099D02*
X44025712Y-22988718D01*
X44025712Y-22988718D02*
X43978093Y-23036337D01*
X43978093Y-23036337D02*
X43930474Y-23131575D01*
X43930474Y-23131575D02*
X43882855Y-23322051D01*
X43882855Y-23322051D02*
X43882855Y-23560146D01*
X43882855Y-23560146D02*
X43930474Y-23750622D01*
X43930474Y-23750622D02*
X43978093Y-23845860D01*
X43978093Y-23845860D02*
X44025712Y-23893480D01*
X44025712Y-23893480D02*
X44120950Y-23941099D01*
X44120950Y-23941099D02*
X44216188Y-23941099D01*
X44216188Y-23941099D02*
X44311426Y-23893480D01*
X44311426Y-23893480D02*
X44359045Y-23845860D01*
X44359045Y-23845860D02*
X44406664Y-23750622D01*
X44406664Y-23750622D02*
X44454283Y-23560146D01*
X44454283Y-23560146D02*
X44454283Y-23322051D01*
X44454283Y-23322051D02*
X44406664Y-23131575D01*
X44406664Y-23131575D02*
X44359045Y-23036337D01*
X44359045Y-23036337D02*
X44311426Y-22988718D01*
X44311426Y-22988718D02*
X44216188Y-22941099D01*
X43454283Y-23845860D02*
X43406664Y-23893480D01*
X43406664Y-23893480D02*
X43454283Y-23941099D01*
X43454283Y-23941099D02*
X43501902Y-23893480D01*
X43501902Y-23893480D02*
X43454283Y-23845860D01*
X43454283Y-23845860D02*
X43454283Y-23941099D01*
X42454284Y-23941099D02*
X43025712Y-23941099D01*
X42739998Y-23941099D02*
X42739998Y-22941099D01*
X42739998Y-22941099D02*
X42835236Y-23083956D01*
X42835236Y-23083956D02*
X42930474Y-23179194D01*
X42930474Y-23179194D02*
X43025712Y-23226813D01*
D11*
X13318104Y-20621303D02*
X13356200Y-20583207D01*
X13356200Y-20583207D02*
X13394295Y-20468922D01*
X13394295Y-20468922D02*
X13394295Y-20392731D01*
X13394295Y-20392731D02*
X13356200Y-20278445D01*
X13356200Y-20278445D02*
X13280009Y-20202255D01*
X13280009Y-20202255D02*
X13203819Y-20164160D01*
X13203819Y-20164160D02*
X13051438Y-20126064D01*
X13051438Y-20126064D02*
X12937152Y-20126064D01*
X12937152Y-20126064D02*
X12784771Y-20164160D01*
X12784771Y-20164160D02*
X12708580Y-20202255D01*
X12708580Y-20202255D02*
X12632390Y-20278445D01*
X12632390Y-20278445D02*
X12594295Y-20392731D01*
X12594295Y-20392731D02*
X12594295Y-20468922D01*
X12594295Y-20468922D02*
X12632390Y-20583207D01*
X12632390Y-20583207D02*
X12670485Y-20621303D01*
X13394295Y-21345112D02*
X13394295Y-20964160D01*
X13394295Y-20964160D02*
X12594295Y-20964160D01*
X13394295Y-21611779D02*
X12594295Y-21611779D01*
X13394295Y-22068922D02*
X12937152Y-21726064D01*
X12594295Y-22068922D02*
X13051438Y-21611779D01*
X11281200Y-18701064D02*
X11319295Y-18815350D01*
X11319295Y-18815350D02*
X11319295Y-19005826D01*
X11319295Y-19005826D02*
X11281200Y-19082017D01*
X11281200Y-19082017D02*
X11243104Y-19120112D01*
X11243104Y-19120112D02*
X11166914Y-19158207D01*
X11166914Y-19158207D02*
X11090723Y-19158207D01*
X11090723Y-19158207D02*
X11014533Y-19120112D01*
X11014533Y-19120112D02*
X10976438Y-19082017D01*
X10976438Y-19082017D02*
X10938342Y-19005826D01*
X10938342Y-19005826D02*
X10900247Y-18853445D01*
X10900247Y-18853445D02*
X10862152Y-18777255D01*
X10862152Y-18777255D02*
X10824057Y-18739160D01*
X10824057Y-18739160D02*
X10747866Y-18701064D01*
X10747866Y-18701064D02*
X10671676Y-18701064D01*
X10671676Y-18701064D02*
X10595485Y-18739160D01*
X10595485Y-18739160D02*
X10557390Y-18777255D01*
X10557390Y-18777255D02*
X10519295Y-18853445D01*
X10519295Y-18853445D02*
X10519295Y-19043922D01*
X10519295Y-19043922D02*
X10557390Y-19158207D01*
X10519295Y-19424874D02*
X11319295Y-19615350D01*
X11319295Y-19615350D02*
X10747866Y-19767731D01*
X10747866Y-19767731D02*
X11319295Y-19920112D01*
X11319295Y-19920112D02*
X10519295Y-20110589D01*
X11319295Y-20415351D02*
X10519295Y-20415351D01*
X10519295Y-20415351D02*
X10519295Y-20605827D01*
X10519295Y-20605827D02*
X10557390Y-20720113D01*
X10557390Y-20720113D02*
X10633580Y-20796303D01*
X10633580Y-20796303D02*
X10709771Y-20834398D01*
X10709771Y-20834398D02*
X10862152Y-20872494D01*
X10862152Y-20872494D02*
X10976438Y-20872494D01*
X10976438Y-20872494D02*
X11128819Y-20834398D01*
X11128819Y-20834398D02*
X11205009Y-20796303D01*
X11205009Y-20796303D02*
X11281200Y-20720113D01*
X11281200Y-20720113D02*
X11319295Y-20605827D01*
X11319295Y-20605827D02*
X11319295Y-20415351D01*
X11319295Y-21215351D02*
X10519295Y-21215351D01*
X10519295Y-21748684D02*
X10519295Y-21901065D01*
X10519295Y-21901065D02*
X10557390Y-21977255D01*
X10557390Y-21977255D02*
X10633580Y-22053446D01*
X10633580Y-22053446D02*
X10785961Y-22091541D01*
X10785961Y-22091541D02*
X11052628Y-22091541D01*
X11052628Y-22091541D02*
X11205009Y-22053446D01*
X11205009Y-22053446D02*
X11281200Y-21977255D01*
X11281200Y-21977255D02*
X11319295Y-21901065D01*
X11319295Y-21901065D02*
X11319295Y-21748684D01*
X11319295Y-21748684D02*
X11281200Y-21672493D01*
X11281200Y-21672493D02*
X11205009Y-21596303D01*
X11205009Y-21596303D02*
X11052628Y-21558207D01*
X11052628Y-21558207D02*
X10785961Y-21558207D01*
X10785961Y-21558207D02*
X10633580Y-21596303D01*
X10633580Y-21596303D02*
X10557390Y-21672493D01*
X10557390Y-21672493D02*
X10519295Y-21748684D01*
X6544295Y-21295112D02*
X6544295Y-20914160D01*
X6544295Y-20914160D02*
X6925247Y-20876064D01*
X6925247Y-20876064D02*
X6887152Y-20914160D01*
X6887152Y-20914160D02*
X6849057Y-20990350D01*
X6849057Y-20990350D02*
X6849057Y-21180826D01*
X6849057Y-21180826D02*
X6887152Y-21257017D01*
X6887152Y-21257017D02*
X6925247Y-21295112D01*
X6925247Y-21295112D02*
X7001438Y-21333207D01*
X7001438Y-21333207D02*
X7191914Y-21333207D01*
X7191914Y-21333207D02*
X7268104Y-21295112D01*
X7268104Y-21295112D02*
X7306200Y-21257017D01*
X7306200Y-21257017D02*
X7344295Y-21180826D01*
X7344295Y-21180826D02*
X7344295Y-20990350D01*
X7344295Y-20990350D02*
X7306200Y-20914160D01*
X7306200Y-20914160D02*
X7268104Y-20876064D01*
X6544295Y-21561779D02*
X7344295Y-21828446D01*
X7344295Y-21828446D02*
X6544295Y-22095112D01*
X8607390Y-20433207D02*
X8569295Y-20357017D01*
X8569295Y-20357017D02*
X8569295Y-20242731D01*
X8569295Y-20242731D02*
X8607390Y-20128445D01*
X8607390Y-20128445D02*
X8683580Y-20052255D01*
X8683580Y-20052255D02*
X8759771Y-20014160D01*
X8759771Y-20014160D02*
X8912152Y-19976064D01*
X8912152Y-19976064D02*
X9026438Y-19976064D01*
X9026438Y-19976064D02*
X9178819Y-20014160D01*
X9178819Y-20014160D02*
X9255009Y-20052255D01*
X9255009Y-20052255D02*
X9331200Y-20128445D01*
X9331200Y-20128445D02*
X9369295Y-20242731D01*
X9369295Y-20242731D02*
X9369295Y-20318922D01*
X9369295Y-20318922D02*
X9331200Y-20433207D01*
X9331200Y-20433207D02*
X9293104Y-20471303D01*
X9293104Y-20471303D02*
X9026438Y-20471303D01*
X9026438Y-20471303D02*
X9026438Y-20318922D01*
X9369295Y-20814160D02*
X8569295Y-20814160D01*
X8569295Y-20814160D02*
X9369295Y-21271303D01*
X9369295Y-21271303D02*
X8569295Y-21271303D01*
X9369295Y-21652255D02*
X8569295Y-21652255D01*
X8569295Y-21652255D02*
X8569295Y-21842731D01*
X8569295Y-21842731D02*
X8607390Y-21957017D01*
X8607390Y-21957017D02*
X8683580Y-22033207D01*
X8683580Y-22033207D02*
X8759771Y-22071302D01*
X8759771Y-22071302D02*
X8912152Y-22109398D01*
X8912152Y-22109398D02*
X9026438Y-22109398D01*
X9026438Y-22109398D02*
X9178819Y-22071302D01*
X9178819Y-22071302D02*
X9255009Y-22033207D01*
X9255009Y-22033207D02*
X9331200Y-21957017D01*
X9331200Y-21957017D02*
X9369295Y-21842731D01*
X9369295Y-21842731D02*
X9369295Y-21652255D01*
D12*
X22500000Y-18825000D03*
X32500000Y-18825000D03*
X27500000Y-16800000D03*
X27500000Y-8200000D03*
X22500000Y-6175000D03*
X32500000Y-6075000D03*
X25000000Y-3770000D03*
X27500000Y-3770000D03*
X30000000Y-3770000D03*
X18770000Y-10000000D03*
X18770000Y-12500000D03*
X18770000Y-15000000D03*
X33250000Y-15750000D03*
X37750000Y-15750000D03*
X33250000Y-9250000D03*
X37750000Y-9250000D03*
X6950000Y-23250000D03*
X8950000Y-23250000D03*
X10950000Y-23250000D03*
X12950000Y-23250000D03*
X52500000Y-2550000D03*
X2500000Y-22500000D03*
M02*
