%TF.GenerationSoftware,KiCad,Pcbnew,8.0.7-8.0.7-0~ubuntu24.04.1*%
%TF.CreationDate,2024-12-12T12:03:35+00:00*%
%TF.ProjectId,Joystick,4a6f7973-7469-4636-9b2e-6b696361645f,rev?*%
%TF.SameCoordinates,Original*%
%TF.FileFunction,Other,ECO1*%
%FSLAX46Y46*%
G04 Gerber Fmt 4.6, Leading zero omitted, Abs format (unit mm)*
G04 Created by KiCad (PCBNEW 8.0.7-8.0.7-0~ubuntu24.04.1) date 2024-12-12 12:03:35*
%MOMM*%
%LPD*%
G01*
G04 APERTURE LIST*
%ADD10C,0.075000*%
%ADD11C,0.150000*%
%ADD12C,0.350000*%
G04 APERTURE END LIST*
D10*
X13598572Y-4779885D02*
X13598572Y-4979885D01*
X13527143Y-4665600D02*
X13455714Y-4879885D01*
X13455714Y-4879885D02*
X13641429Y-4879885D01*
X13755714Y-4951314D02*
X13770000Y-4965600D01*
X13770000Y-4965600D02*
X13755714Y-4979885D01*
X13755714Y-4979885D02*
X13741428Y-4965600D01*
X13741428Y-4965600D02*
X13755714Y-4951314D01*
X13755714Y-4951314D02*
X13755714Y-4979885D01*
X13870000Y-4679885D02*
X14070000Y-4679885D01*
X14070000Y-4679885D02*
X13941428Y-4979885D01*
X14312857Y-4779885D02*
X14312857Y-4979885D01*
X14184285Y-4779885D02*
X14184285Y-4937028D01*
X14184285Y-4937028D02*
X14198571Y-4965600D01*
X14198571Y-4965600D02*
X14227142Y-4979885D01*
X14227142Y-4979885D02*
X14269999Y-4979885D01*
X14269999Y-4979885D02*
X14298571Y-4965600D01*
X14298571Y-4965600D02*
X14312857Y-4951314D01*
X14555714Y-4822742D02*
X14455714Y-4822742D01*
X14455714Y-4979885D02*
X14455714Y-4679885D01*
X14455714Y-4679885D02*
X14598571Y-4679885D01*
X47857381Y-4436102D02*
X47757381Y-4436102D01*
X47757381Y-4593245D02*
X47757381Y-4293245D01*
X47757381Y-4293245D02*
X47900238Y-4293245D01*
X48114524Y-4436102D02*
X48014524Y-4436102D01*
X48014524Y-4593245D02*
X48014524Y-4293245D01*
X48014524Y-4293245D02*
X48157381Y-4293245D01*
X48443096Y-4564674D02*
X48428810Y-4578960D01*
X48428810Y-4578960D02*
X48385953Y-4593245D01*
X48385953Y-4593245D02*
X48357381Y-4593245D01*
X48357381Y-4593245D02*
X48314524Y-4578960D01*
X48314524Y-4578960D02*
X48285953Y-4550388D01*
X48285953Y-4550388D02*
X48271667Y-4521817D01*
X48271667Y-4521817D02*
X48257381Y-4464674D01*
X48257381Y-4464674D02*
X48257381Y-4421817D01*
X48257381Y-4421817D02*
X48271667Y-4364674D01*
X48271667Y-4364674D02*
X48285953Y-4336102D01*
X48285953Y-4336102D02*
X48314524Y-4307531D01*
X48314524Y-4307531D02*
X48357381Y-4293245D01*
X48357381Y-4293245D02*
X48385953Y-4293245D01*
X48385953Y-4293245D02*
X48428810Y-4307531D01*
X48428810Y-4307531D02*
X48443096Y-4321817D01*
X48500239Y-4621817D02*
X48728810Y-4621817D01*
X48928810Y-4578960D02*
X48900238Y-4593245D01*
X48900238Y-4593245D02*
X48843095Y-4593245D01*
X48843095Y-4593245D02*
X48814524Y-4578960D01*
X48814524Y-4578960D02*
X48800238Y-4564674D01*
X48800238Y-4564674D02*
X48785952Y-4536102D01*
X48785952Y-4536102D02*
X48785952Y-4450388D01*
X48785952Y-4450388D02*
X48800238Y-4421817D01*
X48800238Y-4421817D02*
X48814524Y-4407531D01*
X48814524Y-4407531D02*
X48843095Y-4393245D01*
X48843095Y-4393245D02*
X48900238Y-4393245D01*
X48900238Y-4393245D02*
X48928810Y-4407531D01*
X49100238Y-4593245D02*
X49071667Y-4578960D01*
X49071667Y-4578960D02*
X49057381Y-4564674D01*
X49057381Y-4564674D02*
X49043095Y-4536102D01*
X49043095Y-4536102D02*
X49043095Y-4450388D01*
X49043095Y-4450388D02*
X49057381Y-4421817D01*
X49057381Y-4421817D02*
X49071667Y-4407531D01*
X49071667Y-4407531D02*
X49100238Y-4393245D01*
X49100238Y-4393245D02*
X49143095Y-4393245D01*
X49143095Y-4393245D02*
X49171667Y-4407531D01*
X49171667Y-4407531D02*
X49185953Y-4421817D01*
X49185953Y-4421817D02*
X49200238Y-4450388D01*
X49200238Y-4450388D02*
X49200238Y-4536102D01*
X49200238Y-4536102D02*
X49185953Y-4564674D01*
X49185953Y-4564674D02*
X49171667Y-4578960D01*
X49171667Y-4578960D02*
X49143095Y-4593245D01*
X49143095Y-4593245D02*
X49100238Y-4593245D01*
X49328810Y-4393245D02*
X49328810Y-4593245D01*
X49328810Y-4421817D02*
X49343096Y-4407531D01*
X49343096Y-4407531D02*
X49371667Y-4393245D01*
X49371667Y-4393245D02*
X49414524Y-4393245D01*
X49414524Y-4393245D02*
X49443096Y-4407531D01*
X49443096Y-4407531D02*
X49457382Y-4436102D01*
X49457382Y-4436102D02*
X49457382Y-4593245D01*
X49600239Y-4393245D02*
X49600239Y-4593245D01*
X49600239Y-4421817D02*
X49614525Y-4407531D01*
X49614525Y-4407531D02*
X49643096Y-4393245D01*
X49643096Y-4393245D02*
X49685953Y-4393245D01*
X49685953Y-4393245D02*
X49714525Y-4407531D01*
X49714525Y-4407531D02*
X49728811Y-4436102D01*
X49728811Y-4436102D02*
X49728811Y-4593245D01*
X49985954Y-4578960D02*
X49957382Y-4593245D01*
X49957382Y-4593245D02*
X49900240Y-4593245D01*
X49900240Y-4593245D02*
X49871668Y-4578960D01*
X49871668Y-4578960D02*
X49857382Y-4550388D01*
X49857382Y-4550388D02*
X49857382Y-4436102D01*
X49857382Y-4436102D02*
X49871668Y-4407531D01*
X49871668Y-4407531D02*
X49900240Y-4393245D01*
X49900240Y-4393245D02*
X49957382Y-4393245D01*
X49957382Y-4393245D02*
X49985954Y-4407531D01*
X49985954Y-4407531D02*
X50000240Y-4436102D01*
X50000240Y-4436102D02*
X50000240Y-4464674D01*
X50000240Y-4464674D02*
X49857382Y-4493245D01*
X50257383Y-4578960D02*
X50228811Y-4593245D01*
X50228811Y-4593245D02*
X50171668Y-4593245D01*
X50171668Y-4593245D02*
X50143097Y-4578960D01*
X50143097Y-4578960D02*
X50128811Y-4564674D01*
X50128811Y-4564674D02*
X50114525Y-4536102D01*
X50114525Y-4536102D02*
X50114525Y-4450388D01*
X50114525Y-4450388D02*
X50128811Y-4421817D01*
X50128811Y-4421817D02*
X50143097Y-4407531D01*
X50143097Y-4407531D02*
X50171668Y-4393245D01*
X50171668Y-4393245D02*
X50228811Y-4393245D01*
X50228811Y-4393245D02*
X50257383Y-4407531D01*
X50343097Y-4393245D02*
X50457383Y-4393245D01*
X50385954Y-4293245D02*
X50385954Y-4550388D01*
X50385954Y-4550388D02*
X50400240Y-4578960D01*
X50400240Y-4578960D02*
X50428811Y-4593245D01*
X50428811Y-4593245D02*
X50457383Y-4593245D01*
X50600240Y-4593245D02*
X50571669Y-4578960D01*
X50571669Y-4578960D02*
X50557383Y-4564674D01*
X50557383Y-4564674D02*
X50543097Y-4536102D01*
X50543097Y-4536102D02*
X50543097Y-4450388D01*
X50543097Y-4450388D02*
X50557383Y-4421817D01*
X50557383Y-4421817D02*
X50571669Y-4407531D01*
X50571669Y-4407531D02*
X50600240Y-4393245D01*
X50600240Y-4393245D02*
X50643097Y-4393245D01*
X50643097Y-4393245D02*
X50671669Y-4407531D01*
X50671669Y-4407531D02*
X50685955Y-4421817D01*
X50685955Y-4421817D02*
X50700240Y-4450388D01*
X50700240Y-4450388D02*
X50700240Y-4536102D01*
X50700240Y-4536102D02*
X50685955Y-4564674D01*
X50685955Y-4564674D02*
X50671669Y-4578960D01*
X50671669Y-4578960D02*
X50643097Y-4593245D01*
X50643097Y-4593245D02*
X50600240Y-4593245D01*
X50828812Y-4593245D02*
X50828812Y-4393245D01*
X50828812Y-4450388D02*
X50843098Y-4421817D01*
X50843098Y-4421817D02*
X50857384Y-4407531D01*
X50857384Y-4407531D02*
X50885955Y-4393245D01*
X50885955Y-4393245D02*
X50914526Y-4393245D01*
X50943098Y-4621817D02*
X51171669Y-4621817D01*
X51400240Y-4593245D02*
X51228811Y-4593245D01*
X51314526Y-4593245D02*
X51314526Y-4293245D01*
X51314526Y-4293245D02*
X51285954Y-4336102D01*
X51285954Y-4336102D02*
X51257383Y-4364674D01*
X51257383Y-4364674D02*
X51228811Y-4378960D01*
X51657383Y-4293245D02*
X51600240Y-4293245D01*
X51600240Y-4293245D02*
X51571668Y-4307531D01*
X51571668Y-4307531D02*
X51557383Y-4321817D01*
X51557383Y-4321817D02*
X51528811Y-4364674D01*
X51528811Y-4364674D02*
X51514525Y-4421817D01*
X51514525Y-4421817D02*
X51514525Y-4536102D01*
X51514525Y-4536102D02*
X51528811Y-4564674D01*
X51528811Y-4564674D02*
X51543097Y-4578960D01*
X51543097Y-4578960D02*
X51571668Y-4593245D01*
X51571668Y-4593245D02*
X51628811Y-4593245D01*
X51628811Y-4593245D02*
X51657383Y-4578960D01*
X51657383Y-4578960D02*
X51671668Y-4564674D01*
X51671668Y-4564674D02*
X51685954Y-4536102D01*
X51685954Y-4536102D02*
X51685954Y-4464674D01*
X51685954Y-4464674D02*
X51671668Y-4436102D01*
X51671668Y-4436102D02*
X51657383Y-4421817D01*
X51657383Y-4421817D02*
X51628811Y-4407531D01*
X51628811Y-4407531D02*
X51571668Y-4407531D01*
X51571668Y-4407531D02*
X51543097Y-4421817D01*
X51543097Y-4421817D02*
X51528811Y-4436102D01*
X51528811Y-4436102D02*
X51514525Y-4464674D01*
X51814525Y-4393245D02*
X51814525Y-4693245D01*
X51814525Y-4407531D02*
X51843097Y-4393245D01*
X51843097Y-4393245D02*
X51900239Y-4393245D01*
X51900239Y-4393245D02*
X51928811Y-4407531D01*
X51928811Y-4407531D02*
X51943097Y-4421817D01*
X51943097Y-4421817D02*
X51957382Y-4450388D01*
X51957382Y-4450388D02*
X51957382Y-4536102D01*
X51957382Y-4536102D02*
X51943097Y-4564674D01*
X51943097Y-4564674D02*
X51928811Y-4578960D01*
X51928811Y-4578960D02*
X51900239Y-4593245D01*
X51900239Y-4593245D02*
X51843097Y-4593245D01*
X51843097Y-4593245D02*
X51814525Y-4578960D01*
X52014526Y-4621817D02*
X52243097Y-4621817D01*
X52314525Y-4593245D02*
X52314525Y-4293245D01*
X52443097Y-4593245D02*
X52443097Y-4436102D01*
X52443097Y-4436102D02*
X52428811Y-4407531D01*
X52428811Y-4407531D02*
X52400239Y-4393245D01*
X52400239Y-4393245D02*
X52357382Y-4393245D01*
X52357382Y-4393245D02*
X52328811Y-4407531D01*
X52328811Y-4407531D02*
X52314525Y-4421817D01*
X52585954Y-4593245D02*
X52585954Y-4393245D01*
X52585954Y-4293245D02*
X52571668Y-4307531D01*
X52571668Y-4307531D02*
X52585954Y-4321817D01*
X52585954Y-4321817D02*
X52600240Y-4307531D01*
X52600240Y-4307531D02*
X52585954Y-4293245D01*
X52585954Y-4293245D02*
X52585954Y-4321817D01*
X52728811Y-4393245D02*
X52728811Y-4593245D01*
X52728811Y-4421817D02*
X52743097Y-4407531D01*
X52743097Y-4407531D02*
X52771668Y-4393245D01*
X52771668Y-4393245D02*
X52814525Y-4393245D01*
X52814525Y-4393245D02*
X52843097Y-4407531D01*
X52843097Y-4407531D02*
X52857383Y-4436102D01*
X52857383Y-4436102D02*
X52857383Y-4593245D01*
X53128812Y-4393245D02*
X53128812Y-4636102D01*
X53128812Y-4636102D02*
X53114526Y-4664674D01*
X53114526Y-4664674D02*
X53100240Y-4678960D01*
X53100240Y-4678960D02*
X53071669Y-4693245D01*
X53071669Y-4693245D02*
X53028812Y-4693245D01*
X53028812Y-4693245D02*
X53000240Y-4678960D01*
X53128812Y-4578960D02*
X53100240Y-4593245D01*
X53100240Y-4593245D02*
X53043097Y-4593245D01*
X53043097Y-4593245D02*
X53014526Y-4578960D01*
X53014526Y-4578960D02*
X53000240Y-4564674D01*
X53000240Y-4564674D02*
X52985954Y-4536102D01*
X52985954Y-4536102D02*
X52985954Y-4450388D01*
X52985954Y-4450388D02*
X53000240Y-4421817D01*
X53000240Y-4421817D02*
X53014526Y-4407531D01*
X53014526Y-4407531D02*
X53043097Y-4393245D01*
X53043097Y-4393245D02*
X53100240Y-4393245D01*
X53100240Y-4393245D02*
X53128812Y-4407531D01*
X53385955Y-4578960D02*
X53357383Y-4593245D01*
X53357383Y-4593245D02*
X53300241Y-4593245D01*
X53300241Y-4593245D02*
X53271669Y-4578960D01*
X53271669Y-4578960D02*
X53257383Y-4550388D01*
X53257383Y-4550388D02*
X53257383Y-4436102D01*
X53257383Y-4436102D02*
X53271669Y-4407531D01*
X53271669Y-4407531D02*
X53300241Y-4393245D01*
X53300241Y-4393245D02*
X53357383Y-4393245D01*
X53357383Y-4393245D02*
X53385955Y-4407531D01*
X53385955Y-4407531D02*
X53400241Y-4436102D01*
X53400241Y-4436102D02*
X53400241Y-4464674D01*
X53400241Y-4464674D02*
X53257383Y-4493245D01*
X53457384Y-4621817D02*
X53685955Y-4621817D01*
X53800240Y-4593245D02*
X53771669Y-4578960D01*
X53771669Y-4578960D02*
X53757383Y-4550388D01*
X53757383Y-4550388D02*
X53757383Y-4293245D01*
X53957383Y-4593245D02*
X53928812Y-4578960D01*
X53928812Y-4578960D02*
X53914526Y-4564674D01*
X53914526Y-4564674D02*
X53900240Y-4536102D01*
X53900240Y-4536102D02*
X53900240Y-4450388D01*
X53900240Y-4450388D02*
X53914526Y-4421817D01*
X53914526Y-4421817D02*
X53928812Y-4407531D01*
X53928812Y-4407531D02*
X53957383Y-4393245D01*
X53957383Y-4393245D02*
X54000240Y-4393245D01*
X54000240Y-4393245D02*
X54028812Y-4407531D01*
X54028812Y-4407531D02*
X54043098Y-4421817D01*
X54043098Y-4421817D02*
X54057383Y-4450388D01*
X54057383Y-4450388D02*
X54057383Y-4536102D01*
X54057383Y-4536102D02*
X54043098Y-4564674D01*
X54043098Y-4564674D02*
X54028812Y-4578960D01*
X54028812Y-4578960D02*
X54000240Y-4593245D01*
X54000240Y-4593245D02*
X53957383Y-4593245D01*
X54314527Y-4578960D02*
X54285955Y-4593245D01*
X54285955Y-4593245D02*
X54228812Y-4593245D01*
X54228812Y-4593245D02*
X54200241Y-4578960D01*
X54200241Y-4578960D02*
X54185955Y-4564674D01*
X54185955Y-4564674D02*
X54171669Y-4536102D01*
X54171669Y-4536102D02*
X54171669Y-4450388D01*
X54171669Y-4450388D02*
X54185955Y-4421817D01*
X54185955Y-4421817D02*
X54200241Y-4407531D01*
X54200241Y-4407531D02*
X54228812Y-4393245D01*
X54228812Y-4393245D02*
X54285955Y-4393245D01*
X54285955Y-4393245D02*
X54314527Y-4407531D01*
X54443098Y-4593245D02*
X54443098Y-4293245D01*
X54471670Y-4478960D02*
X54557384Y-4593245D01*
X54557384Y-4393245D02*
X54443098Y-4507531D01*
X8598572Y-3304885D02*
X8598572Y-3504885D01*
X8527143Y-3190600D02*
X8455714Y-3404885D01*
X8455714Y-3404885D02*
X8641429Y-3404885D01*
X8755714Y-3476314D02*
X8770000Y-3490600D01*
X8770000Y-3490600D02*
X8755714Y-3504885D01*
X8755714Y-3504885D02*
X8741428Y-3490600D01*
X8741428Y-3490600D02*
X8755714Y-3476314D01*
X8755714Y-3476314D02*
X8755714Y-3504885D01*
X8870000Y-3204885D02*
X9070000Y-3204885D01*
X9070000Y-3204885D02*
X8941428Y-3504885D01*
X9312857Y-3304885D02*
X9312857Y-3504885D01*
X9184285Y-3304885D02*
X9184285Y-3462028D01*
X9184285Y-3462028D02*
X9198571Y-3490600D01*
X9198571Y-3490600D02*
X9227142Y-3504885D01*
X9227142Y-3504885D02*
X9269999Y-3504885D01*
X9269999Y-3504885D02*
X9298571Y-3490600D01*
X9298571Y-3490600D02*
X9312857Y-3476314D01*
X9555714Y-3347742D02*
X9455714Y-3347742D01*
X9455714Y-3504885D02*
X9455714Y-3204885D01*
X9455714Y-3204885D02*
X9598571Y-3204885D01*
X8754885Y-6189999D02*
X8454885Y-6189999D01*
X8454885Y-6189999D02*
X8669171Y-6089999D01*
X8669171Y-6089999D02*
X8454885Y-5989999D01*
X8454885Y-5989999D02*
X8754885Y-5989999D01*
X8597742Y-5847142D02*
X8597742Y-5747142D01*
X8754885Y-5704285D02*
X8754885Y-5847142D01*
X8754885Y-5847142D02*
X8454885Y-5847142D01*
X8454885Y-5847142D02*
X8454885Y-5704285D01*
X8454885Y-5447142D02*
X8454885Y-5504284D01*
X8454885Y-5504284D02*
X8469171Y-5532856D01*
X8469171Y-5532856D02*
X8483457Y-5547142D01*
X8483457Y-5547142D02*
X8526314Y-5575713D01*
X8526314Y-5575713D02*
X8583457Y-5589999D01*
X8583457Y-5589999D02*
X8697742Y-5589999D01*
X8697742Y-5589999D02*
X8726314Y-5575713D01*
X8726314Y-5575713D02*
X8740600Y-5561427D01*
X8740600Y-5561427D02*
X8754885Y-5532856D01*
X8754885Y-5532856D02*
X8754885Y-5475713D01*
X8754885Y-5475713D02*
X8740600Y-5447142D01*
X8740600Y-5447142D02*
X8726314Y-5432856D01*
X8726314Y-5432856D02*
X8697742Y-5418570D01*
X8697742Y-5418570D02*
X8626314Y-5418570D01*
X8626314Y-5418570D02*
X8597742Y-5432856D01*
X8597742Y-5432856D02*
X8583457Y-5447142D01*
X8583457Y-5447142D02*
X8569171Y-5475713D01*
X8569171Y-5475713D02*
X8569171Y-5532856D01*
X8569171Y-5532856D02*
X8583457Y-5561427D01*
X8583457Y-5561427D02*
X8597742Y-5575713D01*
X8597742Y-5575713D02*
X8626314Y-5589999D01*
X8483457Y-5304285D02*
X8469171Y-5289999D01*
X8469171Y-5289999D02*
X8454885Y-5261428D01*
X8454885Y-5261428D02*
X8454885Y-5189999D01*
X8454885Y-5189999D02*
X8469171Y-5161428D01*
X8469171Y-5161428D02*
X8483457Y-5147142D01*
X8483457Y-5147142D02*
X8512028Y-5132856D01*
X8512028Y-5132856D02*
X8540600Y-5132856D01*
X8540600Y-5132856D02*
X8583457Y-5147142D01*
X8583457Y-5147142D02*
X8754885Y-5318570D01*
X8754885Y-5318570D02*
X8754885Y-5132856D01*
X8754885Y-4847142D02*
X8754885Y-5018571D01*
X8754885Y-4932856D02*
X8454885Y-4932856D01*
X8454885Y-4932856D02*
X8497742Y-4961428D01*
X8497742Y-4961428D02*
X8526314Y-4989999D01*
X8526314Y-4989999D02*
X8540600Y-5018571D01*
X8754885Y-4561428D02*
X8754885Y-4732857D01*
X8754885Y-4647142D02*
X8454885Y-4647142D01*
X8454885Y-4647142D02*
X8497742Y-4675714D01*
X8497742Y-4675714D02*
X8526314Y-4704285D01*
X8526314Y-4704285D02*
X8540600Y-4732857D01*
X8726314Y-4261428D02*
X8740600Y-4275714D01*
X8740600Y-4275714D02*
X8754885Y-4318571D01*
X8754885Y-4318571D02*
X8754885Y-4347143D01*
X8754885Y-4347143D02*
X8740600Y-4390000D01*
X8740600Y-4390000D02*
X8712028Y-4418571D01*
X8712028Y-4418571D02*
X8683457Y-4432857D01*
X8683457Y-4432857D02*
X8626314Y-4447143D01*
X8626314Y-4447143D02*
X8583457Y-4447143D01*
X8583457Y-4447143D02*
X8526314Y-4432857D01*
X8526314Y-4432857D02*
X8497742Y-4418571D01*
X8497742Y-4418571D02*
X8469171Y-4390000D01*
X8469171Y-4390000D02*
X8454885Y-4347143D01*
X8454885Y-4347143D02*
X8454885Y-4318571D01*
X8454885Y-4318571D02*
X8469171Y-4275714D01*
X8469171Y-4275714D02*
X8483457Y-4261428D01*
X8454885Y-4161428D02*
X8454885Y-3975714D01*
X8454885Y-3975714D02*
X8569171Y-4075714D01*
X8569171Y-4075714D02*
X8569171Y-4032857D01*
X8569171Y-4032857D02*
X8583457Y-4004286D01*
X8583457Y-4004286D02*
X8597742Y-3990000D01*
X8597742Y-3990000D02*
X8626314Y-3975714D01*
X8626314Y-3975714D02*
X8697742Y-3975714D01*
X8697742Y-3975714D02*
X8726314Y-3990000D01*
X8726314Y-3990000D02*
X8740600Y-4004286D01*
X8740600Y-4004286D02*
X8754885Y-4032857D01*
X8754885Y-4032857D02*
X8754885Y-4118571D01*
X8754885Y-4118571D02*
X8740600Y-4147143D01*
X8740600Y-4147143D02*
X8726314Y-4161428D01*
X8454885Y-3875714D02*
X8454885Y-3690000D01*
X8454885Y-3690000D02*
X8569171Y-3790000D01*
X8569171Y-3790000D02*
X8569171Y-3747143D01*
X8569171Y-3747143D02*
X8583457Y-3718572D01*
X8583457Y-3718572D02*
X8597742Y-3704286D01*
X8597742Y-3704286D02*
X8626314Y-3690000D01*
X8626314Y-3690000D02*
X8697742Y-3690000D01*
X8697742Y-3690000D02*
X8726314Y-3704286D01*
X8726314Y-3704286D02*
X8740600Y-3718572D01*
X8740600Y-3718572D02*
X8754885Y-3747143D01*
X8754885Y-3747143D02*
X8754885Y-3832857D01*
X8754885Y-3832857D02*
X8740600Y-3861429D01*
X8740600Y-3861429D02*
X8726314Y-3875714D01*
X8754885Y-3561429D02*
X8454885Y-3561429D01*
X8454885Y-3561429D02*
X8669171Y-3461429D01*
X8669171Y-3461429D02*
X8454885Y-3361429D01*
X8454885Y-3361429D02*
X8754885Y-3361429D01*
X8454885Y-3075715D02*
X8454885Y-3218572D01*
X8454885Y-3218572D02*
X8597742Y-3232858D01*
X8597742Y-3232858D02*
X8583457Y-3218572D01*
X8583457Y-3218572D02*
X8569171Y-3190001D01*
X8569171Y-3190001D02*
X8569171Y-3118572D01*
X8569171Y-3118572D02*
X8583457Y-3090001D01*
X8583457Y-3090001D02*
X8597742Y-3075715D01*
X8597742Y-3075715D02*
X8626314Y-3061429D01*
X8626314Y-3061429D02*
X8697742Y-3061429D01*
X8697742Y-3061429D02*
X8726314Y-3075715D01*
X8726314Y-3075715D02*
X8740600Y-3090001D01*
X8740600Y-3090001D02*
X8754885Y-3118572D01*
X8754885Y-3118572D02*
X8754885Y-3190001D01*
X8754885Y-3190001D02*
X8740600Y-3218572D01*
X8740600Y-3218572D02*
X8726314Y-3232858D01*
X8469171Y-2775715D02*
X8454885Y-2804287D01*
X8454885Y-2804287D02*
X8454885Y-2847144D01*
X8454885Y-2847144D02*
X8469171Y-2890001D01*
X8469171Y-2890001D02*
X8497742Y-2918572D01*
X8497742Y-2918572D02*
X8526314Y-2932858D01*
X8526314Y-2932858D02*
X8583457Y-2947144D01*
X8583457Y-2947144D02*
X8626314Y-2947144D01*
X8626314Y-2947144D02*
X8683457Y-2932858D01*
X8683457Y-2932858D02*
X8712028Y-2918572D01*
X8712028Y-2918572D02*
X8740600Y-2890001D01*
X8740600Y-2890001D02*
X8754885Y-2847144D01*
X8754885Y-2847144D02*
X8754885Y-2818572D01*
X8754885Y-2818572D02*
X8740600Y-2775715D01*
X8740600Y-2775715D02*
X8726314Y-2761429D01*
X8726314Y-2761429D02*
X8626314Y-2761429D01*
X8626314Y-2761429D02*
X8626314Y-2818572D01*
X8640600Y-2632858D02*
X8640600Y-2404287D01*
X8754885Y-2261429D02*
X8454885Y-2261429D01*
X8454885Y-2261429D02*
X8754885Y-2090000D01*
X8754885Y-2090000D02*
X8454885Y-2090000D01*
X556901Y-20519382D02*
X456901Y-20519382D01*
X456901Y-20676525D02*
X456901Y-20376525D01*
X456901Y-20376525D02*
X599758Y-20376525D01*
X814044Y-20519382D02*
X714044Y-20519382D01*
X714044Y-20676525D02*
X714044Y-20376525D01*
X714044Y-20376525D02*
X856901Y-20376525D01*
X1142616Y-20647954D02*
X1128330Y-20662240D01*
X1128330Y-20662240D02*
X1085473Y-20676525D01*
X1085473Y-20676525D02*
X1056901Y-20676525D01*
X1056901Y-20676525D02*
X1014044Y-20662240D01*
X1014044Y-20662240D02*
X985473Y-20633668D01*
X985473Y-20633668D02*
X971187Y-20605097D01*
X971187Y-20605097D02*
X956901Y-20547954D01*
X956901Y-20547954D02*
X956901Y-20505097D01*
X956901Y-20505097D02*
X971187Y-20447954D01*
X971187Y-20447954D02*
X985473Y-20419382D01*
X985473Y-20419382D02*
X1014044Y-20390811D01*
X1014044Y-20390811D02*
X1056901Y-20376525D01*
X1056901Y-20376525D02*
X1085473Y-20376525D01*
X1085473Y-20376525D02*
X1128330Y-20390811D01*
X1128330Y-20390811D02*
X1142616Y-20405097D01*
X1199759Y-20705097D02*
X1428330Y-20705097D01*
X1628330Y-20662240D02*
X1599758Y-20676525D01*
X1599758Y-20676525D02*
X1542615Y-20676525D01*
X1542615Y-20676525D02*
X1514044Y-20662240D01*
X1514044Y-20662240D02*
X1499758Y-20647954D01*
X1499758Y-20647954D02*
X1485472Y-20619382D01*
X1485472Y-20619382D02*
X1485472Y-20533668D01*
X1485472Y-20533668D02*
X1499758Y-20505097D01*
X1499758Y-20505097D02*
X1514044Y-20490811D01*
X1514044Y-20490811D02*
X1542615Y-20476525D01*
X1542615Y-20476525D02*
X1599758Y-20476525D01*
X1599758Y-20476525D02*
X1628330Y-20490811D01*
X1799758Y-20676525D02*
X1771187Y-20662240D01*
X1771187Y-20662240D02*
X1756901Y-20647954D01*
X1756901Y-20647954D02*
X1742615Y-20619382D01*
X1742615Y-20619382D02*
X1742615Y-20533668D01*
X1742615Y-20533668D02*
X1756901Y-20505097D01*
X1756901Y-20505097D02*
X1771187Y-20490811D01*
X1771187Y-20490811D02*
X1799758Y-20476525D01*
X1799758Y-20476525D02*
X1842615Y-20476525D01*
X1842615Y-20476525D02*
X1871187Y-20490811D01*
X1871187Y-20490811D02*
X1885473Y-20505097D01*
X1885473Y-20505097D02*
X1899758Y-20533668D01*
X1899758Y-20533668D02*
X1899758Y-20619382D01*
X1899758Y-20619382D02*
X1885473Y-20647954D01*
X1885473Y-20647954D02*
X1871187Y-20662240D01*
X1871187Y-20662240D02*
X1842615Y-20676525D01*
X1842615Y-20676525D02*
X1799758Y-20676525D01*
X2028330Y-20476525D02*
X2028330Y-20676525D01*
X2028330Y-20505097D02*
X2042616Y-20490811D01*
X2042616Y-20490811D02*
X2071187Y-20476525D01*
X2071187Y-20476525D02*
X2114044Y-20476525D01*
X2114044Y-20476525D02*
X2142616Y-20490811D01*
X2142616Y-20490811D02*
X2156902Y-20519382D01*
X2156902Y-20519382D02*
X2156902Y-20676525D01*
X2299759Y-20476525D02*
X2299759Y-20676525D01*
X2299759Y-20505097D02*
X2314045Y-20490811D01*
X2314045Y-20490811D02*
X2342616Y-20476525D01*
X2342616Y-20476525D02*
X2385473Y-20476525D01*
X2385473Y-20476525D02*
X2414045Y-20490811D01*
X2414045Y-20490811D02*
X2428331Y-20519382D01*
X2428331Y-20519382D02*
X2428331Y-20676525D01*
X2685474Y-20662240D02*
X2656902Y-20676525D01*
X2656902Y-20676525D02*
X2599760Y-20676525D01*
X2599760Y-20676525D02*
X2571188Y-20662240D01*
X2571188Y-20662240D02*
X2556902Y-20633668D01*
X2556902Y-20633668D02*
X2556902Y-20519382D01*
X2556902Y-20519382D02*
X2571188Y-20490811D01*
X2571188Y-20490811D02*
X2599760Y-20476525D01*
X2599760Y-20476525D02*
X2656902Y-20476525D01*
X2656902Y-20476525D02*
X2685474Y-20490811D01*
X2685474Y-20490811D02*
X2699760Y-20519382D01*
X2699760Y-20519382D02*
X2699760Y-20547954D01*
X2699760Y-20547954D02*
X2556902Y-20576525D01*
X2956903Y-20662240D02*
X2928331Y-20676525D01*
X2928331Y-20676525D02*
X2871188Y-20676525D01*
X2871188Y-20676525D02*
X2842617Y-20662240D01*
X2842617Y-20662240D02*
X2828331Y-20647954D01*
X2828331Y-20647954D02*
X2814045Y-20619382D01*
X2814045Y-20619382D02*
X2814045Y-20533668D01*
X2814045Y-20533668D02*
X2828331Y-20505097D01*
X2828331Y-20505097D02*
X2842617Y-20490811D01*
X2842617Y-20490811D02*
X2871188Y-20476525D01*
X2871188Y-20476525D02*
X2928331Y-20476525D01*
X2928331Y-20476525D02*
X2956903Y-20490811D01*
X3042617Y-20476525D02*
X3156903Y-20476525D01*
X3085474Y-20376525D02*
X3085474Y-20633668D01*
X3085474Y-20633668D02*
X3099760Y-20662240D01*
X3099760Y-20662240D02*
X3128331Y-20676525D01*
X3128331Y-20676525D02*
X3156903Y-20676525D01*
X3299760Y-20676525D02*
X3271189Y-20662240D01*
X3271189Y-20662240D02*
X3256903Y-20647954D01*
X3256903Y-20647954D02*
X3242617Y-20619382D01*
X3242617Y-20619382D02*
X3242617Y-20533668D01*
X3242617Y-20533668D02*
X3256903Y-20505097D01*
X3256903Y-20505097D02*
X3271189Y-20490811D01*
X3271189Y-20490811D02*
X3299760Y-20476525D01*
X3299760Y-20476525D02*
X3342617Y-20476525D01*
X3342617Y-20476525D02*
X3371189Y-20490811D01*
X3371189Y-20490811D02*
X3385475Y-20505097D01*
X3385475Y-20505097D02*
X3399760Y-20533668D01*
X3399760Y-20533668D02*
X3399760Y-20619382D01*
X3399760Y-20619382D02*
X3385475Y-20647954D01*
X3385475Y-20647954D02*
X3371189Y-20662240D01*
X3371189Y-20662240D02*
X3342617Y-20676525D01*
X3342617Y-20676525D02*
X3299760Y-20676525D01*
X3528332Y-20676525D02*
X3528332Y-20476525D01*
X3528332Y-20533668D02*
X3542618Y-20505097D01*
X3542618Y-20505097D02*
X3556904Y-20490811D01*
X3556904Y-20490811D02*
X3585475Y-20476525D01*
X3585475Y-20476525D02*
X3614046Y-20476525D01*
X3642618Y-20705097D02*
X3871189Y-20705097D01*
X4099760Y-20676525D02*
X3928331Y-20676525D01*
X4014046Y-20676525D02*
X4014046Y-20376525D01*
X4014046Y-20376525D02*
X3985474Y-20419382D01*
X3985474Y-20419382D02*
X3956903Y-20447954D01*
X3956903Y-20447954D02*
X3928331Y-20462240D01*
X4356903Y-20376525D02*
X4299760Y-20376525D01*
X4299760Y-20376525D02*
X4271188Y-20390811D01*
X4271188Y-20390811D02*
X4256903Y-20405097D01*
X4256903Y-20405097D02*
X4228331Y-20447954D01*
X4228331Y-20447954D02*
X4214045Y-20505097D01*
X4214045Y-20505097D02*
X4214045Y-20619382D01*
X4214045Y-20619382D02*
X4228331Y-20647954D01*
X4228331Y-20647954D02*
X4242617Y-20662240D01*
X4242617Y-20662240D02*
X4271188Y-20676525D01*
X4271188Y-20676525D02*
X4328331Y-20676525D01*
X4328331Y-20676525D02*
X4356903Y-20662240D01*
X4356903Y-20662240D02*
X4371188Y-20647954D01*
X4371188Y-20647954D02*
X4385474Y-20619382D01*
X4385474Y-20619382D02*
X4385474Y-20547954D01*
X4385474Y-20547954D02*
X4371188Y-20519382D01*
X4371188Y-20519382D02*
X4356903Y-20505097D01*
X4356903Y-20505097D02*
X4328331Y-20490811D01*
X4328331Y-20490811D02*
X4271188Y-20490811D01*
X4271188Y-20490811D02*
X4242617Y-20505097D01*
X4242617Y-20505097D02*
X4228331Y-20519382D01*
X4228331Y-20519382D02*
X4214045Y-20547954D01*
X4514045Y-20476525D02*
X4514045Y-20776525D01*
X4514045Y-20490811D02*
X4542617Y-20476525D01*
X4542617Y-20476525D02*
X4599759Y-20476525D01*
X4599759Y-20476525D02*
X4628331Y-20490811D01*
X4628331Y-20490811D02*
X4642617Y-20505097D01*
X4642617Y-20505097D02*
X4656902Y-20533668D01*
X4656902Y-20533668D02*
X4656902Y-20619382D01*
X4656902Y-20619382D02*
X4642617Y-20647954D01*
X4642617Y-20647954D02*
X4628331Y-20662240D01*
X4628331Y-20662240D02*
X4599759Y-20676525D01*
X4599759Y-20676525D02*
X4542617Y-20676525D01*
X4542617Y-20676525D02*
X4514045Y-20662240D01*
X4714046Y-20705097D02*
X4942617Y-20705097D01*
X5014045Y-20676525D02*
X5014045Y-20376525D01*
X5142617Y-20676525D02*
X5142617Y-20519382D01*
X5142617Y-20519382D02*
X5128331Y-20490811D01*
X5128331Y-20490811D02*
X5099759Y-20476525D01*
X5099759Y-20476525D02*
X5056902Y-20476525D01*
X5056902Y-20476525D02*
X5028331Y-20490811D01*
X5028331Y-20490811D02*
X5014045Y-20505097D01*
X5285474Y-20676525D02*
X5285474Y-20476525D01*
X5285474Y-20376525D02*
X5271188Y-20390811D01*
X5271188Y-20390811D02*
X5285474Y-20405097D01*
X5285474Y-20405097D02*
X5299760Y-20390811D01*
X5299760Y-20390811D02*
X5285474Y-20376525D01*
X5285474Y-20376525D02*
X5285474Y-20405097D01*
X5428331Y-20476525D02*
X5428331Y-20676525D01*
X5428331Y-20505097D02*
X5442617Y-20490811D01*
X5442617Y-20490811D02*
X5471188Y-20476525D01*
X5471188Y-20476525D02*
X5514045Y-20476525D01*
X5514045Y-20476525D02*
X5542617Y-20490811D01*
X5542617Y-20490811D02*
X5556903Y-20519382D01*
X5556903Y-20519382D02*
X5556903Y-20676525D01*
X5828332Y-20476525D02*
X5828332Y-20719382D01*
X5828332Y-20719382D02*
X5814046Y-20747954D01*
X5814046Y-20747954D02*
X5799760Y-20762240D01*
X5799760Y-20762240D02*
X5771189Y-20776525D01*
X5771189Y-20776525D02*
X5728332Y-20776525D01*
X5728332Y-20776525D02*
X5699760Y-20762240D01*
X5828332Y-20662240D02*
X5799760Y-20676525D01*
X5799760Y-20676525D02*
X5742617Y-20676525D01*
X5742617Y-20676525D02*
X5714046Y-20662240D01*
X5714046Y-20662240D02*
X5699760Y-20647954D01*
X5699760Y-20647954D02*
X5685474Y-20619382D01*
X5685474Y-20619382D02*
X5685474Y-20533668D01*
X5685474Y-20533668D02*
X5699760Y-20505097D01*
X5699760Y-20505097D02*
X5714046Y-20490811D01*
X5714046Y-20490811D02*
X5742617Y-20476525D01*
X5742617Y-20476525D02*
X5799760Y-20476525D01*
X5799760Y-20476525D02*
X5828332Y-20490811D01*
X6085475Y-20662240D02*
X6056903Y-20676525D01*
X6056903Y-20676525D02*
X5999761Y-20676525D01*
X5999761Y-20676525D02*
X5971189Y-20662240D01*
X5971189Y-20662240D02*
X5956903Y-20633668D01*
X5956903Y-20633668D02*
X5956903Y-20519382D01*
X5956903Y-20519382D02*
X5971189Y-20490811D01*
X5971189Y-20490811D02*
X5999761Y-20476525D01*
X5999761Y-20476525D02*
X6056903Y-20476525D01*
X6056903Y-20476525D02*
X6085475Y-20490811D01*
X6085475Y-20490811D02*
X6099761Y-20519382D01*
X6099761Y-20519382D02*
X6099761Y-20547954D01*
X6099761Y-20547954D02*
X5956903Y-20576525D01*
X6156904Y-20705097D02*
X6385475Y-20705097D01*
X6499760Y-20676525D02*
X6471189Y-20662240D01*
X6471189Y-20662240D02*
X6456903Y-20633668D01*
X6456903Y-20633668D02*
X6456903Y-20376525D01*
X6656903Y-20676525D02*
X6628332Y-20662240D01*
X6628332Y-20662240D02*
X6614046Y-20647954D01*
X6614046Y-20647954D02*
X6599760Y-20619382D01*
X6599760Y-20619382D02*
X6599760Y-20533668D01*
X6599760Y-20533668D02*
X6614046Y-20505097D01*
X6614046Y-20505097D02*
X6628332Y-20490811D01*
X6628332Y-20490811D02*
X6656903Y-20476525D01*
X6656903Y-20476525D02*
X6699760Y-20476525D01*
X6699760Y-20476525D02*
X6728332Y-20490811D01*
X6728332Y-20490811D02*
X6742618Y-20505097D01*
X6742618Y-20505097D02*
X6756903Y-20533668D01*
X6756903Y-20533668D02*
X6756903Y-20619382D01*
X6756903Y-20619382D02*
X6742618Y-20647954D01*
X6742618Y-20647954D02*
X6728332Y-20662240D01*
X6728332Y-20662240D02*
X6699760Y-20676525D01*
X6699760Y-20676525D02*
X6656903Y-20676525D01*
X7014047Y-20662240D02*
X6985475Y-20676525D01*
X6985475Y-20676525D02*
X6928332Y-20676525D01*
X6928332Y-20676525D02*
X6899761Y-20662240D01*
X6899761Y-20662240D02*
X6885475Y-20647954D01*
X6885475Y-20647954D02*
X6871189Y-20619382D01*
X6871189Y-20619382D02*
X6871189Y-20533668D01*
X6871189Y-20533668D02*
X6885475Y-20505097D01*
X6885475Y-20505097D02*
X6899761Y-20490811D01*
X6899761Y-20490811D02*
X6928332Y-20476525D01*
X6928332Y-20476525D02*
X6985475Y-20476525D01*
X6985475Y-20476525D02*
X7014047Y-20490811D01*
X7142618Y-20676525D02*
X7142618Y-20376525D01*
X7171190Y-20562240D02*
X7256904Y-20676525D01*
X7256904Y-20476525D02*
X7142618Y-20590811D01*
X10472143Y-19649885D02*
X10672143Y-19649885D01*
X10672143Y-19649885D02*
X10543571Y-19949885D01*
X10929285Y-19649885D02*
X10786428Y-19649885D01*
X10786428Y-19649885D02*
X10772142Y-19792742D01*
X10772142Y-19792742D02*
X10786428Y-19778457D01*
X10786428Y-19778457D02*
X10815000Y-19764171D01*
X10815000Y-19764171D02*
X10886428Y-19764171D01*
X10886428Y-19764171D02*
X10915000Y-19778457D01*
X10915000Y-19778457D02*
X10929285Y-19792742D01*
X10929285Y-19792742D02*
X10943571Y-19821314D01*
X10943571Y-19821314D02*
X10943571Y-19892742D01*
X10943571Y-19892742D02*
X10929285Y-19921314D01*
X10929285Y-19921314D02*
X10915000Y-19935600D01*
X10915000Y-19935600D02*
X10886428Y-19949885D01*
X10886428Y-19949885D02*
X10815000Y-19949885D01*
X10815000Y-19949885D02*
X10786428Y-19935600D01*
X10786428Y-19935600D02*
X10772142Y-19921314D01*
X11243571Y-19949885D02*
X11143571Y-19807028D01*
X11072142Y-19949885D02*
X11072142Y-19649885D01*
X11072142Y-19649885D02*
X11186428Y-19649885D01*
X11186428Y-19649885D02*
X11214999Y-19664171D01*
X11214999Y-19664171D02*
X11229285Y-19678457D01*
X11229285Y-19678457D02*
X11243571Y-19707028D01*
X11243571Y-19707028D02*
X11243571Y-19749885D01*
X11243571Y-19749885D02*
X11229285Y-19778457D01*
X11229285Y-19778457D02*
X11214999Y-19792742D01*
X11214999Y-19792742D02*
X11186428Y-19807028D01*
X11186428Y-19807028D02*
X11072142Y-19807028D01*
X50535713Y-5934885D02*
X50535713Y-5634885D01*
X50535713Y-5634885D02*
X50635713Y-5849171D01*
X50635713Y-5849171D02*
X50735713Y-5634885D01*
X50735713Y-5634885D02*
X50735713Y-5934885D01*
X50864284Y-5663457D02*
X50878570Y-5649171D01*
X50878570Y-5649171D02*
X50907142Y-5634885D01*
X50907142Y-5634885D02*
X50978570Y-5634885D01*
X50978570Y-5634885D02*
X51007142Y-5649171D01*
X51007142Y-5649171D02*
X51021427Y-5663457D01*
X51021427Y-5663457D02*
X51035713Y-5692028D01*
X51035713Y-5692028D02*
X51035713Y-5720600D01*
X51035713Y-5720600D02*
X51021427Y-5763457D01*
X51021427Y-5763457D02*
X50849999Y-5934885D01*
X50849999Y-5934885D02*
X51035713Y-5934885D01*
X51164284Y-5906314D02*
X51178570Y-5920600D01*
X51178570Y-5920600D02*
X51164284Y-5934885D01*
X51164284Y-5934885D02*
X51149998Y-5920600D01*
X51149998Y-5920600D02*
X51164284Y-5906314D01*
X51164284Y-5906314D02*
X51164284Y-5934885D01*
X51449998Y-5634885D02*
X51307141Y-5634885D01*
X51307141Y-5634885D02*
X51292855Y-5777742D01*
X51292855Y-5777742D02*
X51307141Y-5763457D01*
X51307141Y-5763457D02*
X51335713Y-5749171D01*
X51335713Y-5749171D02*
X51407141Y-5749171D01*
X51407141Y-5749171D02*
X51435713Y-5763457D01*
X51435713Y-5763457D02*
X51449998Y-5777742D01*
X51449998Y-5777742D02*
X51464284Y-5806314D01*
X51464284Y-5806314D02*
X51464284Y-5877742D01*
X51464284Y-5877742D02*
X51449998Y-5906314D01*
X51449998Y-5906314D02*
X51435713Y-5920600D01*
X51435713Y-5920600D02*
X51407141Y-5934885D01*
X51407141Y-5934885D02*
X51335713Y-5934885D01*
X51335713Y-5934885D02*
X51307141Y-5920600D01*
X51307141Y-5920600D02*
X51292855Y-5906314D01*
X51592855Y-5934885D02*
X51592855Y-5634885D01*
X51592855Y-5634885D02*
X51692855Y-5849171D01*
X51692855Y-5849171D02*
X51792855Y-5634885D01*
X51792855Y-5634885D02*
X51792855Y-5934885D01*
X51978569Y-5934885D02*
X51949998Y-5920600D01*
X51949998Y-5920600D02*
X51935712Y-5906314D01*
X51935712Y-5906314D02*
X51921426Y-5877742D01*
X51921426Y-5877742D02*
X51921426Y-5792028D01*
X51921426Y-5792028D02*
X51935712Y-5763457D01*
X51935712Y-5763457D02*
X51949998Y-5749171D01*
X51949998Y-5749171D02*
X51978569Y-5734885D01*
X51978569Y-5734885D02*
X52021426Y-5734885D01*
X52021426Y-5734885D02*
X52049998Y-5749171D01*
X52049998Y-5749171D02*
X52064284Y-5763457D01*
X52064284Y-5763457D02*
X52078569Y-5792028D01*
X52078569Y-5792028D02*
X52078569Y-5877742D01*
X52078569Y-5877742D02*
X52064284Y-5906314D01*
X52064284Y-5906314D02*
X52049998Y-5920600D01*
X52049998Y-5920600D02*
X52021426Y-5934885D01*
X52021426Y-5934885D02*
X51978569Y-5934885D01*
X52335713Y-5734885D02*
X52335713Y-5934885D01*
X52207141Y-5734885D02*
X52207141Y-5892028D01*
X52207141Y-5892028D02*
X52221427Y-5920600D01*
X52221427Y-5920600D02*
X52249998Y-5934885D01*
X52249998Y-5934885D02*
X52292855Y-5934885D01*
X52292855Y-5934885D02*
X52321427Y-5920600D01*
X52321427Y-5920600D02*
X52335713Y-5906314D01*
X52478570Y-5734885D02*
X52478570Y-5934885D01*
X52478570Y-5763457D02*
X52492856Y-5749171D01*
X52492856Y-5749171D02*
X52521427Y-5734885D01*
X52521427Y-5734885D02*
X52564284Y-5734885D01*
X52564284Y-5734885D02*
X52592856Y-5749171D01*
X52592856Y-5749171D02*
X52607142Y-5777742D01*
X52607142Y-5777742D02*
X52607142Y-5934885D01*
X52707142Y-5734885D02*
X52821428Y-5734885D01*
X52749999Y-5634885D02*
X52749999Y-5892028D01*
X52749999Y-5892028D02*
X52764285Y-5920600D01*
X52764285Y-5920600D02*
X52792856Y-5934885D01*
X52792856Y-5934885D02*
X52821428Y-5934885D01*
X52921428Y-5934885D02*
X52921428Y-5734885D01*
X52921428Y-5634885D02*
X52907142Y-5649171D01*
X52907142Y-5649171D02*
X52921428Y-5663457D01*
X52921428Y-5663457D02*
X52935714Y-5649171D01*
X52935714Y-5649171D02*
X52921428Y-5634885D01*
X52921428Y-5634885D02*
X52921428Y-5663457D01*
X53064285Y-5734885D02*
X53064285Y-5934885D01*
X53064285Y-5763457D02*
X53078571Y-5749171D01*
X53078571Y-5749171D02*
X53107142Y-5734885D01*
X53107142Y-5734885D02*
X53149999Y-5734885D01*
X53149999Y-5734885D02*
X53178571Y-5749171D01*
X53178571Y-5749171D02*
X53192857Y-5777742D01*
X53192857Y-5777742D02*
X53192857Y-5934885D01*
X53464286Y-5734885D02*
X53464286Y-5977742D01*
X53464286Y-5977742D02*
X53450000Y-6006314D01*
X53450000Y-6006314D02*
X53435714Y-6020600D01*
X53435714Y-6020600D02*
X53407143Y-6034885D01*
X53407143Y-6034885D02*
X53364286Y-6034885D01*
X53364286Y-6034885D02*
X53335714Y-6020600D01*
X53464286Y-5920600D02*
X53435714Y-5934885D01*
X53435714Y-5934885D02*
X53378571Y-5934885D01*
X53378571Y-5934885D02*
X53350000Y-5920600D01*
X53350000Y-5920600D02*
X53335714Y-5906314D01*
X53335714Y-5906314D02*
X53321428Y-5877742D01*
X53321428Y-5877742D02*
X53321428Y-5792028D01*
X53321428Y-5792028D02*
X53335714Y-5763457D01*
X53335714Y-5763457D02*
X53350000Y-5749171D01*
X53350000Y-5749171D02*
X53378571Y-5734885D01*
X53378571Y-5734885D02*
X53435714Y-5734885D01*
X53435714Y-5734885D02*
X53464286Y-5749171D01*
X53607143Y-5934885D02*
X53607143Y-5634885D01*
X53607143Y-5777742D02*
X53778572Y-5777742D01*
X53778572Y-5934885D02*
X53778572Y-5634885D01*
X53964286Y-5934885D02*
X53935715Y-5920600D01*
X53935715Y-5920600D02*
X53921429Y-5906314D01*
X53921429Y-5906314D02*
X53907143Y-5877742D01*
X53907143Y-5877742D02*
X53907143Y-5792028D01*
X53907143Y-5792028D02*
X53921429Y-5763457D01*
X53921429Y-5763457D02*
X53935715Y-5749171D01*
X53935715Y-5749171D02*
X53964286Y-5734885D01*
X53964286Y-5734885D02*
X54007143Y-5734885D01*
X54007143Y-5734885D02*
X54035715Y-5749171D01*
X54035715Y-5749171D02*
X54050001Y-5763457D01*
X54050001Y-5763457D02*
X54064286Y-5792028D01*
X54064286Y-5792028D02*
X54064286Y-5877742D01*
X54064286Y-5877742D02*
X54050001Y-5906314D01*
X54050001Y-5906314D02*
X54035715Y-5920600D01*
X54035715Y-5920600D02*
X54007143Y-5934885D01*
X54007143Y-5934885D02*
X53964286Y-5934885D01*
X54235715Y-5934885D02*
X54207144Y-5920600D01*
X54207144Y-5920600D02*
X54192858Y-5892028D01*
X54192858Y-5892028D02*
X54192858Y-5634885D01*
X54464287Y-5920600D02*
X54435715Y-5934885D01*
X54435715Y-5934885D02*
X54378573Y-5934885D01*
X54378573Y-5934885D02*
X54350001Y-5920600D01*
X54350001Y-5920600D02*
X54335715Y-5892028D01*
X54335715Y-5892028D02*
X54335715Y-5777742D01*
X54335715Y-5777742D02*
X54350001Y-5749171D01*
X54350001Y-5749171D02*
X54378573Y-5734885D01*
X54378573Y-5734885D02*
X54435715Y-5734885D01*
X54435715Y-5734885D02*
X54464287Y-5749171D01*
X54464287Y-5749171D02*
X54478573Y-5777742D01*
X54478573Y-5777742D02*
X54478573Y-5806314D01*
X54478573Y-5806314D02*
X54335715Y-5834885D01*
D11*
X7344700Y-19449999D02*
X7392319Y-19307142D01*
X7392319Y-19307142D02*
X7392319Y-19069047D01*
X7392319Y-19069047D02*
X7344700Y-18973809D01*
X7344700Y-18973809D02*
X7297080Y-18926190D01*
X7297080Y-18926190D02*
X7201842Y-18878571D01*
X7201842Y-18878571D02*
X7106604Y-18878571D01*
X7106604Y-18878571D02*
X7011366Y-18926190D01*
X7011366Y-18926190D02*
X6963747Y-18973809D01*
X6963747Y-18973809D02*
X6916128Y-19069047D01*
X6916128Y-19069047D02*
X6868509Y-19259523D01*
X6868509Y-19259523D02*
X6820890Y-19354761D01*
X6820890Y-19354761D02*
X6773271Y-19402380D01*
X6773271Y-19402380D02*
X6678033Y-19449999D01*
X6678033Y-19449999D02*
X6582795Y-19449999D01*
X6582795Y-19449999D02*
X6487557Y-19402380D01*
X6487557Y-19402380D02*
X6439938Y-19354761D01*
X6439938Y-19354761D02*
X6392319Y-19259523D01*
X6392319Y-19259523D02*
X6392319Y-19021428D01*
X6392319Y-19021428D02*
X6439938Y-18878571D01*
X6392319Y-18592856D02*
X6392319Y-18021428D01*
X7392319Y-18307142D02*
X6392319Y-18307142D01*
X7392319Y-17688094D02*
X6392319Y-17688094D01*
X6392319Y-17688094D02*
X7106604Y-17354761D01*
X7106604Y-17354761D02*
X6392319Y-17021428D01*
X6392319Y-17021428D02*
X7392319Y-17021428D01*
X6392319Y-16640475D02*
X6392319Y-16021428D01*
X6392319Y-16021428D02*
X6773271Y-16354761D01*
X6773271Y-16354761D02*
X6773271Y-16211904D01*
X6773271Y-16211904D02*
X6820890Y-16116666D01*
X6820890Y-16116666D02*
X6868509Y-16069047D01*
X6868509Y-16069047D02*
X6963747Y-16021428D01*
X6963747Y-16021428D02*
X7201842Y-16021428D01*
X7201842Y-16021428D02*
X7297080Y-16069047D01*
X7297080Y-16069047D02*
X7344700Y-16116666D01*
X7344700Y-16116666D02*
X7392319Y-16211904D01*
X7392319Y-16211904D02*
X7392319Y-16497618D01*
X7392319Y-16497618D02*
X7344700Y-16592856D01*
X7344700Y-16592856D02*
X7297080Y-16640475D01*
X6487557Y-15640475D02*
X6439938Y-15592856D01*
X6439938Y-15592856D02*
X6392319Y-15497618D01*
X6392319Y-15497618D02*
X6392319Y-15259523D01*
X6392319Y-15259523D02*
X6439938Y-15164285D01*
X6439938Y-15164285D02*
X6487557Y-15116666D01*
X6487557Y-15116666D02*
X6582795Y-15069047D01*
X6582795Y-15069047D02*
X6678033Y-15069047D01*
X6678033Y-15069047D02*
X6820890Y-15116666D01*
X6820890Y-15116666D02*
X7392319Y-15688094D01*
X7392319Y-15688094D02*
X7392319Y-15069047D01*
X6439938Y-14116666D02*
X6392319Y-14211904D01*
X6392319Y-14211904D02*
X6392319Y-14354761D01*
X6392319Y-14354761D02*
X6439938Y-14497618D01*
X6439938Y-14497618D02*
X6535176Y-14592856D01*
X6535176Y-14592856D02*
X6630414Y-14640475D01*
X6630414Y-14640475D02*
X6820890Y-14688094D01*
X6820890Y-14688094D02*
X6963747Y-14688094D01*
X6963747Y-14688094D02*
X7154223Y-14640475D01*
X7154223Y-14640475D02*
X7249461Y-14592856D01*
X7249461Y-14592856D02*
X7344700Y-14497618D01*
X7344700Y-14497618D02*
X7392319Y-14354761D01*
X7392319Y-14354761D02*
X7392319Y-14259523D01*
X7392319Y-14259523D02*
X7344700Y-14116666D01*
X7344700Y-14116666D02*
X7297080Y-14069047D01*
X7297080Y-14069047D02*
X6963747Y-14069047D01*
X6963747Y-14069047D02*
X6963747Y-14259523D01*
X6392319Y-13449999D02*
X6392319Y-13354761D01*
X6392319Y-13354761D02*
X6439938Y-13259523D01*
X6439938Y-13259523D02*
X6487557Y-13211904D01*
X6487557Y-13211904D02*
X6582795Y-13164285D01*
X6582795Y-13164285D02*
X6773271Y-13116666D01*
X6773271Y-13116666D02*
X7011366Y-13116666D01*
X7011366Y-13116666D02*
X7201842Y-13164285D01*
X7201842Y-13164285D02*
X7297080Y-13211904D01*
X7297080Y-13211904D02*
X7344700Y-13259523D01*
X7344700Y-13259523D02*
X7392319Y-13354761D01*
X7392319Y-13354761D02*
X7392319Y-13449999D01*
X7392319Y-13449999D02*
X7344700Y-13545237D01*
X7344700Y-13545237D02*
X7297080Y-13592856D01*
X7297080Y-13592856D02*
X7201842Y-13640475D01*
X7201842Y-13640475D02*
X7011366Y-13688094D01*
X7011366Y-13688094D02*
X6773271Y-13688094D01*
X6773271Y-13688094D02*
X6582795Y-13640475D01*
X6582795Y-13640475D02*
X6487557Y-13592856D01*
X6487557Y-13592856D02*
X6439938Y-13545237D01*
X6439938Y-13545237D02*
X6392319Y-13449999D01*
X6392319Y-12783332D02*
X6392319Y-12164285D01*
X6392319Y-12164285D02*
X6773271Y-12497618D01*
X6773271Y-12497618D02*
X6773271Y-12354761D01*
X6773271Y-12354761D02*
X6820890Y-12259523D01*
X6820890Y-12259523D02*
X6868509Y-12211904D01*
X6868509Y-12211904D02*
X6963747Y-12164285D01*
X6963747Y-12164285D02*
X7201842Y-12164285D01*
X7201842Y-12164285D02*
X7297080Y-12211904D01*
X7297080Y-12211904D02*
X7344700Y-12259523D01*
X7344700Y-12259523D02*
X7392319Y-12354761D01*
X7392319Y-12354761D02*
X7392319Y-12640475D01*
X7392319Y-12640475D02*
X7344700Y-12735713D01*
X7344700Y-12735713D02*
X7297080Y-12783332D01*
X6392319Y-11545237D02*
X6392319Y-11449999D01*
X6392319Y-11449999D02*
X6439938Y-11354761D01*
X6439938Y-11354761D02*
X6487557Y-11307142D01*
X6487557Y-11307142D02*
X6582795Y-11259523D01*
X6582795Y-11259523D02*
X6773271Y-11211904D01*
X6773271Y-11211904D02*
X7011366Y-11211904D01*
X7011366Y-11211904D02*
X7201842Y-11259523D01*
X7201842Y-11259523D02*
X7297080Y-11307142D01*
X7297080Y-11307142D02*
X7344700Y-11354761D01*
X7344700Y-11354761D02*
X7392319Y-11449999D01*
X7392319Y-11449999D02*
X7392319Y-11545237D01*
X7392319Y-11545237D02*
X7344700Y-11640475D01*
X7344700Y-11640475D02*
X7297080Y-11688094D01*
X7297080Y-11688094D02*
X7201842Y-11735713D01*
X7201842Y-11735713D02*
X7011366Y-11783332D01*
X7011366Y-11783332D02*
X6773271Y-11783332D01*
X6773271Y-11783332D02*
X6582795Y-11735713D01*
X6582795Y-11735713D02*
X6487557Y-11688094D01*
X6487557Y-11688094D02*
X6439938Y-11640475D01*
X6439938Y-11640475D02*
X6392319Y-11545237D01*
X6868509Y-10449999D02*
X6868509Y-10783332D01*
X7392319Y-10783332D02*
X6392319Y-10783332D01*
X6392319Y-10783332D02*
X6392319Y-10307142D01*
X6392319Y-9497618D02*
X6392319Y-9688094D01*
X6392319Y-9688094D02*
X6439938Y-9783332D01*
X6439938Y-9783332D02*
X6487557Y-9830951D01*
X6487557Y-9830951D02*
X6630414Y-9926189D01*
X6630414Y-9926189D02*
X6820890Y-9973808D01*
X6820890Y-9973808D02*
X7201842Y-9973808D01*
X7201842Y-9973808D02*
X7297080Y-9926189D01*
X7297080Y-9926189D02*
X7344700Y-9878570D01*
X7344700Y-9878570D02*
X7392319Y-9783332D01*
X7392319Y-9783332D02*
X7392319Y-9592856D01*
X7392319Y-9592856D02*
X7344700Y-9497618D01*
X7344700Y-9497618D02*
X7297080Y-9449999D01*
X7297080Y-9449999D02*
X7201842Y-9402380D01*
X7201842Y-9402380D02*
X6963747Y-9402380D01*
X6963747Y-9402380D02*
X6868509Y-9449999D01*
X6868509Y-9449999D02*
X6820890Y-9497618D01*
X6820890Y-9497618D02*
X6773271Y-9592856D01*
X6773271Y-9592856D02*
X6773271Y-9783332D01*
X6773271Y-9783332D02*
X6820890Y-9878570D01*
X6820890Y-9878570D02*
X6868509Y-9926189D01*
X6868509Y-9926189D02*
X6963747Y-9973808D01*
X7392319Y-8973808D02*
X6392319Y-8973808D01*
X6392319Y-8973808D02*
X6392319Y-8592856D01*
X6392319Y-8592856D02*
X6439938Y-8497618D01*
X6439938Y-8497618D02*
X6487557Y-8449999D01*
X6487557Y-8449999D02*
X6582795Y-8402380D01*
X6582795Y-8402380D02*
X6725652Y-8402380D01*
X6725652Y-8402380D02*
X6820890Y-8449999D01*
X6820890Y-8449999D02*
X6868509Y-8497618D01*
X6868509Y-8497618D02*
X6916128Y-8592856D01*
X6916128Y-8592856D02*
X6916128Y-8973808D01*
X6392319Y-7545237D02*
X6392319Y-7735713D01*
X6392319Y-7735713D02*
X6439938Y-7830951D01*
X6439938Y-7830951D02*
X6487557Y-7878570D01*
X6487557Y-7878570D02*
X6630414Y-7973808D01*
X6630414Y-7973808D02*
X6820890Y-8021427D01*
X6820890Y-8021427D02*
X7201842Y-8021427D01*
X7201842Y-8021427D02*
X7297080Y-7973808D01*
X7297080Y-7973808D02*
X7344700Y-7926189D01*
X7344700Y-7926189D02*
X7392319Y-7830951D01*
X7392319Y-7830951D02*
X7392319Y-7640475D01*
X7392319Y-7640475D02*
X7344700Y-7545237D01*
X7344700Y-7545237D02*
X7297080Y-7497618D01*
X7297080Y-7497618D02*
X7201842Y-7449999D01*
X7201842Y-7449999D02*
X6963747Y-7449999D01*
X6963747Y-7449999D02*
X6868509Y-7497618D01*
X6868509Y-7497618D02*
X6820890Y-7545237D01*
X6820890Y-7545237D02*
X6773271Y-7640475D01*
X6773271Y-7640475D02*
X6773271Y-7830951D01*
X6773271Y-7830951D02*
X6820890Y-7926189D01*
X6820890Y-7926189D02*
X6868509Y-7973808D01*
X6868509Y-7973808D02*
X6963747Y-8021427D01*
D10*
X11659885Y-9161428D02*
X11859885Y-9161428D01*
X11545600Y-9232856D02*
X11759885Y-9304285D01*
X11759885Y-9304285D02*
X11759885Y-9118570D01*
X11831314Y-9004285D02*
X11845600Y-8989999D01*
X11845600Y-8989999D02*
X11859885Y-9004285D01*
X11859885Y-9004285D02*
X11845600Y-9018571D01*
X11845600Y-9018571D02*
X11831314Y-9004285D01*
X11831314Y-9004285D02*
X11859885Y-9004285D01*
X11559885Y-8889999D02*
X11559885Y-8689999D01*
X11559885Y-8689999D02*
X11859885Y-8818571D01*
X11659885Y-8447143D02*
X11859885Y-8447143D01*
X11659885Y-8575714D02*
X11817028Y-8575714D01*
X11817028Y-8575714D02*
X11845600Y-8561428D01*
X11845600Y-8561428D02*
X11859885Y-8532857D01*
X11859885Y-8532857D02*
X11859885Y-8490000D01*
X11859885Y-8490000D02*
X11845600Y-8461428D01*
X11845600Y-8461428D02*
X11831314Y-8447143D01*
X11702742Y-8204285D02*
X11702742Y-8304285D01*
X11859885Y-8304285D02*
X11559885Y-8304285D01*
X11559885Y-8304285D02*
X11559885Y-8161428D01*
X15142857Y-12774885D02*
X14971428Y-12774885D01*
X15057143Y-12774885D02*
X15057143Y-12474885D01*
X15057143Y-12474885D02*
X15028571Y-12517742D01*
X15028571Y-12517742D02*
X15000000Y-12546314D01*
X15000000Y-12546314D02*
X14971428Y-12560600D01*
X15328571Y-12474885D02*
X15357142Y-12474885D01*
X15357142Y-12474885D02*
X15385714Y-12489171D01*
X15385714Y-12489171D02*
X15400000Y-12503457D01*
X15400000Y-12503457D02*
X15414285Y-12532028D01*
X15414285Y-12532028D02*
X15428571Y-12589171D01*
X15428571Y-12589171D02*
X15428571Y-12660600D01*
X15428571Y-12660600D02*
X15414285Y-12717742D01*
X15414285Y-12717742D02*
X15400000Y-12746314D01*
X15400000Y-12746314D02*
X15385714Y-12760600D01*
X15385714Y-12760600D02*
X15357142Y-12774885D01*
X15357142Y-12774885D02*
X15328571Y-12774885D01*
X15328571Y-12774885D02*
X15300000Y-12760600D01*
X15300000Y-12760600D02*
X15285714Y-12746314D01*
X15285714Y-12746314D02*
X15271428Y-12717742D01*
X15271428Y-12717742D02*
X15257142Y-12660600D01*
X15257142Y-12660600D02*
X15257142Y-12589171D01*
X15257142Y-12589171D02*
X15271428Y-12532028D01*
X15271428Y-12532028D02*
X15285714Y-12503457D01*
X15285714Y-12503457D02*
X15300000Y-12489171D01*
X15300000Y-12489171D02*
X15328571Y-12474885D01*
X15557142Y-12774885D02*
X15557142Y-12474885D01*
X15728571Y-12774885D02*
X15599999Y-12603457D01*
X15728571Y-12474885D02*
X15557142Y-12646314D01*
X9417143Y-19659885D02*
X9617143Y-19659885D01*
X9617143Y-19659885D02*
X9488571Y-19959885D01*
X9874285Y-19659885D02*
X9731428Y-19659885D01*
X9731428Y-19659885D02*
X9717142Y-19802742D01*
X9717142Y-19802742D02*
X9731428Y-19788457D01*
X9731428Y-19788457D02*
X9760000Y-19774171D01*
X9760000Y-19774171D02*
X9831428Y-19774171D01*
X9831428Y-19774171D02*
X9860000Y-19788457D01*
X9860000Y-19788457D02*
X9874285Y-19802742D01*
X9874285Y-19802742D02*
X9888571Y-19831314D01*
X9888571Y-19831314D02*
X9888571Y-19902742D01*
X9888571Y-19902742D02*
X9874285Y-19931314D01*
X9874285Y-19931314D02*
X9860000Y-19945600D01*
X9860000Y-19945600D02*
X9831428Y-19959885D01*
X9831428Y-19959885D02*
X9760000Y-19959885D01*
X9760000Y-19959885D02*
X9731428Y-19945600D01*
X9731428Y-19945600D02*
X9717142Y-19931314D01*
X10188571Y-19959885D02*
X10088571Y-19817028D01*
X10017142Y-19959885D02*
X10017142Y-19659885D01*
X10017142Y-19659885D02*
X10131428Y-19659885D01*
X10131428Y-19659885D02*
X10159999Y-19674171D01*
X10159999Y-19674171D02*
X10174285Y-19688457D01*
X10174285Y-19688457D02*
X10188571Y-19717028D01*
X10188571Y-19717028D02*
X10188571Y-19759885D01*
X10188571Y-19759885D02*
X10174285Y-19788457D01*
X10174285Y-19788457D02*
X10159999Y-19802742D01*
X10159999Y-19802742D02*
X10131428Y-19817028D01*
X10131428Y-19817028D02*
X10017142Y-19817028D01*
X7314885Y-9242856D02*
X7314885Y-9042856D01*
X7314885Y-9042856D02*
X7614885Y-9171428D01*
X7314885Y-8785714D02*
X7314885Y-8928571D01*
X7314885Y-8928571D02*
X7457742Y-8942857D01*
X7457742Y-8942857D02*
X7443457Y-8928571D01*
X7443457Y-8928571D02*
X7429171Y-8900000D01*
X7429171Y-8900000D02*
X7429171Y-8828571D01*
X7429171Y-8828571D02*
X7443457Y-8800000D01*
X7443457Y-8800000D02*
X7457742Y-8785714D01*
X7457742Y-8785714D02*
X7486314Y-8771428D01*
X7486314Y-8771428D02*
X7557742Y-8771428D01*
X7557742Y-8771428D02*
X7586314Y-8785714D01*
X7586314Y-8785714D02*
X7600600Y-8800000D01*
X7600600Y-8800000D02*
X7614885Y-8828571D01*
X7614885Y-8828571D02*
X7614885Y-8900000D01*
X7614885Y-8900000D02*
X7600600Y-8928571D01*
X7600600Y-8928571D02*
X7586314Y-8942857D01*
X7614885Y-8471428D02*
X7472028Y-8571428D01*
X7614885Y-8642857D02*
X7314885Y-8642857D01*
X7314885Y-8642857D02*
X7314885Y-8528571D01*
X7314885Y-8528571D02*
X7329171Y-8500000D01*
X7329171Y-8500000D02*
X7343457Y-8485714D01*
X7343457Y-8485714D02*
X7372028Y-8471428D01*
X7372028Y-8471428D02*
X7414885Y-8471428D01*
X7414885Y-8471428D02*
X7443457Y-8485714D01*
X7443457Y-8485714D02*
X7457742Y-8500000D01*
X7457742Y-8500000D02*
X7472028Y-8528571D01*
X7472028Y-8528571D02*
X7472028Y-8642857D01*
X11889885Y-9232856D02*
X11889885Y-9204285D01*
X11889885Y-9204285D02*
X11904171Y-9175713D01*
X11904171Y-9175713D02*
X11918457Y-9161428D01*
X11918457Y-9161428D02*
X11947028Y-9147142D01*
X11947028Y-9147142D02*
X12004171Y-9132856D01*
X12004171Y-9132856D02*
X12075600Y-9132856D01*
X12075600Y-9132856D02*
X12132742Y-9147142D01*
X12132742Y-9147142D02*
X12161314Y-9161428D01*
X12161314Y-9161428D02*
X12175600Y-9175713D01*
X12175600Y-9175713D02*
X12189885Y-9204285D01*
X12189885Y-9204285D02*
X12189885Y-9232856D01*
X12189885Y-9232856D02*
X12175600Y-9261428D01*
X12175600Y-9261428D02*
X12161314Y-9275713D01*
X12161314Y-9275713D02*
X12132742Y-9289999D01*
X12132742Y-9289999D02*
X12075600Y-9304285D01*
X12075600Y-9304285D02*
X12004171Y-9304285D01*
X12004171Y-9304285D02*
X11947028Y-9289999D01*
X11947028Y-9289999D02*
X11918457Y-9275713D01*
X11918457Y-9275713D02*
X11904171Y-9261428D01*
X11904171Y-9261428D02*
X11889885Y-9232856D01*
X12161314Y-9004285D02*
X12175600Y-8989999D01*
X12175600Y-8989999D02*
X12189885Y-9004285D01*
X12189885Y-9004285D02*
X12175600Y-9018571D01*
X12175600Y-9018571D02*
X12161314Y-9004285D01*
X12161314Y-9004285D02*
X12189885Y-9004285D01*
X12189885Y-8704285D02*
X12189885Y-8875714D01*
X12189885Y-8789999D02*
X11889885Y-8789999D01*
X11889885Y-8789999D02*
X11932742Y-8818571D01*
X11932742Y-8818571D02*
X11961314Y-8847142D01*
X11961314Y-8847142D02*
X11975600Y-8875714D01*
X11989885Y-8447143D02*
X12189885Y-8447143D01*
X11989885Y-8575714D02*
X12147028Y-8575714D01*
X12147028Y-8575714D02*
X12175600Y-8561428D01*
X12175600Y-8561428D02*
X12189885Y-8532857D01*
X12189885Y-8532857D02*
X12189885Y-8490000D01*
X12189885Y-8490000D02*
X12175600Y-8461428D01*
X12175600Y-8461428D02*
X12161314Y-8447143D01*
X12032742Y-8204285D02*
X12032742Y-8304285D01*
X12189885Y-8304285D02*
X11889885Y-8304285D01*
X11889885Y-8304285D02*
X11889885Y-8161428D01*
X535713Y-25884885D02*
X535713Y-25584885D01*
X535713Y-25584885D02*
X635713Y-25799171D01*
X635713Y-25799171D02*
X735713Y-25584885D01*
X735713Y-25584885D02*
X735713Y-25884885D01*
X864284Y-25613457D02*
X878570Y-25599171D01*
X878570Y-25599171D02*
X907142Y-25584885D01*
X907142Y-25584885D02*
X978570Y-25584885D01*
X978570Y-25584885D02*
X1007142Y-25599171D01*
X1007142Y-25599171D02*
X1021427Y-25613457D01*
X1021427Y-25613457D02*
X1035713Y-25642028D01*
X1035713Y-25642028D02*
X1035713Y-25670600D01*
X1035713Y-25670600D02*
X1021427Y-25713457D01*
X1021427Y-25713457D02*
X849999Y-25884885D01*
X849999Y-25884885D02*
X1035713Y-25884885D01*
X1164284Y-25856314D02*
X1178570Y-25870600D01*
X1178570Y-25870600D02*
X1164284Y-25884885D01*
X1164284Y-25884885D02*
X1149998Y-25870600D01*
X1149998Y-25870600D02*
X1164284Y-25856314D01*
X1164284Y-25856314D02*
X1164284Y-25884885D01*
X1449998Y-25584885D02*
X1307141Y-25584885D01*
X1307141Y-25584885D02*
X1292855Y-25727742D01*
X1292855Y-25727742D02*
X1307141Y-25713457D01*
X1307141Y-25713457D02*
X1335713Y-25699171D01*
X1335713Y-25699171D02*
X1407141Y-25699171D01*
X1407141Y-25699171D02*
X1435713Y-25713457D01*
X1435713Y-25713457D02*
X1449998Y-25727742D01*
X1449998Y-25727742D02*
X1464284Y-25756314D01*
X1464284Y-25756314D02*
X1464284Y-25827742D01*
X1464284Y-25827742D02*
X1449998Y-25856314D01*
X1449998Y-25856314D02*
X1435713Y-25870600D01*
X1435713Y-25870600D02*
X1407141Y-25884885D01*
X1407141Y-25884885D02*
X1335713Y-25884885D01*
X1335713Y-25884885D02*
X1307141Y-25870600D01*
X1307141Y-25870600D02*
X1292855Y-25856314D01*
X1592855Y-25884885D02*
X1592855Y-25584885D01*
X1592855Y-25584885D02*
X1692855Y-25799171D01*
X1692855Y-25799171D02*
X1792855Y-25584885D01*
X1792855Y-25584885D02*
X1792855Y-25884885D01*
X1978569Y-25884885D02*
X1949998Y-25870600D01*
X1949998Y-25870600D02*
X1935712Y-25856314D01*
X1935712Y-25856314D02*
X1921426Y-25827742D01*
X1921426Y-25827742D02*
X1921426Y-25742028D01*
X1921426Y-25742028D02*
X1935712Y-25713457D01*
X1935712Y-25713457D02*
X1949998Y-25699171D01*
X1949998Y-25699171D02*
X1978569Y-25684885D01*
X1978569Y-25684885D02*
X2021426Y-25684885D01*
X2021426Y-25684885D02*
X2049998Y-25699171D01*
X2049998Y-25699171D02*
X2064284Y-25713457D01*
X2064284Y-25713457D02*
X2078569Y-25742028D01*
X2078569Y-25742028D02*
X2078569Y-25827742D01*
X2078569Y-25827742D02*
X2064284Y-25856314D01*
X2064284Y-25856314D02*
X2049998Y-25870600D01*
X2049998Y-25870600D02*
X2021426Y-25884885D01*
X2021426Y-25884885D02*
X1978569Y-25884885D01*
X2335713Y-25684885D02*
X2335713Y-25884885D01*
X2207141Y-25684885D02*
X2207141Y-25842028D01*
X2207141Y-25842028D02*
X2221427Y-25870600D01*
X2221427Y-25870600D02*
X2249998Y-25884885D01*
X2249998Y-25884885D02*
X2292855Y-25884885D01*
X2292855Y-25884885D02*
X2321427Y-25870600D01*
X2321427Y-25870600D02*
X2335713Y-25856314D01*
X2478570Y-25684885D02*
X2478570Y-25884885D01*
X2478570Y-25713457D02*
X2492856Y-25699171D01*
X2492856Y-25699171D02*
X2521427Y-25684885D01*
X2521427Y-25684885D02*
X2564284Y-25684885D01*
X2564284Y-25684885D02*
X2592856Y-25699171D01*
X2592856Y-25699171D02*
X2607142Y-25727742D01*
X2607142Y-25727742D02*
X2607142Y-25884885D01*
X2707142Y-25684885D02*
X2821428Y-25684885D01*
X2749999Y-25584885D02*
X2749999Y-25842028D01*
X2749999Y-25842028D02*
X2764285Y-25870600D01*
X2764285Y-25870600D02*
X2792856Y-25884885D01*
X2792856Y-25884885D02*
X2821428Y-25884885D01*
X2921428Y-25884885D02*
X2921428Y-25684885D01*
X2921428Y-25584885D02*
X2907142Y-25599171D01*
X2907142Y-25599171D02*
X2921428Y-25613457D01*
X2921428Y-25613457D02*
X2935714Y-25599171D01*
X2935714Y-25599171D02*
X2921428Y-25584885D01*
X2921428Y-25584885D02*
X2921428Y-25613457D01*
X3064285Y-25684885D02*
X3064285Y-25884885D01*
X3064285Y-25713457D02*
X3078571Y-25699171D01*
X3078571Y-25699171D02*
X3107142Y-25684885D01*
X3107142Y-25684885D02*
X3149999Y-25684885D01*
X3149999Y-25684885D02*
X3178571Y-25699171D01*
X3178571Y-25699171D02*
X3192857Y-25727742D01*
X3192857Y-25727742D02*
X3192857Y-25884885D01*
X3464286Y-25684885D02*
X3464286Y-25927742D01*
X3464286Y-25927742D02*
X3450000Y-25956314D01*
X3450000Y-25956314D02*
X3435714Y-25970600D01*
X3435714Y-25970600D02*
X3407143Y-25984885D01*
X3407143Y-25984885D02*
X3364286Y-25984885D01*
X3364286Y-25984885D02*
X3335714Y-25970600D01*
X3464286Y-25870600D02*
X3435714Y-25884885D01*
X3435714Y-25884885D02*
X3378571Y-25884885D01*
X3378571Y-25884885D02*
X3350000Y-25870600D01*
X3350000Y-25870600D02*
X3335714Y-25856314D01*
X3335714Y-25856314D02*
X3321428Y-25827742D01*
X3321428Y-25827742D02*
X3321428Y-25742028D01*
X3321428Y-25742028D02*
X3335714Y-25713457D01*
X3335714Y-25713457D02*
X3350000Y-25699171D01*
X3350000Y-25699171D02*
X3378571Y-25684885D01*
X3378571Y-25684885D02*
X3435714Y-25684885D01*
X3435714Y-25684885D02*
X3464286Y-25699171D01*
X3607143Y-25884885D02*
X3607143Y-25584885D01*
X3607143Y-25727742D02*
X3778572Y-25727742D01*
X3778572Y-25884885D02*
X3778572Y-25584885D01*
X3964286Y-25884885D02*
X3935715Y-25870600D01*
X3935715Y-25870600D02*
X3921429Y-25856314D01*
X3921429Y-25856314D02*
X3907143Y-25827742D01*
X3907143Y-25827742D02*
X3907143Y-25742028D01*
X3907143Y-25742028D02*
X3921429Y-25713457D01*
X3921429Y-25713457D02*
X3935715Y-25699171D01*
X3935715Y-25699171D02*
X3964286Y-25684885D01*
X3964286Y-25684885D02*
X4007143Y-25684885D01*
X4007143Y-25684885D02*
X4035715Y-25699171D01*
X4035715Y-25699171D02*
X4050001Y-25713457D01*
X4050001Y-25713457D02*
X4064286Y-25742028D01*
X4064286Y-25742028D02*
X4064286Y-25827742D01*
X4064286Y-25827742D02*
X4050001Y-25856314D01*
X4050001Y-25856314D02*
X4035715Y-25870600D01*
X4035715Y-25870600D02*
X4007143Y-25884885D01*
X4007143Y-25884885D02*
X3964286Y-25884885D01*
X4235715Y-25884885D02*
X4207144Y-25870600D01*
X4207144Y-25870600D02*
X4192858Y-25842028D01*
X4192858Y-25842028D02*
X4192858Y-25584885D01*
X4464287Y-25870600D02*
X4435715Y-25884885D01*
X4435715Y-25884885D02*
X4378573Y-25884885D01*
X4378573Y-25884885D02*
X4350001Y-25870600D01*
X4350001Y-25870600D02*
X4335715Y-25842028D01*
X4335715Y-25842028D02*
X4335715Y-25727742D01*
X4335715Y-25727742D02*
X4350001Y-25699171D01*
X4350001Y-25699171D02*
X4378573Y-25684885D01*
X4378573Y-25684885D02*
X4435715Y-25684885D01*
X4435715Y-25684885D02*
X4464287Y-25699171D01*
X4464287Y-25699171D02*
X4478573Y-25727742D01*
X4478573Y-25727742D02*
X4478573Y-25756314D01*
X4478573Y-25756314D02*
X4335715Y-25784885D01*
X8237143Y-19694885D02*
X8437143Y-19694885D01*
X8437143Y-19694885D02*
X8308571Y-19994885D01*
X8694285Y-19694885D02*
X8551428Y-19694885D01*
X8551428Y-19694885D02*
X8537142Y-19837742D01*
X8537142Y-19837742D02*
X8551428Y-19823457D01*
X8551428Y-19823457D02*
X8580000Y-19809171D01*
X8580000Y-19809171D02*
X8651428Y-19809171D01*
X8651428Y-19809171D02*
X8680000Y-19823457D01*
X8680000Y-19823457D02*
X8694285Y-19837742D01*
X8694285Y-19837742D02*
X8708571Y-19866314D01*
X8708571Y-19866314D02*
X8708571Y-19937742D01*
X8708571Y-19937742D02*
X8694285Y-19966314D01*
X8694285Y-19966314D02*
X8680000Y-19980600D01*
X8680000Y-19980600D02*
X8651428Y-19994885D01*
X8651428Y-19994885D02*
X8580000Y-19994885D01*
X8580000Y-19994885D02*
X8551428Y-19980600D01*
X8551428Y-19980600D02*
X8537142Y-19966314D01*
X9008571Y-19994885D02*
X8908571Y-19852028D01*
X8837142Y-19994885D02*
X8837142Y-19694885D01*
X8837142Y-19694885D02*
X8951428Y-19694885D01*
X8951428Y-19694885D02*
X8979999Y-19709171D01*
X8979999Y-19709171D02*
X8994285Y-19723457D01*
X8994285Y-19723457D02*
X9008571Y-19752028D01*
X9008571Y-19752028D02*
X9008571Y-19794885D01*
X9008571Y-19794885D02*
X8994285Y-19823457D01*
X8994285Y-19823457D02*
X8979999Y-19837742D01*
X8979999Y-19837742D02*
X8951428Y-19852028D01*
X8951428Y-19852028D02*
X8837142Y-19852028D01*
D12*
X22500000Y-18825000D03*
X32500000Y-18825000D03*
X27500000Y-16800000D03*
X27500000Y-8200000D03*
X22500000Y-6175000D03*
X32500000Y-6075000D03*
X25000000Y-3770000D03*
X27500000Y-3770000D03*
X30000000Y-3770000D03*
X18770000Y-10000000D03*
X18770000Y-12500000D03*
X18770000Y-15000000D03*
X33250000Y-15750000D03*
X37750000Y-15750000D03*
X33250000Y-9250000D03*
X37750000Y-9250000D03*
X6950000Y-23250000D03*
X8950000Y-23250000D03*
X10950000Y-23250000D03*
X12950000Y-23250000D03*
X52500000Y-2550000D03*
X2500000Y-22500000D03*
M02*
