%TF.GenerationSoftware,KiCad,Pcbnew,8.0.4-8.0.4-0~ubuntu24.04.1*%
%TF.CreationDate,2024-09-09T19:26:49+01:00*%
%TF.ProjectId,LED,4c45442e-6b69-4636-9164-5f7063625858,rev?*%
%TF.SameCoordinates,Original*%
%TF.FileFunction,Legend,Bot*%
%TF.FilePolarity,Positive*%
%FSLAX46Y46*%
G04 Gerber Fmt 4.6, Leading zero omitted, Abs format (unit mm)*
G04 Created by KiCad (PCBNEW 8.0.4-8.0.4-0~ubuntu24.04.1) date 2024-09-09 19:26:49*
%MOMM*%
%LPD*%
G01*
G04 APERTURE LIST*
%ADD10C,0.150000*%
%ADD11C,0.250000*%
G04 APERTURE END LIST*
D10*
X11356200Y-18651064D02*
X11394295Y-18765350D01*
X11394295Y-18765350D02*
X11394295Y-18955826D01*
X11394295Y-18955826D02*
X11356200Y-19032017D01*
X11356200Y-19032017D02*
X11318104Y-19070112D01*
X11318104Y-19070112D02*
X11241914Y-19108207D01*
X11241914Y-19108207D02*
X11165723Y-19108207D01*
X11165723Y-19108207D02*
X11089533Y-19070112D01*
X11089533Y-19070112D02*
X11051438Y-19032017D01*
X11051438Y-19032017D02*
X11013342Y-18955826D01*
X11013342Y-18955826D02*
X10975247Y-18803445D01*
X10975247Y-18803445D02*
X10937152Y-18727255D01*
X10937152Y-18727255D02*
X10899057Y-18689160D01*
X10899057Y-18689160D02*
X10822866Y-18651064D01*
X10822866Y-18651064D02*
X10746676Y-18651064D01*
X10746676Y-18651064D02*
X10670485Y-18689160D01*
X10670485Y-18689160D02*
X10632390Y-18727255D01*
X10632390Y-18727255D02*
X10594295Y-18803445D01*
X10594295Y-18803445D02*
X10594295Y-18993922D01*
X10594295Y-18993922D02*
X10632390Y-19108207D01*
X10594295Y-19374874D02*
X11394295Y-19565350D01*
X11394295Y-19565350D02*
X10822866Y-19717731D01*
X10822866Y-19717731D02*
X11394295Y-19870112D01*
X11394295Y-19870112D02*
X10594295Y-20060589D01*
X11394295Y-20365351D02*
X10594295Y-20365351D01*
X10594295Y-20365351D02*
X10594295Y-20555827D01*
X10594295Y-20555827D02*
X10632390Y-20670113D01*
X10632390Y-20670113D02*
X10708580Y-20746303D01*
X10708580Y-20746303D02*
X10784771Y-20784398D01*
X10784771Y-20784398D02*
X10937152Y-20822494D01*
X10937152Y-20822494D02*
X11051438Y-20822494D01*
X11051438Y-20822494D02*
X11203819Y-20784398D01*
X11203819Y-20784398D02*
X11280009Y-20746303D01*
X11280009Y-20746303D02*
X11356200Y-20670113D01*
X11356200Y-20670113D02*
X11394295Y-20555827D01*
X11394295Y-20555827D02*
X11394295Y-20365351D01*
X11394295Y-21165351D02*
X10594295Y-21165351D01*
X10594295Y-21698684D02*
X10594295Y-21851065D01*
X10594295Y-21851065D02*
X10632390Y-21927255D01*
X10632390Y-21927255D02*
X10708580Y-22003446D01*
X10708580Y-22003446D02*
X10860961Y-22041541D01*
X10860961Y-22041541D02*
X11127628Y-22041541D01*
X11127628Y-22041541D02*
X11280009Y-22003446D01*
X11280009Y-22003446D02*
X11356200Y-21927255D01*
X11356200Y-21927255D02*
X11394295Y-21851065D01*
X11394295Y-21851065D02*
X11394295Y-21698684D01*
X11394295Y-21698684D02*
X11356200Y-21622493D01*
X11356200Y-21622493D02*
X11280009Y-21546303D01*
X11280009Y-21546303D02*
X11127628Y-21508207D01*
X11127628Y-21508207D02*
X10860961Y-21508207D01*
X10860961Y-21508207D02*
X10708580Y-21546303D01*
X10708580Y-21546303D02*
X10632390Y-21622493D01*
X10632390Y-21622493D02*
X10594295Y-21698684D01*
X6569295Y-21170112D02*
X6569295Y-20789160D01*
X6569295Y-20789160D02*
X6950247Y-20751064D01*
X6950247Y-20751064D02*
X6912152Y-20789160D01*
X6912152Y-20789160D02*
X6874057Y-20865350D01*
X6874057Y-20865350D02*
X6874057Y-21055826D01*
X6874057Y-21055826D02*
X6912152Y-21132017D01*
X6912152Y-21132017D02*
X6950247Y-21170112D01*
X6950247Y-21170112D02*
X7026438Y-21208207D01*
X7026438Y-21208207D02*
X7216914Y-21208207D01*
X7216914Y-21208207D02*
X7293104Y-21170112D01*
X7293104Y-21170112D02*
X7331200Y-21132017D01*
X7331200Y-21132017D02*
X7369295Y-21055826D01*
X7369295Y-21055826D02*
X7369295Y-20865350D01*
X7369295Y-20865350D02*
X7331200Y-20789160D01*
X7331200Y-20789160D02*
X7293104Y-20751064D01*
X6569295Y-21436779D02*
X7369295Y-21703446D01*
X7369295Y-21703446D02*
X6569295Y-21970112D01*
D11*
X22437618Y-23516099D02*
X22913808Y-23516099D01*
X22913808Y-23516099D02*
X22913808Y-22516099D01*
X22104284Y-22992289D02*
X21770951Y-22992289D01*
X21628094Y-23516099D02*
X22104284Y-23516099D01*
X22104284Y-23516099D02*
X22104284Y-22516099D01*
X22104284Y-22516099D02*
X21628094Y-22516099D01*
X21199522Y-23516099D02*
X21199522Y-22516099D01*
X21199522Y-22516099D02*
X20961427Y-22516099D01*
X20961427Y-22516099D02*
X20818570Y-22563718D01*
X20818570Y-22563718D02*
X20723332Y-22658956D01*
X20723332Y-22658956D02*
X20675713Y-22754194D01*
X20675713Y-22754194D02*
X20628094Y-22944670D01*
X20628094Y-22944670D02*
X20628094Y-23087527D01*
X20628094Y-23087527D02*
X20675713Y-23278003D01*
X20675713Y-23278003D02*
X20723332Y-23373241D01*
X20723332Y-23373241D02*
X20818570Y-23468480D01*
X20818570Y-23468480D02*
X20961427Y-23516099D01*
X20961427Y-23516099D02*
X21199522Y-23516099D01*
X19532855Y-22849432D02*
X19294760Y-23516099D01*
X19294760Y-23516099D02*
X19056665Y-22849432D01*
X18485236Y-22516099D02*
X18389998Y-22516099D01*
X18389998Y-22516099D02*
X18294760Y-22563718D01*
X18294760Y-22563718D02*
X18247141Y-22611337D01*
X18247141Y-22611337D02*
X18199522Y-22706575D01*
X18199522Y-22706575D02*
X18151903Y-22897051D01*
X18151903Y-22897051D02*
X18151903Y-23135146D01*
X18151903Y-23135146D02*
X18199522Y-23325622D01*
X18199522Y-23325622D02*
X18247141Y-23420860D01*
X18247141Y-23420860D02*
X18294760Y-23468480D01*
X18294760Y-23468480D02*
X18389998Y-23516099D01*
X18389998Y-23516099D02*
X18485236Y-23516099D01*
X18485236Y-23516099D02*
X18580474Y-23468480D01*
X18580474Y-23468480D02*
X18628093Y-23420860D01*
X18628093Y-23420860D02*
X18675712Y-23325622D01*
X18675712Y-23325622D02*
X18723331Y-23135146D01*
X18723331Y-23135146D02*
X18723331Y-22897051D01*
X18723331Y-22897051D02*
X18675712Y-22706575D01*
X18675712Y-22706575D02*
X18628093Y-22611337D01*
X18628093Y-22611337D02*
X18580474Y-22563718D01*
X18580474Y-22563718D02*
X18485236Y-22516099D01*
X17723331Y-23420860D02*
X17675712Y-23468480D01*
X17675712Y-23468480D02*
X17723331Y-23516099D01*
X17723331Y-23516099D02*
X17770950Y-23468480D01*
X17770950Y-23468480D02*
X17723331Y-23420860D01*
X17723331Y-23420860D02*
X17723331Y-23516099D01*
X16723332Y-23516099D02*
X17294760Y-23516099D01*
X17009046Y-23516099D02*
X17009046Y-22516099D01*
X17009046Y-22516099D02*
X17104284Y-22658956D01*
X17104284Y-22658956D02*
X17199522Y-22754194D01*
X17199522Y-22754194D02*
X17294760Y-22801813D01*
M02*
