%TF.GenerationSoftware,KiCad,Pcbnew,8.0.7*%
%TF.CreationDate,2025-01-15T18:16:11+00:00*%
%TF.ProjectId,Battery,42617474-6572-4792-9e6b-696361645f70,rev?*%
%TF.SameCoordinates,Original*%
%TF.FileFunction,Legend,Top*%
%TF.FilePolarity,Positive*%
%FSLAX46Y46*%
G04 Gerber Fmt 4.6, Leading zero omitted, Abs format (unit mm)*
G04 Created by KiCad (PCBNEW 8.0.7) date 2025-01-15 18:16:11*
%MOMM*%
%LPD*%
G01*
G04 APERTURE LIST*
%ADD10C,0.250000*%
%ADD11C,0.100000*%
%ADD12C,0.150000*%
%ADD13C,0.120000*%
%ADD14O,0.700000X1.500000*%
%ADD15O,0.900000X0.700000*%
%ADD16C,0.350000*%
%ADD17O,0.600000X1.200000*%
G04 APERTURE END LIST*
D10*
X39476668Y-18210146D02*
X40238573Y-18210146D01*
X30418718Y-8460146D02*
X31180623Y-8460146D01*
X30418718Y-18215226D02*
X31180623Y-18215226D01*
X39505239Y-5091099D02*
X39695715Y-5091099D01*
X39695715Y-5091099D02*
X39790953Y-5138718D01*
X39790953Y-5138718D02*
X39886191Y-5233956D01*
X39886191Y-5233956D02*
X39933810Y-5424432D01*
X39933810Y-5424432D02*
X39933810Y-5757765D01*
X39933810Y-5757765D02*
X39886191Y-5948241D01*
X39886191Y-5948241D02*
X39790953Y-6043480D01*
X39790953Y-6043480D02*
X39695715Y-6091099D01*
X39695715Y-6091099D02*
X39505239Y-6091099D01*
X39505239Y-6091099D02*
X39410001Y-6043480D01*
X39410001Y-6043480D02*
X39314763Y-5948241D01*
X39314763Y-5948241D02*
X39267144Y-5757765D01*
X39267144Y-5757765D02*
X39267144Y-5424432D01*
X39267144Y-5424432D02*
X39314763Y-5233956D01*
X39314763Y-5233956D02*
X39410001Y-5138718D01*
X39410001Y-5138718D02*
X39505239Y-5091099D01*
X40695715Y-5567289D02*
X40362382Y-5567289D01*
X40362382Y-6091099D02*
X40362382Y-5091099D01*
X40362382Y-5091099D02*
X40838572Y-5091099D01*
X41552858Y-5567289D02*
X41219525Y-5567289D01*
X41219525Y-6091099D02*
X41219525Y-5091099D01*
X41219525Y-5091099D02*
X41695715Y-5091099D01*
X37476668Y-18210146D02*
X38238573Y-18210146D01*
X37857620Y-18591099D02*
X37857620Y-17829194D01*
X45430622Y-5091099D02*
X45621098Y-5091099D01*
X45621098Y-5091099D02*
X45716336Y-5138718D01*
X45716336Y-5138718D02*
X45811574Y-5233956D01*
X45811574Y-5233956D02*
X45859193Y-5424432D01*
X45859193Y-5424432D02*
X45859193Y-5757765D01*
X45859193Y-5757765D02*
X45811574Y-5948241D01*
X45811574Y-5948241D02*
X45716336Y-6043480D01*
X45716336Y-6043480D02*
X45621098Y-6091099D01*
X45621098Y-6091099D02*
X45430622Y-6091099D01*
X45430622Y-6091099D02*
X45335384Y-6043480D01*
X45335384Y-6043480D02*
X45240146Y-5948241D01*
X45240146Y-5948241D02*
X45192527Y-5757765D01*
X45192527Y-5757765D02*
X45192527Y-5424432D01*
X45192527Y-5424432D02*
X45240146Y-5233956D01*
X45240146Y-5233956D02*
X45335384Y-5138718D01*
X45335384Y-5138718D02*
X45430622Y-5091099D01*
X46287765Y-6091099D02*
X46287765Y-5091099D01*
X46287765Y-5091099D02*
X46859193Y-6091099D01*
X46859193Y-6091099D02*
X46859193Y-5091099D01*
X43041099Y-18042380D02*
X43041099Y-17851904D01*
X43041099Y-17851904D02*
X43088718Y-17756666D01*
X43088718Y-17756666D02*
X43183956Y-17661428D01*
X43183956Y-17661428D02*
X43374432Y-17613809D01*
X43374432Y-17613809D02*
X43707765Y-17613809D01*
X43707765Y-17613809D02*
X43898241Y-17661428D01*
X43898241Y-17661428D02*
X43993480Y-17756666D01*
X43993480Y-17756666D02*
X44041099Y-17851904D01*
X44041099Y-17851904D02*
X44041099Y-18042380D01*
X44041099Y-18042380D02*
X43993480Y-18137618D01*
X43993480Y-18137618D02*
X43898241Y-18232856D01*
X43898241Y-18232856D02*
X43707765Y-18280475D01*
X43707765Y-18280475D02*
X43374432Y-18280475D01*
X43374432Y-18280475D02*
X43183956Y-18232856D01*
X43183956Y-18232856D02*
X43088718Y-18137618D01*
X43088718Y-18137618D02*
X43041099Y-18042380D01*
X43374432Y-17185237D02*
X44041099Y-17185237D01*
X43469670Y-17185237D02*
X43422051Y-17137618D01*
X43422051Y-17137618D02*
X43374432Y-17042380D01*
X43374432Y-17042380D02*
X43374432Y-16899523D01*
X43374432Y-16899523D02*
X43422051Y-16804285D01*
X43422051Y-16804285D02*
X43517289Y-16756666D01*
X43517289Y-16756666D02*
X44041099Y-16756666D01*
X44041099Y-16137618D02*
X43993480Y-16232856D01*
X43993480Y-16232856D02*
X43898241Y-16280475D01*
X43898241Y-16280475D02*
X43041099Y-16280475D01*
X43374432Y-15851903D02*
X44041099Y-15613808D01*
X43374432Y-15375713D02*
X44041099Y-15613808D01*
X44041099Y-15613808D02*
X44279194Y-15709046D01*
X44279194Y-15709046D02*
X44326813Y-15756665D01*
X44326813Y-15756665D02*
X44374432Y-15851903D01*
X43993480Y-13804284D02*
X44041099Y-13899522D01*
X44041099Y-13899522D02*
X44041099Y-14089998D01*
X44041099Y-14089998D02*
X43993480Y-14185236D01*
X43993480Y-14185236D02*
X43945860Y-14232855D01*
X43945860Y-14232855D02*
X43850622Y-14280474D01*
X43850622Y-14280474D02*
X43564908Y-14280474D01*
X43564908Y-14280474D02*
X43469670Y-14232855D01*
X43469670Y-14232855D02*
X43422051Y-14185236D01*
X43422051Y-14185236D02*
X43374432Y-14089998D01*
X43374432Y-14089998D02*
X43374432Y-13899522D01*
X43374432Y-13899522D02*
X43422051Y-13804284D01*
X44041099Y-13232855D02*
X43993480Y-13328093D01*
X43993480Y-13328093D02*
X43945860Y-13375712D01*
X43945860Y-13375712D02*
X43850622Y-13423331D01*
X43850622Y-13423331D02*
X43564908Y-13423331D01*
X43564908Y-13423331D02*
X43469670Y-13375712D01*
X43469670Y-13375712D02*
X43422051Y-13328093D01*
X43422051Y-13328093D02*
X43374432Y-13232855D01*
X43374432Y-13232855D02*
X43374432Y-13089998D01*
X43374432Y-13089998D02*
X43422051Y-12994760D01*
X43422051Y-12994760D02*
X43469670Y-12947141D01*
X43469670Y-12947141D02*
X43564908Y-12899522D01*
X43564908Y-12899522D02*
X43850622Y-12899522D01*
X43850622Y-12899522D02*
X43945860Y-12947141D01*
X43945860Y-12947141D02*
X43993480Y-12994760D01*
X43993480Y-12994760D02*
X44041099Y-13089998D01*
X44041099Y-13089998D02*
X44041099Y-13232855D01*
X43374432Y-12470950D02*
X44041099Y-12470950D01*
X43469670Y-12470950D02*
X43422051Y-12423331D01*
X43422051Y-12423331D02*
X43374432Y-12328093D01*
X43374432Y-12328093D02*
X43374432Y-12185236D01*
X43374432Y-12185236D02*
X43422051Y-12089998D01*
X43422051Y-12089998D02*
X43517289Y-12042379D01*
X43517289Y-12042379D02*
X44041099Y-12042379D01*
X43374432Y-11566188D02*
X44041099Y-11566188D01*
X43469670Y-11566188D02*
X43422051Y-11518569D01*
X43422051Y-11518569D02*
X43374432Y-11423331D01*
X43374432Y-11423331D02*
X43374432Y-11280474D01*
X43374432Y-11280474D02*
X43422051Y-11185236D01*
X43422051Y-11185236D02*
X43517289Y-11137617D01*
X43517289Y-11137617D02*
X44041099Y-11137617D01*
X43993480Y-10280474D02*
X44041099Y-10375712D01*
X44041099Y-10375712D02*
X44041099Y-10566188D01*
X44041099Y-10566188D02*
X43993480Y-10661426D01*
X43993480Y-10661426D02*
X43898241Y-10709045D01*
X43898241Y-10709045D02*
X43517289Y-10709045D01*
X43517289Y-10709045D02*
X43422051Y-10661426D01*
X43422051Y-10661426D02*
X43374432Y-10566188D01*
X43374432Y-10566188D02*
X43374432Y-10375712D01*
X43374432Y-10375712D02*
X43422051Y-10280474D01*
X43422051Y-10280474D02*
X43517289Y-10232855D01*
X43517289Y-10232855D02*
X43612527Y-10232855D01*
X43612527Y-10232855D02*
X43707765Y-10709045D01*
X43993480Y-9375712D02*
X44041099Y-9470950D01*
X44041099Y-9470950D02*
X44041099Y-9661426D01*
X44041099Y-9661426D02*
X43993480Y-9756664D01*
X43993480Y-9756664D02*
X43945860Y-9804283D01*
X43945860Y-9804283D02*
X43850622Y-9851902D01*
X43850622Y-9851902D02*
X43564908Y-9851902D01*
X43564908Y-9851902D02*
X43469670Y-9804283D01*
X43469670Y-9804283D02*
X43422051Y-9756664D01*
X43422051Y-9756664D02*
X43374432Y-9661426D01*
X43374432Y-9661426D02*
X43374432Y-9470950D01*
X43374432Y-9470950D02*
X43422051Y-9375712D01*
X43374432Y-9089997D02*
X43374432Y-8709045D01*
X43041099Y-8947140D02*
X43898241Y-8947140D01*
X43898241Y-8947140D02*
X43993480Y-8899521D01*
X43993480Y-8899521D02*
X44041099Y-8804283D01*
X44041099Y-8804283D02*
X44041099Y-8709045D01*
X37476668Y-8455066D02*
X38238573Y-8455066D01*
X37857620Y-8836019D02*
X37857620Y-8074114D01*
X45758139Y-16286192D02*
X45758139Y-16857620D01*
X45758139Y-16571906D02*
X44758139Y-16571906D01*
X44758139Y-16571906D02*
X44900996Y-16667144D01*
X44900996Y-16667144D02*
X44996234Y-16762382D01*
X44996234Y-16762382D02*
X45043853Y-16857620D01*
X45758139Y-15095715D02*
X44758139Y-15095715D01*
X45139091Y-15095715D02*
X45091472Y-15000477D01*
X45091472Y-15000477D02*
X45091472Y-14810001D01*
X45091472Y-14810001D02*
X45139091Y-14714763D01*
X45139091Y-14714763D02*
X45186710Y-14667144D01*
X45186710Y-14667144D02*
X45281948Y-14619525D01*
X45281948Y-14619525D02*
X45567662Y-14619525D01*
X45567662Y-14619525D02*
X45662900Y-14667144D01*
X45662900Y-14667144D02*
X45710520Y-14714763D01*
X45710520Y-14714763D02*
X45758139Y-14810001D01*
X45758139Y-14810001D02*
X45758139Y-15000477D01*
X45758139Y-15000477D02*
X45710520Y-15095715D01*
X45758139Y-13762382D02*
X45234329Y-13762382D01*
X45234329Y-13762382D02*
X45139091Y-13810001D01*
X45139091Y-13810001D02*
X45091472Y-13905239D01*
X45091472Y-13905239D02*
X45091472Y-14095715D01*
X45091472Y-14095715D02*
X45139091Y-14190953D01*
X45710520Y-13762382D02*
X45758139Y-13857620D01*
X45758139Y-13857620D02*
X45758139Y-14095715D01*
X45758139Y-14095715D02*
X45710520Y-14190953D01*
X45710520Y-14190953D02*
X45615281Y-14238572D01*
X45615281Y-14238572D02*
X45520043Y-14238572D01*
X45520043Y-14238572D02*
X45424805Y-14190953D01*
X45424805Y-14190953D02*
X45377186Y-14095715D01*
X45377186Y-14095715D02*
X45377186Y-13857620D01*
X45377186Y-13857620D02*
X45329567Y-13762382D01*
X45091472Y-13429048D02*
X45091472Y-13048096D01*
X44758139Y-13286191D02*
X45615281Y-13286191D01*
X45615281Y-13286191D02*
X45710520Y-13238572D01*
X45710520Y-13238572D02*
X45758139Y-13143334D01*
X45758139Y-13143334D02*
X45758139Y-13048096D01*
X45091472Y-12857619D02*
X45091472Y-12476667D01*
X44758139Y-12714762D02*
X45615281Y-12714762D01*
X45615281Y-12714762D02*
X45710520Y-12667143D01*
X45710520Y-12667143D02*
X45758139Y-12571905D01*
X45758139Y-12571905D02*
X45758139Y-12476667D01*
X45710520Y-11762381D02*
X45758139Y-11857619D01*
X45758139Y-11857619D02*
X45758139Y-12048095D01*
X45758139Y-12048095D02*
X45710520Y-12143333D01*
X45710520Y-12143333D02*
X45615281Y-12190952D01*
X45615281Y-12190952D02*
X45234329Y-12190952D01*
X45234329Y-12190952D02*
X45139091Y-12143333D01*
X45139091Y-12143333D02*
X45091472Y-12048095D01*
X45091472Y-12048095D02*
X45091472Y-11857619D01*
X45091472Y-11857619D02*
X45139091Y-11762381D01*
X45139091Y-11762381D02*
X45234329Y-11714762D01*
X45234329Y-11714762D02*
X45329567Y-11714762D01*
X45329567Y-11714762D02*
X45424805Y-12190952D01*
X45758139Y-11286190D02*
X45091472Y-11286190D01*
X45281948Y-11286190D02*
X45186710Y-11238571D01*
X45186710Y-11238571D02*
X45139091Y-11190952D01*
X45139091Y-11190952D02*
X45091472Y-11095714D01*
X45091472Y-11095714D02*
X45091472Y-11000476D01*
X45091472Y-10762380D02*
X45758139Y-10524285D01*
X45091472Y-10286190D02*
X45758139Y-10524285D01*
X45758139Y-10524285D02*
X45996234Y-10619523D01*
X45996234Y-10619523D02*
X46043853Y-10667142D01*
X46043853Y-10667142D02*
X46091472Y-10762380D01*
X45662900Y-9905237D02*
X45710520Y-9857618D01*
X45710520Y-9857618D02*
X45758139Y-9905237D01*
X45758139Y-9905237D02*
X45710520Y-9952856D01*
X45710520Y-9952856D02*
X45662900Y-9905237D01*
X45662900Y-9905237D02*
X45758139Y-9905237D01*
X45377186Y-9905237D02*
X44805758Y-9952856D01*
X44805758Y-9952856D02*
X44758139Y-9905237D01*
X44758139Y-9905237D02*
X44805758Y-9857618D01*
X44805758Y-9857618D02*
X45377186Y-9905237D01*
X45377186Y-9905237D02*
X44758139Y-9905237D01*
X32468718Y-8460146D02*
X33230623Y-8460146D01*
X32849670Y-8841099D02*
X32849670Y-8079194D01*
X32468718Y-18215226D02*
X33230623Y-18215226D01*
X32849670Y-18596179D02*
X32849670Y-17834274D01*
X39476668Y-8455066D02*
X40238573Y-8455066D01*
D11*
%TO.C,D2*%
X21325000Y-1800000D02*
X21675000Y-1800000D01*
X21500000Y-1625000D02*
X21500000Y-1975000D01*
D12*
%TO.C,SW1*%
X41170000Y-100000D02*
X38870000Y-100000D01*
X47470000Y-100000D02*
X45270000Y-100000D01*
X47470000Y-4400000D02*
X38870000Y-4400000D01*
D11*
%TO.C,J5*%
X29600000Y-15470000D02*
X34100000Y-15470000D01*
X29600000Y-16200000D02*
X29600000Y-10200000D01*
X34100000Y-10200000D02*
X29600000Y-10200000D01*
X34100000Y-16200000D02*
X34100000Y-10200000D01*
D13*
%TO.C,IC1*%
X17890990Y-7304700D02*
G75*
G02*
X17607010Y-7304700I-141990J0D01*
G01*
X17607010Y-7304700D02*
G75*
G02*
X17890990Y-7304700I141990J0D01*
G01*
%TO.C,U8*%
X26132500Y-6075000D02*
G75*
G02*
X25732500Y-6075000I-200000J0D01*
G01*
X25732500Y-6075000D02*
G75*
G02*
X26132500Y-6075000I200000J0D01*
G01*
%TO.C,U3*%
X17342500Y-19475000D02*
X16862500Y-19475000D01*
X17102500Y-19145000D01*
X17342500Y-19475000D01*
G36*
X17342500Y-19475000D02*
G01*
X16862500Y-19475000D01*
X17102500Y-19145000D01*
X17342500Y-19475000D01*
G37*
D11*
%TO.C,J8*%
X36600000Y-15470000D02*
X41100000Y-15470000D01*
X36600000Y-16200000D02*
X36600000Y-10200000D01*
X41100000Y-10200000D02*
X36600000Y-10200000D01*
X41100000Y-16200000D02*
X41100000Y-10200000D01*
D13*
%TO.C,L1*%
X23740000Y-17436252D02*
X23740000Y-16913748D01*
X25960000Y-17436252D02*
X25960000Y-16913748D01*
%TD*%
D14*
X47250000Y-2400000D03*
X38950000Y-2400000D03*
D15*
X45100000Y-2400000D03*
X43100000Y-2400000D03*
X41100000Y-2400000D03*
D16*
X32850000Y-16450000D03*
X30850000Y-16450000D03*
D17*
X10930000Y-1500000D03*
X10930000Y-5300000D03*
X19570000Y-1500000D03*
X19570000Y-5300000D03*
D16*
X5850000Y-23600000D03*
X7850000Y-23600000D03*
X9850000Y-23600000D03*
X11850000Y-23600000D03*
X51500000Y-2550000D03*
X39850000Y-16450000D03*
X37850000Y-16450000D03*
X2500000Y-22500000D03*
M02*
