M48
; DRILL file {KiCad 8.0.7} date 2025-01-15T18:16:11+0000
; FORMAT={-:-/ absolute / inch / decimal}
; #@! TF.CreationDate,2025-01-15T18:16:11+00:00
; #@! TF.GenerationSoftware,Kicad,Pcbnew,8.0.7
; #@! TF.FileFunction,Plated,1,2,PTH
FMAT,2
INCH
; #@! TA.AperFunction,Plated,PTH,ViaDrill
T1C0.0118
; #@! TA.AperFunction,Plated,PTH,ComponentDrill
T2C0.0236
; #@! TA.AperFunction,Plated,PTH,ComponentDrill
T3C0.0276
; #@! TA.AperFunction,Plated,PTH,ComponentDrill
T4C0.0295
%
G90
G05
T1
X-0.002Y-0.4439
X0.0098Y-0.7431
X0.0659Y-0.0817
X0.0876Y-0.3327
X0.1565Y-0.3455
X0.1693Y-0.5039
X0.1713Y-0.561
X0.189Y-0.7254
X0.2215Y-0.247
X0.2244Y-0.8199
X0.2697Y-0.1378
X0.2707Y-0.1841
X0.3159Y-0.2421
X0.3159Y-0.3421
X0.3159Y-0.4421
X0.3268Y-0.7844
X0.3524Y-0.2874
X0.3661Y-0.7008
X0.3727Y-0.6149
X0.373Y-0.5098
X0.3858Y-0.1348
X0.3858Y-0.1781
X0.4301Y-0.2638
X0.4488Y-0.3317
X0.4539Y-0.3633
X0.4646Y-0.1102
X0.4675Y-0.2766
X0.4695Y-0.7805
X0.4885Y-0.6064
X0.5197Y-0.7776
X0.5335Y-0.6772
X0.5522Y-0.8947
X0.5984Y-0.0256
X0.6014Y-0.6309
X0.6211Y-0.5364
X0.625Y-0.5876
X0.6614Y-0.8563
X0.7264Y-0.1161
X0.749Y-0.5128
X0.8209Y-0.8602
X0.8553Y-0.2195
X0.8563Y-0.7362
X0.8593Y-0.1437
X0.8628Y-0.6535
X0.878Y-0.5217
X0.8917Y-0.6102
X0.9163Y-0.0837
X0.9199Y-0.7598
X0.9459Y-0.4577
X0.9476Y-0.9022
X0.9583Y-0.7756
X0.9601Y-0.8268
X0.9705Y-0.5768
X0.9764Y-0.0965
X0.9783Y-0.6339
X1.0Y-0.497
X1.0276Y-0.1988
X1.0492Y-0.2382
X1.0571Y-0.5866
X1.079Y-0.7714
X1.0866Y-0.2224
X1.1161Y-0.2598
X1.1161Y-0.9114
X1.1276Y-0.6407
X1.1378Y-0.6909
X1.1378Y-0.7343
X1.1535Y-0.7874
X1.1614Y-0.5669
X1.1738Y-0.9065
X1.1831Y-0.185
X1.189Y-0.7303
X1.2189Y-0.2598
X1.2539Y-0.7874
X1.2559Y-0.565
X1.2579Y-0.8543
X1.3366Y-0.565
X1.4291Y-0.8839
X1.4528Y-0.7776
X1.4823Y-0.1909
X1.5374Y-0.5689
X1.5846Y-0.8976
X1.5866Y-0.8031
X1.5907Y-0.4978
X1.6319Y-0.6693
X1.6831Y-0.8602
X1.7087Y-0.9567
X1.7283Y-0.1555
X1.75Y-0.7579
X1.7963Y-0.0463
X1.8012Y-0.2884
X1.813Y-0.7402
X1.873Y-0.6421
X1.9085Y-0.8579
X1.9173Y-0.1831
X1.9232Y-0.6969
X1.9429Y-0.2441
X1.9783Y-0.5217
X2.0Y-0.439
X2.0118Y-0.6339
X2.0197Y-0.3386
X2.0217Y-0.8228
X2.0925Y-0.4803
T4
X0.2303Y-0.9291
X0.3091Y-0.9291
X0.3878Y-0.9291
X0.4665Y-0.9291
X1.2146Y-0.6476
X1.2933Y-0.6476
X1.4902Y-0.6476
X1.5689Y-0.6476
T2
G00X0.4303Y-0.0709
M15
G01X0.4303Y-0.0472
M16
G05
G00X0.4303Y-0.2205
M15
G01X0.4303Y-0.1969
M16
G05
G00X0.7705Y-0.0709
M15
G01X0.7705Y-0.0472
M16
G05
G00X0.7705Y-0.2205
M15
G01X0.7705Y-0.1969
M16
G05
T3
G00X1.5335Y-0.1102
M15
G01X1.5335Y-0.0787
M16
G05
G00X1.622Y-0.0945
M15
G01X1.6142Y-0.0945
M16
G05
G00X1.7008Y-0.0945
M15
G01X1.6929Y-0.0945
M16
G05
G00X1.7795Y-0.0945
M15
G01X1.7717Y-0.0945
M16
G05
G00X1.8602Y-0.1102
M15
G01X1.8602Y-0.0787
M16
G05
M30
