M48
; DRILL file {KiCad 8.0.7} date 2025-01-15T18:16:12+0000
; FORMAT={-:-/ absolute / inch / decimal}
; #@! TF.CreationDate,2025-01-15T18:16:12+00:00
; #@! TF.GenerationSoftware,Kicad,Pcbnew,8.0.7
; #@! TF.FileFunction,Plated,1,2,PTH
FMAT,2
INCH
; #@! TA.AperFunction,Plated,PTH,ViaDrill
T1C0.0118
; #@! TA.AperFunction,Plated,PTH,ComponentDrill
T2C0.0295
%
G90
G05
T1
X0.1102Y-0.5157
X0.1309Y-0.3701
X0.1339Y-0.6289
X0.1673Y-0.562
X0.1909Y-0.3031
X0.2257Y-0.6776
X0.2421Y-0.7411
X0.2923Y-0.5955
X0.311Y-0.2785
X0.315Y-0.4006
X0.3839Y-0.5421
X0.3937Y-0.3421
X0.4262Y-0.4833
X0.4537Y-0.4657
X0.4577Y-0.3898
X0.4596Y-0.5876
X0.4626Y-0.688
X0.4675Y-0.0502
X0.4675Y-0.0837
X0.4675Y-0.1171
X0.4852Y-0.7854
X0.501Y-0.0502
X0.501Y-0.0837
X0.501Y-0.1171
X0.5202Y-0.3747
X0.5305Y-0.4657
X0.5699Y-0.4016
X0.5837Y-0.878
X0.6122Y-0.5089
X0.6526Y-0.4421
X0.6821Y-0.3986
X0.6969Y-0.501
X0.7057Y-0.2795
X0.7539Y-0.7884
X0.7559Y-0.69
X0.7717Y-0.2904
X0.815Y-0.5236
X0.8268Y-0.3465
X0.8307Y-0.5591
X0.8327Y-0.4715
X0.8378Y-0.6339
X0.8642Y-0.4587
X0.928Y-0.6484
X0.937Y-0.9213
T2
X0.2307Y-0.9291
X0.3094Y-0.9291
X0.3882Y-0.9291
X0.4669Y-0.9291
M30
