%TF.GenerationSoftware,KiCad,Pcbnew,8.0.7*%
%TF.CreationDate,2025-01-15T18:16:12+00:00*%
%TF.ProjectId,Temp,54656d70-2e6b-4696-9361-645f70636258,rev?*%
%TF.SameCoordinates,Original*%
%TF.FileFunction,Profile,NP*%
%FSLAX46Y46*%
G04 Gerber Fmt 4.6, Leading zero omitted, Abs format (unit mm)*
G04 Created by KiCad (PCBNEW 8.0.7) date 2025-01-15 18:16:12*
%MOMM*%
%LPD*%
G01*
G04 APERTURE LIST*
%TA.AperFunction,Profile*%
%ADD10C,0.050000*%
%TD*%
%ADD11C,0.350000*%
G04 APERTURE END LIST*
D10*
X7431873Y-1959439D02*
G75*
G02*
X8983462Y-1982232I775627J-22791D01*
G01*
X25000000Y-20000000D02*
X26000000Y-20000000D01*
X25000000Y-5000000D02*
X25000000Y-2500000D01*
X11692767Y-4691538D02*
X14000000Y-4734367D01*
X11700000Y-6249999D02*
X14002507Y-6280010D01*
X-1000000Y-20000000D02*
X0Y-20000000D01*
X16734364Y-2004072D02*
G75*
G02*
X18280009Y-1999758I772866J-13438D01*
G01*
X11692767Y-4691538D02*
G75*
G02*
X8983462Y-1982232I3J2709308D01*
G01*
X0Y-2500000D02*
G75*
G02*
X2500000Y0I2500000J0D01*
G01*
X0Y-20000000D02*
X0Y-22500000D01*
X-1000000Y-5000000D02*
X-1000000Y-20000000D01*
X0Y-5000000D02*
X-1000000Y-5000000D01*
X2500000Y0D02*
X22500000Y0D01*
X0Y-2500000D02*
X0Y-5000000D01*
X22500000Y0D02*
G75*
G02*
X25000000Y-2500000I0J-2500000D01*
G01*
X16734364Y-2004072D02*
G75*
G02*
X14000000Y-4734367I-2734364J4072D01*
G01*
X25000000Y-22500000D02*
G75*
G02*
X22500000Y-25000000I-2500000J0D01*
G01*
X22500000Y-25000000D02*
X2500000Y-25000000D01*
X26000000Y-20000000D02*
X26000000Y-5000000D01*
X11700000Y-6249999D02*
G75*
G02*
X7431872Y-1959439I22490J4290559D01*
G01*
X25000000Y-22500000D02*
X25000000Y-20000000D01*
X18280010Y-1999758D02*
G75*
G02*
X14002507Y-6280009I-4280010J-242D01*
G01*
X2500000Y-25000000D02*
G75*
G02*
X0Y-22500000I0J2500000D01*
G01*
X26000000Y-5000000D02*
X25000000Y-5000000D01*
D11*
X5860000Y-23600000D03*
X7860000Y-23600000D03*
X9860000Y-23600000D03*
X11860000Y-23600000D03*
X22500000Y-2550000D03*
X2500000Y-22500000D03*
M02*
