%TF.GenerationSoftware,KiCad,Pcbnew,8.0.7*%
%TF.CreationDate,2025-01-15T18:16:12+00:00*%
%TF.ProjectId,Temp,54656d70-2e6b-4696-9361-645f70636258,rev?*%
%TF.SameCoordinates,Original*%
%TF.FileFunction,Copper,L1,Top*%
%TF.FilePolarity,Positive*%
%FSLAX46Y46*%
G04 Gerber Fmt 4.6, Leading zero omitted, Abs format (unit mm)*
G04 Created by KiCad (PCBNEW 8.0.7) date 2025-01-15 18:16:12*
%MOMM*%
%LPD*%
G01*
G04 APERTURE LIST*
G04 Aperture macros list*
%AMRoundRect*
0 Rectangle with rounded corners*
0 $1 Rounding radius*
0 $2 $3 $4 $5 $6 $7 $8 $9 X,Y pos of 4 corners*
0 Add a 4 corners polygon primitive as box body*
4,1,4,$2,$3,$4,$5,$6,$7,$8,$9,$2,$3,0*
0 Add four circle primitives for the rounded corners*
1,1,$1+$1,$2,$3*
1,1,$1+$1,$4,$5*
1,1,$1+$1,$6,$7*
1,1,$1+$1,$8,$9*
0 Add four rect primitives between the rounded corners*
20,1,$1+$1,$2,$3,$4,$5,0*
20,1,$1+$1,$4,$5,$6,$7,0*
20,1,$1+$1,$6,$7,$8,$9,0*
20,1,$1+$1,$8,$9,$2,$3,0*%
G04 Aperture macros list end*
%TA.AperFunction,SMDPad,CuDef*%
%ADD10RoundRect,0.147500X-0.172500X0.147500X-0.172500X-0.147500X0.172500X-0.147500X0.172500X0.147500X0*%
%TD*%
%TA.AperFunction,SMDPad,CuDef*%
%ADD11RoundRect,0.100000X-0.200000X-0.100000X0.200000X-0.100000X0.200000X0.100000X-0.200000X0.100000X0*%
%TD*%
%TA.AperFunction,SMDPad,CuDef*%
%ADD12R,1.500000X2.400000*%
%TD*%
%TA.AperFunction,SMDPad,CuDef*%
%ADD13R,2.000000X1.600000*%
%TD*%
%TA.AperFunction,SMDPad,CuDef*%
%ADD14R,1.250000X0.300000*%
%TD*%
%TA.AperFunction,SMDPad,CuDef*%
%ADD15RoundRect,0.147500X0.147500X0.172500X-0.147500X0.172500X-0.147500X-0.172500X0.147500X-0.172500X0*%
%TD*%
%TA.AperFunction,ComponentPad*%
%ADD16R,1.350000X1.350000*%
%TD*%
%TA.AperFunction,ComponentPad*%
%ADD17O,1.350000X1.350000*%
%TD*%
%TA.AperFunction,SMDPad,CuDef*%
%ADD18R,1.060000X0.650000*%
%TD*%
%TA.AperFunction,SMDPad,CuDef*%
%ADD19RoundRect,0.100000X0.637500X0.100000X-0.637500X0.100000X-0.637500X-0.100000X0.637500X-0.100000X0*%
%TD*%
%TA.AperFunction,SMDPad,CuDef*%
%ADD20RoundRect,0.147500X0.172500X-0.147500X0.172500X0.147500X-0.172500X0.147500X-0.172500X-0.147500X0*%
%TD*%
%TA.AperFunction,ViaPad*%
%ADD21C,0.600000*%
%TD*%
%TA.AperFunction,Conductor*%
%ADD22C,0.200000*%
%TD*%
%ADD23C,0.300000*%
%ADD24C,0.350000*%
G04 APERTURE END LIST*
D10*
%TO.P,C9,1*%
%TO.N,VDD*%
X18750000Y-21995000D03*
%TO.P,C9,2*%
%TO.N,GND*%
X18750000Y-22965000D03*
%TD*%
D11*
%TO.P,U1,1,SDA*%
%TO.N,SDA*%
X10900000Y-1200000D03*
%TO.P,U1,2,GND*%
%TO.N,GND*%
X10900000Y-2150000D03*
%TO.P,U1,3,NC*%
%TO.N,unconnected-(U1-NC-Pad3)*%
X10900000Y-3100000D03*
%TO.P,U1,4,NC*%
%TO.N,unconnected-(U1-NC-Pad4)*%
X13700000Y-3100000D03*
%TO.P,U1,5,VCC*%
%TO.N,VDD*%
X13700000Y-2150000D03*
%TO.P,U1,6,SCL*%
%TO.N,SCL*%
X13700000Y-1200000D03*
D12*
%TO.P,U1,7,DAP*%
%TO.N,/DAP*%
X12300000Y-2150000D03*
%TD*%
D13*
%TO.P,J3,*%
%TO.N,*%
X22000000Y-6900000D03*
X22000000Y-18100000D03*
D14*
%TO.P,J3,1,1*%
%TO.N,GND*%
X19345000Y-16250000D03*
%TO.P,J3,2,2*%
%TO.N,5V*%
X19345000Y-15750000D03*
%TO.P,J3,3,3*%
X19345000Y-15250000D03*
%TO.P,J3,4,4*%
%TO.N,GND*%
X19345000Y-14750000D03*
%TO.P,J3,5,5*%
%TO.N,PS*%
X19345000Y-14250000D03*
%TO.P,J3,6,6*%
%TO.N,GND*%
X19345000Y-13750000D03*
%TO.P,J3,7,7*%
%TO.N,SCLK*%
X19345000Y-13250000D03*
%TO.P,J3,8,8*%
%TO.N,GND*%
X19345000Y-12750000D03*
%TO.P,J3,9,9*%
%TO.N,MISO*%
X19345000Y-12250000D03*
%TO.P,J3,10,10*%
%TO.N,GND*%
X19345000Y-11750000D03*
%TO.P,J3,11,11*%
%TO.N,MOSI*%
X19345000Y-11250000D03*
%TO.P,J3,12,12*%
%TO.N,Interrupt5V*%
X19345000Y-10750000D03*
%TO.P,J3,13,13*%
%TO.N,GND*%
X19345000Y-10250000D03*
%TO.P,J3,14,14*%
%TO.N,5V*%
X19345000Y-9750000D03*
%TO.P,J3,15,15*%
X19345000Y-9250000D03*
%TO.P,J3,16,16*%
%TO.N,GND*%
X19345000Y-8750000D03*
%TD*%
D15*
%TO.P,R5,1*%
%TO.N,VDD*%
X18200000Y-20475000D03*
%TO.P,R5,2*%
%TO.N,SDA*%
X17230000Y-20475000D03*
%TD*%
D10*
%TO.P,C8,1*%
%TO.N,5V*%
X23750000Y-21130000D03*
%TO.P,C8,2*%
%TO.N,GND*%
X23750000Y-22100000D03*
%TD*%
D16*
%TO.P,J4,1,Pin_1*%
%TO.N,5V*%
X5860000Y-23600000D03*
D17*
%TO.P,J4,2,Pin_2*%
%TO.N,GND*%
X7860000Y-23600000D03*
%TO.P,J4,3,Pin_3*%
%TO.N,SWDIO*%
X9860000Y-23600000D03*
%TO.P,J4,4,Pin_4*%
%TO.N,SWDCLK*%
X11860000Y-23600000D03*
%TD*%
D18*
%TO.P,U2,1,IN*%
%TO.N,5V*%
X22350000Y-22965000D03*
%TO.P,U2,2,GND*%
%TO.N,GND*%
X22350000Y-22015000D03*
%TO.P,U2,3,EN*%
%TO.N,5V*%
X22350000Y-21065000D03*
%TO.P,U2,4,NC*%
%TO.N,unconnected-(U2-NC-Pad4)*%
X20150000Y-21065000D03*
%TO.P,U2,5,OUT*%
%TO.N,VDD*%
X20150000Y-22965000D03*
%TD*%
D15*
%TO.P,R2,1*%
%TO.N,Net-(U3-PA7)*%
X8285000Y-17450000D03*
%TO.P,R2,2*%
%TO.N,MOSI*%
X7315000Y-17450000D03*
%TD*%
D19*
%TO.P,U3,1,PB7/PB8*%
%TO.N,SCL*%
X15628474Y-20550000D03*
%TO.P,U3,2,PC14/PB9*%
%TO.N,SDA*%
X15628474Y-19900000D03*
%TO.P,U3,3,PC15*%
%TO.N,unconnected-(U3-PC15-Pad3)*%
X15628474Y-19250000D03*
%TO.P,U3,4,VDD*%
%TO.N,VDD*%
X15628474Y-18600000D03*
%TO.P,U3,5,VSS*%
%TO.N,GND*%
X15628474Y-17950000D03*
%TO.P,U3,6,NRST*%
%TO.N,Net-(U3-NRST)*%
X15628474Y-17300000D03*
%TO.P,U3,7,PA0*%
%TO.N,unconnected-(U3-PA0-Pad7)*%
X15628474Y-16650000D03*
%TO.P,U3,8,PA1*%
%TO.N,Net-(U3-PA1)*%
X15628474Y-16000000D03*
%TO.P,U3,9,PA2*%
%TO.N,unconnected-(U3-PA2-Pad9)*%
X15628474Y-15350000D03*
%TO.P,U3,10,PA3*%
%TO.N,unconnected-(U3-PA3-Pad10)*%
X15628474Y-14700000D03*
%TO.P,U3,11,PA4*%
%TO.N,unconnected-(U3-PA4-Pad11)*%
X9903474Y-14700000D03*
%TO.P,U3,12,PA5*%
%TO.N,Net-(U3-PA5)*%
X9903474Y-15350000D03*
%TO.P,U3,13,PA6*%
%TO.N,Net-(U3-PA6)*%
X9903474Y-16000000D03*
%TO.P,U3,14,PA7*%
%TO.N,Net-(U3-PA7)*%
X9903474Y-16650000D03*
%TO.P,U3,15,PB0/PB1/PB2/PA8*%
%TO.N,unconnected-(U3-PB0{slash}PB1{slash}PB2{slash}PA8-Pad15)*%
X9903474Y-17300000D03*
%TO.P,U3,16,PA11/PA9*%
%TO.N,unconnected-(U3-PA11{slash}PA9-Pad16)*%
X9903474Y-17950000D03*
%TO.P,U3,17,PA12/PA10*%
%TO.N,unconnected-(U3-PA12{slash}PA10-Pad17)*%
X9903474Y-18600000D03*
%TO.P,U3,18,PA13*%
%TO.N,SWDIO*%
X9903474Y-19250000D03*
%TO.P,U3,19,PA14/PA15*%
%TO.N,SWDCLK*%
X9903474Y-19900000D03*
%TO.P,U3,20,PB3/PB4/PB5/PB6*%
%TO.N,unconnected-(U3-PB3{slash}PB4{slash}PB5{slash}PB6-Pad20)*%
X9903474Y-20550000D03*
%TD*%
D20*
%TO.P,R3,1*%
%TO.N,Net-(U3-PA5)*%
X7975000Y-13625000D03*
%TO.P,R3,2*%
%TO.N,SCLK*%
X7975000Y-12655000D03*
%TD*%
%TO.P,C2,1*%
%TO.N,VDD*%
X17478474Y-19270000D03*
%TO.P,C2,2*%
%TO.N,GND*%
X17478474Y-18300000D03*
%TD*%
D15*
%TO.P,R4,1*%
%TO.N,Net-(U3-PA6)*%
X8375000Y-16050000D03*
%TO.P,R4,2*%
%TO.N,MISO*%
X7405000Y-16050000D03*
%TD*%
D20*
%TO.P,R1,1*%
%TO.N,Net-(U3-PA1)*%
X17475000Y-15160000D03*
%TO.P,R1,2*%
%TO.N,PS*%
X17475000Y-14190000D03*
%TD*%
D15*
%TO.P,R6,1*%
%TO.N,VDD*%
X17535000Y-21800000D03*
%TO.P,R6,2*%
%TO.N,SCL*%
X16565000Y-21800000D03*
%TD*%
D10*
%TO.P,C1,1*%
%TO.N,Net-(U3-NRST)*%
X17478474Y-16290000D03*
%TO.P,C1,2*%
%TO.N,GND*%
X17478474Y-17260000D03*
%TD*%
%TO.P,C3,1*%
%TO.N,VDD*%
X15025000Y-1650000D03*
%TO.P,C3,2*%
%TO.N,GND*%
X15025000Y-2620000D03*
%TD*%
D13*
%TO.P,J5,*%
%TO.N,*%
X3000000Y-18100000D03*
X3000000Y-6900000D03*
D14*
%TO.P,J5,1,1*%
%TO.N,GND*%
X5655000Y-8750000D03*
%TO.P,J5,2,2*%
%TO.N,5V*%
X5655000Y-9250000D03*
%TO.P,J5,3,3*%
X5655000Y-9750000D03*
%TO.P,J5,4,4*%
%TO.N,GND*%
X5655000Y-10250000D03*
%TO.P,J5,5,5*%
%TO.N,PS*%
X5655000Y-10750000D03*
%TO.P,J5,6,6*%
%TO.N,GND*%
X5655000Y-11250000D03*
%TO.P,J5,7,7*%
%TO.N,SCLK*%
X5655000Y-11750000D03*
%TO.P,J5,8,8*%
%TO.N,GND*%
X5655000Y-12250000D03*
%TO.P,J5,9,9*%
%TO.N,MISO*%
X5655000Y-12750000D03*
%TO.P,J5,10,10*%
%TO.N,GND*%
X5655000Y-13250000D03*
%TO.P,J5,11,11*%
%TO.N,MOSI*%
X5655000Y-13750000D03*
%TO.P,J5,12,12*%
%TO.N,Interrupt5V*%
X5655000Y-14250000D03*
%TO.P,J5,13,13*%
%TO.N,GND*%
X5655000Y-14750000D03*
%TO.P,J5,14,14*%
%TO.N,5V*%
X5655000Y-15250000D03*
%TO.P,J5,15,15*%
X5655000Y-15750000D03*
%TO.P,J5,16,16*%
%TO.N,GND*%
X5655000Y-16250000D03*
%TD*%
D21*
%TO.N,VDD*%
X14475000Y-10200000D03*
X13211841Y-9518575D03*
%TO.N,GND*%
X5733685Y-17211027D03*
X21150000Y-11975000D03*
X19600000Y-7375000D03*
X20700000Y-13300000D03*
X15550000Y-12925000D03*
X3325000Y-9400000D03*
X21000000Y-8800000D03*
X11625000Y-9900000D03*
X12325000Y-19950000D03*
X11750000Y-17475000D03*
X2800000Y-13100000D03*
X23570000Y-16470000D03*
X21280000Y-16100000D03*
X23800000Y-23400000D03*
X19150000Y-20025000D03*
X19200000Y-17525000D03*
X11675000Y-14925000D03*
X10000000Y-8690000D03*
X3400000Y-15975000D03*
X4850000Y-7700000D03*
X14825000Y-22300000D03*
X10825000Y-12275000D03*
%TO.N,5V*%
X17925000Y-7100000D03*
X7900000Y-7075000D03*
%TO.N,MOSI*%
X21950000Y-11650000D03*
X6150000Y-18825000D03*
%TO.N,MISO*%
X21100000Y-14200000D03*
X7425000Y-15125000D03*
%TO.N,SCLK*%
X17700000Y-12725000D03*
X9750000Y-13770000D03*
%TO.N,PS*%
X16575000Y-11230000D03*
X8000000Y-10175000D03*
%TO.N,SDA*%
X11525000Y-11830000D03*
X13475000Y-11830000D03*
%TO.N,Interrupt5V*%
X17325000Y-10125000D03*
X4250000Y-14275000D03*
%TO.N,/DAP*%
X11875000Y-2975000D03*
X12725000Y-2975000D03*
X12725000Y-1275000D03*
X11875000Y-2125000D03*
X11875000Y-1275000D03*
X12725000Y-2125000D03*
%TD*%
D22*
%TO.N,VDD*%
X14100000Y-17150000D02*
X14100000Y-10575000D01*
X20150000Y-22965000D02*
X19720000Y-22965000D01*
X13494684Y-9518575D02*
X13211841Y-9518575D01*
X15025000Y-1650000D02*
X14200000Y-1650000D01*
X15628474Y-18600000D02*
X16808474Y-18600000D01*
X19720000Y-22965000D02*
X18750000Y-21995000D01*
X14100000Y-10575000D02*
X14475000Y-10200000D01*
X15344999Y-1650000D02*
X16134999Y-860000D01*
X16134999Y-860000D02*
X18124314Y-860000D01*
X15628474Y-18600000D02*
X14890975Y-18600000D01*
X18124314Y-860000D02*
X18750000Y-1485686D01*
X14200000Y-1650000D02*
X13700000Y-2150000D01*
X17535000Y-21800000D02*
X17535000Y-21140000D01*
X15025000Y-1650000D02*
X15344999Y-1650000D01*
X14100000Y-17809025D02*
X14100000Y-17150000D01*
X18200000Y-19991526D02*
X17478474Y-19270000D01*
X16808474Y-18600000D02*
X17478474Y-19270000D01*
X17535000Y-21800000D02*
X18555000Y-21800000D01*
X17535000Y-21140000D02*
X18200000Y-20475000D01*
X18555000Y-21800000D02*
X18750000Y-21995000D01*
X18750000Y-1485686D02*
X18750000Y-4263259D01*
X18200000Y-20475000D02*
X18200000Y-19991526D01*
X14890975Y-18600000D02*
X14100000Y-17809025D01*
X18750000Y-4263259D02*
X13494684Y-9518575D01*
%TO.N,GND*%
X4780000Y-10250000D02*
X5655000Y-10250000D01*
X18173474Y-16250000D02*
X18098474Y-16325000D01*
X18145000Y-12125000D02*
X18420000Y-12400000D01*
X19345000Y-14750000D02*
X19395000Y-14800000D01*
X17943529Y-11750000D02*
X16823529Y-10630000D01*
X16295000Y-10630000D02*
X14590974Y-12334026D01*
X14590974Y-17590974D02*
X14950000Y-17950000D01*
X3975000Y-14875000D02*
X3500000Y-14400000D01*
X18098474Y-16640000D02*
X17478474Y-17260000D01*
X19345000Y-16250000D02*
X18173474Y-16250000D01*
X4623529Y-14750000D02*
X4498529Y-14875000D01*
X5655000Y-13250000D02*
X4780000Y-13250000D01*
X17100000Y-12973529D02*
X17100000Y-12476471D01*
X17478474Y-17600000D02*
X17128474Y-17950000D01*
X18098474Y-15121526D02*
X18098474Y-16325000D01*
X4780000Y-13250000D02*
X4730000Y-13200000D01*
X4730000Y-13200000D02*
X4730000Y-10300000D01*
X19345000Y-11750000D02*
X20925000Y-11750000D01*
X15025000Y-3135000D02*
X15025000Y-2620000D01*
X19345000Y-13750000D02*
X18159315Y-13750000D01*
X16823529Y-10630000D02*
X16295000Y-10630000D01*
X19345000Y-13750000D02*
X20250000Y-13750000D01*
X18470000Y-12750000D02*
X19345000Y-12750000D01*
X3500000Y-14400000D02*
X3500000Y-14175000D01*
X10300000Y-2750000D02*
X10300000Y-3450000D01*
X17734315Y-13325000D02*
X17451471Y-13325000D01*
X18470000Y-14750000D02*
X18098474Y-15121526D01*
X6750000Y-4100000D02*
X10000000Y-7350000D01*
X10000000Y-7350000D02*
X10000000Y-8690000D01*
X18420000Y-12700000D02*
X18470000Y-12750000D01*
X20100000Y-10250000D02*
X19345000Y-10250000D01*
X21348529Y-14800000D02*
X22550000Y-13598529D01*
X6750000Y-1485686D02*
X6750000Y-4100000D01*
X4730000Y-10300000D02*
X4780000Y-10250000D01*
X4475000Y-13200000D02*
X4730000Y-13200000D01*
X17100000Y-12476471D02*
X17451471Y-12125000D01*
X5655000Y-14750000D02*
X4623529Y-14750000D01*
X20275000Y-10075000D02*
X20100000Y-10250000D01*
X10900000Y-2150000D02*
X9550000Y-800000D01*
X14510000Y-3650000D02*
X15025000Y-3135000D01*
X4498529Y-14875000D02*
X3975000Y-14875000D01*
X20250000Y-13750000D02*
X20700000Y-13300000D01*
X14590974Y-12334026D02*
X14590974Y-17590974D01*
X9550000Y-800000D02*
X7435686Y-800000D01*
X22550000Y-11401471D02*
X21223529Y-10075000D01*
X10900000Y-2150000D02*
X10300000Y-2750000D01*
X17128474Y-17950000D02*
X17478474Y-18300000D01*
X7435686Y-800000D02*
X6750000Y-1485686D01*
X14950000Y-17950000D02*
X15628474Y-17950000D01*
X10300000Y-3450000D02*
X10500000Y-3650000D01*
X17478474Y-17260000D02*
X17478474Y-17600000D01*
X18420000Y-12400000D02*
X18420000Y-12700000D01*
X19395000Y-14800000D02*
X21348529Y-14800000D01*
X3500000Y-14175000D02*
X4475000Y-13200000D01*
X5655000Y-17132342D02*
X5733685Y-17211027D01*
X10500000Y-3650000D02*
X14510000Y-3650000D01*
X18098474Y-16325000D02*
X18098474Y-16640000D01*
X22550000Y-13598529D02*
X22550000Y-11401471D01*
X17451471Y-13325000D02*
X17100000Y-12973529D01*
X19345000Y-11750000D02*
X17943529Y-11750000D01*
X20925000Y-11750000D02*
X21150000Y-11975000D01*
X17451471Y-12125000D02*
X18145000Y-12125000D01*
X5655000Y-16250000D02*
X5655000Y-17132342D01*
X15628474Y-17950000D02*
X17128474Y-17950000D01*
X21223529Y-10075000D02*
X20275000Y-10075000D01*
X18159315Y-13750000D02*
X17734315Y-13325000D01*
X19345000Y-14750000D02*
X18470000Y-14750000D01*
%TO.N,Net-(U3-NRST)*%
X15628474Y-17300000D02*
X16468474Y-17300000D01*
X16468474Y-17300000D02*
X17478474Y-16290000D01*
%TO.N,5V*%
X2950000Y-13975000D02*
X2950000Y-14700000D01*
X5860000Y-23600000D02*
X5860000Y-21160000D01*
X4714314Y-9750000D02*
X3625000Y-10839314D01*
X5655000Y-15750000D02*
X4950000Y-15750000D01*
X5860000Y-21160000D02*
X5150000Y-20450000D01*
X5214314Y-9250000D02*
X4714314Y-9750000D01*
X18470000Y-9250000D02*
X18347500Y-9127500D01*
X5655000Y-9250000D02*
X6530000Y-9250000D01*
X19345000Y-9750000D02*
X18575000Y-9750000D01*
X20075000Y-15250000D02*
X20250000Y-15425000D01*
X4675000Y-15275000D02*
X5630000Y-15275000D01*
X21389215Y-9675000D02*
X22950000Y-11235785D01*
X5630000Y-15275000D02*
X5655000Y-15250000D01*
X22950000Y-13764215D02*
X21464215Y-15250000D01*
X19345000Y-15250000D02*
X20075000Y-15250000D01*
X4730000Y-15570000D02*
X4730000Y-16930000D01*
X20250000Y-15720000D02*
X20220000Y-15750000D01*
X17925000Y-8705000D02*
X17925000Y-7100000D01*
X21500000Y-21575000D02*
X22010000Y-21065000D01*
X5655000Y-9250000D02*
X5214314Y-9250000D01*
X2950000Y-14700000D02*
X3525000Y-15275000D01*
X20250000Y-15425000D02*
X20250000Y-15720000D01*
X19420000Y-9675000D02*
X21389215Y-9675000D01*
X22415000Y-21130000D02*
X22350000Y-21065000D01*
X19345000Y-9750000D02*
X19420000Y-9675000D01*
X19345000Y-9250000D02*
X18470000Y-9250000D01*
X20220000Y-15750000D02*
X20400000Y-15930000D01*
X6530000Y-9250000D02*
X7900000Y-7880000D01*
X19345000Y-15750000D02*
X20220000Y-15750000D01*
X23750000Y-21130000D02*
X22415000Y-21130000D01*
X18347500Y-9127500D02*
X17925000Y-8705000D01*
X4730000Y-16930000D02*
X5150000Y-17350000D01*
X18575000Y-9750000D02*
X18347500Y-9522500D01*
X4750000Y-15550000D02*
X4750000Y-15350000D01*
X18347500Y-9522500D02*
X18347500Y-9127500D01*
X5655000Y-9750000D02*
X4714314Y-9750000D01*
X22350000Y-22965000D02*
X21620000Y-22965000D01*
X4950000Y-15750000D02*
X4750000Y-15550000D01*
X7900000Y-7880000D02*
X7900000Y-7075000D01*
X5150000Y-17350000D02*
X5150000Y-20450000D01*
X4750000Y-15350000D02*
X4675000Y-15275000D01*
X20400000Y-19115000D02*
X22350000Y-21065000D01*
X21620000Y-22965000D02*
X21500000Y-22845000D01*
X20400000Y-15930000D02*
X20400000Y-19115000D01*
X3625000Y-13300000D02*
X2950000Y-13975000D01*
X22950000Y-11235785D02*
X22950000Y-13764215D01*
X21500000Y-22845000D02*
X21500000Y-21575000D01*
X3525000Y-15275000D02*
X4675000Y-15275000D01*
X3625000Y-10839314D02*
X3625000Y-13300000D01*
X22010000Y-21065000D02*
X22350000Y-21065000D01*
X21464215Y-15250000D02*
X20075000Y-15250000D01*
%TO.N,MOSI*%
X20270000Y-11350000D02*
X21650000Y-11350000D01*
X6725000Y-13945000D02*
X6725000Y-16860000D01*
X19345000Y-11250000D02*
X20170000Y-11250000D01*
X6530000Y-13750000D02*
X6725000Y-13945000D01*
X7315000Y-17660000D02*
X6150000Y-18825000D01*
X5655000Y-13750000D02*
X6530000Y-13750000D01*
X6725000Y-16860000D02*
X7315000Y-17450000D01*
X7315000Y-17450000D02*
X7315000Y-17660000D01*
X20170000Y-11250000D02*
X20270000Y-11350000D01*
X21650000Y-11350000D02*
X21950000Y-11650000D01*
%TO.N,MISO*%
X19345000Y-12250000D02*
X20498529Y-12250000D01*
X21300000Y-14000000D02*
X21100000Y-14200000D01*
X21300000Y-13051471D02*
X21300000Y-14000000D01*
X7150000Y-13370000D02*
X7150000Y-14850000D01*
X6530000Y-12750000D02*
X7150000Y-13370000D01*
X7405000Y-16050000D02*
X7405000Y-15145000D01*
X7150000Y-14850000D02*
X7425000Y-15125000D01*
X20498529Y-12250000D02*
X21300000Y-13051471D01*
X5655000Y-12750000D02*
X6530000Y-12750000D01*
X7405000Y-15145000D02*
X7425000Y-15125000D01*
%TO.N,SCLK*%
X8635000Y-12655000D02*
X9750000Y-13770000D01*
X18225000Y-13250000D02*
X17700000Y-12725000D01*
X5655000Y-11750000D02*
X6530000Y-11750000D01*
X6530000Y-11750000D02*
X7435000Y-12655000D01*
X19345000Y-13250000D02*
X18225000Y-13250000D01*
X7435000Y-12655000D02*
X7975000Y-12655000D01*
X7975000Y-12655000D02*
X8635000Y-12655000D01*
%TO.N,PS*%
X17475000Y-14190000D02*
X17535000Y-14250000D01*
X7425000Y-10750000D02*
X8000000Y-10175000D01*
X17475000Y-14190000D02*
X16575000Y-13290000D01*
X5655000Y-10750000D02*
X7425000Y-10750000D01*
X17535000Y-14250000D02*
X19345000Y-14250000D01*
X16575000Y-13290000D02*
X16575000Y-11230000D01*
%TO.N,SDA*%
X7270000Y-400000D02*
X6350000Y-1320000D01*
X10900000Y-1200000D02*
X10100000Y-400000D01*
X14890975Y-19900000D02*
X13675000Y-18684025D01*
X16655000Y-19900000D02*
X17230000Y-20475000D01*
X13675000Y-18684025D02*
X13675000Y-12030000D01*
X13675000Y-12030000D02*
X13475000Y-11830000D01*
X6350000Y-1320000D02*
X6350000Y-4265686D01*
X6350000Y-4265686D02*
X9400000Y-7315686D01*
X15628474Y-19900000D02*
X14890975Y-19900000D01*
X9400000Y-7315686D02*
X9400000Y-9705000D01*
X15628474Y-19900000D02*
X16655000Y-19900000D01*
X9400000Y-9705000D02*
X11525000Y-11830000D01*
X10100000Y-400000D02*
X7270000Y-400000D01*
%TO.N,SWDIO*%
X9165975Y-19250000D02*
X9903474Y-19250000D01*
X8865974Y-22605974D02*
X8865974Y-19550001D01*
X9860000Y-23600000D02*
X8865974Y-22605974D01*
X8865974Y-19550001D02*
X9165975Y-19250000D01*
%TO.N,SWDCLK*%
X10559430Y-19900000D02*
X11860000Y-21200570D01*
X11860000Y-21200570D02*
X11860000Y-23600000D01*
X9903474Y-19900000D02*
X10559430Y-19900000D01*
%TO.N,SCL*%
X14890975Y-20550000D02*
X15628474Y-20550000D01*
X12875000Y-12413528D02*
X13118236Y-12656764D01*
X13118236Y-18777261D02*
X14890975Y-20550000D01*
X18290000Y-460000D02*
X19150000Y-1320000D01*
X13700000Y-1200000D02*
X14440000Y-460000D01*
X19150000Y-1320000D02*
X19150000Y-4428945D01*
X14440000Y-460000D02*
X18290000Y-460000D01*
X15628474Y-20863474D02*
X16565000Y-21800000D01*
X15628474Y-20550000D02*
X15628474Y-20863474D01*
X13118236Y-12656764D02*
X13118236Y-18777261D01*
X19150000Y-4428945D02*
X12875000Y-10703945D01*
X12875000Y-10703945D02*
X12875000Y-12413528D01*
%TO.N,Net-(U3-PA1)*%
X16635000Y-16000000D02*
X17475000Y-15160000D01*
X15628474Y-16000000D02*
X16635000Y-16000000D01*
%TO.N,Net-(U3-PA5)*%
X9903474Y-15350000D02*
X9165975Y-15350000D01*
X7975000Y-14159025D02*
X7975000Y-13625000D01*
X9165975Y-15350000D02*
X7975000Y-14159025D01*
%TO.N,Net-(U3-PA6)*%
X8375000Y-16050000D02*
X9853474Y-16050000D01*
X9853474Y-16050000D02*
X9903474Y-16000000D01*
%TO.N,Net-(U3-PA7)*%
X8285000Y-17130001D02*
X8765001Y-16650000D01*
X8285000Y-17450000D02*
X8285000Y-17130001D01*
X8765001Y-16650000D02*
X9903474Y-16650000D01*
%TO.N,Interrupt5V*%
X4275000Y-14250000D02*
X4250000Y-14275000D01*
X17950000Y-10750000D02*
X17325000Y-10125000D01*
X5655000Y-14250000D02*
X4275000Y-14250000D01*
X19345000Y-10750000D02*
X17950000Y-10750000D01*
%TO.N,/DAP*%
X11875000Y-2150000D02*
X12300000Y-2150000D01*
%TD*%
%TA.AperFunction,Conductor*%
%TO.N,GND*%
G36*
X4953273Y-5625182D02*
G01*
X4985661Y-5661732D01*
X5441349Y-6545903D01*
X6163371Y-7946840D01*
X6167910Y-7955646D01*
X6177762Y-8016033D01*
X6150238Y-8070678D01*
X6095851Y-8098708D01*
X6079910Y-8100000D01*
X5805001Y-8100000D01*
X5805000Y-8100001D01*
X5805000Y-8800500D01*
X5786093Y-8858691D01*
X5736593Y-8894655D01*
X5706000Y-8899500D01*
X5010252Y-8899500D01*
X5010248Y-8899500D01*
X5010012Y-8899524D01*
X5000311Y-8900000D01*
X4530001Y-8900000D01*
X4530000Y-8900001D01*
X4530000Y-8947824D01*
X4529999Y-8947824D01*
X4536401Y-9007370D01*
X4536403Y-9007381D01*
X4586646Y-9142088D01*
X4586647Y-9142090D01*
X4668212Y-9251046D01*
X4687949Y-9308960D01*
X4669875Y-9367415D01*
X4658963Y-9380378D01*
X4529803Y-9509539D01*
X4529803Y-9509540D01*
X3440489Y-10598854D01*
X3440488Y-10598853D01*
X3384539Y-10654803D01*
X3344980Y-10723321D01*
X3344978Y-10723325D01*
X3324500Y-10799749D01*
X3324500Y-13134521D01*
X3305593Y-13192712D01*
X3295504Y-13204525D01*
X2765489Y-13734540D01*
X2765488Y-13734539D01*
X2709539Y-13790489D01*
X2669980Y-13859007D01*
X2669978Y-13859011D01*
X2649500Y-13935435D01*
X2649500Y-14739564D01*
X2669978Y-14815988D01*
X2669979Y-14815989D01*
X2690555Y-14851627D01*
X2709540Y-14884511D01*
X3284540Y-15459511D01*
X3284539Y-15459511D01*
X3340489Y-15515460D01*
X3409007Y-15555019D01*
X3409011Y-15555021D01*
X3485435Y-15575499D01*
X3485437Y-15575500D01*
X3485438Y-15575500D01*
X4330500Y-15575500D01*
X4388691Y-15594407D01*
X4424655Y-15643907D01*
X4429500Y-15674500D01*
X4429500Y-16969564D01*
X4449978Y-17045988D01*
X4449979Y-17045989D01*
X4481428Y-17100460D01*
X4489540Y-17114511D01*
X4820505Y-17445476D01*
X4848281Y-17499991D01*
X4849500Y-17515478D01*
X4849500Y-20489564D01*
X4869978Y-20565986D01*
X4869979Y-20565989D01*
X4880061Y-20583451D01*
X4880061Y-20583453D01*
X4905590Y-20627669D01*
X4909540Y-20634511D01*
X5530505Y-21255476D01*
X5558281Y-21309991D01*
X5559500Y-21325478D01*
X5559500Y-22625500D01*
X5540593Y-22683691D01*
X5491093Y-22719655D01*
X5460500Y-22724500D01*
X5165252Y-22724500D01*
X5165251Y-22724500D01*
X5165241Y-22724501D01*
X5106772Y-22736132D01*
X5106766Y-22736134D01*
X5040451Y-22780445D01*
X5040445Y-22780451D01*
X4996134Y-22846766D01*
X4996132Y-22846772D01*
X4984501Y-22905241D01*
X4984500Y-22905253D01*
X4984500Y-24294746D01*
X4984501Y-24294758D01*
X4996132Y-24353227D01*
X4996134Y-24353233D01*
X5002249Y-24362384D01*
X5040448Y-24419552D01*
X5106769Y-24463867D01*
X5142921Y-24471058D01*
X5165241Y-24475498D01*
X5165246Y-24475498D01*
X5165252Y-24475500D01*
X5165253Y-24475500D01*
X6554747Y-24475500D01*
X6554748Y-24475500D01*
X6613231Y-24463867D01*
X6679552Y-24419552D01*
X6723867Y-24353231D01*
X6729283Y-24326001D01*
X6759178Y-24272619D01*
X6814743Y-24247003D01*
X6874753Y-24258940D01*
X6905384Y-24285656D01*
X6987947Y-24394987D01*
X7148870Y-24541686D01*
X7148873Y-24541688D01*
X7334008Y-24656319D01*
X7334013Y-24656322D01*
X7467886Y-24708185D01*
X7515317Y-24746837D01*
X7530971Y-24805986D01*
X7508868Y-24863040D01*
X7457451Y-24896205D01*
X7432123Y-24899500D01*
X2502985Y-24899500D01*
X2497008Y-24899319D01*
X2472210Y-24897819D01*
X2415267Y-24875433D01*
X2382357Y-24823852D01*
X2386051Y-24762778D01*
X2424938Y-24715540D01*
X2478187Y-24700000D01*
X2899998Y-24700000D01*
X2900000Y-24700000D01*
X3500000Y-24600000D01*
X4100000Y-24100000D01*
X4500000Y-23600000D01*
X4700000Y-22900000D01*
X4700000Y-21900000D01*
X4500000Y-21400000D01*
X4100000Y-20900000D01*
X3997443Y-20817954D01*
X3975598Y-20800478D01*
X3910213Y-20748170D01*
X3904658Y-20743726D01*
X3888093Y-20730474D01*
X3802208Y-20661766D01*
X3704313Y-20583450D01*
X3663918Y-20551134D01*
X3600000Y-20500000D01*
X3000000Y-20300000D01*
X2000000Y-20300000D01*
X1999997Y-20300000D01*
X1299998Y-20600000D01*
X799999Y-21000000D01*
X600005Y-21299990D01*
X599998Y-21300002D01*
X400001Y-21699996D01*
X300000Y-22000000D01*
X300000Y-22521813D01*
X281093Y-22580004D01*
X231593Y-22615968D01*
X170407Y-22615968D01*
X120907Y-22580004D01*
X102181Y-22527790D01*
X100681Y-22502992D01*
X100500Y-22497015D01*
X100500Y-19980008D01*
X85201Y-19943073D01*
X85200Y-19943072D01*
X85200Y-19943071D01*
X56929Y-19914800D01*
X56927Y-19914799D01*
X56926Y-19914798D01*
X19992Y-19899500D01*
X19991Y-19899500D01*
X-800500Y-19899500D01*
X-858691Y-19880593D01*
X-894655Y-19831093D01*
X-899500Y-19800500D01*
X-899500Y-17280253D01*
X1799500Y-17280253D01*
X1799500Y-18919746D01*
X1799501Y-18919758D01*
X1811132Y-18978227D01*
X1811134Y-18978233D01*
X1828736Y-19004576D01*
X1855448Y-19044552D01*
X1921769Y-19088867D01*
X1966231Y-19097711D01*
X1980241Y-19100498D01*
X1980246Y-19100498D01*
X1980252Y-19100500D01*
X1980253Y-19100500D01*
X4019747Y-19100500D01*
X4019748Y-19100500D01*
X4078231Y-19088867D01*
X4144552Y-19044552D01*
X4188867Y-18978231D01*
X4200500Y-18919748D01*
X4200500Y-17280252D01*
X4188867Y-17221769D01*
X4144552Y-17155448D01*
X4144548Y-17155445D01*
X4078233Y-17111134D01*
X4078231Y-17111133D01*
X4078228Y-17111132D01*
X4078227Y-17111132D01*
X4019758Y-17099501D01*
X4019748Y-17099500D01*
X1980252Y-17099500D01*
X1980251Y-17099500D01*
X1980241Y-17099501D01*
X1921772Y-17111132D01*
X1921766Y-17111134D01*
X1855451Y-17155445D01*
X1855445Y-17155451D01*
X1811134Y-17221766D01*
X1811132Y-17221772D01*
X1799501Y-17280241D01*
X1799500Y-17280253D01*
X-899500Y-17280253D01*
X-899500Y-8552175D01*
X4530000Y-8552175D01*
X4530000Y-8599999D01*
X4530001Y-8600000D01*
X5504999Y-8600000D01*
X5505000Y-8599999D01*
X5505000Y-8100001D01*
X5504999Y-8100000D01*
X4982176Y-8100000D01*
X4922629Y-8106401D01*
X4922618Y-8106403D01*
X4787911Y-8156646D01*
X4787909Y-8156647D01*
X4672815Y-8242807D01*
X4672807Y-8242815D01*
X4586647Y-8357909D01*
X4586646Y-8357911D01*
X4536403Y-8492618D01*
X4536401Y-8492629D01*
X4530000Y-8552175D01*
X-899500Y-8552175D01*
X-899500Y-6080253D01*
X1799500Y-6080253D01*
X1799500Y-7719746D01*
X1799501Y-7719758D01*
X1811132Y-7778227D01*
X1811133Y-7778231D01*
X1855448Y-7844552D01*
X1921769Y-7888867D01*
X1966231Y-7897711D01*
X1980241Y-7900498D01*
X1980246Y-7900498D01*
X1980252Y-7900500D01*
X1980253Y-7900500D01*
X4019747Y-7900500D01*
X4019748Y-7900500D01*
X4078231Y-7888867D01*
X4144552Y-7844552D01*
X4188867Y-7778231D01*
X4200500Y-7719748D01*
X4200500Y-6080252D01*
X4188867Y-6021769D01*
X4144552Y-5955448D01*
X4144548Y-5955445D01*
X4078233Y-5911134D01*
X4078231Y-5911133D01*
X4078228Y-5911132D01*
X4078227Y-5911132D01*
X4019758Y-5899501D01*
X4019748Y-5899500D01*
X1980252Y-5899500D01*
X1980251Y-5899500D01*
X1980241Y-5899501D01*
X1921772Y-5911132D01*
X1921766Y-5911134D01*
X1855451Y-5955445D01*
X1855445Y-5955451D01*
X1811134Y-6021766D01*
X1811132Y-6021772D01*
X1799501Y-6080241D01*
X1799500Y-6080253D01*
X-899500Y-6080253D01*
X-899500Y-5888556D01*
X-880593Y-5830365D01*
X-831093Y-5794401D01*
X-803654Y-5789606D01*
X4894511Y-5608136D01*
X4953273Y-5625182D01*
G37*
%TD.AperFunction*%
%TA.AperFunction,Conductor*%
G36*
X25857081Y-5521216D02*
G01*
X25894026Y-5569989D01*
X25899500Y-5602454D01*
X25899500Y-19800500D01*
X25880593Y-19858691D01*
X25831093Y-19894655D01*
X25800500Y-19899500D01*
X24980008Y-19899500D01*
X24943073Y-19914798D01*
X24914798Y-19943073D01*
X24899500Y-19980008D01*
X24899500Y-22497015D01*
X24899319Y-22502993D01*
X24882366Y-22783251D01*
X24880925Y-22795118D01*
X24830854Y-23068346D01*
X24827993Y-23079954D01*
X24745353Y-23345154D01*
X24741114Y-23356332D01*
X24627107Y-23609646D01*
X24621551Y-23620231D01*
X24477849Y-23857944D01*
X24471058Y-23867783D01*
X24299749Y-24086443D01*
X24291822Y-24095392D01*
X24095392Y-24291822D01*
X24086443Y-24299749D01*
X23867783Y-24471058D01*
X23857944Y-24477849D01*
X23620231Y-24621551D01*
X23609646Y-24627107D01*
X23356332Y-24741114D01*
X23345154Y-24745353D01*
X23079954Y-24827993D01*
X23068346Y-24830854D01*
X22795118Y-24880925D01*
X22783251Y-24882366D01*
X22527790Y-24897819D01*
X22502991Y-24899319D01*
X22497015Y-24899500D01*
X8287877Y-24899500D01*
X8229686Y-24880593D01*
X8193722Y-24831093D01*
X8193722Y-24769907D01*
X8229686Y-24720407D01*
X8252114Y-24708185D01*
X8385986Y-24656322D01*
X8385991Y-24656319D01*
X8571126Y-24541688D01*
X8571129Y-24541686D01*
X8732052Y-24394987D01*
X8863283Y-24221209D01*
X8863288Y-24221200D01*
X8940605Y-24065927D01*
X8983467Y-24022265D01*
X9043808Y-24012135D01*
X9098579Y-24039407D01*
X9114962Y-24060555D01*
X9147805Y-24117440D01*
X9241239Y-24221209D01*
X9264463Y-24247003D01*
X9270950Y-24254207D01*
X9419839Y-24362381D01*
X9419843Y-24362383D01*
X9419845Y-24362384D01*
X9475485Y-24387156D01*
X9587966Y-24437236D01*
X9767981Y-24475500D01*
X9767983Y-24475500D01*
X9952017Y-24475500D01*
X9952019Y-24475500D01*
X10132034Y-24437236D01*
X10300161Y-24362381D01*
X10449050Y-24254207D01*
X10572195Y-24117440D01*
X10664214Y-23958059D01*
X10721085Y-23783029D01*
X10740322Y-23600000D01*
X10721085Y-23416971D01*
X10664214Y-23241941D01*
X10664211Y-23241936D01*
X10664209Y-23241931D01*
X10616935Y-23160052D01*
X10572195Y-23082560D01*
X10449050Y-22945793D01*
X10300161Y-22837619D01*
X10300157Y-22837617D01*
X10300154Y-22837615D01*
X10132036Y-22762765D01*
X10132034Y-22762764D01*
X10132031Y-22762763D01*
X10132030Y-22762763D01*
X10085135Y-22752795D01*
X9952019Y-22724500D01*
X9767981Y-22724500D01*
X9670797Y-22745157D01*
X9587969Y-22762763D01*
X9587959Y-22762766D01*
X9553091Y-22778290D01*
X9492241Y-22784684D01*
X9442823Y-22757852D01*
X9195470Y-22510499D01*
X9167693Y-22455982D01*
X9166474Y-22440495D01*
X9166474Y-21049499D01*
X9185381Y-20991308D01*
X9234881Y-20955344D01*
X9265467Y-20950499D01*
X10585838Y-20950499D01*
X10610965Y-20947585D01*
X10713739Y-20902206D01*
X10793180Y-20822765D01*
X10815681Y-20771804D01*
X10856478Y-20726210D01*
X10916287Y-20713304D01*
X10972259Y-20738017D01*
X10976248Y-20741789D01*
X11530504Y-21296045D01*
X11558281Y-21350562D01*
X11559500Y-21366049D01*
X11559500Y-22711145D01*
X11540593Y-22769336D01*
X11500768Y-22801586D01*
X11419843Y-22837617D01*
X11419842Y-22837617D01*
X11419839Y-22837618D01*
X11419839Y-22837619D01*
X11407245Y-22846769D01*
X11270948Y-22945794D01*
X11147803Y-23082562D01*
X11147803Y-23082563D01*
X11055790Y-23241931D01*
X11055784Y-23241945D01*
X10998916Y-23416965D01*
X10998915Y-23416969D01*
X10998915Y-23416971D01*
X10979678Y-23600000D01*
X10996483Y-23759893D01*
X10998916Y-23783034D01*
X11055784Y-23958054D01*
X11055790Y-23958068D01*
X11092855Y-24022265D01*
X11147805Y-24117440D01*
X11241239Y-24221209D01*
X11264463Y-24247003D01*
X11270950Y-24254207D01*
X11419839Y-24362381D01*
X11419843Y-24362383D01*
X11419845Y-24362384D01*
X11475485Y-24387156D01*
X11587966Y-24437236D01*
X11767981Y-24475500D01*
X11767983Y-24475500D01*
X11952017Y-24475500D01*
X11952019Y-24475500D01*
X12132034Y-24437236D01*
X12300161Y-24362381D01*
X12449050Y-24254207D01*
X12572195Y-24117440D01*
X12664214Y-23958059D01*
X12721085Y-23783029D01*
X12740322Y-23600000D01*
X12721085Y-23416971D01*
X12664214Y-23241941D01*
X12664211Y-23241936D01*
X12664209Y-23241931D01*
X12648660Y-23215000D01*
X17933006Y-23215000D01*
X17978532Y-23371699D01*
X17978532Y-23371700D01*
X18061805Y-23512507D01*
X18177492Y-23628194D01*
X18318299Y-23711467D01*
X18318298Y-23711467D01*
X18475399Y-23757109D01*
X18475404Y-23757110D01*
X18500000Y-23759045D01*
X18500000Y-23215001D01*
X18499999Y-23215000D01*
X17933006Y-23215000D01*
X12648660Y-23215000D01*
X12616935Y-23160052D01*
X12572195Y-23082560D01*
X12449050Y-22945793D01*
X12300161Y-22837619D01*
X12300157Y-22837617D01*
X12219232Y-22801586D01*
X12173763Y-22760644D01*
X12160500Y-22711145D01*
X12160500Y-21161007D01*
X12149629Y-21120439D01*
X12149629Y-21120438D01*
X12140022Y-21084582D01*
X12100460Y-21016059D01*
X10866094Y-19781693D01*
X10843067Y-19736500D01*
X10840514Y-19737195D01*
X10838559Y-19730010D01*
X10838559Y-19730009D01*
X10793180Y-19627235D01*
X10793178Y-19627233D01*
X10789474Y-19618843D01*
X10791849Y-19617794D01*
X10778436Y-19572261D01*
X10791500Y-19532051D01*
X10789474Y-19531157D01*
X10793178Y-19522766D01*
X10793180Y-19522765D01*
X10838559Y-19419991D01*
X10841474Y-19394865D01*
X10841473Y-19105136D01*
X10838559Y-19080009D01*
X10793180Y-18977235D01*
X10793179Y-18977234D01*
X10789474Y-18968843D01*
X10791849Y-18967794D01*
X10778436Y-18922261D01*
X10791500Y-18882051D01*
X10789474Y-18881157D01*
X10793178Y-18872766D01*
X10793180Y-18872765D01*
X10838559Y-18769991D01*
X10841474Y-18744865D01*
X10841473Y-18455136D01*
X10838559Y-18430009D01*
X10793180Y-18327235D01*
X10793179Y-18327234D01*
X10789474Y-18318843D01*
X10791849Y-18317794D01*
X10778436Y-18272261D01*
X10791500Y-18232051D01*
X10789474Y-18231157D01*
X10793178Y-18222766D01*
X10793180Y-18222765D01*
X10838559Y-18119991D01*
X10841474Y-18094865D01*
X10841473Y-17805136D01*
X10838559Y-17780009D01*
X10793180Y-17677235D01*
X10793179Y-17677234D01*
X10789474Y-17668843D01*
X10791849Y-17667794D01*
X10778436Y-17622261D01*
X10791500Y-17582051D01*
X10789474Y-17581157D01*
X10793178Y-17572766D01*
X10793180Y-17572765D01*
X10838559Y-17469991D01*
X10841474Y-17444865D01*
X10841473Y-17155136D01*
X10838559Y-17130009D01*
X10793180Y-17027235D01*
X10793179Y-17027234D01*
X10789474Y-17018843D01*
X10791849Y-17017794D01*
X10778436Y-16972261D01*
X10791500Y-16932051D01*
X10789474Y-16931157D01*
X10793178Y-16922766D01*
X10793180Y-16922765D01*
X10838559Y-16819991D01*
X10841474Y-16794865D01*
X10841473Y-16505136D01*
X10838559Y-16480009D01*
X10793180Y-16377235D01*
X10793179Y-16377234D01*
X10789474Y-16368843D01*
X10791849Y-16367794D01*
X10778436Y-16322261D01*
X10791500Y-16282051D01*
X10789474Y-16281157D01*
X10793178Y-16272766D01*
X10793180Y-16272765D01*
X10838559Y-16169991D01*
X10841474Y-16144865D01*
X10841473Y-15855136D01*
X10838559Y-15830009D01*
X10793180Y-15727235D01*
X10793179Y-15727234D01*
X10789474Y-15718843D01*
X10791849Y-15717794D01*
X10778436Y-15672261D01*
X10791500Y-15632051D01*
X10789474Y-15631157D01*
X10793178Y-15622766D01*
X10793180Y-15622765D01*
X10838559Y-15519991D01*
X10841474Y-15494865D01*
X10841473Y-15205136D01*
X10838559Y-15180009D01*
X10793180Y-15077235D01*
X10793179Y-15077234D01*
X10789474Y-15068843D01*
X10791849Y-15067794D01*
X10778436Y-15022261D01*
X10791500Y-14982051D01*
X10789474Y-14981157D01*
X10793178Y-14972766D01*
X10793180Y-14972765D01*
X10838559Y-14869991D01*
X10841474Y-14844865D01*
X10841473Y-14555136D01*
X10838559Y-14530009D01*
X10793180Y-14427235D01*
X10713739Y-14347794D01*
X10610965Y-14302415D01*
X10610964Y-14302414D01*
X10610962Y-14302414D01*
X10585843Y-14299500D01*
X10170222Y-14299500D01*
X10112031Y-14280593D01*
X10076067Y-14231093D01*
X10076067Y-14169907D01*
X10095403Y-14135669D01*
X10128663Y-14097284D01*
X10175377Y-14043373D01*
X10235165Y-13912457D01*
X10249170Y-13815047D01*
X10255647Y-13770002D01*
X10255647Y-13769997D01*
X10235165Y-13627543D01*
X10197264Y-13544552D01*
X10175377Y-13496627D01*
X10081128Y-13387857D01*
X10081127Y-13387856D01*
X10081126Y-13387855D01*
X9960057Y-13310049D01*
X9960054Y-13310047D01*
X9960053Y-13310047D01*
X9957608Y-13309329D01*
X9821964Y-13269500D01*
X9821961Y-13269500D01*
X9715479Y-13269500D01*
X9657288Y-13250593D01*
X9645475Y-13240504D01*
X9244482Y-12839511D01*
X8819511Y-12414540D01*
X8819508Y-12414538D01*
X8806156Y-12406829D01*
X8806156Y-12406828D01*
X8750990Y-12374979D01*
X8750985Y-12374977D01*
X8674564Y-12354500D01*
X8674562Y-12354500D01*
X8521862Y-12354500D01*
X8463671Y-12335593D01*
X8440700Y-12308242D01*
X8439405Y-12309168D01*
X8434638Y-12302492D01*
X8434636Y-12302490D01*
X8434636Y-12302489D01*
X8352511Y-12220364D01*
X8248170Y-12169355D01*
X8248171Y-12169355D01*
X8231259Y-12166891D01*
X8180528Y-12159500D01*
X7769472Y-12159500D01*
X7728886Y-12165413D01*
X7701828Y-12169355D01*
X7597488Y-12220364D01*
X7597486Y-12220365D01*
X7581414Y-12236438D01*
X7526897Y-12264214D01*
X7466465Y-12254642D01*
X7441408Y-12236437D01*
X6800930Y-11595959D01*
X6773153Y-11541442D01*
X6774198Y-11513670D01*
X6772936Y-11513535D01*
X6779999Y-11447824D01*
X6780000Y-11447824D01*
X6780000Y-11400001D01*
X6779999Y-11400000D01*
X6309689Y-11400000D01*
X6299988Y-11399524D01*
X6299751Y-11399500D01*
X6299748Y-11399500D01*
X5010252Y-11399500D01*
X5010248Y-11399500D01*
X5010012Y-11399524D01*
X5000311Y-11400000D01*
X4530001Y-11400000D01*
X4530000Y-11400001D01*
X4530000Y-11447824D01*
X4529999Y-11447824D01*
X4536401Y-11507370D01*
X4536403Y-11507381D01*
X4586645Y-11642087D01*
X4623015Y-11690671D01*
X4642752Y-11748586D01*
X4624678Y-11807041D01*
X4623015Y-11809329D01*
X4586645Y-11857912D01*
X4536403Y-11992618D01*
X4536401Y-11992629D01*
X4530000Y-12052175D01*
X4530000Y-12099999D01*
X4530001Y-12100000D01*
X5000311Y-12100000D01*
X5010012Y-12100476D01*
X5010248Y-12100499D01*
X5010252Y-12100500D01*
X5010256Y-12100500D01*
X5706000Y-12100500D01*
X5764191Y-12119407D01*
X5800155Y-12168907D01*
X5805000Y-12199500D01*
X5805000Y-12300500D01*
X5786093Y-12358691D01*
X5736593Y-12394655D01*
X5706000Y-12399500D01*
X5010252Y-12399500D01*
X5010248Y-12399500D01*
X5010012Y-12399524D01*
X5000311Y-12400000D01*
X4530001Y-12400000D01*
X4530000Y-12400001D01*
X4530000Y-12447824D01*
X4529999Y-12447824D01*
X4536401Y-12507370D01*
X4536403Y-12507381D01*
X4586645Y-12642087D01*
X4623015Y-12690671D01*
X4642752Y-12748586D01*
X4624678Y-12807041D01*
X4623015Y-12809329D01*
X4586645Y-12857912D01*
X4536403Y-12992618D01*
X4536401Y-12992629D01*
X4530000Y-13052175D01*
X4530000Y-13099999D01*
X4530001Y-13100000D01*
X5000311Y-13100000D01*
X5010012Y-13100476D01*
X5010248Y-13100499D01*
X5010252Y-13100500D01*
X5010256Y-13100500D01*
X5706000Y-13100500D01*
X5764191Y-13119407D01*
X5800155Y-13168907D01*
X5805000Y-13199500D01*
X5805000Y-13300500D01*
X5786093Y-13358691D01*
X5736593Y-13394655D01*
X5706000Y-13399500D01*
X5010252Y-13399500D01*
X5010248Y-13399500D01*
X5010012Y-13399524D01*
X5000311Y-13400000D01*
X4530001Y-13400000D01*
X4530000Y-13400001D01*
X4530000Y-13447824D01*
X4529999Y-13447824D01*
X4536401Y-13507370D01*
X4536403Y-13507381D01*
X4586646Y-13642088D01*
X4586647Y-13642090D01*
X4624691Y-13692910D01*
X4644428Y-13750824D01*
X4626354Y-13809279D01*
X4577373Y-13845947D01*
X4516194Y-13846821D01*
X4491915Y-13835523D01*
X4460057Y-13815049D01*
X4460054Y-13815047D01*
X4460053Y-13815047D01*
X4460050Y-13815046D01*
X4321964Y-13774500D01*
X4321961Y-13774500D01*
X4178039Y-13774500D01*
X4178035Y-13774500D01*
X4039949Y-13815046D01*
X4039942Y-13815049D01*
X3918873Y-13892855D01*
X3824622Y-14001628D01*
X3764834Y-14132543D01*
X3744353Y-14274997D01*
X3744353Y-14275002D01*
X3764834Y-14417456D01*
X3824622Y-14548371D01*
X3824623Y-14548373D01*
X3896858Y-14631737D01*
X3918873Y-14657144D01*
X4016594Y-14719945D01*
X4039947Y-14734953D01*
X4146403Y-14766211D01*
X4178035Y-14775499D01*
X4178036Y-14775499D01*
X4178039Y-14775500D01*
X4178041Y-14775500D01*
X4321959Y-14775500D01*
X4321961Y-14775500D01*
X4420566Y-14746547D01*
X4462703Y-14747750D01*
X4482207Y-14720907D01*
X4486875Y-14717716D01*
X4530980Y-14689371D01*
X4581128Y-14657143D01*
X4601036Y-14634168D01*
X4653432Y-14602573D01*
X4675855Y-14600000D01*
X5000311Y-14600000D01*
X5010012Y-14600476D01*
X5010248Y-14600499D01*
X5010252Y-14600500D01*
X5010256Y-14600500D01*
X5706000Y-14600500D01*
X5764191Y-14619407D01*
X5800155Y-14668907D01*
X5805000Y-14699500D01*
X5805000Y-14800500D01*
X5786093Y-14858691D01*
X5736593Y-14894655D01*
X5706000Y-14899500D01*
X5010252Y-14899500D01*
X5010248Y-14899500D01*
X5010012Y-14899524D01*
X5000311Y-14900000D01*
X4540398Y-14900000D01*
X4528897Y-14896263D01*
X4526854Y-14901991D01*
X4518461Y-14911539D01*
X4518208Y-14911791D01*
X4511093Y-14933691D01*
X4461593Y-14969655D01*
X4431000Y-14974500D01*
X3690479Y-14974500D01*
X3632288Y-14955593D01*
X3620475Y-14945504D01*
X3279496Y-14604525D01*
X3251719Y-14550008D01*
X3250500Y-14534521D01*
X3250500Y-14140478D01*
X3269407Y-14082287D01*
X3279490Y-14070480D01*
X3865460Y-13484511D01*
X3873850Y-13469979D01*
X3905021Y-13415989D01*
X3925500Y-13339562D01*
X3925500Y-11004793D01*
X3944407Y-10946602D01*
X3954496Y-10934790D01*
X4385505Y-10503780D01*
X4440022Y-10476002D01*
X4500454Y-10485573D01*
X4543719Y-10528838D01*
X4548267Y-10539187D01*
X4586645Y-10642087D01*
X4623015Y-10690671D01*
X4642752Y-10748586D01*
X4624678Y-10807041D01*
X4623015Y-10809329D01*
X4586645Y-10857912D01*
X4536403Y-10992618D01*
X4536401Y-10992629D01*
X4530000Y-11052175D01*
X4530000Y-11099999D01*
X4530001Y-11100000D01*
X5000311Y-11100000D01*
X5010012Y-11100476D01*
X5010248Y-11100499D01*
X5010252Y-11100500D01*
X5010256Y-11100500D01*
X6299744Y-11100500D01*
X6299748Y-11100500D01*
X6299751Y-11100499D01*
X6299988Y-11100476D01*
X6309689Y-11100000D01*
X6779999Y-11100000D01*
X6800503Y-11079496D01*
X6855020Y-11051719D01*
X6870507Y-11050500D01*
X7464563Y-11050500D01*
X7464563Y-11050499D01*
X7540989Y-11030021D01*
X7609511Y-10990460D01*
X7650471Y-10949500D01*
X7665461Y-10934511D01*
X7895473Y-10704497D01*
X7949990Y-10676719D01*
X7965477Y-10675500D01*
X8071959Y-10675500D01*
X8071961Y-10675500D01*
X8210053Y-10634953D01*
X8331128Y-10557143D01*
X8425377Y-10448373D01*
X8485165Y-10317457D01*
X8497657Y-10230575D01*
X8505647Y-10175002D01*
X8505647Y-10174997D01*
X8485165Y-10032543D01*
X8465946Y-9990460D01*
X8425377Y-9901627D01*
X8331128Y-9792857D01*
X8331127Y-9792856D01*
X8331126Y-9792855D01*
X8210057Y-9715049D01*
X8210054Y-9715047D01*
X8210053Y-9715047D01*
X8210050Y-9715046D01*
X8071964Y-9674500D01*
X8071961Y-9674500D01*
X7928039Y-9674500D01*
X7928035Y-9674500D01*
X7789949Y-9715046D01*
X7789942Y-9715049D01*
X7668873Y-9792855D01*
X7574622Y-9901628D01*
X7514834Y-10032543D01*
X7494353Y-10174996D01*
X7494353Y-10174997D01*
X7494353Y-10175000D01*
X7497442Y-10196483D01*
X7487007Y-10256772D01*
X7469453Y-10280574D01*
X7329526Y-10420503D01*
X7275010Y-10448281D01*
X7259522Y-10449500D01*
X6870507Y-10449500D01*
X6812316Y-10430593D01*
X6800503Y-10420504D01*
X6779999Y-10400000D01*
X6309689Y-10400000D01*
X6299988Y-10399524D01*
X6299751Y-10399500D01*
X6299748Y-10399500D01*
X5604000Y-10399500D01*
X5545809Y-10380593D01*
X5509845Y-10331093D01*
X5505000Y-10300500D01*
X5505000Y-10199500D01*
X5523907Y-10141309D01*
X5573407Y-10105345D01*
X5604000Y-10100500D01*
X6299744Y-10100500D01*
X6299748Y-10100500D01*
X6299751Y-10100499D01*
X6299988Y-10100476D01*
X6309689Y-10100000D01*
X6779999Y-10100000D01*
X6780000Y-10099999D01*
X6780000Y-10052175D01*
X6773598Y-9992629D01*
X6773596Y-9992618D01*
X6723353Y-9857911D01*
X6723352Y-9857909D01*
X6637192Y-9742815D01*
X6637187Y-9742810D01*
X6593330Y-9709978D01*
X6558078Y-9659968D01*
X6558952Y-9598789D01*
X6595620Y-9549809D01*
X6627035Y-9535099D01*
X6645989Y-9530021D01*
X6714511Y-9490460D01*
X6770460Y-9434511D01*
X7575975Y-8628996D01*
X7630492Y-8601219D01*
X7645979Y-8600000D01*
X9000500Y-8600000D01*
X9058691Y-8618907D01*
X9094655Y-8668407D01*
X9099500Y-8699000D01*
X9099500Y-9744564D01*
X9119978Y-9820987D01*
X9156670Y-9884540D01*
X9156669Y-9884540D01*
X9159536Y-9889506D01*
X9159538Y-9889508D01*
X9159540Y-9889511D01*
X10077070Y-10807041D01*
X10994453Y-11724424D01*
X11022230Y-11778941D01*
X11022441Y-11808514D01*
X11019354Y-11829997D01*
X11019353Y-11830002D01*
X11039834Y-11972456D01*
X11098300Y-12100476D01*
X11099623Y-12103373D01*
X11175267Y-12190671D01*
X11193873Y-12212144D01*
X11314942Y-12289950D01*
X11314947Y-12289953D01*
X11421403Y-12321211D01*
X11453035Y-12330499D01*
X11453036Y-12330499D01*
X11453039Y-12330500D01*
X11453041Y-12330500D01*
X11596959Y-12330500D01*
X11596961Y-12330500D01*
X11735053Y-12289953D01*
X11856128Y-12212143D01*
X11950377Y-12103373D01*
X12010165Y-11972457D01*
X12018982Y-11911133D01*
X12030647Y-11830002D01*
X12030647Y-11829997D01*
X12010165Y-11687543D01*
X11998252Y-11661458D01*
X11950377Y-11556627D01*
X11856128Y-11447857D01*
X11856127Y-11447856D01*
X11856126Y-11447855D01*
X11735057Y-11370049D01*
X11735054Y-11370047D01*
X11735053Y-11370047D01*
X11735050Y-11370046D01*
X11596964Y-11329500D01*
X11596961Y-11329500D01*
X11490479Y-11329500D01*
X11432288Y-11310593D01*
X11420475Y-11300504D01*
X9729496Y-9609525D01*
X9701719Y-9555008D01*
X9700500Y-9539521D01*
X9700500Y-8699000D01*
X9719407Y-8640809D01*
X9768907Y-8604845D01*
X9799500Y-8600000D01*
X13749280Y-8600000D01*
X13807471Y-8618907D01*
X13843435Y-8668407D01*
X13843435Y-8729593D01*
X13819283Y-8769004D01*
X13543912Y-9044373D01*
X13489396Y-9072150D01*
X13428964Y-9062578D01*
X13422768Y-9059021D01*
X13421894Y-9058622D01*
X13283805Y-9018075D01*
X13283802Y-9018075D01*
X13139880Y-9018075D01*
X13139876Y-9018075D01*
X13001790Y-9058621D01*
X13001783Y-9058624D01*
X12880714Y-9136430D01*
X12786463Y-9245203D01*
X12726675Y-9376118D01*
X12706194Y-9518572D01*
X12706194Y-9518577D01*
X12726675Y-9661031D01*
X12764823Y-9744562D01*
X12786464Y-9791948D01*
X12838176Y-9851627D01*
X12880714Y-9900719D01*
X12963566Y-9953964D01*
X12997076Y-9975500D01*
X13004155Y-9980049D01*
X13042886Y-10027415D01*
X13046380Y-10088500D01*
X13020636Y-10133336D01*
X12690489Y-10463484D01*
X12634539Y-10519434D01*
X12594980Y-10587952D01*
X12594978Y-10587956D01*
X12574500Y-10664380D01*
X12574500Y-12453092D01*
X12594978Y-12529516D01*
X12606037Y-12548671D01*
X12629243Y-12588865D01*
X12629245Y-12588869D01*
X12629246Y-12588869D01*
X12634539Y-12598038D01*
X12788740Y-12752239D01*
X12816517Y-12806756D01*
X12817736Y-12822243D01*
X12817736Y-18816825D01*
X12838214Y-18893249D01*
X12838215Y-18893250D01*
X12870690Y-18949498D01*
X12870691Y-18949502D01*
X12870692Y-18949502D01*
X12877773Y-18961768D01*
X12877774Y-18961769D01*
X12877776Y-18961772D01*
X14706464Y-20790460D01*
X14706466Y-20790461D01*
X14706467Y-20790462D01*
X14711613Y-20794411D01*
X14710834Y-20795425D01*
X14735998Y-20818721D01*
X14738767Y-20822763D01*
X14738768Y-20822765D01*
X14818209Y-20902206D01*
X14920983Y-20947585D01*
X14946109Y-20950500D01*
X15274572Y-20950499D01*
X15332762Y-20969406D01*
X15360308Y-20999998D01*
X15377936Y-21030529D01*
X15388014Y-21047985D01*
X16040505Y-21700476D01*
X16068281Y-21754991D01*
X16069500Y-21770478D01*
X16069500Y-22005528D01*
X16077384Y-22059641D01*
X16079355Y-22073171D01*
X16087841Y-22090529D01*
X16130364Y-22177511D01*
X16212489Y-22259636D01*
X16316830Y-22310645D01*
X16384472Y-22320500D01*
X16384475Y-22320500D01*
X16745524Y-22320500D01*
X16745528Y-22320500D01*
X16813170Y-22310645D01*
X16917511Y-22259636D01*
X16979998Y-22197148D01*
X17034513Y-22169373D01*
X17094945Y-22178944D01*
X17120000Y-22197147D01*
X17182489Y-22259636D01*
X17286830Y-22310645D01*
X17354472Y-22320500D01*
X17354475Y-22320500D01*
X17715524Y-22320500D01*
X17715528Y-22320500D01*
X17783170Y-22310645D01*
X17887511Y-22259636D01*
X17969636Y-22177511D01*
X17980142Y-22156019D01*
X18022685Y-22112046D01*
X18069083Y-22100500D01*
X18132948Y-22100500D01*
X18191139Y-22119407D01*
X18227103Y-22168907D01*
X18230914Y-22185232D01*
X18232742Y-22197783D01*
X18222419Y-22258091D01*
X18185173Y-22297263D01*
X18177492Y-22301805D01*
X18061805Y-22417492D01*
X17978532Y-22558299D01*
X17978532Y-22558300D01*
X17933005Y-22715000D01*
X18651000Y-22715000D01*
X18709191Y-22733907D01*
X18745155Y-22783407D01*
X18750000Y-22814000D01*
X18750000Y-22964999D01*
X18750001Y-22965000D01*
X18901000Y-22965000D01*
X18959191Y-22983907D01*
X18995155Y-23033407D01*
X19000000Y-23064000D01*
X19000000Y-23759045D01*
X19024587Y-23757112D01*
X19024600Y-23757109D01*
X19181699Y-23711467D01*
X19181700Y-23711467D01*
X19322507Y-23628194D01*
X19442596Y-23508106D01*
X19443822Y-23509332D01*
X19487724Y-23479487D01*
X19534675Y-23477455D01*
X19541767Y-23478865D01*
X19541769Y-23478867D01*
X19574499Y-23485377D01*
X19600244Y-23490499D01*
X19600250Y-23490499D01*
X19600252Y-23490500D01*
X19600253Y-23490500D01*
X20699747Y-23490500D01*
X20699748Y-23490500D01*
X20758231Y-23478867D01*
X20824552Y-23434552D01*
X20868867Y-23368231D01*
X20880500Y-23309748D01*
X20880500Y-22620252D01*
X20868867Y-22561769D01*
X20824552Y-22495448D01*
X20817147Y-22490500D01*
X20758233Y-22451134D01*
X20758231Y-22451133D01*
X20758228Y-22451132D01*
X20758227Y-22451132D01*
X20699758Y-22439501D01*
X20699748Y-22439500D01*
X20699747Y-22439500D01*
X19660479Y-22439500D01*
X19602288Y-22420593D01*
X19590475Y-22410504D01*
X19299496Y-22119525D01*
X19271719Y-22065008D01*
X19270500Y-22049521D01*
X19270500Y-21814475D01*
X19270500Y-21814472D01*
X19260645Y-21746830D01*
X19209636Y-21642489D01*
X19127511Y-21560364D01*
X19023170Y-21509355D01*
X19023171Y-21509355D01*
X19006259Y-21506891D01*
X18955528Y-21499500D01*
X18955525Y-21499500D01*
X18069083Y-21499500D01*
X18010892Y-21480593D01*
X17980142Y-21443980D01*
X17969636Y-21422490D01*
X17969636Y-21422489D01*
X17893560Y-21346413D01*
X17865785Y-21291899D01*
X17875356Y-21231467D01*
X17893563Y-21206408D01*
X18075476Y-21024496D01*
X18129992Y-20996719D01*
X18145479Y-20995500D01*
X18380524Y-20995500D01*
X18380528Y-20995500D01*
X18448170Y-20985645D01*
X18552511Y-20934636D01*
X18634636Y-20852511D01*
X18685645Y-20748170D01*
X18689712Y-20720253D01*
X19419500Y-20720253D01*
X19419500Y-21409746D01*
X19419501Y-21409758D01*
X19431132Y-21468227D01*
X19431134Y-21468233D01*
X19469406Y-21525510D01*
X19475448Y-21534552D01*
X19541769Y-21578867D01*
X19586231Y-21587711D01*
X19600241Y-21590498D01*
X19600246Y-21590498D01*
X19600252Y-21590500D01*
X19600253Y-21590500D01*
X20699747Y-21590500D01*
X20699748Y-21590500D01*
X20758231Y-21578867D01*
X20824552Y-21534552D01*
X20868867Y-21468231D01*
X20880500Y-21409748D01*
X20880500Y-20720252D01*
X20868867Y-20661769D01*
X20824552Y-20595448D01*
X20806601Y-20583453D01*
X20758233Y-20551134D01*
X20758231Y-20551133D01*
X20758228Y-20551132D01*
X20758227Y-20551132D01*
X20699758Y-20539501D01*
X20699748Y-20539500D01*
X19600252Y-20539500D01*
X19600251Y-20539500D01*
X19600241Y-20539501D01*
X19541772Y-20551132D01*
X19541766Y-20551134D01*
X19475451Y-20595445D01*
X19475445Y-20595451D01*
X19431134Y-20661766D01*
X19431132Y-20661772D01*
X19419501Y-20720241D01*
X19419500Y-20720253D01*
X18689712Y-20720253D01*
X18695500Y-20680528D01*
X18695500Y-20269472D01*
X18685645Y-20201830D01*
X18634636Y-20097489D01*
X18552511Y-20015364D01*
X18552509Y-20015363D01*
X18552508Y-20015362D01*
X18545832Y-20010595D01*
X18546583Y-20009542D01*
X18508717Y-19972908D01*
X18500545Y-19952135D01*
X18500500Y-19951967D01*
X18500500Y-19951964D01*
X18480021Y-19875537D01*
X18454361Y-19831093D01*
X18440460Y-19807015D01*
X18384511Y-19751065D01*
X18384511Y-19751066D01*
X18027970Y-19394525D01*
X18000193Y-19340008D01*
X17998974Y-19324521D01*
X17998974Y-19089475D01*
X17998974Y-19089472D01*
X17995732Y-19067222D01*
X18006050Y-19006915D01*
X18043305Y-18967733D01*
X18050983Y-18963192D01*
X18166668Y-18847507D01*
X18249941Y-18706700D01*
X18249941Y-18706699D01*
X18295468Y-18550000D01*
X17577474Y-18550000D01*
X17519283Y-18531093D01*
X17483319Y-18481593D01*
X17478474Y-18451000D01*
X17478474Y-18300001D01*
X17478473Y-18300000D01*
X17327474Y-18300000D01*
X17269283Y-18281093D01*
X17233319Y-18231593D01*
X17228474Y-18201000D01*
X17228474Y-17510001D01*
X17728474Y-17510001D01*
X17728474Y-18049999D01*
X17728475Y-18050000D01*
X18295468Y-18050000D01*
X18249942Y-17893303D01*
X18249943Y-17893303D01*
X18212739Y-17830396D01*
X18199391Y-17770684D01*
X18212739Y-17729604D01*
X18249943Y-17666696D01*
X18295468Y-17510000D01*
X17728475Y-17510000D01*
X17728474Y-17510001D01*
X17228474Y-17510001D01*
X17228474Y-17359000D01*
X17247381Y-17300809D01*
X17296881Y-17264845D01*
X17327474Y-17260000D01*
X17478473Y-17260000D01*
X17478474Y-17259999D01*
X17478474Y-17109000D01*
X17497381Y-17050809D01*
X17546881Y-17014845D01*
X17577474Y-17010000D01*
X18295467Y-17010000D01*
X18265480Y-16906784D01*
X18267402Y-16845628D01*
X18304902Y-16797282D01*
X18363658Y-16780212D01*
X18419878Y-16799910D01*
X18477909Y-16843352D01*
X18477911Y-16843353D01*
X18612618Y-16893596D01*
X18612629Y-16893598D01*
X18672176Y-16900000D01*
X19194999Y-16900000D01*
X19195000Y-16899999D01*
X19195000Y-16400001D01*
X19194999Y-16400000D01*
X18220001Y-16400000D01*
X18220000Y-16400001D01*
X18220000Y-16447824D01*
X18219999Y-16447824D01*
X18226401Y-16507370D01*
X18227826Y-16513398D01*
X18225366Y-16513979D01*
X18227521Y-16564521D01*
X18193697Y-16615507D01*
X18136365Y-16636875D01*
X18077422Y-16620463D01*
X18062145Y-16607969D01*
X18050982Y-16596806D01*
X18043303Y-16592265D01*
X18002840Y-16546370D01*
X17995732Y-16492777D01*
X17998974Y-16470528D01*
X17998974Y-16109472D01*
X17989119Y-16041830D01*
X17938110Y-15937489D01*
X17855985Y-15855364D01*
X17855983Y-15855363D01*
X17855982Y-15855362D01*
X17855980Y-15855361D01*
X17769515Y-15813090D01*
X17725541Y-15770547D01*
X17714972Y-15710281D01*
X17741845Y-15655313D01*
X17769513Y-15635210D01*
X17852511Y-15594636D01*
X17934636Y-15512511D01*
X17985645Y-15408170D01*
X17995500Y-15340528D01*
X17995500Y-14979472D01*
X17985645Y-14911830D01*
X17934636Y-14807489D01*
X17872148Y-14745001D01*
X17844373Y-14690487D01*
X17853944Y-14630055D01*
X17872152Y-14604995D01*
X17897653Y-14579495D01*
X17952170Y-14551719D01*
X17967655Y-14550500D01*
X18129493Y-14550500D01*
X18187684Y-14569407D01*
X18199497Y-14579496D01*
X18220001Y-14600000D01*
X18690311Y-14600000D01*
X18700012Y-14600476D01*
X18700248Y-14600499D01*
X18700252Y-14600500D01*
X18700256Y-14600500D01*
X19989744Y-14600500D01*
X19989748Y-14600500D01*
X19989751Y-14600499D01*
X19989988Y-14600476D01*
X19999689Y-14600000D01*
X20469999Y-14600000D01*
X20470000Y-14599999D01*
X20470000Y-14552175D01*
X20463598Y-14492629D01*
X20463597Y-14492625D01*
X20452800Y-14463677D01*
X20450179Y-14402548D01*
X20483989Y-14351553D01*
X20541317Y-14330170D01*
X20600264Y-14346567D01*
X20635611Y-14387952D01*
X20674621Y-14473371D01*
X20674623Y-14473373D01*
X20766578Y-14579496D01*
X20768873Y-14582144D01*
X20885576Y-14657144D01*
X20889947Y-14659953D01*
X20996403Y-14691211D01*
X21028035Y-14700499D01*
X21028036Y-14700499D01*
X21028039Y-14700500D01*
X21028041Y-14700500D01*
X21171959Y-14700500D01*
X21171961Y-14700500D01*
X21310053Y-14659953D01*
X21428771Y-14583657D01*
X21443271Y-14579845D01*
X21455049Y-14554536D01*
X21457490Y-14551719D01*
X21525377Y-14473373D01*
X21585165Y-14342457D01*
X21594862Y-14275012D01*
X21605647Y-14200002D01*
X21605647Y-14199998D01*
X21591727Y-14103186D01*
X21594092Y-14063472D01*
X21600500Y-14039562D01*
X21600500Y-13960438D01*
X21600500Y-13011909D01*
X21580021Y-12935482D01*
X21556914Y-12895460D01*
X21540460Y-12866960D01*
X21484511Y-12811010D01*
X21484511Y-12811011D01*
X20683040Y-12009540D01*
X20683037Y-12009538D01*
X20614521Y-11969980D01*
X20614517Y-11969978D01*
X20538317Y-11949560D01*
X20493937Y-11923938D01*
X20469999Y-11900000D01*
X19999689Y-11900000D01*
X19989988Y-11899524D01*
X19989751Y-11899500D01*
X19989748Y-11899500D01*
X18700252Y-11899500D01*
X18700248Y-11899500D01*
X18700012Y-11899524D01*
X18690311Y-11900000D01*
X18220001Y-11900000D01*
X18220000Y-11900001D01*
X18220000Y-11947824D01*
X18219999Y-11947824D01*
X18226401Y-12007370D01*
X18226403Y-12007381D01*
X18276645Y-12142087D01*
X18313015Y-12190671D01*
X18332752Y-12248586D01*
X18314678Y-12307041D01*
X18313015Y-12309329D01*
X18276647Y-12357910D01*
X18265001Y-12389134D01*
X18226949Y-12437048D01*
X18168002Y-12453445D01*
X18110675Y-12432062D01*
X18097427Y-12419371D01*
X18031128Y-12342857D01*
X18031127Y-12342856D01*
X18031126Y-12342855D01*
X17910057Y-12265049D01*
X17910054Y-12265047D01*
X17910053Y-12265047D01*
X17907216Y-12264214D01*
X17771964Y-12224500D01*
X17771961Y-12224500D01*
X17628039Y-12224500D01*
X17628035Y-12224500D01*
X17489949Y-12265046D01*
X17489942Y-12265049D01*
X17368873Y-12342855D01*
X17274622Y-12451628D01*
X17214834Y-12582543D01*
X17194353Y-12724997D01*
X17194353Y-12725002D01*
X17214834Y-12867456D01*
X17255043Y-12955500D01*
X17274623Y-12998373D01*
X17323304Y-13054554D01*
X17368873Y-13107144D01*
X17489942Y-13184950D01*
X17489947Y-13184953D01*
X17575264Y-13210004D01*
X17628035Y-13225499D01*
X17628036Y-13225499D01*
X17628039Y-13225500D01*
X17628041Y-13225500D01*
X17734521Y-13225500D01*
X17792712Y-13244407D01*
X17804525Y-13254496D01*
X17984540Y-13434511D01*
X17984539Y-13434511D01*
X18040489Y-13490460D01*
X18109007Y-13530019D01*
X18109011Y-13530021D01*
X18146624Y-13540099D01*
X18197937Y-13573421D01*
X18200749Y-13580748D01*
X18220001Y-13600000D01*
X18690311Y-13600000D01*
X18700012Y-13600476D01*
X18700248Y-13600499D01*
X18700252Y-13600500D01*
X18700256Y-13600500D01*
X19989744Y-13600500D01*
X19989748Y-13600500D01*
X19989751Y-13600499D01*
X19989988Y-13600476D01*
X19999689Y-13600000D01*
X20469999Y-13600000D01*
X20470000Y-13599999D01*
X20470000Y-13552175D01*
X20463598Y-13492629D01*
X20463596Y-13492618D01*
X20413354Y-13357913D01*
X20376984Y-13309329D01*
X20357247Y-13251415D01*
X20375321Y-13192960D01*
X20376984Y-13190671D01*
X20413354Y-13142086D01*
X20463596Y-13007381D01*
X20463598Y-13007370D01*
X20470000Y-12947824D01*
X20470000Y-12885450D01*
X20488907Y-12827259D01*
X20538407Y-12791295D01*
X20599593Y-12791295D01*
X20639004Y-12815446D01*
X20970504Y-13146946D01*
X20998281Y-13201463D01*
X20999500Y-13216950D01*
X20999500Y-13633768D01*
X20980593Y-13691959D01*
X20931093Y-13727923D01*
X20928393Y-13728757D01*
X20889952Y-13740044D01*
X20889942Y-13740049D01*
X20768873Y-13817855D01*
X20674621Y-13926628D01*
X20659053Y-13960719D01*
X20617680Y-14005797D01*
X20557714Y-14017947D01*
X20502058Y-13992528D01*
X20471972Y-13939251D01*
X20470000Y-13919592D01*
X20470000Y-13900001D01*
X20469999Y-13900000D01*
X19999689Y-13900000D01*
X19989988Y-13899524D01*
X19989751Y-13899500D01*
X19989748Y-13899500D01*
X18700252Y-13899500D01*
X18700248Y-13899500D01*
X18700012Y-13899524D01*
X18690311Y-13900000D01*
X18220001Y-13900000D01*
X18199497Y-13920504D01*
X18144980Y-13948281D01*
X18129493Y-13949500D01*
X18051194Y-13949500D01*
X17993003Y-13930593D01*
X17962253Y-13893981D01*
X17955518Y-13880204D01*
X17934636Y-13837489D01*
X17852511Y-13755364D01*
X17748170Y-13704355D01*
X17748171Y-13704355D01*
X17731259Y-13701891D01*
X17680528Y-13694500D01*
X17680525Y-13694500D01*
X17445479Y-13694500D01*
X17387288Y-13675593D01*
X17375475Y-13665504D01*
X16904496Y-13194525D01*
X16876719Y-13140008D01*
X16875500Y-13124521D01*
X16875500Y-11683893D01*
X16894407Y-11625702D01*
X16901741Y-11617711D01*
X16901491Y-11617494D01*
X16906128Y-11612143D01*
X17000377Y-11503373D01*
X17060165Y-11372457D01*
X17071235Y-11295463D01*
X17080647Y-11230002D01*
X17080647Y-11229997D01*
X17060165Y-11087543D01*
X17044013Y-11052175D01*
X17000377Y-10956627D01*
X16906128Y-10847857D01*
X16906127Y-10847856D01*
X16906126Y-10847855D01*
X16785057Y-10770049D01*
X16785054Y-10770047D01*
X16785053Y-10770047D01*
X16785050Y-10770046D01*
X16646964Y-10729500D01*
X16646961Y-10729500D01*
X16503039Y-10729500D01*
X16503035Y-10729500D01*
X16364949Y-10770046D01*
X16364942Y-10770049D01*
X16243873Y-10847855D01*
X16149622Y-10956628D01*
X16089834Y-11087543D01*
X16069353Y-11229997D01*
X16069353Y-11230002D01*
X16089834Y-11372456D01*
X16107498Y-11411133D01*
X16149623Y-11503373D01*
X16233783Y-11600500D01*
X16248509Y-11617494D01*
X16246471Y-11619259D01*
X16271925Y-11661458D01*
X16274500Y-11683893D01*
X16274500Y-13329564D01*
X16294977Y-13405985D01*
X16294979Y-13405990D01*
X16317195Y-13444470D01*
X16317196Y-13444470D01*
X16317197Y-13444472D01*
X16334540Y-13474511D01*
X16925505Y-14065476D01*
X16953281Y-14119991D01*
X16954500Y-14135478D01*
X16954500Y-14370528D01*
X16957039Y-14387952D01*
X16964355Y-14438171D01*
X16989859Y-14490340D01*
X17015364Y-14542511D01*
X17077851Y-14604998D01*
X17105627Y-14659513D01*
X17096056Y-14719945D01*
X17077852Y-14745000D01*
X17022353Y-14800500D01*
X17015364Y-14807489D01*
X16964355Y-14911828D01*
X16964355Y-14911830D01*
X16955225Y-14974500D01*
X16954500Y-14979475D01*
X16954500Y-15214521D01*
X16935593Y-15272712D01*
X16925503Y-15284525D01*
X16735476Y-15474551D01*
X16680960Y-15502328D01*
X16620528Y-15492757D01*
X16577263Y-15449492D01*
X16566473Y-15404549D01*
X16566473Y-15205136D01*
X16563559Y-15180009D01*
X16518180Y-15077235D01*
X16518179Y-15077234D01*
X16514474Y-15068843D01*
X16516849Y-15067794D01*
X16503436Y-15022261D01*
X16516500Y-14982051D01*
X16514474Y-14981157D01*
X16518178Y-14972766D01*
X16518180Y-14972765D01*
X16563559Y-14869991D01*
X16566474Y-14844865D01*
X16566473Y-14555136D01*
X16563559Y-14530009D01*
X16518180Y-14427235D01*
X16438739Y-14347794D01*
X16335965Y-14302415D01*
X16335964Y-14302414D01*
X16335962Y-14302414D01*
X16310842Y-14299500D01*
X14946113Y-14299500D01*
X14946110Y-14299501D01*
X14920983Y-14302414D01*
X14818209Y-14347794D01*
X14738768Y-14427235D01*
X14693388Y-14530011D01*
X14690474Y-14555130D01*
X14690474Y-14844859D01*
X14690475Y-14844864D01*
X14693388Y-14869990D01*
X14707518Y-14901991D01*
X14731106Y-14955413D01*
X14742474Y-14981157D01*
X14740100Y-14982205D01*
X14753511Y-15027757D01*
X14740451Y-15067949D01*
X14742474Y-15068843D01*
X14738768Y-15077234D01*
X14738768Y-15077235D01*
X14737436Y-15080252D01*
X14693388Y-15180011D01*
X14690474Y-15205130D01*
X14690474Y-15494859D01*
X14690475Y-15494864D01*
X14693388Y-15519990D01*
X14716295Y-15571869D01*
X14736378Y-15617353D01*
X14742474Y-15631157D01*
X14740100Y-15632205D01*
X14753511Y-15677757D01*
X14740451Y-15717949D01*
X14742474Y-15718843D01*
X14738768Y-15727234D01*
X14738768Y-15727235D01*
X14728937Y-15749500D01*
X14693388Y-15830011D01*
X14690474Y-15855130D01*
X14690474Y-16144859D01*
X14690475Y-16144864D01*
X14693388Y-16169990D01*
X14699800Y-16184511D01*
X14721445Y-16233533D01*
X14742474Y-16281157D01*
X14740100Y-16282205D01*
X14753511Y-16327757D01*
X14740451Y-16367949D01*
X14742474Y-16368843D01*
X14738768Y-16377234D01*
X14738768Y-16377235D01*
X14711281Y-16439488D01*
X14693388Y-16480011D01*
X14690474Y-16505130D01*
X14690474Y-16794859D01*
X14690475Y-16794864D01*
X14693388Y-16819990D01*
X14703704Y-16843352D01*
X14735702Y-16915822D01*
X14742474Y-16931157D01*
X14740100Y-16932205D01*
X14753511Y-16977757D01*
X14740451Y-17017949D01*
X14742474Y-17018843D01*
X14738768Y-17027234D01*
X14738768Y-17027235D01*
X14718223Y-17073765D01*
X14693388Y-17130011D01*
X14690474Y-17155130D01*
X14690474Y-17275476D01*
X14671567Y-17333667D01*
X14651742Y-17354018D01*
X14559768Y-17424593D01*
X14502092Y-17445017D01*
X14443426Y-17427640D01*
X14406179Y-17379098D01*
X14400500Y-17346051D01*
X14400500Y-10799500D01*
X14419407Y-10741309D01*
X14468907Y-10705345D01*
X14499500Y-10700500D01*
X14546959Y-10700500D01*
X14546961Y-10700500D01*
X14685053Y-10659953D01*
X14806128Y-10582143D01*
X14900377Y-10473373D01*
X14960165Y-10342457D01*
X14980647Y-10200000D01*
X14980575Y-10199500D01*
X14969863Y-10124997D01*
X16819353Y-10124997D01*
X16819353Y-10125002D01*
X16839834Y-10267456D01*
X16884367Y-10364968D01*
X16899623Y-10398373D01*
X16975182Y-10485573D01*
X16993873Y-10507144D01*
X17110576Y-10582144D01*
X17114947Y-10584953D01*
X17221403Y-10616211D01*
X17253035Y-10625499D01*
X17253036Y-10625499D01*
X17253039Y-10625500D01*
X17253041Y-10625500D01*
X17359521Y-10625500D01*
X17417712Y-10644407D01*
X17429525Y-10654496D01*
X17709540Y-10934511D01*
X17709539Y-10934511D01*
X17765489Y-10990460D01*
X17834007Y-11030019D01*
X17834011Y-11030021D01*
X17910435Y-11050499D01*
X17910437Y-11050500D01*
X17910438Y-11050500D01*
X18322261Y-11050500D01*
X18380452Y-11069407D01*
X18416416Y-11118907D01*
X18416416Y-11180093D01*
X18381590Y-11228753D01*
X18362815Y-11242807D01*
X18362807Y-11242815D01*
X18276647Y-11357909D01*
X18276646Y-11357911D01*
X18226403Y-11492618D01*
X18226401Y-11492629D01*
X18220000Y-11552175D01*
X18220000Y-11599999D01*
X18220001Y-11600000D01*
X18690311Y-11600000D01*
X18700012Y-11600476D01*
X18700248Y-11600499D01*
X18700252Y-11600500D01*
X18700256Y-11600500D01*
X19989744Y-11600500D01*
X19989748Y-11600500D01*
X19989751Y-11600499D01*
X19989988Y-11600476D01*
X19999689Y-11600000D01*
X20075485Y-11600000D01*
X20124984Y-11613263D01*
X20154009Y-11630020D01*
X20154011Y-11630021D01*
X20230435Y-11650499D01*
X20230437Y-11650500D01*
X20230438Y-11650500D01*
X20309562Y-11650500D01*
X21358641Y-11650500D01*
X21416832Y-11669407D01*
X21452796Y-11718907D01*
X21456633Y-11735412D01*
X21464834Y-11792455D01*
X21481981Y-11830000D01*
X21524623Y-11923373D01*
X21597416Y-12007381D01*
X21618873Y-12032144D01*
X21729705Y-12103371D01*
X21739947Y-12109953D01*
X21846403Y-12141211D01*
X21878035Y-12150499D01*
X21878036Y-12150499D01*
X21878039Y-12150500D01*
X21878041Y-12150500D01*
X22021959Y-12150500D01*
X22021961Y-12150500D01*
X22160053Y-12109953D01*
X22281128Y-12032143D01*
X22375377Y-11923373D01*
X22435165Y-11792457D01*
X22445740Y-11718907D01*
X22452508Y-11671835D01*
X22462217Y-11652087D01*
X22452508Y-11628164D01*
X22435165Y-11507543D01*
X22428349Y-11492618D01*
X22375377Y-11376627D01*
X22305049Y-11295463D01*
X22295424Y-11272688D01*
X22278770Y-11266341D01*
X22160057Y-11190049D01*
X22160054Y-11190047D01*
X22160053Y-11190047D01*
X22160050Y-11190046D01*
X22021964Y-11149500D01*
X22021961Y-11149500D01*
X21915478Y-11149500D01*
X21857287Y-11130593D01*
X21845480Y-11120509D01*
X21834511Y-11109540D01*
X21829712Y-11106769D01*
X21798704Y-11088866D01*
X21798704Y-11088867D01*
X21765989Y-11069979D01*
X21765988Y-11069978D01*
X21765987Y-11069978D01*
X21689564Y-11049500D01*
X21689562Y-11049500D01*
X20435478Y-11049500D01*
X20377287Y-11030593D01*
X20365480Y-11020509D01*
X20354511Y-11009540D01*
X20345688Y-11004446D01*
X20345686Y-11004444D01*
X20345686Y-11004445D01*
X20285989Y-10969979D01*
X20285988Y-10969978D01*
X20280370Y-10966735D01*
X20281676Y-10964472D01*
X20243607Y-10931955D01*
X20229327Y-10872459D01*
X20252744Y-10815933D01*
X20268693Y-10800978D01*
X20327186Y-10757190D01*
X20327192Y-10757184D01*
X20413352Y-10642090D01*
X20413353Y-10642088D01*
X20463596Y-10507381D01*
X20463598Y-10507370D01*
X20470000Y-10447824D01*
X20470000Y-10400001D01*
X20469999Y-10400000D01*
X19999689Y-10400000D01*
X19989988Y-10399524D01*
X19989751Y-10399500D01*
X19989748Y-10399500D01*
X18700252Y-10399500D01*
X18700248Y-10399500D01*
X18700012Y-10399524D01*
X18690311Y-10400000D01*
X18220001Y-10400000D01*
X18199497Y-10420504D01*
X18144980Y-10448281D01*
X18129493Y-10449500D01*
X18115479Y-10449500D01*
X18057288Y-10430593D01*
X18045475Y-10420504D01*
X17855546Y-10230575D01*
X17827769Y-10176058D01*
X17827558Y-10146482D01*
X17830647Y-10125000D01*
X17827124Y-10100500D01*
X17810165Y-9982543D01*
X17765408Y-9884540D01*
X17750377Y-9851627D01*
X17656128Y-9742857D01*
X17656127Y-9742856D01*
X17656126Y-9742855D01*
X17535057Y-9665049D01*
X17535054Y-9665047D01*
X17535053Y-9665047D01*
X17535050Y-9665046D01*
X17396964Y-9624500D01*
X17396961Y-9624500D01*
X17253039Y-9624500D01*
X17253035Y-9624500D01*
X17114949Y-9665046D01*
X17114942Y-9665049D01*
X16993873Y-9742855D01*
X16899622Y-9851628D01*
X16839834Y-9982543D01*
X16819353Y-10124997D01*
X14969863Y-10124997D01*
X14960165Y-10057543D01*
X14946406Y-10027415D01*
X14900377Y-9926627D01*
X14806128Y-9817857D01*
X14806127Y-9817856D01*
X14806126Y-9817855D01*
X14685057Y-9740049D01*
X14685054Y-9740047D01*
X14685053Y-9740047D01*
X14685050Y-9740046D01*
X14546964Y-9699500D01*
X14546961Y-9699500D01*
X14543423Y-9699500D01*
X14540617Y-9698588D01*
X14539954Y-9698493D01*
X14539970Y-9698378D01*
X14485232Y-9680593D01*
X14449268Y-9631093D01*
X14449268Y-9569907D01*
X14473419Y-9530496D01*
X14861826Y-9142090D01*
X15374920Y-8628996D01*
X15429437Y-8601219D01*
X15444924Y-8600000D01*
X17525500Y-8600000D01*
X17583691Y-8618907D01*
X17619655Y-8668407D01*
X17624500Y-8699000D01*
X17624500Y-8744564D01*
X17644978Y-8820987D01*
X17650812Y-8831093D01*
X17660273Y-8847479D01*
X17684540Y-8889511D01*
X18018005Y-9222976D01*
X18045781Y-9277491D01*
X18047000Y-9292978D01*
X18047000Y-9562064D01*
X18067478Y-9638487D01*
X18083037Y-9665437D01*
X18100608Y-9695870D01*
X18107040Y-9707011D01*
X18226578Y-9826549D01*
X18254354Y-9881064D01*
X18249331Y-9931147D01*
X18226403Y-9992618D01*
X18226401Y-9992629D01*
X18220000Y-10052175D01*
X18220000Y-10099999D01*
X18220001Y-10100000D01*
X18690311Y-10100000D01*
X18700012Y-10100476D01*
X18700248Y-10100499D01*
X18700252Y-10100500D01*
X18700256Y-10100500D01*
X19989744Y-10100500D01*
X19989748Y-10100500D01*
X19989751Y-10100499D01*
X19989988Y-10100476D01*
X19999689Y-10100000D01*
X20469999Y-10100000D01*
X20470000Y-10099999D01*
X20470000Y-10074500D01*
X20488907Y-10016309D01*
X20538407Y-9980345D01*
X20569000Y-9975500D01*
X21223736Y-9975500D01*
X21281927Y-9994407D01*
X21293740Y-10004496D01*
X22402297Y-11113053D01*
X22417328Y-11142555D01*
X22449872Y-11160628D01*
X22620504Y-11331260D01*
X22648281Y-11385777D01*
X22649500Y-11401264D01*
X22649500Y-11614075D01*
X22639402Y-11645151D01*
X22649500Y-11685924D01*
X22649500Y-13598736D01*
X22630593Y-13656927D01*
X22620504Y-13668740D01*
X21599872Y-14689371D01*
X21574582Y-14702256D01*
X21574548Y-14702860D01*
X21552297Y-14736945D01*
X21368740Y-14920503D01*
X21314223Y-14948281D01*
X21298736Y-14949500D01*
X20560507Y-14949500D01*
X20502316Y-14930593D01*
X20490503Y-14920504D01*
X20469999Y-14900000D01*
X19999689Y-14900000D01*
X19989988Y-14899524D01*
X19989751Y-14899500D01*
X19989748Y-14899500D01*
X18700252Y-14899500D01*
X18700248Y-14899500D01*
X18700012Y-14899524D01*
X18690311Y-14900000D01*
X18220001Y-14900000D01*
X18220000Y-14900001D01*
X18220000Y-14947824D01*
X18219999Y-14947824D01*
X18226401Y-15007370D01*
X18226403Y-15007381D01*
X18276646Y-15142088D01*
X18276647Y-15142090D01*
X18362807Y-15257184D01*
X18362815Y-15257192D01*
X18479829Y-15344788D01*
X18515082Y-15394796D01*
X18518134Y-15414999D01*
X18519024Y-15414912D01*
X18519500Y-15419751D01*
X18531621Y-15480686D01*
X18531621Y-15519314D01*
X18519500Y-15580248D01*
X18519024Y-15585088D01*
X18516610Y-15584850D01*
X18500593Y-15634148D01*
X18479829Y-15655210D01*
X18362815Y-15742807D01*
X18362807Y-15742815D01*
X18276647Y-15857909D01*
X18276646Y-15857911D01*
X18226403Y-15992618D01*
X18226401Y-15992629D01*
X18220000Y-16052175D01*
X18220000Y-16099999D01*
X18220001Y-16100000D01*
X18690311Y-16100000D01*
X18700012Y-16100476D01*
X18700248Y-16100499D01*
X18700252Y-16100500D01*
X18700256Y-16100500D01*
X19396000Y-16100500D01*
X19454191Y-16119407D01*
X19490155Y-16168907D01*
X19495000Y-16199500D01*
X19495000Y-16899999D01*
X19495001Y-16900000D01*
X20000500Y-16900000D01*
X20058691Y-16918907D01*
X20094655Y-16968407D01*
X20099500Y-16999000D01*
X20099500Y-19154564D01*
X20119978Y-19230987D01*
X20142215Y-19269504D01*
X20151135Y-19284953D01*
X20159540Y-19299511D01*
X21590505Y-20730476D01*
X21618281Y-20784991D01*
X21619500Y-20800478D01*
X21619500Y-20989521D01*
X21600593Y-21047712D01*
X21590504Y-21059525D01*
X21315489Y-21334540D01*
X21315488Y-21334539D01*
X21259539Y-21390489D01*
X21219980Y-21459007D01*
X21219978Y-21459011D01*
X21199500Y-21535435D01*
X21199500Y-22884564D01*
X21219978Y-22960987D01*
X21219979Y-22960989D01*
X21242502Y-23000000D01*
X21259540Y-23029511D01*
X21435489Y-23205460D01*
X21435491Y-23205461D01*
X21435493Y-23205463D01*
X21504008Y-23245020D01*
X21504009Y-23245020D01*
X21504012Y-23245022D01*
X21552938Y-23258131D01*
X21604250Y-23291453D01*
X21624411Y-23334441D01*
X21631132Y-23368227D01*
X21631134Y-23368233D01*
X21675445Y-23434548D01*
X21675448Y-23434552D01*
X21741769Y-23478867D01*
X21786231Y-23487711D01*
X21800241Y-23490498D01*
X21800246Y-23490498D01*
X21800252Y-23490500D01*
X21800253Y-23490500D01*
X22899747Y-23490500D01*
X22899748Y-23490500D01*
X22958231Y-23478867D01*
X23024552Y-23434552D01*
X23068867Y-23368231D01*
X23080500Y-23309748D01*
X23080500Y-22879398D01*
X23099407Y-22821207D01*
X23148907Y-22785243D01*
X23210093Y-22785243D01*
X23229895Y-22794185D01*
X23318299Y-22846467D01*
X23318298Y-22846467D01*
X23475399Y-22892109D01*
X23475404Y-22892110D01*
X23500000Y-22894045D01*
X23500000Y-22350001D01*
X24000000Y-22350001D01*
X24000000Y-22894045D01*
X24024587Y-22892112D01*
X24024600Y-22892109D01*
X24181699Y-22846467D01*
X24181700Y-22846467D01*
X24322507Y-22763194D01*
X24438194Y-22647507D01*
X24521467Y-22506700D01*
X24521467Y-22506699D01*
X24566994Y-22350000D01*
X24000001Y-22350000D01*
X24000000Y-22350001D01*
X23500000Y-22350001D01*
X23499999Y-22350000D01*
X22924000Y-22350000D01*
X22865809Y-22331093D01*
X22829845Y-22281593D01*
X22827634Y-22267635D01*
X22824999Y-22265000D01*
X22449000Y-22265000D01*
X22390809Y-22246093D01*
X22354845Y-22196593D01*
X22350000Y-22166000D01*
X22350000Y-21864000D01*
X22368907Y-21805809D01*
X22418407Y-21769845D01*
X22449000Y-21765000D01*
X23386000Y-21765000D01*
X23444191Y-21783907D01*
X23480155Y-21833407D01*
X23482365Y-21847364D01*
X23485001Y-21850000D01*
X24566994Y-21850000D01*
X24521467Y-21693300D01*
X24521467Y-21693299D01*
X24438194Y-21552492D01*
X24322508Y-21436806D01*
X24314829Y-21432265D01*
X24274366Y-21386370D01*
X24267258Y-21332777D01*
X24270500Y-21310528D01*
X24270500Y-20949472D01*
X24260645Y-20881830D01*
X24209636Y-20777489D01*
X24127511Y-20695364D01*
X24023170Y-20644355D01*
X24023171Y-20644355D01*
X24006259Y-20641891D01*
X23955528Y-20634500D01*
X23544472Y-20634500D01*
X23503886Y-20640413D01*
X23476828Y-20644355D01*
X23388841Y-20687370D01*
X23372489Y-20695364D01*
X23290364Y-20777489D01*
X23290363Y-20777490D01*
X23290362Y-20777492D01*
X23285595Y-20784168D01*
X23283600Y-20782743D01*
X23249536Y-20817954D01*
X23203138Y-20829500D01*
X23179500Y-20829500D01*
X23121309Y-20810593D01*
X23085345Y-20761093D01*
X23080500Y-20730500D01*
X23080500Y-20720253D01*
X23080498Y-20720241D01*
X23072598Y-20680528D01*
X23068867Y-20661769D01*
X23024552Y-20595448D01*
X23006601Y-20583453D01*
X22958233Y-20551134D01*
X22958231Y-20551133D01*
X22958228Y-20551132D01*
X22958227Y-20551132D01*
X22899758Y-20539501D01*
X22899748Y-20539500D01*
X22899747Y-20539500D01*
X22290479Y-20539500D01*
X22232288Y-20520593D01*
X22220475Y-20510504D01*
X20979475Y-19269504D01*
X20951698Y-19214987D01*
X20961269Y-19154555D01*
X21004534Y-19111290D01*
X21049479Y-19100500D01*
X23019747Y-19100500D01*
X23019748Y-19100500D01*
X23078231Y-19088867D01*
X23144552Y-19044552D01*
X23188867Y-18978231D01*
X23200500Y-18919748D01*
X23200500Y-17280252D01*
X23188867Y-17221769D01*
X23144552Y-17155448D01*
X23144548Y-17155445D01*
X23078233Y-17111134D01*
X23078231Y-17111133D01*
X23078228Y-17111132D01*
X23078227Y-17111132D01*
X23019758Y-17099501D01*
X23019748Y-17099500D01*
X20980252Y-17099500D01*
X20980251Y-17099500D01*
X20980241Y-17099501D01*
X20921772Y-17111132D01*
X20921766Y-17111134D01*
X20854502Y-17156080D01*
X20795614Y-17172689D01*
X20738210Y-17151512D01*
X20704217Y-17100638D01*
X20700500Y-17073765D01*
X20700500Y-15890437D01*
X20700499Y-15890435D01*
X20680021Y-15814011D01*
X20680019Y-15814007D01*
X20640460Y-15745489D01*
X20614474Y-15719502D01*
X20586698Y-15664985D01*
X20596270Y-15604553D01*
X20639535Y-15561290D01*
X20684479Y-15550500D01*
X21503778Y-15550500D01*
X21503778Y-15550499D01*
X21580204Y-15530021D01*
X21648726Y-15490460D01*
X21704675Y-15434511D01*
X23190460Y-13948726D01*
X23215452Y-13905438D01*
X23230021Y-13880204D01*
X23250500Y-13803777D01*
X23250500Y-11196223D01*
X23230021Y-11119796D01*
X23207190Y-11080252D01*
X23190460Y-11051274D01*
X23134511Y-10995324D01*
X23134511Y-10995325D01*
X21573726Y-9434540D01*
X21548105Y-9419748D01*
X21548104Y-9419747D01*
X21548103Y-9419747D01*
X21520904Y-9404044D01*
X21505203Y-9394978D01*
X21428779Y-9374500D01*
X21428777Y-9374500D01*
X20437149Y-9374500D01*
X20378958Y-9355593D01*
X20342994Y-9306093D01*
X20342994Y-9244907D01*
X20357896Y-9216171D01*
X20413352Y-9142090D01*
X20413353Y-9142088D01*
X20463596Y-9007381D01*
X20463598Y-9007370D01*
X20470000Y-8947824D01*
X20470000Y-8900001D01*
X20469999Y-8900000D01*
X19999689Y-8900000D01*
X19989988Y-8899524D01*
X19989751Y-8899500D01*
X19989748Y-8899500D01*
X19294000Y-8899500D01*
X19235809Y-8880593D01*
X19199845Y-8831093D01*
X19195000Y-8800500D01*
X19195000Y-8100001D01*
X19495000Y-8100001D01*
X19495000Y-8599999D01*
X19495001Y-8600000D01*
X20469999Y-8600000D01*
X20470000Y-8599999D01*
X20470000Y-8552175D01*
X20463598Y-8492629D01*
X20463596Y-8492618D01*
X20413353Y-8357911D01*
X20413352Y-8357909D01*
X20327192Y-8242815D01*
X20327184Y-8242807D01*
X20212090Y-8156647D01*
X20212088Y-8156646D01*
X20077381Y-8106403D01*
X20077370Y-8106401D01*
X20017824Y-8100000D01*
X19495001Y-8100000D01*
X19495000Y-8100001D01*
X19195000Y-8100001D01*
X19194999Y-8100000D01*
X19109740Y-8100000D01*
X19051549Y-8081093D01*
X19015585Y-8031593D01*
X19015585Y-7970407D01*
X19026868Y-7946840D01*
X19057153Y-7900500D01*
X20246763Y-6080253D01*
X20799500Y-6080253D01*
X20799500Y-7719746D01*
X20799501Y-7719758D01*
X20811132Y-7778227D01*
X20811133Y-7778231D01*
X20855448Y-7844552D01*
X20921769Y-7888867D01*
X20966231Y-7897711D01*
X20980241Y-7900498D01*
X20980246Y-7900498D01*
X20980252Y-7900500D01*
X20980253Y-7900500D01*
X23019747Y-7900500D01*
X23019748Y-7900500D01*
X23078231Y-7888867D01*
X23144552Y-7844552D01*
X23188867Y-7778231D01*
X23200500Y-7719748D01*
X23200500Y-6080252D01*
X23188867Y-6021769D01*
X23144552Y-5955448D01*
X23144548Y-5955445D01*
X23078233Y-5911134D01*
X23078231Y-5911133D01*
X23078228Y-5911132D01*
X23078227Y-5911132D01*
X23019758Y-5899501D01*
X23019748Y-5899500D01*
X20980252Y-5899500D01*
X20980251Y-5899500D01*
X20980241Y-5899501D01*
X20921772Y-5911132D01*
X20921766Y-5911134D01*
X20855451Y-5955445D01*
X20855445Y-5955451D01*
X20811134Y-6021766D01*
X20811132Y-6021772D01*
X20799501Y-6080241D01*
X20799500Y-6080253D01*
X20246763Y-6080253D01*
X20526727Y-5651874D01*
X20574386Y-5613510D01*
X20607617Y-5607057D01*
X25798527Y-5503474D01*
X25857081Y-5521216D01*
G37*
%TD.AperFunction*%
%TA.AperFunction,Conductor*%
G36*
X5764191Y-16119407D02*
G01*
X5800155Y-16168907D01*
X5805000Y-16199500D01*
X5805000Y-16899999D01*
X5805001Y-16900000D01*
X6327822Y-16900000D01*
X6337633Y-16898945D01*
X6397511Y-16911523D01*
X6438561Y-16956894D01*
X6443841Y-16971746D01*
X6444976Y-16975982D01*
X6444979Y-16975990D01*
X6466931Y-17014012D01*
X6474566Y-17027235D01*
X6484540Y-17044511D01*
X6790505Y-17350476D01*
X6818281Y-17404991D01*
X6819500Y-17420478D01*
X6819500Y-17655529D01*
X6821876Y-17671838D01*
X6811554Y-17732147D01*
X6793914Y-17756113D01*
X6254524Y-18295504D01*
X6200007Y-18323281D01*
X6184520Y-18324500D01*
X6078035Y-18324500D01*
X5939949Y-18365046D01*
X5939942Y-18365049D01*
X5818873Y-18442855D01*
X5724622Y-18551628D01*
X5664834Y-18682543D01*
X5647492Y-18803164D01*
X5637782Y-18822911D01*
X5647492Y-18846835D01*
X5664834Y-18967456D01*
X5720281Y-19088865D01*
X5724623Y-19098373D01*
X5790562Y-19174471D01*
X5818873Y-19207144D01*
X5923725Y-19274528D01*
X5939947Y-19284953D01*
X6023687Y-19309541D01*
X6078035Y-19325499D01*
X6078036Y-19325499D01*
X6078039Y-19325500D01*
X6078041Y-19325500D01*
X6221959Y-19325500D01*
X6221961Y-19325500D01*
X6360053Y-19284953D01*
X6481128Y-19207143D01*
X6575377Y-19098373D01*
X6635165Y-18967457D01*
X6647422Y-18882205D01*
X6655647Y-18825002D01*
X6655647Y-18825000D01*
X6655347Y-18822911D01*
X6652558Y-18803517D01*
X6662990Y-18743228D01*
X6680547Y-18719423D01*
X7400476Y-17999496D01*
X7454992Y-17971719D01*
X7470479Y-17970500D01*
X7495524Y-17970500D01*
X7495528Y-17970500D01*
X7563170Y-17960645D01*
X7667511Y-17909636D01*
X7729998Y-17847148D01*
X7784513Y-17819373D01*
X7844945Y-17828944D01*
X7870000Y-17847147D01*
X7932489Y-17909636D01*
X8036830Y-17960645D01*
X8104472Y-17970500D01*
X8104475Y-17970500D01*
X8465524Y-17970500D01*
X8465528Y-17970500D01*
X8533170Y-17960645D01*
X8637511Y-17909636D01*
X8719636Y-17827511D01*
X8770645Y-17723170D01*
X8780500Y-17655528D01*
X8780500Y-17513774D01*
X8799407Y-17455583D01*
X8848907Y-17419619D01*
X8910093Y-17419619D01*
X8959593Y-17455583D01*
X8970063Y-17473783D01*
X9013768Y-17572765D01*
X9013769Y-17572766D01*
X9017474Y-17581157D01*
X9015100Y-17582205D01*
X9028511Y-17627757D01*
X9015451Y-17667949D01*
X9017474Y-17668843D01*
X9013768Y-17677234D01*
X9013768Y-17677235D01*
X8990645Y-17729604D01*
X8968388Y-17780011D01*
X8965474Y-17805130D01*
X8965474Y-18094859D01*
X8965475Y-18094864D01*
X8968388Y-18119990D01*
X9017474Y-18231157D01*
X9015100Y-18232205D01*
X9028511Y-18277757D01*
X9015451Y-18317949D01*
X9017474Y-18318843D01*
X9013768Y-18327234D01*
X9013768Y-18327235D01*
X8997072Y-18365049D01*
X8968388Y-18430011D01*
X8965474Y-18455130D01*
X8965474Y-18744859D01*
X8965475Y-18744864D01*
X8968388Y-18769990D01*
X8989067Y-18816823D01*
X9011984Y-18868725D01*
X9017474Y-18881157D01*
X9015098Y-18882205D01*
X9028511Y-18927744D01*
X9011224Y-18980947D01*
X9011000Y-18981274D01*
X8985836Y-19004576D01*
X8986613Y-19005589D01*
X8981463Y-19009540D01*
X8625513Y-19365490D01*
X8585954Y-19434008D01*
X8585952Y-19434012D01*
X8565474Y-19510436D01*
X8565474Y-22477072D01*
X8546567Y-22535263D01*
X8497067Y-22571227D01*
X8435881Y-22571227D01*
X8414358Y-22561244D01*
X8385988Y-22543678D01*
X8385986Y-22543677D01*
X8182932Y-22465013D01*
X8182926Y-22465011D01*
X8110000Y-22451379D01*
X8110000Y-23319670D01*
X8090255Y-23299925D01*
X8004745Y-23250556D01*
X7909370Y-23225000D01*
X7810630Y-23225000D01*
X7715255Y-23250556D01*
X7629745Y-23299925D01*
X7610000Y-23319670D01*
X7610000Y-22451379D01*
X7609999Y-22451379D01*
X7537073Y-22465011D01*
X7537067Y-22465013D01*
X7334013Y-22543677D01*
X7334008Y-22543680D01*
X7148873Y-22658311D01*
X7148870Y-22658313D01*
X6987944Y-22805015D01*
X6905383Y-22914343D01*
X6855227Y-22949386D01*
X6794052Y-22948255D01*
X6745225Y-22911382D01*
X6729283Y-22873999D01*
X6723867Y-22846769D01*
X6679552Y-22780448D01*
X6679548Y-22780445D01*
X6613233Y-22736134D01*
X6613231Y-22736133D01*
X6613228Y-22736132D01*
X6613227Y-22736132D01*
X6554758Y-22724501D01*
X6554748Y-22724500D01*
X6554747Y-22724500D01*
X6259500Y-22724500D01*
X6201309Y-22705593D01*
X6165345Y-22656093D01*
X6160500Y-22625500D01*
X6160500Y-21120439D01*
X6160499Y-21120434D01*
X6155141Y-21100436D01*
X6155141Y-21100435D01*
X6145353Y-21063907D01*
X6140022Y-21044012D01*
X6132238Y-21030529D01*
X6100463Y-20975493D01*
X6100462Y-20975492D01*
X6100461Y-20975491D01*
X6100460Y-20975489D01*
X5479496Y-20354525D01*
X5451719Y-20300008D01*
X5450500Y-20284521D01*
X5450500Y-18860924D01*
X5460597Y-18829847D01*
X5450500Y-18789075D01*
X5450500Y-17310439D01*
X5450500Y-17310438D01*
X5438456Y-17265489D01*
X5438456Y-17265488D01*
X5438456Y-17265487D01*
X5430021Y-17234010D01*
X5430020Y-17234008D01*
X5390463Y-17165493D01*
X5390461Y-17165491D01*
X5390460Y-17165489D01*
X5293972Y-17069001D01*
X5266197Y-17014487D01*
X5275768Y-16954055D01*
X5319033Y-16910790D01*
X5363978Y-16900000D01*
X5504999Y-16900000D01*
X5505000Y-16899999D01*
X5505000Y-16400001D01*
X5504999Y-16400000D01*
X5129500Y-16400000D01*
X5071309Y-16381093D01*
X5035345Y-16331593D01*
X5030500Y-16301000D01*
X5030500Y-16199500D01*
X5049407Y-16141309D01*
X5098907Y-16105345D01*
X5129500Y-16100500D01*
X5706000Y-16100500D01*
X5764191Y-16119407D01*
G37*
%TD.AperFunction*%
%TA.AperFunction,Conductor*%
G36*
X9992712Y-719407D02*
G01*
X10004525Y-729496D01*
X10370504Y-1095475D01*
X10398281Y-1149992D01*
X10399500Y-1165478D01*
X10399500Y-1344861D01*
X10399501Y-1344864D01*
X10402414Y-1369990D01*
X10402415Y-1369992D01*
X10421143Y-1412406D01*
X10427352Y-1473276D01*
X10396596Y-1526170D01*
X10390847Y-1530936D01*
X10272081Y-1622069D01*
X10272070Y-1622080D01*
X10175901Y-1747410D01*
X10175899Y-1747414D01*
X10115444Y-1893367D01*
X10107988Y-1949999D01*
X10107988Y-1950000D01*
X10801000Y-1950000D01*
X10859191Y-1968907D01*
X10895155Y-2018407D01*
X10900000Y-2049000D01*
X10900000Y-2251000D01*
X10881093Y-2309191D01*
X10831593Y-2345155D01*
X10801000Y-2350000D01*
X10107989Y-2350000D01*
X10115443Y-2406627D01*
X10115445Y-2406635D01*
X10175899Y-2552585D01*
X10175901Y-2552589D01*
X10272070Y-2677919D01*
X10272080Y-2677929D01*
X10390846Y-2769061D01*
X10425502Y-2819485D01*
X10423901Y-2880650D01*
X10421144Y-2887589D01*
X10402416Y-2930005D01*
X10402414Y-2930011D01*
X10399500Y-2955130D01*
X10399500Y-3244859D01*
X10399501Y-3244864D01*
X10402414Y-3269990D01*
X10427756Y-3327385D01*
X10447794Y-3372765D01*
X10527235Y-3452206D01*
X10630009Y-3497585D01*
X10655135Y-3500500D01*
X11144864Y-3500499D01*
X11169991Y-3497585D01*
X11272765Y-3452206D01*
X11272766Y-3452204D01*
X11277279Y-3450212D01*
X11338149Y-3444003D01*
X11391043Y-3474758D01*
X11399578Y-3485768D01*
X11405448Y-3494552D01*
X11471769Y-3538867D01*
X11516231Y-3547711D01*
X11530241Y-3550498D01*
X11530246Y-3550498D01*
X11530252Y-3550500D01*
X11530253Y-3550500D01*
X13069747Y-3550500D01*
X13069748Y-3550500D01*
X13128231Y-3538867D01*
X13194552Y-3494552D01*
X13200415Y-3485777D01*
X13248461Y-3447897D01*
X13309599Y-3445492D01*
X13322719Y-3450211D01*
X13327233Y-3452204D01*
X13327235Y-3452206D01*
X13430009Y-3497585D01*
X13455135Y-3500500D01*
X13944864Y-3500499D01*
X13969991Y-3497585D01*
X14072765Y-3452206D01*
X14152206Y-3372765D01*
X14197585Y-3269991D01*
X14199120Y-3256761D01*
X14224607Y-3201137D01*
X14277922Y-3171117D01*
X14338699Y-3178168D01*
X14367464Y-3198166D01*
X14452492Y-3283194D01*
X14593299Y-3366467D01*
X14593298Y-3366467D01*
X14750399Y-3412109D01*
X14750404Y-3412110D01*
X14775000Y-3414045D01*
X14775000Y-2870001D01*
X15275000Y-2870001D01*
X15275000Y-3414045D01*
X15299587Y-3412112D01*
X15299600Y-3412109D01*
X15456699Y-3366467D01*
X15456700Y-3366467D01*
X15597507Y-3283194D01*
X15713194Y-3167507D01*
X15796467Y-3026700D01*
X15796467Y-3026699D01*
X15841994Y-2870000D01*
X15275001Y-2870000D01*
X15275000Y-2870001D01*
X14775000Y-2870001D01*
X14774999Y-2870000D01*
X14233684Y-2870000D01*
X14175493Y-2851093D01*
X14155271Y-2830301D01*
X14152206Y-2827236D01*
X14152206Y-2827235D01*
X14072765Y-2747794D01*
X13999769Y-2715563D01*
X13954176Y-2674764D01*
X13941270Y-2614955D01*
X13965984Y-2558983D01*
X13999767Y-2534437D01*
X14072765Y-2502206D01*
X14152206Y-2422765D01*
X14152207Y-2422760D01*
X14157390Y-2415197D01*
X14160130Y-2417074D01*
X14190244Y-2383418D01*
X14240012Y-2370000D01*
X15841994Y-2370000D01*
X15796467Y-2213300D01*
X15796467Y-2213299D01*
X15713194Y-2072492D01*
X15600339Y-1959637D01*
X15572562Y-1905120D01*
X15582133Y-1844688D01*
X15600337Y-1819632D01*
X16070470Y-1349500D01*
X16230475Y-1189496D01*
X16284991Y-1161719D01*
X16300478Y-1160500D01*
X16896044Y-1160500D01*
X16954235Y-1179407D01*
X16990199Y-1228907D01*
X16990199Y-1290093D01*
X16961799Y-1333507D01*
X16924729Y-1366444D01*
X16859236Y-1424633D01*
X16751328Y-1570282D01*
X16675622Y-1734972D01*
X16675621Y-1734975D01*
X16675621Y-1734976D01*
X16636835Y-1905120D01*
X16635332Y-1911711D01*
X16634507Y-1963196D01*
X16633918Y-1967385D01*
X16633867Y-2001147D01*
X16633703Y-2006687D01*
X16617215Y-2292971D01*
X16615958Y-2303992D01*
X16568017Y-2583894D01*
X16565535Y-2594704D01*
X16486589Y-2867478D01*
X16482914Y-2877943D01*
X16373946Y-3140186D01*
X16369123Y-3150174D01*
X16231505Y-3398580D01*
X16225595Y-3407965D01*
X16061060Y-3639413D01*
X16054137Y-3648079D01*
X15864741Y-3859673D01*
X15856892Y-3867510D01*
X15645020Y-4056588D01*
X15636344Y-4063498D01*
X15404648Y-4227691D01*
X15395254Y-4233587D01*
X15146643Y-4370834D01*
X15136648Y-4375642D01*
X14874249Y-4484217D01*
X14863778Y-4487877D01*
X14590885Y-4566417D01*
X14580071Y-4568883D01*
X14300098Y-4616406D01*
X14289077Y-4617647D01*
X14003919Y-4633646D01*
X13996536Y-4633784D01*
X11733722Y-4591780D01*
X11728460Y-4591038D01*
X11719696Y-4591038D01*
X11695552Y-4591038D01*
X11690001Y-4590882D01*
X11406224Y-4574945D01*
X11395192Y-4573702D01*
X11117738Y-4526561D01*
X11106914Y-4524091D01*
X10836474Y-4446178D01*
X10825995Y-4442511D01*
X10565983Y-4334810D01*
X10555981Y-4329993D01*
X10309667Y-4193860D01*
X10300267Y-4187954D01*
X10070738Y-4025095D01*
X10062057Y-4018172D01*
X9852209Y-3830639D01*
X9844360Y-3822789D01*
X9656825Y-3612938D01*
X9649907Y-3604264D01*
X9487045Y-3374733D01*
X9481139Y-3365333D01*
X9345005Y-3119017D01*
X9340188Y-3109015D01*
X9266042Y-2930011D01*
X9232486Y-2849000D01*
X9228821Y-2838525D01*
X9226452Y-2830301D01*
X9150904Y-2568069D01*
X9148441Y-2557275D01*
X9101296Y-2279803D01*
X9100054Y-2268773D01*
X9096939Y-2213300D01*
X9084118Y-1985017D01*
X9083963Y-1979416D01*
X9084040Y-1896713D01*
X9071786Y-1834511D01*
X9050982Y-1728904D01*
X9050981Y-1728903D01*
X9050981Y-1728900D01*
X8986108Y-1570641D01*
X8982001Y-1564421D01*
X8891871Y-1427909D01*
X8891870Y-1427907D01*
X8876595Y-1412406D01*
X8771818Y-1306078D01*
X8771814Y-1306075D01*
X8630488Y-1209756D01*
X8630485Y-1209754D01*
X8630483Y-1209753D01*
X8534169Y-1168609D01*
X8473197Y-1142562D01*
X8387983Y-1124471D01*
X8305885Y-1107041D01*
X8287983Y-1106777D01*
X8230077Y-1087018D01*
X8194845Y-1036994D01*
X8192340Y-1027090D01*
X8151000Y-818767D01*
X8158220Y-758011D01*
X8199773Y-713101D01*
X8248107Y-700500D01*
X9934521Y-700500D01*
X9992712Y-719407D01*
G37*
%TD.AperFunction*%
%TD*%
D23*
X14475000Y-10200000D03*
X13211841Y-9518575D03*
X5733685Y-17211027D03*
X21150000Y-11975000D03*
X19600000Y-7375000D03*
X20700000Y-13300000D03*
X15550000Y-12925000D03*
X3325000Y-9400000D03*
X21000000Y-8800000D03*
X11625000Y-9900000D03*
X12325000Y-19950000D03*
X11750000Y-17475000D03*
X2800000Y-13100000D03*
X23570000Y-16470000D03*
X21280000Y-16100000D03*
X23800000Y-23400000D03*
X19150000Y-20025000D03*
X19200000Y-17525000D03*
X11675000Y-14925000D03*
X10000000Y-8690000D03*
X3400000Y-15975000D03*
X4850000Y-7700000D03*
X14825000Y-22300000D03*
X10825000Y-12275000D03*
X17925000Y-7100000D03*
X7900000Y-7075000D03*
X21950000Y-11650000D03*
X6150000Y-18825000D03*
X21100000Y-14200000D03*
X7425000Y-15125000D03*
X17700000Y-12725000D03*
X9750000Y-13770000D03*
X16575000Y-11230000D03*
X8000000Y-10175000D03*
X11525000Y-11830000D03*
X13475000Y-11830000D03*
X17325000Y-10125000D03*
X4250000Y-14275000D03*
X11875000Y-2975000D03*
X12725000Y-2975000D03*
X12725000Y-1275000D03*
X11875000Y-2125000D03*
X11875000Y-1275000D03*
X12725000Y-2125000D03*
D24*
X5860000Y-23600000D03*
X7860000Y-23600000D03*
X9860000Y-23600000D03*
X11860000Y-23600000D03*
X22500000Y-2550000D03*
X2500000Y-22500000D03*
M02*
