%TF.GenerationSoftware,KiCad,Pcbnew,8.0.8*%
%TF.CreationDate,2025-07-08T18:18:23+01:00*%
%TF.ProjectId,LED,4c45442e-6b69-4636-9164-5f7063625858,rev?*%
%TF.SameCoordinates,Original*%
%TF.FileFunction,Legend,Bot*%
%TF.FilePolarity,Positive*%
%FSLAX46Y46*%
G04 Gerber Fmt 4.6, Leading zero omitted, Abs format (unit mm)*
G04 Created by KiCad (PCBNEW 8.0.8) date 2025-07-08 18:18:23*
%MOMM*%
%LPD*%
G01*
G04 APERTURE LIST*
%ADD10C,0.250000*%
%ADD11C,0.150000*%
%ADD12C,0.350000*%
G04 APERTURE END LIST*
D10*
X6909619Y-919523D02*
X6909619Y-443333D01*
X6909619Y-443333D02*
X7385809Y-395714D01*
X7385809Y-395714D02*
X7338190Y-443333D01*
X7338190Y-443333D02*
X7290571Y-538571D01*
X7290571Y-538571D02*
X7290571Y-776666D01*
X7290571Y-776666D02*
X7338190Y-871904D01*
X7338190Y-871904D02*
X7385809Y-919523D01*
X7385809Y-919523D02*
X7481047Y-967142D01*
X7481047Y-967142D02*
X7719142Y-967142D01*
X7719142Y-967142D02*
X7814380Y-919523D01*
X7814380Y-919523D02*
X7862000Y-871904D01*
X7862000Y-871904D02*
X7909619Y-776666D01*
X7909619Y-776666D02*
X7909619Y-538571D01*
X7909619Y-538571D02*
X7862000Y-443333D01*
X7862000Y-443333D02*
X7814380Y-395714D01*
X6909619Y-1252857D02*
X7909619Y-1586190D01*
X7909619Y-1586190D02*
X6909619Y-1919523D01*
X22887618Y-23741099D02*
X23363808Y-23741099D01*
X23363808Y-23741099D02*
X23363808Y-22741099D01*
X22554284Y-23217289D02*
X22220951Y-23217289D01*
X22078094Y-23741099D02*
X22554284Y-23741099D01*
X22554284Y-23741099D02*
X22554284Y-22741099D01*
X22554284Y-22741099D02*
X22078094Y-22741099D01*
X21649522Y-23741099D02*
X21649522Y-22741099D01*
X21649522Y-22741099D02*
X21411427Y-22741099D01*
X21411427Y-22741099D02*
X21268570Y-22788718D01*
X21268570Y-22788718D02*
X21173332Y-22883956D01*
X21173332Y-22883956D02*
X21125713Y-22979194D01*
X21125713Y-22979194D02*
X21078094Y-23169670D01*
X21078094Y-23169670D02*
X21078094Y-23312527D01*
X21078094Y-23312527D02*
X21125713Y-23503003D01*
X21125713Y-23503003D02*
X21173332Y-23598241D01*
X21173332Y-23598241D02*
X21268570Y-23693480D01*
X21268570Y-23693480D02*
X21411427Y-23741099D01*
X21411427Y-23741099D02*
X21649522Y-23741099D01*
X19982855Y-23074432D02*
X19744760Y-23741099D01*
X19744760Y-23741099D02*
X19506665Y-23074432D01*
X18935236Y-22741099D02*
X18839998Y-22741099D01*
X18839998Y-22741099D02*
X18744760Y-22788718D01*
X18744760Y-22788718D02*
X18697141Y-22836337D01*
X18697141Y-22836337D02*
X18649522Y-22931575D01*
X18649522Y-22931575D02*
X18601903Y-23122051D01*
X18601903Y-23122051D02*
X18601903Y-23360146D01*
X18601903Y-23360146D02*
X18649522Y-23550622D01*
X18649522Y-23550622D02*
X18697141Y-23645860D01*
X18697141Y-23645860D02*
X18744760Y-23693480D01*
X18744760Y-23693480D02*
X18839998Y-23741099D01*
X18839998Y-23741099D02*
X18935236Y-23741099D01*
X18935236Y-23741099D02*
X19030474Y-23693480D01*
X19030474Y-23693480D02*
X19078093Y-23645860D01*
X19078093Y-23645860D02*
X19125712Y-23550622D01*
X19125712Y-23550622D02*
X19173331Y-23360146D01*
X19173331Y-23360146D02*
X19173331Y-23122051D01*
X19173331Y-23122051D02*
X19125712Y-22931575D01*
X19125712Y-22931575D02*
X19078093Y-22836337D01*
X19078093Y-22836337D02*
X19030474Y-22788718D01*
X19030474Y-22788718D02*
X18935236Y-22741099D01*
X18173331Y-23645860D02*
X18125712Y-23693480D01*
X18125712Y-23693480D02*
X18173331Y-23741099D01*
X18173331Y-23741099D02*
X18220950Y-23693480D01*
X18220950Y-23693480D02*
X18173331Y-23645860D01*
X18173331Y-23645860D02*
X18173331Y-23741099D01*
X17220951Y-22741099D02*
X17697141Y-22741099D01*
X17697141Y-22741099D02*
X17744760Y-23217289D01*
X17744760Y-23217289D02*
X17697141Y-23169670D01*
X17697141Y-23169670D02*
X17601903Y-23122051D01*
X17601903Y-23122051D02*
X17363808Y-23122051D01*
X17363808Y-23122051D02*
X17268570Y-23169670D01*
X17268570Y-23169670D02*
X17220951Y-23217289D01*
X17220951Y-23217289D02*
X17173332Y-23312527D01*
X17173332Y-23312527D02*
X17173332Y-23550622D01*
X17173332Y-23550622D02*
X17220951Y-23645860D01*
X17220951Y-23645860D02*
X17268570Y-23693480D01*
X17268570Y-23693480D02*
X17363808Y-23741099D01*
X17363808Y-23741099D02*
X17601903Y-23741099D01*
X17601903Y-23741099D02*
X17697141Y-23693480D01*
X17697141Y-23693480D02*
X17744760Y-23645860D01*
D11*
X10181200Y-19051064D02*
X10219295Y-19165350D01*
X10219295Y-19165350D02*
X10219295Y-19355826D01*
X10219295Y-19355826D02*
X10181200Y-19432017D01*
X10181200Y-19432017D02*
X10143104Y-19470112D01*
X10143104Y-19470112D02*
X10066914Y-19508207D01*
X10066914Y-19508207D02*
X9990723Y-19508207D01*
X9990723Y-19508207D02*
X9914533Y-19470112D01*
X9914533Y-19470112D02*
X9876438Y-19432017D01*
X9876438Y-19432017D02*
X9838342Y-19355826D01*
X9838342Y-19355826D02*
X9800247Y-19203445D01*
X9800247Y-19203445D02*
X9762152Y-19127255D01*
X9762152Y-19127255D02*
X9724057Y-19089160D01*
X9724057Y-19089160D02*
X9647866Y-19051064D01*
X9647866Y-19051064D02*
X9571676Y-19051064D01*
X9571676Y-19051064D02*
X9495485Y-19089160D01*
X9495485Y-19089160D02*
X9457390Y-19127255D01*
X9457390Y-19127255D02*
X9419295Y-19203445D01*
X9419295Y-19203445D02*
X9419295Y-19393922D01*
X9419295Y-19393922D02*
X9457390Y-19508207D01*
X9419295Y-19774874D02*
X10219295Y-19965350D01*
X10219295Y-19965350D02*
X9647866Y-20117731D01*
X9647866Y-20117731D02*
X10219295Y-20270112D01*
X10219295Y-20270112D02*
X9419295Y-20460589D01*
X10219295Y-20765351D02*
X9419295Y-20765351D01*
X9419295Y-20765351D02*
X9419295Y-20955827D01*
X9419295Y-20955827D02*
X9457390Y-21070113D01*
X9457390Y-21070113D02*
X9533580Y-21146303D01*
X9533580Y-21146303D02*
X9609771Y-21184398D01*
X9609771Y-21184398D02*
X9762152Y-21222494D01*
X9762152Y-21222494D02*
X9876438Y-21222494D01*
X9876438Y-21222494D02*
X10028819Y-21184398D01*
X10028819Y-21184398D02*
X10105009Y-21146303D01*
X10105009Y-21146303D02*
X10181200Y-21070113D01*
X10181200Y-21070113D02*
X10219295Y-20955827D01*
X10219295Y-20955827D02*
X10219295Y-20765351D01*
X10219295Y-21565351D02*
X9419295Y-21565351D01*
X9419295Y-22098684D02*
X9419295Y-22251065D01*
X9419295Y-22251065D02*
X9457390Y-22327255D01*
X9457390Y-22327255D02*
X9533580Y-22403446D01*
X9533580Y-22403446D02*
X9685961Y-22441541D01*
X9685961Y-22441541D02*
X9952628Y-22441541D01*
X9952628Y-22441541D02*
X10105009Y-22403446D01*
X10105009Y-22403446D02*
X10181200Y-22327255D01*
X10181200Y-22327255D02*
X10219295Y-22251065D01*
X10219295Y-22251065D02*
X10219295Y-22098684D01*
X10219295Y-22098684D02*
X10181200Y-22022493D01*
X10181200Y-22022493D02*
X10105009Y-21946303D01*
X10105009Y-21946303D02*
X9952628Y-21908207D01*
X9952628Y-21908207D02*
X9685961Y-21908207D01*
X9685961Y-21908207D02*
X9533580Y-21946303D01*
X9533580Y-21946303D02*
X9457390Y-22022493D01*
X9457390Y-22022493D02*
X9419295Y-22098684D01*
X12218104Y-20971303D02*
X12256200Y-20933207D01*
X12256200Y-20933207D02*
X12294295Y-20818922D01*
X12294295Y-20818922D02*
X12294295Y-20742731D01*
X12294295Y-20742731D02*
X12256200Y-20628445D01*
X12256200Y-20628445D02*
X12180009Y-20552255D01*
X12180009Y-20552255D02*
X12103819Y-20514160D01*
X12103819Y-20514160D02*
X11951438Y-20476064D01*
X11951438Y-20476064D02*
X11837152Y-20476064D01*
X11837152Y-20476064D02*
X11684771Y-20514160D01*
X11684771Y-20514160D02*
X11608580Y-20552255D01*
X11608580Y-20552255D02*
X11532390Y-20628445D01*
X11532390Y-20628445D02*
X11494295Y-20742731D01*
X11494295Y-20742731D02*
X11494295Y-20818922D01*
X11494295Y-20818922D02*
X11532390Y-20933207D01*
X11532390Y-20933207D02*
X11570485Y-20971303D01*
X12294295Y-21695112D02*
X12294295Y-21314160D01*
X12294295Y-21314160D02*
X11494295Y-21314160D01*
X12294295Y-21961779D02*
X11494295Y-21961779D01*
X12294295Y-22418922D02*
X11837152Y-22076064D01*
X11494295Y-22418922D02*
X11951438Y-21961779D01*
X7507390Y-20783207D02*
X7469295Y-20707017D01*
X7469295Y-20707017D02*
X7469295Y-20592731D01*
X7469295Y-20592731D02*
X7507390Y-20478445D01*
X7507390Y-20478445D02*
X7583580Y-20402255D01*
X7583580Y-20402255D02*
X7659771Y-20364160D01*
X7659771Y-20364160D02*
X7812152Y-20326064D01*
X7812152Y-20326064D02*
X7926438Y-20326064D01*
X7926438Y-20326064D02*
X8078819Y-20364160D01*
X8078819Y-20364160D02*
X8155009Y-20402255D01*
X8155009Y-20402255D02*
X8231200Y-20478445D01*
X8231200Y-20478445D02*
X8269295Y-20592731D01*
X8269295Y-20592731D02*
X8269295Y-20668922D01*
X8269295Y-20668922D02*
X8231200Y-20783207D01*
X8231200Y-20783207D02*
X8193104Y-20821303D01*
X8193104Y-20821303D02*
X7926438Y-20821303D01*
X7926438Y-20821303D02*
X7926438Y-20668922D01*
X8269295Y-21164160D02*
X7469295Y-21164160D01*
X7469295Y-21164160D02*
X8269295Y-21621303D01*
X8269295Y-21621303D02*
X7469295Y-21621303D01*
X8269295Y-22002255D02*
X7469295Y-22002255D01*
X7469295Y-22002255D02*
X7469295Y-22192731D01*
X7469295Y-22192731D02*
X7507390Y-22307017D01*
X7507390Y-22307017D02*
X7583580Y-22383207D01*
X7583580Y-22383207D02*
X7659771Y-22421302D01*
X7659771Y-22421302D02*
X7812152Y-22459398D01*
X7812152Y-22459398D02*
X7926438Y-22459398D01*
X7926438Y-22459398D02*
X8078819Y-22421302D01*
X8078819Y-22421302D02*
X8155009Y-22383207D01*
X8155009Y-22383207D02*
X8231200Y-22307017D01*
X8231200Y-22307017D02*
X8269295Y-22192731D01*
X8269295Y-22192731D02*
X8269295Y-22002255D01*
X5444295Y-21645112D02*
X5444295Y-21264160D01*
X5444295Y-21264160D02*
X5825247Y-21226064D01*
X5825247Y-21226064D02*
X5787152Y-21264160D01*
X5787152Y-21264160D02*
X5749057Y-21340350D01*
X5749057Y-21340350D02*
X5749057Y-21530826D01*
X5749057Y-21530826D02*
X5787152Y-21607017D01*
X5787152Y-21607017D02*
X5825247Y-21645112D01*
X5825247Y-21645112D02*
X5901438Y-21683207D01*
X5901438Y-21683207D02*
X6091914Y-21683207D01*
X6091914Y-21683207D02*
X6168104Y-21645112D01*
X6168104Y-21645112D02*
X6206200Y-21607017D01*
X6206200Y-21607017D02*
X6244295Y-21530826D01*
X6244295Y-21530826D02*
X6244295Y-21340350D01*
X6244295Y-21340350D02*
X6206200Y-21264160D01*
X6206200Y-21264160D02*
X6168104Y-21226064D01*
X5444295Y-21911779D02*
X6244295Y-22178446D01*
X6244295Y-22178446D02*
X5444295Y-22445112D01*
D10*
X14677238Y-848095D02*
X14629619Y-752857D01*
X14629619Y-752857D02*
X14629619Y-610000D01*
X14629619Y-610000D02*
X14677238Y-467143D01*
X14677238Y-467143D02*
X14772476Y-371905D01*
X14772476Y-371905D02*
X14867714Y-324286D01*
X14867714Y-324286D02*
X15058190Y-276667D01*
X15058190Y-276667D02*
X15201047Y-276667D01*
X15201047Y-276667D02*
X15391523Y-324286D01*
X15391523Y-324286D02*
X15486761Y-371905D01*
X15486761Y-371905D02*
X15582000Y-467143D01*
X15582000Y-467143D02*
X15629619Y-610000D01*
X15629619Y-610000D02*
X15629619Y-705238D01*
X15629619Y-705238D02*
X15582000Y-848095D01*
X15582000Y-848095D02*
X15534380Y-895714D01*
X15534380Y-895714D02*
X15201047Y-895714D01*
X15201047Y-895714D02*
X15201047Y-705238D01*
X15629619Y-1324286D02*
X14629619Y-1324286D01*
X14629619Y-1324286D02*
X15629619Y-1895714D01*
X15629619Y-1895714D02*
X14629619Y-1895714D01*
X15629619Y-2371905D02*
X14629619Y-2371905D01*
X14629619Y-2371905D02*
X14629619Y-2610000D01*
X14629619Y-2610000D02*
X14677238Y-2752857D01*
X14677238Y-2752857D02*
X14772476Y-2848095D01*
X14772476Y-2848095D02*
X14867714Y-2895714D01*
X14867714Y-2895714D02*
X15058190Y-2943333D01*
X15058190Y-2943333D02*
X15201047Y-2943333D01*
X15201047Y-2943333D02*
X15391523Y-2895714D01*
X15391523Y-2895714D02*
X15486761Y-2848095D01*
X15486761Y-2848095D02*
X15582000Y-2752857D01*
X15582000Y-2752857D02*
X15629619Y-2610000D01*
X15629619Y-2610000D02*
X15629619Y-2371905D01*
X11449619Y-300000D02*
X10449619Y-300000D01*
X10449619Y-300000D02*
X10449619Y-538095D01*
X10449619Y-538095D02*
X10497238Y-680952D01*
X10497238Y-680952D02*
X10592476Y-776190D01*
X10592476Y-776190D02*
X10687714Y-823809D01*
X10687714Y-823809D02*
X10878190Y-871428D01*
X10878190Y-871428D02*
X11021047Y-871428D01*
X11021047Y-871428D02*
X11211523Y-823809D01*
X11211523Y-823809D02*
X11306761Y-776190D01*
X11306761Y-776190D02*
X11402000Y-680952D01*
X11402000Y-680952D02*
X11449619Y-538095D01*
X11449619Y-538095D02*
X11449619Y-300000D01*
X11163904Y-1252381D02*
X11163904Y-1728571D01*
X11449619Y-1157143D02*
X10449619Y-1490476D01*
X10449619Y-1490476D02*
X11449619Y-1823809D01*
X10449619Y-2014286D02*
X10449619Y-2585714D01*
X11449619Y-2300000D02*
X10449619Y-2300000D01*
X11163904Y-2871429D02*
X11163904Y-3347619D01*
X11449619Y-2776191D02*
X10449619Y-3109524D01*
X10449619Y-3109524D02*
X11449619Y-3442857D01*
D12*
X5850000Y-23600000D03*
X7850000Y-23600000D03*
X9850000Y-23600000D03*
X11850000Y-23600000D03*
X22500000Y-2550000D03*
X8815000Y-3870000D03*
X12625000Y-3870000D03*
X16435000Y-3870000D03*
X2500000Y-22500000D03*
M02*
