%TF.GenerationSoftware,KiCad,Pcbnew,8.0.6-8.0.6-0~ubuntu24.04.1*%
%TF.CreationDate,2024-10-19T18:08:09+01:00*%
%TF.ProjectId,Battery,42617474-6572-4792-9e6b-696361645f70,rev?*%
%TF.SameCoordinates,Original*%
%TF.FileFunction,Legend,Top*%
%TF.FilePolarity,Positive*%
%FSLAX46Y46*%
G04 Gerber Fmt 4.6, Leading zero omitted, Abs format (unit mm)*
G04 Created by KiCad (PCBNEW 8.0.6-8.0.6-0~ubuntu24.04.1) date 2024-10-19 18:08:09*
%MOMM*%
%LPD*%
G01*
G04 APERTURE LIST*
%ADD10C,0.300000*%
%ADD11C,0.250000*%
%ADD12C,0.120000*%
%ADD13C,0.150000*%
%ADD14O,0.700000X1.500000*%
%ADD15O,0.900000X0.700000*%
%ADD16C,0.350000*%
%ADD17O,0.600000X1.200000*%
G04 APERTURE END LIST*
D10*
X750000Y-19850000D02*
X2550000Y-19850000D01*
X48550000Y-19175000D02*
X48550000Y-20825000D01*
X47650000Y-20000000D02*
X49450000Y-20000000D01*
D11*
X26666099Y-7536810D02*
X26666099Y-7346334D01*
X26666099Y-7346334D02*
X26713718Y-7251096D01*
X26713718Y-7251096D02*
X26808956Y-7155858D01*
X26808956Y-7155858D02*
X26999432Y-7108239D01*
X26999432Y-7108239D02*
X27332765Y-7108239D01*
X27332765Y-7108239D02*
X27523241Y-7155858D01*
X27523241Y-7155858D02*
X27618480Y-7251096D01*
X27618480Y-7251096D02*
X27666099Y-7346334D01*
X27666099Y-7346334D02*
X27666099Y-7536810D01*
X27666099Y-7536810D02*
X27618480Y-7632048D01*
X27618480Y-7632048D02*
X27523241Y-7727286D01*
X27523241Y-7727286D02*
X27332765Y-7774905D01*
X27332765Y-7774905D02*
X26999432Y-7774905D01*
X26999432Y-7774905D02*
X26808956Y-7727286D01*
X26808956Y-7727286D02*
X26713718Y-7632048D01*
X26713718Y-7632048D02*
X26666099Y-7536810D01*
X27142289Y-6346334D02*
X27142289Y-6679667D01*
X27666099Y-6679667D02*
X26666099Y-6679667D01*
X26666099Y-6679667D02*
X26666099Y-6203477D01*
X27142289Y-5489191D02*
X27142289Y-5822524D01*
X27666099Y-5822524D02*
X26666099Y-5822524D01*
X26666099Y-5822524D02*
X26666099Y-5346334D01*
X29291099Y-7103477D02*
X29291099Y-6913001D01*
X29291099Y-6913001D02*
X29338718Y-6817763D01*
X29338718Y-6817763D02*
X29433956Y-6722525D01*
X29433956Y-6722525D02*
X29624432Y-6674906D01*
X29624432Y-6674906D02*
X29957765Y-6674906D01*
X29957765Y-6674906D02*
X30148241Y-6722525D01*
X30148241Y-6722525D02*
X30243480Y-6817763D01*
X30243480Y-6817763D02*
X30291099Y-6913001D01*
X30291099Y-6913001D02*
X30291099Y-7103477D01*
X30291099Y-7103477D02*
X30243480Y-7198715D01*
X30243480Y-7198715D02*
X30148241Y-7293953D01*
X30148241Y-7293953D02*
X29957765Y-7341572D01*
X29957765Y-7341572D02*
X29624432Y-7341572D01*
X29624432Y-7341572D02*
X29433956Y-7293953D01*
X29433956Y-7293953D02*
X29338718Y-7198715D01*
X29338718Y-7198715D02*
X29291099Y-7103477D01*
X30291099Y-6246334D02*
X29291099Y-6246334D01*
X29291099Y-6246334D02*
X30291099Y-5674906D01*
X30291099Y-5674906D02*
X29291099Y-5674906D01*
D12*
%TO.C,R13*%
X40390000Y-21607776D02*
X40390000Y-22117224D01*
X41435000Y-21607776D02*
X41435000Y-22117224D01*
%TO.C,D1*%
X24425000Y-15837500D02*
X24425000Y-17212500D01*
D13*
%TO.C,SW1*%
X26445000Y-150000D02*
X24145000Y-150000D01*
X32745000Y-150000D02*
X30545000Y-150000D01*
X32745000Y-4450000D02*
X24145000Y-4450000D01*
D12*
%TO.C,IC1*%
X7455990Y-7654700D02*
G75*
G02*
X7172010Y-7654700I-141990J0D01*
G01*
X7172010Y-7654700D02*
G75*
G02*
X7455990Y-7654700I141990J0D01*
G01*
%TO.C,U8*%
X23857500Y-5925000D02*
G75*
G02*
X23457500Y-5925000I-200000J0D01*
G01*
X23457500Y-5925000D02*
G75*
G02*
X23857500Y-5925000I200000J0D01*
G01*
%TO.C,U3*%
X15870974Y-21275000D02*
X15390974Y-21275000D01*
X15630974Y-20945000D01*
X15870974Y-21275000D01*
G36*
X15870974Y-21275000D02*
G01*
X15390974Y-21275000D01*
X15630974Y-20945000D01*
X15870974Y-21275000D01*
G37*
%TO.C,D3*%
X18662500Y-12425000D02*
X20037500Y-12425000D01*
%TO.C,L1*%
X29240000Y-17886252D02*
X29240000Y-17363748D01*
X31460000Y-17886252D02*
X31460000Y-17363748D01*
%TO.C,U1*%
X15317833Y-10090760D02*
G75*
G02*
X15091047Y-10090760I-113393J0D01*
G01*
X15091047Y-10090760D02*
G75*
G02*
X15317833Y-10090760I113393J0D01*
G01*
%TD*%
D14*
X32525000Y-2450000D03*
X24225000Y-2450000D03*
D15*
X30375000Y-2450000D03*
X28375000Y-2450000D03*
X26375000Y-2450000D03*
D16*
X39975000Y-16400000D03*
X37975000Y-16400000D03*
D17*
X9330000Y-1500000D03*
X9330000Y-5300000D03*
X17970000Y-1500000D03*
X17970000Y-5300000D03*
D16*
X40325000Y-7075000D03*
X37785000Y-7075000D03*
X6950000Y-23250000D03*
X8950000Y-23250000D03*
X10950000Y-23250000D03*
X12950000Y-23250000D03*
X47500000Y-2550000D03*
X2500000Y-22500000D03*
M02*
