%TF.GenerationSoftware,KiCad,Pcbnew,8.0.6-8.0.6-0~ubuntu24.04.1*%
%TF.CreationDate,2024-10-19T18:08:09+01:00*%
%TF.ProjectId,Battery,42617474-6572-4792-9e6b-696361645f70,rev?*%
%TF.SameCoordinates,Original*%
%TF.FileFunction,Other,ECO1*%
%FSLAX46Y46*%
G04 Gerber Fmt 4.6, Leading zero omitted, Abs format (unit mm)*
G04 Created by KiCad (PCBNEW 8.0.6-8.0.6-0~ubuntu24.04.1) date 2024-10-19 18:08:09*
%MOMM*%
%LPD*%
G01*
G04 APERTURE LIST*
%ADD10C,0.075000*%
%ADD11C,0.150000*%
%ADD12O,0.700000X1.500000*%
%ADD13O,0.900000X0.700000*%
%ADD14C,0.350000*%
%ADD15O,0.600000X1.200000*%
G04 APERTURE END LIST*
D10*
X18153572Y-22469885D02*
X18153572Y-22669885D01*
X18082143Y-22355600D02*
X18010714Y-22569885D01*
X18010714Y-22569885D02*
X18196429Y-22569885D01*
X18310714Y-22641314D02*
X18325000Y-22655600D01*
X18325000Y-22655600D02*
X18310714Y-22669885D01*
X18310714Y-22669885D02*
X18296428Y-22655600D01*
X18296428Y-22655600D02*
X18310714Y-22641314D01*
X18310714Y-22641314D02*
X18310714Y-22669885D01*
X18425000Y-22369885D02*
X18625000Y-22369885D01*
X18625000Y-22369885D02*
X18496428Y-22669885D01*
X18867857Y-22469885D02*
X18867857Y-22669885D01*
X18739285Y-22469885D02*
X18739285Y-22627028D01*
X18739285Y-22627028D02*
X18753571Y-22655600D01*
X18753571Y-22655600D02*
X18782142Y-22669885D01*
X18782142Y-22669885D02*
X18824999Y-22669885D01*
X18824999Y-22669885D02*
X18853571Y-22655600D01*
X18853571Y-22655600D02*
X18867857Y-22641314D01*
X19110714Y-22512742D02*
X19010714Y-22512742D01*
X19010714Y-22669885D02*
X19010714Y-22369885D01*
X19010714Y-22369885D02*
X19153571Y-22369885D01*
X556901Y-20519382D02*
X456901Y-20519382D01*
X456901Y-20676525D02*
X456901Y-20376525D01*
X456901Y-20376525D02*
X599758Y-20376525D01*
X814044Y-20519382D02*
X714044Y-20519382D01*
X714044Y-20676525D02*
X714044Y-20376525D01*
X714044Y-20376525D02*
X856901Y-20376525D01*
X1142616Y-20647954D02*
X1128330Y-20662240D01*
X1128330Y-20662240D02*
X1085473Y-20676525D01*
X1085473Y-20676525D02*
X1056901Y-20676525D01*
X1056901Y-20676525D02*
X1014044Y-20662240D01*
X1014044Y-20662240D02*
X985473Y-20633668D01*
X985473Y-20633668D02*
X971187Y-20605097D01*
X971187Y-20605097D02*
X956901Y-20547954D01*
X956901Y-20547954D02*
X956901Y-20505097D01*
X956901Y-20505097D02*
X971187Y-20447954D01*
X971187Y-20447954D02*
X985473Y-20419382D01*
X985473Y-20419382D02*
X1014044Y-20390811D01*
X1014044Y-20390811D02*
X1056901Y-20376525D01*
X1056901Y-20376525D02*
X1085473Y-20376525D01*
X1085473Y-20376525D02*
X1128330Y-20390811D01*
X1128330Y-20390811D02*
X1142616Y-20405097D01*
X1199759Y-20705097D02*
X1428330Y-20705097D01*
X1628330Y-20662240D02*
X1599758Y-20676525D01*
X1599758Y-20676525D02*
X1542615Y-20676525D01*
X1542615Y-20676525D02*
X1514044Y-20662240D01*
X1514044Y-20662240D02*
X1499758Y-20647954D01*
X1499758Y-20647954D02*
X1485472Y-20619382D01*
X1485472Y-20619382D02*
X1485472Y-20533668D01*
X1485472Y-20533668D02*
X1499758Y-20505097D01*
X1499758Y-20505097D02*
X1514044Y-20490811D01*
X1514044Y-20490811D02*
X1542615Y-20476525D01*
X1542615Y-20476525D02*
X1599758Y-20476525D01*
X1599758Y-20476525D02*
X1628330Y-20490811D01*
X1799758Y-20676525D02*
X1771187Y-20662240D01*
X1771187Y-20662240D02*
X1756901Y-20647954D01*
X1756901Y-20647954D02*
X1742615Y-20619382D01*
X1742615Y-20619382D02*
X1742615Y-20533668D01*
X1742615Y-20533668D02*
X1756901Y-20505097D01*
X1756901Y-20505097D02*
X1771187Y-20490811D01*
X1771187Y-20490811D02*
X1799758Y-20476525D01*
X1799758Y-20476525D02*
X1842615Y-20476525D01*
X1842615Y-20476525D02*
X1871187Y-20490811D01*
X1871187Y-20490811D02*
X1885473Y-20505097D01*
X1885473Y-20505097D02*
X1899758Y-20533668D01*
X1899758Y-20533668D02*
X1899758Y-20619382D01*
X1899758Y-20619382D02*
X1885473Y-20647954D01*
X1885473Y-20647954D02*
X1871187Y-20662240D01*
X1871187Y-20662240D02*
X1842615Y-20676525D01*
X1842615Y-20676525D02*
X1799758Y-20676525D01*
X2028330Y-20476525D02*
X2028330Y-20676525D01*
X2028330Y-20505097D02*
X2042616Y-20490811D01*
X2042616Y-20490811D02*
X2071187Y-20476525D01*
X2071187Y-20476525D02*
X2114044Y-20476525D01*
X2114044Y-20476525D02*
X2142616Y-20490811D01*
X2142616Y-20490811D02*
X2156902Y-20519382D01*
X2156902Y-20519382D02*
X2156902Y-20676525D01*
X2299759Y-20476525D02*
X2299759Y-20676525D01*
X2299759Y-20505097D02*
X2314045Y-20490811D01*
X2314045Y-20490811D02*
X2342616Y-20476525D01*
X2342616Y-20476525D02*
X2385473Y-20476525D01*
X2385473Y-20476525D02*
X2414045Y-20490811D01*
X2414045Y-20490811D02*
X2428331Y-20519382D01*
X2428331Y-20519382D02*
X2428331Y-20676525D01*
X2685474Y-20662240D02*
X2656902Y-20676525D01*
X2656902Y-20676525D02*
X2599760Y-20676525D01*
X2599760Y-20676525D02*
X2571188Y-20662240D01*
X2571188Y-20662240D02*
X2556902Y-20633668D01*
X2556902Y-20633668D02*
X2556902Y-20519382D01*
X2556902Y-20519382D02*
X2571188Y-20490811D01*
X2571188Y-20490811D02*
X2599760Y-20476525D01*
X2599760Y-20476525D02*
X2656902Y-20476525D01*
X2656902Y-20476525D02*
X2685474Y-20490811D01*
X2685474Y-20490811D02*
X2699760Y-20519382D01*
X2699760Y-20519382D02*
X2699760Y-20547954D01*
X2699760Y-20547954D02*
X2556902Y-20576525D01*
X2956903Y-20662240D02*
X2928331Y-20676525D01*
X2928331Y-20676525D02*
X2871188Y-20676525D01*
X2871188Y-20676525D02*
X2842617Y-20662240D01*
X2842617Y-20662240D02*
X2828331Y-20647954D01*
X2828331Y-20647954D02*
X2814045Y-20619382D01*
X2814045Y-20619382D02*
X2814045Y-20533668D01*
X2814045Y-20533668D02*
X2828331Y-20505097D01*
X2828331Y-20505097D02*
X2842617Y-20490811D01*
X2842617Y-20490811D02*
X2871188Y-20476525D01*
X2871188Y-20476525D02*
X2928331Y-20476525D01*
X2928331Y-20476525D02*
X2956903Y-20490811D01*
X3042617Y-20476525D02*
X3156903Y-20476525D01*
X3085474Y-20376525D02*
X3085474Y-20633668D01*
X3085474Y-20633668D02*
X3099760Y-20662240D01*
X3099760Y-20662240D02*
X3128331Y-20676525D01*
X3128331Y-20676525D02*
X3156903Y-20676525D01*
X3299760Y-20676525D02*
X3271189Y-20662240D01*
X3271189Y-20662240D02*
X3256903Y-20647954D01*
X3256903Y-20647954D02*
X3242617Y-20619382D01*
X3242617Y-20619382D02*
X3242617Y-20533668D01*
X3242617Y-20533668D02*
X3256903Y-20505097D01*
X3256903Y-20505097D02*
X3271189Y-20490811D01*
X3271189Y-20490811D02*
X3299760Y-20476525D01*
X3299760Y-20476525D02*
X3342617Y-20476525D01*
X3342617Y-20476525D02*
X3371189Y-20490811D01*
X3371189Y-20490811D02*
X3385475Y-20505097D01*
X3385475Y-20505097D02*
X3399760Y-20533668D01*
X3399760Y-20533668D02*
X3399760Y-20619382D01*
X3399760Y-20619382D02*
X3385475Y-20647954D01*
X3385475Y-20647954D02*
X3371189Y-20662240D01*
X3371189Y-20662240D02*
X3342617Y-20676525D01*
X3342617Y-20676525D02*
X3299760Y-20676525D01*
X3528332Y-20676525D02*
X3528332Y-20476525D01*
X3528332Y-20533668D02*
X3542618Y-20505097D01*
X3542618Y-20505097D02*
X3556904Y-20490811D01*
X3556904Y-20490811D02*
X3585475Y-20476525D01*
X3585475Y-20476525D02*
X3614046Y-20476525D01*
X3642618Y-20705097D02*
X3871189Y-20705097D01*
X4099760Y-20676525D02*
X3928331Y-20676525D01*
X4014046Y-20676525D02*
X4014046Y-20376525D01*
X4014046Y-20376525D02*
X3985474Y-20419382D01*
X3985474Y-20419382D02*
X3956903Y-20447954D01*
X3956903Y-20447954D02*
X3928331Y-20462240D01*
X4356903Y-20376525D02*
X4299760Y-20376525D01*
X4299760Y-20376525D02*
X4271188Y-20390811D01*
X4271188Y-20390811D02*
X4256903Y-20405097D01*
X4256903Y-20405097D02*
X4228331Y-20447954D01*
X4228331Y-20447954D02*
X4214045Y-20505097D01*
X4214045Y-20505097D02*
X4214045Y-20619382D01*
X4214045Y-20619382D02*
X4228331Y-20647954D01*
X4228331Y-20647954D02*
X4242617Y-20662240D01*
X4242617Y-20662240D02*
X4271188Y-20676525D01*
X4271188Y-20676525D02*
X4328331Y-20676525D01*
X4328331Y-20676525D02*
X4356903Y-20662240D01*
X4356903Y-20662240D02*
X4371188Y-20647954D01*
X4371188Y-20647954D02*
X4385474Y-20619382D01*
X4385474Y-20619382D02*
X4385474Y-20547954D01*
X4385474Y-20547954D02*
X4371188Y-20519382D01*
X4371188Y-20519382D02*
X4356903Y-20505097D01*
X4356903Y-20505097D02*
X4328331Y-20490811D01*
X4328331Y-20490811D02*
X4271188Y-20490811D01*
X4271188Y-20490811D02*
X4242617Y-20505097D01*
X4242617Y-20505097D02*
X4228331Y-20519382D01*
X4228331Y-20519382D02*
X4214045Y-20547954D01*
X4514045Y-20476525D02*
X4514045Y-20776525D01*
X4514045Y-20490811D02*
X4542617Y-20476525D01*
X4542617Y-20476525D02*
X4599759Y-20476525D01*
X4599759Y-20476525D02*
X4628331Y-20490811D01*
X4628331Y-20490811D02*
X4642617Y-20505097D01*
X4642617Y-20505097D02*
X4656902Y-20533668D01*
X4656902Y-20533668D02*
X4656902Y-20619382D01*
X4656902Y-20619382D02*
X4642617Y-20647954D01*
X4642617Y-20647954D02*
X4628331Y-20662240D01*
X4628331Y-20662240D02*
X4599759Y-20676525D01*
X4599759Y-20676525D02*
X4542617Y-20676525D01*
X4542617Y-20676525D02*
X4514045Y-20662240D01*
X4714046Y-20705097D02*
X4942617Y-20705097D01*
X5014045Y-20676525D02*
X5014045Y-20376525D01*
X5142617Y-20676525D02*
X5142617Y-20519382D01*
X5142617Y-20519382D02*
X5128331Y-20490811D01*
X5128331Y-20490811D02*
X5099759Y-20476525D01*
X5099759Y-20476525D02*
X5056902Y-20476525D01*
X5056902Y-20476525D02*
X5028331Y-20490811D01*
X5028331Y-20490811D02*
X5014045Y-20505097D01*
X5285474Y-20676525D02*
X5285474Y-20476525D01*
X5285474Y-20376525D02*
X5271188Y-20390811D01*
X5271188Y-20390811D02*
X5285474Y-20405097D01*
X5285474Y-20405097D02*
X5299760Y-20390811D01*
X5299760Y-20390811D02*
X5285474Y-20376525D01*
X5285474Y-20376525D02*
X5285474Y-20405097D01*
X5428331Y-20476525D02*
X5428331Y-20676525D01*
X5428331Y-20505097D02*
X5442617Y-20490811D01*
X5442617Y-20490811D02*
X5471188Y-20476525D01*
X5471188Y-20476525D02*
X5514045Y-20476525D01*
X5514045Y-20476525D02*
X5542617Y-20490811D01*
X5542617Y-20490811D02*
X5556903Y-20519382D01*
X5556903Y-20519382D02*
X5556903Y-20676525D01*
X5828332Y-20476525D02*
X5828332Y-20719382D01*
X5828332Y-20719382D02*
X5814046Y-20747954D01*
X5814046Y-20747954D02*
X5799760Y-20762240D01*
X5799760Y-20762240D02*
X5771189Y-20776525D01*
X5771189Y-20776525D02*
X5728332Y-20776525D01*
X5728332Y-20776525D02*
X5699760Y-20762240D01*
X5828332Y-20662240D02*
X5799760Y-20676525D01*
X5799760Y-20676525D02*
X5742617Y-20676525D01*
X5742617Y-20676525D02*
X5714046Y-20662240D01*
X5714046Y-20662240D02*
X5699760Y-20647954D01*
X5699760Y-20647954D02*
X5685474Y-20619382D01*
X5685474Y-20619382D02*
X5685474Y-20533668D01*
X5685474Y-20533668D02*
X5699760Y-20505097D01*
X5699760Y-20505097D02*
X5714046Y-20490811D01*
X5714046Y-20490811D02*
X5742617Y-20476525D01*
X5742617Y-20476525D02*
X5799760Y-20476525D01*
X5799760Y-20476525D02*
X5828332Y-20490811D01*
X6085475Y-20662240D02*
X6056903Y-20676525D01*
X6056903Y-20676525D02*
X5999761Y-20676525D01*
X5999761Y-20676525D02*
X5971189Y-20662240D01*
X5971189Y-20662240D02*
X5956903Y-20633668D01*
X5956903Y-20633668D02*
X5956903Y-20519382D01*
X5956903Y-20519382D02*
X5971189Y-20490811D01*
X5971189Y-20490811D02*
X5999761Y-20476525D01*
X5999761Y-20476525D02*
X6056903Y-20476525D01*
X6056903Y-20476525D02*
X6085475Y-20490811D01*
X6085475Y-20490811D02*
X6099761Y-20519382D01*
X6099761Y-20519382D02*
X6099761Y-20547954D01*
X6099761Y-20547954D02*
X5956903Y-20576525D01*
X6156904Y-20705097D02*
X6385475Y-20705097D01*
X6499760Y-20676525D02*
X6471189Y-20662240D01*
X6471189Y-20662240D02*
X6456903Y-20633668D01*
X6456903Y-20633668D02*
X6456903Y-20376525D01*
X6656903Y-20676525D02*
X6628332Y-20662240D01*
X6628332Y-20662240D02*
X6614046Y-20647954D01*
X6614046Y-20647954D02*
X6599760Y-20619382D01*
X6599760Y-20619382D02*
X6599760Y-20533668D01*
X6599760Y-20533668D02*
X6614046Y-20505097D01*
X6614046Y-20505097D02*
X6628332Y-20490811D01*
X6628332Y-20490811D02*
X6656903Y-20476525D01*
X6656903Y-20476525D02*
X6699760Y-20476525D01*
X6699760Y-20476525D02*
X6728332Y-20490811D01*
X6728332Y-20490811D02*
X6742618Y-20505097D01*
X6742618Y-20505097D02*
X6756903Y-20533668D01*
X6756903Y-20533668D02*
X6756903Y-20619382D01*
X6756903Y-20619382D02*
X6742618Y-20647954D01*
X6742618Y-20647954D02*
X6728332Y-20662240D01*
X6728332Y-20662240D02*
X6699760Y-20676525D01*
X6699760Y-20676525D02*
X6656903Y-20676525D01*
X7014047Y-20662240D02*
X6985475Y-20676525D01*
X6985475Y-20676525D02*
X6928332Y-20676525D01*
X6928332Y-20676525D02*
X6899761Y-20662240D01*
X6899761Y-20662240D02*
X6885475Y-20647954D01*
X6885475Y-20647954D02*
X6871189Y-20619382D01*
X6871189Y-20619382D02*
X6871189Y-20533668D01*
X6871189Y-20533668D02*
X6885475Y-20505097D01*
X6885475Y-20505097D02*
X6899761Y-20490811D01*
X6899761Y-20490811D02*
X6928332Y-20476525D01*
X6928332Y-20476525D02*
X6985475Y-20476525D01*
X6985475Y-20476525D02*
X7014047Y-20490811D01*
X7142618Y-20676525D02*
X7142618Y-20376525D01*
X7171190Y-20562240D02*
X7256904Y-20676525D01*
X7256904Y-20476525D02*
X7142618Y-20590811D01*
X40391072Y-19197385D02*
X40419643Y-19197385D01*
X40419643Y-19197385D02*
X40448215Y-19211671D01*
X40448215Y-19211671D02*
X40462501Y-19225957D01*
X40462501Y-19225957D02*
X40476786Y-19254528D01*
X40476786Y-19254528D02*
X40491072Y-19311671D01*
X40491072Y-19311671D02*
X40491072Y-19383100D01*
X40491072Y-19383100D02*
X40476786Y-19440242D01*
X40476786Y-19440242D02*
X40462501Y-19468814D01*
X40462501Y-19468814D02*
X40448215Y-19483100D01*
X40448215Y-19483100D02*
X40419643Y-19497385D01*
X40419643Y-19497385D02*
X40391072Y-19497385D01*
X40391072Y-19497385D02*
X40362501Y-19483100D01*
X40362501Y-19483100D02*
X40348215Y-19468814D01*
X40348215Y-19468814D02*
X40333929Y-19440242D01*
X40333929Y-19440242D02*
X40319643Y-19383100D01*
X40319643Y-19383100D02*
X40319643Y-19311671D01*
X40319643Y-19311671D02*
X40333929Y-19254528D01*
X40333929Y-19254528D02*
X40348215Y-19225957D01*
X40348215Y-19225957D02*
X40362501Y-19211671D01*
X40362501Y-19211671D02*
X40391072Y-19197385D01*
X40619643Y-19468814D02*
X40633929Y-19483100D01*
X40633929Y-19483100D02*
X40619643Y-19497385D01*
X40619643Y-19497385D02*
X40605357Y-19483100D01*
X40605357Y-19483100D02*
X40619643Y-19468814D01*
X40619643Y-19468814D02*
X40619643Y-19497385D01*
X40819643Y-19197385D02*
X40848214Y-19197385D01*
X40848214Y-19197385D02*
X40876786Y-19211671D01*
X40876786Y-19211671D02*
X40891072Y-19225957D01*
X40891072Y-19225957D02*
X40905357Y-19254528D01*
X40905357Y-19254528D02*
X40919643Y-19311671D01*
X40919643Y-19311671D02*
X40919643Y-19383100D01*
X40919643Y-19383100D02*
X40905357Y-19440242D01*
X40905357Y-19440242D02*
X40891072Y-19468814D01*
X40891072Y-19468814D02*
X40876786Y-19483100D01*
X40876786Y-19483100D02*
X40848214Y-19497385D01*
X40848214Y-19497385D02*
X40819643Y-19497385D01*
X40819643Y-19497385D02*
X40791072Y-19483100D01*
X40791072Y-19483100D02*
X40776786Y-19468814D01*
X40776786Y-19468814D02*
X40762500Y-19440242D01*
X40762500Y-19440242D02*
X40748214Y-19383100D01*
X40748214Y-19383100D02*
X40748214Y-19311671D01*
X40748214Y-19311671D02*
X40762500Y-19254528D01*
X40762500Y-19254528D02*
X40776786Y-19225957D01*
X40776786Y-19225957D02*
X40791072Y-19211671D01*
X40791072Y-19211671D02*
X40819643Y-19197385D01*
X41205357Y-19497385D02*
X41033928Y-19497385D01*
X41119643Y-19497385D02*
X41119643Y-19197385D01*
X41119643Y-19197385D02*
X41091071Y-19240242D01*
X41091071Y-19240242D02*
X41062500Y-19268814D01*
X41062500Y-19268814D02*
X41033928Y-19283100D01*
X41505357Y-19497385D02*
X41405357Y-19354528D01*
X41333928Y-19497385D02*
X41333928Y-19197385D01*
X41333928Y-19197385D02*
X41448214Y-19197385D01*
X41448214Y-19197385D02*
X41476785Y-19211671D01*
X41476785Y-19211671D02*
X41491071Y-19225957D01*
X41491071Y-19225957D02*
X41505357Y-19254528D01*
X41505357Y-19254528D02*
X41505357Y-19297385D01*
X41505357Y-19297385D02*
X41491071Y-19325957D01*
X41491071Y-19325957D02*
X41476785Y-19340242D01*
X41476785Y-19340242D02*
X41448214Y-19354528D01*
X41448214Y-19354528D02*
X41333928Y-19354528D01*
X42857381Y-4436102D02*
X42757381Y-4436102D01*
X42757381Y-4593245D02*
X42757381Y-4293245D01*
X42757381Y-4293245D02*
X42900238Y-4293245D01*
X43114524Y-4436102D02*
X43014524Y-4436102D01*
X43014524Y-4593245D02*
X43014524Y-4293245D01*
X43014524Y-4293245D02*
X43157381Y-4293245D01*
X43443096Y-4564674D02*
X43428810Y-4578960D01*
X43428810Y-4578960D02*
X43385953Y-4593245D01*
X43385953Y-4593245D02*
X43357381Y-4593245D01*
X43357381Y-4593245D02*
X43314524Y-4578960D01*
X43314524Y-4578960D02*
X43285953Y-4550388D01*
X43285953Y-4550388D02*
X43271667Y-4521817D01*
X43271667Y-4521817D02*
X43257381Y-4464674D01*
X43257381Y-4464674D02*
X43257381Y-4421817D01*
X43257381Y-4421817D02*
X43271667Y-4364674D01*
X43271667Y-4364674D02*
X43285953Y-4336102D01*
X43285953Y-4336102D02*
X43314524Y-4307531D01*
X43314524Y-4307531D02*
X43357381Y-4293245D01*
X43357381Y-4293245D02*
X43385953Y-4293245D01*
X43385953Y-4293245D02*
X43428810Y-4307531D01*
X43428810Y-4307531D02*
X43443096Y-4321817D01*
X43500239Y-4621817D02*
X43728810Y-4621817D01*
X43928810Y-4578960D02*
X43900238Y-4593245D01*
X43900238Y-4593245D02*
X43843095Y-4593245D01*
X43843095Y-4593245D02*
X43814524Y-4578960D01*
X43814524Y-4578960D02*
X43800238Y-4564674D01*
X43800238Y-4564674D02*
X43785952Y-4536102D01*
X43785952Y-4536102D02*
X43785952Y-4450388D01*
X43785952Y-4450388D02*
X43800238Y-4421817D01*
X43800238Y-4421817D02*
X43814524Y-4407531D01*
X43814524Y-4407531D02*
X43843095Y-4393245D01*
X43843095Y-4393245D02*
X43900238Y-4393245D01*
X43900238Y-4393245D02*
X43928810Y-4407531D01*
X44100238Y-4593245D02*
X44071667Y-4578960D01*
X44071667Y-4578960D02*
X44057381Y-4564674D01*
X44057381Y-4564674D02*
X44043095Y-4536102D01*
X44043095Y-4536102D02*
X44043095Y-4450388D01*
X44043095Y-4450388D02*
X44057381Y-4421817D01*
X44057381Y-4421817D02*
X44071667Y-4407531D01*
X44071667Y-4407531D02*
X44100238Y-4393245D01*
X44100238Y-4393245D02*
X44143095Y-4393245D01*
X44143095Y-4393245D02*
X44171667Y-4407531D01*
X44171667Y-4407531D02*
X44185953Y-4421817D01*
X44185953Y-4421817D02*
X44200238Y-4450388D01*
X44200238Y-4450388D02*
X44200238Y-4536102D01*
X44200238Y-4536102D02*
X44185953Y-4564674D01*
X44185953Y-4564674D02*
X44171667Y-4578960D01*
X44171667Y-4578960D02*
X44143095Y-4593245D01*
X44143095Y-4593245D02*
X44100238Y-4593245D01*
X44328810Y-4393245D02*
X44328810Y-4593245D01*
X44328810Y-4421817D02*
X44343096Y-4407531D01*
X44343096Y-4407531D02*
X44371667Y-4393245D01*
X44371667Y-4393245D02*
X44414524Y-4393245D01*
X44414524Y-4393245D02*
X44443096Y-4407531D01*
X44443096Y-4407531D02*
X44457382Y-4436102D01*
X44457382Y-4436102D02*
X44457382Y-4593245D01*
X44600239Y-4393245D02*
X44600239Y-4593245D01*
X44600239Y-4421817D02*
X44614525Y-4407531D01*
X44614525Y-4407531D02*
X44643096Y-4393245D01*
X44643096Y-4393245D02*
X44685953Y-4393245D01*
X44685953Y-4393245D02*
X44714525Y-4407531D01*
X44714525Y-4407531D02*
X44728811Y-4436102D01*
X44728811Y-4436102D02*
X44728811Y-4593245D01*
X44985954Y-4578960D02*
X44957382Y-4593245D01*
X44957382Y-4593245D02*
X44900240Y-4593245D01*
X44900240Y-4593245D02*
X44871668Y-4578960D01*
X44871668Y-4578960D02*
X44857382Y-4550388D01*
X44857382Y-4550388D02*
X44857382Y-4436102D01*
X44857382Y-4436102D02*
X44871668Y-4407531D01*
X44871668Y-4407531D02*
X44900240Y-4393245D01*
X44900240Y-4393245D02*
X44957382Y-4393245D01*
X44957382Y-4393245D02*
X44985954Y-4407531D01*
X44985954Y-4407531D02*
X45000240Y-4436102D01*
X45000240Y-4436102D02*
X45000240Y-4464674D01*
X45000240Y-4464674D02*
X44857382Y-4493245D01*
X45257383Y-4578960D02*
X45228811Y-4593245D01*
X45228811Y-4593245D02*
X45171668Y-4593245D01*
X45171668Y-4593245D02*
X45143097Y-4578960D01*
X45143097Y-4578960D02*
X45128811Y-4564674D01*
X45128811Y-4564674D02*
X45114525Y-4536102D01*
X45114525Y-4536102D02*
X45114525Y-4450388D01*
X45114525Y-4450388D02*
X45128811Y-4421817D01*
X45128811Y-4421817D02*
X45143097Y-4407531D01*
X45143097Y-4407531D02*
X45171668Y-4393245D01*
X45171668Y-4393245D02*
X45228811Y-4393245D01*
X45228811Y-4393245D02*
X45257383Y-4407531D01*
X45343097Y-4393245D02*
X45457383Y-4393245D01*
X45385954Y-4293245D02*
X45385954Y-4550388D01*
X45385954Y-4550388D02*
X45400240Y-4578960D01*
X45400240Y-4578960D02*
X45428811Y-4593245D01*
X45428811Y-4593245D02*
X45457383Y-4593245D01*
X45600240Y-4593245D02*
X45571669Y-4578960D01*
X45571669Y-4578960D02*
X45557383Y-4564674D01*
X45557383Y-4564674D02*
X45543097Y-4536102D01*
X45543097Y-4536102D02*
X45543097Y-4450388D01*
X45543097Y-4450388D02*
X45557383Y-4421817D01*
X45557383Y-4421817D02*
X45571669Y-4407531D01*
X45571669Y-4407531D02*
X45600240Y-4393245D01*
X45600240Y-4393245D02*
X45643097Y-4393245D01*
X45643097Y-4393245D02*
X45671669Y-4407531D01*
X45671669Y-4407531D02*
X45685955Y-4421817D01*
X45685955Y-4421817D02*
X45700240Y-4450388D01*
X45700240Y-4450388D02*
X45700240Y-4536102D01*
X45700240Y-4536102D02*
X45685955Y-4564674D01*
X45685955Y-4564674D02*
X45671669Y-4578960D01*
X45671669Y-4578960D02*
X45643097Y-4593245D01*
X45643097Y-4593245D02*
X45600240Y-4593245D01*
X45828812Y-4593245D02*
X45828812Y-4393245D01*
X45828812Y-4450388D02*
X45843098Y-4421817D01*
X45843098Y-4421817D02*
X45857384Y-4407531D01*
X45857384Y-4407531D02*
X45885955Y-4393245D01*
X45885955Y-4393245D02*
X45914526Y-4393245D01*
X45943098Y-4621817D02*
X46171669Y-4621817D01*
X46400240Y-4593245D02*
X46228811Y-4593245D01*
X46314526Y-4593245D02*
X46314526Y-4293245D01*
X46314526Y-4293245D02*
X46285954Y-4336102D01*
X46285954Y-4336102D02*
X46257383Y-4364674D01*
X46257383Y-4364674D02*
X46228811Y-4378960D01*
X46657383Y-4293245D02*
X46600240Y-4293245D01*
X46600240Y-4293245D02*
X46571668Y-4307531D01*
X46571668Y-4307531D02*
X46557383Y-4321817D01*
X46557383Y-4321817D02*
X46528811Y-4364674D01*
X46528811Y-4364674D02*
X46514525Y-4421817D01*
X46514525Y-4421817D02*
X46514525Y-4536102D01*
X46514525Y-4536102D02*
X46528811Y-4564674D01*
X46528811Y-4564674D02*
X46543097Y-4578960D01*
X46543097Y-4578960D02*
X46571668Y-4593245D01*
X46571668Y-4593245D02*
X46628811Y-4593245D01*
X46628811Y-4593245D02*
X46657383Y-4578960D01*
X46657383Y-4578960D02*
X46671668Y-4564674D01*
X46671668Y-4564674D02*
X46685954Y-4536102D01*
X46685954Y-4536102D02*
X46685954Y-4464674D01*
X46685954Y-4464674D02*
X46671668Y-4436102D01*
X46671668Y-4436102D02*
X46657383Y-4421817D01*
X46657383Y-4421817D02*
X46628811Y-4407531D01*
X46628811Y-4407531D02*
X46571668Y-4407531D01*
X46571668Y-4407531D02*
X46543097Y-4421817D01*
X46543097Y-4421817D02*
X46528811Y-4436102D01*
X46528811Y-4436102D02*
X46514525Y-4464674D01*
X46814525Y-4393245D02*
X46814525Y-4693245D01*
X46814525Y-4407531D02*
X46843097Y-4393245D01*
X46843097Y-4393245D02*
X46900239Y-4393245D01*
X46900239Y-4393245D02*
X46928811Y-4407531D01*
X46928811Y-4407531D02*
X46943097Y-4421817D01*
X46943097Y-4421817D02*
X46957382Y-4450388D01*
X46957382Y-4450388D02*
X46957382Y-4536102D01*
X46957382Y-4536102D02*
X46943097Y-4564674D01*
X46943097Y-4564674D02*
X46928811Y-4578960D01*
X46928811Y-4578960D02*
X46900239Y-4593245D01*
X46900239Y-4593245D02*
X46843097Y-4593245D01*
X46843097Y-4593245D02*
X46814525Y-4578960D01*
X47014526Y-4621817D02*
X47243097Y-4621817D01*
X47314525Y-4593245D02*
X47314525Y-4293245D01*
X47443097Y-4593245D02*
X47443097Y-4436102D01*
X47443097Y-4436102D02*
X47428811Y-4407531D01*
X47428811Y-4407531D02*
X47400239Y-4393245D01*
X47400239Y-4393245D02*
X47357382Y-4393245D01*
X47357382Y-4393245D02*
X47328811Y-4407531D01*
X47328811Y-4407531D02*
X47314525Y-4421817D01*
X47585954Y-4593245D02*
X47585954Y-4393245D01*
X47585954Y-4293245D02*
X47571668Y-4307531D01*
X47571668Y-4307531D02*
X47585954Y-4321817D01*
X47585954Y-4321817D02*
X47600240Y-4307531D01*
X47600240Y-4307531D02*
X47585954Y-4293245D01*
X47585954Y-4293245D02*
X47585954Y-4321817D01*
X47728811Y-4393245D02*
X47728811Y-4593245D01*
X47728811Y-4421817D02*
X47743097Y-4407531D01*
X47743097Y-4407531D02*
X47771668Y-4393245D01*
X47771668Y-4393245D02*
X47814525Y-4393245D01*
X47814525Y-4393245D02*
X47843097Y-4407531D01*
X47843097Y-4407531D02*
X47857383Y-4436102D01*
X47857383Y-4436102D02*
X47857383Y-4593245D01*
X48128812Y-4393245D02*
X48128812Y-4636102D01*
X48128812Y-4636102D02*
X48114526Y-4664674D01*
X48114526Y-4664674D02*
X48100240Y-4678960D01*
X48100240Y-4678960D02*
X48071669Y-4693245D01*
X48071669Y-4693245D02*
X48028812Y-4693245D01*
X48028812Y-4693245D02*
X48000240Y-4678960D01*
X48128812Y-4578960D02*
X48100240Y-4593245D01*
X48100240Y-4593245D02*
X48043097Y-4593245D01*
X48043097Y-4593245D02*
X48014526Y-4578960D01*
X48014526Y-4578960D02*
X48000240Y-4564674D01*
X48000240Y-4564674D02*
X47985954Y-4536102D01*
X47985954Y-4536102D02*
X47985954Y-4450388D01*
X47985954Y-4450388D02*
X48000240Y-4421817D01*
X48000240Y-4421817D02*
X48014526Y-4407531D01*
X48014526Y-4407531D02*
X48043097Y-4393245D01*
X48043097Y-4393245D02*
X48100240Y-4393245D01*
X48100240Y-4393245D02*
X48128812Y-4407531D01*
X48385955Y-4578960D02*
X48357383Y-4593245D01*
X48357383Y-4593245D02*
X48300241Y-4593245D01*
X48300241Y-4593245D02*
X48271669Y-4578960D01*
X48271669Y-4578960D02*
X48257383Y-4550388D01*
X48257383Y-4550388D02*
X48257383Y-4436102D01*
X48257383Y-4436102D02*
X48271669Y-4407531D01*
X48271669Y-4407531D02*
X48300241Y-4393245D01*
X48300241Y-4393245D02*
X48357383Y-4393245D01*
X48357383Y-4393245D02*
X48385955Y-4407531D01*
X48385955Y-4407531D02*
X48400241Y-4436102D01*
X48400241Y-4436102D02*
X48400241Y-4464674D01*
X48400241Y-4464674D02*
X48257383Y-4493245D01*
X48457384Y-4621817D02*
X48685955Y-4621817D01*
X48800240Y-4593245D02*
X48771669Y-4578960D01*
X48771669Y-4578960D02*
X48757383Y-4550388D01*
X48757383Y-4550388D02*
X48757383Y-4293245D01*
X48957383Y-4593245D02*
X48928812Y-4578960D01*
X48928812Y-4578960D02*
X48914526Y-4564674D01*
X48914526Y-4564674D02*
X48900240Y-4536102D01*
X48900240Y-4536102D02*
X48900240Y-4450388D01*
X48900240Y-4450388D02*
X48914526Y-4421817D01*
X48914526Y-4421817D02*
X48928812Y-4407531D01*
X48928812Y-4407531D02*
X48957383Y-4393245D01*
X48957383Y-4393245D02*
X49000240Y-4393245D01*
X49000240Y-4393245D02*
X49028812Y-4407531D01*
X49028812Y-4407531D02*
X49043098Y-4421817D01*
X49043098Y-4421817D02*
X49057383Y-4450388D01*
X49057383Y-4450388D02*
X49057383Y-4536102D01*
X49057383Y-4536102D02*
X49043098Y-4564674D01*
X49043098Y-4564674D02*
X49028812Y-4578960D01*
X49028812Y-4578960D02*
X49000240Y-4593245D01*
X49000240Y-4593245D02*
X48957383Y-4593245D01*
X49314527Y-4578960D02*
X49285955Y-4593245D01*
X49285955Y-4593245D02*
X49228812Y-4593245D01*
X49228812Y-4593245D02*
X49200241Y-4578960D01*
X49200241Y-4578960D02*
X49185955Y-4564674D01*
X49185955Y-4564674D02*
X49171669Y-4536102D01*
X49171669Y-4536102D02*
X49171669Y-4450388D01*
X49171669Y-4450388D02*
X49185955Y-4421817D01*
X49185955Y-4421817D02*
X49200241Y-4407531D01*
X49200241Y-4407531D02*
X49228812Y-4393245D01*
X49228812Y-4393245D02*
X49285955Y-4393245D01*
X49285955Y-4393245D02*
X49314527Y-4407531D01*
X49443098Y-4593245D02*
X49443098Y-4293245D01*
X49471670Y-4478960D02*
X49557384Y-4593245D01*
X49557384Y-4393245D02*
X49443098Y-4507531D01*
X34778571Y-19613457D02*
X34792857Y-19599171D01*
X34792857Y-19599171D02*
X34821429Y-19584885D01*
X34821429Y-19584885D02*
X34892857Y-19584885D01*
X34892857Y-19584885D02*
X34921429Y-19599171D01*
X34921429Y-19599171D02*
X34935714Y-19613457D01*
X34935714Y-19613457D02*
X34950000Y-19642028D01*
X34950000Y-19642028D02*
X34950000Y-19670600D01*
X34950000Y-19670600D02*
X34935714Y-19713457D01*
X34935714Y-19713457D02*
X34764286Y-19884885D01*
X34764286Y-19884885D02*
X34950000Y-19884885D01*
X35064285Y-19613457D02*
X35078571Y-19599171D01*
X35078571Y-19599171D02*
X35107143Y-19584885D01*
X35107143Y-19584885D02*
X35178571Y-19584885D01*
X35178571Y-19584885D02*
X35207143Y-19599171D01*
X35207143Y-19599171D02*
X35221428Y-19613457D01*
X35221428Y-19613457D02*
X35235714Y-19642028D01*
X35235714Y-19642028D02*
X35235714Y-19670600D01*
X35235714Y-19670600D02*
X35221428Y-19713457D01*
X35221428Y-19713457D02*
X35050000Y-19884885D01*
X35050000Y-19884885D02*
X35235714Y-19884885D01*
X35492857Y-19684885D02*
X35492857Y-19884885D01*
X35364285Y-19684885D02*
X35364285Y-19842028D01*
X35364285Y-19842028D02*
X35378571Y-19870600D01*
X35378571Y-19870600D02*
X35407142Y-19884885D01*
X35407142Y-19884885D02*
X35449999Y-19884885D01*
X35449999Y-19884885D02*
X35478571Y-19870600D01*
X35478571Y-19870600D02*
X35492857Y-19856314D01*
X35735714Y-19727742D02*
X35635714Y-19727742D01*
X35635714Y-19884885D02*
X35635714Y-19584885D01*
X35635714Y-19584885D02*
X35778571Y-19584885D01*
X35821429Y-19913457D02*
X36050000Y-19913457D01*
X36107142Y-19613457D02*
X36121428Y-19599171D01*
X36121428Y-19599171D02*
X36150000Y-19584885D01*
X36150000Y-19584885D02*
X36221428Y-19584885D01*
X36221428Y-19584885D02*
X36250000Y-19599171D01*
X36250000Y-19599171D02*
X36264285Y-19613457D01*
X36264285Y-19613457D02*
X36278571Y-19642028D01*
X36278571Y-19642028D02*
X36278571Y-19670600D01*
X36278571Y-19670600D02*
X36264285Y-19713457D01*
X36264285Y-19713457D02*
X36092857Y-19884885D01*
X36092857Y-19884885D02*
X36278571Y-19884885D01*
X36549999Y-19584885D02*
X36407142Y-19584885D01*
X36407142Y-19584885D02*
X36392856Y-19727742D01*
X36392856Y-19727742D02*
X36407142Y-19713457D01*
X36407142Y-19713457D02*
X36435714Y-19699171D01*
X36435714Y-19699171D02*
X36507142Y-19699171D01*
X36507142Y-19699171D02*
X36535714Y-19713457D01*
X36535714Y-19713457D02*
X36549999Y-19727742D01*
X36549999Y-19727742D02*
X36564285Y-19756314D01*
X36564285Y-19756314D02*
X36564285Y-19827742D01*
X36564285Y-19827742D02*
X36549999Y-19856314D01*
X36549999Y-19856314D02*
X36535714Y-19870600D01*
X36535714Y-19870600D02*
X36507142Y-19884885D01*
X36507142Y-19884885D02*
X36435714Y-19884885D01*
X36435714Y-19884885D02*
X36407142Y-19870600D01*
X36407142Y-19870600D02*
X36392856Y-19856314D01*
X36649999Y-19584885D02*
X36749999Y-19884885D01*
X36749999Y-19884885D02*
X36849999Y-19584885D01*
X18953572Y-6614885D02*
X18953572Y-6814885D01*
X18882143Y-6500600D02*
X18810714Y-6714885D01*
X18810714Y-6714885D02*
X18996429Y-6714885D01*
X19110714Y-6786314D02*
X19125000Y-6800600D01*
X19125000Y-6800600D02*
X19110714Y-6814885D01*
X19110714Y-6814885D02*
X19096428Y-6800600D01*
X19096428Y-6800600D02*
X19110714Y-6786314D01*
X19110714Y-6786314D02*
X19110714Y-6814885D01*
X19225000Y-6514885D02*
X19425000Y-6514885D01*
X19425000Y-6514885D02*
X19296428Y-6814885D01*
X19667857Y-6614885D02*
X19667857Y-6814885D01*
X19539285Y-6614885D02*
X19539285Y-6772028D01*
X19539285Y-6772028D02*
X19553571Y-6800600D01*
X19553571Y-6800600D02*
X19582142Y-6814885D01*
X19582142Y-6814885D02*
X19624999Y-6814885D01*
X19624999Y-6814885D02*
X19653571Y-6800600D01*
X19653571Y-6800600D02*
X19667857Y-6786314D01*
X19910714Y-6657742D02*
X19810714Y-6657742D01*
X19810714Y-6814885D02*
X19810714Y-6514885D01*
X19810714Y-6514885D02*
X19953571Y-6514885D01*
X22604885Y-4871428D02*
X22804885Y-4871428D01*
X22490600Y-4942856D02*
X22704885Y-5014285D01*
X22704885Y-5014285D02*
X22704885Y-4828570D01*
X22776314Y-4714285D02*
X22790600Y-4699999D01*
X22790600Y-4699999D02*
X22804885Y-4714285D01*
X22804885Y-4714285D02*
X22790600Y-4728571D01*
X22790600Y-4728571D02*
X22776314Y-4714285D01*
X22776314Y-4714285D02*
X22804885Y-4714285D01*
X22504885Y-4599999D02*
X22504885Y-4399999D01*
X22504885Y-4399999D02*
X22804885Y-4528571D01*
X22604885Y-4157143D02*
X22804885Y-4157143D01*
X22604885Y-4285714D02*
X22762028Y-4285714D01*
X22762028Y-4285714D02*
X22790600Y-4271428D01*
X22790600Y-4271428D02*
X22804885Y-4242857D01*
X22804885Y-4242857D02*
X22804885Y-4200000D01*
X22804885Y-4200000D02*
X22790600Y-4171428D01*
X22790600Y-4171428D02*
X22776314Y-4157143D01*
X22647742Y-3914285D02*
X22647742Y-4014285D01*
X22804885Y-4014285D02*
X22504885Y-4014285D01*
X22504885Y-4014285D02*
X22504885Y-3871428D01*
X18824505Y-2267457D02*
X18624505Y-2267457D01*
X18681648Y-2267457D02*
X18653077Y-2253171D01*
X18653077Y-2253171D02*
X18638791Y-2238886D01*
X18638791Y-2238886D02*
X18624505Y-2210314D01*
X18624505Y-2210314D02*
X18624505Y-2181743D01*
X18810220Y-1967457D02*
X18824505Y-1996029D01*
X18824505Y-1996029D02*
X18824505Y-2053172D01*
X18824505Y-2053172D02*
X18810220Y-2081743D01*
X18810220Y-2081743D02*
X18781648Y-2096029D01*
X18781648Y-2096029D02*
X18667362Y-2096029D01*
X18667362Y-2096029D02*
X18638791Y-2081743D01*
X18638791Y-2081743D02*
X18624505Y-2053172D01*
X18624505Y-2053172D02*
X18624505Y-1996029D01*
X18624505Y-1996029D02*
X18638791Y-1967457D01*
X18638791Y-1967457D02*
X18667362Y-1953172D01*
X18667362Y-1953172D02*
X18695934Y-1953172D01*
X18695934Y-1953172D02*
X18724505Y-2096029D01*
X18824505Y-1696029D02*
X18524505Y-1696029D01*
X18810220Y-1696029D02*
X18824505Y-1724600D01*
X18824505Y-1724600D02*
X18824505Y-1781743D01*
X18824505Y-1781743D02*
X18810220Y-1810314D01*
X18810220Y-1810314D02*
X18795934Y-1824600D01*
X18795934Y-1824600D02*
X18767362Y-1838886D01*
X18767362Y-1838886D02*
X18681648Y-1838886D01*
X18681648Y-1838886D02*
X18653077Y-1824600D01*
X18653077Y-1824600D02*
X18638791Y-1810314D01*
X18638791Y-1810314D02*
X18624505Y-1781743D01*
X18624505Y-1781743D02*
X18624505Y-1724600D01*
X18624505Y-1724600D02*
X18638791Y-1696029D01*
X18853077Y-1624600D02*
X18853077Y-1396028D01*
X18824505Y-1281743D02*
X18810220Y-1310314D01*
X18810220Y-1310314D02*
X18781648Y-1324600D01*
X18781648Y-1324600D02*
X18524505Y-1324600D01*
X18810220Y-1053171D02*
X18824505Y-1081743D01*
X18824505Y-1081743D02*
X18824505Y-1138886D01*
X18824505Y-1138886D02*
X18810220Y-1167457D01*
X18810220Y-1167457D02*
X18781648Y-1181743D01*
X18781648Y-1181743D02*
X18667362Y-1181743D01*
X18667362Y-1181743D02*
X18638791Y-1167457D01*
X18638791Y-1167457D02*
X18624505Y-1138886D01*
X18624505Y-1138886D02*
X18624505Y-1081743D01*
X18624505Y-1081743D02*
X18638791Y-1053171D01*
X18638791Y-1053171D02*
X18667362Y-1038886D01*
X18667362Y-1038886D02*
X18695934Y-1038886D01*
X18695934Y-1038886D02*
X18724505Y-1181743D01*
X18824505Y-781743D02*
X18524505Y-781743D01*
X18810220Y-781743D02*
X18824505Y-810314D01*
X18824505Y-810314D02*
X18824505Y-867457D01*
X18824505Y-867457D02*
X18810220Y-896028D01*
X18810220Y-896028D02*
X18795934Y-910314D01*
X18795934Y-910314D02*
X18767362Y-924600D01*
X18767362Y-924600D02*
X18681648Y-924600D01*
X18681648Y-924600D02*
X18653077Y-910314D01*
X18653077Y-910314D02*
X18638791Y-896028D01*
X18638791Y-896028D02*
X18624505Y-867457D01*
X18624505Y-867457D02*
X18624505Y-810314D01*
X18624505Y-810314D02*
X18638791Y-781743D01*
X29754885Y-20521428D02*
X29754885Y-20692857D01*
X29754885Y-20607142D02*
X29454885Y-20607142D01*
X29454885Y-20607142D02*
X29497742Y-20635714D01*
X29497742Y-20635714D02*
X29526314Y-20664285D01*
X29526314Y-20664285D02*
X29540600Y-20692857D01*
X29454885Y-20335714D02*
X29454885Y-20307143D01*
X29454885Y-20307143D02*
X29469171Y-20278571D01*
X29469171Y-20278571D02*
X29483457Y-20264286D01*
X29483457Y-20264286D02*
X29512028Y-20250000D01*
X29512028Y-20250000D02*
X29569171Y-20235714D01*
X29569171Y-20235714D02*
X29640600Y-20235714D01*
X29640600Y-20235714D02*
X29697742Y-20250000D01*
X29697742Y-20250000D02*
X29726314Y-20264286D01*
X29726314Y-20264286D02*
X29740600Y-20278571D01*
X29740600Y-20278571D02*
X29754885Y-20307143D01*
X29754885Y-20307143D02*
X29754885Y-20335714D01*
X29754885Y-20335714D02*
X29740600Y-20364286D01*
X29740600Y-20364286D02*
X29726314Y-20378571D01*
X29726314Y-20378571D02*
X29697742Y-20392857D01*
X29697742Y-20392857D02*
X29640600Y-20407143D01*
X29640600Y-20407143D02*
X29569171Y-20407143D01*
X29569171Y-20407143D02*
X29512028Y-20392857D01*
X29512028Y-20392857D02*
X29483457Y-20378571D01*
X29483457Y-20378571D02*
X29469171Y-20364286D01*
X29469171Y-20364286D02*
X29454885Y-20335714D01*
X29554885Y-20107143D02*
X29854885Y-20107143D01*
X29569171Y-20107143D02*
X29554885Y-20078572D01*
X29554885Y-20078572D02*
X29554885Y-20021429D01*
X29554885Y-20021429D02*
X29569171Y-19992857D01*
X29569171Y-19992857D02*
X29583457Y-19978572D01*
X29583457Y-19978572D02*
X29612028Y-19964286D01*
X29612028Y-19964286D02*
X29697742Y-19964286D01*
X29697742Y-19964286D02*
X29726314Y-19978572D01*
X29726314Y-19978572D02*
X29740600Y-19992857D01*
X29740600Y-19992857D02*
X29754885Y-20021429D01*
X29754885Y-20021429D02*
X29754885Y-20078572D01*
X29754885Y-20078572D02*
X29740600Y-20107143D01*
X29597742Y-19735714D02*
X29597742Y-19835714D01*
X29754885Y-19835714D02*
X29454885Y-19835714D01*
X29454885Y-19835714D02*
X29454885Y-19692857D01*
X10171076Y3005894D02*
X10171076Y2763037D01*
X10171076Y2763037D02*
X10185362Y2734465D01*
X10185362Y2734465D02*
X10199648Y2720180D01*
X10199648Y2720180D02*
X10228219Y2705894D01*
X10228219Y2705894D02*
X10285362Y2705894D01*
X10285362Y2705894D02*
X10313933Y2720180D01*
X10313933Y2720180D02*
X10328219Y2734465D01*
X10328219Y2734465D02*
X10342505Y2763037D01*
X10342505Y2763037D02*
X10342505Y3005894D01*
X10471076Y2720180D02*
X10513934Y2705894D01*
X10513934Y2705894D02*
X10585362Y2705894D01*
X10585362Y2705894D02*
X10613934Y2720180D01*
X10613934Y2720180D02*
X10628219Y2734465D01*
X10628219Y2734465D02*
X10642505Y2763037D01*
X10642505Y2763037D02*
X10642505Y2791608D01*
X10642505Y2791608D02*
X10628219Y2820180D01*
X10628219Y2820180D02*
X10613934Y2834465D01*
X10613934Y2834465D02*
X10585362Y2848751D01*
X10585362Y2848751D02*
X10528219Y2863037D01*
X10528219Y2863037D02*
X10499648Y2877322D01*
X10499648Y2877322D02*
X10485362Y2891608D01*
X10485362Y2891608D02*
X10471076Y2920180D01*
X10471076Y2920180D02*
X10471076Y2948751D01*
X10471076Y2948751D02*
X10485362Y2977322D01*
X10485362Y2977322D02*
X10499648Y2991608D01*
X10499648Y2991608D02*
X10528219Y3005894D01*
X10528219Y3005894D02*
X10599648Y3005894D01*
X10599648Y3005894D02*
X10642505Y2991608D01*
X10871076Y2863037D02*
X10913933Y2848751D01*
X10913933Y2848751D02*
X10928219Y2834465D01*
X10928219Y2834465D02*
X10942505Y2805894D01*
X10942505Y2805894D02*
X10942505Y2763037D01*
X10942505Y2763037D02*
X10928219Y2734465D01*
X10928219Y2734465D02*
X10913933Y2720180D01*
X10913933Y2720180D02*
X10885362Y2705894D01*
X10885362Y2705894D02*
X10771076Y2705894D01*
X10771076Y2705894D02*
X10771076Y3005894D01*
X10771076Y3005894D02*
X10871076Y3005894D01*
X10871076Y3005894D02*
X10899648Y2991608D01*
X10899648Y2991608D02*
X10913933Y2977322D01*
X10913933Y2977322D02*
X10928219Y2948751D01*
X10928219Y2948751D02*
X10928219Y2920180D01*
X10928219Y2920180D02*
X10913933Y2891608D01*
X10913933Y2891608D02*
X10899648Y2877322D01*
X10899648Y2877322D02*
X10871076Y2863037D01*
X10871076Y2863037D02*
X10771076Y2863037D01*
X10999648Y2677322D02*
X11228219Y2677322D01*
X11471076Y2734465D02*
X11456790Y2720180D01*
X11456790Y2720180D02*
X11413933Y2705894D01*
X11413933Y2705894D02*
X11385361Y2705894D01*
X11385361Y2705894D02*
X11342504Y2720180D01*
X11342504Y2720180D02*
X11313933Y2748751D01*
X11313933Y2748751D02*
X11299647Y2777322D01*
X11299647Y2777322D02*
X11285361Y2834465D01*
X11285361Y2834465D02*
X11285361Y2877322D01*
X11285361Y2877322D02*
X11299647Y2934465D01*
X11299647Y2934465D02*
X11313933Y2963037D01*
X11313933Y2963037D02*
X11342504Y2991608D01*
X11342504Y2991608D02*
X11385361Y3005894D01*
X11385361Y3005894D02*
X11413933Y3005894D01*
X11413933Y3005894D02*
X11456790Y2991608D01*
X11456790Y2991608D02*
X11471076Y2977322D01*
X11528219Y2677322D02*
X11756790Y2677322D01*
X11828218Y2905894D02*
X11828218Y2605894D01*
X11828218Y2891608D02*
X11856790Y2905894D01*
X11856790Y2905894D02*
X11913932Y2905894D01*
X11913932Y2905894D02*
X11942504Y2891608D01*
X11942504Y2891608D02*
X11956790Y2877322D01*
X11956790Y2877322D02*
X11971075Y2848751D01*
X11971075Y2848751D02*
X11971075Y2763037D01*
X11971075Y2763037D02*
X11956790Y2734465D01*
X11956790Y2734465D02*
X11942504Y2720180D01*
X11942504Y2720180D02*
X11913932Y2705894D01*
X11913932Y2705894D02*
X11856790Y2705894D01*
X11856790Y2705894D02*
X11828218Y2720180D01*
X12142504Y2705894D02*
X12113933Y2720180D01*
X12113933Y2720180D02*
X12099647Y2734465D01*
X12099647Y2734465D02*
X12085361Y2763037D01*
X12085361Y2763037D02*
X12085361Y2848751D01*
X12085361Y2848751D02*
X12099647Y2877322D01*
X12099647Y2877322D02*
X12113933Y2891608D01*
X12113933Y2891608D02*
X12142504Y2905894D01*
X12142504Y2905894D02*
X12185361Y2905894D01*
X12185361Y2905894D02*
X12213933Y2891608D01*
X12213933Y2891608D02*
X12228219Y2877322D01*
X12228219Y2877322D02*
X12242504Y2848751D01*
X12242504Y2848751D02*
X12242504Y2763037D01*
X12242504Y2763037D02*
X12228219Y2734465D01*
X12228219Y2734465D02*
X12213933Y2720180D01*
X12213933Y2720180D02*
X12185361Y2705894D01*
X12185361Y2705894D02*
X12142504Y2705894D01*
X12342505Y2905894D02*
X12399648Y2705894D01*
X12399648Y2705894D02*
X12456790Y2848751D01*
X12456790Y2848751D02*
X12513933Y2705894D01*
X12513933Y2705894D02*
X12571076Y2905894D01*
X12799648Y2720180D02*
X12771076Y2705894D01*
X12771076Y2705894D02*
X12713934Y2705894D01*
X12713934Y2705894D02*
X12685362Y2720180D01*
X12685362Y2720180D02*
X12671076Y2748751D01*
X12671076Y2748751D02*
X12671076Y2863037D01*
X12671076Y2863037D02*
X12685362Y2891608D01*
X12685362Y2891608D02*
X12713934Y2905894D01*
X12713934Y2905894D02*
X12771076Y2905894D01*
X12771076Y2905894D02*
X12799648Y2891608D01*
X12799648Y2891608D02*
X12813934Y2863037D01*
X12813934Y2863037D02*
X12813934Y2834465D01*
X12813934Y2834465D02*
X12671076Y2805894D01*
X12942505Y2705894D02*
X12942505Y2905894D01*
X12942505Y2848751D02*
X12956791Y2877322D01*
X12956791Y2877322D02*
X12971077Y2891608D01*
X12971077Y2891608D02*
X12999648Y2905894D01*
X12999648Y2905894D02*
X13028219Y2905894D01*
X13056791Y2677322D02*
X13285362Y2677322D01*
X13399647Y2705894D02*
X13371076Y2720180D01*
X13371076Y2720180D02*
X13356790Y2734465D01*
X13356790Y2734465D02*
X13342504Y2763037D01*
X13342504Y2763037D02*
X13342504Y2848751D01*
X13342504Y2848751D02*
X13356790Y2877322D01*
X13356790Y2877322D02*
X13371076Y2891608D01*
X13371076Y2891608D02*
X13399647Y2905894D01*
X13399647Y2905894D02*
X13442504Y2905894D01*
X13442504Y2905894D02*
X13471076Y2891608D01*
X13471076Y2891608D02*
X13485362Y2877322D01*
X13485362Y2877322D02*
X13499647Y2848751D01*
X13499647Y2848751D02*
X13499647Y2763037D01*
X13499647Y2763037D02*
X13485362Y2734465D01*
X13485362Y2734465D02*
X13471076Y2720180D01*
X13471076Y2720180D02*
X13442504Y2705894D01*
X13442504Y2705894D02*
X13399647Y2705894D01*
X13628219Y2905894D02*
X13628219Y2705894D01*
X13628219Y2877322D02*
X13642505Y2891608D01*
X13642505Y2891608D02*
X13671076Y2905894D01*
X13671076Y2905894D02*
X13713933Y2905894D01*
X13713933Y2905894D02*
X13742505Y2891608D01*
X13742505Y2891608D02*
X13756791Y2863037D01*
X13756791Y2863037D02*
X13756791Y2705894D01*
X13942505Y2705894D02*
X13913934Y2720180D01*
X13913934Y2720180D02*
X13899648Y2748751D01*
X13899648Y2748751D02*
X13899648Y3005894D01*
X14028220Y2905894D02*
X14099648Y2705894D01*
X14171077Y2905894D02*
X14099648Y2705894D01*
X14099648Y2705894D02*
X14071077Y2634465D01*
X14071077Y2634465D02*
X14056791Y2620180D01*
X14056791Y2620180D02*
X14028220Y2605894D01*
X14213934Y2677322D02*
X14442505Y2677322D01*
X14642505Y2720180D02*
X14613933Y2705894D01*
X14613933Y2705894D02*
X14556790Y2705894D01*
X14556790Y2705894D02*
X14528219Y2720180D01*
X14528219Y2720180D02*
X14513933Y2734465D01*
X14513933Y2734465D02*
X14499647Y2763037D01*
X14499647Y2763037D02*
X14499647Y2848751D01*
X14499647Y2848751D02*
X14513933Y2877322D01*
X14513933Y2877322D02*
X14528219Y2891608D01*
X14528219Y2891608D02*
X14556790Y2905894D01*
X14556790Y2905894D02*
X14613933Y2905894D01*
X14613933Y2905894D02*
X14642505Y2891608D01*
X14813933Y2705894D02*
X14785362Y2720180D01*
X14785362Y2720180D02*
X14771076Y2734465D01*
X14771076Y2734465D02*
X14756790Y2763037D01*
X14756790Y2763037D02*
X14756790Y2848751D01*
X14756790Y2848751D02*
X14771076Y2877322D01*
X14771076Y2877322D02*
X14785362Y2891608D01*
X14785362Y2891608D02*
X14813933Y2905894D01*
X14813933Y2905894D02*
X14856790Y2905894D01*
X14856790Y2905894D02*
X14885362Y2891608D01*
X14885362Y2891608D02*
X14899648Y2877322D01*
X14899648Y2877322D02*
X14913933Y2848751D01*
X14913933Y2848751D02*
X14913933Y2763037D01*
X14913933Y2763037D02*
X14899648Y2734465D01*
X14899648Y2734465D02*
X14885362Y2720180D01*
X14885362Y2720180D02*
X14856790Y2705894D01*
X14856790Y2705894D02*
X14813933Y2705894D01*
X15042505Y2905894D02*
X15042505Y2705894D01*
X15042505Y2877322D02*
X15056791Y2891608D01*
X15056791Y2891608D02*
X15085362Y2905894D01*
X15085362Y2905894D02*
X15128219Y2905894D01*
X15128219Y2905894D02*
X15156791Y2891608D01*
X15156791Y2891608D02*
X15171077Y2863037D01*
X15171077Y2863037D02*
X15171077Y2705894D01*
X15313934Y2905894D02*
X15313934Y2705894D01*
X15313934Y2877322D02*
X15328220Y2891608D01*
X15328220Y2891608D02*
X15356791Y2905894D01*
X15356791Y2905894D02*
X15399648Y2905894D01*
X15399648Y2905894D02*
X15428220Y2891608D01*
X15428220Y2891608D02*
X15442506Y2863037D01*
X15442506Y2863037D02*
X15442506Y2705894D01*
X15699649Y2720180D02*
X15671077Y2705894D01*
X15671077Y2705894D02*
X15613935Y2705894D01*
X15613935Y2705894D02*
X15585363Y2720180D01*
X15585363Y2720180D02*
X15571077Y2748751D01*
X15571077Y2748751D02*
X15571077Y2863037D01*
X15571077Y2863037D02*
X15585363Y2891608D01*
X15585363Y2891608D02*
X15613935Y2905894D01*
X15613935Y2905894D02*
X15671077Y2905894D01*
X15671077Y2905894D02*
X15699649Y2891608D01*
X15699649Y2891608D02*
X15713935Y2863037D01*
X15713935Y2863037D02*
X15713935Y2834465D01*
X15713935Y2834465D02*
X15571077Y2805894D01*
X15971078Y2720180D02*
X15942506Y2705894D01*
X15942506Y2705894D02*
X15885363Y2705894D01*
X15885363Y2705894D02*
X15856792Y2720180D01*
X15856792Y2720180D02*
X15842506Y2734465D01*
X15842506Y2734465D02*
X15828220Y2763037D01*
X15828220Y2763037D02*
X15828220Y2848751D01*
X15828220Y2848751D02*
X15842506Y2877322D01*
X15842506Y2877322D02*
X15856792Y2891608D01*
X15856792Y2891608D02*
X15885363Y2905894D01*
X15885363Y2905894D02*
X15942506Y2905894D01*
X15942506Y2905894D02*
X15971078Y2891608D01*
X16056792Y2905894D02*
X16171078Y2905894D01*
X16099649Y3005894D02*
X16099649Y2748751D01*
X16099649Y2748751D02*
X16113935Y2720180D01*
X16113935Y2720180D02*
X16142506Y2705894D01*
X16142506Y2705894D02*
X16171078Y2705894D01*
X16313935Y2705894D02*
X16285364Y2720180D01*
X16285364Y2720180D02*
X16271078Y2734465D01*
X16271078Y2734465D02*
X16256792Y2763037D01*
X16256792Y2763037D02*
X16256792Y2848751D01*
X16256792Y2848751D02*
X16271078Y2877322D01*
X16271078Y2877322D02*
X16285364Y2891608D01*
X16285364Y2891608D02*
X16313935Y2905894D01*
X16313935Y2905894D02*
X16356792Y2905894D01*
X16356792Y2905894D02*
X16385364Y2891608D01*
X16385364Y2891608D02*
X16399650Y2877322D01*
X16399650Y2877322D02*
X16413935Y2848751D01*
X16413935Y2848751D02*
X16413935Y2763037D01*
X16413935Y2763037D02*
X16399650Y2734465D01*
X16399650Y2734465D02*
X16385364Y2720180D01*
X16385364Y2720180D02*
X16356792Y2705894D01*
X16356792Y2705894D02*
X16313935Y2705894D01*
X16542507Y2705894D02*
X16542507Y2905894D01*
X16542507Y2848751D02*
X16556793Y2877322D01*
X16556793Y2877322D02*
X16571079Y2891608D01*
X16571079Y2891608D02*
X16599650Y2905894D01*
X16599650Y2905894D02*
X16628221Y2905894D01*
X41259885Y-22098213D02*
X40959885Y-22098213D01*
X41259885Y-21955356D02*
X40959885Y-21955356D01*
X40959885Y-21955356D02*
X41259885Y-21783927D01*
X41259885Y-21783927D02*
X40959885Y-21783927D01*
X41174171Y-21655356D02*
X41174171Y-21512499D01*
X41259885Y-21683927D02*
X40959885Y-21583927D01*
X40959885Y-21583927D02*
X41259885Y-21483927D01*
X41259885Y-21226784D02*
X41259885Y-21398213D01*
X41259885Y-21312498D02*
X40959885Y-21312498D01*
X40959885Y-21312498D02*
X41002742Y-21341070D01*
X41002742Y-21341070D02*
X41031314Y-21369641D01*
X41031314Y-21369641D02*
X41045600Y-21398213D01*
X41088457Y-21055356D02*
X41074171Y-21083927D01*
X41074171Y-21083927D02*
X41059885Y-21098213D01*
X41059885Y-21098213D02*
X41031314Y-21112499D01*
X41031314Y-21112499D02*
X41017028Y-21112499D01*
X41017028Y-21112499D02*
X40988457Y-21098213D01*
X40988457Y-21098213D02*
X40974171Y-21083927D01*
X40974171Y-21083927D02*
X40959885Y-21055356D01*
X40959885Y-21055356D02*
X40959885Y-20998213D01*
X40959885Y-20998213D02*
X40974171Y-20969642D01*
X40974171Y-20969642D02*
X40988457Y-20955356D01*
X40988457Y-20955356D02*
X41017028Y-20941070D01*
X41017028Y-20941070D02*
X41031314Y-20941070D01*
X41031314Y-20941070D02*
X41059885Y-20955356D01*
X41059885Y-20955356D02*
X41074171Y-20969642D01*
X41074171Y-20969642D02*
X41088457Y-20998213D01*
X41088457Y-20998213D02*
X41088457Y-21055356D01*
X41088457Y-21055356D02*
X41102742Y-21083927D01*
X41102742Y-21083927D02*
X41117028Y-21098213D01*
X41117028Y-21098213D02*
X41145600Y-21112499D01*
X41145600Y-21112499D02*
X41202742Y-21112499D01*
X41202742Y-21112499D02*
X41231314Y-21098213D01*
X41231314Y-21098213D02*
X41245600Y-21083927D01*
X41245600Y-21083927D02*
X41259885Y-21055356D01*
X41259885Y-21055356D02*
X41259885Y-20998213D01*
X41259885Y-20998213D02*
X41245600Y-20969642D01*
X41245600Y-20969642D02*
X41231314Y-20955356D01*
X41231314Y-20955356D02*
X41202742Y-20941070D01*
X41202742Y-20941070D02*
X41145600Y-20941070D01*
X41145600Y-20941070D02*
X41117028Y-20955356D01*
X41117028Y-20955356D02*
X41102742Y-20969642D01*
X41102742Y-20969642D02*
X41088457Y-20998213D01*
X40959885Y-20755356D02*
X40959885Y-20726785D01*
X40959885Y-20726785D02*
X40974171Y-20698213D01*
X40974171Y-20698213D02*
X40988457Y-20683928D01*
X40988457Y-20683928D02*
X41017028Y-20669642D01*
X41017028Y-20669642D02*
X41074171Y-20655356D01*
X41074171Y-20655356D02*
X41145600Y-20655356D01*
X41145600Y-20655356D02*
X41202742Y-20669642D01*
X41202742Y-20669642D02*
X41231314Y-20683928D01*
X41231314Y-20683928D02*
X41245600Y-20698213D01*
X41245600Y-20698213D02*
X41259885Y-20726785D01*
X41259885Y-20726785D02*
X41259885Y-20755356D01*
X41259885Y-20755356D02*
X41245600Y-20783928D01*
X41245600Y-20783928D02*
X41231314Y-20798213D01*
X41231314Y-20798213D02*
X41202742Y-20812499D01*
X41202742Y-20812499D02*
X41145600Y-20826785D01*
X41145600Y-20826785D02*
X41074171Y-20826785D01*
X41074171Y-20826785D02*
X41017028Y-20812499D01*
X41017028Y-20812499D02*
X40988457Y-20798213D01*
X40988457Y-20798213D02*
X40974171Y-20783928D01*
X40974171Y-20783928D02*
X40959885Y-20755356D01*
X41174171Y-20541071D02*
X41174171Y-20398214D01*
X41259885Y-20569642D02*
X40959885Y-20469642D01*
X40959885Y-20469642D02*
X41259885Y-20369642D01*
X40959885Y-20298213D02*
X40959885Y-20112499D01*
X40959885Y-20112499D02*
X41074171Y-20212499D01*
X41074171Y-20212499D02*
X41074171Y-20169642D01*
X41074171Y-20169642D02*
X41088457Y-20141071D01*
X41088457Y-20141071D02*
X41102742Y-20126785D01*
X41102742Y-20126785D02*
X41131314Y-20112499D01*
X41131314Y-20112499D02*
X41202742Y-20112499D01*
X41202742Y-20112499D02*
X41231314Y-20126785D01*
X41231314Y-20126785D02*
X41245600Y-20141071D01*
X41245600Y-20141071D02*
X41259885Y-20169642D01*
X41259885Y-20169642D02*
X41259885Y-20255356D01*
X41259885Y-20255356D02*
X41245600Y-20283928D01*
X41245600Y-20283928D02*
X41231314Y-20298213D01*
X6549445Y-9576985D02*
X6792302Y-9576985D01*
X6792302Y-9576985D02*
X6820874Y-9562699D01*
X6820874Y-9562699D02*
X6835160Y-9548414D01*
X6835160Y-9548414D02*
X6849445Y-9519842D01*
X6849445Y-9519842D02*
X6849445Y-9462699D01*
X6849445Y-9462699D02*
X6835160Y-9434128D01*
X6835160Y-9434128D02*
X6820874Y-9419842D01*
X6820874Y-9419842D02*
X6792302Y-9405556D01*
X6792302Y-9405556D02*
X6549445Y-9405556D01*
X6835160Y-9276985D02*
X6849445Y-9234128D01*
X6849445Y-9234128D02*
X6849445Y-9162699D01*
X6849445Y-9162699D02*
X6835160Y-9134128D01*
X6835160Y-9134128D02*
X6820874Y-9119842D01*
X6820874Y-9119842D02*
X6792302Y-9105556D01*
X6792302Y-9105556D02*
X6763731Y-9105556D01*
X6763731Y-9105556D02*
X6735160Y-9119842D01*
X6735160Y-9119842D02*
X6720874Y-9134128D01*
X6720874Y-9134128D02*
X6706588Y-9162699D01*
X6706588Y-9162699D02*
X6692302Y-9219842D01*
X6692302Y-9219842D02*
X6678017Y-9248413D01*
X6678017Y-9248413D02*
X6663731Y-9262699D01*
X6663731Y-9262699D02*
X6635160Y-9276985D01*
X6635160Y-9276985D02*
X6606588Y-9276985D01*
X6606588Y-9276985D02*
X6578017Y-9262699D01*
X6578017Y-9262699D02*
X6563731Y-9248413D01*
X6563731Y-9248413D02*
X6549445Y-9219842D01*
X6549445Y-9219842D02*
X6549445Y-9148413D01*
X6549445Y-9148413D02*
X6563731Y-9105556D01*
X6692302Y-8876985D02*
X6706588Y-8834128D01*
X6706588Y-8834128D02*
X6720874Y-8819842D01*
X6720874Y-8819842D02*
X6749445Y-8805556D01*
X6749445Y-8805556D02*
X6792302Y-8805556D01*
X6792302Y-8805556D02*
X6820874Y-8819842D01*
X6820874Y-8819842D02*
X6835160Y-8834128D01*
X6835160Y-8834128D02*
X6849445Y-8862699D01*
X6849445Y-8862699D02*
X6849445Y-8976985D01*
X6849445Y-8976985D02*
X6549445Y-8976985D01*
X6549445Y-8976985D02*
X6549445Y-8876985D01*
X6549445Y-8876985D02*
X6563731Y-8848414D01*
X6563731Y-8848414D02*
X6578017Y-8834128D01*
X6578017Y-8834128D02*
X6606588Y-8819842D01*
X6606588Y-8819842D02*
X6635160Y-8819842D01*
X6635160Y-8819842D02*
X6663731Y-8834128D01*
X6663731Y-8834128D02*
X6678017Y-8848414D01*
X6678017Y-8848414D02*
X6692302Y-8876985D01*
X6692302Y-8876985D02*
X6692302Y-8976985D01*
X6849445Y-8534128D02*
X6849445Y-8676985D01*
X6849445Y-8676985D02*
X6549445Y-8676985D01*
X6820874Y-8262699D02*
X6835160Y-8276985D01*
X6835160Y-8276985D02*
X6849445Y-8319842D01*
X6849445Y-8319842D02*
X6849445Y-8348414D01*
X6849445Y-8348414D02*
X6835160Y-8391271D01*
X6835160Y-8391271D02*
X6806588Y-8419842D01*
X6806588Y-8419842D02*
X6778017Y-8434128D01*
X6778017Y-8434128D02*
X6720874Y-8448414D01*
X6720874Y-8448414D02*
X6678017Y-8448414D01*
X6678017Y-8448414D02*
X6620874Y-8434128D01*
X6620874Y-8434128D02*
X6592302Y-8419842D01*
X6592302Y-8419842D02*
X6563731Y-8391271D01*
X6563731Y-8391271D02*
X6549445Y-8348414D01*
X6549445Y-8348414D02*
X6549445Y-8319842D01*
X6549445Y-8319842D02*
X6563731Y-8276985D01*
X6563731Y-8276985D02*
X6578017Y-8262699D01*
X6549445Y-8005557D02*
X6549445Y-8062699D01*
X6549445Y-8062699D02*
X6563731Y-8091271D01*
X6563731Y-8091271D02*
X6578017Y-8105557D01*
X6578017Y-8105557D02*
X6620874Y-8134128D01*
X6620874Y-8134128D02*
X6678017Y-8148414D01*
X6678017Y-8148414D02*
X6792302Y-8148414D01*
X6792302Y-8148414D02*
X6820874Y-8134128D01*
X6820874Y-8134128D02*
X6835160Y-8119842D01*
X6835160Y-8119842D02*
X6849445Y-8091271D01*
X6849445Y-8091271D02*
X6849445Y-8034128D01*
X6849445Y-8034128D02*
X6835160Y-8005557D01*
X6835160Y-8005557D02*
X6820874Y-7991271D01*
X6820874Y-7991271D02*
X6792302Y-7976985D01*
X6792302Y-7976985D02*
X6720874Y-7976985D01*
X6720874Y-7976985D02*
X6692302Y-7991271D01*
X6692302Y-7991271D02*
X6678017Y-8005557D01*
X6678017Y-8005557D02*
X6663731Y-8034128D01*
X6663731Y-8034128D02*
X6663731Y-8091271D01*
X6663731Y-8091271D02*
X6678017Y-8119842D01*
X6678017Y-8119842D02*
X6692302Y-8134128D01*
X6692302Y-8134128D02*
X6720874Y-8148414D01*
X6735160Y-7848414D02*
X6735160Y-7619843D01*
X6578017Y-7491271D02*
X6563731Y-7476985D01*
X6563731Y-7476985D02*
X6549445Y-7448414D01*
X6549445Y-7448414D02*
X6549445Y-7376985D01*
X6549445Y-7376985D02*
X6563731Y-7348414D01*
X6563731Y-7348414D02*
X6578017Y-7334128D01*
X6578017Y-7334128D02*
X6606588Y-7319842D01*
X6606588Y-7319842D02*
X6635160Y-7319842D01*
X6635160Y-7319842D02*
X6678017Y-7334128D01*
X6678017Y-7334128D02*
X6849445Y-7505556D01*
X6849445Y-7505556D02*
X6849445Y-7319842D01*
X6849445Y-7191271D02*
X6549445Y-7191271D01*
X6549445Y-7191271D02*
X6549445Y-7076985D01*
X6549445Y-7076985D02*
X6563731Y-7048414D01*
X6563731Y-7048414D02*
X6578017Y-7034128D01*
X6578017Y-7034128D02*
X6606588Y-7019842D01*
X6606588Y-7019842D02*
X6649445Y-7019842D01*
X6649445Y-7019842D02*
X6678017Y-7034128D01*
X6678017Y-7034128D02*
X6692302Y-7048414D01*
X6692302Y-7048414D02*
X6706588Y-7076985D01*
X6706588Y-7076985D02*
X6706588Y-7191271D01*
X6549445Y-6762700D02*
X6549445Y-6819842D01*
X6549445Y-6819842D02*
X6563731Y-6848414D01*
X6563731Y-6848414D02*
X6578017Y-6862700D01*
X6578017Y-6862700D02*
X6620874Y-6891271D01*
X6620874Y-6891271D02*
X6678017Y-6905557D01*
X6678017Y-6905557D02*
X6792302Y-6905557D01*
X6792302Y-6905557D02*
X6820874Y-6891271D01*
X6820874Y-6891271D02*
X6835160Y-6876985D01*
X6835160Y-6876985D02*
X6849445Y-6848414D01*
X6849445Y-6848414D02*
X6849445Y-6791271D01*
X6849445Y-6791271D02*
X6835160Y-6762700D01*
X6835160Y-6762700D02*
X6820874Y-6748414D01*
X6820874Y-6748414D02*
X6792302Y-6734128D01*
X6792302Y-6734128D02*
X6720874Y-6734128D01*
X6720874Y-6734128D02*
X6692302Y-6748414D01*
X6692302Y-6748414D02*
X6678017Y-6762700D01*
X6678017Y-6762700D02*
X6663731Y-6791271D01*
X6663731Y-6791271D02*
X6663731Y-6848414D01*
X6663731Y-6848414D02*
X6678017Y-6876985D01*
X6678017Y-6876985D02*
X6692302Y-6891271D01*
X6692302Y-6891271D02*
X6720874Y-6905557D01*
X23153572Y-21604885D02*
X23153572Y-21804885D01*
X23082143Y-21490600D02*
X23010714Y-21704885D01*
X23010714Y-21704885D02*
X23196429Y-21704885D01*
X23310714Y-21776314D02*
X23325000Y-21790600D01*
X23325000Y-21790600D02*
X23310714Y-21804885D01*
X23310714Y-21804885D02*
X23296428Y-21790600D01*
X23296428Y-21790600D02*
X23310714Y-21776314D01*
X23310714Y-21776314D02*
X23310714Y-21804885D01*
X23425000Y-21504885D02*
X23625000Y-21504885D01*
X23625000Y-21504885D02*
X23496428Y-21804885D01*
X23867857Y-21604885D02*
X23867857Y-21804885D01*
X23739285Y-21604885D02*
X23739285Y-21762028D01*
X23739285Y-21762028D02*
X23753571Y-21790600D01*
X23753571Y-21790600D02*
X23782142Y-21804885D01*
X23782142Y-21804885D02*
X23824999Y-21804885D01*
X23824999Y-21804885D02*
X23853571Y-21790600D01*
X23853571Y-21790600D02*
X23867857Y-21776314D01*
X24110714Y-21647742D02*
X24010714Y-21647742D01*
X24010714Y-21804885D02*
X24010714Y-21504885D01*
X24010714Y-21504885D02*
X24153571Y-21504885D01*
X21050358Y-3959885D02*
X21221787Y-3959885D01*
X21136072Y-4259885D02*
X21136072Y-3959885D01*
X21321786Y-4259885D02*
X21321786Y-3959885D01*
X21321786Y-3959885D02*
X21436072Y-3959885D01*
X21436072Y-3959885D02*
X21464643Y-3974171D01*
X21464643Y-3974171D02*
X21478929Y-3988457D01*
X21478929Y-3988457D02*
X21493215Y-4017028D01*
X21493215Y-4017028D02*
X21493215Y-4059885D01*
X21493215Y-4059885D02*
X21478929Y-4088457D01*
X21478929Y-4088457D02*
X21464643Y-4102742D01*
X21464643Y-4102742D02*
X21436072Y-4117028D01*
X21436072Y-4117028D02*
X21321786Y-4117028D01*
X21750358Y-4059885D02*
X21750358Y-4259885D01*
X21678929Y-3945600D02*
X21607500Y-4159885D01*
X21607500Y-4159885D02*
X21793215Y-4159885D01*
X21964643Y-3959885D02*
X21993214Y-3959885D01*
X21993214Y-3959885D02*
X22021786Y-3974171D01*
X22021786Y-3974171D02*
X22036072Y-3988457D01*
X22036072Y-3988457D02*
X22050357Y-4017028D01*
X22050357Y-4017028D02*
X22064643Y-4074171D01*
X22064643Y-4074171D02*
X22064643Y-4145600D01*
X22064643Y-4145600D02*
X22050357Y-4202742D01*
X22050357Y-4202742D02*
X22036072Y-4231314D01*
X22036072Y-4231314D02*
X22021786Y-4245600D01*
X22021786Y-4245600D02*
X21993214Y-4259885D01*
X21993214Y-4259885D02*
X21964643Y-4259885D01*
X21964643Y-4259885D02*
X21936072Y-4245600D01*
X21936072Y-4245600D02*
X21921786Y-4231314D01*
X21921786Y-4231314D02*
X21907500Y-4202742D01*
X21907500Y-4202742D02*
X21893214Y-4145600D01*
X21893214Y-4145600D02*
X21893214Y-4074171D01*
X21893214Y-4074171D02*
X21907500Y-4017028D01*
X21907500Y-4017028D02*
X21921786Y-3988457D01*
X21921786Y-3988457D02*
X21936072Y-3974171D01*
X21936072Y-3974171D02*
X21964643Y-3959885D01*
X22336071Y-3959885D02*
X22193214Y-3959885D01*
X22193214Y-3959885D02*
X22178928Y-4102742D01*
X22178928Y-4102742D02*
X22193214Y-4088457D01*
X22193214Y-4088457D02*
X22221786Y-4074171D01*
X22221786Y-4074171D02*
X22293214Y-4074171D01*
X22293214Y-4074171D02*
X22321786Y-4088457D01*
X22321786Y-4088457D02*
X22336071Y-4102742D01*
X22336071Y-4102742D02*
X22350357Y-4131314D01*
X22350357Y-4131314D02*
X22350357Y-4202742D01*
X22350357Y-4202742D02*
X22336071Y-4231314D01*
X22336071Y-4231314D02*
X22321786Y-4245600D01*
X22321786Y-4245600D02*
X22293214Y-4259885D01*
X22293214Y-4259885D02*
X22221786Y-4259885D01*
X22221786Y-4259885D02*
X22193214Y-4245600D01*
X22193214Y-4245600D02*
X22178928Y-4231314D01*
X22450357Y-3959885D02*
X22650357Y-3959885D01*
X22650357Y-3959885D02*
X22521785Y-4259885D01*
D11*
X42129819Y-25171428D02*
X42129819Y-24600000D01*
X43129819Y-24885714D02*
X42129819Y-24885714D01*
X43129819Y-24266666D02*
X42129819Y-24266666D01*
X42129819Y-24266666D02*
X42129819Y-23885714D01*
X42129819Y-23885714D02*
X42177438Y-23790476D01*
X42177438Y-23790476D02*
X42225057Y-23742857D01*
X42225057Y-23742857D02*
X42320295Y-23695238D01*
X42320295Y-23695238D02*
X42463152Y-23695238D01*
X42463152Y-23695238D02*
X42558390Y-23742857D01*
X42558390Y-23742857D02*
X42606009Y-23790476D01*
X42606009Y-23790476D02*
X42653628Y-23885714D01*
X42653628Y-23885714D02*
X42653628Y-24266666D01*
X43082200Y-23314285D02*
X43129819Y-23171428D01*
X43129819Y-23171428D02*
X43129819Y-22933333D01*
X43129819Y-22933333D02*
X43082200Y-22838095D01*
X43082200Y-22838095D02*
X43034580Y-22790476D01*
X43034580Y-22790476D02*
X42939342Y-22742857D01*
X42939342Y-22742857D02*
X42844104Y-22742857D01*
X42844104Y-22742857D02*
X42748866Y-22790476D01*
X42748866Y-22790476D02*
X42701247Y-22838095D01*
X42701247Y-22838095D02*
X42653628Y-22933333D01*
X42653628Y-22933333D02*
X42606009Y-23123809D01*
X42606009Y-23123809D02*
X42558390Y-23219047D01*
X42558390Y-23219047D02*
X42510771Y-23266666D01*
X42510771Y-23266666D02*
X42415533Y-23314285D01*
X42415533Y-23314285D02*
X42320295Y-23314285D01*
X42320295Y-23314285D02*
X42225057Y-23266666D01*
X42225057Y-23266666D02*
X42177438Y-23219047D01*
X42177438Y-23219047D02*
X42129819Y-23123809D01*
X42129819Y-23123809D02*
X42129819Y-22885714D01*
X42129819Y-22885714D02*
X42177438Y-22742857D01*
X42129819Y-21885714D02*
X42129819Y-22076190D01*
X42129819Y-22076190D02*
X42177438Y-22171428D01*
X42177438Y-22171428D02*
X42225057Y-22219047D01*
X42225057Y-22219047D02*
X42367914Y-22314285D01*
X42367914Y-22314285D02*
X42558390Y-22361904D01*
X42558390Y-22361904D02*
X42939342Y-22361904D01*
X42939342Y-22361904D02*
X43034580Y-22314285D01*
X43034580Y-22314285D02*
X43082200Y-22266666D01*
X43082200Y-22266666D02*
X43129819Y-22171428D01*
X43129819Y-22171428D02*
X43129819Y-21980952D01*
X43129819Y-21980952D02*
X43082200Y-21885714D01*
X43082200Y-21885714D02*
X43034580Y-21838095D01*
X43034580Y-21838095D02*
X42939342Y-21790476D01*
X42939342Y-21790476D02*
X42701247Y-21790476D01*
X42701247Y-21790476D02*
X42606009Y-21838095D01*
X42606009Y-21838095D02*
X42558390Y-21885714D01*
X42558390Y-21885714D02*
X42510771Y-21980952D01*
X42510771Y-21980952D02*
X42510771Y-22171428D01*
X42510771Y-22171428D02*
X42558390Y-22266666D01*
X42558390Y-22266666D02*
X42606009Y-22314285D01*
X42606009Y-22314285D02*
X42701247Y-22361904D01*
X43129819Y-20838095D02*
X43129819Y-21409523D01*
X43129819Y-21123809D02*
X42129819Y-21123809D01*
X42129819Y-21123809D02*
X42272676Y-21219047D01*
X42272676Y-21219047D02*
X42367914Y-21314285D01*
X42367914Y-21314285D02*
X42415533Y-21409523D01*
X42225057Y-20457142D02*
X42177438Y-20409523D01*
X42177438Y-20409523D02*
X42129819Y-20314285D01*
X42129819Y-20314285D02*
X42129819Y-20076190D01*
X42129819Y-20076190D02*
X42177438Y-19980952D01*
X42177438Y-19980952D02*
X42225057Y-19933333D01*
X42225057Y-19933333D02*
X42320295Y-19885714D01*
X42320295Y-19885714D02*
X42415533Y-19885714D01*
X42415533Y-19885714D02*
X42558390Y-19933333D01*
X42558390Y-19933333D02*
X43129819Y-20504761D01*
X43129819Y-20504761D02*
X43129819Y-19885714D01*
X42129819Y-19552380D02*
X42129819Y-18933333D01*
X42129819Y-18933333D02*
X42510771Y-19266666D01*
X42510771Y-19266666D02*
X42510771Y-19123809D01*
X42510771Y-19123809D02*
X42558390Y-19028571D01*
X42558390Y-19028571D02*
X42606009Y-18980952D01*
X42606009Y-18980952D02*
X42701247Y-18933333D01*
X42701247Y-18933333D02*
X42939342Y-18933333D01*
X42939342Y-18933333D02*
X43034580Y-18980952D01*
X43034580Y-18980952D02*
X43082200Y-19028571D01*
X43082200Y-19028571D02*
X43129819Y-19123809D01*
X43129819Y-19123809D02*
X43129819Y-19409523D01*
X43129819Y-19409523D02*
X43082200Y-19504761D01*
X43082200Y-19504761D02*
X43034580Y-19552380D01*
X42129819Y-18314285D02*
X42129819Y-18219047D01*
X42129819Y-18219047D02*
X42177438Y-18123809D01*
X42177438Y-18123809D02*
X42225057Y-18076190D01*
X42225057Y-18076190D02*
X42320295Y-18028571D01*
X42320295Y-18028571D02*
X42510771Y-17980952D01*
X42510771Y-17980952D02*
X42748866Y-17980952D01*
X42748866Y-17980952D02*
X42939342Y-18028571D01*
X42939342Y-18028571D02*
X43034580Y-18076190D01*
X43034580Y-18076190D02*
X43082200Y-18123809D01*
X43082200Y-18123809D02*
X43129819Y-18219047D01*
X43129819Y-18219047D02*
X43129819Y-18314285D01*
X43129819Y-18314285D02*
X43082200Y-18409523D01*
X43082200Y-18409523D02*
X43034580Y-18457142D01*
X43034580Y-18457142D02*
X42939342Y-18504761D01*
X42939342Y-18504761D02*
X42748866Y-18552380D01*
X42748866Y-18552380D02*
X42510771Y-18552380D01*
X42510771Y-18552380D02*
X42320295Y-18504761D01*
X42320295Y-18504761D02*
X42225057Y-18457142D01*
X42225057Y-18457142D02*
X42177438Y-18409523D01*
X42177438Y-18409523D02*
X42129819Y-18314285D01*
X42844104Y-17599999D02*
X42844104Y-17123809D01*
X43129819Y-17695237D02*
X42129819Y-17361904D01*
X42129819Y-17361904D02*
X43129819Y-17028571D01*
D10*
X24109885Y-22949999D02*
X23809885Y-22949999D01*
X23809885Y-22949999D02*
X24024171Y-22849999D01*
X24024171Y-22849999D02*
X23809885Y-22749999D01*
X23809885Y-22749999D02*
X24109885Y-22749999D01*
X23952742Y-22607142D02*
X23952742Y-22507142D01*
X24109885Y-22464285D02*
X24109885Y-22607142D01*
X24109885Y-22607142D02*
X23809885Y-22607142D01*
X23809885Y-22607142D02*
X23809885Y-22464285D01*
X23809885Y-22207142D02*
X23809885Y-22264284D01*
X23809885Y-22264284D02*
X23824171Y-22292856D01*
X23824171Y-22292856D02*
X23838457Y-22307142D01*
X23838457Y-22307142D02*
X23881314Y-22335713D01*
X23881314Y-22335713D02*
X23938457Y-22349999D01*
X23938457Y-22349999D02*
X24052742Y-22349999D01*
X24052742Y-22349999D02*
X24081314Y-22335713D01*
X24081314Y-22335713D02*
X24095600Y-22321427D01*
X24095600Y-22321427D02*
X24109885Y-22292856D01*
X24109885Y-22292856D02*
X24109885Y-22235713D01*
X24109885Y-22235713D02*
X24095600Y-22207142D01*
X24095600Y-22207142D02*
X24081314Y-22192856D01*
X24081314Y-22192856D02*
X24052742Y-22178570D01*
X24052742Y-22178570D02*
X23981314Y-22178570D01*
X23981314Y-22178570D02*
X23952742Y-22192856D01*
X23952742Y-22192856D02*
X23938457Y-22207142D01*
X23938457Y-22207142D02*
X23924171Y-22235713D01*
X23924171Y-22235713D02*
X23924171Y-22292856D01*
X23924171Y-22292856D02*
X23938457Y-22321427D01*
X23938457Y-22321427D02*
X23952742Y-22335713D01*
X23952742Y-22335713D02*
X23981314Y-22349999D01*
X23838457Y-22064285D02*
X23824171Y-22049999D01*
X23824171Y-22049999D02*
X23809885Y-22021428D01*
X23809885Y-22021428D02*
X23809885Y-21949999D01*
X23809885Y-21949999D02*
X23824171Y-21921428D01*
X23824171Y-21921428D02*
X23838457Y-21907142D01*
X23838457Y-21907142D02*
X23867028Y-21892856D01*
X23867028Y-21892856D02*
X23895600Y-21892856D01*
X23895600Y-21892856D02*
X23938457Y-21907142D01*
X23938457Y-21907142D02*
X24109885Y-22078570D01*
X24109885Y-22078570D02*
X24109885Y-21892856D01*
X24109885Y-21607142D02*
X24109885Y-21778571D01*
X24109885Y-21692856D02*
X23809885Y-21692856D01*
X23809885Y-21692856D02*
X23852742Y-21721428D01*
X23852742Y-21721428D02*
X23881314Y-21749999D01*
X23881314Y-21749999D02*
X23895600Y-21778571D01*
X24109885Y-21321428D02*
X24109885Y-21492857D01*
X24109885Y-21407142D02*
X23809885Y-21407142D01*
X23809885Y-21407142D02*
X23852742Y-21435714D01*
X23852742Y-21435714D02*
X23881314Y-21464285D01*
X23881314Y-21464285D02*
X23895600Y-21492857D01*
X24081314Y-21021428D02*
X24095600Y-21035714D01*
X24095600Y-21035714D02*
X24109885Y-21078571D01*
X24109885Y-21078571D02*
X24109885Y-21107143D01*
X24109885Y-21107143D02*
X24095600Y-21150000D01*
X24095600Y-21150000D02*
X24067028Y-21178571D01*
X24067028Y-21178571D02*
X24038457Y-21192857D01*
X24038457Y-21192857D02*
X23981314Y-21207143D01*
X23981314Y-21207143D02*
X23938457Y-21207143D01*
X23938457Y-21207143D02*
X23881314Y-21192857D01*
X23881314Y-21192857D02*
X23852742Y-21178571D01*
X23852742Y-21178571D02*
X23824171Y-21150000D01*
X23824171Y-21150000D02*
X23809885Y-21107143D01*
X23809885Y-21107143D02*
X23809885Y-21078571D01*
X23809885Y-21078571D02*
X23824171Y-21035714D01*
X23824171Y-21035714D02*
X23838457Y-21021428D01*
X23809885Y-20921428D02*
X23809885Y-20735714D01*
X23809885Y-20735714D02*
X23924171Y-20835714D01*
X23924171Y-20835714D02*
X23924171Y-20792857D01*
X23924171Y-20792857D02*
X23938457Y-20764286D01*
X23938457Y-20764286D02*
X23952742Y-20750000D01*
X23952742Y-20750000D02*
X23981314Y-20735714D01*
X23981314Y-20735714D02*
X24052742Y-20735714D01*
X24052742Y-20735714D02*
X24081314Y-20750000D01*
X24081314Y-20750000D02*
X24095600Y-20764286D01*
X24095600Y-20764286D02*
X24109885Y-20792857D01*
X24109885Y-20792857D02*
X24109885Y-20878571D01*
X24109885Y-20878571D02*
X24095600Y-20907143D01*
X24095600Y-20907143D02*
X24081314Y-20921428D01*
X23809885Y-20635714D02*
X23809885Y-20450000D01*
X23809885Y-20450000D02*
X23924171Y-20550000D01*
X23924171Y-20550000D02*
X23924171Y-20507143D01*
X23924171Y-20507143D02*
X23938457Y-20478572D01*
X23938457Y-20478572D02*
X23952742Y-20464286D01*
X23952742Y-20464286D02*
X23981314Y-20450000D01*
X23981314Y-20450000D02*
X24052742Y-20450000D01*
X24052742Y-20450000D02*
X24081314Y-20464286D01*
X24081314Y-20464286D02*
X24095600Y-20478572D01*
X24095600Y-20478572D02*
X24109885Y-20507143D01*
X24109885Y-20507143D02*
X24109885Y-20592857D01*
X24109885Y-20592857D02*
X24095600Y-20621429D01*
X24095600Y-20621429D02*
X24081314Y-20635714D01*
X24109885Y-20321429D02*
X23809885Y-20321429D01*
X23809885Y-20321429D02*
X24024171Y-20221429D01*
X24024171Y-20221429D02*
X23809885Y-20121429D01*
X23809885Y-20121429D02*
X24109885Y-20121429D01*
X23809885Y-19835715D02*
X23809885Y-19978572D01*
X23809885Y-19978572D02*
X23952742Y-19992858D01*
X23952742Y-19992858D02*
X23938457Y-19978572D01*
X23938457Y-19978572D02*
X23924171Y-19950001D01*
X23924171Y-19950001D02*
X23924171Y-19878572D01*
X23924171Y-19878572D02*
X23938457Y-19850001D01*
X23938457Y-19850001D02*
X23952742Y-19835715D01*
X23952742Y-19835715D02*
X23981314Y-19821429D01*
X23981314Y-19821429D02*
X24052742Y-19821429D01*
X24052742Y-19821429D02*
X24081314Y-19835715D01*
X24081314Y-19835715D02*
X24095600Y-19850001D01*
X24095600Y-19850001D02*
X24109885Y-19878572D01*
X24109885Y-19878572D02*
X24109885Y-19950001D01*
X24109885Y-19950001D02*
X24095600Y-19978572D01*
X24095600Y-19978572D02*
X24081314Y-19992858D01*
X23824171Y-19535715D02*
X23809885Y-19564287D01*
X23809885Y-19564287D02*
X23809885Y-19607144D01*
X23809885Y-19607144D02*
X23824171Y-19650001D01*
X23824171Y-19650001D02*
X23852742Y-19678572D01*
X23852742Y-19678572D02*
X23881314Y-19692858D01*
X23881314Y-19692858D02*
X23938457Y-19707144D01*
X23938457Y-19707144D02*
X23981314Y-19707144D01*
X23981314Y-19707144D02*
X24038457Y-19692858D01*
X24038457Y-19692858D02*
X24067028Y-19678572D01*
X24067028Y-19678572D02*
X24095600Y-19650001D01*
X24095600Y-19650001D02*
X24109885Y-19607144D01*
X24109885Y-19607144D02*
X24109885Y-19578572D01*
X24109885Y-19578572D02*
X24095600Y-19535715D01*
X24095600Y-19535715D02*
X24081314Y-19521429D01*
X24081314Y-19521429D02*
X23981314Y-19521429D01*
X23981314Y-19521429D02*
X23981314Y-19578572D01*
X23995600Y-19392858D02*
X23995600Y-19164287D01*
X24109885Y-19021429D02*
X23809885Y-19021429D01*
X23809885Y-19021429D02*
X24109885Y-18850000D01*
X24109885Y-18850000D02*
X23809885Y-18850000D01*
X27454885Y-22674999D02*
X27454885Y-22846428D01*
X27454885Y-22760713D02*
X27154885Y-22760713D01*
X27154885Y-22760713D02*
X27197742Y-22789285D01*
X27197742Y-22789285D02*
X27226314Y-22817856D01*
X27226314Y-22817856D02*
X27240600Y-22846428D01*
X27154885Y-22403571D02*
X27154885Y-22546428D01*
X27154885Y-22546428D02*
X27297742Y-22560714D01*
X27297742Y-22560714D02*
X27283457Y-22546428D01*
X27283457Y-22546428D02*
X27269171Y-22517857D01*
X27269171Y-22517857D02*
X27269171Y-22446428D01*
X27269171Y-22446428D02*
X27283457Y-22417857D01*
X27283457Y-22417857D02*
X27297742Y-22403571D01*
X27297742Y-22403571D02*
X27326314Y-22389285D01*
X27326314Y-22389285D02*
X27397742Y-22389285D01*
X27397742Y-22389285D02*
X27426314Y-22403571D01*
X27426314Y-22403571D02*
X27440600Y-22417857D01*
X27440600Y-22417857D02*
X27454885Y-22446428D01*
X27454885Y-22446428D02*
X27454885Y-22517857D01*
X27454885Y-22517857D02*
X27440600Y-22546428D01*
X27440600Y-22546428D02*
X27426314Y-22560714D01*
X27154885Y-22203571D02*
X27154885Y-22175000D01*
X27154885Y-22175000D02*
X27169171Y-22146428D01*
X27169171Y-22146428D02*
X27183457Y-22132143D01*
X27183457Y-22132143D02*
X27212028Y-22117857D01*
X27212028Y-22117857D02*
X27269171Y-22103571D01*
X27269171Y-22103571D02*
X27340600Y-22103571D01*
X27340600Y-22103571D02*
X27397742Y-22117857D01*
X27397742Y-22117857D02*
X27426314Y-22132143D01*
X27426314Y-22132143D02*
X27440600Y-22146428D01*
X27440600Y-22146428D02*
X27454885Y-22175000D01*
X27454885Y-22175000D02*
X27454885Y-22203571D01*
X27454885Y-22203571D02*
X27440600Y-22232143D01*
X27440600Y-22232143D02*
X27426314Y-22246428D01*
X27426314Y-22246428D02*
X27397742Y-22260714D01*
X27397742Y-22260714D02*
X27340600Y-22275000D01*
X27340600Y-22275000D02*
X27269171Y-22275000D01*
X27269171Y-22275000D02*
X27212028Y-22260714D01*
X27212028Y-22260714D02*
X27183457Y-22246428D01*
X27183457Y-22246428D02*
X27169171Y-22232143D01*
X27169171Y-22232143D02*
X27154885Y-22203571D01*
X27454885Y-21975000D02*
X27154885Y-21975000D01*
X27454885Y-21803571D02*
X27283457Y-21932143D01*
X27154885Y-21803571D02*
X27326314Y-21975000D01*
X29469885Y-21639285D02*
X29469885Y-21782142D01*
X29469885Y-21782142D02*
X29612742Y-21796428D01*
X29612742Y-21796428D02*
X29598457Y-21782142D01*
X29598457Y-21782142D02*
X29584171Y-21753571D01*
X29584171Y-21753571D02*
X29584171Y-21682142D01*
X29584171Y-21682142D02*
X29598457Y-21653571D01*
X29598457Y-21653571D02*
X29612742Y-21639285D01*
X29612742Y-21639285D02*
X29641314Y-21624999D01*
X29641314Y-21624999D02*
X29712742Y-21624999D01*
X29712742Y-21624999D02*
X29741314Y-21639285D01*
X29741314Y-21639285D02*
X29755600Y-21653571D01*
X29755600Y-21653571D02*
X29769885Y-21682142D01*
X29769885Y-21682142D02*
X29769885Y-21753571D01*
X29769885Y-21753571D02*
X29755600Y-21782142D01*
X29755600Y-21782142D02*
X29741314Y-21796428D01*
X29769885Y-21339285D02*
X29769885Y-21510714D01*
X29769885Y-21424999D02*
X29469885Y-21424999D01*
X29469885Y-21424999D02*
X29512742Y-21453571D01*
X29512742Y-21453571D02*
X29541314Y-21482142D01*
X29541314Y-21482142D02*
X29555600Y-21510714D01*
X29469885Y-21153571D02*
X29469885Y-21125000D01*
X29469885Y-21125000D02*
X29484171Y-21096428D01*
X29484171Y-21096428D02*
X29498457Y-21082143D01*
X29498457Y-21082143D02*
X29527028Y-21067857D01*
X29527028Y-21067857D02*
X29584171Y-21053571D01*
X29584171Y-21053571D02*
X29655600Y-21053571D01*
X29655600Y-21053571D02*
X29712742Y-21067857D01*
X29712742Y-21067857D02*
X29741314Y-21082143D01*
X29741314Y-21082143D02*
X29755600Y-21096428D01*
X29755600Y-21096428D02*
X29769885Y-21125000D01*
X29769885Y-21125000D02*
X29769885Y-21153571D01*
X29769885Y-21153571D02*
X29755600Y-21182143D01*
X29755600Y-21182143D02*
X29741314Y-21196428D01*
X29741314Y-21196428D02*
X29712742Y-21210714D01*
X29712742Y-21210714D02*
X29655600Y-21225000D01*
X29655600Y-21225000D02*
X29584171Y-21225000D01*
X29584171Y-21225000D02*
X29527028Y-21210714D01*
X29527028Y-21210714D02*
X29498457Y-21196428D01*
X29498457Y-21196428D02*
X29484171Y-21182143D01*
X29484171Y-21182143D02*
X29469885Y-21153571D01*
X29769885Y-20925000D02*
X29469885Y-20925000D01*
X29769885Y-20753571D02*
X29598457Y-20882143D01*
X29469885Y-20753571D02*
X29641314Y-20925000D01*
X10350000Y-11689885D02*
X10178571Y-11689885D01*
X10264286Y-11689885D02*
X10264286Y-11389885D01*
X10264286Y-11389885D02*
X10235714Y-11432742D01*
X10235714Y-11432742D02*
X10207143Y-11461314D01*
X10207143Y-11461314D02*
X10178571Y-11475600D01*
X10535714Y-11389885D02*
X10564285Y-11389885D01*
X10564285Y-11389885D02*
X10592857Y-11404171D01*
X10592857Y-11404171D02*
X10607143Y-11418457D01*
X10607143Y-11418457D02*
X10621428Y-11447028D01*
X10621428Y-11447028D02*
X10635714Y-11504171D01*
X10635714Y-11504171D02*
X10635714Y-11575600D01*
X10635714Y-11575600D02*
X10621428Y-11632742D01*
X10621428Y-11632742D02*
X10607143Y-11661314D01*
X10607143Y-11661314D02*
X10592857Y-11675600D01*
X10592857Y-11675600D02*
X10564285Y-11689885D01*
X10564285Y-11689885D02*
X10535714Y-11689885D01*
X10535714Y-11689885D02*
X10507143Y-11675600D01*
X10507143Y-11675600D02*
X10492857Y-11661314D01*
X10492857Y-11661314D02*
X10478571Y-11632742D01*
X10478571Y-11632742D02*
X10464285Y-11575600D01*
X10464285Y-11575600D02*
X10464285Y-11504171D01*
X10464285Y-11504171D02*
X10478571Y-11447028D01*
X10478571Y-11447028D02*
X10492857Y-11418457D01*
X10492857Y-11418457D02*
X10507143Y-11404171D01*
X10507143Y-11404171D02*
X10535714Y-11389885D01*
X10821428Y-11389885D02*
X10849999Y-11389885D01*
X10849999Y-11389885D02*
X10878571Y-11404171D01*
X10878571Y-11404171D02*
X10892857Y-11418457D01*
X10892857Y-11418457D02*
X10907142Y-11447028D01*
X10907142Y-11447028D02*
X10921428Y-11504171D01*
X10921428Y-11504171D02*
X10921428Y-11575600D01*
X10921428Y-11575600D02*
X10907142Y-11632742D01*
X10907142Y-11632742D02*
X10892857Y-11661314D01*
X10892857Y-11661314D02*
X10878571Y-11675600D01*
X10878571Y-11675600D02*
X10849999Y-11689885D01*
X10849999Y-11689885D02*
X10821428Y-11689885D01*
X10821428Y-11689885D02*
X10792857Y-11675600D01*
X10792857Y-11675600D02*
X10778571Y-11661314D01*
X10778571Y-11661314D02*
X10764285Y-11632742D01*
X10764285Y-11632742D02*
X10749999Y-11575600D01*
X10749999Y-11575600D02*
X10749999Y-11504171D01*
X10749999Y-11504171D02*
X10764285Y-11447028D01*
X10764285Y-11447028D02*
X10778571Y-11418457D01*
X10778571Y-11418457D02*
X10792857Y-11404171D01*
X10792857Y-11404171D02*
X10821428Y-11389885D01*
X11049999Y-11689885D02*
X11049999Y-11389885D01*
X11221428Y-11689885D02*
X11092856Y-11518457D01*
X11221428Y-11389885D02*
X11049999Y-11561314D01*
X31753571Y-19388457D02*
X31767857Y-19374171D01*
X31767857Y-19374171D02*
X31796429Y-19359885D01*
X31796429Y-19359885D02*
X31867857Y-19359885D01*
X31867857Y-19359885D02*
X31896429Y-19374171D01*
X31896429Y-19374171D02*
X31910714Y-19388457D01*
X31910714Y-19388457D02*
X31925000Y-19417028D01*
X31925000Y-19417028D02*
X31925000Y-19445600D01*
X31925000Y-19445600D02*
X31910714Y-19488457D01*
X31910714Y-19488457D02*
X31739286Y-19659885D01*
X31739286Y-19659885D02*
X31925000Y-19659885D01*
X32039285Y-19388457D02*
X32053571Y-19374171D01*
X32053571Y-19374171D02*
X32082143Y-19359885D01*
X32082143Y-19359885D02*
X32153571Y-19359885D01*
X32153571Y-19359885D02*
X32182143Y-19374171D01*
X32182143Y-19374171D02*
X32196428Y-19388457D01*
X32196428Y-19388457D02*
X32210714Y-19417028D01*
X32210714Y-19417028D02*
X32210714Y-19445600D01*
X32210714Y-19445600D02*
X32196428Y-19488457D01*
X32196428Y-19488457D02*
X32025000Y-19659885D01*
X32025000Y-19659885D02*
X32210714Y-19659885D01*
X32467857Y-19459885D02*
X32467857Y-19659885D01*
X32339285Y-19459885D02*
X32339285Y-19617028D01*
X32339285Y-19617028D02*
X32353571Y-19645600D01*
X32353571Y-19645600D02*
X32382142Y-19659885D01*
X32382142Y-19659885D02*
X32424999Y-19659885D01*
X32424999Y-19659885D02*
X32453571Y-19645600D01*
X32453571Y-19645600D02*
X32467857Y-19631314D01*
X32710714Y-19502742D02*
X32610714Y-19502742D01*
X32610714Y-19659885D02*
X32610714Y-19359885D01*
X32610714Y-19359885D02*
X32753571Y-19359885D01*
X32796429Y-19688457D02*
X33025000Y-19688457D01*
X33082142Y-19388457D02*
X33096428Y-19374171D01*
X33096428Y-19374171D02*
X33125000Y-19359885D01*
X33125000Y-19359885D02*
X33196428Y-19359885D01*
X33196428Y-19359885D02*
X33225000Y-19374171D01*
X33225000Y-19374171D02*
X33239285Y-19388457D01*
X33239285Y-19388457D02*
X33253571Y-19417028D01*
X33253571Y-19417028D02*
X33253571Y-19445600D01*
X33253571Y-19445600D02*
X33239285Y-19488457D01*
X33239285Y-19488457D02*
X33067857Y-19659885D01*
X33067857Y-19659885D02*
X33253571Y-19659885D01*
X33524999Y-19359885D02*
X33382142Y-19359885D01*
X33382142Y-19359885D02*
X33367856Y-19502742D01*
X33367856Y-19502742D02*
X33382142Y-19488457D01*
X33382142Y-19488457D02*
X33410714Y-19474171D01*
X33410714Y-19474171D02*
X33482142Y-19474171D01*
X33482142Y-19474171D02*
X33510714Y-19488457D01*
X33510714Y-19488457D02*
X33524999Y-19502742D01*
X33524999Y-19502742D02*
X33539285Y-19531314D01*
X33539285Y-19531314D02*
X33539285Y-19602742D01*
X33539285Y-19602742D02*
X33524999Y-19631314D01*
X33524999Y-19631314D02*
X33510714Y-19645600D01*
X33510714Y-19645600D02*
X33482142Y-19659885D01*
X33482142Y-19659885D02*
X33410714Y-19659885D01*
X33410714Y-19659885D02*
X33382142Y-19645600D01*
X33382142Y-19645600D02*
X33367856Y-19631314D01*
X33624999Y-19359885D02*
X33724999Y-19659885D01*
X33724999Y-19659885D02*
X33824999Y-19359885D01*
X21554885Y-3710713D02*
X21554885Y-3524999D01*
X21554885Y-3524999D02*
X21669171Y-3624999D01*
X21669171Y-3624999D02*
X21669171Y-3582142D01*
X21669171Y-3582142D02*
X21683457Y-3553571D01*
X21683457Y-3553571D02*
X21697742Y-3539285D01*
X21697742Y-3539285D02*
X21726314Y-3524999D01*
X21726314Y-3524999D02*
X21797742Y-3524999D01*
X21797742Y-3524999D02*
X21826314Y-3539285D01*
X21826314Y-3539285D02*
X21840600Y-3553571D01*
X21840600Y-3553571D02*
X21854885Y-3582142D01*
X21854885Y-3582142D02*
X21854885Y-3667856D01*
X21854885Y-3667856D02*
X21840600Y-3696428D01*
X21840600Y-3696428D02*
X21826314Y-3710713D01*
X21554885Y-3424999D02*
X21554885Y-3239285D01*
X21554885Y-3239285D02*
X21669171Y-3339285D01*
X21669171Y-3339285D02*
X21669171Y-3296428D01*
X21669171Y-3296428D02*
X21683457Y-3267857D01*
X21683457Y-3267857D02*
X21697742Y-3253571D01*
X21697742Y-3253571D02*
X21726314Y-3239285D01*
X21726314Y-3239285D02*
X21797742Y-3239285D01*
X21797742Y-3239285D02*
X21826314Y-3253571D01*
X21826314Y-3253571D02*
X21840600Y-3267857D01*
X21840600Y-3267857D02*
X21854885Y-3296428D01*
X21854885Y-3296428D02*
X21854885Y-3382142D01*
X21854885Y-3382142D02*
X21840600Y-3410714D01*
X21840600Y-3410714D02*
X21826314Y-3424999D01*
X21554885Y-3053571D02*
X21554885Y-3025000D01*
X21554885Y-3025000D02*
X21569171Y-2996428D01*
X21569171Y-2996428D02*
X21583457Y-2982143D01*
X21583457Y-2982143D02*
X21612028Y-2967857D01*
X21612028Y-2967857D02*
X21669171Y-2953571D01*
X21669171Y-2953571D02*
X21740600Y-2953571D01*
X21740600Y-2953571D02*
X21797742Y-2967857D01*
X21797742Y-2967857D02*
X21826314Y-2982143D01*
X21826314Y-2982143D02*
X21840600Y-2996428D01*
X21840600Y-2996428D02*
X21854885Y-3025000D01*
X21854885Y-3025000D02*
X21854885Y-3053571D01*
X21854885Y-3053571D02*
X21840600Y-3082143D01*
X21840600Y-3082143D02*
X21826314Y-3096428D01*
X21826314Y-3096428D02*
X21797742Y-3110714D01*
X21797742Y-3110714D02*
X21740600Y-3125000D01*
X21740600Y-3125000D02*
X21669171Y-3125000D01*
X21669171Y-3125000D02*
X21612028Y-3110714D01*
X21612028Y-3110714D02*
X21583457Y-3096428D01*
X21583457Y-3096428D02*
X21569171Y-3082143D01*
X21569171Y-3082143D02*
X21554885Y-3053571D01*
X21854885Y-2653571D02*
X21712028Y-2753571D01*
X21854885Y-2825000D02*
X21554885Y-2825000D01*
X21554885Y-2825000D02*
X21554885Y-2710714D01*
X21554885Y-2710714D02*
X21569171Y-2682143D01*
X21569171Y-2682143D02*
X21583457Y-2667857D01*
X21583457Y-2667857D02*
X21612028Y-2653571D01*
X21612028Y-2653571D02*
X21654885Y-2653571D01*
X21654885Y-2653571D02*
X21683457Y-2667857D01*
X21683457Y-2667857D02*
X21697742Y-2682143D01*
X21697742Y-2682143D02*
X21712028Y-2710714D01*
X21712028Y-2710714D02*
X21712028Y-2825000D01*
X7171526Y-14814885D02*
X7000097Y-14814885D01*
X7085812Y-14814885D02*
X7085812Y-14514885D01*
X7085812Y-14514885D02*
X7057240Y-14557742D01*
X7057240Y-14557742D02*
X7028669Y-14586314D01*
X7028669Y-14586314D02*
X7000097Y-14600600D01*
X7285811Y-14543457D02*
X7300097Y-14529171D01*
X7300097Y-14529171D02*
X7328669Y-14514885D01*
X7328669Y-14514885D02*
X7400097Y-14514885D01*
X7400097Y-14514885D02*
X7428669Y-14529171D01*
X7428669Y-14529171D02*
X7442954Y-14543457D01*
X7442954Y-14543457D02*
X7457240Y-14572028D01*
X7457240Y-14572028D02*
X7457240Y-14600600D01*
X7457240Y-14600600D02*
X7442954Y-14643457D01*
X7442954Y-14643457D02*
X7271526Y-14814885D01*
X7271526Y-14814885D02*
X7457240Y-14814885D01*
X7642954Y-14514885D02*
X7671525Y-14514885D01*
X7671525Y-14514885D02*
X7700097Y-14529171D01*
X7700097Y-14529171D02*
X7714383Y-14543457D01*
X7714383Y-14543457D02*
X7728668Y-14572028D01*
X7728668Y-14572028D02*
X7742954Y-14629171D01*
X7742954Y-14629171D02*
X7742954Y-14700600D01*
X7742954Y-14700600D02*
X7728668Y-14757742D01*
X7728668Y-14757742D02*
X7714383Y-14786314D01*
X7714383Y-14786314D02*
X7700097Y-14800600D01*
X7700097Y-14800600D02*
X7671525Y-14814885D01*
X7671525Y-14814885D02*
X7642954Y-14814885D01*
X7642954Y-14814885D02*
X7614383Y-14800600D01*
X7614383Y-14800600D02*
X7600097Y-14786314D01*
X7600097Y-14786314D02*
X7585811Y-14757742D01*
X7585811Y-14757742D02*
X7571525Y-14700600D01*
X7571525Y-14700600D02*
X7571525Y-14629171D01*
X7571525Y-14629171D02*
X7585811Y-14572028D01*
X7585811Y-14572028D02*
X7600097Y-14543457D01*
X7600097Y-14543457D02*
X7614383Y-14529171D01*
X7614383Y-14529171D02*
X7642954Y-14514885D01*
X8042954Y-14814885D02*
X7942954Y-14672028D01*
X7871525Y-14814885D02*
X7871525Y-14514885D01*
X7871525Y-14514885D02*
X7985811Y-14514885D01*
X7985811Y-14514885D02*
X8014382Y-14529171D01*
X8014382Y-14529171D02*
X8028668Y-14543457D01*
X8028668Y-14543457D02*
X8042954Y-14572028D01*
X8042954Y-14572028D02*
X8042954Y-14614885D01*
X8042954Y-14614885D02*
X8028668Y-14643457D01*
X8028668Y-14643457D02*
X8014382Y-14657742D01*
X8014382Y-14657742D02*
X7985811Y-14672028D01*
X7985811Y-14672028D02*
X7871525Y-14672028D01*
X15184885Y-10835713D02*
X14884885Y-10835713D01*
X14884885Y-10835713D02*
X14884885Y-10721427D01*
X14884885Y-10721427D02*
X14899171Y-10692856D01*
X14899171Y-10692856D02*
X14913457Y-10678570D01*
X14913457Y-10678570D02*
X14942028Y-10664284D01*
X14942028Y-10664284D02*
X14984885Y-10664284D01*
X14984885Y-10664284D02*
X15013457Y-10678570D01*
X15013457Y-10678570D02*
X15027742Y-10692856D01*
X15027742Y-10692856D02*
X15042028Y-10721427D01*
X15042028Y-10721427D02*
X15042028Y-10835713D01*
X15184885Y-10535713D02*
X14884885Y-10535713D01*
X14884885Y-10535713D02*
X15099171Y-10435713D01*
X15099171Y-10435713D02*
X14884885Y-10335713D01*
X14884885Y-10335713D02*
X15184885Y-10335713D01*
X14884885Y-10135713D02*
X14884885Y-10078570D01*
X14884885Y-10078570D02*
X14899171Y-10049999D01*
X14899171Y-10049999D02*
X14927742Y-10021427D01*
X14927742Y-10021427D02*
X14984885Y-10007142D01*
X14984885Y-10007142D02*
X15084885Y-10007142D01*
X15084885Y-10007142D02*
X15142028Y-10021427D01*
X15142028Y-10021427D02*
X15170600Y-10049999D01*
X15170600Y-10049999D02*
X15184885Y-10078570D01*
X15184885Y-10078570D02*
X15184885Y-10135713D01*
X15184885Y-10135713D02*
X15170600Y-10164285D01*
X15170600Y-10164285D02*
X15142028Y-10192856D01*
X15142028Y-10192856D02*
X15084885Y-10207142D01*
X15084885Y-10207142D02*
X14984885Y-10207142D01*
X14984885Y-10207142D02*
X14927742Y-10192856D01*
X14927742Y-10192856D02*
X14899171Y-10164285D01*
X14899171Y-10164285D02*
X14884885Y-10135713D01*
X15170600Y-9892856D02*
X15184885Y-9849999D01*
X15184885Y-9849999D02*
X15184885Y-9778570D01*
X15184885Y-9778570D02*
X15170600Y-9749999D01*
X15170600Y-9749999D02*
X15156314Y-9735713D01*
X15156314Y-9735713D02*
X15127742Y-9721427D01*
X15127742Y-9721427D02*
X15099171Y-9721427D01*
X15099171Y-9721427D02*
X15070600Y-9735713D01*
X15070600Y-9735713D02*
X15056314Y-9749999D01*
X15056314Y-9749999D02*
X15042028Y-9778570D01*
X15042028Y-9778570D02*
X15027742Y-9835713D01*
X15027742Y-9835713D02*
X15013457Y-9864284D01*
X15013457Y-9864284D02*
X14999171Y-9878570D01*
X14999171Y-9878570D02*
X14970600Y-9892856D01*
X14970600Y-9892856D02*
X14942028Y-9892856D01*
X14942028Y-9892856D02*
X14913457Y-9878570D01*
X14913457Y-9878570D02*
X14899171Y-9864284D01*
X14899171Y-9864284D02*
X14884885Y-9835713D01*
X14884885Y-9835713D02*
X14884885Y-9764284D01*
X14884885Y-9764284D02*
X14899171Y-9721427D01*
X15213457Y-9664285D02*
X15213457Y-9435713D01*
X14913457Y-9378571D02*
X14899171Y-9364285D01*
X14899171Y-9364285D02*
X14884885Y-9335714D01*
X14884885Y-9335714D02*
X14884885Y-9264285D01*
X14884885Y-9264285D02*
X14899171Y-9235714D01*
X14899171Y-9235714D02*
X14913457Y-9221428D01*
X14913457Y-9221428D02*
X14942028Y-9207142D01*
X14942028Y-9207142D02*
X14970600Y-9207142D01*
X14970600Y-9207142D02*
X15013457Y-9221428D01*
X15013457Y-9221428D02*
X15184885Y-9392856D01*
X15184885Y-9392856D02*
X15184885Y-9207142D01*
X15099171Y-9092857D02*
X15099171Y-8950000D01*
X15184885Y-9121428D02*
X14884885Y-9021428D01*
X14884885Y-9021428D02*
X15184885Y-8921428D01*
X45535713Y-5934885D02*
X45535713Y-5634885D01*
X45535713Y-5634885D02*
X45635713Y-5849171D01*
X45635713Y-5849171D02*
X45735713Y-5634885D01*
X45735713Y-5634885D02*
X45735713Y-5934885D01*
X45864284Y-5663457D02*
X45878570Y-5649171D01*
X45878570Y-5649171D02*
X45907142Y-5634885D01*
X45907142Y-5634885D02*
X45978570Y-5634885D01*
X45978570Y-5634885D02*
X46007142Y-5649171D01*
X46007142Y-5649171D02*
X46021427Y-5663457D01*
X46021427Y-5663457D02*
X46035713Y-5692028D01*
X46035713Y-5692028D02*
X46035713Y-5720600D01*
X46035713Y-5720600D02*
X46021427Y-5763457D01*
X46021427Y-5763457D02*
X45849999Y-5934885D01*
X45849999Y-5934885D02*
X46035713Y-5934885D01*
X46164284Y-5906314D02*
X46178570Y-5920600D01*
X46178570Y-5920600D02*
X46164284Y-5934885D01*
X46164284Y-5934885D02*
X46149998Y-5920600D01*
X46149998Y-5920600D02*
X46164284Y-5906314D01*
X46164284Y-5906314D02*
X46164284Y-5934885D01*
X46449998Y-5634885D02*
X46307141Y-5634885D01*
X46307141Y-5634885D02*
X46292855Y-5777742D01*
X46292855Y-5777742D02*
X46307141Y-5763457D01*
X46307141Y-5763457D02*
X46335713Y-5749171D01*
X46335713Y-5749171D02*
X46407141Y-5749171D01*
X46407141Y-5749171D02*
X46435713Y-5763457D01*
X46435713Y-5763457D02*
X46449998Y-5777742D01*
X46449998Y-5777742D02*
X46464284Y-5806314D01*
X46464284Y-5806314D02*
X46464284Y-5877742D01*
X46464284Y-5877742D02*
X46449998Y-5906314D01*
X46449998Y-5906314D02*
X46435713Y-5920600D01*
X46435713Y-5920600D02*
X46407141Y-5934885D01*
X46407141Y-5934885D02*
X46335713Y-5934885D01*
X46335713Y-5934885D02*
X46307141Y-5920600D01*
X46307141Y-5920600D02*
X46292855Y-5906314D01*
X46592855Y-5934885D02*
X46592855Y-5634885D01*
X46592855Y-5634885D02*
X46692855Y-5849171D01*
X46692855Y-5849171D02*
X46792855Y-5634885D01*
X46792855Y-5634885D02*
X46792855Y-5934885D01*
X46978569Y-5934885D02*
X46949998Y-5920600D01*
X46949998Y-5920600D02*
X46935712Y-5906314D01*
X46935712Y-5906314D02*
X46921426Y-5877742D01*
X46921426Y-5877742D02*
X46921426Y-5792028D01*
X46921426Y-5792028D02*
X46935712Y-5763457D01*
X46935712Y-5763457D02*
X46949998Y-5749171D01*
X46949998Y-5749171D02*
X46978569Y-5734885D01*
X46978569Y-5734885D02*
X47021426Y-5734885D01*
X47021426Y-5734885D02*
X47049998Y-5749171D01*
X47049998Y-5749171D02*
X47064284Y-5763457D01*
X47064284Y-5763457D02*
X47078569Y-5792028D01*
X47078569Y-5792028D02*
X47078569Y-5877742D01*
X47078569Y-5877742D02*
X47064284Y-5906314D01*
X47064284Y-5906314D02*
X47049998Y-5920600D01*
X47049998Y-5920600D02*
X47021426Y-5934885D01*
X47021426Y-5934885D02*
X46978569Y-5934885D01*
X47335713Y-5734885D02*
X47335713Y-5934885D01*
X47207141Y-5734885D02*
X47207141Y-5892028D01*
X47207141Y-5892028D02*
X47221427Y-5920600D01*
X47221427Y-5920600D02*
X47249998Y-5934885D01*
X47249998Y-5934885D02*
X47292855Y-5934885D01*
X47292855Y-5934885D02*
X47321427Y-5920600D01*
X47321427Y-5920600D02*
X47335713Y-5906314D01*
X47478570Y-5734885D02*
X47478570Y-5934885D01*
X47478570Y-5763457D02*
X47492856Y-5749171D01*
X47492856Y-5749171D02*
X47521427Y-5734885D01*
X47521427Y-5734885D02*
X47564284Y-5734885D01*
X47564284Y-5734885D02*
X47592856Y-5749171D01*
X47592856Y-5749171D02*
X47607142Y-5777742D01*
X47607142Y-5777742D02*
X47607142Y-5934885D01*
X47707142Y-5734885D02*
X47821428Y-5734885D01*
X47749999Y-5634885D02*
X47749999Y-5892028D01*
X47749999Y-5892028D02*
X47764285Y-5920600D01*
X47764285Y-5920600D02*
X47792856Y-5934885D01*
X47792856Y-5934885D02*
X47821428Y-5934885D01*
X47921428Y-5934885D02*
X47921428Y-5734885D01*
X47921428Y-5634885D02*
X47907142Y-5649171D01*
X47907142Y-5649171D02*
X47921428Y-5663457D01*
X47921428Y-5663457D02*
X47935714Y-5649171D01*
X47935714Y-5649171D02*
X47921428Y-5634885D01*
X47921428Y-5634885D02*
X47921428Y-5663457D01*
X48064285Y-5734885D02*
X48064285Y-5934885D01*
X48064285Y-5763457D02*
X48078571Y-5749171D01*
X48078571Y-5749171D02*
X48107142Y-5734885D01*
X48107142Y-5734885D02*
X48149999Y-5734885D01*
X48149999Y-5734885D02*
X48178571Y-5749171D01*
X48178571Y-5749171D02*
X48192857Y-5777742D01*
X48192857Y-5777742D02*
X48192857Y-5934885D01*
X48464286Y-5734885D02*
X48464286Y-5977742D01*
X48464286Y-5977742D02*
X48450000Y-6006314D01*
X48450000Y-6006314D02*
X48435714Y-6020600D01*
X48435714Y-6020600D02*
X48407143Y-6034885D01*
X48407143Y-6034885D02*
X48364286Y-6034885D01*
X48364286Y-6034885D02*
X48335714Y-6020600D01*
X48464286Y-5920600D02*
X48435714Y-5934885D01*
X48435714Y-5934885D02*
X48378571Y-5934885D01*
X48378571Y-5934885D02*
X48350000Y-5920600D01*
X48350000Y-5920600D02*
X48335714Y-5906314D01*
X48335714Y-5906314D02*
X48321428Y-5877742D01*
X48321428Y-5877742D02*
X48321428Y-5792028D01*
X48321428Y-5792028D02*
X48335714Y-5763457D01*
X48335714Y-5763457D02*
X48350000Y-5749171D01*
X48350000Y-5749171D02*
X48378571Y-5734885D01*
X48378571Y-5734885D02*
X48435714Y-5734885D01*
X48435714Y-5734885D02*
X48464286Y-5749171D01*
X48607143Y-5934885D02*
X48607143Y-5634885D01*
X48607143Y-5777742D02*
X48778572Y-5777742D01*
X48778572Y-5934885D02*
X48778572Y-5634885D01*
X48964286Y-5934885D02*
X48935715Y-5920600D01*
X48935715Y-5920600D02*
X48921429Y-5906314D01*
X48921429Y-5906314D02*
X48907143Y-5877742D01*
X48907143Y-5877742D02*
X48907143Y-5792028D01*
X48907143Y-5792028D02*
X48921429Y-5763457D01*
X48921429Y-5763457D02*
X48935715Y-5749171D01*
X48935715Y-5749171D02*
X48964286Y-5734885D01*
X48964286Y-5734885D02*
X49007143Y-5734885D01*
X49007143Y-5734885D02*
X49035715Y-5749171D01*
X49035715Y-5749171D02*
X49050001Y-5763457D01*
X49050001Y-5763457D02*
X49064286Y-5792028D01*
X49064286Y-5792028D02*
X49064286Y-5877742D01*
X49064286Y-5877742D02*
X49050001Y-5906314D01*
X49050001Y-5906314D02*
X49035715Y-5920600D01*
X49035715Y-5920600D02*
X49007143Y-5934885D01*
X49007143Y-5934885D02*
X48964286Y-5934885D01*
X49235715Y-5934885D02*
X49207144Y-5920600D01*
X49207144Y-5920600D02*
X49192858Y-5892028D01*
X49192858Y-5892028D02*
X49192858Y-5634885D01*
X49464287Y-5920600D02*
X49435715Y-5934885D01*
X49435715Y-5934885D02*
X49378573Y-5934885D01*
X49378573Y-5934885D02*
X49350001Y-5920600D01*
X49350001Y-5920600D02*
X49335715Y-5892028D01*
X49335715Y-5892028D02*
X49335715Y-5777742D01*
X49335715Y-5777742D02*
X49350001Y-5749171D01*
X49350001Y-5749171D02*
X49378573Y-5734885D01*
X49378573Y-5734885D02*
X49435715Y-5734885D01*
X49435715Y-5734885D02*
X49464287Y-5749171D01*
X49464287Y-5749171D02*
X49478573Y-5777742D01*
X49478573Y-5777742D02*
X49478573Y-5806314D01*
X49478573Y-5806314D02*
X49335715Y-5834885D01*
D11*
X6765974Y-13832200D02*
X6908831Y-13879819D01*
X6908831Y-13879819D02*
X7146926Y-13879819D01*
X7146926Y-13879819D02*
X7242164Y-13832200D01*
X7242164Y-13832200D02*
X7289783Y-13784580D01*
X7289783Y-13784580D02*
X7337402Y-13689342D01*
X7337402Y-13689342D02*
X7337402Y-13594104D01*
X7337402Y-13594104D02*
X7289783Y-13498866D01*
X7289783Y-13498866D02*
X7242164Y-13451247D01*
X7242164Y-13451247D02*
X7146926Y-13403628D01*
X7146926Y-13403628D02*
X6956450Y-13356009D01*
X6956450Y-13356009D02*
X6861212Y-13308390D01*
X6861212Y-13308390D02*
X6813593Y-13260771D01*
X6813593Y-13260771D02*
X6765974Y-13165533D01*
X6765974Y-13165533D02*
X6765974Y-13070295D01*
X6765974Y-13070295D02*
X6813593Y-12975057D01*
X6813593Y-12975057D02*
X6861212Y-12927438D01*
X6861212Y-12927438D02*
X6956450Y-12879819D01*
X6956450Y-12879819D02*
X7194545Y-12879819D01*
X7194545Y-12879819D02*
X7337402Y-12927438D01*
X7623117Y-12879819D02*
X8194545Y-12879819D01*
X7908831Y-13879819D02*
X7908831Y-12879819D01*
X8527879Y-13879819D02*
X8527879Y-12879819D01*
X8527879Y-12879819D02*
X8861212Y-13594104D01*
X8861212Y-13594104D02*
X9194545Y-12879819D01*
X9194545Y-12879819D02*
X9194545Y-13879819D01*
X9575498Y-12879819D02*
X10194545Y-12879819D01*
X10194545Y-12879819D02*
X9861212Y-13260771D01*
X9861212Y-13260771D02*
X10004069Y-13260771D01*
X10004069Y-13260771D02*
X10099307Y-13308390D01*
X10099307Y-13308390D02*
X10146926Y-13356009D01*
X10146926Y-13356009D02*
X10194545Y-13451247D01*
X10194545Y-13451247D02*
X10194545Y-13689342D01*
X10194545Y-13689342D02*
X10146926Y-13784580D01*
X10146926Y-13784580D02*
X10099307Y-13832200D01*
X10099307Y-13832200D02*
X10004069Y-13879819D01*
X10004069Y-13879819D02*
X9718355Y-13879819D01*
X9718355Y-13879819D02*
X9623117Y-13832200D01*
X9623117Y-13832200D02*
X9575498Y-13784580D01*
X10575498Y-12975057D02*
X10623117Y-12927438D01*
X10623117Y-12927438D02*
X10718355Y-12879819D01*
X10718355Y-12879819D02*
X10956450Y-12879819D01*
X10956450Y-12879819D02*
X11051688Y-12927438D01*
X11051688Y-12927438D02*
X11099307Y-12975057D01*
X11099307Y-12975057D02*
X11146926Y-13070295D01*
X11146926Y-13070295D02*
X11146926Y-13165533D01*
X11146926Y-13165533D02*
X11099307Y-13308390D01*
X11099307Y-13308390D02*
X10527879Y-13879819D01*
X10527879Y-13879819D02*
X11146926Y-13879819D01*
X12099307Y-12927438D02*
X12004069Y-12879819D01*
X12004069Y-12879819D02*
X11861212Y-12879819D01*
X11861212Y-12879819D02*
X11718355Y-12927438D01*
X11718355Y-12927438D02*
X11623117Y-13022676D01*
X11623117Y-13022676D02*
X11575498Y-13117914D01*
X11575498Y-13117914D02*
X11527879Y-13308390D01*
X11527879Y-13308390D02*
X11527879Y-13451247D01*
X11527879Y-13451247D02*
X11575498Y-13641723D01*
X11575498Y-13641723D02*
X11623117Y-13736961D01*
X11623117Y-13736961D02*
X11718355Y-13832200D01*
X11718355Y-13832200D02*
X11861212Y-13879819D01*
X11861212Y-13879819D02*
X11956450Y-13879819D01*
X11956450Y-13879819D02*
X12099307Y-13832200D01*
X12099307Y-13832200D02*
X12146926Y-13784580D01*
X12146926Y-13784580D02*
X12146926Y-13451247D01*
X12146926Y-13451247D02*
X11956450Y-13451247D01*
X12765974Y-12879819D02*
X12861212Y-12879819D01*
X12861212Y-12879819D02*
X12956450Y-12927438D01*
X12956450Y-12927438D02*
X13004069Y-12975057D01*
X13004069Y-12975057D02*
X13051688Y-13070295D01*
X13051688Y-13070295D02*
X13099307Y-13260771D01*
X13099307Y-13260771D02*
X13099307Y-13498866D01*
X13099307Y-13498866D02*
X13051688Y-13689342D01*
X13051688Y-13689342D02*
X13004069Y-13784580D01*
X13004069Y-13784580D02*
X12956450Y-13832200D01*
X12956450Y-13832200D02*
X12861212Y-13879819D01*
X12861212Y-13879819D02*
X12765974Y-13879819D01*
X12765974Y-13879819D02*
X12670736Y-13832200D01*
X12670736Y-13832200D02*
X12623117Y-13784580D01*
X12623117Y-13784580D02*
X12575498Y-13689342D01*
X12575498Y-13689342D02*
X12527879Y-13498866D01*
X12527879Y-13498866D02*
X12527879Y-13260771D01*
X12527879Y-13260771D02*
X12575498Y-13070295D01*
X12575498Y-13070295D02*
X12623117Y-12975057D01*
X12623117Y-12975057D02*
X12670736Y-12927438D01*
X12670736Y-12927438D02*
X12765974Y-12879819D01*
X13432641Y-12879819D02*
X14051688Y-12879819D01*
X14051688Y-12879819D02*
X13718355Y-13260771D01*
X13718355Y-13260771D02*
X13861212Y-13260771D01*
X13861212Y-13260771D02*
X13956450Y-13308390D01*
X13956450Y-13308390D02*
X14004069Y-13356009D01*
X14004069Y-13356009D02*
X14051688Y-13451247D01*
X14051688Y-13451247D02*
X14051688Y-13689342D01*
X14051688Y-13689342D02*
X14004069Y-13784580D01*
X14004069Y-13784580D02*
X13956450Y-13832200D01*
X13956450Y-13832200D02*
X13861212Y-13879819D01*
X13861212Y-13879819D02*
X13575498Y-13879819D01*
X13575498Y-13879819D02*
X13480260Y-13832200D01*
X13480260Y-13832200D02*
X13432641Y-13784580D01*
X14670736Y-12879819D02*
X14765974Y-12879819D01*
X14765974Y-12879819D02*
X14861212Y-12927438D01*
X14861212Y-12927438D02*
X14908831Y-12975057D01*
X14908831Y-12975057D02*
X14956450Y-13070295D01*
X14956450Y-13070295D02*
X15004069Y-13260771D01*
X15004069Y-13260771D02*
X15004069Y-13498866D01*
X15004069Y-13498866D02*
X14956450Y-13689342D01*
X14956450Y-13689342D02*
X14908831Y-13784580D01*
X14908831Y-13784580D02*
X14861212Y-13832200D01*
X14861212Y-13832200D02*
X14765974Y-13879819D01*
X14765974Y-13879819D02*
X14670736Y-13879819D01*
X14670736Y-13879819D02*
X14575498Y-13832200D01*
X14575498Y-13832200D02*
X14527879Y-13784580D01*
X14527879Y-13784580D02*
X14480260Y-13689342D01*
X14480260Y-13689342D02*
X14432641Y-13498866D01*
X14432641Y-13498866D02*
X14432641Y-13260771D01*
X14432641Y-13260771D02*
X14480260Y-13070295D01*
X14480260Y-13070295D02*
X14527879Y-12975057D01*
X14527879Y-12975057D02*
X14575498Y-12927438D01*
X14575498Y-12927438D02*
X14670736Y-12879819D01*
X15765974Y-13356009D02*
X15432641Y-13356009D01*
X15432641Y-13879819D02*
X15432641Y-12879819D01*
X15432641Y-12879819D02*
X15908831Y-12879819D01*
X16718355Y-12879819D02*
X16527879Y-12879819D01*
X16527879Y-12879819D02*
X16432641Y-12927438D01*
X16432641Y-12927438D02*
X16385022Y-12975057D01*
X16385022Y-12975057D02*
X16289784Y-13117914D01*
X16289784Y-13117914D02*
X16242165Y-13308390D01*
X16242165Y-13308390D02*
X16242165Y-13689342D01*
X16242165Y-13689342D02*
X16289784Y-13784580D01*
X16289784Y-13784580D02*
X16337403Y-13832200D01*
X16337403Y-13832200D02*
X16432641Y-13879819D01*
X16432641Y-13879819D02*
X16623117Y-13879819D01*
X16623117Y-13879819D02*
X16718355Y-13832200D01*
X16718355Y-13832200D02*
X16765974Y-13784580D01*
X16765974Y-13784580D02*
X16813593Y-13689342D01*
X16813593Y-13689342D02*
X16813593Y-13451247D01*
X16813593Y-13451247D02*
X16765974Y-13356009D01*
X16765974Y-13356009D02*
X16718355Y-13308390D01*
X16718355Y-13308390D02*
X16623117Y-13260771D01*
X16623117Y-13260771D02*
X16432641Y-13260771D01*
X16432641Y-13260771D02*
X16337403Y-13308390D01*
X16337403Y-13308390D02*
X16289784Y-13356009D01*
X16289784Y-13356009D02*
X16242165Y-13451247D01*
X17242165Y-13879819D02*
X17242165Y-12879819D01*
X17242165Y-12879819D02*
X17623117Y-12879819D01*
X17623117Y-12879819D02*
X17718355Y-12927438D01*
X17718355Y-12927438D02*
X17765974Y-12975057D01*
X17765974Y-12975057D02*
X17813593Y-13070295D01*
X17813593Y-13070295D02*
X17813593Y-13213152D01*
X17813593Y-13213152D02*
X17765974Y-13308390D01*
X17765974Y-13308390D02*
X17718355Y-13356009D01*
X17718355Y-13356009D02*
X17623117Y-13403628D01*
X17623117Y-13403628D02*
X17242165Y-13403628D01*
X18670736Y-12879819D02*
X18480260Y-12879819D01*
X18480260Y-12879819D02*
X18385022Y-12927438D01*
X18385022Y-12927438D02*
X18337403Y-12975057D01*
X18337403Y-12975057D02*
X18242165Y-13117914D01*
X18242165Y-13117914D02*
X18194546Y-13308390D01*
X18194546Y-13308390D02*
X18194546Y-13689342D01*
X18194546Y-13689342D02*
X18242165Y-13784580D01*
X18242165Y-13784580D02*
X18289784Y-13832200D01*
X18289784Y-13832200D02*
X18385022Y-13879819D01*
X18385022Y-13879819D02*
X18575498Y-13879819D01*
X18575498Y-13879819D02*
X18670736Y-13832200D01*
X18670736Y-13832200D02*
X18718355Y-13784580D01*
X18718355Y-13784580D02*
X18765974Y-13689342D01*
X18765974Y-13689342D02*
X18765974Y-13451247D01*
X18765974Y-13451247D02*
X18718355Y-13356009D01*
X18718355Y-13356009D02*
X18670736Y-13308390D01*
X18670736Y-13308390D02*
X18575498Y-13260771D01*
X18575498Y-13260771D02*
X18385022Y-13260771D01*
X18385022Y-13260771D02*
X18289784Y-13308390D01*
X18289784Y-13308390D02*
X18242165Y-13356009D01*
X18242165Y-13356009D02*
X18194546Y-13451247D01*
D10*
X7171526Y-10804885D02*
X7000097Y-10804885D01*
X7085812Y-10804885D02*
X7085812Y-10504885D01*
X7085812Y-10504885D02*
X7057240Y-10547742D01*
X7057240Y-10547742D02*
X7028669Y-10576314D01*
X7028669Y-10576314D02*
X7000097Y-10590600D01*
X7285811Y-10533457D02*
X7300097Y-10519171D01*
X7300097Y-10519171D02*
X7328669Y-10504885D01*
X7328669Y-10504885D02*
X7400097Y-10504885D01*
X7400097Y-10504885D02*
X7428669Y-10519171D01*
X7428669Y-10519171D02*
X7442954Y-10533457D01*
X7442954Y-10533457D02*
X7457240Y-10562028D01*
X7457240Y-10562028D02*
X7457240Y-10590600D01*
X7457240Y-10590600D02*
X7442954Y-10633457D01*
X7442954Y-10633457D02*
X7271526Y-10804885D01*
X7271526Y-10804885D02*
X7457240Y-10804885D01*
X7642954Y-10504885D02*
X7671525Y-10504885D01*
X7671525Y-10504885D02*
X7700097Y-10519171D01*
X7700097Y-10519171D02*
X7714383Y-10533457D01*
X7714383Y-10533457D02*
X7728668Y-10562028D01*
X7728668Y-10562028D02*
X7742954Y-10619171D01*
X7742954Y-10619171D02*
X7742954Y-10690600D01*
X7742954Y-10690600D02*
X7728668Y-10747742D01*
X7728668Y-10747742D02*
X7714383Y-10776314D01*
X7714383Y-10776314D02*
X7700097Y-10790600D01*
X7700097Y-10790600D02*
X7671525Y-10804885D01*
X7671525Y-10804885D02*
X7642954Y-10804885D01*
X7642954Y-10804885D02*
X7614383Y-10790600D01*
X7614383Y-10790600D02*
X7600097Y-10776314D01*
X7600097Y-10776314D02*
X7585811Y-10747742D01*
X7585811Y-10747742D02*
X7571525Y-10690600D01*
X7571525Y-10690600D02*
X7571525Y-10619171D01*
X7571525Y-10619171D02*
X7585811Y-10562028D01*
X7585811Y-10562028D02*
X7600097Y-10533457D01*
X7600097Y-10533457D02*
X7614383Y-10519171D01*
X7614383Y-10519171D02*
X7642954Y-10504885D01*
X8042954Y-10804885D02*
X7942954Y-10662028D01*
X7871525Y-10804885D02*
X7871525Y-10504885D01*
X7871525Y-10504885D02*
X7985811Y-10504885D01*
X7985811Y-10504885D02*
X8014382Y-10519171D01*
X8014382Y-10519171D02*
X8028668Y-10533457D01*
X8028668Y-10533457D02*
X8042954Y-10562028D01*
X8042954Y-10562028D02*
X8042954Y-10604885D01*
X8042954Y-10604885D02*
X8028668Y-10633457D01*
X8028668Y-10633457D02*
X8014382Y-10647742D01*
X8014382Y-10647742D02*
X7985811Y-10662028D01*
X7985811Y-10662028D02*
X7871525Y-10662028D01*
X13939885Y-7442856D02*
X13939885Y-7585713D01*
X13939885Y-7585713D02*
X14082742Y-7599999D01*
X14082742Y-7599999D02*
X14068457Y-7585713D01*
X14068457Y-7585713D02*
X14054171Y-7557142D01*
X14054171Y-7557142D02*
X14054171Y-7485713D01*
X14054171Y-7485713D02*
X14068457Y-7457142D01*
X14068457Y-7457142D02*
X14082742Y-7442856D01*
X14082742Y-7442856D02*
X14111314Y-7428570D01*
X14111314Y-7428570D02*
X14182742Y-7428570D01*
X14182742Y-7428570D02*
X14211314Y-7442856D01*
X14211314Y-7442856D02*
X14225600Y-7457142D01*
X14225600Y-7457142D02*
X14239885Y-7485713D01*
X14239885Y-7485713D02*
X14239885Y-7557142D01*
X14239885Y-7557142D02*
X14225600Y-7585713D01*
X14225600Y-7585713D02*
X14211314Y-7599999D01*
X14211314Y-7299999D02*
X14225600Y-7285713D01*
X14225600Y-7285713D02*
X14239885Y-7299999D01*
X14239885Y-7299999D02*
X14225600Y-7314285D01*
X14225600Y-7314285D02*
X14211314Y-7299999D01*
X14211314Y-7299999D02*
X14239885Y-7299999D01*
X14239885Y-6999999D02*
X14239885Y-7171428D01*
X14239885Y-7085713D02*
X13939885Y-7085713D01*
X13939885Y-7085713D02*
X13982742Y-7114285D01*
X13982742Y-7114285D02*
X14011314Y-7142856D01*
X14011314Y-7142856D02*
X14025600Y-7171428D01*
X14239885Y-6871428D02*
X13939885Y-6871428D01*
X14239885Y-6699999D02*
X14068457Y-6828571D01*
X13939885Y-6699999D02*
X14111314Y-6871428D01*
X17053572Y-17649885D02*
X17053572Y-17849885D01*
X16982143Y-17535600D02*
X16910714Y-17749885D01*
X16910714Y-17749885D02*
X17096429Y-17749885D01*
X17210714Y-17821314D02*
X17225000Y-17835600D01*
X17225000Y-17835600D02*
X17210714Y-17849885D01*
X17210714Y-17849885D02*
X17196428Y-17835600D01*
X17196428Y-17835600D02*
X17210714Y-17821314D01*
X17210714Y-17821314D02*
X17210714Y-17849885D01*
X17325000Y-17549885D02*
X17525000Y-17549885D01*
X17525000Y-17549885D02*
X17396428Y-17849885D01*
X17767857Y-17649885D02*
X17767857Y-17849885D01*
X17639285Y-17649885D02*
X17639285Y-17807028D01*
X17639285Y-17807028D02*
X17653571Y-17835600D01*
X17653571Y-17835600D02*
X17682142Y-17849885D01*
X17682142Y-17849885D02*
X17724999Y-17849885D01*
X17724999Y-17849885D02*
X17753571Y-17835600D01*
X17753571Y-17835600D02*
X17767857Y-17821314D01*
X18010714Y-17692742D02*
X17910714Y-17692742D01*
X17910714Y-17849885D02*
X17910714Y-17549885D01*
X17910714Y-17549885D02*
X18053571Y-17549885D01*
X31650000Y-9739885D02*
X31478571Y-9739885D01*
X31564286Y-9739885D02*
X31564286Y-9439885D01*
X31564286Y-9439885D02*
X31535714Y-9482742D01*
X31535714Y-9482742D02*
X31507143Y-9511314D01*
X31507143Y-9511314D02*
X31478571Y-9525600D01*
X31835714Y-9439885D02*
X31864285Y-9439885D01*
X31864285Y-9439885D02*
X31892857Y-9454171D01*
X31892857Y-9454171D02*
X31907143Y-9468457D01*
X31907143Y-9468457D02*
X31921428Y-9497028D01*
X31921428Y-9497028D02*
X31935714Y-9554171D01*
X31935714Y-9554171D02*
X31935714Y-9625600D01*
X31935714Y-9625600D02*
X31921428Y-9682742D01*
X31921428Y-9682742D02*
X31907143Y-9711314D01*
X31907143Y-9711314D02*
X31892857Y-9725600D01*
X31892857Y-9725600D02*
X31864285Y-9739885D01*
X31864285Y-9739885D02*
X31835714Y-9739885D01*
X31835714Y-9739885D02*
X31807143Y-9725600D01*
X31807143Y-9725600D02*
X31792857Y-9711314D01*
X31792857Y-9711314D02*
X31778571Y-9682742D01*
X31778571Y-9682742D02*
X31764285Y-9625600D01*
X31764285Y-9625600D02*
X31764285Y-9554171D01*
X31764285Y-9554171D02*
X31778571Y-9497028D01*
X31778571Y-9497028D02*
X31792857Y-9468457D01*
X31792857Y-9468457D02*
X31807143Y-9454171D01*
X31807143Y-9454171D02*
X31835714Y-9439885D01*
X32121428Y-9439885D02*
X32149999Y-9439885D01*
X32149999Y-9439885D02*
X32178571Y-9454171D01*
X32178571Y-9454171D02*
X32192857Y-9468457D01*
X32192857Y-9468457D02*
X32207142Y-9497028D01*
X32207142Y-9497028D02*
X32221428Y-9554171D01*
X32221428Y-9554171D02*
X32221428Y-9625600D01*
X32221428Y-9625600D02*
X32207142Y-9682742D01*
X32207142Y-9682742D02*
X32192857Y-9711314D01*
X32192857Y-9711314D02*
X32178571Y-9725600D01*
X32178571Y-9725600D02*
X32149999Y-9739885D01*
X32149999Y-9739885D02*
X32121428Y-9739885D01*
X32121428Y-9739885D02*
X32092857Y-9725600D01*
X32092857Y-9725600D02*
X32078571Y-9711314D01*
X32078571Y-9711314D02*
X32064285Y-9682742D01*
X32064285Y-9682742D02*
X32049999Y-9625600D01*
X32049999Y-9625600D02*
X32049999Y-9554171D01*
X32049999Y-9554171D02*
X32064285Y-9497028D01*
X32064285Y-9497028D02*
X32078571Y-9468457D01*
X32078571Y-9468457D02*
X32092857Y-9454171D01*
X32092857Y-9454171D02*
X32121428Y-9439885D01*
X32349999Y-9739885D02*
X32349999Y-9439885D01*
X32521428Y-9739885D02*
X32392856Y-9568457D01*
X32521428Y-9439885D02*
X32349999Y-9611314D01*
X32778571Y-19613457D02*
X32792857Y-19599171D01*
X32792857Y-19599171D02*
X32821429Y-19584885D01*
X32821429Y-19584885D02*
X32892857Y-19584885D01*
X32892857Y-19584885D02*
X32921429Y-19599171D01*
X32921429Y-19599171D02*
X32935714Y-19613457D01*
X32935714Y-19613457D02*
X32950000Y-19642028D01*
X32950000Y-19642028D02*
X32950000Y-19670600D01*
X32950000Y-19670600D02*
X32935714Y-19713457D01*
X32935714Y-19713457D02*
X32764286Y-19884885D01*
X32764286Y-19884885D02*
X32950000Y-19884885D01*
X33064285Y-19613457D02*
X33078571Y-19599171D01*
X33078571Y-19599171D02*
X33107143Y-19584885D01*
X33107143Y-19584885D02*
X33178571Y-19584885D01*
X33178571Y-19584885D02*
X33207143Y-19599171D01*
X33207143Y-19599171D02*
X33221428Y-19613457D01*
X33221428Y-19613457D02*
X33235714Y-19642028D01*
X33235714Y-19642028D02*
X33235714Y-19670600D01*
X33235714Y-19670600D02*
X33221428Y-19713457D01*
X33221428Y-19713457D02*
X33050000Y-19884885D01*
X33050000Y-19884885D02*
X33235714Y-19884885D01*
X33492857Y-19684885D02*
X33492857Y-19884885D01*
X33364285Y-19684885D02*
X33364285Y-19842028D01*
X33364285Y-19842028D02*
X33378571Y-19870600D01*
X33378571Y-19870600D02*
X33407142Y-19884885D01*
X33407142Y-19884885D02*
X33449999Y-19884885D01*
X33449999Y-19884885D02*
X33478571Y-19870600D01*
X33478571Y-19870600D02*
X33492857Y-19856314D01*
X33735714Y-19727742D02*
X33635714Y-19727742D01*
X33635714Y-19884885D02*
X33635714Y-19584885D01*
X33635714Y-19584885D02*
X33778571Y-19584885D01*
X33821429Y-19913457D02*
X34050000Y-19913457D01*
X34107142Y-19613457D02*
X34121428Y-19599171D01*
X34121428Y-19599171D02*
X34150000Y-19584885D01*
X34150000Y-19584885D02*
X34221428Y-19584885D01*
X34221428Y-19584885D02*
X34250000Y-19599171D01*
X34250000Y-19599171D02*
X34264285Y-19613457D01*
X34264285Y-19613457D02*
X34278571Y-19642028D01*
X34278571Y-19642028D02*
X34278571Y-19670600D01*
X34278571Y-19670600D02*
X34264285Y-19713457D01*
X34264285Y-19713457D02*
X34092857Y-19884885D01*
X34092857Y-19884885D02*
X34278571Y-19884885D01*
X34549999Y-19584885D02*
X34407142Y-19584885D01*
X34407142Y-19584885D02*
X34392856Y-19727742D01*
X34392856Y-19727742D02*
X34407142Y-19713457D01*
X34407142Y-19713457D02*
X34435714Y-19699171D01*
X34435714Y-19699171D02*
X34507142Y-19699171D01*
X34507142Y-19699171D02*
X34535714Y-19713457D01*
X34535714Y-19713457D02*
X34549999Y-19727742D01*
X34549999Y-19727742D02*
X34564285Y-19756314D01*
X34564285Y-19756314D02*
X34564285Y-19827742D01*
X34564285Y-19827742D02*
X34549999Y-19856314D01*
X34549999Y-19856314D02*
X34535714Y-19870600D01*
X34535714Y-19870600D02*
X34507142Y-19884885D01*
X34507142Y-19884885D02*
X34435714Y-19884885D01*
X34435714Y-19884885D02*
X34407142Y-19870600D01*
X34407142Y-19870600D02*
X34392856Y-19856314D01*
X34649999Y-19584885D02*
X34749999Y-19884885D01*
X34749999Y-19884885D02*
X34849999Y-19584885D01*
X24182143Y-6614885D02*
X24039286Y-6614885D01*
X24039286Y-6614885D02*
X24025000Y-6757742D01*
X24025000Y-6757742D02*
X24039286Y-6743457D01*
X24039286Y-6743457D02*
X24067858Y-6729171D01*
X24067858Y-6729171D02*
X24139286Y-6729171D01*
X24139286Y-6729171D02*
X24167858Y-6743457D01*
X24167858Y-6743457D02*
X24182143Y-6757742D01*
X24182143Y-6757742D02*
X24196429Y-6786314D01*
X24196429Y-6786314D02*
X24196429Y-6857742D01*
X24196429Y-6857742D02*
X24182143Y-6886314D01*
X24182143Y-6886314D02*
X24167858Y-6900600D01*
X24167858Y-6900600D02*
X24139286Y-6914885D01*
X24139286Y-6914885D02*
X24067858Y-6914885D01*
X24067858Y-6914885D02*
X24039286Y-6900600D01*
X24039286Y-6900600D02*
X24025000Y-6886314D01*
X24325000Y-6886314D02*
X24339286Y-6900600D01*
X24339286Y-6900600D02*
X24325000Y-6914885D01*
X24325000Y-6914885D02*
X24310714Y-6900600D01*
X24310714Y-6900600D02*
X24325000Y-6886314D01*
X24325000Y-6886314D02*
X24325000Y-6914885D01*
X24625000Y-6914885D02*
X24453571Y-6914885D01*
X24539286Y-6914885D02*
X24539286Y-6614885D01*
X24539286Y-6614885D02*
X24510714Y-6657742D01*
X24510714Y-6657742D02*
X24482143Y-6686314D01*
X24482143Y-6686314D02*
X24453571Y-6700600D01*
X24753571Y-6914885D02*
X24753571Y-6614885D01*
X24925000Y-6914885D02*
X24796428Y-6743457D01*
X24925000Y-6614885D02*
X24753571Y-6786314D01*
X7196526Y-12814885D02*
X7025097Y-12814885D01*
X7110812Y-12814885D02*
X7110812Y-12514885D01*
X7110812Y-12514885D02*
X7082240Y-12557742D01*
X7082240Y-12557742D02*
X7053669Y-12586314D01*
X7053669Y-12586314D02*
X7025097Y-12600600D01*
X7310811Y-12543457D02*
X7325097Y-12529171D01*
X7325097Y-12529171D02*
X7353669Y-12514885D01*
X7353669Y-12514885D02*
X7425097Y-12514885D01*
X7425097Y-12514885D02*
X7453669Y-12529171D01*
X7453669Y-12529171D02*
X7467954Y-12543457D01*
X7467954Y-12543457D02*
X7482240Y-12572028D01*
X7482240Y-12572028D02*
X7482240Y-12600600D01*
X7482240Y-12600600D02*
X7467954Y-12643457D01*
X7467954Y-12643457D02*
X7296526Y-12814885D01*
X7296526Y-12814885D02*
X7482240Y-12814885D01*
X7667954Y-12514885D02*
X7696525Y-12514885D01*
X7696525Y-12514885D02*
X7725097Y-12529171D01*
X7725097Y-12529171D02*
X7739383Y-12543457D01*
X7739383Y-12543457D02*
X7753668Y-12572028D01*
X7753668Y-12572028D02*
X7767954Y-12629171D01*
X7767954Y-12629171D02*
X7767954Y-12700600D01*
X7767954Y-12700600D02*
X7753668Y-12757742D01*
X7753668Y-12757742D02*
X7739383Y-12786314D01*
X7739383Y-12786314D02*
X7725097Y-12800600D01*
X7725097Y-12800600D02*
X7696525Y-12814885D01*
X7696525Y-12814885D02*
X7667954Y-12814885D01*
X7667954Y-12814885D02*
X7639383Y-12800600D01*
X7639383Y-12800600D02*
X7625097Y-12786314D01*
X7625097Y-12786314D02*
X7610811Y-12757742D01*
X7610811Y-12757742D02*
X7596525Y-12700600D01*
X7596525Y-12700600D02*
X7596525Y-12629171D01*
X7596525Y-12629171D02*
X7610811Y-12572028D01*
X7610811Y-12572028D02*
X7625097Y-12543457D01*
X7625097Y-12543457D02*
X7639383Y-12529171D01*
X7639383Y-12529171D02*
X7667954Y-12514885D01*
X8067954Y-12814885D02*
X7967954Y-12672028D01*
X7896525Y-12814885D02*
X7896525Y-12514885D01*
X7896525Y-12514885D02*
X8010811Y-12514885D01*
X8010811Y-12514885D02*
X8039382Y-12529171D01*
X8039382Y-12529171D02*
X8053668Y-12543457D01*
X8053668Y-12543457D02*
X8067954Y-12572028D01*
X8067954Y-12572028D02*
X8067954Y-12614885D01*
X8067954Y-12614885D02*
X8053668Y-12643457D01*
X8053668Y-12643457D02*
X8039382Y-12657742D01*
X8039382Y-12657742D02*
X8010811Y-12672028D01*
X8010811Y-12672028D02*
X7896525Y-12672028D01*
X11450000Y-11704885D02*
X11278571Y-11704885D01*
X11364286Y-11704885D02*
X11364286Y-11404885D01*
X11364286Y-11404885D02*
X11335714Y-11447742D01*
X11335714Y-11447742D02*
X11307143Y-11476314D01*
X11307143Y-11476314D02*
X11278571Y-11490600D01*
X11564285Y-11433457D02*
X11578571Y-11419171D01*
X11578571Y-11419171D02*
X11607143Y-11404885D01*
X11607143Y-11404885D02*
X11678571Y-11404885D01*
X11678571Y-11404885D02*
X11707143Y-11419171D01*
X11707143Y-11419171D02*
X11721428Y-11433457D01*
X11721428Y-11433457D02*
X11735714Y-11462028D01*
X11735714Y-11462028D02*
X11735714Y-11490600D01*
X11735714Y-11490600D02*
X11721428Y-11533457D01*
X11721428Y-11533457D02*
X11550000Y-11704885D01*
X11550000Y-11704885D02*
X11735714Y-11704885D01*
X11921428Y-11404885D02*
X11949999Y-11404885D01*
X11949999Y-11404885D02*
X11978571Y-11419171D01*
X11978571Y-11419171D02*
X11992857Y-11433457D01*
X11992857Y-11433457D02*
X12007142Y-11462028D01*
X12007142Y-11462028D02*
X12021428Y-11519171D01*
X12021428Y-11519171D02*
X12021428Y-11590600D01*
X12021428Y-11590600D02*
X12007142Y-11647742D01*
X12007142Y-11647742D02*
X11992857Y-11676314D01*
X11992857Y-11676314D02*
X11978571Y-11690600D01*
X11978571Y-11690600D02*
X11949999Y-11704885D01*
X11949999Y-11704885D02*
X11921428Y-11704885D01*
X11921428Y-11704885D02*
X11892857Y-11690600D01*
X11892857Y-11690600D02*
X11878571Y-11676314D01*
X11878571Y-11676314D02*
X11864285Y-11647742D01*
X11864285Y-11647742D02*
X11849999Y-11590600D01*
X11849999Y-11590600D02*
X11849999Y-11519171D01*
X11849999Y-11519171D02*
X11864285Y-11462028D01*
X11864285Y-11462028D02*
X11878571Y-11433457D01*
X11878571Y-11433457D02*
X11892857Y-11419171D01*
X11892857Y-11419171D02*
X11921428Y-11404885D01*
X12321428Y-11704885D02*
X12221428Y-11562028D01*
X12149999Y-11704885D02*
X12149999Y-11404885D01*
X12149999Y-11404885D02*
X12264285Y-11404885D01*
X12264285Y-11404885D02*
X12292856Y-11419171D01*
X12292856Y-11419171D02*
X12307142Y-11433457D01*
X12307142Y-11433457D02*
X12321428Y-11462028D01*
X12321428Y-11462028D02*
X12321428Y-11504885D01*
X12321428Y-11504885D02*
X12307142Y-11533457D01*
X12307142Y-11533457D02*
X12292856Y-11547742D01*
X12292856Y-11547742D02*
X12264285Y-11562028D01*
X12264285Y-11562028D02*
X12149999Y-11562028D01*
X13479885Y-7467856D02*
X13479885Y-7610713D01*
X13479885Y-7610713D02*
X13622742Y-7624999D01*
X13622742Y-7624999D02*
X13608457Y-7610713D01*
X13608457Y-7610713D02*
X13594171Y-7582142D01*
X13594171Y-7582142D02*
X13594171Y-7510713D01*
X13594171Y-7510713D02*
X13608457Y-7482142D01*
X13608457Y-7482142D02*
X13622742Y-7467856D01*
X13622742Y-7467856D02*
X13651314Y-7453570D01*
X13651314Y-7453570D02*
X13722742Y-7453570D01*
X13722742Y-7453570D02*
X13751314Y-7467856D01*
X13751314Y-7467856D02*
X13765600Y-7482142D01*
X13765600Y-7482142D02*
X13779885Y-7510713D01*
X13779885Y-7510713D02*
X13779885Y-7582142D01*
X13779885Y-7582142D02*
X13765600Y-7610713D01*
X13765600Y-7610713D02*
X13751314Y-7624999D01*
X13751314Y-7324999D02*
X13765600Y-7310713D01*
X13765600Y-7310713D02*
X13779885Y-7324999D01*
X13779885Y-7324999D02*
X13765600Y-7339285D01*
X13765600Y-7339285D02*
X13751314Y-7324999D01*
X13751314Y-7324999D02*
X13779885Y-7324999D01*
X13779885Y-7024999D02*
X13779885Y-7196428D01*
X13779885Y-7110713D02*
X13479885Y-7110713D01*
X13479885Y-7110713D02*
X13522742Y-7139285D01*
X13522742Y-7139285D02*
X13551314Y-7167856D01*
X13551314Y-7167856D02*
X13565600Y-7196428D01*
X13779885Y-6896428D02*
X13479885Y-6896428D01*
X13779885Y-6724999D02*
X13608457Y-6853571D01*
X13479885Y-6724999D02*
X13651314Y-6896428D01*
X31650000Y-7804885D02*
X31478571Y-7804885D01*
X31564286Y-7804885D02*
X31564286Y-7504885D01*
X31564286Y-7504885D02*
X31535714Y-7547742D01*
X31535714Y-7547742D02*
X31507143Y-7576314D01*
X31507143Y-7576314D02*
X31478571Y-7590600D01*
X31835714Y-7504885D02*
X31864285Y-7504885D01*
X31864285Y-7504885D02*
X31892857Y-7519171D01*
X31892857Y-7519171D02*
X31907143Y-7533457D01*
X31907143Y-7533457D02*
X31921428Y-7562028D01*
X31921428Y-7562028D02*
X31935714Y-7619171D01*
X31935714Y-7619171D02*
X31935714Y-7690600D01*
X31935714Y-7690600D02*
X31921428Y-7747742D01*
X31921428Y-7747742D02*
X31907143Y-7776314D01*
X31907143Y-7776314D02*
X31892857Y-7790600D01*
X31892857Y-7790600D02*
X31864285Y-7804885D01*
X31864285Y-7804885D02*
X31835714Y-7804885D01*
X31835714Y-7804885D02*
X31807143Y-7790600D01*
X31807143Y-7790600D02*
X31792857Y-7776314D01*
X31792857Y-7776314D02*
X31778571Y-7747742D01*
X31778571Y-7747742D02*
X31764285Y-7690600D01*
X31764285Y-7690600D02*
X31764285Y-7619171D01*
X31764285Y-7619171D02*
X31778571Y-7562028D01*
X31778571Y-7562028D02*
X31792857Y-7533457D01*
X31792857Y-7533457D02*
X31807143Y-7519171D01*
X31807143Y-7519171D02*
X31835714Y-7504885D01*
X32121428Y-7504885D02*
X32149999Y-7504885D01*
X32149999Y-7504885D02*
X32178571Y-7519171D01*
X32178571Y-7519171D02*
X32192857Y-7533457D01*
X32192857Y-7533457D02*
X32207142Y-7562028D01*
X32207142Y-7562028D02*
X32221428Y-7619171D01*
X32221428Y-7619171D02*
X32221428Y-7690600D01*
X32221428Y-7690600D02*
X32207142Y-7747742D01*
X32207142Y-7747742D02*
X32192857Y-7776314D01*
X32192857Y-7776314D02*
X32178571Y-7790600D01*
X32178571Y-7790600D02*
X32149999Y-7804885D01*
X32149999Y-7804885D02*
X32121428Y-7804885D01*
X32121428Y-7804885D02*
X32092857Y-7790600D01*
X32092857Y-7790600D02*
X32078571Y-7776314D01*
X32078571Y-7776314D02*
X32064285Y-7747742D01*
X32064285Y-7747742D02*
X32049999Y-7690600D01*
X32049999Y-7690600D02*
X32049999Y-7619171D01*
X32049999Y-7619171D02*
X32064285Y-7562028D01*
X32064285Y-7562028D02*
X32078571Y-7533457D01*
X32078571Y-7533457D02*
X32092857Y-7519171D01*
X32092857Y-7519171D02*
X32121428Y-7504885D01*
X32349999Y-7804885D02*
X32349999Y-7504885D01*
X32521428Y-7804885D02*
X32392856Y-7633457D01*
X32521428Y-7504885D02*
X32349999Y-7676314D01*
X18282143Y-18804885D02*
X18310714Y-18804885D01*
X18310714Y-18804885D02*
X18339286Y-18819171D01*
X18339286Y-18819171D02*
X18353572Y-18833457D01*
X18353572Y-18833457D02*
X18367857Y-18862028D01*
X18367857Y-18862028D02*
X18382143Y-18919171D01*
X18382143Y-18919171D02*
X18382143Y-18990600D01*
X18382143Y-18990600D02*
X18367857Y-19047742D01*
X18367857Y-19047742D02*
X18353572Y-19076314D01*
X18353572Y-19076314D02*
X18339286Y-19090600D01*
X18339286Y-19090600D02*
X18310714Y-19104885D01*
X18310714Y-19104885D02*
X18282143Y-19104885D01*
X18282143Y-19104885D02*
X18253572Y-19090600D01*
X18253572Y-19090600D02*
X18239286Y-19076314D01*
X18239286Y-19076314D02*
X18225000Y-19047742D01*
X18225000Y-19047742D02*
X18210714Y-18990600D01*
X18210714Y-18990600D02*
X18210714Y-18919171D01*
X18210714Y-18919171D02*
X18225000Y-18862028D01*
X18225000Y-18862028D02*
X18239286Y-18833457D01*
X18239286Y-18833457D02*
X18253572Y-18819171D01*
X18253572Y-18819171D02*
X18282143Y-18804885D01*
X18510714Y-19076314D02*
X18525000Y-19090600D01*
X18525000Y-19090600D02*
X18510714Y-19104885D01*
X18510714Y-19104885D02*
X18496428Y-19090600D01*
X18496428Y-19090600D02*
X18510714Y-19076314D01*
X18510714Y-19076314D02*
X18510714Y-19104885D01*
X18810714Y-19104885D02*
X18639285Y-19104885D01*
X18725000Y-19104885D02*
X18725000Y-18804885D01*
X18725000Y-18804885D02*
X18696428Y-18847742D01*
X18696428Y-18847742D02*
X18667857Y-18876314D01*
X18667857Y-18876314D02*
X18639285Y-18890600D01*
X19067857Y-18904885D02*
X19067857Y-19104885D01*
X18939285Y-18904885D02*
X18939285Y-19062028D01*
X18939285Y-19062028D02*
X18953571Y-19090600D01*
X18953571Y-19090600D02*
X18982142Y-19104885D01*
X18982142Y-19104885D02*
X19024999Y-19104885D01*
X19024999Y-19104885D02*
X19053571Y-19090600D01*
X19053571Y-19090600D02*
X19067857Y-19076314D01*
X19310714Y-18947742D02*
X19210714Y-18947742D01*
X19210714Y-19104885D02*
X19210714Y-18804885D01*
X19210714Y-18804885D02*
X19353571Y-18804885D01*
X535713Y-25884885D02*
X535713Y-25584885D01*
X535713Y-25584885D02*
X635713Y-25799171D01*
X635713Y-25799171D02*
X735713Y-25584885D01*
X735713Y-25584885D02*
X735713Y-25884885D01*
X864284Y-25613457D02*
X878570Y-25599171D01*
X878570Y-25599171D02*
X907142Y-25584885D01*
X907142Y-25584885D02*
X978570Y-25584885D01*
X978570Y-25584885D02*
X1007142Y-25599171D01*
X1007142Y-25599171D02*
X1021427Y-25613457D01*
X1021427Y-25613457D02*
X1035713Y-25642028D01*
X1035713Y-25642028D02*
X1035713Y-25670600D01*
X1035713Y-25670600D02*
X1021427Y-25713457D01*
X1021427Y-25713457D02*
X849999Y-25884885D01*
X849999Y-25884885D02*
X1035713Y-25884885D01*
X1164284Y-25856314D02*
X1178570Y-25870600D01*
X1178570Y-25870600D02*
X1164284Y-25884885D01*
X1164284Y-25884885D02*
X1149998Y-25870600D01*
X1149998Y-25870600D02*
X1164284Y-25856314D01*
X1164284Y-25856314D02*
X1164284Y-25884885D01*
X1449998Y-25584885D02*
X1307141Y-25584885D01*
X1307141Y-25584885D02*
X1292855Y-25727742D01*
X1292855Y-25727742D02*
X1307141Y-25713457D01*
X1307141Y-25713457D02*
X1335713Y-25699171D01*
X1335713Y-25699171D02*
X1407141Y-25699171D01*
X1407141Y-25699171D02*
X1435713Y-25713457D01*
X1435713Y-25713457D02*
X1449998Y-25727742D01*
X1449998Y-25727742D02*
X1464284Y-25756314D01*
X1464284Y-25756314D02*
X1464284Y-25827742D01*
X1464284Y-25827742D02*
X1449998Y-25856314D01*
X1449998Y-25856314D02*
X1435713Y-25870600D01*
X1435713Y-25870600D02*
X1407141Y-25884885D01*
X1407141Y-25884885D02*
X1335713Y-25884885D01*
X1335713Y-25884885D02*
X1307141Y-25870600D01*
X1307141Y-25870600D02*
X1292855Y-25856314D01*
X1592855Y-25884885D02*
X1592855Y-25584885D01*
X1592855Y-25584885D02*
X1692855Y-25799171D01*
X1692855Y-25799171D02*
X1792855Y-25584885D01*
X1792855Y-25584885D02*
X1792855Y-25884885D01*
X1978569Y-25884885D02*
X1949998Y-25870600D01*
X1949998Y-25870600D02*
X1935712Y-25856314D01*
X1935712Y-25856314D02*
X1921426Y-25827742D01*
X1921426Y-25827742D02*
X1921426Y-25742028D01*
X1921426Y-25742028D02*
X1935712Y-25713457D01*
X1935712Y-25713457D02*
X1949998Y-25699171D01*
X1949998Y-25699171D02*
X1978569Y-25684885D01*
X1978569Y-25684885D02*
X2021426Y-25684885D01*
X2021426Y-25684885D02*
X2049998Y-25699171D01*
X2049998Y-25699171D02*
X2064284Y-25713457D01*
X2064284Y-25713457D02*
X2078569Y-25742028D01*
X2078569Y-25742028D02*
X2078569Y-25827742D01*
X2078569Y-25827742D02*
X2064284Y-25856314D01*
X2064284Y-25856314D02*
X2049998Y-25870600D01*
X2049998Y-25870600D02*
X2021426Y-25884885D01*
X2021426Y-25884885D02*
X1978569Y-25884885D01*
X2335713Y-25684885D02*
X2335713Y-25884885D01*
X2207141Y-25684885D02*
X2207141Y-25842028D01*
X2207141Y-25842028D02*
X2221427Y-25870600D01*
X2221427Y-25870600D02*
X2249998Y-25884885D01*
X2249998Y-25884885D02*
X2292855Y-25884885D01*
X2292855Y-25884885D02*
X2321427Y-25870600D01*
X2321427Y-25870600D02*
X2335713Y-25856314D01*
X2478570Y-25684885D02*
X2478570Y-25884885D01*
X2478570Y-25713457D02*
X2492856Y-25699171D01*
X2492856Y-25699171D02*
X2521427Y-25684885D01*
X2521427Y-25684885D02*
X2564284Y-25684885D01*
X2564284Y-25684885D02*
X2592856Y-25699171D01*
X2592856Y-25699171D02*
X2607142Y-25727742D01*
X2607142Y-25727742D02*
X2607142Y-25884885D01*
X2707142Y-25684885D02*
X2821428Y-25684885D01*
X2749999Y-25584885D02*
X2749999Y-25842028D01*
X2749999Y-25842028D02*
X2764285Y-25870600D01*
X2764285Y-25870600D02*
X2792856Y-25884885D01*
X2792856Y-25884885D02*
X2821428Y-25884885D01*
X2921428Y-25884885D02*
X2921428Y-25684885D01*
X2921428Y-25584885D02*
X2907142Y-25599171D01*
X2907142Y-25599171D02*
X2921428Y-25613457D01*
X2921428Y-25613457D02*
X2935714Y-25599171D01*
X2935714Y-25599171D02*
X2921428Y-25584885D01*
X2921428Y-25584885D02*
X2921428Y-25613457D01*
X3064285Y-25684885D02*
X3064285Y-25884885D01*
X3064285Y-25713457D02*
X3078571Y-25699171D01*
X3078571Y-25699171D02*
X3107142Y-25684885D01*
X3107142Y-25684885D02*
X3149999Y-25684885D01*
X3149999Y-25684885D02*
X3178571Y-25699171D01*
X3178571Y-25699171D02*
X3192857Y-25727742D01*
X3192857Y-25727742D02*
X3192857Y-25884885D01*
X3464286Y-25684885D02*
X3464286Y-25927742D01*
X3464286Y-25927742D02*
X3450000Y-25956314D01*
X3450000Y-25956314D02*
X3435714Y-25970600D01*
X3435714Y-25970600D02*
X3407143Y-25984885D01*
X3407143Y-25984885D02*
X3364286Y-25984885D01*
X3364286Y-25984885D02*
X3335714Y-25970600D01*
X3464286Y-25870600D02*
X3435714Y-25884885D01*
X3435714Y-25884885D02*
X3378571Y-25884885D01*
X3378571Y-25884885D02*
X3350000Y-25870600D01*
X3350000Y-25870600D02*
X3335714Y-25856314D01*
X3335714Y-25856314D02*
X3321428Y-25827742D01*
X3321428Y-25827742D02*
X3321428Y-25742028D01*
X3321428Y-25742028D02*
X3335714Y-25713457D01*
X3335714Y-25713457D02*
X3350000Y-25699171D01*
X3350000Y-25699171D02*
X3378571Y-25684885D01*
X3378571Y-25684885D02*
X3435714Y-25684885D01*
X3435714Y-25684885D02*
X3464286Y-25699171D01*
X3607143Y-25884885D02*
X3607143Y-25584885D01*
X3607143Y-25727742D02*
X3778572Y-25727742D01*
X3778572Y-25884885D02*
X3778572Y-25584885D01*
X3964286Y-25884885D02*
X3935715Y-25870600D01*
X3935715Y-25870600D02*
X3921429Y-25856314D01*
X3921429Y-25856314D02*
X3907143Y-25827742D01*
X3907143Y-25827742D02*
X3907143Y-25742028D01*
X3907143Y-25742028D02*
X3921429Y-25713457D01*
X3921429Y-25713457D02*
X3935715Y-25699171D01*
X3935715Y-25699171D02*
X3964286Y-25684885D01*
X3964286Y-25684885D02*
X4007143Y-25684885D01*
X4007143Y-25684885D02*
X4035715Y-25699171D01*
X4035715Y-25699171D02*
X4050001Y-25713457D01*
X4050001Y-25713457D02*
X4064286Y-25742028D01*
X4064286Y-25742028D02*
X4064286Y-25827742D01*
X4064286Y-25827742D02*
X4050001Y-25856314D01*
X4050001Y-25856314D02*
X4035715Y-25870600D01*
X4035715Y-25870600D02*
X4007143Y-25884885D01*
X4007143Y-25884885D02*
X3964286Y-25884885D01*
X4235715Y-25884885D02*
X4207144Y-25870600D01*
X4207144Y-25870600D02*
X4192858Y-25842028D01*
X4192858Y-25842028D02*
X4192858Y-25584885D01*
X4464287Y-25870600D02*
X4435715Y-25884885D01*
X4435715Y-25884885D02*
X4378573Y-25884885D01*
X4378573Y-25884885D02*
X4350001Y-25870600D01*
X4350001Y-25870600D02*
X4335715Y-25842028D01*
X4335715Y-25842028D02*
X4335715Y-25727742D01*
X4335715Y-25727742D02*
X4350001Y-25699171D01*
X4350001Y-25699171D02*
X4378573Y-25684885D01*
X4378573Y-25684885D02*
X4435715Y-25684885D01*
X4435715Y-25684885D02*
X4464287Y-25699171D01*
X4464287Y-25699171D02*
X4478573Y-25727742D01*
X4478573Y-25727742D02*
X4478573Y-25756314D01*
X4478573Y-25756314D02*
X4335715Y-25784885D01*
X29889885Y-23496428D02*
X29889885Y-23667857D01*
X29889885Y-23582142D02*
X29589885Y-23582142D01*
X29589885Y-23582142D02*
X29632742Y-23610714D01*
X29632742Y-23610714D02*
X29661314Y-23639285D01*
X29661314Y-23639285D02*
X29675600Y-23667857D01*
X29589885Y-23310714D02*
X29589885Y-23282143D01*
X29589885Y-23282143D02*
X29604171Y-23253571D01*
X29604171Y-23253571D02*
X29618457Y-23239286D01*
X29618457Y-23239286D02*
X29647028Y-23225000D01*
X29647028Y-23225000D02*
X29704171Y-23210714D01*
X29704171Y-23210714D02*
X29775600Y-23210714D01*
X29775600Y-23210714D02*
X29832742Y-23225000D01*
X29832742Y-23225000D02*
X29861314Y-23239286D01*
X29861314Y-23239286D02*
X29875600Y-23253571D01*
X29875600Y-23253571D02*
X29889885Y-23282143D01*
X29889885Y-23282143D02*
X29889885Y-23310714D01*
X29889885Y-23310714D02*
X29875600Y-23339286D01*
X29875600Y-23339286D02*
X29861314Y-23353571D01*
X29861314Y-23353571D02*
X29832742Y-23367857D01*
X29832742Y-23367857D02*
X29775600Y-23382143D01*
X29775600Y-23382143D02*
X29704171Y-23382143D01*
X29704171Y-23382143D02*
X29647028Y-23367857D01*
X29647028Y-23367857D02*
X29618457Y-23353571D01*
X29618457Y-23353571D02*
X29604171Y-23339286D01*
X29604171Y-23339286D02*
X29589885Y-23310714D01*
X29689885Y-23082143D02*
X29889885Y-23082143D01*
X29718457Y-23082143D02*
X29704171Y-23067857D01*
X29704171Y-23067857D02*
X29689885Y-23039286D01*
X29689885Y-23039286D02*
X29689885Y-22996429D01*
X29689885Y-22996429D02*
X29704171Y-22967857D01*
X29704171Y-22967857D02*
X29732742Y-22953572D01*
X29732742Y-22953572D02*
X29889885Y-22953572D01*
X29732742Y-22710714D02*
X29732742Y-22810714D01*
X29889885Y-22810714D02*
X29589885Y-22810714D01*
X29589885Y-22810714D02*
X29589885Y-22667857D01*
X32557143Y-9429885D02*
X32585714Y-9429885D01*
X32585714Y-9429885D02*
X32614286Y-9444171D01*
X32614286Y-9444171D02*
X32628572Y-9458457D01*
X32628572Y-9458457D02*
X32642857Y-9487028D01*
X32642857Y-9487028D02*
X32657143Y-9544171D01*
X32657143Y-9544171D02*
X32657143Y-9615600D01*
X32657143Y-9615600D02*
X32642857Y-9672742D01*
X32642857Y-9672742D02*
X32628572Y-9701314D01*
X32628572Y-9701314D02*
X32614286Y-9715600D01*
X32614286Y-9715600D02*
X32585714Y-9729885D01*
X32585714Y-9729885D02*
X32557143Y-9729885D01*
X32557143Y-9729885D02*
X32528572Y-9715600D01*
X32528572Y-9715600D02*
X32514286Y-9701314D01*
X32514286Y-9701314D02*
X32500000Y-9672742D01*
X32500000Y-9672742D02*
X32485714Y-9615600D01*
X32485714Y-9615600D02*
X32485714Y-9544171D01*
X32485714Y-9544171D02*
X32500000Y-9487028D01*
X32500000Y-9487028D02*
X32514286Y-9458457D01*
X32514286Y-9458457D02*
X32528572Y-9444171D01*
X32528572Y-9444171D02*
X32557143Y-9429885D01*
X32785714Y-9701314D02*
X32800000Y-9715600D01*
X32800000Y-9715600D02*
X32785714Y-9729885D01*
X32785714Y-9729885D02*
X32771428Y-9715600D01*
X32771428Y-9715600D02*
X32785714Y-9701314D01*
X32785714Y-9701314D02*
X32785714Y-9729885D01*
X33085714Y-9729885D02*
X32914285Y-9729885D01*
X33000000Y-9729885D02*
X33000000Y-9429885D01*
X33000000Y-9429885D02*
X32971428Y-9472742D01*
X32971428Y-9472742D02*
X32942857Y-9501314D01*
X32942857Y-9501314D02*
X32914285Y-9515600D01*
X33342857Y-9529885D02*
X33342857Y-9729885D01*
X33214285Y-9529885D02*
X33214285Y-9687028D01*
X33214285Y-9687028D02*
X33228571Y-9715600D01*
X33228571Y-9715600D02*
X33257142Y-9729885D01*
X33257142Y-9729885D02*
X33299999Y-9729885D01*
X33299999Y-9729885D02*
X33328571Y-9715600D01*
X33328571Y-9715600D02*
X33342857Y-9701314D01*
X33585714Y-9572742D02*
X33485714Y-9572742D01*
X33485714Y-9729885D02*
X33485714Y-9429885D01*
X33485714Y-9429885D02*
X33628571Y-9429885D01*
X14282141Y-11859885D02*
X14282141Y-11559885D01*
X14282141Y-11559885D02*
X14396427Y-11559885D01*
X14396427Y-11559885D02*
X14424998Y-11574171D01*
X14424998Y-11574171D02*
X14439284Y-11588457D01*
X14439284Y-11588457D02*
X14453570Y-11617028D01*
X14453570Y-11617028D02*
X14453570Y-11659885D01*
X14453570Y-11659885D02*
X14439284Y-11688457D01*
X14439284Y-11688457D02*
X14424998Y-11702742D01*
X14424998Y-11702742D02*
X14396427Y-11717028D01*
X14396427Y-11717028D02*
X14282141Y-11717028D01*
X14710713Y-11659885D02*
X14710713Y-11859885D01*
X14582141Y-11659885D02*
X14582141Y-11817028D01*
X14582141Y-11817028D02*
X14596427Y-11845600D01*
X14596427Y-11845600D02*
X14624998Y-11859885D01*
X14624998Y-11859885D02*
X14667855Y-11859885D01*
X14667855Y-11859885D02*
X14696427Y-11845600D01*
X14696427Y-11845600D02*
X14710713Y-11831314D01*
X14839284Y-11845600D02*
X14867856Y-11859885D01*
X14867856Y-11859885D02*
X14924999Y-11859885D01*
X14924999Y-11859885D02*
X14953570Y-11845600D01*
X14953570Y-11845600D02*
X14967856Y-11817028D01*
X14967856Y-11817028D02*
X14967856Y-11802742D01*
X14967856Y-11802742D02*
X14953570Y-11774171D01*
X14953570Y-11774171D02*
X14924999Y-11759885D01*
X14924999Y-11759885D02*
X14882142Y-11759885D01*
X14882142Y-11759885D02*
X14853570Y-11745600D01*
X14853570Y-11745600D02*
X14839284Y-11717028D01*
X14839284Y-11717028D02*
X14839284Y-11702742D01*
X14839284Y-11702742D02*
X14853570Y-11674171D01*
X14853570Y-11674171D02*
X14882142Y-11659885D01*
X14882142Y-11659885D02*
X14924999Y-11659885D01*
X14924999Y-11659885D02*
X14953570Y-11674171D01*
X15096427Y-11859885D02*
X15096427Y-11559885D01*
X15224999Y-11859885D02*
X15224999Y-11702742D01*
X15224999Y-11702742D02*
X15210713Y-11674171D01*
X15210713Y-11674171D02*
X15182141Y-11659885D01*
X15182141Y-11659885D02*
X15139284Y-11659885D01*
X15139284Y-11659885D02*
X15110713Y-11674171D01*
X15110713Y-11674171D02*
X15096427Y-11688457D01*
X15367856Y-11859885D02*
X15367856Y-11559885D01*
X15367856Y-11559885D02*
X15482142Y-11559885D01*
X15482142Y-11559885D02*
X15510713Y-11574171D01*
X15510713Y-11574171D02*
X15524999Y-11588457D01*
X15524999Y-11588457D02*
X15539285Y-11617028D01*
X15539285Y-11617028D02*
X15539285Y-11659885D01*
X15539285Y-11659885D02*
X15524999Y-11688457D01*
X15524999Y-11688457D02*
X15510713Y-11702742D01*
X15510713Y-11702742D02*
X15482142Y-11717028D01*
X15482142Y-11717028D02*
X15367856Y-11717028D01*
X15796428Y-11659885D02*
X15796428Y-11859885D01*
X15667856Y-11659885D02*
X15667856Y-11817028D01*
X15667856Y-11817028D02*
X15682142Y-11845600D01*
X15682142Y-11845600D02*
X15710713Y-11859885D01*
X15710713Y-11859885D02*
X15753570Y-11859885D01*
X15753570Y-11859885D02*
X15782142Y-11845600D01*
X15782142Y-11845600D02*
X15796428Y-11831314D01*
X15982142Y-11859885D02*
X15953571Y-11845600D01*
X15953571Y-11845600D02*
X15939285Y-11817028D01*
X15939285Y-11817028D02*
X15939285Y-11559885D01*
X16139285Y-11859885D02*
X16110714Y-11845600D01*
X16110714Y-11845600D02*
X16096428Y-11817028D01*
X16096428Y-11817028D02*
X16096428Y-11559885D01*
X16353571Y-11702742D02*
X16396428Y-11717028D01*
X16396428Y-11717028D02*
X16410714Y-11731314D01*
X16410714Y-11731314D02*
X16425000Y-11759885D01*
X16425000Y-11759885D02*
X16425000Y-11802742D01*
X16425000Y-11802742D02*
X16410714Y-11831314D01*
X16410714Y-11831314D02*
X16396428Y-11845600D01*
X16396428Y-11845600D02*
X16367857Y-11859885D01*
X16367857Y-11859885D02*
X16253571Y-11859885D01*
X16253571Y-11859885D02*
X16253571Y-11559885D01*
X16253571Y-11559885D02*
X16353571Y-11559885D01*
X16353571Y-11559885D02*
X16382143Y-11574171D01*
X16382143Y-11574171D02*
X16396428Y-11588457D01*
X16396428Y-11588457D02*
X16410714Y-11617028D01*
X16410714Y-11617028D02*
X16410714Y-11645600D01*
X16410714Y-11645600D02*
X16396428Y-11674171D01*
X16396428Y-11674171D02*
X16382143Y-11688457D01*
X16382143Y-11688457D02*
X16353571Y-11702742D01*
X16353571Y-11702742D02*
X16253571Y-11702742D01*
X16682143Y-11659885D02*
X16682143Y-11859885D01*
X16553571Y-11659885D02*
X16553571Y-11817028D01*
X16553571Y-11817028D02*
X16567857Y-11845600D01*
X16567857Y-11845600D02*
X16596428Y-11859885D01*
X16596428Y-11859885D02*
X16639285Y-11859885D01*
X16639285Y-11859885D02*
X16667857Y-11845600D01*
X16667857Y-11845600D02*
X16682143Y-11831314D01*
X16782143Y-11659885D02*
X16896429Y-11659885D01*
X16825000Y-11859885D02*
X16825000Y-11602742D01*
X16825000Y-11602742D02*
X16839286Y-11574171D01*
X16839286Y-11574171D02*
X16867857Y-11559885D01*
X16867857Y-11559885D02*
X16896429Y-11559885D01*
X16953572Y-11659885D02*
X17067858Y-11659885D01*
X16996429Y-11859885D02*
X16996429Y-11602742D01*
X16996429Y-11602742D02*
X17010715Y-11574171D01*
X17010715Y-11574171D02*
X17039286Y-11559885D01*
X17039286Y-11559885D02*
X17067858Y-11559885D01*
X17282144Y-11845600D02*
X17253572Y-11859885D01*
X17253572Y-11859885D02*
X17196430Y-11859885D01*
X17196430Y-11859885D02*
X17167858Y-11845600D01*
X17167858Y-11845600D02*
X17153572Y-11817028D01*
X17153572Y-11817028D02*
X17153572Y-11702742D01*
X17153572Y-11702742D02*
X17167858Y-11674171D01*
X17167858Y-11674171D02*
X17196430Y-11659885D01*
X17196430Y-11659885D02*
X17253572Y-11659885D01*
X17253572Y-11659885D02*
X17282144Y-11674171D01*
X17282144Y-11674171D02*
X17296430Y-11702742D01*
X17296430Y-11702742D02*
X17296430Y-11731314D01*
X17296430Y-11731314D02*
X17153572Y-11759885D01*
X17425001Y-11859885D02*
X17425001Y-11659885D01*
X17425001Y-11717028D02*
X17439287Y-11688457D01*
X17439287Y-11688457D02*
X17453573Y-11674171D01*
X17453573Y-11674171D02*
X17482144Y-11659885D01*
X17482144Y-11659885D02*
X17510715Y-11659885D01*
D12*
X32525000Y-2450000D03*
X24225000Y-2450000D03*
D13*
X30375000Y-2450000D03*
X28375000Y-2450000D03*
X26375000Y-2450000D03*
D14*
X39975000Y-16400000D03*
X37975000Y-16400000D03*
D15*
X9330000Y-1500000D03*
X9330000Y-5300000D03*
X17970000Y-1500000D03*
X17970000Y-5300000D03*
D14*
X40325000Y-7075000D03*
X37785000Y-7075000D03*
X6950000Y-23250000D03*
X8950000Y-23250000D03*
X10950000Y-23250000D03*
X12950000Y-23250000D03*
X47500000Y-2550000D03*
X2500000Y-22500000D03*
M02*
