M48
; DRILL file {KiCad 8.0.6-8.0.6-0~ubuntu24.04.1} date 2024-10-19T16:33:05+0100
; FORMAT={-:-/ absolute / inch / decimal}
; #@! TF.CreationDate,2024-10-19T16:33:05+01:00
; #@! TF.GenerationSoftware,Kicad,Pcbnew,8.0.6-8.0.6-0~ubuntu24.04.1
; #@! TF.FileFunction,Plated,1,2,PTH
FMAT,2
INCH
; #@! TA.AperFunction,Plated,PTH,ViaDrill
T1C0.0118
; #@! TA.AperFunction,Plated,PTH,ComponentDrill
T2C0.0295
%
G90
G05
T1
X0.0433Y-0.3346
X0.0512Y-0.6417
X0.0876Y-0.5709
X0.0955Y-0.4026
X0.1053Y-0.501
X0.1122Y-0.4577
X0.1152Y-0.5463
X0.1368Y-0.6014
X0.1467Y-0.4163
X0.1579Y-0.502
X0.19Y-0.3091
X0.2116Y-0.9577
X0.2283Y-0.8337
X0.2657Y-0.688
X0.3199Y-0.3937
X0.3543Y-0.3553
X0.4498Y-0.6171
X0.4606Y-0.3593
X0.4695Y-0.8238
X0.5108Y-0.6161
X0.5384Y-0.3819
X0.5522Y-0.8337
X0.6289Y-0.3711
X0.6841Y-0.4075
X0.7382Y-0.9321
X0.7618Y-0.6673
X0.7864Y-0.7772
X0.7953Y-0.3159
X0.8248Y-0.3996
X0.8337Y-0.5945
X0.8348Y-0.5453
X0.8425Y-0.4587
X0.8661Y-0.5679
X0.8701Y-0.5049
X0.877Y-0.4577
X0.8819Y-0.9518
X0.935Y-0.9085
X0.9439Y-0.6575
X0.9478Y-0.2874
T2
X0.2736Y-0.9154
X0.3524Y-0.9154
X0.4311Y-0.9154
X0.5098Y-0.9154
M30
