%TF.GenerationSoftware,KiCad,Pcbnew,8.0.7*%
%TF.CreationDate,2025-01-15T18:16:11+00:00*%
%TF.ProjectId,ButtonExpansion,42757474-6f6e-4457-9870-616e73696f6e,rev?*%
%TF.SameCoordinates,Original*%
%TF.FileFunction,Copper,L2,Bot*%
%TF.FilePolarity,Positive*%
%FSLAX46Y46*%
G04 Gerber Fmt 4.6, Leading zero omitted, Abs format (unit mm)*
G04 Created by KiCad (PCBNEW 8.0.7) date 2025-01-15 18:16:11*
%MOMM*%
%LPD*%
G01*
G04 APERTURE LIST*
%TA.AperFunction,ComponentPad*%
%ADD10R,1.700000X1.700000*%
%TD*%
%TA.AperFunction,ComponentPad*%
%ADD11O,1.700000X1.700000*%
%TD*%
%TA.AperFunction,ComponentPad*%
%ADD12R,1.350000X1.350000*%
%TD*%
%TA.AperFunction,ComponentPad*%
%ADD13O,1.350000X1.350000*%
%TD*%
%TA.AperFunction,SMDPad,CuDef*%
%ADD14R,2.500000X1.000000*%
%TD*%
%TA.AperFunction,SMDPad,CuDef*%
%ADD15R,2.000000X1.000000*%
%TD*%
%TA.AperFunction,ViaPad*%
%ADD16C,0.600000*%
%TD*%
%TA.AperFunction,Conductor*%
%ADD17C,0.200000*%
%TD*%
%TA.AperFunction,Conductor*%
%ADD18C,0.400000*%
%TD*%
%ADD19C,0.300000*%
%ADD20C,0.350000*%
G04 APERTURE END LIST*
D10*
%TO.P,J2,1,Pin_1*%
%TO.N,P11*%
X13500000Y-4490000D03*
D11*
%TO.P,J2,2,Pin_2*%
%TO.N,GND*%
X13500000Y-1950000D03*
%TO.P,J2,3,Pin_3*%
%TO.N,P12*%
X16040000Y-4490000D03*
%TO.P,J2,4,Pin_4*%
%TO.N,GND*%
X16040000Y-1950000D03*
%TO.P,J2,5,Pin_5*%
%TO.N,P13*%
X18580000Y-4490000D03*
%TO.P,J2,6,Pin_6*%
%TO.N,GND*%
X18580000Y-1950000D03*
%TO.P,J2,7,Pin_7*%
%TO.N,P14*%
X21120000Y-4490000D03*
%TO.P,J2,8,Pin_8*%
%TO.N,GND*%
X21120000Y-1950000D03*
%TO.P,J2,9,Pin_9*%
%TO.N,P15*%
X23660000Y-4490000D03*
%TO.P,J2,10,Pin_10*%
%TO.N,GND*%
X23660000Y-1950000D03*
%TO.P,J2,11,Pin_11*%
%TO.N,P16*%
X26200000Y-4490000D03*
%TO.P,J2,12,Pin_12*%
%TO.N,GND*%
X26200000Y-1950000D03*
%TO.P,J2,13,Pin_13*%
%TO.N,P17*%
X28740000Y-4490000D03*
%TO.P,J2,14,Pin_14*%
%TO.N,GND*%
X28740000Y-1950000D03*
%TO.P,J2,15,Pin_15*%
%TO.N,P18*%
X31280000Y-4490000D03*
%TO.P,J2,16,Pin_16*%
%TO.N,GND*%
X31280000Y-1950000D03*
%TO.P,J2,17,Pin_17*%
%TO.N,P19*%
X33820000Y-4490000D03*
%TO.P,J2,18,Pin_18*%
%TO.N,GND*%
X33820000Y-1950000D03*
%TO.P,J2,19,Pin_19*%
%TO.N,P20*%
X36360000Y-4490000D03*
%TO.P,J2,20,Pin_20*%
%TO.N,GND*%
X36360000Y-1950000D03*
%TO.P,J2,21,Pin_21*%
%TO.N,P22*%
X38900000Y-4490000D03*
%TO.P,J2,22,Pin_22*%
%TO.N,GND*%
X38900000Y-1950000D03*
%TD*%
D12*
%TO.P,J4,1,Pin_1*%
%TO.N,5V*%
X5850000Y-23600000D03*
D13*
%TO.P,J4,2,Pin_2*%
%TO.N,GND*%
X7850000Y-23600000D03*
%TO.P,J4,3,Pin_3*%
%TO.N,SWDIO*%
X9850000Y-23600000D03*
%TO.P,J4,4,Pin_4*%
%TO.N,SWDCLK*%
X11850000Y-23600000D03*
%TD*%
D10*
%TO.P,J6,1,Pin_1*%
%TO.N,P1*%
X13500000Y-10690000D03*
D11*
%TO.P,J6,2,Pin_2*%
%TO.N,GND*%
X13500000Y-8150000D03*
%TO.P,J6,3,Pin_3*%
%TO.N,P2*%
X16040000Y-10690000D03*
%TO.P,J6,4,Pin_4*%
%TO.N,GND*%
X16040000Y-8150000D03*
%TO.P,J6,5,Pin_5*%
%TO.N,P3*%
X18580000Y-10690000D03*
%TO.P,J6,6,Pin_6*%
%TO.N,GND*%
X18580000Y-8150000D03*
%TO.P,J6,7,Pin_7*%
%TO.N,P4*%
X21120000Y-10690000D03*
%TO.P,J6,8,Pin_8*%
%TO.N,GND*%
X21120000Y-8150000D03*
%TO.P,J6,9,Pin_9*%
%TO.N,P5*%
X23660000Y-10690000D03*
%TO.P,J6,10,Pin_10*%
%TO.N,GND*%
X23660000Y-8150000D03*
%TO.P,J6,11,Pin_11*%
%TO.N,P6*%
X26200000Y-10690000D03*
%TO.P,J6,12,Pin_12*%
%TO.N,GND*%
X26200000Y-8150000D03*
%TO.P,J6,13,Pin_13*%
%TO.N,P7*%
X28740000Y-10690000D03*
%TO.P,J6,14,Pin_14*%
%TO.N,GND*%
X28740000Y-8150000D03*
%TO.P,J6,15,Pin_15*%
%TO.N,P8*%
X31280000Y-10690000D03*
%TO.P,J6,16,Pin_16*%
%TO.N,GND*%
X31280000Y-8150000D03*
%TO.P,J6,17,Pin_17*%
%TO.N,P9*%
X33820000Y-10690000D03*
%TO.P,J6,18,Pin_18*%
%TO.N,GND*%
X33820000Y-8150000D03*
%TO.P,J6,19,Pin_19*%
%TO.N,P10*%
X36360000Y-10690000D03*
%TO.P,J6,20,Pin_20*%
%TO.N,GND*%
X36360000Y-8150000D03*
%TO.P,J6,21,Pin_21*%
%TO.N,P21*%
X38900000Y-10690000D03*
%TO.P,J6,22,Pin_22*%
%TO.N,GND*%
X38900000Y-8150000D03*
%TD*%
D14*
%TO.P,J1,1,Pin_1*%
%TO.N,5V*%
X8025000Y-6150000D03*
%TO.P,J1,2,Pin_2*%
%TO.N,GND*%
X8025000Y-8690000D03*
%TO.P,J1,3,Pin_3*%
%TO.N,PS*%
X8025000Y-11230000D03*
%TO.P,J1,4,Pin_4*%
%TO.N,SCLK*%
X8025000Y-13770000D03*
%TO.P,J1,5,Pin_5*%
%TO.N,MISO*%
X8025000Y-16310000D03*
%TO.P,J1,6,Pin_6*%
%TO.N,MOSI*%
X8025000Y-18850000D03*
%TD*%
D15*
%TO.P,J3,1,Pin_1*%
%TO.N,MOSI*%
X47575000Y-18850000D03*
%TO.P,J3,2,Pin_2*%
%TO.N,MISO*%
X47575000Y-16310000D03*
%TO.P,J3,3,Pin_3*%
%TO.N,SCLK*%
X47575000Y-13770000D03*
%TO.P,J3,4,Pin_4*%
%TO.N,PS*%
X47575000Y-11230000D03*
%TO.P,J3,5,Pin_5*%
%TO.N,GND*%
X47575000Y-8690000D03*
%TO.P,J3,6,Pin_6*%
%TO.N,5V*%
X47575000Y-6150000D03*
%TD*%
D16*
%TO.N,VDD*%
X38362500Y-19712500D03*
X32450000Y-19375000D03*
%TO.N,GND*%
X33250000Y-18400000D03*
X45975000Y-8690000D03*
X2220000Y-9120000D03*
X45075000Y-10950000D03*
X2680000Y-15980000D03*
X12075000Y-17400000D03*
X27100000Y-18425000D03*
X25175000Y-19250000D03*
X22300000Y-21500000D03*
X28575000Y-12425000D03*
X5625000Y-7375000D03*
X14700000Y-24075000D03*
X6160000Y-2010000D03*
X15650000Y-20850000D03*
X34850000Y-24200000D03*
X39825000Y-18350000D03*
X43525000Y-1575000D03*
X18925000Y-23800000D03*
X22350000Y-17150000D03*
X49025000Y-20825000D03*
X18425000Y-12450000D03*
X45375000Y-7500000D03*
%TO.N,5V*%
X48200000Y-7175000D03*
X6275000Y-6175000D03*
%TO.N,MOSI*%
X15800000Y-16074264D03*
X9275000Y-17950000D03*
X44338235Y-16436765D03*
%TO.N,MISO*%
X16900736Y-14874264D03*
X9887500Y-15662500D03*
X45295000Y-15230000D03*
%TO.N,SCLK*%
X33125000Y-13375000D03*
X8037794Y-12712206D03*
X46275000Y-13770000D03*
%TO.N,PS*%
X9700000Y-11500000D03*
X29741472Y-12850000D03*
X43550000Y-12150000D03*
%TO.N,SWDIO*%
X19275000Y-21675000D03*
%TO.N,SWDCLK*%
X20475000Y-22950000D03*
%TO.N,P20*%
X35950000Y-22000000D03*
X25150000Y-21700000D03*
%TO.N,P21*%
X24550000Y-21075000D03*
X36455760Y-20480024D03*
%TO.N,P22*%
X23550000Y-21825000D03*
X41025000Y-18000000D03*
%TO.N,Interrupt5V*%
X43850000Y-7450000D03*
X4130000Y-10650000D03*
%TD*%
D17*
%TO.N,VDD*%
X32450000Y-19375000D02*
X32675000Y-19600000D01*
X38250000Y-19600000D02*
X38362500Y-19712500D01*
X36525000Y-19600000D02*
X38250000Y-19600000D01*
X32675000Y-19600000D02*
X36525000Y-19600000D01*
%TO.N,GND*%
X6475000Y-14570000D02*
X10005000Y-14570000D01*
X35225000Y-13775000D02*
X44989314Y-13775000D01*
X48875000Y-10525000D02*
X48275000Y-9925000D01*
X15725000Y-12425000D02*
X15325000Y-12025000D01*
D18*
X8025000Y-8690000D02*
X45975000Y-8690000D01*
D17*
X46100000Y-17350000D02*
X47800000Y-17350000D01*
X6475000Y-14450000D02*
X6475000Y-14570000D01*
X11625000Y-11110000D02*
X11625000Y-9900000D01*
X48155000Y-12750000D02*
X48875000Y-12030000D01*
D18*
X45975000Y-8690000D02*
X47575000Y-8690000D01*
D17*
X40600000Y-11950000D02*
X41200000Y-11350000D01*
X45784314Y-14570000D02*
X48875000Y-14570000D01*
X34750000Y-14250000D02*
X35225000Y-13775000D01*
X34825000Y-15050000D02*
X43800000Y-15050000D01*
X43800000Y-15050000D02*
X46100000Y-17350000D01*
X12540000Y-12025000D02*
X11625000Y-11110000D01*
X8635000Y-12030000D02*
X9600000Y-12995000D01*
X10750000Y-15900000D02*
X11175736Y-15474264D01*
X17573529Y-15050000D02*
X18175000Y-15050000D01*
X6475000Y-14450000D02*
X6475000Y-17110000D01*
X15325000Y-12025000D02*
X12540000Y-12025000D01*
X18175000Y-15050000D02*
X34825000Y-15050000D01*
X48900000Y-13050000D02*
X48675000Y-12825000D01*
X48900000Y-14545000D02*
X48900000Y-13050000D01*
X9540000Y-17110000D02*
X10750000Y-15900000D01*
X8717206Y-12112206D02*
X7332794Y-12112206D01*
X10005000Y-14570000D02*
X10262500Y-14312500D01*
X10262500Y-14312500D02*
X10300000Y-14275000D01*
X17149265Y-15474264D02*
X17573529Y-15050000D01*
X9080000Y-12030000D02*
X10500000Y-13450000D01*
X32100000Y-13450000D02*
X32800000Y-12750000D01*
X28575000Y-12425000D02*
X15725000Y-12425000D01*
X32800000Y-12750000D02*
X48155000Y-12750000D01*
X28575000Y-12425000D02*
X29050000Y-11950000D01*
X8025000Y-8690000D02*
X6475000Y-10240000D01*
X44989314Y-13775000D02*
X45784314Y-14570000D01*
X10500000Y-13450000D02*
X32100000Y-13450000D01*
X6475000Y-12030000D02*
X8635000Y-12030000D01*
X6475000Y-10240000D02*
X6475000Y-12030000D01*
X17975000Y-14250000D02*
X34750000Y-14250000D01*
X6475000Y-17110000D02*
X9540000Y-17110000D01*
X48875000Y-14570000D02*
X48900000Y-14545000D01*
X10325000Y-14250000D02*
X17975000Y-14250000D01*
X9600000Y-12995000D02*
X8717206Y-12112206D01*
X48875000Y-12030000D02*
X48875000Y-10525000D01*
X11175736Y-15474264D02*
X17149265Y-15474264D01*
X6475000Y-12970000D02*
X6475000Y-14450000D01*
X10262500Y-14312500D02*
X10325000Y-14250000D01*
X6475000Y-12030000D02*
X9080000Y-12030000D01*
X29050000Y-11950000D02*
X40600000Y-11950000D01*
X7332794Y-12112206D02*
X6475000Y-12970000D01*
D18*
%TO.N,5V*%
X8025000Y-6150000D02*
X47575000Y-6150000D01*
D17*
X6275000Y-6175000D02*
X8000000Y-6175000D01*
X48200000Y-6775000D02*
X47575000Y-6150000D01*
X48200000Y-7175000D02*
X48200000Y-6775000D01*
X8000000Y-6175000D02*
X8025000Y-6150000D01*
%TO.N,MOSI*%
X11275000Y-15950000D02*
X18075000Y-15950000D01*
X43634314Y-15450000D02*
X47034314Y-18850000D01*
X18575000Y-15450000D02*
X43634314Y-15450000D01*
X47034314Y-18850000D02*
X47575000Y-18850000D01*
X9275000Y-17950000D02*
X11275000Y-15950000D01*
X8375000Y-18850000D02*
X9275000Y-17950000D01*
X18075000Y-15950000D02*
X18575000Y-15450000D01*
X44621079Y-16436765D02*
X44338235Y-16436765D01*
%TO.N,MISO*%
X9887500Y-15662500D02*
X10900000Y-14650000D01*
X45295000Y-15230000D02*
X46375000Y-16310000D01*
X16676472Y-14650000D02*
X16900736Y-14874264D01*
X8025000Y-16310000D02*
X9240000Y-16310000D01*
X16600000Y-14650000D02*
X44715000Y-14650000D01*
X10900000Y-14650000D02*
X16600000Y-14650000D01*
X9240000Y-16310000D02*
X9887500Y-15662500D01*
X46375000Y-16310000D02*
X47575000Y-16310000D01*
X44715000Y-14650000D02*
X45295000Y-15230000D01*
X16600000Y-14650000D02*
X16676472Y-14650000D01*
%TO.N,SCLK*%
X8037794Y-13757206D02*
X8025000Y-13770000D01*
X46275000Y-13770000D02*
X47575000Y-13770000D01*
X8025000Y-13770000D02*
X8105000Y-13850000D01*
X33125000Y-13550000D02*
X33100000Y-13575000D01*
X8037794Y-12712206D02*
X8037794Y-13757206D01*
X33125000Y-13375000D02*
X45155000Y-13375000D01*
X45155000Y-13375000D02*
X45550000Y-13770000D01*
X33125000Y-13375000D02*
X33125000Y-13550000D01*
X32650000Y-13850000D02*
X33125000Y-13375000D01*
X45550000Y-13770000D02*
X46275000Y-13770000D01*
X8105000Y-13850000D02*
X32650000Y-13850000D01*
%TO.N,PS*%
X9430000Y-11230000D02*
X9700000Y-11500000D01*
X30400000Y-12350000D02*
X43850000Y-12350000D01*
X43850000Y-12350000D02*
X46455000Y-12350000D01*
X29541472Y-13050000D02*
X11250000Y-13050000D01*
X43750000Y-12350000D02*
X43850000Y-12350000D01*
X43550000Y-12150000D02*
X43750000Y-12350000D01*
X8025000Y-11230000D02*
X9430000Y-11230000D01*
X29741472Y-12850000D02*
X29541472Y-13050000D01*
X46455000Y-12350000D02*
X47575000Y-11230000D01*
X11250000Y-13050000D02*
X9700000Y-11500000D01*
X29741472Y-12850000D02*
X29900000Y-12850000D01*
X29900000Y-12850000D02*
X30400000Y-12350000D01*
%TO.N,SWDIO*%
X18800000Y-22150000D02*
X11300000Y-22150000D01*
X19275000Y-21675000D02*
X18800000Y-22150000D01*
X11300000Y-22150000D02*
X9850000Y-23600000D01*
%TO.N,SWDCLK*%
X13650000Y-22550000D02*
X20075000Y-22550000D01*
X12950000Y-23250000D02*
X13650000Y-22550000D01*
X12200000Y-23250000D02*
X11850000Y-23600000D01*
X20075000Y-22550000D02*
X20475000Y-22950000D01*
X12950000Y-23250000D02*
X12200000Y-23250000D01*
%TO.N,P20*%
X35725000Y-21775000D02*
X35950000Y-22000000D01*
X25150000Y-21700000D02*
X25225000Y-21775000D01*
X25225000Y-21775000D02*
X35725000Y-21775000D01*
%TO.N,P21*%
X24550000Y-21075000D02*
X26075000Y-21075000D01*
X34175000Y-21375000D02*
X35069976Y-20480024D01*
X26075000Y-21075000D02*
X26375000Y-21375000D01*
X26375000Y-21375000D02*
X34175000Y-21375000D01*
X35069976Y-20480024D02*
X36455760Y-20480024D01*
%TO.N,P22*%
X24325000Y-22600000D02*
X36425000Y-22600000D01*
X23550000Y-21825000D02*
X24325000Y-22600000D01*
X36425000Y-22600000D02*
X41025000Y-18000000D01*
%TO.N,Interrupt5V*%
X4130000Y-10235000D02*
X7365000Y-7000000D01*
X43050000Y-6650000D02*
X43875000Y-7475000D01*
X7365000Y-7000000D02*
X10675000Y-7000000D01*
X11025000Y-6650000D02*
X43050000Y-6650000D01*
X10675000Y-7000000D02*
X11025000Y-6650000D01*
X43875000Y-7475000D02*
X43850000Y-7450000D01*
X4130000Y-10650000D02*
X4130000Y-10235000D01*
%TD*%
%TA.AperFunction,Conductor*%
%TO.N,GND*%
G36*
X15574075Y-7957007D02*
G01*
X15540000Y-8084174D01*
X15540000Y-8215826D01*
X15574075Y-8342993D01*
X15606988Y-8400000D01*
X13933012Y-8400000D01*
X13965925Y-8342993D01*
X14000000Y-8215826D01*
X14000000Y-8084174D01*
X13965925Y-7957007D01*
X13933012Y-7900000D01*
X15606988Y-7900000D01*
X15574075Y-7957007D01*
G37*
%TD.AperFunction*%
%TA.AperFunction,Conductor*%
G36*
X18114075Y-7957007D02*
G01*
X18080000Y-8084174D01*
X18080000Y-8215826D01*
X18114075Y-8342993D01*
X18146988Y-8400000D01*
X16473012Y-8400000D01*
X16505925Y-8342993D01*
X16540000Y-8215826D01*
X16540000Y-8084174D01*
X16505925Y-7957007D01*
X16473012Y-7900000D01*
X18146988Y-7900000D01*
X18114075Y-7957007D01*
G37*
%TD.AperFunction*%
%TA.AperFunction,Conductor*%
G36*
X20654075Y-7957007D02*
G01*
X20620000Y-8084174D01*
X20620000Y-8215826D01*
X20654075Y-8342993D01*
X20686988Y-8400000D01*
X19013012Y-8400000D01*
X19045925Y-8342993D01*
X19080000Y-8215826D01*
X19080000Y-8084174D01*
X19045925Y-7957007D01*
X19013012Y-7900000D01*
X20686988Y-7900000D01*
X20654075Y-7957007D01*
G37*
%TD.AperFunction*%
%TA.AperFunction,Conductor*%
G36*
X23194075Y-7957007D02*
G01*
X23160000Y-8084174D01*
X23160000Y-8215826D01*
X23194075Y-8342993D01*
X23226988Y-8400000D01*
X21553012Y-8400000D01*
X21585925Y-8342993D01*
X21620000Y-8215826D01*
X21620000Y-8084174D01*
X21585925Y-7957007D01*
X21553012Y-7900000D01*
X23226988Y-7900000D01*
X23194075Y-7957007D01*
G37*
%TD.AperFunction*%
%TA.AperFunction,Conductor*%
G36*
X25734075Y-7957007D02*
G01*
X25700000Y-8084174D01*
X25700000Y-8215826D01*
X25734075Y-8342993D01*
X25766988Y-8400000D01*
X24093012Y-8400000D01*
X24125925Y-8342993D01*
X24160000Y-8215826D01*
X24160000Y-8084174D01*
X24125925Y-7957007D01*
X24093012Y-7900000D01*
X25766988Y-7900000D01*
X25734075Y-7957007D01*
G37*
%TD.AperFunction*%
%TA.AperFunction,Conductor*%
G36*
X28274075Y-7957007D02*
G01*
X28240000Y-8084174D01*
X28240000Y-8215826D01*
X28274075Y-8342993D01*
X28306988Y-8400000D01*
X26633012Y-8400000D01*
X26665925Y-8342993D01*
X26700000Y-8215826D01*
X26700000Y-8084174D01*
X26665925Y-7957007D01*
X26633012Y-7900000D01*
X28306988Y-7900000D01*
X28274075Y-7957007D01*
G37*
%TD.AperFunction*%
%TA.AperFunction,Conductor*%
G36*
X30814075Y-7957007D02*
G01*
X30780000Y-8084174D01*
X30780000Y-8215826D01*
X30814075Y-8342993D01*
X30846988Y-8400000D01*
X29173012Y-8400000D01*
X29205925Y-8342993D01*
X29240000Y-8215826D01*
X29240000Y-8084174D01*
X29205925Y-7957007D01*
X29173012Y-7900000D01*
X30846988Y-7900000D01*
X30814075Y-7957007D01*
G37*
%TD.AperFunction*%
%TA.AperFunction,Conductor*%
G36*
X33354075Y-7957007D02*
G01*
X33320000Y-8084174D01*
X33320000Y-8215826D01*
X33354075Y-8342993D01*
X33386988Y-8400000D01*
X31713012Y-8400000D01*
X31745925Y-8342993D01*
X31780000Y-8215826D01*
X31780000Y-8084174D01*
X31745925Y-7957007D01*
X31713012Y-7900000D01*
X33386988Y-7900000D01*
X33354075Y-7957007D01*
G37*
%TD.AperFunction*%
%TA.AperFunction,Conductor*%
G36*
X35894075Y-7957007D02*
G01*
X35860000Y-8084174D01*
X35860000Y-8215826D01*
X35894075Y-8342993D01*
X35926988Y-8400000D01*
X34253012Y-8400000D01*
X34285925Y-8342993D01*
X34320000Y-8215826D01*
X34320000Y-8084174D01*
X34285925Y-7957007D01*
X34253012Y-7900000D01*
X35926988Y-7900000D01*
X35894075Y-7957007D01*
G37*
%TD.AperFunction*%
%TA.AperFunction,Conductor*%
G36*
X38434075Y-7957007D02*
G01*
X38400000Y-8084174D01*
X38400000Y-8215826D01*
X38434075Y-8342993D01*
X38466988Y-8400000D01*
X36793012Y-8400000D01*
X36825925Y-8342993D01*
X36860000Y-8215826D01*
X36860000Y-8084174D01*
X36825925Y-7957007D01*
X36793012Y-7900000D01*
X38466988Y-7900000D01*
X38434075Y-7957007D01*
G37*
%TD.AperFunction*%
%TA.AperFunction,Conductor*%
G36*
X15574075Y-1757007D02*
G01*
X15540000Y-1884174D01*
X15540000Y-2015826D01*
X15574075Y-2142993D01*
X15606988Y-2200000D01*
X13933012Y-2200000D01*
X13965925Y-2142993D01*
X14000000Y-2015826D01*
X14000000Y-1884174D01*
X13965925Y-1757007D01*
X13933012Y-1700000D01*
X15606988Y-1700000D01*
X15574075Y-1757007D01*
G37*
%TD.AperFunction*%
%TA.AperFunction,Conductor*%
G36*
X18114075Y-1757007D02*
G01*
X18080000Y-1884174D01*
X18080000Y-2015826D01*
X18114075Y-2142993D01*
X18146988Y-2200000D01*
X16473012Y-2200000D01*
X16505925Y-2142993D01*
X16540000Y-2015826D01*
X16540000Y-1884174D01*
X16505925Y-1757007D01*
X16473012Y-1700000D01*
X18146988Y-1700000D01*
X18114075Y-1757007D01*
G37*
%TD.AperFunction*%
%TA.AperFunction,Conductor*%
G36*
X20654075Y-1757007D02*
G01*
X20620000Y-1884174D01*
X20620000Y-2015826D01*
X20654075Y-2142993D01*
X20686988Y-2200000D01*
X19013012Y-2200000D01*
X19045925Y-2142993D01*
X19080000Y-2015826D01*
X19080000Y-1884174D01*
X19045925Y-1757007D01*
X19013012Y-1700000D01*
X20686988Y-1700000D01*
X20654075Y-1757007D01*
G37*
%TD.AperFunction*%
%TA.AperFunction,Conductor*%
G36*
X23194075Y-1757007D02*
G01*
X23160000Y-1884174D01*
X23160000Y-2015826D01*
X23194075Y-2142993D01*
X23226988Y-2200000D01*
X21553012Y-2200000D01*
X21585925Y-2142993D01*
X21620000Y-2015826D01*
X21620000Y-1884174D01*
X21585925Y-1757007D01*
X21553012Y-1700000D01*
X23226988Y-1700000D01*
X23194075Y-1757007D01*
G37*
%TD.AperFunction*%
%TA.AperFunction,Conductor*%
G36*
X25734075Y-1757007D02*
G01*
X25700000Y-1884174D01*
X25700000Y-2015826D01*
X25734075Y-2142993D01*
X25766988Y-2200000D01*
X24093012Y-2200000D01*
X24125925Y-2142993D01*
X24160000Y-2015826D01*
X24160000Y-1884174D01*
X24125925Y-1757007D01*
X24093012Y-1700000D01*
X25766988Y-1700000D01*
X25734075Y-1757007D01*
G37*
%TD.AperFunction*%
%TA.AperFunction,Conductor*%
G36*
X28274075Y-1757007D02*
G01*
X28240000Y-1884174D01*
X28240000Y-2015826D01*
X28274075Y-2142993D01*
X28306988Y-2200000D01*
X26633012Y-2200000D01*
X26665925Y-2142993D01*
X26700000Y-2015826D01*
X26700000Y-1884174D01*
X26665925Y-1757007D01*
X26633012Y-1700000D01*
X28306988Y-1700000D01*
X28274075Y-1757007D01*
G37*
%TD.AperFunction*%
%TA.AperFunction,Conductor*%
G36*
X30814075Y-1757007D02*
G01*
X30780000Y-1884174D01*
X30780000Y-2015826D01*
X30814075Y-2142993D01*
X30846988Y-2200000D01*
X29173012Y-2200000D01*
X29205925Y-2142993D01*
X29240000Y-2015826D01*
X29240000Y-1884174D01*
X29205925Y-1757007D01*
X29173012Y-1700000D01*
X30846988Y-1700000D01*
X30814075Y-1757007D01*
G37*
%TD.AperFunction*%
%TA.AperFunction,Conductor*%
G36*
X33354075Y-1757007D02*
G01*
X33320000Y-1884174D01*
X33320000Y-2015826D01*
X33354075Y-2142993D01*
X33386988Y-2200000D01*
X31713012Y-2200000D01*
X31745925Y-2142993D01*
X31780000Y-2015826D01*
X31780000Y-1884174D01*
X31745925Y-1757007D01*
X31713012Y-1700000D01*
X33386988Y-1700000D01*
X33354075Y-1757007D01*
G37*
%TD.AperFunction*%
%TA.AperFunction,Conductor*%
G36*
X35894075Y-1757007D02*
G01*
X35860000Y-1884174D01*
X35860000Y-2015826D01*
X35894075Y-2142993D01*
X35926988Y-2200000D01*
X34253012Y-2200000D01*
X34285925Y-2142993D01*
X34320000Y-2015826D01*
X34320000Y-1884174D01*
X34285925Y-1757007D01*
X34253012Y-1700000D01*
X35926988Y-1700000D01*
X35894075Y-1757007D01*
G37*
%TD.AperFunction*%
%TA.AperFunction,Conductor*%
G36*
X38434075Y-1757007D02*
G01*
X38400000Y-1884174D01*
X38400000Y-2015826D01*
X38434075Y-2142993D01*
X38466988Y-2200000D01*
X36793012Y-2200000D01*
X36825925Y-2142993D01*
X36860000Y-2015826D01*
X36860000Y-1884174D01*
X36825925Y-1757007D01*
X36793012Y-1700000D01*
X38466988Y-1700000D01*
X38434075Y-1757007D01*
G37*
%TD.AperFunction*%
%TA.AperFunction,Conductor*%
G36*
X51502992Y-100681D02*
G01*
X51783256Y-117633D01*
X51795111Y-119073D01*
X51958223Y-148964D01*
X51983638Y-153622D01*
X52037468Y-182709D01*
X52063920Y-237880D01*
X52052891Y-298064D01*
X52008593Y-340270D01*
X51965793Y-350000D01*
X50999997Y-350000D01*
X50299998Y-650000D01*
X49799999Y-1050000D01*
X49600005Y-1349990D01*
X49599998Y-1350002D01*
X49400001Y-1749996D01*
X49300000Y-2050000D01*
X49300000Y-3050002D01*
X49599997Y-3749995D01*
X49600000Y-3750000D01*
X49880037Y-4086045D01*
X50100000Y-4350000D01*
X50900000Y-4750000D01*
X51899998Y-4750000D01*
X51900000Y-4750000D01*
X52500000Y-4650000D01*
X53100000Y-4150000D01*
X53500000Y-3650000D01*
X53700000Y-2950000D01*
X53700000Y-2478186D01*
X53718907Y-2419995D01*
X53768407Y-2384031D01*
X53829593Y-2384031D01*
X53879093Y-2419995D01*
X53897819Y-2472209D01*
X53899319Y-2497007D01*
X53899500Y-2502984D01*
X53899500Y-5019991D01*
X53914798Y-5056926D01*
X53914799Y-5056927D01*
X53914800Y-5056929D01*
X53943071Y-5085200D01*
X53943072Y-5085200D01*
X53943073Y-5085201D01*
X53980008Y-5100500D01*
X53980009Y-5100500D01*
X54019991Y-5100500D01*
X54800500Y-5100500D01*
X54858691Y-5119407D01*
X54894655Y-5168907D01*
X54899500Y-5199500D01*
X54899500Y-19800500D01*
X54880593Y-19858691D01*
X54831093Y-19894655D01*
X54800500Y-19899500D01*
X53980008Y-19899500D01*
X53943073Y-19914798D01*
X53914798Y-19943073D01*
X53899500Y-19980008D01*
X53899500Y-22497015D01*
X53899319Y-22502992D01*
X53897819Y-22527790D01*
X53875433Y-22584733D01*
X53823852Y-22617643D01*
X53762778Y-22613949D01*
X53715540Y-22575062D01*
X53700000Y-22521813D01*
X53700000Y-21900000D01*
X53642709Y-21756772D01*
X53500000Y-21400000D01*
X53100000Y-20900000D01*
X52968723Y-20794978D01*
X52841068Y-20692854D01*
X52600000Y-20500000D01*
X52000000Y-20300000D01*
X51000000Y-20300000D01*
X50999997Y-20300000D01*
X50299998Y-20600000D01*
X49799999Y-21000000D01*
X49600005Y-21299990D01*
X49599998Y-21300002D01*
X49400001Y-21699996D01*
X49300000Y-22000000D01*
X49300000Y-23000002D01*
X49599997Y-23699995D01*
X49600000Y-23700000D01*
X50061837Y-24254205D01*
X50100000Y-24300000D01*
X50900000Y-24700000D01*
X51521813Y-24700000D01*
X51580004Y-24718907D01*
X51615968Y-24768407D01*
X51615968Y-24829593D01*
X51580004Y-24879093D01*
X51527790Y-24897819D01*
X51502992Y-24899319D01*
X51497015Y-24899500D01*
X8277877Y-24899500D01*
X8219686Y-24880593D01*
X8183722Y-24831093D01*
X8183722Y-24769907D01*
X8219686Y-24720407D01*
X8242114Y-24708185D01*
X8375986Y-24656322D01*
X8375991Y-24656319D01*
X8561126Y-24541688D01*
X8561129Y-24541686D01*
X8722052Y-24394987D01*
X8853283Y-24221209D01*
X8853288Y-24221200D01*
X8930605Y-24065927D01*
X8973467Y-24022265D01*
X9033808Y-24012135D01*
X9088579Y-24039407D01*
X9104962Y-24060555D01*
X9137805Y-24117440D01*
X9231239Y-24221209D01*
X9254463Y-24247003D01*
X9260950Y-24254207D01*
X9409839Y-24362381D01*
X9409843Y-24362383D01*
X9409845Y-24362384D01*
X9465485Y-24387156D01*
X9577966Y-24437236D01*
X9757981Y-24475500D01*
X9757983Y-24475500D01*
X9942017Y-24475500D01*
X9942019Y-24475500D01*
X10122034Y-24437236D01*
X10290161Y-24362381D01*
X10439050Y-24254207D01*
X10562195Y-24117440D01*
X10654214Y-23958059D01*
X10711085Y-23783029D01*
X10730322Y-23600000D01*
X10711085Y-23416971D01*
X10667765Y-23283649D01*
X10667765Y-23222465D01*
X10691917Y-23183053D01*
X11395476Y-22479496D01*
X11449992Y-22451719D01*
X11465479Y-22450500D01*
X13085521Y-22450500D01*
X13143712Y-22469407D01*
X13179676Y-22518907D01*
X13179676Y-22580093D01*
X13155525Y-22619504D01*
X12854525Y-22920504D01*
X12800008Y-22948281D01*
X12784521Y-22949500D01*
X12476320Y-22949500D01*
X12418130Y-22930593D01*
X12302755Y-22846769D01*
X12290161Y-22837619D01*
X12290157Y-22837617D01*
X12290154Y-22837615D01*
X12122036Y-22762765D01*
X12122034Y-22762764D01*
X12122031Y-22762763D01*
X12122030Y-22762763D01*
X12075135Y-22752795D01*
X11942019Y-22724500D01*
X11757981Y-22724500D01*
X11660797Y-22745157D01*
X11577969Y-22762763D01*
X11577963Y-22762765D01*
X11409845Y-22837615D01*
X11409842Y-22837617D01*
X11409839Y-22837618D01*
X11409839Y-22837619D01*
X11397245Y-22846769D01*
X11260948Y-22945794D01*
X11137803Y-23082562D01*
X11137803Y-23082563D01*
X11045790Y-23241931D01*
X11045784Y-23241945D01*
X10988916Y-23416965D01*
X10988915Y-23416969D01*
X10988915Y-23416971D01*
X10969678Y-23600000D01*
X10986483Y-23759893D01*
X10988916Y-23783034D01*
X11045784Y-23958054D01*
X11045790Y-23958068D01*
X11082855Y-24022265D01*
X11137805Y-24117440D01*
X11231239Y-24221209D01*
X11254463Y-24247003D01*
X11260950Y-24254207D01*
X11409839Y-24362381D01*
X11409843Y-24362383D01*
X11409845Y-24362384D01*
X11465485Y-24387156D01*
X11577966Y-24437236D01*
X11757981Y-24475500D01*
X11757983Y-24475500D01*
X11942017Y-24475500D01*
X11942019Y-24475500D01*
X12122034Y-24437236D01*
X12290161Y-24362381D01*
X12439050Y-24254207D01*
X12562195Y-24117440D01*
X12654214Y-23958059D01*
X12711085Y-23783029D01*
X12726207Y-23639150D01*
X12751094Y-23583256D01*
X12804082Y-23552663D01*
X12824665Y-23550500D01*
X12989563Y-23550500D01*
X12989563Y-23550499D01*
X13065989Y-23530021D01*
X13134511Y-23490460D01*
X13190460Y-23434511D01*
X13745475Y-22879496D01*
X13799992Y-22851719D01*
X13815479Y-22850500D01*
X19870353Y-22850500D01*
X19928544Y-22869407D01*
X19964508Y-22918907D01*
X19968322Y-22942995D01*
X19968345Y-22942992D01*
X19968568Y-22944545D01*
X19969353Y-22949500D01*
X19969353Y-22950002D01*
X19989834Y-23092456D01*
X20008840Y-23134072D01*
X20049623Y-23223373D01*
X20101853Y-23283650D01*
X20143873Y-23332144D01*
X20173018Y-23350874D01*
X20264947Y-23409953D01*
X20348585Y-23434511D01*
X20403035Y-23450499D01*
X20403036Y-23450499D01*
X20403039Y-23450500D01*
X20403041Y-23450500D01*
X20546959Y-23450500D01*
X20546961Y-23450500D01*
X20685053Y-23409953D01*
X20806128Y-23332143D01*
X20900377Y-23223373D01*
X20960165Y-23092457D01*
X20973458Y-23000000D01*
X20980647Y-22950002D01*
X20980647Y-22949997D01*
X20960165Y-22807543D01*
X20950157Y-22785629D01*
X20900377Y-22676627D01*
X20806128Y-22567857D01*
X20806127Y-22567856D01*
X20806126Y-22567855D01*
X20685057Y-22490049D01*
X20685054Y-22490047D01*
X20685053Y-22490047D01*
X20685050Y-22490046D01*
X20546964Y-22449500D01*
X20546961Y-22449500D01*
X20440479Y-22449500D01*
X20382288Y-22430593D01*
X20370476Y-22420504D01*
X20259510Y-22309539D01*
X20242121Y-22299499D01*
X20242121Y-22299500D01*
X20190989Y-22269979D01*
X20190988Y-22269978D01*
X20190987Y-22269978D01*
X20114564Y-22249500D01*
X20114562Y-22249500D01*
X19643978Y-22249500D01*
X19585787Y-22230593D01*
X19549823Y-22181093D01*
X19549823Y-22119907D01*
X19585787Y-22070407D01*
X19590454Y-22067216D01*
X19606128Y-22057143D01*
X19700377Y-21948373D01*
X19756722Y-21824997D01*
X23044353Y-21824997D01*
X23044353Y-21825002D01*
X23064834Y-21967456D01*
X23110394Y-22067216D01*
X23124623Y-22098373D01*
X23196300Y-22181093D01*
X23218873Y-22207144D01*
X23339942Y-22284950D01*
X23339947Y-22284953D01*
X23423684Y-22309540D01*
X23478035Y-22325499D01*
X23478036Y-22325499D01*
X23478039Y-22325500D01*
X23478041Y-22325500D01*
X23584521Y-22325500D01*
X23642712Y-22344407D01*
X23654524Y-22354496D01*
X24140488Y-22840459D01*
X24140493Y-22840463D01*
X24209008Y-22880020D01*
X24209006Y-22880020D01*
X24209010Y-22880021D01*
X24209012Y-22880022D01*
X24285438Y-22900500D01*
X24285440Y-22900500D01*
X36464563Y-22900500D01*
X36464563Y-22900499D01*
X36540989Y-22880021D01*
X36609511Y-22840460D01*
X36665460Y-22784511D01*
X40920474Y-18529495D01*
X40974991Y-18501719D01*
X40990478Y-18500500D01*
X41096959Y-18500500D01*
X41096961Y-18500500D01*
X41235053Y-18459953D01*
X41356128Y-18382143D01*
X41450377Y-18273373D01*
X41510165Y-18142457D01*
X41526079Y-18031772D01*
X41530647Y-18000002D01*
X41530647Y-17999997D01*
X41510165Y-17857543D01*
X41504173Y-17844423D01*
X41450377Y-17726627D01*
X41356128Y-17617857D01*
X41356127Y-17617856D01*
X41356126Y-17617855D01*
X41235057Y-17540049D01*
X41235054Y-17540047D01*
X41235053Y-17540047D01*
X41235050Y-17540046D01*
X41096964Y-17499500D01*
X41096961Y-17499500D01*
X40953039Y-17499500D01*
X40953035Y-17499500D01*
X40814949Y-17540046D01*
X40814942Y-17540049D01*
X40693873Y-17617855D01*
X40599622Y-17726628D01*
X40539834Y-17857543D01*
X40519353Y-17999997D01*
X40519353Y-18000003D01*
X40522441Y-18021482D01*
X40512007Y-18081771D01*
X40494453Y-18105574D01*
X39005648Y-19594379D01*
X38951131Y-19622156D01*
X38890699Y-19612585D01*
X38847434Y-19569320D01*
X38845591Y-19565501D01*
X38787878Y-19439129D01*
X38787877Y-19439128D01*
X38787877Y-19439127D01*
X38693628Y-19330357D01*
X38693627Y-19330356D01*
X38693626Y-19330355D01*
X38572557Y-19252549D01*
X38572554Y-19252547D01*
X38572553Y-19252547D01*
X38572550Y-19252546D01*
X38434464Y-19212000D01*
X38434461Y-19212000D01*
X38290539Y-19212000D01*
X38290535Y-19212000D01*
X38152449Y-19252546D01*
X38152446Y-19252547D01*
X38120576Y-19273028D01*
X38103841Y-19283784D01*
X38050318Y-19299500D01*
X33028936Y-19299500D01*
X32970745Y-19280593D01*
X32939914Y-19238158D01*
X32938107Y-19238984D01*
X32875377Y-19101628D01*
X32875377Y-19101627D01*
X32781128Y-18992857D01*
X32781127Y-18992856D01*
X32781126Y-18992855D01*
X32660057Y-18915049D01*
X32660054Y-18915047D01*
X32660053Y-18915047D01*
X32660050Y-18915046D01*
X32521964Y-18874500D01*
X32521961Y-18874500D01*
X32378039Y-18874500D01*
X32378035Y-18874500D01*
X32239949Y-18915046D01*
X32239942Y-18915049D01*
X32118873Y-18992855D01*
X32024622Y-19101628D01*
X31964834Y-19232543D01*
X31944353Y-19374997D01*
X31944353Y-19375002D01*
X31964834Y-19517456D01*
X31979924Y-19550498D01*
X32024623Y-19648373D01*
X32080189Y-19712500D01*
X32118873Y-19757144D01*
X32239942Y-19834950D01*
X32239947Y-19834953D01*
X32346403Y-19866211D01*
X32378035Y-19875499D01*
X32378036Y-19875499D01*
X32378039Y-19875500D01*
X32378041Y-19875500D01*
X32529043Y-19875500D01*
X32529043Y-19877417D01*
X32554707Y-19878868D01*
X32602075Y-19891560D01*
X32635435Y-19900499D01*
X32635437Y-19900500D01*
X32635438Y-19900500D01*
X36094600Y-19900500D01*
X36152791Y-19919407D01*
X36188755Y-19968907D01*
X36188755Y-20030093D01*
X36152791Y-20079593D01*
X36148123Y-20082784D01*
X36124636Y-20097878D01*
X36124631Y-20097882D01*
X36083496Y-20145355D01*
X36031100Y-20176951D01*
X36008677Y-20179524D01*
X35030411Y-20179524D01*
X34953987Y-20200002D01*
X34953983Y-20200004D01*
X34885467Y-20239562D01*
X34079525Y-21045504D01*
X34025008Y-21073281D01*
X34009521Y-21074500D01*
X26540479Y-21074500D01*
X26482288Y-21055593D01*
X26470476Y-21045504D01*
X26259510Y-20834539D01*
X26230039Y-20817524D01*
X26230037Y-20817523D01*
X26190989Y-20794979D01*
X26190986Y-20794978D01*
X26114564Y-20774500D01*
X26114562Y-20774500D01*
X24997083Y-20774500D01*
X24938892Y-20755593D01*
X24922264Y-20740331D01*
X24881128Y-20692857D01*
X24771621Y-20622481D01*
X24760057Y-20615049D01*
X24760054Y-20615047D01*
X24760053Y-20615047D01*
X24760050Y-20615046D01*
X24621964Y-20574500D01*
X24621961Y-20574500D01*
X24478039Y-20574500D01*
X24478035Y-20574500D01*
X24339949Y-20615046D01*
X24339942Y-20615049D01*
X24218873Y-20692855D01*
X24124622Y-20801628D01*
X24064834Y-20932543D01*
X24044353Y-21074997D01*
X24044353Y-21075002D01*
X24064834Y-21217456D01*
X24113720Y-21324500D01*
X24124623Y-21348373D01*
X24206493Y-21442857D01*
X24218873Y-21457144D01*
X24293630Y-21505187D01*
X24339947Y-21534953D01*
X24435968Y-21563147D01*
X24478035Y-21575499D01*
X24478036Y-21575499D01*
X24478039Y-21575500D01*
X24478041Y-21575500D01*
X24548001Y-21575500D01*
X24606192Y-21594407D01*
X24642156Y-21643907D01*
X24645994Y-21688587D01*
X24644353Y-21700002D01*
X24664834Y-21842456D01*
X24713205Y-21948371D01*
X24724623Y-21973373D01*
X24818872Y-22082143D01*
X24873447Y-22117216D01*
X24912178Y-22164582D01*
X24915671Y-22225668D01*
X24882591Y-22277140D01*
X24825575Y-22299339D01*
X24819923Y-22299500D01*
X24490479Y-22299500D01*
X24432288Y-22280593D01*
X24420475Y-22270504D01*
X24080546Y-21930575D01*
X24052769Y-21876058D01*
X24052558Y-21846482D01*
X24055647Y-21825000D01*
X24055000Y-21820502D01*
X24035165Y-21682543D01*
X24017520Y-21643907D01*
X23975377Y-21551627D01*
X23881128Y-21442857D01*
X23881127Y-21442856D01*
X23881126Y-21442855D01*
X23760057Y-21365049D01*
X23760054Y-21365047D01*
X23760053Y-21365047D01*
X23760050Y-21365046D01*
X23621964Y-21324500D01*
X23621961Y-21324500D01*
X23478039Y-21324500D01*
X23478035Y-21324500D01*
X23339949Y-21365046D01*
X23339942Y-21365049D01*
X23218873Y-21442855D01*
X23124622Y-21551628D01*
X23064834Y-21682543D01*
X23044353Y-21824997D01*
X19756722Y-21824997D01*
X19760165Y-21817457D01*
X19773224Y-21726627D01*
X19780647Y-21675002D01*
X19780647Y-21674997D01*
X19760165Y-21532543D01*
X19747672Y-21505187D01*
X19700377Y-21401627D01*
X19606128Y-21292857D01*
X19606127Y-21292856D01*
X19606126Y-21292855D01*
X19485057Y-21215049D01*
X19485054Y-21215047D01*
X19485053Y-21215047D01*
X19485050Y-21215046D01*
X19346964Y-21174500D01*
X19346961Y-21174500D01*
X19203039Y-21174500D01*
X19203035Y-21174500D01*
X19064949Y-21215046D01*
X19064942Y-21215049D01*
X18943873Y-21292855D01*
X18849622Y-21401628D01*
X18789834Y-21532543D01*
X18769353Y-21674996D01*
X18769353Y-21674997D01*
X18769353Y-21675000D01*
X18772442Y-21696483D01*
X18762007Y-21756772D01*
X18744454Y-21780573D01*
X18704527Y-21820502D01*
X18650011Y-21848281D01*
X18634522Y-21849500D01*
X11339562Y-21849500D01*
X11260438Y-21849500D01*
X11230421Y-21857543D01*
X11184007Y-21869979D01*
X11115493Y-21909536D01*
X11115488Y-21909540D01*
X10267174Y-22757852D01*
X10212658Y-22785629D01*
X10156905Y-22778289D01*
X10122040Y-22762766D01*
X10122035Y-22762764D01*
X10122034Y-22762764D01*
X10122031Y-22762763D01*
X10122030Y-22762763D01*
X10075135Y-22752795D01*
X9942019Y-22724500D01*
X9757981Y-22724500D01*
X9660797Y-22745157D01*
X9577969Y-22762763D01*
X9577963Y-22762765D01*
X9409845Y-22837615D01*
X9409842Y-22837617D01*
X9409839Y-22837618D01*
X9409839Y-22837619D01*
X9397245Y-22846769D01*
X9260948Y-22945794D01*
X9137804Y-23082561D01*
X9104962Y-23139445D01*
X9059492Y-23180385D01*
X8998642Y-23186780D01*
X8945654Y-23156187D01*
X8930605Y-23134072D01*
X8853288Y-22978799D01*
X8853283Y-22978790D01*
X8722052Y-22805012D01*
X8561129Y-22658313D01*
X8561126Y-22658311D01*
X8375991Y-22543680D01*
X8375986Y-22543677D01*
X8172932Y-22465013D01*
X8172926Y-22465011D01*
X8100000Y-22451379D01*
X8100000Y-23319670D01*
X8080255Y-23299925D01*
X7994745Y-23250556D01*
X7899370Y-23225000D01*
X7800630Y-23225000D01*
X7705255Y-23250556D01*
X7619745Y-23299925D01*
X7600000Y-23319670D01*
X7600000Y-22451379D01*
X7599999Y-22451379D01*
X7527073Y-22465011D01*
X7527067Y-22465013D01*
X7324013Y-22543677D01*
X7324008Y-22543680D01*
X7138873Y-22658311D01*
X7138870Y-22658313D01*
X6977944Y-22805015D01*
X6895383Y-22914343D01*
X6845227Y-22949386D01*
X6784052Y-22948255D01*
X6735225Y-22911382D01*
X6719283Y-22873999D01*
X6713867Y-22846769D01*
X6669552Y-22780448D01*
X6666321Y-22778289D01*
X6603233Y-22736134D01*
X6603231Y-22736133D01*
X6603228Y-22736132D01*
X6603227Y-22736132D01*
X6544758Y-22724501D01*
X6544748Y-22724500D01*
X5155252Y-22724500D01*
X5155251Y-22724500D01*
X5155241Y-22724501D01*
X5096772Y-22736132D01*
X5096766Y-22736134D01*
X5030451Y-22780445D01*
X5030445Y-22780451D01*
X4986134Y-22846766D01*
X4986132Y-22846772D01*
X4974501Y-22905241D01*
X4974500Y-22905253D01*
X4974500Y-24294746D01*
X4974501Y-24294758D01*
X4986132Y-24353227D01*
X4986134Y-24353233D01*
X4992249Y-24362384D01*
X5030448Y-24419552D01*
X5096769Y-24463867D01*
X5141231Y-24472711D01*
X5155241Y-24475498D01*
X5155246Y-24475498D01*
X5155252Y-24475500D01*
X5155253Y-24475500D01*
X6544747Y-24475500D01*
X6544748Y-24475500D01*
X6603231Y-24463867D01*
X6669552Y-24419552D01*
X6713867Y-24353231D01*
X6719283Y-24326001D01*
X6749178Y-24272619D01*
X6804743Y-24247003D01*
X6864753Y-24258940D01*
X6895384Y-24285656D01*
X6977947Y-24394987D01*
X7138870Y-24541686D01*
X7138873Y-24541688D01*
X7324008Y-24656319D01*
X7324013Y-24656322D01*
X7457886Y-24708185D01*
X7505317Y-24746837D01*
X7520971Y-24805986D01*
X7498868Y-24863040D01*
X7447451Y-24896205D01*
X7422123Y-24899500D01*
X2502985Y-24899500D01*
X2497008Y-24899319D01*
X2472210Y-24897819D01*
X2415267Y-24875433D01*
X2382357Y-24823852D01*
X2386051Y-24762778D01*
X2424938Y-24715540D01*
X2478187Y-24700000D01*
X2899998Y-24700000D01*
X2900000Y-24700000D01*
X3500000Y-24600000D01*
X4100000Y-24100000D01*
X4500000Y-23600000D01*
X4700000Y-22900000D01*
X4700000Y-21900000D01*
X4500000Y-21400000D01*
X4100000Y-20900000D01*
X3968723Y-20794978D01*
X3841068Y-20692854D01*
X3600000Y-20500000D01*
X3000000Y-20300000D01*
X2000000Y-20300000D01*
X1999997Y-20300000D01*
X1299998Y-20600000D01*
X799999Y-21000000D01*
X600005Y-21299990D01*
X599998Y-21300002D01*
X400001Y-21699996D01*
X300000Y-22000000D01*
X300000Y-22521813D01*
X281093Y-22580004D01*
X231593Y-22615968D01*
X170407Y-22615968D01*
X120907Y-22580004D01*
X102181Y-22527790D01*
X100681Y-22502992D01*
X100500Y-22497015D01*
X100500Y-19980008D01*
X85201Y-19943073D01*
X85200Y-19943072D01*
X85200Y-19943071D01*
X56929Y-19914800D01*
X56927Y-19914799D01*
X56926Y-19914798D01*
X19992Y-19899500D01*
X19991Y-19899500D01*
X-800500Y-19899500D01*
X-858691Y-19880593D01*
X-894655Y-19831093D01*
X-899500Y-19800500D01*
X-899500Y-18330253D01*
X6574500Y-18330253D01*
X6574500Y-19369746D01*
X6574501Y-19369758D01*
X6586132Y-19428227D01*
X6586134Y-19428233D01*
X6593415Y-19439129D01*
X6630448Y-19494552D01*
X6696769Y-19538867D01*
X6741231Y-19547711D01*
X6755241Y-19550498D01*
X6755246Y-19550498D01*
X6755252Y-19550500D01*
X6755253Y-19550500D01*
X9294747Y-19550500D01*
X9294748Y-19550500D01*
X9353231Y-19538867D01*
X9419552Y-19494552D01*
X9463867Y-19428231D01*
X9475500Y-19369748D01*
X9475500Y-18470150D01*
X9494407Y-18411959D01*
X9520977Y-18386866D01*
X9606126Y-18332144D01*
X9606125Y-18332144D01*
X9606128Y-18332143D01*
X9700377Y-18223373D01*
X9760165Y-18092457D01*
X9780647Y-17950000D01*
X9777558Y-17928517D01*
X9787990Y-17868228D01*
X9805543Y-17844426D01*
X11370475Y-16279496D01*
X11424992Y-16251719D01*
X11440479Y-16250500D01*
X15266638Y-16250500D01*
X15324829Y-16269407D01*
X15356691Y-16308373D01*
X15374622Y-16347635D01*
X15374623Y-16347637D01*
X15451850Y-16436762D01*
X15468873Y-16456408D01*
X15490762Y-16470475D01*
X15589947Y-16534217D01*
X15696403Y-16565475D01*
X15728035Y-16574763D01*
X15728036Y-16574763D01*
X15728039Y-16574764D01*
X15728041Y-16574764D01*
X15871959Y-16574764D01*
X15871961Y-16574764D01*
X16010053Y-16534217D01*
X16131128Y-16456407D01*
X16225377Y-16347637D01*
X16235376Y-16325740D01*
X16243309Y-16308373D01*
X16284682Y-16263296D01*
X16333362Y-16250500D01*
X18114563Y-16250500D01*
X18114563Y-16250499D01*
X18190989Y-16230021D01*
X18259511Y-16190460D01*
X18315460Y-16134511D01*
X18670475Y-15779496D01*
X18724992Y-15751719D01*
X18740479Y-15750500D01*
X43468835Y-15750500D01*
X43527026Y-15769407D01*
X43538839Y-15779496D01*
X43867349Y-16108006D01*
X43895126Y-16162523D01*
X43887399Y-16219135D01*
X43853069Y-16294308D01*
X43832588Y-16436762D01*
X43832588Y-16436767D01*
X43853069Y-16579221D01*
X43867354Y-16610500D01*
X43912858Y-16710138D01*
X44007107Y-16818908D01*
X44007108Y-16818909D01*
X44128177Y-16896715D01*
X44128182Y-16896718D01*
X44234638Y-16927976D01*
X44266270Y-16937264D01*
X44266271Y-16937264D01*
X44266274Y-16937265D01*
X44266276Y-16937265D01*
X44410194Y-16937265D01*
X44410196Y-16937265D01*
X44548288Y-16896718D01*
X44548293Y-16896715D01*
X44554733Y-16893775D01*
X44555476Y-16895403D01*
X44605944Y-16882131D01*
X44662963Y-16904322D01*
X44670309Y-16910966D01*
X46345504Y-18586161D01*
X46373281Y-18640678D01*
X46374500Y-18656165D01*
X46374500Y-19369746D01*
X46374501Y-19369758D01*
X46386132Y-19428227D01*
X46386134Y-19428233D01*
X46393415Y-19439129D01*
X46430448Y-19494552D01*
X46496769Y-19538867D01*
X46541231Y-19547711D01*
X46555241Y-19550498D01*
X46555246Y-19550498D01*
X46555252Y-19550500D01*
X46555253Y-19550500D01*
X48594747Y-19550500D01*
X48594748Y-19550500D01*
X48653231Y-19538867D01*
X48719552Y-19494552D01*
X48763867Y-19428231D01*
X48775500Y-19369748D01*
X48775500Y-18330252D01*
X48763867Y-18271769D01*
X48719552Y-18205448D01*
X48719548Y-18205445D01*
X48653233Y-18161134D01*
X48653231Y-18161133D01*
X48653228Y-18161132D01*
X48653227Y-18161132D01*
X48594758Y-18149501D01*
X48594748Y-18149500D01*
X48594747Y-18149500D01*
X46799793Y-18149500D01*
X46741602Y-18130593D01*
X46729789Y-18120504D01*
X44707273Y-16097988D01*
X44702458Y-16092815D01*
X44669364Y-16054623D01*
X44669360Y-16054619D01*
X44663047Y-16050562D01*
X44646568Y-16037283D01*
X44243069Y-15633784D01*
X43818825Y-15209540D01*
X43806711Y-15202546D01*
X43785738Y-15190437D01*
X43785737Y-15190437D01*
X43750302Y-15169978D01*
X43673878Y-15149500D01*
X43673876Y-15149500D01*
X18614562Y-15149500D01*
X18535438Y-15149500D01*
X18498248Y-15159465D01*
X18459007Y-15169979D01*
X18390493Y-15209536D01*
X18390488Y-15209540D01*
X17979524Y-15620504D01*
X17925008Y-15648281D01*
X17909521Y-15649500D01*
X16093877Y-15649500D01*
X16040353Y-15633784D01*
X16020666Y-15621132D01*
X16010053Y-15614311D01*
X16002673Y-15612144D01*
X15871964Y-15573764D01*
X15871961Y-15573764D01*
X15728039Y-15573764D01*
X15728035Y-15573764D01*
X15589949Y-15614310D01*
X15589946Y-15614311D01*
X15559647Y-15633784D01*
X15506123Y-15649500D01*
X11235435Y-15649500D01*
X11159011Y-15669978D01*
X11159007Y-15669980D01*
X11090491Y-15709538D01*
X9379524Y-17420504D01*
X9325007Y-17448281D01*
X9309520Y-17449500D01*
X9203035Y-17449500D01*
X9064949Y-17490046D01*
X9064942Y-17490049D01*
X8943873Y-17567855D01*
X8849622Y-17676628D01*
X8789834Y-17807543D01*
X8769353Y-17949996D01*
X8769353Y-17949998D01*
X8769353Y-17950000D01*
X8772442Y-17971483D01*
X8762007Y-18031772D01*
X8744454Y-18055573D01*
X8679527Y-18120502D01*
X8625011Y-18148281D01*
X8609522Y-18149500D01*
X6755252Y-18149500D01*
X6755251Y-18149500D01*
X6755241Y-18149501D01*
X6696772Y-18161132D01*
X6696766Y-18161134D01*
X6630451Y-18205445D01*
X6630445Y-18205451D01*
X6586134Y-18271766D01*
X6586132Y-18271772D01*
X6574501Y-18330241D01*
X6574500Y-18330253D01*
X-899500Y-18330253D01*
X-899500Y-15790253D01*
X6574500Y-15790253D01*
X6574500Y-16829746D01*
X6574501Y-16829758D01*
X6586132Y-16888227D01*
X6586133Y-16888231D01*
X6630448Y-16954552D01*
X6696769Y-16998867D01*
X6741231Y-17007711D01*
X6755241Y-17010498D01*
X6755246Y-17010498D01*
X6755252Y-17010500D01*
X6755253Y-17010500D01*
X9294747Y-17010500D01*
X9294748Y-17010500D01*
X9353231Y-16998867D01*
X9419552Y-16954552D01*
X9463867Y-16888231D01*
X9475500Y-16829748D01*
X9475500Y-16540478D01*
X9494407Y-16482287D01*
X9504496Y-16470475D01*
X9782973Y-16191997D01*
X9837490Y-16164219D01*
X9852977Y-16163000D01*
X9959459Y-16163000D01*
X9959461Y-16163000D01*
X10097553Y-16122453D01*
X10218628Y-16044643D01*
X10312877Y-15935873D01*
X10372665Y-15804957D01*
X10389200Y-15689953D01*
X10393147Y-15662502D01*
X10393147Y-15662500D01*
X10390058Y-15641018D01*
X10400490Y-15580728D01*
X10418047Y-15556923D01*
X10995476Y-14979496D01*
X11049992Y-14951719D01*
X11065479Y-14950500D01*
X16322016Y-14950500D01*
X16380207Y-14969407D01*
X16410582Y-15011214D01*
X16412629Y-15010280D01*
X16464758Y-15124424D01*
X16475359Y-15147637D01*
X16546728Y-15230002D01*
X16569609Y-15256408D01*
X16638271Y-15300534D01*
X16690683Y-15334217D01*
X16797139Y-15365475D01*
X16828771Y-15374763D01*
X16828772Y-15374763D01*
X16828775Y-15374764D01*
X16828777Y-15374764D01*
X16972695Y-15374764D01*
X16972697Y-15374764D01*
X17110789Y-15334217D01*
X17231864Y-15256407D01*
X17326113Y-15147637D01*
X17385901Y-15016721D01*
X17388843Y-15010280D01*
X17391410Y-15011452D01*
X17419004Y-14971100D01*
X17476632Y-14950540D01*
X17479456Y-14950500D01*
X44549521Y-14950500D01*
X44607712Y-14969407D01*
X44619525Y-14979496D01*
X44764453Y-15124424D01*
X44792230Y-15178941D01*
X44792441Y-15208514D01*
X44789354Y-15229998D01*
X44789353Y-15230002D01*
X44809834Y-15372456D01*
X44817448Y-15389127D01*
X44869623Y-15503373D01*
X44916024Y-15556923D01*
X44963873Y-15612144D01*
X45053868Y-15669980D01*
X45084947Y-15689953D01*
X45191403Y-15721211D01*
X45223035Y-15730499D01*
X45223036Y-15730499D01*
X45223039Y-15730500D01*
X45223041Y-15730500D01*
X45329521Y-15730500D01*
X45387712Y-15749407D01*
X45399525Y-15759496D01*
X46190489Y-16550460D01*
X46190491Y-16550461D01*
X46190492Y-16550462D01*
X46190493Y-16550463D01*
X46259008Y-16590020D01*
X46259009Y-16590021D01*
X46259011Y-16590021D01*
X46259012Y-16590022D01*
X46301123Y-16601305D01*
X46352436Y-16634627D01*
X46374364Y-16691748D01*
X46374500Y-16696931D01*
X46374500Y-16829746D01*
X46374501Y-16829758D01*
X46386132Y-16888227D01*
X46386133Y-16888231D01*
X46430448Y-16954552D01*
X46496769Y-16998867D01*
X46541231Y-17007711D01*
X46555241Y-17010498D01*
X46555246Y-17010498D01*
X46555252Y-17010500D01*
X46555253Y-17010500D01*
X48594747Y-17010500D01*
X48594748Y-17010500D01*
X48653231Y-16998867D01*
X48719552Y-16954552D01*
X48763867Y-16888231D01*
X48775500Y-16829748D01*
X48775500Y-15790252D01*
X48773360Y-15779496D01*
X48771354Y-15769407D01*
X48763867Y-15731769D01*
X48719552Y-15665448D01*
X48719548Y-15665445D01*
X48653233Y-15621134D01*
X48653231Y-15621133D01*
X48653228Y-15621132D01*
X48653227Y-15621132D01*
X48594758Y-15609501D01*
X48594748Y-15609500D01*
X46555252Y-15609500D01*
X46555251Y-15609500D01*
X46555241Y-15609501D01*
X46496772Y-15621132D01*
X46496766Y-15621134D01*
X46430451Y-15665445D01*
X46430444Y-15665452D01*
X46387304Y-15730014D01*
X46339254Y-15767893D01*
X46278115Y-15770294D01*
X46234986Y-15745015D01*
X45825546Y-15335575D01*
X45797769Y-15281058D01*
X45797558Y-15251482D01*
X45800647Y-15230000D01*
X45797705Y-15209540D01*
X45780165Y-15087543D01*
X45730821Y-14979496D01*
X45720377Y-14956627D01*
X45626128Y-14847857D01*
X45626127Y-14847856D01*
X45626126Y-14847855D01*
X45505057Y-14770049D01*
X45505054Y-14770047D01*
X45505053Y-14770047D01*
X45505050Y-14770046D01*
X45366964Y-14729500D01*
X45366961Y-14729500D01*
X45260479Y-14729500D01*
X45202288Y-14710593D01*
X45190476Y-14700504D01*
X44899510Y-14409539D01*
X44830992Y-14369980D01*
X44830988Y-14369978D01*
X44754564Y-14349500D01*
X44754562Y-14349500D01*
X16716034Y-14349500D01*
X16639562Y-14349500D01*
X10860438Y-14349500D01*
X10860435Y-14349500D01*
X10784011Y-14369978D01*
X10784007Y-14369980D01*
X10715489Y-14409539D01*
X9992023Y-15133004D01*
X9937507Y-15160781D01*
X9922020Y-15162000D01*
X9815535Y-15162000D01*
X9677449Y-15202546D01*
X9677442Y-15202549D01*
X9556373Y-15280355D01*
X9462122Y-15389128D01*
X9402333Y-15520044D01*
X9402333Y-15520046D01*
X9401622Y-15524991D01*
X9374622Y-15579897D01*
X9320506Y-15608446D01*
X9299612Y-15609212D01*
X9299612Y-15609500D01*
X9294748Y-15609500D01*
X6755252Y-15609500D01*
X6755251Y-15609500D01*
X6755241Y-15609501D01*
X6696772Y-15621132D01*
X6696766Y-15621134D01*
X6630451Y-15665445D01*
X6630445Y-15665451D01*
X6586134Y-15731766D01*
X6586132Y-15731772D01*
X6574501Y-15790241D01*
X6574500Y-15790253D01*
X-899500Y-15790253D01*
X-899500Y-13250253D01*
X6574500Y-13250253D01*
X6574500Y-14289746D01*
X6574501Y-14289758D01*
X6586132Y-14348227D01*
X6586134Y-14348233D01*
X6600665Y-14369980D01*
X6630448Y-14414552D01*
X6696769Y-14458867D01*
X6741231Y-14467711D01*
X6755241Y-14470498D01*
X6755246Y-14470498D01*
X6755252Y-14470500D01*
X6755253Y-14470500D01*
X9294747Y-14470500D01*
X9294748Y-14470500D01*
X9353231Y-14458867D01*
X9419552Y-14414552D01*
X9463867Y-14348231D01*
X9475500Y-14289748D01*
X9475500Y-14249500D01*
X9494407Y-14191309D01*
X9543907Y-14155345D01*
X9574500Y-14150500D01*
X32689563Y-14150500D01*
X32689563Y-14150499D01*
X32765989Y-14130021D01*
X32834511Y-14090460D01*
X32890460Y-14034511D01*
X33020473Y-13904496D01*
X33074990Y-13876719D01*
X33090477Y-13875500D01*
X33196959Y-13875500D01*
X33196961Y-13875500D01*
X33335053Y-13834953D01*
X33456128Y-13757143D01*
X33497264Y-13709668D01*
X33549660Y-13678073D01*
X33572083Y-13675500D01*
X44989521Y-13675500D01*
X45047712Y-13694407D01*
X45059525Y-13704496D01*
X45309540Y-13954511D01*
X45309539Y-13954511D01*
X45365489Y-14010460D01*
X45434007Y-14050019D01*
X45434011Y-14050021D01*
X45510435Y-14070499D01*
X45510437Y-14070500D01*
X45510438Y-14070500D01*
X45827917Y-14070500D01*
X45886108Y-14089407D01*
X45902733Y-14104667D01*
X45943872Y-14152143D01*
X46064947Y-14229953D01*
X46131519Y-14249500D01*
X46203035Y-14270499D01*
X46203036Y-14270499D01*
X46203039Y-14270500D01*
X46203041Y-14270500D01*
X46289425Y-14270500D01*
X46347616Y-14289407D01*
X46383580Y-14338907D01*
X46385807Y-14347442D01*
X46386134Y-14348233D01*
X46400665Y-14369980D01*
X46430448Y-14414552D01*
X46496769Y-14458867D01*
X46541231Y-14467711D01*
X46555241Y-14470498D01*
X46555246Y-14470498D01*
X46555252Y-14470500D01*
X46555253Y-14470500D01*
X48594747Y-14470500D01*
X48594748Y-14470500D01*
X48653231Y-14458867D01*
X48719552Y-14414552D01*
X48763867Y-14348231D01*
X48775500Y-14289748D01*
X48775500Y-13250252D01*
X48763867Y-13191769D01*
X48719552Y-13125448D01*
X48716447Y-13123373D01*
X48653233Y-13081134D01*
X48653231Y-13081133D01*
X48653228Y-13081132D01*
X48653227Y-13081132D01*
X48594758Y-13069501D01*
X48594748Y-13069500D01*
X46555252Y-13069500D01*
X46555251Y-13069500D01*
X46555241Y-13069501D01*
X46496772Y-13081132D01*
X46496766Y-13081134D01*
X46430451Y-13125445D01*
X46430445Y-13125451D01*
X46386134Y-13191766D01*
X46382403Y-13200776D01*
X46380763Y-13200096D01*
X46356629Y-13243195D01*
X46301065Y-13268813D01*
X46289425Y-13269500D01*
X46203035Y-13269500D01*
X46064949Y-13310046D01*
X46064942Y-13310049D01*
X45943876Y-13387854D01*
X45943871Y-13387858D01*
X45902736Y-13435331D01*
X45850340Y-13466927D01*
X45827917Y-13469500D01*
X45715479Y-13469500D01*
X45657288Y-13450593D01*
X45645476Y-13440504D01*
X45339510Y-13134539D01*
X45320169Y-13123372D01*
X45320169Y-13123373D01*
X45270989Y-13094979D01*
X45270988Y-13094978D01*
X45270987Y-13094978D01*
X45194564Y-13074500D01*
X45194562Y-13074500D01*
X33572083Y-13074500D01*
X33513892Y-13055593D01*
X33497264Y-13040331D01*
X33456128Y-12992857D01*
X33423182Y-12971684D01*
X33335057Y-12915049D01*
X33335054Y-12915047D01*
X33335053Y-12915047D01*
X33335050Y-12915046D01*
X33196964Y-12874500D01*
X33196961Y-12874500D01*
X33053039Y-12874500D01*
X33053035Y-12874500D01*
X32914949Y-12915046D01*
X32914942Y-12915049D01*
X32793873Y-12992855D01*
X32699622Y-13101628D01*
X32639834Y-13232543D01*
X32619353Y-13374996D01*
X32619353Y-13374998D01*
X32619353Y-13375000D01*
X32621201Y-13387854D01*
X32622442Y-13396483D01*
X32612007Y-13456772D01*
X32594454Y-13480573D01*
X32554527Y-13520502D01*
X32500011Y-13548281D01*
X32484522Y-13549500D01*
X9574500Y-13549500D01*
X9516309Y-13530593D01*
X9480345Y-13481093D01*
X9475500Y-13450500D01*
X9475500Y-13250253D01*
X9475498Y-13250241D01*
X9471898Y-13232143D01*
X9463867Y-13191769D01*
X9419552Y-13125448D01*
X9416447Y-13123373D01*
X9353233Y-13081134D01*
X9353231Y-13081133D01*
X9353228Y-13081132D01*
X9353227Y-13081132D01*
X9294758Y-13069501D01*
X9294748Y-13069500D01*
X9294747Y-13069500D01*
X8578893Y-13069500D01*
X8520702Y-13050593D01*
X8484738Y-13001093D01*
X8484738Y-12939907D01*
X8488840Y-12929373D01*
X8502199Y-12900119D01*
X8522959Y-12854663D01*
X8539919Y-12736704D01*
X8543441Y-12712208D01*
X8543441Y-12712203D01*
X8522959Y-12569749D01*
X8463171Y-12438834D01*
X8463171Y-12438833D01*
X8368922Y-12330063D01*
X8368921Y-12330062D01*
X8368920Y-12330061D01*
X8247851Y-12252255D01*
X8247848Y-12252253D01*
X8247847Y-12252253D01*
X8247844Y-12252252D01*
X8109758Y-12211706D01*
X8109755Y-12211706D01*
X7965833Y-12211706D01*
X7965829Y-12211706D01*
X7827743Y-12252252D01*
X7827736Y-12252255D01*
X7706667Y-12330061D01*
X7612416Y-12438834D01*
X7552628Y-12569749D01*
X7532147Y-12712203D01*
X7532147Y-12712208D01*
X7552628Y-12854662D01*
X7586748Y-12929373D01*
X7593723Y-12990160D01*
X7563637Y-13043437D01*
X7507981Y-13068855D01*
X7496695Y-13069500D01*
X6755252Y-13069500D01*
X6755251Y-13069500D01*
X6755241Y-13069501D01*
X6696772Y-13081132D01*
X6696766Y-13081134D01*
X6630451Y-13125445D01*
X6630445Y-13125451D01*
X6586134Y-13191766D01*
X6586132Y-13191772D01*
X6574501Y-13250241D01*
X6574500Y-13250253D01*
X-899500Y-13250253D01*
X-899500Y-10649997D01*
X3624353Y-10649997D01*
X3624353Y-10650002D01*
X3644834Y-10792456D01*
X3692092Y-10895934D01*
X3704623Y-10923373D01*
X3759095Y-10986237D01*
X3798873Y-11032144D01*
X3895052Y-11093954D01*
X3919947Y-11109953D01*
X4026403Y-11141211D01*
X4058035Y-11150499D01*
X4058036Y-11150499D01*
X4058039Y-11150500D01*
X4058041Y-11150500D01*
X4201959Y-11150500D01*
X4201961Y-11150500D01*
X4340053Y-11109953D01*
X4461128Y-11032143D01*
X4555377Y-10923373D01*
X4615165Y-10792457D01*
X4626984Y-10710253D01*
X6574500Y-10710253D01*
X6574500Y-11749746D01*
X6574501Y-11749758D01*
X6586132Y-11808227D01*
X6586133Y-11808231D01*
X6630448Y-11874552D01*
X6696769Y-11918867D01*
X6741231Y-11927711D01*
X6755241Y-11930498D01*
X6755246Y-11930498D01*
X6755252Y-11930500D01*
X6755253Y-11930500D01*
X9294747Y-11930500D01*
X9294748Y-11930500D01*
X9353231Y-11918867D01*
X9353232Y-11918865D01*
X9362794Y-11916964D01*
X9363255Y-11919283D01*
X9410625Y-11915546D01*
X9441050Y-11928529D01*
X9489947Y-11959953D01*
X9596403Y-11991211D01*
X9628035Y-12000499D01*
X9628036Y-12000499D01*
X9628039Y-12000500D01*
X9628041Y-12000500D01*
X9734521Y-12000500D01*
X9792712Y-12019407D01*
X9804525Y-12029496D01*
X11009540Y-13234511D01*
X11009539Y-13234511D01*
X11065489Y-13290460D01*
X11134007Y-13330019D01*
X11134011Y-13330021D01*
X11210435Y-13350499D01*
X11210437Y-13350500D01*
X11210438Y-13350500D01*
X29581032Y-13350500D01*
X29581034Y-13350500D01*
X29600446Y-13345298D01*
X29653963Y-13345935D01*
X29669505Y-13350499D01*
X29669510Y-13350499D01*
X29669511Y-13350500D01*
X29669512Y-13350500D01*
X29813431Y-13350500D01*
X29813433Y-13350500D01*
X29951525Y-13309953D01*
X30072600Y-13232143D01*
X30166849Y-13123373D01*
X30226637Y-12992457D01*
X30229356Y-12973539D01*
X30256351Y-12918632D01*
X30257269Y-12917700D01*
X30495475Y-12679496D01*
X30549991Y-12651719D01*
X30565478Y-12650500D01*
X46494563Y-12650500D01*
X46494563Y-12650499D01*
X46570989Y-12630021D01*
X46639511Y-12590460D01*
X46695460Y-12534511D01*
X47270475Y-11959496D01*
X47324992Y-11931719D01*
X47340479Y-11930500D01*
X48594747Y-11930500D01*
X48594748Y-11930500D01*
X48653231Y-11918867D01*
X48719552Y-11874552D01*
X48763867Y-11808231D01*
X48775500Y-11749748D01*
X48775500Y-10710252D01*
X48763867Y-10651769D01*
X48719552Y-10585448D01*
X48719548Y-10585445D01*
X48653233Y-10541134D01*
X48653231Y-10541133D01*
X48653228Y-10541132D01*
X48653227Y-10541132D01*
X48594758Y-10529501D01*
X48594748Y-10529500D01*
X46555252Y-10529500D01*
X46555251Y-10529500D01*
X46555241Y-10529501D01*
X46496772Y-10541132D01*
X46496766Y-10541134D01*
X46430451Y-10585445D01*
X46430445Y-10585451D01*
X46386134Y-10651766D01*
X46386132Y-10651772D01*
X46374501Y-10710241D01*
X46374500Y-10710253D01*
X46374500Y-11749746D01*
X46374501Y-11749758D01*
X46386132Y-11808227D01*
X46386134Y-11808233D01*
X46415361Y-11851973D01*
X46431970Y-11910861D01*
X46410793Y-11968265D01*
X46403050Y-11976978D01*
X46359526Y-12020503D01*
X46305010Y-12048281D01*
X46289522Y-12049500D01*
X44117949Y-12049500D01*
X44059758Y-12030593D01*
X44027896Y-11991628D01*
X43975377Y-11876627D01*
X43881128Y-11767857D01*
X43881127Y-11767856D01*
X43881126Y-11767855D01*
X43760057Y-11690049D01*
X43760054Y-11690047D01*
X43760053Y-11690047D01*
X43760050Y-11690046D01*
X43621964Y-11649500D01*
X43621961Y-11649500D01*
X43478039Y-11649500D01*
X43478035Y-11649500D01*
X43339949Y-11690046D01*
X43339942Y-11690049D01*
X43218873Y-11767855D01*
X43126424Y-11874548D01*
X43124623Y-11876627D01*
X43072103Y-11991627D01*
X43030732Y-12036704D01*
X42982051Y-12049500D01*
X30439562Y-12049500D01*
X30360438Y-12049500D01*
X30313661Y-12062033D01*
X30284007Y-12069979D01*
X30215493Y-12109536D01*
X30215488Y-12109540D01*
X29980270Y-12344757D01*
X29925754Y-12372534D01*
X29882376Y-12369743D01*
X29813436Y-12349500D01*
X29813433Y-12349500D01*
X29669511Y-12349500D01*
X29669507Y-12349500D01*
X29531421Y-12390046D01*
X29531414Y-12390049D01*
X29410345Y-12467855D01*
X29352588Y-12534511D01*
X29316095Y-12576627D01*
X29263575Y-12691627D01*
X29222204Y-12736704D01*
X29173523Y-12749500D01*
X11415479Y-12749500D01*
X11357288Y-12730593D01*
X11345475Y-12720504D01*
X10230546Y-11605575D01*
X10202769Y-11551058D01*
X10202558Y-11521482D01*
X10205647Y-11500000D01*
X10196503Y-11436404D01*
X10185165Y-11357543D01*
X10125377Y-11226627D01*
X10031128Y-11117857D01*
X10031127Y-11117856D01*
X10031126Y-11117855D01*
X9910057Y-11040049D01*
X9910054Y-11040047D01*
X9910053Y-11040047D01*
X9883138Y-11032144D01*
X9771964Y-10999500D01*
X9771961Y-10999500D01*
X9658289Y-10999500D01*
X9608791Y-10986237D01*
X9545989Y-10949979D01*
X9545986Y-10949977D01*
X9539994Y-10947496D01*
X9540813Y-10945518D01*
X9497557Y-10917422D01*
X9475635Y-10860298D01*
X9475500Y-10855126D01*
X9475500Y-10710253D01*
X9475498Y-10710241D01*
X9471471Y-10689996D01*
X9463867Y-10651769D01*
X9419552Y-10585448D01*
X9419548Y-10585445D01*
X9353233Y-10541134D01*
X9353231Y-10541133D01*
X9353228Y-10541132D01*
X9353227Y-10541132D01*
X9294758Y-10529501D01*
X9294748Y-10529500D01*
X6755252Y-10529500D01*
X6755251Y-10529500D01*
X6755241Y-10529501D01*
X6696772Y-10541132D01*
X6696766Y-10541134D01*
X6630451Y-10585445D01*
X6630445Y-10585451D01*
X6586134Y-10651766D01*
X6586132Y-10651772D01*
X6574501Y-10710241D01*
X6574500Y-10710253D01*
X4626984Y-10710253D01*
X4626986Y-10710241D01*
X4635647Y-10650002D01*
X4635647Y-10649997D01*
X4615165Y-10507543D01*
X4555377Y-10376628D01*
X4555377Y-10376627D01*
X4549800Y-10370191D01*
X4525981Y-10313834D01*
X4539838Y-10254238D01*
X4554610Y-10235359D01*
X5552146Y-9237824D01*
X6274999Y-9237824D01*
X6281401Y-9297370D01*
X6281403Y-9297381D01*
X6331646Y-9432088D01*
X6331647Y-9432090D01*
X6417807Y-9547184D01*
X6417815Y-9547192D01*
X6532909Y-9633352D01*
X6532911Y-9633353D01*
X6667618Y-9683596D01*
X6667629Y-9683598D01*
X6727176Y-9690000D01*
X7774999Y-9690000D01*
X7775000Y-9689999D01*
X7775000Y-8940001D01*
X8275000Y-8940001D01*
X8275000Y-9689999D01*
X8275001Y-9690000D01*
X9322824Y-9690000D01*
X9382370Y-9683598D01*
X9382381Y-9683596D01*
X9517088Y-9633353D01*
X9517090Y-9633352D01*
X9632184Y-9547192D01*
X9632192Y-9547184D01*
X9718352Y-9432090D01*
X9718353Y-9432088D01*
X9768596Y-9297381D01*
X9768598Y-9297370D01*
X9775000Y-9237824D01*
X9775000Y-8940001D01*
X9774999Y-8940000D01*
X8275001Y-8940000D01*
X8275000Y-8940001D01*
X7775000Y-8940001D01*
X7774999Y-8940000D01*
X6275001Y-8940000D01*
X6275000Y-8940001D01*
X6275000Y-9237824D01*
X6274999Y-9237824D01*
X5552146Y-9237824D01*
X5849970Y-8940000D01*
X6320975Y-8468996D01*
X6375492Y-8441219D01*
X6390979Y-8440000D01*
X7774999Y-8440000D01*
X7775000Y-8439999D01*
X7775000Y-7690001D01*
X8275000Y-7690001D01*
X8275000Y-8439999D01*
X8275001Y-8440000D01*
X9774999Y-8440000D01*
X9775000Y-8439999D01*
X9775000Y-8142175D01*
X9768598Y-8082629D01*
X9768596Y-8082618D01*
X9718353Y-7947911D01*
X9718352Y-7947909D01*
X9632192Y-7832815D01*
X9632184Y-7832807D01*
X9517090Y-7746647D01*
X9517088Y-7746646D01*
X9382381Y-7696403D01*
X9382370Y-7696401D01*
X9322824Y-7690000D01*
X8275001Y-7690000D01*
X8275000Y-7690001D01*
X7775000Y-7690001D01*
X7774999Y-7690000D01*
X7338979Y-7690000D01*
X7280788Y-7671093D01*
X7244824Y-7621593D01*
X7244824Y-7560407D01*
X7268975Y-7520996D01*
X7460475Y-7329496D01*
X7514992Y-7301719D01*
X7530479Y-7300500D01*
X10714563Y-7300500D01*
X10714563Y-7300499D01*
X10790989Y-7280021D01*
X10859511Y-7240460D01*
X10915460Y-7184511D01*
X11120475Y-6979496D01*
X11174992Y-6951719D01*
X11190479Y-6950500D01*
X12551305Y-6950500D01*
X12609496Y-6969407D01*
X12645460Y-7018907D01*
X12645460Y-7080093D01*
X12621309Y-7119504D01*
X12461886Y-7278926D01*
X12326398Y-7472424D01*
X12326394Y-7472432D01*
X12226570Y-7686505D01*
X12169364Y-7900000D01*
X13066988Y-7900000D01*
X13034075Y-7957007D01*
X13000000Y-8084174D01*
X13000000Y-8215826D01*
X13034075Y-8342993D01*
X13066988Y-8400000D01*
X12169364Y-8400000D01*
X12226569Y-8613489D01*
X12326399Y-8827577D01*
X12461886Y-9021073D01*
X12628926Y-9188113D01*
X12822422Y-9323600D01*
X13036510Y-9423430D01*
X13116533Y-9444873D01*
X13167847Y-9478197D01*
X13189774Y-9535319D01*
X13173938Y-9594419D01*
X13126388Y-9632924D01*
X13090910Y-9639500D01*
X12630252Y-9639500D01*
X12630251Y-9639500D01*
X12630241Y-9639501D01*
X12571772Y-9651132D01*
X12571766Y-9651134D01*
X12505451Y-9695445D01*
X12505445Y-9695451D01*
X12461134Y-9761766D01*
X12461132Y-9761772D01*
X12449501Y-9820241D01*
X12449500Y-9820253D01*
X12449500Y-11559746D01*
X12449501Y-11559758D01*
X12461132Y-11618227D01*
X12461134Y-11618233D01*
X12505445Y-11684548D01*
X12505448Y-11684552D01*
X12571769Y-11728867D01*
X12616231Y-11737711D01*
X12630241Y-11740498D01*
X12630246Y-11740498D01*
X12630252Y-11740500D01*
X12630253Y-11740500D01*
X14369747Y-11740500D01*
X14369748Y-11740500D01*
X14428231Y-11728867D01*
X14494552Y-11684552D01*
X14538867Y-11618231D01*
X14550500Y-11559748D01*
X14550500Y-9820252D01*
X14548921Y-9812316D01*
X14547711Y-9806231D01*
X14538867Y-9761769D01*
X14494552Y-9695448D01*
X14486399Y-9690000D01*
X14428233Y-9651134D01*
X14428231Y-9651133D01*
X14428228Y-9651132D01*
X14428227Y-9651132D01*
X14369758Y-9639501D01*
X14369748Y-9639500D01*
X13909090Y-9639500D01*
X13850899Y-9620593D01*
X13814935Y-9571093D01*
X13814935Y-9509907D01*
X13850899Y-9460407D01*
X13883467Y-9444873D01*
X13963489Y-9423430D01*
X14177577Y-9323600D01*
X14371073Y-9188113D01*
X14538113Y-9021073D01*
X14673601Y-8827576D01*
X14673602Y-8827574D01*
X14680275Y-8813265D01*
X14722003Y-8768516D01*
X14782064Y-8756841D01*
X14837517Y-8782698D01*
X14859725Y-8813265D01*
X14866397Y-8827574D01*
X14866398Y-8827576D01*
X15001886Y-9021073D01*
X15168926Y-9188113D01*
X15362422Y-9323600D01*
X15576509Y-9423430D01*
X15783213Y-9478816D01*
X15834527Y-9512140D01*
X15856454Y-9569261D01*
X15840619Y-9628362D01*
X15793069Y-9666867D01*
X15786329Y-9669180D01*
X15699746Y-9695445D01*
X15636046Y-9714768D01*
X15636044Y-9714768D01*
X15636044Y-9714769D01*
X15453547Y-9812316D01*
X15293595Y-9943585D01*
X15293585Y-9943595D01*
X15162316Y-10103547D01*
X15064768Y-10286045D01*
X15004699Y-10484065D01*
X15004698Y-10484070D01*
X14984417Y-10689996D01*
X14984417Y-10690003D01*
X15004698Y-10895929D01*
X15004699Y-10895934D01*
X15064768Y-11093954D01*
X15162316Y-11276452D01*
X15228866Y-11357543D01*
X15293590Y-11436410D01*
X15293595Y-11436414D01*
X15453547Y-11567683D01*
X15453548Y-11567683D01*
X15453550Y-11567685D01*
X15636046Y-11665232D01*
X15773997Y-11707078D01*
X15834065Y-11725300D01*
X15834070Y-11725301D01*
X16039997Y-11745583D01*
X16040000Y-11745583D01*
X16040003Y-11745583D01*
X16245929Y-11725301D01*
X16245934Y-11725300D01*
X16443954Y-11665232D01*
X16626450Y-11567685D01*
X16786410Y-11436410D01*
X16917685Y-11276450D01*
X17015232Y-11093954D01*
X17075300Y-10895934D01*
X17075301Y-10895929D01*
X17095583Y-10690003D01*
X17095583Y-10689996D01*
X17075301Y-10484070D01*
X17075300Y-10484065D01*
X17023661Y-10313834D01*
X17015232Y-10286046D01*
X16917685Y-10103550D01*
X16786410Y-9943590D01*
X16636123Y-9820253D01*
X16626452Y-9812316D01*
X16443954Y-9714768D01*
X16293671Y-9669180D01*
X16243474Y-9634195D01*
X16223428Y-9576387D01*
X16241189Y-9517836D01*
X16289974Y-9480907D01*
X16296786Y-9478816D01*
X16503490Y-9423430D01*
X16717577Y-9323600D01*
X16911073Y-9188113D01*
X17078113Y-9021073D01*
X17213601Y-8827576D01*
X17213602Y-8827574D01*
X17220275Y-8813265D01*
X17262003Y-8768516D01*
X17322064Y-8756841D01*
X17377517Y-8782698D01*
X17399725Y-8813265D01*
X17406397Y-8827574D01*
X17406398Y-8827576D01*
X17541886Y-9021073D01*
X17708926Y-9188113D01*
X17902422Y-9323600D01*
X18116509Y-9423430D01*
X18323213Y-9478816D01*
X18374527Y-9512140D01*
X18396454Y-9569261D01*
X18380619Y-9628362D01*
X18333069Y-9666867D01*
X18326329Y-9669180D01*
X18239746Y-9695445D01*
X18176046Y-9714768D01*
X18176044Y-9714768D01*
X18176044Y-9714769D01*
X17993547Y-9812316D01*
X17833595Y-9943585D01*
X17833585Y-9943595D01*
X17702316Y-10103547D01*
X17604768Y-10286045D01*
X17544699Y-10484065D01*
X17544698Y-10484070D01*
X17524417Y-10689996D01*
X17524417Y-10690003D01*
X17544698Y-10895929D01*
X17544699Y-10895934D01*
X17604768Y-11093954D01*
X17702316Y-11276452D01*
X17768866Y-11357543D01*
X17833590Y-11436410D01*
X17833595Y-11436414D01*
X17993547Y-11567683D01*
X17993548Y-11567683D01*
X17993550Y-11567685D01*
X18176046Y-11665232D01*
X18313997Y-11707078D01*
X18374065Y-11725300D01*
X18374070Y-11725301D01*
X18579997Y-11745583D01*
X18580000Y-11745583D01*
X18580003Y-11745583D01*
X18785929Y-11725301D01*
X18785934Y-11725300D01*
X18983954Y-11665232D01*
X19166450Y-11567685D01*
X19326410Y-11436410D01*
X19457685Y-11276450D01*
X19555232Y-11093954D01*
X19615300Y-10895934D01*
X19615301Y-10895929D01*
X19635583Y-10690003D01*
X19635583Y-10689996D01*
X19615301Y-10484070D01*
X19615300Y-10484065D01*
X19563661Y-10313834D01*
X19555232Y-10286046D01*
X19457685Y-10103550D01*
X19326410Y-9943590D01*
X19176123Y-9820253D01*
X19166452Y-9812316D01*
X18983954Y-9714768D01*
X18833671Y-9669180D01*
X18783474Y-9634195D01*
X18763428Y-9576387D01*
X18781189Y-9517836D01*
X18829974Y-9480907D01*
X18836786Y-9478816D01*
X19043490Y-9423430D01*
X19257577Y-9323600D01*
X19451073Y-9188113D01*
X19618113Y-9021073D01*
X19753601Y-8827576D01*
X19753602Y-8827574D01*
X19760275Y-8813265D01*
X19802003Y-8768516D01*
X19862064Y-8756841D01*
X19917517Y-8782698D01*
X19939725Y-8813265D01*
X19946397Y-8827574D01*
X19946398Y-8827576D01*
X20081886Y-9021073D01*
X20248926Y-9188113D01*
X20442422Y-9323600D01*
X20656509Y-9423430D01*
X20863213Y-9478816D01*
X20914527Y-9512140D01*
X20936454Y-9569261D01*
X20920619Y-9628362D01*
X20873069Y-9666867D01*
X20866329Y-9669180D01*
X20779746Y-9695445D01*
X20716046Y-9714768D01*
X20716044Y-9714768D01*
X20716044Y-9714769D01*
X20533547Y-9812316D01*
X20373595Y-9943585D01*
X20373585Y-9943595D01*
X20242316Y-10103547D01*
X20144768Y-10286045D01*
X20084699Y-10484065D01*
X20084698Y-10484070D01*
X20064417Y-10689996D01*
X20064417Y-10690003D01*
X20084698Y-10895929D01*
X20084699Y-10895934D01*
X20144768Y-11093954D01*
X20242316Y-11276452D01*
X20308866Y-11357543D01*
X20373590Y-11436410D01*
X20373595Y-11436414D01*
X20533547Y-11567683D01*
X20533548Y-11567683D01*
X20533550Y-11567685D01*
X20716046Y-11665232D01*
X20853997Y-11707078D01*
X20914065Y-11725300D01*
X20914070Y-11725301D01*
X21119997Y-11745583D01*
X21120000Y-11745583D01*
X21120003Y-11745583D01*
X21325929Y-11725301D01*
X21325934Y-11725300D01*
X21523954Y-11665232D01*
X21706450Y-11567685D01*
X21866410Y-11436410D01*
X21997685Y-11276450D01*
X22095232Y-11093954D01*
X22155300Y-10895934D01*
X22155301Y-10895929D01*
X22175583Y-10690003D01*
X22175583Y-10689996D01*
X22155301Y-10484070D01*
X22155300Y-10484065D01*
X22103661Y-10313834D01*
X22095232Y-10286046D01*
X21997685Y-10103550D01*
X21866410Y-9943590D01*
X21716123Y-9820253D01*
X21706452Y-9812316D01*
X21523954Y-9714768D01*
X21373671Y-9669180D01*
X21323474Y-9634195D01*
X21303428Y-9576387D01*
X21321189Y-9517836D01*
X21369974Y-9480907D01*
X21376786Y-9478816D01*
X21583490Y-9423430D01*
X21797577Y-9323600D01*
X21991073Y-9188113D01*
X22158113Y-9021073D01*
X22293601Y-8827576D01*
X22293602Y-8827574D01*
X22300275Y-8813265D01*
X22342003Y-8768516D01*
X22402064Y-8756841D01*
X22457517Y-8782698D01*
X22479725Y-8813265D01*
X22486397Y-8827574D01*
X22486398Y-8827576D01*
X22621886Y-9021073D01*
X22788926Y-9188113D01*
X22982422Y-9323600D01*
X23196509Y-9423430D01*
X23403213Y-9478816D01*
X23454527Y-9512140D01*
X23476454Y-9569261D01*
X23460619Y-9628362D01*
X23413069Y-9666867D01*
X23406329Y-9669180D01*
X23319746Y-9695445D01*
X23256046Y-9714768D01*
X23256044Y-9714768D01*
X23256044Y-9714769D01*
X23073547Y-9812316D01*
X22913595Y-9943585D01*
X22913585Y-9943595D01*
X22782316Y-10103547D01*
X22684768Y-10286045D01*
X22624699Y-10484065D01*
X22624698Y-10484070D01*
X22604417Y-10689996D01*
X22604417Y-10690003D01*
X22624698Y-10895929D01*
X22624699Y-10895934D01*
X22684768Y-11093954D01*
X22782316Y-11276452D01*
X22848866Y-11357543D01*
X22913590Y-11436410D01*
X22913595Y-11436414D01*
X23073547Y-11567683D01*
X23073548Y-11567683D01*
X23073550Y-11567685D01*
X23256046Y-11665232D01*
X23393997Y-11707078D01*
X23454065Y-11725300D01*
X23454070Y-11725301D01*
X23659997Y-11745583D01*
X23660000Y-11745583D01*
X23660003Y-11745583D01*
X23865929Y-11725301D01*
X23865934Y-11725300D01*
X24063954Y-11665232D01*
X24246450Y-11567685D01*
X24406410Y-11436410D01*
X24537685Y-11276450D01*
X24635232Y-11093954D01*
X24695300Y-10895934D01*
X24695301Y-10895929D01*
X24715583Y-10690003D01*
X24715583Y-10689996D01*
X24695301Y-10484070D01*
X24695300Y-10484065D01*
X24643661Y-10313834D01*
X24635232Y-10286046D01*
X24537685Y-10103550D01*
X24406410Y-9943590D01*
X24256123Y-9820253D01*
X24246452Y-9812316D01*
X24063954Y-9714768D01*
X23913671Y-9669180D01*
X23863474Y-9634195D01*
X23843428Y-9576387D01*
X23861189Y-9517836D01*
X23909974Y-9480907D01*
X23916786Y-9478816D01*
X24123490Y-9423430D01*
X24337577Y-9323600D01*
X24531073Y-9188113D01*
X24698113Y-9021073D01*
X24833601Y-8827576D01*
X24833602Y-8827574D01*
X24840275Y-8813265D01*
X24882003Y-8768516D01*
X24942064Y-8756841D01*
X24997517Y-8782698D01*
X25019725Y-8813265D01*
X25026397Y-8827574D01*
X25026398Y-8827576D01*
X25161886Y-9021073D01*
X25328926Y-9188113D01*
X25522422Y-9323600D01*
X25736509Y-9423430D01*
X25943213Y-9478816D01*
X25994527Y-9512140D01*
X26016454Y-9569261D01*
X26000619Y-9628362D01*
X25953069Y-9666867D01*
X25946329Y-9669180D01*
X25859746Y-9695445D01*
X25796046Y-9714768D01*
X25796044Y-9714768D01*
X25796044Y-9714769D01*
X25613547Y-9812316D01*
X25453595Y-9943585D01*
X25453585Y-9943595D01*
X25322316Y-10103547D01*
X25224768Y-10286045D01*
X25164699Y-10484065D01*
X25164698Y-10484070D01*
X25144417Y-10689996D01*
X25144417Y-10690003D01*
X25164698Y-10895929D01*
X25164699Y-10895934D01*
X25224768Y-11093954D01*
X25322316Y-11276452D01*
X25388866Y-11357543D01*
X25453590Y-11436410D01*
X25453595Y-11436414D01*
X25613547Y-11567683D01*
X25613548Y-11567683D01*
X25613550Y-11567685D01*
X25796046Y-11665232D01*
X25933997Y-11707078D01*
X25994065Y-11725300D01*
X25994070Y-11725301D01*
X26199997Y-11745583D01*
X26200000Y-11745583D01*
X26200003Y-11745583D01*
X26405929Y-11725301D01*
X26405934Y-11725300D01*
X26603954Y-11665232D01*
X26786450Y-11567685D01*
X26946410Y-11436410D01*
X27077685Y-11276450D01*
X27175232Y-11093954D01*
X27235300Y-10895934D01*
X27235301Y-10895929D01*
X27255583Y-10690003D01*
X27255583Y-10689996D01*
X27235301Y-10484070D01*
X27235300Y-10484065D01*
X27183661Y-10313834D01*
X27175232Y-10286046D01*
X27077685Y-10103550D01*
X26946410Y-9943590D01*
X26796123Y-9820253D01*
X26786452Y-9812316D01*
X26603954Y-9714768D01*
X26453671Y-9669180D01*
X26403474Y-9634195D01*
X26383428Y-9576387D01*
X26401189Y-9517836D01*
X26449974Y-9480907D01*
X26456786Y-9478816D01*
X26663490Y-9423430D01*
X26877577Y-9323600D01*
X27071073Y-9188113D01*
X27238113Y-9021073D01*
X27373601Y-8827576D01*
X27373602Y-8827574D01*
X27380275Y-8813265D01*
X27422003Y-8768516D01*
X27482064Y-8756841D01*
X27537517Y-8782698D01*
X27559725Y-8813265D01*
X27566397Y-8827574D01*
X27566398Y-8827576D01*
X27701886Y-9021073D01*
X27868926Y-9188113D01*
X28062422Y-9323600D01*
X28276509Y-9423430D01*
X28483213Y-9478816D01*
X28534527Y-9512140D01*
X28556454Y-9569261D01*
X28540619Y-9628362D01*
X28493069Y-9666867D01*
X28486329Y-9669180D01*
X28399746Y-9695445D01*
X28336046Y-9714768D01*
X28336044Y-9714768D01*
X28336044Y-9714769D01*
X28153547Y-9812316D01*
X27993595Y-9943585D01*
X27993585Y-9943595D01*
X27862316Y-10103547D01*
X27764768Y-10286045D01*
X27704699Y-10484065D01*
X27704698Y-10484070D01*
X27684417Y-10689996D01*
X27684417Y-10690003D01*
X27704698Y-10895929D01*
X27704699Y-10895934D01*
X27764768Y-11093954D01*
X27862316Y-11276452D01*
X27928866Y-11357543D01*
X27993590Y-11436410D01*
X27993595Y-11436414D01*
X28153547Y-11567683D01*
X28153548Y-11567683D01*
X28153550Y-11567685D01*
X28336046Y-11665232D01*
X28473997Y-11707078D01*
X28534065Y-11725300D01*
X28534070Y-11725301D01*
X28739997Y-11745583D01*
X28740000Y-11745583D01*
X28740003Y-11745583D01*
X28945929Y-11725301D01*
X28945934Y-11725300D01*
X29143954Y-11665232D01*
X29326450Y-11567685D01*
X29486410Y-11436410D01*
X29617685Y-11276450D01*
X29715232Y-11093954D01*
X29775300Y-10895934D01*
X29775301Y-10895929D01*
X29795583Y-10690003D01*
X29795583Y-10689996D01*
X29775301Y-10484070D01*
X29775300Y-10484065D01*
X29723661Y-10313834D01*
X29715232Y-10286046D01*
X29617685Y-10103550D01*
X29486410Y-9943590D01*
X29336123Y-9820253D01*
X29326452Y-9812316D01*
X29143954Y-9714768D01*
X28993671Y-9669180D01*
X28943474Y-9634195D01*
X28923428Y-9576387D01*
X28941189Y-9517836D01*
X28989974Y-9480907D01*
X28996786Y-9478816D01*
X29203490Y-9423430D01*
X29417577Y-9323600D01*
X29611073Y-9188113D01*
X29778113Y-9021073D01*
X29913601Y-8827576D01*
X29913602Y-8827574D01*
X29920275Y-8813265D01*
X29962003Y-8768516D01*
X30022064Y-8756841D01*
X30077517Y-8782698D01*
X30099725Y-8813265D01*
X30106397Y-8827574D01*
X30106398Y-8827576D01*
X30241886Y-9021073D01*
X30408926Y-9188113D01*
X30602422Y-9323600D01*
X30816509Y-9423430D01*
X31023213Y-9478816D01*
X31074527Y-9512140D01*
X31096454Y-9569261D01*
X31080619Y-9628362D01*
X31033069Y-9666867D01*
X31026329Y-9669180D01*
X30939746Y-9695445D01*
X30876046Y-9714768D01*
X30876044Y-9714768D01*
X30876044Y-9714769D01*
X30693547Y-9812316D01*
X30533595Y-9943585D01*
X30533585Y-9943595D01*
X30402316Y-10103547D01*
X30304768Y-10286045D01*
X30244699Y-10484065D01*
X30244698Y-10484070D01*
X30224417Y-10689996D01*
X30224417Y-10690003D01*
X30244698Y-10895929D01*
X30244699Y-10895934D01*
X30304768Y-11093954D01*
X30402316Y-11276452D01*
X30468866Y-11357543D01*
X30533590Y-11436410D01*
X30533595Y-11436414D01*
X30693547Y-11567683D01*
X30693548Y-11567683D01*
X30693550Y-11567685D01*
X30876046Y-11665232D01*
X31013997Y-11707078D01*
X31074065Y-11725300D01*
X31074070Y-11725301D01*
X31279997Y-11745583D01*
X31280000Y-11745583D01*
X31280003Y-11745583D01*
X31485929Y-11725301D01*
X31485934Y-11725300D01*
X31683954Y-11665232D01*
X31866450Y-11567685D01*
X32026410Y-11436410D01*
X32157685Y-11276450D01*
X32255232Y-11093954D01*
X32315300Y-10895934D01*
X32315301Y-10895929D01*
X32335583Y-10690003D01*
X32335583Y-10689996D01*
X32315301Y-10484070D01*
X32315300Y-10484065D01*
X32263661Y-10313834D01*
X32255232Y-10286046D01*
X32157685Y-10103550D01*
X32026410Y-9943590D01*
X31876123Y-9820253D01*
X31866452Y-9812316D01*
X31683954Y-9714768D01*
X31533671Y-9669180D01*
X31483474Y-9634195D01*
X31463428Y-9576387D01*
X31481189Y-9517836D01*
X31529974Y-9480907D01*
X31536786Y-9478816D01*
X31743490Y-9423430D01*
X31957577Y-9323600D01*
X32151073Y-9188113D01*
X32318113Y-9021073D01*
X32453601Y-8827576D01*
X32453602Y-8827574D01*
X32460275Y-8813265D01*
X32502003Y-8768516D01*
X32562064Y-8756841D01*
X32617517Y-8782698D01*
X32639725Y-8813265D01*
X32646397Y-8827574D01*
X32646398Y-8827576D01*
X32781886Y-9021073D01*
X32948926Y-9188113D01*
X33142422Y-9323600D01*
X33356509Y-9423430D01*
X33563213Y-9478816D01*
X33614527Y-9512140D01*
X33636454Y-9569261D01*
X33620619Y-9628362D01*
X33573069Y-9666867D01*
X33566329Y-9669180D01*
X33479746Y-9695445D01*
X33416046Y-9714768D01*
X33416044Y-9714768D01*
X33416044Y-9714769D01*
X33233547Y-9812316D01*
X33073595Y-9943585D01*
X33073585Y-9943595D01*
X32942316Y-10103547D01*
X32844768Y-10286045D01*
X32784699Y-10484065D01*
X32784698Y-10484070D01*
X32764417Y-10689996D01*
X32764417Y-10690003D01*
X32784698Y-10895929D01*
X32784699Y-10895934D01*
X32844768Y-11093954D01*
X32942316Y-11276452D01*
X33008866Y-11357543D01*
X33073590Y-11436410D01*
X33073595Y-11436414D01*
X33233547Y-11567683D01*
X33233548Y-11567683D01*
X33233550Y-11567685D01*
X33416046Y-11665232D01*
X33553997Y-11707078D01*
X33614065Y-11725300D01*
X33614070Y-11725301D01*
X33819997Y-11745583D01*
X33820000Y-11745583D01*
X33820003Y-11745583D01*
X34025929Y-11725301D01*
X34025934Y-11725300D01*
X34223954Y-11665232D01*
X34406450Y-11567685D01*
X34566410Y-11436410D01*
X34697685Y-11276450D01*
X34795232Y-11093954D01*
X34855300Y-10895934D01*
X34855301Y-10895929D01*
X34875583Y-10690003D01*
X34875583Y-10689996D01*
X34855301Y-10484070D01*
X34855300Y-10484065D01*
X34803661Y-10313834D01*
X34795232Y-10286046D01*
X34697685Y-10103550D01*
X34566410Y-9943590D01*
X34416123Y-9820253D01*
X34406452Y-9812316D01*
X34223954Y-9714768D01*
X34073671Y-9669180D01*
X34023474Y-9634195D01*
X34003428Y-9576387D01*
X34021189Y-9517836D01*
X34069974Y-9480907D01*
X34076786Y-9478816D01*
X34283490Y-9423430D01*
X34497577Y-9323600D01*
X34691073Y-9188113D01*
X34858113Y-9021073D01*
X34993601Y-8827576D01*
X34993602Y-8827574D01*
X35000275Y-8813265D01*
X35042003Y-8768516D01*
X35102064Y-8756841D01*
X35157517Y-8782698D01*
X35179725Y-8813265D01*
X35186397Y-8827574D01*
X35186398Y-8827576D01*
X35321886Y-9021073D01*
X35488926Y-9188113D01*
X35682422Y-9323600D01*
X35896509Y-9423430D01*
X36103213Y-9478816D01*
X36154527Y-9512140D01*
X36176454Y-9569261D01*
X36160619Y-9628362D01*
X36113069Y-9666867D01*
X36106329Y-9669180D01*
X36019746Y-9695445D01*
X35956046Y-9714768D01*
X35956044Y-9714768D01*
X35956044Y-9714769D01*
X35773547Y-9812316D01*
X35613595Y-9943585D01*
X35613585Y-9943595D01*
X35482316Y-10103547D01*
X35384768Y-10286045D01*
X35324699Y-10484065D01*
X35324698Y-10484070D01*
X35304417Y-10689996D01*
X35304417Y-10690003D01*
X35324698Y-10895929D01*
X35324699Y-10895934D01*
X35384768Y-11093954D01*
X35482316Y-11276452D01*
X35548866Y-11357543D01*
X35613590Y-11436410D01*
X35613595Y-11436414D01*
X35773547Y-11567683D01*
X35773548Y-11567683D01*
X35773550Y-11567685D01*
X35956046Y-11665232D01*
X36093997Y-11707078D01*
X36154065Y-11725300D01*
X36154070Y-11725301D01*
X36359997Y-11745583D01*
X36360000Y-11745583D01*
X36360003Y-11745583D01*
X36565929Y-11725301D01*
X36565934Y-11725300D01*
X36763954Y-11665232D01*
X36946450Y-11567685D01*
X37106410Y-11436410D01*
X37237685Y-11276450D01*
X37335232Y-11093954D01*
X37395300Y-10895934D01*
X37395301Y-10895929D01*
X37415583Y-10690003D01*
X37415583Y-10689996D01*
X37395301Y-10484070D01*
X37395300Y-10484065D01*
X37343661Y-10313834D01*
X37335232Y-10286046D01*
X37237685Y-10103550D01*
X37106410Y-9943590D01*
X36956123Y-9820253D01*
X36946452Y-9812316D01*
X36763954Y-9714768D01*
X36613671Y-9669180D01*
X36563474Y-9634195D01*
X36543428Y-9576387D01*
X36561189Y-9517836D01*
X36609974Y-9480907D01*
X36616786Y-9478816D01*
X36823490Y-9423430D01*
X37037577Y-9323600D01*
X37231073Y-9188113D01*
X37398113Y-9021073D01*
X37533601Y-8827576D01*
X37533602Y-8827574D01*
X37540275Y-8813265D01*
X37582003Y-8768516D01*
X37642064Y-8756841D01*
X37697517Y-8782698D01*
X37719725Y-8813265D01*
X37726397Y-8827574D01*
X37726398Y-8827576D01*
X37861886Y-9021073D01*
X38028926Y-9188113D01*
X38222422Y-9323600D01*
X38436509Y-9423430D01*
X38643213Y-9478816D01*
X38694527Y-9512140D01*
X38716454Y-9569261D01*
X38700619Y-9628362D01*
X38653069Y-9666867D01*
X38646329Y-9669180D01*
X38559746Y-9695445D01*
X38496046Y-9714768D01*
X38496044Y-9714768D01*
X38496044Y-9714769D01*
X38313547Y-9812316D01*
X38153595Y-9943585D01*
X38153585Y-9943595D01*
X38022316Y-10103547D01*
X37924768Y-10286045D01*
X37864699Y-10484065D01*
X37864698Y-10484070D01*
X37844417Y-10689996D01*
X37844417Y-10690003D01*
X37864698Y-10895929D01*
X37864699Y-10895934D01*
X37924768Y-11093954D01*
X38022316Y-11276452D01*
X38088866Y-11357543D01*
X38153590Y-11436410D01*
X38153595Y-11436414D01*
X38313547Y-11567683D01*
X38313548Y-11567683D01*
X38313550Y-11567685D01*
X38496046Y-11665232D01*
X38633997Y-11707078D01*
X38694065Y-11725300D01*
X38694070Y-11725301D01*
X38899997Y-11745583D01*
X38900000Y-11745583D01*
X38900003Y-11745583D01*
X39105929Y-11725301D01*
X39105934Y-11725300D01*
X39303954Y-11665232D01*
X39486450Y-11567685D01*
X39646410Y-11436410D01*
X39777685Y-11276450D01*
X39875232Y-11093954D01*
X39935300Y-10895934D01*
X39935301Y-10895929D01*
X39955583Y-10690003D01*
X39955583Y-10689996D01*
X39935301Y-10484070D01*
X39935300Y-10484065D01*
X39883661Y-10313834D01*
X39875232Y-10286046D01*
X39777685Y-10103550D01*
X39646410Y-9943590D01*
X39496123Y-9820253D01*
X39486452Y-9812316D01*
X39303954Y-9714768D01*
X39153671Y-9669180D01*
X39103474Y-9634195D01*
X39083428Y-9576387D01*
X39101189Y-9517836D01*
X39149974Y-9480907D01*
X39156786Y-9478816D01*
X39363490Y-9423430D01*
X39577577Y-9323600D01*
X39700078Y-9237824D01*
X46074999Y-9237824D01*
X46081401Y-9297370D01*
X46081403Y-9297381D01*
X46131646Y-9432088D01*
X46131647Y-9432090D01*
X46217807Y-9547184D01*
X46217815Y-9547192D01*
X46332909Y-9633352D01*
X46332911Y-9633353D01*
X46467618Y-9683596D01*
X46467629Y-9683598D01*
X46527176Y-9690000D01*
X47324999Y-9690000D01*
X47325000Y-9689999D01*
X47325000Y-8940001D01*
X47825000Y-8940001D01*
X47825000Y-9689999D01*
X47825001Y-9690000D01*
X48622824Y-9690000D01*
X48682370Y-9683598D01*
X48682381Y-9683596D01*
X48817088Y-9633353D01*
X48817090Y-9633352D01*
X48932184Y-9547192D01*
X48932192Y-9547184D01*
X49018352Y-9432090D01*
X49018353Y-9432088D01*
X49068596Y-9297381D01*
X49068598Y-9297370D01*
X49075000Y-9237824D01*
X49075000Y-8940001D01*
X49074999Y-8940000D01*
X47825001Y-8940000D01*
X47825000Y-8940001D01*
X47325000Y-8940001D01*
X47324999Y-8940000D01*
X46075001Y-8940000D01*
X46075000Y-8940001D01*
X46075000Y-9237824D01*
X46074999Y-9237824D01*
X39700078Y-9237824D01*
X39771073Y-9188113D01*
X39938113Y-9021073D01*
X40073600Y-8827577D01*
X40173430Y-8613489D01*
X40230636Y-8400000D01*
X39333012Y-8400000D01*
X39365925Y-8342993D01*
X39400000Y-8215826D01*
X39400000Y-8142175D01*
X46075000Y-8142175D01*
X46075000Y-8439999D01*
X46075001Y-8440000D01*
X47324999Y-8440000D01*
X47325000Y-8439999D01*
X47325000Y-7690001D01*
X47324999Y-7690000D01*
X46527176Y-7690000D01*
X46467629Y-7696401D01*
X46467618Y-7696403D01*
X46332911Y-7746646D01*
X46332909Y-7746647D01*
X46217815Y-7832807D01*
X46217807Y-7832815D01*
X46131647Y-7947909D01*
X46131646Y-7947911D01*
X46081403Y-8082618D01*
X46081401Y-8082629D01*
X46075000Y-8142175D01*
X39400000Y-8142175D01*
X39400000Y-8084174D01*
X39365925Y-7957007D01*
X39333012Y-7900000D01*
X40230636Y-7900000D01*
X40173429Y-7686505D01*
X40073605Y-7472432D01*
X40073601Y-7472424D01*
X39938113Y-7278926D01*
X39778691Y-7119504D01*
X39750914Y-7064987D01*
X39760485Y-7004555D01*
X39803750Y-6961290D01*
X39848695Y-6950500D01*
X42884521Y-6950500D01*
X42942712Y-6969407D01*
X42954525Y-6979496D01*
X43319453Y-7344424D01*
X43347230Y-7398941D01*
X43347441Y-7428514D01*
X43344354Y-7449997D01*
X43344353Y-7450002D01*
X43364834Y-7592456D01*
X43409381Y-7689999D01*
X43424623Y-7723373D01*
X43518872Y-7832143D01*
X43518873Y-7832144D01*
X43639942Y-7909950D01*
X43639947Y-7909953D01*
X43746403Y-7941211D01*
X43778035Y-7950499D01*
X43778036Y-7950499D01*
X43778039Y-7950500D01*
X43778041Y-7950500D01*
X43921959Y-7950500D01*
X43921961Y-7950500D01*
X44060053Y-7909953D01*
X44181128Y-7832143D01*
X44275377Y-7723373D01*
X44335165Y-7592457D01*
X44344630Y-7526625D01*
X44355647Y-7450002D01*
X44355647Y-7449997D01*
X44335165Y-7307543D01*
X44304529Y-7240460D01*
X44275377Y-7176627D01*
X44181128Y-7067857D01*
X44181127Y-7067856D01*
X44181126Y-7067855D01*
X44060057Y-6990049D01*
X44060054Y-6990047D01*
X44060053Y-6990047D01*
X44060050Y-6990046D01*
X43921964Y-6949500D01*
X43921961Y-6949500D01*
X43815479Y-6949500D01*
X43757288Y-6930593D01*
X43745475Y-6920504D01*
X43544475Y-6719504D01*
X43516698Y-6664987D01*
X43526269Y-6604555D01*
X43569534Y-6561290D01*
X43614479Y-6550500D01*
X46275500Y-6550500D01*
X46333691Y-6569407D01*
X46369655Y-6618907D01*
X46374500Y-6649500D01*
X46374500Y-6669746D01*
X46374501Y-6669758D01*
X46384143Y-6718228D01*
X46386133Y-6728231D01*
X46430448Y-6794552D01*
X46496769Y-6838867D01*
X46541231Y-6847711D01*
X46555241Y-6850498D01*
X46555246Y-6850498D01*
X46555252Y-6850500D01*
X47643924Y-6850500D01*
X47702115Y-6869407D01*
X47738079Y-6918907D01*
X47738079Y-6980093D01*
X47733977Y-6990626D01*
X47714834Y-7032541D01*
X47714834Y-7032543D01*
X47694353Y-7174997D01*
X47694353Y-7175002D01*
X47714834Y-7317456D01*
X47774623Y-7448373D01*
X47849822Y-7535158D01*
X47873640Y-7591517D01*
X47859781Y-7651113D01*
X47845007Y-7669992D01*
X47825000Y-7689999D01*
X47825000Y-8439999D01*
X47825001Y-8440000D01*
X49074999Y-8440000D01*
X49075000Y-8439999D01*
X49075000Y-8142175D01*
X49068598Y-8082629D01*
X49068596Y-8082618D01*
X49018353Y-7947911D01*
X49018352Y-7947909D01*
X48932192Y-7832815D01*
X48932184Y-7832807D01*
X48817090Y-7746647D01*
X48817088Y-7746646D01*
X48682381Y-7696403D01*
X48682371Y-7696401D01*
X48621806Y-7689890D01*
X48565970Y-7664870D01*
X48535504Y-7611810D01*
X48542044Y-7550975D01*
X48557565Y-7526632D01*
X48625377Y-7448373D01*
X48685165Y-7317457D01*
X48705647Y-7175000D01*
X48685165Y-7032543D01*
X48644926Y-6944434D01*
X48637952Y-6883650D01*
X48668038Y-6830372D01*
X48679968Y-6821001D01*
X48719552Y-6794552D01*
X48763867Y-6728231D01*
X48775500Y-6669748D01*
X48775500Y-5630252D01*
X48763867Y-5571769D01*
X48719552Y-5505448D01*
X48719548Y-5505445D01*
X48653233Y-5461134D01*
X48653231Y-5461133D01*
X48653228Y-5461132D01*
X48653227Y-5461132D01*
X48594758Y-5449501D01*
X48594748Y-5449500D01*
X46555252Y-5449500D01*
X46555251Y-5449500D01*
X46555241Y-5449501D01*
X46496772Y-5461132D01*
X46496766Y-5461134D01*
X46430451Y-5505445D01*
X46430445Y-5505451D01*
X46386134Y-5571766D01*
X46386132Y-5571772D01*
X46374501Y-5630241D01*
X46374500Y-5630253D01*
X46374500Y-5650500D01*
X46355593Y-5708691D01*
X46306093Y-5744655D01*
X46275500Y-5749500D01*
X9574500Y-5749500D01*
X9516309Y-5730593D01*
X9480345Y-5681093D01*
X9475500Y-5650500D01*
X9475500Y-5630253D01*
X9475498Y-5630241D01*
X9472711Y-5616231D01*
X9463867Y-5571769D01*
X9419552Y-5505448D01*
X9419548Y-5505445D01*
X9353233Y-5461134D01*
X9353231Y-5461133D01*
X9353228Y-5461132D01*
X9353227Y-5461132D01*
X9294758Y-5449501D01*
X9294748Y-5449500D01*
X6755252Y-5449500D01*
X6755251Y-5449500D01*
X6755241Y-5449501D01*
X6696772Y-5461132D01*
X6696766Y-5461134D01*
X6630451Y-5505445D01*
X6630445Y-5505451D01*
X6586134Y-5571766D01*
X6586132Y-5571772D01*
X6574746Y-5629009D01*
X6544849Y-5682392D01*
X6489283Y-5708007D01*
X6449758Y-5704683D01*
X6346964Y-5674500D01*
X6346961Y-5674500D01*
X6203039Y-5674500D01*
X6203035Y-5674500D01*
X6064949Y-5715046D01*
X6064942Y-5715049D01*
X5943873Y-5792855D01*
X5849622Y-5901628D01*
X5789834Y-6032543D01*
X5769353Y-6174997D01*
X5769353Y-6175002D01*
X5789834Y-6317456D01*
X5849622Y-6448371D01*
X5849623Y-6448373D01*
X5938116Y-6550500D01*
X5943873Y-6557144D01*
X6039979Y-6618907D01*
X6064947Y-6634953D01*
X6167235Y-6664987D01*
X6203035Y-6675499D01*
X6203036Y-6675499D01*
X6203039Y-6675500D01*
X6203041Y-6675500D01*
X6346959Y-6675500D01*
X6346961Y-6675500D01*
X6459158Y-6642556D01*
X6520314Y-6644303D01*
X6568767Y-6681666D01*
X6584143Y-6718228D01*
X6586133Y-6728231D01*
X6630448Y-6794552D01*
X6696769Y-6838867D01*
X6741231Y-6847711D01*
X6755241Y-6850498D01*
X6755246Y-6850498D01*
X6755252Y-6850500D01*
X6850521Y-6850500D01*
X6908712Y-6869407D01*
X6944676Y-6918907D01*
X6944676Y-6980093D01*
X6920525Y-7019504D01*
X3945489Y-9994540D01*
X3945488Y-9994539D01*
X3889539Y-10050489D01*
X3849980Y-10119007D01*
X3849978Y-10119011D01*
X3829500Y-10195435D01*
X3829500Y-10196105D01*
X3829352Y-10196559D01*
X3828653Y-10201871D01*
X3827668Y-10201741D01*
X3810593Y-10254296D01*
X3803258Y-10262289D01*
X3803509Y-10262506D01*
X3798872Y-10267856D01*
X3798872Y-10267857D01*
X3770560Y-10300531D01*
X3704622Y-10376628D01*
X3644834Y-10507543D01*
X3624353Y-10649997D01*
X-899500Y-10649997D01*
X-899500Y-5199500D01*
X-880593Y-5141309D01*
X-831093Y-5105345D01*
X-800500Y-5100500D01*
X19992Y-5100500D01*
X43283Y-5090852D01*
X56929Y-5085200D01*
X85200Y-5056929D01*
X100500Y-5019991D01*
X100500Y-2502984D01*
X100681Y-2497007D01*
X102181Y-2472209D01*
X124567Y-2415266D01*
X176148Y-2382356D01*
X237222Y-2386050D01*
X284460Y-2424937D01*
X300000Y-2478186D01*
X300000Y-3000002D01*
X599997Y-3699995D01*
X600000Y-3700000D01*
X1100000Y-4300000D01*
X1900000Y-4700000D01*
X2899998Y-4700000D01*
X2900000Y-4700000D01*
X3500000Y-4600000D01*
X4100000Y-4100000D01*
X4500000Y-3600000D01*
X4700000Y-2900000D01*
X4700000Y-1900000D01*
X4620000Y-1700000D01*
X12169364Y-1700000D01*
X13066988Y-1700000D01*
X13034075Y-1757007D01*
X13000000Y-1884174D01*
X13000000Y-2015826D01*
X13034075Y-2142993D01*
X13066988Y-2200000D01*
X12169364Y-2200000D01*
X12226569Y-2413489D01*
X12326399Y-2627577D01*
X12461886Y-2821073D01*
X12628926Y-2988113D01*
X12822422Y-3123600D01*
X13036510Y-3223430D01*
X13116533Y-3244873D01*
X13167847Y-3278197D01*
X13189774Y-3335319D01*
X13173938Y-3394419D01*
X13126388Y-3432924D01*
X13090910Y-3439500D01*
X12630252Y-3439500D01*
X12630251Y-3439500D01*
X12630241Y-3439501D01*
X12571772Y-3451132D01*
X12571766Y-3451134D01*
X12505451Y-3495445D01*
X12505445Y-3495451D01*
X12461134Y-3561766D01*
X12461132Y-3561772D01*
X12449501Y-3620241D01*
X12449500Y-3620253D01*
X12449500Y-5359746D01*
X12449501Y-5359758D01*
X12461132Y-5418227D01*
X12461134Y-5418233D01*
X12505445Y-5484548D01*
X12505448Y-5484552D01*
X12571769Y-5528867D01*
X12616231Y-5537711D01*
X12630241Y-5540498D01*
X12630246Y-5540498D01*
X12630252Y-5540500D01*
X12630253Y-5540500D01*
X14369747Y-5540500D01*
X14369748Y-5540500D01*
X14428231Y-5528867D01*
X14494552Y-5484552D01*
X14538867Y-5418231D01*
X14550500Y-5359748D01*
X14550500Y-3620252D01*
X14548921Y-3612316D01*
X14546472Y-3600000D01*
X14538867Y-3561769D01*
X14494552Y-3495448D01*
X14455240Y-3469180D01*
X14428233Y-3451134D01*
X14428231Y-3451133D01*
X14428228Y-3451132D01*
X14428227Y-3451132D01*
X14369758Y-3439501D01*
X14369748Y-3439500D01*
X13909090Y-3439500D01*
X13850899Y-3420593D01*
X13814935Y-3371093D01*
X13814935Y-3309907D01*
X13850899Y-3260407D01*
X13883467Y-3244873D01*
X13963489Y-3223430D01*
X14177577Y-3123600D01*
X14371073Y-2988113D01*
X14538113Y-2821073D01*
X14673601Y-2627576D01*
X14673602Y-2627574D01*
X14680275Y-2613265D01*
X14722003Y-2568516D01*
X14782064Y-2556841D01*
X14837517Y-2582698D01*
X14859725Y-2613265D01*
X14866397Y-2627574D01*
X14866398Y-2627576D01*
X15001886Y-2821073D01*
X15168926Y-2988113D01*
X15362422Y-3123600D01*
X15576509Y-3223430D01*
X15783213Y-3278816D01*
X15834527Y-3312140D01*
X15856454Y-3369261D01*
X15840619Y-3428362D01*
X15793069Y-3466867D01*
X15786329Y-3469180D01*
X15699746Y-3495445D01*
X15636046Y-3514768D01*
X15636044Y-3514768D01*
X15636044Y-3514769D01*
X15453547Y-3612316D01*
X15293595Y-3743585D01*
X15293585Y-3743595D01*
X15162316Y-3903547D01*
X15064768Y-4086045D01*
X15004699Y-4284065D01*
X15004698Y-4284070D01*
X14984417Y-4489996D01*
X14984417Y-4490003D01*
X15004698Y-4695929D01*
X15004699Y-4695934D01*
X15064768Y-4893954D01*
X15162316Y-5076452D01*
X15215543Y-5141309D01*
X15293590Y-5236410D01*
X15293595Y-5236414D01*
X15453547Y-5367683D01*
X15453548Y-5367683D01*
X15453550Y-5367685D01*
X15636046Y-5465232D01*
X15768612Y-5505445D01*
X15834065Y-5525300D01*
X15834070Y-5525301D01*
X16039997Y-5545583D01*
X16040000Y-5545583D01*
X16040003Y-5545583D01*
X16245929Y-5525301D01*
X16245934Y-5525300D01*
X16443954Y-5465232D01*
X16626450Y-5367685D01*
X16786410Y-5236410D01*
X16917685Y-5076450D01*
X17015232Y-4893954D01*
X17075300Y-4695934D01*
X17075301Y-4695929D01*
X17095583Y-4490003D01*
X17095583Y-4489996D01*
X17075301Y-4284070D01*
X17075300Y-4284065D01*
X17034631Y-4149998D01*
X17015232Y-4086046D01*
X16917685Y-3903550D01*
X16786410Y-3743590D01*
X16733289Y-3699995D01*
X16626452Y-3612316D01*
X16443954Y-3514768D01*
X16293671Y-3469180D01*
X16243474Y-3434195D01*
X16223428Y-3376387D01*
X16241189Y-3317836D01*
X16289974Y-3280907D01*
X16296786Y-3278816D01*
X16503490Y-3223430D01*
X16717577Y-3123600D01*
X16911073Y-2988113D01*
X17078113Y-2821073D01*
X17213601Y-2627576D01*
X17213602Y-2627574D01*
X17220275Y-2613265D01*
X17262003Y-2568516D01*
X17322064Y-2556841D01*
X17377517Y-2582698D01*
X17399725Y-2613265D01*
X17406397Y-2627574D01*
X17406398Y-2627576D01*
X17541886Y-2821073D01*
X17708926Y-2988113D01*
X17902422Y-3123600D01*
X18116509Y-3223430D01*
X18323213Y-3278816D01*
X18374527Y-3312140D01*
X18396454Y-3369261D01*
X18380619Y-3428362D01*
X18333069Y-3466867D01*
X18326329Y-3469180D01*
X18239746Y-3495445D01*
X18176046Y-3514768D01*
X18176044Y-3514768D01*
X18176044Y-3514769D01*
X17993547Y-3612316D01*
X17833595Y-3743585D01*
X17833585Y-3743595D01*
X17702316Y-3903547D01*
X17604768Y-4086045D01*
X17544699Y-4284065D01*
X17544698Y-4284070D01*
X17524417Y-4489996D01*
X17524417Y-4490003D01*
X17544698Y-4695929D01*
X17544699Y-4695934D01*
X17604768Y-4893954D01*
X17702316Y-5076452D01*
X17755543Y-5141309D01*
X17833590Y-5236410D01*
X17833595Y-5236414D01*
X17993547Y-5367683D01*
X17993548Y-5367683D01*
X17993550Y-5367685D01*
X18176046Y-5465232D01*
X18308612Y-5505445D01*
X18374065Y-5525300D01*
X18374070Y-5525301D01*
X18579997Y-5545583D01*
X18580000Y-5545583D01*
X18580003Y-5545583D01*
X18785929Y-5525301D01*
X18785934Y-5525300D01*
X18983954Y-5465232D01*
X19166450Y-5367685D01*
X19326410Y-5236410D01*
X19457685Y-5076450D01*
X19555232Y-4893954D01*
X19615300Y-4695934D01*
X19615301Y-4695929D01*
X19635583Y-4490003D01*
X19635583Y-4489996D01*
X19615301Y-4284070D01*
X19615300Y-4284065D01*
X19574631Y-4149998D01*
X19555232Y-4086046D01*
X19457685Y-3903550D01*
X19326410Y-3743590D01*
X19273289Y-3699995D01*
X19166452Y-3612316D01*
X18983954Y-3514768D01*
X18833671Y-3469180D01*
X18783474Y-3434195D01*
X18763428Y-3376387D01*
X18781189Y-3317836D01*
X18829974Y-3280907D01*
X18836786Y-3278816D01*
X19043490Y-3223430D01*
X19257577Y-3123600D01*
X19451073Y-2988113D01*
X19618113Y-2821073D01*
X19753601Y-2627576D01*
X19753602Y-2627574D01*
X19760275Y-2613265D01*
X19802003Y-2568516D01*
X19862064Y-2556841D01*
X19917517Y-2582698D01*
X19939725Y-2613265D01*
X19946397Y-2627574D01*
X19946398Y-2627576D01*
X20081886Y-2821073D01*
X20248926Y-2988113D01*
X20442422Y-3123600D01*
X20656509Y-3223430D01*
X20863213Y-3278816D01*
X20914527Y-3312140D01*
X20936454Y-3369261D01*
X20920619Y-3428362D01*
X20873069Y-3466867D01*
X20866329Y-3469180D01*
X20779746Y-3495445D01*
X20716046Y-3514768D01*
X20716044Y-3514768D01*
X20716044Y-3514769D01*
X20533547Y-3612316D01*
X20373595Y-3743585D01*
X20373585Y-3743595D01*
X20242316Y-3903547D01*
X20144768Y-4086045D01*
X20084699Y-4284065D01*
X20084698Y-4284070D01*
X20064417Y-4489996D01*
X20064417Y-4490003D01*
X20084698Y-4695929D01*
X20084699Y-4695934D01*
X20144768Y-4893954D01*
X20242316Y-5076452D01*
X20295543Y-5141309D01*
X20373590Y-5236410D01*
X20373595Y-5236414D01*
X20533547Y-5367683D01*
X20533548Y-5367683D01*
X20533550Y-5367685D01*
X20716046Y-5465232D01*
X20848612Y-5505445D01*
X20914065Y-5525300D01*
X20914070Y-5525301D01*
X21119997Y-5545583D01*
X21120000Y-5545583D01*
X21120003Y-5545583D01*
X21325929Y-5525301D01*
X21325934Y-5525300D01*
X21523954Y-5465232D01*
X21706450Y-5367685D01*
X21866410Y-5236410D01*
X21997685Y-5076450D01*
X22095232Y-4893954D01*
X22155300Y-4695934D01*
X22155301Y-4695929D01*
X22175583Y-4490003D01*
X22175583Y-4489996D01*
X22155301Y-4284070D01*
X22155300Y-4284065D01*
X22114631Y-4149998D01*
X22095232Y-4086046D01*
X21997685Y-3903550D01*
X21866410Y-3743590D01*
X21813289Y-3699995D01*
X21706452Y-3612316D01*
X21523954Y-3514768D01*
X21373671Y-3469180D01*
X21323474Y-3434195D01*
X21303428Y-3376387D01*
X21321189Y-3317836D01*
X21369974Y-3280907D01*
X21376786Y-3278816D01*
X21583490Y-3223430D01*
X21797577Y-3123600D01*
X21991073Y-2988113D01*
X22158113Y-2821073D01*
X22293601Y-2627576D01*
X22293602Y-2627574D01*
X22300275Y-2613265D01*
X22342003Y-2568516D01*
X22402064Y-2556841D01*
X22457517Y-2582698D01*
X22479725Y-2613265D01*
X22486397Y-2627574D01*
X22486398Y-2627576D01*
X22621886Y-2821073D01*
X22788926Y-2988113D01*
X22982422Y-3123600D01*
X23196509Y-3223430D01*
X23403213Y-3278816D01*
X23454527Y-3312140D01*
X23476454Y-3369261D01*
X23460619Y-3428362D01*
X23413069Y-3466867D01*
X23406329Y-3469180D01*
X23319746Y-3495445D01*
X23256046Y-3514768D01*
X23256044Y-3514768D01*
X23256044Y-3514769D01*
X23073547Y-3612316D01*
X22913595Y-3743585D01*
X22913585Y-3743595D01*
X22782316Y-3903547D01*
X22684768Y-4086045D01*
X22624699Y-4284065D01*
X22624698Y-4284070D01*
X22604417Y-4489996D01*
X22604417Y-4490003D01*
X22624698Y-4695929D01*
X22624699Y-4695934D01*
X22684768Y-4893954D01*
X22782316Y-5076452D01*
X22835543Y-5141309D01*
X22913590Y-5236410D01*
X22913595Y-5236414D01*
X23073547Y-5367683D01*
X23073548Y-5367683D01*
X23073550Y-5367685D01*
X23256046Y-5465232D01*
X23388612Y-5505445D01*
X23454065Y-5525300D01*
X23454070Y-5525301D01*
X23659997Y-5545583D01*
X23660000Y-5545583D01*
X23660003Y-5545583D01*
X23865929Y-5525301D01*
X23865934Y-5525300D01*
X24063954Y-5465232D01*
X24246450Y-5367685D01*
X24406410Y-5236410D01*
X24537685Y-5076450D01*
X24635232Y-4893954D01*
X24695300Y-4695934D01*
X24695301Y-4695929D01*
X24715583Y-4490003D01*
X24715583Y-4489996D01*
X24695301Y-4284070D01*
X24695300Y-4284065D01*
X24654631Y-4149998D01*
X24635232Y-4086046D01*
X24537685Y-3903550D01*
X24406410Y-3743590D01*
X24353289Y-3699995D01*
X24246452Y-3612316D01*
X24063954Y-3514768D01*
X23913671Y-3469180D01*
X23863474Y-3434195D01*
X23843428Y-3376387D01*
X23861189Y-3317836D01*
X23909974Y-3280907D01*
X23916786Y-3278816D01*
X24123490Y-3223430D01*
X24337577Y-3123600D01*
X24531073Y-2988113D01*
X24698113Y-2821073D01*
X24833601Y-2627576D01*
X24833602Y-2627574D01*
X24840275Y-2613265D01*
X24882003Y-2568516D01*
X24942064Y-2556841D01*
X24997517Y-2582698D01*
X25019725Y-2613265D01*
X25026397Y-2627574D01*
X25026398Y-2627576D01*
X25161886Y-2821073D01*
X25328926Y-2988113D01*
X25522422Y-3123600D01*
X25736509Y-3223430D01*
X25943213Y-3278816D01*
X25994527Y-3312140D01*
X26016454Y-3369261D01*
X26000619Y-3428362D01*
X25953069Y-3466867D01*
X25946329Y-3469180D01*
X25859746Y-3495445D01*
X25796046Y-3514768D01*
X25796044Y-3514768D01*
X25796044Y-3514769D01*
X25613547Y-3612316D01*
X25453595Y-3743585D01*
X25453585Y-3743595D01*
X25322316Y-3903547D01*
X25224768Y-4086045D01*
X25164699Y-4284065D01*
X25164698Y-4284070D01*
X25144417Y-4489996D01*
X25144417Y-4490003D01*
X25164698Y-4695929D01*
X25164699Y-4695934D01*
X25224768Y-4893954D01*
X25322316Y-5076452D01*
X25375543Y-5141309D01*
X25453590Y-5236410D01*
X25453595Y-5236414D01*
X25613547Y-5367683D01*
X25613548Y-5367683D01*
X25613550Y-5367685D01*
X25796046Y-5465232D01*
X25928612Y-5505445D01*
X25994065Y-5525300D01*
X25994070Y-5525301D01*
X26199997Y-5545583D01*
X26200000Y-5545583D01*
X26200003Y-5545583D01*
X26405929Y-5525301D01*
X26405934Y-5525300D01*
X26603954Y-5465232D01*
X26786450Y-5367685D01*
X26946410Y-5236410D01*
X27077685Y-5076450D01*
X27175232Y-4893954D01*
X27235300Y-4695934D01*
X27235301Y-4695929D01*
X27255583Y-4490003D01*
X27255583Y-4489996D01*
X27235301Y-4284070D01*
X27235300Y-4284065D01*
X27194631Y-4149998D01*
X27175232Y-4086046D01*
X27077685Y-3903550D01*
X26946410Y-3743590D01*
X26893289Y-3699995D01*
X26786452Y-3612316D01*
X26603954Y-3514768D01*
X26453671Y-3469180D01*
X26403474Y-3434195D01*
X26383428Y-3376387D01*
X26401189Y-3317836D01*
X26449974Y-3280907D01*
X26456786Y-3278816D01*
X26663490Y-3223430D01*
X26877577Y-3123600D01*
X27071073Y-2988113D01*
X27238113Y-2821073D01*
X27373601Y-2627576D01*
X27373602Y-2627574D01*
X27380275Y-2613265D01*
X27422003Y-2568516D01*
X27482064Y-2556841D01*
X27537517Y-2582698D01*
X27559725Y-2613265D01*
X27566397Y-2627574D01*
X27566398Y-2627576D01*
X27701886Y-2821073D01*
X27868926Y-2988113D01*
X28062422Y-3123600D01*
X28276509Y-3223430D01*
X28483213Y-3278816D01*
X28534527Y-3312140D01*
X28556454Y-3369261D01*
X28540619Y-3428362D01*
X28493069Y-3466867D01*
X28486329Y-3469180D01*
X28399746Y-3495445D01*
X28336046Y-3514768D01*
X28336044Y-3514768D01*
X28336044Y-3514769D01*
X28153547Y-3612316D01*
X27993595Y-3743585D01*
X27993585Y-3743595D01*
X27862316Y-3903547D01*
X27764768Y-4086045D01*
X27704699Y-4284065D01*
X27704698Y-4284070D01*
X27684417Y-4489996D01*
X27684417Y-4490003D01*
X27704698Y-4695929D01*
X27704699Y-4695934D01*
X27764768Y-4893954D01*
X27862316Y-5076452D01*
X27915543Y-5141309D01*
X27993590Y-5236410D01*
X27993595Y-5236414D01*
X28153547Y-5367683D01*
X28153548Y-5367683D01*
X28153550Y-5367685D01*
X28336046Y-5465232D01*
X28468612Y-5505445D01*
X28534065Y-5525300D01*
X28534070Y-5525301D01*
X28739997Y-5545583D01*
X28740000Y-5545583D01*
X28740003Y-5545583D01*
X28945929Y-5525301D01*
X28945934Y-5525300D01*
X29143954Y-5465232D01*
X29326450Y-5367685D01*
X29486410Y-5236410D01*
X29617685Y-5076450D01*
X29715232Y-4893954D01*
X29775300Y-4695934D01*
X29775301Y-4695929D01*
X29795583Y-4490003D01*
X29795583Y-4489996D01*
X29775301Y-4284070D01*
X29775300Y-4284065D01*
X29734631Y-4149998D01*
X29715232Y-4086046D01*
X29617685Y-3903550D01*
X29486410Y-3743590D01*
X29433289Y-3699995D01*
X29326452Y-3612316D01*
X29143954Y-3514768D01*
X28993671Y-3469180D01*
X28943474Y-3434195D01*
X28923428Y-3376387D01*
X28941189Y-3317836D01*
X28989974Y-3280907D01*
X28996786Y-3278816D01*
X29203490Y-3223430D01*
X29417577Y-3123600D01*
X29611073Y-2988113D01*
X29778113Y-2821073D01*
X29913601Y-2627576D01*
X29913602Y-2627574D01*
X29920275Y-2613265D01*
X29962003Y-2568516D01*
X30022064Y-2556841D01*
X30077517Y-2582698D01*
X30099725Y-2613265D01*
X30106397Y-2627574D01*
X30106398Y-2627576D01*
X30241886Y-2821073D01*
X30408926Y-2988113D01*
X30602422Y-3123600D01*
X30816509Y-3223430D01*
X31023213Y-3278816D01*
X31074527Y-3312140D01*
X31096454Y-3369261D01*
X31080619Y-3428362D01*
X31033069Y-3466867D01*
X31026329Y-3469180D01*
X30939746Y-3495445D01*
X30876046Y-3514768D01*
X30876044Y-3514768D01*
X30876044Y-3514769D01*
X30693547Y-3612316D01*
X30533595Y-3743585D01*
X30533585Y-3743595D01*
X30402316Y-3903547D01*
X30304768Y-4086045D01*
X30244699Y-4284065D01*
X30244698Y-4284070D01*
X30224417Y-4489996D01*
X30224417Y-4490003D01*
X30244698Y-4695929D01*
X30244699Y-4695934D01*
X30304768Y-4893954D01*
X30402316Y-5076452D01*
X30455543Y-5141309D01*
X30533590Y-5236410D01*
X30533595Y-5236414D01*
X30693547Y-5367683D01*
X30693548Y-5367683D01*
X30693550Y-5367685D01*
X30876046Y-5465232D01*
X31008612Y-5505445D01*
X31074065Y-5525300D01*
X31074070Y-5525301D01*
X31279997Y-5545583D01*
X31280000Y-5545583D01*
X31280003Y-5545583D01*
X31485929Y-5525301D01*
X31485934Y-5525300D01*
X31683954Y-5465232D01*
X31866450Y-5367685D01*
X32026410Y-5236410D01*
X32157685Y-5076450D01*
X32255232Y-4893954D01*
X32315300Y-4695934D01*
X32315301Y-4695929D01*
X32335583Y-4490003D01*
X32335583Y-4489996D01*
X32315301Y-4284070D01*
X32315300Y-4284065D01*
X32274631Y-4149998D01*
X32255232Y-4086046D01*
X32157685Y-3903550D01*
X32026410Y-3743590D01*
X31973289Y-3699995D01*
X31866452Y-3612316D01*
X31683954Y-3514768D01*
X31533671Y-3469180D01*
X31483474Y-3434195D01*
X31463428Y-3376387D01*
X31481189Y-3317836D01*
X31529974Y-3280907D01*
X31536786Y-3278816D01*
X31743490Y-3223430D01*
X31957577Y-3123600D01*
X32151073Y-2988113D01*
X32318113Y-2821073D01*
X32453601Y-2627576D01*
X32453602Y-2627574D01*
X32460275Y-2613265D01*
X32502003Y-2568516D01*
X32562064Y-2556841D01*
X32617517Y-2582698D01*
X32639725Y-2613265D01*
X32646397Y-2627574D01*
X32646398Y-2627576D01*
X32781886Y-2821073D01*
X32948926Y-2988113D01*
X33142422Y-3123600D01*
X33356509Y-3223430D01*
X33563213Y-3278816D01*
X33614527Y-3312140D01*
X33636454Y-3369261D01*
X33620619Y-3428362D01*
X33573069Y-3466867D01*
X33566329Y-3469180D01*
X33479746Y-3495445D01*
X33416046Y-3514768D01*
X33416044Y-3514768D01*
X33416044Y-3514769D01*
X33233547Y-3612316D01*
X33073595Y-3743585D01*
X33073585Y-3743595D01*
X32942316Y-3903547D01*
X32844768Y-4086045D01*
X32784699Y-4284065D01*
X32784698Y-4284070D01*
X32764417Y-4489996D01*
X32764417Y-4490003D01*
X32784698Y-4695929D01*
X32784699Y-4695934D01*
X32844768Y-4893954D01*
X32942316Y-5076452D01*
X32995543Y-5141309D01*
X33073590Y-5236410D01*
X33073595Y-5236414D01*
X33233547Y-5367683D01*
X33233548Y-5367683D01*
X33233550Y-5367685D01*
X33416046Y-5465232D01*
X33548612Y-5505445D01*
X33614065Y-5525300D01*
X33614070Y-5525301D01*
X33819997Y-5545583D01*
X33820000Y-5545583D01*
X33820003Y-5545583D01*
X34025929Y-5525301D01*
X34025934Y-5525300D01*
X34223954Y-5465232D01*
X34406450Y-5367685D01*
X34566410Y-5236410D01*
X34697685Y-5076450D01*
X34795232Y-4893954D01*
X34855300Y-4695934D01*
X34855301Y-4695929D01*
X34875583Y-4490003D01*
X34875583Y-4489996D01*
X34855301Y-4284070D01*
X34855300Y-4284065D01*
X34814631Y-4149998D01*
X34795232Y-4086046D01*
X34697685Y-3903550D01*
X34566410Y-3743590D01*
X34513289Y-3699995D01*
X34406452Y-3612316D01*
X34223954Y-3514768D01*
X34073671Y-3469180D01*
X34023474Y-3434195D01*
X34003428Y-3376387D01*
X34021189Y-3317836D01*
X34069974Y-3280907D01*
X34076786Y-3278816D01*
X34283490Y-3223430D01*
X34497577Y-3123600D01*
X34691073Y-2988113D01*
X34858113Y-2821073D01*
X34993601Y-2627576D01*
X34993602Y-2627574D01*
X35000275Y-2613265D01*
X35042003Y-2568516D01*
X35102064Y-2556841D01*
X35157517Y-2582698D01*
X35179725Y-2613265D01*
X35186397Y-2627574D01*
X35186398Y-2627576D01*
X35321886Y-2821073D01*
X35488926Y-2988113D01*
X35682422Y-3123600D01*
X35896509Y-3223430D01*
X36103213Y-3278816D01*
X36154527Y-3312140D01*
X36176454Y-3369261D01*
X36160619Y-3428362D01*
X36113069Y-3466867D01*
X36106329Y-3469180D01*
X36019746Y-3495445D01*
X35956046Y-3514768D01*
X35956044Y-3514768D01*
X35956044Y-3514769D01*
X35773547Y-3612316D01*
X35613595Y-3743585D01*
X35613585Y-3743595D01*
X35482316Y-3903547D01*
X35384768Y-4086045D01*
X35324699Y-4284065D01*
X35324698Y-4284070D01*
X35304417Y-4489996D01*
X35304417Y-4490003D01*
X35324698Y-4695929D01*
X35324699Y-4695934D01*
X35384768Y-4893954D01*
X35482316Y-5076452D01*
X35535543Y-5141309D01*
X35613590Y-5236410D01*
X35613595Y-5236414D01*
X35773547Y-5367683D01*
X35773548Y-5367683D01*
X35773550Y-5367685D01*
X35956046Y-5465232D01*
X36088612Y-5505445D01*
X36154065Y-5525300D01*
X36154070Y-5525301D01*
X36359997Y-5545583D01*
X36360000Y-5545583D01*
X36360003Y-5545583D01*
X36565929Y-5525301D01*
X36565934Y-5525300D01*
X36763954Y-5465232D01*
X36946450Y-5367685D01*
X37106410Y-5236410D01*
X37237685Y-5076450D01*
X37335232Y-4893954D01*
X37395300Y-4695934D01*
X37395301Y-4695929D01*
X37415583Y-4490003D01*
X37415583Y-4489996D01*
X37395301Y-4284070D01*
X37395300Y-4284065D01*
X37354631Y-4149998D01*
X37335232Y-4086046D01*
X37237685Y-3903550D01*
X37106410Y-3743590D01*
X37053289Y-3699995D01*
X36946452Y-3612316D01*
X36763954Y-3514768D01*
X36613671Y-3469180D01*
X36563474Y-3434195D01*
X36543428Y-3376387D01*
X36561189Y-3317836D01*
X36609974Y-3280907D01*
X36616786Y-3278816D01*
X36823490Y-3223430D01*
X37037577Y-3123600D01*
X37231073Y-2988113D01*
X37398113Y-2821073D01*
X37533601Y-2627576D01*
X37533602Y-2627574D01*
X37540275Y-2613265D01*
X37582003Y-2568516D01*
X37642064Y-2556841D01*
X37697517Y-2582698D01*
X37719725Y-2613265D01*
X37726397Y-2627574D01*
X37726398Y-2627576D01*
X37861886Y-2821073D01*
X38028926Y-2988113D01*
X38222422Y-3123600D01*
X38436509Y-3223430D01*
X38643213Y-3278816D01*
X38694527Y-3312140D01*
X38716454Y-3369261D01*
X38700619Y-3428362D01*
X38653069Y-3466867D01*
X38646329Y-3469180D01*
X38559746Y-3495445D01*
X38496046Y-3514768D01*
X38496044Y-3514768D01*
X38496044Y-3514769D01*
X38313547Y-3612316D01*
X38153595Y-3743585D01*
X38153585Y-3743595D01*
X38022316Y-3903547D01*
X37924768Y-4086045D01*
X37864699Y-4284065D01*
X37864698Y-4284070D01*
X37844417Y-4489996D01*
X37844417Y-4490003D01*
X37864698Y-4695929D01*
X37864699Y-4695934D01*
X37924768Y-4893954D01*
X38022316Y-5076452D01*
X38075543Y-5141309D01*
X38153590Y-5236410D01*
X38153595Y-5236414D01*
X38313547Y-5367683D01*
X38313548Y-5367683D01*
X38313550Y-5367685D01*
X38496046Y-5465232D01*
X38628612Y-5505445D01*
X38694065Y-5525300D01*
X38694070Y-5525301D01*
X38899997Y-5545583D01*
X38900000Y-5545583D01*
X38900003Y-5545583D01*
X39105929Y-5525301D01*
X39105934Y-5525300D01*
X39303954Y-5465232D01*
X39486450Y-5367685D01*
X39646410Y-5236410D01*
X39777685Y-5076450D01*
X39875232Y-4893954D01*
X39935300Y-4695934D01*
X39935301Y-4695929D01*
X39955583Y-4490003D01*
X39955583Y-4489996D01*
X39935301Y-4284070D01*
X39935300Y-4284065D01*
X39894631Y-4149998D01*
X39875232Y-4086046D01*
X39777685Y-3903550D01*
X39646410Y-3743590D01*
X39593289Y-3699995D01*
X39486452Y-3612316D01*
X39303954Y-3514768D01*
X39153671Y-3469180D01*
X39103474Y-3434195D01*
X39083428Y-3376387D01*
X39101189Y-3317836D01*
X39149974Y-3280907D01*
X39156786Y-3278816D01*
X39363490Y-3223430D01*
X39577577Y-3123600D01*
X39771073Y-2988113D01*
X39938113Y-2821073D01*
X40073600Y-2627577D01*
X40173430Y-2413489D01*
X40230636Y-2200000D01*
X39333012Y-2200000D01*
X39365925Y-2142993D01*
X39400000Y-2015826D01*
X39400000Y-1884174D01*
X39365925Y-1757007D01*
X39333012Y-1700000D01*
X40230636Y-1700000D01*
X40173429Y-1486505D01*
X40073605Y-1272432D01*
X40073601Y-1272424D01*
X39938113Y-1078926D01*
X39771073Y-911886D01*
X39577577Y-776399D01*
X39363489Y-676569D01*
X39150000Y-619364D01*
X39150000Y-1516988D01*
X39092993Y-1484075D01*
X38965826Y-1450000D01*
X38834174Y-1450000D01*
X38707007Y-1484075D01*
X38650000Y-1516988D01*
X38650000Y-619364D01*
X38436505Y-676570D01*
X38222432Y-776394D01*
X38222424Y-776398D01*
X38028926Y-911886D01*
X37861886Y-1078926D01*
X37726398Y-1272424D01*
X37726396Y-1272428D01*
X37719724Y-1286737D01*
X37677995Y-1331485D01*
X37617934Y-1343159D01*
X37562481Y-1317300D01*
X37540276Y-1286737D01*
X37533603Y-1272428D01*
X37533601Y-1272424D01*
X37398113Y-1078926D01*
X37231073Y-911886D01*
X37037577Y-776399D01*
X36823489Y-676569D01*
X36610000Y-619364D01*
X36610000Y-1516988D01*
X36552993Y-1484075D01*
X36425826Y-1450000D01*
X36294174Y-1450000D01*
X36167007Y-1484075D01*
X36110000Y-1516988D01*
X36110000Y-619364D01*
X35896505Y-676570D01*
X35682432Y-776394D01*
X35682424Y-776398D01*
X35488926Y-911886D01*
X35321886Y-1078926D01*
X35186398Y-1272424D01*
X35186396Y-1272428D01*
X35179724Y-1286737D01*
X35137995Y-1331485D01*
X35077934Y-1343159D01*
X35022481Y-1317300D01*
X35000276Y-1286737D01*
X34993603Y-1272428D01*
X34993601Y-1272424D01*
X34858113Y-1078926D01*
X34691073Y-911886D01*
X34497577Y-776399D01*
X34283489Y-676569D01*
X34070000Y-619364D01*
X34070000Y-1516988D01*
X34012993Y-1484075D01*
X33885826Y-1450000D01*
X33754174Y-1450000D01*
X33627007Y-1484075D01*
X33570000Y-1516988D01*
X33570000Y-619364D01*
X33356505Y-676570D01*
X33142432Y-776394D01*
X33142424Y-776398D01*
X32948926Y-911886D01*
X32781886Y-1078926D01*
X32646398Y-1272424D01*
X32646396Y-1272428D01*
X32639724Y-1286737D01*
X32597995Y-1331485D01*
X32537934Y-1343159D01*
X32482481Y-1317300D01*
X32460276Y-1286737D01*
X32453603Y-1272428D01*
X32453601Y-1272424D01*
X32318113Y-1078926D01*
X32151073Y-911886D01*
X31957577Y-776399D01*
X31743489Y-676569D01*
X31530000Y-619364D01*
X31530000Y-1516988D01*
X31472993Y-1484075D01*
X31345826Y-1450000D01*
X31214174Y-1450000D01*
X31087007Y-1484075D01*
X31030000Y-1516988D01*
X31030000Y-619364D01*
X30816505Y-676570D01*
X30602432Y-776394D01*
X30602424Y-776398D01*
X30408926Y-911886D01*
X30241886Y-1078926D01*
X30106398Y-1272424D01*
X30106396Y-1272428D01*
X30099724Y-1286737D01*
X30057995Y-1331485D01*
X29997934Y-1343159D01*
X29942481Y-1317300D01*
X29920276Y-1286737D01*
X29913603Y-1272428D01*
X29913601Y-1272424D01*
X29778113Y-1078926D01*
X29611073Y-911886D01*
X29417577Y-776399D01*
X29203489Y-676569D01*
X28990000Y-619364D01*
X28990000Y-1516988D01*
X28932993Y-1484075D01*
X28805826Y-1450000D01*
X28674174Y-1450000D01*
X28547007Y-1484075D01*
X28490000Y-1516988D01*
X28490000Y-619364D01*
X28276505Y-676570D01*
X28062432Y-776394D01*
X28062424Y-776398D01*
X27868926Y-911886D01*
X27701886Y-1078926D01*
X27566398Y-1272424D01*
X27566396Y-1272428D01*
X27559724Y-1286737D01*
X27517995Y-1331485D01*
X27457934Y-1343159D01*
X27402481Y-1317300D01*
X27380276Y-1286737D01*
X27373603Y-1272428D01*
X27373601Y-1272424D01*
X27238113Y-1078926D01*
X27071073Y-911886D01*
X26877577Y-776399D01*
X26663489Y-676569D01*
X26450000Y-619364D01*
X26450000Y-1516988D01*
X26392993Y-1484075D01*
X26265826Y-1450000D01*
X26134174Y-1450000D01*
X26007007Y-1484075D01*
X25950000Y-1516988D01*
X25950000Y-619364D01*
X25736505Y-676570D01*
X25522432Y-776394D01*
X25522424Y-776398D01*
X25328926Y-911886D01*
X25161886Y-1078926D01*
X25026398Y-1272424D01*
X25026396Y-1272428D01*
X25019724Y-1286737D01*
X24977995Y-1331485D01*
X24917934Y-1343159D01*
X24862481Y-1317300D01*
X24840276Y-1286737D01*
X24833603Y-1272428D01*
X24833601Y-1272424D01*
X24698113Y-1078926D01*
X24531073Y-911886D01*
X24337577Y-776399D01*
X24123489Y-676569D01*
X23910000Y-619364D01*
X23910000Y-1516988D01*
X23852993Y-1484075D01*
X23725826Y-1450000D01*
X23594174Y-1450000D01*
X23467007Y-1484075D01*
X23410000Y-1516988D01*
X23410000Y-619364D01*
X23196505Y-676570D01*
X22982432Y-776394D01*
X22982424Y-776398D01*
X22788926Y-911886D01*
X22621886Y-1078926D01*
X22486398Y-1272424D01*
X22486396Y-1272428D01*
X22479724Y-1286737D01*
X22437995Y-1331485D01*
X22377934Y-1343159D01*
X22322481Y-1317300D01*
X22300276Y-1286737D01*
X22293603Y-1272428D01*
X22293601Y-1272424D01*
X22158113Y-1078926D01*
X21991073Y-911886D01*
X21797577Y-776399D01*
X21583489Y-676569D01*
X21370000Y-619364D01*
X21370000Y-1516988D01*
X21312993Y-1484075D01*
X21185826Y-1450000D01*
X21054174Y-1450000D01*
X20927007Y-1484075D01*
X20870000Y-1516988D01*
X20870000Y-619364D01*
X20656505Y-676570D01*
X20442432Y-776394D01*
X20442424Y-776398D01*
X20248926Y-911886D01*
X20081886Y-1078926D01*
X19946398Y-1272424D01*
X19946396Y-1272428D01*
X19939724Y-1286737D01*
X19897995Y-1331485D01*
X19837934Y-1343159D01*
X19782481Y-1317300D01*
X19760276Y-1286737D01*
X19753603Y-1272428D01*
X19753601Y-1272424D01*
X19618113Y-1078926D01*
X19451073Y-911886D01*
X19257577Y-776399D01*
X19043489Y-676569D01*
X18830000Y-619364D01*
X18830000Y-1516988D01*
X18772993Y-1484075D01*
X18645826Y-1450000D01*
X18514174Y-1450000D01*
X18387007Y-1484075D01*
X18330000Y-1516988D01*
X18330000Y-619364D01*
X18116505Y-676570D01*
X17902432Y-776394D01*
X17902424Y-776398D01*
X17708926Y-911886D01*
X17541886Y-1078926D01*
X17406398Y-1272424D01*
X17406396Y-1272428D01*
X17399724Y-1286737D01*
X17357995Y-1331485D01*
X17297934Y-1343159D01*
X17242481Y-1317300D01*
X17220276Y-1286737D01*
X17213603Y-1272428D01*
X17213601Y-1272424D01*
X17078113Y-1078926D01*
X16911073Y-911886D01*
X16717577Y-776399D01*
X16503489Y-676569D01*
X16290000Y-619364D01*
X16290000Y-1516988D01*
X16232993Y-1484075D01*
X16105826Y-1450000D01*
X15974174Y-1450000D01*
X15847007Y-1484075D01*
X15790000Y-1516988D01*
X15790000Y-619364D01*
X15576505Y-676570D01*
X15362432Y-776394D01*
X15362424Y-776398D01*
X15168926Y-911886D01*
X15001886Y-1078926D01*
X14866398Y-1272424D01*
X14866396Y-1272428D01*
X14859724Y-1286737D01*
X14817995Y-1331485D01*
X14757934Y-1343159D01*
X14702481Y-1317300D01*
X14680276Y-1286737D01*
X14673603Y-1272428D01*
X14673601Y-1272424D01*
X14538113Y-1078926D01*
X14371073Y-911886D01*
X14177577Y-776399D01*
X13963489Y-676569D01*
X13750000Y-619364D01*
X13750000Y-1516988D01*
X13692993Y-1484075D01*
X13565826Y-1450000D01*
X13434174Y-1450000D01*
X13307007Y-1484075D01*
X13250000Y-1516988D01*
X13250000Y-619364D01*
X13036505Y-676570D01*
X12822432Y-776394D01*
X12822424Y-776398D01*
X12628926Y-911886D01*
X12461886Y-1078926D01*
X12326398Y-1272424D01*
X12326394Y-1272432D01*
X12226570Y-1486505D01*
X12169364Y-1700000D01*
X4620000Y-1700000D01*
X4500000Y-1400000D01*
X4100000Y-900000D01*
X3945493Y-776394D01*
X3672378Y-557902D01*
X3631563Y-525250D01*
X3600000Y-500000D01*
X3000000Y-300000D01*
X2478187Y-300000D01*
X2419996Y-281093D01*
X2384032Y-231593D01*
X2384032Y-170407D01*
X2419996Y-120907D01*
X2472210Y-102181D01*
X2497008Y-100681D01*
X2502985Y-100500D01*
X2526929Y-100500D01*
X51473071Y-100500D01*
X51497015Y-100500D01*
X51502992Y-100681D01*
G37*
%TD.AperFunction*%
%TD*%
D19*
X38362500Y-19712500D03*
X32450000Y-19375000D03*
X33250000Y-18400000D03*
X45975000Y-8690000D03*
X2220000Y-9120000D03*
X45075000Y-10950000D03*
X2680000Y-15980000D03*
X12075000Y-17400000D03*
X27100000Y-18425000D03*
X25175000Y-19250000D03*
X22300000Y-21500000D03*
X28575000Y-12425000D03*
X5625000Y-7375000D03*
X14700000Y-24075000D03*
X6160000Y-2010000D03*
X15650000Y-20850000D03*
X34850000Y-24200000D03*
X39825000Y-18350000D03*
X43525000Y-1575000D03*
X18925000Y-23800000D03*
X22350000Y-17150000D03*
X49025000Y-20825000D03*
X18425000Y-12450000D03*
X45375000Y-7500000D03*
X48200000Y-7175000D03*
X6275000Y-6175000D03*
X15800000Y-16074264D03*
X9275000Y-17950000D03*
X44338235Y-16436765D03*
X16900736Y-14874264D03*
X9887500Y-15662500D03*
X45295000Y-15230000D03*
X33125000Y-13375000D03*
X8037794Y-12712206D03*
X46275000Y-13770000D03*
X9700000Y-11500000D03*
X29741472Y-12850000D03*
X43550000Y-12150000D03*
X19275000Y-21675000D03*
X20475000Y-22950000D03*
X35950000Y-22000000D03*
X25150000Y-21700000D03*
X24550000Y-21075000D03*
X36455760Y-20480024D03*
X23550000Y-21825000D03*
X41025000Y-18000000D03*
X43850000Y-7450000D03*
X4130000Y-10650000D03*
D20*
X51500000Y-22500000D03*
X13500000Y-4490000D03*
X13500000Y-1950000D03*
X16040000Y-4490000D03*
X16040000Y-1950000D03*
X18580000Y-4490000D03*
X18580000Y-1950000D03*
X21120000Y-4490000D03*
X21120000Y-1950000D03*
X23660000Y-4490000D03*
X23660000Y-1950000D03*
X26200000Y-4490000D03*
X26200000Y-1950000D03*
X28740000Y-4490000D03*
X28740000Y-1950000D03*
X31280000Y-4490000D03*
X31280000Y-1950000D03*
X33820000Y-4490000D03*
X33820000Y-1950000D03*
X36360000Y-4490000D03*
X36360000Y-1950000D03*
X38900000Y-4490000D03*
X38900000Y-1950000D03*
X5850000Y-23600000D03*
X7850000Y-23600000D03*
X9850000Y-23600000D03*
X11850000Y-23600000D03*
X13500000Y-10690000D03*
X13500000Y-8150000D03*
X16040000Y-10690000D03*
X16040000Y-8150000D03*
X18580000Y-10690000D03*
X18580000Y-8150000D03*
X21120000Y-10690000D03*
X21120000Y-8150000D03*
X23660000Y-10690000D03*
X23660000Y-8150000D03*
X26200000Y-10690000D03*
X26200000Y-8150000D03*
X28740000Y-10690000D03*
X28740000Y-8150000D03*
X31280000Y-10690000D03*
X31280000Y-8150000D03*
X33820000Y-10690000D03*
X33820000Y-8150000D03*
X36360000Y-10690000D03*
X36360000Y-8150000D03*
X38900000Y-10690000D03*
X38900000Y-8150000D03*
X51500000Y-2550000D03*
X2500000Y-2500000D03*
X2500000Y-22500000D03*
M02*
