M48
; DRILL file {KiCad 8.0.7} date 2025-01-15T18:16:11+0000
; FORMAT={-:-/ absolute / inch / decimal}
; #@! TF.CreationDate,2025-01-15T18:16:11+00:00
; #@! TF.GenerationSoftware,Kicad,Pcbnew,8.0.7
; #@! TF.FileFunction,Plated,1,2,PTH
FMAT,2
INCH
; #@! TA.AperFunction,Plated,PTH,ViaDrill
T1C0.0118
; #@! TA.AperFunction,Plated,PTH,ComponentDrill
T2C0.0295
; #@! TA.AperFunction,Plated,PTH,ComponentDrill
T3C0.0394
%
G90
G05
T1
X0.0874Y-0.3591
X0.1055Y-0.6291
X0.1626Y-0.4193
X0.2215Y-0.2904
X0.2425Y-0.0791
X0.247Y-0.2431
X0.3164Y-0.5005
X0.3652Y-0.7067
X0.3819Y-0.4528
X0.3893Y-0.6166
X0.4754Y-0.685
X0.5787Y-0.9478
X0.6161Y-0.8209
X0.622Y-0.6328
X0.6654Y-0.5856
X0.7254Y-0.4902
X0.7451Y-0.937
X0.7589Y-0.8533
X0.8061Y-0.9035
X0.878Y-0.8465
X0.8799Y-0.6752
X0.9272Y-0.8593
X0.9665Y-0.8297
X0.9902Y-0.8543
X0.9911Y-0.7579
X1.0669Y-0.7254
X1.125Y-0.4892
X1.1709Y-0.5059
X1.2776Y-0.7628
X1.3041Y-0.5266
X1.3091Y-0.7244
X1.372Y-0.9528
X1.4154Y-0.8661
X1.4353Y-0.8063
X1.5103Y-0.7761
X1.5679Y-0.7224
X1.6152Y-0.7087
X1.7136Y-0.062
X1.7146Y-0.4783
X1.7264Y-0.2933
X1.7456Y-0.6471
X1.7746Y-0.4311
X1.7833Y-0.5996
X1.7864Y-0.2953
X1.81Y-0.3421
X1.8219Y-0.5421
X1.8976Y-0.2825
X1.9301Y-0.8199
T2
X0.2303Y-0.9291
X0.3091Y-0.9291
X0.3878Y-0.9291
X0.4665Y-0.9291
T3
X0.5315Y-0.0768
X0.5315Y-0.1768
X0.5315Y-0.3209
X0.5315Y-0.4209
X0.6315Y-0.0768
X0.6315Y-0.1768
X0.6315Y-0.3209
X0.6315Y-0.4209
X0.7315Y-0.0768
X0.7315Y-0.1768
X0.7315Y-0.3209
X0.7315Y-0.4209
X0.8315Y-0.0768
X0.8315Y-0.1768
X0.8315Y-0.3209
X0.8315Y-0.4209
X0.9315Y-0.0768
X0.9315Y-0.1768
X0.9315Y-0.3209
X0.9315Y-0.4209
X1.0315Y-0.0768
X1.0315Y-0.1768
X1.0315Y-0.3209
X1.0315Y-0.4209
X1.1315Y-0.0768
X1.1315Y-0.1768
X1.1315Y-0.3209
X1.1315Y-0.4209
X1.2315Y-0.0768
X1.2315Y-0.1768
X1.2315Y-0.3209
X1.2315Y-0.4209
X1.3315Y-0.0768
X1.3315Y-0.1768
X1.3315Y-0.3209
X1.3315Y-0.4209
X1.4315Y-0.0768
X1.4315Y-0.1768
X1.4315Y-0.3209
X1.4315Y-0.4209
X1.5315Y-0.0768
X1.5315Y-0.1768
X1.5315Y-0.3209
X1.5315Y-0.4209
M30
