%TF.GenerationSoftware,KiCad,Pcbnew,8.0.7-8.0.7-0~ubuntu24.04.1*%
%TF.CreationDate,2024-12-12T12:03:35+00:00*%
%TF.ProjectId,LedMatrix,4c65644d-6174-4726-9978-2e6b69636164,rev?*%
%TF.SameCoordinates,Original*%
%TF.FileFunction,Copper,L4,Bot*%
%TF.FilePolarity,Positive*%
%FSLAX46Y46*%
G04 Gerber Fmt 4.6, Leading zero omitted, Abs format (unit mm)*
G04 Created by KiCad (PCBNEW 8.0.7-8.0.7-0~ubuntu24.04.1) date 2024-12-12 12:03:35*
%MOMM*%
%LPD*%
G01*
G04 APERTURE LIST*
%TA.AperFunction,ComponentPad*%
%ADD10R,1.350000X1.350000*%
%TD*%
%TA.AperFunction,ComponentPad*%
%ADD11O,1.350000X1.350000*%
%TD*%
%TA.AperFunction,ViaPad*%
%ADD12C,0.600000*%
%TD*%
%TA.AperFunction,Conductor*%
%ADD13C,0.200000*%
%TD*%
%ADD14C,0.300000*%
%ADD15C,0.350000*%
G04 APERTURE END LIST*
D10*
%TO.P,J3,1,Pin_1*%
%TO.N,5V*%
X7210000Y-53370000D03*
D11*
%TO.P,J3,2,Pin_2*%
%TO.N,GND*%
X9210000Y-53370000D03*
%TO.P,J3,3,Pin_3*%
%TO.N,SWDIO*%
X11210000Y-53370000D03*
%TO.P,J3,4,Pin_4*%
%TO.N,SWDCLK*%
X13210000Y-53370000D03*
%TD*%
D12*
%TO.N,GND*%
X49540000Y-16930000D03*
X29460000Y-14730000D03*
X44860000Y-29890000D03*
X35150000Y-35110000D03*
X29820000Y-45280000D03*
X9530000Y-44970000D03*
X8930000Y-1500000D03*
X17310000Y-860000D03*
X14120000Y-14540000D03*
X26000000Y-1270000D03*
X34710000Y-19680000D03*
X44770000Y-24920000D03*
X39920000Y-29950000D03*
X23490000Y-1160000D03*
X54120000Y-7110000D03*
X49710000Y-20330000D03*
X38070000Y-3290000D03*
X14470000Y-45220000D03*
X24690000Y-45190000D03*
X9330000Y-40230000D03*
X14570000Y-34990000D03*
X44610000Y-14760000D03*
X53600000Y-39960000D03*
X45320000Y-51550000D03*
X14150000Y-19550000D03*
X14470000Y-40090000D03*
X23330000Y-3970000D03*
X14400000Y-9570000D03*
X3330000Y-23780000D03*
X19680000Y-40070000D03*
X14260000Y-29760000D03*
X53280000Y-31040000D03*
X39940000Y-14570000D03*
X29710000Y-34740000D03*
X13850000Y-12080000D03*
X24520000Y-34860000D03*
X18490000Y-53790000D03*
X3330000Y-42250000D03*
X39810000Y-45250000D03*
X19260000Y-14450000D03*
X3840000Y-49520000D03*
X19560000Y-19630000D03*
X1020000Y-13920000D03*
X24660000Y-14610000D03*
X9460000Y-24590000D03*
X9340000Y-34860000D03*
X47180000Y-22040000D03*
X53090000Y-20840000D03*
X52770000Y-49070000D03*
X48840000Y-32180000D03*
X48286987Y-11650000D03*
X29740000Y-24700000D03*
X29810000Y-29860000D03*
X30280000Y-53850000D03*
X34810000Y-40070000D03*
X44740000Y-9570000D03*
X44940000Y-45090000D03*
X29670000Y-19810000D03*
X44620000Y-34990000D03*
X40160000Y-40030000D03*
X1560000Y-8600000D03*
X36180000Y-12240000D03*
X24910000Y-24800000D03*
X24200000Y-12250000D03*
X35550000Y-2110000D03*
X9500000Y-29760000D03*
X14400000Y-24800000D03*
X24430000Y-29920000D03*
X34740000Y-45340000D03*
X24670000Y-9570000D03*
X26060000Y-3770000D03*
X29860000Y-9580000D03*
X39920000Y-9520000D03*
X24630000Y-40070000D03*
X8140000Y-3910000D03*
X4480000Y-17140000D03*
X5520000Y-38890000D03*
X44450000Y-38370000D03*
X35000000Y-29890000D03*
X44160000Y-12270000D03*
X34680000Y-9610000D03*
X1920000Y-4220000D03*
X47240000Y-43290000D03*
X29160000Y-12030000D03*
X19370000Y-45280000D03*
X19480000Y-34960000D03*
X29760000Y-40070000D03*
X19490000Y-24700000D03*
X34770000Y-14570000D03*
X39880000Y-24910000D03*
X3710000Y-31930000D03*
X24650000Y-19730000D03*
X48290000Y-3840000D03*
X9440000Y-19780000D03*
X30410000Y-830000D03*
X18710000Y-12340000D03*
X18530000Y-6560000D03*
X52581541Y-9658091D03*
X44670000Y-19680000D03*
X19640000Y-29920000D03*
X39950000Y-35020000D03*
X53290000Y-15220000D03*
X40040000Y-19730000D03*
X34410000Y-24700000D03*
X48690000Y-26990000D03*
%TO.N,MOSI*%
X17169265Y-6660000D03*
X51893883Y-12973175D03*
X3070000Y-13990000D03*
%TO.N,MISO*%
X50930000Y-12240000D03*
X15950000Y-5950000D03*
X2894885Y-12790000D03*
%TO.N,SCLK*%
X3020559Y-11587618D03*
X51470000Y-11000000D03*
X15100000Y-5060000D03*
%TO.N,PS*%
X51450000Y-9800000D03*
X32540000Y-4540000D03*
X3920000Y-10790000D03*
%TO.N,SWDIO*%
X19640000Y-8620000D03*
%TO.N,SWDCLK*%
X24200002Y-8620000D03*
%TO.N,LED_DATA*%
X20640000Y-3640000D03*
X15570000Y-3410000D03*
%TO.N,Net-(D8-DOUT)*%
X9080000Y-12250000D03*
X9010000Y-15140000D03*
%TO.N,Interrupt5V*%
X3940000Y-15190000D03*
X51186825Y-13963175D03*
%TD*%
D13*
%TO.N,GND*%
X10305686Y-4970000D02*
X13695686Y-4970000D01*
X50820000Y-10018529D02*
X51201471Y-10400000D01*
X2420559Y-11836147D02*
X2774412Y-12190000D01*
X3180000Y-10780000D02*
X3180000Y-10898529D01*
X45490100Y-5820000D02*
X50870000Y-11199900D01*
X2420559Y-11329441D02*
X2420559Y-11836147D01*
X51718529Y-10400000D02*
X52070000Y-10751471D01*
X2560000Y-11190000D02*
X2420559Y-11329441D01*
X19654314Y-4460000D02*
X20164314Y-4970000D01*
X14205686Y-4460000D02*
X19654314Y-4460000D01*
X19264314Y-5260000D02*
X20024314Y-6020000D01*
X16000000Y-6820000D02*
X13760000Y-6820000D01*
X2646356Y-13390000D02*
X2010000Y-12753644D01*
X50870000Y-11199900D02*
X50870000Y-11248529D01*
X19692942Y-6820000D02*
X19251471Y-6378529D01*
X28670000Y-4970000D02*
X28840000Y-5140000D01*
X10895636Y-6925637D02*
X4431273Y-13390000D01*
X35770000Y-5140000D02*
X35970000Y-4940000D01*
X51201471Y-10400000D02*
X51698529Y-10400000D01*
X52070000Y-10751471D02*
X52070000Y-11310000D01*
X2010000Y-12753644D02*
X2010000Y-12160000D01*
X16760000Y-6060000D02*
X16000000Y-6820000D01*
X28840000Y-5140000D02*
X35770000Y-5140000D01*
X4362645Y-14590000D02*
X2821471Y-14590000D01*
X51530000Y-11830000D02*
X51530000Y-12488529D01*
X48286987Y-10879631D02*
X47986521Y-10579165D01*
X15640000Y-7620000D02*
X11332645Y-7620000D01*
X3180000Y-10898529D02*
X3671471Y-11390000D01*
X51221471Y-11600000D02*
X51300000Y-11600000D01*
X49927207Y-11388479D02*
X45358728Y-6820000D01*
X2774412Y-12190000D02*
X4499901Y-12190000D01*
X11332645Y-7620000D02*
X8311322Y-10641323D01*
X19251471Y-6378529D02*
X19070000Y-6560000D01*
X51820000Y-11560000D02*
X51780000Y-11600000D01*
X14988529Y-6020000D02*
X15748529Y-5260000D01*
X19070000Y-6560000D02*
X18530000Y-6560000D01*
X51698529Y-10400000D02*
X51718529Y-10400000D01*
X13695686Y-4970000D02*
X14205686Y-4460000D01*
X47986521Y-10579165D02*
X45027356Y-7620000D01*
X20024314Y-6020000D02*
X44490000Y-6020000D01*
X43440000Y-7620000D02*
X15640000Y-7620000D01*
X48286987Y-11650000D02*
X48286987Y-10879631D01*
X50820000Y-9585686D02*
X50820000Y-10018529D01*
X49927207Y-11847207D02*
X49927207Y-11388479D01*
X45027356Y-7620000D02*
X43440000Y-7620000D01*
X15748529Y-5260000D02*
X19264314Y-5260000D01*
X50170000Y-12090000D02*
X49927207Y-11847207D01*
X13760000Y-6820000D02*
X11001273Y-6820000D01*
X4499901Y-12190000D02*
X10669901Y-6020000D01*
X54120000Y-7110000D02*
X54120000Y-7978529D01*
X18932942Y-6060000D02*
X16760000Y-6060000D01*
X44690000Y-5820000D02*
X45490100Y-5820000D01*
X2350000Y-14118529D02*
X2350000Y-13530000D01*
X2821471Y-14590000D02*
X2350000Y-14118529D01*
X4947843Y-10327843D02*
X10305686Y-4970000D01*
X4947843Y-10610686D02*
X4947843Y-10327843D01*
X19251471Y-6378529D02*
X18932942Y-6060000D01*
X11001273Y-6820000D02*
X10895636Y-6925637D01*
X45358728Y-6820000D02*
X19692942Y-6820000D01*
X50870000Y-11248529D02*
X51221471Y-11600000D01*
X51780000Y-11600000D02*
X51300000Y-11600000D01*
X54120000Y-7978529D02*
X51698529Y-10400000D01*
X4168529Y-11390000D02*
X4947843Y-10610686D01*
X8311322Y-10641323D02*
X4362645Y-14590000D01*
X50170000Y-12370000D02*
X50170000Y-12090000D01*
X44490000Y-6020000D02*
X44690000Y-5820000D01*
X46174314Y-4940000D02*
X50820000Y-9585686D01*
X35970000Y-4940000D02*
X46174314Y-4940000D01*
X51300000Y-11600000D02*
X51530000Y-11830000D01*
X20164314Y-4970000D02*
X28670000Y-4970000D01*
X51178529Y-12840000D02*
X50640000Y-12840000D01*
X10669901Y-6020000D02*
X14988529Y-6020000D01*
X15640000Y-7620000D02*
X15600000Y-7620000D01*
X3671471Y-11390000D02*
X4168529Y-11390000D01*
X50640000Y-12840000D02*
X50170000Y-12370000D01*
X51530000Y-12488529D02*
X51178529Y-12840000D01*
X52070000Y-11310000D02*
X51820000Y-11560000D01*
X4431273Y-13390000D02*
X2646356Y-13390000D01*
%TO.N,MOSI*%
X19770000Y-7220000D02*
X17729265Y-7220000D01*
X4396959Y-13990000D02*
X3070000Y-13990000D01*
X50230000Y-13240000D02*
X49527207Y-12537207D01*
X48386521Y-10413479D02*
X45193042Y-7220000D01*
X51627058Y-13240000D02*
X50230000Y-13240000D01*
X51893883Y-12973175D02*
X51627058Y-13240000D01*
X49527207Y-11554165D02*
X48386521Y-10413479D01*
X45193042Y-7220000D02*
X43860000Y-7220000D01*
X43860000Y-7220000D02*
X19770000Y-7220000D01*
X49527207Y-12537207D02*
X49527207Y-12012893D01*
X17729265Y-7220000D02*
X17169265Y-6660000D01*
X11166959Y-7220000D02*
X8218479Y-10168480D01*
X8218479Y-10168480D02*
X4396959Y-13990000D01*
X19770000Y-7220000D02*
X14380000Y-7220000D01*
X14380000Y-7220000D02*
X11166959Y-7220000D01*
X49527207Y-12012893D02*
X49527207Y-11554165D01*
%TO.N,MISO*%
X19858628Y-6420000D02*
X19098628Y-5660000D01*
X50327207Y-11222793D02*
X45524414Y-6420000D01*
X44324314Y-6420000D02*
X21170000Y-6420000D01*
X50930000Y-12240000D02*
X50327207Y-11637207D01*
X15480000Y-6420000D02*
X10835587Y-6420000D01*
X19098628Y-5660000D02*
X16240000Y-5660000D01*
X10835587Y-6420000D02*
X4465587Y-12790000D01*
X15950000Y-5950000D02*
X15480000Y-6420000D01*
X4465587Y-12790000D02*
X2894885Y-12790000D01*
X50327207Y-11637207D02*
X50327207Y-11222793D01*
X16240000Y-5660000D02*
X15950000Y-5950000D01*
X45524414Y-6420000D02*
X44324314Y-6420000D01*
X21170000Y-6420000D02*
X19858628Y-6420000D01*
%TO.N,SCLK*%
X35935686Y-5540000D02*
X36055686Y-5420000D01*
X15100000Y-5060000D02*
X15300000Y-4860000D01*
X10471372Y-5370000D02*
X13540000Y-5370000D01*
X14790000Y-5370000D02*
X15100000Y-5060000D01*
X3020559Y-11587618D02*
X3222941Y-11790000D01*
X36055686Y-5420000D02*
X46088628Y-5420000D01*
X5830000Y-10011372D02*
X10471372Y-5370000D01*
X13540000Y-5370000D02*
X14790000Y-5370000D01*
X4334215Y-11790000D02*
X5830000Y-10294215D01*
X46504314Y-5835686D02*
X46504314Y-6268528D01*
X3222941Y-11790000D02*
X4334215Y-11790000D01*
X19430000Y-4860000D02*
X20110000Y-5540000D01*
X46504314Y-6268528D02*
X51235786Y-11000000D01*
X15300000Y-4860000D02*
X19430000Y-4860000D01*
X20110000Y-5540000D02*
X35935686Y-5540000D01*
X5830000Y-10294215D02*
X5830000Y-10011372D01*
X46088628Y-5420000D02*
X46504314Y-5835686D01*
X51235786Y-11000000D02*
X51470000Y-11000000D01*
%TO.N,PS*%
X3920000Y-10790000D02*
X10140000Y-4570000D01*
X19820000Y-4060000D02*
X20330000Y-4570000D01*
X14040000Y-4060000D02*
X19820000Y-4060000D01*
X20330000Y-4570000D02*
X32510000Y-4570000D01*
X51450000Y-9650000D02*
X46340000Y-4540000D01*
X13530000Y-4570000D02*
X14040000Y-4060000D01*
X51450000Y-9800000D02*
X51450000Y-9650000D01*
X46340000Y-4540000D02*
X32540000Y-4540000D01*
X32510000Y-4570000D02*
X32540000Y-4540000D01*
X10140000Y-4570000D02*
X13530000Y-4570000D01*
%TO.N,SWDIO*%
X6170000Y-48330000D02*
X6170000Y-26084316D01*
X6170000Y-48330000D02*
X11210000Y-53370000D01*
X6170000Y-26084316D02*
X19640000Y-12614316D01*
X19640000Y-12614316D02*
X19640000Y-8620000D01*
%TO.N,SWDCLK*%
X6570000Y-46730000D02*
X13210000Y-53370000D01*
X6570000Y-26250002D02*
X6570000Y-46730000D01*
X24200002Y-8620000D02*
X6570000Y-26250002D01*
%TO.N,LED_DATA*%
X15800000Y-3640000D02*
X15570000Y-3410000D01*
X20640000Y-3640000D02*
X15800000Y-3640000D01*
%TO.N,Net-(D8-DOUT)*%
X9080000Y-12250000D02*
X9080000Y-15070000D01*
X9080000Y-15070000D02*
X9010000Y-15140000D01*
%TO.N,Interrupt5V*%
X4140000Y-14990000D02*
X3940000Y-15190000D01*
X17130000Y-8020000D02*
X11510000Y-8020000D01*
X11510000Y-8020000D02*
X11480000Y-8050000D01*
X44861670Y-8020000D02*
X43940000Y-8020000D01*
X48276825Y-13963175D02*
X47570835Y-13257185D01*
X47570835Y-13257185D02*
X47570835Y-10729165D01*
X51186825Y-13963175D02*
X48276825Y-13963175D01*
X11480000Y-8050000D02*
X4540000Y-14990000D01*
X4540000Y-14990000D02*
X4140000Y-14990000D01*
X43940000Y-8020000D02*
X17130000Y-8020000D01*
X46230835Y-9389165D02*
X44861670Y-8020000D01*
X47570835Y-10729165D02*
X46230835Y-9389165D01*
%TD*%
%TA.AperFunction,Conductor*%
%TO.N,GND*%
G36*
X52502992Y-100681D02*
G01*
X52783256Y-117633D01*
X52795111Y-119073D01*
X52958223Y-148964D01*
X52983638Y-153622D01*
X53037468Y-182709D01*
X53063920Y-237880D01*
X53052891Y-298064D01*
X53008593Y-340270D01*
X52965793Y-350000D01*
X51999997Y-350000D01*
X51299998Y-650000D01*
X50799999Y-1050000D01*
X50600005Y-1349990D01*
X50599998Y-1350002D01*
X50400001Y-1749996D01*
X50300000Y-2050000D01*
X50300000Y-3050002D01*
X50599997Y-3749995D01*
X50600000Y-3750000D01*
X50891627Y-4099953D01*
X51100000Y-4350000D01*
X51900000Y-4750000D01*
X52899998Y-4750000D01*
X52900000Y-4750000D01*
X53500000Y-4650000D01*
X54100000Y-4150000D01*
X54500000Y-3650000D01*
X54700000Y-2950000D01*
X54700000Y-2478186D01*
X54718907Y-2419995D01*
X54768407Y-2384031D01*
X54829593Y-2384031D01*
X54879093Y-2419995D01*
X54897819Y-2472209D01*
X54899319Y-2497007D01*
X54899500Y-2502984D01*
X54899500Y-52497015D01*
X54899319Y-52502993D01*
X54882366Y-52783251D01*
X54880925Y-52795118D01*
X54830854Y-53068346D01*
X54827993Y-53079954D01*
X54745353Y-53345154D01*
X54741114Y-53356332D01*
X54627107Y-53609646D01*
X54621551Y-53620231D01*
X54477849Y-53857944D01*
X54471058Y-53867783D01*
X54299749Y-54086443D01*
X54291822Y-54095392D01*
X54095392Y-54291822D01*
X54086443Y-54299749D01*
X53867783Y-54471058D01*
X53857944Y-54477849D01*
X53620231Y-54621551D01*
X53609646Y-54627107D01*
X53356332Y-54741114D01*
X53345154Y-54745353D01*
X53079954Y-54827993D01*
X53068346Y-54830854D01*
X52795118Y-54880925D01*
X52783251Y-54882366D01*
X52527790Y-54897819D01*
X52502991Y-54899319D01*
X52497015Y-54899500D01*
X2502985Y-54899500D01*
X2497008Y-54899319D01*
X2472210Y-54897819D01*
X2415267Y-54875433D01*
X2382357Y-54823852D01*
X2386051Y-54762778D01*
X2424938Y-54715540D01*
X2478187Y-54700000D01*
X2899998Y-54700000D01*
X2900000Y-54700000D01*
X3500000Y-54600000D01*
X4100000Y-54100000D01*
X4500000Y-53600000D01*
X4700000Y-52900000D01*
X4700000Y-52675253D01*
X6334500Y-52675253D01*
X6334500Y-54064746D01*
X6334501Y-54064758D01*
X6346132Y-54123227D01*
X6346134Y-54123233D01*
X6352249Y-54132384D01*
X6390448Y-54189552D01*
X6456769Y-54233867D01*
X6501231Y-54242711D01*
X6515241Y-54245498D01*
X6515246Y-54245498D01*
X6515252Y-54245500D01*
X6515253Y-54245500D01*
X7904747Y-54245500D01*
X7904748Y-54245500D01*
X7963231Y-54233867D01*
X8029552Y-54189552D01*
X8073867Y-54123231D01*
X8085500Y-54064748D01*
X8085500Y-53270000D01*
X8340691Y-53270000D01*
X8848566Y-53270000D01*
X8835000Y-53320630D01*
X8835000Y-53419370D01*
X8848566Y-53470000D01*
X8340691Y-53470000D01*
X8349406Y-53552926D01*
X8406246Y-53727859D01*
X8406246Y-53727860D01*
X8498210Y-53887143D01*
X8621286Y-54023834D01*
X8770088Y-54131944D01*
X8770097Y-54131949D01*
X8938118Y-54206757D01*
X8938123Y-54206759D01*
X9110000Y-54243291D01*
X9110000Y-53731433D01*
X9160630Y-53745000D01*
X9259370Y-53745000D01*
X9310000Y-53731433D01*
X9310000Y-54243291D01*
X9481876Y-54206759D01*
X9481881Y-54206757D01*
X9649902Y-54131949D01*
X9649911Y-54131944D01*
X9798713Y-54023834D01*
X9921789Y-53887143D01*
X10013753Y-53727860D01*
X10013753Y-53727859D01*
X10070593Y-53552926D01*
X10079309Y-53470000D01*
X9571434Y-53470000D01*
X9585000Y-53419370D01*
X9585000Y-53320630D01*
X9571434Y-53270000D01*
X10079309Y-53270000D01*
X10070593Y-53187073D01*
X10013753Y-53012140D01*
X10013753Y-53012139D01*
X9921789Y-52852856D01*
X9798713Y-52716165D01*
X9649911Y-52608055D01*
X9649902Y-52608050D01*
X9481881Y-52533242D01*
X9481875Y-52533240D01*
X9310000Y-52496707D01*
X9310000Y-53008566D01*
X9259370Y-52995000D01*
X9160630Y-52995000D01*
X9110000Y-53008566D01*
X9110000Y-52496707D01*
X8938124Y-52533240D01*
X8938118Y-52533242D01*
X8770097Y-52608050D01*
X8770088Y-52608055D01*
X8621286Y-52716165D01*
X8498210Y-52852856D01*
X8406246Y-53012139D01*
X8406246Y-53012140D01*
X8349406Y-53187073D01*
X8340691Y-53270000D01*
X8085500Y-53270000D01*
X8085500Y-52675252D01*
X8073867Y-52616769D01*
X8029552Y-52550448D01*
X8029548Y-52550445D01*
X7963233Y-52506134D01*
X7963231Y-52506133D01*
X7963228Y-52506132D01*
X7963227Y-52506132D01*
X7904758Y-52494501D01*
X7904748Y-52494500D01*
X6515252Y-52494500D01*
X6515251Y-52494500D01*
X6515241Y-52494501D01*
X6456772Y-52506132D01*
X6456766Y-52506134D01*
X6390451Y-52550445D01*
X6390445Y-52550451D01*
X6346134Y-52616766D01*
X6346132Y-52616772D01*
X6334501Y-52675241D01*
X6334500Y-52675253D01*
X4700000Y-52675253D01*
X4700000Y-51900000D01*
X4500000Y-51400000D01*
X4100000Y-50900000D01*
X3600000Y-50500000D01*
X3000000Y-50300000D01*
X2000000Y-50300000D01*
X1999997Y-50300000D01*
X1299998Y-50600000D01*
X799999Y-51000000D01*
X600005Y-51299990D01*
X599998Y-51300002D01*
X400001Y-51699996D01*
X300000Y-52000000D01*
X300000Y-52521813D01*
X281093Y-52580004D01*
X231593Y-52615968D01*
X170407Y-52615968D01*
X120907Y-52580004D01*
X102181Y-52527790D01*
X100681Y-52502992D01*
X100500Y-52497015D01*
X100500Y-13989997D01*
X2564353Y-13989997D01*
X2564353Y-13990002D01*
X2584834Y-14132456D01*
X2629592Y-14230460D01*
X2644623Y-14263373D01*
X2715628Y-14345318D01*
X2738873Y-14372144D01*
X2818206Y-14423128D01*
X2859947Y-14449953D01*
X2966403Y-14481211D01*
X2998035Y-14490499D01*
X2998036Y-14490499D01*
X2998039Y-14490500D01*
X2998041Y-14490500D01*
X3141959Y-14490500D01*
X3141961Y-14490500D01*
X3280053Y-14449953D01*
X3401128Y-14372143D01*
X3442264Y-14324668D01*
X3494660Y-14293073D01*
X3517083Y-14290500D01*
X4436522Y-14290500D01*
X4436522Y-14290499D01*
X4512948Y-14270021D01*
X4581470Y-14230460D01*
X4637419Y-14174511D01*
X8458939Y-10352991D01*
X11262434Y-7549496D01*
X11316951Y-7521719D01*
X11332438Y-7520500D01*
X14340438Y-7520500D01*
X17689703Y-7520500D01*
X17768827Y-7520500D01*
X19730438Y-7520500D01*
X43820438Y-7520500D01*
X45027563Y-7520500D01*
X45085754Y-7539407D01*
X45097567Y-7549496D01*
X49197711Y-11649640D01*
X49225488Y-11704157D01*
X49226707Y-11719644D01*
X49226707Y-12576771D01*
X49247184Y-12653192D01*
X49247186Y-12653197D01*
X49270253Y-12693151D01*
X49270254Y-12693151D01*
X49270255Y-12693153D01*
X49286747Y-12721718D01*
X49989540Y-13424511D01*
X49989539Y-13424511D01*
X50045490Y-13480462D01*
X50050635Y-13484409D01*
X50048939Y-13486618D01*
X50082067Y-13523417D01*
X50088457Y-13584267D01*
X50057859Y-13637253D01*
X50001961Y-13662134D01*
X49991622Y-13662675D01*
X48442304Y-13662675D01*
X48384113Y-13643768D01*
X48372300Y-13633679D01*
X47900331Y-13161710D01*
X47872554Y-13107193D01*
X47871335Y-13091706D01*
X47871335Y-10689602D01*
X47871334Y-10689600D01*
X47850856Y-10613176D01*
X47850854Y-10613172D01*
X47811295Y-10544654D01*
X47755346Y-10488704D01*
X47755346Y-10488705D01*
X46415346Y-9148705D01*
X45744184Y-8477543D01*
X45046181Y-7779540D01*
X45046178Y-7779538D01*
X45029620Y-7769978D01*
X45029620Y-7769977D01*
X44977660Y-7739979D01*
X44977655Y-7739977D01*
X44901234Y-7719500D01*
X44901232Y-7719500D01*
X43979562Y-7719500D01*
X17169562Y-7719500D01*
X11470438Y-7719500D01*
X11470435Y-7719500D01*
X11394014Y-7739977D01*
X11394009Y-7739979D01*
X11342049Y-7769977D01*
X11342050Y-7769978D01*
X11325491Y-7779538D01*
X4444525Y-14660504D01*
X4390008Y-14688281D01*
X4374521Y-14689500D01*
X4179562Y-14689500D01*
X4100438Y-14689500D01*
X4081018Y-14694702D01*
X4027509Y-14694065D01*
X4011963Y-14689500D01*
X4011961Y-14689500D01*
X3868039Y-14689500D01*
X3868035Y-14689500D01*
X3729949Y-14730046D01*
X3729942Y-14730049D01*
X3608873Y-14807855D01*
X3514622Y-14916628D01*
X3454834Y-15047543D01*
X3434353Y-15189997D01*
X3434353Y-15190002D01*
X3454834Y-15332456D01*
X3514622Y-15463371D01*
X3514623Y-15463373D01*
X3565548Y-15522144D01*
X3608873Y-15572144D01*
X3729942Y-15649950D01*
X3729947Y-15649953D01*
X3836403Y-15681211D01*
X3868035Y-15690499D01*
X3868036Y-15690499D01*
X3868039Y-15690500D01*
X3868041Y-15690500D01*
X4011959Y-15690500D01*
X4011961Y-15690500D01*
X4150053Y-15649953D01*
X4271128Y-15572143D01*
X4365377Y-15463373D01*
X4417896Y-15348372D01*
X4459268Y-15303296D01*
X4507949Y-15290500D01*
X4579563Y-15290500D01*
X4579563Y-15290499D01*
X4655989Y-15270021D01*
X4724511Y-15230460D01*
X4780460Y-15174511D01*
X4814974Y-15139997D01*
X8504353Y-15139997D01*
X8504353Y-15140002D01*
X8524834Y-15282456D01*
X8584622Y-15413371D01*
X8584623Y-15413373D01*
X8627947Y-15463372D01*
X8678873Y-15522144D01*
X8756675Y-15572144D01*
X8799947Y-15599953D01*
X8906403Y-15631211D01*
X8938035Y-15640499D01*
X8938036Y-15640499D01*
X8938039Y-15640500D01*
X8938041Y-15640500D01*
X9081959Y-15640500D01*
X9081961Y-15640500D01*
X9220053Y-15599953D01*
X9341128Y-15522143D01*
X9435377Y-15413373D01*
X9495165Y-15282457D01*
X9515647Y-15140000D01*
X9495165Y-14997543D01*
X9435377Y-14866627D01*
X9404679Y-14831199D01*
X9380863Y-14774841D01*
X9380500Y-14766370D01*
X9380500Y-12703893D01*
X9399407Y-12645702D01*
X9406741Y-12637711D01*
X9406491Y-12637494D01*
X9419793Y-12622143D01*
X9505377Y-12523373D01*
X9565165Y-12392457D01*
X9585647Y-12250000D01*
X9584209Y-12240000D01*
X9565165Y-12107543D01*
X9556293Y-12088117D01*
X9505377Y-11976627D01*
X9411128Y-11867857D01*
X9411127Y-11867856D01*
X9411126Y-11867855D01*
X9290057Y-11790049D01*
X9290054Y-11790047D01*
X9290053Y-11790047D01*
X9290050Y-11790046D01*
X9151964Y-11749500D01*
X9151961Y-11749500D01*
X9008039Y-11749500D01*
X9008035Y-11749500D01*
X8869949Y-11790046D01*
X8869942Y-11790049D01*
X8748873Y-11867855D01*
X8654622Y-11976628D01*
X8594834Y-12107543D01*
X8574353Y-12249997D01*
X8574353Y-12250002D01*
X8594834Y-12392456D01*
X8639311Y-12489845D01*
X8654623Y-12523373D01*
X8713249Y-12591032D01*
X8753509Y-12637494D01*
X8751471Y-12639259D01*
X8776925Y-12681458D01*
X8779500Y-12703893D01*
X8779500Y-14639128D01*
X8760593Y-14697319D01*
X8734025Y-14722411D01*
X8678873Y-14757856D01*
X8584622Y-14866628D01*
X8524834Y-14997543D01*
X8504353Y-15139997D01*
X4814974Y-15139997D01*
X11605475Y-8349496D01*
X11659992Y-8321719D01*
X11675479Y-8320500D01*
X17090438Y-8320500D01*
X19072507Y-8320500D01*
X19130698Y-8339407D01*
X19166662Y-8388907D01*
X19166662Y-8450093D01*
X19162560Y-8460627D01*
X19154834Y-8477543D01*
X19134353Y-8619997D01*
X19134353Y-8620002D01*
X19154834Y-8762456D01*
X19214623Y-8893373D01*
X19313509Y-9007494D01*
X19311471Y-9009259D01*
X19336925Y-9051458D01*
X19339500Y-9073893D01*
X19339500Y-12448837D01*
X19320593Y-12507028D01*
X19310504Y-12518841D01*
X5985489Y-25843856D01*
X5985488Y-25843855D01*
X5929539Y-25899805D01*
X5889980Y-25968323D01*
X5889978Y-25968327D01*
X5869500Y-26044751D01*
X5869500Y-48369564D01*
X5889978Y-48445988D01*
X5889980Y-48445992D01*
X5929538Y-48514508D01*
X5929540Y-48514511D01*
X8315025Y-50899996D01*
X10368083Y-52953054D01*
X10395860Y-53007571D01*
X10392234Y-53053649D01*
X10348915Y-53186971D01*
X10329678Y-53370000D01*
X10348904Y-53552926D01*
X10348916Y-53553034D01*
X10405784Y-53728054D01*
X10405790Y-53728068D01*
X10424165Y-53759893D01*
X10497805Y-53887440D01*
X10620950Y-54024207D01*
X10769839Y-54132381D01*
X10769843Y-54132383D01*
X10769845Y-54132384D01*
X10825485Y-54157156D01*
X10937966Y-54207236D01*
X11117981Y-54245500D01*
X11117983Y-54245500D01*
X11302017Y-54245500D01*
X11302019Y-54245500D01*
X11482034Y-54207236D01*
X11650161Y-54132381D01*
X11799050Y-54024207D01*
X11922195Y-53887440D01*
X12014214Y-53728059D01*
X12071085Y-53553029D01*
X12090322Y-53370000D01*
X12071085Y-53186971D01*
X12014214Y-53011941D01*
X12014211Y-53011936D01*
X12014209Y-53011931D01*
X11966935Y-52930052D01*
X11922195Y-52852560D01*
X11799050Y-52715793D01*
X11650161Y-52607619D01*
X11650157Y-52607617D01*
X11650154Y-52607615D01*
X11500582Y-52541022D01*
X11482034Y-52532764D01*
X11482031Y-52532763D01*
X11482030Y-52532763D01*
X11430514Y-52521813D01*
X11302019Y-52494500D01*
X11117981Y-52494500D01*
X11020797Y-52515157D01*
X10937969Y-52532763D01*
X10937959Y-52532766D01*
X10903091Y-52548290D01*
X10842241Y-52554684D01*
X10792823Y-52527852D01*
X6499496Y-48234525D01*
X6471719Y-48180008D01*
X6470500Y-48164521D01*
X6470500Y-47294479D01*
X6489407Y-47236288D01*
X6538907Y-47200324D01*
X6600093Y-47200324D01*
X6639504Y-47224475D01*
X12368083Y-52953054D01*
X12395860Y-53007571D01*
X12392234Y-53053649D01*
X12348915Y-53186971D01*
X12329678Y-53370000D01*
X12348904Y-53552926D01*
X12348916Y-53553034D01*
X12405784Y-53728054D01*
X12405790Y-53728068D01*
X12424165Y-53759893D01*
X12497805Y-53887440D01*
X12620950Y-54024207D01*
X12769839Y-54132381D01*
X12769843Y-54132383D01*
X12769845Y-54132384D01*
X12825485Y-54157156D01*
X12937966Y-54207236D01*
X13117981Y-54245500D01*
X13117983Y-54245500D01*
X13302017Y-54245500D01*
X13302019Y-54245500D01*
X13482034Y-54207236D01*
X13650161Y-54132381D01*
X13799050Y-54024207D01*
X13922195Y-53887440D01*
X14014214Y-53728059D01*
X14071085Y-53553029D01*
X14090322Y-53370000D01*
X14071085Y-53186971D01*
X14014214Y-53011941D01*
X14014211Y-53011936D01*
X14014209Y-53011931D01*
X13966935Y-52930052D01*
X13922195Y-52852560D01*
X13799050Y-52715793D01*
X13650161Y-52607619D01*
X13650157Y-52607617D01*
X13650154Y-52607615D01*
X13500582Y-52541022D01*
X13482034Y-52532764D01*
X13482031Y-52532763D01*
X13482030Y-52532763D01*
X13430514Y-52521813D01*
X13302019Y-52494500D01*
X13117981Y-52494500D01*
X13020797Y-52515157D01*
X12937969Y-52532763D01*
X12937959Y-52532766D01*
X12903091Y-52548290D01*
X12842241Y-52554684D01*
X12792823Y-52527852D01*
X6899496Y-46634525D01*
X6871719Y-46580008D01*
X6870500Y-46564521D01*
X6870500Y-26415480D01*
X6889407Y-26357289D01*
X6899490Y-26345482D01*
X24095476Y-9149495D01*
X24149993Y-9121719D01*
X24165480Y-9120500D01*
X24271961Y-9120500D01*
X24271963Y-9120500D01*
X24410055Y-9079953D01*
X24531130Y-9002143D01*
X24625379Y-8893373D01*
X24685167Y-8762457D01*
X24695508Y-8690534D01*
X24705649Y-8620002D01*
X24705649Y-8619997D01*
X24685167Y-8477543D01*
X24677442Y-8460627D01*
X24670467Y-8399840D01*
X24700553Y-8346563D01*
X24756209Y-8321145D01*
X24767495Y-8320500D01*
X43900438Y-8320500D01*
X44696191Y-8320500D01*
X44754382Y-8339407D01*
X44766195Y-8349496D01*
X47241339Y-10824640D01*
X47269116Y-10879157D01*
X47270335Y-10894644D01*
X47270335Y-13296749D01*
X47290812Y-13373170D01*
X47290812Y-13373171D01*
X47290814Y-13373174D01*
X47320453Y-13424511D01*
X47330375Y-13441696D01*
X48092314Y-14203635D01*
X48092316Y-14203636D01*
X48092318Y-14203638D01*
X48160833Y-14243195D01*
X48160831Y-14243195D01*
X48160835Y-14243196D01*
X48160837Y-14243197D01*
X48237263Y-14263675D01*
X50739742Y-14263675D01*
X50797933Y-14282582D01*
X50814558Y-14297842D01*
X50855697Y-14345318D01*
X50976772Y-14423128D01*
X51068131Y-14449953D01*
X51114860Y-14463674D01*
X51114861Y-14463674D01*
X51114864Y-14463675D01*
X51114866Y-14463675D01*
X51258784Y-14463675D01*
X51258786Y-14463675D01*
X51396878Y-14423128D01*
X51517953Y-14345318D01*
X51612202Y-14236548D01*
X51671990Y-14105632D01*
X51692472Y-13963175D01*
X51671990Y-13820718D01*
X51612202Y-13689802D01*
X51612198Y-13689797D01*
X51611641Y-13688930D01*
X51611420Y-13688089D01*
X51609261Y-13683362D01*
X51610079Y-13682988D01*
X51596088Y-13629754D01*
X51618287Y-13572738D01*
X51669300Y-13539781D01*
X51743047Y-13520021D01*
X51743050Y-13520019D01*
X51743051Y-13520019D01*
X51800348Y-13486939D01*
X51849848Y-13473675D01*
X51965842Y-13473675D01*
X51965844Y-13473675D01*
X52103936Y-13433128D01*
X52225011Y-13355318D01*
X52319260Y-13246548D01*
X52379048Y-13115632D01*
X52399530Y-12973175D01*
X52394688Y-12939500D01*
X52379048Y-12830718D01*
X52360453Y-12790002D01*
X52319260Y-12699802D01*
X52225011Y-12591032D01*
X52225010Y-12591031D01*
X52225009Y-12591030D01*
X52103940Y-12513224D01*
X52103937Y-12513222D01*
X52103936Y-12513222D01*
X52103933Y-12513221D01*
X51965847Y-12472675D01*
X51965844Y-12472675D01*
X51821922Y-12472675D01*
X51821918Y-12472675D01*
X51683832Y-12513221D01*
X51683825Y-12513224D01*
X51562756Y-12591030D01*
X51468505Y-12699803D01*
X51408717Y-12830718D01*
X51405285Y-12854590D01*
X51378289Y-12909497D01*
X51324174Y-12938050D01*
X51307293Y-12939500D01*
X50395479Y-12939500D01*
X50337288Y-12920593D01*
X50325475Y-12910504D01*
X49856703Y-12441732D01*
X49828926Y-12387215D01*
X49827707Y-12371728D01*
X49827707Y-11514604D01*
X49827706Y-11514600D01*
X49817888Y-11477955D01*
X49817888Y-11477954D01*
X49807229Y-11438177D01*
X49807227Y-11438173D01*
X49767670Y-11369658D01*
X49767669Y-11369657D01*
X49767668Y-11369656D01*
X49767667Y-11369654D01*
X48571032Y-10173019D01*
X45377553Y-6979540D01*
X45362494Y-6970846D01*
X45321355Y-6947094D01*
X45321355Y-6947093D01*
X45321353Y-6947093D01*
X45309032Y-6939979D01*
X45309030Y-6939978D01*
X45232606Y-6919500D01*
X45232604Y-6919500D01*
X43899562Y-6919500D01*
X19809562Y-6919500D01*
X17894744Y-6919500D01*
X17836553Y-6900593D01*
X17824740Y-6890504D01*
X17699811Y-6765575D01*
X17672034Y-6711058D01*
X17671823Y-6681482D01*
X17674912Y-6660000D01*
X17654430Y-6517543D01*
X17594642Y-6386627D01*
X17500393Y-6277857D01*
X17500392Y-6277856D01*
X17500391Y-6277855D01*
X17379322Y-6200049D01*
X17379319Y-6200047D01*
X17379318Y-6200047D01*
X17379315Y-6200046D01*
X17241229Y-6159500D01*
X17241226Y-6159500D01*
X17097304Y-6159500D01*
X17097300Y-6159500D01*
X16959214Y-6200046D01*
X16959207Y-6200049D01*
X16838138Y-6277855D01*
X16743887Y-6386628D01*
X16684099Y-6517543D01*
X16663618Y-6659997D01*
X16663618Y-6660002D01*
X16684668Y-6806411D01*
X16674235Y-6866700D01*
X16630357Y-6909343D01*
X16586676Y-6919500D01*
X11127394Y-6919500D01*
X11050970Y-6939978D01*
X11050966Y-6939980D01*
X11038645Y-6947093D01*
X11038646Y-6947094D01*
X10982449Y-6979539D01*
X4301484Y-13660504D01*
X4246967Y-13688281D01*
X4231480Y-13689500D01*
X3517083Y-13689500D01*
X3458892Y-13670593D01*
X3442264Y-13655331D01*
X3432245Y-13643768D01*
X3401128Y-13607857D01*
X3346482Y-13572738D01*
X3280057Y-13530049D01*
X3280054Y-13530047D01*
X3280053Y-13530047D01*
X3280050Y-13530046D01*
X3141964Y-13489500D01*
X3141961Y-13489500D01*
X2998039Y-13489500D01*
X2998035Y-13489500D01*
X2859949Y-13530046D01*
X2859942Y-13530049D01*
X2738873Y-13607855D01*
X2644622Y-13716628D01*
X2584834Y-13847543D01*
X2564353Y-13989997D01*
X100500Y-13989997D01*
X100500Y-12789997D01*
X2389238Y-12789997D01*
X2389238Y-12790002D01*
X2409719Y-12932456D01*
X2454477Y-13030460D01*
X2469508Y-13063373D01*
X2522621Y-13124669D01*
X2563758Y-13172144D01*
X2684827Y-13249950D01*
X2684832Y-13249953D01*
X2791288Y-13281211D01*
X2822920Y-13290499D01*
X2822921Y-13290499D01*
X2822924Y-13290500D01*
X2822926Y-13290500D01*
X2966844Y-13290500D01*
X2966846Y-13290500D01*
X3104938Y-13249953D01*
X3226013Y-13172143D01*
X3267149Y-13124668D01*
X3319545Y-13093073D01*
X3341968Y-13090500D01*
X4505150Y-13090500D01*
X4505150Y-13090499D01*
X4581576Y-13070021D01*
X4650098Y-13030460D01*
X4706047Y-12974511D01*
X10931062Y-6749496D01*
X10985579Y-6721719D01*
X11001066Y-6720500D01*
X15519563Y-6720500D01*
X15519563Y-6720499D01*
X15595989Y-6700021D01*
X15664511Y-6660460D01*
X15720460Y-6604511D01*
X15845473Y-6479496D01*
X15899990Y-6451719D01*
X15915477Y-6450500D01*
X16021959Y-6450500D01*
X16021961Y-6450500D01*
X16160053Y-6409953D01*
X16281128Y-6332143D01*
X16375377Y-6223373D01*
X16435165Y-6092457D01*
X16441929Y-6045409D01*
X16468924Y-5990504D01*
X16523038Y-5961950D01*
X16539921Y-5960500D01*
X18933149Y-5960500D01*
X18991340Y-5979407D01*
X19003153Y-5989496D01*
X19618168Y-6604511D01*
X19618167Y-6604511D01*
X19674117Y-6660460D01*
X19742635Y-6700019D01*
X19742639Y-6700021D01*
X19819063Y-6720499D01*
X19819065Y-6720500D01*
X19819066Y-6720500D01*
X21130438Y-6720500D01*
X44284752Y-6720500D01*
X45358935Y-6720500D01*
X45417126Y-6739407D01*
X45428939Y-6749496D01*
X49997711Y-11318268D01*
X50025488Y-11372785D01*
X50026707Y-11388272D01*
X50026707Y-11676771D01*
X50047185Y-11753193D01*
X50047186Y-11753196D01*
X50068461Y-11790046D01*
X50068462Y-11790048D01*
X50086746Y-11821717D01*
X50399453Y-12134425D01*
X50427230Y-12188941D01*
X50427441Y-12218514D01*
X50424354Y-12239997D01*
X50424353Y-12240002D01*
X50444834Y-12382456D01*
X50504554Y-12513222D01*
X50504623Y-12513373D01*
X50598872Y-12622143D01*
X50598873Y-12622144D01*
X50719942Y-12699950D01*
X50719947Y-12699953D01*
X50794073Y-12721718D01*
X50858035Y-12740499D01*
X50858036Y-12740499D01*
X50858039Y-12740500D01*
X50858041Y-12740500D01*
X51001959Y-12740500D01*
X51001961Y-12740500D01*
X51140053Y-12699953D01*
X51261128Y-12622143D01*
X51355377Y-12513373D01*
X51415165Y-12382457D01*
X51428530Y-12289500D01*
X51435647Y-12240002D01*
X51435647Y-12239997D01*
X51415165Y-12097543D01*
X51359944Y-11976628D01*
X51355377Y-11966627D01*
X51261128Y-11857857D01*
X51261127Y-11857856D01*
X51261126Y-11857855D01*
X51140057Y-11780049D01*
X51140054Y-11780047D01*
X51140053Y-11780047D01*
X51140050Y-11780046D01*
X51001964Y-11739500D01*
X51001961Y-11739500D01*
X50895479Y-11739500D01*
X50837288Y-11720593D01*
X50825475Y-11710504D01*
X50656703Y-11541732D01*
X50628926Y-11487215D01*
X50627707Y-11471728D01*
X50627707Y-11183230D01*
X50627706Y-11183228D01*
X50612817Y-11127664D01*
X50607228Y-11106804D01*
X50595862Y-11087118D01*
X50567667Y-11038282D01*
X50511718Y-10982332D01*
X50511718Y-10982333D01*
X45708925Y-6179540D01*
X45708922Y-6179538D01*
X45640406Y-6139980D01*
X45640402Y-6139978D01*
X45563978Y-6119500D01*
X45563976Y-6119500D01*
X44363876Y-6119500D01*
X21209562Y-6119500D01*
X20024107Y-6119500D01*
X19965916Y-6100593D01*
X19954103Y-6090504D01*
X19639588Y-5775989D01*
X19283139Y-5419540D01*
X19283136Y-5419538D01*
X19214620Y-5379980D01*
X19214616Y-5379978D01*
X19138192Y-5359500D01*
X19138190Y-5359500D01*
X16200438Y-5359500D01*
X16200435Y-5359500D01*
X16124011Y-5379978D01*
X16124007Y-5379980D01*
X16055491Y-5419538D01*
X16055489Y-5419539D01*
X16055489Y-5419540D01*
X16054523Y-5420505D01*
X16053650Y-5420949D01*
X16050339Y-5423491D01*
X16049868Y-5422877D01*
X16000009Y-5448281D01*
X15984522Y-5449500D01*
X15878035Y-5449500D01*
X15739949Y-5490046D01*
X15739942Y-5490049D01*
X15618873Y-5567855D01*
X15524622Y-5676628D01*
X15464834Y-5807543D01*
X15444353Y-5949996D01*
X15444353Y-5949998D01*
X15444353Y-5950000D01*
X15447442Y-5971483D01*
X15437007Y-6031772D01*
X15419455Y-6055573D01*
X15384525Y-6090503D01*
X15330012Y-6118281D01*
X15314522Y-6119500D01*
X10796022Y-6119500D01*
X10719598Y-6139978D01*
X10719594Y-6139980D01*
X10651078Y-6179538D01*
X4370112Y-12460504D01*
X4315595Y-12488281D01*
X4300108Y-12489500D01*
X3341968Y-12489500D01*
X3283777Y-12470593D01*
X3267149Y-12455331D01*
X3261522Y-12448837D01*
X3226013Y-12407857D01*
X3169795Y-12371728D01*
X3104942Y-12330049D01*
X3104939Y-12330047D01*
X3104938Y-12330047D01*
X3104935Y-12330046D01*
X2966849Y-12289500D01*
X2966846Y-12289500D01*
X2822924Y-12289500D01*
X2822920Y-12289500D01*
X2684834Y-12330046D01*
X2684827Y-12330049D01*
X2563758Y-12407855D01*
X2469507Y-12516628D01*
X2409719Y-12647543D01*
X2389238Y-12789997D01*
X100500Y-12789997D01*
X100500Y-11587615D01*
X2514912Y-11587615D01*
X2514912Y-11587620D01*
X2535393Y-11730074D01*
X2577246Y-11821717D01*
X2595182Y-11860991D01*
X2686716Y-11966628D01*
X2689432Y-11969762D01*
X2810501Y-12047568D01*
X2810506Y-12047571D01*
X2886958Y-12070019D01*
X2948594Y-12088117D01*
X2948595Y-12088117D01*
X2948598Y-12088118D01*
X2948600Y-12088118D01*
X3092517Y-12088118D01*
X3092520Y-12088118D01*
X3104960Y-12084464D01*
X3158480Y-12083828D01*
X3171802Y-12087397D01*
X3183378Y-12090500D01*
X3183379Y-12090500D01*
X4373778Y-12090500D01*
X4373778Y-12090499D01*
X4450204Y-12070021D01*
X4518726Y-12030460D01*
X4574675Y-11974511D01*
X6070460Y-10478726D01*
X6085289Y-10453041D01*
X6110021Y-10410204D01*
X6130500Y-10333777D01*
X6130500Y-10176851D01*
X6149407Y-10118660D01*
X6159496Y-10106847D01*
X10566847Y-5699496D01*
X10621364Y-5671719D01*
X10636851Y-5670500D01*
X14829563Y-5670500D01*
X14829563Y-5670499D01*
X14905989Y-5650021D01*
X14974511Y-5610460D01*
X14995475Y-5589495D01*
X15049991Y-5561719D01*
X15065478Y-5560500D01*
X15171959Y-5560500D01*
X15171961Y-5560500D01*
X15310053Y-5519953D01*
X15431128Y-5442143D01*
X15525377Y-5333373D01*
X15577896Y-5218372D01*
X15619268Y-5173296D01*
X15667949Y-5160500D01*
X19264521Y-5160500D01*
X19322712Y-5179407D01*
X19334525Y-5189496D01*
X19869540Y-5724511D01*
X19869539Y-5724511D01*
X19925489Y-5780460D01*
X19994007Y-5820019D01*
X19994011Y-5820021D01*
X20070435Y-5840499D01*
X20070437Y-5840500D01*
X20070438Y-5840500D01*
X35975249Y-5840500D01*
X35975249Y-5840499D01*
X36051675Y-5820021D01*
X36120197Y-5780460D01*
X36151162Y-5749495D01*
X36205679Y-5721719D01*
X36221165Y-5720500D01*
X45923149Y-5720500D01*
X45981340Y-5739407D01*
X45993153Y-5749496D01*
X46174818Y-5931161D01*
X46202595Y-5985678D01*
X46203814Y-6001165D01*
X46203814Y-6308092D01*
X46224291Y-6384513D01*
X46224293Y-6384517D01*
X46262388Y-6450500D01*
X46263854Y-6453039D01*
X48704186Y-8893371D01*
X50995326Y-11184511D01*
X50998736Y-11187921D01*
X51018785Y-11216798D01*
X51044621Y-11273371D01*
X51138873Y-11382144D01*
X51236930Y-11445161D01*
X51259947Y-11459953D01*
X51360576Y-11489500D01*
X51398035Y-11500499D01*
X51398036Y-11500499D01*
X51398039Y-11500500D01*
X51398041Y-11500500D01*
X51541959Y-11500500D01*
X51541961Y-11500500D01*
X51680053Y-11459953D01*
X51801128Y-11382143D01*
X51895377Y-11273373D01*
X51955165Y-11142457D01*
X51963121Y-11087118D01*
X51975647Y-11000002D01*
X51975647Y-10999997D01*
X51955165Y-10857543D01*
X51953381Y-10853636D01*
X51895377Y-10726627D01*
X51801128Y-10617857D01*
X51801127Y-10617856D01*
X51801126Y-10617855D01*
X51680057Y-10540049D01*
X51680054Y-10540047D01*
X51680053Y-10540047D01*
X51680050Y-10540046D01*
X51541964Y-10499500D01*
X51541961Y-10499500D01*
X51398039Y-10499500D01*
X51398035Y-10499500D01*
X51270588Y-10536922D01*
X51209428Y-10535174D01*
X51172693Y-10511936D01*
X50997704Y-10336947D01*
X50982669Y-10307438D01*
X50950120Y-10289363D01*
X46833810Y-6173053D01*
X46806033Y-6118536D01*
X46804814Y-6103049D01*
X46804814Y-5796125D01*
X46804813Y-5796121D01*
X46799419Y-5775989D01*
X46784336Y-5719698D01*
X46784333Y-5719692D01*
X46744777Y-5651179D01*
X46744775Y-5651177D01*
X46744774Y-5651175D01*
X46273139Y-5179540D01*
X46273136Y-5179538D01*
X46256029Y-5169661D01*
X46204617Y-5139979D01*
X46204613Y-5139977D01*
X46128192Y-5119500D01*
X46128190Y-5119500D01*
X36095248Y-5119500D01*
X36016124Y-5119500D01*
X35978654Y-5129540D01*
X35939693Y-5139979D01*
X35871179Y-5179536D01*
X35840210Y-5210505D01*
X35785693Y-5238281D01*
X35770207Y-5239500D01*
X20275479Y-5239500D01*
X20217288Y-5220593D01*
X20205475Y-5210504D01*
X19912514Y-4917543D01*
X19614511Y-4619540D01*
X19614508Y-4619538D01*
X19545992Y-4579980D01*
X19545988Y-4579978D01*
X19469564Y-4559500D01*
X19469562Y-4559500D01*
X15339562Y-4559500D01*
X15260438Y-4559500D01*
X15241018Y-4564702D01*
X15187509Y-4564065D01*
X15171963Y-4559500D01*
X15171961Y-4559500D01*
X15028039Y-4559500D01*
X15028035Y-4559500D01*
X14889949Y-4600046D01*
X14889942Y-4600049D01*
X14768873Y-4677855D01*
X14674622Y-4786628D01*
X14614834Y-4917543D01*
X14605195Y-4984589D01*
X14578200Y-5039496D01*
X14524085Y-5068050D01*
X14507203Y-5069500D01*
X10431807Y-5069500D01*
X10355384Y-5089978D01*
X10304251Y-5119500D01*
X10304250Y-5119499D01*
X10286863Y-5129538D01*
X5645489Y-9770912D01*
X5645488Y-9770911D01*
X5589539Y-9826861D01*
X5549980Y-9895379D01*
X5549978Y-9895383D01*
X5529500Y-9971807D01*
X5529500Y-10128736D01*
X5510593Y-10186927D01*
X5500504Y-10198740D01*
X4419872Y-11279371D01*
X4394582Y-11292256D01*
X4394548Y-11292860D01*
X4372297Y-11326945D01*
X4238740Y-11460503D01*
X4184223Y-11488281D01*
X4168736Y-11489500D01*
X3589597Y-11489500D01*
X3531406Y-11470593D01*
X3499544Y-11431627D01*
X3445936Y-11314246D01*
X3445936Y-11314245D01*
X3351687Y-11205475D01*
X3351686Y-11205474D01*
X3351685Y-11205473D01*
X3230616Y-11127667D01*
X3230613Y-11127665D01*
X3230612Y-11127665D01*
X3230609Y-11127664D01*
X3092523Y-11087118D01*
X3092520Y-11087118D01*
X2948598Y-11087118D01*
X2948594Y-11087118D01*
X2810508Y-11127664D01*
X2810501Y-11127667D01*
X2689432Y-11205473D01*
X2595181Y-11314246D01*
X2535393Y-11445161D01*
X2514912Y-11587615D01*
X100500Y-11587615D01*
X100500Y-10789997D01*
X3414353Y-10789997D01*
X3414353Y-10790002D01*
X3434834Y-10932456D01*
X3465680Y-10999997D01*
X3494623Y-11063373D01*
X3563149Y-11142457D01*
X3588873Y-11172144D01*
X3709942Y-11249950D01*
X3709947Y-11249953D01*
X3810137Y-11279371D01*
X3848035Y-11290499D01*
X3848036Y-11290499D01*
X3848039Y-11290500D01*
X3848041Y-11290500D01*
X3991959Y-11290500D01*
X3991961Y-11290500D01*
X4130053Y-11249953D01*
X4248771Y-11173657D01*
X4263271Y-11169845D01*
X4275049Y-11144536D01*
X4345377Y-11063373D01*
X4405165Y-10932457D01*
X4425647Y-10790000D01*
X4422558Y-10768517D01*
X4432990Y-10708228D01*
X4450543Y-10684426D01*
X10235475Y-4899496D01*
X10289992Y-4871719D01*
X10305479Y-4870500D01*
X13569563Y-4870500D01*
X13569563Y-4870499D01*
X13645989Y-4850021D01*
X13714511Y-4810460D01*
X13770460Y-4754511D01*
X14135475Y-4389496D01*
X14189992Y-4361719D01*
X14205479Y-4360500D01*
X19654521Y-4360500D01*
X19712712Y-4379407D01*
X19724525Y-4389496D01*
X20089540Y-4754511D01*
X20089539Y-4754511D01*
X20145489Y-4810460D01*
X20214007Y-4850019D01*
X20214011Y-4850021D01*
X20290435Y-4870499D01*
X20290437Y-4870500D01*
X20290438Y-4870500D01*
X32118912Y-4870500D01*
X32177103Y-4889407D01*
X32193729Y-4904667D01*
X32208872Y-4922143D01*
X32329947Y-4999953D01*
X32436403Y-5031211D01*
X32468035Y-5040499D01*
X32468036Y-5040499D01*
X32468039Y-5040500D01*
X32468041Y-5040500D01*
X32611959Y-5040500D01*
X32611961Y-5040500D01*
X32750053Y-4999953D01*
X32871128Y-4922143D01*
X32912264Y-4874668D01*
X32964660Y-4843073D01*
X32987083Y-4840500D01*
X46174521Y-4840500D01*
X46232712Y-4859407D01*
X46244525Y-4869496D01*
X50938675Y-9563646D01*
X50966452Y-9618163D01*
X50964382Y-9650325D01*
X50965842Y-9650535D01*
X50944353Y-9799997D01*
X50944353Y-9800002D01*
X50964834Y-9942456D01*
X50978240Y-9971810D01*
X51024623Y-10073373D01*
X51094944Y-10154528D01*
X51104570Y-10177308D01*
X51121229Y-10183658D01*
X51239947Y-10259953D01*
X51340576Y-10289500D01*
X51378035Y-10300499D01*
X51378036Y-10300499D01*
X51378039Y-10300500D01*
X51378041Y-10300500D01*
X51521959Y-10300500D01*
X51521961Y-10300500D01*
X51660053Y-10259953D01*
X51781128Y-10182143D01*
X51875377Y-10073373D01*
X51935165Y-9942457D01*
X51955647Y-9800000D01*
X51935165Y-9657543D01*
X51875377Y-9526627D01*
X51781128Y-9417857D01*
X51781127Y-9417856D01*
X51781126Y-9417855D01*
X51660057Y-9340049D01*
X51660054Y-9340048D01*
X51660053Y-9340047D01*
X51549758Y-9307661D01*
X51507647Y-9282676D01*
X49027428Y-6802457D01*
X46524511Y-4299540D01*
X46524508Y-4299538D01*
X46507950Y-4289978D01*
X46507950Y-4289977D01*
X46455990Y-4259979D01*
X46455985Y-4259977D01*
X46379564Y-4239500D01*
X46379562Y-4239500D01*
X32987083Y-4239500D01*
X32928892Y-4220593D01*
X32912264Y-4205331D01*
X32908592Y-4201093D01*
X32871128Y-4157857D01*
X32838182Y-4136684D01*
X32750057Y-4080049D01*
X32750054Y-4080047D01*
X32750053Y-4080047D01*
X32750050Y-4080046D01*
X32611964Y-4039500D01*
X32611961Y-4039500D01*
X32468039Y-4039500D01*
X32468035Y-4039500D01*
X32329949Y-4080046D01*
X32329942Y-4080049D01*
X32208872Y-4157856D01*
X32208870Y-4157858D01*
X32141740Y-4235331D01*
X32089344Y-4266927D01*
X32066921Y-4269500D01*
X20923396Y-4269500D01*
X20865205Y-4250593D01*
X20829241Y-4201093D01*
X20829241Y-4139907D01*
X20865205Y-4090407D01*
X20869873Y-4087216D01*
X20971126Y-4022144D01*
X20971125Y-4022144D01*
X20971128Y-4022143D01*
X21065377Y-3913373D01*
X21125165Y-3782457D01*
X21145647Y-3640000D01*
X21142681Y-3619373D01*
X21125165Y-3497543D01*
X21085185Y-3410000D01*
X21065377Y-3366627D01*
X20971128Y-3257857D01*
X20971127Y-3257856D01*
X20971126Y-3257855D01*
X20850057Y-3180049D01*
X20850054Y-3180047D01*
X20850053Y-3180047D01*
X20850050Y-3180046D01*
X20711964Y-3139500D01*
X20711961Y-3139500D01*
X20568039Y-3139500D01*
X20568035Y-3139500D01*
X20429949Y-3180046D01*
X20429942Y-3180049D01*
X20308876Y-3257854D01*
X20308871Y-3257858D01*
X20267736Y-3305331D01*
X20215340Y-3336927D01*
X20192917Y-3339500D01*
X16150404Y-3339500D01*
X16092213Y-3320593D01*
X16058289Y-3273900D01*
X16058107Y-3273984D01*
X16057696Y-3273085D01*
X16056249Y-3271093D01*
X16055414Y-3268389D01*
X16055165Y-3267544D01*
X16050742Y-3257857D01*
X15995377Y-3136627D01*
X15901128Y-3027857D01*
X15901127Y-3027856D01*
X15901126Y-3027855D01*
X15780057Y-2950049D01*
X15780054Y-2950047D01*
X15780053Y-2950047D01*
X15779890Y-2949999D01*
X15641964Y-2909500D01*
X15641961Y-2909500D01*
X15498039Y-2909500D01*
X15498035Y-2909500D01*
X15359949Y-2950046D01*
X15359942Y-2950049D01*
X15238873Y-3027855D01*
X15144622Y-3136628D01*
X15084834Y-3267543D01*
X15064353Y-3409997D01*
X15064353Y-3410002D01*
X15084834Y-3552456D01*
X15115395Y-3619373D01*
X15122370Y-3680159D01*
X15092284Y-3733437D01*
X15036628Y-3758855D01*
X15025342Y-3759500D01*
X14000435Y-3759500D01*
X13924011Y-3779978D01*
X13924007Y-3779980D01*
X13855489Y-3819539D01*
X13434524Y-4240504D01*
X13380008Y-4268281D01*
X13364521Y-4269500D01*
X10100435Y-4269500D01*
X10024011Y-4289978D01*
X10024010Y-4289979D01*
X9955491Y-4329538D01*
X4024524Y-10260504D01*
X3970007Y-10288281D01*
X3954520Y-10289500D01*
X3848035Y-10289500D01*
X3709949Y-10330046D01*
X3709942Y-10330049D01*
X3588873Y-10407855D01*
X3494622Y-10516628D01*
X3434834Y-10647543D01*
X3414353Y-10789997D01*
X100500Y-10789997D01*
X100500Y-2502984D01*
X100681Y-2497007D01*
X117633Y-2216749D01*
X119072Y-2204890D01*
X169146Y-1931646D01*
X172004Y-1920052D01*
X254650Y-1654832D01*
X258880Y-1643679D01*
X372895Y-1390346D01*
X378444Y-1379775D01*
X522159Y-1142040D01*
X528930Y-1132230D01*
X700257Y-913547D01*
X708169Y-904615D01*
X904615Y-708169D01*
X913547Y-700257D01*
X1132230Y-528930D01*
X1142040Y-522159D01*
X1379775Y-378444D01*
X1390346Y-372895D01*
X1643679Y-258880D01*
X1654832Y-254650D01*
X1920052Y-172004D01*
X1931646Y-169146D01*
X2204890Y-119072D01*
X2216741Y-117633D01*
X2497008Y-100681D01*
X2502985Y-100500D01*
X2526929Y-100500D01*
X52473071Y-100500D01*
X52497015Y-100500D01*
X52502992Y-100681D01*
G37*
%TD.AperFunction*%
%TD*%
D14*
X49540000Y-16930000D03*
X29460000Y-14730000D03*
X44860000Y-29890000D03*
X35150000Y-35110000D03*
X29820000Y-45280000D03*
X9530000Y-44970000D03*
X8930000Y-1500000D03*
X17310000Y-860000D03*
X14120000Y-14540000D03*
X26000000Y-1270000D03*
X34710000Y-19680000D03*
X44770000Y-24920000D03*
X39920000Y-29950000D03*
X23490000Y-1160000D03*
X54120000Y-7110000D03*
X49710000Y-20330000D03*
X38070000Y-3290000D03*
X14470000Y-45220000D03*
X24690000Y-45190000D03*
X9330000Y-40230000D03*
X14570000Y-34990000D03*
X44610000Y-14760000D03*
X53600000Y-39960000D03*
X45320000Y-51550000D03*
X14150000Y-19550000D03*
X14470000Y-40090000D03*
X23330000Y-3970000D03*
X14400000Y-9570000D03*
X3330000Y-23780000D03*
X19680000Y-40070000D03*
X14260000Y-29760000D03*
X53280000Y-31040000D03*
X39940000Y-14570000D03*
X29710000Y-34740000D03*
X13850000Y-12080000D03*
X24520000Y-34860000D03*
X18490000Y-53790000D03*
X3330000Y-42250000D03*
X39810000Y-45250000D03*
X19260000Y-14450000D03*
X3840000Y-49520000D03*
X19560000Y-19630000D03*
X1020000Y-13920000D03*
X24660000Y-14610000D03*
X9460000Y-24590000D03*
X9340000Y-34860000D03*
X47180000Y-22040000D03*
X53090000Y-20840000D03*
X52770000Y-49070000D03*
X48840000Y-32180000D03*
X48286987Y-11650000D03*
X29740000Y-24700000D03*
X29810000Y-29860000D03*
X30280000Y-53850000D03*
X34810000Y-40070000D03*
X44740000Y-9570000D03*
X44940000Y-45090000D03*
X29670000Y-19810000D03*
X44620000Y-34990000D03*
X40160000Y-40030000D03*
X1560000Y-8600000D03*
X36180000Y-12240000D03*
X24910000Y-24800000D03*
X24200000Y-12250000D03*
X35550000Y-2110000D03*
X9500000Y-29760000D03*
X14400000Y-24800000D03*
X24430000Y-29920000D03*
X34740000Y-45340000D03*
X24670000Y-9570000D03*
X26060000Y-3770000D03*
X29860000Y-9580000D03*
X39920000Y-9520000D03*
X24630000Y-40070000D03*
X8140000Y-3910000D03*
X4480000Y-17140000D03*
X5520000Y-38890000D03*
X44450000Y-38370000D03*
X35000000Y-29890000D03*
X44160000Y-12270000D03*
X34680000Y-9610000D03*
X1920000Y-4220000D03*
X47240000Y-43290000D03*
X29160000Y-12030000D03*
X19370000Y-45280000D03*
X19480000Y-34960000D03*
X29760000Y-40070000D03*
X19490000Y-24700000D03*
X34770000Y-14570000D03*
X39880000Y-24910000D03*
X3710000Y-31930000D03*
X24650000Y-19730000D03*
X48290000Y-3840000D03*
X9440000Y-19780000D03*
X30410000Y-830000D03*
X18710000Y-12340000D03*
X18530000Y-6560000D03*
X52581541Y-9658091D03*
X44670000Y-19680000D03*
X19640000Y-29920000D03*
X39950000Y-35020000D03*
X53290000Y-15220000D03*
X40040000Y-19730000D03*
X34410000Y-24700000D03*
X48690000Y-26990000D03*
X17169265Y-6660000D03*
X51893883Y-12973175D03*
X3070000Y-13990000D03*
X50930000Y-12240000D03*
X15950000Y-5950000D03*
X2894885Y-12790000D03*
X3020559Y-11587618D03*
X51470000Y-11000000D03*
X15100000Y-5060000D03*
X51450000Y-9800000D03*
X32540000Y-4540000D03*
X3920000Y-10790000D03*
X19640000Y-8620000D03*
X24200002Y-8620000D03*
X20640000Y-3640000D03*
X15570000Y-3410000D03*
X9080000Y-12250000D03*
X9010000Y-15140000D03*
X3940000Y-15190000D03*
X51186825Y-13963175D03*
D15*
X52500000Y-2550000D03*
X7210000Y-53370000D03*
X9210000Y-53370000D03*
X11210000Y-53370000D03*
X13210000Y-53370000D03*
X2500000Y-52500000D03*
M02*
