%TF.GenerationSoftware,KiCad,Pcbnew,8.0.7*%
%TF.CreationDate,2025-01-15T18:16:11+00:00*%
%TF.ProjectId,LedMatrix,4c65644d-6174-4726-9978-2e6b69636164,rev?*%
%TF.SameCoordinates,Original*%
%TF.FileFunction,Soldermask,Bot*%
%TF.FilePolarity,Negative*%
%FSLAX46Y46*%
G04 Gerber Fmt 4.6, Leading zero omitted, Abs format (unit mm)*
G04 Created by KiCad (PCBNEW 8.0.7) date 2025-01-15 18:16:11*
%MOMM*%
%LPD*%
G01*
G04 APERTURE LIST*
G04 Aperture macros list*
%AMRoundRect*
0 Rectangle with rounded corners*
0 $1 Rounding radius*
0 $2 $3 $4 $5 $6 $7 $8 $9 X,Y pos of 4 corners*
0 Add a 4 corners polygon primitive as box body*
4,1,4,$2,$3,$4,$5,$6,$7,$8,$9,$2,$3,0*
0 Add four circle primitives for the rounded corners*
1,1,$1+$1,$2,$3*
1,1,$1+$1,$4,$5*
1,1,$1+$1,$6,$7*
1,1,$1+$1,$8,$9*
0 Add four rect primitives between the rounded corners*
20,1,$1+$1,$2,$3,$4,$5,0*
20,1,$1+$1,$4,$5,$6,$7,0*
20,1,$1+$1,$6,$7,$8,$9,0*
20,1,$1+$1,$8,$9,$2,$3,0*%
G04 Aperture macros list end*
%ADD10C,2.700000*%
%ADD11R,1.350000X1.350000*%
%ADD12O,1.350000X1.350000*%
%ADD13R,0.900000X0.800000*%
%ADD14RoundRect,0.100000X0.637500X0.100000X-0.637500X0.100000X-0.637500X-0.100000X0.637500X-0.100000X0*%
%ADD15R,2.000000X1.600000*%
%ADD16R,1.250000X0.300000*%
%ADD17RoundRect,0.218750X-0.218750X-0.256250X0.218750X-0.256250X0.218750X0.256250X-0.218750X0.256250X0*%
%ADD18RoundRect,0.147500X-0.172500X0.147500X-0.172500X-0.147500X0.172500X-0.147500X0.172500X0.147500X0*%
%ADD19RoundRect,0.218750X0.256250X-0.218750X0.256250X0.218750X-0.256250X0.218750X-0.256250X-0.218750X0*%
%ADD20RoundRect,0.218750X-0.256250X0.218750X-0.256250X-0.218750X0.256250X-0.218750X0.256250X0.218750X0*%
%ADD21RoundRect,0.147500X-0.147500X-0.172500X0.147500X-0.172500X0.147500X0.172500X-0.147500X0.172500X0*%
%ADD22RoundRect,0.147500X0.147500X0.172500X-0.147500X0.172500X-0.147500X-0.172500X0.147500X-0.172500X0*%
%ADD23R,2.500000X1.000000*%
%ADD24RoundRect,0.147500X0.172500X-0.147500X0.172500X0.147500X-0.172500X0.147500X-0.172500X-0.147500X0*%
%ADD25R,1.060000X0.650000*%
%ADD26R,2.000000X1.000000*%
%ADD27RoundRect,0.218750X0.218750X0.256250X-0.218750X0.256250X-0.218750X-0.256250X0.218750X-0.256250X0*%
G04 APERTURE END LIST*
D10*
%TO.C,H2*%
X51500000Y-2550000D03*
%TD*%
D11*
%TO.C,J3*%
X5850000Y-52600000D03*
D12*
X7850000Y-52600000D03*
X9850000Y-52600000D03*
X11850000Y-52600000D03*
%TD*%
D10*
%TO.C,H1*%
X2500000Y-51500000D03*
%TD*%
D13*
%TO.C,Q1*%
X23000000Y-39325000D03*
X23000000Y-41225000D03*
X21000000Y-40275000D03*
%TD*%
D14*
%TO.C,U2*%
X29300000Y-44700000D03*
X29300000Y-45350000D03*
X29300000Y-46000000D03*
X29300000Y-46650000D03*
X29300000Y-47300000D03*
X29300000Y-47950000D03*
X29300000Y-48600000D03*
X29300000Y-49250000D03*
X29300000Y-49900000D03*
X29300000Y-50550000D03*
X23575000Y-50550000D03*
X23575000Y-49900000D03*
X23575000Y-49250000D03*
X23575000Y-48600000D03*
X23575000Y-47950000D03*
X23575000Y-47300000D03*
X23575000Y-46650000D03*
X23575000Y-46000000D03*
X23575000Y-45350000D03*
X23575000Y-44700000D03*
%TD*%
D15*
%TO.C,J4*%
X50500000Y-35900000D03*
X50500000Y-47100000D03*
D16*
X47845000Y-37750000D03*
X47845000Y-38250000D03*
X47845000Y-38750000D03*
X47845000Y-39250000D03*
X47845000Y-39750000D03*
X47845000Y-40250000D03*
X47845000Y-40750000D03*
X47845000Y-41250000D03*
X47845000Y-41750000D03*
X47845000Y-42250000D03*
X47845000Y-42750000D03*
X47845000Y-43250000D03*
X47845000Y-43750000D03*
X47845000Y-44250000D03*
X47845000Y-44750000D03*
X47845000Y-45250000D03*
%TD*%
D17*
%TO.C,C8*%
X5350000Y-3125000D03*
X6925000Y-3125000D03*
%TD*%
D18*
%TO.C,C3*%
X34550000Y-45565000D03*
X34550000Y-46535000D03*
%TD*%
%TO.C,C2*%
X31137500Y-45610000D03*
X31137500Y-46580000D03*
%TD*%
%TO.C,C1*%
X39725000Y-45640000D03*
X39725000Y-46610000D03*
%TD*%
D19*
%TO.C,C6*%
X44600000Y-24250000D03*
X44600000Y-22675000D03*
%TD*%
D20*
%TO.C,C11*%
X41850000Y-20562500D03*
X41850000Y-22137500D03*
%TD*%
D15*
%TO.C,J5*%
X3020000Y-47100000D03*
X3020000Y-35900000D03*
D16*
X5675000Y-45250000D03*
X5675000Y-44750000D03*
X5675000Y-44250000D03*
X5675000Y-43750000D03*
X5675000Y-43250000D03*
X5675000Y-42750000D03*
X5675000Y-42250000D03*
X5675000Y-41750000D03*
X5675000Y-41250000D03*
X5675000Y-40750000D03*
X5675000Y-40250000D03*
X5675000Y-39750000D03*
X5675000Y-39250000D03*
X5675000Y-38750000D03*
X5675000Y-38250000D03*
X5675000Y-37750000D03*
%TD*%
D18*
%TO.C,R1*%
X31062500Y-49735000D03*
X31062500Y-50705000D03*
%TD*%
D19*
%TO.C,C15*%
X42050000Y-47225000D03*
X42050000Y-45650000D03*
%TD*%
D21*
%TO.C,R4*%
X20830000Y-36600000D03*
X21800000Y-36600000D03*
%TD*%
D22*
%TO.C,R3*%
X21382500Y-50845000D03*
X20412500Y-50845000D03*
%TD*%
D19*
%TO.C,C16*%
X11100000Y-30087500D03*
X11100000Y-28512500D03*
%TD*%
D23*
%TO.C,J1*%
X8025000Y-6150000D03*
X8025000Y-8690000D03*
X8025000Y-11230000D03*
X8025000Y-13770000D03*
X8025000Y-16310000D03*
X8025000Y-18850000D03*
%TD*%
D19*
%TO.C,C7*%
X40750000Y-36212500D03*
X40750000Y-34637500D03*
%TD*%
D24*
%TO.C,C4*%
X31137500Y-48520000D03*
X31137500Y-47550000D03*
%TD*%
D25*
%TO.C,U1*%
X38200000Y-45625000D03*
X38200000Y-46575000D03*
X38200000Y-47525000D03*
X36000000Y-47525000D03*
X36000000Y-45625000D03*
%TD*%
D19*
%TO.C,C13*%
X40850000Y-41975000D03*
X40850000Y-40400000D03*
%TD*%
D22*
%TO.C,R5*%
X21422500Y-49720000D03*
X20452500Y-49720000D03*
%TD*%
D26*
%TO.C,J2*%
X47575000Y-18850000D03*
X47575000Y-16310000D03*
X47575000Y-13770000D03*
X47575000Y-11230000D03*
X47575000Y-8690000D03*
X47575000Y-6150000D03*
%TD*%
D27*
%TO.C,C12*%
X43262500Y-12550000D03*
X41687500Y-12550000D03*
%TD*%
D22*
%TO.C,R6*%
X21447500Y-48620000D03*
X20477500Y-48620000D03*
%TD*%
%TO.C,R2*%
X21810000Y-37850000D03*
X20840000Y-37850000D03*
%TD*%
M02*
