%TF.GenerationSoftware,KiCad,Pcbnew,8.0.7*%
%TF.CreationDate,2025-01-15T18:16:11+00:00*%
%TF.ProjectId,LedMatrix,4c65644d-6174-4726-9978-2e6b69636164,rev?*%
%TF.SameCoordinates,Original*%
%TF.FileFunction,Legend,Top*%
%TF.FilePolarity,Positive*%
%FSLAX46Y46*%
G04 Gerber Fmt 4.6, Leading zero omitted, Abs format (unit mm)*
G04 Created by KiCad (PCBNEW 8.0.7) date 2025-01-15 18:16:11*
%MOMM*%
%LPD*%
G01*
G04 APERTURE LIST*
%ADD10C,0.100000*%
%ADD11C,0.120000*%
%ADD12C,0.350000*%
G04 APERTURE END LIST*
D10*
%TO.C,D52*%
X21420000Y-38660000D02*
X21420000Y-39430000D01*
X21420000Y-39430000D02*
X22420000Y-38660000D01*
X22420000Y-38660000D02*
X21420000Y-38660000D01*
X25289200Y-43303800D02*
X24186200Y-43303800D01*
X25300000Y-41320000D02*
X25300000Y-40400000D01*
D11*
X24110868Y-42750000D02*
G75*
G02*
X23649132Y-42750000I-230868J0D01*
G01*
X23649132Y-42750000D02*
G75*
G02*
X24110868Y-42750000I230868J0D01*
G01*
D10*
%TO.C,D34*%
X9420000Y-26660000D02*
X9420000Y-27430000D01*
X9420000Y-27430000D02*
X10420000Y-26660000D01*
X10420000Y-26660000D02*
X9420000Y-26660000D01*
X13289200Y-31303800D02*
X12186200Y-31303800D01*
X13300000Y-29320000D02*
X13300000Y-28400000D01*
D11*
X12110868Y-30750000D02*
G75*
G02*
X11649132Y-30750000I-230868J0D01*
G01*
X11649132Y-30750000D02*
G75*
G02*
X12110868Y-30750000I230868J0D01*
G01*
D10*
%TO.C,D48*%
X44296200Y-37289200D02*
X44296200Y-36186200D01*
X46280000Y-37300000D02*
X47200000Y-37300000D01*
X48170000Y-33420000D02*
X48940000Y-34420000D01*
X48940000Y-33420000D02*
X48170000Y-33420000D01*
X48940000Y-34420000D02*
X48940000Y-33420000D01*
D11*
X45080868Y-35880000D02*
G75*
G02*
X44619132Y-35880000I-230868J0D01*
G01*
X44619132Y-35880000D02*
G75*
G02*
X45080868Y-35880000I230868J0D01*
G01*
D10*
%TO.C,D12*%
X20296200Y-13289200D02*
X20296200Y-12186200D01*
X22280000Y-13300000D02*
X23200000Y-13300000D01*
X24170000Y-9420000D02*
X24940000Y-10420000D01*
X24940000Y-9420000D02*
X24170000Y-9420000D01*
X24940000Y-10420000D02*
X24940000Y-9420000D01*
D11*
X21080868Y-11880000D02*
G75*
G02*
X20619132Y-11880000I-230868J0D01*
G01*
X20619132Y-11880000D02*
G75*
G02*
X21080868Y-11880000I230868J0D01*
G01*
D10*
%TO.C,D61*%
X27420000Y-44660000D02*
X27420000Y-45430000D01*
X27420000Y-45430000D02*
X28420000Y-44660000D01*
X28420000Y-44660000D02*
X27420000Y-44660000D01*
X31289200Y-49303800D02*
X30186200Y-49303800D01*
X31300000Y-47320000D02*
X31300000Y-46400000D01*
D11*
X30110868Y-48750000D02*
G75*
G02*
X29649132Y-48750000I-230868J0D01*
G01*
X29649132Y-48750000D02*
G75*
G02*
X30110868Y-48750000I230868J0D01*
G01*
D10*
%TO.C,D2*%
X9420000Y-2660000D02*
X9420000Y-3430000D01*
X9420000Y-3430000D02*
X10420000Y-2660000D01*
X10420000Y-2660000D02*
X9420000Y-2660000D01*
X13289200Y-7303800D02*
X12186200Y-7303800D01*
X13300000Y-5320000D02*
X13300000Y-4400000D01*
D11*
X12110868Y-6750000D02*
G75*
G02*
X11649132Y-6750000I-230868J0D01*
G01*
X11649132Y-6750000D02*
G75*
G02*
X12110868Y-6750000I230868J0D01*
G01*
D10*
%TO.C,D64*%
X44296200Y-49289200D02*
X44296200Y-48186200D01*
X46280000Y-49300000D02*
X47200000Y-49300000D01*
X48170000Y-45420000D02*
X48940000Y-46420000D01*
X48940000Y-45420000D02*
X48170000Y-45420000D01*
X48940000Y-46420000D02*
X48940000Y-45420000D01*
D11*
X45080868Y-47880000D02*
G75*
G02*
X44619132Y-47880000I-230868J0D01*
G01*
X44619132Y-47880000D02*
G75*
G02*
X45080868Y-47880000I230868J0D01*
G01*
D10*
%TO.C,D53*%
X26296200Y-43289200D02*
X26296200Y-42186200D01*
X28280000Y-43300000D02*
X29200000Y-43300000D01*
X30170000Y-39420000D02*
X30940000Y-40420000D01*
X30940000Y-39420000D02*
X30170000Y-39420000D01*
X30940000Y-40420000D02*
X30940000Y-39420000D01*
D11*
X27080868Y-41880000D02*
G75*
G02*
X26619132Y-41880000I-230868J0D01*
G01*
X26619132Y-41880000D02*
G75*
G02*
X27080868Y-41880000I230868J0D01*
G01*
D10*
%TO.C,D55*%
X38296200Y-43289200D02*
X38296200Y-42186200D01*
X40280000Y-43300000D02*
X41200000Y-43300000D01*
X42170000Y-39420000D02*
X42940000Y-40420000D01*
X42940000Y-39420000D02*
X42170000Y-39420000D01*
X42940000Y-40420000D02*
X42940000Y-39420000D01*
D11*
X39080868Y-41880000D02*
G75*
G02*
X38619132Y-41880000I-230868J0D01*
G01*
X38619132Y-41880000D02*
G75*
G02*
X39080868Y-41880000I230868J0D01*
G01*
D10*
%TO.C,D56*%
X45420000Y-38660000D02*
X45420000Y-39430000D01*
X45420000Y-39430000D02*
X46420000Y-38660000D01*
X46420000Y-38660000D02*
X45420000Y-38660000D01*
X49289200Y-43303800D02*
X48186200Y-43303800D01*
X49300000Y-41320000D02*
X49300000Y-40400000D01*
D11*
X48110868Y-42750000D02*
G75*
G02*
X47649132Y-42750000I-230868J0D01*
G01*
X47649132Y-42750000D02*
G75*
G02*
X48110868Y-42750000I230868J0D01*
G01*
D10*
%TO.C,D37*%
X26296200Y-31289200D02*
X26296200Y-30186200D01*
X28280000Y-31300000D02*
X29200000Y-31300000D01*
X30170000Y-27420000D02*
X30940000Y-28420000D01*
X30940000Y-27420000D02*
X30170000Y-27420000D01*
X30940000Y-28420000D02*
X30940000Y-27420000D01*
D11*
X27080868Y-29880000D02*
G75*
G02*
X26619132Y-29880000I-230868J0D01*
G01*
X26619132Y-29880000D02*
G75*
G02*
X27080868Y-29880000I230868J0D01*
G01*
D10*
%TO.C,D47*%
X39420000Y-32660000D02*
X39420000Y-33430000D01*
X39420000Y-33430000D02*
X40420000Y-32660000D01*
X40420000Y-32660000D02*
X39420000Y-32660000D01*
X43289200Y-37303800D02*
X42186200Y-37303800D01*
X43300000Y-35320000D02*
X43300000Y-34400000D01*
D11*
X42110868Y-36750000D02*
G75*
G02*
X41649132Y-36750000I-230868J0D01*
G01*
X41649132Y-36750000D02*
G75*
G02*
X42110868Y-36750000I230868J0D01*
G01*
D10*
%TO.C,D59*%
X15420000Y-44660000D02*
X15420000Y-45430000D01*
X15420000Y-45430000D02*
X16420000Y-44660000D01*
X16420000Y-44660000D02*
X15420000Y-44660000D01*
X19289200Y-49303800D02*
X18186200Y-49303800D01*
X19300000Y-47320000D02*
X19300000Y-46400000D01*
D11*
X18110868Y-48750000D02*
G75*
G02*
X17649132Y-48750000I-230868J0D01*
G01*
X17649132Y-48750000D02*
G75*
G02*
X18110868Y-48750000I230868J0D01*
G01*
D10*
%TO.C,D39*%
X38296200Y-31289200D02*
X38296200Y-30186200D01*
X40280000Y-31300000D02*
X41200000Y-31300000D01*
X42170000Y-27420000D02*
X42940000Y-28420000D01*
X42940000Y-27420000D02*
X42170000Y-27420000D01*
X42940000Y-28420000D02*
X42940000Y-27420000D01*
D11*
X39080868Y-29880000D02*
G75*
G02*
X38619132Y-29880000I-230868J0D01*
G01*
X38619132Y-29880000D02*
G75*
G02*
X39080868Y-29880000I230868J0D01*
G01*
D10*
%TO.C,D42*%
X8296200Y-37289200D02*
X8296200Y-36186200D01*
X10280000Y-37300000D02*
X11200000Y-37300000D01*
X12170000Y-33420000D02*
X12940000Y-34420000D01*
X12940000Y-33420000D02*
X12170000Y-33420000D01*
X12940000Y-34420000D02*
X12940000Y-33420000D01*
D11*
X9080868Y-35880000D02*
G75*
G02*
X8619132Y-35880000I-230868J0D01*
G01*
X8619132Y-35880000D02*
G75*
G02*
X9080868Y-35880000I230868J0D01*
G01*
D10*
%TO.C,D11*%
X15420000Y-8660000D02*
X15420000Y-9430000D01*
X15420000Y-9430000D02*
X16420000Y-8660000D01*
X16420000Y-8660000D02*
X15420000Y-8660000D01*
X19289200Y-13303800D02*
X18186200Y-13303800D01*
X19300000Y-11320000D02*
X19300000Y-10400000D01*
D11*
X18110868Y-12750000D02*
G75*
G02*
X17649132Y-12750000I-230868J0D01*
G01*
X17649132Y-12750000D02*
G75*
G02*
X18110868Y-12750000I230868J0D01*
G01*
D10*
%TO.C,D51*%
X14296200Y-43289200D02*
X14296200Y-42186200D01*
X16280000Y-43300000D02*
X17200000Y-43300000D01*
X18170000Y-39420000D02*
X18940000Y-40420000D01*
X18940000Y-39420000D02*
X18170000Y-39420000D01*
X18940000Y-40420000D02*
X18940000Y-39420000D01*
D11*
X15080868Y-41880000D02*
G75*
G02*
X14619132Y-41880000I-230868J0D01*
G01*
X14619132Y-41880000D02*
G75*
G02*
X15080868Y-41880000I230868J0D01*
G01*
D10*
%TO.C,D3*%
X14296200Y-7289200D02*
X14296200Y-6186200D01*
X16280000Y-7300000D02*
X17200000Y-7300000D01*
X18170000Y-3420000D02*
X18940000Y-4420000D01*
X18940000Y-3420000D02*
X18170000Y-3420000D01*
X18940000Y-4420000D02*
X18940000Y-3420000D01*
D11*
X15080868Y-5880000D02*
G75*
G02*
X14619132Y-5880000I-230868J0D01*
G01*
X14619132Y-5880000D02*
G75*
G02*
X15080868Y-5880000I230868J0D01*
G01*
D10*
%TO.C,D54*%
X33420000Y-38660000D02*
X33420000Y-39430000D01*
X33420000Y-39430000D02*
X34420000Y-38660000D01*
X34420000Y-38660000D02*
X33420000Y-38660000D01*
X37289200Y-43303800D02*
X36186200Y-43303800D01*
X37300000Y-41320000D02*
X37300000Y-40400000D01*
D11*
X36110868Y-42750000D02*
G75*
G02*
X35649132Y-42750000I-230868J0D01*
G01*
X35649132Y-42750000D02*
G75*
G02*
X36110868Y-42750000I230868J0D01*
G01*
D10*
%TO.C,D18*%
X9420000Y-14660000D02*
X9420000Y-15430000D01*
X9420000Y-15430000D02*
X10420000Y-14660000D01*
X10420000Y-14660000D02*
X9420000Y-14660000D01*
X13289200Y-19303800D02*
X12186200Y-19303800D01*
X13300000Y-17320000D02*
X13300000Y-16400000D01*
D11*
X12110868Y-18750000D02*
G75*
G02*
X11649132Y-18750000I-230868J0D01*
G01*
X11649132Y-18750000D02*
G75*
G02*
X12110868Y-18750000I230868J0D01*
G01*
D10*
%TO.C,D16*%
X44296200Y-13289200D02*
X44296200Y-12186200D01*
X46280000Y-13300000D02*
X47200000Y-13300000D01*
X48170000Y-9420000D02*
X48940000Y-10420000D01*
X48940000Y-9420000D02*
X48170000Y-9420000D01*
X48940000Y-10420000D02*
X48940000Y-9420000D01*
D11*
X45080868Y-11880000D02*
G75*
G02*
X44619132Y-11880000I-230868J0D01*
G01*
X44619132Y-11880000D02*
G75*
G02*
X45080868Y-11880000I230868J0D01*
G01*
D10*
%TO.C,D15*%
X39420000Y-8660000D02*
X39420000Y-9430000D01*
X39420000Y-9430000D02*
X40420000Y-8660000D01*
X40420000Y-8660000D02*
X39420000Y-8660000D01*
X43289200Y-13303800D02*
X42186200Y-13303800D01*
X43300000Y-11320000D02*
X43300000Y-10400000D01*
D11*
X42110868Y-12750000D02*
G75*
G02*
X41649132Y-12750000I-230868J0D01*
G01*
X41649132Y-12750000D02*
G75*
G02*
X42110868Y-12750000I230868J0D01*
G01*
D10*
%TO.C,D63*%
X39420000Y-44660000D02*
X39420000Y-45430000D01*
X39420000Y-45430000D02*
X40420000Y-44660000D01*
X40420000Y-44660000D02*
X39420000Y-44660000D01*
X43289200Y-49303800D02*
X42186200Y-49303800D01*
X43300000Y-47320000D02*
X43300000Y-46400000D01*
D11*
X42110868Y-48750000D02*
G75*
G02*
X41649132Y-48750000I-230868J0D01*
G01*
X41649132Y-48750000D02*
G75*
G02*
X42110868Y-48750000I230868J0D01*
G01*
D10*
%TO.C,D29*%
X27420000Y-20660000D02*
X27420000Y-21430000D01*
X27420000Y-21430000D02*
X28420000Y-20660000D01*
X28420000Y-20660000D02*
X27420000Y-20660000D01*
X31289200Y-25303800D02*
X30186200Y-25303800D01*
X31300000Y-23320000D02*
X31300000Y-22400000D01*
D11*
X30110868Y-24750000D02*
G75*
G02*
X29649132Y-24750000I-230868J0D01*
G01*
X29649132Y-24750000D02*
G75*
G02*
X30110868Y-24750000I230868J0D01*
G01*
D10*
%TO.C,D50*%
X9420000Y-38660000D02*
X9420000Y-39430000D01*
X9420000Y-39430000D02*
X10420000Y-38660000D01*
X10420000Y-38660000D02*
X9420000Y-38660000D01*
X13289200Y-43303800D02*
X12186200Y-43303800D01*
X13300000Y-41320000D02*
X13300000Y-40400000D01*
D11*
X12110868Y-42750000D02*
G75*
G02*
X11649132Y-42750000I-230868J0D01*
G01*
X11649132Y-42750000D02*
G75*
G02*
X12110868Y-42750000I230868J0D01*
G01*
D10*
%TO.C,D17*%
X2296200Y-19289200D02*
X2296200Y-18186200D01*
X4280000Y-19300000D02*
X5200000Y-19300000D01*
X6170000Y-15420000D02*
X6940000Y-16420000D01*
X6940000Y-15420000D02*
X6170000Y-15420000D01*
X6940000Y-16420000D02*
X6940000Y-15420000D01*
D11*
X3080868Y-17880000D02*
G75*
G02*
X2619132Y-17880000I-230868J0D01*
G01*
X2619132Y-17880000D02*
G75*
G02*
X3080868Y-17880000I230868J0D01*
G01*
D10*
%TO.C,D58*%
X8296200Y-49289200D02*
X8296200Y-48186200D01*
X10280000Y-49300000D02*
X11200000Y-49300000D01*
X12170000Y-45420000D02*
X12940000Y-46420000D01*
X12940000Y-45420000D02*
X12170000Y-45420000D01*
X12940000Y-46420000D02*
X12940000Y-45420000D01*
D11*
X9080868Y-47880000D02*
G75*
G02*
X8619132Y-47880000I-230868J0D01*
G01*
X8619132Y-47880000D02*
G75*
G02*
X9080868Y-47880000I230868J0D01*
G01*
D10*
%TO.C,D38*%
X33420000Y-26660000D02*
X33420000Y-27430000D01*
X33420000Y-27430000D02*
X34420000Y-26660000D01*
X34420000Y-26660000D02*
X33420000Y-26660000D01*
X37289200Y-31303800D02*
X36186200Y-31303800D01*
X37300000Y-29320000D02*
X37300000Y-28400000D01*
D11*
X36110868Y-30750000D02*
G75*
G02*
X35649132Y-30750000I-230868J0D01*
G01*
X35649132Y-30750000D02*
G75*
G02*
X36110868Y-30750000I230868J0D01*
G01*
D10*
%TO.C,D28*%
X20296200Y-25289200D02*
X20296200Y-24186200D01*
X22280000Y-25300000D02*
X23200000Y-25300000D01*
X24170000Y-21420000D02*
X24940000Y-22420000D01*
X24940000Y-21420000D02*
X24170000Y-21420000D01*
X24940000Y-22420000D02*
X24940000Y-21420000D01*
D11*
X21080868Y-23880000D02*
G75*
G02*
X20619132Y-23880000I-230868J0D01*
G01*
X20619132Y-23880000D02*
G75*
G02*
X21080868Y-23880000I230868J0D01*
G01*
D10*
%TO.C,D4*%
X21420000Y-2660000D02*
X21420000Y-3430000D01*
X21420000Y-3430000D02*
X22420000Y-2660000D01*
X22420000Y-2660000D02*
X21420000Y-2660000D01*
X25289200Y-7303800D02*
X24186200Y-7303800D01*
X25300000Y-5320000D02*
X25300000Y-4400000D01*
D11*
X24110868Y-6750000D02*
G75*
G02*
X23649132Y-6750000I-230868J0D01*
G01*
X23649132Y-6750000D02*
G75*
G02*
X24110868Y-6750000I230868J0D01*
G01*
D10*
%TO.C,D36*%
X21420000Y-26660000D02*
X21420000Y-27430000D01*
X21420000Y-27430000D02*
X22420000Y-26660000D01*
X22420000Y-26660000D02*
X21420000Y-26660000D01*
X25289200Y-31303800D02*
X24186200Y-31303800D01*
X25300000Y-29320000D02*
X25300000Y-28400000D01*
D11*
X24110868Y-30750000D02*
G75*
G02*
X23649132Y-30750000I-230868J0D01*
G01*
X23649132Y-30750000D02*
G75*
G02*
X24110868Y-30750000I230868J0D01*
G01*
D10*
%TO.C,D43*%
X15420000Y-32660000D02*
X15420000Y-33430000D01*
X15420000Y-33430000D02*
X16420000Y-32660000D01*
X16420000Y-32660000D02*
X15420000Y-32660000D01*
X19289200Y-37303800D02*
X18186200Y-37303800D01*
X19300000Y-35320000D02*
X19300000Y-34400000D01*
D11*
X18110868Y-36750000D02*
G75*
G02*
X17649132Y-36750000I-230868J0D01*
G01*
X17649132Y-36750000D02*
G75*
G02*
X18110868Y-36750000I230868J0D01*
G01*
D10*
%TO.C,D21*%
X26296200Y-19289200D02*
X26296200Y-18186200D01*
X28280000Y-19300000D02*
X29200000Y-19300000D01*
X30170000Y-15420000D02*
X30940000Y-16420000D01*
X30940000Y-15420000D02*
X30170000Y-15420000D01*
X30940000Y-16420000D02*
X30940000Y-15420000D01*
D11*
X27080868Y-17880000D02*
G75*
G02*
X26619132Y-17880000I-230868J0D01*
G01*
X26619132Y-17880000D02*
G75*
G02*
X27080868Y-17880000I230868J0D01*
G01*
D10*
%TO.C,D14*%
X32296200Y-13289200D02*
X32296200Y-12186200D01*
X34280000Y-13300000D02*
X35200000Y-13300000D01*
X36170000Y-9420000D02*
X36940000Y-10420000D01*
X36940000Y-9420000D02*
X36170000Y-9420000D01*
X36940000Y-10420000D02*
X36940000Y-9420000D01*
D11*
X33080868Y-11880000D02*
G75*
G02*
X32619132Y-11880000I-230868J0D01*
G01*
X32619132Y-11880000D02*
G75*
G02*
X33080868Y-11880000I230868J0D01*
G01*
D10*
%TO.C,D26*%
X8296200Y-25289200D02*
X8296200Y-24186200D01*
X10280000Y-25300000D02*
X11200000Y-25300000D01*
X12170000Y-21420000D02*
X12940000Y-22420000D01*
X12940000Y-21420000D02*
X12170000Y-21420000D01*
X12940000Y-22420000D02*
X12940000Y-21420000D01*
D11*
X9080868Y-23880000D02*
G75*
G02*
X8619132Y-23880000I-230868J0D01*
G01*
X8619132Y-23880000D02*
G75*
G02*
X9080868Y-23880000I230868J0D01*
G01*
D10*
%TO.C,D24*%
X45420000Y-14660000D02*
X45420000Y-15430000D01*
X45420000Y-15430000D02*
X46420000Y-14660000D01*
X46420000Y-14660000D02*
X45420000Y-14660000D01*
X49289200Y-19303800D02*
X48186200Y-19303800D01*
X49300000Y-17320000D02*
X49300000Y-16400000D01*
D11*
X48110868Y-18750000D02*
G75*
G02*
X47649132Y-18750000I-230868J0D01*
G01*
X47649132Y-18750000D02*
G75*
G02*
X48110868Y-18750000I230868J0D01*
G01*
D10*
%TO.C,D8*%
X45420000Y-2660000D02*
X45420000Y-3430000D01*
X45420000Y-3430000D02*
X46420000Y-2660000D01*
X46420000Y-2660000D02*
X45420000Y-2660000D01*
X49289200Y-7303800D02*
X48186200Y-7303800D01*
X49300000Y-5320000D02*
X49300000Y-4400000D01*
D11*
X48110868Y-6750000D02*
G75*
G02*
X47649132Y-6750000I-230868J0D01*
G01*
X47649132Y-6750000D02*
G75*
G02*
X48110868Y-6750000I230868J0D01*
G01*
D10*
%TO.C,D22*%
X33420000Y-14660000D02*
X33420000Y-15430000D01*
X33420000Y-15430000D02*
X34420000Y-14660000D01*
X34420000Y-14660000D02*
X33420000Y-14660000D01*
X37289200Y-19303800D02*
X36186200Y-19303800D01*
X37300000Y-17320000D02*
X37300000Y-16400000D01*
D11*
X36110868Y-18750000D02*
G75*
G02*
X35649132Y-18750000I-230868J0D01*
G01*
X35649132Y-18750000D02*
G75*
G02*
X36110868Y-18750000I230868J0D01*
G01*
D10*
%TO.C,D40*%
X45420000Y-26660000D02*
X45420000Y-27430000D01*
X45420000Y-27430000D02*
X46420000Y-26660000D01*
X46420000Y-26660000D02*
X45420000Y-26660000D01*
X49289200Y-31303800D02*
X48186200Y-31303800D01*
X49300000Y-29320000D02*
X49300000Y-28400000D01*
D11*
X48110868Y-30750000D02*
G75*
G02*
X47649132Y-30750000I-230868J0D01*
G01*
X47649132Y-30750000D02*
G75*
G02*
X48110868Y-30750000I230868J0D01*
G01*
D10*
%TO.C,D32*%
X44296200Y-25289200D02*
X44296200Y-24186200D01*
X46280000Y-25300000D02*
X47200000Y-25300000D01*
X48170000Y-21420000D02*
X48940000Y-22420000D01*
X48940000Y-21420000D02*
X48170000Y-21420000D01*
X48940000Y-22420000D02*
X48940000Y-21420000D01*
D11*
X45080868Y-23880000D02*
G75*
G02*
X44619132Y-23880000I-230868J0D01*
G01*
X44619132Y-23880000D02*
G75*
G02*
X45080868Y-23880000I230868J0D01*
G01*
D10*
%TO.C,D6*%
X33420000Y-2660000D02*
X33420000Y-3430000D01*
X33420000Y-3430000D02*
X34420000Y-2660000D01*
X34420000Y-2660000D02*
X33420000Y-2660000D01*
X37289200Y-7303800D02*
X36186200Y-7303800D01*
X37300000Y-5320000D02*
X37300000Y-4400000D01*
D11*
X36110868Y-6750000D02*
G75*
G02*
X35649132Y-6750000I-230868J0D01*
G01*
X35649132Y-6750000D02*
G75*
G02*
X36110868Y-6750000I230868J0D01*
G01*
D10*
%TO.C,D62*%
X32296200Y-49289200D02*
X32296200Y-48186200D01*
X34280000Y-49300000D02*
X35200000Y-49300000D01*
X36170000Y-45420000D02*
X36940000Y-46420000D01*
X36940000Y-45420000D02*
X36170000Y-45420000D01*
X36940000Y-46420000D02*
X36940000Y-45420000D01*
D11*
X33080868Y-47880000D02*
G75*
G02*
X32619132Y-47880000I-230868J0D01*
G01*
X32619132Y-47880000D02*
G75*
G02*
X33080868Y-47880000I230868J0D01*
G01*
D10*
%TO.C,D10*%
X8296200Y-13289200D02*
X8296200Y-12186200D01*
X10280000Y-13300000D02*
X11200000Y-13300000D01*
X12170000Y-9420000D02*
X12940000Y-10420000D01*
X12940000Y-9420000D02*
X12170000Y-9420000D01*
X12940000Y-10420000D02*
X12940000Y-9420000D01*
D11*
X9080868Y-11880000D02*
G75*
G02*
X8619132Y-11880000I-230868J0D01*
G01*
X8619132Y-11880000D02*
G75*
G02*
X9080868Y-11880000I230868J0D01*
G01*
D10*
%TO.C,D49*%
X2296200Y-43289200D02*
X2296200Y-42186200D01*
X4280000Y-43300000D02*
X5200000Y-43300000D01*
X6170000Y-39420000D02*
X6940000Y-40420000D01*
X6940000Y-39420000D02*
X6170000Y-39420000D01*
X6940000Y-40420000D02*
X6940000Y-39420000D01*
D11*
X3080868Y-41880000D02*
G75*
G02*
X2619132Y-41880000I-230868J0D01*
G01*
X2619132Y-41880000D02*
G75*
G02*
X3080868Y-41880000I230868J0D01*
G01*
D10*
%TO.C,D44*%
X20296200Y-37289200D02*
X20296200Y-36186200D01*
X22280000Y-37300000D02*
X23200000Y-37300000D01*
X24170000Y-33420000D02*
X24940000Y-34420000D01*
X24940000Y-33420000D02*
X24170000Y-33420000D01*
X24940000Y-34420000D02*
X24940000Y-33420000D01*
D11*
X21080868Y-35880000D02*
G75*
G02*
X20619132Y-35880000I-230868J0D01*
G01*
X20619132Y-35880000D02*
G75*
G02*
X21080868Y-35880000I230868J0D01*
G01*
D10*
%TO.C,D41*%
X3420000Y-32660000D02*
X3420000Y-33430000D01*
X3420000Y-33430000D02*
X4420000Y-32660000D01*
X4420000Y-32660000D02*
X3420000Y-32660000D01*
X7289200Y-37303800D02*
X6186200Y-37303800D01*
X7300000Y-35320000D02*
X7300000Y-34400000D01*
D11*
X6110868Y-36750000D02*
G75*
G02*
X5649132Y-36750000I-230868J0D01*
G01*
X5649132Y-36750000D02*
G75*
G02*
X6110868Y-36750000I230868J0D01*
G01*
D10*
%TO.C,D35*%
X14296200Y-31289200D02*
X14296200Y-30186200D01*
X16280000Y-31300000D02*
X17200000Y-31300000D01*
X18170000Y-27420000D02*
X18940000Y-28420000D01*
X18940000Y-27420000D02*
X18170000Y-27420000D01*
X18940000Y-28420000D02*
X18940000Y-27420000D01*
D11*
X15080868Y-29880000D02*
G75*
G02*
X14619132Y-29880000I-230868J0D01*
G01*
X14619132Y-29880000D02*
G75*
G02*
X15080868Y-29880000I230868J0D01*
G01*
D10*
%TO.C,D31*%
X39420000Y-20660000D02*
X39420000Y-21430000D01*
X39420000Y-21430000D02*
X40420000Y-20660000D01*
X40420000Y-20660000D02*
X39420000Y-20660000D01*
X43289200Y-25303800D02*
X42186200Y-25303800D01*
X43300000Y-23320000D02*
X43300000Y-22400000D01*
D11*
X42110868Y-24750000D02*
G75*
G02*
X41649132Y-24750000I-230868J0D01*
G01*
X41649132Y-24750000D02*
G75*
G02*
X42110868Y-24750000I230868J0D01*
G01*
D10*
%TO.C,D33*%
X2296200Y-31289200D02*
X2296200Y-30186200D01*
X4280000Y-31300000D02*
X5200000Y-31300000D01*
X6170000Y-27420000D02*
X6940000Y-28420000D01*
X6940000Y-27420000D02*
X6170000Y-27420000D01*
X6940000Y-28420000D02*
X6940000Y-27420000D01*
D11*
X3080868Y-29880000D02*
G75*
G02*
X2619132Y-29880000I-230868J0D01*
G01*
X2619132Y-29880000D02*
G75*
G02*
X3080868Y-29880000I230868J0D01*
G01*
D10*
%TO.C,D20*%
X21420000Y-14660000D02*
X21420000Y-15430000D01*
X21420000Y-15430000D02*
X22420000Y-14660000D01*
X22420000Y-14660000D02*
X21420000Y-14660000D01*
X25289200Y-19303800D02*
X24186200Y-19303800D01*
X25300000Y-17320000D02*
X25300000Y-16400000D01*
D11*
X24110868Y-18750000D02*
G75*
G02*
X23649132Y-18750000I-230868J0D01*
G01*
X23649132Y-18750000D02*
G75*
G02*
X24110868Y-18750000I230868J0D01*
G01*
D10*
%TO.C,D30*%
X32296200Y-25289200D02*
X32296200Y-24186200D01*
X34280000Y-25300000D02*
X35200000Y-25300000D01*
X36170000Y-21420000D02*
X36940000Y-22420000D01*
X36940000Y-21420000D02*
X36170000Y-21420000D01*
X36940000Y-22420000D02*
X36940000Y-21420000D01*
D11*
X33080868Y-23880000D02*
G75*
G02*
X32619132Y-23880000I-230868J0D01*
G01*
X32619132Y-23880000D02*
G75*
G02*
X33080868Y-23880000I230868J0D01*
G01*
D10*
%TO.C,D46*%
X32296200Y-37289200D02*
X32296200Y-36186200D01*
X34280000Y-37300000D02*
X35200000Y-37300000D01*
X36170000Y-33420000D02*
X36940000Y-34420000D01*
X36940000Y-33420000D02*
X36170000Y-33420000D01*
X36940000Y-34420000D02*
X36940000Y-33420000D01*
D11*
X33080868Y-35880000D02*
G75*
G02*
X32619132Y-35880000I-230868J0D01*
G01*
X32619132Y-35880000D02*
G75*
G02*
X33080868Y-35880000I230868J0D01*
G01*
D10*
%TO.C,D9*%
X3420000Y-8660000D02*
X3420000Y-9430000D01*
X3420000Y-9430000D02*
X4420000Y-8660000D01*
X4420000Y-8660000D02*
X3420000Y-8660000D01*
X7289200Y-13303800D02*
X6186200Y-13303800D01*
X7300000Y-11320000D02*
X7300000Y-10400000D01*
D11*
X6110868Y-12750000D02*
G75*
G02*
X5649132Y-12750000I-230868J0D01*
G01*
X5649132Y-12750000D02*
G75*
G02*
X6110868Y-12750000I230868J0D01*
G01*
D10*
%TO.C,D27*%
X15420000Y-20660000D02*
X15420000Y-21430000D01*
X15420000Y-21430000D02*
X16420000Y-20660000D01*
X16420000Y-20660000D02*
X15420000Y-20660000D01*
X19289200Y-25303800D02*
X18186200Y-25303800D01*
X19300000Y-23320000D02*
X19300000Y-22400000D01*
D11*
X18110868Y-24750000D02*
G75*
G02*
X17649132Y-24750000I-230868J0D01*
G01*
X17649132Y-24750000D02*
G75*
G02*
X18110868Y-24750000I230868J0D01*
G01*
D10*
%TO.C,D13*%
X27420000Y-8660000D02*
X27420000Y-9430000D01*
X27420000Y-9430000D02*
X28420000Y-8660000D01*
X28420000Y-8660000D02*
X27420000Y-8660000D01*
X31289200Y-13303800D02*
X30186200Y-13303800D01*
X31300000Y-11320000D02*
X31300000Y-10400000D01*
D11*
X30110868Y-12750000D02*
G75*
G02*
X29649132Y-12750000I-230868J0D01*
G01*
X29649132Y-12750000D02*
G75*
G02*
X30110868Y-12750000I230868J0D01*
G01*
D10*
%TO.C,D60*%
X20296200Y-49289200D02*
X20296200Y-48186200D01*
X22280000Y-49300000D02*
X23200000Y-49300000D01*
X24170000Y-45420000D02*
X24940000Y-46420000D01*
X24940000Y-45420000D02*
X24170000Y-45420000D01*
X24940000Y-46420000D02*
X24940000Y-45420000D01*
D11*
X21080868Y-47880000D02*
G75*
G02*
X20619132Y-47880000I-230868J0D01*
G01*
X20619132Y-47880000D02*
G75*
G02*
X21080868Y-47880000I230868J0D01*
G01*
D10*
%TO.C,D23*%
X38296200Y-19289200D02*
X38296200Y-18186200D01*
X40280000Y-19300000D02*
X41200000Y-19300000D01*
X42170000Y-15420000D02*
X42940000Y-16420000D01*
X42940000Y-15420000D02*
X42170000Y-15420000D01*
X42940000Y-16420000D02*
X42940000Y-15420000D01*
D11*
X39080868Y-17880000D02*
G75*
G02*
X38619132Y-17880000I-230868J0D01*
G01*
X38619132Y-17880000D02*
G75*
G02*
X39080868Y-17880000I230868J0D01*
G01*
D10*
%TO.C,D1*%
X2296200Y-7289200D02*
X2296200Y-6186200D01*
X4280000Y-7300000D02*
X5200000Y-7300000D01*
X6170000Y-3420000D02*
X6940000Y-4420000D01*
X6940000Y-3420000D02*
X6170000Y-3420000D01*
X6940000Y-4420000D02*
X6940000Y-3420000D01*
D11*
X3080868Y-5880000D02*
G75*
G02*
X2619132Y-5880000I-230868J0D01*
G01*
X2619132Y-5880000D02*
G75*
G02*
X3080868Y-5880000I230868J0D01*
G01*
D10*
%TO.C,D25*%
X3420000Y-20660000D02*
X3420000Y-21430000D01*
X3420000Y-21430000D02*
X4420000Y-20660000D01*
X4420000Y-20660000D02*
X3420000Y-20660000D01*
X7289200Y-25303800D02*
X6186200Y-25303800D01*
X7300000Y-23320000D02*
X7300000Y-22400000D01*
D11*
X6110868Y-24750000D02*
G75*
G02*
X5649132Y-24750000I-230868J0D01*
G01*
X5649132Y-24750000D02*
G75*
G02*
X6110868Y-24750000I230868J0D01*
G01*
D10*
%TO.C,D19*%
X14296200Y-19289200D02*
X14296200Y-18186200D01*
X16280000Y-19300000D02*
X17200000Y-19300000D01*
X18170000Y-15420000D02*
X18940000Y-16420000D01*
X18940000Y-15420000D02*
X18170000Y-15420000D01*
X18940000Y-16420000D02*
X18940000Y-15420000D01*
D11*
X15080868Y-17880000D02*
G75*
G02*
X14619132Y-17880000I-230868J0D01*
G01*
X14619132Y-17880000D02*
G75*
G02*
X15080868Y-17880000I230868J0D01*
G01*
D10*
%TO.C,D57*%
X3420000Y-44660000D02*
X3420000Y-45430000D01*
X3420000Y-45430000D02*
X4420000Y-44660000D01*
X4420000Y-44660000D02*
X3420000Y-44660000D01*
X7289200Y-49303800D02*
X6186200Y-49303800D01*
X7300000Y-47320000D02*
X7300000Y-46400000D01*
D11*
X6110868Y-48750000D02*
G75*
G02*
X5649132Y-48750000I-230868J0D01*
G01*
X5649132Y-48750000D02*
G75*
G02*
X6110868Y-48750000I230868J0D01*
G01*
D10*
%TO.C,D7*%
X38296200Y-7289200D02*
X38296200Y-6186200D01*
X40280000Y-7300000D02*
X41200000Y-7300000D01*
X42170000Y-3420000D02*
X42940000Y-4420000D01*
X42940000Y-3420000D02*
X42170000Y-3420000D01*
X42940000Y-4420000D02*
X42940000Y-3420000D01*
D11*
X39080868Y-5880000D02*
G75*
G02*
X38619132Y-5880000I-230868J0D01*
G01*
X38619132Y-5880000D02*
G75*
G02*
X39080868Y-5880000I230868J0D01*
G01*
D10*
%TO.C,D5*%
X26296200Y-7289200D02*
X26296200Y-6186200D01*
X28280000Y-7300000D02*
X29200000Y-7300000D01*
X30170000Y-3420000D02*
X30940000Y-4420000D01*
X30940000Y-3420000D02*
X30170000Y-3420000D01*
X30940000Y-4420000D02*
X30940000Y-3420000D01*
D11*
X27080868Y-5880000D02*
G75*
G02*
X26619132Y-5880000I-230868J0D01*
G01*
X26619132Y-5880000D02*
G75*
G02*
X27080868Y-5880000I230868J0D01*
G01*
D10*
%TO.C,D45*%
X27420000Y-32660000D02*
X27420000Y-33430000D01*
X27420000Y-33430000D02*
X28420000Y-32660000D01*
X28420000Y-32660000D02*
X27420000Y-32660000D01*
X31289200Y-37303800D02*
X30186200Y-37303800D01*
X31300000Y-35320000D02*
X31300000Y-34400000D01*
D11*
X30110868Y-36750000D02*
G75*
G02*
X29649132Y-36750000I-230868J0D01*
G01*
X29649132Y-36750000D02*
G75*
G02*
X30110868Y-36750000I230868J0D01*
G01*
%TD*%
D12*
X51500000Y-2550000D03*
X5850000Y-52600000D03*
X7850000Y-52600000D03*
X9850000Y-52600000D03*
X11850000Y-52600000D03*
X2500000Y-51500000D03*
M02*
