%TF.GenerationSoftware,KiCad,Pcbnew,8.0.7*%
%TF.CreationDate,2025-01-15T18:16:12+00:00*%
%TF.ProjectId,Wireless,57697265-6c65-4737-932e-6b696361645f,rev?*%
%TF.SameCoordinates,Original*%
%TF.FileFunction,Legend,Bot*%
%TF.FilePolarity,Positive*%
%FSLAX46Y46*%
G04 Gerber Fmt 4.6, Leading zero omitted, Abs format (unit mm)*
G04 Created by KiCad (PCBNEW 8.0.7) date 2025-01-15 18:16:12*
%MOMM*%
%LPD*%
G01*
G04 APERTURE LIST*
%ADD10C,0.250000*%
%ADD11C,0.150000*%
%ADD12C,0.300000*%
%ADD13C,0.350000*%
G04 APERTURE END LIST*
D10*
X23449522Y-23241099D02*
X23211427Y-24241099D01*
X23211427Y-24241099D02*
X23020951Y-23526813D01*
X23020951Y-23526813D02*
X22830475Y-24241099D01*
X22830475Y-24241099D02*
X22592380Y-23241099D01*
X22211427Y-24241099D02*
X22211427Y-23574432D01*
X22211427Y-23241099D02*
X22259046Y-23288718D01*
X22259046Y-23288718D02*
X22211427Y-23336337D01*
X22211427Y-23336337D02*
X22163808Y-23288718D01*
X22163808Y-23288718D02*
X22211427Y-23241099D01*
X22211427Y-23241099D02*
X22211427Y-23336337D01*
X21735237Y-24241099D02*
X21735237Y-23574432D01*
X21735237Y-23764908D02*
X21687618Y-23669670D01*
X21687618Y-23669670D02*
X21639999Y-23622051D01*
X21639999Y-23622051D02*
X21544761Y-23574432D01*
X21544761Y-23574432D02*
X21449523Y-23574432D01*
X20735237Y-24193480D02*
X20830475Y-24241099D01*
X20830475Y-24241099D02*
X21020951Y-24241099D01*
X21020951Y-24241099D02*
X21116189Y-24193480D01*
X21116189Y-24193480D02*
X21163808Y-24098241D01*
X21163808Y-24098241D02*
X21163808Y-23717289D01*
X21163808Y-23717289D02*
X21116189Y-23622051D01*
X21116189Y-23622051D02*
X21020951Y-23574432D01*
X21020951Y-23574432D02*
X20830475Y-23574432D01*
X20830475Y-23574432D02*
X20735237Y-23622051D01*
X20735237Y-23622051D02*
X20687618Y-23717289D01*
X20687618Y-23717289D02*
X20687618Y-23812527D01*
X20687618Y-23812527D02*
X21163808Y-23907765D01*
X20116189Y-24241099D02*
X20211427Y-24193480D01*
X20211427Y-24193480D02*
X20259046Y-24098241D01*
X20259046Y-24098241D02*
X20259046Y-23241099D01*
X19354284Y-24193480D02*
X19449522Y-24241099D01*
X19449522Y-24241099D02*
X19639998Y-24241099D01*
X19639998Y-24241099D02*
X19735236Y-24193480D01*
X19735236Y-24193480D02*
X19782855Y-24098241D01*
X19782855Y-24098241D02*
X19782855Y-23717289D01*
X19782855Y-23717289D02*
X19735236Y-23622051D01*
X19735236Y-23622051D02*
X19639998Y-23574432D01*
X19639998Y-23574432D02*
X19449522Y-23574432D01*
X19449522Y-23574432D02*
X19354284Y-23622051D01*
X19354284Y-23622051D02*
X19306665Y-23717289D01*
X19306665Y-23717289D02*
X19306665Y-23812527D01*
X19306665Y-23812527D02*
X19782855Y-23907765D01*
X18925712Y-24193480D02*
X18830474Y-24241099D01*
X18830474Y-24241099D02*
X18639998Y-24241099D01*
X18639998Y-24241099D02*
X18544760Y-24193480D01*
X18544760Y-24193480D02*
X18497141Y-24098241D01*
X18497141Y-24098241D02*
X18497141Y-24050622D01*
X18497141Y-24050622D02*
X18544760Y-23955384D01*
X18544760Y-23955384D02*
X18639998Y-23907765D01*
X18639998Y-23907765D02*
X18782855Y-23907765D01*
X18782855Y-23907765D02*
X18878093Y-23860146D01*
X18878093Y-23860146D02*
X18925712Y-23764908D01*
X18925712Y-23764908D02*
X18925712Y-23717289D01*
X18925712Y-23717289D02*
X18878093Y-23622051D01*
X18878093Y-23622051D02*
X18782855Y-23574432D01*
X18782855Y-23574432D02*
X18639998Y-23574432D01*
X18639998Y-23574432D02*
X18544760Y-23622051D01*
X18116188Y-24193480D02*
X18020950Y-24241099D01*
X18020950Y-24241099D02*
X17830474Y-24241099D01*
X17830474Y-24241099D02*
X17735236Y-24193480D01*
X17735236Y-24193480D02*
X17687617Y-24098241D01*
X17687617Y-24098241D02*
X17687617Y-24050622D01*
X17687617Y-24050622D02*
X17735236Y-23955384D01*
X17735236Y-23955384D02*
X17830474Y-23907765D01*
X17830474Y-23907765D02*
X17973331Y-23907765D01*
X17973331Y-23907765D02*
X18068569Y-23860146D01*
X18068569Y-23860146D02*
X18116188Y-23764908D01*
X18116188Y-23764908D02*
X18116188Y-23717289D01*
X18116188Y-23717289D02*
X18068569Y-23622051D01*
X18068569Y-23622051D02*
X17973331Y-23574432D01*
X17973331Y-23574432D02*
X17830474Y-23574432D01*
X17830474Y-23574432D02*
X17735236Y-23622051D01*
X16592378Y-23574432D02*
X16354283Y-24241099D01*
X16354283Y-24241099D02*
X16116188Y-23574432D01*
X15544759Y-23241099D02*
X15449521Y-23241099D01*
X15449521Y-23241099D02*
X15354283Y-23288718D01*
X15354283Y-23288718D02*
X15306664Y-23336337D01*
X15306664Y-23336337D02*
X15259045Y-23431575D01*
X15259045Y-23431575D02*
X15211426Y-23622051D01*
X15211426Y-23622051D02*
X15211426Y-23860146D01*
X15211426Y-23860146D02*
X15259045Y-24050622D01*
X15259045Y-24050622D02*
X15306664Y-24145860D01*
X15306664Y-24145860D02*
X15354283Y-24193480D01*
X15354283Y-24193480D02*
X15449521Y-24241099D01*
X15449521Y-24241099D02*
X15544759Y-24241099D01*
X15544759Y-24241099D02*
X15639997Y-24193480D01*
X15639997Y-24193480D02*
X15687616Y-24145860D01*
X15687616Y-24145860D02*
X15735235Y-24050622D01*
X15735235Y-24050622D02*
X15782854Y-23860146D01*
X15782854Y-23860146D02*
X15782854Y-23622051D01*
X15782854Y-23622051D02*
X15735235Y-23431575D01*
X15735235Y-23431575D02*
X15687616Y-23336337D01*
X15687616Y-23336337D02*
X15639997Y-23288718D01*
X15639997Y-23288718D02*
X15544759Y-23241099D01*
X14782854Y-24145860D02*
X14735235Y-24193480D01*
X14735235Y-24193480D02*
X14782854Y-24241099D01*
X14782854Y-24241099D02*
X14830473Y-24193480D01*
X14830473Y-24193480D02*
X14782854Y-24145860D01*
X14782854Y-24145860D02*
X14782854Y-24241099D01*
X13830474Y-23241099D02*
X14306664Y-23241099D01*
X14306664Y-23241099D02*
X14354283Y-23717289D01*
X14354283Y-23717289D02*
X14306664Y-23669670D01*
X14306664Y-23669670D02*
X14211426Y-23622051D01*
X14211426Y-23622051D02*
X13973331Y-23622051D01*
X13973331Y-23622051D02*
X13878093Y-23669670D01*
X13878093Y-23669670D02*
X13830474Y-23717289D01*
X13830474Y-23717289D02*
X13782855Y-23812527D01*
X13782855Y-23812527D02*
X13782855Y-24050622D01*
X13782855Y-24050622D02*
X13830474Y-24145860D01*
X13830474Y-24145860D02*
X13878093Y-24193480D01*
X13878093Y-24193480D02*
X13973331Y-24241099D01*
X13973331Y-24241099D02*
X14211426Y-24241099D01*
X14211426Y-24241099D02*
X14306664Y-24193480D01*
X14306664Y-24193480D02*
X14354283Y-24145860D01*
D11*
X12218104Y-20971303D02*
X12256200Y-20933207D01*
X12256200Y-20933207D02*
X12294295Y-20818922D01*
X12294295Y-20818922D02*
X12294295Y-20742731D01*
X12294295Y-20742731D02*
X12256200Y-20628445D01*
X12256200Y-20628445D02*
X12180009Y-20552255D01*
X12180009Y-20552255D02*
X12103819Y-20514160D01*
X12103819Y-20514160D02*
X11951438Y-20476064D01*
X11951438Y-20476064D02*
X11837152Y-20476064D01*
X11837152Y-20476064D02*
X11684771Y-20514160D01*
X11684771Y-20514160D02*
X11608580Y-20552255D01*
X11608580Y-20552255D02*
X11532390Y-20628445D01*
X11532390Y-20628445D02*
X11494295Y-20742731D01*
X11494295Y-20742731D02*
X11494295Y-20818922D01*
X11494295Y-20818922D02*
X11532390Y-20933207D01*
X11532390Y-20933207D02*
X11570485Y-20971303D01*
X12294295Y-21695112D02*
X12294295Y-21314160D01*
X12294295Y-21314160D02*
X11494295Y-21314160D01*
X12294295Y-21961779D02*
X11494295Y-21961779D01*
X12294295Y-22418922D02*
X11837152Y-22076064D01*
X11494295Y-22418922D02*
X11951438Y-21961779D01*
X5444295Y-21645112D02*
X5444295Y-21264160D01*
X5444295Y-21264160D02*
X5825247Y-21226064D01*
X5825247Y-21226064D02*
X5787152Y-21264160D01*
X5787152Y-21264160D02*
X5749057Y-21340350D01*
X5749057Y-21340350D02*
X5749057Y-21530826D01*
X5749057Y-21530826D02*
X5787152Y-21607017D01*
X5787152Y-21607017D02*
X5825247Y-21645112D01*
X5825247Y-21645112D02*
X5901438Y-21683207D01*
X5901438Y-21683207D02*
X6091914Y-21683207D01*
X6091914Y-21683207D02*
X6168104Y-21645112D01*
X6168104Y-21645112D02*
X6206200Y-21607017D01*
X6206200Y-21607017D02*
X6244295Y-21530826D01*
X6244295Y-21530826D02*
X6244295Y-21340350D01*
X6244295Y-21340350D02*
X6206200Y-21264160D01*
X6206200Y-21264160D02*
X6168104Y-21226064D01*
X5444295Y-21911779D02*
X6244295Y-22178446D01*
X6244295Y-22178446D02*
X5444295Y-22445112D01*
X10181200Y-19051064D02*
X10219295Y-19165350D01*
X10219295Y-19165350D02*
X10219295Y-19355826D01*
X10219295Y-19355826D02*
X10181200Y-19432017D01*
X10181200Y-19432017D02*
X10143104Y-19470112D01*
X10143104Y-19470112D02*
X10066914Y-19508207D01*
X10066914Y-19508207D02*
X9990723Y-19508207D01*
X9990723Y-19508207D02*
X9914533Y-19470112D01*
X9914533Y-19470112D02*
X9876438Y-19432017D01*
X9876438Y-19432017D02*
X9838342Y-19355826D01*
X9838342Y-19355826D02*
X9800247Y-19203445D01*
X9800247Y-19203445D02*
X9762152Y-19127255D01*
X9762152Y-19127255D02*
X9724057Y-19089160D01*
X9724057Y-19089160D02*
X9647866Y-19051064D01*
X9647866Y-19051064D02*
X9571676Y-19051064D01*
X9571676Y-19051064D02*
X9495485Y-19089160D01*
X9495485Y-19089160D02*
X9457390Y-19127255D01*
X9457390Y-19127255D02*
X9419295Y-19203445D01*
X9419295Y-19203445D02*
X9419295Y-19393922D01*
X9419295Y-19393922D02*
X9457390Y-19508207D01*
X9419295Y-19774874D02*
X10219295Y-19965350D01*
X10219295Y-19965350D02*
X9647866Y-20117731D01*
X9647866Y-20117731D02*
X10219295Y-20270112D01*
X10219295Y-20270112D02*
X9419295Y-20460589D01*
X10219295Y-20765351D02*
X9419295Y-20765351D01*
X9419295Y-20765351D02*
X9419295Y-20955827D01*
X9419295Y-20955827D02*
X9457390Y-21070113D01*
X9457390Y-21070113D02*
X9533580Y-21146303D01*
X9533580Y-21146303D02*
X9609771Y-21184398D01*
X9609771Y-21184398D02*
X9762152Y-21222494D01*
X9762152Y-21222494D02*
X9876438Y-21222494D01*
X9876438Y-21222494D02*
X10028819Y-21184398D01*
X10028819Y-21184398D02*
X10105009Y-21146303D01*
X10105009Y-21146303D02*
X10181200Y-21070113D01*
X10181200Y-21070113D02*
X10219295Y-20955827D01*
X10219295Y-20955827D02*
X10219295Y-20765351D01*
X10219295Y-21565351D02*
X9419295Y-21565351D01*
X9419295Y-22098684D02*
X9419295Y-22251065D01*
X9419295Y-22251065D02*
X9457390Y-22327255D01*
X9457390Y-22327255D02*
X9533580Y-22403446D01*
X9533580Y-22403446D02*
X9685961Y-22441541D01*
X9685961Y-22441541D02*
X9952628Y-22441541D01*
X9952628Y-22441541D02*
X10105009Y-22403446D01*
X10105009Y-22403446D02*
X10181200Y-22327255D01*
X10181200Y-22327255D02*
X10219295Y-22251065D01*
X10219295Y-22251065D02*
X10219295Y-22098684D01*
X10219295Y-22098684D02*
X10181200Y-22022493D01*
X10181200Y-22022493D02*
X10105009Y-21946303D01*
X10105009Y-21946303D02*
X9952628Y-21908207D01*
X9952628Y-21908207D02*
X9685961Y-21908207D01*
X9685961Y-21908207D02*
X9533580Y-21946303D01*
X9533580Y-21946303D02*
X9457390Y-22022493D01*
X9457390Y-22022493D02*
X9419295Y-22098684D01*
X7507390Y-20783207D02*
X7469295Y-20707017D01*
X7469295Y-20707017D02*
X7469295Y-20592731D01*
X7469295Y-20592731D02*
X7507390Y-20478445D01*
X7507390Y-20478445D02*
X7583580Y-20402255D01*
X7583580Y-20402255D02*
X7659771Y-20364160D01*
X7659771Y-20364160D02*
X7812152Y-20326064D01*
X7812152Y-20326064D02*
X7926438Y-20326064D01*
X7926438Y-20326064D02*
X8078819Y-20364160D01*
X8078819Y-20364160D02*
X8155009Y-20402255D01*
X8155009Y-20402255D02*
X8231200Y-20478445D01*
X8231200Y-20478445D02*
X8269295Y-20592731D01*
X8269295Y-20592731D02*
X8269295Y-20668922D01*
X8269295Y-20668922D02*
X8231200Y-20783207D01*
X8231200Y-20783207D02*
X8193104Y-20821303D01*
X8193104Y-20821303D02*
X7926438Y-20821303D01*
X7926438Y-20821303D02*
X7926438Y-20668922D01*
X8269295Y-21164160D02*
X7469295Y-21164160D01*
X7469295Y-21164160D02*
X8269295Y-21621303D01*
X8269295Y-21621303D02*
X7469295Y-21621303D01*
X8269295Y-22002255D02*
X7469295Y-22002255D01*
X7469295Y-22002255D02*
X7469295Y-22192731D01*
X7469295Y-22192731D02*
X7507390Y-22307017D01*
X7507390Y-22307017D02*
X7583580Y-22383207D01*
X7583580Y-22383207D02*
X7659771Y-22421302D01*
X7659771Y-22421302D02*
X7812152Y-22459398D01*
X7812152Y-22459398D02*
X7926438Y-22459398D01*
X7926438Y-22459398D02*
X8078819Y-22421302D01*
X8078819Y-22421302D02*
X8155009Y-22383207D01*
X8155009Y-22383207D02*
X8231200Y-22307017D01*
X8231200Y-22307017D02*
X8269295Y-22192731D01*
X8269295Y-22192731D02*
X8269295Y-22002255D01*
D12*
X16115000Y-1275000D03*
D13*
X5850000Y-23600000D03*
X7850000Y-23600000D03*
X9850000Y-23600000D03*
X11850000Y-23600000D03*
X22500000Y-2500000D03*
X2500000Y-22500000D03*
M02*
