M48
; DRILL file {KiCad 8.0.7} date 2025-01-15T18:16:12+0000
; FORMAT={-:-/ absolute / inch / decimal}
; #@! TF.CreationDate,2025-01-15T18:16:12+00:00
; #@! TF.GenerationSoftware,Kicad,Pcbnew,8.0.7
; #@! TF.FileFunction,Plated,1,4,PTH
FMAT,2
INCH
; #@! TA.AperFunction,Plated,PTH,ViaDrill
T1C0.0118
; #@! TA.AperFunction,Plated,PTH,ComponentDrill
T2C0.0118
; #@! TA.AperFunction,Plated,PTH,ComponentDrill
T3C0.0295
%
G90
G05
T1
X0.0039Y-0.5906
X0.0069Y-0.4094
X0.0098Y-0.2776
X0.0236Y-0.1024
X0.0335Y-0.7569
X0.1073Y-0.4085
X0.1112Y-0.5689
X0.1142Y-0.5217
X0.1161Y-0.6555
X0.1177Y-0.465
X0.1407Y-0.3307
X0.1408Y-0.1751
X0.1411Y-0.1067
X0.1429Y-0.6061
X0.1457Y-0.4262
X0.1516Y-0.5758
X0.1742Y-0.749
X0.2156Y-0.2893
X0.2313Y-0.0994
X0.2461Y-0.7431
X0.2493Y-0.6627
X0.2628Y-0.2923
X0.2638Y-0.0994
X0.2687Y-0.4852
X0.2756Y-0.7943
X0.2904Y-0.2018
X0.2963Y-0.0984
X0.2992Y-0.3976
X0.31Y-0.487
X0.3159Y-0.5421
X0.3268Y-0.0994
X0.3278Y-0.1299
X0.3947Y-0.5106
X0.4203Y-0.0994
X0.4321Y-0.5817
X0.4429Y-0.128
X0.4498Y-0.0994
X0.4518Y-0.7717
X0.4547Y-0.7126
X0.4616Y-0.3784
X0.4793Y-0.0994
X0.4961Y-0.7185
X0.5128Y-0.1004
X0.5276Y-0.1565
X0.5413Y-0.3012
X0.5433Y-0.5696
X0.5443Y-0.1004
X0.552Y-0.5999
X0.5571Y-0.7185
X0.56Y-0.4439
X0.561Y-0.936
X0.5748Y-0.1004
X0.5866Y-0.19
X0.5884Y-0.367
X0.6053Y-0.1014
X0.6075Y-0.55
X0.6358Y-0.1014
X0.6431Y-0.4285
X0.6486Y-0.1516
X0.6693Y-0.1014
X0.6703Y-0.4528
X0.6791Y-0.8583
X0.7018Y-0.3898
X0.7037Y-0.5
X0.7047Y-0.1014
X0.7077Y-0.5955
X0.7224Y-0.189
X0.7264Y-0.6978
X0.7323Y-0.2992
X0.7333Y-0.7844
X0.7372Y-0.1014
X0.7726Y-0.1024
X0.7776Y-0.1467
X0.7972Y-0.1841
X0.8071Y-0.8455
X0.8189Y-0.5305
X0.8189Y-0.5719
X0.8278Y-0.373
X0.8415Y-0.2096
X0.8533Y-0.4872
X0.8738Y-0.6356
X0.8789Y-0.3445
X0.8829Y-0.4193
X0.8917Y-0.938
X0.9094Y-0.4445
X0.939Y-0.8051
X0.9567Y-0.3031
X0.9646Y-0.5079
X0.9734Y-0.7441
T2
X0.6344Y-0.0502
T3
X0.2303Y-0.9291
X0.3091Y-0.9291
X0.3878Y-0.9291
X0.4665Y-0.9291
M30
