M48
; DRILL file {KiCad 8.0.6-8.0.6-0~ubuntu24.04.1} date 2024-10-19T18:08:10+0100
; FORMAT={-:-/ absolute / inch / decimal}
; #@! TF.CreationDate,2024-10-19T18:08:10+01:00
; #@! TF.GenerationSoftware,Kicad,Pcbnew,8.0.6-8.0.6-0~ubuntu24.04.1
; #@! TF.FileFunction,Plated,1,2,PTH
FMAT,2
INCH
; #@! TA.AperFunction,Plated,PTH,ViaDrill
T1C0.0118
; #@! TA.AperFunction,Plated,PTH,ComponentDrill
T2C0.0295
%
G90
G05
T1
X0.0433Y-0.3346
X0.0512Y-0.6417
X0.0876Y-0.5709
X0.0955Y-0.4026
X0.1035Y-0.0579
X0.1053Y-0.501
X0.1122Y-0.4577
X0.1152Y-0.5463
X0.1368Y-0.6014
X0.1467Y-0.4163
X0.1579Y-0.502
X0.19Y-0.3091
X0.2116Y-0.9577
X0.2283Y-0.8337
X0.2732Y-0.2508
X0.2835Y-0.3437
X0.2874Y-0.6772
X0.398Y-0.3472
X0.4102Y-0.5705
X0.4402Y-0.4341
X0.4713Y-0.6547
X0.5004Y-0.2949
X0.5035Y-0.3476
X0.5433Y-0.6417
X0.5437Y-0.5748
X0.5453Y-0.0504
X0.5531Y-0.8602
X0.5988Y-0.2079
X0.6228Y-0.3508
X0.626Y-0.7787
X0.7031Y-0.6496
X0.7634Y-0.6972
X0.7665Y-0.1504
X0.7819Y-0.2531
X0.7827Y-0.7472
X0.8585Y-0.6329
X0.8594Y-0.8492
X0.8772Y-0.8138
X0.9087Y-0.6343
X0.9413Y-0.6402
X0.9831Y-0.2331
X0.9839Y-0.0827
X1.0024Y-0.5406
X1.0374Y-0.501
X1.1189Y-0.6429
X1.1228Y-0.2512
X1.1492Y-0.4636
X1.1768Y-0.3386
X1.2091Y-0.9638
X1.2165Y-0.6504
X1.235Y-0.2323
X1.2531Y-0.6303
X1.263Y-0.3335
X1.3252Y-0.1839
X1.3335Y-0.6547
X1.352Y-0.9598
X1.3807Y-0.6311
X1.4079Y-0.3311
X1.4677Y-0.6909
X1.4941Y-0.339
X1.5043Y-0.5778
X1.5232Y-0.9091
X1.5236Y-0.1028
X1.5248Y-0.8217
X1.5449Y-0.687
X1.5992Y-0.6331
X1.6189Y-0.3327
X1.6693Y-0.2811
X1.6732Y-0.9157
X1.7215Y-0.7608
X1.7386Y-0.0429
X1.7461Y-0.6673
X1.7795Y-0.3159
X1.8102Y-0.3622
X1.8179Y-0.5945
X1.8191Y-0.5453
X1.8268Y-0.4587
X1.8327Y-0.4094
X1.8504Y-0.5679
X1.8543Y-0.5049
X1.8612Y-0.4577
X1.8701Y-0.8921
X1.9281Y-0.6575
X1.9321Y-0.2874
T2
X0.2736Y-0.9154
X0.3524Y-0.9154
X0.4311Y-0.9154
X0.5098Y-0.9154
M30
