%TF.GenerationSoftware,KiCad,Pcbnew,8.0.6-8.0.6-0~ubuntu24.04.1*%
%TF.CreationDate,2024-10-19T18:08:10+01:00*%
%TF.ProjectId,Buttons,42757474-6f6e-4732-9e6b-696361645f70,rev?*%
%TF.SameCoordinates,Original*%
%TF.FileFunction,Copper,L1,Top*%
%TF.FilePolarity,Positive*%
%FSLAX46Y46*%
G04 Gerber Fmt 4.6, Leading zero omitted, Abs format (unit mm)*
G04 Created by KiCad (PCBNEW 8.0.6-8.0.6-0~ubuntu24.04.1) date 2024-10-19 18:08:10*
%MOMM*%
%LPD*%
G01*
G04 APERTURE LIST*
G04 Aperture macros list*
%AMRoundRect*
0 Rectangle with rounded corners*
0 $1 Rounding radius*
0 $2 $3 $4 $5 $6 $7 $8 $9 X,Y pos of 4 corners*
0 Add a 4 corners polygon primitive as box body*
4,1,4,$2,$3,$4,$5,$6,$7,$8,$9,$2,$3,0*
0 Add four circle primitives for the rounded corners*
1,1,$1+$1,$2,$3*
1,1,$1+$1,$4,$5*
1,1,$1+$1,$6,$7*
1,1,$1+$1,$8,$9*
0 Add four rect primitives between the rounded corners*
20,1,$1+$1,$2,$3,$4,$5,0*
20,1,$1+$1,$4,$5,$6,$7,0*
20,1,$1+$1,$6,$7,$8,$9,0*
20,1,$1+$1,$8,$9,$2,$3,0*%
G04 Aperture macros list end*
%TA.AperFunction,SMDPad,CuDef*%
%ADD10RoundRect,0.147500X-0.172500X0.147500X-0.172500X-0.147500X0.172500X-0.147500X0.172500X0.147500X0*%
%TD*%
%TA.AperFunction,SMDPad,CuDef*%
%ADD11R,2.000000X1.600000*%
%TD*%
%TA.AperFunction,SMDPad,CuDef*%
%ADD12R,1.250000X0.300000*%
%TD*%
%TA.AperFunction,SMDPad,CuDef*%
%ADD13RoundRect,0.112500X-0.112500X0.187500X-0.112500X-0.187500X0.112500X-0.187500X0.112500X0.187500X0*%
%TD*%
%TA.AperFunction,SMDPad,CuDef*%
%ADD14R,0.650000X0.400000*%
%TD*%
%TA.AperFunction,SMDPad,CuDef*%
%ADD15R,1.550000X1.300000*%
%TD*%
%TA.AperFunction,SMDPad,CuDef*%
%ADD16RoundRect,0.147500X0.172500X-0.147500X0.172500X0.147500X-0.172500X0.147500X-0.172500X-0.147500X0*%
%TD*%
%TA.AperFunction,ComponentPad*%
%ADD17R,1.350000X1.350000*%
%TD*%
%TA.AperFunction,ComponentPad*%
%ADD18O,1.350000X1.350000*%
%TD*%
%TA.AperFunction,SMDPad,CuDef*%
%ADD19R,1.060000X0.650000*%
%TD*%
%TA.AperFunction,SMDPad,CuDef*%
%ADD20RoundRect,0.147500X0.147500X0.172500X-0.147500X0.172500X-0.147500X-0.172500X0.147500X-0.172500X0*%
%TD*%
%TA.AperFunction,SMDPad,CuDef*%
%ADD21RoundRect,0.100000X0.637500X0.100000X-0.637500X0.100000X-0.637500X-0.100000X0.637500X-0.100000X0*%
%TD*%
%TA.AperFunction,SMDPad,CuDef*%
%ADD22RoundRect,0.147500X-0.147500X-0.172500X0.147500X-0.172500X0.147500X0.172500X-0.147500X0.172500X0*%
%TD*%
%TA.AperFunction,ViaPad*%
%ADD23C,0.600000*%
%TD*%
%TA.AperFunction,Conductor*%
%ADD24C,0.200000*%
%TD*%
%ADD25C,0.300000*%
%ADD26C,0.350000*%
G04 APERTURE END LIST*
D10*
%TO.P,C9,1*%
%TO.N,VDD*%
X42500000Y-21580000D03*
%TO.P,C9,2*%
%TO.N,GND*%
X42500000Y-22550000D03*
%TD*%
D11*
%TO.P,J1,*%
%TO.N,*%
X3000000Y-18100000D03*
X3000000Y-6900000D03*
D12*
%TO.P,J1,1,1*%
%TO.N,GND*%
X5655000Y-8750000D03*
%TO.P,J1,2,2*%
%TO.N,5V*%
X5655000Y-9250000D03*
%TO.P,J1,3,3*%
X5655000Y-9750000D03*
%TO.P,J1,4,4*%
%TO.N,GND*%
X5655000Y-10250000D03*
%TO.P,J1,5,5*%
%TO.N,PS*%
X5655000Y-10750000D03*
%TO.P,J1,6,6*%
%TO.N,GND*%
X5655000Y-11250000D03*
%TO.P,J1,7,7*%
%TO.N,SCLK*%
X5655000Y-11750000D03*
%TO.P,J1,8,8*%
%TO.N,GND*%
X5655000Y-12250000D03*
%TO.P,J1,9,9*%
%TO.N,MISO*%
X5655000Y-12750000D03*
%TO.P,J1,10,10*%
%TO.N,GND*%
X5655000Y-13250000D03*
%TO.P,J1,11,11*%
%TO.N,MOSI*%
X5655000Y-13750000D03*
%TO.P,J1,12,12*%
%TO.N,Interrupt5V*%
X5655000Y-14250000D03*
%TO.P,J1,13,13*%
%TO.N,GND*%
X5655000Y-14750000D03*
%TO.P,J1,14,14*%
%TO.N,5V*%
X5655000Y-15250000D03*
%TO.P,J1,15,15*%
X5655000Y-15750000D03*
%TO.P,J1,16,16*%
%TO.N,GND*%
X5655000Y-16250000D03*
%TD*%
D11*
%TO.P,J3,*%
%TO.N,*%
X47000000Y-6900000D03*
X47000000Y-18100000D03*
D12*
%TO.P,J3,1,1*%
%TO.N,GND*%
X44345000Y-16250000D03*
%TO.P,J3,2,2*%
%TO.N,5V*%
X44345000Y-15750000D03*
%TO.P,J3,3,3*%
X44345000Y-15250000D03*
%TO.P,J3,4,4*%
%TO.N,GND*%
X44345000Y-14750000D03*
%TO.P,J3,5,5*%
%TO.N,Interrupt5V*%
X44345000Y-14250000D03*
%TO.P,J3,6,6*%
%TO.N,MOSI*%
X44345000Y-13750000D03*
%TO.P,J3,7,7*%
%TO.N,GND*%
X44345000Y-13250000D03*
%TO.P,J3,8,8*%
%TO.N,MISO*%
X44345000Y-12750000D03*
%TO.P,J3,9,9*%
%TO.N,GND*%
X44345000Y-12250000D03*
%TO.P,J3,10,10*%
%TO.N,SCLK*%
X44345000Y-11750000D03*
%TO.P,J3,11,11*%
%TO.N,GND*%
X44345000Y-11250000D03*
%TO.P,J3,12,12*%
%TO.N,PS*%
X44345000Y-10750000D03*
%TO.P,J3,13,13*%
%TO.N,GND*%
X44345000Y-10250000D03*
%TO.P,J3,14,14*%
%TO.N,5V*%
X44345000Y-9750000D03*
%TO.P,J3,15,15*%
X44345000Y-9250000D03*
%TO.P,J3,16,16*%
%TO.N,GND*%
X44345000Y-8750000D03*
%TD*%
D13*
%TO.P,D3,1,K*%
%TO.N,Switch5V*%
X8720000Y-3010000D03*
%TO.P,D3,2,A*%
%TO.N,Interrupt5V*%
X8720000Y-5110000D03*
%TD*%
D14*
%TO.P,U5,1*%
%TO.N,N/C*%
X33940000Y-2160000D03*
%TO.P,U5,2*%
%TO.N,SW4*%
X33940000Y-2810000D03*
%TO.P,U5,3,GND*%
%TO.N,GND*%
X33940000Y-3460000D03*
%TO.P,U5,4*%
%TO.N,PS*%
X35840000Y-3460000D03*
%TO.P,U5,5,VIN*%
%TO.N,Interrupt5V*%
X35840000Y-2160000D03*
%TD*%
D15*
%TO.P,SW5,1,1*%
%TO.N,SW5*%
X34020000Y-10250000D03*
X41980000Y-10250000D03*
%TO.P,SW5,2,2*%
%TO.N,Switch5V*%
X34020000Y-14750000D03*
X41980000Y-14750000D03*
%TD*%
%TO.P,SW1,1,1*%
%TO.N,SW1*%
X8020000Y-10250000D03*
X15980000Y-10250000D03*
%TO.P,SW1,2,2*%
%TO.N,Switch5V*%
X8020000Y-14750000D03*
X15980000Y-14750000D03*
%TD*%
D14*
%TO.P,U9,1*%
%TO.N,N/C*%
X27520000Y-5610000D03*
%TO.P,U9,2*%
%TO.N,SW1*%
X27520000Y-6260000D03*
%TO.P,U9,3,GND*%
%TO.N,GND*%
X27520000Y-6910000D03*
%TO.P,U9,4*%
%TO.N,PS*%
X29420000Y-6910000D03*
%TO.P,U9,5,VIN*%
%TO.N,Interrupt5V*%
X29420000Y-5610000D03*
%TD*%
%TO.P,U4,1*%
%TO.N,N/C*%
X33990000Y-5580000D03*
%TO.P,U4,2*%
%TO.N,SW3*%
X33990000Y-6230000D03*
%TO.P,U4,3,GND*%
%TO.N,GND*%
X33990000Y-6880000D03*
%TO.P,U4,4*%
%TO.N,PS*%
X35890000Y-6880000D03*
%TO.P,U4,5,VIN*%
%TO.N,Interrupt5V*%
X35890000Y-5580000D03*
%TD*%
D16*
%TO.P,R9,1*%
%TO.N,GND*%
X32620000Y-3425000D03*
%TO.P,R9,2*%
%TO.N,SW4*%
X32620000Y-2455000D03*
%TD*%
%TO.P,R6,1*%
%TO.N,GND*%
X26180000Y-3585000D03*
%TO.P,R6,2*%
%TO.N,SW2*%
X26180000Y-2615000D03*
%TD*%
D15*
%TO.P,SW2,1,1*%
%TO.N,SW2*%
X23480000Y-7250000D03*
X15520000Y-7250000D03*
%TO.P,SW2,2,2*%
%TO.N,Switch5V*%
X23480000Y-2750000D03*
X15520000Y-2750000D03*
%TD*%
%TO.P,SW4,1,1*%
%TO.N,SW4*%
X15520000Y-17750000D03*
X23480000Y-17750000D03*
%TO.P,SW4,2,2*%
%TO.N,Switch5V*%
X15520000Y-22250000D03*
X23480000Y-22250000D03*
%TD*%
D10*
%TO.P,C8,1*%
%TO.N,5V*%
X47500000Y-20715000D03*
%TO.P,C8,2*%
%TO.N,GND*%
X47500000Y-21685000D03*
%TD*%
D15*
%TO.P,SW3,1,1*%
%TO.N,SW3*%
X23020000Y-10250000D03*
X30980000Y-10250000D03*
%TO.P,SW3,2,2*%
%TO.N,Switch5V*%
X23020000Y-14750000D03*
X30980000Y-14750000D03*
%TD*%
D17*
%TO.P,J4,1,Pin_1*%
%TO.N,5V*%
X6950000Y-23250000D03*
D18*
%TO.P,J4,2,Pin_2*%
%TO.N,GND*%
X8950000Y-23250000D03*
%TO.P,J4,3,Pin_3*%
%TO.N,SWDIO*%
X10950000Y-23250000D03*
%TO.P,J4,4,Pin_4*%
%TO.N,SWDCLK*%
X12950000Y-23250000D03*
%TD*%
D19*
%TO.P,U2,1,IN*%
%TO.N,5V*%
X46100000Y-22550000D03*
%TO.P,U2,2,GND*%
%TO.N,GND*%
X46100000Y-21600000D03*
%TO.P,U2,3,EN*%
%TO.N,5V*%
X46100000Y-20650000D03*
%TO.P,U2,4,NC*%
%TO.N,unconnected-(U2-NC-Pad4)*%
X43900000Y-20650000D03*
%TO.P,U2,5,OUT*%
%TO.N,VDD*%
X43900000Y-22550000D03*
%TD*%
D13*
%TO.P,D1,1,K*%
%TO.N,Switch5V*%
X11750000Y-3010000D03*
%TO.P,D1,2,A*%
%TO.N,5V*%
X11750000Y-5110000D03*
%TD*%
D20*
%TO.P,R2,1*%
%TO.N,Net-(U3-PA7)*%
X27660000Y-19955000D03*
%TO.P,R2,2*%
%TO.N,MOSI*%
X26690000Y-19955000D03*
%TD*%
D21*
%TO.P,U3,1,PB7/PB8*%
%TO.N,unconnected-(U3-PB7{slash}PB8-Pad1)*%
X35400000Y-23275000D03*
%TO.P,U3,2,PC14/PB9*%
%TO.N,unconnected-(U3-PC14{slash}PB9-Pad2)*%
X35400000Y-22625000D03*
%TO.P,U3,3,PC15*%
%TO.N,unconnected-(U3-PC15-Pad3)*%
X35400000Y-21975000D03*
%TO.P,U3,4,VDD*%
%TO.N,VDD*%
X35400000Y-21325000D03*
%TO.P,U3,5,VSS*%
%TO.N,GND*%
X35400000Y-20675000D03*
%TO.P,U3,6,NRST*%
%TO.N,Net-(U3-NRST)*%
X35400000Y-20025000D03*
%TO.P,U3,7,PA0*%
%TO.N,unconnected-(U3-PA0-Pad7)*%
X35400000Y-19375000D03*
%TO.P,U3,8,PA1*%
%TO.N,Net-(U3-PA1)*%
X35400000Y-18725000D03*
%TO.P,U3,9,PA2*%
%TO.N,unconnected-(U3-PA2-Pad9)*%
X35400000Y-18075000D03*
%TO.P,U3,10,PA3*%
%TO.N,SW5*%
X35400000Y-17425000D03*
%TO.P,U3,11,PA4*%
%TO.N,SW3*%
X29675000Y-17425000D03*
%TO.P,U3,12,PA5*%
%TO.N,Net-(U3-PA5)*%
X29675000Y-18075000D03*
%TO.P,U3,13,PA6*%
%TO.N,Net-(U3-PA6)*%
X29675000Y-18725000D03*
%TO.P,U3,14,PA7*%
%TO.N,Net-(U3-PA7)*%
X29675000Y-19375000D03*
%TO.P,U3,15,PB0/PB1/PB2/PA8*%
%TO.N,SW4*%
X29675000Y-20025000D03*
%TO.P,U3,16,PA11/PA9*%
%TO.N,SW1*%
X29675000Y-20675000D03*
%TO.P,U3,17,PA12/PA10*%
%TO.N,SW2*%
X29675000Y-21325000D03*
%TO.P,U3,18,PA13*%
%TO.N,SWDIO*%
X29675000Y-21975000D03*
%TO.P,U3,19,PA14/PA15*%
%TO.N,SWDCLK*%
X29675000Y-22625000D03*
%TO.P,U3,20,PB3/PB4/PB5/PB6*%
%TO.N,unconnected-(U3-PB3{slash}PB4{slash}PB5{slash}PB6-Pad20)*%
X29675000Y-23275000D03*
%TD*%
D20*
%TO.P,R3,1*%
%TO.N,Net-(U3-PA5)*%
X27660000Y-17825000D03*
%TO.P,R3,2*%
%TO.N,SCLK*%
X26690000Y-17825000D03*
%TD*%
D16*
%TO.P,C2,1*%
%TO.N,VDD*%
X37400000Y-23060000D03*
%TO.P,C2,2*%
%TO.N,GND*%
X37400000Y-22090000D03*
%TD*%
%TO.P,R8,1*%
%TO.N,GND*%
X37720000Y-7000000D03*
%TO.P,R8,2*%
%TO.N,SW5*%
X37720000Y-6030000D03*
%TD*%
D20*
%TO.P,R4,1*%
%TO.N,Net-(U3-PA6)*%
X27650000Y-18900000D03*
%TO.P,R4,2*%
%TO.N,MISO*%
X26680000Y-18900000D03*
%TD*%
D16*
%TO.P,R5,1*%
%TO.N,GND*%
X26200000Y-7185000D03*
%TO.P,R5,2*%
%TO.N,SW1*%
X26200000Y-6215000D03*
%TD*%
D22*
%TO.P,R1,1*%
%TO.N,Net-(U3-PA1)*%
X37260000Y-18820000D03*
%TO.P,R1,2*%
%TO.N,PS*%
X38230000Y-18820000D03*
%TD*%
D14*
%TO.P,U6,1*%
%TO.N,N/C*%
X39100000Y-5610000D03*
%TO.P,U6,2*%
%TO.N,SW5*%
X39100000Y-6260000D03*
%TO.P,U6,3,GND*%
%TO.N,GND*%
X39100000Y-6910000D03*
%TO.P,U6,4*%
%TO.N,PS*%
X41000000Y-6910000D03*
%TO.P,U6,5,VIN*%
%TO.N,Interrupt5V*%
X41000000Y-5610000D03*
%TD*%
D10*
%TO.P,C1,1*%
%TO.N,Net-(U3-NRST)*%
X37400000Y-20080000D03*
%TO.P,C1,2*%
%TO.N,GND*%
X37400000Y-21050000D03*
%TD*%
D16*
%TO.P,R7,1*%
%TO.N,GND*%
X32580000Y-7060000D03*
%TO.P,R7,2*%
%TO.N,SW3*%
X32580000Y-6090000D03*
%TD*%
D14*
%TO.P,U1,1*%
%TO.N,N/C*%
X27570000Y-2150000D03*
%TO.P,U1,2*%
%TO.N,SW2*%
X27570000Y-2800000D03*
%TO.P,U1,3,GND*%
%TO.N,GND*%
X27570000Y-3450000D03*
%TO.P,U1,4*%
%TO.N,PS*%
X29470000Y-3450000D03*
%TO.P,U1,5,VIN*%
%TO.N,Interrupt5V*%
X29470000Y-2150000D03*
%TD*%
D23*
%TO.N,GND*%
X7300000Y-17200000D03*
X38690000Y-23090000D03*
X11970000Y-16630000D03*
X38730000Y-20870000D03*
X10420000Y-14490000D03*
X13800000Y-16300000D03*
X45200000Y-8025000D03*
X29890000Y-8600000D03*
X38210000Y-14675000D03*
X13850000Y-1280000D03*
X32080000Y-8470000D03*
X28520000Y-6380000D03*
X2225000Y-14500000D03*
X44160000Y-1090000D03*
X41120000Y-8450000D03*
X4825000Y-7850000D03*
X43725000Y-19325000D03*
X21830000Y-21570000D03*
X15900000Y-19780000D03*
X11180000Y-11025000D03*
X30710000Y-24480000D03*
X15210000Y-5280000D03*
X24990000Y-2100000D03*
X5800000Y-21175000D03*
X14050000Y-21850000D03*
X19470000Y-3820000D03*
X24970000Y-5920000D03*
X2675000Y-12725000D03*
X19860000Y-6430000D03*
X47000000Y-14425000D03*
X5375000Y-24325000D03*
X12710000Y-7490000D03*
X30900000Y-16520000D03*
X13810000Y-14600000D03*
X49075000Y-7300000D03*
X1100000Y-8500000D03*
X31370000Y-5900000D03*
X17860000Y-16500000D03*
X47275000Y-11625000D03*
X23910000Y-16260000D03*
X28420000Y-16330000D03*
X42500000Y-23260000D03*
X2425000Y-10225000D03*
X19880000Y-18980000D03*
X33660000Y-4670000D03*
X34340000Y-24380000D03*
X10110000Y-8820000D03*
X37950000Y-8610000D03*
X37280000Y-17550000D03*
X47500000Y-22660000D03*
X44350000Y-16950000D03*
X48975000Y-16700000D03*
X39240000Y-17450000D03*
X1300000Y-16300000D03*
X38700000Y-2610000D03*
X2630000Y-1470000D03*
X33870000Y-16630000D03*
X42400000Y-7140000D03*
X35760000Y-8410000D03*
%TO.N,5V*%
X45980000Y-9200000D03*
X7200000Y-8730000D03*
%TO.N,MOSI*%
X46203925Y-13850000D03*
X2925000Y-13875000D03*
X25460000Y-13730000D03*
%TO.N,MISO*%
X4011311Y-12750000D03*
X47100000Y-12825000D03*
X26350000Y-12725000D03*
%TO.N,SCLK*%
X46400000Y-11650000D03*
X29190000Y-11775000D03*
X2850000Y-11625000D03*
%TO.N,PS*%
X46550000Y-10400000D03*
X3725000Y-10575000D03*
%TO.N,SW1*%
X15820000Y-8910000D03*
X12790000Y-8830000D03*
%TO.N,SW4*%
X21805000Y-16075000D03*
X19390000Y-17710000D03*
%TO.N,Interrupt5V*%
X6940000Y-6370000D03*
X3475000Y-15275000D03*
X46175000Y-15100000D03*
%TO.N,Switch5V*%
X35070000Y-16030000D03*
X22280000Y-20670000D03*
X40620000Y-16080000D03*
X31830000Y-16010000D03*
X23080000Y-16110000D03*
%TD*%
D24*
%TO.N,VDD*%
X36560000Y-21747501D02*
X36560000Y-22220000D01*
X36137499Y-21325000D02*
X36560000Y-21747501D01*
X42305000Y-21385000D02*
X42500000Y-21580000D01*
X36560000Y-22220000D02*
X37400000Y-23060000D01*
X42500000Y-21580000D02*
X38880000Y-21580000D01*
X43900000Y-22550000D02*
X43470000Y-22550000D01*
X38880000Y-21580000D02*
X37400000Y-23060000D01*
X35400000Y-21325000D02*
X36137499Y-21325000D01*
X43470000Y-22550000D02*
X42500000Y-21580000D01*
%TO.N,GND*%
X4125000Y-15459314D02*
X4125000Y-15473529D01*
X44345000Y-10250000D02*
X45088628Y-10250000D01*
X26200000Y-7185000D02*
X27245000Y-7185000D01*
X27245000Y-7185000D02*
X27520000Y-6910000D01*
X47275000Y-10276471D02*
X47275000Y-11625000D01*
X4359840Y-12250000D02*
X4259840Y-12150000D01*
X37050000Y-21740000D02*
X37400000Y-22090000D01*
X2225000Y-14500000D02*
X2225000Y-14175000D01*
X2250000Y-11376471D02*
X2250000Y-11873529D01*
X5655000Y-14750000D02*
X4834314Y-14750000D01*
X2075000Y-14025000D02*
X2075000Y-13325000D01*
X46798529Y-9800000D02*
X47275000Y-10276471D01*
X37050000Y-21669044D02*
X36055956Y-20675000D01*
X5655000Y-12250000D02*
X4359840Y-12250000D01*
X3948529Y-11325000D02*
X3451471Y-11325000D01*
X36055956Y-20675000D02*
X35400000Y-20675000D01*
X37050000Y-21740000D02*
X37050000Y-21669044D01*
X46700000Y-11050000D02*
X45420000Y-11050000D01*
X2075000Y-13325000D02*
X2675000Y-12725000D01*
X45538628Y-9800000D02*
X46798529Y-9800000D01*
X3300000Y-13350000D02*
X2675000Y-12725000D01*
X46901471Y-13475000D02*
X47298529Y-13475000D01*
X27435000Y-3585000D02*
X27570000Y-3450000D01*
X3325000Y-12600000D02*
X3325000Y-12450000D01*
X3625000Y-12150000D02*
X3325000Y-12450000D01*
X3100000Y-10725000D02*
X3100000Y-10475000D01*
X4259840Y-12150000D02*
X3625000Y-12150000D01*
X44345000Y-13250000D02*
X46676471Y-13250000D01*
X47275000Y-11625000D02*
X47000000Y-11350000D01*
X3275000Y-13325000D02*
X2675000Y-12725000D01*
X45088628Y-10250000D02*
X45538628Y-9800000D01*
X44345000Y-14750000D02*
X43470000Y-14750000D01*
X45220000Y-11250000D02*
X44345000Y-11250000D01*
X26180000Y-3585000D02*
X27435000Y-3585000D01*
X43425000Y-13250000D02*
X44345000Y-13250000D01*
X4650000Y-13250000D02*
X4550000Y-13350000D01*
X5655000Y-13250000D02*
X4650000Y-13250000D01*
X4125000Y-15473529D02*
X3723529Y-15875000D01*
X3151471Y-11025000D02*
X2601471Y-11025000D01*
X4834314Y-14750000D02*
X4125000Y-15459314D01*
X3100000Y-10973529D02*
X3151471Y-11025000D01*
X3226471Y-15875000D02*
X3723529Y-15875000D01*
X37400000Y-21050000D02*
X37400000Y-22090000D01*
X45420000Y-11050000D02*
X45220000Y-11250000D01*
X2601471Y-11025000D02*
X2250000Y-11376471D01*
X5655000Y-11250000D02*
X4023529Y-11250000D01*
X2225000Y-14175000D02*
X2075000Y-14025000D01*
X46826471Y-12250000D02*
X47000000Y-12076471D01*
X47750000Y-12500000D02*
X47000000Y-11750000D01*
X47298529Y-13475000D02*
X47750000Y-13023529D01*
X47750000Y-13023529D02*
X47750000Y-12500000D01*
X2225000Y-14500000D02*
X2225000Y-14873529D01*
X2976471Y-12600000D02*
X3325000Y-12600000D01*
X3100000Y-10725000D02*
X3100000Y-10973529D01*
X3325000Y-12898529D02*
X3325000Y-12600000D01*
X3275000Y-13350000D02*
X3275000Y-13325000D01*
X44345000Y-12250000D02*
X46826471Y-12250000D01*
X47000000Y-11350000D02*
X46700000Y-11050000D01*
X46676471Y-13250000D02*
X46901471Y-13475000D01*
X4550000Y-13350000D02*
X3275000Y-13350000D01*
X3451471Y-11325000D02*
X3100000Y-10973529D01*
X47000000Y-12076471D02*
X47275000Y-11625000D01*
X4023529Y-11250000D02*
X3948529Y-11325000D01*
X2250000Y-11873529D02*
X2976471Y-12600000D01*
%TO.N,Net-(U3-NRST)*%
X35455000Y-20080000D02*
X35400000Y-20025000D01*
X37400000Y-20080000D02*
X35455000Y-20080000D01*
%TO.N,5V*%
X5655000Y-9250000D02*
X6680000Y-9250000D01*
X45300000Y-9250000D02*
X44345000Y-9250000D01*
X47675000Y-9250000D02*
X46860000Y-9250000D01*
X4525000Y-15750000D02*
X4525000Y-16175000D01*
X46100000Y-20650000D02*
X47435000Y-20650000D01*
X45980000Y-9200000D02*
X46810000Y-9200000D01*
X48800000Y-10375000D02*
X47675000Y-9250000D01*
X48800000Y-15550000D02*
X48800000Y-10375000D01*
X44345000Y-9750000D02*
X43475000Y-9750000D01*
X44345000Y-15750000D02*
X45675000Y-15750000D01*
X3285786Y-16500000D02*
X4525000Y-16500000D01*
X46810000Y-9200000D02*
X46860000Y-9250000D01*
X6680000Y-9250000D02*
X7200000Y-8730000D01*
X4525000Y-16625000D02*
X6950000Y-19050000D01*
X46875000Y-15750000D02*
X47337500Y-16212500D01*
X4525000Y-15625000D02*
X4525000Y-15750000D01*
X8280000Y-8730000D02*
X7200000Y-8730000D01*
X45675000Y-15750000D02*
X46875000Y-15750000D01*
X5655000Y-15750000D02*
X4525000Y-15750000D01*
X45300000Y-9250000D02*
X45930000Y-9250000D01*
X45930000Y-9250000D02*
X45980000Y-9200000D01*
X45300000Y-15250000D02*
X45700000Y-15650000D01*
X43455000Y-9730000D02*
X43455000Y-9355000D01*
X47435000Y-20650000D02*
X47500000Y-20715000D01*
X4600000Y-9250000D02*
X5655000Y-9250000D01*
X1590000Y-14804214D02*
X3285786Y-16500000D01*
X4900000Y-15250000D02*
X4525000Y-15625000D01*
X1590000Y-9670000D02*
X1590000Y-14804214D01*
X47737500Y-16612500D02*
X48750000Y-17625000D01*
X43455000Y-9355000D02*
X43560000Y-9250000D01*
X6950000Y-19050000D02*
X6950000Y-23250000D01*
X43475000Y-9750000D02*
X43455000Y-9730000D01*
X47737500Y-16612500D02*
X48800000Y-15550000D01*
X47500000Y-20000000D02*
X47500000Y-20715000D01*
X45370000Y-22550000D02*
X45270000Y-22450000D01*
X5655000Y-15250000D02*
X4900000Y-15250000D01*
X48750000Y-17625000D02*
X48750000Y-18750000D01*
X46100000Y-22550000D02*
X45370000Y-22550000D01*
X2010000Y-9250000D02*
X1590000Y-9670000D01*
X45270000Y-21000000D02*
X45620000Y-20650000D01*
X47337500Y-16212500D02*
X47737500Y-16612500D01*
X45620000Y-20650000D02*
X46100000Y-20650000D01*
X5100000Y-9750000D02*
X4600000Y-9250000D01*
X4525000Y-16175000D02*
X4525000Y-16625000D01*
X4600000Y-9250000D02*
X2010000Y-9250000D01*
X44345000Y-15250000D02*
X45300000Y-15250000D01*
X11750000Y-5110000D02*
X11750000Y-5260000D01*
X43560000Y-9250000D02*
X44345000Y-9250000D01*
X48750000Y-18750000D02*
X47500000Y-20000000D01*
X11750000Y-5260000D02*
X8280000Y-8730000D01*
X45270000Y-22450000D02*
X45270000Y-21000000D01*
X5655000Y-9750000D02*
X5100000Y-9750000D01*
%TO.N,MOSI*%
X25460000Y-13730000D02*
X25460000Y-18725000D01*
X25460000Y-18725000D02*
X26690000Y-19955000D01*
X44345000Y-13750000D02*
X46103925Y-13750000D01*
X46103925Y-13750000D02*
X46203925Y-13850000D01*
X3050000Y-13750000D02*
X5655000Y-13750000D01*
X2925000Y-13875000D02*
X3050000Y-13750000D01*
%TO.N,MISO*%
X26095000Y-12980000D02*
X26350000Y-12725000D01*
X5655000Y-12750000D02*
X4011311Y-12750000D01*
X26095000Y-18315000D02*
X26095000Y-12980000D01*
X26680000Y-18900000D02*
X26095000Y-18315000D01*
X47100000Y-12825000D02*
X47025000Y-12750000D01*
X47025000Y-12750000D02*
X44345000Y-12750000D01*
%TO.N,SCLK*%
X4139214Y-11750000D02*
X5655000Y-11750000D01*
X46300000Y-11750000D02*
X44345000Y-11750000D01*
X2850000Y-11625000D02*
X2950000Y-11725000D01*
X26690000Y-17825000D02*
X26690000Y-14275000D01*
X46400000Y-11650000D02*
X46300000Y-11750000D01*
X2950000Y-11725000D02*
X4114214Y-11725000D01*
X4114214Y-11725000D02*
X4139214Y-11750000D01*
X26690000Y-14275000D02*
X29190000Y-11775000D01*
%TO.N,PS*%
X5655000Y-10750000D02*
X3725000Y-10750000D01*
X37210000Y-1490000D02*
X37210000Y-1780000D01*
X41000000Y-6910000D02*
X41035000Y-6910000D01*
X40370000Y-5755000D02*
X40370000Y-6280000D01*
X36700000Y-980000D02*
X37210000Y-1490000D01*
X31940000Y-980000D02*
X34660000Y-980000D01*
X43055000Y-10425000D02*
X43380000Y-10750000D01*
X30045000Y-6285000D02*
X30045000Y-4025000D01*
X40370000Y-6280000D02*
X41000000Y-6910000D01*
X30045000Y-4025000D02*
X29470000Y-3450000D01*
X38230000Y-18820000D02*
X38230000Y-15900000D01*
X44345000Y-10750000D02*
X45154314Y-10750000D01*
X43055000Y-8930000D02*
X43055000Y-10425000D01*
X37980000Y-4790000D02*
X39405000Y-4790000D01*
X35890000Y-6880000D02*
X37980000Y-4790000D01*
X38230000Y-15900000D02*
X43380000Y-10750000D01*
X43380000Y-10750000D02*
X44345000Y-10750000D01*
X39405000Y-4790000D02*
X40370000Y-5755000D01*
X34660000Y-980000D02*
X34660000Y-5650000D01*
X34660000Y-5650000D02*
X35890000Y-6880000D01*
X45154314Y-10750000D02*
X45504314Y-10400000D01*
X29470000Y-3450000D02*
X31940000Y-980000D01*
X34660000Y-980000D02*
X36700000Y-980000D01*
X45504314Y-10400000D02*
X46550000Y-10400000D01*
X3725000Y-10750000D02*
X3700000Y-10725000D01*
X29420000Y-6910000D02*
X30045000Y-6285000D01*
X41035000Y-6910000D02*
X43055000Y-8930000D01*
X37210000Y-1780000D02*
X35840000Y-3150000D01*
X35840000Y-3150000D02*
X35840000Y-3460000D01*
%TO.N,SWDIO*%
X10950000Y-23250000D02*
X11925000Y-22275000D01*
X11925000Y-22275000D02*
X13353859Y-22275000D01*
X14278859Y-23200000D02*
X27794044Y-23200000D01*
X29019044Y-21975000D02*
X29675000Y-21975000D01*
X27794044Y-23200000D02*
X29019044Y-21975000D01*
X13353859Y-22275000D02*
X14278859Y-23200000D01*
%TO.N,SWDCLK*%
X13625000Y-23925000D02*
X27685000Y-23925000D01*
X27685000Y-23925000D02*
X28985000Y-22625000D01*
X12950000Y-23250000D02*
X13625000Y-23925000D01*
X28985000Y-22625000D02*
X29675000Y-22625000D01*
%TO.N,Net-(U3-PA1)*%
X37165000Y-18725000D02*
X37260000Y-18820000D01*
X35400000Y-18725000D02*
X37165000Y-18725000D01*
%TO.N,Net-(U3-PA5)*%
X27910000Y-18075000D02*
X29675000Y-18075000D01*
X27660000Y-17825000D02*
X27910000Y-18075000D01*
%TO.N,Net-(U3-PA6)*%
X29675000Y-18725000D02*
X27825000Y-18725000D01*
X27825000Y-18725000D02*
X27650000Y-18900000D01*
%TO.N,Net-(U3-PA7)*%
X27660000Y-19955000D02*
X28240000Y-19375000D01*
X28240000Y-19375000D02*
X29675000Y-19375000D01*
%TO.N,SW1*%
X11370000Y-10250000D02*
X12790000Y-8830000D01*
X28137634Y-21000000D02*
X24705000Y-21000000D01*
X24705000Y-21000000D02*
X20230000Y-16525000D01*
X25510000Y-8040000D02*
X25080000Y-8470000D01*
X20270000Y-8910000D02*
X15820000Y-8910000D01*
X28462634Y-20675000D02*
X28137634Y-21000000D01*
X29675000Y-20675000D02*
X28462634Y-20675000D01*
X15820000Y-8910000D02*
X15820000Y-10090000D01*
X26200000Y-6215000D02*
X26200000Y-6228052D01*
X25510000Y-6918052D02*
X25510000Y-8040000D01*
X21005000Y-8470000D02*
X20565000Y-8910000D01*
X26200000Y-6215000D02*
X27475000Y-6215000D01*
X20565000Y-8910000D02*
X20270000Y-8910000D01*
X20230000Y-16525000D02*
X20230000Y-8950000D01*
X25080000Y-8470000D02*
X21005000Y-8470000D01*
X26200000Y-6228052D02*
X25510000Y-6918052D01*
X20230000Y-8950000D02*
X20270000Y-8910000D01*
X27475000Y-6215000D02*
X27520000Y-6260000D01*
X15820000Y-10090000D02*
X15980000Y-10250000D01*
X8020000Y-10250000D02*
X11370000Y-10250000D01*
%TO.N,SW2*%
X24539314Y-21400000D02*
X14880000Y-11740686D01*
X29675000Y-21325000D02*
X29600000Y-21400000D01*
X15520000Y-7250000D02*
X23480000Y-7250000D01*
X26180000Y-2615000D02*
X26365000Y-2800000D01*
X14880000Y-11740686D02*
X14880000Y-7890000D01*
X14880000Y-7890000D02*
X15520000Y-7250000D01*
X26180000Y-2628052D02*
X26180000Y-2615000D01*
X29600000Y-21400000D02*
X24539314Y-21400000D01*
X23480000Y-5328052D02*
X26180000Y-2628052D01*
X23480000Y-7250000D02*
X23480000Y-5328052D01*
X15980000Y-7710000D02*
X15520000Y-7250000D01*
X26365000Y-2800000D02*
X27570000Y-2800000D01*
%TO.N,SW3*%
X32580000Y-6103052D02*
X32580000Y-6090000D01*
X30980000Y-7703052D02*
X32580000Y-6103052D01*
X29675000Y-14030000D02*
X30980000Y-12725000D01*
X32580000Y-6090000D02*
X33850000Y-6090000D01*
X23020000Y-10250000D02*
X27630000Y-10250000D01*
X33850000Y-6090000D02*
X33990000Y-6230000D01*
X30980000Y-12725000D02*
X30980000Y-10250000D01*
X29675000Y-17425000D02*
X29675000Y-14030000D01*
X30980000Y-10250000D02*
X30980000Y-7703052D01*
X27630000Y-10250000D02*
X30980000Y-10250000D01*
%TO.N,SW5*%
X36870000Y-10260000D02*
X36860000Y-10250000D01*
X36860000Y-10250000D02*
X34020000Y-10250000D01*
X36870000Y-12200000D02*
X36870000Y-10260000D01*
X36870000Y-12200000D02*
X36870000Y-15955000D01*
X37720000Y-6030000D02*
X37950000Y-6260000D01*
X36940000Y-6810000D02*
X36940000Y-10250000D01*
X37950000Y-6260000D02*
X39100000Y-6260000D01*
X36940000Y-10250000D02*
X41980000Y-10250000D01*
X36870000Y-15955000D02*
X35400000Y-17425000D01*
X37720000Y-6030000D02*
X36940000Y-6810000D01*
X36860000Y-10250000D02*
X36940000Y-10250000D01*
%TO.N,SW4*%
X27230000Y-7920000D02*
X29690000Y-7920000D01*
X28546948Y-20025000D02*
X27996948Y-20575000D01*
X32975000Y-2810000D02*
X33940000Y-2810000D01*
X26280000Y-8870000D02*
X27230000Y-7920000D01*
X32620000Y-2455000D02*
X32975000Y-2810000D01*
X30470000Y-4605000D02*
X32620000Y-2455000D01*
X29690000Y-7920000D02*
X30470000Y-7140000D01*
X23480000Y-17750000D02*
X21805000Y-16075000D01*
X26305000Y-20575000D02*
X23480000Y-17750000D01*
X19350000Y-17750000D02*
X19390000Y-17710000D01*
X29675000Y-20025000D02*
X28546948Y-20025000D01*
X21910000Y-8870000D02*
X26280000Y-8870000D01*
X15520000Y-17750000D02*
X19350000Y-17750000D01*
X21805000Y-16075000D02*
X21805000Y-8975000D01*
X30470000Y-7140000D02*
X30470000Y-4605000D01*
X21805000Y-8975000D02*
X21910000Y-8870000D01*
X27996948Y-20575000D02*
X26305000Y-20575000D01*
%TO.N,Interrupt5V*%
X8435000Y-2010000D02*
X7820000Y-2625000D01*
X30505000Y-1115000D02*
X14863529Y-1115000D01*
X35890000Y-5580000D02*
X35890000Y-3970000D01*
X37690000Y-2300000D02*
X37690000Y-3512500D01*
X35215000Y-2785000D02*
X35840000Y-2160000D01*
X38932500Y-3542500D02*
X41000000Y-5610000D01*
X3475000Y-15275000D02*
X3475000Y-14950000D01*
X13968529Y-2010000D02*
X13525000Y-2010000D01*
X45325000Y-14250000D02*
X44345000Y-14250000D01*
X8720000Y-5110000D02*
X8665000Y-5165000D01*
X13525000Y-2010000D02*
X8435000Y-2010000D01*
X28845000Y-5035000D02*
X28845000Y-2775000D01*
X36882500Y-3542500D02*
X37660000Y-3542500D01*
X8145000Y-5165000D02*
X6940000Y-6370000D01*
X3475000Y-14950000D02*
X4175000Y-14250000D01*
X37690000Y-3512500D02*
X37660000Y-3542500D01*
X14863529Y-1115000D02*
X13968529Y-2010000D01*
X7820000Y-2625000D02*
X7820000Y-4210000D01*
X36465000Y-3960000D02*
X35880000Y-3960000D01*
X7820000Y-4840000D02*
X8145000Y-5165000D01*
X30505000Y-1115000D02*
X31040000Y-580000D01*
X36865686Y-580000D02*
X37690000Y-1404314D01*
X37660000Y-3542500D02*
X38932500Y-3542500D01*
X46175000Y-15100000D02*
X45325000Y-14250000D01*
X35215000Y-3960000D02*
X35215000Y-2785000D01*
X29420000Y-5610000D02*
X28845000Y-5035000D01*
X37690000Y-1404314D02*
X37690000Y-2300000D01*
X28845000Y-2775000D02*
X29470000Y-2150000D01*
X36882500Y-3542500D02*
X36465000Y-3960000D01*
X7820000Y-4210000D02*
X7820000Y-4840000D01*
X8665000Y-5165000D02*
X8145000Y-5165000D01*
X29470000Y-2150000D02*
X30505000Y-1115000D01*
X35880000Y-3960000D02*
X35215000Y-3960000D01*
X5655000Y-14250000D02*
X4175000Y-14250000D01*
X35890000Y-3970000D02*
X35880000Y-3960000D01*
X31040000Y-580000D02*
X36865686Y-580000D01*
%TO.N,Switch5V*%
X14445000Y-15825000D02*
X14570000Y-15700000D01*
X15980000Y-14750000D02*
X15030000Y-15700000D01*
X30980000Y-15160000D02*
X31830000Y-16010000D01*
X34020000Y-14750000D02*
X34020000Y-14980000D01*
X22280000Y-20670000D02*
X22280000Y-21050000D01*
X11750000Y-3010000D02*
X15260000Y-3010000D01*
X23080000Y-14810000D02*
X23020000Y-14750000D01*
X15260000Y-3010000D02*
X15520000Y-2750000D01*
X23080000Y-16110000D02*
X23080000Y-14810000D01*
X42480000Y-14250000D02*
X41980000Y-14750000D01*
X15520000Y-22250000D02*
X14445000Y-21175000D01*
X8970000Y-15700000D02*
X8302843Y-15032843D01*
X14410000Y-3860000D02*
X14410000Y-13180000D01*
X30980000Y-14750000D02*
X30980000Y-15160000D01*
X14445000Y-21175000D02*
X14445000Y-15825000D01*
X15030000Y-15700000D02*
X14570000Y-15700000D01*
X40650000Y-16080000D02*
X41980000Y-14750000D01*
X34410000Y-15140000D02*
X34020000Y-14750000D01*
X14570000Y-15700000D02*
X8970000Y-15700000D01*
X15520000Y-2750000D02*
X14410000Y-3860000D01*
X34020000Y-14750000D02*
X30980000Y-14750000D01*
X14410000Y-13180000D02*
X15980000Y-14750000D01*
X22280000Y-21050000D02*
X23480000Y-22250000D01*
X23480000Y-2750000D02*
X15520000Y-2750000D01*
X8720000Y-3010000D02*
X11750000Y-3010000D01*
X40620000Y-16080000D02*
X40650000Y-16080000D01*
X15520000Y-22250000D02*
X23480000Y-22250000D01*
X34020000Y-14980000D02*
X35070000Y-16030000D01*
%TD*%
%TA.AperFunction,Conductor*%
%TO.N,GND*%
G36*
X30974688Y-119407D02*
G01*
X31010652Y-168907D01*
X31010652Y-230093D01*
X30974688Y-279593D01*
X30942121Y-295126D01*
X30924011Y-299978D01*
X30924007Y-299980D01*
X30855489Y-339539D01*
X30409524Y-785504D01*
X30355008Y-813281D01*
X30339521Y-814500D01*
X14823964Y-814500D01*
X14747541Y-834978D01*
X14704166Y-860021D01*
X14704165Y-860020D01*
X14679019Y-874539D01*
X13873054Y-1680504D01*
X13818537Y-1708281D01*
X13803050Y-1709500D01*
X8395435Y-1709500D01*
X8319011Y-1729978D01*
X8319007Y-1729980D01*
X8250491Y-1769538D01*
X7635489Y-2384540D01*
X7635488Y-2384539D01*
X7579539Y-2440489D01*
X7539980Y-2509007D01*
X7539978Y-2509011D01*
X7519500Y-2585435D01*
X7519500Y-4879564D01*
X7535567Y-4939525D01*
X7539979Y-4955989D01*
X7562755Y-4995438D01*
X7579540Y-5024511D01*
X7650026Y-5094997D01*
X7677802Y-5149512D01*
X7668231Y-5209944D01*
X7650025Y-5235003D01*
X7044524Y-5840504D01*
X6990007Y-5868281D01*
X6974520Y-5869500D01*
X6868035Y-5869500D01*
X6729949Y-5910046D01*
X6729942Y-5910049D01*
X6608873Y-5987855D01*
X6514622Y-6096628D01*
X6454834Y-6227543D01*
X6434353Y-6369997D01*
X6434353Y-6370002D01*
X6454834Y-6512456D01*
X6509325Y-6631772D01*
X6514623Y-6643373D01*
X6597480Y-6738996D01*
X6608873Y-6752144D01*
X6697343Y-6809000D01*
X6729947Y-6829953D01*
X6836403Y-6861211D01*
X6868035Y-6870499D01*
X6868036Y-6870499D01*
X6868039Y-6870500D01*
X6868041Y-6870500D01*
X7011959Y-6870500D01*
X7011961Y-6870500D01*
X7150053Y-6829953D01*
X7271128Y-6752143D01*
X7365377Y-6643373D01*
X7425165Y-6512457D01*
X7435222Y-6442511D01*
X7445647Y-6370002D01*
X7445647Y-6370000D01*
X7442558Y-6348518D01*
X7452990Y-6288228D01*
X7470543Y-6264426D01*
X8231158Y-5503812D01*
X8285674Y-5476036D01*
X8346106Y-5485607D01*
X8371161Y-5503810D01*
X8425201Y-5557850D01*
X8525240Y-5604499D01*
X8570821Y-5610500D01*
X8869178Y-5610499D01*
X8914760Y-5604499D01*
X8914761Y-5604499D01*
X8968673Y-5579358D01*
X9014799Y-5557850D01*
X9092850Y-5479799D01*
X9139499Y-5379760D01*
X9145500Y-5334179D01*
X9145499Y-4885822D01*
X9139499Y-4840240D01*
X9139499Y-4840238D01*
X9092851Y-4740203D01*
X9092850Y-4740202D01*
X9092850Y-4740201D01*
X9014799Y-4662150D01*
X8914760Y-4615501D01*
X8869179Y-4609500D01*
X8869177Y-4609500D01*
X8570826Y-4609500D01*
X8570814Y-4609501D01*
X8525240Y-4615500D01*
X8525238Y-4615500D01*
X8425203Y-4662148D01*
X8347148Y-4740203D01*
X8342669Y-4749809D01*
X8300940Y-4794556D01*
X8240878Y-4806229D01*
X8185426Y-4780369D01*
X8182942Y-4777971D01*
X8149496Y-4744525D01*
X8121719Y-4690008D01*
X8120500Y-4674521D01*
X8120500Y-3340307D01*
X8139407Y-3282116D01*
X8188907Y-3246152D01*
X8250093Y-3246152D01*
X8299593Y-3282116D01*
X8309224Y-3298468D01*
X8347148Y-3379796D01*
X8347149Y-3379797D01*
X8347150Y-3379799D01*
X8425201Y-3457850D01*
X8525240Y-3504499D01*
X8570821Y-3510500D01*
X8869178Y-3510499D01*
X8914760Y-3504499D01*
X8914761Y-3504499D01*
X8971100Y-3478227D01*
X9014799Y-3457850D01*
X9092850Y-3379799D01*
X9098511Y-3367658D01*
X9140240Y-3322912D01*
X9188235Y-3310500D01*
X11281765Y-3310500D01*
X11339956Y-3329407D01*
X11371488Y-3367658D01*
X11377150Y-3379799D01*
X11455201Y-3457850D01*
X11555240Y-3504499D01*
X11600821Y-3510500D01*
X11899178Y-3510499D01*
X11944760Y-3504499D01*
X11944761Y-3504499D01*
X12001100Y-3478227D01*
X12044799Y-3457850D01*
X12122850Y-3379799D01*
X12128511Y-3367658D01*
X12170240Y-3322912D01*
X12218235Y-3310500D01*
X14295521Y-3310500D01*
X14353712Y-3329407D01*
X14389676Y-3378907D01*
X14389676Y-3440093D01*
X14365525Y-3479504D01*
X14225489Y-3619540D01*
X14225488Y-3619539D01*
X14169539Y-3675489D01*
X14129980Y-3744007D01*
X14129978Y-3744011D01*
X14109500Y-3820435D01*
X14109500Y-13219564D01*
X14129978Y-13295988D01*
X14129980Y-13295992D01*
X14160873Y-13349500D01*
X14169540Y-13364511D01*
X14975505Y-14170476D01*
X15003281Y-14224991D01*
X15004500Y-14240478D01*
X15004500Y-15259521D01*
X14985593Y-15317712D01*
X14975504Y-15329525D01*
X14934525Y-15370504D01*
X14880008Y-15398281D01*
X14864521Y-15399500D01*
X9135479Y-15399500D01*
X9077288Y-15380593D01*
X9065475Y-15370504D01*
X9024496Y-15329525D01*
X8996719Y-15275008D01*
X8995500Y-15259521D01*
X8995500Y-14080253D01*
X8995498Y-14080241D01*
X8986407Y-14034540D01*
X8983867Y-14021769D01*
X8939552Y-13955448D01*
X8932095Y-13950465D01*
X8873233Y-13911134D01*
X8873231Y-13911133D01*
X8873228Y-13911132D01*
X8873227Y-13911132D01*
X8814758Y-13899501D01*
X8814748Y-13899500D01*
X7225252Y-13899500D01*
X7225251Y-13899500D01*
X7225241Y-13899501D01*
X7166772Y-13911132D01*
X7166766Y-13911134D01*
X7100451Y-13955445D01*
X7100445Y-13955451D01*
X7056134Y-14021766D01*
X7056132Y-14021772D01*
X7044501Y-14080241D01*
X7044500Y-14080253D01*
X7044500Y-15419746D01*
X7044501Y-15419758D01*
X7056132Y-15478227D01*
X7056134Y-15478233D01*
X7090390Y-15529500D01*
X7100448Y-15544552D01*
X7166769Y-15588867D01*
X7211231Y-15597711D01*
X7225241Y-15600498D01*
X7225246Y-15600498D01*
X7225252Y-15600500D01*
X8404521Y-15600500D01*
X8462712Y-15619407D01*
X8474525Y-15629496D01*
X8729540Y-15884511D01*
X8729539Y-15884511D01*
X8785489Y-15940460D01*
X8854007Y-15980019D01*
X8854011Y-15980021D01*
X8930435Y-16000499D01*
X8930437Y-16000500D01*
X8930438Y-16000500D01*
X14045500Y-16000500D01*
X14103691Y-16019407D01*
X14139655Y-16068907D01*
X14144500Y-16099500D01*
X14144500Y-21214564D01*
X14164978Y-21290988D01*
X14170182Y-21300001D01*
X14193009Y-21339538D01*
X14193010Y-21339541D01*
X14193011Y-21339541D01*
X14204540Y-21359511D01*
X14515505Y-21670476D01*
X14543281Y-21724991D01*
X14544500Y-21740478D01*
X14544500Y-22800500D01*
X14525593Y-22858691D01*
X14476093Y-22894655D01*
X14445500Y-22899500D01*
X14444338Y-22899500D01*
X14386147Y-22880593D01*
X14374334Y-22870504D01*
X13958839Y-22455009D01*
X13538370Y-22034540D01*
X13530325Y-22029895D01*
X13503895Y-22014635D01*
X13503895Y-22014636D01*
X13469848Y-21994979D01*
X13469847Y-21994978D01*
X13469846Y-21994978D01*
X13393423Y-21974500D01*
X13393421Y-21974500D01*
X11885438Y-21974500D01*
X11885435Y-21974500D01*
X11809012Y-21994978D01*
X11774964Y-22014636D01*
X11774963Y-22014635D01*
X11740488Y-22034540D01*
X11367175Y-22407852D01*
X11312659Y-22435629D01*
X11256907Y-22428290D01*
X11222036Y-22412765D01*
X11222034Y-22412764D01*
X11222031Y-22412763D01*
X11222030Y-22412763D01*
X11175135Y-22402795D01*
X11042019Y-22374500D01*
X10857981Y-22374500D01*
X10760797Y-22395157D01*
X10677969Y-22412763D01*
X10677963Y-22412765D01*
X10509845Y-22487615D01*
X10509842Y-22487617D01*
X10509839Y-22487618D01*
X10509839Y-22487619D01*
X10467571Y-22518328D01*
X10360948Y-22595794D01*
X10237804Y-22732561D01*
X10204962Y-22789445D01*
X10159492Y-22830385D01*
X10098642Y-22836780D01*
X10045654Y-22806187D01*
X10030605Y-22784072D01*
X9953288Y-22628799D01*
X9953283Y-22628790D01*
X9822052Y-22455012D01*
X9661129Y-22308313D01*
X9661126Y-22308311D01*
X9475991Y-22193680D01*
X9475986Y-22193677D01*
X9272932Y-22115013D01*
X9272926Y-22115011D01*
X9200000Y-22101379D01*
X9200000Y-22969670D01*
X9180255Y-22949925D01*
X9094745Y-22900556D01*
X8999370Y-22875000D01*
X8900630Y-22875000D01*
X8805255Y-22900556D01*
X8719745Y-22949925D01*
X8700000Y-22969670D01*
X8700000Y-22101379D01*
X8699999Y-22101379D01*
X8627073Y-22115011D01*
X8627067Y-22115013D01*
X8424013Y-22193677D01*
X8424008Y-22193680D01*
X8238873Y-22308311D01*
X8238870Y-22308313D01*
X8077944Y-22455015D01*
X7995383Y-22564343D01*
X7945227Y-22599386D01*
X7884052Y-22598255D01*
X7835225Y-22561382D01*
X7819283Y-22523999D01*
X7813867Y-22496769D01*
X7769552Y-22430448D01*
X7769548Y-22430445D01*
X7703233Y-22386134D01*
X7703231Y-22386133D01*
X7703228Y-22386132D01*
X7703227Y-22386132D01*
X7644758Y-22374501D01*
X7644748Y-22374500D01*
X7644747Y-22374500D01*
X7349500Y-22374500D01*
X7291309Y-22355593D01*
X7255345Y-22306093D01*
X7250500Y-22275500D01*
X7250500Y-19010437D01*
X7250499Y-19010435D01*
X7241870Y-18978233D01*
X7230021Y-18934011D01*
X7221786Y-18919748D01*
X7190460Y-18865489D01*
X7134511Y-18809539D01*
X7134511Y-18809540D01*
X5393975Y-17069004D01*
X5366198Y-17014487D01*
X5375769Y-16954055D01*
X5419034Y-16910790D01*
X5463979Y-16900000D01*
X5504999Y-16900000D01*
X5505000Y-16899999D01*
X5505000Y-16400001D01*
X5805000Y-16400001D01*
X5805000Y-16899999D01*
X5805001Y-16900000D01*
X6327824Y-16900000D01*
X6387370Y-16893598D01*
X6387381Y-16893596D01*
X6522088Y-16843353D01*
X6522090Y-16843352D01*
X6637184Y-16757192D01*
X6637192Y-16757184D01*
X6723352Y-16642090D01*
X6723353Y-16642088D01*
X6773596Y-16507381D01*
X6773598Y-16507370D01*
X6780000Y-16447824D01*
X6780000Y-16400001D01*
X6779999Y-16400000D01*
X5805001Y-16400000D01*
X5805000Y-16400001D01*
X5505000Y-16400001D01*
X5505000Y-16199500D01*
X5523907Y-16141309D01*
X5573407Y-16105345D01*
X5604000Y-16100500D01*
X6299744Y-16100500D01*
X6299748Y-16100500D01*
X6299751Y-16100499D01*
X6299988Y-16100476D01*
X6309689Y-16100000D01*
X6779999Y-16100000D01*
X6780000Y-16099999D01*
X6780000Y-16052175D01*
X6773598Y-15992629D01*
X6773596Y-15992618D01*
X6723353Y-15857911D01*
X6723352Y-15857909D01*
X6637192Y-15742815D01*
X6637184Y-15742807D01*
X6520171Y-15655210D01*
X6484918Y-15605201D01*
X6481866Y-15585000D01*
X6480976Y-15585088D01*
X6480500Y-15580261D01*
X6480500Y-15580252D01*
X6480350Y-15579500D01*
X6468379Y-15519315D01*
X6468379Y-15480685D01*
X6480498Y-15419758D01*
X6480497Y-15419758D01*
X6480500Y-15419748D01*
X6480500Y-15419737D01*
X6480976Y-15414912D01*
X6483388Y-15415149D01*
X6499407Y-15365850D01*
X6520171Y-15344788D01*
X6637184Y-15257192D01*
X6637192Y-15257184D01*
X6723352Y-15142090D01*
X6723353Y-15142088D01*
X6773596Y-15007381D01*
X6773598Y-15007370D01*
X6780000Y-14947824D01*
X6780000Y-14900001D01*
X6779999Y-14900000D01*
X6309689Y-14900000D01*
X6299988Y-14899524D01*
X6299751Y-14899500D01*
X6299748Y-14899500D01*
X5010252Y-14899500D01*
X5010248Y-14899500D01*
X5010012Y-14899524D01*
X5000311Y-14900000D01*
X4530001Y-14900000D01*
X4530000Y-14900001D01*
X4530000Y-14947824D01*
X4529999Y-14947824D01*
X4536401Y-15007370D01*
X4536403Y-15007381D01*
X4563405Y-15079777D01*
X4566025Y-15140907D01*
X4540651Y-15184376D01*
X4340489Y-15384539D01*
X4284539Y-15440489D01*
X4244980Y-15509007D01*
X4244978Y-15509011D01*
X4224500Y-15585435D01*
X4224500Y-16100500D01*
X4205593Y-16158691D01*
X4156093Y-16194655D01*
X4125500Y-16199500D01*
X3451265Y-16199500D01*
X3393074Y-16180593D01*
X3381261Y-16170504D01*
X3022704Y-15811947D01*
X3007669Y-15782438D01*
X2975120Y-15764363D01*
X1919496Y-14708739D01*
X1891719Y-14654222D01*
X1890500Y-14638735D01*
X1890500Y-13874997D01*
X2419353Y-13874997D01*
X2419353Y-13875002D01*
X2439834Y-14017456D01*
X2499622Y-14148371D01*
X2499623Y-14148373D01*
X2579432Y-14240478D01*
X2593873Y-14257144D01*
X2676041Y-14309950D01*
X2714947Y-14334953D01*
X2793129Y-14357909D01*
X2853035Y-14375499D01*
X2853036Y-14375499D01*
X2853039Y-14375500D01*
X2853041Y-14375500D01*
X2996959Y-14375500D01*
X2996961Y-14375500D01*
X3135053Y-14334953D01*
X3256128Y-14257143D01*
X3350377Y-14148373D01*
X3368645Y-14108373D01*
X3410017Y-14063296D01*
X3458698Y-14050500D01*
X3710521Y-14050500D01*
X3768712Y-14069407D01*
X3804676Y-14118907D01*
X3804676Y-14180093D01*
X3780525Y-14219504D01*
X3290489Y-14709540D01*
X3290488Y-14709539D01*
X3234539Y-14765489D01*
X3194980Y-14834007D01*
X3192496Y-14840005D01*
X3189730Y-14838859D01*
X3163067Y-14879828D01*
X3154369Y-14886110D01*
X3143873Y-14892855D01*
X3049622Y-15001628D01*
X2989834Y-15132543D01*
X2969353Y-15274997D01*
X2969353Y-15275002D01*
X2989834Y-15417456D01*
X3037473Y-15521769D01*
X3049623Y-15548373D01*
X3118494Y-15627855D01*
X3119944Y-15629528D01*
X3129570Y-15652308D01*
X3146229Y-15658658D01*
X3264947Y-15734953D01*
X3371403Y-15766211D01*
X3403035Y-15775499D01*
X3403036Y-15775499D01*
X3403039Y-15775500D01*
X3403041Y-15775500D01*
X3546959Y-15775500D01*
X3546961Y-15775500D01*
X3685053Y-15734953D01*
X3806128Y-15657143D01*
X3900377Y-15548373D01*
X3960165Y-15417457D01*
X3972808Y-15329525D01*
X3980647Y-15275002D01*
X3980647Y-15274997D01*
X3961537Y-15142088D01*
X3960165Y-15132543D01*
X3912617Y-15028430D01*
X3905643Y-14967646D01*
X3932666Y-14917303D01*
X4270475Y-14579496D01*
X4324991Y-14551719D01*
X4340478Y-14550500D01*
X4439493Y-14550500D01*
X4497684Y-14569407D01*
X4509497Y-14579496D01*
X4530001Y-14600000D01*
X5000311Y-14600000D01*
X5010012Y-14600476D01*
X5010248Y-14600499D01*
X5010252Y-14600500D01*
X5010256Y-14600500D01*
X6299744Y-14600500D01*
X6299748Y-14600500D01*
X6299751Y-14600499D01*
X6299988Y-14600476D01*
X6309689Y-14600000D01*
X6779999Y-14600000D01*
X6780000Y-14599999D01*
X6780000Y-14552175D01*
X6773598Y-14492629D01*
X6773596Y-14492618D01*
X6723353Y-14357911D01*
X6723352Y-14357909D01*
X6637192Y-14242815D01*
X6637184Y-14242807D01*
X6520171Y-14155210D01*
X6484918Y-14105201D01*
X6481866Y-14085000D01*
X6480976Y-14085088D01*
X6480500Y-14080261D01*
X6480500Y-14080252D01*
X6468867Y-14021769D01*
X6468379Y-14019315D01*
X6468379Y-13980685D01*
X6480498Y-13919758D01*
X6480499Y-13919751D01*
X6480500Y-13919748D01*
X6480500Y-13919737D01*
X6480976Y-13914912D01*
X6483388Y-13915149D01*
X6499407Y-13865850D01*
X6520171Y-13844788D01*
X6637184Y-13757192D01*
X6637192Y-13757184D01*
X6723352Y-13642090D01*
X6723353Y-13642088D01*
X6773596Y-13507381D01*
X6773598Y-13507370D01*
X6780000Y-13447824D01*
X6780000Y-13400001D01*
X6779999Y-13400000D01*
X6309689Y-13400000D01*
X6299988Y-13399524D01*
X6299751Y-13399500D01*
X6299748Y-13399500D01*
X5010252Y-13399500D01*
X5010248Y-13399500D01*
X5010012Y-13399524D01*
X5000311Y-13400000D01*
X4530001Y-13400000D01*
X4509497Y-13420504D01*
X4454980Y-13448281D01*
X4439493Y-13449500D01*
X3217732Y-13449500D01*
X3164209Y-13433784D01*
X3135057Y-13415049D01*
X3135054Y-13415047D01*
X3135053Y-13415047D01*
X3135050Y-13415046D01*
X2996964Y-13374500D01*
X2996961Y-13374500D01*
X2853039Y-13374500D01*
X2853035Y-13374500D01*
X2714949Y-13415046D01*
X2714942Y-13415049D01*
X2593873Y-13492855D01*
X2499622Y-13601628D01*
X2439834Y-13732543D01*
X2419353Y-13874997D01*
X1890500Y-13874997D01*
X1890500Y-12749997D01*
X3505664Y-12749997D01*
X3505664Y-12750002D01*
X3526145Y-12892456D01*
X3574516Y-12998371D01*
X3585934Y-13023373D01*
X3680182Y-13132142D01*
X3680184Y-13132144D01*
X3796887Y-13207144D01*
X3801258Y-13209953D01*
X3907714Y-13241211D01*
X3939346Y-13250499D01*
X3939347Y-13250499D01*
X3939350Y-13250500D01*
X3939352Y-13250500D01*
X4083270Y-13250500D01*
X4083272Y-13250500D01*
X4221364Y-13209953D01*
X4342439Y-13132143D01*
X4374801Y-13094794D01*
X4427195Y-13063199D01*
X4488156Y-13068434D01*
X4519623Y-13089622D01*
X4530001Y-13100000D01*
X5000311Y-13100000D01*
X5010012Y-13100476D01*
X5010248Y-13100499D01*
X5010252Y-13100500D01*
X5010256Y-13100500D01*
X6299744Y-13100500D01*
X6299748Y-13100500D01*
X6299751Y-13100499D01*
X6299988Y-13100476D01*
X6309689Y-13100000D01*
X6779999Y-13100000D01*
X6780000Y-13099999D01*
X6780000Y-13052175D01*
X6773598Y-12992629D01*
X6773596Y-12992618D01*
X6723354Y-12857913D01*
X6686984Y-12809329D01*
X6667247Y-12751415D01*
X6685321Y-12692960D01*
X6686984Y-12690671D01*
X6723354Y-12642086D01*
X6773596Y-12507381D01*
X6773598Y-12507370D01*
X6780000Y-12447824D01*
X6780000Y-12400001D01*
X6779999Y-12400000D01*
X6309689Y-12400000D01*
X6299988Y-12399524D01*
X6299751Y-12399500D01*
X6299748Y-12399500D01*
X5010252Y-12399500D01*
X5010248Y-12399500D01*
X5010012Y-12399524D01*
X5000311Y-12400000D01*
X4529999Y-12400000D01*
X4519622Y-12410377D01*
X4465105Y-12438154D01*
X4404673Y-12428582D01*
X4374800Y-12405204D01*
X4370291Y-12400000D01*
X4342439Y-12367857D01*
X4274974Y-12324500D01*
X4221368Y-12290049D01*
X4221365Y-12290047D01*
X4221364Y-12290047D01*
X4221361Y-12290046D01*
X4083275Y-12249500D01*
X4083272Y-12249500D01*
X3939350Y-12249500D01*
X3939346Y-12249500D01*
X3801260Y-12290046D01*
X3801253Y-12290049D01*
X3680184Y-12367855D01*
X3585933Y-12476628D01*
X3526145Y-12607543D01*
X3505664Y-12749997D01*
X1890500Y-12749997D01*
X1890500Y-11624997D01*
X2344353Y-11624997D01*
X2344353Y-11625002D01*
X2364834Y-11767456D01*
X2400492Y-11845534D01*
X2424623Y-11898373D01*
X2493820Y-11978231D01*
X2518873Y-12007144D01*
X2639942Y-12084950D01*
X2639947Y-12084953D01*
X2746403Y-12116211D01*
X2778035Y-12125499D01*
X2778036Y-12125499D01*
X2778039Y-12125500D01*
X2778041Y-12125500D01*
X2921959Y-12125500D01*
X2921961Y-12125500D01*
X3060053Y-12084953D01*
X3128110Y-12041215D01*
X3181632Y-12025500D01*
X3993319Y-12025500D01*
X4018943Y-12028874D01*
X4065004Y-12041216D01*
X4099649Y-12050499D01*
X4099651Y-12050500D01*
X4099652Y-12050500D01*
X4178776Y-12050500D01*
X4439493Y-12050500D01*
X4497684Y-12069407D01*
X4509497Y-12079496D01*
X4530001Y-12100000D01*
X5000311Y-12100000D01*
X5010012Y-12100476D01*
X5010248Y-12100499D01*
X5010252Y-12100500D01*
X5010256Y-12100500D01*
X6299744Y-12100500D01*
X6299748Y-12100500D01*
X6299751Y-12100499D01*
X6299988Y-12100476D01*
X6309689Y-12100000D01*
X6779999Y-12100000D01*
X6780000Y-12099999D01*
X6780000Y-12052175D01*
X6773598Y-11992629D01*
X6773596Y-11992618D01*
X6723354Y-11857913D01*
X6686984Y-11809329D01*
X6667247Y-11751415D01*
X6685321Y-11692960D01*
X6686984Y-11690671D01*
X6723354Y-11642086D01*
X6773596Y-11507381D01*
X6773598Y-11507370D01*
X6780000Y-11447824D01*
X6780000Y-11400001D01*
X6779999Y-11400000D01*
X6309689Y-11400000D01*
X6299988Y-11399524D01*
X6299751Y-11399500D01*
X6299748Y-11399500D01*
X5010252Y-11399500D01*
X5010248Y-11399500D01*
X5010012Y-11399524D01*
X5000311Y-11400000D01*
X4530001Y-11400000D01*
X4509497Y-11420504D01*
X4454980Y-11448281D01*
X4439493Y-11449500D01*
X4260109Y-11449500D01*
X4234485Y-11446126D01*
X4153778Y-11424500D01*
X4153776Y-11424500D01*
X3372280Y-11424500D01*
X3314089Y-11405593D01*
X3282226Y-11366625D01*
X3275377Y-11351628D01*
X3275377Y-11351627D01*
X3181128Y-11242857D01*
X3181127Y-11242856D01*
X3181126Y-11242855D01*
X3060057Y-11165049D01*
X3060054Y-11165047D01*
X3060053Y-11165047D01*
X3060050Y-11165046D01*
X2921964Y-11124500D01*
X2921961Y-11124500D01*
X2778039Y-11124500D01*
X2778035Y-11124500D01*
X2639949Y-11165046D01*
X2639942Y-11165049D01*
X2518873Y-11242855D01*
X2424622Y-11351628D01*
X2364834Y-11482543D01*
X2344353Y-11624997D01*
X1890500Y-11624997D01*
X1890500Y-10574997D01*
X3219353Y-10574997D01*
X3219353Y-10575002D01*
X3239834Y-10717456D01*
X3269376Y-10782143D01*
X3299623Y-10848373D01*
X3393872Y-10957143D01*
X3393873Y-10957144D01*
X3514942Y-11034950D01*
X3514947Y-11034953D01*
X3621403Y-11066211D01*
X3653035Y-11075499D01*
X3653036Y-11075499D01*
X3653039Y-11075500D01*
X3653041Y-11075500D01*
X3796960Y-11075500D01*
X3796961Y-11075500D01*
X3868448Y-11054509D01*
X3896338Y-11050500D01*
X4439493Y-11050500D01*
X4497684Y-11069407D01*
X4509497Y-11079496D01*
X4530001Y-11100000D01*
X5000311Y-11100000D01*
X5010012Y-11100476D01*
X5010248Y-11100499D01*
X5010252Y-11100500D01*
X5010256Y-11100500D01*
X6299744Y-11100500D01*
X6299748Y-11100500D01*
X6299751Y-11100499D01*
X6299988Y-11100476D01*
X6309689Y-11100000D01*
X6779999Y-11100000D01*
X6780000Y-11099999D01*
X6780000Y-11052175D01*
X6773598Y-10992629D01*
X6773596Y-10992618D01*
X6723354Y-10857913D01*
X6686984Y-10809329D01*
X6667247Y-10751415D01*
X6685321Y-10692960D01*
X6686984Y-10690671D01*
X6723354Y-10642086D01*
X6773596Y-10507381D01*
X6773598Y-10507370D01*
X6780000Y-10447824D01*
X6780000Y-10400001D01*
X6779999Y-10400000D01*
X6309689Y-10400000D01*
X6299988Y-10399524D01*
X6299751Y-10399500D01*
X6299748Y-10399500D01*
X5010252Y-10399500D01*
X5010248Y-10399500D01*
X5010012Y-10399524D01*
X5000311Y-10400000D01*
X4530001Y-10400000D01*
X4509497Y-10420504D01*
X4454980Y-10448281D01*
X4439493Y-10449500D01*
X4281532Y-10449500D01*
X4223341Y-10430593D01*
X4191479Y-10391626D01*
X4150378Y-10301629D01*
X4150377Y-10301628D01*
X4150377Y-10301627D01*
X4056128Y-10192857D01*
X4056127Y-10192856D01*
X4056126Y-10192855D01*
X3935057Y-10115049D01*
X3935054Y-10115047D01*
X3935053Y-10115047D01*
X3935050Y-10115046D01*
X3796964Y-10074500D01*
X3796961Y-10074500D01*
X3653039Y-10074500D01*
X3653035Y-10074500D01*
X3514949Y-10115046D01*
X3514942Y-10115049D01*
X3393873Y-10192855D01*
X3299622Y-10301628D01*
X3239834Y-10432543D01*
X3219353Y-10574997D01*
X1890500Y-10574997D01*
X1890500Y-9835479D01*
X1909407Y-9777288D01*
X1919496Y-9765475D01*
X2105475Y-9579496D01*
X2159992Y-9551719D01*
X2175479Y-9550500D01*
X4434521Y-9550500D01*
X4492712Y-9569407D01*
X4504525Y-9579496D01*
X4610023Y-9684994D01*
X4637800Y-9739511D01*
X4628229Y-9799943D01*
X4619274Y-9814325D01*
X4586645Y-9857913D01*
X4536403Y-9992618D01*
X4536401Y-9992629D01*
X4530000Y-10052175D01*
X4530000Y-10099999D01*
X4530001Y-10100000D01*
X5000311Y-10100000D01*
X5010012Y-10100476D01*
X5010248Y-10100499D01*
X5010252Y-10100500D01*
X5010256Y-10100500D01*
X6299744Y-10100500D01*
X6299748Y-10100500D01*
X6299751Y-10100499D01*
X6299988Y-10100476D01*
X6309689Y-10100000D01*
X6779999Y-10100000D01*
X6780000Y-10099999D01*
X6780000Y-10052175D01*
X6773598Y-9992629D01*
X6773596Y-9992618D01*
X6723353Y-9857911D01*
X6723352Y-9857909D01*
X6637192Y-9742815D01*
X6637184Y-9742807D01*
X6618410Y-9728753D01*
X6583157Y-9678745D01*
X6584031Y-9617565D01*
X6620698Y-9568584D01*
X6677739Y-9550500D01*
X6719563Y-9550500D01*
X6719563Y-9550499D01*
X6795989Y-9530021D01*
X6864511Y-9490460D01*
X6880716Y-9474254D01*
X6935230Y-9446477D01*
X6995662Y-9456047D01*
X7038928Y-9499311D01*
X7048501Y-9559743D01*
X7047817Y-9563569D01*
X7044501Y-9580241D01*
X7044500Y-9580253D01*
X7044500Y-10919746D01*
X7044501Y-10919758D01*
X7056132Y-10978227D01*
X7056134Y-10978233D01*
X7094032Y-11034950D01*
X7100448Y-11044552D01*
X7166769Y-11088867D01*
X7211231Y-11097711D01*
X7225241Y-11100498D01*
X7225246Y-11100498D01*
X7225252Y-11100500D01*
X7225253Y-11100500D01*
X8814747Y-11100500D01*
X8814748Y-11100500D01*
X8873231Y-11088867D01*
X8939552Y-11044552D01*
X8983867Y-10978231D01*
X8995500Y-10919748D01*
X8995500Y-10649500D01*
X9014407Y-10591309D01*
X9063907Y-10555345D01*
X9094500Y-10550500D01*
X11409563Y-10550500D01*
X11409563Y-10550499D01*
X11485989Y-10530021D01*
X11554511Y-10490460D01*
X11610460Y-10434511D01*
X12685474Y-9359495D01*
X12739991Y-9331719D01*
X12755478Y-9330500D01*
X12861959Y-9330500D01*
X12861961Y-9330500D01*
X13000053Y-9289953D01*
X13121128Y-9212143D01*
X13215377Y-9103373D01*
X13275165Y-8972457D01*
X13286351Y-8894655D01*
X13295647Y-8830002D01*
X13295647Y-8829997D01*
X13275165Y-8687543D01*
X13258199Y-8650394D01*
X13215377Y-8556627D01*
X13121128Y-8447857D01*
X13121127Y-8447856D01*
X13121126Y-8447855D01*
X13000057Y-8370049D01*
X13000054Y-8370047D01*
X13000053Y-8370047D01*
X13000050Y-8370046D01*
X12861964Y-8329500D01*
X12861961Y-8329500D01*
X12718039Y-8329500D01*
X12718035Y-8329500D01*
X12579949Y-8370046D01*
X12579942Y-8370049D01*
X12458873Y-8447855D01*
X12364622Y-8556628D01*
X12304834Y-8687543D01*
X12284353Y-8829997D01*
X12284353Y-8830003D01*
X12287441Y-8851482D01*
X12277007Y-8911771D01*
X12259453Y-8935574D01*
X11274525Y-9920504D01*
X11220008Y-9948281D01*
X11204521Y-9949500D01*
X9094500Y-9949500D01*
X9036309Y-9930593D01*
X9000345Y-9881093D01*
X8995500Y-9850500D01*
X8995500Y-9580253D01*
X8995498Y-9580241D01*
X8992182Y-9563569D01*
X8983867Y-9521769D01*
X8939552Y-9455448D01*
X8934500Y-9452072D01*
X8873233Y-9411134D01*
X8873231Y-9411133D01*
X8873228Y-9411132D01*
X8873227Y-9411132D01*
X8814758Y-9399501D01*
X8814748Y-9399500D01*
X7384961Y-9399500D01*
X7326770Y-9380593D01*
X7290806Y-9331093D01*
X7290806Y-9269907D01*
X7326770Y-9220407D01*
X7357070Y-9205510D01*
X7410053Y-9189953D01*
X7531128Y-9112143D01*
X7572264Y-9064668D01*
X7624660Y-9033073D01*
X7647083Y-9030500D01*
X8319563Y-9030500D01*
X8319563Y-9030499D01*
X8395989Y-9010021D01*
X8464511Y-8970460D01*
X8520460Y-8914511D01*
X11795475Y-5639494D01*
X11849992Y-5611718D01*
X11865479Y-5610499D01*
X11899175Y-5610499D01*
X11899178Y-5610499D01*
X11944760Y-5604499D01*
X11944761Y-5604499D01*
X11998673Y-5579358D01*
X12044799Y-5557850D01*
X12122850Y-5479799D01*
X12169499Y-5379760D01*
X12175500Y-5334179D01*
X12175499Y-4885822D01*
X12169499Y-4840240D01*
X12169499Y-4840238D01*
X12122851Y-4740203D01*
X12122850Y-4740202D01*
X12122850Y-4740201D01*
X12044799Y-4662150D01*
X11944760Y-4615501D01*
X11899179Y-4609500D01*
X11899177Y-4609500D01*
X11600826Y-4609500D01*
X11600814Y-4609501D01*
X11555240Y-4615500D01*
X11555238Y-4615500D01*
X11455203Y-4662148D01*
X11377150Y-4740201D01*
X11330501Y-4840240D01*
X11330501Y-4840241D01*
X11324500Y-4885822D01*
X11324500Y-5219520D01*
X11305593Y-5277711D01*
X11295504Y-5289524D01*
X8184525Y-8400504D01*
X8130008Y-8428281D01*
X8114521Y-8429500D01*
X7647083Y-8429500D01*
X7588892Y-8410593D01*
X7572264Y-8395331D01*
X7531128Y-8347857D01*
X7498182Y-8326684D01*
X7410057Y-8270049D01*
X7410054Y-8270047D01*
X7410053Y-8270047D01*
X7410050Y-8270046D01*
X7271964Y-8229500D01*
X7271961Y-8229500D01*
X7128039Y-8229500D01*
X7128035Y-8229500D01*
X6989949Y-8270046D01*
X6989942Y-8270049D01*
X6868872Y-8347856D01*
X6868870Y-8347858D01*
X6867210Y-8349774D01*
X6865399Y-8350865D01*
X6863519Y-8352495D01*
X6863236Y-8352169D01*
X6814812Y-8381367D01*
X6753851Y-8376128D01*
X6713141Y-8344269D01*
X6637189Y-8242812D01*
X6637184Y-8242807D01*
X6522090Y-8156647D01*
X6522088Y-8156646D01*
X6387381Y-8106403D01*
X6387370Y-8106401D01*
X6327824Y-8100000D01*
X5805001Y-8100000D01*
X5805000Y-8100001D01*
X5805000Y-8800500D01*
X5786093Y-8858691D01*
X5736593Y-8894655D01*
X5706000Y-8899500D01*
X5010252Y-8899500D01*
X5010248Y-8899500D01*
X5010012Y-8899524D01*
X5000311Y-8900000D01*
X4530001Y-8900000D01*
X4509497Y-8920504D01*
X4454980Y-8948281D01*
X4439493Y-8949500D01*
X2049562Y-8949500D01*
X1970438Y-8949500D01*
X1923661Y-8962033D01*
X1894007Y-8969979D01*
X1825493Y-9009536D01*
X1825488Y-9009540D01*
X1349539Y-9485489D01*
X1309980Y-9554007D01*
X1309978Y-9554011D01*
X1289500Y-9630435D01*
X1289500Y-14843778D01*
X1309977Y-14920199D01*
X1309979Y-14920204D01*
X1331536Y-14957542D01*
X1349538Y-14988722D01*
X1349540Y-14988725D01*
X3101275Y-16740460D01*
X3101277Y-16740461D01*
X3101279Y-16740463D01*
X3169794Y-16780020D01*
X3169792Y-16780020D01*
X3169796Y-16780021D01*
X3169798Y-16780022D01*
X3246224Y-16800500D01*
X3325348Y-16800500D01*
X4234521Y-16800500D01*
X4292712Y-16819407D01*
X4304525Y-16829496D01*
X6620504Y-19145475D01*
X6648281Y-19199992D01*
X6649500Y-19215479D01*
X6649500Y-22275500D01*
X6630593Y-22333691D01*
X6581093Y-22369655D01*
X6550500Y-22374500D01*
X6255252Y-22374500D01*
X6255251Y-22374500D01*
X6255241Y-22374501D01*
X6196772Y-22386132D01*
X6196766Y-22386134D01*
X6130451Y-22430445D01*
X6130445Y-22430451D01*
X6086134Y-22496766D01*
X6086132Y-22496772D01*
X6074501Y-22555241D01*
X6074500Y-22555253D01*
X6074500Y-23944746D01*
X6074501Y-23944758D01*
X6086132Y-24003227D01*
X6086134Y-24003233D01*
X6114034Y-24044987D01*
X6130448Y-24069552D01*
X6196769Y-24113867D01*
X6241231Y-24122711D01*
X6255241Y-24125498D01*
X6255246Y-24125498D01*
X6255252Y-24125500D01*
X6255253Y-24125500D01*
X7644747Y-24125500D01*
X7644748Y-24125500D01*
X7703231Y-24113867D01*
X7769552Y-24069552D01*
X7813867Y-24003231D01*
X7819283Y-23976001D01*
X7849178Y-23922619D01*
X7904743Y-23897003D01*
X7964753Y-23908940D01*
X7995384Y-23935656D01*
X8077947Y-24044987D01*
X8238870Y-24191686D01*
X8238873Y-24191688D01*
X8424008Y-24306319D01*
X8424013Y-24306322D01*
X8627070Y-24384987D01*
X8699999Y-24398620D01*
X8700000Y-24398620D01*
X8700000Y-23530330D01*
X8719745Y-23550075D01*
X8805255Y-23599444D01*
X8900630Y-23625000D01*
X8999370Y-23625000D01*
X9094745Y-23599444D01*
X9180255Y-23550075D01*
X9200000Y-23530330D01*
X9200000Y-24398620D01*
X9272929Y-24384987D01*
X9475986Y-24306322D01*
X9475991Y-24306319D01*
X9661126Y-24191688D01*
X9661129Y-24191686D01*
X9822052Y-24044987D01*
X9953283Y-23871209D01*
X9953288Y-23871200D01*
X10030605Y-23715927D01*
X10073467Y-23672265D01*
X10133808Y-23662135D01*
X10188579Y-23689407D01*
X10204962Y-23710555D01*
X10237805Y-23767440D01*
X10331239Y-23871209D01*
X10354463Y-23897003D01*
X10360950Y-23904207D01*
X10509839Y-24012381D01*
X10509843Y-24012383D01*
X10509845Y-24012384D01*
X10565485Y-24037156D01*
X10677966Y-24087236D01*
X10857981Y-24125500D01*
X10857983Y-24125500D01*
X11042017Y-24125500D01*
X11042019Y-24125500D01*
X11222034Y-24087236D01*
X11390161Y-24012381D01*
X11539050Y-23904207D01*
X11662195Y-23767440D01*
X11746460Y-23621489D01*
X11754209Y-23608068D01*
X11754209Y-23608066D01*
X11754214Y-23608059D01*
X11811085Y-23433029D01*
X11830322Y-23250000D01*
X11811085Y-23066971D01*
X11774129Y-22953233D01*
X11767766Y-22933649D01*
X11767765Y-22872464D01*
X11791915Y-22833054D01*
X12020475Y-22604496D01*
X12074991Y-22576719D01*
X12090478Y-22575500D01*
X12157618Y-22575500D01*
X12215809Y-22594407D01*
X12251773Y-22643907D01*
X12251773Y-22705093D01*
X12240141Y-22727918D01*
X12240399Y-22728067D01*
X12145790Y-22891931D01*
X12145784Y-22891945D01*
X12088916Y-23066965D01*
X12088915Y-23066969D01*
X12088915Y-23066971D01*
X12069678Y-23250000D01*
X12087531Y-23419865D01*
X12088916Y-23433034D01*
X12145784Y-23608054D01*
X12145790Y-23608068D01*
X12184723Y-23675500D01*
X12237805Y-23767440D01*
X12331239Y-23871209D01*
X12354463Y-23897003D01*
X12360950Y-23904207D01*
X12509839Y-24012381D01*
X12509843Y-24012383D01*
X12509845Y-24012384D01*
X12565485Y-24037156D01*
X12677966Y-24087236D01*
X12857981Y-24125500D01*
X12857983Y-24125500D01*
X13042017Y-24125500D01*
X13042019Y-24125500D01*
X13222034Y-24087236D01*
X13256905Y-24071709D01*
X13317755Y-24065314D01*
X13367176Y-24092147D01*
X13384540Y-24109511D01*
X13384539Y-24109511D01*
X13440489Y-24165460D01*
X13509007Y-24205019D01*
X13509011Y-24205021D01*
X13585435Y-24225499D01*
X13585437Y-24225500D01*
X13585438Y-24225500D01*
X27724563Y-24225500D01*
X27724563Y-24225499D01*
X27800989Y-24205021D01*
X27869511Y-24165460D01*
X27909473Y-24125498D01*
X27925461Y-24109511D01*
X28591796Y-23443174D01*
X28646313Y-23415396D01*
X28706745Y-23424967D01*
X28750010Y-23468232D01*
X28752364Y-23473188D01*
X28784357Y-23545644D01*
X28785294Y-23547765D01*
X28864735Y-23627206D01*
X28967509Y-23672585D01*
X28992635Y-23675500D01*
X30357364Y-23675499D01*
X30382491Y-23672585D01*
X30485265Y-23627206D01*
X30564706Y-23547765D01*
X30610085Y-23444991D01*
X30613000Y-23419865D01*
X30612999Y-23130136D01*
X30610085Y-23105009D01*
X30564706Y-23002235D01*
X30564705Y-23002234D01*
X30561000Y-22993843D01*
X30563375Y-22992794D01*
X30549962Y-22947261D01*
X30563026Y-22907051D01*
X30561000Y-22906157D01*
X30564704Y-22897766D01*
X30564706Y-22897765D01*
X30610085Y-22794991D01*
X30613000Y-22769865D01*
X30612999Y-22480136D01*
X30610085Y-22455009D01*
X30564706Y-22352235D01*
X30564705Y-22352234D01*
X30561000Y-22343843D01*
X30563375Y-22342794D01*
X30549962Y-22297261D01*
X30563026Y-22257051D01*
X30561000Y-22256157D01*
X30564704Y-22247766D01*
X30564706Y-22247765D01*
X30610085Y-22144991D01*
X30613000Y-22119865D01*
X30612999Y-21830136D01*
X30610085Y-21805009D01*
X30564706Y-21702235D01*
X30564705Y-21702234D01*
X30561000Y-21693843D01*
X30563375Y-21692794D01*
X30549962Y-21647261D01*
X30563026Y-21607051D01*
X30561000Y-21606157D01*
X30564704Y-21597766D01*
X30564706Y-21597765D01*
X30610085Y-21494991D01*
X30613000Y-21469865D01*
X30612999Y-21180136D01*
X30610085Y-21155009D01*
X30564706Y-21052235D01*
X30564705Y-21052234D01*
X30561000Y-21043843D01*
X30563375Y-21042794D01*
X30549962Y-20997261D01*
X30563026Y-20957051D01*
X30561000Y-20956157D01*
X30564704Y-20947766D01*
X30564706Y-20947765D01*
X30610085Y-20844991D01*
X30613000Y-20819865D01*
X30612999Y-20530136D01*
X30610085Y-20505009D01*
X30564706Y-20402235D01*
X30564705Y-20402234D01*
X30561000Y-20393843D01*
X30563375Y-20392794D01*
X30549962Y-20347261D01*
X30563026Y-20307051D01*
X30561000Y-20306157D01*
X30564704Y-20297766D01*
X30564706Y-20297765D01*
X30610085Y-20194991D01*
X30613000Y-20169865D01*
X30612999Y-19880136D01*
X30610085Y-19855009D01*
X30564706Y-19752235D01*
X30564705Y-19752234D01*
X30561000Y-19743843D01*
X30563375Y-19742794D01*
X30549962Y-19697261D01*
X30563026Y-19657051D01*
X30561000Y-19656157D01*
X30564704Y-19647766D01*
X30564706Y-19647765D01*
X30610085Y-19544991D01*
X30613000Y-19519865D01*
X30612999Y-19230136D01*
X30610085Y-19205009D01*
X30564706Y-19102235D01*
X30564705Y-19102234D01*
X30561000Y-19093843D01*
X30563375Y-19092794D01*
X30549962Y-19047261D01*
X30563026Y-19007051D01*
X30561000Y-19006157D01*
X30564704Y-18997766D01*
X30564706Y-18997765D01*
X30610085Y-18894991D01*
X30613000Y-18869865D01*
X30612999Y-18580136D01*
X30610085Y-18555009D01*
X30564706Y-18452235D01*
X30564705Y-18452234D01*
X30561000Y-18443843D01*
X30563375Y-18442794D01*
X30549962Y-18397261D01*
X30563026Y-18357051D01*
X30561000Y-18356157D01*
X30564704Y-18347766D01*
X30564706Y-18347765D01*
X30610085Y-18244991D01*
X30613000Y-18219865D01*
X30612999Y-17930136D01*
X30610085Y-17905009D01*
X30564706Y-17802235D01*
X30564705Y-17802234D01*
X30561000Y-17793843D01*
X30563375Y-17792794D01*
X30549962Y-17747261D01*
X30563026Y-17707051D01*
X30561000Y-17706157D01*
X30564704Y-17697766D01*
X30564706Y-17697765D01*
X30610085Y-17594991D01*
X30613000Y-17569865D01*
X30612999Y-17280136D01*
X30610085Y-17255009D01*
X30564706Y-17152235D01*
X30485265Y-17072794D01*
X30382491Y-17027415D01*
X30382490Y-17027414D01*
X30382488Y-17027414D01*
X30357369Y-17024500D01*
X30357365Y-17024500D01*
X30074500Y-17024500D01*
X30016309Y-17005593D01*
X29980345Y-16956093D01*
X29975500Y-16925500D01*
X29975500Y-15673008D01*
X29994407Y-15614817D01*
X30043907Y-15578853D01*
X30105093Y-15578853D01*
X30119699Y-15585938D01*
X30126764Y-15588863D01*
X30126769Y-15588867D01*
X30171231Y-15597711D01*
X30185241Y-15600498D01*
X30185246Y-15600498D01*
X30185252Y-15600500D01*
X30954521Y-15600500D01*
X31012712Y-15619407D01*
X31024525Y-15629496D01*
X31299453Y-15904424D01*
X31327230Y-15958941D01*
X31327441Y-15988514D01*
X31324354Y-16009997D01*
X31324353Y-16010002D01*
X31344834Y-16152456D01*
X31390504Y-16252457D01*
X31404623Y-16283373D01*
X31465276Y-16353371D01*
X31498873Y-16392144D01*
X31607794Y-16462143D01*
X31619947Y-16469953D01*
X31726403Y-16501211D01*
X31758035Y-16510499D01*
X31758036Y-16510499D01*
X31758039Y-16510500D01*
X31758041Y-16510500D01*
X31901959Y-16510500D01*
X31901961Y-16510500D01*
X32040053Y-16469953D01*
X32161128Y-16392143D01*
X32255377Y-16283373D01*
X32315165Y-16152457D01*
X32326878Y-16070989D01*
X32335647Y-16010002D01*
X32335647Y-16009997D01*
X32315165Y-15867543D01*
X32301046Y-15836627D01*
X32255377Y-15736627D01*
X32161128Y-15627857D01*
X32161127Y-15627856D01*
X32161126Y-15627855D01*
X32040052Y-15550046D01*
X32022544Y-15544905D01*
X31972038Y-15510368D01*
X31951478Y-15452741D01*
X31953342Y-15430595D01*
X31953343Y-15430593D01*
X31955500Y-15419748D01*
X31955500Y-15149500D01*
X31974407Y-15091309D01*
X32023907Y-15055345D01*
X32054500Y-15050500D01*
X32945500Y-15050500D01*
X33003691Y-15069407D01*
X33039655Y-15118907D01*
X33044500Y-15149500D01*
X33044500Y-15419746D01*
X33044501Y-15419758D01*
X33056132Y-15478227D01*
X33056134Y-15478233D01*
X33090390Y-15529500D01*
X33100448Y-15544552D01*
X33166769Y-15588867D01*
X33211231Y-15597711D01*
X33225241Y-15600498D01*
X33225246Y-15600498D01*
X33225252Y-15600500D01*
X34174521Y-15600500D01*
X34232712Y-15619407D01*
X34244525Y-15629496D01*
X34539453Y-15924424D01*
X34567230Y-15978941D01*
X34567441Y-16008514D01*
X34564354Y-16029997D01*
X34564353Y-16030002D01*
X34584834Y-16172456D01*
X34635488Y-16283371D01*
X34644623Y-16303373D01*
X34738872Y-16412143D01*
X34738873Y-16412144D01*
X34828826Y-16469953D01*
X34859947Y-16489953D01*
X34966403Y-16521211D01*
X34998035Y-16530499D01*
X34998036Y-16530499D01*
X34998039Y-16530500D01*
X34998041Y-16530500D01*
X35141959Y-16530500D01*
X35141961Y-16530500D01*
X35280053Y-16489953D01*
X35401128Y-16412143D01*
X35495377Y-16303373D01*
X35555165Y-16172457D01*
X35569177Y-16074998D01*
X35575647Y-16030002D01*
X35575647Y-16029997D01*
X35555165Y-15887543D01*
X35515928Y-15801627D01*
X35495377Y-15756627D01*
X35401128Y-15647857D01*
X35401127Y-15647856D01*
X35401126Y-15647855D01*
X35280057Y-15570049D01*
X35280054Y-15570047D01*
X35280053Y-15570047D01*
X35280050Y-15570046D01*
X35141964Y-15529500D01*
X35141961Y-15529500D01*
X35093920Y-15529500D01*
X35035729Y-15510593D01*
X34999765Y-15461093D01*
X34995811Y-15424612D01*
X34995500Y-15424612D01*
X34995500Y-15421745D01*
X34995397Y-15420795D01*
X34995500Y-15419749D01*
X34995500Y-14080253D01*
X34995498Y-14080241D01*
X34986407Y-14034540D01*
X34983867Y-14021769D01*
X34939552Y-13955448D01*
X34932095Y-13950465D01*
X34873233Y-13911134D01*
X34873231Y-13911133D01*
X34873228Y-13911132D01*
X34873227Y-13911132D01*
X34814758Y-13899501D01*
X34814748Y-13899500D01*
X33225252Y-13899500D01*
X33225251Y-13899500D01*
X33225241Y-13899501D01*
X33166772Y-13911132D01*
X33166766Y-13911134D01*
X33100451Y-13955445D01*
X33100445Y-13955451D01*
X33056134Y-14021766D01*
X33056132Y-14021772D01*
X33044501Y-14080241D01*
X33044500Y-14080253D01*
X33044500Y-14350500D01*
X33025593Y-14408691D01*
X32976093Y-14444655D01*
X32945500Y-14449500D01*
X32054500Y-14449500D01*
X31996309Y-14430593D01*
X31960345Y-14381093D01*
X31955500Y-14350500D01*
X31955500Y-14080253D01*
X31955498Y-14080241D01*
X31946407Y-14034540D01*
X31943867Y-14021769D01*
X31899552Y-13955448D01*
X31892095Y-13950465D01*
X31833233Y-13911134D01*
X31833231Y-13911133D01*
X31833228Y-13911132D01*
X31833227Y-13911132D01*
X31774758Y-13899501D01*
X31774748Y-13899500D01*
X31774747Y-13899500D01*
X30469479Y-13899500D01*
X30411288Y-13880593D01*
X30375324Y-13831093D01*
X30375324Y-13769907D01*
X30399475Y-13730496D01*
X30553344Y-13576627D01*
X31220460Y-12909511D01*
X31246730Y-12864011D01*
X31260020Y-12840992D01*
X31260020Y-12840990D01*
X31260022Y-12840988D01*
X31280500Y-12764562D01*
X31280500Y-12685438D01*
X31280500Y-11199500D01*
X31299407Y-11141309D01*
X31348907Y-11105345D01*
X31379500Y-11100500D01*
X31774747Y-11100500D01*
X31774748Y-11100500D01*
X31833231Y-11088867D01*
X31899552Y-11044552D01*
X31943867Y-10978231D01*
X31955500Y-10919748D01*
X31955500Y-9580252D01*
X31954980Y-9577640D01*
X31952182Y-9563569D01*
X31943867Y-9521769D01*
X31899552Y-9455448D01*
X31894500Y-9452072D01*
X31833233Y-9411134D01*
X31833231Y-9411133D01*
X31833228Y-9411132D01*
X31833227Y-9411132D01*
X31774758Y-9399501D01*
X31774748Y-9399500D01*
X31774747Y-9399500D01*
X31379500Y-9399500D01*
X31321309Y-9380593D01*
X31285345Y-9331093D01*
X31280500Y-9300500D01*
X31280500Y-7868529D01*
X31299407Y-7810338D01*
X31309484Y-7798538D01*
X31656149Y-7451873D01*
X31710662Y-7424099D01*
X31771094Y-7433670D01*
X31811362Y-7471485D01*
X31891805Y-7607507D01*
X32007492Y-7723194D01*
X32148299Y-7806467D01*
X32148298Y-7806467D01*
X32305399Y-7852109D01*
X32305404Y-7852110D01*
X32330000Y-7854045D01*
X32330000Y-7310001D01*
X32830000Y-7310001D01*
X32830000Y-7854045D01*
X32854587Y-7852112D01*
X32854600Y-7852109D01*
X33011699Y-7806467D01*
X33011700Y-7806467D01*
X33152507Y-7723194D01*
X33268193Y-7607508D01*
X33294883Y-7562378D01*
X33340778Y-7521915D01*
X33401692Y-7516156D01*
X33416025Y-7521551D01*
X33416276Y-7520879D01*
X33557618Y-7573596D01*
X33557629Y-7573598D01*
X33617176Y-7580000D01*
X33789999Y-7580000D01*
X33790000Y-7579999D01*
X33790000Y-7080001D01*
X34190000Y-7080001D01*
X34190000Y-7579999D01*
X34190001Y-7580000D01*
X34362824Y-7580000D01*
X34422370Y-7573598D01*
X34422381Y-7573596D01*
X34557088Y-7523353D01*
X34557090Y-7523352D01*
X34672184Y-7437192D01*
X34672192Y-7437184D01*
X34758352Y-7322090D01*
X34758353Y-7322088D01*
X34808596Y-7187381D01*
X34808598Y-7187370D01*
X34815000Y-7127824D01*
X34815000Y-7080001D01*
X34814999Y-7080000D01*
X34190001Y-7080000D01*
X34190000Y-7080001D01*
X33790000Y-7080001D01*
X33789999Y-7080000D01*
X33443001Y-7080000D01*
X33443000Y-7080001D01*
X33443000Y-7211000D01*
X33424093Y-7269191D01*
X33374593Y-7305155D01*
X33344000Y-7310000D01*
X32830001Y-7310000D01*
X32830000Y-7310001D01*
X32330000Y-7310001D01*
X32330000Y-6909000D01*
X32348907Y-6850809D01*
X32398407Y-6814845D01*
X32429000Y-6810000D01*
X33121999Y-6810000D01*
X33122000Y-6809999D01*
X33122000Y-6779000D01*
X33140907Y-6720809D01*
X33190407Y-6684845D01*
X33221000Y-6680000D01*
X34814999Y-6680000D01*
X34815000Y-6679999D01*
X34815000Y-6632175D01*
X34808598Y-6572629D01*
X34808596Y-6572621D01*
X34760004Y-6442338D01*
X34757384Y-6381208D01*
X34791195Y-6330214D01*
X34848523Y-6308832D01*
X34907470Y-6325230D01*
X34922766Y-6337737D01*
X35335504Y-6750475D01*
X35363281Y-6804992D01*
X35364500Y-6820479D01*
X35364500Y-7099746D01*
X35364501Y-7099758D01*
X35376132Y-7158227D01*
X35376134Y-7158233D01*
X35415649Y-7217370D01*
X35420448Y-7224552D01*
X35486769Y-7268867D01*
X35531231Y-7277711D01*
X35545241Y-7280498D01*
X35545246Y-7280498D01*
X35545252Y-7280500D01*
X35545253Y-7280500D01*
X36234747Y-7280500D01*
X36234748Y-7280500D01*
X36293231Y-7268867D01*
X36359552Y-7224552D01*
X36403867Y-7158231D01*
X36415500Y-7099748D01*
X36415500Y-6820479D01*
X36434407Y-6762288D01*
X36444496Y-6750475D01*
X36470496Y-6724475D01*
X36525013Y-6696698D01*
X36585445Y-6706269D01*
X36628710Y-6749534D01*
X36639500Y-6794479D01*
X36639500Y-9850500D01*
X36620593Y-9908691D01*
X36571093Y-9944655D01*
X36540500Y-9949500D01*
X35094500Y-9949500D01*
X35036309Y-9930593D01*
X35000345Y-9881093D01*
X34995500Y-9850500D01*
X34995500Y-9580253D01*
X34995498Y-9580241D01*
X34992182Y-9563569D01*
X34983867Y-9521769D01*
X34939552Y-9455448D01*
X34934500Y-9452072D01*
X34873233Y-9411134D01*
X34873231Y-9411133D01*
X34873228Y-9411132D01*
X34873227Y-9411132D01*
X34814758Y-9399501D01*
X34814748Y-9399500D01*
X33225252Y-9399500D01*
X33225251Y-9399500D01*
X33225241Y-9399501D01*
X33166772Y-9411132D01*
X33166766Y-9411134D01*
X33100451Y-9455445D01*
X33100445Y-9455451D01*
X33056134Y-9521766D01*
X33056132Y-9521772D01*
X33044501Y-9580241D01*
X33044500Y-9580253D01*
X33044500Y-10919746D01*
X33044501Y-10919758D01*
X33056132Y-10978227D01*
X33056134Y-10978233D01*
X33094032Y-11034950D01*
X33100448Y-11044552D01*
X33166769Y-11088867D01*
X33211231Y-11097711D01*
X33225241Y-11100498D01*
X33225246Y-11100498D01*
X33225252Y-11100500D01*
X33225253Y-11100500D01*
X34814747Y-11100500D01*
X34814748Y-11100500D01*
X34873231Y-11088867D01*
X34939552Y-11044552D01*
X34983867Y-10978231D01*
X34995500Y-10919748D01*
X34995500Y-10649500D01*
X35014407Y-10591309D01*
X35063907Y-10555345D01*
X35094500Y-10550500D01*
X36470500Y-10550500D01*
X36528691Y-10569407D01*
X36564655Y-10618907D01*
X36569500Y-10649500D01*
X36569500Y-15789520D01*
X36550593Y-15847711D01*
X36540504Y-15859524D01*
X35404523Y-16995504D01*
X35350006Y-17023281D01*
X35334519Y-17024500D01*
X34717639Y-17024500D01*
X34717636Y-17024501D01*
X34692509Y-17027414D01*
X34589735Y-17072794D01*
X34510294Y-17152235D01*
X34464914Y-17255011D01*
X34462000Y-17280130D01*
X34462000Y-17569859D01*
X34462001Y-17569864D01*
X34464914Y-17594990D01*
X34514000Y-17706157D01*
X34511626Y-17707205D01*
X34525037Y-17752757D01*
X34511977Y-17792949D01*
X34514000Y-17793843D01*
X34510294Y-17802234D01*
X34510294Y-17802235D01*
X34488119Y-17852457D01*
X34464914Y-17905011D01*
X34462000Y-17930130D01*
X34462000Y-18219859D01*
X34462001Y-18219864D01*
X34464914Y-18244990D01*
X34477343Y-18273138D01*
X34502240Y-18329525D01*
X34514000Y-18356157D01*
X34511626Y-18357205D01*
X34525037Y-18402757D01*
X34511977Y-18442949D01*
X34514000Y-18443843D01*
X34510294Y-18452234D01*
X34510294Y-18452235D01*
X34498816Y-18478231D01*
X34464914Y-18555011D01*
X34462000Y-18580130D01*
X34462000Y-18869859D01*
X34462001Y-18869864D01*
X34464914Y-18894990D01*
X34514000Y-19006157D01*
X34511626Y-19007205D01*
X34525037Y-19052757D01*
X34511977Y-19092949D01*
X34514000Y-19093843D01*
X34510294Y-19102234D01*
X34510294Y-19102235D01*
X34509683Y-19103619D01*
X34464914Y-19205011D01*
X34462000Y-19230130D01*
X34462000Y-19519859D01*
X34462001Y-19519864D01*
X34464914Y-19544990D01*
X34479264Y-19577489D01*
X34507091Y-19640512D01*
X34514000Y-19656157D01*
X34511626Y-19657205D01*
X34525037Y-19702757D01*
X34511977Y-19742949D01*
X34514000Y-19743843D01*
X34510294Y-19752234D01*
X34510294Y-19752235D01*
X34473118Y-19836430D01*
X34464914Y-19855011D01*
X34462000Y-19880130D01*
X34462000Y-20000476D01*
X34443093Y-20058667D01*
X34423268Y-20079018D01*
X34334577Y-20147073D01*
X34334570Y-20147080D01*
X34238401Y-20272410D01*
X34238399Y-20272414D01*
X34177944Y-20418367D01*
X34170488Y-20474999D01*
X34170488Y-20475000D01*
X35501000Y-20475000D01*
X35559191Y-20493907D01*
X35595155Y-20543407D01*
X35600000Y-20574000D01*
X35600000Y-20776000D01*
X35581093Y-20834191D01*
X35531593Y-20870155D01*
X35501000Y-20875000D01*
X34170489Y-20875000D01*
X34177943Y-20931627D01*
X34177945Y-20931635D01*
X34238399Y-21077585D01*
X34238401Y-21077589D01*
X34334570Y-21202919D01*
X34334580Y-21202929D01*
X34423267Y-21270981D01*
X34457923Y-21321406D01*
X34462000Y-21349522D01*
X34462000Y-21469861D01*
X34462001Y-21469864D01*
X34464914Y-21494990D01*
X34476740Y-21521772D01*
X34502561Y-21580252D01*
X34514000Y-21606157D01*
X34511626Y-21607205D01*
X34525037Y-21652757D01*
X34511977Y-21692949D01*
X34514000Y-21693843D01*
X34510294Y-21702234D01*
X34510294Y-21702235D01*
X34496224Y-21734101D01*
X34464914Y-21805011D01*
X34462000Y-21830130D01*
X34462000Y-22119859D01*
X34462001Y-22119864D01*
X34464914Y-22144990D01*
X34514000Y-22256157D01*
X34511626Y-22257205D01*
X34525037Y-22302757D01*
X34511977Y-22342949D01*
X34514000Y-22343843D01*
X34510294Y-22352234D01*
X34510294Y-22352235D01*
X34476713Y-22428290D01*
X34464914Y-22455011D01*
X34462000Y-22480130D01*
X34462000Y-22769859D01*
X34462001Y-22769864D01*
X34464914Y-22794990D01*
X34486170Y-22843130D01*
X34508966Y-22894758D01*
X34514000Y-22906157D01*
X34511626Y-22907205D01*
X34525037Y-22952757D01*
X34511977Y-22992949D01*
X34514000Y-22993843D01*
X34510294Y-23002234D01*
X34510294Y-23002235D01*
X34475978Y-23079954D01*
X34464914Y-23105011D01*
X34462000Y-23130130D01*
X34462000Y-23419859D01*
X34462001Y-23419864D01*
X34464914Y-23444990D01*
X34486835Y-23494635D01*
X34510294Y-23547765D01*
X34589735Y-23627206D01*
X34692509Y-23672585D01*
X34717635Y-23675500D01*
X36082364Y-23675499D01*
X36107491Y-23672585D01*
X36210265Y-23627206D01*
X36289706Y-23547765D01*
X36335085Y-23444991D01*
X36338000Y-23419865D01*
X36337999Y-23130136D01*
X36335085Y-23105009D01*
X36289706Y-23002235D01*
X36289705Y-23002234D01*
X36286000Y-22993843D01*
X36288375Y-22992794D01*
X36274962Y-22947261D01*
X36288026Y-22907051D01*
X36286000Y-22906157D01*
X36289704Y-22897766D01*
X36289706Y-22897765D01*
X36335085Y-22794991D01*
X36338000Y-22769865D01*
X36337999Y-22661976D01*
X36356906Y-22603787D01*
X36406405Y-22567823D01*
X36467591Y-22567822D01*
X36507000Y-22591971D01*
X36850505Y-22935476D01*
X36878281Y-22989991D01*
X36879500Y-23005478D01*
X36879500Y-23240528D01*
X36889355Y-23308170D01*
X36940364Y-23412511D01*
X37022489Y-23494636D01*
X37126830Y-23545645D01*
X37194472Y-23555500D01*
X37194475Y-23555500D01*
X37605524Y-23555500D01*
X37605528Y-23555500D01*
X37673170Y-23545645D01*
X37777511Y-23494636D01*
X37859636Y-23412511D01*
X37910645Y-23308170D01*
X37920500Y-23240528D01*
X37920500Y-23005478D01*
X37939407Y-22947288D01*
X37949496Y-22935475D01*
X38084971Y-22800000D01*
X41683006Y-22800000D01*
X41728532Y-22956699D01*
X41728532Y-22956700D01*
X41811805Y-23097507D01*
X41927492Y-23213194D01*
X42068299Y-23296467D01*
X42068298Y-23296467D01*
X42225399Y-23342109D01*
X42225404Y-23342110D01*
X42250000Y-23344045D01*
X42250000Y-22800001D01*
X42249999Y-22800000D01*
X41683006Y-22800000D01*
X38084971Y-22800000D01*
X38975475Y-21909496D01*
X39029992Y-21881719D01*
X39045479Y-21880500D01*
X41710387Y-21880500D01*
X41768578Y-21899407D01*
X41804542Y-21948907D01*
X41804542Y-22010093D01*
X41795600Y-22029895D01*
X41728532Y-22143299D01*
X41728532Y-22143300D01*
X41683005Y-22300000D01*
X42651000Y-22300000D01*
X42709191Y-22318907D01*
X42745155Y-22368407D01*
X42750000Y-22399000D01*
X42750000Y-23344045D01*
X42774587Y-23342112D01*
X42774600Y-23342109D01*
X42931699Y-23296467D01*
X42931700Y-23296467D01*
X43072507Y-23213194D01*
X43192596Y-23093106D01*
X43193822Y-23094332D01*
X43237724Y-23064487D01*
X43284675Y-23062455D01*
X43291767Y-23063865D01*
X43291769Y-23063867D01*
X43324499Y-23070377D01*
X43350244Y-23075499D01*
X43350250Y-23075499D01*
X43350252Y-23075500D01*
X43350253Y-23075500D01*
X44449747Y-23075500D01*
X44449748Y-23075500D01*
X44508231Y-23063867D01*
X44574552Y-23019552D01*
X44618867Y-22953231D01*
X44630500Y-22894748D01*
X44630500Y-22205252D01*
X44618867Y-22146769D01*
X44574552Y-22080448D01*
X44567147Y-22075500D01*
X44508233Y-22036134D01*
X44508231Y-22036133D01*
X44508228Y-22036132D01*
X44508227Y-22036132D01*
X44449758Y-22024501D01*
X44449748Y-22024500D01*
X44449747Y-22024500D01*
X43410479Y-22024500D01*
X43352288Y-22005593D01*
X43340475Y-21995504D01*
X43049496Y-21704525D01*
X43021719Y-21650008D01*
X43020500Y-21634521D01*
X43020500Y-21399475D01*
X43020500Y-21399472D01*
X43010645Y-21331830D01*
X42959636Y-21227489D01*
X42877511Y-21145364D01*
X42773170Y-21094355D01*
X42773171Y-21094355D01*
X42756259Y-21091891D01*
X42705528Y-21084500D01*
X42344562Y-21084500D01*
X42265438Y-21084500D01*
X42265436Y-21084500D01*
X42236431Y-21092271D01*
X42227837Y-21094043D01*
X42219490Y-21096623D01*
X42219421Y-21096402D01*
X42215364Y-21097917D01*
X42189014Y-21104978D01*
X42120489Y-21144540D01*
X42064539Y-21200490D01*
X42060590Y-21205637D01*
X42060040Y-21205215D01*
X42051471Y-21216380D01*
X42040364Y-21227489D01*
X42040360Y-21227493D01*
X42035597Y-21234165D01*
X42033604Y-21232742D01*
X41999527Y-21267959D01*
X41953138Y-21279500D01*
X38840435Y-21279500D01*
X38764014Y-21299977D01*
X38764009Y-21299979D01*
X38708843Y-21331828D01*
X38708844Y-21331829D01*
X38695491Y-21339538D01*
X38695488Y-21339540D01*
X38328703Y-21706324D01*
X38274187Y-21734101D01*
X38213755Y-21724530D01*
X38173487Y-21686716D01*
X38134265Y-21620396D01*
X38120917Y-21560684D01*
X38134265Y-21519604D01*
X38171469Y-21456696D01*
X38216994Y-21300000D01*
X37650001Y-21300000D01*
X37650000Y-21300001D01*
X37650000Y-22241000D01*
X37631093Y-22299191D01*
X37581593Y-22335155D01*
X37551000Y-22340000D01*
X37249000Y-22340000D01*
X37190809Y-22321093D01*
X37154845Y-22271593D01*
X37150000Y-22241000D01*
X37150000Y-20899000D01*
X37168907Y-20840809D01*
X37218407Y-20804845D01*
X37249000Y-20800000D01*
X38216994Y-20800000D01*
X38171467Y-20643300D01*
X38171467Y-20643299D01*
X38088194Y-20502492D01*
X37972508Y-20386806D01*
X37964829Y-20382265D01*
X37924366Y-20336370D01*
X37920239Y-20305253D01*
X43169500Y-20305253D01*
X43169500Y-20994746D01*
X43169501Y-20994758D01*
X43181132Y-21053227D01*
X43181134Y-21053233D01*
X43215710Y-21104979D01*
X43225448Y-21119552D01*
X43291769Y-21163867D01*
X43336231Y-21172711D01*
X43350241Y-21175498D01*
X43350246Y-21175498D01*
X43350252Y-21175500D01*
X43350253Y-21175500D01*
X44449747Y-21175500D01*
X44449748Y-21175500D01*
X44508231Y-21163867D01*
X44574552Y-21119552D01*
X44618867Y-21053231D01*
X44630500Y-20994748D01*
X44630500Y-20305252D01*
X44618867Y-20246769D01*
X44574552Y-20180448D01*
X44558714Y-20169865D01*
X44508233Y-20136134D01*
X44508231Y-20136133D01*
X44508228Y-20136132D01*
X44508227Y-20136132D01*
X44449758Y-20124501D01*
X44449748Y-20124500D01*
X43350252Y-20124500D01*
X43350251Y-20124500D01*
X43350241Y-20124501D01*
X43291772Y-20136132D01*
X43291766Y-20136134D01*
X43225451Y-20180445D01*
X43225445Y-20180451D01*
X43181134Y-20246766D01*
X43181132Y-20246772D01*
X43169501Y-20305241D01*
X43169500Y-20305253D01*
X37920239Y-20305253D01*
X37917258Y-20282777D01*
X37920500Y-20260528D01*
X37920500Y-19899472D01*
X37910645Y-19831830D01*
X37859636Y-19727489D01*
X37777511Y-19645364D01*
X37673170Y-19594355D01*
X37673171Y-19594355D01*
X37656259Y-19591891D01*
X37605528Y-19584500D01*
X37194472Y-19584500D01*
X37153886Y-19590413D01*
X37126828Y-19594355D01*
X37032414Y-19640512D01*
X37022489Y-19645364D01*
X36940364Y-19727489D01*
X36940363Y-19727490D01*
X36940362Y-19727492D01*
X36935595Y-19734168D01*
X36933600Y-19732743D01*
X36899536Y-19767954D01*
X36853138Y-19779500D01*
X36383473Y-19779500D01*
X36325282Y-19760593D01*
X36289318Y-19711093D01*
X36289318Y-19649907D01*
X36292904Y-19640520D01*
X36335085Y-19544991D01*
X36338000Y-19519865D01*
X36337999Y-19230136D01*
X36335085Y-19205009D01*
X36317192Y-19164487D01*
X36310985Y-19103619D01*
X36341741Y-19050725D01*
X36397713Y-19026011D01*
X36407758Y-19025500D01*
X36680417Y-19025500D01*
X36738608Y-19044407D01*
X36769531Y-19086969D01*
X36770978Y-19086262D01*
X36774354Y-19093169D01*
X36774355Y-19093170D01*
X36825364Y-19197511D01*
X36907489Y-19279636D01*
X37011830Y-19330645D01*
X37079472Y-19340500D01*
X37079475Y-19340500D01*
X37440524Y-19340500D01*
X37440528Y-19340500D01*
X37508170Y-19330645D01*
X37612511Y-19279636D01*
X37674998Y-19217148D01*
X37729513Y-19189373D01*
X37789945Y-19198944D01*
X37815000Y-19217147D01*
X37877489Y-19279636D01*
X37981830Y-19330645D01*
X38049472Y-19340500D01*
X38049475Y-19340500D01*
X38410524Y-19340500D01*
X38410528Y-19340500D01*
X38478170Y-19330645D01*
X38582511Y-19279636D01*
X38664636Y-19197511D01*
X38715645Y-19093170D01*
X38725500Y-19025528D01*
X38725500Y-18614472D01*
X38715645Y-18546830D01*
X38664636Y-18442489D01*
X38582511Y-18360364D01*
X38582509Y-18360363D01*
X38582508Y-18360362D01*
X38575832Y-18355595D01*
X38577256Y-18353600D01*
X38542046Y-18319536D01*
X38530500Y-18273138D01*
X38530500Y-16079997D01*
X40114353Y-16079997D01*
X40114353Y-16080002D01*
X40134834Y-16222456D01*
X40194622Y-16353371D01*
X40194623Y-16353373D01*
X40288872Y-16462143D01*
X40288873Y-16462144D01*
X40409942Y-16539950D01*
X40409947Y-16539953D01*
X40512109Y-16569950D01*
X40548035Y-16580499D01*
X40548036Y-16580499D01*
X40548039Y-16580500D01*
X40548041Y-16580500D01*
X40691959Y-16580500D01*
X40691961Y-16580500D01*
X40830053Y-16539953D01*
X40951128Y-16462143D01*
X40963535Y-16447824D01*
X43219999Y-16447824D01*
X43226401Y-16507370D01*
X43226403Y-16507381D01*
X43276646Y-16642088D01*
X43276647Y-16642090D01*
X43362807Y-16757184D01*
X43362815Y-16757192D01*
X43477909Y-16843352D01*
X43477911Y-16843353D01*
X43612618Y-16893596D01*
X43612629Y-16893598D01*
X43672176Y-16900000D01*
X44194999Y-16900000D01*
X44195000Y-16899999D01*
X44195000Y-16400001D01*
X44495000Y-16400001D01*
X44495000Y-16899999D01*
X44495001Y-16900000D01*
X45017824Y-16900000D01*
X45077370Y-16893598D01*
X45077381Y-16893596D01*
X45212088Y-16843353D01*
X45212090Y-16843352D01*
X45327184Y-16757192D01*
X45327192Y-16757184D01*
X45413352Y-16642090D01*
X45413353Y-16642088D01*
X45463596Y-16507381D01*
X45463598Y-16507370D01*
X45470000Y-16447824D01*
X45470000Y-16400001D01*
X45469999Y-16400000D01*
X44495001Y-16400000D01*
X44495000Y-16400001D01*
X44195000Y-16400001D01*
X44194999Y-16400000D01*
X43220001Y-16400000D01*
X43220000Y-16400001D01*
X43220000Y-16447824D01*
X43219999Y-16447824D01*
X40963535Y-16447824D01*
X41045377Y-16353373D01*
X41105165Y-16222457D01*
X41119945Y-16119661D01*
X41125647Y-16080002D01*
X41125647Y-16072918D01*
X41128381Y-16072918D01*
X41136750Y-16024479D01*
X41154314Y-16000655D01*
X41525475Y-15629496D01*
X41579991Y-15601719D01*
X41595478Y-15600500D01*
X42774747Y-15600500D01*
X42774748Y-15600500D01*
X42833231Y-15588867D01*
X42899552Y-15544552D01*
X42943867Y-15478231D01*
X42955500Y-15419748D01*
X42955500Y-14080252D01*
X42943867Y-14021769D01*
X42899552Y-13955448D01*
X42892095Y-13950465D01*
X42833233Y-13911134D01*
X42833231Y-13911133D01*
X42833228Y-13911132D01*
X42833227Y-13911132D01*
X42774758Y-13899501D01*
X42774748Y-13899500D01*
X41185252Y-13899500D01*
X41185251Y-13899500D01*
X41185241Y-13899501D01*
X41126772Y-13911132D01*
X41126766Y-13911134D01*
X41060451Y-13955445D01*
X41060445Y-13955451D01*
X41016134Y-14021766D01*
X41016132Y-14021772D01*
X41004501Y-14080241D01*
X41004500Y-14080253D01*
X41004500Y-15259521D01*
X40985593Y-15317712D01*
X40975504Y-15329524D01*
X40754523Y-15550504D01*
X40700008Y-15578281D01*
X40684521Y-15579500D01*
X40548035Y-15579500D01*
X40409949Y-15620046D01*
X40409942Y-15620049D01*
X40288873Y-15697855D01*
X40194622Y-15806628D01*
X40134834Y-15937543D01*
X40114353Y-16079997D01*
X38530500Y-16079997D01*
X38530500Y-16065479D01*
X38549407Y-16007288D01*
X38559496Y-15995475D01*
X40797787Y-13757184D01*
X42107146Y-12447824D01*
X43219999Y-12447824D01*
X43226401Y-12507370D01*
X43226403Y-12507381D01*
X43276645Y-12642087D01*
X43313015Y-12690671D01*
X43332752Y-12748586D01*
X43314678Y-12807041D01*
X43313015Y-12809329D01*
X43276645Y-12857912D01*
X43226403Y-12992618D01*
X43226401Y-12992629D01*
X43220000Y-13052175D01*
X43220000Y-13099999D01*
X43220001Y-13100000D01*
X43690311Y-13100000D01*
X43700012Y-13100476D01*
X43700248Y-13100499D01*
X43700252Y-13100500D01*
X43700256Y-13100500D01*
X44989744Y-13100500D01*
X44989748Y-13100500D01*
X44989751Y-13100499D01*
X44989988Y-13100476D01*
X44999689Y-13100000D01*
X45469999Y-13100000D01*
X45490503Y-13079496D01*
X45545020Y-13051719D01*
X45560507Y-13050500D01*
X46589799Y-13050500D01*
X46647990Y-13069407D01*
X46673084Y-13095978D01*
X46674621Y-13098370D01*
X46674622Y-13098371D01*
X46674623Y-13098373D01*
X46768872Y-13207143D01*
X46768873Y-13207144D01*
X46889942Y-13284950D01*
X46889947Y-13284953D01*
X46996403Y-13316211D01*
X47028035Y-13325499D01*
X47028036Y-13325499D01*
X47028039Y-13325500D01*
X47028041Y-13325500D01*
X47171959Y-13325500D01*
X47171961Y-13325500D01*
X47310053Y-13284953D01*
X47431128Y-13207143D01*
X47525377Y-13098373D01*
X47585165Y-12967457D01*
X47603348Y-12840992D01*
X47605647Y-12825002D01*
X47605647Y-12824997D01*
X47585165Y-12682543D01*
X47539496Y-12582543D01*
X47525377Y-12551627D01*
X47431128Y-12442857D01*
X47431127Y-12442856D01*
X47431126Y-12442855D01*
X47310057Y-12365049D01*
X47310054Y-12365047D01*
X47310053Y-12365047D01*
X47310050Y-12365046D01*
X47171964Y-12324500D01*
X47171961Y-12324500D01*
X47028039Y-12324500D01*
X47028035Y-12324500D01*
X46889949Y-12365046D01*
X46889942Y-12365049D01*
X46782989Y-12433784D01*
X46729466Y-12449500D01*
X45560507Y-12449500D01*
X45502316Y-12430593D01*
X45490503Y-12420504D01*
X45469999Y-12400000D01*
X44999689Y-12400000D01*
X44989988Y-12399524D01*
X44989751Y-12399500D01*
X44989748Y-12399500D01*
X43700252Y-12399500D01*
X43700248Y-12399500D01*
X43700012Y-12399524D01*
X43690311Y-12400000D01*
X43220001Y-12400000D01*
X43220000Y-12400001D01*
X43220000Y-12447824D01*
X43219999Y-12447824D01*
X42107146Y-12447824D01*
X43068902Y-11486068D01*
X43123417Y-11458293D01*
X43183849Y-11467864D01*
X43227114Y-11511129D01*
X43231662Y-11521478D01*
X43276645Y-11642087D01*
X43313015Y-11690671D01*
X43332752Y-11748586D01*
X43314678Y-11807041D01*
X43313015Y-11809329D01*
X43276645Y-11857912D01*
X43226403Y-11992618D01*
X43226401Y-11992629D01*
X43220000Y-12052175D01*
X43220000Y-12099999D01*
X43220001Y-12100000D01*
X43690311Y-12100000D01*
X43700012Y-12100476D01*
X43700248Y-12100499D01*
X43700252Y-12100500D01*
X43700256Y-12100500D01*
X44989744Y-12100500D01*
X44989748Y-12100500D01*
X44989751Y-12100499D01*
X44989988Y-12100476D01*
X44999689Y-12100000D01*
X45469999Y-12100000D01*
X45490503Y-12079496D01*
X45545020Y-12051719D01*
X45560507Y-12050500D01*
X46068368Y-12050500D01*
X46121889Y-12066215D01*
X46189947Y-12109953D01*
X46295719Y-12141010D01*
X46328035Y-12150499D01*
X46328036Y-12150499D01*
X46328039Y-12150500D01*
X46328041Y-12150500D01*
X46471959Y-12150500D01*
X46471961Y-12150500D01*
X46610053Y-12109953D01*
X46731128Y-12032143D01*
X46825377Y-11923373D01*
X46885165Y-11792457D01*
X46891992Y-11744971D01*
X46905647Y-11650002D01*
X46905647Y-11649997D01*
X46885165Y-11507543D01*
X46882463Y-11501627D01*
X46825377Y-11376627D01*
X46731128Y-11267857D01*
X46731127Y-11267856D01*
X46731126Y-11267855D01*
X46610057Y-11190049D01*
X46610054Y-11190047D01*
X46610053Y-11190047D01*
X46610050Y-11190046D01*
X46471964Y-11149500D01*
X46471961Y-11149500D01*
X46328039Y-11149500D01*
X46328035Y-11149500D01*
X46189949Y-11190046D01*
X46189942Y-11190049D01*
X46068873Y-11267855D01*
X45974622Y-11376628D01*
X45967774Y-11391625D01*
X45926403Y-11436703D01*
X45877720Y-11449500D01*
X45560507Y-11449500D01*
X45502316Y-11430593D01*
X45490503Y-11420504D01*
X45469999Y-11400000D01*
X44999689Y-11400000D01*
X44989988Y-11399524D01*
X44989751Y-11399500D01*
X44989748Y-11399500D01*
X44294000Y-11399500D01*
X44235809Y-11380593D01*
X44199845Y-11331093D01*
X44195000Y-11300500D01*
X44195000Y-11199500D01*
X44213907Y-11141309D01*
X44263407Y-11105345D01*
X44294000Y-11100500D01*
X44989744Y-11100500D01*
X44989748Y-11100500D01*
X44989751Y-11100499D01*
X44989988Y-11100476D01*
X44999689Y-11100000D01*
X45469999Y-11100000D01*
X45470000Y-11099999D01*
X45470000Y-11052175D01*
X45463598Y-10992624D01*
X45463597Y-10992623D01*
X45451348Y-10959781D01*
X45448728Y-10898652D01*
X45474100Y-10855184D01*
X45599789Y-10729496D01*
X45654306Y-10701719D01*
X45669792Y-10700500D01*
X46102917Y-10700500D01*
X46161108Y-10719407D01*
X46177733Y-10734667D01*
X46218872Y-10782143D01*
X46307001Y-10838780D01*
X46336772Y-10857913D01*
X46339947Y-10859953D01*
X46446403Y-10891211D01*
X46478035Y-10900499D01*
X46478036Y-10900499D01*
X46478039Y-10900500D01*
X46478041Y-10900500D01*
X46621959Y-10900500D01*
X46621961Y-10900500D01*
X46760053Y-10859953D01*
X46881128Y-10782143D01*
X46975377Y-10673373D01*
X47035165Y-10542457D01*
X47055647Y-10400000D01*
X47055575Y-10399500D01*
X47035165Y-10257543D01*
X46975377Y-10126627D01*
X46881128Y-10017857D01*
X46881127Y-10017856D01*
X46881126Y-10017855D01*
X46760057Y-9940049D01*
X46760054Y-9940047D01*
X46760053Y-9940047D01*
X46760050Y-9940046D01*
X46621964Y-9899500D01*
X46621961Y-9899500D01*
X46478039Y-9899500D01*
X46478035Y-9899500D01*
X46339949Y-9940046D01*
X46339942Y-9940049D01*
X46218876Y-10017854D01*
X46218875Y-10017855D01*
X46218872Y-10017857D01*
X46189136Y-10052175D01*
X46177736Y-10065331D01*
X46125340Y-10096927D01*
X46102917Y-10099500D01*
X45564015Y-10099500D01*
X45505824Y-10080593D01*
X45469860Y-10031093D01*
X45465582Y-10011081D01*
X45463598Y-9992629D01*
X45463596Y-9992618D01*
X45413353Y-9857911D01*
X45413352Y-9857909D01*
X45327192Y-9742815D01*
X45327184Y-9742807D01*
X45308410Y-9728753D01*
X45273157Y-9678745D01*
X45274031Y-9617565D01*
X45310698Y-9568584D01*
X45367739Y-9550500D01*
X45576241Y-9550500D01*
X45634432Y-9569407D01*
X45643403Y-9577640D01*
X45643520Y-9577506D01*
X45648871Y-9582143D01*
X45769942Y-9659950D01*
X45769947Y-9659953D01*
X45855230Y-9684994D01*
X45908035Y-9700499D01*
X45908036Y-9700499D01*
X45908039Y-9700500D01*
X45908041Y-9700500D01*
X46051959Y-9700500D01*
X46051961Y-9700500D01*
X46190053Y-9659953D01*
X46311128Y-9582143D01*
X46352264Y-9534668D01*
X46404660Y-9503073D01*
X46427083Y-9500500D01*
X46666352Y-9500500D01*
X46715852Y-9513763D01*
X46744012Y-9530022D01*
X46820438Y-9550500D01*
X46899562Y-9550500D01*
X47509521Y-9550500D01*
X47567712Y-9569407D01*
X47579525Y-9579496D01*
X48470504Y-10470475D01*
X48498281Y-10524992D01*
X48499500Y-10540479D01*
X48499500Y-15384521D01*
X48480593Y-15442712D01*
X48470504Y-15454525D01*
X47807504Y-16117525D01*
X47752987Y-16145302D01*
X47692555Y-16135731D01*
X47667496Y-16117525D01*
X47522011Y-15972040D01*
X47522011Y-15972039D01*
X47059510Y-15509539D01*
X47026464Y-15490460D01*
X47026462Y-15490459D01*
X46990989Y-15469979D01*
X46990986Y-15469978D01*
X46914564Y-15449500D01*
X46914562Y-15449500D01*
X46719658Y-15449500D01*
X46661467Y-15430593D01*
X46625503Y-15381093D01*
X46625503Y-15319907D01*
X46629605Y-15309373D01*
X46652372Y-15259521D01*
X46660165Y-15242457D01*
X46673530Y-15149500D01*
X46680647Y-15100002D01*
X46680647Y-15099997D01*
X46660165Y-14957543D01*
X46660165Y-14957542D01*
X46615020Y-14858691D01*
X46600377Y-14826627D01*
X46506128Y-14717857D01*
X46506127Y-14717856D01*
X46506126Y-14717855D01*
X46385057Y-14640049D01*
X46385054Y-14640047D01*
X46385053Y-14640047D01*
X46380585Y-14638735D01*
X46246964Y-14599500D01*
X46246961Y-14599500D01*
X46140479Y-14599500D01*
X46082288Y-14580593D01*
X46070475Y-14570504D01*
X46007731Y-14507760D01*
X45979954Y-14453243D01*
X45989525Y-14392811D01*
X46032790Y-14349546D01*
X46093222Y-14339975D01*
X46105625Y-14342766D01*
X46131964Y-14350500D01*
X46131966Y-14350500D01*
X46275884Y-14350500D01*
X46275886Y-14350500D01*
X46413978Y-14309953D01*
X46535053Y-14232143D01*
X46629302Y-14123373D01*
X46689090Y-13992457D01*
X46695917Y-13944971D01*
X46709572Y-13850002D01*
X46709572Y-13849997D01*
X46689090Y-13707543D01*
X46659197Y-13642088D01*
X46629302Y-13576627D01*
X46535053Y-13467857D01*
X46535052Y-13467856D01*
X46535051Y-13467855D01*
X46413982Y-13390049D01*
X46413979Y-13390047D01*
X46413978Y-13390047D01*
X46413975Y-13390046D01*
X46275889Y-13349500D01*
X46275886Y-13349500D01*
X46131964Y-13349500D01*
X46131960Y-13349500D01*
X45993874Y-13390046D01*
X45993871Y-13390047D01*
X45978383Y-13400001D01*
X45925814Y-13433784D01*
X45872293Y-13449500D01*
X45560507Y-13449500D01*
X45502316Y-13430593D01*
X45490503Y-13420504D01*
X45469999Y-13400000D01*
X44999689Y-13400000D01*
X44989988Y-13399524D01*
X44989751Y-13399500D01*
X44989748Y-13399500D01*
X43700252Y-13399500D01*
X43700248Y-13399500D01*
X43700012Y-13399524D01*
X43690311Y-13400000D01*
X43220001Y-13400000D01*
X43220000Y-13400001D01*
X43220000Y-13447824D01*
X43219999Y-13447824D01*
X43226401Y-13507370D01*
X43226403Y-13507381D01*
X43276646Y-13642088D01*
X43276647Y-13642090D01*
X43362807Y-13757184D01*
X43362815Y-13757192D01*
X43479829Y-13844788D01*
X43515082Y-13894796D01*
X43518134Y-13914999D01*
X43519024Y-13914912D01*
X43519500Y-13919751D01*
X43531621Y-13980686D01*
X43531621Y-14019314D01*
X43519500Y-14080248D01*
X43519024Y-14085088D01*
X43516610Y-14084850D01*
X43500593Y-14134148D01*
X43479829Y-14155210D01*
X43362815Y-14242807D01*
X43362807Y-14242815D01*
X43276647Y-14357909D01*
X43276646Y-14357911D01*
X43226403Y-14492618D01*
X43226401Y-14492629D01*
X43220000Y-14552175D01*
X43220000Y-14599999D01*
X43220001Y-14600000D01*
X43690311Y-14600000D01*
X43700012Y-14600476D01*
X43700248Y-14600499D01*
X43700252Y-14600500D01*
X43700256Y-14600500D01*
X44396000Y-14600500D01*
X44454191Y-14619407D01*
X44490155Y-14668907D01*
X44495000Y-14699500D01*
X44495000Y-14800500D01*
X44476093Y-14858691D01*
X44426593Y-14894655D01*
X44396000Y-14899500D01*
X43700252Y-14899500D01*
X43700248Y-14899500D01*
X43700012Y-14899524D01*
X43690311Y-14900000D01*
X43220001Y-14900000D01*
X43220000Y-14900001D01*
X43220000Y-14947824D01*
X43219999Y-14947824D01*
X43226401Y-15007370D01*
X43226403Y-15007381D01*
X43276646Y-15142088D01*
X43276647Y-15142090D01*
X43362807Y-15257184D01*
X43362815Y-15257192D01*
X43479829Y-15344788D01*
X43515082Y-15394796D01*
X43518134Y-15414999D01*
X43519024Y-15414912D01*
X43519500Y-15419751D01*
X43531621Y-15480686D01*
X43531621Y-15519314D01*
X43519500Y-15580248D01*
X43519024Y-15585088D01*
X43516610Y-15584850D01*
X43500593Y-15634148D01*
X43479829Y-15655210D01*
X43362815Y-15742807D01*
X43362807Y-15742815D01*
X43276647Y-15857909D01*
X43276646Y-15857911D01*
X43226403Y-15992618D01*
X43226401Y-15992629D01*
X43220000Y-16052175D01*
X43220000Y-16099999D01*
X43220001Y-16100000D01*
X43690311Y-16100000D01*
X43700012Y-16100476D01*
X43700248Y-16100499D01*
X43700252Y-16100500D01*
X43700256Y-16100500D01*
X44989744Y-16100500D01*
X44989748Y-16100500D01*
X44989751Y-16100499D01*
X44989988Y-16100476D01*
X44999689Y-16100000D01*
X45469999Y-16100000D01*
X45490503Y-16079496D01*
X45545020Y-16051719D01*
X45560507Y-16050500D01*
X45635438Y-16050500D01*
X46709521Y-16050500D01*
X46767712Y-16069407D01*
X46779525Y-16079496D01*
X47630525Y-16930496D01*
X47658302Y-16985013D01*
X47648731Y-17045445D01*
X47605466Y-17088710D01*
X47560521Y-17099500D01*
X45980252Y-17099500D01*
X45980251Y-17099500D01*
X45980241Y-17099501D01*
X45921772Y-17111132D01*
X45921766Y-17111134D01*
X45855451Y-17155445D01*
X45855445Y-17155451D01*
X45811134Y-17221766D01*
X45811132Y-17221772D01*
X45799501Y-17280241D01*
X45799500Y-17280253D01*
X45799500Y-18919743D01*
X45799501Y-18919758D01*
X45811132Y-18978227D01*
X45811134Y-18978233D01*
X45842736Y-19025528D01*
X45855448Y-19044552D01*
X45921769Y-19088867D01*
X45966231Y-19097711D01*
X45980241Y-19100498D01*
X45980246Y-19100498D01*
X45980252Y-19100500D01*
X47735521Y-19100500D01*
X47793712Y-19119407D01*
X47829676Y-19168907D01*
X47829676Y-19230093D01*
X47805525Y-19269504D01*
X47315489Y-19759540D01*
X47315488Y-19759539D01*
X47259539Y-19815489D01*
X47219980Y-19884007D01*
X47219978Y-19884011D01*
X47199500Y-19960435D01*
X47199500Y-20180916D01*
X47180593Y-20239107D01*
X47143981Y-20269856D01*
X47122494Y-20280360D01*
X47122488Y-20280364D01*
X47082348Y-20320504D01*
X47027831Y-20348281D01*
X47012345Y-20349500D01*
X46920549Y-20349500D01*
X46862358Y-20330593D01*
X46826394Y-20281093D01*
X46823452Y-20269816D01*
X46821038Y-20257683D01*
X46818867Y-20246769D01*
X46774552Y-20180448D01*
X46758714Y-20169865D01*
X46708233Y-20136134D01*
X46708231Y-20136133D01*
X46708228Y-20136132D01*
X46708227Y-20136132D01*
X46649758Y-20124501D01*
X46649748Y-20124500D01*
X45550252Y-20124500D01*
X45550251Y-20124500D01*
X45550241Y-20124501D01*
X45491772Y-20136132D01*
X45491766Y-20136134D01*
X45425451Y-20180445D01*
X45425445Y-20180451D01*
X45381134Y-20246766D01*
X45381132Y-20246772D01*
X45369501Y-20305241D01*
X45369500Y-20305253D01*
X45369500Y-20434521D01*
X45350593Y-20492712D01*
X45340504Y-20504525D01*
X45085489Y-20759540D01*
X45085488Y-20759539D01*
X45029539Y-20815489D01*
X44989980Y-20884007D01*
X44989978Y-20884011D01*
X44969500Y-20960435D01*
X44969500Y-22489564D01*
X44989978Y-22565988D01*
X45009903Y-22600498D01*
X45009903Y-22600499D01*
X45029540Y-22634511D01*
X45129539Y-22734511D01*
X45185489Y-22790460D01*
X45254007Y-22830019D01*
X45254005Y-22830019D01*
X45254009Y-22830020D01*
X45254011Y-22830021D01*
X45302939Y-22843131D01*
X45354251Y-22876454D01*
X45374411Y-22919441D01*
X45381132Y-22953227D01*
X45381134Y-22953233D01*
X45425445Y-23019548D01*
X45425448Y-23019552D01*
X45491769Y-23063867D01*
X45536231Y-23072711D01*
X45550241Y-23075498D01*
X45550246Y-23075498D01*
X45550252Y-23075500D01*
X45550253Y-23075500D01*
X46649747Y-23075500D01*
X46649748Y-23075500D01*
X46708231Y-23063867D01*
X46774552Y-23019552D01*
X46818867Y-22953231D01*
X46830500Y-22894748D01*
X46830500Y-22464398D01*
X46849407Y-22406207D01*
X46898907Y-22370243D01*
X46960093Y-22370243D01*
X46979895Y-22379185D01*
X47068299Y-22431467D01*
X47068298Y-22431467D01*
X47225399Y-22477109D01*
X47225404Y-22477110D01*
X47250000Y-22479045D01*
X47250000Y-21935001D01*
X47750000Y-21935001D01*
X47750000Y-22479045D01*
X47774587Y-22477112D01*
X47774600Y-22477109D01*
X47931699Y-22431467D01*
X47931700Y-22431467D01*
X48072507Y-22348194D01*
X48188194Y-22232507D01*
X48271467Y-22091700D01*
X48271467Y-22091699D01*
X48316994Y-21935000D01*
X47750001Y-21935000D01*
X47750000Y-21935001D01*
X47250000Y-21935001D01*
X47249999Y-21935000D01*
X46736000Y-21935000D01*
X46677809Y-21916093D01*
X46641845Y-21866593D01*
X46639634Y-21852635D01*
X46636999Y-21850000D01*
X45949000Y-21850000D01*
X45890809Y-21831093D01*
X45854845Y-21781593D01*
X45850000Y-21751000D01*
X45850000Y-21449000D01*
X45868907Y-21390809D01*
X45918407Y-21354845D01*
X45949000Y-21350000D01*
X47074000Y-21350000D01*
X47132191Y-21368907D01*
X47168155Y-21418407D01*
X47170365Y-21432364D01*
X47173001Y-21435000D01*
X48316994Y-21435000D01*
X48271467Y-21278300D01*
X48271467Y-21278299D01*
X48188194Y-21137492D01*
X48072508Y-21021806D01*
X48064829Y-21017265D01*
X48024366Y-20971370D01*
X48017258Y-20917777D01*
X48020500Y-20895528D01*
X48020500Y-20534472D01*
X48010645Y-20466830D01*
X47959636Y-20362489D01*
X47877511Y-20280364D01*
X47877509Y-20280363D01*
X47877508Y-20280362D01*
X47877505Y-20280360D01*
X47856019Y-20269856D01*
X47812045Y-20227313D01*
X47800500Y-20180916D01*
X47800500Y-20165478D01*
X47819407Y-20107287D01*
X47829490Y-20095480D01*
X48990460Y-18934511D01*
X48998983Y-18919748D01*
X49030021Y-18865989D01*
X49050500Y-18789562D01*
X49050500Y-17585438D01*
X49030021Y-17509011D01*
X49025090Y-17500471D01*
X48990460Y-17440489D01*
X48934511Y-17384539D01*
X48934511Y-17384540D01*
X48232474Y-16682503D01*
X48204697Y-16627986D01*
X48214268Y-16567554D01*
X48232468Y-16542502D01*
X49040460Y-15734511D01*
X49043011Y-15730093D01*
X49044302Y-15727858D01*
X49067598Y-15687506D01*
X49080021Y-15665989D01*
X49100500Y-15589562D01*
X49100500Y-10335438D01*
X49080021Y-10259011D01*
X49079173Y-10257543D01*
X49040460Y-10190489D01*
X48984511Y-10134539D01*
X48984511Y-10134540D01*
X47859511Y-9009540D01*
X47851096Y-9004682D01*
X47828113Y-8991412D01*
X47828113Y-8991411D01*
X47790990Y-8969979D01*
X47790985Y-8969977D01*
X47714564Y-8949500D01*
X47714562Y-8949500D01*
X47003649Y-8949500D01*
X46954150Y-8936237D01*
X46925990Y-8919979D01*
X46925988Y-8919978D01*
X46849564Y-8899500D01*
X46849562Y-8899500D01*
X46427083Y-8899500D01*
X46368892Y-8880593D01*
X46352264Y-8865331D01*
X46346788Y-8859011D01*
X46311128Y-8817857D01*
X46278182Y-8796684D01*
X46190057Y-8740049D01*
X46190054Y-8740047D01*
X46190053Y-8740047D01*
X46178307Y-8736598D01*
X46051964Y-8699500D01*
X46051961Y-8699500D01*
X45908039Y-8699500D01*
X45908035Y-8699500D01*
X45769949Y-8740046D01*
X45769942Y-8740049D01*
X45648872Y-8817856D01*
X45648870Y-8817858D01*
X45597332Y-8877337D01*
X45544937Y-8908933D01*
X45483976Y-8903697D01*
X45478485Y-8900000D01*
X44999689Y-8900000D01*
X44989988Y-8899524D01*
X44989751Y-8899500D01*
X44989748Y-8899500D01*
X44294000Y-8899500D01*
X44235809Y-8880593D01*
X44199845Y-8831093D01*
X44195000Y-8800500D01*
X44195000Y-8100001D01*
X44495000Y-8100001D01*
X44495000Y-8599999D01*
X44495001Y-8600000D01*
X45469999Y-8600000D01*
X45470000Y-8599999D01*
X45470000Y-8552175D01*
X45463598Y-8492629D01*
X45463596Y-8492618D01*
X45413353Y-8357911D01*
X45413352Y-8357909D01*
X45327192Y-8242815D01*
X45327184Y-8242807D01*
X45212090Y-8156647D01*
X45212088Y-8156646D01*
X45077381Y-8106403D01*
X45077370Y-8106401D01*
X45017824Y-8100000D01*
X44495001Y-8100000D01*
X44495000Y-8100001D01*
X44195000Y-8100001D01*
X44194999Y-8100000D01*
X43672176Y-8100000D01*
X43612629Y-8106401D01*
X43612618Y-8106403D01*
X43477911Y-8156646D01*
X43477909Y-8156647D01*
X43362815Y-8242807D01*
X43362807Y-8242815D01*
X43276647Y-8357909D01*
X43230303Y-8482163D01*
X43192252Y-8530077D01*
X43133305Y-8546475D01*
X43075978Y-8525093D01*
X43067541Y-8517570D01*
X41554496Y-7004525D01*
X41526719Y-6950008D01*
X41525500Y-6934521D01*
X41525500Y-6690253D01*
X41525498Y-6690241D01*
X41516175Y-6643373D01*
X41513867Y-6631769D01*
X41469552Y-6565448D01*
X41462147Y-6560500D01*
X41403233Y-6521134D01*
X41403231Y-6521133D01*
X41403228Y-6521132D01*
X41403227Y-6521132D01*
X41344758Y-6509501D01*
X41344748Y-6509500D01*
X41344747Y-6509500D01*
X41065479Y-6509500D01*
X41007288Y-6490593D01*
X40995475Y-6480504D01*
X40699496Y-6184525D01*
X40671719Y-6130008D01*
X40670500Y-6114521D01*
X40670500Y-6109500D01*
X40680003Y-6080253D01*
X45799500Y-6080253D01*
X45799500Y-7719746D01*
X45799501Y-7719758D01*
X45811132Y-7778227D01*
X45811134Y-7778233D01*
X45844069Y-7827523D01*
X45855448Y-7844552D01*
X45921769Y-7888867D01*
X45966231Y-7897711D01*
X45980241Y-7900498D01*
X45980246Y-7900498D01*
X45980252Y-7900500D01*
X45980253Y-7900500D01*
X48019747Y-7900500D01*
X48019748Y-7900500D01*
X48078231Y-7888867D01*
X48144552Y-7844552D01*
X48188867Y-7778231D01*
X48200500Y-7719748D01*
X48200500Y-6080252D01*
X48200232Y-6078907D01*
X48194265Y-6048907D01*
X48188867Y-6021769D01*
X48144552Y-5955448D01*
X48144548Y-5955445D01*
X48078233Y-5911134D01*
X48078231Y-5911133D01*
X48078228Y-5911132D01*
X48078227Y-5911132D01*
X48019758Y-5899501D01*
X48019748Y-5899500D01*
X45980252Y-5899500D01*
X45980251Y-5899500D01*
X45980241Y-5899501D01*
X45921772Y-5911132D01*
X45921766Y-5911134D01*
X45855451Y-5955445D01*
X45855445Y-5955451D01*
X45811134Y-6021766D01*
X45811132Y-6021772D01*
X45799501Y-6080241D01*
X45799500Y-6080253D01*
X40680003Y-6080253D01*
X40689407Y-6051309D01*
X40738907Y-6015345D01*
X40769500Y-6010500D01*
X41344747Y-6010500D01*
X41344748Y-6010500D01*
X41403231Y-5998867D01*
X41469552Y-5954552D01*
X41513867Y-5888231D01*
X41525500Y-5829748D01*
X41525500Y-5390252D01*
X41513867Y-5331769D01*
X41469552Y-5265448D01*
X41462189Y-5260528D01*
X41403233Y-5221134D01*
X41403231Y-5221133D01*
X41403228Y-5221132D01*
X41403227Y-5221132D01*
X41344758Y-5209501D01*
X41344748Y-5209500D01*
X41344747Y-5209500D01*
X41065479Y-5209500D01*
X41007288Y-5190593D01*
X40995475Y-5180504D01*
X40063165Y-4248194D01*
X39117011Y-3302040D01*
X39096194Y-3290021D01*
X39096192Y-3290020D01*
X39059623Y-3268907D01*
X39048488Y-3262478D01*
X38972064Y-3242000D01*
X38972062Y-3242000D01*
X38089500Y-3242000D01*
X38031309Y-3223093D01*
X37995345Y-3173593D01*
X37990500Y-3143000D01*
X37990500Y-1364751D01*
X37990499Y-1364749D01*
X37970021Y-1288325D01*
X37970019Y-1288321D01*
X37930460Y-1219803D01*
X37874511Y-1163853D01*
X37874511Y-1163854D01*
X37050197Y-339540D01*
X37050194Y-339538D01*
X36981678Y-299980D01*
X36981674Y-299978D01*
X36963565Y-295126D01*
X36912251Y-261802D01*
X36890325Y-204680D01*
X36906161Y-145580D01*
X36953711Y-107075D01*
X36989189Y-100500D01*
X47473071Y-100500D01*
X47497015Y-100500D01*
X47502992Y-100681D01*
X47783256Y-117633D01*
X47795111Y-119073D01*
X47939755Y-145580D01*
X47983638Y-153622D01*
X48037468Y-182709D01*
X48063920Y-237880D01*
X48052891Y-298064D01*
X48008593Y-340270D01*
X47965793Y-350000D01*
X46999997Y-350000D01*
X46299998Y-650000D01*
X45799999Y-1050000D01*
X45600005Y-1349990D01*
X45599998Y-1350002D01*
X45400001Y-1749996D01*
X45300000Y-2050000D01*
X45300000Y-3050002D01*
X45599997Y-3749995D01*
X45600000Y-3750000D01*
X46062107Y-4304529D01*
X46100000Y-4350000D01*
X46900000Y-4750000D01*
X47899998Y-4750000D01*
X47900000Y-4750000D01*
X48500000Y-4650000D01*
X49100000Y-4150000D01*
X49500000Y-3650000D01*
X49700000Y-2950000D01*
X49700000Y-2478186D01*
X49718907Y-2419995D01*
X49768407Y-2384031D01*
X49829593Y-2384031D01*
X49879093Y-2419995D01*
X49897818Y-2472208D01*
X49899170Y-2494552D01*
X49899319Y-2497007D01*
X49899500Y-2502984D01*
X49899500Y-22497015D01*
X49899319Y-22502993D01*
X49882366Y-22783251D01*
X49880925Y-22795118D01*
X49830854Y-23068346D01*
X49827993Y-23079954D01*
X49745353Y-23345154D01*
X49741114Y-23356332D01*
X49627107Y-23609646D01*
X49621551Y-23620231D01*
X49477849Y-23857944D01*
X49471058Y-23867783D01*
X49299749Y-24086443D01*
X49291822Y-24095392D01*
X49095392Y-24291822D01*
X49086443Y-24299749D01*
X48867783Y-24471058D01*
X48857944Y-24477849D01*
X48620231Y-24621551D01*
X48609646Y-24627107D01*
X48356332Y-24741114D01*
X48345154Y-24745353D01*
X48079954Y-24827993D01*
X48068346Y-24830854D01*
X47795118Y-24880925D01*
X47783251Y-24882366D01*
X47527790Y-24897819D01*
X47502991Y-24899319D01*
X47497015Y-24899500D01*
X2502985Y-24899500D01*
X2497008Y-24899319D01*
X2472210Y-24897819D01*
X2415267Y-24875433D01*
X2382357Y-24823852D01*
X2386051Y-24762778D01*
X2424938Y-24715540D01*
X2478187Y-24700000D01*
X2899998Y-24700000D01*
X2900000Y-24700000D01*
X3500000Y-24600000D01*
X4100000Y-24100000D01*
X4500000Y-23600000D01*
X4700000Y-22900000D01*
X4700000Y-21900000D01*
X4500000Y-21400000D01*
X4100000Y-20900000D01*
X4094413Y-20895530D01*
X3835888Y-20688710D01*
X3812503Y-20670002D01*
X3600000Y-20500000D01*
X3500484Y-20466828D01*
X3000000Y-20300000D01*
X2000000Y-20300000D01*
X1999997Y-20300000D01*
X1299998Y-20600000D01*
X799999Y-21000000D01*
X600005Y-21299990D01*
X600000Y-21300000D01*
X400001Y-21699996D01*
X300000Y-22000000D01*
X300000Y-22521813D01*
X281093Y-22580004D01*
X231593Y-22615968D01*
X170407Y-22615968D01*
X120907Y-22580004D01*
X102181Y-22527790D01*
X100681Y-22502992D01*
X100500Y-22497015D01*
X100500Y-17280253D01*
X1799500Y-17280253D01*
X1799500Y-18919743D01*
X1799501Y-18919758D01*
X1811132Y-18978227D01*
X1811134Y-18978233D01*
X1842736Y-19025528D01*
X1855448Y-19044552D01*
X1921769Y-19088867D01*
X1966231Y-19097711D01*
X1980241Y-19100498D01*
X1980246Y-19100498D01*
X1980252Y-19100500D01*
X1980253Y-19100500D01*
X4019747Y-19100500D01*
X4019748Y-19100500D01*
X4078231Y-19088867D01*
X4144552Y-19044552D01*
X4188867Y-18978231D01*
X4200500Y-18919748D01*
X4200500Y-17280252D01*
X4200079Y-17278138D01*
X4194492Y-17250047D01*
X4188867Y-17221769D01*
X4144552Y-17155448D01*
X4144548Y-17155445D01*
X4078233Y-17111134D01*
X4078231Y-17111133D01*
X4078228Y-17111132D01*
X4078227Y-17111132D01*
X4019758Y-17099501D01*
X4019748Y-17099500D01*
X1980252Y-17099500D01*
X1980251Y-17099500D01*
X1980241Y-17099501D01*
X1921772Y-17111132D01*
X1921766Y-17111134D01*
X1855451Y-17155445D01*
X1855445Y-17155451D01*
X1811134Y-17221766D01*
X1811132Y-17221772D01*
X1799501Y-17280241D01*
X1799500Y-17280253D01*
X100500Y-17280253D01*
X100500Y-8552175D01*
X4530000Y-8552175D01*
X4530000Y-8599999D01*
X4530001Y-8600000D01*
X5504999Y-8600000D01*
X5505000Y-8599999D01*
X5505000Y-8100001D01*
X5504999Y-8100000D01*
X4982176Y-8100000D01*
X4922629Y-8106401D01*
X4922618Y-8106403D01*
X4787911Y-8156646D01*
X4787909Y-8156647D01*
X4672815Y-8242807D01*
X4672807Y-8242815D01*
X4586647Y-8357909D01*
X4586646Y-8357911D01*
X4536403Y-8492618D01*
X4536401Y-8492629D01*
X4530000Y-8552175D01*
X100500Y-8552175D01*
X100500Y-6080253D01*
X1799500Y-6080253D01*
X1799500Y-7719746D01*
X1799501Y-7719758D01*
X1811132Y-7778227D01*
X1811134Y-7778233D01*
X1844069Y-7827523D01*
X1855448Y-7844552D01*
X1921769Y-7888867D01*
X1966231Y-7897711D01*
X1980241Y-7900498D01*
X1980246Y-7900498D01*
X1980252Y-7900500D01*
X1980253Y-7900500D01*
X4019747Y-7900500D01*
X4019748Y-7900500D01*
X4078231Y-7888867D01*
X4144552Y-7844552D01*
X4188867Y-7778231D01*
X4200500Y-7719748D01*
X4200500Y-6080252D01*
X4200232Y-6078907D01*
X4194265Y-6048907D01*
X4188867Y-6021769D01*
X4144552Y-5955448D01*
X4144548Y-5955445D01*
X4078233Y-5911134D01*
X4078231Y-5911133D01*
X4078228Y-5911132D01*
X4078227Y-5911132D01*
X4019758Y-5899501D01*
X4019748Y-5899500D01*
X1980252Y-5899500D01*
X1980251Y-5899500D01*
X1980241Y-5899501D01*
X1921772Y-5911132D01*
X1921766Y-5911134D01*
X1855451Y-5955445D01*
X1855445Y-5955451D01*
X1811134Y-6021766D01*
X1811132Y-6021772D01*
X1799501Y-6080241D01*
X1799500Y-6080253D01*
X100500Y-6080253D01*
X100500Y-2502984D01*
X100681Y-2497007D01*
X100689Y-2496877D01*
X117633Y-2216741D01*
X119072Y-2204890D01*
X169146Y-1931646D01*
X172004Y-1920052D01*
X254650Y-1654832D01*
X258880Y-1643679D01*
X372895Y-1390346D01*
X378444Y-1379775D01*
X522159Y-1142040D01*
X528930Y-1132230D01*
X700257Y-913547D01*
X708169Y-904615D01*
X904615Y-708169D01*
X913547Y-700257D01*
X1132230Y-528930D01*
X1142040Y-522159D01*
X1379775Y-378444D01*
X1390346Y-372895D01*
X1643679Y-258880D01*
X1654832Y-254650D01*
X1920052Y-172004D01*
X1931646Y-169146D01*
X2204890Y-119072D01*
X2216741Y-117633D01*
X2497008Y-100681D01*
X2502985Y-100500D01*
X2526929Y-100500D01*
X30916497Y-100500D01*
X30974688Y-119407D01*
G37*
%TD.AperFunction*%
%TA.AperFunction,Conductor*%
G36*
X17124504Y-14410161D02*
G01*
X23944839Y-21230496D01*
X23972616Y-21285013D01*
X23963045Y-21345445D01*
X23919780Y-21388710D01*
X23874835Y-21399500D01*
X23095479Y-21399500D01*
X23037288Y-21380593D01*
X23025475Y-21370504D01*
X22719914Y-21064943D01*
X22692137Y-21010426D01*
X22701708Y-20949994D01*
X22704859Y-20944506D01*
X22705375Y-20943374D01*
X22705377Y-20943373D01*
X22765165Y-20812457D01*
X22785647Y-20670000D01*
X22781808Y-20643300D01*
X22765165Y-20527543D01*
X22705377Y-20396627D01*
X22611128Y-20287857D01*
X22611127Y-20287856D01*
X22611126Y-20287855D01*
X22490057Y-20210049D01*
X22490054Y-20210047D01*
X22490053Y-20210047D01*
X22490050Y-20210046D01*
X22351964Y-20169500D01*
X22351961Y-20169500D01*
X22208039Y-20169500D01*
X22208035Y-20169500D01*
X22069949Y-20210046D01*
X22069942Y-20210049D01*
X21948873Y-20287855D01*
X21854622Y-20396628D01*
X21794834Y-20527543D01*
X21774353Y-20669997D01*
X21774353Y-20670002D01*
X21794834Y-20812456D01*
X21834358Y-20899000D01*
X21854623Y-20943373D01*
X21948872Y-21052143D01*
X21948876Y-21052145D01*
X21952767Y-21055518D01*
X21983558Y-21104709D01*
X21994452Y-21145364D01*
X21999979Y-21165989D01*
X22028557Y-21215487D01*
X22028558Y-21215491D01*
X22028559Y-21215491D01*
X22039537Y-21234507D01*
X22039538Y-21234508D01*
X22039540Y-21234511D01*
X22475505Y-21670476D01*
X22503281Y-21724991D01*
X22504500Y-21740478D01*
X22504500Y-21850500D01*
X22485593Y-21908691D01*
X22436093Y-21944655D01*
X22405500Y-21949500D01*
X16594500Y-21949500D01*
X16536309Y-21930593D01*
X16500345Y-21881093D01*
X16495500Y-21850500D01*
X16495500Y-21580253D01*
X16495498Y-21580241D01*
X16491608Y-21560684D01*
X16483867Y-21521769D01*
X16439552Y-21455448D01*
X16439548Y-21455445D01*
X16373233Y-21411134D01*
X16373231Y-21411133D01*
X16373228Y-21411132D01*
X16373227Y-21411132D01*
X16314758Y-21399501D01*
X16314748Y-21399500D01*
X16314747Y-21399500D01*
X15135479Y-21399500D01*
X15077288Y-21380593D01*
X15065475Y-21370504D01*
X14774496Y-21079525D01*
X14746719Y-21025008D01*
X14745500Y-21009521D01*
X14745500Y-18699500D01*
X14764407Y-18641309D01*
X14813907Y-18605345D01*
X14844500Y-18600500D01*
X16314747Y-18600500D01*
X16314748Y-18600500D01*
X16373231Y-18588867D01*
X16439552Y-18544552D01*
X16483867Y-18478231D01*
X16495500Y-18419748D01*
X16495500Y-18149500D01*
X16514407Y-18091309D01*
X16563907Y-18055345D01*
X16594500Y-18050500D01*
X18977576Y-18050500D01*
X19035767Y-18069407D01*
X19052395Y-18084668D01*
X19058873Y-18092144D01*
X19148121Y-18149500D01*
X19179947Y-18169953D01*
X19260864Y-18193712D01*
X19318035Y-18210499D01*
X19318036Y-18210499D01*
X19318039Y-18210500D01*
X19318041Y-18210500D01*
X19461959Y-18210500D01*
X19461961Y-18210500D01*
X19600053Y-18169953D01*
X19721128Y-18092143D01*
X19815377Y-17983373D01*
X19875165Y-17852457D01*
X19895647Y-17710000D01*
X19895245Y-17707205D01*
X19875165Y-17567543D01*
X19821256Y-17449500D01*
X19815377Y-17436627D01*
X19721128Y-17327857D01*
X19721127Y-17327856D01*
X19721126Y-17327855D01*
X19600057Y-17250049D01*
X19600054Y-17250047D01*
X19600053Y-17250047D01*
X19600050Y-17250046D01*
X19461964Y-17209500D01*
X19461961Y-17209500D01*
X19318039Y-17209500D01*
X19318035Y-17209500D01*
X19179949Y-17250046D01*
X19179942Y-17250049D01*
X19058873Y-17327855D01*
X19039252Y-17350500D01*
X18983074Y-17415332D01*
X18930681Y-17446927D01*
X18908257Y-17449500D01*
X16594500Y-17449500D01*
X16536309Y-17430593D01*
X16500345Y-17381093D01*
X16495500Y-17350500D01*
X16495500Y-17080253D01*
X16495498Y-17080241D01*
X16492711Y-17066231D01*
X16483867Y-17021769D01*
X16439552Y-16955448D01*
X16439548Y-16955445D01*
X16373233Y-16911134D01*
X16373231Y-16911133D01*
X16373228Y-16911132D01*
X16373227Y-16911132D01*
X16314758Y-16899501D01*
X16314748Y-16899500D01*
X16314747Y-16899500D01*
X14844500Y-16899500D01*
X14786309Y-16880593D01*
X14750345Y-16831093D01*
X14745500Y-16800500D01*
X14745500Y-16099500D01*
X14764407Y-16041309D01*
X14813907Y-16005345D01*
X14844500Y-16000500D01*
X15069563Y-16000500D01*
X15069563Y-16000499D01*
X15145989Y-15980021D01*
X15214511Y-15940460D01*
X15270460Y-15884511D01*
X15525475Y-15629496D01*
X15579992Y-15601719D01*
X15595479Y-15600500D01*
X16774747Y-15600500D01*
X16774748Y-15600500D01*
X16833231Y-15588867D01*
X16899552Y-15544552D01*
X16943867Y-15478231D01*
X16955500Y-15419748D01*
X16955500Y-14480165D01*
X16974407Y-14421974D01*
X17023907Y-14386010D01*
X17085093Y-14386010D01*
X17124504Y-14410161D01*
G37*
%TD.AperFunction*%
%TA.AperFunction,Conductor*%
G36*
X29963691Y-10569407D02*
G01*
X29999655Y-10618907D01*
X30004500Y-10649500D01*
X30004500Y-10919746D01*
X30004501Y-10919758D01*
X30016132Y-10978227D01*
X30016134Y-10978233D01*
X30054032Y-11034950D01*
X30060448Y-11044552D01*
X30126769Y-11088867D01*
X30171231Y-11097711D01*
X30185241Y-11100498D01*
X30185246Y-11100498D01*
X30185252Y-11100500D01*
X30580500Y-11100500D01*
X30638691Y-11119407D01*
X30674655Y-11168907D01*
X30679500Y-11199500D01*
X30679500Y-12559521D01*
X30660593Y-12617712D01*
X30650504Y-12629525D01*
X29490489Y-13789540D01*
X29490488Y-13789539D01*
X29434539Y-13845489D01*
X29394980Y-13914007D01*
X29394978Y-13914011D01*
X29374500Y-13990435D01*
X29374500Y-16925500D01*
X29355593Y-16983691D01*
X29306093Y-17019655D01*
X29275500Y-17024500D01*
X28992640Y-17024500D01*
X28992635Y-17024501D01*
X28967509Y-17027414D01*
X28864735Y-17072794D01*
X28785294Y-17152235D01*
X28739914Y-17255011D01*
X28737000Y-17280130D01*
X28737000Y-17569859D01*
X28737001Y-17569864D01*
X28739914Y-17594990D01*
X28757807Y-17635512D01*
X28764015Y-17696381D01*
X28733259Y-17749275D01*
X28677287Y-17773989D01*
X28667242Y-17774500D01*
X28254500Y-17774500D01*
X28196309Y-17755593D01*
X28160345Y-17706093D01*
X28155500Y-17675500D01*
X28155500Y-17619475D01*
X28151933Y-17594990D01*
X28145645Y-17551830D01*
X28094636Y-17447489D01*
X28012511Y-17365364D01*
X27908170Y-17314355D01*
X27908171Y-17314355D01*
X27891259Y-17311891D01*
X27840528Y-17304500D01*
X27479472Y-17304500D01*
X27438886Y-17310413D01*
X27411828Y-17314355D01*
X27321325Y-17358600D01*
X27307489Y-17365364D01*
X27245001Y-17427851D01*
X27190487Y-17455627D01*
X27130055Y-17446056D01*
X27104999Y-17427852D01*
X27042511Y-17365364D01*
X27042509Y-17365363D01*
X27042508Y-17365362D01*
X27035832Y-17360595D01*
X27037256Y-17358600D01*
X27002046Y-17324536D01*
X26990500Y-17278138D01*
X26990500Y-14440478D01*
X27009407Y-14382287D01*
X27019490Y-14370480D01*
X29085474Y-12304495D01*
X29139991Y-12276719D01*
X29155478Y-12275500D01*
X29261959Y-12275500D01*
X29261961Y-12275500D01*
X29400053Y-12234953D01*
X29521128Y-12157143D01*
X29615377Y-12048373D01*
X29675165Y-11917457D01*
X29691040Y-11807041D01*
X29695647Y-11775002D01*
X29695647Y-11774997D01*
X29675165Y-11632543D01*
X29648980Y-11575207D01*
X29615377Y-11501627D01*
X29521128Y-11392857D01*
X29521127Y-11392856D01*
X29521126Y-11392855D01*
X29400057Y-11315049D01*
X29400054Y-11315047D01*
X29400053Y-11315047D01*
X29400050Y-11315046D01*
X29261964Y-11274500D01*
X29261961Y-11274500D01*
X29118039Y-11274500D01*
X29118035Y-11274500D01*
X28979949Y-11315046D01*
X28979942Y-11315049D01*
X28858873Y-11392855D01*
X28764622Y-11501628D01*
X28704834Y-11632543D01*
X28684353Y-11774997D01*
X28684353Y-11775003D01*
X28687441Y-11796482D01*
X28677007Y-11856771D01*
X28659453Y-11880574D01*
X26564504Y-13975524D01*
X26509987Y-14003301D01*
X26449555Y-13993730D01*
X26406290Y-13950465D01*
X26395500Y-13905520D01*
X26395500Y-13307380D01*
X26414407Y-13249189D01*
X26463907Y-13213225D01*
X26466588Y-13212396D01*
X26560053Y-13184953D01*
X26681128Y-13107143D01*
X26775377Y-12998373D01*
X26835165Y-12867457D01*
X26851849Y-12751415D01*
X26855647Y-12725002D01*
X26855647Y-12724997D01*
X26835165Y-12582543D01*
X26800834Y-12507370D01*
X26775377Y-12451627D01*
X26681128Y-12342857D01*
X26681127Y-12342856D01*
X26681126Y-12342855D01*
X26560057Y-12265049D01*
X26560054Y-12265047D01*
X26560053Y-12265047D01*
X26560050Y-12265046D01*
X26421964Y-12224500D01*
X26421961Y-12224500D01*
X26278039Y-12224500D01*
X26278035Y-12224500D01*
X26139949Y-12265046D01*
X26139942Y-12265049D01*
X26018873Y-12342855D01*
X25924622Y-12451628D01*
X25864834Y-12582543D01*
X25844353Y-12724997D01*
X25844353Y-12725004D01*
X25849621Y-12761646D01*
X25839187Y-12821935D01*
X25837367Y-12825232D01*
X25814978Y-12864011D01*
X25814977Y-12864014D01*
X25794500Y-12940435D01*
X25794500Y-13174339D01*
X25775593Y-13232530D01*
X25726093Y-13268494D01*
X25667609Y-13269329D01*
X25531964Y-13229500D01*
X25531961Y-13229500D01*
X25388039Y-13229500D01*
X25388035Y-13229500D01*
X25249949Y-13270046D01*
X25249942Y-13270049D01*
X25128873Y-13347855D01*
X25034622Y-13456628D01*
X24974834Y-13587543D01*
X24954353Y-13729997D01*
X24954353Y-13730002D01*
X24974834Y-13872456D01*
X25021905Y-13975524D01*
X25034623Y-14003373D01*
X25125605Y-14108373D01*
X25133509Y-14117494D01*
X25131471Y-14119259D01*
X25156925Y-14161458D01*
X25159500Y-14183893D01*
X25159500Y-18765521D01*
X25140593Y-18823712D01*
X25091093Y-18859676D01*
X25029907Y-18859676D01*
X24990496Y-18835525D01*
X24484496Y-18329525D01*
X24456719Y-18275008D01*
X24455500Y-18259521D01*
X24455500Y-17080253D01*
X24455498Y-17080241D01*
X24452711Y-17066231D01*
X24443867Y-17021769D01*
X24399552Y-16955448D01*
X24399548Y-16955445D01*
X24333233Y-16911134D01*
X24333231Y-16911133D01*
X24333228Y-16911132D01*
X24333227Y-16911132D01*
X24274758Y-16899501D01*
X24274748Y-16899500D01*
X24274747Y-16899500D01*
X23095479Y-16899500D01*
X23037288Y-16880593D01*
X23025475Y-16870504D01*
X22934475Y-16779504D01*
X22906698Y-16724987D01*
X22916269Y-16664555D01*
X22959534Y-16621290D01*
X23004479Y-16610500D01*
X23151959Y-16610500D01*
X23151961Y-16610500D01*
X23290053Y-16569953D01*
X23411128Y-16492143D01*
X23505377Y-16383373D01*
X23565165Y-16252457D01*
X23575500Y-16180575D01*
X23585647Y-16110002D01*
X23585647Y-16109997D01*
X23565165Y-15967543D01*
X23545473Y-15924424D01*
X23505377Y-15836627D01*
X23479382Y-15806627D01*
X23442733Y-15764331D01*
X23418915Y-15707972D01*
X23432774Y-15648376D01*
X23479015Y-15608309D01*
X23517552Y-15600500D01*
X23814747Y-15600500D01*
X23814748Y-15600500D01*
X23873231Y-15588867D01*
X23939552Y-15544552D01*
X23983867Y-15478231D01*
X23995500Y-15419748D01*
X23995500Y-14080252D01*
X23983867Y-14021769D01*
X23939552Y-13955448D01*
X23932095Y-13950465D01*
X23873233Y-13911134D01*
X23873231Y-13911133D01*
X23873228Y-13911132D01*
X23873227Y-13911132D01*
X23814758Y-13899501D01*
X23814748Y-13899500D01*
X22225252Y-13899500D01*
X22225251Y-13899500D01*
X22225236Y-13899501D01*
X22223801Y-13899787D01*
X22223137Y-13899708D01*
X22220408Y-13899977D01*
X22220349Y-13899378D01*
X22163041Y-13892588D01*
X22118117Y-13851049D01*
X22105500Y-13802687D01*
X22105500Y-11197312D01*
X22124407Y-11139121D01*
X22173907Y-11103157D01*
X22220369Y-11100418D01*
X22220408Y-11100023D01*
X22222904Y-11100268D01*
X22223816Y-11100215D01*
X22225244Y-11100499D01*
X22225250Y-11100499D01*
X22225252Y-11100500D01*
X22225253Y-11100500D01*
X23814747Y-11100500D01*
X23814748Y-11100500D01*
X23873231Y-11088867D01*
X23939552Y-11044552D01*
X23983867Y-10978231D01*
X23995500Y-10919748D01*
X23995500Y-10649500D01*
X24014407Y-10591309D01*
X24063907Y-10555345D01*
X24094500Y-10550500D01*
X27590438Y-10550500D01*
X29905500Y-10550500D01*
X29963691Y-10569407D01*
G37*
%TD.AperFunction*%
%TA.AperFunction,Conductor*%
G36*
X40963691Y-10569407D02*
G01*
X40999655Y-10618907D01*
X41004500Y-10649500D01*
X41004500Y-10919746D01*
X41004501Y-10919758D01*
X41016132Y-10978227D01*
X41016134Y-10978233D01*
X41054032Y-11034950D01*
X41060448Y-11044552D01*
X41126769Y-11088867D01*
X41171231Y-11097711D01*
X41185241Y-11100498D01*
X41185246Y-11100498D01*
X41185252Y-11100500D01*
X42365521Y-11100500D01*
X42423712Y-11119407D01*
X42459676Y-11168907D01*
X42459676Y-11230093D01*
X42435525Y-11269504D01*
X38045489Y-15659540D01*
X38045488Y-15659539D01*
X37989539Y-15715489D01*
X37949980Y-15784007D01*
X37949978Y-15784011D01*
X37929500Y-15860435D01*
X37929500Y-18273138D01*
X37910593Y-18331329D01*
X37883242Y-18354299D01*
X37884168Y-18355595D01*
X37877492Y-18360362D01*
X37877490Y-18360363D01*
X37877489Y-18360364D01*
X37815001Y-18422851D01*
X37760487Y-18450627D01*
X37700055Y-18441056D01*
X37674999Y-18422852D01*
X37612511Y-18360364D01*
X37508170Y-18309355D01*
X37508171Y-18309355D01*
X37491259Y-18306891D01*
X37440528Y-18299500D01*
X37079472Y-18299500D01*
X37038886Y-18305413D01*
X37011828Y-18309355D01*
X36907488Y-18360364D01*
X36872348Y-18395504D01*
X36817831Y-18423281D01*
X36802345Y-18424500D01*
X36407758Y-18424500D01*
X36349567Y-18405593D01*
X36313603Y-18356093D01*
X36313603Y-18294907D01*
X36317193Y-18285513D01*
X36328669Y-18259521D01*
X36335085Y-18244991D01*
X36338000Y-18219865D01*
X36337999Y-17930136D01*
X36335085Y-17905009D01*
X36289706Y-17802235D01*
X36289705Y-17802234D01*
X36286000Y-17793843D01*
X36288375Y-17792794D01*
X36274962Y-17747261D01*
X36288026Y-17707051D01*
X36286000Y-17706157D01*
X36289704Y-17697766D01*
X36289706Y-17697765D01*
X36335085Y-17594991D01*
X36338000Y-17569865D01*
X36337999Y-17280136D01*
X36335085Y-17255009D01*
X36289706Y-17152235D01*
X36263722Y-17126251D01*
X36235947Y-17071737D01*
X36245518Y-17011305D01*
X36263724Y-16986246D01*
X36645474Y-16604496D01*
X37110460Y-16139511D01*
X37121920Y-16119661D01*
X37150021Y-16070989D01*
X37170500Y-15994562D01*
X37170500Y-12160438D01*
X37170500Y-10649500D01*
X37189407Y-10591309D01*
X37238907Y-10555345D01*
X37269500Y-10550500D01*
X40905500Y-10550500D01*
X40963691Y-10569407D01*
G37*
%TD.AperFunction*%
%TA.AperFunction,Conductor*%
G36*
X30645935Y-7485778D02*
G01*
X30689200Y-7529043D01*
X30698771Y-7589475D01*
X30696619Y-7599601D01*
X30679500Y-7663490D01*
X30679500Y-7663492D01*
X30679500Y-9300500D01*
X30660593Y-9358691D01*
X30611093Y-9394655D01*
X30580500Y-9399500D01*
X30185252Y-9399500D01*
X30185251Y-9399500D01*
X30185241Y-9399501D01*
X30126772Y-9411132D01*
X30126766Y-9411134D01*
X30060451Y-9455445D01*
X30060445Y-9455451D01*
X30016134Y-9521766D01*
X30016132Y-9521772D01*
X30004501Y-9580241D01*
X30004500Y-9580253D01*
X30004500Y-9850500D01*
X29985593Y-9908691D01*
X29936093Y-9944655D01*
X29905500Y-9949500D01*
X24094500Y-9949500D01*
X24036309Y-9930593D01*
X24000345Y-9881093D01*
X23995500Y-9850500D01*
X23995500Y-9580253D01*
X23995498Y-9580241D01*
X23992182Y-9563569D01*
X23983867Y-9521769D01*
X23939552Y-9455448D01*
X23934500Y-9452072D01*
X23873233Y-9411134D01*
X23873231Y-9411133D01*
X23873228Y-9411132D01*
X23873227Y-9411132D01*
X23814758Y-9399501D01*
X23814748Y-9399500D01*
X22225252Y-9399500D01*
X22225251Y-9399500D01*
X22225236Y-9399501D01*
X22223801Y-9399787D01*
X22223137Y-9399708D01*
X22220408Y-9399977D01*
X22220349Y-9399378D01*
X22163041Y-9392588D01*
X22118117Y-9351049D01*
X22105500Y-9302687D01*
X22105500Y-9269500D01*
X22124407Y-9211309D01*
X22173907Y-9175345D01*
X22204500Y-9170500D01*
X26319563Y-9170500D01*
X26319563Y-9170499D01*
X26395989Y-9150021D01*
X26464511Y-9110460D01*
X26520460Y-9054511D01*
X27325475Y-8249496D01*
X27379992Y-8221719D01*
X27395479Y-8220500D01*
X29729563Y-8220500D01*
X29729563Y-8220499D01*
X29805989Y-8200021D01*
X29874511Y-8160460D01*
X29930460Y-8104511D01*
X30530988Y-7503982D01*
X30585503Y-7476207D01*
X30645935Y-7485778D01*
G37*
%TD.AperFunction*%
%TA.AperFunction,Conductor*%
G36*
X39794504Y-5604475D02*
G01*
X40040504Y-5850475D01*
X40068281Y-5904992D01*
X40069500Y-5920479D01*
X40069500Y-6319564D01*
X40089978Y-6395988D01*
X40093700Y-6402434D01*
X40128759Y-6463158D01*
X40128764Y-6463176D01*
X40128768Y-6463174D01*
X40129537Y-6464507D01*
X40129538Y-6464508D01*
X40129540Y-6464511D01*
X40445505Y-6780476D01*
X40473281Y-6834991D01*
X40474500Y-6850478D01*
X40474500Y-7129746D01*
X40474501Y-7129758D01*
X40486132Y-7188227D01*
X40486134Y-7188233D01*
X40524169Y-7245155D01*
X40530448Y-7254552D01*
X40596769Y-7298867D01*
X40641231Y-7307711D01*
X40655241Y-7310498D01*
X40655246Y-7310498D01*
X40655252Y-7310500D01*
X40969521Y-7310500D01*
X41027712Y-7329407D01*
X41039525Y-7339496D01*
X42725504Y-9025475D01*
X42753281Y-9079992D01*
X42754500Y-9095479D01*
X42754500Y-9300500D01*
X42735593Y-9358691D01*
X42686093Y-9394655D01*
X42655500Y-9399500D01*
X41185252Y-9399500D01*
X41185251Y-9399500D01*
X41185241Y-9399501D01*
X41126772Y-9411132D01*
X41126766Y-9411134D01*
X41060451Y-9455445D01*
X41060445Y-9455451D01*
X41016134Y-9521766D01*
X41016132Y-9521772D01*
X41004501Y-9580241D01*
X41004500Y-9580253D01*
X41004500Y-9850500D01*
X40985593Y-9908691D01*
X40936093Y-9944655D01*
X40905500Y-9949500D01*
X37339500Y-9949500D01*
X37281309Y-9930593D01*
X37245345Y-9881093D01*
X37240500Y-9850500D01*
X37240500Y-7864436D01*
X37259407Y-7806245D01*
X37308907Y-7770281D01*
X37367121Y-7769367D01*
X37445399Y-7792109D01*
X37445404Y-7792110D01*
X37470000Y-7794045D01*
X37470000Y-7250001D01*
X37970000Y-7250001D01*
X37970000Y-7794045D01*
X37994587Y-7792112D01*
X37994600Y-7792109D01*
X38151699Y-7746467D01*
X38151700Y-7746467D01*
X38292508Y-7663193D01*
X38292510Y-7663192D01*
X38397585Y-7558117D01*
X38452102Y-7530339D01*
X38512534Y-7539910D01*
X38526916Y-7548865D01*
X38532913Y-7553354D01*
X38667618Y-7603596D01*
X38667629Y-7603598D01*
X38727176Y-7610000D01*
X38899999Y-7610000D01*
X38900000Y-7609999D01*
X38900000Y-7110001D01*
X39300000Y-7110001D01*
X39300000Y-7609999D01*
X39300001Y-7610000D01*
X39472824Y-7610000D01*
X39532370Y-7603598D01*
X39532381Y-7603596D01*
X39667088Y-7553353D01*
X39667090Y-7553352D01*
X39782184Y-7467192D01*
X39782192Y-7467184D01*
X39868352Y-7352090D01*
X39868353Y-7352088D01*
X39918596Y-7217381D01*
X39918598Y-7217370D01*
X39925000Y-7157824D01*
X39925000Y-7110001D01*
X39924999Y-7110000D01*
X39300001Y-7110000D01*
X39300000Y-7110001D01*
X38900000Y-7110001D01*
X38899999Y-7110000D01*
X38583001Y-7110000D01*
X38583000Y-7110001D01*
X38583000Y-7151000D01*
X38564093Y-7209191D01*
X38514593Y-7245155D01*
X38484000Y-7250000D01*
X37970001Y-7250000D01*
X37970000Y-7250001D01*
X37470000Y-7250001D01*
X37470000Y-6849000D01*
X37488907Y-6790809D01*
X37538407Y-6754845D01*
X37569000Y-6750000D01*
X38231999Y-6750000D01*
X38243003Y-6738996D01*
X38297520Y-6711219D01*
X38313007Y-6710000D01*
X39924999Y-6710000D01*
X39925000Y-6709999D01*
X39925000Y-6662175D01*
X39918598Y-6602629D01*
X39918596Y-6602618D01*
X39868353Y-6467911D01*
X39868352Y-6467909D01*
X39782192Y-6352815D01*
X39782184Y-6352807D01*
X39665171Y-6265210D01*
X39629918Y-6215201D01*
X39625500Y-6185957D01*
X39625500Y-6040253D01*
X39625500Y-6040252D01*
X39613867Y-5981769D01*
X39613864Y-5981765D01*
X39610187Y-5972887D01*
X39605386Y-5911890D01*
X39610187Y-5897113D01*
X39613863Y-5888236D01*
X39613867Y-5888231D01*
X39625500Y-5829748D01*
X39625500Y-5674479D01*
X39644407Y-5616288D01*
X39693907Y-5580324D01*
X39755093Y-5580324D01*
X39794504Y-5604475D01*
G37*
%TD.AperFunction*%
%TA.AperFunction,Conductor*%
G36*
X26409191Y-6953907D02*
G01*
X26445155Y-7003407D01*
X26450000Y-7034000D01*
X26450000Y-7979045D01*
X26474587Y-7977112D01*
X26474594Y-7977111D01*
X26489570Y-7972760D01*
X26550725Y-7974681D01*
X26599072Y-8012181D01*
X26616143Y-8070937D01*
X26595418Y-8128505D01*
X26587196Y-8137833D01*
X26184525Y-8540504D01*
X26130008Y-8568281D01*
X26114521Y-8569500D01*
X25644479Y-8569500D01*
X25586288Y-8550593D01*
X25550324Y-8501093D01*
X25550324Y-8439907D01*
X25574475Y-8400497D01*
X25704925Y-8270046D01*
X25750460Y-8224511D01*
X25764900Y-8199500D01*
X25770398Y-8189978D01*
X25784366Y-8165783D01*
X25790021Y-8155989D01*
X25810500Y-8079562D01*
X25810500Y-8074843D01*
X25829407Y-8016652D01*
X25878907Y-7980688D01*
X25920264Y-7977926D01*
X25920360Y-7976714D01*
X25950000Y-7979045D01*
X25950000Y-7034000D01*
X25968907Y-6975809D01*
X26018407Y-6939845D01*
X26049000Y-6935000D01*
X26351000Y-6935000D01*
X26409191Y-6953907D01*
G37*
%TD.AperFunction*%
%TA.AperFunction,Conductor*%
G36*
X27729191Y-3268907D02*
G01*
X27765155Y-3318407D01*
X27770000Y-3349000D01*
X27770000Y-4149999D01*
X27770001Y-4150000D01*
X27942824Y-4150000D01*
X28002370Y-4143598D01*
X28002381Y-4143596D01*
X28137088Y-4093353D01*
X28137090Y-4093352D01*
X28252184Y-4007192D01*
X28252192Y-4007184D01*
X28338352Y-3892090D01*
X28338353Y-3892088D01*
X28352742Y-3853511D01*
X28390792Y-3805596D01*
X28449739Y-3789198D01*
X28507067Y-3810579D01*
X28540878Y-3861574D01*
X28544500Y-3888107D01*
X28544500Y-5074564D01*
X28564978Y-5150988D01*
X28564980Y-5150992D01*
X28600240Y-5212063D01*
X28604540Y-5219511D01*
X28865505Y-5480476D01*
X28893281Y-5534991D01*
X28894500Y-5550478D01*
X28894500Y-5829746D01*
X28894501Y-5829758D01*
X28906132Y-5888227D01*
X28906134Y-5888233D01*
X28948588Y-5951769D01*
X28950448Y-5954552D01*
X29016769Y-5998867D01*
X29061231Y-6007711D01*
X29075241Y-6010498D01*
X29075246Y-6010498D01*
X29075252Y-6010500D01*
X29645500Y-6010500D01*
X29703691Y-6029407D01*
X29739655Y-6078907D01*
X29744500Y-6109500D01*
X29744500Y-6119521D01*
X29725593Y-6177712D01*
X29715504Y-6189525D01*
X29424525Y-6480504D01*
X29370008Y-6508281D01*
X29354521Y-6509500D01*
X29075252Y-6509500D01*
X29075251Y-6509500D01*
X29075241Y-6509501D01*
X29016772Y-6521132D01*
X29016766Y-6521134D01*
X28950451Y-6565445D01*
X28950445Y-6565451D01*
X28906134Y-6631766D01*
X28906132Y-6631772D01*
X28894501Y-6690241D01*
X28894500Y-6690253D01*
X28894500Y-7129746D01*
X28894501Y-7129758D01*
X28906132Y-7188227D01*
X28906134Y-7188233D01*
X28944169Y-7245155D01*
X28950448Y-7254552D01*
X29016769Y-7298867D01*
X29061231Y-7307711D01*
X29075241Y-7310498D01*
X29075246Y-7310498D01*
X29075252Y-7310500D01*
X29075253Y-7310500D01*
X29635521Y-7310500D01*
X29693712Y-7329407D01*
X29729676Y-7378907D01*
X29729676Y-7440093D01*
X29705525Y-7479504D01*
X29594525Y-7590504D01*
X29540008Y-7618281D01*
X29524521Y-7619500D01*
X28285947Y-7619500D01*
X28227756Y-7600593D01*
X28191792Y-7551093D01*
X28191792Y-7489907D01*
X28206694Y-7461171D01*
X28288352Y-7352090D01*
X28288353Y-7352088D01*
X28338596Y-7217381D01*
X28338598Y-7217370D01*
X28345000Y-7157824D01*
X28345000Y-7110001D01*
X28344999Y-7110000D01*
X27419000Y-7110000D01*
X27360809Y-7091093D01*
X27324845Y-7041593D01*
X27320000Y-7011000D01*
X27320000Y-6809000D01*
X27338907Y-6750809D01*
X27388407Y-6714845D01*
X27419000Y-6710000D01*
X28344999Y-6710000D01*
X28345000Y-6709999D01*
X28345000Y-6662175D01*
X28338598Y-6602629D01*
X28338596Y-6602618D01*
X28288353Y-6467911D01*
X28288352Y-6467909D01*
X28202192Y-6352815D01*
X28202184Y-6352807D01*
X28085171Y-6265210D01*
X28049918Y-6215201D01*
X28045500Y-6185957D01*
X28045500Y-6040253D01*
X28045500Y-6040252D01*
X28033867Y-5981769D01*
X28033864Y-5981765D01*
X28030187Y-5972887D01*
X28025386Y-5911890D01*
X28030187Y-5897113D01*
X28033863Y-5888236D01*
X28033867Y-5888231D01*
X28045500Y-5829748D01*
X28045500Y-5390252D01*
X28033867Y-5331769D01*
X27989552Y-5265448D01*
X27982189Y-5260528D01*
X27923233Y-5221134D01*
X27923231Y-5221133D01*
X27923228Y-5221132D01*
X27923227Y-5221132D01*
X27864758Y-5209501D01*
X27864748Y-5209500D01*
X27175252Y-5209500D01*
X27175251Y-5209500D01*
X27175241Y-5209501D01*
X27116772Y-5221132D01*
X27116766Y-5221134D01*
X27050451Y-5265445D01*
X27050445Y-5265451D01*
X27006134Y-5331766D01*
X27006132Y-5331772D01*
X26994501Y-5390241D01*
X26994500Y-5390253D01*
X26994500Y-5815500D01*
X26975593Y-5873691D01*
X26926093Y-5909655D01*
X26895500Y-5914500D01*
X26746862Y-5914500D01*
X26688671Y-5895593D01*
X26665700Y-5868242D01*
X26664405Y-5869168D01*
X26659638Y-5862492D01*
X26659636Y-5862490D01*
X26659636Y-5862489D01*
X26577511Y-5780364D01*
X26473170Y-5729355D01*
X26473171Y-5729355D01*
X26456259Y-5726891D01*
X26405528Y-5719500D01*
X25994472Y-5719500D01*
X25953886Y-5725413D01*
X25926828Y-5729355D01*
X25822489Y-5780364D01*
X25740364Y-5862489D01*
X25689355Y-5966828D01*
X25685791Y-5991290D01*
X25681351Y-6021772D01*
X25679500Y-6034475D01*
X25679500Y-6282573D01*
X25660593Y-6340764D01*
X25650504Y-6352577D01*
X25325489Y-6677592D01*
X25325488Y-6677591D01*
X25269539Y-6733541D01*
X25229980Y-6802059D01*
X25229978Y-6802063D01*
X25209500Y-6878487D01*
X25209500Y-7874521D01*
X25190593Y-7932712D01*
X25180504Y-7944525D01*
X24984525Y-8140504D01*
X24930008Y-8168281D01*
X24914521Y-8169500D01*
X24501281Y-8169500D01*
X24443090Y-8150593D01*
X24407126Y-8101093D01*
X24407126Y-8039907D01*
X24418966Y-8015498D01*
X24442225Y-7980688D01*
X24443867Y-7978231D01*
X24455500Y-7919748D01*
X24455500Y-6580252D01*
X24443867Y-6521769D01*
X24399552Y-6455448D01*
X24398925Y-6455029D01*
X24333233Y-6411134D01*
X24333231Y-6411133D01*
X24333228Y-6411132D01*
X24333227Y-6411132D01*
X24274758Y-6399501D01*
X24274748Y-6399500D01*
X24274747Y-6399500D01*
X23879500Y-6399500D01*
X23821309Y-6380593D01*
X23785345Y-6331093D01*
X23780500Y-6300500D01*
X23780500Y-5493530D01*
X23799407Y-5435339D01*
X23809490Y-5423532D01*
X25256149Y-3976873D01*
X25310662Y-3949099D01*
X25371094Y-3958670D01*
X25411362Y-3996485D01*
X25491805Y-4132507D01*
X25607492Y-4248194D01*
X25748299Y-4331467D01*
X25748298Y-4331467D01*
X25905399Y-4377109D01*
X25905404Y-4377110D01*
X25930000Y-4379045D01*
X25930000Y-3835001D01*
X26430000Y-3835001D01*
X26430000Y-4379045D01*
X26454587Y-4377112D01*
X26454600Y-4377109D01*
X26611699Y-4331467D01*
X26611700Y-4331467D01*
X26752507Y-4248194D01*
X26868193Y-4132508D01*
X26869882Y-4129653D01*
X26871549Y-4128182D01*
X26872010Y-4127589D01*
X26872123Y-4127676D01*
X26915775Y-4089188D01*
X26976688Y-4083426D01*
X27002543Y-4093153D01*
X27002909Y-4093353D01*
X27137618Y-4143596D01*
X27137629Y-4143598D01*
X27197176Y-4150000D01*
X27369999Y-4150000D01*
X27370000Y-4149999D01*
X27370000Y-3650001D01*
X27369999Y-3650000D01*
X27043001Y-3650000D01*
X27043000Y-3650001D01*
X27043000Y-3736000D01*
X27024093Y-3794191D01*
X26974593Y-3830155D01*
X26944000Y-3835000D01*
X26430001Y-3835000D01*
X26430000Y-3835001D01*
X25930000Y-3835001D01*
X25930000Y-3434000D01*
X25948907Y-3375809D01*
X25998407Y-3339845D01*
X26029000Y-3335000D01*
X26701999Y-3335000D01*
X26708738Y-3328260D01*
X26720907Y-3290809D01*
X26770407Y-3254845D01*
X26801000Y-3250000D01*
X27671000Y-3250000D01*
X27729191Y-3268907D01*
G37*
%TD.AperFunction*%
%TA.AperFunction,Conductor*%
G36*
X33442191Y-3193907D02*
G01*
X33478155Y-3243407D01*
X33480365Y-3257364D01*
X33483001Y-3260000D01*
X34041000Y-3260000D01*
X34099191Y-3278907D01*
X34135155Y-3328407D01*
X34140000Y-3359000D01*
X34140000Y-4159999D01*
X34140001Y-4160000D01*
X34260500Y-4160000D01*
X34318691Y-4178907D01*
X34354655Y-4228407D01*
X34359500Y-4259000D01*
X34359500Y-5080500D01*
X34340593Y-5138691D01*
X34291093Y-5174655D01*
X34260500Y-5179500D01*
X33645252Y-5179500D01*
X33645251Y-5179500D01*
X33645241Y-5179501D01*
X33586772Y-5191132D01*
X33586766Y-5191134D01*
X33520451Y-5235445D01*
X33520445Y-5235451D01*
X33476134Y-5301766D01*
X33476132Y-5301772D01*
X33464501Y-5360241D01*
X33464500Y-5360253D01*
X33464500Y-5690500D01*
X33445593Y-5748691D01*
X33396093Y-5784655D01*
X33365500Y-5789500D01*
X33126862Y-5789500D01*
X33068671Y-5770593D01*
X33045700Y-5743242D01*
X33044405Y-5744168D01*
X33039638Y-5737492D01*
X33039636Y-5737490D01*
X33039636Y-5737489D01*
X32957511Y-5655364D01*
X32853170Y-5604355D01*
X32853171Y-5604355D01*
X32836259Y-5601891D01*
X32785528Y-5594500D01*
X32374472Y-5594500D01*
X32333886Y-5600413D01*
X32306828Y-5604355D01*
X32202489Y-5655364D01*
X32120364Y-5737489D01*
X32069355Y-5841828D01*
X32068241Y-5849475D01*
X32060597Y-5901947D01*
X32059500Y-5909475D01*
X32059500Y-6157573D01*
X32040593Y-6215764D01*
X32030504Y-6227577D01*
X30919014Y-7339066D01*
X30864497Y-7366843D01*
X30804065Y-7357272D01*
X30760800Y-7314007D01*
X30751229Y-7253575D01*
X30753381Y-7243450D01*
X30770500Y-7179562D01*
X30770500Y-7100438D01*
X30770500Y-4770478D01*
X30789407Y-4712287D01*
X30799490Y-4700480D01*
X31691297Y-3808673D01*
X31745812Y-3780898D01*
X31806244Y-3790469D01*
X31846512Y-3828284D01*
X31931805Y-3972507D01*
X32047492Y-4088194D01*
X32188299Y-4171467D01*
X32188298Y-4171467D01*
X32345399Y-4217109D01*
X32345404Y-4217110D01*
X32370000Y-4219045D01*
X32370000Y-3675001D01*
X32870000Y-3675001D01*
X32870000Y-4219045D01*
X32894587Y-4217112D01*
X32894600Y-4217109D01*
X33051699Y-4171467D01*
X33051700Y-4171467D01*
X33192504Y-4088196D01*
X33192511Y-4088191D01*
X33200407Y-4080294D01*
X33254921Y-4052512D01*
X33315354Y-4062079D01*
X33329746Y-4071039D01*
X33372912Y-4103354D01*
X33507618Y-4153596D01*
X33507629Y-4153598D01*
X33567176Y-4160000D01*
X33739999Y-4160000D01*
X33740000Y-4159999D01*
X33740000Y-3660001D01*
X33739999Y-3660000D01*
X33469528Y-3660000D01*
X33442480Y-3673781D01*
X33426993Y-3675000D01*
X32870001Y-3675000D01*
X32870000Y-3675001D01*
X32370000Y-3675001D01*
X32370000Y-3274000D01*
X32388907Y-3215809D01*
X32438407Y-3179845D01*
X32469000Y-3175000D01*
X33384000Y-3175000D01*
X33442191Y-3193907D01*
G37*
%TD.AperFunction*%
%TA.AperFunction,Conductor*%
G36*
X29598712Y-1434407D02*
G01*
X29634676Y-1483907D01*
X29634676Y-1545093D01*
X29610525Y-1584504D01*
X29474525Y-1720504D01*
X29420008Y-1748281D01*
X29404521Y-1749500D01*
X29125252Y-1749500D01*
X29125251Y-1749500D01*
X29125241Y-1749501D01*
X29066772Y-1761132D01*
X29066766Y-1761134D01*
X29000451Y-1805445D01*
X29000445Y-1805451D01*
X28956134Y-1871766D01*
X28956132Y-1871772D01*
X28944501Y-1930241D01*
X28944500Y-1930253D01*
X28944500Y-2209521D01*
X28925593Y-2267712D01*
X28915504Y-2279525D01*
X28660489Y-2534540D01*
X28660488Y-2534539D01*
X28604539Y-2590489D01*
X28564980Y-2659007D01*
X28564978Y-2659011D01*
X28544500Y-2735435D01*
X28544500Y-3011892D01*
X28525593Y-3070083D01*
X28476093Y-3106047D01*
X28414907Y-3106047D01*
X28365407Y-3070083D01*
X28352742Y-3046489D01*
X28338352Y-3007909D01*
X28252192Y-2892815D01*
X28252184Y-2892807D01*
X28135171Y-2805210D01*
X28099918Y-2755201D01*
X28095500Y-2725957D01*
X28095500Y-2580253D01*
X28095500Y-2580252D01*
X28083867Y-2521769D01*
X28083864Y-2521765D01*
X28080187Y-2512887D01*
X28075386Y-2451890D01*
X28080187Y-2437113D01*
X28083863Y-2428236D01*
X28083867Y-2428231D01*
X28095500Y-2369748D01*
X28095500Y-1930252D01*
X28083867Y-1871769D01*
X28039552Y-1805448D01*
X28004465Y-1782003D01*
X27973233Y-1761134D01*
X27973231Y-1761133D01*
X27973228Y-1761132D01*
X27973227Y-1761132D01*
X27914758Y-1749501D01*
X27914748Y-1749500D01*
X27225252Y-1749500D01*
X27225251Y-1749500D01*
X27225241Y-1749501D01*
X27166772Y-1761132D01*
X27166766Y-1761134D01*
X27100451Y-1805445D01*
X27100445Y-1805451D01*
X27056134Y-1871766D01*
X27056132Y-1871772D01*
X27044501Y-1930241D01*
X27044500Y-1930253D01*
X27044500Y-2369750D01*
X27046775Y-2381186D01*
X27039583Y-2441947D01*
X26998051Y-2486877D01*
X26949677Y-2499500D01*
X26795595Y-2499500D01*
X26737404Y-2480593D01*
X26701440Y-2431093D01*
X26697631Y-2414781D01*
X26690645Y-2366830D01*
X26639636Y-2262489D01*
X26557511Y-2180364D01*
X26453170Y-2129355D01*
X26453171Y-2129355D01*
X26436259Y-2126891D01*
X26385528Y-2119500D01*
X25974472Y-2119500D01*
X25933886Y-2125413D01*
X25906828Y-2129355D01*
X25802489Y-2180364D01*
X25720364Y-2262489D01*
X25669355Y-2366828D01*
X25667450Y-2379907D01*
X25659993Y-2431093D01*
X25659500Y-2434475D01*
X25659500Y-2682573D01*
X25640593Y-2740764D01*
X25630504Y-2752577D01*
X23295489Y-5087592D01*
X23295488Y-5087591D01*
X23239539Y-5143541D01*
X23199980Y-5212059D01*
X23199978Y-5212063D01*
X23179500Y-5288487D01*
X23179500Y-6300500D01*
X23160593Y-6358691D01*
X23111093Y-6394655D01*
X23080500Y-6399500D01*
X22685252Y-6399500D01*
X22685251Y-6399500D01*
X22685241Y-6399501D01*
X22626772Y-6411132D01*
X22626766Y-6411134D01*
X22560451Y-6455445D01*
X22560445Y-6455451D01*
X22516134Y-6521766D01*
X22516132Y-6521772D01*
X22504501Y-6580241D01*
X22504500Y-6580253D01*
X22504500Y-6850500D01*
X22485593Y-6908691D01*
X22436093Y-6944655D01*
X22405500Y-6949500D01*
X16594500Y-6949500D01*
X16536309Y-6930593D01*
X16500345Y-6881093D01*
X16495500Y-6850500D01*
X16495500Y-6580253D01*
X16495498Y-6580241D01*
X16491571Y-6560500D01*
X16483867Y-6521769D01*
X16439552Y-6455448D01*
X16438925Y-6455029D01*
X16373233Y-6411134D01*
X16373231Y-6411133D01*
X16373228Y-6411132D01*
X16373227Y-6411132D01*
X16314758Y-6399501D01*
X16314748Y-6399500D01*
X14809500Y-6399500D01*
X14751309Y-6380593D01*
X14715345Y-6331093D01*
X14710500Y-6300500D01*
X14710500Y-4025479D01*
X14729407Y-3967288D01*
X14739496Y-3955475D01*
X15065475Y-3629496D01*
X15119992Y-3601719D01*
X15135479Y-3600500D01*
X16314747Y-3600500D01*
X16314748Y-3600500D01*
X16373231Y-3588867D01*
X16439552Y-3544552D01*
X16483867Y-3478231D01*
X16495500Y-3419748D01*
X16495500Y-3149500D01*
X16514407Y-3091309D01*
X16563907Y-3055345D01*
X16594500Y-3050500D01*
X22405500Y-3050500D01*
X22463691Y-3069407D01*
X22499655Y-3118907D01*
X22504500Y-3149500D01*
X22504500Y-3419746D01*
X22504501Y-3419758D01*
X22516132Y-3478227D01*
X22516134Y-3478233D01*
X22547389Y-3525008D01*
X22560448Y-3544552D01*
X22626769Y-3588867D01*
X22671231Y-3597711D01*
X22685241Y-3600498D01*
X22685246Y-3600498D01*
X22685252Y-3600500D01*
X22685253Y-3600500D01*
X24274747Y-3600500D01*
X24274748Y-3600500D01*
X24333231Y-3588867D01*
X24399552Y-3544552D01*
X24443867Y-3478231D01*
X24455500Y-3419748D01*
X24455500Y-2080252D01*
X24443867Y-2021769D01*
X24399552Y-1955448D01*
X24391399Y-1950000D01*
X24333233Y-1911134D01*
X24333231Y-1911133D01*
X24333228Y-1911132D01*
X24333227Y-1911132D01*
X24274758Y-1899501D01*
X24274748Y-1899500D01*
X22685252Y-1899500D01*
X22685251Y-1899500D01*
X22685241Y-1899501D01*
X22626772Y-1911132D01*
X22626766Y-1911134D01*
X22560451Y-1955445D01*
X22560445Y-1955451D01*
X22516134Y-2021766D01*
X22516132Y-2021772D01*
X22504501Y-2080241D01*
X22504500Y-2080253D01*
X22504500Y-2350500D01*
X22485593Y-2408691D01*
X22436093Y-2444655D01*
X22405500Y-2449500D01*
X16594500Y-2449500D01*
X16536309Y-2430593D01*
X16500345Y-2381093D01*
X16495500Y-2350500D01*
X16495500Y-2080253D01*
X16495498Y-2080241D01*
X16485959Y-2032288D01*
X16483867Y-2021769D01*
X16439552Y-1955448D01*
X16431399Y-1950000D01*
X16373233Y-1911134D01*
X16373231Y-1911133D01*
X16373228Y-1911132D01*
X16373227Y-1911132D01*
X16314758Y-1899501D01*
X16314748Y-1899500D01*
X14743008Y-1899500D01*
X14684817Y-1880593D01*
X14648853Y-1831093D01*
X14648853Y-1769907D01*
X14673004Y-1730496D01*
X14959004Y-1444496D01*
X15013521Y-1416719D01*
X15029008Y-1415500D01*
X29540521Y-1415500D01*
X29598712Y-1434407D01*
G37*
%TD.AperFunction*%
%TD*%
D25*
X7300000Y-17200000D03*
X38690000Y-23090000D03*
X11970000Y-16630000D03*
X38730000Y-20870000D03*
X10420000Y-14490000D03*
X13800000Y-16300000D03*
X45200000Y-8025000D03*
X29890000Y-8600000D03*
X38210000Y-14675000D03*
X13850000Y-1280000D03*
X32080000Y-8470000D03*
X28520000Y-6380000D03*
X2225000Y-14500000D03*
X44160000Y-1090000D03*
X41120000Y-8450000D03*
X4825000Y-7850000D03*
X43725000Y-19325000D03*
X21830000Y-21570000D03*
X15900000Y-19780000D03*
X11180000Y-11025000D03*
X30710000Y-24480000D03*
X15210000Y-5280000D03*
X24990000Y-2100000D03*
X5800000Y-21175000D03*
X14050000Y-21850000D03*
X19470000Y-3820000D03*
X24970000Y-5920000D03*
X2675000Y-12725000D03*
X19860000Y-6430000D03*
X47000000Y-14425000D03*
X5375000Y-24325000D03*
X12710000Y-7490000D03*
X30900000Y-16520000D03*
X13810000Y-14600000D03*
X49075000Y-7300000D03*
X1100000Y-8500000D03*
X31370000Y-5900000D03*
X17860000Y-16500000D03*
X47275000Y-11625000D03*
X23910000Y-16260000D03*
X28420000Y-16330000D03*
X42500000Y-23260000D03*
X2425000Y-10225000D03*
X19880000Y-18980000D03*
X33660000Y-4670000D03*
X34340000Y-24380000D03*
X10110000Y-8820000D03*
X37950000Y-8610000D03*
X37280000Y-17550000D03*
X47500000Y-22660000D03*
X44350000Y-16950000D03*
X48975000Y-16700000D03*
X39240000Y-17450000D03*
X1300000Y-16300000D03*
X38700000Y-2610000D03*
X2630000Y-1470000D03*
X33870000Y-16630000D03*
X42400000Y-7140000D03*
X35760000Y-8410000D03*
X45980000Y-9200000D03*
X7200000Y-8730000D03*
X46203925Y-13850000D03*
X2925000Y-13875000D03*
X25460000Y-13730000D03*
X4011311Y-12750000D03*
X47100000Y-12825000D03*
X26350000Y-12725000D03*
X46400000Y-11650000D03*
X29190000Y-11775000D03*
X2850000Y-11625000D03*
X46550000Y-10400000D03*
X3725000Y-10575000D03*
X15820000Y-8910000D03*
X12790000Y-8830000D03*
X21805000Y-16075000D03*
X19390000Y-17710000D03*
X6940000Y-6370000D03*
X3475000Y-15275000D03*
X46175000Y-15100000D03*
X35070000Y-16030000D03*
X22280000Y-20670000D03*
X40620000Y-16080000D03*
X31830000Y-16010000D03*
X23080000Y-16110000D03*
D26*
X6950000Y-23250000D03*
X8950000Y-23250000D03*
X10950000Y-23250000D03*
X12950000Y-23250000D03*
X47500000Y-2550000D03*
X2500000Y-22500000D03*
M02*
