%TF.GenerationSoftware,KiCad,Pcbnew,8.0.8*%
%TF.CreationDate,2025-07-16T12:06:12+01:00*%
%TF.ProjectId,Screen,53637265-656e-42e6-9b69-6361645f7063,rev?*%
%TF.SameCoordinates,Original*%
%TF.FileFunction,Copper,L1,Top*%
%TF.FilePolarity,Positive*%
%FSLAX46Y46*%
G04 Gerber Fmt 4.6, Leading zero omitted, Abs format (unit mm)*
G04 Created by KiCad (PCBNEW 8.0.8) date 2025-07-16 12:06:12*
%MOMM*%
%LPD*%
G01*
G04 APERTURE LIST*
%TA.AperFunction,ComponentPad*%
%ADD10R,1.350000X1.350000*%
%TD*%
%TA.AperFunction,ComponentPad*%
%ADD11O,1.350000X1.350000*%
%TD*%
%TA.AperFunction,ViaPad*%
%ADD12C,0.600000*%
%TD*%
%TA.AperFunction,Conductor*%
%ADD13C,0.200000*%
%TD*%
%TA.AperFunction,Conductor*%
%ADD14C,0.400000*%
%TD*%
%ADD15C,0.300000*%
%ADD16C,0.350000*%
G04 APERTURE END LIST*
D10*
%TO.P,J4,1,Pin_1*%
%TO.N,5V*%
X5850000Y-52600000D03*
D11*
%TO.P,J4,2,Pin_2*%
%TO.N,GND*%
X7850000Y-52600000D03*
%TO.P,J4,3,Pin_3*%
%TO.N,SWDIO*%
X9850000Y-52600000D03*
%TO.P,J4,4,Pin_4*%
%TO.N,SWDCLK*%
X11850000Y-52600000D03*
%TD*%
D12*
%TO.N,VDD*%
X28200000Y-25750000D03*
X21200000Y-30310000D03*
%TO.N,GND*%
X39924501Y-43650000D03*
X31800000Y-29400000D03*
X13280000Y-32390000D03*
X37925000Y-42650000D03*
X26250000Y-31150000D03*
X9135000Y-15010000D03*
X14300000Y-46375000D03*
X17860000Y-31260000D03*
X43280407Y-40150000D03*
X27150000Y-2500000D03*
X38261629Y-39614074D03*
X48150000Y-44700000D03*
X12430000Y-23670000D03*
X35638235Y-40850000D03*
X22850000Y-29300000D03*
X38300000Y-24900000D03*
X24600000Y-23300000D03*
X33850000Y-23450000D03*
X3375000Y-42950000D03*
X49650000Y-8650000D03*
X35400000Y-29250000D03*
X4875000Y-7225000D03*
X23100000Y-31250000D03*
X26150000Y-22800000D03*
X31850000Y-30950000D03*
X7700000Y-38350000D03*
X50270000Y-28700000D03*
X20240000Y-24270000D03*
X35050000Y-25750000D03*
X49875000Y-11375000D03*
X10250000Y-12400000D03*
X18050000Y-24350000D03*
X27600000Y-52000000D03*
X30790000Y-33930000D03*
X10375000Y-9925000D03*
X25640000Y-17260000D03*
X44400000Y-1990000D03*
X30500000Y-23450000D03*
X48100000Y-38125000D03*
X15730000Y-18830000D03*
X1650000Y-45060000D03*
X14180000Y-28930000D03*
X49750000Y-16375000D03*
X34391968Y-41750000D03*
X49675000Y-13825000D03*
X22250000Y-18400000D03*
X41300000Y-42175000D03*
X18370000Y-21230000D03*
X42725000Y-46400000D03*
X27450000Y-20500000D03*
X8350000Y-17650000D03*
X45400000Y-8690000D03*
X6825000Y-33875000D03*
X7075000Y-21200000D03*
X20900000Y-36180000D03*
X37590000Y-32025000D03*
X50125000Y-19325000D03*
X50520000Y-49470000D03*
X29450000Y-46575000D03*
%TO.N,5V*%
X2799022Y-40550978D03*
X9000000Y-36225000D03*
%TO.N,MOSI*%
X42450000Y-42650000D03*
X36525000Y-40482254D03*
%TO.N,MISO*%
X19775000Y-16950000D03*
X19800000Y-14870000D03*
%TO.N,SCLK*%
X39650000Y-42373884D03*
X39850003Y-40150000D03*
X21125000Y-17050000D03*
X21175000Y-13670000D03*
%TO.N,PS*%
X15025000Y-17750000D03*
X39050000Y-39750000D03*
X15150000Y-12000000D03*
X39300000Y-43150000D03*
%TO.N,SWDIO*%
X19825000Y-28675000D03*
%TO.N,SWDCLK*%
X20750000Y-29025000D03*
%TO.N,DC*%
X29775735Y-28074265D03*
X31150000Y-27300000D03*
%TO.N,CHIP_SELECT*%
X24450000Y-29500000D03*
X24150000Y-28100000D03*
%TO.N,S_SCK*%
X17710000Y-27290000D03*
X24550000Y-27250000D03*
%TO.N,S_MOSI*%
X23900000Y-20565000D03*
X27950000Y-27500000D03*
X30745522Y-28650000D03*
%TO.N,Interrupt5V*%
X37125000Y-39750000D03*
X41250000Y-43150000D03*
%TD*%
D13*
%TO.N,VDD*%
X28200000Y-25750000D02*
X26300000Y-27650000D01*
X26300000Y-29150000D02*
X25140000Y-30310000D01*
X26300000Y-27650000D02*
X26300000Y-29150000D01*
X25140000Y-30310000D02*
X21200000Y-30310000D01*
%TO.N,GND*%
X38261629Y-39838371D02*
X37925000Y-40175000D01*
X28800000Y-26000000D02*
X28050000Y-26750000D01*
X38261629Y-39614074D02*
X38261629Y-39838371D01*
X34391968Y-41750000D02*
X34738235Y-41750000D01*
X26150000Y-22800000D02*
X28800000Y-25450000D01*
X26700000Y-30700000D02*
X26250000Y-31150000D01*
X28800000Y-25450000D02*
X28800000Y-26000000D01*
X40500000Y-43074501D02*
X40500000Y-42175000D01*
X27850000Y-26750000D02*
X26700000Y-27900000D01*
X26700000Y-27900000D02*
X26700000Y-30700000D01*
X20975000Y-29625000D02*
X20600000Y-30000000D01*
X20600000Y-30750000D02*
X21100000Y-31250000D01*
X28050000Y-26750000D02*
X27850000Y-26750000D01*
X40500000Y-40300000D02*
X43130407Y-40300000D01*
X37925000Y-40175000D02*
X37925000Y-42650000D01*
X43130407Y-40300000D02*
X43280407Y-40150000D01*
X39924501Y-43650000D02*
X40500000Y-43074501D01*
X22525000Y-29625000D02*
X20975000Y-29625000D01*
X34738235Y-41750000D02*
X35638235Y-40850000D01*
X21100000Y-31250000D02*
X23100000Y-31250000D01*
X20600000Y-30000000D02*
X20600000Y-30750000D01*
X40500000Y-42175000D02*
X40500000Y-40300000D01*
X41300000Y-42175000D02*
X40500000Y-42175000D01*
X22850000Y-29300000D02*
X22525000Y-29625000D01*
D14*
%TO.N,5V*%
X2799022Y-40550978D02*
X7125000Y-36225000D01*
X7125000Y-36225000D02*
X9000000Y-36225000D01*
D13*
%TO.N,MOSI*%
X42450000Y-42650000D02*
X42450000Y-42798529D01*
X42450000Y-42798529D02*
X40598529Y-44650000D01*
X36525000Y-43015686D02*
X36525000Y-40482254D01*
X38159314Y-44650000D02*
X36525000Y-43015686D01*
X40598529Y-44650000D02*
X38159314Y-44650000D01*
%TO.N,MISO*%
X19775000Y-16950000D02*
X19775000Y-14895000D01*
X19775000Y-14895000D02*
X19800000Y-14870000D01*
%TO.N,SCLK*%
X39850003Y-42173881D02*
X39650000Y-42373884D01*
X21125000Y-17050000D02*
X21125000Y-13720000D01*
X39850003Y-40150000D02*
X39850003Y-42173881D01*
X21125000Y-13720000D02*
X21175000Y-13670000D01*
%TO.N,PS*%
X15025000Y-12125000D02*
X15150000Y-12000000D01*
X15025000Y-17750000D02*
X15025000Y-12125000D01*
X39050000Y-39750000D02*
X39050000Y-42900000D01*
X39050000Y-42900000D02*
X39300000Y-43150000D01*
%TO.N,SWDIO*%
X18375000Y-30125000D02*
X17250000Y-30125000D01*
X19825000Y-28675000D02*
X18375000Y-30125000D01*
X17250000Y-30125000D02*
X9850000Y-37525000D01*
X9850000Y-37525000D02*
X9850000Y-52600000D01*
%TO.N,SWDCLK*%
X11850000Y-36421472D02*
X15373236Y-32898236D01*
X11850000Y-52600000D02*
X11850000Y-36421472D01*
X17611471Y-30660000D02*
X19115000Y-30660000D01*
X15373236Y-32898236D02*
X17611471Y-30660000D01*
X19115000Y-30660000D02*
X20750000Y-29025000D01*
%TO.N,DC*%
X31150000Y-27300000D02*
X30550000Y-27300000D01*
X30550000Y-27300000D02*
X29775735Y-28074265D01*
%TO.N,CHIP_SELECT*%
X24150000Y-28100000D02*
X24150000Y-29200000D01*
X24150000Y-29200000D02*
X24450000Y-29500000D01*
%TO.N,S_SCK*%
X22560000Y-27500000D02*
X24300000Y-27500000D01*
X24300000Y-27500000D02*
X24550000Y-27250000D01*
X17920000Y-27500000D02*
X17710000Y-27290000D01*
X22560000Y-27500000D02*
X17920000Y-27500000D01*
%TO.N,S_MOSI*%
X25415000Y-20565000D02*
X23900000Y-20565000D01*
X29650000Y-24800000D02*
X25415000Y-20565000D01*
X29124265Y-28674265D02*
X27950000Y-27500000D01*
X30721257Y-28674265D02*
X29124265Y-28674265D01*
X27950000Y-27500000D02*
X29650000Y-25800000D01*
X29650000Y-25800000D02*
X29650000Y-24800000D01*
X30745522Y-28650000D02*
X30721257Y-28674265D01*
%TO.N,Interrupt5V*%
X40173030Y-44250000D02*
X38325000Y-44250000D01*
X38325000Y-44250000D02*
X37125000Y-43050000D01*
X41250000Y-43173030D02*
X40173030Y-44250000D01*
X41250000Y-43150000D02*
X41250000Y-43173030D01*
X37125000Y-43050000D02*
X37125000Y-39750000D01*
%TD*%
%TA.AperFunction,Conductor*%
%TO.N,GND*%
G36*
X51502992Y-100681D02*
G01*
X51783256Y-117633D01*
X51795111Y-119073D01*
X51958223Y-148964D01*
X51983638Y-153622D01*
X52037468Y-182709D01*
X52063920Y-237880D01*
X52052891Y-298064D01*
X52008593Y-340270D01*
X51965793Y-350000D01*
X50999997Y-350000D01*
X50299998Y-650000D01*
X49799999Y-1050000D01*
X49600005Y-1349990D01*
X49599998Y-1350002D01*
X49400001Y-1749996D01*
X49300000Y-2050000D01*
X49300000Y-3050002D01*
X49599997Y-3749995D01*
X49600000Y-3750000D01*
X50100000Y-4350000D01*
X50900000Y-4750000D01*
X51899998Y-4750000D01*
X51900000Y-4750000D01*
X52500000Y-4650000D01*
X53100000Y-4150000D01*
X53500000Y-3650000D01*
X53700000Y-2950000D01*
X53700000Y-2478186D01*
X53718907Y-2419995D01*
X53768407Y-2384031D01*
X53829593Y-2384031D01*
X53879093Y-2419995D01*
X53897819Y-2472209D01*
X53899319Y-2497007D01*
X53899500Y-2502984D01*
X53899500Y-5019991D01*
X53914798Y-5056926D01*
X53914799Y-5056927D01*
X53914800Y-5056929D01*
X53943071Y-5085200D01*
X53943072Y-5085200D01*
X53943073Y-5085201D01*
X53980008Y-5100500D01*
X53980009Y-5100500D01*
X54019991Y-5100500D01*
X54800500Y-5100500D01*
X54858691Y-5119407D01*
X54894655Y-5168907D01*
X54899500Y-5199500D01*
X54899500Y-13800500D01*
X54880593Y-13858691D01*
X54831093Y-13894655D01*
X54800500Y-13899500D01*
X53980008Y-13899500D01*
X53943073Y-13914798D01*
X53914798Y-13943073D01*
X53899500Y-13980008D01*
X53899500Y-34019991D01*
X53914798Y-34056926D01*
X53914799Y-34056927D01*
X53914800Y-34056929D01*
X53943071Y-34085200D01*
X53943072Y-34085200D01*
X53943073Y-34085201D01*
X53980008Y-34100500D01*
X53980009Y-34100500D01*
X54019991Y-34100500D01*
X54800500Y-34100500D01*
X54858691Y-34119407D01*
X54894655Y-34168907D01*
X54899500Y-34199500D01*
X54899500Y-48800500D01*
X54880593Y-48858691D01*
X54831093Y-48894655D01*
X54800500Y-48899500D01*
X53980008Y-48899500D01*
X53943073Y-48914798D01*
X53914798Y-48943073D01*
X53899500Y-48980008D01*
X53899500Y-51497015D01*
X53899319Y-51502992D01*
X53897819Y-51527790D01*
X53875433Y-51584733D01*
X53823852Y-51617643D01*
X53762778Y-51613949D01*
X53715540Y-51575062D01*
X53700000Y-51521813D01*
X53700000Y-50900000D01*
X53500000Y-50400001D01*
X53500000Y-50400000D01*
X53100000Y-49900000D01*
X52600000Y-49500000D01*
X52000000Y-49300000D01*
X51000000Y-49300000D01*
X50999997Y-49300000D01*
X50299998Y-49600000D01*
X49799999Y-50000000D01*
X49600005Y-50299990D01*
X49599998Y-50300002D01*
X49400001Y-50699996D01*
X49300000Y-51000000D01*
X49300000Y-52000002D01*
X49599997Y-52699995D01*
X49600000Y-52700000D01*
X50061837Y-53254205D01*
X50100000Y-53300000D01*
X50900000Y-53700000D01*
X51521813Y-53700000D01*
X51580004Y-53718907D01*
X51615968Y-53768407D01*
X51615968Y-53829593D01*
X51580004Y-53879093D01*
X51527790Y-53897819D01*
X51502992Y-53899319D01*
X51497015Y-53899500D01*
X8277877Y-53899500D01*
X8219686Y-53880593D01*
X8183722Y-53831093D01*
X8183722Y-53769907D01*
X8219686Y-53720407D01*
X8242114Y-53708185D01*
X8375986Y-53656322D01*
X8375991Y-53656319D01*
X8561126Y-53541688D01*
X8561129Y-53541686D01*
X8722052Y-53394987D01*
X8853283Y-53221209D01*
X8853288Y-53221200D01*
X8930605Y-53065927D01*
X8973467Y-53022265D01*
X9033808Y-53012135D01*
X9088579Y-53039407D01*
X9104962Y-53060555D01*
X9137805Y-53117440D01*
X9231239Y-53221209D01*
X9254463Y-53247003D01*
X9260950Y-53254207D01*
X9409839Y-53362381D01*
X9409843Y-53362383D01*
X9409845Y-53362384D01*
X9465485Y-53387156D01*
X9577966Y-53437236D01*
X9757981Y-53475500D01*
X9757983Y-53475500D01*
X9942017Y-53475500D01*
X9942019Y-53475500D01*
X10122034Y-53437236D01*
X10290161Y-53362381D01*
X10439050Y-53254207D01*
X10562195Y-53117440D01*
X10654214Y-52958059D01*
X10711085Y-52783029D01*
X10730322Y-52600000D01*
X10711085Y-52416971D01*
X10654214Y-52241941D01*
X10654211Y-52241936D01*
X10654209Y-52241931D01*
X10604704Y-52156187D01*
X10562195Y-52082560D01*
X10439050Y-51945793D01*
X10290161Y-51837619D01*
X10290157Y-51837617D01*
X10209232Y-51801586D01*
X10163763Y-51760644D01*
X10150500Y-51711145D01*
X10150500Y-37690479D01*
X10169407Y-37632288D01*
X10179496Y-37620475D01*
X11380496Y-36419475D01*
X11435013Y-36391698D01*
X11495445Y-36401269D01*
X11538710Y-36444534D01*
X11549500Y-36489479D01*
X11549500Y-51711145D01*
X11530593Y-51769336D01*
X11490768Y-51801586D01*
X11409843Y-51837617D01*
X11409842Y-51837617D01*
X11409839Y-51837618D01*
X11409839Y-51837619D01*
X11397245Y-51846769D01*
X11260948Y-51945794D01*
X11137803Y-52082562D01*
X11137803Y-52082563D01*
X11045790Y-52241931D01*
X11045784Y-52241945D01*
X10988916Y-52416965D01*
X10988915Y-52416969D01*
X10988915Y-52416971D01*
X10969678Y-52600000D01*
X10986483Y-52759893D01*
X10988916Y-52783034D01*
X11045784Y-52958054D01*
X11045790Y-52958068D01*
X11082855Y-53022265D01*
X11137805Y-53117440D01*
X11231239Y-53221209D01*
X11254463Y-53247003D01*
X11260950Y-53254207D01*
X11409839Y-53362381D01*
X11409843Y-53362383D01*
X11409845Y-53362384D01*
X11465485Y-53387156D01*
X11577966Y-53437236D01*
X11757981Y-53475500D01*
X11757983Y-53475500D01*
X11942017Y-53475500D01*
X11942019Y-53475500D01*
X12122034Y-53437236D01*
X12290161Y-53362381D01*
X12439050Y-53254207D01*
X12562195Y-53117440D01*
X12654214Y-52958059D01*
X12711085Y-52783029D01*
X12730322Y-52600000D01*
X12711085Y-52416971D01*
X12654214Y-52241941D01*
X12654211Y-52241936D01*
X12654209Y-52241931D01*
X12604704Y-52156187D01*
X12562195Y-52082560D01*
X12439050Y-51945793D01*
X12290161Y-51837619D01*
X12290157Y-51837617D01*
X12209232Y-51801586D01*
X12163763Y-51760644D01*
X12150500Y-51711145D01*
X12150500Y-40482251D01*
X36019353Y-40482251D01*
X36019353Y-40482256D01*
X36039834Y-40624710D01*
X36071221Y-40693436D01*
X36099623Y-40755627D01*
X36159170Y-40824349D01*
X36198509Y-40869748D01*
X36196471Y-40871513D01*
X36221925Y-40913712D01*
X36224500Y-40936147D01*
X36224500Y-43055250D01*
X36244978Y-43131673D01*
X36244979Y-43131675D01*
X36278400Y-43189562D01*
X36284540Y-43200197D01*
X37918854Y-44834511D01*
X37918853Y-44834511D01*
X37974803Y-44890460D01*
X38043321Y-44930019D01*
X38043325Y-44930021D01*
X38119749Y-44950499D01*
X38119751Y-44950500D01*
X38119752Y-44950500D01*
X40638092Y-44950500D01*
X40638092Y-44950499D01*
X40714518Y-44930021D01*
X40783040Y-44890460D01*
X40838989Y-44834511D01*
X42505566Y-43167932D01*
X42547676Y-43142949D01*
X42660053Y-43109953D01*
X42781128Y-43032143D01*
X42875377Y-42923373D01*
X42935165Y-42792457D01*
X42955647Y-42650000D01*
X42955575Y-42649500D01*
X42935165Y-42507543D01*
X42875377Y-42376628D01*
X42875377Y-42376627D01*
X42781128Y-42267857D01*
X42781127Y-42267856D01*
X42781126Y-42267855D01*
X42660057Y-42190049D01*
X42660054Y-42190047D01*
X42660053Y-42190047D01*
X42660050Y-42190046D01*
X42521964Y-42149500D01*
X42521961Y-42149500D01*
X42378039Y-42149500D01*
X42378035Y-42149500D01*
X42239949Y-42190046D01*
X42239942Y-42190049D01*
X42118873Y-42267855D01*
X42024622Y-42376628D01*
X41964834Y-42507543D01*
X41944353Y-42649997D01*
X41944353Y-42650002D01*
X41965842Y-42799466D01*
X41962972Y-42799878D01*
X41961569Y-42848509D01*
X41938340Y-42885216D01*
X41861336Y-42962220D01*
X41806819Y-42989997D01*
X41746387Y-42980426D01*
X41703122Y-42937161D01*
X41701279Y-42933343D01*
X41686055Y-42900008D01*
X41675377Y-42876627D01*
X41581128Y-42767857D01*
X41581127Y-42767856D01*
X41581126Y-42767855D01*
X41460057Y-42690049D01*
X41460054Y-42690047D01*
X41460053Y-42690047D01*
X41460050Y-42690046D01*
X41321964Y-42649500D01*
X41321961Y-42649500D01*
X41178039Y-42649500D01*
X41178035Y-42649500D01*
X41039949Y-42690046D01*
X41039942Y-42690049D01*
X40918873Y-42767855D01*
X40824622Y-42876628D01*
X40764834Y-43007543D01*
X40744353Y-43149997D01*
X40744353Y-43150002D01*
X40750336Y-43191616D01*
X40739903Y-43251905D01*
X40722348Y-43275708D01*
X40077555Y-43920503D01*
X40023038Y-43948281D01*
X40007551Y-43949500D01*
X38490479Y-43949500D01*
X38432288Y-43930593D01*
X38420475Y-43920504D01*
X37454496Y-42954525D01*
X37426719Y-42900008D01*
X37425500Y-42884521D01*
X37425500Y-40203893D01*
X37444407Y-40145702D01*
X37451741Y-40137711D01*
X37451491Y-40137494D01*
X37456128Y-40132143D01*
X37550377Y-40023373D01*
X37610165Y-39892457D01*
X37630647Y-39750000D01*
X37630647Y-39749997D01*
X38544353Y-39749997D01*
X38544353Y-39750002D01*
X38564834Y-39892456D01*
X38600977Y-39971596D01*
X38624623Y-40023373D01*
X38691116Y-40100111D01*
X38723509Y-40137494D01*
X38721471Y-40139259D01*
X38746925Y-40181458D01*
X38749500Y-40203893D01*
X38749500Y-42939564D01*
X38769977Y-43015985D01*
X38769978Y-43015987D01*
X38787788Y-43046836D01*
X38800507Y-43106685D01*
X38800043Y-43110421D01*
X38794354Y-43149997D01*
X38794353Y-43150002D01*
X38814834Y-43292456D01*
X38874622Y-43423371D01*
X38874623Y-43423373D01*
X38968872Y-43532143D01*
X38968873Y-43532144D01*
X39089942Y-43609950D01*
X39089947Y-43609953D01*
X39196403Y-43641211D01*
X39228035Y-43650499D01*
X39228036Y-43650499D01*
X39228039Y-43650500D01*
X39228041Y-43650500D01*
X39371959Y-43650500D01*
X39371961Y-43650500D01*
X39510053Y-43609953D01*
X39631128Y-43532143D01*
X39725377Y-43423373D01*
X39785165Y-43292457D01*
X39803069Y-43167934D01*
X39805647Y-43150002D01*
X39805647Y-43149997D01*
X39785165Y-43007543D01*
X39771533Y-42977693D01*
X39764558Y-42916907D01*
X39794644Y-42863629D01*
X39833694Y-42841576D01*
X39860053Y-42833837D01*
X39981128Y-42756027D01*
X40075377Y-42647257D01*
X40135165Y-42516341D01*
X40141992Y-42468855D01*
X40155647Y-42373886D01*
X40155647Y-42373882D01*
X40152406Y-42351346D01*
X40141727Y-42277070D01*
X40144093Y-42237361D01*
X40150503Y-42213443D01*
X40150503Y-40603893D01*
X40169410Y-40545702D01*
X40176744Y-40537711D01*
X40176494Y-40537494D01*
X40181131Y-40532143D01*
X40275380Y-40423373D01*
X40335168Y-40292457D01*
X40347184Y-40208881D01*
X40355650Y-40150002D01*
X40355650Y-40149997D01*
X40335168Y-40007543D01*
X40275380Y-39876628D01*
X40275380Y-39876627D01*
X40181131Y-39767857D01*
X40181130Y-39767856D01*
X40181129Y-39767855D01*
X40060060Y-39690049D01*
X40060057Y-39690047D01*
X40060056Y-39690047D01*
X40060053Y-39690046D01*
X39921967Y-39649500D01*
X39921964Y-39649500D01*
X39778042Y-39649500D01*
X39778038Y-39649500D01*
X39660415Y-39684038D01*
X39599255Y-39682291D01*
X39550802Y-39644928D01*
X39538715Y-39613882D01*
X39537161Y-39614339D01*
X39535165Y-39607542D01*
X39475378Y-39476629D01*
X39475377Y-39476628D01*
X39475377Y-39476627D01*
X39381128Y-39367857D01*
X39381127Y-39367856D01*
X39381126Y-39367855D01*
X39260057Y-39290049D01*
X39260054Y-39290047D01*
X39260053Y-39290047D01*
X39260050Y-39290046D01*
X39121964Y-39249500D01*
X39121961Y-39249500D01*
X38978039Y-39249500D01*
X38978035Y-39249500D01*
X38839949Y-39290046D01*
X38839942Y-39290049D01*
X38718873Y-39367855D01*
X38624622Y-39476628D01*
X38564834Y-39607543D01*
X38544353Y-39749997D01*
X37630647Y-39749997D01*
X37622027Y-39690049D01*
X37610165Y-39607543D01*
X37610165Y-39607542D01*
X37550377Y-39476627D01*
X37456128Y-39367857D01*
X37456127Y-39367856D01*
X37456126Y-39367855D01*
X37335057Y-39290049D01*
X37335054Y-39290047D01*
X37335053Y-39290047D01*
X37335050Y-39290046D01*
X37196964Y-39249500D01*
X37196961Y-39249500D01*
X37053039Y-39249500D01*
X37053035Y-39249500D01*
X36914949Y-39290046D01*
X36914942Y-39290049D01*
X36793873Y-39367855D01*
X36699622Y-39476628D01*
X36639834Y-39607543D01*
X36619353Y-39749997D01*
X36619353Y-39750002D01*
X36636414Y-39868665D01*
X36625981Y-39928954D01*
X36582103Y-39971596D01*
X36538422Y-39981754D01*
X36453035Y-39981754D01*
X36314949Y-40022300D01*
X36314942Y-40022303D01*
X36193873Y-40100109D01*
X36099622Y-40208882D01*
X36039834Y-40339797D01*
X36019353Y-40482251D01*
X12150500Y-40482251D01*
X12150500Y-36586950D01*
X12169407Y-36528759D01*
X12179490Y-36516952D01*
X15613696Y-33082747D01*
X15613696Y-33082746D01*
X17706946Y-30989496D01*
X17761463Y-30961719D01*
X17776950Y-30960500D01*
X19154563Y-30960500D01*
X19154563Y-30960499D01*
X19230989Y-30940021D01*
X19299511Y-30900460D01*
X19355460Y-30844511D01*
X20645474Y-29554495D01*
X20699991Y-29526719D01*
X20715478Y-29525500D01*
X20821959Y-29525500D01*
X20821961Y-29525500D01*
X20960053Y-29484953D01*
X21081128Y-29407143D01*
X21175377Y-29298373D01*
X21235165Y-29167457D01*
X21251402Y-29054525D01*
X21255647Y-29025002D01*
X21255647Y-29024997D01*
X21235165Y-28882543D01*
X21224311Y-28858776D01*
X21175377Y-28751627D01*
X21081128Y-28642857D01*
X21081127Y-28642856D01*
X21081126Y-28642855D01*
X20960057Y-28565049D01*
X20960054Y-28565047D01*
X20960053Y-28565047D01*
X20960050Y-28565046D01*
X20821964Y-28524500D01*
X20821961Y-28524500D01*
X20678039Y-28524500D01*
X20678035Y-28524500D01*
X20539949Y-28565046D01*
X20539942Y-28565049D01*
X20463471Y-28614194D01*
X20404296Y-28629749D01*
X20347279Y-28607550D01*
X20314200Y-28556077D01*
X20311955Y-28544996D01*
X20310165Y-28532543D01*
X20250377Y-28401627D01*
X20156128Y-28292857D01*
X20156127Y-28292856D01*
X20156126Y-28292855D01*
X20035057Y-28215049D01*
X20035054Y-28215047D01*
X20035053Y-28215047D01*
X20035050Y-28215046D01*
X19896964Y-28174500D01*
X19896961Y-28174500D01*
X19753039Y-28174500D01*
X19753035Y-28174500D01*
X19614949Y-28215046D01*
X19614942Y-28215049D01*
X19493873Y-28292855D01*
X19399622Y-28401628D01*
X19339834Y-28532543D01*
X19319353Y-28674997D01*
X19319353Y-28675003D01*
X19322441Y-28696482D01*
X19312007Y-28756771D01*
X19294453Y-28780574D01*
X18279525Y-29795504D01*
X18225008Y-29823281D01*
X18209521Y-29824500D01*
X17210435Y-29824500D01*
X17134012Y-29844978D01*
X17125229Y-29850049D01*
X17069645Y-29882141D01*
X17069643Y-29882142D01*
X17069642Y-29882141D01*
X17065493Y-29884537D01*
X17065489Y-29884540D01*
X9665489Y-37284540D01*
X9665488Y-37284539D01*
X9609539Y-37340489D01*
X9569980Y-37409007D01*
X9569978Y-37409011D01*
X9549500Y-37485435D01*
X9549500Y-51711145D01*
X9530593Y-51769336D01*
X9490768Y-51801586D01*
X9409843Y-51837617D01*
X9409842Y-51837617D01*
X9409839Y-51837618D01*
X9409839Y-51837619D01*
X9397245Y-51846769D01*
X9260948Y-51945794D01*
X9137804Y-52082561D01*
X9104962Y-52139445D01*
X9059492Y-52180385D01*
X8998642Y-52186780D01*
X8945654Y-52156187D01*
X8930605Y-52134072D01*
X8853288Y-51978799D01*
X8853283Y-51978790D01*
X8722052Y-51805012D01*
X8561129Y-51658313D01*
X8561126Y-51658311D01*
X8375991Y-51543680D01*
X8375986Y-51543677D01*
X8172932Y-51465013D01*
X8172926Y-51465011D01*
X8100000Y-51451379D01*
X8100000Y-52319670D01*
X8080255Y-52299925D01*
X7994745Y-52250556D01*
X7899370Y-52225000D01*
X7800630Y-52225000D01*
X7705255Y-52250556D01*
X7619745Y-52299925D01*
X7600000Y-52319670D01*
X7600000Y-51451379D01*
X7599999Y-51451379D01*
X7527073Y-51465011D01*
X7527067Y-51465013D01*
X7324013Y-51543677D01*
X7324008Y-51543680D01*
X7138873Y-51658311D01*
X7138870Y-51658313D01*
X6977944Y-51805015D01*
X6895383Y-51914343D01*
X6845227Y-51949386D01*
X6784052Y-51948255D01*
X6735225Y-51911382D01*
X6719283Y-51873999D01*
X6713867Y-51846769D01*
X6669552Y-51780448D01*
X6639914Y-51760644D01*
X6603233Y-51736134D01*
X6603231Y-51736133D01*
X6603228Y-51736132D01*
X6603227Y-51736132D01*
X6544758Y-51724501D01*
X6544748Y-51724500D01*
X5155252Y-51724500D01*
X5155251Y-51724500D01*
X5155241Y-51724501D01*
X5096772Y-51736132D01*
X5096766Y-51736134D01*
X5030451Y-51780445D01*
X5030445Y-51780451D01*
X4986134Y-51846766D01*
X4986132Y-51846772D01*
X4974501Y-51905241D01*
X4974500Y-51905253D01*
X4974500Y-53294746D01*
X4974501Y-53294758D01*
X4986132Y-53353227D01*
X4986134Y-53353233D01*
X4992249Y-53362384D01*
X5030448Y-53419552D01*
X5096769Y-53463867D01*
X5141231Y-53472711D01*
X5155241Y-53475498D01*
X5155246Y-53475498D01*
X5155252Y-53475500D01*
X5155253Y-53475500D01*
X6544747Y-53475500D01*
X6544748Y-53475500D01*
X6603231Y-53463867D01*
X6669552Y-53419552D01*
X6713867Y-53353231D01*
X6719283Y-53326001D01*
X6749178Y-53272619D01*
X6804743Y-53247003D01*
X6864753Y-53258940D01*
X6895384Y-53285656D01*
X6977947Y-53394987D01*
X7138870Y-53541686D01*
X7138873Y-53541688D01*
X7324008Y-53656319D01*
X7324013Y-53656322D01*
X7457886Y-53708185D01*
X7505317Y-53746837D01*
X7520971Y-53805986D01*
X7498868Y-53863040D01*
X7447451Y-53896205D01*
X7422123Y-53899500D01*
X2502985Y-53899500D01*
X2497008Y-53899319D01*
X2472210Y-53897819D01*
X2415267Y-53875433D01*
X2382357Y-53823852D01*
X2386051Y-53762778D01*
X2424938Y-53715540D01*
X2478187Y-53700000D01*
X2899998Y-53700000D01*
X2900000Y-53700000D01*
X3500000Y-53600000D01*
X4100000Y-53100000D01*
X4500000Y-52600000D01*
X4700000Y-51900000D01*
X4700000Y-50900000D01*
X4500000Y-50400000D01*
X4100000Y-49900000D01*
X3600000Y-49500000D01*
X3000000Y-49300000D01*
X2000000Y-49300000D01*
X1999997Y-49300000D01*
X1299998Y-49600000D01*
X799999Y-50000000D01*
X600005Y-50299990D01*
X599998Y-50300002D01*
X400001Y-50699996D01*
X300000Y-51000000D01*
X300000Y-51521813D01*
X281093Y-51580004D01*
X231593Y-51615968D01*
X170407Y-51615968D01*
X120907Y-51580004D01*
X102181Y-51527790D01*
X100681Y-51502992D01*
X100500Y-51497015D01*
X100500Y-48980008D01*
X85201Y-48943073D01*
X85200Y-48943072D01*
X85200Y-48943071D01*
X56929Y-48914800D01*
X56927Y-48914799D01*
X56926Y-48914798D01*
X19992Y-48899500D01*
X19991Y-48899500D01*
X-800500Y-48899500D01*
X-858691Y-48880593D01*
X-894655Y-48831093D01*
X-899500Y-48800500D01*
X-899500Y-40550975D01*
X2293375Y-40550975D01*
X2293375Y-40550980D01*
X2313856Y-40693434D01*
X2313857Y-40693436D01*
X2373645Y-40824351D01*
X2414511Y-40871513D01*
X2467895Y-40933122D01*
X2588964Y-41010928D01*
X2588969Y-41010931D01*
X2695425Y-41042189D01*
X2727057Y-41051477D01*
X2727058Y-41051477D01*
X2727061Y-41051478D01*
X2727063Y-41051478D01*
X2870981Y-41051478D01*
X2870983Y-41051478D01*
X3009075Y-41010931D01*
X3130150Y-40933121D01*
X3224399Y-40824351D01*
X3284187Y-40693435D01*
X3289778Y-40654540D01*
X3316771Y-40599635D01*
X3317699Y-40598692D01*
X7261896Y-36654496D01*
X7316413Y-36626719D01*
X7331900Y-36625500D01*
X8668368Y-36625500D01*
X8721889Y-36641215D01*
X8789947Y-36684953D01*
X8896403Y-36716211D01*
X8928035Y-36725499D01*
X8928036Y-36725499D01*
X8928039Y-36725500D01*
X8928041Y-36725500D01*
X9071959Y-36725500D01*
X9071961Y-36725500D01*
X9210053Y-36684953D01*
X9331128Y-36607143D01*
X9425377Y-36498373D01*
X9485165Y-36367457D01*
X9494075Y-36305483D01*
X9505647Y-36225002D01*
X9505647Y-36224997D01*
X9485165Y-36082543D01*
X9425377Y-35951627D01*
X9331128Y-35842857D01*
X9331127Y-35842856D01*
X9331126Y-35842855D01*
X9210057Y-35765049D01*
X9210054Y-35765047D01*
X9210053Y-35765047D01*
X9210050Y-35765046D01*
X9071964Y-35724500D01*
X9071961Y-35724500D01*
X8928039Y-35724500D01*
X8928035Y-35724500D01*
X8789949Y-35765046D01*
X8789946Y-35765047D01*
X8760868Y-35783734D01*
X8721889Y-35808784D01*
X8668368Y-35824500D01*
X7183806Y-35824500D01*
X7183790Y-35824499D01*
X7177727Y-35824499D01*
X7072273Y-35824499D01*
X6970412Y-35851793D01*
X6970411Y-35851793D01*
X6970409Y-35851794D01*
X6944882Y-35866532D01*
X6924750Y-35878156D01*
X6895800Y-35894870D01*
X6879086Y-35904520D01*
X6804519Y-35979086D01*
X6804520Y-35979087D01*
X6804518Y-35979089D01*
X2753518Y-40030088D01*
X2711406Y-40055074D01*
X2588969Y-40091025D01*
X2588964Y-40091027D01*
X2467895Y-40168833D01*
X2373644Y-40277606D01*
X2313856Y-40408521D01*
X2293375Y-40550975D01*
X-899500Y-40550975D01*
X-899500Y-34199500D01*
X-880593Y-34141309D01*
X-831093Y-34105345D01*
X-800500Y-34100500D01*
X19992Y-34100500D01*
X43283Y-34090852D01*
X56929Y-34085200D01*
X85200Y-34056929D01*
X100500Y-34019991D01*
X100500Y-27289997D01*
X17204353Y-27289997D01*
X17204353Y-27290002D01*
X17224834Y-27432456D01*
X17276127Y-27544769D01*
X17284623Y-27563373D01*
X17353149Y-27642457D01*
X17378873Y-27672144D01*
X17499942Y-27749950D01*
X17499947Y-27749953D01*
X17583449Y-27774471D01*
X17638035Y-27790499D01*
X17638036Y-27790499D01*
X17638039Y-27790500D01*
X17638041Y-27790500D01*
X17781957Y-27790500D01*
X17781961Y-27790500D01*
X17784467Y-27789763D01*
X17787314Y-27789729D01*
X17788969Y-27789492D01*
X17789000Y-27789709D01*
X17837988Y-27789125D01*
X17880438Y-27800500D01*
X22520438Y-27800500D01*
X23582507Y-27800500D01*
X23640698Y-27819407D01*
X23676662Y-27868907D01*
X23676662Y-27930093D01*
X23672560Y-27940627D01*
X23664834Y-27957543D01*
X23644353Y-28099997D01*
X23644353Y-28100002D01*
X23664834Y-28242456D01*
X23724623Y-28373373D01*
X23823509Y-28487494D01*
X23821471Y-28489259D01*
X23846925Y-28531458D01*
X23849500Y-28553893D01*
X23849500Y-29239564D01*
X23869976Y-29315982D01*
X23869982Y-29315995D01*
X23880673Y-29334512D01*
X23880674Y-29334512D01*
X23909540Y-29384511D01*
X23919454Y-29394425D01*
X23947230Y-29448940D01*
X23947442Y-29478514D01*
X23944354Y-29499997D01*
X23944353Y-29500002D01*
X23964834Y-29642456D01*
X24024623Y-29773373D01*
X24087267Y-29845669D01*
X24111085Y-29902028D01*
X24097226Y-29961624D01*
X24050985Y-30001691D01*
X24012448Y-30009500D01*
X21647083Y-30009500D01*
X21588892Y-29990593D01*
X21572264Y-29975331D01*
X21558939Y-29959953D01*
X21531128Y-29927857D01*
X21490937Y-29902028D01*
X21410057Y-29850049D01*
X21410054Y-29850047D01*
X21410053Y-29850047D01*
X21395143Y-29845669D01*
X21271964Y-29809500D01*
X21271961Y-29809500D01*
X21128039Y-29809500D01*
X21128035Y-29809500D01*
X20989949Y-29850046D01*
X20989942Y-29850049D01*
X20868873Y-29927855D01*
X20774622Y-30036628D01*
X20714834Y-30167543D01*
X20694353Y-30309997D01*
X20694353Y-30310002D01*
X20714834Y-30452456D01*
X20759592Y-30550460D01*
X20774623Y-30583373D01*
X20827736Y-30644669D01*
X20868873Y-30692144D01*
X20868875Y-30692145D01*
X20989947Y-30769953D01*
X21096403Y-30801211D01*
X21128035Y-30810499D01*
X21128036Y-30810499D01*
X21128039Y-30810500D01*
X21128041Y-30810500D01*
X21271959Y-30810500D01*
X21271961Y-30810500D01*
X21410053Y-30769953D01*
X21531128Y-30692143D01*
X21572264Y-30644668D01*
X21624660Y-30613073D01*
X21647083Y-30610500D01*
X25179563Y-30610500D01*
X25179563Y-30610499D01*
X25255989Y-30590021D01*
X25324511Y-30550460D01*
X25380460Y-30494511D01*
X26540460Y-29334511D01*
X26551158Y-29315982D01*
X26580020Y-29265992D01*
X26580020Y-29265990D01*
X26580022Y-29265988D01*
X26600500Y-29189562D01*
X26600500Y-29110438D01*
X26600500Y-27815478D01*
X26619407Y-27757287D01*
X26629490Y-27745480D01*
X28095474Y-26279495D01*
X28149991Y-26251719D01*
X28165478Y-26250500D01*
X28271959Y-26250500D01*
X28271961Y-26250500D01*
X28410053Y-26209953D01*
X28531128Y-26132143D01*
X28625377Y-26023373D01*
X28685165Y-25892457D01*
X28695506Y-25820534D01*
X28705647Y-25750002D01*
X28705647Y-25749997D01*
X28685165Y-25607543D01*
X28625377Y-25476628D01*
X28625377Y-25476627D01*
X28531128Y-25367857D01*
X28531127Y-25367856D01*
X28531126Y-25367855D01*
X28410057Y-25290049D01*
X28410054Y-25290047D01*
X28410053Y-25290047D01*
X28410050Y-25290046D01*
X28271964Y-25249500D01*
X28271961Y-25249500D01*
X28128039Y-25249500D01*
X28128035Y-25249500D01*
X27989949Y-25290046D01*
X27989942Y-25290049D01*
X27868873Y-25367855D01*
X27774622Y-25476628D01*
X27714834Y-25607543D01*
X27694353Y-25749997D01*
X27694353Y-25750003D01*
X27697441Y-25771482D01*
X27687007Y-25831771D01*
X27669453Y-25855574D01*
X26115489Y-27409540D01*
X26115488Y-27409539D01*
X26059539Y-27465489D01*
X26019980Y-27534007D01*
X26019978Y-27534011D01*
X25999500Y-27610435D01*
X25999500Y-28984521D01*
X25980593Y-29042712D01*
X25970504Y-29054525D01*
X25044525Y-29980504D01*
X24990008Y-30008281D01*
X24974521Y-30009500D01*
X24887552Y-30009500D01*
X24829361Y-29990593D01*
X24793397Y-29941093D01*
X24793397Y-29879907D01*
X24812733Y-29845669D01*
X24844073Y-29809500D01*
X24875377Y-29773373D01*
X24935165Y-29642457D01*
X24947812Y-29554496D01*
X24955647Y-29500002D01*
X24955647Y-29499997D01*
X24935165Y-29357543D01*
X24924647Y-29334512D01*
X24875377Y-29226627D01*
X24781128Y-29117857D01*
X24781127Y-29117856D01*
X24781126Y-29117855D01*
X24660057Y-29040049D01*
X24660054Y-29040048D01*
X24660053Y-29040047D01*
X24554091Y-29008934D01*
X24521608Y-28999396D01*
X24471102Y-28964860D01*
X24450540Y-28907233D01*
X24450500Y-28904406D01*
X24450500Y-28553893D01*
X24469407Y-28495702D01*
X24476741Y-28487711D01*
X24476491Y-28487494D01*
X24481128Y-28482143D01*
X24575377Y-28373373D01*
X24635165Y-28242457D01*
X24655647Y-28100000D01*
X24651946Y-28074262D01*
X24635165Y-27957543D01*
X24600731Y-27882144D01*
X24597691Y-27875489D01*
X24590717Y-27814704D01*
X24620803Y-27761426D01*
X24659851Y-27739374D01*
X24760053Y-27709953D01*
X24881128Y-27632143D01*
X24975377Y-27523373D01*
X25035165Y-27392457D01*
X25049896Y-27290000D01*
X25055647Y-27250002D01*
X25055647Y-27249997D01*
X25035165Y-27107543D01*
X25035164Y-27107541D01*
X24975377Y-26976627D01*
X24881128Y-26867857D01*
X24881127Y-26867856D01*
X24881126Y-26867855D01*
X24760057Y-26790049D01*
X24760054Y-26790047D01*
X24760053Y-26790047D01*
X24760050Y-26790046D01*
X24621964Y-26749500D01*
X24621961Y-26749500D01*
X24478039Y-26749500D01*
X24478035Y-26749500D01*
X24339949Y-26790046D01*
X24339942Y-26790049D01*
X24218873Y-26867855D01*
X24124622Y-26976628D01*
X24064835Y-27107541D01*
X24064834Y-27107545D01*
X24063821Y-27114591D01*
X24036823Y-27169499D01*
X23982708Y-27198050D01*
X23965829Y-27199500D01*
X18282517Y-27199500D01*
X18224326Y-27180593D01*
X18192464Y-27141627D01*
X18154975Y-27059540D01*
X18135377Y-27016627D01*
X18041128Y-26907857D01*
X18041127Y-26907856D01*
X18041126Y-26907855D01*
X17920057Y-26830049D01*
X17920054Y-26830047D01*
X17920053Y-26830047D01*
X17920050Y-26830046D01*
X17781964Y-26789500D01*
X17781961Y-26789500D01*
X17638039Y-26789500D01*
X17638035Y-26789500D01*
X17499949Y-26830046D01*
X17499942Y-26830049D01*
X17378873Y-26907855D01*
X17284622Y-27016628D01*
X17224834Y-27147543D01*
X17204353Y-27289997D01*
X100500Y-27289997D01*
X100500Y-22480009D01*
X100500Y-20564997D01*
X23394353Y-20564997D01*
X23394353Y-20565002D01*
X23414834Y-20707456D01*
X23474622Y-20838371D01*
X23474623Y-20838373D01*
X23527736Y-20899669D01*
X23568873Y-20947144D01*
X23568875Y-20947145D01*
X23689947Y-21024953D01*
X23796403Y-21056211D01*
X23828035Y-21065499D01*
X23828036Y-21065499D01*
X23828039Y-21065500D01*
X23828041Y-21065500D01*
X23971959Y-21065500D01*
X23971961Y-21065500D01*
X24110053Y-21024953D01*
X24231128Y-20947143D01*
X24272264Y-20899668D01*
X24324660Y-20868073D01*
X24347083Y-20865500D01*
X25249521Y-20865500D01*
X25307712Y-20884407D01*
X25319525Y-20894496D01*
X29320504Y-24895475D01*
X29348281Y-24949992D01*
X29349500Y-24965479D01*
X29349500Y-25634520D01*
X29330593Y-25692711D01*
X29320504Y-25704524D01*
X28054524Y-26970504D01*
X28000007Y-26998281D01*
X27984520Y-26999500D01*
X27878035Y-26999500D01*
X27739949Y-27040046D01*
X27739942Y-27040049D01*
X27618873Y-27117855D01*
X27524622Y-27226628D01*
X27464834Y-27357543D01*
X27444353Y-27499997D01*
X27444353Y-27500002D01*
X27464834Y-27642456D01*
X27511882Y-27745474D01*
X27524623Y-27773373D01*
X27607403Y-27868907D01*
X27618873Y-27882144D01*
X27696152Y-27931808D01*
X27739947Y-27959953D01*
X27846403Y-27991211D01*
X27878035Y-28000499D01*
X27878036Y-28000499D01*
X27878039Y-28000500D01*
X27878041Y-28000500D01*
X27984521Y-28000500D01*
X28042712Y-28019407D01*
X28054525Y-28029496D01*
X28883805Y-28858776D01*
X28883804Y-28858776D01*
X28939754Y-28914725D01*
X29008272Y-28954284D01*
X29008276Y-28954286D01*
X29084700Y-28974764D01*
X29084702Y-28974765D01*
X29084703Y-28974765D01*
X30319464Y-28974765D01*
X30377655Y-28993672D01*
X30394281Y-29008931D01*
X30408663Y-29025529D01*
X30414395Y-29032144D01*
X30535464Y-29109950D01*
X30535469Y-29109953D01*
X30641925Y-29141211D01*
X30673557Y-29150499D01*
X30673558Y-29150499D01*
X30673561Y-29150500D01*
X30673563Y-29150500D01*
X30817481Y-29150500D01*
X30817483Y-29150500D01*
X30955575Y-29109953D01*
X31076650Y-29032143D01*
X31170899Y-28923373D01*
X31230687Y-28792457D01*
X31251169Y-28650000D01*
X31248257Y-28629749D01*
X31230687Y-28507543D01*
X31219087Y-28482143D01*
X31170899Y-28376627D01*
X31076650Y-28267857D01*
X31076649Y-28267856D01*
X31076648Y-28267855D01*
X30955579Y-28190049D01*
X30955576Y-28190047D01*
X30955575Y-28190047D01*
X30955572Y-28190046D01*
X30817486Y-28149500D01*
X30817483Y-28149500D01*
X30673561Y-28149500D01*
X30673557Y-28149500D01*
X30535471Y-28190046D01*
X30535464Y-28190049D01*
X30419538Y-28264550D01*
X30360363Y-28280105D01*
X30303346Y-28257906D01*
X30270267Y-28206433D01*
X30268023Y-28167178D01*
X30281382Y-28074265D01*
X30278293Y-28052781D01*
X30288726Y-27992492D01*
X30306278Y-27968691D01*
X30638746Y-27636224D01*
X30693261Y-27608448D01*
X30753693Y-27618019D01*
X30783562Y-27641393D01*
X30818872Y-27682143D01*
X30818874Y-27682144D01*
X30818875Y-27682145D01*
X30935798Y-27757287D01*
X30939947Y-27759953D01*
X31039299Y-27789125D01*
X31078035Y-27800499D01*
X31078036Y-27800499D01*
X31078039Y-27800500D01*
X31078041Y-27800500D01*
X31221959Y-27800500D01*
X31221961Y-27800500D01*
X31360053Y-27759953D01*
X31481128Y-27682143D01*
X31575377Y-27573373D01*
X31635165Y-27442457D01*
X31655647Y-27300000D01*
X31654209Y-27290000D01*
X31635165Y-27157543D01*
X31612331Y-27107545D01*
X31575377Y-27026627D01*
X31481128Y-26917857D01*
X31481127Y-26917856D01*
X31481126Y-26917855D01*
X31360057Y-26840049D01*
X31360054Y-26840047D01*
X31360053Y-26840047D01*
X31360050Y-26840046D01*
X31221964Y-26799500D01*
X31221961Y-26799500D01*
X31078039Y-26799500D01*
X31078035Y-26799500D01*
X30939949Y-26840046D01*
X30939942Y-26840049D01*
X30818876Y-26917854D01*
X30818871Y-26917858D01*
X30777736Y-26965331D01*
X30725340Y-26996927D01*
X30702917Y-26999500D01*
X30510435Y-26999500D01*
X30434014Y-27019977D01*
X30434009Y-27019979D01*
X30396886Y-27041411D01*
X30396887Y-27041412D01*
X30365488Y-27059540D01*
X29880258Y-27544769D01*
X29825742Y-27572546D01*
X29810255Y-27573765D01*
X29703770Y-27573765D01*
X29565684Y-27614311D01*
X29565677Y-27614314D01*
X29444608Y-27692120D01*
X29350357Y-27800893D01*
X29290569Y-27931808D01*
X29270088Y-28074262D01*
X29281634Y-28154574D01*
X29271199Y-28214863D01*
X29227321Y-28257505D01*
X29166758Y-28266212D01*
X29113637Y-28238666D01*
X28480546Y-27605575D01*
X28452769Y-27551058D01*
X28452558Y-27521482D01*
X28455647Y-27500000D01*
X28452558Y-27478517D01*
X28462990Y-27418228D01*
X28480543Y-27394426D01*
X29890460Y-25984511D01*
X29919326Y-25934512D01*
X29919327Y-25934512D01*
X29924871Y-25924907D01*
X29930021Y-25915989D01*
X29950500Y-25839562D01*
X29950500Y-24760438D01*
X29930021Y-24684011D01*
X29890460Y-24615489D01*
X29834511Y-24559539D01*
X29834511Y-24559540D01*
X25599511Y-20324540D01*
X25599508Y-20324538D01*
X25530992Y-20284980D01*
X25530988Y-20284978D01*
X25454564Y-20264500D01*
X25454562Y-20264500D01*
X24347083Y-20264500D01*
X24288892Y-20245593D01*
X24272264Y-20230331D01*
X24231128Y-20182857D01*
X24198182Y-20161684D01*
X24110057Y-20105049D01*
X24110054Y-20105047D01*
X24110053Y-20105047D01*
X24110050Y-20105046D01*
X23971964Y-20064500D01*
X23971961Y-20064500D01*
X23828039Y-20064500D01*
X23828035Y-20064500D01*
X23689949Y-20105046D01*
X23689942Y-20105049D01*
X23568873Y-20182855D01*
X23474622Y-20291628D01*
X23414834Y-20422543D01*
X23394353Y-20564997D01*
X100500Y-20564997D01*
X100500Y-19980009D01*
X85200Y-19943071D01*
X56929Y-19914800D01*
X56927Y-19914799D01*
X56926Y-19914798D01*
X19992Y-19899500D01*
X19991Y-19899500D01*
X-800500Y-19899500D01*
X-858691Y-19880593D01*
X-894655Y-19831093D01*
X-899500Y-19800500D01*
X-899500Y-18480008D01*
X39899500Y-18480008D01*
X39899500Y-35519991D01*
X39914798Y-35556926D01*
X39914799Y-35556927D01*
X39914800Y-35556929D01*
X39943071Y-35585200D01*
X39943072Y-35585200D01*
X39943073Y-35585201D01*
X39980008Y-35600500D01*
X39980009Y-35600500D01*
X44019992Y-35600500D01*
X44043283Y-35590852D01*
X44056929Y-35585200D01*
X44085200Y-35556929D01*
X44100500Y-35519991D01*
X44100500Y-18480009D01*
X44085200Y-18443071D01*
X44056929Y-18414800D01*
X44056927Y-18414799D01*
X44056926Y-18414798D01*
X44019992Y-18399500D01*
X44019991Y-18399500D01*
X40019991Y-18399500D01*
X39980009Y-18399500D01*
X39980008Y-18399500D01*
X39943073Y-18414798D01*
X39914798Y-18443073D01*
X39899500Y-18480008D01*
X-899500Y-18480008D01*
X-899500Y-17749997D01*
X14519353Y-17749997D01*
X14519353Y-17750002D01*
X14539834Y-17892456D01*
X14599622Y-18023371D01*
X14599623Y-18023373D01*
X14693872Y-18132143D01*
X14693873Y-18132144D01*
X14814942Y-18209950D01*
X14814947Y-18209953D01*
X14921403Y-18241211D01*
X14953035Y-18250499D01*
X14953036Y-18250499D01*
X14953039Y-18250500D01*
X14953041Y-18250500D01*
X15096959Y-18250500D01*
X15096961Y-18250500D01*
X15235053Y-18209953D01*
X15356128Y-18132143D01*
X15450377Y-18023373D01*
X15510165Y-17892457D01*
X15530647Y-17750000D01*
X15510165Y-17607543D01*
X15450377Y-17476627D01*
X15356128Y-17367857D01*
X15356127Y-17367856D01*
X15351491Y-17362506D01*
X15353524Y-17360743D01*
X15328067Y-17318505D01*
X15325500Y-17296105D01*
X15325500Y-16949997D01*
X19269353Y-16949997D01*
X19269353Y-16950002D01*
X19289834Y-17092456D01*
X19335504Y-17192457D01*
X19349623Y-17223373D01*
X19412645Y-17296105D01*
X19443873Y-17332144D01*
X19499444Y-17367857D01*
X19564947Y-17409953D01*
X19671403Y-17441211D01*
X19703035Y-17450499D01*
X19703036Y-17450499D01*
X19703039Y-17450500D01*
X19703041Y-17450500D01*
X19846959Y-17450500D01*
X19846961Y-17450500D01*
X19985053Y-17409953D01*
X20106128Y-17332143D01*
X20200377Y-17223373D01*
X20260165Y-17092457D01*
X20266270Y-17049997D01*
X20619353Y-17049997D01*
X20619353Y-17050002D01*
X20639834Y-17192456D01*
X20653953Y-17223371D01*
X20699623Y-17323373D01*
X20793872Y-17432143D01*
X20793873Y-17432144D01*
X20863092Y-17476628D01*
X20914947Y-17509953D01*
X21021403Y-17541211D01*
X21053035Y-17550499D01*
X21053036Y-17550499D01*
X21053039Y-17550500D01*
X21053041Y-17550500D01*
X21196959Y-17550500D01*
X21196961Y-17550500D01*
X21335053Y-17509953D01*
X21456128Y-17432143D01*
X21550377Y-17323373D01*
X21610165Y-17192457D01*
X21630647Y-17050000D01*
X21610165Y-16907543D01*
X21550377Y-16776627D01*
X21456128Y-16667857D01*
X21456127Y-16667856D01*
X21451491Y-16662506D01*
X21453524Y-16660743D01*
X21428067Y-16618505D01*
X21425500Y-16596105D01*
X21425500Y-14158017D01*
X21444407Y-14099826D01*
X21470973Y-14074735D01*
X21506128Y-14052143D01*
X21600377Y-13943373D01*
X21660165Y-13812457D01*
X21680647Y-13670000D01*
X21660165Y-13527543D01*
X21600377Y-13396627D01*
X21506128Y-13287857D01*
X21506127Y-13287856D01*
X21506126Y-13287855D01*
X21385057Y-13210049D01*
X21385054Y-13210047D01*
X21385053Y-13210047D01*
X21385050Y-13210046D01*
X21246964Y-13169500D01*
X21246961Y-13169500D01*
X21103039Y-13169500D01*
X21103035Y-13169500D01*
X20964949Y-13210046D01*
X20964942Y-13210049D01*
X20843873Y-13287855D01*
X20749622Y-13396628D01*
X20689834Y-13527543D01*
X20669353Y-13669997D01*
X20669353Y-13670002D01*
X20689834Y-13812456D01*
X20736573Y-13914798D01*
X20749623Y-13943373D01*
X20800320Y-14001880D01*
X20824137Y-14058238D01*
X20824500Y-14066710D01*
X20824500Y-16596105D01*
X20805593Y-16654296D01*
X20798258Y-16662289D01*
X20798509Y-16662506D01*
X20699622Y-16776628D01*
X20639834Y-16907543D01*
X20619353Y-17049997D01*
X20266270Y-17049997D01*
X20280647Y-16950000D01*
X20260165Y-16807543D01*
X20200377Y-16676627D01*
X20106128Y-16567857D01*
X20106127Y-16567856D01*
X20101491Y-16562506D01*
X20103524Y-16560743D01*
X20078067Y-16518505D01*
X20075500Y-16496105D01*
X20075500Y-15341951D01*
X20094407Y-15283760D01*
X20120978Y-15258666D01*
X20122123Y-15257929D01*
X20131128Y-15252143D01*
X20225377Y-15143373D01*
X20285165Y-15012457D01*
X20305647Y-14870000D01*
X20285165Y-14727543D01*
X20225377Y-14596627D01*
X20131128Y-14487857D01*
X20131127Y-14487856D01*
X20131126Y-14487855D01*
X20010057Y-14410049D01*
X20010054Y-14410047D01*
X20010053Y-14410047D01*
X20010050Y-14410046D01*
X19871964Y-14369500D01*
X19871961Y-14369500D01*
X19728039Y-14369500D01*
X19728035Y-14369500D01*
X19589949Y-14410046D01*
X19589942Y-14410049D01*
X19468873Y-14487855D01*
X19374622Y-14596628D01*
X19314834Y-14727543D01*
X19294353Y-14869997D01*
X19294353Y-14870002D01*
X19314834Y-15012456D01*
X19374623Y-15143373D01*
X19450319Y-15230731D01*
X19474137Y-15287090D01*
X19474500Y-15295562D01*
X19474500Y-16496105D01*
X19455593Y-16554296D01*
X19448258Y-16562289D01*
X19448509Y-16562506D01*
X19349622Y-16676628D01*
X19289834Y-16807543D01*
X19269353Y-16949997D01*
X15325500Y-16949997D01*
X15325500Y-12536216D01*
X15344407Y-12478025D01*
X15370975Y-12452933D01*
X15481128Y-12382143D01*
X15575377Y-12273373D01*
X15635165Y-12142457D01*
X15655647Y-12000000D01*
X15635165Y-11857543D01*
X15575377Y-11726627D01*
X15481128Y-11617857D01*
X15481127Y-11617856D01*
X15481126Y-11617855D01*
X15360057Y-11540049D01*
X15360054Y-11540047D01*
X15360053Y-11540047D01*
X15360050Y-11540046D01*
X15221964Y-11499500D01*
X15221961Y-11499500D01*
X15078039Y-11499500D01*
X15078035Y-11499500D01*
X14939949Y-11540046D01*
X14939942Y-11540049D01*
X14818873Y-11617855D01*
X14724622Y-11726628D01*
X14664834Y-11857543D01*
X14644353Y-11999997D01*
X14644353Y-12000002D01*
X14664834Y-12142456D01*
X14715553Y-12253512D01*
X14724500Y-12294639D01*
X14724500Y-17296105D01*
X14705593Y-17354296D01*
X14698258Y-17362289D01*
X14698509Y-17362506D01*
X14693872Y-17367856D01*
X14693872Y-17367857D01*
X14657396Y-17409953D01*
X14599622Y-17476628D01*
X14539834Y-17607543D01*
X14519353Y-17749997D01*
X-899500Y-17749997D01*
X-899500Y-17631239D01*
X-899476Y-17629058D01*
X-897745Y-17550499D01*
X-625540Y-5197318D01*
X-605356Y-5139559D01*
X-555076Y-5104694D01*
X-526565Y-5100500D01*
X19992Y-5100500D01*
X43283Y-5090852D01*
X56929Y-5085200D01*
X85200Y-5056929D01*
X100500Y-5019991D01*
X100500Y-2502984D01*
X100681Y-2497007D01*
X102181Y-2472209D01*
X124567Y-2415266D01*
X176148Y-2382356D01*
X237222Y-2386050D01*
X284460Y-2424937D01*
X300000Y-2478186D01*
X300000Y-3000002D01*
X599997Y-3699995D01*
X600000Y-3700000D01*
X1100000Y-4300000D01*
X1900000Y-4700000D01*
X2899998Y-4700000D01*
X2900000Y-4700000D01*
X3500000Y-4600000D01*
X4100000Y-4100000D01*
X4500000Y-3600000D01*
X4700000Y-2900000D01*
X4700000Y-1900000D01*
X4500000Y-1400000D01*
X4100000Y-900000D01*
X3631563Y-525250D01*
X3600000Y-500000D01*
X3000000Y-300000D01*
X2478187Y-300000D01*
X2419996Y-281093D01*
X2384032Y-231593D01*
X2384032Y-170407D01*
X2419996Y-120907D01*
X2472210Y-102181D01*
X2497008Y-100681D01*
X2502985Y-100500D01*
X2526929Y-100500D01*
X51473071Y-100500D01*
X51497015Y-100500D01*
X51502992Y-100681D01*
G37*
%TD.AperFunction*%
%TD*%
D15*
X28200000Y-25750000D03*
X21200000Y-30310000D03*
X39924501Y-43650000D03*
X31800000Y-29400000D03*
X13280000Y-32390000D03*
X37925000Y-42650000D03*
X26250000Y-31150000D03*
X9135000Y-15010000D03*
X14300000Y-46375000D03*
X17860000Y-31260000D03*
X43280407Y-40150000D03*
X27150000Y-2500000D03*
X38261629Y-39614074D03*
X48150000Y-44700000D03*
X12430000Y-23670000D03*
X35638235Y-40850000D03*
X22850000Y-29300000D03*
X38300000Y-24900000D03*
X24600000Y-23300000D03*
X33850000Y-23450000D03*
X3375000Y-42950000D03*
X49650000Y-8650000D03*
X35400000Y-29250000D03*
X4875000Y-7225000D03*
X23100000Y-31250000D03*
X26150000Y-22800000D03*
X31850000Y-30950000D03*
X7700000Y-38350000D03*
X50270000Y-28700000D03*
X20240000Y-24270000D03*
X35050000Y-25750000D03*
X49875000Y-11375000D03*
X10250000Y-12400000D03*
X18050000Y-24350000D03*
X27600000Y-52000000D03*
X30790000Y-33930000D03*
X10375000Y-9925000D03*
X25640000Y-17260000D03*
X44400000Y-1990000D03*
X30500000Y-23450000D03*
X48100000Y-38125000D03*
X15730000Y-18830000D03*
X1650000Y-45060000D03*
X14180000Y-28930000D03*
X49750000Y-16375000D03*
X34391968Y-41750000D03*
X49675000Y-13825000D03*
X22250000Y-18400000D03*
X41300000Y-42175000D03*
X18370000Y-21230000D03*
X42725000Y-46400000D03*
X27450000Y-20500000D03*
X8350000Y-17650000D03*
X45400000Y-8690000D03*
X6825000Y-33875000D03*
X7075000Y-21200000D03*
X20900000Y-36180000D03*
X37590000Y-32025000D03*
X50125000Y-19325000D03*
X50520000Y-49470000D03*
X29450000Y-46575000D03*
X2799022Y-40550978D03*
X9000000Y-36225000D03*
X42450000Y-42650000D03*
X36525000Y-40482254D03*
X19775000Y-16950000D03*
X19800000Y-14870000D03*
X39650000Y-42373884D03*
X39850003Y-40150000D03*
X21125000Y-17050000D03*
X21175000Y-13670000D03*
X15025000Y-17750000D03*
X39050000Y-39750000D03*
X15150000Y-12000000D03*
X39300000Y-43150000D03*
X19825000Y-28675000D03*
X20750000Y-29025000D03*
X29775735Y-28074265D03*
X31150000Y-27300000D03*
X24450000Y-29500000D03*
X24150000Y-28100000D03*
X17710000Y-27290000D03*
X24550000Y-27250000D03*
X23900000Y-20565000D03*
X27950000Y-27500000D03*
X30745522Y-28650000D03*
X37125000Y-39750000D03*
X41250000Y-43150000D03*
D16*
X5850000Y-52600000D03*
X7850000Y-52600000D03*
X9850000Y-52600000D03*
X11850000Y-52600000D03*
X51500000Y-2550000D03*
X51500000Y-51500000D03*
X2500000Y-51500000D03*
X2500000Y-2500000D03*
M02*
