%TF.GenerationSoftware,KiCad,Pcbnew,8.0.8*%
%TF.CreationDate,2025-07-09T11:23:43+01:00*%
%TF.ProjectId,Speaker,53706561-6b65-4722-9e6b-696361645f70,rev?*%
%TF.SameCoordinates,Original*%
%TF.FileFunction,Copper,L2,Bot*%
%TF.FilePolarity,Positive*%
%FSLAX46Y46*%
G04 Gerber Fmt 4.6, Leading zero omitted, Abs format (unit mm)*
G04 Created by KiCad (PCBNEW 8.0.8) date 2025-07-09 11:23:43*
%MOMM*%
%LPD*%
G01*
G04 APERTURE LIST*
G04 Aperture macros list*
%AMRoundRect*
0 Rectangle with rounded corners*
0 $1 Rounding radius*
0 $2 $3 $4 $5 $6 $7 $8 $9 X,Y pos of 4 corners*
0 Add a 4 corners polygon primitive as box body*
4,1,4,$2,$3,$4,$5,$6,$7,$8,$9,$2,$3,0*
0 Add four circle primitives for the rounded corners*
1,1,$1+$1,$2,$3*
1,1,$1+$1,$4,$5*
1,1,$1+$1,$6,$7*
1,1,$1+$1,$8,$9*
0 Add four rect primitives between the rounded corners*
20,1,$1+$1,$2,$3,$4,$5,0*
20,1,$1+$1,$4,$5,$6,$7,0*
20,1,$1+$1,$6,$7,$8,$9,0*
20,1,$1+$1,$8,$9,$2,$3,0*%
G04 Aperture macros list end*
%TA.AperFunction,ComponentPad*%
%ADD10R,1.350000X1.350000*%
%TD*%
%TA.AperFunction,ComponentPad*%
%ADD11O,1.350000X1.350000*%
%TD*%
%TA.AperFunction,ComponentPad*%
%ADD12C,1.400000*%
%TD*%
%TA.AperFunction,SMDPad,CuDef*%
%ADD13RoundRect,0.147500X-0.172500X0.147500X-0.172500X-0.147500X0.172500X-0.147500X0.172500X0.147500X0*%
%TD*%
%TA.AperFunction,SMDPad,CuDef*%
%ADD14RoundRect,0.147500X-0.147500X-0.172500X0.147500X-0.172500X0.147500X0.172500X-0.147500X0.172500X0*%
%TD*%
%TA.AperFunction,SMDPad,CuDef*%
%ADD15R,2.500000X1.000000*%
%TD*%
%TA.AperFunction,SMDPad,CuDef*%
%ADD16R,2.000000X1.000000*%
%TD*%
%TA.AperFunction,SMDPad,CuDef*%
%ADD17RoundRect,0.147500X0.172500X-0.147500X0.172500X0.147500X-0.172500X0.147500X-0.172500X-0.147500X0*%
%TD*%
%TA.AperFunction,SMDPad,CuDef*%
%ADD18R,1.060000X0.650000*%
%TD*%
%TA.AperFunction,SMDPad,CuDef*%
%ADD19RoundRect,0.147500X0.147500X0.172500X-0.147500X0.172500X-0.147500X-0.172500X0.147500X-0.172500X0*%
%TD*%
%TA.AperFunction,SMDPad,CuDef*%
%ADD20RoundRect,0.100000X0.637500X0.100000X-0.637500X0.100000X-0.637500X-0.100000X0.637500X-0.100000X0*%
%TD*%
%TA.AperFunction,BGAPad,CuDef*%
%ADD21C,0.270000*%
%TD*%
%TA.AperFunction,ViaPad*%
%ADD22C,0.600000*%
%TD*%
%TA.AperFunction,Conductor*%
%ADD23C,0.200000*%
%TD*%
%TA.AperFunction,Conductor*%
%ADD24C,0.400000*%
%TD*%
%TA.AperFunction,Conductor*%
%ADD25C,0.100000*%
%TD*%
%ADD26C,0.300000*%
%ADD27C,0.350000*%
G04 APERTURE END LIST*
D10*
%TO.P,J4,1,Pin_1*%
%TO.N,5V*%
X5850000Y-23600000D03*
D11*
%TO.P,J4,2,Pin_2*%
%TO.N,GND*%
X7850000Y-23600000D03*
%TO.P,J4,3,Pin_3*%
%TO.N,SWDIO*%
X9850000Y-23600000D03*
%TO.P,J4,4,Pin_4*%
%TO.N,SWDCLK*%
X11850000Y-23600000D03*
%TD*%
D12*
%TO.P,TP1,1,1*%
%TO.N,OUT1*%
X20080000Y-2390000D03*
%TO.P,TP1,2,2*%
%TO.N,OUT2*%
X22620000Y-2390000D03*
%TD*%
D13*
%TO.P,C9,1*%
%TO.N,VDD*%
X38950000Y-2450000D03*
%TO.P,C9,2*%
%TO.N,GND*%
X38950000Y-3420000D03*
%TD*%
%TO.P,C10,1*%
%TO.N,OUT1*%
X14250000Y-9915000D03*
%TO.P,C10,2*%
%TO.N,GND*%
X14250000Y-10885000D03*
%TD*%
D14*
%TO.P,R7,1*%
%TO.N,Net-(U3-PA1)*%
X37795000Y-11480000D03*
%TO.P,R7,2*%
%TO.N,PS*%
X38765000Y-11480000D03*
%TD*%
%TO.P,R4,1*%
%TO.N,Net-(U3-PB7{slash}PB8)*%
X36765000Y-5800000D03*
%TO.P,R4,2*%
%TO.N,MOSI*%
X37735000Y-5800000D03*
%TD*%
%TO.P,R9,1*%
%TO.N,Net-(U3-PA3)*%
X37730000Y-12650000D03*
%TO.P,R9,2*%
%TO.N,MISO*%
X38700000Y-12650000D03*
%TD*%
D15*
%TO.P,J1,1,Pin_1*%
%TO.N,5V*%
X7525000Y-6150000D03*
%TO.P,J1,2,Pin_2*%
%TO.N,GND*%
X7525000Y-8690000D03*
%TO.P,J1,3,Pin_3*%
%TO.N,PS*%
X7525000Y-11230000D03*
%TO.P,J1,4,Pin_4*%
%TO.N,SCLK*%
X7525000Y-13770000D03*
%TO.P,J1,5,Pin_5*%
%TO.N,MISO*%
X7525000Y-16310000D03*
%TO.P,J1,6,Pin_6*%
%TO.N,MOSI*%
X7525000Y-18850000D03*
%TD*%
D14*
%TO.P,R6,1*%
%TO.N,Net-(U3-PA0)*%
X37730000Y-10300000D03*
%TO.P,R6,2*%
%TO.N,SCLK*%
X38700000Y-10300000D03*
%TD*%
D16*
%TO.P,J3,1,Pin_1*%
%TO.N,MOSI*%
X47575000Y-18850000D03*
%TO.P,J3,2,Pin_2*%
%TO.N,MISO*%
X47575000Y-16310000D03*
%TO.P,J3,3,Pin_3*%
%TO.N,SCLK*%
X47575000Y-13770000D03*
%TO.P,J3,4,Pin_4*%
%TO.N,PS*%
X47575000Y-11230000D03*
%TO.P,J3,5,Pin_5*%
%TO.N,GND*%
X47575000Y-8690000D03*
%TO.P,J3,6,Pin_6*%
%TO.N,5V*%
X47575000Y-6150000D03*
%TD*%
D13*
%TO.P,C11,1*%
%TO.N,VDD*%
X34000000Y-7320000D03*
%TO.P,C11,2*%
%TO.N,GND*%
X34000000Y-8290000D03*
%TD*%
D14*
%TO.P,C4,1*%
%TO.N,OUT2*%
X14165000Y-8850000D03*
%TO.P,C4,2*%
%TO.N,GND*%
X15135000Y-8850000D03*
%TD*%
D17*
%TO.P,C8,1*%
%TO.N,5V*%
X43950000Y-4285000D03*
%TO.P,C8,2*%
%TO.N,GND*%
X43950000Y-3315000D03*
%TD*%
D14*
%TO.P,C12,1*%
%TO.N,5V*%
X17465000Y-7950000D03*
%TO.P,C12,2*%
%TO.N,GND*%
X18435000Y-7950000D03*
%TD*%
D18*
%TO.P,U2,1,IN*%
%TO.N,5V*%
X42550000Y-2450000D03*
%TO.P,U2,2,GND*%
%TO.N,GND*%
X42550000Y-3400000D03*
%TO.P,U2,3,EN*%
%TO.N,5V*%
X42550000Y-4350000D03*
%TO.P,U2,4,NC*%
%TO.N,unconnected-(U2-NC-Pad4)*%
X40350000Y-4350000D03*
%TO.P,U2,5,OUT*%
%TO.N,VDD*%
X40350000Y-2450000D03*
%TD*%
D19*
%TO.P,R2,1*%
%TO.N,SD_MAX*%
X24135000Y-8400000D03*
%TO.P,R2,2*%
%TO.N,Net-(U1-SD_MODE)*%
X23165000Y-8400000D03*
%TD*%
D17*
%TO.P,C15,1*%
%TO.N,Net-(U3-NRST)*%
X35200000Y-9285000D03*
%TO.P,C15,2*%
%TO.N,GND*%
X35200000Y-8315000D03*
%TD*%
D20*
%TO.P,U3,1,PB7/PB8*%
%TO.N,Net-(U3-PB7{slash}PB8)*%
X32012500Y-5767500D03*
%TO.P,U3,2,PC14/PB9*%
%TO.N,unconnected-(U3-PC14{slash}PB9-Pad2)*%
X32012500Y-6417500D03*
%TO.P,U3,3,PC15*%
%TO.N,unconnected-(U3-PC15-Pad3)*%
X32012500Y-7067500D03*
%TO.P,U3,4,VDD*%
%TO.N,VDD*%
X32012500Y-7717500D03*
%TO.P,U3,5,VSS*%
%TO.N,GND*%
X32012500Y-8367500D03*
%TO.P,U3,6,NRST*%
%TO.N,Net-(U3-NRST)*%
X32012500Y-9017500D03*
%TO.P,U3,7,PA0*%
%TO.N,Net-(U3-PA0)*%
X32012500Y-9667500D03*
%TO.P,U3,8,PA1*%
%TO.N,Net-(U3-PA1)*%
X32012500Y-10317500D03*
%TO.P,U3,9,PA2*%
%TO.N,unconnected-(U3-PA2-Pad9)*%
X32012500Y-10967500D03*
%TO.P,U3,10,PA3*%
%TO.N,Net-(U3-PA3)*%
X32012500Y-11617500D03*
%TO.P,U3,11,PA4*%
%TO.N,I2S_WS*%
X26287500Y-11617500D03*
%TO.P,U3,12,PA5*%
%TO.N,I2S_CK*%
X26287500Y-10967500D03*
%TO.P,U3,13,PA6*%
%TO.N,I2S_MCK*%
X26287500Y-10317500D03*
%TO.P,U3,14,PA7*%
%TO.N,I2S_SD*%
X26287500Y-9667500D03*
%TO.P,U3,15,PB0/PB1/PB2/PA8*%
%TO.N,FILTER*%
X26287500Y-9017500D03*
%TO.P,U3,16,PA11/PA9*%
%TO.N,SD_MAX*%
X26287500Y-8367500D03*
%TO.P,U3,17,PA12/PA10*%
%TO.N,SD_PAM*%
X26287500Y-7717500D03*
%TO.P,U3,18,PA13*%
%TO.N,SWDIO*%
X26287500Y-7067500D03*
%TO.P,U3,19,PA14/PA15*%
%TO.N,SWDCLK*%
X26287500Y-6417500D03*
%TO.P,U3,20,PB3/PB4/PB5/PB6*%
%TO.N,unconnected-(U3-PB3{slash}PB4{slash}PB5{slash}PB6-Pad20)*%
X26287500Y-5767500D03*
%TD*%
D21*
%TO.P,U1,A1,SD_MODE*%
%TO.N,Net-(U1-SD_MODE)*%
X18250000Y-9950000D03*
%TO.P,U1,A2,VDD*%
%TO.N,5V*%
X17850000Y-9950000D03*
%TO.P,U1,A3,OUTP*%
%TO.N,OUT2*%
X17450000Y-9950000D03*
%TO.P,U1,B1,DIN*%
%TO.N,I2S_SD*%
X18250000Y-10350000D03*
%TO.P,U1,B2,GAIN_SLOT*%
%TO.N,unconnected-(U1-GAIN_SLOT-PadB2)*%
X17850000Y-10350000D03*
%TO.P,U1,B3,OUTN*%
%TO.N,OUT1*%
X17450000Y-10350000D03*
%TO.P,U1,C1,BCLK*%
%TO.N,I2S_CK*%
X18250000Y-10750000D03*
%TO.P,U1,C2,GND*%
%TO.N,GND*%
X17850000Y-10750000D03*
%TO.P,U1,C3,LRCLK*%
%TO.N,I2S_WS*%
X17450000Y-10750000D03*
%TD*%
D22*
%TO.N,VDD*%
X37500000Y-2450000D03*
X34950000Y-7100000D03*
%TO.N,GND*%
X43550000Y-7250000D03*
X45350000Y-6150000D03*
X29000000Y-21450000D03*
X18550000Y-4750000D03*
X36600000Y-8200000D03*
X3350000Y-16000000D03*
X9400000Y-12824264D03*
X10000000Y-6900000D03*
X15150000Y-15300000D03*
X28150000Y-5900000D03*
X6550000Y-3750000D03*
X24850000Y-14150000D03*
X14700000Y-21500000D03*
X9900000Y-9750000D03*
X2800000Y-12100000D03*
X46050000Y-2350000D03*
X52750000Y-16800000D03*
X18350000Y-6600000D03*
X36800000Y-3700000D03*
X9600000Y-15450000D03*
X18300000Y-11600000D03*
X52600000Y-9200000D03*
X49350000Y-7000000D03*
X6750000Y-20100000D03*
X45800000Y-15300000D03*
X46300000Y-21550000D03*
X45650000Y-17850000D03*
X41150000Y-3420000D03*
X30350000Y-14000000D03*
X25650000Y-3150000D03*
X11200000Y-20000000D03*
X40500000Y-13150000D03*
X10050000Y-17922792D03*
X34300000Y-1900000D03*
X36300000Y-14250000D03*
X29950000Y-11250000D03*
X19600000Y-7600000D03*
X5500000Y-7500000D03*
X16350000Y-8550000D03*
X51300000Y-15450000D03*
X42500000Y-8950000D03*
X42200000Y-10750000D03*
X15800000Y-12200000D03*
%TO.N,5V*%
X46287500Y-7437500D03*
X9337500Y-7962500D03*
%TO.N,MOSI*%
X4650000Y-13750000D03*
X50550000Y-10650000D03*
X42300000Y-7450000D03*
%TO.N,MISO*%
X50750000Y-12200000D03*
X38650000Y-13650000D03*
X4881626Y-12550000D03*
%TO.N,SCLK*%
X49750000Y-13300000D03*
X7525000Y-13650000D03*
X40650000Y-10250000D03*
%TO.N,PS*%
X40600000Y-11650000D03*
X7525000Y-11230000D03*
X42923528Y-14773528D03*
%TO.N,SWDIO*%
X23800000Y-7100000D03*
%TO.N,SWDCLK*%
X24650000Y-6250000D03*
%TO.N,Interrupt5V*%
X44600000Y-8000000D03*
X16557475Y-14192525D03*
%TO.N,OUT2*%
X11750000Y-5400000D03*
%TO.N,OUT1*%
X12800000Y-8350000D03*
%TD*%
D23*
%TO.N,VDD*%
X33602500Y-7717500D02*
X34000000Y-7320000D01*
X40350000Y-2450000D02*
X38950000Y-2450000D01*
X34220000Y-7100000D02*
X34000000Y-7320000D01*
X32012500Y-7717500D02*
X33602500Y-7717500D01*
X34950000Y-7100000D02*
X34220000Y-7100000D01*
X38950000Y-2450000D02*
X37500000Y-2450000D01*
%TO.N,GND*%
X43950000Y-3315000D02*
X42635000Y-3315000D01*
D24*
X40598528Y-16250000D02*
X15085000Y-16250000D01*
X6649264Y-12824264D02*
X9400000Y-12824264D01*
X5920736Y-12824264D02*
X5875000Y-12870000D01*
X10050000Y-17922792D02*
X11277208Y-17922792D01*
X45941764Y-18791764D02*
X46175000Y-18558528D01*
D23*
X32012500Y-8367500D02*
X33922500Y-8367500D01*
X48875000Y-10450000D02*
X47832500Y-9407500D01*
D24*
X5875000Y-12050000D02*
X6649264Y-12824264D01*
D23*
X44949999Y-11898528D02*
X44950000Y-11898528D01*
X14250000Y-10885000D02*
X11150000Y-7785000D01*
D24*
X6649264Y-12824264D02*
X5920736Y-12824264D01*
X7525000Y-8690000D02*
X5875000Y-10340000D01*
X46857500Y-9407500D02*
X44950000Y-11315000D01*
D23*
X41095584Y-17450000D02*
X46515584Y-12030000D01*
X48875000Y-12030000D02*
X48875000Y-10450000D01*
X41150000Y-3420000D02*
X42530000Y-3420000D01*
D24*
X8250000Y-14670000D02*
X9721472Y-14670000D01*
X44950000Y-11315000D02*
X44950000Y-11898528D01*
D23*
X34025000Y-8315000D02*
X34000000Y-8290000D01*
X11150000Y-7785000D02*
X11150000Y-5151471D01*
D24*
X13204416Y-19850000D02*
X17800000Y-19850000D01*
D23*
X42530000Y-3420000D02*
X42550000Y-3400000D01*
X35200000Y-8315000D02*
X34025000Y-8315000D01*
D24*
X6450000Y-14670000D02*
X8250000Y-14670000D01*
X5875000Y-14670000D02*
X6450000Y-14670000D01*
D23*
X40598528Y-16250000D02*
X40598528Y-16249999D01*
D24*
X44883528Y-19850000D02*
X45941764Y-18791764D01*
D23*
X47832500Y-9407500D02*
X46857500Y-9407500D01*
D24*
X15085000Y-16250000D02*
X7525000Y-8690000D01*
X27250000Y-18650000D02*
X41700000Y-18650000D01*
D23*
X11150000Y-5151471D02*
X11501471Y-4800000D01*
D24*
X47575000Y-8690000D02*
X46857500Y-9407500D01*
X5875000Y-10340000D02*
X5875000Y-12050000D01*
D23*
X42635000Y-3315000D02*
X42550000Y-3400000D01*
D24*
X11502208Y-18147792D02*
X13204416Y-19850000D01*
X13701472Y-18650000D02*
X27250000Y-18650000D01*
X6587792Y-17922792D02*
X10050000Y-17922792D01*
X9721472Y-14670000D02*
X11275736Y-16224264D01*
X17800000Y-19850000D02*
X44883528Y-19850000D01*
D23*
X38950000Y-3420000D02*
X41150000Y-3420000D01*
D25*
X17850000Y-11150000D02*
X17850000Y-10750000D01*
D23*
X11501471Y-4800000D02*
X12050000Y-4800000D01*
D24*
X11277208Y-17922792D02*
X11502208Y-18147792D01*
X11275736Y-16224264D02*
X13701472Y-18650000D01*
D23*
X12050000Y-4800000D02*
X15135000Y-7885000D01*
D24*
X15900000Y-17450000D02*
X41095584Y-17450000D01*
D23*
X33922500Y-8367500D02*
X34000000Y-8290000D01*
D24*
X9400000Y-12824264D02*
X9825736Y-12824264D01*
X9825736Y-12824264D02*
X14451472Y-17450000D01*
X5875000Y-12870000D02*
X5875000Y-14670000D01*
D23*
X15135000Y-7885000D02*
X15135000Y-8850000D01*
X40598528Y-16249999D02*
X44949999Y-11898528D01*
X46515584Y-12030000D02*
X48875000Y-12030000D01*
X18300000Y-11600000D02*
X17850000Y-11150000D01*
D24*
X41700000Y-18650000D02*
X44900000Y-15450000D01*
X14451472Y-17450000D02*
X15900000Y-17450000D01*
D23*
%TO.N,5V*%
X17465000Y-7950000D02*
X17465000Y-7565000D01*
X17465000Y-9065000D02*
X17850000Y-9450000D01*
X44041948Y-2450000D02*
X44950000Y-3358052D01*
D24*
X7525000Y-6150000D02*
X9337500Y-7962500D01*
D23*
X42550000Y-2450000D02*
X44041948Y-2450000D01*
D24*
X9337500Y-7962500D02*
X16825000Y-15450000D01*
X44100000Y-11900000D02*
X44100000Y-9625000D01*
D23*
X44950000Y-4285000D02*
X45710000Y-4285000D01*
D24*
X40550000Y-15450000D02*
X44100000Y-11900000D01*
D23*
X43950000Y-4285000D02*
X44950000Y-4285000D01*
D24*
X46287500Y-7437500D02*
X47575000Y-6150000D01*
D23*
X45710000Y-4285000D02*
X47575000Y-6150000D01*
X43885000Y-4350000D02*
X43950000Y-4285000D01*
X42550000Y-4350000D02*
X43885000Y-4350000D01*
X10275000Y-3400000D02*
X7525000Y-6150000D01*
X17465000Y-7950000D02*
X17465000Y-9065000D01*
X44950000Y-3358052D02*
X44950000Y-4285000D01*
D24*
X16825000Y-15450000D02*
X40550000Y-15450000D01*
D23*
X13300000Y-3400000D02*
X10275000Y-3400000D01*
D25*
X17850000Y-9950000D02*
X17850000Y-9450000D01*
D23*
X17465000Y-7565000D02*
X13300000Y-3400000D01*
D24*
X44100000Y-9625000D02*
X46287500Y-7437500D01*
D23*
%TO.N,MOSI*%
X6807893Y-18850000D02*
X4650000Y-16692107D01*
D24*
X11355888Y-18850000D02*
X7525000Y-18850000D01*
D23*
X50550000Y-10650000D02*
X51300000Y-10650000D01*
X37735000Y-5800000D02*
X38000000Y-5800000D01*
X52350000Y-15450000D02*
X48950000Y-18850000D01*
D24*
X12955888Y-20450000D02*
X11355888Y-18850000D01*
D23*
X48950000Y-18850000D02*
X47575000Y-18850000D01*
X52350000Y-11700000D02*
X52350000Y-15450000D01*
D24*
X47575000Y-18850000D02*
X45975000Y-20450000D01*
D23*
X7525000Y-18850000D02*
X6807893Y-18850000D01*
D24*
X45975000Y-20450000D02*
X12955888Y-20450000D01*
D23*
X41950000Y-7100000D02*
X39300000Y-7100000D01*
X42300000Y-7450000D02*
X41950000Y-7100000D01*
X38000000Y-5800000D02*
X39300000Y-7100000D01*
X4650000Y-16692107D02*
X4650000Y-13750000D01*
X51300000Y-10650000D02*
X52350000Y-11700000D01*
%TO.N,MISO*%
X51300000Y-14350000D02*
X51300000Y-12750000D01*
D24*
X47575000Y-16310000D02*
X45790000Y-16310000D01*
D23*
X4881626Y-12550000D02*
X5100000Y-12550000D01*
X38650000Y-12700000D02*
X38700000Y-12650000D01*
D24*
X13452944Y-19250000D02*
X10512944Y-16310000D01*
X10512944Y-16310000D02*
X7525000Y-16310000D01*
D23*
X51300000Y-12750000D02*
X50750000Y-12200000D01*
X38650000Y-13650000D02*
X38650000Y-12700000D01*
X49340000Y-16310000D02*
X51300000Y-14350000D01*
X5100000Y-12550000D02*
X5250000Y-12700000D01*
X6807893Y-16310000D02*
X5250000Y-14752107D01*
X7525000Y-16310000D02*
X6807893Y-16310000D01*
D24*
X42850000Y-19250000D02*
X13452944Y-19250000D01*
D23*
X5250000Y-14752107D02*
X5250000Y-12700000D01*
X47575000Y-16310000D02*
X49340000Y-16310000D01*
D24*
X45790000Y-16310000D02*
X42850000Y-19250000D01*
%TO.N,SCLK*%
X47575000Y-13770000D02*
X45624112Y-13770000D01*
X13950000Y-18050000D02*
X9670000Y-13770000D01*
X9670000Y-13770000D02*
X7525000Y-13770000D01*
D23*
X47575000Y-13770000D02*
X49280000Y-13770000D01*
X40600000Y-10300000D02*
X40650000Y-10250000D01*
X38700000Y-10300000D02*
X40600000Y-10300000D01*
X49280000Y-13770000D02*
X49750000Y-13300000D01*
D24*
X41344112Y-18050000D02*
X13950000Y-18050000D01*
X45624112Y-13770000D02*
X41344112Y-18050000D01*
D23*
%TO.N,PS*%
X40600000Y-11650000D02*
X38935000Y-11650000D01*
D24*
X9080000Y-11230000D02*
X14700000Y-16850000D01*
X40847056Y-16850000D02*
X42923528Y-14773528D01*
X46467056Y-11230000D02*
X47575000Y-11230000D01*
X42923528Y-14773528D02*
X46467056Y-11230000D01*
X14700000Y-16850000D02*
X40847056Y-16850000D01*
D23*
X38935000Y-11650000D02*
X38765000Y-11480000D01*
D24*
X7525000Y-11230000D02*
X9080000Y-11230000D01*
D23*
%TO.N,SWDIO*%
X23800000Y-7100000D02*
X24300000Y-7100000D01*
X24332500Y-7067500D02*
X26287500Y-7067500D01*
X24300000Y-7100000D02*
X24332500Y-7067500D01*
%TO.N,SWDCLK*%
X24817500Y-6417500D02*
X24650000Y-6250000D01*
X26287500Y-6417500D02*
X24817500Y-6417500D01*
%TO.N,Net-(U1-SD_MODE)*%
X18450000Y-9750000D02*
X19800000Y-8400000D01*
X19800000Y-8400000D02*
X23165000Y-8400000D01*
D25*
X18250000Y-9950000D02*
X18450000Y-9750000D01*
D23*
%TO.N,SD_MAX*%
X26287500Y-8367500D02*
X24162500Y-8367500D01*
%TO.N,Net-(U3-PB7{slash}PB8)*%
X36765000Y-5800000D02*
X32045000Y-5800000D01*
X32045000Y-5800000D02*
X32012500Y-5767500D01*
%TO.N,I2S_CK*%
X26287500Y-10967500D02*
X18667500Y-10967500D01*
D25*
X18450000Y-10750000D02*
X18500000Y-10800000D01*
X18250000Y-10750000D02*
X18450000Y-10750000D01*
D23*
X18667500Y-10967500D02*
X18500000Y-10800000D01*
%TO.N,Interrupt5V*%
X43450000Y-11650000D02*
X43450000Y-9150000D01*
X40150000Y-14950000D02*
X43450000Y-11650000D01*
X17314950Y-14950000D02*
X40150000Y-14950000D01*
X16557475Y-14192525D02*
X17314950Y-14950000D01*
X43450000Y-9150000D02*
X44600000Y-8000000D01*
D25*
%TO.N,I2S_SD*%
X18250000Y-10350000D02*
X18650000Y-10350000D01*
D23*
X18700000Y-10400000D02*
X24817502Y-10400000D01*
X24817502Y-10400000D02*
X25158751Y-10058751D01*
X25550001Y-9667500D02*
X26287500Y-9667500D01*
X25158751Y-10058751D02*
X25550001Y-9667500D01*
D25*
X18650000Y-10350000D02*
X18700000Y-10400000D01*
D23*
%TO.N,I2S_WS*%
X26287500Y-11617500D02*
X20182500Y-11617500D01*
D25*
X17150000Y-11050000D02*
X17450000Y-10750000D01*
D23*
X20182500Y-11617500D02*
X19500000Y-12300000D01*
X17150000Y-11050000D02*
X17150000Y-11400000D01*
X17150000Y-11400000D02*
X18050000Y-12300000D01*
X18050000Y-12300000D02*
X19500000Y-12300000D01*
%TO.N,Net-(U3-PA0)*%
X33462500Y-9667500D02*
X32012500Y-9667500D01*
X37730000Y-10300000D02*
X34095000Y-10300000D01*
X34095000Y-10300000D02*
X33462500Y-9667500D01*
%TO.N,Net-(U3-NRST)*%
X34932500Y-9017500D02*
X35200000Y-9285000D01*
X32012500Y-9017500D02*
X34932500Y-9017500D01*
%TO.N,Net-(U3-PA1)*%
X33546814Y-10317500D02*
X34709314Y-11480000D01*
X34709314Y-11480000D02*
X37795000Y-11480000D01*
X32012500Y-10317500D02*
X33546814Y-10317500D01*
%TO.N,Net-(U3-PA3)*%
X33045000Y-12650000D02*
X37730000Y-12650000D01*
X32012500Y-11617500D02*
X33045000Y-12650000D01*
D25*
%TO.N,OUT2*%
X17215183Y-9715183D02*
X17450000Y-9950000D01*
X17184817Y-9715183D02*
X17215183Y-9715183D01*
D23*
X17184817Y-9715183D02*
X15030183Y-9715183D01*
X15030183Y-9715183D02*
X14165000Y-8850000D01*
X14165000Y-8850000D02*
X14165000Y-7815000D01*
X14165000Y-7815000D02*
X11750000Y-5400000D01*
%TO.N,OUT1*%
X14250000Y-9915000D02*
X14735000Y-10400000D01*
X12800000Y-8350000D02*
X12800000Y-8450000D01*
X12800000Y-8450000D02*
X14250000Y-9900000D01*
X14250000Y-9900000D02*
X14250000Y-9915000D01*
X14735000Y-10400000D02*
X17184817Y-10400000D01*
D25*
X17234817Y-10350000D02*
X17450000Y-10350000D01*
X17184817Y-10400000D02*
X17234817Y-10350000D01*
%TD*%
%TA.AperFunction,Conductor*%
%TO.N,GND*%
G36*
X18317820Y-11088971D02*
G01*
X18362603Y-11095233D01*
X18389266Y-11114237D01*
X18482989Y-11207960D01*
X18482991Y-11207961D01*
X18482993Y-11207963D01*
X18551508Y-11247520D01*
X18551506Y-11247520D01*
X18551510Y-11247521D01*
X18551512Y-11247522D01*
X18627938Y-11268000D01*
X18707062Y-11268000D01*
X19868022Y-11268000D01*
X19926213Y-11286907D01*
X19962177Y-11336407D01*
X19962177Y-11397593D01*
X19938027Y-11437001D01*
X19654569Y-11720460D01*
X19404525Y-11970504D01*
X19350008Y-11998281D01*
X19334521Y-11999500D01*
X18215479Y-11999500D01*
X18157288Y-11980593D01*
X18145475Y-11970504D01*
X17728975Y-11554004D01*
X17701198Y-11499487D01*
X17710769Y-11439055D01*
X17754034Y-11395790D01*
X17798979Y-11385000D01*
X17927100Y-11385000D01*
X17927105Y-11384999D01*
X18076827Y-11348096D01*
X18195101Y-11286020D01*
X18163585Y-11254504D01*
X18135808Y-11199987D01*
X18145379Y-11139555D01*
X18188644Y-11096290D01*
X18233589Y-11085500D01*
X18317820Y-11085500D01*
X18317820Y-11088971D01*
G37*
%TD.AperFunction*%
%TA.AperFunction,Conductor*%
G36*
X51502992Y-100681D02*
G01*
X51783256Y-117633D01*
X51795111Y-119073D01*
X51958223Y-148964D01*
X51983638Y-153622D01*
X52037468Y-182709D01*
X52063920Y-237880D01*
X52052891Y-298064D01*
X52008593Y-340270D01*
X51965793Y-350000D01*
X50999997Y-350000D01*
X50299998Y-650000D01*
X49799999Y-1050000D01*
X49600005Y-1349990D01*
X49599998Y-1350002D01*
X49400001Y-1749996D01*
X49300000Y-2050000D01*
X49300000Y-3050002D01*
X49599997Y-3749995D01*
X49600000Y-3750000D01*
X50015867Y-4249041D01*
X50100000Y-4350000D01*
X50900000Y-4750000D01*
X51899998Y-4750000D01*
X51900000Y-4750000D01*
X52500000Y-4650000D01*
X53100000Y-4150000D01*
X53500000Y-3650000D01*
X53700000Y-2950000D01*
X53700000Y-2478186D01*
X53718907Y-2419995D01*
X53768407Y-2384031D01*
X53829593Y-2384031D01*
X53879093Y-2419995D01*
X53897819Y-2472209D01*
X53899319Y-2497007D01*
X53899500Y-2502984D01*
X53899500Y-5019991D01*
X53914798Y-5056926D01*
X53914799Y-5056927D01*
X53914800Y-5056929D01*
X53943071Y-5085200D01*
X53943072Y-5085200D01*
X53943073Y-5085201D01*
X53980008Y-5100500D01*
X53980009Y-5100500D01*
X55100500Y-5100500D01*
X55158691Y-5119407D01*
X55194655Y-5168907D01*
X55199500Y-5199500D01*
X55199500Y-19800500D01*
X55180593Y-19858691D01*
X55131093Y-19894655D01*
X55100500Y-19899500D01*
X53980008Y-19899500D01*
X53943073Y-19914798D01*
X53914798Y-19943073D01*
X53899500Y-19980008D01*
X53899500Y-22497015D01*
X53899319Y-22502992D01*
X53897819Y-22527790D01*
X53875433Y-22584733D01*
X53823852Y-22617643D01*
X53762778Y-22613949D01*
X53715540Y-22575062D01*
X53700000Y-22521813D01*
X53700000Y-21900000D01*
X53500000Y-21400001D01*
X53500000Y-21400000D01*
X53100000Y-20900000D01*
X52938103Y-20770482D01*
X52844888Y-20695910D01*
X52600000Y-20500000D01*
X52000000Y-20300000D01*
X51000000Y-20300000D01*
X50999997Y-20300000D01*
X50299998Y-20600000D01*
X49799999Y-21000000D01*
X49600005Y-21299990D01*
X49599998Y-21300002D01*
X49400001Y-21699996D01*
X49300000Y-22000000D01*
X49300000Y-23000002D01*
X49599997Y-23699995D01*
X49600000Y-23700000D01*
X50061837Y-24254205D01*
X50100000Y-24300000D01*
X50900000Y-24700000D01*
X51521813Y-24700000D01*
X51580004Y-24718907D01*
X51615968Y-24768407D01*
X51615968Y-24829593D01*
X51580004Y-24879093D01*
X51527790Y-24897819D01*
X51502992Y-24899319D01*
X51497015Y-24899500D01*
X8277877Y-24899500D01*
X8219686Y-24880593D01*
X8183722Y-24831093D01*
X8183722Y-24769907D01*
X8219686Y-24720407D01*
X8242114Y-24708185D01*
X8375986Y-24656322D01*
X8375991Y-24656319D01*
X8561126Y-24541688D01*
X8561129Y-24541686D01*
X8722052Y-24394987D01*
X8853283Y-24221209D01*
X8853288Y-24221200D01*
X8930605Y-24065927D01*
X8973467Y-24022265D01*
X9033808Y-24012135D01*
X9088579Y-24039407D01*
X9104962Y-24060555D01*
X9137805Y-24117440D01*
X9231239Y-24221209D01*
X9254463Y-24247003D01*
X9260950Y-24254207D01*
X9409839Y-24362381D01*
X9409843Y-24362383D01*
X9409845Y-24362384D01*
X9465485Y-24387156D01*
X9577966Y-24437236D01*
X9757981Y-24475500D01*
X9757983Y-24475500D01*
X9942017Y-24475500D01*
X9942019Y-24475500D01*
X10122034Y-24437236D01*
X10290161Y-24362381D01*
X10439050Y-24254207D01*
X10562195Y-24117440D01*
X10654214Y-23958059D01*
X10711085Y-23783029D01*
X10730322Y-23600000D01*
X10969678Y-23600000D01*
X10986483Y-23759893D01*
X10988916Y-23783034D01*
X11045784Y-23958054D01*
X11045790Y-23958068D01*
X11082855Y-24022265D01*
X11137805Y-24117440D01*
X11231239Y-24221209D01*
X11254463Y-24247003D01*
X11260950Y-24254207D01*
X11409839Y-24362381D01*
X11409843Y-24362383D01*
X11409845Y-24362384D01*
X11465485Y-24387156D01*
X11577966Y-24437236D01*
X11757981Y-24475500D01*
X11757983Y-24475500D01*
X11942017Y-24475500D01*
X11942019Y-24475500D01*
X12122034Y-24437236D01*
X12290161Y-24362381D01*
X12439050Y-24254207D01*
X12562195Y-24117440D01*
X12654214Y-23958059D01*
X12711085Y-23783029D01*
X12730322Y-23600000D01*
X12711085Y-23416971D01*
X12654214Y-23241941D01*
X12654211Y-23241936D01*
X12654209Y-23241931D01*
X12604704Y-23156187D01*
X12562195Y-23082560D01*
X12439050Y-22945793D01*
X12290161Y-22837619D01*
X12290157Y-22837617D01*
X12290154Y-22837615D01*
X12122036Y-22762765D01*
X12122034Y-22762764D01*
X12122031Y-22762763D01*
X12122030Y-22762763D01*
X12075135Y-22752795D01*
X11942019Y-22724500D01*
X11757981Y-22724500D01*
X11660797Y-22745157D01*
X11577969Y-22762763D01*
X11577963Y-22762765D01*
X11409845Y-22837615D01*
X11409842Y-22837617D01*
X11409839Y-22837618D01*
X11409839Y-22837619D01*
X11397245Y-22846769D01*
X11260948Y-22945794D01*
X11137803Y-23082562D01*
X11137803Y-23082563D01*
X11045790Y-23241931D01*
X11045784Y-23241945D01*
X10988916Y-23416965D01*
X10988915Y-23416969D01*
X10988915Y-23416971D01*
X10969678Y-23600000D01*
X10730322Y-23600000D01*
X10711085Y-23416971D01*
X10654214Y-23241941D01*
X10654211Y-23241936D01*
X10654209Y-23241931D01*
X10604704Y-23156187D01*
X10562195Y-23082560D01*
X10439050Y-22945793D01*
X10290161Y-22837619D01*
X10290157Y-22837617D01*
X10290154Y-22837615D01*
X10122036Y-22762765D01*
X10122034Y-22762764D01*
X10122031Y-22762763D01*
X10122030Y-22762763D01*
X10075135Y-22752795D01*
X9942019Y-22724500D01*
X9757981Y-22724500D01*
X9660797Y-22745157D01*
X9577969Y-22762763D01*
X9577963Y-22762765D01*
X9409845Y-22837615D01*
X9409842Y-22837617D01*
X9409839Y-22837618D01*
X9409839Y-22837619D01*
X9397245Y-22846769D01*
X9260948Y-22945794D01*
X9137804Y-23082561D01*
X9104962Y-23139445D01*
X9059492Y-23180385D01*
X8998642Y-23186780D01*
X8945654Y-23156187D01*
X8930605Y-23134072D01*
X8853288Y-22978799D01*
X8853283Y-22978790D01*
X8722052Y-22805012D01*
X8561129Y-22658313D01*
X8561126Y-22658311D01*
X8375991Y-22543680D01*
X8375986Y-22543677D01*
X8172932Y-22465013D01*
X8172926Y-22465011D01*
X8100000Y-22451379D01*
X8100000Y-23319670D01*
X8080255Y-23299925D01*
X7994745Y-23250556D01*
X7899370Y-23225000D01*
X7800630Y-23225000D01*
X7705255Y-23250556D01*
X7619745Y-23299925D01*
X7600000Y-23319670D01*
X7600000Y-22451379D01*
X7599999Y-22451379D01*
X7527073Y-22465011D01*
X7527067Y-22465013D01*
X7324013Y-22543677D01*
X7324008Y-22543680D01*
X7138873Y-22658311D01*
X7138870Y-22658313D01*
X6977944Y-22805015D01*
X6895383Y-22914343D01*
X6845227Y-22949386D01*
X6784052Y-22948255D01*
X6735225Y-22911382D01*
X6719283Y-22873999D01*
X6713867Y-22846769D01*
X6669552Y-22780448D01*
X6643088Y-22762765D01*
X6603233Y-22736134D01*
X6603231Y-22736133D01*
X6603228Y-22736132D01*
X6603227Y-22736132D01*
X6544758Y-22724501D01*
X6544748Y-22724500D01*
X5155252Y-22724500D01*
X5155251Y-22724500D01*
X5155241Y-22724501D01*
X5096772Y-22736132D01*
X5096766Y-22736134D01*
X5030451Y-22780445D01*
X5030445Y-22780451D01*
X4986134Y-22846766D01*
X4986132Y-22846772D01*
X4974501Y-22905241D01*
X4974500Y-22905253D01*
X4974500Y-24294746D01*
X4974501Y-24294758D01*
X4986132Y-24353227D01*
X4986134Y-24353233D01*
X4992249Y-24362384D01*
X5030448Y-24419552D01*
X5096769Y-24463867D01*
X5141231Y-24472711D01*
X5155241Y-24475498D01*
X5155246Y-24475498D01*
X5155252Y-24475500D01*
X5155253Y-24475500D01*
X6544747Y-24475500D01*
X6544748Y-24475500D01*
X6603231Y-24463867D01*
X6669552Y-24419552D01*
X6713867Y-24353231D01*
X6719283Y-24326001D01*
X6749178Y-24272619D01*
X6804743Y-24247003D01*
X6864753Y-24258940D01*
X6895384Y-24285656D01*
X6977947Y-24394987D01*
X7138870Y-24541686D01*
X7138873Y-24541688D01*
X7324008Y-24656319D01*
X7324013Y-24656322D01*
X7457886Y-24708185D01*
X7505317Y-24746837D01*
X7520971Y-24805986D01*
X7498868Y-24863040D01*
X7447451Y-24896205D01*
X7422123Y-24899500D01*
X2502985Y-24899500D01*
X2497008Y-24899319D01*
X2472210Y-24897819D01*
X2415267Y-24875433D01*
X2382357Y-24823852D01*
X2386051Y-24762778D01*
X2424938Y-24715540D01*
X2478187Y-24700000D01*
X2899998Y-24700000D01*
X2900000Y-24700000D01*
X3500000Y-24600000D01*
X4100000Y-24100000D01*
X4500000Y-23600000D01*
X4700000Y-22900000D01*
X4700000Y-21900000D01*
X4500000Y-21400000D01*
X4100000Y-20900000D01*
X3938103Y-20770482D01*
X3844888Y-20695910D01*
X3600000Y-20500000D01*
X3000000Y-20300000D01*
X2000000Y-20300000D01*
X1999997Y-20300000D01*
X1299998Y-20600000D01*
X799999Y-21000000D01*
X600005Y-21299990D01*
X599998Y-21300002D01*
X400001Y-21699996D01*
X300000Y-22000000D01*
X300000Y-22521813D01*
X281093Y-22580004D01*
X231593Y-22615968D01*
X170407Y-22615968D01*
X120907Y-22580004D01*
X102181Y-22527790D01*
X100681Y-22502992D01*
X100500Y-22497015D01*
X100500Y-19980008D01*
X85201Y-19943073D01*
X85200Y-19943072D01*
X85200Y-19943071D01*
X56929Y-19914800D01*
X56927Y-19914799D01*
X56926Y-19914798D01*
X19992Y-19899500D01*
X19991Y-19899500D01*
X-401000Y-19899500D01*
X-459191Y-19880593D01*
X-495155Y-19831093D01*
X-500000Y-19800500D01*
X-500000Y-13749997D01*
X4144353Y-13749997D01*
X4144353Y-13750002D01*
X4164834Y-13892456D01*
X4178953Y-13923371D01*
X4224623Y-14023373D01*
X4300819Y-14111309D01*
X4323509Y-14137494D01*
X4321471Y-14139259D01*
X4346925Y-14181458D01*
X4349500Y-14203893D01*
X4349500Y-16731671D01*
X4369978Y-16808095D01*
X4382480Y-16829748D01*
X4382480Y-16829749D01*
X4409538Y-16876615D01*
X4409540Y-16876618D01*
X6045505Y-18512583D01*
X6073281Y-18567098D01*
X6074500Y-18582585D01*
X6074500Y-19369746D01*
X6074501Y-19369758D01*
X6086132Y-19428227D01*
X6086133Y-19428231D01*
X6130448Y-19494552D01*
X6196769Y-19538867D01*
X6241231Y-19547711D01*
X6255241Y-19550498D01*
X6255246Y-19550498D01*
X6255252Y-19550500D01*
X6255253Y-19550500D01*
X8794747Y-19550500D01*
X8794748Y-19550500D01*
X8853231Y-19538867D01*
X8919552Y-19494552D01*
X8963867Y-19428231D01*
X8975500Y-19369748D01*
X8975500Y-19349500D01*
X8994407Y-19291309D01*
X9043907Y-19255345D01*
X9074500Y-19250500D01*
X11148987Y-19250500D01*
X11207178Y-19269407D01*
X11218991Y-19279496D01*
X11959487Y-20019991D01*
X12635406Y-20695910D01*
X12635408Y-20695913D01*
X12709975Y-20770480D01*
X12709980Y-20770483D01*
X12801297Y-20823205D01*
X12801301Y-20823207D01*
X12903158Y-20850500D01*
X12903160Y-20850501D01*
X12903161Y-20850501D01*
X13014678Y-20850501D01*
X13014694Y-20850500D01*
X46027725Y-20850500D01*
X46027727Y-20850500D01*
X46129588Y-20823207D01*
X46129590Y-20823205D01*
X46129592Y-20823205D01*
X46220908Y-20770483D01*
X46220908Y-20770482D01*
X46220913Y-20770480D01*
X47411896Y-19579495D01*
X47466413Y-19551719D01*
X47481900Y-19550500D01*
X48594747Y-19550500D01*
X48594748Y-19550500D01*
X48653231Y-19538867D01*
X48719552Y-19494552D01*
X48763867Y-19428231D01*
X48775500Y-19369748D01*
X48775500Y-19249500D01*
X48794407Y-19191309D01*
X48843907Y-19155345D01*
X48874500Y-19150500D01*
X48989563Y-19150500D01*
X48989563Y-19150499D01*
X49065989Y-19130021D01*
X49134511Y-19090460D01*
X49190460Y-19034511D01*
X52590460Y-15634511D01*
X52603107Y-15612604D01*
X52607737Y-15604587D01*
X52630020Y-15565990D01*
X52630021Y-15565989D01*
X52650500Y-15489562D01*
X52650500Y-11660438D01*
X52630021Y-11584011D01*
X52612997Y-11554525D01*
X52590460Y-11515489D01*
X52534511Y-11459539D01*
X52534511Y-11459540D01*
X51484511Y-10409540D01*
X51484508Y-10409538D01*
X51467689Y-10399827D01*
X51467689Y-10399828D01*
X51415989Y-10369979D01*
X51415988Y-10369978D01*
X51415987Y-10369978D01*
X51339564Y-10349500D01*
X51339562Y-10349500D01*
X50997083Y-10349500D01*
X50938892Y-10330593D01*
X50922264Y-10315331D01*
X50902890Y-10292972D01*
X50881128Y-10267857D01*
X50802402Y-10217263D01*
X50760057Y-10190049D01*
X50760054Y-10190047D01*
X50760053Y-10190047D01*
X50760050Y-10190046D01*
X50621964Y-10149500D01*
X50621961Y-10149500D01*
X50478039Y-10149500D01*
X50478035Y-10149500D01*
X50339949Y-10190046D01*
X50339942Y-10190049D01*
X50218873Y-10267855D01*
X50124622Y-10376628D01*
X50064834Y-10507543D01*
X50044353Y-10649997D01*
X50044353Y-10650002D01*
X50064834Y-10792456D01*
X50094217Y-10856794D01*
X50124623Y-10923373D01*
X50177736Y-10984669D01*
X50218873Y-11032144D01*
X50328334Y-11102490D01*
X50339947Y-11109953D01*
X50433734Y-11137491D01*
X50478035Y-11150499D01*
X50478036Y-11150499D01*
X50478039Y-11150500D01*
X50478041Y-11150500D01*
X50621959Y-11150500D01*
X50621961Y-11150500D01*
X50760053Y-11109953D01*
X50881128Y-11032143D01*
X50922264Y-10984668D01*
X50974660Y-10953073D01*
X50997083Y-10950500D01*
X51134521Y-10950500D01*
X51192712Y-10969407D01*
X51204525Y-10979496D01*
X52020504Y-11795475D01*
X52048281Y-11849992D01*
X52049500Y-11865479D01*
X52049500Y-15284521D01*
X52030593Y-15342712D01*
X52020504Y-15354525D01*
X48944504Y-18430525D01*
X48889987Y-18458302D01*
X48829555Y-18448731D01*
X48786290Y-18405466D01*
X48775500Y-18360521D01*
X48775500Y-18330253D01*
X48775498Y-18330241D01*
X48772711Y-18316231D01*
X48763867Y-18271769D01*
X48719552Y-18205448D01*
X48719548Y-18205445D01*
X48653233Y-18161134D01*
X48653231Y-18161133D01*
X48653228Y-18161132D01*
X48653227Y-18161132D01*
X48594758Y-18149501D01*
X48594748Y-18149500D01*
X46555252Y-18149500D01*
X46555251Y-18149500D01*
X46555241Y-18149501D01*
X46496772Y-18161132D01*
X46496766Y-18161134D01*
X46430451Y-18205445D01*
X46430445Y-18205451D01*
X46386134Y-18271766D01*
X46386132Y-18271772D01*
X46374501Y-18330241D01*
X46374500Y-18330253D01*
X46374500Y-19369753D01*
X46383149Y-19413233D01*
X46375957Y-19473994D01*
X46356055Y-19502549D01*
X45838103Y-20020503D01*
X45783586Y-20048281D01*
X45768099Y-20049500D01*
X13162788Y-20049500D01*
X13104597Y-20030593D01*
X13092784Y-20020504D01*
X12363589Y-19291309D01*
X11601801Y-18529520D01*
X11601798Y-18529518D01*
X11601796Y-18529516D01*
X11510479Y-18476794D01*
X11510481Y-18476794D01*
X11470958Y-18466204D01*
X11408615Y-18449500D01*
X11408613Y-18449500D01*
X9074500Y-18449500D01*
X9016309Y-18430593D01*
X8980345Y-18381093D01*
X8975500Y-18350500D01*
X8975500Y-18330253D01*
X8975498Y-18330241D01*
X8972711Y-18316231D01*
X8963867Y-18271769D01*
X8919552Y-18205448D01*
X8919548Y-18205445D01*
X8853233Y-18161134D01*
X8853231Y-18161133D01*
X8853228Y-18161132D01*
X8853227Y-18161132D01*
X8794758Y-18149501D01*
X8794748Y-18149500D01*
X8794747Y-18149500D01*
X6573372Y-18149500D01*
X6515181Y-18130593D01*
X6503368Y-18120504D01*
X4979496Y-16596632D01*
X4951719Y-16542115D01*
X4950500Y-16526628D01*
X4950500Y-15116585D01*
X4969407Y-15058394D01*
X5018907Y-15022430D01*
X5080093Y-15022430D01*
X5119501Y-15046579D01*
X6045505Y-15972583D01*
X6073281Y-16027098D01*
X6074500Y-16042585D01*
X6074500Y-16829746D01*
X6074501Y-16829758D01*
X6083822Y-16876615D01*
X6086133Y-16888231D01*
X6130448Y-16954552D01*
X6196769Y-16998867D01*
X6241231Y-17007711D01*
X6255241Y-17010498D01*
X6255246Y-17010498D01*
X6255252Y-17010500D01*
X6255253Y-17010500D01*
X8794747Y-17010500D01*
X8794748Y-17010500D01*
X8853231Y-16998867D01*
X8919552Y-16954552D01*
X8963867Y-16888231D01*
X8975500Y-16829748D01*
X8975500Y-16809500D01*
X8994407Y-16751309D01*
X9043907Y-16715345D01*
X9074500Y-16710500D01*
X10306043Y-16710500D01*
X10364234Y-16729407D01*
X10376047Y-16739496D01*
X13207031Y-19570480D01*
X13207033Y-19570481D01*
X13207034Y-19570482D01*
X13207035Y-19570483D01*
X13298352Y-19623205D01*
X13298350Y-19623205D01*
X13298354Y-19623206D01*
X13298356Y-19623207D01*
X13400217Y-19650500D01*
X13400219Y-19650500D01*
X42902725Y-19650500D01*
X42902727Y-19650500D01*
X43004588Y-19623207D01*
X43004590Y-19623205D01*
X43004592Y-19623205D01*
X43095908Y-19570483D01*
X43095908Y-19570482D01*
X43095913Y-19570480D01*
X45926897Y-16739496D01*
X45981414Y-16711719D01*
X45996901Y-16710500D01*
X46275500Y-16710500D01*
X46333691Y-16729407D01*
X46369655Y-16778907D01*
X46374500Y-16809500D01*
X46374500Y-16829746D01*
X46374501Y-16829758D01*
X46383822Y-16876615D01*
X46386133Y-16888231D01*
X46430448Y-16954552D01*
X46496769Y-16998867D01*
X46541231Y-17007711D01*
X46555241Y-17010498D01*
X46555246Y-17010498D01*
X46555252Y-17010500D01*
X46555253Y-17010500D01*
X48594747Y-17010500D01*
X48594748Y-17010500D01*
X48653231Y-16998867D01*
X48719552Y-16954552D01*
X48763867Y-16888231D01*
X48775500Y-16829748D01*
X48775500Y-16709500D01*
X48794407Y-16651309D01*
X48843907Y-16615345D01*
X48874500Y-16610500D01*
X49379563Y-16610500D01*
X49379563Y-16610499D01*
X49455989Y-16590021D01*
X49524511Y-16550460D01*
X49580460Y-16494511D01*
X51540460Y-14534511D01*
X51580022Y-14465988D01*
X51600500Y-14389562D01*
X51600500Y-14310438D01*
X51600500Y-12710438D01*
X51580021Y-12634011D01*
X51540460Y-12565489D01*
X51515431Y-12540460D01*
X51484511Y-12509539D01*
X51484511Y-12509540D01*
X51280546Y-12305575D01*
X51252769Y-12251058D01*
X51252558Y-12221482D01*
X51255647Y-12200000D01*
X51254261Y-12190362D01*
X51235165Y-12057543D01*
X51223566Y-12032145D01*
X51175377Y-11926627D01*
X51081128Y-11817857D01*
X51081127Y-11817856D01*
X51081126Y-11817855D01*
X50960057Y-11740049D01*
X50960054Y-11740047D01*
X50960053Y-11740047D01*
X50960050Y-11740046D01*
X50821964Y-11699500D01*
X50821961Y-11699500D01*
X50678039Y-11699500D01*
X50678035Y-11699500D01*
X50539949Y-11740046D01*
X50539942Y-11740049D01*
X50418873Y-11817855D01*
X50324622Y-11926628D01*
X50264834Y-12057543D01*
X50244353Y-12199997D01*
X50244353Y-12200002D01*
X50264834Y-12342456D01*
X50324622Y-12473371D01*
X50324623Y-12473373D01*
X50417032Y-12580019D01*
X50418873Y-12582144D01*
X50447436Y-12600500D01*
X50539947Y-12659953D01*
X50646403Y-12691211D01*
X50678035Y-12700499D01*
X50678036Y-12700499D01*
X50678039Y-12700500D01*
X50678041Y-12700500D01*
X50784521Y-12700500D01*
X50842712Y-12719407D01*
X50854525Y-12729496D01*
X50970504Y-12845475D01*
X50998281Y-12899992D01*
X50999500Y-12915479D01*
X50999500Y-14184521D01*
X50980593Y-14242712D01*
X50970504Y-14254525D01*
X49244525Y-15980504D01*
X49190008Y-16008281D01*
X49174521Y-16009500D01*
X48874500Y-16009500D01*
X48816309Y-15990593D01*
X48780345Y-15941093D01*
X48775500Y-15910500D01*
X48775500Y-15790253D01*
X48775498Y-15790241D01*
X48771567Y-15770480D01*
X48763867Y-15731769D01*
X48719552Y-15665448D01*
X48719548Y-15665445D01*
X48653233Y-15621134D01*
X48653231Y-15621133D01*
X48653228Y-15621132D01*
X48653227Y-15621132D01*
X48594758Y-15609501D01*
X48594748Y-15609500D01*
X46555252Y-15609500D01*
X46555251Y-15609500D01*
X46555241Y-15609501D01*
X46496772Y-15621132D01*
X46496766Y-15621134D01*
X46430451Y-15665445D01*
X46430445Y-15665451D01*
X46386134Y-15731766D01*
X46386132Y-15731772D01*
X46374501Y-15790241D01*
X46374500Y-15790253D01*
X46374500Y-15810500D01*
X46355593Y-15868691D01*
X46306093Y-15904655D01*
X46275500Y-15909500D01*
X45842727Y-15909500D01*
X45737273Y-15909500D01*
X45674929Y-15926204D01*
X45635407Y-15936794D01*
X45544091Y-15989516D01*
X42713103Y-18820504D01*
X42658586Y-18848281D01*
X42643099Y-18849500D01*
X13659845Y-18849500D01*
X13601654Y-18830593D01*
X13589841Y-18820504D01*
X12389841Y-17620504D01*
X10758857Y-15989520D01*
X10758854Y-15989518D01*
X10758853Y-15989517D01*
X10758852Y-15989516D01*
X10667535Y-15936794D01*
X10667537Y-15936794D01*
X10628014Y-15926204D01*
X10565671Y-15909500D01*
X10565669Y-15909500D01*
X9074500Y-15909500D01*
X9016309Y-15890593D01*
X8980345Y-15841093D01*
X8975500Y-15810500D01*
X8975500Y-15790253D01*
X8975498Y-15790241D01*
X8971567Y-15770480D01*
X8963867Y-15731769D01*
X8919552Y-15665448D01*
X8919548Y-15665445D01*
X8853233Y-15621134D01*
X8853231Y-15621133D01*
X8853228Y-15621132D01*
X8853227Y-15621132D01*
X8794758Y-15609501D01*
X8794748Y-15609500D01*
X8794747Y-15609500D01*
X6573372Y-15609500D01*
X6515181Y-15590593D01*
X6503368Y-15580504D01*
X5579496Y-14656632D01*
X5551719Y-14602115D01*
X5550500Y-14586628D01*
X5550500Y-13250253D01*
X6074500Y-13250253D01*
X6074500Y-14289746D01*
X6074501Y-14289758D01*
X6086132Y-14348227D01*
X6086134Y-14348233D01*
X6114968Y-14391385D01*
X6130448Y-14414552D01*
X6196769Y-14458867D01*
X6232569Y-14465988D01*
X6255241Y-14470498D01*
X6255246Y-14470498D01*
X6255252Y-14470500D01*
X6255253Y-14470500D01*
X8794747Y-14470500D01*
X8794748Y-14470500D01*
X8853231Y-14458867D01*
X8919552Y-14414552D01*
X8963867Y-14348231D01*
X8975500Y-14289748D01*
X8975500Y-14269500D01*
X8994407Y-14211309D01*
X9043907Y-14175345D01*
X9074500Y-14170500D01*
X9463099Y-14170500D01*
X9521290Y-14189407D01*
X9533103Y-14199496D01*
X13704087Y-18370480D01*
X13704089Y-18370481D01*
X13704090Y-18370482D01*
X13704091Y-18370483D01*
X13795408Y-18423205D01*
X13795406Y-18423205D01*
X13795410Y-18423206D01*
X13795412Y-18423207D01*
X13897273Y-18450500D01*
X13897275Y-18450500D01*
X41396837Y-18450500D01*
X41396839Y-18450500D01*
X41498700Y-18423207D01*
X41498702Y-18423205D01*
X41498704Y-18423205D01*
X41590020Y-18370483D01*
X41590020Y-18370482D01*
X41590025Y-18370480D01*
X45761009Y-14199496D01*
X45815526Y-14171719D01*
X45831013Y-14170500D01*
X46275500Y-14170500D01*
X46333691Y-14189407D01*
X46369655Y-14238907D01*
X46374500Y-14269500D01*
X46374500Y-14289746D01*
X46374501Y-14289758D01*
X46386132Y-14348227D01*
X46386134Y-14348233D01*
X46414968Y-14391385D01*
X46430448Y-14414552D01*
X46496769Y-14458867D01*
X46532569Y-14465988D01*
X46555241Y-14470498D01*
X46555246Y-14470498D01*
X46555252Y-14470500D01*
X46555253Y-14470500D01*
X48594747Y-14470500D01*
X48594748Y-14470500D01*
X48653231Y-14458867D01*
X48719552Y-14414552D01*
X48763867Y-14348231D01*
X48775500Y-14289748D01*
X48775500Y-14169500D01*
X48794407Y-14111309D01*
X48843907Y-14075345D01*
X48874500Y-14070500D01*
X49319563Y-14070500D01*
X49319563Y-14070499D01*
X49395989Y-14050021D01*
X49464511Y-14010460D01*
X49520460Y-13954511D01*
X49645473Y-13829496D01*
X49699990Y-13801719D01*
X49715477Y-13800500D01*
X49821959Y-13800500D01*
X49821961Y-13800500D01*
X49960053Y-13759953D01*
X50081128Y-13682143D01*
X50175377Y-13573373D01*
X50235165Y-13442457D01*
X50255647Y-13300000D01*
X50255646Y-13299996D01*
X50235165Y-13157543D01*
X50220509Y-13125451D01*
X50175377Y-13026627D01*
X50081128Y-12917857D01*
X50081127Y-12917856D01*
X50081126Y-12917855D01*
X49960057Y-12840049D01*
X49960054Y-12840047D01*
X49960053Y-12840047D01*
X49960050Y-12840046D01*
X49821964Y-12799500D01*
X49821961Y-12799500D01*
X49678039Y-12799500D01*
X49678035Y-12799500D01*
X49539949Y-12840046D01*
X49539942Y-12840049D01*
X49418873Y-12917855D01*
X49324622Y-13026628D01*
X49264834Y-13157543D01*
X49244353Y-13299996D01*
X49244353Y-13299997D01*
X49244353Y-13300000D01*
X49247442Y-13321483D01*
X49237007Y-13381772D01*
X49219455Y-13405573D01*
X49184525Y-13440503D01*
X49130012Y-13468281D01*
X49114522Y-13469500D01*
X48874500Y-13469500D01*
X48816309Y-13450593D01*
X48780345Y-13401093D01*
X48775500Y-13370500D01*
X48775500Y-13250253D01*
X48775498Y-13250241D01*
X48772711Y-13236231D01*
X48763867Y-13191769D01*
X48719552Y-13125448D01*
X48719548Y-13125445D01*
X48653233Y-13081134D01*
X48653231Y-13081133D01*
X48653228Y-13081132D01*
X48653227Y-13081132D01*
X48594758Y-13069501D01*
X48594748Y-13069500D01*
X46555252Y-13069500D01*
X46555251Y-13069500D01*
X46555241Y-13069501D01*
X46496772Y-13081132D01*
X46496766Y-13081134D01*
X46430451Y-13125445D01*
X46430445Y-13125451D01*
X46386134Y-13191766D01*
X46386132Y-13191772D01*
X46374501Y-13250241D01*
X46374500Y-13250253D01*
X46374500Y-13270500D01*
X46355593Y-13328691D01*
X46306093Y-13364655D01*
X46275500Y-13369500D01*
X45676839Y-13369500D01*
X45571385Y-13369500D01*
X45509041Y-13386204D01*
X45469519Y-13396794D01*
X45378203Y-13449516D01*
X41207215Y-17620504D01*
X41152698Y-17648281D01*
X41137211Y-17649500D01*
X14156901Y-17649500D01*
X14098710Y-17630593D01*
X14086897Y-17620504D01*
X12032378Y-15565985D01*
X9915913Y-13449520D01*
X9915910Y-13449518D01*
X9915909Y-13449517D01*
X9915908Y-13449516D01*
X9824591Y-13396794D01*
X9824593Y-13396794D01*
X9785070Y-13386204D01*
X9722727Y-13369500D01*
X9722725Y-13369500D01*
X9074500Y-13369500D01*
X9016309Y-13350593D01*
X8980345Y-13301093D01*
X8975500Y-13270500D01*
X8975500Y-13250253D01*
X8975498Y-13250241D01*
X8972711Y-13236231D01*
X8963867Y-13191769D01*
X8919552Y-13125448D01*
X8919548Y-13125445D01*
X8853233Y-13081134D01*
X8853231Y-13081133D01*
X8853228Y-13081132D01*
X8853227Y-13081132D01*
X8794758Y-13069501D01*
X8794748Y-13069500D01*
X6255252Y-13069500D01*
X6255251Y-13069500D01*
X6255241Y-13069501D01*
X6196772Y-13081132D01*
X6196766Y-13081134D01*
X6130451Y-13125445D01*
X6130445Y-13125451D01*
X6086134Y-13191766D01*
X6086132Y-13191772D01*
X6074501Y-13250241D01*
X6074500Y-13250253D01*
X5550500Y-13250253D01*
X5550500Y-12660437D01*
X5550499Y-12660435D01*
X5530021Y-12584011D01*
X5530019Y-12584007D01*
X5490460Y-12515489D01*
X5434511Y-12459539D01*
X5434511Y-12459540D01*
X5366203Y-12391232D01*
X5346154Y-12362354D01*
X5307004Y-12276629D01*
X5307003Y-12276628D01*
X5307003Y-12276627D01*
X5212754Y-12167857D01*
X5212753Y-12167856D01*
X5212752Y-12167855D01*
X5091683Y-12090049D01*
X5091680Y-12090047D01*
X5091679Y-12090047D01*
X5091676Y-12090046D01*
X4953590Y-12049500D01*
X4953587Y-12049500D01*
X4809665Y-12049500D01*
X4809661Y-12049500D01*
X4671575Y-12090046D01*
X4671568Y-12090049D01*
X4550499Y-12167855D01*
X4456248Y-12276628D01*
X4396460Y-12407543D01*
X4375979Y-12549997D01*
X4375979Y-12550002D01*
X4396460Y-12692456D01*
X4413376Y-12729496D01*
X4456249Y-12823373D01*
X4548660Y-12930022D01*
X4550499Y-12932144D01*
X4579062Y-12950500D01*
X4671573Y-13009953D01*
X4778029Y-13041211D01*
X4809661Y-13050499D01*
X4809662Y-13050499D01*
X4809665Y-13050500D01*
X4850500Y-13050500D01*
X4908691Y-13069407D01*
X4944655Y-13118907D01*
X4949500Y-13149500D01*
X4949500Y-13184062D01*
X4930593Y-13242253D01*
X4881093Y-13278217D01*
X4822609Y-13279052D01*
X4721964Y-13249500D01*
X4721961Y-13249500D01*
X4578039Y-13249500D01*
X4578035Y-13249500D01*
X4439949Y-13290046D01*
X4439942Y-13290049D01*
X4318873Y-13367855D01*
X4224622Y-13476628D01*
X4164834Y-13607543D01*
X4144353Y-13749997D01*
X-500000Y-13749997D01*
X-500000Y-10710253D01*
X6074500Y-10710253D01*
X6074500Y-11749746D01*
X6074501Y-11749758D01*
X6086132Y-11808227D01*
X6086134Y-11808233D01*
X6130445Y-11874548D01*
X6130448Y-11874552D01*
X6196769Y-11918867D01*
X6241231Y-11927711D01*
X6255241Y-11930498D01*
X6255246Y-11930498D01*
X6255252Y-11930500D01*
X6255253Y-11930500D01*
X8794747Y-11930500D01*
X8794748Y-11930500D01*
X8853231Y-11918867D01*
X8919552Y-11874552D01*
X8948106Y-11831818D01*
X8996154Y-11793940D01*
X9057292Y-11791538D01*
X9100424Y-11816817D01*
X14454087Y-17170480D01*
X14454089Y-17170481D01*
X14454090Y-17170482D01*
X14454091Y-17170483D01*
X14545408Y-17223205D01*
X14545406Y-17223205D01*
X14545410Y-17223206D01*
X14545412Y-17223207D01*
X14647273Y-17250500D01*
X14647275Y-17250500D01*
X40899781Y-17250500D01*
X40899783Y-17250500D01*
X41001644Y-17223207D01*
X41001646Y-17223205D01*
X41001648Y-17223205D01*
X41092964Y-17170483D01*
X41092964Y-17170482D01*
X41092969Y-17170480D01*
X42969033Y-15294415D01*
X43011142Y-15269431D01*
X43133581Y-15233481D01*
X43254656Y-15155671D01*
X43348905Y-15046901D01*
X43408693Y-14915985D01*
X43414284Y-14877090D01*
X43441277Y-14822185D01*
X43442205Y-14821242D01*
X46348090Y-11915357D01*
X46402605Y-11887582D01*
X46463037Y-11897153D01*
X46473093Y-11903047D01*
X46496769Y-11918867D01*
X46541231Y-11927711D01*
X46555241Y-11930498D01*
X46555246Y-11930498D01*
X46555252Y-11930500D01*
X46555253Y-11930500D01*
X48594747Y-11930500D01*
X48594748Y-11930500D01*
X48653231Y-11918867D01*
X48719552Y-11874552D01*
X48763867Y-11808231D01*
X48775500Y-11749748D01*
X48775500Y-10710252D01*
X48763867Y-10651769D01*
X48719552Y-10585448D01*
X48703151Y-10574489D01*
X48653233Y-10541134D01*
X48653231Y-10541133D01*
X48653228Y-10541132D01*
X48653227Y-10541132D01*
X48594758Y-10529501D01*
X48594748Y-10529500D01*
X46555252Y-10529500D01*
X46555251Y-10529500D01*
X46555241Y-10529501D01*
X46496772Y-10541132D01*
X46496766Y-10541134D01*
X46430451Y-10585445D01*
X46430445Y-10585451D01*
X46386134Y-10651766D01*
X46386132Y-10651772D01*
X46374501Y-10710241D01*
X46374500Y-10710253D01*
X46374500Y-10764949D01*
X46355593Y-10823140D01*
X46317753Y-10852969D01*
X46318088Y-10853549D01*
X46314089Y-10855857D01*
X46313385Y-10856413D01*
X46312473Y-10856790D01*
X46295625Y-10866518D01*
X46295624Y-10866517D01*
X46221144Y-10909519D01*
X42878024Y-14252638D01*
X42835912Y-14277624D01*
X42713475Y-14313575D01*
X42713470Y-14313577D01*
X42592401Y-14391383D01*
X42498150Y-14500156D01*
X42438362Y-14631071D01*
X42432770Y-14669965D01*
X42405774Y-14724872D01*
X42404782Y-14725879D01*
X40710159Y-16420504D01*
X40655642Y-16448281D01*
X40640155Y-16449500D01*
X14906901Y-16449500D01*
X14848710Y-16430593D01*
X14836897Y-16420504D01*
X12098536Y-13682143D01*
X9325913Y-10909520D01*
X9325910Y-10909518D01*
X9325909Y-10909517D01*
X9325908Y-10909516D01*
X9234591Y-10856794D01*
X9234593Y-10856794D01*
X9172556Y-10840172D01*
X9132727Y-10829500D01*
X9132725Y-10829500D01*
X9074500Y-10829500D01*
X9016309Y-10810593D01*
X8980345Y-10761093D01*
X8975500Y-10730500D01*
X8975500Y-10710253D01*
X8975498Y-10710241D01*
X8970744Y-10686343D01*
X8963867Y-10651769D01*
X8919552Y-10585448D01*
X8903151Y-10574489D01*
X8853233Y-10541134D01*
X8853231Y-10541133D01*
X8853228Y-10541132D01*
X8853227Y-10541132D01*
X8794758Y-10529501D01*
X8794748Y-10529500D01*
X6255252Y-10529500D01*
X6255251Y-10529500D01*
X6255241Y-10529501D01*
X6196772Y-10541132D01*
X6196766Y-10541134D01*
X6130451Y-10585445D01*
X6130445Y-10585451D01*
X6086134Y-10651766D01*
X6086132Y-10651772D01*
X6074501Y-10710241D01*
X6074500Y-10710253D01*
X-500000Y-10710253D01*
X-500000Y-9237824D01*
X5774999Y-9237824D01*
X5781401Y-9297370D01*
X5781403Y-9297381D01*
X5831646Y-9432088D01*
X5831647Y-9432090D01*
X5917807Y-9547184D01*
X5917815Y-9547192D01*
X6032909Y-9633352D01*
X6032911Y-9633353D01*
X6167618Y-9683596D01*
X6167629Y-9683598D01*
X6227176Y-9690000D01*
X7274999Y-9690000D01*
X7275000Y-9689999D01*
X7275000Y-8940001D01*
X7775000Y-8940001D01*
X7775000Y-9689999D01*
X7775001Y-9690000D01*
X8822824Y-9690000D01*
X8882370Y-9683598D01*
X8882381Y-9683596D01*
X9017088Y-9633353D01*
X9017090Y-9633352D01*
X9132184Y-9547192D01*
X9132192Y-9547184D01*
X9218352Y-9432090D01*
X9218353Y-9432088D01*
X9268596Y-9297381D01*
X9268598Y-9297370D01*
X9275000Y-9237824D01*
X9275000Y-8940001D01*
X9274999Y-8940000D01*
X7775001Y-8940000D01*
X7775000Y-8940001D01*
X7275000Y-8940001D01*
X7274999Y-8940000D01*
X5775001Y-8940000D01*
X5775000Y-8940001D01*
X5775000Y-9237824D01*
X5774999Y-9237824D01*
X-500000Y-9237824D01*
X-500000Y-8142175D01*
X5775000Y-8142175D01*
X5775000Y-8439999D01*
X5775001Y-8440000D01*
X7274999Y-8440000D01*
X7275000Y-8439999D01*
X7275000Y-7690001D01*
X7274999Y-7690000D01*
X6227176Y-7690000D01*
X6167629Y-7696401D01*
X6167618Y-7696403D01*
X6032911Y-7746646D01*
X6032909Y-7746647D01*
X5917815Y-7832807D01*
X5917807Y-7832815D01*
X5831647Y-7947909D01*
X5831646Y-7947911D01*
X5781403Y-8082618D01*
X5781401Y-8082629D01*
X5775000Y-8142175D01*
X-500000Y-8142175D01*
X-500000Y-5630253D01*
X6074500Y-5630253D01*
X6074500Y-6669746D01*
X6074501Y-6669758D01*
X6086132Y-6728227D01*
X6086134Y-6728233D01*
X6124262Y-6785294D01*
X6130448Y-6794552D01*
X6196769Y-6838867D01*
X6241231Y-6847711D01*
X6255241Y-6850498D01*
X6255246Y-6850498D01*
X6255252Y-6850500D01*
X7618099Y-6850500D01*
X7676290Y-6869407D01*
X7688103Y-6879496D01*
X8329603Y-7520996D01*
X8357380Y-7575513D01*
X8347809Y-7635945D01*
X8304544Y-7679210D01*
X8259599Y-7690000D01*
X7775001Y-7690000D01*
X7775000Y-7690001D01*
X7775000Y-8439999D01*
X7775001Y-8440000D01*
X9172973Y-8440000D01*
X9200864Y-8444010D01*
X9249883Y-8458403D01*
X9291996Y-8483389D01*
X16579087Y-15770480D01*
X16579089Y-15770481D01*
X16579090Y-15770482D01*
X16579091Y-15770483D01*
X16670408Y-15823205D01*
X16670406Y-15823205D01*
X16670410Y-15823206D01*
X16670412Y-15823207D01*
X16772273Y-15850500D01*
X16772275Y-15850500D01*
X40602725Y-15850500D01*
X40602727Y-15850500D01*
X40704588Y-15823207D01*
X40704590Y-15823205D01*
X40704592Y-15823205D01*
X40795908Y-15770483D01*
X40795908Y-15770482D01*
X40795913Y-15770480D01*
X44420480Y-12145913D01*
X44441242Y-12109953D01*
X44473205Y-12054592D01*
X44473205Y-12054590D01*
X44473207Y-12054588D01*
X44500500Y-11952727D01*
X44500500Y-11847273D01*
X44500500Y-9831901D01*
X44519407Y-9773710D01*
X44529496Y-9761897D01*
X45053569Y-9237824D01*
X46074999Y-9237824D01*
X46081401Y-9297370D01*
X46081403Y-9297381D01*
X46131646Y-9432088D01*
X46131647Y-9432090D01*
X46217807Y-9547184D01*
X46217815Y-9547192D01*
X46332909Y-9633352D01*
X46332911Y-9633353D01*
X46467618Y-9683596D01*
X46467629Y-9683598D01*
X46527176Y-9690000D01*
X47324999Y-9690000D01*
X47325000Y-9689999D01*
X47325000Y-8940001D01*
X47825000Y-8940001D01*
X47825000Y-9689999D01*
X47825001Y-9690000D01*
X48622824Y-9690000D01*
X48682370Y-9683598D01*
X48682381Y-9683596D01*
X48817088Y-9633353D01*
X48817090Y-9633352D01*
X48932184Y-9547192D01*
X48932192Y-9547184D01*
X49018352Y-9432090D01*
X49018353Y-9432088D01*
X49068596Y-9297381D01*
X49068598Y-9297370D01*
X49075000Y-9237824D01*
X49075000Y-8940001D01*
X49074999Y-8940000D01*
X47825001Y-8940000D01*
X47825000Y-8940001D01*
X47325000Y-8940001D01*
X47324999Y-8940000D01*
X46075001Y-8940000D01*
X46075000Y-8940001D01*
X46075000Y-9237824D01*
X46074999Y-9237824D01*
X45053569Y-9237824D01*
X45905996Y-8385397D01*
X45960513Y-8357620D01*
X46020945Y-8367191D01*
X46064210Y-8410456D01*
X46070134Y-8435133D01*
X46075001Y-8440000D01*
X47324999Y-8440000D01*
X47325000Y-8439999D01*
X47325000Y-7690001D01*
X47825000Y-7690001D01*
X47825000Y-8439999D01*
X47825001Y-8440000D01*
X49074999Y-8440000D01*
X49075000Y-8439999D01*
X49075000Y-8142175D01*
X49068598Y-8082629D01*
X49068596Y-8082618D01*
X49018353Y-7947911D01*
X49018352Y-7947909D01*
X48932192Y-7832815D01*
X48932184Y-7832807D01*
X48817090Y-7746647D01*
X48817088Y-7746646D01*
X48682381Y-7696403D01*
X48682370Y-7696401D01*
X48622824Y-7690000D01*
X47825001Y-7690000D01*
X47825000Y-7690001D01*
X47325000Y-7690001D01*
X47324999Y-7690000D01*
X46871095Y-7690000D01*
X46812904Y-7671093D01*
X46776940Y-7621593D01*
X46773102Y-7576914D01*
X46778257Y-7541060D01*
X46805249Y-7486157D01*
X46806245Y-7485147D01*
X47411898Y-6879496D01*
X47466414Y-6851719D01*
X47481901Y-6850500D01*
X48594747Y-6850500D01*
X48594748Y-6850500D01*
X48653231Y-6838867D01*
X48719552Y-6794552D01*
X48763867Y-6728231D01*
X48775500Y-6669748D01*
X48775500Y-5630252D01*
X48763867Y-5571769D01*
X48719552Y-5505448D01*
X48719548Y-5505445D01*
X48653233Y-5461134D01*
X48653231Y-5461133D01*
X48653228Y-5461132D01*
X48653227Y-5461132D01*
X48594758Y-5449501D01*
X48594748Y-5449500D01*
X48594747Y-5449500D01*
X47340479Y-5449500D01*
X47282288Y-5430593D01*
X47270475Y-5420504D01*
X46599971Y-4750000D01*
X45894511Y-4044540D01*
X45894508Y-4044538D01*
X45881156Y-4036829D01*
X45881156Y-4036828D01*
X45825990Y-4004979D01*
X45825985Y-4004977D01*
X45749564Y-3984500D01*
X45749562Y-3984500D01*
X45349500Y-3984500D01*
X45291309Y-3965593D01*
X45255345Y-3916093D01*
X45250500Y-3885500D01*
X45250500Y-3318489D01*
X45250499Y-3318487D01*
X45230021Y-3242063D01*
X45230019Y-3242059D01*
X45190460Y-3173541D01*
X45134511Y-3117591D01*
X45134511Y-3117592D01*
X44226459Y-2209540D01*
X44226456Y-2209538D01*
X44212955Y-2201743D01*
X44212955Y-2201742D01*
X44157938Y-2169979D01*
X44157933Y-2169977D01*
X44081512Y-2149500D01*
X44081510Y-2149500D01*
X43370549Y-2149500D01*
X43312358Y-2130593D01*
X43276394Y-2081093D01*
X43273452Y-2069816D01*
X43271038Y-2057683D01*
X43268867Y-2046769D01*
X43224552Y-1980448D01*
X43185719Y-1954500D01*
X43158233Y-1936134D01*
X43158231Y-1936133D01*
X43158228Y-1936132D01*
X43158227Y-1936132D01*
X43099758Y-1924501D01*
X43099748Y-1924500D01*
X42000252Y-1924500D01*
X42000251Y-1924500D01*
X42000241Y-1924501D01*
X41941772Y-1936132D01*
X41941766Y-1936134D01*
X41875451Y-1980445D01*
X41875445Y-1980451D01*
X41831134Y-2046766D01*
X41831132Y-2046772D01*
X41819501Y-2105241D01*
X41819500Y-2105253D01*
X41819500Y-2550957D01*
X41800593Y-2609148D01*
X41779829Y-2630210D01*
X41662815Y-2717807D01*
X41662807Y-2717815D01*
X41576647Y-2832909D01*
X41576646Y-2832911D01*
X41526403Y-2967618D01*
X41526401Y-2967629D01*
X41520000Y-3027175D01*
X41520000Y-3149999D01*
X41520001Y-3150000D01*
X43024999Y-3150000D01*
X43031738Y-3143260D01*
X43043907Y-3105809D01*
X43093407Y-3069845D01*
X43124000Y-3065000D01*
X43851000Y-3065000D01*
X43909191Y-3083907D01*
X43945155Y-3133407D01*
X43950000Y-3164000D01*
X43950000Y-3466000D01*
X43931093Y-3524191D01*
X43881593Y-3560155D01*
X43851000Y-3565000D01*
X43685001Y-3565000D01*
X43678261Y-3571739D01*
X43666093Y-3609191D01*
X43616593Y-3645155D01*
X43586000Y-3650000D01*
X41520001Y-3650000D01*
X41520000Y-3650001D01*
X41520000Y-3772824D01*
X41519999Y-3772824D01*
X41526401Y-3832370D01*
X41526403Y-3832381D01*
X41576646Y-3967088D01*
X41576647Y-3967090D01*
X41662807Y-4082184D01*
X41662815Y-4082192D01*
X41779829Y-4169788D01*
X41815082Y-4219796D01*
X41819500Y-4249041D01*
X41819500Y-4694746D01*
X41819501Y-4694758D01*
X41830490Y-4750000D01*
X41831133Y-4753231D01*
X41875448Y-4819552D01*
X41941769Y-4863867D01*
X41986231Y-4872711D01*
X42000241Y-4875498D01*
X42000246Y-4875498D01*
X42000252Y-4875500D01*
X42000253Y-4875500D01*
X43099747Y-4875500D01*
X43099748Y-4875500D01*
X43158231Y-4863867D01*
X43224552Y-4819552D01*
X43268867Y-4753231D01*
X43271367Y-4740662D01*
X43273452Y-4730184D01*
X43303350Y-4676800D01*
X43358915Y-4651186D01*
X43370549Y-4650500D01*
X43462345Y-4650500D01*
X43520536Y-4669407D01*
X43532348Y-4679496D01*
X43552853Y-4700000D01*
X43572489Y-4719636D01*
X43676830Y-4770645D01*
X43744472Y-4780500D01*
X43744475Y-4780500D01*
X44155524Y-4780500D01*
X44155528Y-4780500D01*
X44223170Y-4770645D01*
X44327511Y-4719636D01*
X44409636Y-4637511D01*
X44409636Y-4637509D01*
X44409638Y-4637508D01*
X44414405Y-4630832D01*
X44416399Y-4632256D01*
X44450464Y-4597046D01*
X44496862Y-4585500D01*
X44910438Y-4585500D01*
X44989562Y-4585500D01*
X45544521Y-4585500D01*
X45602712Y-4604407D01*
X45614525Y-4614496D01*
X46403049Y-5403020D01*
X46430826Y-5457537D01*
X46421255Y-5517969D01*
X46415361Y-5528024D01*
X46386135Y-5571764D01*
X46386132Y-5571772D01*
X46374501Y-5630241D01*
X46374500Y-5630251D01*
X46374500Y-5630252D01*
X46374500Y-6669748D01*
X46382497Y-6709953D01*
X46383150Y-6713232D01*
X46375959Y-6773993D01*
X46356057Y-6802548D01*
X46308109Y-6850498D01*
X46241997Y-6916610D01*
X46199885Y-6941596D01*
X46077447Y-6977547D01*
X46077442Y-6977549D01*
X45956373Y-7055355D01*
X45862122Y-7164128D01*
X45802334Y-7295043D01*
X45796742Y-7333937D01*
X45769746Y-7388844D01*
X45768754Y-7389851D01*
X45252154Y-7906451D01*
X45197637Y-7934228D01*
X45137205Y-7924657D01*
X45093940Y-7881392D01*
X45089669Y-7863601D01*
X45087161Y-7864338D01*
X45085166Y-7857544D01*
X45045878Y-7771518D01*
X45025377Y-7726627D01*
X44931128Y-7617857D01*
X44931127Y-7617856D01*
X44931126Y-7617855D01*
X44810057Y-7540049D01*
X44810054Y-7540047D01*
X44810053Y-7540047D01*
X44810050Y-7540046D01*
X44671964Y-7499500D01*
X44671961Y-7499500D01*
X44528039Y-7499500D01*
X44528035Y-7499500D01*
X44389949Y-7540046D01*
X44389942Y-7540049D01*
X44268873Y-7617855D01*
X44174622Y-7726628D01*
X44114834Y-7857543D01*
X44094353Y-7999997D01*
X44094353Y-8000003D01*
X44097441Y-8021482D01*
X44087007Y-8081771D01*
X44069453Y-8105573D01*
X43265489Y-8909539D01*
X43209539Y-8965489D01*
X43169980Y-9034007D01*
X43169978Y-9034011D01*
X43149500Y-9110435D01*
X43149500Y-11484521D01*
X43130593Y-11542712D01*
X43120504Y-11554525D01*
X40054525Y-14620504D01*
X40000008Y-14648281D01*
X39984521Y-14649500D01*
X17480429Y-14649500D01*
X17422238Y-14630593D01*
X17410425Y-14620504D01*
X17088021Y-14298100D01*
X17060244Y-14243583D01*
X17060033Y-14214007D01*
X17063122Y-14192525D01*
X17061971Y-14184521D01*
X17042640Y-14050068D01*
X16999000Y-13954511D01*
X16982852Y-13919152D01*
X16888603Y-13810382D01*
X16888602Y-13810381D01*
X16888601Y-13810380D01*
X16767532Y-13732574D01*
X16767529Y-13732572D01*
X16767528Y-13732572D01*
X16767525Y-13732571D01*
X16629439Y-13692025D01*
X16629436Y-13692025D01*
X16485514Y-13692025D01*
X16485510Y-13692025D01*
X16347424Y-13732571D01*
X16347417Y-13732574D01*
X16226348Y-13810380D01*
X16132097Y-13919152D01*
X16106195Y-13975869D01*
X16064822Y-14020946D01*
X16004855Y-14033095D01*
X15949199Y-14007677D01*
X15946138Y-14004745D01*
X13745001Y-11803608D01*
X13717224Y-11749091D01*
X13726795Y-11688659D01*
X13770060Y-11645394D01*
X13830492Y-11635823D01*
X13842626Y-11638535D01*
X13975399Y-11677109D01*
X13975404Y-11677110D01*
X14000000Y-11679045D01*
X14000000Y-11135001D01*
X14500000Y-11135001D01*
X14500000Y-11679045D01*
X14524587Y-11677112D01*
X14524600Y-11677109D01*
X14681699Y-11631467D01*
X14681700Y-11631467D01*
X14822507Y-11548194D01*
X14938194Y-11432507D01*
X15021467Y-11291700D01*
X15021467Y-11291699D01*
X15066994Y-11135000D01*
X14500001Y-11135000D01*
X14500000Y-11135001D01*
X14000000Y-11135001D01*
X13999999Y-11135000D01*
X13433006Y-11135000D01*
X13471465Y-11267375D01*
X13469543Y-11328530D01*
X13432043Y-11376876D01*
X13373287Y-11393946D01*
X13315718Y-11373221D01*
X13306392Y-11364999D01*
X9856244Y-7914851D01*
X9828467Y-7860334D01*
X9828279Y-7859094D01*
X9822665Y-7820043D01*
X9822482Y-7819643D01*
X9762878Y-7689129D01*
X9762877Y-7689128D01*
X9762877Y-7689127D01*
X9668628Y-7580357D01*
X9668627Y-7580356D01*
X9668626Y-7580355D01*
X9547557Y-7502549D01*
X9547554Y-7502548D01*
X9547553Y-7502547D01*
X9491733Y-7486157D01*
X9425115Y-7466596D01*
X9383003Y-7441610D01*
X8894787Y-6953394D01*
X8867010Y-6898877D01*
X8876581Y-6838445D01*
X8909791Y-6801074D01*
X8919552Y-6794552D01*
X8963867Y-6728231D01*
X8975500Y-6669748D01*
X8975500Y-5630252D01*
X8963867Y-5571769D01*
X8919552Y-5505448D01*
X8919548Y-5505445D01*
X8853233Y-5461134D01*
X8844224Y-5457403D01*
X8845009Y-5455506D01*
X8802676Y-5431795D01*
X8777064Y-5376228D01*
X8789005Y-5316219D01*
X8805371Y-5294599D01*
X10370475Y-3729496D01*
X10424992Y-3701719D01*
X10440479Y-3700500D01*
X13134521Y-3700500D01*
X13192712Y-3719407D01*
X13204525Y-3729496D01*
X16986014Y-7510985D01*
X17013791Y-7565502D01*
X17004952Y-7624468D01*
X16979355Y-7676828D01*
X16979355Y-7676830D01*
X16969500Y-7744472D01*
X16969500Y-8155528D01*
X16979355Y-8223170D01*
X17030364Y-8327511D01*
X17112489Y-8409636D01*
X17112490Y-8409636D01*
X17112491Y-8409637D01*
X17119166Y-8414403D01*
X17117741Y-8416398D01*
X17152949Y-8450454D01*
X17164500Y-8496861D01*
X17164500Y-9104564D01*
X17184978Y-9180987D01*
X17217682Y-9237633D01*
X17224542Y-9249515D01*
X17228491Y-9254661D01*
X17226186Y-9256429D01*
X17248486Y-9300196D01*
X17238915Y-9360628D01*
X17195650Y-9403893D01*
X17150705Y-9414683D01*
X15974633Y-9414683D01*
X15916442Y-9395776D01*
X15880478Y-9346276D01*
X15880478Y-9287895D01*
X15879731Y-9287678D01*
X15880478Y-9285106D01*
X15880478Y-9285090D01*
X15880499Y-9285034D01*
X15927110Y-9124596D01*
X15929047Y-9100000D01*
X15234000Y-9100000D01*
X15175809Y-9081093D01*
X15139845Y-9031593D01*
X15135000Y-9001000D01*
X15135000Y-8850001D01*
X15134999Y-8850000D01*
X14984000Y-8850000D01*
X14925809Y-8831093D01*
X14889845Y-8781593D01*
X14885000Y-8751000D01*
X14885000Y-8599999D01*
X15385000Y-8599999D01*
X15385001Y-8600000D01*
X15929045Y-8600000D01*
X15927110Y-8575404D01*
X15927109Y-8575399D01*
X15881467Y-8418299D01*
X15798194Y-8277492D01*
X15682507Y-8161805D01*
X15541699Y-8078532D01*
X15385000Y-8033006D01*
X15385000Y-8599999D01*
X14885000Y-8599999D01*
X14885000Y-8033006D01*
X14728303Y-8078531D01*
X14614895Y-8145600D01*
X14555183Y-8158947D01*
X14499030Y-8134647D01*
X14467884Y-8081982D01*
X14465500Y-8060386D01*
X14465500Y-7775438D01*
X14452421Y-7726627D01*
X14452421Y-7726625D01*
X14445024Y-7699017D01*
X14445023Y-7699015D01*
X14445022Y-7699014D01*
X14445022Y-7699012D01*
X14405460Y-7630489D01*
X12280546Y-5505575D01*
X12252769Y-5451058D01*
X12252558Y-5421482D01*
X12255647Y-5400000D01*
X12251321Y-5369915D01*
X12235165Y-5257543D01*
X12175377Y-5126628D01*
X12175377Y-5126627D01*
X12081128Y-5017857D01*
X12081127Y-5017856D01*
X12081126Y-5017855D01*
X11960057Y-4940049D01*
X11960054Y-4940047D01*
X11960053Y-4940047D01*
X11960050Y-4940046D01*
X11821964Y-4899500D01*
X11821961Y-4899500D01*
X11678039Y-4899500D01*
X11678035Y-4899500D01*
X11539949Y-4940046D01*
X11539942Y-4940049D01*
X11418873Y-5017855D01*
X11324622Y-5126628D01*
X11264834Y-5257543D01*
X11244353Y-5399997D01*
X11244353Y-5400002D01*
X11264834Y-5542456D01*
X11305107Y-5630640D01*
X11324623Y-5673373D01*
X11390587Y-5749500D01*
X11418873Y-5782144D01*
X11539942Y-5859950D01*
X11539947Y-5859953D01*
X11646403Y-5891211D01*
X11678035Y-5900499D01*
X11678036Y-5900499D01*
X11678039Y-5900500D01*
X11678041Y-5900500D01*
X11784521Y-5900500D01*
X11842712Y-5919407D01*
X11854525Y-5929496D01*
X13835504Y-7910475D01*
X13863281Y-7964992D01*
X13864500Y-7980479D01*
X13864500Y-8303138D01*
X13845593Y-8361329D01*
X13818242Y-8384299D01*
X13819168Y-8385595D01*
X13812492Y-8390362D01*
X13812490Y-8390363D01*
X13812489Y-8390364D01*
X13767791Y-8435062D01*
X13730364Y-8472489D01*
X13679355Y-8576828D01*
X13679355Y-8576830D01*
X13673503Y-8617000D01*
X13669500Y-8644475D01*
X13669500Y-8655521D01*
X13650593Y-8713712D01*
X13601093Y-8749676D01*
X13539907Y-8749676D01*
X13500496Y-8725525D01*
X13317976Y-8543005D01*
X13290199Y-8488488D01*
X13289988Y-8458912D01*
X13305647Y-8350002D01*
X13305647Y-8349997D01*
X13285165Y-8207543D01*
X13264277Y-8161805D01*
X13225377Y-8076627D01*
X13131128Y-7967857D01*
X13131127Y-7967856D01*
X13131126Y-7967855D01*
X13010057Y-7890049D01*
X13010054Y-7890047D01*
X13010053Y-7890047D01*
X13010050Y-7890046D01*
X12871964Y-7849500D01*
X12871961Y-7849500D01*
X12728039Y-7849500D01*
X12728035Y-7849500D01*
X12589949Y-7890046D01*
X12589942Y-7890049D01*
X12468873Y-7967855D01*
X12374622Y-8076628D01*
X12314834Y-8207543D01*
X12294353Y-8349997D01*
X12294353Y-8350002D01*
X12314834Y-8492456D01*
X12371713Y-8617001D01*
X12374623Y-8623373D01*
X12468872Y-8732143D01*
X12468873Y-8732144D01*
X12589942Y-8809950D01*
X12589947Y-8809953D01*
X12693856Y-8840463D01*
X12728035Y-8850499D01*
X12728036Y-8850499D01*
X12728039Y-8850500D01*
X12734521Y-8850500D01*
X12792712Y-8869407D01*
X12804525Y-8879496D01*
X13700504Y-9775475D01*
X13728281Y-9829992D01*
X13729500Y-9845479D01*
X13729500Y-10095526D01*
X13732742Y-10117779D01*
X13722421Y-10178087D01*
X13685173Y-10217263D01*
X13677492Y-10221805D01*
X13561805Y-10337492D01*
X13478532Y-10478299D01*
X13478532Y-10478300D01*
X13433005Y-10635000D01*
X14514505Y-10635000D01*
X14564005Y-10648263D01*
X14619012Y-10680022D01*
X14695438Y-10700500D01*
X16835522Y-10700500D01*
X16893713Y-10719407D01*
X16929677Y-10768907D01*
X16929677Y-10830093D01*
X16911893Y-10859113D01*
X16913491Y-10860339D01*
X16909540Y-10865487D01*
X16869980Y-10934007D01*
X16869978Y-10934011D01*
X16849500Y-11010435D01*
X16849500Y-11439564D01*
X16869977Y-11515985D01*
X16869979Y-11515990D01*
X16909232Y-11583980D01*
X16909536Y-11584506D01*
X16909538Y-11584508D01*
X16909540Y-11584511D01*
X17809540Y-12484511D01*
X17809539Y-12484511D01*
X17865489Y-12540460D01*
X17934007Y-12580019D01*
X17934011Y-12580021D01*
X18010435Y-12600499D01*
X18010437Y-12600500D01*
X18010438Y-12600500D01*
X19539563Y-12600500D01*
X19539563Y-12600499D01*
X19615989Y-12580021D01*
X19684511Y-12540460D01*
X19740460Y-12484511D01*
X20277975Y-11946996D01*
X20332492Y-11919219D01*
X20347979Y-11918000D01*
X25384521Y-11918000D01*
X25442712Y-11936907D01*
X25454523Y-11946995D01*
X25467699Y-11960170D01*
X25477235Y-11969706D01*
X25580009Y-12015085D01*
X25605135Y-12018000D01*
X26969864Y-12017999D01*
X26994991Y-12015085D01*
X27097765Y-11969706D01*
X27177206Y-11890265D01*
X27222585Y-11787491D01*
X27225500Y-11762365D01*
X27225499Y-11472636D01*
X27222585Y-11447509D01*
X27177206Y-11344735D01*
X27177205Y-11344734D01*
X27173500Y-11336343D01*
X27175875Y-11335294D01*
X27162462Y-11289761D01*
X27175526Y-11249551D01*
X27173500Y-11248657D01*
X27177204Y-11240266D01*
X27177206Y-11240265D01*
X27222585Y-11137491D01*
X27225500Y-11112365D01*
X27225499Y-10822636D01*
X27222585Y-10797509D01*
X27177206Y-10694735D01*
X27177205Y-10694734D01*
X27173500Y-10686343D01*
X27175875Y-10685294D01*
X27162462Y-10639761D01*
X27175526Y-10599551D01*
X27173500Y-10598657D01*
X27177204Y-10590266D01*
X27177206Y-10590265D01*
X27222585Y-10487491D01*
X27225500Y-10462365D01*
X27225499Y-10172636D01*
X27222585Y-10147509D01*
X27177206Y-10044735D01*
X27177205Y-10044734D01*
X27173500Y-10036343D01*
X27175875Y-10035294D01*
X27162462Y-9989761D01*
X27175526Y-9949551D01*
X27173500Y-9948657D01*
X27177204Y-9940266D01*
X27177206Y-9940265D01*
X27222585Y-9837491D01*
X27225500Y-9812365D01*
X27225499Y-9522636D01*
X27222585Y-9497509D01*
X27177206Y-9394735D01*
X27177205Y-9394734D01*
X27173500Y-9386343D01*
X27175875Y-9385294D01*
X27162462Y-9339761D01*
X27175526Y-9299551D01*
X27173500Y-9298657D01*
X27177204Y-9290266D01*
X27177206Y-9290265D01*
X27222585Y-9187491D01*
X27225500Y-9162365D01*
X27225499Y-8872636D01*
X27222585Y-8847509D01*
X27177206Y-8744735D01*
X27177205Y-8744734D01*
X27173500Y-8736343D01*
X27175875Y-8735294D01*
X27162462Y-8689761D01*
X27175526Y-8649551D01*
X27173500Y-8648657D01*
X27177204Y-8640266D01*
X27177206Y-8640265D01*
X27209335Y-8567500D01*
X30782989Y-8567500D01*
X30790443Y-8624127D01*
X30790445Y-8624135D01*
X30850899Y-8770085D01*
X30850901Y-8770089D01*
X30947070Y-8895419D01*
X30947080Y-8895429D01*
X31035767Y-8963481D01*
X31070423Y-9013906D01*
X31074500Y-9042022D01*
X31074500Y-9162361D01*
X31074501Y-9162364D01*
X31077414Y-9187490D01*
X31099555Y-9237633D01*
X31120516Y-9285106D01*
X31126500Y-9298657D01*
X31124126Y-9299705D01*
X31137537Y-9345257D01*
X31124477Y-9385449D01*
X31126500Y-9386343D01*
X31122794Y-9394734D01*
X31122794Y-9394735D01*
X31106125Y-9432487D01*
X31077414Y-9497511D01*
X31074500Y-9522630D01*
X31074500Y-9812359D01*
X31074501Y-9812364D01*
X31077414Y-9837490D01*
X31080942Y-9845479D01*
X31118538Y-9930627D01*
X31126500Y-9948657D01*
X31124126Y-9949705D01*
X31137537Y-9995257D01*
X31124477Y-10035449D01*
X31126500Y-10036343D01*
X31122794Y-10044734D01*
X31122794Y-10044735D01*
X31100368Y-10095526D01*
X31077414Y-10147511D01*
X31074500Y-10172630D01*
X31074500Y-10462359D01*
X31074501Y-10462364D01*
X31077414Y-10487490D01*
X31093258Y-10523373D01*
X31120668Y-10585451D01*
X31126500Y-10598657D01*
X31124126Y-10599705D01*
X31137537Y-10645257D01*
X31124477Y-10685449D01*
X31126500Y-10686343D01*
X31122794Y-10694734D01*
X31122794Y-10694735D01*
X31096318Y-10754697D01*
X31077414Y-10797511D01*
X31074500Y-10822630D01*
X31074500Y-11112359D01*
X31074501Y-11112364D01*
X31077414Y-11137490D01*
X31126500Y-11248657D01*
X31124126Y-11249705D01*
X31137537Y-11295257D01*
X31124477Y-11335449D01*
X31126500Y-11336343D01*
X31122794Y-11344734D01*
X31122794Y-11344735D01*
X31100251Y-11395790D01*
X31077414Y-11447511D01*
X31074500Y-11472630D01*
X31074500Y-11762359D01*
X31074501Y-11762364D01*
X31077414Y-11787490D01*
X31102756Y-11844885D01*
X31122794Y-11890265D01*
X31202235Y-11969706D01*
X31305009Y-12015085D01*
X31330135Y-12018000D01*
X31947020Y-12017999D01*
X32005211Y-12036906D01*
X32017024Y-12046995D01*
X32860489Y-12890460D01*
X32860491Y-12890461D01*
X32860492Y-12890462D01*
X32860493Y-12890463D01*
X32929008Y-12930020D01*
X32929006Y-12930020D01*
X32929010Y-12930021D01*
X32929012Y-12930022D01*
X33005438Y-12950500D01*
X37195917Y-12950500D01*
X37254108Y-12969407D01*
X37284857Y-13006019D01*
X37295364Y-13027511D01*
X37377489Y-13109636D01*
X37481830Y-13160645D01*
X37549472Y-13170500D01*
X37549475Y-13170500D01*
X37910524Y-13170500D01*
X37910528Y-13170500D01*
X37978170Y-13160645D01*
X38082511Y-13109636D01*
X38144998Y-13047148D01*
X38199513Y-13019373D01*
X38259945Y-13028944D01*
X38285000Y-13047147D01*
X38320505Y-13082652D01*
X38348281Y-13137167D01*
X38349500Y-13152654D01*
X38349500Y-13196105D01*
X38330593Y-13254296D01*
X38323258Y-13262289D01*
X38323509Y-13262506D01*
X38318872Y-13267856D01*
X38318872Y-13267857D01*
X38250915Y-13346283D01*
X38224622Y-13376628D01*
X38164834Y-13507543D01*
X38144353Y-13649997D01*
X38144353Y-13650002D01*
X38164834Y-13792456D01*
X38210504Y-13892457D01*
X38224623Y-13923373D01*
X38300084Y-14010460D01*
X38318873Y-14032144D01*
X38439942Y-14109950D01*
X38439947Y-14109953D01*
X38533744Y-14137494D01*
X38578035Y-14150499D01*
X38578036Y-14150499D01*
X38578039Y-14150500D01*
X38578041Y-14150500D01*
X38721959Y-14150500D01*
X38721961Y-14150500D01*
X38860053Y-14109953D01*
X38981128Y-14032143D01*
X39075377Y-13923373D01*
X39135165Y-13792457D01*
X39149605Y-13692025D01*
X39155647Y-13650002D01*
X39155647Y-13649997D01*
X39135165Y-13507543D01*
X39117234Y-13468281D01*
X39075377Y-13376627D01*
X39008980Y-13300000D01*
X38990335Y-13278482D01*
X38966517Y-13222122D01*
X38980376Y-13162527D01*
X39021673Y-13124711D01*
X39052511Y-13109636D01*
X39134636Y-13027511D01*
X39185645Y-12923170D01*
X39195500Y-12855528D01*
X39195500Y-12444472D01*
X39185645Y-12376830D01*
X39134636Y-12272489D01*
X39052511Y-12190364D01*
X39010504Y-12169828D01*
X38966532Y-12127285D01*
X38955962Y-12067020D01*
X38982835Y-12012051D01*
X39010506Y-11991947D01*
X39013169Y-11990645D01*
X39013170Y-11990645D01*
X39074712Y-11960559D01*
X39118192Y-11950500D01*
X40152917Y-11950500D01*
X40211108Y-11969407D01*
X40227733Y-11984667D01*
X40268872Y-12032143D01*
X40389947Y-12109953D01*
X40456519Y-12129500D01*
X40528035Y-12150499D01*
X40528036Y-12150499D01*
X40528039Y-12150500D01*
X40528041Y-12150500D01*
X40671959Y-12150500D01*
X40671961Y-12150500D01*
X40810053Y-12109953D01*
X40931128Y-12032143D01*
X41025377Y-11923373D01*
X41085165Y-11792457D01*
X41092700Y-11740046D01*
X41105647Y-11650002D01*
X41105647Y-11649997D01*
X41085165Y-11507543D01*
X41069223Y-11472635D01*
X41025377Y-11376627D01*
X40931128Y-11267857D01*
X40931127Y-11267856D01*
X40931126Y-11267855D01*
X40810057Y-11190049D01*
X40810054Y-11190047D01*
X40810053Y-11190047D01*
X40810050Y-11190046D01*
X40671964Y-11149500D01*
X40671961Y-11149500D01*
X40528039Y-11149500D01*
X40528035Y-11149500D01*
X40389949Y-11190046D01*
X40389942Y-11190049D01*
X40268876Y-11267854D01*
X40268871Y-11267858D01*
X40227736Y-11315331D01*
X40175340Y-11346927D01*
X40152917Y-11349500D01*
X39357052Y-11349500D01*
X39298861Y-11330593D01*
X39262897Y-11281093D01*
X39259088Y-11264780D01*
X39250645Y-11206830D01*
X39199636Y-11102489D01*
X39117511Y-11020364D01*
X39013170Y-10969355D01*
X39013169Y-10969354D01*
X39006262Y-10965978D01*
X39006806Y-10964864D01*
X38963168Y-10934116D01*
X38943419Y-10876206D01*
X38961481Y-10817747D01*
X38998927Y-10785831D01*
X39052511Y-10759636D01*
X39134636Y-10677511D01*
X39145142Y-10656019D01*
X39187685Y-10612046D01*
X39234083Y-10600500D01*
X40246241Y-10600500D01*
X40304432Y-10619407D01*
X40313403Y-10627640D01*
X40313520Y-10627506D01*
X40318871Y-10632143D01*
X40439942Y-10709950D01*
X40439947Y-10709953D01*
X40546403Y-10741211D01*
X40578035Y-10750499D01*
X40578036Y-10750499D01*
X40578039Y-10750500D01*
X40578041Y-10750500D01*
X40721959Y-10750500D01*
X40721961Y-10750500D01*
X40860053Y-10709953D01*
X40981128Y-10632143D01*
X41075377Y-10523373D01*
X41135165Y-10392457D01*
X41149469Y-10292972D01*
X41155647Y-10250002D01*
X41155647Y-10249997D01*
X41135165Y-10107543D01*
X41106481Y-10044735D01*
X41075377Y-9976627D01*
X40981128Y-9867857D01*
X40981127Y-9867856D01*
X40981126Y-9867855D01*
X40860057Y-9790049D01*
X40860054Y-9790047D01*
X40860053Y-9790047D01*
X40860050Y-9790046D01*
X40721964Y-9749500D01*
X40721961Y-9749500D01*
X40578039Y-9749500D01*
X40578035Y-9749500D01*
X40439949Y-9790046D01*
X40439942Y-9790049D01*
X40318873Y-9867855D01*
X40288551Y-9902850D01*
X40234409Y-9965332D01*
X40182016Y-9996927D01*
X40159592Y-9999500D01*
X39234083Y-9999500D01*
X39175892Y-9980593D01*
X39145142Y-9943980D01*
X39134636Y-9922490D01*
X39134636Y-9922489D01*
X39052511Y-9840364D01*
X38948170Y-9789355D01*
X38948171Y-9789355D01*
X38931259Y-9786891D01*
X38880528Y-9779500D01*
X38519472Y-9779500D01*
X38478886Y-9785413D01*
X38451828Y-9789355D01*
X38368705Y-9829992D01*
X38347489Y-9840364D01*
X38285001Y-9902851D01*
X38230487Y-9930627D01*
X38170055Y-9921056D01*
X38144999Y-9902852D01*
X38082511Y-9840364D01*
X37978170Y-9789355D01*
X37978171Y-9789355D01*
X37961259Y-9786891D01*
X37910528Y-9779500D01*
X37549472Y-9779500D01*
X37508886Y-9785413D01*
X37481828Y-9789355D01*
X37377489Y-9840364D01*
X37295363Y-9922490D01*
X37284858Y-9943980D01*
X37242315Y-9987954D01*
X37195917Y-9999500D01*
X34260479Y-9999500D01*
X34202288Y-9980593D01*
X34190476Y-9970504D01*
X33706975Y-9487004D01*
X33679197Y-9432487D01*
X33688768Y-9372055D01*
X33732033Y-9328790D01*
X33776978Y-9318000D01*
X34580500Y-9318000D01*
X34638691Y-9336907D01*
X34674655Y-9386407D01*
X34679500Y-9417000D01*
X34679500Y-9465528D01*
X34684160Y-9497511D01*
X34689355Y-9533171D01*
X34714859Y-9585340D01*
X34740364Y-9637511D01*
X34822489Y-9719636D01*
X34926830Y-9770645D01*
X34994472Y-9780500D01*
X34994475Y-9780500D01*
X35405524Y-9780500D01*
X35405528Y-9780500D01*
X35473170Y-9770645D01*
X35577511Y-9719636D01*
X35659636Y-9637511D01*
X35710645Y-9533170D01*
X35720500Y-9465528D01*
X35720500Y-9104472D01*
X35717258Y-9082222D01*
X35727576Y-9021915D01*
X35764831Y-8982733D01*
X35772509Y-8978192D01*
X35888194Y-8862507D01*
X35971467Y-8721700D01*
X35971467Y-8721699D01*
X36016994Y-8565000D01*
X34341007Y-8565000D01*
X34282816Y-8546093D01*
X34275682Y-8540000D01*
X33353561Y-8540000D01*
X33301980Y-8566281D01*
X33286493Y-8567500D01*
X30782989Y-8567500D01*
X27209335Y-8567500D01*
X27222585Y-8537491D01*
X27225500Y-8512365D01*
X27225499Y-8222636D01*
X27222585Y-8197509D01*
X27209334Y-8167499D01*
X30782988Y-8167499D01*
X30782988Y-8167500D01*
X33074999Y-8167500D01*
X33075000Y-8167499D01*
X33075000Y-8139000D01*
X33093907Y-8080809D01*
X33143407Y-8044845D01*
X33174000Y-8040000D01*
X34858993Y-8040000D01*
X34917184Y-8058907D01*
X34924318Y-8065000D01*
X36016994Y-8065000D01*
X35971467Y-7908300D01*
X35971467Y-7908299D01*
X35888194Y-7767492D01*
X35772507Y-7651805D01*
X35631699Y-7568532D01*
X35474595Y-7522889D01*
X35453685Y-7521243D01*
X35397158Y-7497827D01*
X35365190Y-7445657D01*
X35369992Y-7384660D01*
X35372510Y-7379847D01*
X35372436Y-7379813D01*
X35393387Y-7333937D01*
X35435165Y-7242457D01*
X35446427Y-7164127D01*
X35455647Y-7100002D01*
X35455647Y-7099997D01*
X35435165Y-6957543D01*
X35419223Y-6922635D01*
X35375377Y-6826627D01*
X35281128Y-6717857D01*
X35281127Y-6717856D01*
X35281126Y-6717855D01*
X35160057Y-6640049D01*
X35160054Y-6640047D01*
X35160053Y-6640047D01*
X35160050Y-6640046D01*
X35021964Y-6599500D01*
X35021961Y-6599500D01*
X34878039Y-6599500D01*
X34878035Y-6599500D01*
X34739949Y-6640046D01*
X34739942Y-6640049D01*
X34618876Y-6717854D01*
X34618875Y-6717855D01*
X34618872Y-6717857D01*
X34586903Y-6754752D01*
X34577736Y-6765331D01*
X34525340Y-6796927D01*
X34502917Y-6799500D01*
X34180435Y-6799500D01*
X34099729Y-6821126D01*
X34074105Y-6824500D01*
X33794472Y-6824500D01*
X33753886Y-6830413D01*
X33726828Y-6834355D01*
X33622489Y-6885364D01*
X33540364Y-6967489D01*
X33489355Y-7071828D01*
X33479500Y-7139475D01*
X33479500Y-7318000D01*
X33460593Y-7376191D01*
X33411093Y-7412155D01*
X33380500Y-7417000D01*
X33020258Y-7417000D01*
X32962067Y-7398093D01*
X32926103Y-7348593D01*
X32926103Y-7287407D01*
X32929693Y-7278013D01*
X32936849Y-7261805D01*
X32947585Y-7237491D01*
X32950500Y-7212365D01*
X32950499Y-6922636D01*
X32947585Y-6897509D01*
X32902206Y-6794735D01*
X32902205Y-6794734D01*
X32898500Y-6786343D01*
X32900875Y-6785294D01*
X32887462Y-6739761D01*
X32900526Y-6699551D01*
X32898500Y-6698657D01*
X32902204Y-6690266D01*
X32902206Y-6690265D01*
X32947585Y-6587491D01*
X32950500Y-6562365D01*
X32950499Y-6272636D01*
X32947585Y-6247509D01*
X32944044Y-6239489D01*
X32937835Y-6178619D01*
X32968590Y-6125726D01*
X33024562Y-6101011D01*
X33034608Y-6100500D01*
X36230917Y-6100500D01*
X36289108Y-6119407D01*
X36319857Y-6156019D01*
X36330364Y-6177511D01*
X36412489Y-6259636D01*
X36516830Y-6310645D01*
X36584472Y-6320500D01*
X36584475Y-6320500D01*
X36945524Y-6320500D01*
X36945528Y-6320500D01*
X37013170Y-6310645D01*
X37117511Y-6259636D01*
X37179998Y-6197148D01*
X37234513Y-6169373D01*
X37294945Y-6178944D01*
X37320000Y-6197147D01*
X37382489Y-6259636D01*
X37486830Y-6310645D01*
X37554472Y-6320500D01*
X37554475Y-6320500D01*
X37915524Y-6320500D01*
X37915528Y-6320500D01*
X37983170Y-6310645D01*
X37988513Y-6308032D01*
X38049093Y-6299461D01*
X38101998Y-6326969D01*
X39115489Y-7340460D01*
X39115491Y-7340461D01*
X39115492Y-7340462D01*
X39115493Y-7340463D01*
X39184008Y-7380020D01*
X39184006Y-7380020D01*
X39184010Y-7380021D01*
X39184012Y-7380022D01*
X39260438Y-7400500D01*
X39339562Y-7400500D01*
X41701452Y-7400500D01*
X41759643Y-7419407D01*
X41795607Y-7468907D01*
X41799444Y-7485411D01*
X41814834Y-7592456D01*
X41863499Y-7699015D01*
X41874623Y-7723373D01*
X41968872Y-7832143D01*
X41968873Y-7832144D01*
X42087373Y-7908299D01*
X42089947Y-7909953D01*
X42190477Y-7939471D01*
X42228035Y-7950499D01*
X42228036Y-7950499D01*
X42228039Y-7950500D01*
X42228041Y-7950500D01*
X42371959Y-7950500D01*
X42371961Y-7950500D01*
X42510053Y-7909953D01*
X42631128Y-7832143D01*
X42725377Y-7723373D01*
X42785165Y-7592457D01*
X42795404Y-7521243D01*
X42805647Y-7450002D01*
X42805647Y-7449997D01*
X42785165Y-7307543D01*
X42753173Y-7237491D01*
X42725377Y-7176627D01*
X42631128Y-7067857D01*
X42631127Y-7067856D01*
X42631126Y-7067855D01*
X42510057Y-6990049D01*
X42510054Y-6990047D01*
X42510053Y-6990047D01*
X42510050Y-6990046D01*
X42371964Y-6949500D01*
X42371961Y-6949500D01*
X42265479Y-6949500D01*
X42207288Y-6930593D01*
X42195476Y-6920504D01*
X42134512Y-6859540D01*
X42098704Y-6838866D01*
X42098704Y-6838867D01*
X42065989Y-6819979D01*
X42065988Y-6819978D01*
X42065987Y-6819978D01*
X41989564Y-6799500D01*
X41989562Y-6799500D01*
X39465479Y-6799500D01*
X39407288Y-6780593D01*
X39395475Y-6770504D01*
X38255611Y-5630640D01*
X38227834Y-5576123D01*
X38227667Y-5575028D01*
X38220645Y-5526830D01*
X38169636Y-5422489D01*
X38087511Y-5340364D01*
X37983170Y-5289355D01*
X37983171Y-5289355D01*
X37966259Y-5286891D01*
X37915528Y-5279500D01*
X37554472Y-5279500D01*
X37513886Y-5285413D01*
X37486828Y-5289355D01*
X37382489Y-5340364D01*
X37320001Y-5402851D01*
X37265487Y-5430627D01*
X37205055Y-5421056D01*
X37179999Y-5402852D01*
X37117511Y-5340364D01*
X37013170Y-5289355D01*
X37013171Y-5289355D01*
X36996259Y-5286891D01*
X36945528Y-5279500D01*
X36584472Y-5279500D01*
X36543886Y-5285413D01*
X36516828Y-5289355D01*
X36412489Y-5340364D01*
X36330363Y-5422490D01*
X36319858Y-5443980D01*
X36277315Y-5487954D01*
X36230917Y-5499500D01*
X32947978Y-5499500D01*
X32889787Y-5480593D01*
X32877980Y-5470509D01*
X32822765Y-5415294D01*
X32719991Y-5369915D01*
X32719990Y-5369914D01*
X32719988Y-5369914D01*
X32694868Y-5367000D01*
X31330139Y-5367000D01*
X31330136Y-5367001D01*
X31305009Y-5369914D01*
X31202235Y-5415294D01*
X31122794Y-5494735D01*
X31077414Y-5597511D01*
X31074500Y-5622630D01*
X31074500Y-5912359D01*
X31074501Y-5912364D01*
X31077414Y-5937490D01*
X31126500Y-6048657D01*
X31124126Y-6049705D01*
X31137537Y-6095257D01*
X31124477Y-6135449D01*
X31126500Y-6136343D01*
X31122794Y-6144734D01*
X31122794Y-6144735D01*
X31099651Y-6197150D01*
X31077414Y-6247511D01*
X31074500Y-6272630D01*
X31074500Y-6562359D01*
X31074501Y-6562364D01*
X31077414Y-6587490D01*
X31082717Y-6599500D01*
X31113739Y-6669758D01*
X31126500Y-6698657D01*
X31124126Y-6699705D01*
X31137537Y-6745257D01*
X31124477Y-6785449D01*
X31126500Y-6786343D01*
X31122794Y-6794734D01*
X31122794Y-6794735D01*
X31097633Y-6851719D01*
X31077414Y-6897511D01*
X31074500Y-6922630D01*
X31074500Y-7212359D01*
X31074501Y-7212364D01*
X31077414Y-7237490D01*
X31126500Y-7348657D01*
X31124126Y-7349705D01*
X31137537Y-7395257D01*
X31124477Y-7435449D01*
X31126500Y-7436343D01*
X31122794Y-7444734D01*
X31122794Y-7444735D01*
X31102647Y-7490364D01*
X31077414Y-7547511D01*
X31074500Y-7572630D01*
X31074500Y-7692976D01*
X31055593Y-7751167D01*
X31035768Y-7771518D01*
X30947077Y-7839573D01*
X30947070Y-7839580D01*
X30850901Y-7964910D01*
X30850899Y-7964914D01*
X30790444Y-8110867D01*
X30782988Y-8167499D01*
X27209334Y-8167499D01*
X27177206Y-8094735D01*
X27177205Y-8094734D01*
X27173500Y-8086343D01*
X27175875Y-8085294D01*
X27162462Y-8039761D01*
X27175526Y-7999551D01*
X27173500Y-7998657D01*
X27177204Y-7990266D01*
X27177206Y-7990265D01*
X27222585Y-7887491D01*
X27225500Y-7862365D01*
X27225499Y-7572636D01*
X27222585Y-7547509D01*
X27177206Y-7444735D01*
X27177205Y-7444734D01*
X27173500Y-7436343D01*
X27175875Y-7435294D01*
X27162462Y-7389761D01*
X27175526Y-7349551D01*
X27173500Y-7348657D01*
X27177204Y-7340266D01*
X27177206Y-7340265D01*
X27222585Y-7237491D01*
X27225500Y-7212365D01*
X27225499Y-6922636D01*
X27222585Y-6897509D01*
X27177206Y-6794735D01*
X27177205Y-6794734D01*
X27173500Y-6786343D01*
X27175875Y-6785294D01*
X27162462Y-6739761D01*
X27175526Y-6699551D01*
X27173500Y-6698657D01*
X27177204Y-6690266D01*
X27177206Y-6690265D01*
X27222585Y-6587491D01*
X27225500Y-6562365D01*
X27225499Y-6272636D01*
X27222585Y-6247509D01*
X27177206Y-6144735D01*
X27177205Y-6144734D01*
X27173500Y-6136343D01*
X27175875Y-6135294D01*
X27162462Y-6089761D01*
X27175526Y-6049551D01*
X27173500Y-6048657D01*
X27177204Y-6040266D01*
X27177206Y-6040265D01*
X27222585Y-5937491D01*
X27225500Y-5912365D01*
X27225499Y-5622636D01*
X27222585Y-5597509D01*
X27177206Y-5494735D01*
X27097765Y-5415294D01*
X26994991Y-5369915D01*
X26994990Y-5369914D01*
X26994988Y-5369914D01*
X26969868Y-5367000D01*
X25605139Y-5367000D01*
X25605136Y-5367001D01*
X25580009Y-5369914D01*
X25477235Y-5415294D01*
X25397794Y-5494735D01*
X25352414Y-5597511D01*
X25349500Y-5622630D01*
X25349500Y-5912359D01*
X25349501Y-5912364D01*
X25352414Y-5937490D01*
X25370307Y-5978012D01*
X25376515Y-6038881D01*
X25345759Y-6091775D01*
X25289787Y-6116489D01*
X25279742Y-6117000D01*
X25203107Y-6117000D01*
X25144916Y-6098093D01*
X25113054Y-6059126D01*
X25075378Y-5976629D01*
X25075377Y-5976628D01*
X25075377Y-5976627D01*
X24981128Y-5867857D01*
X24981127Y-5867856D01*
X24981126Y-5867855D01*
X24860057Y-5790049D01*
X24860054Y-5790047D01*
X24860053Y-5790047D01*
X24833138Y-5782144D01*
X24721964Y-5749500D01*
X24721961Y-5749500D01*
X24578039Y-5749500D01*
X24578035Y-5749500D01*
X24439949Y-5790046D01*
X24439942Y-5790049D01*
X24318873Y-5867855D01*
X24224622Y-5976628D01*
X24164834Y-6107543D01*
X24144353Y-6249997D01*
X24144353Y-6250002D01*
X24164834Y-6392456D01*
X24224623Y-6523373D01*
X24305252Y-6616426D01*
X24329069Y-6672785D01*
X24315210Y-6732380D01*
X24268969Y-6772448D01*
X24255627Y-6776996D01*
X24255608Y-6777001D01*
X24194521Y-6773526D01*
X24155594Y-6746092D01*
X24131128Y-6717857D01*
X24131127Y-6717856D01*
X24131126Y-6717855D01*
X24010057Y-6640049D01*
X24010054Y-6640047D01*
X24010053Y-6640047D01*
X24010050Y-6640046D01*
X23871964Y-6599500D01*
X23871961Y-6599500D01*
X23728039Y-6599500D01*
X23728035Y-6599500D01*
X23589949Y-6640046D01*
X23589942Y-6640049D01*
X23468873Y-6717855D01*
X23374622Y-6826628D01*
X23314834Y-6957543D01*
X23294353Y-7099997D01*
X23294353Y-7100002D01*
X23314834Y-7242456D01*
X23352321Y-7324540D01*
X23374623Y-7373373D01*
X23441018Y-7449997D01*
X23468873Y-7482144D01*
X23589942Y-7559950D01*
X23589947Y-7559953D01*
X23696403Y-7591211D01*
X23728035Y-7600499D01*
X23728036Y-7600499D01*
X23728039Y-7600500D01*
X23728041Y-7600500D01*
X23871959Y-7600500D01*
X23871961Y-7600500D01*
X24010053Y-7559953D01*
X24131128Y-7482143D01*
X24172264Y-7434668D01*
X24224660Y-7403073D01*
X24247083Y-7400500D01*
X24339563Y-7400500D01*
X24339563Y-7400499D01*
X24415989Y-7380021D01*
X24415991Y-7380019D01*
X24421987Y-7377537D01*
X24422561Y-7378924D01*
X24463338Y-7368000D01*
X25279742Y-7368000D01*
X25337933Y-7386907D01*
X25373897Y-7436407D01*
X25373897Y-7497593D01*
X25370307Y-7506987D01*
X25352415Y-7547508D01*
X25352414Y-7547511D01*
X25349500Y-7572630D01*
X25349500Y-7862359D01*
X25349501Y-7862364D01*
X25352414Y-7887490D01*
X25362333Y-7909953D01*
X25368825Y-7924657D01*
X25370307Y-7928012D01*
X25376515Y-7988881D01*
X25345759Y-8041775D01*
X25289787Y-8066489D01*
X25279742Y-8067000D01*
X24652376Y-8067000D01*
X24594185Y-8048093D01*
X24571806Y-8025528D01*
X24569638Y-8022492D01*
X24569636Y-8022490D01*
X24569636Y-8022489D01*
X24487511Y-7940364D01*
X24383170Y-7889355D01*
X24383171Y-7889355D01*
X24366259Y-7886891D01*
X24315528Y-7879500D01*
X23954472Y-7879500D01*
X23913886Y-7885413D01*
X23886828Y-7889355D01*
X23795040Y-7934228D01*
X23782489Y-7940364D01*
X23720001Y-8002851D01*
X23665487Y-8030627D01*
X23605055Y-8021056D01*
X23579999Y-8002852D01*
X23517511Y-7940364D01*
X23413170Y-7889355D01*
X23413171Y-7889355D01*
X23396259Y-7886891D01*
X23345528Y-7879500D01*
X22984472Y-7879500D01*
X22943886Y-7885413D01*
X22916828Y-7889355D01*
X22812489Y-7940364D01*
X22730363Y-8022490D01*
X22722839Y-8037879D01*
X22721804Y-8040000D01*
X22719858Y-8043980D01*
X22677315Y-8087954D01*
X22630917Y-8099500D01*
X19760435Y-8099500D01*
X19684012Y-8119978D01*
X19658841Y-8134511D01*
X19658840Y-8134510D01*
X19615488Y-8159540D01*
X19367356Y-8407672D01*
X19312840Y-8435449D01*
X19252408Y-8425878D01*
X19209143Y-8382613D01*
X19199572Y-8322181D01*
X19202284Y-8310047D01*
X19227110Y-8224594D01*
X19229047Y-8200000D01*
X18685001Y-8200000D01*
X18685000Y-8200001D01*
X18685000Y-8766992D01*
X18770048Y-8742284D01*
X18831203Y-8744206D01*
X18879549Y-8781707D01*
X18896619Y-8840463D01*
X18875893Y-8898031D01*
X18867672Y-8907357D01*
X18316992Y-9458037D01*
X18262475Y-9485814D01*
X18202043Y-9476243D01*
X18158778Y-9432978D01*
X18151361Y-9413656D01*
X18150500Y-9410442D01*
X18150500Y-9410438D01*
X18130021Y-9334012D01*
X18090460Y-9265489D01*
X17949567Y-9124596D01*
X17794496Y-8969524D01*
X17766719Y-8915008D01*
X17765500Y-8899521D01*
X17765500Y-8739613D01*
X17784407Y-8681422D01*
X17833907Y-8645458D01*
X17895093Y-8645458D01*
X17914895Y-8654400D01*
X18028300Y-8721467D01*
X18185000Y-8766992D01*
X18185000Y-7699999D01*
X18685000Y-7699999D01*
X18685001Y-7700000D01*
X19229045Y-7700000D01*
X19227110Y-7675404D01*
X19227109Y-7675399D01*
X19181467Y-7518299D01*
X19098194Y-7377492D01*
X18982507Y-7261805D01*
X18841699Y-7178532D01*
X18685000Y-7133006D01*
X18685000Y-7699999D01*
X18185000Y-7699999D01*
X18185000Y-7133006D01*
X18028300Y-7178532D01*
X18028299Y-7178532D01*
X17887491Y-7261806D01*
X17887489Y-7261807D01*
X17807137Y-7342159D01*
X17752620Y-7369936D01*
X17692188Y-7360364D01*
X17667130Y-7342159D01*
X17649511Y-7324540D01*
X15582514Y-5257543D01*
X13994971Y-3670000D01*
X38133006Y-3670000D01*
X38178532Y-3826699D01*
X38178532Y-3826700D01*
X38261805Y-3967507D01*
X38377492Y-4083194D01*
X38518299Y-4166467D01*
X38518298Y-4166467D01*
X38675399Y-4212109D01*
X38675404Y-4212110D01*
X38700000Y-4214045D01*
X38700000Y-3670001D01*
X39200000Y-3670001D01*
X39200000Y-4214045D01*
X39224587Y-4212112D01*
X39224600Y-4212109D01*
X39381699Y-4166467D01*
X39381700Y-4166467D01*
X39470105Y-4114185D01*
X39529817Y-4100837D01*
X39585970Y-4125137D01*
X39617116Y-4177802D01*
X39619500Y-4199398D01*
X39619500Y-4694746D01*
X39619501Y-4694758D01*
X39630490Y-4750000D01*
X39631133Y-4753231D01*
X39675448Y-4819552D01*
X39741769Y-4863867D01*
X39786231Y-4872711D01*
X39800241Y-4875498D01*
X39800246Y-4875498D01*
X39800252Y-4875500D01*
X39800253Y-4875500D01*
X40899747Y-4875500D01*
X40899748Y-4875500D01*
X40958231Y-4863867D01*
X41024552Y-4819552D01*
X41068867Y-4753231D01*
X41080500Y-4694748D01*
X41080500Y-4005252D01*
X41068867Y-3946769D01*
X41024552Y-3880448D01*
X40979529Y-3850364D01*
X40958233Y-3836134D01*
X40958231Y-3836133D01*
X40958228Y-3836132D01*
X40958227Y-3836132D01*
X40899758Y-3824501D01*
X40899748Y-3824500D01*
X39853963Y-3824500D01*
X39795772Y-3805593D01*
X39759808Y-3756093D01*
X39758894Y-3697880D01*
X39766994Y-3670000D01*
X39200001Y-3670000D01*
X39200000Y-3670001D01*
X38700000Y-3670001D01*
X38699999Y-3670000D01*
X38133006Y-3670000D01*
X13994971Y-3670000D01*
X13484511Y-3159540D01*
X13484508Y-3159538D01*
X13415992Y-3119980D01*
X13415988Y-3119978D01*
X13339564Y-3099500D01*
X13339562Y-3099500D01*
X10235438Y-3099500D01*
X10235435Y-3099500D01*
X10159011Y-3119978D01*
X10159007Y-3119980D01*
X10090491Y-3159538D01*
X7829525Y-5420504D01*
X7775008Y-5448281D01*
X7759521Y-5449500D01*
X6255252Y-5449500D01*
X6255251Y-5449500D01*
X6255241Y-5449501D01*
X6196772Y-5461132D01*
X6196766Y-5461134D01*
X6130451Y-5505445D01*
X6130445Y-5505451D01*
X6086134Y-5571766D01*
X6086132Y-5571772D01*
X6074501Y-5630241D01*
X6074500Y-5630253D01*
X-500000Y-5630253D01*
X-500000Y-5199500D01*
X-481093Y-5141309D01*
X-431593Y-5105345D01*
X-401000Y-5100500D01*
X19992Y-5100500D01*
X43283Y-5090852D01*
X56929Y-5085200D01*
X85200Y-5056929D01*
X100500Y-5019991D01*
X100500Y-2502984D01*
X100681Y-2497007D01*
X102181Y-2472209D01*
X124567Y-2415266D01*
X176148Y-2382356D01*
X237222Y-2386050D01*
X284460Y-2424937D01*
X300000Y-2478186D01*
X300000Y-3000002D01*
X599997Y-3699995D01*
X600000Y-3700000D01*
X1026757Y-4212109D01*
X1100000Y-4300000D01*
X1900000Y-4700000D01*
X2899998Y-4700000D01*
X2900000Y-4700000D01*
X3500000Y-4600000D01*
X4100000Y-4100000D01*
X4500000Y-3600000D01*
X4700000Y-2900000D01*
X4700000Y-2390000D01*
X19174540Y-2390000D01*
X19183808Y-2478186D01*
X19194327Y-2578261D01*
X19252819Y-2758279D01*
X19252825Y-2758293D01*
X19323147Y-2880093D01*
X19347467Y-2922216D01*
X19347469Y-2922218D01*
X19462524Y-3050000D01*
X19474129Y-3062888D01*
X19627270Y-3174151D01*
X19800197Y-3251144D01*
X19985354Y-3290500D01*
X19985357Y-3290500D01*
X20174643Y-3290500D01*
X20174646Y-3290500D01*
X20359803Y-3251144D01*
X20532730Y-3174151D01*
X20685871Y-3062888D01*
X20812533Y-2922216D01*
X20907179Y-2758284D01*
X20965674Y-2578256D01*
X20985460Y-2390000D01*
X21714540Y-2390000D01*
X21723808Y-2478186D01*
X21734327Y-2578261D01*
X21792819Y-2758279D01*
X21792825Y-2758293D01*
X21863147Y-2880093D01*
X21887467Y-2922216D01*
X21887469Y-2922218D01*
X22002524Y-3050000D01*
X22014129Y-3062888D01*
X22167270Y-3174151D01*
X22340197Y-3251144D01*
X22525354Y-3290500D01*
X22525357Y-3290500D01*
X22714643Y-3290500D01*
X22714646Y-3290500D01*
X22899803Y-3251144D01*
X23072730Y-3174151D01*
X23225871Y-3062888D01*
X23352533Y-2922216D01*
X23447179Y-2758284D01*
X23505674Y-2578256D01*
X23519154Y-2449997D01*
X36994353Y-2449997D01*
X36994353Y-2450002D01*
X37014834Y-2592456D01*
X37032076Y-2630210D01*
X37074623Y-2723373D01*
X37136478Y-2794758D01*
X37168873Y-2832144D01*
X37289942Y-2909950D01*
X37289947Y-2909953D01*
X37377447Y-2935645D01*
X37428035Y-2950499D01*
X37428036Y-2950499D01*
X37428039Y-2950500D01*
X37428041Y-2950500D01*
X37571959Y-2950500D01*
X37571961Y-2950500D01*
X37710053Y-2909953D01*
X37831128Y-2832143D01*
X37872264Y-2784668D01*
X37924660Y-2753073D01*
X37947083Y-2750500D01*
X38160387Y-2750500D01*
X38218578Y-2769407D01*
X38254542Y-2818907D01*
X38254542Y-2880093D01*
X38245600Y-2899895D01*
X38178532Y-3013299D01*
X38178532Y-3013300D01*
X38133005Y-3170000D01*
X39766994Y-3170000D01*
X39747273Y-3102120D01*
X39749195Y-3040965D01*
X39786696Y-2992619D01*
X39842342Y-2975500D01*
X40899747Y-2975500D01*
X40899748Y-2975500D01*
X40958231Y-2963867D01*
X41024552Y-2919552D01*
X41068867Y-2853231D01*
X41080500Y-2794748D01*
X41080500Y-2105252D01*
X41080284Y-2104168D01*
X41073062Y-2067858D01*
X41068867Y-2046769D01*
X41024552Y-1980448D01*
X40985719Y-1954500D01*
X40958233Y-1936134D01*
X40958231Y-1936133D01*
X40958228Y-1936132D01*
X40958227Y-1936132D01*
X40899758Y-1924501D01*
X40899748Y-1924500D01*
X39800252Y-1924500D01*
X39800251Y-1924500D01*
X39800241Y-1924501D01*
X39741772Y-1936132D01*
X39741766Y-1936134D01*
X39675451Y-1980445D01*
X39675445Y-1980451D01*
X39631134Y-2046766D01*
X39631132Y-2046772D01*
X39626548Y-2069816D01*
X39596650Y-2123200D01*
X39541085Y-2148814D01*
X39529451Y-2149500D01*
X39496862Y-2149500D01*
X39438671Y-2130593D01*
X39415700Y-2103242D01*
X39414405Y-2104168D01*
X39409638Y-2097492D01*
X39409636Y-2097490D01*
X39409636Y-2097489D01*
X39327511Y-2015364D01*
X39223170Y-1964355D01*
X39223171Y-1964355D01*
X39206259Y-1961891D01*
X39155528Y-1954500D01*
X38744472Y-1954500D01*
X38703886Y-1960413D01*
X38676828Y-1964355D01*
X38572489Y-2015364D01*
X38490364Y-2097489D01*
X38490363Y-2097490D01*
X38490362Y-2097492D01*
X38485595Y-2104168D01*
X38483600Y-2102743D01*
X38449536Y-2137954D01*
X38403138Y-2149500D01*
X37947083Y-2149500D01*
X37888892Y-2130593D01*
X37872264Y-2115331D01*
X37831128Y-2067857D01*
X37798182Y-2046684D01*
X37710057Y-1990049D01*
X37710054Y-1990047D01*
X37710053Y-1990047D01*
X37710050Y-1990046D01*
X37571964Y-1949500D01*
X37571961Y-1949500D01*
X37428039Y-1949500D01*
X37428035Y-1949500D01*
X37289949Y-1990046D01*
X37289942Y-1990049D01*
X37168873Y-2067855D01*
X37074622Y-2176628D01*
X37014834Y-2307543D01*
X36994353Y-2449997D01*
X23519154Y-2449997D01*
X23525460Y-2390000D01*
X23505674Y-2201744D01*
X23447179Y-2021716D01*
X23447176Y-2021711D01*
X23447174Y-2021706D01*
X23376906Y-1900000D01*
X23352533Y-1857784D01*
X23225871Y-1717112D01*
X23202318Y-1700000D01*
X23072731Y-1605850D01*
X23072732Y-1605850D01*
X23072730Y-1605849D01*
X23072725Y-1605847D01*
X23072722Y-1605845D01*
X22899805Y-1528857D01*
X22899803Y-1528856D01*
X22899800Y-1528855D01*
X22899799Y-1528855D01*
X22864580Y-1521369D01*
X22714646Y-1489500D01*
X22525354Y-1489500D01*
X22407289Y-1514595D01*
X22340200Y-1528855D01*
X22340194Y-1528857D01*
X22167277Y-1605845D01*
X22167268Y-1605850D01*
X22014129Y-1717111D01*
X22014124Y-1717116D01*
X21887469Y-1857781D01*
X21887465Y-1857787D01*
X21792825Y-2021706D01*
X21792819Y-2021720D01*
X21734327Y-2201738D01*
X21734326Y-2201742D01*
X21734326Y-2201744D01*
X21714540Y-2390000D01*
X20985460Y-2390000D01*
X20965674Y-2201744D01*
X20907179Y-2021716D01*
X20907176Y-2021711D01*
X20907174Y-2021706D01*
X20836906Y-1900000D01*
X20812533Y-1857784D01*
X20685871Y-1717112D01*
X20662318Y-1700000D01*
X20532731Y-1605850D01*
X20532732Y-1605850D01*
X20532730Y-1605849D01*
X20532725Y-1605847D01*
X20532722Y-1605845D01*
X20359805Y-1528857D01*
X20359803Y-1528856D01*
X20359800Y-1528855D01*
X20359799Y-1528855D01*
X20324580Y-1521369D01*
X20174646Y-1489500D01*
X19985354Y-1489500D01*
X19867289Y-1514595D01*
X19800200Y-1528855D01*
X19800194Y-1528857D01*
X19627277Y-1605845D01*
X19627268Y-1605850D01*
X19474129Y-1717111D01*
X19474124Y-1717116D01*
X19347469Y-1857781D01*
X19347465Y-1857787D01*
X19252825Y-2021706D01*
X19252819Y-2021720D01*
X19194327Y-2201738D01*
X19194326Y-2201742D01*
X19194326Y-2201744D01*
X19174540Y-2390000D01*
X4700000Y-2390000D01*
X4700000Y-1900000D01*
X4500000Y-1400000D01*
X4100000Y-900000D01*
X3631563Y-525250D01*
X3600000Y-500000D01*
X3000000Y-300000D01*
X2478187Y-300000D01*
X2419996Y-281093D01*
X2384032Y-231593D01*
X2384032Y-170407D01*
X2419996Y-120907D01*
X2472210Y-102181D01*
X2497008Y-100681D01*
X2502985Y-100500D01*
X2526929Y-100500D01*
X51473071Y-100500D01*
X51497015Y-100500D01*
X51502992Y-100681D01*
G37*
%TD.AperFunction*%
%TD*%
D26*
X37500000Y-2450000D03*
X34950000Y-7100000D03*
X43550000Y-7250000D03*
X45350000Y-6150000D03*
X29000000Y-21450000D03*
X18550000Y-4750000D03*
X36600000Y-8200000D03*
X3350000Y-16000000D03*
X9400000Y-12824264D03*
X10000000Y-6900000D03*
X15150000Y-15300000D03*
X28150000Y-5900000D03*
X6550000Y-3750000D03*
X24850000Y-14150000D03*
X14700000Y-21500000D03*
X9900000Y-9750000D03*
X2800000Y-12100000D03*
X46050000Y-2350000D03*
X52750000Y-16800000D03*
X18350000Y-6600000D03*
X36800000Y-3700000D03*
X9600000Y-15450000D03*
X18300000Y-11600000D03*
X52600000Y-9200000D03*
X49350000Y-7000000D03*
X6750000Y-20100000D03*
X45800000Y-15300000D03*
X46300000Y-21550000D03*
X45650000Y-17850000D03*
X41150000Y-3420000D03*
X30350000Y-14000000D03*
X25650000Y-3150000D03*
X11200000Y-20000000D03*
X40500000Y-13150000D03*
X10050000Y-17922792D03*
X34300000Y-1900000D03*
X36300000Y-14250000D03*
X29950000Y-11250000D03*
X19600000Y-7600000D03*
X5500000Y-7500000D03*
X16350000Y-8550000D03*
X51300000Y-15450000D03*
X42500000Y-8950000D03*
X42200000Y-10750000D03*
X15800000Y-12200000D03*
X46287500Y-7437500D03*
X9337500Y-7962500D03*
X4650000Y-13750000D03*
X50550000Y-10650000D03*
X42300000Y-7450000D03*
X50750000Y-12200000D03*
X38650000Y-13650000D03*
X4881626Y-12550000D03*
X49750000Y-13300000D03*
X7525000Y-13650000D03*
X40650000Y-10250000D03*
X40600000Y-11650000D03*
X7525000Y-11230000D03*
X42923528Y-14773528D03*
X23800000Y-7100000D03*
X24650000Y-6250000D03*
X44600000Y-8000000D03*
X16557475Y-14192525D03*
X11750000Y-5400000D03*
X12800000Y-8350000D03*
D27*
X2500000Y-2500000D03*
X51500000Y-22500000D03*
X5850000Y-23600000D03*
X7850000Y-23600000D03*
X9850000Y-23600000D03*
X11850000Y-23600000D03*
X51500000Y-2550000D03*
X20080000Y-2390000D03*
X22620000Y-2390000D03*
X2500000Y-22500000D03*
M02*
