%TF.GenerationSoftware,KiCad,Pcbnew,8.0.8*%
%TF.CreationDate,2025-07-09T11:23:43+01:00*%
%TF.ProjectId,Speaker,53706561-6b65-4722-9e6b-696361645f70,rev?*%
%TF.SameCoordinates,Original*%
%TF.FileFunction,Copper,L1,Top*%
%TF.FilePolarity,Positive*%
%FSLAX46Y46*%
G04 Gerber Fmt 4.6, Leading zero omitted, Abs format (unit mm)*
G04 Created by KiCad (PCBNEW 8.0.8) date 2025-07-09 11:23:43*
%MOMM*%
%LPD*%
G01*
G04 APERTURE LIST*
G04 Aperture macros list*
%AMRoundRect*
0 Rectangle with rounded corners*
0 $1 Rounding radius*
0 $2 $3 $4 $5 $6 $7 $8 $9 X,Y pos of 4 corners*
0 Add a 4 corners polygon primitive as box body*
4,1,4,$2,$3,$4,$5,$6,$7,$8,$9,$2,$3,0*
0 Add four circle primitives for the rounded corners*
1,1,$1+$1,$2,$3*
1,1,$1+$1,$4,$5*
1,1,$1+$1,$6,$7*
1,1,$1+$1,$8,$9*
0 Add four rect primitives between the rounded corners*
20,1,$1+$1,$2,$3,$4,$5,0*
20,1,$1+$1,$4,$5,$6,$7,0*
20,1,$1+$1,$6,$7,$8,$9,0*
20,1,$1+$1,$8,$9,$2,$3,0*%
G04 Aperture macros list end*
%TA.AperFunction,SMDPad,CuDef*%
%ADD10RoundRect,0.300000X1.100000X0.300000X-1.100000X0.300000X-1.100000X-0.300000X1.100000X-0.300000X0*%
%TD*%
%TA.AperFunction,SMDPad,CuDef*%
%ADD11R,2.000000X1.600000*%
%TD*%
%TA.AperFunction,SMDPad,CuDef*%
%ADD12R,1.250000X0.300000*%
%TD*%
%TA.AperFunction,ComponentPad*%
%ADD13R,1.350000X1.350000*%
%TD*%
%TA.AperFunction,ComponentPad*%
%ADD14O,1.350000X1.350000*%
%TD*%
%TA.AperFunction,SMDPad,CuDef*%
%ADD15RoundRect,0.200000X-0.200000X-0.600000X0.200000X-0.600000X0.200000X0.600000X-0.200000X0.600000X0*%
%TD*%
%TA.AperFunction,SMDPad,CuDef*%
%ADD16RoundRect,0.250001X-0.799999X-1.249999X0.799999X-1.249999X0.799999X1.249999X-0.799999X1.249999X0*%
%TD*%
%TA.AperFunction,ComponentPad*%
%ADD17C,1.400000*%
%TD*%
%TA.AperFunction,ViaPad*%
%ADD18C,0.600000*%
%TD*%
%TA.AperFunction,Conductor*%
%ADD19C,0.200000*%
%TD*%
%ADD20C,0.300000*%
%ADD21C,0.350000*%
G04 APERTURE END LIST*
D10*
%TO.P,LS2,*%
%TO.N,*%
X35250000Y-21750000D03*
X23450000Y-21750000D03*
%TO.P,LS2,1,1*%
%TO.N,OUT2*%
X35250000Y-5050000D03*
%TO.P,LS2,2,2*%
%TO.N,OUT1*%
X23450000Y-5050000D03*
%TD*%
D11*
%TO.P,J12,*%
%TO.N,*%
X3645000Y-18100000D03*
X3645000Y-6900000D03*
D12*
%TO.P,J12,1,1*%
%TO.N,GND*%
X6300000Y-8750000D03*
%TO.P,J12,2,2*%
%TO.N,5V*%
X6300000Y-9250000D03*
%TO.P,J12,3,3*%
X6300000Y-9750000D03*
%TO.P,J12,4,4*%
%TO.N,GND*%
X6300000Y-10250000D03*
%TO.P,J12,5,5*%
%TO.N,PS*%
X6300000Y-10750000D03*
%TO.P,J12,6,6*%
%TO.N,GND*%
X6300000Y-11250000D03*
%TO.P,J12,7,7*%
%TO.N,SCLK*%
X6300000Y-11750000D03*
%TO.P,J12,8,8*%
%TO.N,GND*%
X6300000Y-12250000D03*
%TO.P,J12,9,9*%
%TO.N,MISO*%
X6300000Y-12750000D03*
%TO.P,J12,10,10*%
%TO.N,GND*%
X6300000Y-13250000D03*
%TO.P,J12,11,11*%
%TO.N,MOSI*%
X6300000Y-13750000D03*
%TO.P,J12,12,12*%
%TO.N,Interrupt5V*%
X6300000Y-14250000D03*
%TO.P,J12,13,13*%
%TO.N,GND*%
X6300000Y-14750000D03*
%TO.P,J12,14,14*%
%TO.N,5V*%
X6300000Y-15250000D03*
%TO.P,J12,15,15*%
X6300000Y-15750000D03*
%TO.P,J12,16,16*%
%TO.N,GND*%
X6300000Y-16250000D03*
%TD*%
D13*
%TO.P,J4,1,Pin_1*%
%TO.N,5V*%
X5850000Y-23600000D03*
D14*
%TO.P,J4,2,Pin_2*%
%TO.N,GND*%
X7850000Y-23600000D03*
%TO.P,J4,3,Pin_3*%
%TO.N,SWDIO*%
X9850000Y-23600000D03*
%TO.P,J4,4,Pin_4*%
%TO.N,SWDCLK*%
X11850000Y-23600000D03*
%TD*%
D11*
%TO.P,J13,*%
%TO.N,*%
X51030000Y-6900000D03*
X51030000Y-18100000D03*
D12*
%TO.P,J13,1,1*%
%TO.N,GND*%
X48375000Y-16250000D03*
%TO.P,J13,2,2*%
%TO.N,5V*%
X48375000Y-15750000D03*
%TO.P,J13,3,3*%
X48375000Y-15250000D03*
%TO.P,J13,4,4*%
%TO.N,GND*%
X48375000Y-14750000D03*
%TO.P,J13,5,5*%
%TO.N,PS*%
X48375000Y-14250000D03*
%TO.P,J13,6,6*%
%TO.N,GND*%
X48375000Y-13750000D03*
%TO.P,J13,7,7*%
%TO.N,SCLK*%
X48375000Y-13250000D03*
%TO.P,J13,8,8*%
%TO.N,GND*%
X48375000Y-12750000D03*
%TO.P,J13,9,9*%
%TO.N,MISO*%
X48375000Y-12250000D03*
%TO.P,J13,10,10*%
%TO.N,GND*%
X48375000Y-11750000D03*
%TO.P,J13,11,11*%
%TO.N,MOSI*%
X48375000Y-11250000D03*
%TO.P,J13,12,12*%
%TO.N,Interrupt5V*%
X48375000Y-10750000D03*
%TO.P,J13,13,13*%
%TO.N,GND*%
X48375000Y-10250000D03*
%TO.P,J13,14,14*%
%TO.N,5V*%
X48375000Y-9750000D03*
%TO.P,J13,15,15*%
X48375000Y-9250000D03*
%TO.P,J13,16,16*%
%TO.N,GND*%
X48375000Y-8750000D03*
%TD*%
D15*
%TO.P,J2,1,Pin_1*%
%TO.N,OUT2*%
X11730000Y-1630000D03*
%TO.P,J2,2,Pin_2*%
%TO.N,OUT1*%
X12980000Y-1630000D03*
D16*
%TO.P,J2,MP*%
%TO.N,N/C*%
X15530000Y-4530000D03*
X9180000Y-4530000D03*
%TD*%
D17*
%TO.P,TP1,1,1*%
%TO.N,OUT1*%
X20080000Y-2390000D03*
%TO.P,TP1,2,2*%
%TO.N,OUT2*%
X22620000Y-2390000D03*
%TD*%
D18*
%TO.N,VDD*%
X37500000Y-2450000D03*
X34950000Y-7100000D03*
%TO.N,GND*%
X43550000Y-7250000D03*
X45350000Y-6150000D03*
X29000000Y-21450000D03*
X18550000Y-4750000D03*
X36600000Y-8200000D03*
X3350000Y-16000000D03*
X9400000Y-12824264D03*
X10000000Y-6900000D03*
X15150000Y-15300000D03*
X28150000Y-5900000D03*
X6550000Y-3750000D03*
X24850000Y-14150000D03*
X14700000Y-21500000D03*
X9900000Y-9750000D03*
X2800000Y-12100000D03*
X46050000Y-2350000D03*
X52750000Y-16800000D03*
X18350000Y-6600000D03*
X36800000Y-3700000D03*
X9600000Y-15450000D03*
X18300000Y-11600000D03*
X52600000Y-9200000D03*
X49350000Y-7000000D03*
X6750000Y-20100000D03*
X45800000Y-15300000D03*
X46300000Y-21550000D03*
X45650000Y-17850000D03*
X41150000Y-3420000D03*
X30350000Y-14000000D03*
X25650000Y-3150000D03*
X11200000Y-20000000D03*
X40500000Y-13150000D03*
X10050000Y-17922792D03*
X34300000Y-1900000D03*
X36300000Y-14250000D03*
X29950000Y-11250000D03*
X19600000Y-7600000D03*
X5500000Y-7500000D03*
X16350000Y-8550000D03*
X51300000Y-15450000D03*
X42500000Y-8950000D03*
X42200000Y-10750000D03*
X15800000Y-12200000D03*
%TO.N,5V*%
X46287500Y-7437500D03*
X9337500Y-7962500D03*
%TO.N,MOSI*%
X4650000Y-13750000D03*
X50550000Y-10650000D03*
X42300000Y-7450000D03*
%TO.N,MISO*%
X50750000Y-12200000D03*
X38650000Y-13650000D03*
X4881626Y-12550000D03*
%TO.N,SCLK*%
X49750000Y-13300000D03*
X7525000Y-13650000D03*
X40650000Y-10250000D03*
%TO.N,PS*%
X40600000Y-11650000D03*
X7525000Y-11230000D03*
X42923528Y-14773528D03*
%TO.N,SWDIO*%
X23800000Y-7100000D03*
%TO.N,SWDCLK*%
X24650000Y-6250000D03*
%TO.N,Interrupt5V*%
X44600000Y-8000000D03*
X16557475Y-14192525D03*
%TO.N,OUT2*%
X11750000Y-5400000D03*
%TO.N,OUT1*%
X12800000Y-8350000D03*
%TD*%
D19*
%TO.N,VDD*%
X37000000Y-7100000D02*
X37600000Y-6500000D01*
X34950000Y-7100000D02*
X37000000Y-7100000D01*
X37600000Y-2550000D02*
X37500000Y-2450000D01*
X37600000Y-6500000D02*
X37600000Y-2550000D01*
%TO.N,GND*%
X50400000Y-12700000D02*
X50900000Y-13200000D01*
X48375000Y-11750000D02*
X50351471Y-11750000D01*
X6300000Y-10250000D02*
X5425000Y-10250000D01*
X51350000Y-12750000D02*
X50900000Y-13200000D01*
X5350000Y-12175000D02*
X5350000Y-11250000D01*
X4998529Y-13250000D02*
X4898529Y-13150000D01*
X6300000Y-13250000D02*
X4998529Y-13250000D01*
X4250000Y-12051471D02*
X4250000Y-12998529D01*
X4898529Y-13150000D02*
X4401471Y-13150000D01*
X4050000Y-13501471D02*
X4050000Y-13998529D01*
X4401471Y-13150000D02*
X4050000Y-13501471D01*
X51350000Y-11450000D02*
X51350000Y-12750000D01*
X49350000Y-14750000D02*
X48375000Y-14750000D01*
X49950000Y-14150000D02*
X49350000Y-14750000D01*
X51350000Y-10601471D02*
X51350000Y-11450000D01*
X5350000Y-11250000D02*
X5051471Y-11250000D01*
X5051471Y-11250000D02*
X4250000Y-12051471D01*
X6300000Y-14750000D02*
X4801472Y-14750000D01*
X49351471Y-13750000D02*
X49751471Y-14150000D01*
X50651471Y-11450000D02*
X51350000Y-11450000D01*
X48375000Y-13750000D02*
X49351471Y-13750000D01*
X50351471Y-11750000D02*
X50651471Y-11450000D01*
X6300000Y-11250000D02*
X5350000Y-11250000D01*
X50900000Y-13200000D02*
X49950000Y-14150000D01*
X50101471Y-10250000D02*
X50301471Y-10050000D01*
X5425000Y-10250000D02*
X5051471Y-10623529D01*
X48375000Y-12750000D02*
X48425000Y-12700000D01*
X4250000Y-12998529D02*
X4401471Y-13150000D01*
X4801472Y-14750000D02*
X4500736Y-14449264D01*
X50798529Y-10050000D02*
X51350000Y-10601471D01*
X49751471Y-14150000D02*
X49950000Y-14150000D01*
X5051471Y-10623529D02*
X5051471Y-11250000D01*
X5425000Y-12250000D02*
X5350000Y-12175000D01*
X50301471Y-10050000D02*
X50798529Y-10050000D01*
X6300000Y-12250000D02*
X5425000Y-12250000D01*
X4050000Y-13998529D02*
X4500736Y-14449264D01*
X48425000Y-12700000D02*
X50400000Y-12700000D01*
X48375000Y-10250000D02*
X50101471Y-10250000D01*
%TO.N,5V*%
X52200000Y-13500000D02*
X50450000Y-15250000D01*
X49550000Y-15450000D02*
X49550000Y-15250000D01*
X5850000Y-23600000D02*
X5375000Y-23125000D01*
X49600000Y-15500000D02*
X49550000Y-15450000D01*
X49400000Y-9750000D02*
X49750000Y-9400000D01*
X3650000Y-14164214D02*
X4985786Y-15500000D01*
X47500000Y-9250000D02*
X46287500Y-8037500D01*
X3650000Y-11459314D02*
X3650000Y-14164214D01*
X5600000Y-15250000D02*
X5350000Y-15500000D01*
X6300000Y-9250000D02*
X5450000Y-9250000D01*
X6300000Y-9750000D02*
X5359314Y-9750000D01*
X5350000Y-15500000D02*
X5350000Y-15700000D01*
X49750000Y-9400000D02*
X51200000Y-9400000D01*
X47700000Y-9750000D02*
X47400000Y-9450000D01*
X48375000Y-9750000D02*
X47700000Y-9750000D01*
X51200000Y-9400000D02*
X52200000Y-10400000D01*
X49350000Y-15750000D02*
X49600000Y-15500000D01*
X47400000Y-9450000D02*
X47500000Y-9350000D01*
X5450000Y-9250000D02*
X5350000Y-9350000D01*
X8050000Y-9250000D02*
X9337500Y-7962500D01*
X48375000Y-15750000D02*
X49350000Y-15750000D01*
X5350000Y-9350000D02*
X5359314Y-9359314D01*
X48375000Y-9250000D02*
X47500000Y-9250000D01*
X48375000Y-9750000D02*
X49400000Y-9750000D01*
X50450000Y-15250000D02*
X49550000Y-15250000D01*
X5550000Y-15750000D02*
X6300000Y-15750000D01*
X49550000Y-15250000D02*
X48375000Y-15250000D01*
X5359314Y-9359314D02*
X5359314Y-9750000D01*
X52200000Y-10400000D02*
X52200000Y-13500000D01*
X5375000Y-15725000D02*
X5375000Y-15925000D01*
X5359314Y-9750000D02*
X3650000Y-11459314D01*
X6300000Y-15250000D02*
X5600000Y-15250000D01*
X47500000Y-9350000D02*
X47500000Y-9250000D01*
X46287500Y-8037500D02*
X46287500Y-7437500D01*
X5350000Y-15700000D02*
X5375000Y-15725000D01*
X4985786Y-15500000D02*
X5350000Y-15500000D01*
X6300000Y-9250000D02*
X8050000Y-9250000D01*
X5375000Y-23125000D02*
X5375000Y-15925000D01*
X5375000Y-15925000D02*
X5550000Y-15750000D01*
%TO.N,MOSI*%
X46100000Y-11250000D02*
X42300000Y-7450000D01*
X48375000Y-11250000D02*
X49950000Y-11250000D01*
X6300000Y-13750000D02*
X4650000Y-13750000D01*
X49950000Y-11250000D02*
X50550000Y-10650000D01*
X48375000Y-11250000D02*
X46100000Y-11250000D01*
%TO.N,MISO*%
X44650000Y-12250000D02*
X42100000Y-9700000D01*
X50700000Y-12250000D02*
X48375000Y-12250000D01*
X42100000Y-9700000D02*
X41250000Y-8850000D01*
X48375000Y-12250000D02*
X44650000Y-12250000D01*
X38750000Y-9700000D02*
X38750000Y-10400000D01*
X39600000Y-8850000D02*
X38750000Y-9700000D01*
X38650000Y-10500000D02*
X38650000Y-13650000D01*
X5081626Y-12750000D02*
X4881626Y-12550000D01*
X41250000Y-8850000D02*
X39600000Y-8850000D01*
X38750000Y-10400000D02*
X38650000Y-10500000D01*
X6300000Y-12750000D02*
X5081626Y-12750000D01*
X50750000Y-12200000D02*
X50700000Y-12250000D01*
%TO.N,SCLK*%
X6300000Y-11750000D02*
X7175000Y-11750000D01*
X7525000Y-12100000D02*
X7525000Y-13650000D01*
X7175000Y-11750000D02*
X7525000Y-12100000D01*
X43650000Y-13250000D02*
X48375000Y-13250000D01*
X40650000Y-10250000D02*
X43650000Y-13250000D01*
X48425000Y-13300000D02*
X48375000Y-13250000D01*
X49750000Y-13300000D02*
X48425000Y-13300000D01*
%TO.N,PS*%
X43200000Y-14250000D02*
X43200000Y-14497056D01*
X48375000Y-14250000D02*
X43200000Y-14250000D01*
X43200000Y-14497056D02*
X42923528Y-14773528D01*
X6300000Y-10750000D02*
X7045000Y-10750000D01*
X7045000Y-10750000D02*
X7525000Y-11230000D01*
X43200000Y-14250000D02*
X40600000Y-11650000D01*
%TO.N,SWDIO*%
X9850000Y-23600000D02*
X16000000Y-17450000D01*
X19200000Y-17450000D02*
X21850000Y-14800000D01*
X16000000Y-17450000D02*
X19200000Y-17450000D01*
X21850000Y-14800000D02*
X21850000Y-14650000D01*
X21850000Y-14650000D02*
X21850000Y-9050000D01*
X21850000Y-9050000D02*
X23800000Y-7100000D01*
%TO.N,SWDCLK*%
X24650000Y-7098529D02*
X22550000Y-9198529D01*
X22550000Y-9198529D02*
X22550000Y-14850000D01*
X22550000Y-14850000D02*
X19350000Y-18050000D01*
X16250000Y-18050000D02*
X11850000Y-22450000D01*
X11850000Y-22450000D02*
X11850000Y-23600000D01*
X24650000Y-6250000D02*
X24650000Y-7098529D01*
X19350000Y-18050000D02*
X16250000Y-18050000D01*
%TO.N,Interrupt5V*%
X47350000Y-10750000D02*
X44600000Y-8000000D01*
X16557475Y-14192525D02*
X16500000Y-14250000D01*
X48375000Y-10750000D02*
X47350000Y-10750000D01*
X16500000Y-14250000D02*
X6300000Y-14250000D01*
%TO.N,OUT2*%
X32590000Y-2390000D02*
X35250000Y-5050000D01*
X22620000Y-2390000D02*
X32590000Y-2390000D01*
X12060000Y-500000D02*
X20730000Y-500000D01*
X11750000Y-5400000D02*
X11730000Y-5380000D01*
X11730000Y-830000D02*
X12060000Y-500000D01*
X20730000Y-500000D02*
X22620000Y-2390000D01*
X11730000Y-5380000D02*
X11730000Y-1630000D01*
X11730000Y-1630000D02*
X11730000Y-830000D01*
%TO.N,OUT1*%
X21750000Y-5050000D02*
X20080000Y-3380000D01*
X12980000Y-1630000D02*
X13740000Y-2390000D01*
X13740000Y-2390000D02*
X20080000Y-2390000D01*
X20080000Y-3380000D02*
X20080000Y-2390000D01*
X23450000Y-5050000D02*
X21750000Y-5050000D01*
X12980000Y-8170000D02*
X12800000Y-8350000D01*
X12980000Y-1630000D02*
X12980000Y-8170000D01*
%TD*%
%TA.AperFunction,Conductor*%
%TO.N,GND*%
G36*
X11853713Y-119407D02*
G01*
X11889677Y-168907D01*
X11889677Y-230093D01*
X11865525Y-269504D01*
X11545488Y-589539D01*
X11545489Y-589540D01*
X11529600Y-605429D01*
X11475083Y-633206D01*
X11475082Y-633206D01*
X11404699Y-644352D01*
X11404695Y-644354D01*
X11291659Y-701949D01*
X11201949Y-791659D01*
X11144354Y-904695D01*
X11129500Y-998478D01*
X11129500Y-2261521D01*
X11129501Y-2261523D01*
X11144352Y-2355299D01*
X11144354Y-2355304D01*
X11201950Y-2468342D01*
X11291658Y-2558050D01*
X11375446Y-2600742D01*
X11418710Y-2644006D01*
X11429500Y-2688951D01*
X11429500Y-4968667D01*
X11410593Y-5026858D01*
X11405319Y-5033498D01*
X11324623Y-5126626D01*
X11264834Y-5257543D01*
X11244353Y-5399997D01*
X11244353Y-5400002D01*
X11264834Y-5542456D01*
X11287611Y-5592329D01*
X11324623Y-5673373D01*
X11414260Y-5776820D01*
X11418873Y-5782144D01*
X11539942Y-5859950D01*
X11539947Y-5859953D01*
X11646403Y-5891211D01*
X11678035Y-5900499D01*
X11678036Y-5900499D01*
X11678039Y-5900500D01*
X11678041Y-5900500D01*
X11821959Y-5900500D01*
X11821961Y-5900500D01*
X11960053Y-5859953D01*
X12081128Y-5782143D01*
X12175377Y-5673373D01*
X12235165Y-5542457D01*
X12255647Y-5400000D01*
X12255341Y-5397873D01*
X12235165Y-5257543D01*
X12175377Y-5126628D01*
X12175377Y-5126627D01*
X12081128Y-5017857D01*
X12081127Y-5017856D01*
X12081126Y-5017855D01*
X12075975Y-5014545D01*
X12037245Y-4967178D01*
X12030500Y-4931262D01*
X12030500Y-2688951D01*
X12049407Y-2630760D01*
X12084552Y-2600742D01*
X12168342Y-2558050D01*
X12258050Y-2468342D01*
X12266791Y-2451185D01*
X12310055Y-2407922D01*
X12370487Y-2398351D01*
X12425003Y-2426128D01*
X12443206Y-2451182D01*
X12451950Y-2468342D01*
X12541658Y-2558050D01*
X12625446Y-2600742D01*
X12668710Y-2644006D01*
X12679500Y-2688951D01*
X12679500Y-7789641D01*
X12660593Y-7847832D01*
X12611093Y-7883796D01*
X12608393Y-7884630D01*
X12589952Y-7890044D01*
X12589942Y-7890049D01*
X12468873Y-7967855D01*
X12374622Y-8076628D01*
X12314834Y-8207543D01*
X12294353Y-8349994D01*
X12294353Y-8350002D01*
X12314834Y-8492456D01*
X12374622Y-8623371D01*
X12374623Y-8623373D01*
X12468872Y-8732143D01*
X12468873Y-8732144D01*
X12589304Y-8809540D01*
X12589947Y-8809953D01*
X12696403Y-8841211D01*
X12728035Y-8850499D01*
X12728036Y-8850499D01*
X12728039Y-8850500D01*
X12728041Y-8850500D01*
X12871959Y-8850500D01*
X12871961Y-8850500D01*
X13010053Y-8809953D01*
X13131128Y-8732143D01*
X13225377Y-8623373D01*
X13285165Y-8492457D01*
X13296593Y-8412971D01*
X13305647Y-8350002D01*
X13305647Y-8349994D01*
X13285166Y-8207547D01*
X13284511Y-8205316D01*
X13280500Y-8177421D01*
X13280500Y-2688951D01*
X13299407Y-2630760D01*
X13334553Y-2600742D01*
X13397140Y-2568852D01*
X13457570Y-2559281D01*
X13512087Y-2587058D01*
X13555489Y-2630460D01*
X13555491Y-2630461D01*
X13624007Y-2670019D01*
X13624011Y-2670021D01*
X13700435Y-2690499D01*
X13700437Y-2690500D01*
X13700438Y-2690500D01*
X14471198Y-2690500D01*
X14529389Y-2709407D01*
X14565353Y-2758907D01*
X14565353Y-2820093D01*
X14529389Y-2869593D01*
X14517455Y-2877029D01*
X14517114Y-2877209D01*
X14407855Y-2957845D01*
X14407845Y-2957855D01*
X14327208Y-3067114D01*
X14282353Y-3195305D01*
X14279500Y-3225726D01*
X14279500Y-5834265D01*
X14282353Y-5864694D01*
X14282353Y-5864696D01*
X14282354Y-5864698D01*
X14321519Y-5976627D01*
X14327208Y-5992885D01*
X14407845Y-6102144D01*
X14407847Y-6102146D01*
X14407850Y-6102150D01*
X14407853Y-6102152D01*
X14407855Y-6102154D01*
X14517114Y-6182791D01*
X14517116Y-6182791D01*
X14517118Y-6182793D01*
X14645302Y-6227646D01*
X14675735Y-6230500D01*
X16384264Y-6230499D01*
X16384265Y-6230499D01*
X16390350Y-6229928D01*
X16414698Y-6227646D01*
X16542882Y-6182793D01*
X16652150Y-6102150D01*
X16732793Y-5992882D01*
X16777646Y-5864698D01*
X16780500Y-5834265D01*
X16780499Y-3225736D01*
X16779565Y-3215778D01*
X16777646Y-3195305D01*
X16777646Y-3195302D01*
X16732793Y-3067118D01*
X16732791Y-3067116D01*
X16732791Y-3067114D01*
X16652154Y-2957855D01*
X16652152Y-2957853D01*
X16652150Y-2957850D01*
X16652146Y-2957847D01*
X16652144Y-2957845D01*
X16542885Y-2877209D01*
X16542883Y-2877208D01*
X16542882Y-2877207D01*
X16542879Y-2877206D01*
X16542545Y-2877029D01*
X16542300Y-2876777D01*
X16536913Y-2872801D01*
X16537573Y-2871906D01*
X16499931Y-2833123D01*
X16491263Y-2772554D01*
X16519852Y-2718459D01*
X16574777Y-2691498D01*
X16588802Y-2690500D01*
X19158869Y-2690500D01*
X19217060Y-2709407D01*
X19249519Y-2754081D01*
X19250714Y-2753550D01*
X19252825Y-2758293D01*
X19318937Y-2872801D01*
X19347467Y-2922216D01*
X19347469Y-2922218D01*
X19462524Y-3050000D01*
X19474129Y-3062888D01*
X19627270Y-3174151D01*
X19627276Y-3174153D01*
X19627280Y-3174156D01*
X19720766Y-3215778D01*
X19766236Y-3256718D01*
X19779500Y-3306219D01*
X19779500Y-3419564D01*
X19799978Y-3495988D01*
X19799980Y-3495992D01*
X19839538Y-3564508D01*
X19839540Y-3564511D01*
X21565489Y-5290460D01*
X21565491Y-5290461D01*
X21565493Y-5290463D01*
X21634008Y-5330020D01*
X21634006Y-5330020D01*
X21634010Y-5330021D01*
X21634012Y-5330022D01*
X21710438Y-5350500D01*
X21755481Y-5350500D01*
X21813672Y-5369407D01*
X21849636Y-5418907D01*
X21853914Y-5438921D01*
X21855908Y-5457480D01*
X21855909Y-5457485D01*
X21906202Y-5592329D01*
X21966872Y-5673373D01*
X21992454Y-5707546D01*
X21992457Y-5707548D01*
X21992458Y-5707549D01*
X22107670Y-5793797D01*
X22242511Y-5844089D01*
X22242512Y-5844089D01*
X22242517Y-5844091D01*
X22302127Y-5850500D01*
X24128176Y-5850499D01*
X24186367Y-5869406D01*
X24222331Y-5918906D01*
X24222331Y-5980092D01*
X24218229Y-5990625D01*
X24164834Y-6107541D01*
X24164834Y-6107543D01*
X24144353Y-6249997D01*
X24144353Y-6250002D01*
X24164834Y-6392456D01*
X24164951Y-6392712D01*
X24224623Y-6523373D01*
X24238652Y-6539564D01*
X24323509Y-6637494D01*
X24321471Y-6639259D01*
X24346925Y-6681458D01*
X24349500Y-6703893D01*
X24349500Y-6704442D01*
X24330593Y-6762633D01*
X24281093Y-6798597D01*
X24219907Y-6798597D01*
X24175681Y-6769273D01*
X24131129Y-6717858D01*
X24131127Y-6717856D01*
X24010057Y-6640049D01*
X24010054Y-6640047D01*
X24010053Y-6640047D01*
X24010050Y-6640046D01*
X23871964Y-6599500D01*
X23871961Y-6599500D01*
X23728039Y-6599500D01*
X23728035Y-6599500D01*
X23589949Y-6640046D01*
X23589942Y-6640049D01*
X23468873Y-6717855D01*
X23374622Y-6826628D01*
X23314834Y-6957543D01*
X23294353Y-7099997D01*
X23294353Y-7100003D01*
X23297441Y-7121482D01*
X23287007Y-7181771D01*
X23269453Y-7205574D01*
X21665489Y-8809540D01*
X21665488Y-8809539D01*
X21609539Y-8865489D01*
X21569980Y-8934007D01*
X21569978Y-8934011D01*
X21549500Y-9010435D01*
X21549500Y-14634521D01*
X21530593Y-14692712D01*
X21520504Y-14704525D01*
X19104525Y-17120504D01*
X19050008Y-17148281D01*
X19034521Y-17149500D01*
X15960435Y-17149500D01*
X15884011Y-17169978D01*
X15884007Y-17169980D01*
X15815491Y-17209538D01*
X10267175Y-22757852D01*
X10212658Y-22785629D01*
X10156905Y-22778289D01*
X10122040Y-22762766D01*
X10122035Y-22762764D01*
X10122034Y-22762764D01*
X10122031Y-22762763D01*
X10122030Y-22762763D01*
X10066746Y-22751012D01*
X9942019Y-22724500D01*
X9757981Y-22724500D01*
X9660797Y-22745157D01*
X9577969Y-22762763D01*
X9577963Y-22762765D01*
X9409845Y-22837615D01*
X9409842Y-22837617D01*
X9409839Y-22837618D01*
X9409839Y-22837619D01*
X9397245Y-22846769D01*
X9260948Y-22945794D01*
X9137804Y-23082561D01*
X9104962Y-23139445D01*
X9059492Y-23180385D01*
X8998642Y-23186780D01*
X8945654Y-23156187D01*
X8930605Y-23134072D01*
X8853288Y-22978799D01*
X8853283Y-22978790D01*
X8722052Y-22805012D01*
X8561129Y-22658313D01*
X8561126Y-22658311D01*
X8375991Y-22543680D01*
X8375986Y-22543677D01*
X8172932Y-22465013D01*
X8172926Y-22465011D01*
X8100000Y-22451379D01*
X8100000Y-23319670D01*
X8080255Y-23299925D01*
X7994745Y-23250556D01*
X7899370Y-23225000D01*
X7800630Y-23225000D01*
X7705255Y-23250556D01*
X7619745Y-23299925D01*
X7600000Y-23319670D01*
X7600000Y-22451379D01*
X7599999Y-22451379D01*
X7527073Y-22465011D01*
X7527067Y-22465013D01*
X7324013Y-22543677D01*
X7324008Y-22543680D01*
X7138873Y-22658311D01*
X7138870Y-22658313D01*
X6977944Y-22805015D01*
X6895383Y-22914343D01*
X6845227Y-22949386D01*
X6784052Y-22948255D01*
X6735225Y-22911382D01*
X6719283Y-22873999D01*
X6713867Y-22846769D01*
X6669552Y-22780448D01*
X6652922Y-22769336D01*
X6603233Y-22736134D01*
X6603231Y-22736133D01*
X6603228Y-22736132D01*
X6603227Y-22736132D01*
X6544758Y-22724501D01*
X6544748Y-22724500D01*
X6544747Y-22724500D01*
X5774500Y-22724500D01*
X5716309Y-22705593D01*
X5680345Y-22656093D01*
X5675500Y-22625500D01*
X5675500Y-16999000D01*
X5694407Y-16940809D01*
X5743907Y-16904845D01*
X5774500Y-16900000D01*
X6149999Y-16900000D01*
X6150000Y-16899999D01*
X6150000Y-16400001D01*
X6450000Y-16400001D01*
X6450000Y-16899999D01*
X6450001Y-16900000D01*
X6972824Y-16900000D01*
X7032370Y-16893598D01*
X7032381Y-16893596D01*
X7167088Y-16843353D01*
X7167090Y-16843352D01*
X7282184Y-16757192D01*
X7282192Y-16757184D01*
X7368352Y-16642090D01*
X7368353Y-16642088D01*
X7418596Y-16507381D01*
X7418598Y-16507370D01*
X7425000Y-16447824D01*
X7425000Y-16400001D01*
X7424999Y-16400000D01*
X6450001Y-16400000D01*
X6450000Y-16400001D01*
X6150000Y-16400001D01*
X6149999Y-16400000D01*
X5774500Y-16400000D01*
X5716309Y-16381093D01*
X5680345Y-16331593D01*
X5675500Y-16301000D01*
X5675500Y-16199500D01*
X5694407Y-16141309D01*
X5743907Y-16105345D01*
X5774500Y-16100500D01*
X6944744Y-16100500D01*
X6944748Y-16100500D01*
X6944751Y-16100499D01*
X6944988Y-16100476D01*
X6954689Y-16100000D01*
X7424999Y-16100000D01*
X7425000Y-16099999D01*
X7425000Y-16052175D01*
X7418598Y-15992629D01*
X7418596Y-15992618D01*
X7368353Y-15857911D01*
X7368352Y-15857909D01*
X7282192Y-15742815D01*
X7282184Y-15742807D01*
X7165171Y-15655210D01*
X7129918Y-15605201D01*
X7126866Y-15585000D01*
X7125976Y-15585088D01*
X7125500Y-15580261D01*
X7125500Y-15580252D01*
X7115508Y-15530021D01*
X7113379Y-15519315D01*
X7113379Y-15480685D01*
X7125498Y-15419758D01*
X7125499Y-15419751D01*
X7125500Y-15419748D01*
X7125500Y-15419737D01*
X7125976Y-15414912D01*
X7128388Y-15415149D01*
X7144407Y-15365850D01*
X7165171Y-15344788D01*
X7282184Y-15257192D01*
X7282192Y-15257184D01*
X7368352Y-15142090D01*
X7368353Y-15142088D01*
X7418596Y-15007381D01*
X7418598Y-15007370D01*
X7425000Y-14947824D01*
X7425000Y-14900001D01*
X7424999Y-14900000D01*
X6954689Y-14900000D01*
X6944988Y-14899524D01*
X6944751Y-14899500D01*
X6944748Y-14899500D01*
X5655252Y-14899500D01*
X5655248Y-14899500D01*
X5655012Y-14899524D01*
X5645311Y-14900000D01*
X5175001Y-14900000D01*
X5175000Y-14900001D01*
X5175000Y-14947824D01*
X5174999Y-14947824D01*
X5181401Y-15007374D01*
X5182685Y-15012804D01*
X5177669Y-15073783D01*
X5137768Y-15120168D01*
X5078223Y-15134241D01*
X5021778Y-15110626D01*
X5016335Y-15105578D01*
X4197704Y-14286947D01*
X4182669Y-14257438D01*
X4150120Y-14239363D01*
X3979496Y-14068739D01*
X3951719Y-14014222D01*
X3950500Y-13998735D01*
X3950500Y-13785924D01*
X3960597Y-13754847D01*
X3950500Y-13714075D01*
X3950500Y-11624793D01*
X3969407Y-11566602D01*
X3979496Y-11554789D01*
X4502142Y-11032143D01*
X5030507Y-10503777D01*
X5085022Y-10476002D01*
X5145454Y-10485573D01*
X5188719Y-10528838D01*
X5193267Y-10539187D01*
X5231645Y-10642087D01*
X5268015Y-10690671D01*
X5287752Y-10748586D01*
X5269678Y-10807041D01*
X5268015Y-10809329D01*
X5231645Y-10857912D01*
X5181403Y-10992618D01*
X5181401Y-10992629D01*
X5175000Y-11052175D01*
X5175000Y-11099999D01*
X5175001Y-11100000D01*
X5645311Y-11100000D01*
X5655012Y-11100476D01*
X5655248Y-11100499D01*
X5655252Y-11100500D01*
X5655256Y-11100500D01*
X6351000Y-11100500D01*
X6409191Y-11119407D01*
X6445155Y-11168907D01*
X6450000Y-11199500D01*
X6450000Y-11300500D01*
X6431093Y-11358691D01*
X6381593Y-11394655D01*
X6351000Y-11399500D01*
X5655252Y-11399500D01*
X5655248Y-11399500D01*
X5655012Y-11399524D01*
X5645311Y-11400000D01*
X5175001Y-11400000D01*
X5175000Y-11400001D01*
X5175000Y-11447824D01*
X5174999Y-11447824D01*
X5181401Y-11507370D01*
X5181403Y-11507381D01*
X5231645Y-11642087D01*
X5268015Y-11690671D01*
X5287752Y-11748586D01*
X5269678Y-11807041D01*
X5268015Y-11809329D01*
X5231645Y-11857912D01*
X5181403Y-11992618D01*
X5181400Y-11992634D01*
X5181164Y-11994830D01*
X5180565Y-11996164D01*
X5179977Y-11998656D01*
X5179499Y-11998543D01*
X5156140Y-12050664D01*
X5103077Y-12081127D01*
X5054841Y-12079230D01*
X4953590Y-12049500D01*
X4953587Y-12049500D01*
X4809665Y-12049500D01*
X4809661Y-12049500D01*
X4671575Y-12090046D01*
X4671568Y-12090049D01*
X4550499Y-12167855D01*
X4456248Y-12276628D01*
X4396460Y-12407543D01*
X4375979Y-12549997D01*
X4375979Y-12550002D01*
X4396460Y-12692456D01*
X4400134Y-12700500D01*
X4456249Y-12823373D01*
X4538119Y-12917857D01*
X4550499Y-12932144D01*
X4671568Y-13009950D01*
X4671573Y-13009953D01*
X4767448Y-13038104D01*
X4809661Y-13050499D01*
X4809662Y-13050499D01*
X4809665Y-13050500D01*
X4809667Y-13050500D01*
X4953584Y-13050500D01*
X4953587Y-13050500D01*
X4969133Y-13045934D01*
X5022649Y-13045298D01*
X5025027Y-13045935D01*
X5042061Y-13050499D01*
X5042063Y-13050500D01*
X5042064Y-13050500D01*
X5084493Y-13050500D01*
X5142684Y-13069407D01*
X5154497Y-13079496D01*
X5175001Y-13100000D01*
X5645311Y-13100000D01*
X5655012Y-13100476D01*
X5655248Y-13100499D01*
X5655252Y-13100500D01*
X5655256Y-13100500D01*
X6351000Y-13100500D01*
X6409191Y-13119407D01*
X6445155Y-13168907D01*
X6450000Y-13199500D01*
X6450000Y-13300500D01*
X6431093Y-13358691D01*
X6381593Y-13394655D01*
X6351000Y-13399500D01*
X5655252Y-13399500D01*
X5655248Y-13399500D01*
X5655012Y-13399524D01*
X5645311Y-13400000D01*
X5174999Y-13400000D01*
X5161241Y-13413758D01*
X5106724Y-13441535D01*
X5046292Y-13431963D01*
X5016421Y-13408588D01*
X4981128Y-13367857D01*
X4929256Y-13334521D01*
X4860057Y-13290049D01*
X4860054Y-13290047D01*
X4860053Y-13290047D01*
X4860050Y-13290046D01*
X4721964Y-13249500D01*
X4721961Y-13249500D01*
X4578039Y-13249500D01*
X4578035Y-13249500D01*
X4439949Y-13290046D01*
X4439942Y-13290049D01*
X4318873Y-13367855D01*
X4224622Y-13476628D01*
X4164834Y-13607543D01*
X4147492Y-13728164D01*
X4137782Y-13747911D01*
X4147492Y-13771835D01*
X4164834Y-13892456D01*
X4220444Y-14014222D01*
X4224623Y-14023373D01*
X4273909Y-14080252D01*
X4294944Y-14104528D01*
X4304570Y-14127308D01*
X4321229Y-14133658D01*
X4439947Y-14209953D01*
X4546403Y-14241211D01*
X4578035Y-14250499D01*
X4578036Y-14250499D01*
X4578039Y-14250500D01*
X4578041Y-14250500D01*
X4721959Y-14250500D01*
X4721961Y-14250500D01*
X4860053Y-14209953D01*
X4981128Y-14132143D01*
X5022264Y-14084668D01*
X5074660Y-14053073D01*
X5097083Y-14050500D01*
X5277261Y-14050500D01*
X5335452Y-14069407D01*
X5371416Y-14118907D01*
X5371416Y-14180093D01*
X5336590Y-14228753D01*
X5317815Y-14242807D01*
X5317807Y-14242815D01*
X5231647Y-14357909D01*
X5231646Y-14357911D01*
X5181403Y-14492618D01*
X5181401Y-14492629D01*
X5175000Y-14552175D01*
X5175000Y-14599999D01*
X5175001Y-14600000D01*
X5645311Y-14600000D01*
X5655012Y-14600476D01*
X5655248Y-14600499D01*
X5655252Y-14600500D01*
X5655256Y-14600500D01*
X6944744Y-14600500D01*
X6944748Y-14600500D01*
X6944751Y-14600499D01*
X6944988Y-14600476D01*
X6954689Y-14600000D01*
X7424999Y-14600000D01*
X7445503Y-14579496D01*
X7500020Y-14551719D01*
X7515507Y-14550500D01*
X16161530Y-14550500D01*
X16219721Y-14569407D01*
X16226342Y-14574665D01*
X16277874Y-14607782D01*
X16347422Y-14652478D01*
X16446491Y-14681567D01*
X16485510Y-14693024D01*
X16485511Y-14693024D01*
X16485514Y-14693025D01*
X16485516Y-14693025D01*
X16629434Y-14693025D01*
X16629436Y-14693025D01*
X16767528Y-14652478D01*
X16888603Y-14574668D01*
X16982852Y-14465898D01*
X17042640Y-14334982D01*
X17054787Y-14250499D01*
X17063122Y-14192527D01*
X17063122Y-14192522D01*
X17042640Y-14050068D01*
X16999428Y-13955448D01*
X16982852Y-13919152D01*
X16888603Y-13810382D01*
X16888602Y-13810381D01*
X16888601Y-13810380D01*
X16767532Y-13732574D01*
X16767529Y-13732572D01*
X16767528Y-13732572D01*
X16752516Y-13728164D01*
X16629439Y-13692025D01*
X16629436Y-13692025D01*
X16485514Y-13692025D01*
X16485510Y-13692025D01*
X16347424Y-13732571D01*
X16347417Y-13732574D01*
X16226348Y-13810380D01*
X16216037Y-13822280D01*
X16135407Y-13915332D01*
X16083014Y-13946927D01*
X16060590Y-13949500D01*
X8092493Y-13949500D01*
X8034302Y-13930593D01*
X7998338Y-13881093D01*
X7998338Y-13819907D01*
X8002440Y-13809373D01*
X8010165Y-13792456D01*
X8030647Y-13650002D01*
X8030647Y-13649997D01*
X8010165Y-13507543D01*
X7996046Y-13476627D01*
X7950377Y-13376627D01*
X7856128Y-13267857D01*
X7856127Y-13267856D01*
X7851491Y-13262506D01*
X7853524Y-13260743D01*
X7828067Y-13218505D01*
X7825500Y-13196105D01*
X7825500Y-12060439D01*
X7825499Y-12060435D01*
X7817350Y-12030019D01*
X7817350Y-12030018D01*
X7805022Y-11984012D01*
X7805020Y-11984008D01*
X7765463Y-11915493D01*
X7765461Y-11915491D01*
X7765460Y-11915489D01*
X7701920Y-11851949D01*
X7674145Y-11797435D01*
X7683716Y-11737003D01*
X7726981Y-11693738D01*
X7730805Y-11691892D01*
X7735042Y-11689956D01*
X7735053Y-11689953D01*
X7856128Y-11612143D01*
X7950377Y-11503373D01*
X8010165Y-11372457D01*
X8020511Y-11300500D01*
X8030647Y-11230002D01*
X8030647Y-11229997D01*
X8010165Y-11087543D01*
X7984864Y-11032143D01*
X7950377Y-10956627D01*
X7856128Y-10847857D01*
X7856127Y-10847856D01*
X7856126Y-10847855D01*
X7735057Y-10770049D01*
X7735054Y-10770047D01*
X7735053Y-10770047D01*
X7735050Y-10770046D01*
X7596964Y-10729500D01*
X7596961Y-10729500D01*
X7490479Y-10729500D01*
X7432288Y-10710593D01*
X7420475Y-10700504D01*
X7411631Y-10691660D01*
X7383854Y-10637143D01*
X7388877Y-10587059D01*
X7418596Y-10507377D01*
X7418598Y-10507370D01*
X7425000Y-10447824D01*
X7425000Y-10400001D01*
X7424999Y-10400000D01*
X6954689Y-10400000D01*
X6944988Y-10399524D01*
X6944751Y-10399500D01*
X6944748Y-10399500D01*
X6249000Y-10399500D01*
X6190809Y-10380593D01*
X6154845Y-10331093D01*
X6150000Y-10300500D01*
X6150000Y-10199500D01*
X6168907Y-10141309D01*
X6218407Y-10105345D01*
X6249000Y-10100500D01*
X6944744Y-10100500D01*
X6944748Y-10100500D01*
X6944751Y-10100499D01*
X6944988Y-10100476D01*
X6954689Y-10100000D01*
X7424999Y-10100000D01*
X7425000Y-10099999D01*
X7425000Y-10052175D01*
X7418598Y-9992629D01*
X7418596Y-9992618D01*
X7368353Y-9857911D01*
X7368352Y-9857909D01*
X7282192Y-9742815D01*
X7282184Y-9742807D01*
X7263410Y-9728753D01*
X7228157Y-9678745D01*
X7229031Y-9617565D01*
X7265698Y-9568584D01*
X7322739Y-9550500D01*
X8089563Y-9550500D01*
X8089563Y-9550499D01*
X8165989Y-9530021D01*
X8234511Y-9490460D01*
X8290460Y-9434511D01*
X9232974Y-8491995D01*
X9287491Y-8464219D01*
X9302978Y-8463000D01*
X9409459Y-8463000D01*
X9409461Y-8463000D01*
X9547553Y-8422453D01*
X9668628Y-8344643D01*
X9762877Y-8235873D01*
X9822665Y-8104957D01*
X9837755Y-8000002D01*
X9843147Y-7962502D01*
X9843147Y-7962497D01*
X9822665Y-7820043D01*
X9780003Y-7726627D01*
X9762877Y-7689127D01*
X9668628Y-7580357D01*
X9668627Y-7580356D01*
X9668626Y-7580355D01*
X9547557Y-7502549D01*
X9547554Y-7502547D01*
X9547553Y-7502547D01*
X9537176Y-7499500D01*
X9409464Y-7462000D01*
X9409461Y-7462000D01*
X9265539Y-7462000D01*
X9265535Y-7462000D01*
X9127449Y-7502546D01*
X9127442Y-7502549D01*
X9006373Y-7580355D01*
X8912122Y-7689128D01*
X8852334Y-7820043D01*
X8831853Y-7962497D01*
X8831853Y-7962503D01*
X8834941Y-7983982D01*
X8824507Y-8044271D01*
X8806953Y-8068073D01*
X7954525Y-8920503D01*
X7900008Y-8948281D01*
X7884521Y-8949500D01*
X7515507Y-8949500D01*
X7457316Y-8930593D01*
X7445503Y-8920504D01*
X7424999Y-8900000D01*
X6954689Y-8900000D01*
X6944988Y-8899524D01*
X6944751Y-8899500D01*
X6944748Y-8899500D01*
X5655252Y-8899500D01*
X5655248Y-8899500D01*
X5655012Y-8899524D01*
X5645311Y-8900000D01*
X5175001Y-8900000D01*
X5175000Y-8900001D01*
X5175000Y-8947824D01*
X5174999Y-8947824D01*
X5181401Y-9007370D01*
X5181403Y-9007379D01*
X5182600Y-9010588D01*
X5182696Y-9012851D01*
X5182826Y-9013398D01*
X5182721Y-9013422D01*
X5185217Y-9071717D01*
X5159845Y-9115182D01*
X5109542Y-9165486D01*
X5109540Y-9165488D01*
X5109540Y-9165489D01*
X5101453Y-9179496D01*
X5069978Y-9234014D01*
X5069977Y-9234015D01*
X5049500Y-9310435D01*
X5049500Y-9389562D01*
X5049499Y-9389562D01*
X5055440Y-9411729D01*
X5058814Y-9437354D01*
X5058814Y-9584521D01*
X5039907Y-9642712D01*
X5029818Y-9654525D01*
X3465489Y-11218854D01*
X3465488Y-11218853D01*
X3409539Y-11274803D01*
X3369980Y-11343321D01*
X3369978Y-11343325D01*
X3349500Y-11419749D01*
X3349500Y-14203778D01*
X3369978Y-14280202D01*
X3377194Y-14292700D01*
X3401606Y-14334982D01*
X3409540Y-14348725D01*
X4801275Y-15740460D01*
X4801277Y-15740461D01*
X4801279Y-15740463D01*
X4869794Y-15780020D01*
X4869792Y-15780020D01*
X4869796Y-15780021D01*
X4869798Y-15780022D01*
X4946224Y-15800500D01*
X4975500Y-15800500D01*
X5033691Y-15819407D01*
X5069655Y-15868907D01*
X5074500Y-15899500D01*
X5074500Y-22698097D01*
X5055593Y-22756288D01*
X5030505Y-22780409D01*
X5030473Y-22780431D01*
X5030449Y-22780447D01*
X5030445Y-22780451D01*
X4986134Y-22846766D01*
X4986132Y-22846772D01*
X4974501Y-22905241D01*
X4974500Y-22905253D01*
X4974500Y-24294746D01*
X4974501Y-24294758D01*
X4986132Y-24353227D01*
X4986134Y-24353233D01*
X4992249Y-24362384D01*
X5030448Y-24419552D01*
X5096769Y-24463867D01*
X5141231Y-24472711D01*
X5155241Y-24475498D01*
X5155246Y-24475498D01*
X5155252Y-24475500D01*
X5155253Y-24475500D01*
X6544747Y-24475500D01*
X6544748Y-24475500D01*
X6603231Y-24463867D01*
X6669552Y-24419552D01*
X6713867Y-24353231D01*
X6719283Y-24326001D01*
X6749178Y-24272619D01*
X6804743Y-24247003D01*
X6864753Y-24258940D01*
X6895384Y-24285656D01*
X6977947Y-24394987D01*
X7138870Y-24541686D01*
X7138873Y-24541688D01*
X7324008Y-24656319D01*
X7324013Y-24656322D01*
X7457886Y-24708185D01*
X7505317Y-24746837D01*
X7520971Y-24805986D01*
X7498868Y-24863040D01*
X7447451Y-24896205D01*
X7422123Y-24899500D01*
X2502985Y-24899500D01*
X2497008Y-24899319D01*
X2472210Y-24897819D01*
X2415267Y-24875433D01*
X2382357Y-24823852D01*
X2386051Y-24762778D01*
X2424938Y-24715540D01*
X2478187Y-24700000D01*
X2899998Y-24700000D01*
X2900000Y-24700000D01*
X3500000Y-24600000D01*
X4100000Y-24100000D01*
X4500000Y-23600000D01*
X4700000Y-22900000D01*
X4700000Y-21900000D01*
X4500000Y-21400000D01*
X4100000Y-20900000D01*
X3600000Y-20500000D01*
X3000000Y-20300000D01*
X2000000Y-20300000D01*
X1999997Y-20300000D01*
X1299998Y-20600000D01*
X799999Y-21000000D01*
X600005Y-21299990D01*
X599998Y-21300002D01*
X400001Y-21699996D01*
X300000Y-22000000D01*
X300000Y-22521813D01*
X281093Y-22580004D01*
X231593Y-22615968D01*
X170407Y-22615968D01*
X120907Y-22580004D01*
X102181Y-22527790D01*
X100681Y-22502992D01*
X100500Y-22497015D01*
X100500Y-19980008D01*
X85201Y-19943073D01*
X85200Y-19943072D01*
X85200Y-19943071D01*
X56929Y-19914800D01*
X56927Y-19914799D01*
X56926Y-19914798D01*
X19992Y-19899500D01*
X19991Y-19899500D01*
X-401000Y-19899500D01*
X-459191Y-19880593D01*
X-495155Y-19831093D01*
X-500000Y-19800500D01*
X-500000Y-17280253D01*
X2444500Y-17280253D01*
X2444500Y-18919746D01*
X2444501Y-18919758D01*
X2456132Y-18978227D01*
X2456133Y-18978231D01*
X2500448Y-19044552D01*
X2566769Y-19088867D01*
X2611231Y-19097711D01*
X2625241Y-19100498D01*
X2625246Y-19100498D01*
X2625252Y-19100500D01*
X2625253Y-19100500D01*
X4664747Y-19100500D01*
X4664748Y-19100500D01*
X4723231Y-19088867D01*
X4789552Y-19044552D01*
X4833867Y-18978231D01*
X4845500Y-18919748D01*
X4845500Y-17280252D01*
X4833867Y-17221769D01*
X4789552Y-17155448D01*
X4789548Y-17155445D01*
X4723233Y-17111134D01*
X4723231Y-17111133D01*
X4723228Y-17111132D01*
X4723227Y-17111132D01*
X4664758Y-17099501D01*
X4664748Y-17099500D01*
X2625252Y-17099500D01*
X2625251Y-17099500D01*
X2625241Y-17099501D01*
X2566772Y-17111132D01*
X2566766Y-17111134D01*
X2500451Y-17155445D01*
X2500445Y-17155451D01*
X2456134Y-17221766D01*
X2456132Y-17221772D01*
X2444501Y-17280241D01*
X2444500Y-17280253D01*
X-500000Y-17280253D01*
X-500000Y-8552175D01*
X5175000Y-8552175D01*
X5175000Y-8599999D01*
X5175001Y-8600000D01*
X6149999Y-8600000D01*
X6150000Y-8599999D01*
X6150000Y-8100001D01*
X6450000Y-8100001D01*
X6450000Y-8599999D01*
X6450001Y-8600000D01*
X7424999Y-8600000D01*
X7425000Y-8599999D01*
X7425000Y-8552175D01*
X7418598Y-8492629D01*
X7418596Y-8492618D01*
X7368353Y-8357911D01*
X7368352Y-8357909D01*
X7282192Y-8242815D01*
X7282184Y-8242807D01*
X7167090Y-8156647D01*
X7167088Y-8156646D01*
X7032381Y-8106403D01*
X7032370Y-8106401D01*
X6972824Y-8100000D01*
X6450001Y-8100000D01*
X6450000Y-8100001D01*
X6150000Y-8100001D01*
X6149999Y-8100000D01*
X5627176Y-8100000D01*
X5567629Y-8106401D01*
X5567618Y-8106403D01*
X5432911Y-8156646D01*
X5432909Y-8156647D01*
X5317815Y-8242807D01*
X5317807Y-8242815D01*
X5231647Y-8357909D01*
X5231646Y-8357911D01*
X5181403Y-8492618D01*
X5181401Y-8492629D01*
X5175000Y-8552175D01*
X-500000Y-8552175D01*
X-500000Y-6080253D01*
X2444500Y-6080253D01*
X2444500Y-7719746D01*
X2444501Y-7719758D01*
X2456132Y-7778227D01*
X2456134Y-7778233D01*
X2488559Y-7826759D01*
X2500448Y-7844552D01*
X2566769Y-7888867D01*
X2611231Y-7897711D01*
X2625241Y-7900498D01*
X2625246Y-7900498D01*
X2625252Y-7900500D01*
X2625253Y-7900500D01*
X4664747Y-7900500D01*
X4664748Y-7900500D01*
X4723231Y-7888867D01*
X4789552Y-7844552D01*
X4833867Y-7778231D01*
X4845500Y-7719748D01*
X4845500Y-6080252D01*
X4833867Y-6021769D01*
X4789552Y-5955448D01*
X4734864Y-5918906D01*
X4723233Y-5911134D01*
X4723231Y-5911133D01*
X4723228Y-5911132D01*
X4723227Y-5911132D01*
X4664758Y-5899501D01*
X4664748Y-5899500D01*
X2625252Y-5899500D01*
X2625251Y-5899500D01*
X2625241Y-5899501D01*
X2566772Y-5911132D01*
X2566766Y-5911134D01*
X2500451Y-5955445D01*
X2500445Y-5955451D01*
X2456134Y-6021766D01*
X2456132Y-6021772D01*
X2444501Y-6080241D01*
X2444500Y-6080253D01*
X-500000Y-6080253D01*
X-500000Y-5199500D01*
X-481093Y-5141309D01*
X-431593Y-5105345D01*
X-401000Y-5100500D01*
X19992Y-5100500D01*
X43283Y-5090852D01*
X56929Y-5085200D01*
X85200Y-5056929D01*
X100500Y-5019991D01*
X100500Y-2502984D01*
X100681Y-2497007D01*
X102181Y-2472209D01*
X124567Y-2415266D01*
X176148Y-2382356D01*
X237222Y-2386050D01*
X284460Y-2424937D01*
X300000Y-2478186D01*
X300000Y-3000002D01*
X599997Y-3699995D01*
X600000Y-3700000D01*
X1063257Y-4255909D01*
X1100000Y-4300000D01*
X1900000Y-4700000D01*
X2899998Y-4700000D01*
X2900000Y-4700000D01*
X3500000Y-4600000D01*
X4100000Y-4100000D01*
X4500000Y-3600000D01*
X4606935Y-3225726D01*
X7929500Y-3225726D01*
X7929500Y-5834265D01*
X7932353Y-5864694D01*
X7932353Y-5864696D01*
X7932354Y-5864698D01*
X7971519Y-5976627D01*
X7977208Y-5992885D01*
X8057845Y-6102144D01*
X8057847Y-6102146D01*
X8057850Y-6102150D01*
X8057853Y-6102152D01*
X8057855Y-6102154D01*
X8167114Y-6182791D01*
X8167116Y-6182791D01*
X8167118Y-6182793D01*
X8295302Y-6227646D01*
X8325735Y-6230500D01*
X10034264Y-6230499D01*
X10034265Y-6230499D01*
X10040350Y-6229928D01*
X10064698Y-6227646D01*
X10192882Y-6182793D01*
X10302150Y-6102150D01*
X10382793Y-5992882D01*
X10427646Y-5864698D01*
X10430500Y-5834265D01*
X10430499Y-3225736D01*
X10429565Y-3215778D01*
X10427646Y-3195305D01*
X10427646Y-3195302D01*
X10382793Y-3067118D01*
X10382791Y-3067116D01*
X10382791Y-3067114D01*
X10302154Y-2957855D01*
X10302152Y-2957853D01*
X10302150Y-2957850D01*
X10302146Y-2957847D01*
X10302144Y-2957845D01*
X10192885Y-2877208D01*
X10171122Y-2869593D01*
X10064698Y-2832354D01*
X10064696Y-2832353D01*
X10064694Y-2832353D01*
X10034272Y-2829500D01*
X8325734Y-2829500D01*
X8295305Y-2832353D01*
X8167114Y-2877208D01*
X8057855Y-2957845D01*
X8057845Y-2957855D01*
X7977208Y-3067114D01*
X7932353Y-3195305D01*
X7929500Y-3225726D01*
X4606935Y-3225726D01*
X4700000Y-2900000D01*
X4700000Y-1900000D01*
X4500000Y-1400000D01*
X4100000Y-900000D01*
X4043193Y-854554D01*
X3852438Y-701950D01*
X3780443Y-644354D01*
X3766508Y-633206D01*
X3631563Y-525250D01*
X3600000Y-500000D01*
X3000000Y-300000D01*
X2478187Y-300000D01*
X2419996Y-281093D01*
X2384032Y-231593D01*
X2384032Y-170407D01*
X2419996Y-120907D01*
X2472210Y-102181D01*
X2497008Y-100681D01*
X2502985Y-100500D01*
X2526929Y-100500D01*
X11795522Y-100500D01*
X11853713Y-119407D01*
G37*
%TD.AperFunction*%
%TA.AperFunction,Conductor*%
G36*
X51502992Y-100681D02*
G01*
X51783256Y-117633D01*
X51795111Y-119073D01*
X51958223Y-148964D01*
X51983638Y-153622D01*
X52037468Y-182709D01*
X52063920Y-237880D01*
X52052891Y-298064D01*
X52008593Y-340270D01*
X51965793Y-350000D01*
X50999997Y-350000D01*
X50299998Y-650000D01*
X49799999Y-1050000D01*
X49600005Y-1349990D01*
X49599998Y-1350002D01*
X49400001Y-1749996D01*
X49300000Y-2050000D01*
X49300000Y-3050002D01*
X49599997Y-3749995D01*
X49600000Y-3750000D01*
X50100000Y-4350000D01*
X50900000Y-4750000D01*
X51899998Y-4750000D01*
X51900000Y-4750000D01*
X52500000Y-4650000D01*
X53100000Y-4150000D01*
X53500000Y-3650000D01*
X53700000Y-2950000D01*
X53700000Y-2478186D01*
X53718907Y-2419995D01*
X53768407Y-2384031D01*
X53829593Y-2384031D01*
X53879093Y-2419995D01*
X53897819Y-2472209D01*
X53899319Y-2497007D01*
X53899500Y-2502984D01*
X53899500Y-5019991D01*
X53914798Y-5056926D01*
X53914799Y-5056927D01*
X53914800Y-5056929D01*
X53943071Y-5085200D01*
X53943072Y-5085200D01*
X53943073Y-5085201D01*
X53980008Y-5100500D01*
X53980009Y-5100500D01*
X55100500Y-5100500D01*
X55158691Y-5119407D01*
X55194655Y-5168907D01*
X55199500Y-5199500D01*
X55199500Y-19800500D01*
X55180593Y-19858691D01*
X55131093Y-19894655D01*
X55100500Y-19899500D01*
X53980008Y-19899500D01*
X53943073Y-19914798D01*
X53914798Y-19943073D01*
X53899500Y-19980008D01*
X53899500Y-22497015D01*
X53899319Y-22502992D01*
X53897819Y-22527790D01*
X53875433Y-22584733D01*
X53823852Y-22617643D01*
X53762778Y-22613949D01*
X53715540Y-22575062D01*
X53700000Y-22521813D01*
X53700000Y-21900000D01*
X53500853Y-21402133D01*
X53500000Y-21400000D01*
X53100000Y-20900000D01*
X52600000Y-20500000D01*
X52000000Y-20300000D01*
X51000000Y-20300000D01*
X50999997Y-20300000D01*
X50299998Y-20600000D01*
X49799999Y-21000000D01*
X49600005Y-21299990D01*
X49599998Y-21300002D01*
X49400001Y-21699996D01*
X49300000Y-22000000D01*
X49300000Y-23000002D01*
X49599997Y-23699995D01*
X49600000Y-23700000D01*
X50061837Y-24254205D01*
X50100000Y-24300000D01*
X50900000Y-24700000D01*
X51521813Y-24700000D01*
X51580004Y-24718907D01*
X51615968Y-24768407D01*
X51615968Y-24829593D01*
X51580004Y-24879093D01*
X51527790Y-24897819D01*
X51502992Y-24899319D01*
X51497015Y-24899500D01*
X8277877Y-24899500D01*
X8219686Y-24880593D01*
X8183722Y-24831093D01*
X8183722Y-24769907D01*
X8219686Y-24720407D01*
X8242114Y-24708185D01*
X8375986Y-24656322D01*
X8375991Y-24656319D01*
X8561126Y-24541688D01*
X8561129Y-24541686D01*
X8722052Y-24394987D01*
X8853283Y-24221209D01*
X8853288Y-24221200D01*
X8930605Y-24065927D01*
X8973467Y-24022265D01*
X9033808Y-24012135D01*
X9088579Y-24039407D01*
X9104962Y-24060555D01*
X9137805Y-24117440D01*
X9231239Y-24221209D01*
X9254463Y-24247003D01*
X9260950Y-24254207D01*
X9409839Y-24362381D01*
X9409843Y-24362383D01*
X9409845Y-24362384D01*
X9465485Y-24387156D01*
X9577966Y-24437236D01*
X9757981Y-24475500D01*
X9757983Y-24475500D01*
X9942017Y-24475500D01*
X9942019Y-24475500D01*
X10122034Y-24437236D01*
X10290161Y-24362381D01*
X10439050Y-24254207D01*
X10562195Y-24117440D01*
X10654214Y-23958059D01*
X10711085Y-23783029D01*
X10730322Y-23600000D01*
X10711085Y-23416971D01*
X10667765Y-23283649D01*
X10667765Y-23222465D01*
X10691914Y-23183055D01*
X11380496Y-22494473D01*
X11435013Y-22466697D01*
X11495445Y-22476268D01*
X11538710Y-22519533D01*
X11549500Y-22564478D01*
X11549500Y-22711145D01*
X11530593Y-22769336D01*
X11490768Y-22801586D01*
X11409843Y-22837617D01*
X11409842Y-22837617D01*
X11409839Y-22837618D01*
X11409839Y-22837619D01*
X11397245Y-22846769D01*
X11260948Y-22945794D01*
X11137803Y-23082562D01*
X11137803Y-23082563D01*
X11045790Y-23241931D01*
X11045784Y-23241945D01*
X10988916Y-23416965D01*
X10988915Y-23416969D01*
X10988915Y-23416971D01*
X10969678Y-23600000D01*
X10986483Y-23759893D01*
X10988916Y-23783034D01*
X11045784Y-23958054D01*
X11045790Y-23958068D01*
X11082855Y-24022265D01*
X11137805Y-24117440D01*
X11231239Y-24221209D01*
X11254463Y-24247003D01*
X11260950Y-24254207D01*
X11409839Y-24362381D01*
X11409843Y-24362383D01*
X11409845Y-24362384D01*
X11465485Y-24387156D01*
X11577966Y-24437236D01*
X11757981Y-24475500D01*
X11757983Y-24475500D01*
X11942017Y-24475500D01*
X11942019Y-24475500D01*
X12122034Y-24437236D01*
X12290161Y-24362381D01*
X12439050Y-24254207D01*
X12562195Y-24117440D01*
X12654214Y-23958059D01*
X12711085Y-23783029D01*
X12730322Y-23600000D01*
X12711085Y-23416971D01*
X12654214Y-23241941D01*
X12654211Y-23241936D01*
X12654209Y-23241931D01*
X12604704Y-23156187D01*
X12562195Y-23082560D01*
X12439050Y-22945793D01*
X12290161Y-22837619D01*
X12290157Y-22837617D01*
X12209232Y-22801586D01*
X12163763Y-22760644D01*
X12150500Y-22711145D01*
X12150500Y-22615479D01*
X12169407Y-22557288D01*
X12179496Y-22545475D01*
X13322842Y-21402129D01*
X21849500Y-21402129D01*
X21849500Y-22097866D01*
X21849501Y-22097870D01*
X21855908Y-22157480D01*
X21855909Y-22157485D01*
X21906202Y-22292329D01*
X21992450Y-22407541D01*
X21992454Y-22407546D01*
X21992457Y-22407548D01*
X21992458Y-22407549D01*
X22107670Y-22493797D01*
X22242511Y-22544089D01*
X22242512Y-22544089D01*
X22242517Y-22544091D01*
X22302127Y-22550500D01*
X24597872Y-22550499D01*
X24657483Y-22544091D01*
X24724907Y-22518943D01*
X24792329Y-22493797D01*
X24792329Y-22493796D01*
X24792331Y-22493796D01*
X24907546Y-22407546D01*
X24993796Y-22292331D01*
X25003808Y-22265489D01*
X25044089Y-22157488D01*
X25044090Y-22157485D01*
X25044091Y-22157483D01*
X25050500Y-22097873D01*
X25050499Y-21402129D01*
X33649500Y-21402129D01*
X33649500Y-22097866D01*
X33649501Y-22097870D01*
X33655908Y-22157480D01*
X33655909Y-22157485D01*
X33706202Y-22292329D01*
X33792450Y-22407541D01*
X33792454Y-22407546D01*
X33792457Y-22407548D01*
X33792458Y-22407549D01*
X33907670Y-22493797D01*
X34042511Y-22544089D01*
X34042512Y-22544089D01*
X34042517Y-22544091D01*
X34102127Y-22550500D01*
X36397872Y-22550499D01*
X36457483Y-22544091D01*
X36524907Y-22518943D01*
X36592329Y-22493797D01*
X36592329Y-22493796D01*
X36592331Y-22493796D01*
X36707546Y-22407546D01*
X36793796Y-22292331D01*
X36803808Y-22265489D01*
X36844089Y-22157488D01*
X36844090Y-22157485D01*
X36844091Y-22157483D01*
X36850500Y-22097873D01*
X36850499Y-21402128D01*
X36844091Y-21342517D01*
X36828233Y-21300000D01*
X36793797Y-21207670D01*
X36707549Y-21092458D01*
X36707548Y-21092457D01*
X36707546Y-21092454D01*
X36707541Y-21092450D01*
X36592329Y-21006202D01*
X36457488Y-20955910D01*
X36457483Y-20955909D01*
X36457481Y-20955908D01*
X36457477Y-20955908D01*
X36426249Y-20952550D01*
X36397873Y-20949500D01*
X36397870Y-20949500D01*
X34102133Y-20949500D01*
X34102129Y-20949500D01*
X34102128Y-20949501D01*
X34094949Y-20950272D01*
X34042519Y-20955908D01*
X34042514Y-20955909D01*
X33907670Y-21006202D01*
X33792458Y-21092450D01*
X33792450Y-21092458D01*
X33706202Y-21207670D01*
X33655910Y-21342511D01*
X33655908Y-21342522D01*
X33649500Y-21402129D01*
X25050499Y-21402129D01*
X25050499Y-21402128D01*
X25044091Y-21342517D01*
X25028233Y-21300000D01*
X24993797Y-21207670D01*
X24907549Y-21092458D01*
X24907548Y-21092457D01*
X24907546Y-21092454D01*
X24907541Y-21092450D01*
X24792329Y-21006202D01*
X24657488Y-20955910D01*
X24657483Y-20955909D01*
X24657481Y-20955908D01*
X24657477Y-20955908D01*
X24626249Y-20952550D01*
X24597873Y-20949500D01*
X24597870Y-20949500D01*
X22302133Y-20949500D01*
X22302129Y-20949500D01*
X22302128Y-20949501D01*
X22294949Y-20950272D01*
X22242519Y-20955908D01*
X22242514Y-20955909D01*
X22107670Y-21006202D01*
X21992458Y-21092450D01*
X21992450Y-21092458D01*
X21906202Y-21207670D01*
X21855910Y-21342511D01*
X21855908Y-21342522D01*
X21849500Y-21402129D01*
X13322842Y-21402129D01*
X16345475Y-18379496D01*
X16399992Y-18351719D01*
X16415479Y-18350500D01*
X19389563Y-18350500D01*
X19389563Y-18350499D01*
X19465989Y-18330021D01*
X19534511Y-18290460D01*
X19590460Y-18234511D01*
X20544718Y-17280253D01*
X49829500Y-17280253D01*
X49829500Y-18919746D01*
X49829501Y-18919758D01*
X49841132Y-18978227D01*
X49841133Y-18978231D01*
X49885448Y-19044552D01*
X49951769Y-19088867D01*
X49996231Y-19097711D01*
X50010241Y-19100498D01*
X50010246Y-19100498D01*
X50010252Y-19100500D01*
X50010253Y-19100500D01*
X52049747Y-19100500D01*
X52049748Y-19100500D01*
X52108231Y-19088867D01*
X52174552Y-19044552D01*
X52218867Y-18978231D01*
X52230500Y-18919748D01*
X52230500Y-17280252D01*
X52218867Y-17221769D01*
X52174552Y-17155448D01*
X52174548Y-17155445D01*
X52108233Y-17111134D01*
X52108231Y-17111133D01*
X52108228Y-17111132D01*
X52108227Y-17111132D01*
X52049758Y-17099501D01*
X52049748Y-17099500D01*
X50010252Y-17099500D01*
X50010251Y-17099500D01*
X50010241Y-17099501D01*
X49951772Y-17111132D01*
X49951766Y-17111134D01*
X49885451Y-17155445D01*
X49885445Y-17155451D01*
X49841134Y-17221766D01*
X49841132Y-17221772D01*
X49829501Y-17280241D01*
X49829500Y-17280253D01*
X20544718Y-17280253D01*
X21377147Y-16447824D01*
X47249999Y-16447824D01*
X47256401Y-16507370D01*
X47256403Y-16507381D01*
X47306646Y-16642088D01*
X47306647Y-16642090D01*
X47392807Y-16757184D01*
X47392815Y-16757192D01*
X47507909Y-16843352D01*
X47507911Y-16843353D01*
X47642618Y-16893596D01*
X47642629Y-16893598D01*
X47702176Y-16900000D01*
X48224999Y-16900000D01*
X48225000Y-16899999D01*
X48225000Y-16400001D01*
X48525000Y-16400001D01*
X48525000Y-16899999D01*
X48525001Y-16900000D01*
X49047824Y-16900000D01*
X49107370Y-16893598D01*
X49107381Y-16893596D01*
X49242088Y-16843353D01*
X49242090Y-16843352D01*
X49357184Y-16757192D01*
X49357192Y-16757184D01*
X49443352Y-16642090D01*
X49443353Y-16642088D01*
X49493596Y-16507381D01*
X49493598Y-16507370D01*
X49500000Y-16447824D01*
X49500000Y-16400001D01*
X49499999Y-16400000D01*
X48525001Y-16400000D01*
X48525000Y-16400001D01*
X48225000Y-16400001D01*
X48224999Y-16400000D01*
X47250001Y-16400000D01*
X47250000Y-16400001D01*
X47250000Y-16447824D01*
X47249999Y-16447824D01*
X21377147Y-16447824D01*
X22790460Y-15034511D01*
X22830021Y-14965989D01*
X22850500Y-14889562D01*
X22850500Y-13649997D01*
X38144353Y-13649997D01*
X38144353Y-13650002D01*
X38164834Y-13792456D01*
X38210504Y-13892457D01*
X38224623Y-13923373D01*
X38309883Y-14021769D01*
X38318873Y-14032144D01*
X38439942Y-14109950D01*
X38439947Y-14109953D01*
X38546403Y-14141211D01*
X38578035Y-14150499D01*
X38578036Y-14150499D01*
X38578039Y-14150500D01*
X38578041Y-14150500D01*
X38721959Y-14150500D01*
X38721961Y-14150500D01*
X38860053Y-14109953D01*
X38981128Y-14032143D01*
X39075377Y-13923373D01*
X39135165Y-13792457D01*
X39150686Y-13684506D01*
X39155647Y-13650002D01*
X39155647Y-13649997D01*
X39135165Y-13507543D01*
X39121046Y-13476627D01*
X39075377Y-13376627D01*
X38981128Y-13267857D01*
X38981127Y-13267856D01*
X38976491Y-13262506D01*
X38978524Y-13260743D01*
X38953067Y-13218505D01*
X38950500Y-13196105D01*
X38950500Y-11649997D01*
X40094353Y-11649997D01*
X40094353Y-11650002D01*
X40114834Y-11792456D01*
X40163720Y-11899500D01*
X40174623Y-11923373D01*
X40239758Y-11998543D01*
X40268873Y-12032144D01*
X40389942Y-12109950D01*
X40389947Y-12109953D01*
X40496403Y-12141211D01*
X40528035Y-12150499D01*
X40528036Y-12150499D01*
X40528039Y-12150500D01*
X40528041Y-12150500D01*
X40634521Y-12150500D01*
X40692712Y-12169407D01*
X40704525Y-12179496D01*
X42702780Y-14177751D01*
X42730557Y-14232268D01*
X42720986Y-14292700D01*
X42686300Y-14331039D01*
X42592400Y-14391385D01*
X42498150Y-14500156D01*
X42438362Y-14631071D01*
X42417881Y-14773525D01*
X42417881Y-14773530D01*
X42438362Y-14915984D01*
X42498150Y-15046899D01*
X42498151Y-15046901D01*
X42580632Y-15142090D01*
X42592401Y-15155672D01*
X42660599Y-15199500D01*
X42713475Y-15233481D01*
X42819931Y-15264739D01*
X42851563Y-15274027D01*
X42851564Y-15274027D01*
X42851567Y-15274028D01*
X42851569Y-15274028D01*
X42995487Y-15274028D01*
X42995489Y-15274028D01*
X43133581Y-15233481D01*
X43254656Y-15155671D01*
X43348905Y-15046901D01*
X43408693Y-14915985D01*
X43429175Y-14773528D01*
X43425715Y-14749467D01*
X43436147Y-14689181D01*
X43437971Y-14685878D01*
X43467622Y-14634521D01*
X43480021Y-14613045D01*
X43480022Y-14613041D01*
X43480616Y-14611609D01*
X43481339Y-14610762D01*
X43483266Y-14607425D01*
X43483884Y-14607782D01*
X43520355Y-14565086D01*
X43572078Y-14550500D01*
X47159493Y-14550500D01*
X47217684Y-14569407D01*
X47229497Y-14579496D01*
X47250001Y-14600000D01*
X47720311Y-14600000D01*
X47730012Y-14600476D01*
X47730248Y-14600499D01*
X47730252Y-14600500D01*
X47730256Y-14600500D01*
X49019744Y-14600500D01*
X49019748Y-14600500D01*
X49019751Y-14600499D01*
X49019988Y-14600476D01*
X49029689Y-14600000D01*
X49499999Y-14600000D01*
X49500000Y-14599999D01*
X49500000Y-14552175D01*
X49493598Y-14492629D01*
X49493596Y-14492618D01*
X49443354Y-14357913D01*
X49406984Y-14309329D01*
X49387247Y-14251415D01*
X49405321Y-14192960D01*
X49406984Y-14190671D01*
X49443354Y-14142086D01*
X49493596Y-14007381D01*
X49493598Y-14007370D01*
X49500000Y-13947824D01*
X49500000Y-13880471D01*
X49518907Y-13822280D01*
X49568407Y-13786316D01*
X49626891Y-13785482D01*
X49678039Y-13800500D01*
X49678041Y-13800500D01*
X49821959Y-13800500D01*
X49821961Y-13800500D01*
X49960053Y-13759953D01*
X50081128Y-13682143D01*
X50175377Y-13573373D01*
X50235165Y-13442457D01*
X50255647Y-13300000D01*
X50254216Y-13290049D01*
X50235165Y-13157543D01*
X50209103Y-13100476D01*
X50175377Y-13026627D01*
X50081128Y-12917857D01*
X50081127Y-12917856D01*
X50081126Y-12917855D01*
X49960057Y-12840049D01*
X49960054Y-12840047D01*
X49960053Y-12840047D01*
X49960050Y-12840046D01*
X49821964Y-12799500D01*
X49821961Y-12799500D01*
X49678039Y-12799500D01*
X49678035Y-12799500D01*
X49539949Y-12840046D01*
X49539946Y-12840047D01*
X49509662Y-12859509D01*
X49471111Y-12884284D01*
X49417590Y-12900000D01*
X49029689Y-12900000D01*
X49019988Y-12899524D01*
X49019751Y-12899500D01*
X49019748Y-12899500D01*
X47730252Y-12899500D01*
X47730248Y-12899500D01*
X47730012Y-12899524D01*
X47720311Y-12900000D01*
X47250001Y-12900000D01*
X47229497Y-12920504D01*
X47174980Y-12948281D01*
X47159493Y-12949500D01*
X43815479Y-12949500D01*
X43757288Y-12930593D01*
X43745475Y-12920504D01*
X41180546Y-10355575D01*
X41152769Y-10301058D01*
X41152558Y-10271482D01*
X41155647Y-10250000D01*
X41153421Y-10234521D01*
X41135165Y-10107543D01*
X41126611Y-10088813D01*
X41075377Y-9976627D01*
X40981128Y-9867857D01*
X40981127Y-9867856D01*
X40981126Y-9867855D01*
X40860057Y-9790049D01*
X40860054Y-9790047D01*
X40860053Y-9790047D01*
X40860050Y-9790046D01*
X40721964Y-9749500D01*
X40721961Y-9749500D01*
X40578039Y-9749500D01*
X40578035Y-9749500D01*
X40439949Y-9790046D01*
X40439942Y-9790049D01*
X40318873Y-9867855D01*
X40224622Y-9976628D01*
X40164834Y-10107543D01*
X40144353Y-10249997D01*
X40144353Y-10250002D01*
X40164834Y-10392456D01*
X40221250Y-10515987D01*
X40224623Y-10523373D01*
X40312224Y-10624471D01*
X40318873Y-10632144D01*
X40411482Y-10691660D01*
X40439947Y-10709953D01*
X40514257Y-10731772D01*
X40578035Y-10750499D01*
X40578036Y-10750499D01*
X40578039Y-10750500D01*
X40578041Y-10750500D01*
X40684521Y-10750500D01*
X40742712Y-10769407D01*
X40754525Y-10779496D01*
X43465489Y-13490460D01*
X43465491Y-13490461D01*
X43465492Y-13490462D01*
X43465493Y-13490463D01*
X43534008Y-13530020D01*
X43534006Y-13530020D01*
X43534010Y-13530021D01*
X43534012Y-13530022D01*
X43610438Y-13550500D01*
X47159493Y-13550500D01*
X47217684Y-13569407D01*
X47229497Y-13579496D01*
X47250001Y-13600000D01*
X47720311Y-13600000D01*
X47730012Y-13600476D01*
X47730248Y-13600499D01*
X47730252Y-13600500D01*
X48385438Y-13600500D01*
X48426000Y-13600500D01*
X48484191Y-13619407D01*
X48520155Y-13668907D01*
X48525000Y-13699500D01*
X48525000Y-13800500D01*
X48506093Y-13858691D01*
X48456593Y-13894655D01*
X48426000Y-13899500D01*
X47730252Y-13899500D01*
X47730248Y-13899500D01*
X47730012Y-13899524D01*
X47720311Y-13900000D01*
X47250001Y-13900000D01*
X47229497Y-13920504D01*
X47174980Y-13948281D01*
X47159493Y-13949500D01*
X43365479Y-13949500D01*
X43307288Y-13930593D01*
X43295475Y-13920504D01*
X41130546Y-11755575D01*
X41102769Y-11701058D01*
X41102558Y-11671482D01*
X41105647Y-11650000D01*
X41104509Y-11642087D01*
X41085165Y-11507543D01*
X41051812Y-11434511D01*
X41025377Y-11376627D01*
X40931128Y-11267857D01*
X40931127Y-11267856D01*
X40931126Y-11267855D01*
X40810057Y-11190049D01*
X40810054Y-11190047D01*
X40810053Y-11190047D01*
X40810050Y-11190046D01*
X40671964Y-11149500D01*
X40671961Y-11149500D01*
X40528039Y-11149500D01*
X40528035Y-11149500D01*
X40389949Y-11190046D01*
X40389942Y-11190049D01*
X40268873Y-11267855D01*
X40174622Y-11376628D01*
X40114834Y-11507543D01*
X40094353Y-11649997D01*
X38950500Y-11649997D01*
X38950500Y-10665478D01*
X38969407Y-10607287D01*
X38979490Y-10595480D01*
X38990460Y-10584511D01*
X39001442Y-10565489D01*
X39030021Y-10515989D01*
X39050500Y-10439562D01*
X39050500Y-9865479D01*
X39069407Y-9807288D01*
X39079496Y-9795475D01*
X39695475Y-9179496D01*
X39749992Y-9151719D01*
X39765479Y-9150500D01*
X41084521Y-9150500D01*
X41142712Y-9169407D01*
X41154525Y-9179496D01*
X41859540Y-9884511D01*
X44465489Y-12490460D01*
X44465491Y-12490461D01*
X44465492Y-12490462D01*
X44465493Y-12490463D01*
X44534008Y-12530020D01*
X44534006Y-12530020D01*
X44534010Y-12530021D01*
X44534012Y-12530022D01*
X44610438Y-12550500D01*
X47159493Y-12550500D01*
X47217684Y-12569407D01*
X47229497Y-12579496D01*
X47250001Y-12600000D01*
X47720311Y-12600000D01*
X47730012Y-12600476D01*
X47730248Y-12600499D01*
X47730252Y-12600500D01*
X47730256Y-12600500D01*
X49019744Y-12600500D01*
X49019748Y-12600500D01*
X49019751Y-12600499D01*
X49019988Y-12600476D01*
X49029689Y-12600000D01*
X49499999Y-12600000D01*
X49520503Y-12579496D01*
X49575020Y-12551719D01*
X49590507Y-12550500D01*
X50346241Y-12550500D01*
X50404432Y-12569407D01*
X50413403Y-12577640D01*
X50413520Y-12577506D01*
X50418871Y-12582143D01*
X50539942Y-12659950D01*
X50539947Y-12659953D01*
X50646403Y-12691211D01*
X50678035Y-12700499D01*
X50678036Y-12700499D01*
X50678039Y-12700500D01*
X50678041Y-12700500D01*
X50821959Y-12700500D01*
X50821961Y-12700500D01*
X50960053Y-12659953D01*
X51081128Y-12582143D01*
X51175377Y-12473373D01*
X51235165Y-12342457D01*
X51255647Y-12200000D01*
X51251248Y-12169407D01*
X51235165Y-12057543D01*
X51229232Y-12044552D01*
X51175377Y-11926627D01*
X51081128Y-11817857D01*
X51081127Y-11817856D01*
X51081126Y-11817855D01*
X50960057Y-11740049D01*
X50960054Y-11740047D01*
X50960053Y-11740047D01*
X50960050Y-11740046D01*
X50821964Y-11699500D01*
X50821961Y-11699500D01*
X50678039Y-11699500D01*
X50678035Y-11699500D01*
X50539949Y-11740046D01*
X50539942Y-11740049D01*
X50418873Y-11817855D01*
X50389329Y-11851952D01*
X50334409Y-11915332D01*
X50282016Y-11946927D01*
X50259592Y-11949500D01*
X49590507Y-11949500D01*
X49532316Y-11930593D01*
X49520503Y-11920504D01*
X49499999Y-11900000D01*
X49029689Y-11900000D01*
X49019988Y-11899524D01*
X49019751Y-11899500D01*
X49019748Y-11899500D01*
X47730252Y-11899500D01*
X47730248Y-11899500D01*
X47730012Y-11899524D01*
X47720311Y-11900000D01*
X47250001Y-11900000D01*
X47229497Y-11920504D01*
X47174980Y-11948281D01*
X47159493Y-11949500D01*
X44815479Y-11949500D01*
X44757288Y-11930593D01*
X44745475Y-11920504D01*
X42284511Y-9459540D01*
X41876680Y-9051709D01*
X41434511Y-8609540D01*
X41434508Y-8609538D01*
X41401464Y-8590460D01*
X41401462Y-8590459D01*
X41365989Y-8569979D01*
X41365986Y-8569978D01*
X41289564Y-8549500D01*
X41289562Y-8549500D01*
X39639562Y-8549500D01*
X39560438Y-8549500D01*
X39513661Y-8562033D01*
X39484007Y-8569979D01*
X39415493Y-8609536D01*
X38565489Y-9459540D01*
X38565488Y-9459539D01*
X38509539Y-9515489D01*
X38469980Y-9584007D01*
X38469978Y-9584011D01*
X38449500Y-9660435D01*
X38449500Y-10234521D01*
X38430593Y-10292712D01*
X38420506Y-10304522D01*
X38409540Y-10315488D01*
X38369980Y-10384007D01*
X38369978Y-10384011D01*
X38349500Y-10460435D01*
X38349500Y-13196105D01*
X38330593Y-13254296D01*
X38323258Y-13262289D01*
X38323509Y-13262506D01*
X38318872Y-13267856D01*
X38318872Y-13267857D01*
X38290587Y-13300500D01*
X38224622Y-13376628D01*
X38164834Y-13507543D01*
X38144353Y-13649997D01*
X22850500Y-13649997D01*
X22850500Y-9364007D01*
X22869407Y-9305816D01*
X22879490Y-9294009D01*
X24890460Y-7283040D01*
X24921710Y-7228913D01*
X24930021Y-7214518D01*
X24950500Y-7138091D01*
X24950500Y-7099997D01*
X34444353Y-7099997D01*
X34444353Y-7100002D01*
X34464834Y-7242456D01*
X34488850Y-7295043D01*
X34524623Y-7373373D01*
X34591020Y-7450000D01*
X34618873Y-7482144D01*
X34739942Y-7559950D01*
X34739947Y-7559953D01*
X34846403Y-7591211D01*
X34878035Y-7600499D01*
X34878036Y-7600499D01*
X34878039Y-7600500D01*
X34878041Y-7600500D01*
X35021959Y-7600500D01*
X35021961Y-7600500D01*
X35160053Y-7559953D01*
X35281128Y-7482143D01*
X35308982Y-7449997D01*
X41794353Y-7449997D01*
X41794353Y-7450002D01*
X41814834Y-7592456D01*
X41872967Y-7719748D01*
X41874623Y-7723373D01*
X41964207Y-7826759D01*
X41968873Y-7832144D01*
X42089942Y-7909950D01*
X42089947Y-7909953D01*
X42196403Y-7941211D01*
X42228035Y-7950499D01*
X42228036Y-7950499D01*
X42228039Y-7950500D01*
X42228041Y-7950500D01*
X42334521Y-7950500D01*
X42392712Y-7969407D01*
X42404525Y-7979496D01*
X45915489Y-11490460D01*
X45915491Y-11490461D01*
X45915492Y-11490462D01*
X45915493Y-11490463D01*
X45984008Y-11530020D01*
X45984006Y-11530020D01*
X45984010Y-11530021D01*
X45984012Y-11530022D01*
X46060438Y-11550500D01*
X47159493Y-11550500D01*
X47217684Y-11569407D01*
X47229497Y-11579496D01*
X47250001Y-11600000D01*
X47720311Y-11600000D01*
X47730012Y-11600476D01*
X47730248Y-11600499D01*
X47730252Y-11600500D01*
X47730256Y-11600500D01*
X49019744Y-11600500D01*
X49019748Y-11600500D01*
X49019751Y-11600499D01*
X49019988Y-11600476D01*
X49029689Y-11600000D01*
X49499999Y-11600000D01*
X49520503Y-11579496D01*
X49575020Y-11551719D01*
X49590507Y-11550500D01*
X49989563Y-11550500D01*
X49989563Y-11550499D01*
X50065989Y-11530021D01*
X50134511Y-11490460D01*
X50175471Y-11449500D01*
X50190461Y-11434511D01*
X50445473Y-11179497D01*
X50499990Y-11151719D01*
X50515477Y-11150500D01*
X50621959Y-11150500D01*
X50621961Y-11150500D01*
X50760053Y-11109953D01*
X50881128Y-11032143D01*
X50975377Y-10923373D01*
X51035165Y-10792457D01*
X51049657Y-10691660D01*
X51055647Y-10650002D01*
X51055647Y-10649997D01*
X51035165Y-10507543D01*
X51029654Y-10495475D01*
X50975377Y-10376627D01*
X50881128Y-10267857D01*
X50881127Y-10267856D01*
X50881126Y-10267855D01*
X50760057Y-10190049D01*
X50760054Y-10190047D01*
X50760053Y-10190047D01*
X50760050Y-10190046D01*
X50621964Y-10149500D01*
X50621961Y-10149500D01*
X50478039Y-10149500D01*
X50478035Y-10149500D01*
X50339949Y-10190046D01*
X50339942Y-10190049D01*
X50218873Y-10267855D01*
X50124622Y-10376628D01*
X50064834Y-10507543D01*
X50044353Y-10649996D01*
X50044353Y-10649997D01*
X50044353Y-10650000D01*
X50047442Y-10671483D01*
X50037007Y-10731772D01*
X50019453Y-10755574D01*
X49854526Y-10920503D01*
X49800010Y-10948281D01*
X49784522Y-10949500D01*
X49397739Y-10949500D01*
X49339548Y-10930593D01*
X49303584Y-10881093D01*
X49303584Y-10819907D01*
X49338410Y-10771247D01*
X49357184Y-10757192D01*
X49357192Y-10757184D01*
X49443352Y-10642090D01*
X49443353Y-10642088D01*
X49493596Y-10507381D01*
X49493598Y-10507370D01*
X49500000Y-10447824D01*
X49500000Y-10400001D01*
X49499999Y-10400000D01*
X49029689Y-10400000D01*
X49019988Y-10399524D01*
X49019751Y-10399500D01*
X49019748Y-10399500D01*
X48324000Y-10399500D01*
X48265809Y-10380593D01*
X48229845Y-10331093D01*
X48225000Y-10300500D01*
X48225000Y-10199500D01*
X48243907Y-10141309D01*
X48293407Y-10105345D01*
X48324000Y-10100500D01*
X49019744Y-10100500D01*
X49019748Y-10100500D01*
X49019751Y-10100499D01*
X49019988Y-10100476D01*
X49029689Y-10100000D01*
X49499999Y-10100000D01*
X49500000Y-10099999D01*
X49500000Y-10096409D01*
X49518907Y-10038218D01*
X49549498Y-10010674D01*
X49584511Y-9990460D01*
X49640460Y-9934511D01*
X49845475Y-9729496D01*
X49899992Y-9701719D01*
X49915479Y-9700500D01*
X51034521Y-9700500D01*
X51092712Y-9719407D01*
X51104525Y-9729496D01*
X51870504Y-10495475D01*
X51898281Y-10549992D01*
X51899500Y-10565479D01*
X51899500Y-13334521D01*
X51880593Y-13392712D01*
X51870504Y-13404525D01*
X50354525Y-14920504D01*
X50300008Y-14948281D01*
X50284521Y-14949500D01*
X49590507Y-14949500D01*
X49532316Y-14930593D01*
X49520503Y-14920504D01*
X49499999Y-14900000D01*
X49029689Y-14900000D01*
X49019988Y-14899524D01*
X49019751Y-14899500D01*
X49019748Y-14899500D01*
X47730252Y-14899500D01*
X47730248Y-14899500D01*
X47730012Y-14899524D01*
X47720311Y-14900000D01*
X47250001Y-14900000D01*
X47250000Y-14900001D01*
X47250000Y-14947824D01*
X47249999Y-14947824D01*
X47256401Y-15007370D01*
X47256403Y-15007381D01*
X47306646Y-15142088D01*
X47306647Y-15142090D01*
X47392807Y-15257184D01*
X47392815Y-15257192D01*
X47509829Y-15344788D01*
X47545082Y-15394796D01*
X47548134Y-15414999D01*
X47549024Y-15414912D01*
X47549500Y-15419751D01*
X47561621Y-15480686D01*
X47561621Y-15519314D01*
X47549500Y-15580248D01*
X47549024Y-15585088D01*
X47546610Y-15584850D01*
X47530593Y-15634148D01*
X47509829Y-15655210D01*
X47392815Y-15742807D01*
X47392807Y-15742815D01*
X47306647Y-15857909D01*
X47306646Y-15857911D01*
X47256403Y-15992618D01*
X47256401Y-15992629D01*
X47250000Y-16052175D01*
X47250000Y-16099999D01*
X47250001Y-16100000D01*
X47720311Y-16100000D01*
X47730012Y-16100476D01*
X47730248Y-16100499D01*
X47730252Y-16100500D01*
X47730256Y-16100500D01*
X49019744Y-16100500D01*
X49019748Y-16100500D01*
X49019751Y-16100499D01*
X49019988Y-16100476D01*
X49029689Y-16100000D01*
X49499999Y-16100000D01*
X49500000Y-16099999D01*
X49500000Y-16065762D01*
X49518907Y-16007571D01*
X49530524Y-15995649D01*
X49529923Y-15995048D01*
X49590461Y-15934511D01*
X49744951Y-15780020D01*
X49840460Y-15684511D01*
X49880022Y-15615988D01*
X49880023Y-15615981D01*
X49881830Y-15611622D01*
X49921563Y-15565093D01*
X49973297Y-15550500D01*
X50489563Y-15550500D01*
X50489563Y-15550499D01*
X50565989Y-15530021D01*
X50634511Y-15490460D01*
X50690460Y-15434511D01*
X52440460Y-13684511D01*
X52480022Y-13615988D01*
X52500500Y-13539562D01*
X52500500Y-13460438D01*
X52500500Y-10360438D01*
X52483001Y-10295131D01*
X52480022Y-10284012D01*
X52440460Y-10215489D01*
X51384511Y-9159540D01*
X51383519Y-9158967D01*
X51367121Y-9149499D01*
X51367121Y-9149500D01*
X51315989Y-9119979D01*
X51315988Y-9119978D01*
X51315987Y-9119978D01*
X51239564Y-9099500D01*
X51239562Y-9099500D01*
X49789562Y-9099500D01*
X49710438Y-9099500D01*
X49674621Y-9109096D01*
X49634006Y-9119979D01*
X49628014Y-9122462D01*
X49626844Y-9119639D01*
X49579200Y-9129700D01*
X49523338Y-9104738D01*
X49492817Y-9051709D01*
X49493275Y-9013570D01*
X49492936Y-9013534D01*
X49493319Y-9009970D01*
X49493337Y-9008479D01*
X49493598Y-9007374D01*
X49500000Y-8947824D01*
X49500000Y-8900001D01*
X49499999Y-8900000D01*
X49029689Y-8900000D01*
X49019988Y-8899524D01*
X49019751Y-8899500D01*
X49019748Y-8899500D01*
X48324000Y-8899500D01*
X48265809Y-8880593D01*
X48229845Y-8831093D01*
X48225000Y-8800500D01*
X48225000Y-8100001D01*
X48525000Y-8100001D01*
X48525000Y-8599999D01*
X48525001Y-8600000D01*
X49499999Y-8600000D01*
X49500000Y-8599999D01*
X49500000Y-8552175D01*
X49493598Y-8492629D01*
X49493596Y-8492618D01*
X49443353Y-8357911D01*
X49443352Y-8357909D01*
X49357192Y-8242815D01*
X49357184Y-8242807D01*
X49242090Y-8156647D01*
X49242088Y-8156646D01*
X49107381Y-8106403D01*
X49107370Y-8106401D01*
X49047824Y-8100000D01*
X48525001Y-8100000D01*
X48525000Y-8100001D01*
X48225000Y-8100001D01*
X48224999Y-8100000D01*
X47702176Y-8100000D01*
X47642629Y-8106401D01*
X47642618Y-8106403D01*
X47507911Y-8156646D01*
X47507909Y-8156647D01*
X47392815Y-8242807D01*
X47392807Y-8242815D01*
X47306647Y-8357908D01*
X47286110Y-8412971D01*
X47248058Y-8460885D01*
X47189111Y-8477282D01*
X47131784Y-8455899D01*
X47123348Y-8448377D01*
X46626231Y-7951260D01*
X46598454Y-7896743D01*
X46608025Y-7836311D01*
X46621416Y-7816425D01*
X46712877Y-7710873D01*
X46772665Y-7579957D01*
X46781209Y-7520534D01*
X46793147Y-7437502D01*
X46793147Y-7437497D01*
X46772665Y-7295043D01*
X46767182Y-7283038D01*
X46712877Y-7164127D01*
X46618628Y-7055357D01*
X46618627Y-7055356D01*
X46618626Y-7055355D01*
X46497557Y-6977549D01*
X46497554Y-6977547D01*
X46497553Y-6977547D01*
X46497550Y-6977546D01*
X46359464Y-6937000D01*
X46359461Y-6937000D01*
X46215539Y-6937000D01*
X46215535Y-6937000D01*
X46077449Y-6977546D01*
X46077442Y-6977549D01*
X45956373Y-7055355D01*
X45862122Y-7164128D01*
X45802334Y-7295043D01*
X45781853Y-7437497D01*
X45781853Y-7437502D01*
X45802334Y-7579956D01*
X45852192Y-7689127D01*
X45862123Y-7710873D01*
X45930375Y-7789641D01*
X45961009Y-7824994D01*
X45958971Y-7826759D01*
X45984425Y-7868958D01*
X45987000Y-7891393D01*
X45987000Y-8077064D01*
X46007478Y-8153487D01*
X46038687Y-8207543D01*
X46038686Y-8207543D01*
X46047038Y-8222008D01*
X46047040Y-8222011D01*
X46625529Y-8800500D01*
X47087817Y-9262788D01*
X47115594Y-9317305D01*
X47113440Y-9358415D01*
X47099500Y-9410438D01*
X47099500Y-9489564D01*
X47119977Y-9565984D01*
X47119978Y-9565985D01*
X47119979Y-9565988D01*
X47159540Y-9634511D01*
X47282385Y-9757356D01*
X47310161Y-9811871D01*
X47305138Y-9861954D01*
X47256403Y-9992618D01*
X47256401Y-9992628D01*
X47255339Y-10002511D01*
X47230319Y-10058347D01*
X47177258Y-10088813D01*
X47116423Y-10082271D01*
X47086902Y-10061931D01*
X45130546Y-8105575D01*
X45102769Y-8051058D01*
X45102558Y-8021482D01*
X45105647Y-8000000D01*
X45101248Y-7969407D01*
X45085165Y-7857543D01*
X45076845Y-7839326D01*
X45025377Y-7726627D01*
X44931128Y-7617857D01*
X44931127Y-7617856D01*
X44931126Y-7617855D01*
X44810057Y-7540049D01*
X44810054Y-7540047D01*
X44810053Y-7540047D01*
X44810050Y-7540046D01*
X44671964Y-7499500D01*
X44671961Y-7499500D01*
X44528039Y-7499500D01*
X44528035Y-7499500D01*
X44389949Y-7540046D01*
X44389942Y-7540049D01*
X44268873Y-7617855D01*
X44174622Y-7726628D01*
X44114834Y-7857543D01*
X44094353Y-7999997D01*
X44094353Y-8000002D01*
X44114834Y-8142456D01*
X44139894Y-8197328D01*
X44174623Y-8273373D01*
X44247875Y-8357911D01*
X44268873Y-8382144D01*
X44389942Y-8459950D01*
X44389947Y-8459953D01*
X44496403Y-8491211D01*
X44528035Y-8500499D01*
X44528036Y-8500499D01*
X44528039Y-8500500D01*
X44528041Y-8500500D01*
X44634521Y-8500500D01*
X44692712Y-8519407D01*
X44704525Y-8529496D01*
X46955525Y-10780496D01*
X46983302Y-10835013D01*
X46973731Y-10895445D01*
X46930466Y-10938710D01*
X46885521Y-10949500D01*
X46265479Y-10949500D01*
X46207288Y-10930593D01*
X46195475Y-10920504D01*
X42830546Y-7555575D01*
X42802769Y-7501058D01*
X42802558Y-7471482D01*
X42805647Y-7450000D01*
X42803849Y-7437497D01*
X42785165Y-7307543D01*
X42779456Y-7295043D01*
X42725377Y-7176627D01*
X42631128Y-7067857D01*
X42631127Y-7067856D01*
X42631126Y-7067855D01*
X42510057Y-6990049D01*
X42510054Y-6990047D01*
X42510053Y-6990047D01*
X42510050Y-6990046D01*
X42371964Y-6949500D01*
X42371961Y-6949500D01*
X42228039Y-6949500D01*
X42228035Y-6949500D01*
X42089949Y-6990046D01*
X42089942Y-6990049D01*
X41968873Y-7067855D01*
X41874622Y-7176628D01*
X41814834Y-7307543D01*
X41794353Y-7449997D01*
X35308982Y-7449997D01*
X35322264Y-7434668D01*
X35374660Y-7403073D01*
X35397083Y-7400500D01*
X37039563Y-7400500D01*
X37039563Y-7400499D01*
X37115989Y-7380021D01*
X37184511Y-7340460D01*
X37240460Y-7284511D01*
X37840460Y-6684511D01*
X37866131Y-6640047D01*
X37880021Y-6615989D01*
X37900500Y-6539562D01*
X37900500Y-6080253D01*
X49829500Y-6080253D01*
X49829500Y-7719746D01*
X49829501Y-7719758D01*
X49841132Y-7778227D01*
X49841134Y-7778233D01*
X49873559Y-7826759D01*
X49885448Y-7844552D01*
X49951769Y-7888867D01*
X49996231Y-7897711D01*
X50010241Y-7900498D01*
X50010246Y-7900498D01*
X50010252Y-7900500D01*
X50010253Y-7900500D01*
X52049747Y-7900500D01*
X52049748Y-7900500D01*
X52108231Y-7888867D01*
X52174552Y-7844552D01*
X52218867Y-7778231D01*
X52230500Y-7719748D01*
X52230500Y-6080252D01*
X52218867Y-6021769D01*
X52174552Y-5955448D01*
X52119864Y-5918906D01*
X52108233Y-5911134D01*
X52108231Y-5911133D01*
X52108228Y-5911132D01*
X52108227Y-5911132D01*
X52049758Y-5899501D01*
X52049748Y-5899500D01*
X50010252Y-5899500D01*
X50010251Y-5899500D01*
X50010241Y-5899501D01*
X49951772Y-5911132D01*
X49951766Y-5911134D01*
X49885451Y-5955445D01*
X49885445Y-5955451D01*
X49841134Y-6021766D01*
X49841132Y-6021772D01*
X49829501Y-6080241D01*
X49829500Y-6080253D01*
X37900500Y-6080253D01*
X37900500Y-2789008D01*
X37919407Y-2730817D01*
X37924684Y-2724173D01*
X37924807Y-2724029D01*
X37925377Y-2723373D01*
X37985165Y-2592457D01*
X37998458Y-2500000D01*
X38005647Y-2450002D01*
X38005647Y-2449997D01*
X37985165Y-2307543D01*
X37964146Y-2261518D01*
X37925377Y-2176627D01*
X37831128Y-2067857D01*
X37831127Y-2067856D01*
X37831126Y-2067855D01*
X37710057Y-1990049D01*
X37710054Y-1990047D01*
X37710053Y-1990047D01*
X37710050Y-1990046D01*
X37571964Y-1949500D01*
X37571961Y-1949500D01*
X37428039Y-1949500D01*
X37428035Y-1949500D01*
X37289949Y-1990046D01*
X37289942Y-1990049D01*
X37168873Y-2067855D01*
X37074622Y-2176628D01*
X37014834Y-2307543D01*
X36994353Y-2449997D01*
X36994353Y-2450002D01*
X37014834Y-2592456D01*
X37068245Y-2709407D01*
X37074623Y-2723373D01*
X37131496Y-2789008D01*
X37168873Y-2832144D01*
X37254023Y-2886866D01*
X37292754Y-2934232D01*
X37299500Y-2970150D01*
X37299500Y-6334521D01*
X37280593Y-6392712D01*
X37270504Y-6404525D01*
X36904525Y-6770504D01*
X36850008Y-6798281D01*
X36834521Y-6799500D01*
X35397083Y-6799500D01*
X35338892Y-6780593D01*
X35322264Y-6765331D01*
X35281128Y-6717857D01*
X35248182Y-6696684D01*
X35160057Y-6640049D01*
X35160054Y-6640047D01*
X35160053Y-6640047D01*
X35160050Y-6640046D01*
X35021964Y-6599500D01*
X35021961Y-6599500D01*
X34878039Y-6599500D01*
X34878035Y-6599500D01*
X34739949Y-6640046D01*
X34739942Y-6640049D01*
X34618873Y-6717855D01*
X34524622Y-6826628D01*
X34464834Y-6957543D01*
X34444353Y-7099997D01*
X24950500Y-7099997D01*
X24950500Y-6703893D01*
X24969407Y-6645702D01*
X24976741Y-6637711D01*
X24976491Y-6637494D01*
X25009413Y-6599500D01*
X25075377Y-6523373D01*
X25135165Y-6392457D01*
X25155647Y-6250000D01*
X25152843Y-6230500D01*
X25135165Y-6107543D01*
X25095993Y-6021769D01*
X25075377Y-5976627D01*
X24981128Y-5867857D01*
X24939873Y-5841344D01*
X24901142Y-5793978D01*
X24897650Y-5732892D01*
X24914142Y-5698734D01*
X24993796Y-5592331D01*
X25044091Y-5457483D01*
X25050500Y-5397873D01*
X25050499Y-4702128D01*
X25044091Y-4642517D01*
X25027483Y-4597989D01*
X24993797Y-4507670D01*
X24907549Y-4392458D01*
X24907548Y-4392457D01*
X24907546Y-4392454D01*
X24850834Y-4349999D01*
X24792329Y-4306202D01*
X24657488Y-4255910D01*
X24657483Y-4255909D01*
X24657481Y-4255908D01*
X24657477Y-4255908D01*
X24626249Y-4252550D01*
X24597873Y-4249500D01*
X24597870Y-4249500D01*
X22302133Y-4249500D01*
X22302129Y-4249500D01*
X22302128Y-4249501D01*
X22294949Y-4250272D01*
X22242519Y-4255908D01*
X22242514Y-4255909D01*
X22107670Y-4306202D01*
X21992458Y-4392450D01*
X21992450Y-4392458D01*
X21906203Y-4507669D01*
X21885722Y-4562582D01*
X21847671Y-4610496D01*
X21788724Y-4626894D01*
X21731396Y-4605512D01*
X21722960Y-4597989D01*
X20472945Y-3347974D01*
X20445168Y-3293457D01*
X20454739Y-3233025D01*
X20498004Y-3189760D01*
X20502659Y-3187539D01*
X20532730Y-3174151D01*
X20685871Y-3062888D01*
X20812533Y-2922216D01*
X20898940Y-2772554D01*
X20907174Y-2758293D01*
X20907174Y-2758291D01*
X20907179Y-2758284D01*
X20965674Y-2578256D01*
X20985460Y-2390000D01*
X20965674Y-2201744D01*
X20907179Y-2021716D01*
X20907176Y-2021711D01*
X20907174Y-2021706D01*
X20836906Y-1900000D01*
X20812533Y-1857784D01*
X20741555Y-1778955D01*
X20685875Y-1717116D01*
X20685870Y-1717111D01*
X20532731Y-1605850D01*
X20532732Y-1605850D01*
X20532730Y-1605849D01*
X20532725Y-1605847D01*
X20532722Y-1605845D01*
X20359805Y-1528857D01*
X20359803Y-1528856D01*
X20359800Y-1528855D01*
X20359799Y-1528855D01*
X20324580Y-1521369D01*
X20174646Y-1489500D01*
X19985354Y-1489500D01*
X19867289Y-1514595D01*
X19800200Y-1528855D01*
X19800194Y-1528857D01*
X19627277Y-1605845D01*
X19627268Y-1605850D01*
X19474129Y-1717111D01*
X19474124Y-1717116D01*
X19347469Y-1857781D01*
X19347465Y-1857787D01*
X19252825Y-2021706D01*
X19250714Y-2026450D01*
X19249519Y-2025918D01*
X19217055Y-2070596D01*
X19158869Y-2089500D01*
X13905479Y-2089500D01*
X13847288Y-2070593D01*
X13835475Y-2060504D01*
X13609495Y-1834524D01*
X13581718Y-1780007D01*
X13580499Y-1764520D01*
X13580499Y-998478D01*
X13567276Y-914986D01*
X13576848Y-854554D01*
X13620113Y-811290D01*
X13665057Y-800500D01*
X20564521Y-800500D01*
X20622712Y-819407D01*
X20634525Y-829496D01*
X21758242Y-1953213D01*
X21786019Y-2007730D01*
X21782393Y-2053810D01*
X21734326Y-2201743D01*
X21728043Y-2261521D01*
X21714540Y-2390000D01*
X21733932Y-2574511D01*
X21734327Y-2578261D01*
X21792819Y-2758279D01*
X21792825Y-2758293D01*
X21858937Y-2872801D01*
X21887467Y-2922216D01*
X21887469Y-2922218D01*
X22002524Y-3050000D01*
X22014129Y-3062888D01*
X22167270Y-3174151D01*
X22340197Y-3251144D01*
X22525354Y-3290500D01*
X22525357Y-3290500D01*
X22714643Y-3290500D01*
X22714646Y-3290500D01*
X22899803Y-3251144D01*
X23072730Y-3174151D01*
X23225871Y-3062888D01*
X23352533Y-2922216D01*
X23438940Y-2772554D01*
X23447174Y-2758293D01*
X23447174Y-2758291D01*
X23447179Y-2758284D01*
X23447181Y-2758275D01*
X23449286Y-2753550D01*
X23450480Y-2754081D01*
X23482945Y-2709404D01*
X23541131Y-2690500D01*
X32424521Y-2690500D01*
X32482712Y-2709407D01*
X32494525Y-2719496D01*
X33926418Y-4151389D01*
X33954195Y-4205906D01*
X33944624Y-4266338D01*
X33911888Y-4300024D01*
X33913337Y-4301960D01*
X33792458Y-4392450D01*
X33792450Y-4392458D01*
X33706202Y-4507670D01*
X33655910Y-4642511D01*
X33655908Y-4642522D01*
X33649500Y-4702129D01*
X33649500Y-5397866D01*
X33649500Y-5397869D01*
X33649501Y-5397872D01*
X33649730Y-5400000D01*
X33655908Y-5457480D01*
X33655909Y-5457485D01*
X33706202Y-5592329D01*
X33766872Y-5673373D01*
X33792454Y-5707546D01*
X33792457Y-5707548D01*
X33792458Y-5707549D01*
X33907670Y-5793797D01*
X34042511Y-5844089D01*
X34042512Y-5844089D01*
X34042517Y-5844091D01*
X34102127Y-5850500D01*
X36397872Y-5850499D01*
X36457483Y-5844091D01*
X36524907Y-5818943D01*
X36592329Y-5793797D01*
X36592329Y-5793796D01*
X36592331Y-5793796D01*
X36707546Y-5707546D01*
X36793796Y-5592331D01*
X36844091Y-5457483D01*
X36850500Y-5397873D01*
X36850499Y-4702128D01*
X36844091Y-4642517D01*
X36827483Y-4597989D01*
X36793797Y-4507670D01*
X36707549Y-4392458D01*
X36707548Y-4392457D01*
X36707546Y-4392454D01*
X36650834Y-4349999D01*
X36592329Y-4306202D01*
X36457488Y-4255910D01*
X36457483Y-4255909D01*
X36457481Y-4255908D01*
X36457477Y-4255908D01*
X36426249Y-4252550D01*
X36397873Y-4249500D01*
X36397870Y-4249500D01*
X34915479Y-4249500D01*
X34857288Y-4230593D01*
X34845475Y-4220504D01*
X33812499Y-3187528D01*
X32774511Y-2149540D01*
X32774508Y-2149538D01*
X32774507Y-2149537D01*
X32705989Y-2109979D01*
X32705985Y-2109977D01*
X32629564Y-2089500D01*
X32629562Y-2089500D01*
X23541131Y-2089500D01*
X23482940Y-2070593D01*
X23450480Y-2025918D01*
X23449286Y-2026450D01*
X23447180Y-2021720D01*
X23447179Y-2021716D01*
X23447176Y-2021711D01*
X23447174Y-2021706D01*
X23376906Y-1900000D01*
X23352533Y-1857784D01*
X23281555Y-1778955D01*
X23225875Y-1717116D01*
X23225870Y-1717111D01*
X23072731Y-1605850D01*
X23072732Y-1605850D01*
X23072730Y-1605849D01*
X23072725Y-1605847D01*
X23072722Y-1605845D01*
X22899805Y-1528857D01*
X22899803Y-1528856D01*
X22899800Y-1528855D01*
X22899799Y-1528855D01*
X22864580Y-1521369D01*
X22714646Y-1489500D01*
X22525354Y-1489500D01*
X22407289Y-1514595D01*
X22340200Y-1528855D01*
X22340194Y-1528857D01*
X22294156Y-1549354D01*
X22233306Y-1555748D01*
X22183887Y-1528916D01*
X21554967Y-899996D01*
X20924472Y-269501D01*
X20896697Y-214987D01*
X20906268Y-154555D01*
X20949533Y-111290D01*
X20994478Y-100500D01*
X51473071Y-100500D01*
X51497015Y-100500D01*
X51502992Y-100681D01*
G37*
%TD.AperFunction*%
%TD*%
D20*
X37500000Y-2450000D03*
X34950000Y-7100000D03*
X43550000Y-7250000D03*
X45350000Y-6150000D03*
X29000000Y-21450000D03*
X18550000Y-4750000D03*
X36600000Y-8200000D03*
X3350000Y-16000000D03*
X9400000Y-12824264D03*
X10000000Y-6900000D03*
X15150000Y-15300000D03*
X28150000Y-5900000D03*
X6550000Y-3750000D03*
X24850000Y-14150000D03*
X14700000Y-21500000D03*
X9900000Y-9750000D03*
X2800000Y-12100000D03*
X46050000Y-2350000D03*
X52750000Y-16800000D03*
X18350000Y-6600000D03*
X36800000Y-3700000D03*
X9600000Y-15450000D03*
X18300000Y-11600000D03*
X52600000Y-9200000D03*
X49350000Y-7000000D03*
X6750000Y-20100000D03*
X45800000Y-15300000D03*
X46300000Y-21550000D03*
X45650000Y-17850000D03*
X41150000Y-3420000D03*
X30350000Y-14000000D03*
X25650000Y-3150000D03*
X11200000Y-20000000D03*
X40500000Y-13150000D03*
X10050000Y-17922792D03*
X34300000Y-1900000D03*
X36300000Y-14250000D03*
X29950000Y-11250000D03*
X19600000Y-7600000D03*
X5500000Y-7500000D03*
X16350000Y-8550000D03*
X51300000Y-15450000D03*
X42500000Y-8950000D03*
X42200000Y-10750000D03*
X15800000Y-12200000D03*
X46287500Y-7437500D03*
X9337500Y-7962500D03*
X4650000Y-13750000D03*
X50550000Y-10650000D03*
X42300000Y-7450000D03*
X50750000Y-12200000D03*
X38650000Y-13650000D03*
X4881626Y-12550000D03*
X49750000Y-13300000D03*
X7525000Y-13650000D03*
X40650000Y-10250000D03*
X40600000Y-11650000D03*
X7525000Y-11230000D03*
X42923528Y-14773528D03*
X23800000Y-7100000D03*
X24650000Y-6250000D03*
X44600000Y-8000000D03*
X16557475Y-14192525D03*
X11750000Y-5400000D03*
X12800000Y-8350000D03*
D21*
X2500000Y-2500000D03*
X51500000Y-22500000D03*
X5850000Y-23600000D03*
X7850000Y-23600000D03*
X9850000Y-23600000D03*
X11850000Y-23600000D03*
X51500000Y-2550000D03*
X20080000Y-2390000D03*
X22620000Y-2390000D03*
X2500000Y-22500000D03*
M02*
