%TF.GenerationSoftware,KiCad,Pcbnew,8.0.7*%
%TF.CreationDate,2025-01-15T18:16:11+00:00*%
%TF.ProjectId,Dial,4469616c-2e6b-4696-9361-645f70636258,rev?*%
%TF.SameCoordinates,Original*%
%TF.FileFunction,Copper,L2,Bot*%
%TF.FilePolarity,Positive*%
%FSLAX46Y46*%
G04 Gerber Fmt 4.6, Leading zero omitted, Abs format (unit mm)*
G04 Created by KiCad (PCBNEW 8.0.7) date 2025-01-15 18:16:11*
%MOMM*%
%LPD*%
G01*
G04 APERTURE LIST*
%TA.AperFunction,ComponentPad*%
%ADD10R,1.350000X1.350000*%
%TD*%
%TA.AperFunction,ComponentPad*%
%ADD11O,1.350000X1.350000*%
%TD*%
%TA.AperFunction,ComponentPad*%
%ADD12O,3.400000X3.000000*%
%TD*%
%TA.AperFunction,ComponentPad*%
%ADD13C,1.600000*%
%TD*%
%TA.AperFunction,SMDPad,CuDef*%
%ADD14R,2.000000X1.000000*%
%TD*%
%TA.AperFunction,SMDPad,CuDef*%
%ADD15R,2.500000X1.000000*%
%TD*%
%TA.AperFunction,ViaPad*%
%ADD16C,0.600000*%
%TD*%
%TA.AperFunction,Conductor*%
%ADD17C,0.200000*%
%TD*%
%TA.AperFunction,Conductor*%
%ADD18C,0.400000*%
%TD*%
%ADD19C,0.300000*%
%ADD20C,0.350000*%
%ADD21O,2.500000X2.050000*%
G04 APERTURE END LIST*
D10*
%TO.P,J4,1,Pin_1*%
%TO.N,5V*%
X5850000Y-23600000D03*
D11*
%TO.P,J4,2,Pin_2*%
%TO.N,GND*%
X7850000Y-23600000D03*
%TO.P,J4,3,Pin_3*%
%TO.N,SWDIO*%
X9850000Y-23600000D03*
%TO.P,J4,4,Pin_4*%
%TO.N,SWDCLK*%
X11850000Y-23600000D03*
%TD*%
D12*
%TO.P,SW7,1*%
%TO.N,N/C*%
X27000000Y-18125000D03*
%TO.P,SW7,2*%
X27000000Y-6875000D03*
D13*
%TO.P,SW7,A,A*%
%TO.N,ENC_A*%
X22850000Y-18125000D03*
%TO.P,SW7,B,B*%
%TO.N,ENC_B*%
X22850000Y-6875000D03*
%TO.P,SW7,C,C*%
%TO.N,GND*%
X31150000Y-18125000D03*
%TO.P,SW7,S1,S1*%
%TO.N,Interrupt5V*%
X30450000Y-6550000D03*
%TO.P,SW7,S2,S2*%
%TO.N,SW1*%
X20150000Y-12500000D03*
%TD*%
D14*
%TO.P,J5,1,Pin_1*%
%TO.N,MOSI*%
X47575000Y-18850000D03*
%TO.P,J5,2,Pin_2*%
%TO.N,MISO*%
X47575000Y-16310000D03*
%TO.P,J5,3,Pin_3*%
%TO.N,SCLK*%
X47575000Y-13770000D03*
%TO.P,J5,4,Pin_4*%
%TO.N,PS*%
X47575000Y-11230000D03*
%TO.P,J5,5,Pin_5*%
%TO.N,GND*%
X47575000Y-8690000D03*
%TO.P,J5,6,Pin_6*%
%TO.N,5V*%
X47575000Y-6150000D03*
%TD*%
D15*
%TO.P,J3,1,Pin_1*%
%TO.N,5V*%
X8025000Y-6150000D03*
%TO.P,J3,2,Pin_2*%
%TO.N,GND*%
X8025000Y-8690000D03*
%TO.P,J3,3,Pin_3*%
%TO.N,PS*%
X8025000Y-11230000D03*
%TO.P,J3,4,Pin_4*%
%TO.N,SCLK*%
X8025000Y-13770000D03*
%TO.P,J3,5,Pin_5*%
%TO.N,MISO*%
X8025000Y-16310000D03*
%TO.P,J3,6,Pin_6*%
%TO.N,MOSI*%
X8025000Y-18850000D03*
%TD*%
D16*
%TO.N,GND*%
X23200000Y-11600000D03*
X25675000Y-11500000D03*
X35800000Y-8100000D03*
X15725000Y-3100000D03*
X21900000Y-13350000D03*
X41400000Y-16900000D03*
X6850000Y-21825000D03*
X20600000Y-18625000D03*
X25700000Y-1200000D03*
X14175000Y-7475000D03*
X51250000Y-8750000D03*
X7975000Y-10075000D03*
X9675000Y-12450000D03*
X22150000Y-5500000D03*
X47750000Y-1850000D03*
X5800000Y-17450000D03*
X29550000Y-8200000D03*
X24500000Y-19950000D03*
X35900000Y-3150000D03*
X4650000Y-20225000D03*
X5800000Y-7300000D03*
X2025000Y-9075000D03*
X36050000Y-13300000D03*
X15300000Y-23100000D03*
X45500000Y-7400000D03*
X46750000Y-9750000D03*
X50075000Y-16325000D03*
X3125000Y-16275000D03*
X48320000Y-20420000D03*
X8800000Y-14950000D03*
X13650000Y-20550000D03*
X42375000Y-20250000D03*
X18200000Y-13250000D03*
X17922499Y-16475000D03*
X4175000Y-12175000D03*
X43600000Y-11750000D03*
X7103235Y-15171765D03*
X15950000Y-5275000D03*
X32500000Y-11525000D03*
X7850000Y-3900000D03*
X9000000Y-17775000D03*
X5910000Y-1260000D03*
X28650000Y-24050000D03*
X46350000Y-4750000D03*
X15825000Y-12675000D03*
%TO.N,5V*%
X10000000Y-6150000D03*
X50025000Y-9400000D03*
X45550000Y-6150000D03*
%TO.N,MOSI*%
X43350000Y-18850000D03*
X14975000Y-18850000D03*
X8075000Y-19975000D03*
%TO.N,MISO*%
X45050000Y-16310000D03*
X9600000Y-16310000D03*
%TO.N,SCLK*%
X10425000Y-13770000D03*
X46200000Y-14050000D03*
%TO.N,PS*%
X50125000Y-12475000D03*
X10025000Y-11230000D03*
%TO.N,Interrupt5V*%
X29525000Y-2500000D03*
X3275000Y-12825000D03*
%TD*%
D17*
%TO.N,GND*%
X45900000Y-15150000D02*
X47250000Y-15150000D01*
X13000000Y-16000000D02*
X19425000Y-16000000D01*
X6645000Y-17280000D02*
X11720000Y-17280000D01*
X15300000Y-13725000D02*
X15525000Y-13950000D01*
D18*
X8025000Y-8690000D02*
X8110000Y-8775000D01*
D17*
X6475000Y-17110000D02*
X6645000Y-17280000D01*
X6475000Y-10240000D02*
X6475000Y-12450000D01*
X11720000Y-17280000D02*
X13000000Y-16000000D01*
X15525000Y-13950000D02*
X21425000Y-13950000D01*
X6475000Y-15075000D02*
X6475000Y-17110000D01*
X6475000Y-12450000D02*
X6475000Y-15075000D01*
X8800000Y-14950000D02*
X19075000Y-14950000D01*
X21425000Y-13950000D02*
X40400000Y-13950000D01*
X6600000Y-14950000D02*
X8800000Y-14950000D01*
X46750000Y-9515000D02*
X47575000Y-8690000D01*
X9675000Y-12450000D02*
X14025000Y-12450000D01*
X45700000Y-14950000D02*
X45900000Y-15150000D01*
X6475000Y-15075000D02*
X6600000Y-14950000D01*
X14025000Y-12450000D02*
X15300000Y-13725000D01*
X19075000Y-14950000D02*
X45700000Y-14950000D01*
X8025000Y-8690000D02*
X6475000Y-10240000D01*
X40400000Y-13950000D02*
X40975000Y-13375000D01*
X46750000Y-9750000D02*
X46750000Y-9515000D01*
X6475000Y-12450000D02*
X9675000Y-12450000D01*
D18*
X47490000Y-8775000D02*
X47575000Y-8690000D01*
D17*
X19425000Y-16000000D02*
X40175000Y-16000000D01*
D18*
X8110000Y-8775000D02*
X47490000Y-8775000D01*
%TO.N,5V*%
X37910050Y-6150000D02*
X45550000Y-6150000D01*
D17*
X47575000Y-6150000D02*
X50025000Y-8600000D01*
D18*
X13150000Y-3825000D02*
X35585050Y-3825000D01*
X35585050Y-3825000D02*
X37910050Y-6150000D01*
X45550000Y-6150000D02*
X47575000Y-6150000D01*
X8025000Y-6150000D02*
X10000000Y-6150000D01*
D17*
X50025000Y-8600000D02*
X50025000Y-9400000D01*
D18*
X10825000Y-6150000D02*
X13150000Y-3825000D01*
X10000000Y-6150000D02*
X10825000Y-6150000D01*
%TO.N,MOSI*%
X38875000Y-18850000D02*
X43350000Y-18850000D01*
D17*
X8075000Y-18900000D02*
X8025000Y-18850000D01*
D18*
X18075000Y-21650000D02*
X36075000Y-21650000D01*
X15275000Y-18850000D02*
X18075000Y-21650000D01*
X8025000Y-18850000D02*
X14975000Y-18850000D01*
X14975000Y-18850000D02*
X15275000Y-18850000D01*
X43350000Y-18850000D02*
X47575000Y-18850000D01*
D17*
X8075000Y-19975000D02*
X8075000Y-18900000D01*
D18*
X36075000Y-21650000D02*
X38875000Y-18850000D01*
%TO.N,MISO*%
X45050000Y-16310000D02*
X44710000Y-16310000D01*
X9600000Y-16310000D02*
X8025000Y-16310000D01*
X47575000Y-16310000D02*
X45050000Y-16310000D01*
X9940000Y-16310000D02*
X9600000Y-16310000D01*
X43900000Y-15500000D02*
X10750000Y-15500000D01*
X10750000Y-15500000D02*
X9940000Y-16310000D01*
X44710000Y-16310000D02*
X43900000Y-15500000D01*
%TO.N,SCLK*%
X9325000Y-13770000D02*
X10425000Y-13770000D01*
X44350000Y-14450000D02*
X44750000Y-14050000D01*
X8025000Y-13770000D02*
X9325000Y-13770000D01*
X11725000Y-14450000D02*
X44350000Y-14450000D01*
X46200000Y-14050000D02*
X47295000Y-14050000D01*
X44750000Y-14050000D02*
X46200000Y-14050000D01*
X11045000Y-13770000D02*
X11725000Y-14450000D01*
X47295000Y-14050000D02*
X47575000Y-13770000D01*
X10425000Y-13770000D02*
X11045000Y-13770000D01*
%TO.N,PS*%
X44270000Y-10625000D02*
X44875000Y-11230000D01*
X10025000Y-11230000D02*
X10295000Y-11230000D01*
D17*
X50125000Y-12475000D02*
X48880000Y-11230000D01*
X48880000Y-11230000D02*
X47575000Y-11230000D01*
D18*
X10900000Y-10625000D02*
X44270000Y-10625000D01*
X44875000Y-11230000D02*
X47575000Y-11230000D01*
X8025000Y-11230000D02*
X10025000Y-11230000D01*
X10295000Y-11230000D02*
X10900000Y-10625000D01*
D17*
%TO.N,Interrupt5V*%
X3275000Y-5600000D02*
X6500000Y-2375000D01*
X3275000Y-12825000D02*
X3275000Y-5600000D01*
X29400000Y-2375000D02*
X29525000Y-2500000D01*
X6500000Y-2375000D02*
X29400000Y-2375000D01*
%TD*%
%TA.AperFunction,Conductor*%
%TO.N,GND*%
G36*
X51502992Y-100681D02*
G01*
X51783256Y-117633D01*
X51795111Y-119073D01*
X51958223Y-148964D01*
X51983638Y-153622D01*
X52037468Y-182709D01*
X52063920Y-237880D01*
X52052891Y-298064D01*
X52008593Y-340270D01*
X51965793Y-350000D01*
X50999997Y-350000D01*
X50299998Y-650000D01*
X49799999Y-1050000D01*
X49600005Y-1349990D01*
X49599998Y-1350002D01*
X49400001Y-1749996D01*
X49300000Y-2050000D01*
X49300000Y-3050002D01*
X49599997Y-3749995D01*
X49600000Y-3750000D01*
X50097817Y-4347381D01*
X50100000Y-4350000D01*
X50900000Y-4750000D01*
X51899998Y-4750000D01*
X51900000Y-4750000D01*
X52500000Y-4650000D01*
X53100000Y-4150000D01*
X53500000Y-3650000D01*
X53700000Y-2950000D01*
X53700000Y-2478186D01*
X53718907Y-2419995D01*
X53768407Y-2384031D01*
X53829593Y-2384031D01*
X53879093Y-2419995D01*
X53897819Y-2472209D01*
X53899319Y-2497007D01*
X53899500Y-2502984D01*
X53899500Y-5019991D01*
X53914798Y-5056926D01*
X53914799Y-5056927D01*
X53914800Y-5056929D01*
X53943071Y-5085200D01*
X53943072Y-5085200D01*
X53943073Y-5085201D01*
X53980008Y-5100500D01*
X53980009Y-5100500D01*
X54800500Y-5100500D01*
X54858691Y-5119407D01*
X54894655Y-5168907D01*
X54899500Y-5199500D01*
X54899500Y-19800500D01*
X54880593Y-19858691D01*
X54831093Y-19894655D01*
X54800500Y-19899500D01*
X53980008Y-19899500D01*
X53943073Y-19914798D01*
X53914798Y-19943073D01*
X53899500Y-19980008D01*
X53899500Y-22497015D01*
X53899319Y-22502992D01*
X53897819Y-22527790D01*
X53875433Y-22584733D01*
X53823852Y-22617643D01*
X53762778Y-22613949D01*
X53715540Y-22575062D01*
X53700000Y-22521813D01*
X53700000Y-21900000D01*
X53500000Y-21400001D01*
X53500000Y-21400000D01*
X53100000Y-20900000D01*
X52600000Y-20500000D01*
X52000000Y-20300000D01*
X51000000Y-20300000D01*
X50999997Y-20300000D01*
X50299998Y-20600000D01*
X49799999Y-21000000D01*
X49600005Y-21299990D01*
X49599998Y-21300002D01*
X49400001Y-21699996D01*
X49300000Y-22000000D01*
X49300000Y-23000002D01*
X49599997Y-23699995D01*
X49600000Y-23700000D01*
X50061837Y-24254205D01*
X50100000Y-24300000D01*
X50900000Y-24700000D01*
X51521813Y-24700000D01*
X51580004Y-24718907D01*
X51615968Y-24768407D01*
X51615968Y-24829593D01*
X51580004Y-24879093D01*
X51527790Y-24897819D01*
X51502992Y-24899319D01*
X51497015Y-24899500D01*
X8277877Y-24899500D01*
X8219686Y-24880593D01*
X8183722Y-24831093D01*
X8183722Y-24769907D01*
X8219686Y-24720407D01*
X8242114Y-24708185D01*
X8375986Y-24656322D01*
X8375991Y-24656319D01*
X8561126Y-24541688D01*
X8561129Y-24541686D01*
X8722052Y-24394987D01*
X8853283Y-24221209D01*
X8853288Y-24221200D01*
X8930605Y-24065927D01*
X8973467Y-24022265D01*
X9033808Y-24012135D01*
X9088579Y-24039407D01*
X9104962Y-24060555D01*
X9137805Y-24117440D01*
X9231239Y-24221209D01*
X9254463Y-24247003D01*
X9260950Y-24254207D01*
X9409839Y-24362381D01*
X9409843Y-24362383D01*
X9409845Y-24362384D01*
X9465485Y-24387156D01*
X9577966Y-24437236D01*
X9757981Y-24475500D01*
X9757983Y-24475500D01*
X9942017Y-24475500D01*
X9942019Y-24475500D01*
X10122034Y-24437236D01*
X10290161Y-24362381D01*
X10439050Y-24254207D01*
X10562195Y-24117440D01*
X10654214Y-23958059D01*
X10711085Y-23783029D01*
X10730322Y-23600000D01*
X10969678Y-23600000D01*
X10986483Y-23759893D01*
X10988916Y-23783034D01*
X11045784Y-23958054D01*
X11045790Y-23958068D01*
X11082855Y-24022265D01*
X11137805Y-24117440D01*
X11231239Y-24221209D01*
X11254463Y-24247003D01*
X11260950Y-24254207D01*
X11409839Y-24362381D01*
X11409843Y-24362383D01*
X11409845Y-24362384D01*
X11465485Y-24387156D01*
X11577966Y-24437236D01*
X11757981Y-24475500D01*
X11757983Y-24475500D01*
X11942017Y-24475500D01*
X11942019Y-24475500D01*
X12122034Y-24437236D01*
X12290161Y-24362381D01*
X12439050Y-24254207D01*
X12562195Y-24117440D01*
X12654214Y-23958059D01*
X12711085Y-23783029D01*
X12730322Y-23600000D01*
X12711085Y-23416971D01*
X12654214Y-23241941D01*
X12654211Y-23241936D01*
X12654209Y-23241931D01*
X12604704Y-23156187D01*
X12562195Y-23082560D01*
X12439050Y-22945793D01*
X12290161Y-22837619D01*
X12290157Y-22837617D01*
X12290154Y-22837615D01*
X12122036Y-22762765D01*
X12122034Y-22762764D01*
X12122031Y-22762763D01*
X12122030Y-22762763D01*
X12075135Y-22752795D01*
X11942019Y-22724500D01*
X11757981Y-22724500D01*
X11660797Y-22745157D01*
X11577969Y-22762763D01*
X11577963Y-22762765D01*
X11409845Y-22837615D01*
X11409842Y-22837617D01*
X11409839Y-22837618D01*
X11409839Y-22837619D01*
X11397245Y-22846769D01*
X11260948Y-22945794D01*
X11137803Y-23082562D01*
X11137803Y-23082563D01*
X11045790Y-23241931D01*
X11045784Y-23241945D01*
X10988916Y-23416965D01*
X10988915Y-23416969D01*
X10988915Y-23416971D01*
X10969678Y-23600000D01*
X10730322Y-23600000D01*
X10711085Y-23416971D01*
X10654214Y-23241941D01*
X10654211Y-23241936D01*
X10654209Y-23241931D01*
X10604704Y-23156187D01*
X10562195Y-23082560D01*
X10439050Y-22945793D01*
X10290161Y-22837619D01*
X10290157Y-22837617D01*
X10290154Y-22837615D01*
X10122036Y-22762765D01*
X10122034Y-22762764D01*
X10122031Y-22762763D01*
X10122030Y-22762763D01*
X10075135Y-22752795D01*
X9942019Y-22724500D01*
X9757981Y-22724500D01*
X9660797Y-22745157D01*
X9577969Y-22762763D01*
X9577963Y-22762765D01*
X9409845Y-22837615D01*
X9409842Y-22837617D01*
X9409839Y-22837618D01*
X9409839Y-22837619D01*
X9397245Y-22846769D01*
X9260948Y-22945794D01*
X9137804Y-23082561D01*
X9104962Y-23139445D01*
X9059492Y-23180385D01*
X8998642Y-23186780D01*
X8945654Y-23156187D01*
X8930605Y-23134072D01*
X8853288Y-22978799D01*
X8853283Y-22978790D01*
X8722052Y-22805012D01*
X8561129Y-22658313D01*
X8561126Y-22658311D01*
X8375991Y-22543680D01*
X8375986Y-22543677D01*
X8172932Y-22465013D01*
X8172926Y-22465011D01*
X8100000Y-22451379D01*
X8100000Y-23319670D01*
X8080255Y-23299925D01*
X7994745Y-23250556D01*
X7899370Y-23225000D01*
X7800630Y-23225000D01*
X7705255Y-23250556D01*
X7619745Y-23299925D01*
X7600000Y-23319670D01*
X7600000Y-22451379D01*
X7599999Y-22451379D01*
X7527073Y-22465011D01*
X7527067Y-22465013D01*
X7324013Y-22543677D01*
X7324008Y-22543680D01*
X7138873Y-22658311D01*
X7138870Y-22658313D01*
X6977944Y-22805015D01*
X6895383Y-22914343D01*
X6845227Y-22949386D01*
X6784052Y-22948255D01*
X6735225Y-22911382D01*
X6719283Y-22873999D01*
X6713867Y-22846769D01*
X6669552Y-22780448D01*
X6643088Y-22762765D01*
X6603233Y-22736134D01*
X6603231Y-22736133D01*
X6603228Y-22736132D01*
X6603227Y-22736132D01*
X6544758Y-22724501D01*
X6544748Y-22724500D01*
X5155252Y-22724500D01*
X5155251Y-22724500D01*
X5155241Y-22724501D01*
X5096772Y-22736132D01*
X5096766Y-22736134D01*
X5030451Y-22780445D01*
X5030445Y-22780451D01*
X4986134Y-22846766D01*
X4986132Y-22846772D01*
X4974501Y-22905241D01*
X4974500Y-22905253D01*
X4974500Y-24294746D01*
X4974501Y-24294758D01*
X4986132Y-24353227D01*
X4986134Y-24353233D01*
X4992249Y-24362384D01*
X5030448Y-24419552D01*
X5096769Y-24463867D01*
X5141231Y-24472711D01*
X5155241Y-24475498D01*
X5155246Y-24475498D01*
X5155252Y-24475500D01*
X5155253Y-24475500D01*
X6544747Y-24475500D01*
X6544748Y-24475500D01*
X6603231Y-24463867D01*
X6669552Y-24419552D01*
X6713867Y-24353231D01*
X6719283Y-24326001D01*
X6749178Y-24272619D01*
X6804743Y-24247003D01*
X6864753Y-24258940D01*
X6895384Y-24285656D01*
X6977947Y-24394987D01*
X7138870Y-24541686D01*
X7138873Y-24541688D01*
X7324008Y-24656319D01*
X7324013Y-24656322D01*
X7457886Y-24708185D01*
X7505317Y-24746837D01*
X7520971Y-24805986D01*
X7498868Y-24863040D01*
X7447451Y-24896205D01*
X7422123Y-24899500D01*
X2502985Y-24899500D01*
X2497008Y-24899319D01*
X2472210Y-24897819D01*
X2415267Y-24875433D01*
X2382357Y-24823852D01*
X2386051Y-24762778D01*
X2424938Y-24715540D01*
X2478187Y-24700000D01*
X2899998Y-24700000D01*
X2900000Y-24700000D01*
X3500000Y-24600000D01*
X4100000Y-24100000D01*
X4500000Y-23600000D01*
X4700000Y-22900000D01*
X4700000Y-21900000D01*
X4500000Y-21400000D01*
X4100000Y-20900000D01*
X3600000Y-20500000D01*
X3000000Y-20300000D01*
X2000000Y-20300000D01*
X1999997Y-20300000D01*
X1299998Y-20600000D01*
X799999Y-21000000D01*
X600005Y-21299990D01*
X599998Y-21300002D01*
X400001Y-21699996D01*
X300000Y-22000000D01*
X300000Y-22521813D01*
X281093Y-22580004D01*
X231593Y-22615968D01*
X170407Y-22615968D01*
X120907Y-22580004D01*
X102181Y-22527790D01*
X100681Y-22502992D01*
X100500Y-22497015D01*
X100500Y-19980008D01*
X85201Y-19943073D01*
X85200Y-19943072D01*
X85200Y-19943071D01*
X56929Y-19914800D01*
X56927Y-19914799D01*
X56926Y-19914798D01*
X19992Y-19899500D01*
X19991Y-19899500D01*
X-800500Y-19899500D01*
X-858691Y-19880593D01*
X-894655Y-19831093D01*
X-899500Y-19800500D01*
X-899500Y-18330253D01*
X6574500Y-18330253D01*
X6574500Y-19369746D01*
X6574501Y-19369758D01*
X6586132Y-19428227D01*
X6586133Y-19428231D01*
X6630448Y-19494552D01*
X6696769Y-19538867D01*
X6741231Y-19547711D01*
X6755241Y-19550498D01*
X6755246Y-19550498D01*
X6755252Y-19550500D01*
X7565442Y-19550500D01*
X7623633Y-19569407D01*
X7659597Y-19618907D01*
X7659597Y-19680093D01*
X7652462Y-19695140D01*
X7652564Y-19695187D01*
X7589834Y-19832543D01*
X7569353Y-19974997D01*
X7569353Y-19975002D01*
X7589834Y-20117456D01*
X7649622Y-20248371D01*
X7649623Y-20248373D01*
X7694358Y-20300000D01*
X7743873Y-20357144D01*
X7864942Y-20434950D01*
X7864947Y-20434953D01*
X7971403Y-20466211D01*
X8003035Y-20475499D01*
X8003036Y-20475499D01*
X8003039Y-20475500D01*
X8003041Y-20475500D01*
X8146959Y-20475500D01*
X8146961Y-20475500D01*
X8285053Y-20434953D01*
X8406128Y-20357143D01*
X8500377Y-20248373D01*
X8560165Y-20117457D01*
X8580647Y-19975000D01*
X8576056Y-19943071D01*
X8560165Y-19832543D01*
X8497436Y-19695187D01*
X8499025Y-19694461D01*
X8485719Y-19643855D01*
X8507913Y-19586837D01*
X8559383Y-19553754D01*
X8584558Y-19550500D01*
X9294747Y-19550500D01*
X9294748Y-19550500D01*
X9353231Y-19538867D01*
X9419552Y-19494552D01*
X9463867Y-19428231D01*
X9475500Y-19369748D01*
X9475500Y-19349500D01*
X9494407Y-19291309D01*
X9543907Y-19255345D01*
X9574500Y-19250500D01*
X14643368Y-19250500D01*
X14696889Y-19266215D01*
X14764947Y-19309953D01*
X14840006Y-19331992D01*
X14903035Y-19350499D01*
X14903036Y-19350499D01*
X14903039Y-19350500D01*
X14903041Y-19350500D01*
X15046960Y-19350500D01*
X15046961Y-19350500D01*
X15115942Y-19330245D01*
X15177102Y-19331992D01*
X15213838Y-19355231D01*
X17829087Y-21970480D01*
X17829089Y-21970481D01*
X17829090Y-21970482D01*
X17829091Y-21970483D01*
X17920408Y-22023205D01*
X17920406Y-22023205D01*
X17920410Y-22023206D01*
X17920412Y-22023207D01*
X18022273Y-22050500D01*
X18022275Y-22050500D01*
X36127725Y-22050500D01*
X36127727Y-22050500D01*
X36229588Y-22023207D01*
X36229590Y-22023205D01*
X36229592Y-22023205D01*
X36320908Y-21970483D01*
X36320908Y-21970482D01*
X36320913Y-21970480D01*
X39011897Y-19279496D01*
X39066414Y-19251719D01*
X39081901Y-19250500D01*
X43018368Y-19250500D01*
X43071889Y-19266215D01*
X43139947Y-19309953D01*
X43215006Y-19331992D01*
X43278035Y-19350499D01*
X43278036Y-19350499D01*
X43278039Y-19350500D01*
X43278041Y-19350500D01*
X43421959Y-19350500D01*
X43421961Y-19350500D01*
X43560053Y-19309953D01*
X43628110Y-19266215D01*
X43681632Y-19250500D01*
X46275500Y-19250500D01*
X46333691Y-19269407D01*
X46369655Y-19318907D01*
X46374500Y-19349500D01*
X46374500Y-19369746D01*
X46374501Y-19369758D01*
X46386132Y-19428227D01*
X46386133Y-19428231D01*
X46430448Y-19494552D01*
X46496769Y-19538867D01*
X46541231Y-19547711D01*
X46555241Y-19550498D01*
X46555246Y-19550498D01*
X46555252Y-19550500D01*
X46555253Y-19550500D01*
X48594747Y-19550500D01*
X48594748Y-19550500D01*
X48653231Y-19538867D01*
X48719552Y-19494552D01*
X48763867Y-19428231D01*
X48775500Y-19369748D01*
X48775500Y-18330252D01*
X48763867Y-18271769D01*
X48719552Y-18205448D01*
X48707521Y-18197409D01*
X48653233Y-18161134D01*
X48653231Y-18161133D01*
X48653228Y-18161132D01*
X48653227Y-18161132D01*
X48594758Y-18149501D01*
X48594748Y-18149500D01*
X46555252Y-18149500D01*
X46555251Y-18149500D01*
X46555241Y-18149501D01*
X46496772Y-18161132D01*
X46496766Y-18161134D01*
X46430451Y-18205445D01*
X46430445Y-18205451D01*
X46386134Y-18271766D01*
X46386132Y-18271772D01*
X46374501Y-18330241D01*
X46374500Y-18330253D01*
X46374500Y-18350500D01*
X46355593Y-18408691D01*
X46306093Y-18444655D01*
X46275500Y-18449500D01*
X43681632Y-18449500D01*
X43628110Y-18433784D01*
X43560053Y-18390047D01*
X43560050Y-18390046D01*
X43421964Y-18349500D01*
X43421961Y-18349500D01*
X43278039Y-18349500D01*
X43278035Y-18349500D01*
X43139949Y-18390046D01*
X43139946Y-18390047D01*
X43110936Y-18408691D01*
X43071889Y-18433784D01*
X43018368Y-18449500D01*
X38927727Y-18449500D01*
X38822273Y-18449500D01*
X38772979Y-18462708D01*
X38720407Y-18476794D01*
X38629091Y-18529516D01*
X35938103Y-21220504D01*
X35883586Y-21248281D01*
X35868099Y-21249500D01*
X18281901Y-21249500D01*
X18223710Y-21230593D01*
X18211897Y-21220504D01*
X16871986Y-19880593D01*
X15520913Y-18529520D01*
X15520910Y-18529518D01*
X15520909Y-18529517D01*
X15520908Y-18529516D01*
X15429591Y-18476794D01*
X15429593Y-18476794D01*
X15377021Y-18462708D01*
X15327727Y-18449500D01*
X15327725Y-18449500D01*
X15306632Y-18449500D01*
X15253110Y-18433784D01*
X15185053Y-18390047D01*
X15185050Y-18390046D01*
X15046964Y-18349500D01*
X15046961Y-18349500D01*
X14903039Y-18349500D01*
X14903035Y-18349500D01*
X14764949Y-18390046D01*
X14764946Y-18390047D01*
X14735936Y-18408691D01*
X14696889Y-18433784D01*
X14643368Y-18449500D01*
X9574500Y-18449500D01*
X9516309Y-18430593D01*
X9480345Y-18381093D01*
X9475500Y-18350500D01*
X9475500Y-18330253D01*
X9475498Y-18330241D01*
X9472711Y-18316231D01*
X9463867Y-18271769D01*
X9419552Y-18205448D01*
X9407521Y-18197409D01*
X9353233Y-18161134D01*
X9353231Y-18161133D01*
X9353228Y-18161132D01*
X9353227Y-18161132D01*
X9294758Y-18149501D01*
X9294748Y-18149500D01*
X6755252Y-18149500D01*
X6755251Y-18149500D01*
X6755241Y-18149501D01*
X6696772Y-18161132D01*
X6696766Y-18161134D01*
X6630451Y-18205445D01*
X6630445Y-18205451D01*
X6586134Y-18271766D01*
X6586132Y-18271772D01*
X6574501Y-18330241D01*
X6574500Y-18330253D01*
X-899500Y-18330253D01*
X-899500Y-18124996D01*
X21844659Y-18124996D01*
X21844659Y-18125003D01*
X21863974Y-18321126D01*
X21863975Y-18321129D01*
X21921187Y-18509730D01*
X21921188Y-18509732D01*
X21989492Y-18637518D01*
X22014090Y-18683538D01*
X22014092Y-18683540D01*
X22014093Y-18683542D01*
X22139112Y-18835878D01*
X22139121Y-18835887D01*
X22191322Y-18878727D01*
X22291462Y-18960910D01*
X22465273Y-19053814D01*
X22653868Y-19111024D01*
X22653870Y-19111024D01*
X22653873Y-19111025D01*
X22849997Y-19130341D01*
X22850000Y-19130341D01*
X22850003Y-19130341D01*
X23046126Y-19111025D01*
X23046127Y-19111024D01*
X23046132Y-19111024D01*
X23234727Y-19053814D01*
X23408538Y-18960910D01*
X23560883Y-18835883D01*
X23685910Y-18683538D01*
X23778814Y-18509727D01*
X23836024Y-18321132D01*
X23840886Y-18271772D01*
X23855341Y-18125003D01*
X23855341Y-18124996D01*
X23844364Y-18013543D01*
X25099500Y-18013543D01*
X25099500Y-18236457D01*
X25125058Y-18430593D01*
X25128595Y-18457455D01*
X25128595Y-18457460D01*
X25186290Y-18672782D01*
X25271592Y-18878722D01*
X25271595Y-18878727D01*
X25383050Y-19071771D01*
X25383052Y-19071774D01*
X25518753Y-19248624D01*
X25676376Y-19406247D01*
X25853226Y-19541948D01*
X25900786Y-19569407D01*
X26046272Y-19653404D01*
X26046277Y-19653407D01*
X26162692Y-19701627D01*
X26252219Y-19738710D01*
X26467537Y-19796404D01*
X26688543Y-19825500D01*
X26688544Y-19825500D01*
X27311456Y-19825500D01*
X27311457Y-19825500D01*
X27532463Y-19796404D01*
X27747781Y-19738710D01*
X27889295Y-19680093D01*
X27953722Y-19653407D01*
X27953723Y-19653405D01*
X27953726Y-19653405D01*
X28146774Y-19541948D01*
X28323624Y-19406247D01*
X28481247Y-19248624D01*
X28616948Y-19071774D01*
X28728405Y-18878726D01*
X28746150Y-18835887D01*
X28770342Y-18777480D01*
X28813710Y-18672781D01*
X28871404Y-18457463D01*
X28900500Y-18236457D01*
X28900500Y-18124996D01*
X29845034Y-18124996D01*
X29845034Y-18125003D01*
X29864857Y-18351597D01*
X29923733Y-18571323D01*
X30019864Y-18777480D01*
X30070972Y-18850471D01*
X30626211Y-18295231D01*
X30637482Y-18337292D01*
X30709890Y-18462708D01*
X30812292Y-18565110D01*
X30937708Y-18637518D01*
X30979765Y-18648787D01*
X30424527Y-19204026D01*
X30497518Y-19255134D01*
X30703676Y-19351266D01*
X30923402Y-19410142D01*
X31149997Y-19429966D01*
X31150003Y-19429966D01*
X31376597Y-19410142D01*
X31596323Y-19351266D01*
X31802483Y-19255133D01*
X31802484Y-19255133D01*
X31875471Y-19204026D01*
X31320232Y-18648787D01*
X31362292Y-18637518D01*
X31487708Y-18565110D01*
X31590110Y-18462708D01*
X31662518Y-18337292D01*
X31673787Y-18295232D01*
X32229026Y-18850471D01*
X32280133Y-18777484D01*
X32280133Y-18777483D01*
X32376266Y-18571323D01*
X32435142Y-18351597D01*
X32454966Y-18125003D01*
X32454966Y-18124996D01*
X32435142Y-17898402D01*
X32376266Y-17678676D01*
X32280134Y-17472518D01*
X32229026Y-17399527D01*
X31673787Y-17954765D01*
X31662518Y-17912708D01*
X31590110Y-17787292D01*
X31487708Y-17684890D01*
X31362292Y-17612482D01*
X31320231Y-17601211D01*
X31875471Y-17045972D01*
X31802480Y-16994864D01*
X31596323Y-16898733D01*
X31376597Y-16839857D01*
X31150003Y-16820034D01*
X31149997Y-16820034D01*
X30923402Y-16839857D01*
X30703671Y-16898734D01*
X30497525Y-16994861D01*
X30497508Y-16994871D01*
X30424527Y-17045972D01*
X30979767Y-17601212D01*
X30937708Y-17612482D01*
X30812292Y-17684890D01*
X30709890Y-17787292D01*
X30637482Y-17912708D01*
X30626212Y-17954767D01*
X30070972Y-17399527D01*
X30019871Y-17472508D01*
X30019861Y-17472525D01*
X29923734Y-17678671D01*
X29864857Y-17898402D01*
X29845034Y-18124996D01*
X28900500Y-18124996D01*
X28900500Y-18013543D01*
X28871404Y-17792537D01*
X28813710Y-17577219D01*
X28797953Y-17539179D01*
X28728407Y-17371277D01*
X28728404Y-17371272D01*
X28616949Y-17178228D01*
X28616948Y-17178226D01*
X28481247Y-17001376D01*
X28323624Y-16843753D01*
X28146774Y-16708052D01*
X28146771Y-16708050D01*
X27953727Y-16596595D01*
X27953722Y-16596592D01*
X27747782Y-16511290D01*
X27652839Y-16485850D01*
X27532463Y-16453596D01*
X27532460Y-16453595D01*
X27532458Y-16453595D01*
X27311457Y-16424500D01*
X26688543Y-16424500D01*
X26688542Y-16424500D01*
X26467544Y-16453595D01*
X26467539Y-16453595D01*
X26252217Y-16511290D01*
X26046277Y-16596592D01*
X26046272Y-16596595D01*
X25853228Y-16708050D01*
X25676379Y-16843750D01*
X25518750Y-17001379D01*
X25383050Y-17178228D01*
X25271595Y-17371272D01*
X25271592Y-17371277D01*
X25186290Y-17577217D01*
X25128595Y-17792539D01*
X25128595Y-17792544D01*
X25099500Y-18013543D01*
X23844364Y-18013543D01*
X23836025Y-17928873D01*
X23836024Y-17928870D01*
X23836024Y-17928868D01*
X23778814Y-17740273D01*
X23685910Y-17566462D01*
X23685906Y-17566457D01*
X23560887Y-17414121D01*
X23560878Y-17414112D01*
X23408542Y-17289093D01*
X23408540Y-17289092D01*
X23408538Y-17289090D01*
X23367618Y-17267218D01*
X23234732Y-17196188D01*
X23234730Y-17196187D01*
X23046129Y-17138975D01*
X23046126Y-17138974D01*
X22850003Y-17119659D01*
X22849997Y-17119659D01*
X22653873Y-17138974D01*
X22653870Y-17138975D01*
X22465269Y-17196187D01*
X22465267Y-17196188D01*
X22291467Y-17289087D01*
X22291457Y-17289093D01*
X22139121Y-17414112D01*
X22139112Y-17414121D01*
X22014093Y-17566457D01*
X22014087Y-17566467D01*
X21921188Y-17740267D01*
X21921187Y-17740269D01*
X21863975Y-17928870D01*
X21863974Y-17928873D01*
X21844659Y-18124996D01*
X-899500Y-18124996D01*
X-899500Y-15790253D01*
X6574500Y-15790253D01*
X6574500Y-16829746D01*
X6574501Y-16829758D01*
X6584341Y-16879224D01*
X6586133Y-16888231D01*
X6630448Y-16954552D01*
X6696769Y-16998867D01*
X6741231Y-17007711D01*
X6755241Y-17010498D01*
X6755246Y-17010498D01*
X6755252Y-17010500D01*
X6755253Y-17010500D01*
X9294747Y-17010500D01*
X9294748Y-17010500D01*
X9353231Y-16998867D01*
X9419552Y-16954552D01*
X9463867Y-16888231D01*
X9463868Y-16888225D01*
X9467597Y-16879224D01*
X9469236Y-16879903D01*
X9493371Y-16836805D01*
X9548935Y-16811187D01*
X9560575Y-16810500D01*
X9671959Y-16810500D01*
X9671961Y-16810500D01*
X9810053Y-16769953D01*
X9878110Y-16726215D01*
X9931632Y-16710500D01*
X9992725Y-16710500D01*
X9992727Y-16710500D01*
X10094588Y-16683207D01*
X10094590Y-16683205D01*
X10094592Y-16683205D01*
X10185908Y-16630483D01*
X10185908Y-16630482D01*
X10185913Y-16630480D01*
X10886897Y-15929496D01*
X10941414Y-15901719D01*
X10956901Y-15900500D01*
X43693099Y-15900500D01*
X43751290Y-15919407D01*
X43763103Y-15929496D01*
X44464087Y-16630480D01*
X44464089Y-16630481D01*
X44464090Y-16630482D01*
X44464091Y-16630483D01*
X44555408Y-16683205D01*
X44555406Y-16683205D01*
X44555410Y-16683206D01*
X44555412Y-16683207D01*
X44657273Y-16710500D01*
X44718368Y-16710500D01*
X44771889Y-16726215D01*
X44839947Y-16769953D01*
X44925499Y-16795073D01*
X44978035Y-16810499D01*
X44978036Y-16810499D01*
X44978039Y-16810500D01*
X44978041Y-16810500D01*
X45121959Y-16810500D01*
X45121961Y-16810500D01*
X45260053Y-16769953D01*
X45328110Y-16726215D01*
X45381632Y-16710500D01*
X46275500Y-16710500D01*
X46333691Y-16729407D01*
X46369655Y-16778907D01*
X46374500Y-16809500D01*
X46374500Y-16829746D01*
X46374501Y-16829758D01*
X46384341Y-16879224D01*
X46386133Y-16888231D01*
X46430448Y-16954552D01*
X46496769Y-16998867D01*
X46541231Y-17007711D01*
X46555241Y-17010498D01*
X46555246Y-17010498D01*
X46555252Y-17010500D01*
X46555253Y-17010500D01*
X48594747Y-17010500D01*
X48594748Y-17010500D01*
X48653231Y-16998867D01*
X48719552Y-16954552D01*
X48763867Y-16888231D01*
X48775500Y-16829748D01*
X48775500Y-15790252D01*
X48763867Y-15731769D01*
X48719552Y-15665448D01*
X48719548Y-15665445D01*
X48653233Y-15621134D01*
X48653231Y-15621133D01*
X48653228Y-15621132D01*
X48653227Y-15621132D01*
X48594758Y-15609501D01*
X48594748Y-15609500D01*
X46555252Y-15609500D01*
X46555251Y-15609500D01*
X46555241Y-15609501D01*
X46496772Y-15621132D01*
X46496766Y-15621134D01*
X46430451Y-15665445D01*
X46430445Y-15665451D01*
X46386134Y-15731766D01*
X46386132Y-15731772D01*
X46374501Y-15790241D01*
X46374500Y-15790253D01*
X46374500Y-15810500D01*
X46355593Y-15868691D01*
X46306093Y-15904655D01*
X46275500Y-15909500D01*
X45381632Y-15909500D01*
X45328110Y-15893784D01*
X45260053Y-15850047D01*
X45260050Y-15850046D01*
X45121964Y-15809500D01*
X45121961Y-15809500D01*
X44978039Y-15809500D01*
X44978035Y-15809500D01*
X44890913Y-15835082D01*
X44878135Y-15838833D01*
X44816976Y-15837087D01*
X44780241Y-15813848D01*
X44575893Y-15609500D01*
X44145913Y-15179520D01*
X44145910Y-15179518D01*
X44145909Y-15179517D01*
X44145908Y-15179516D01*
X44054591Y-15126794D01*
X44054593Y-15126794D01*
X44015070Y-15116204D01*
X43952727Y-15099500D01*
X10802727Y-15099500D01*
X10697273Y-15099500D01*
X10634929Y-15116204D01*
X10595407Y-15126794D01*
X10504091Y-15179516D01*
X10504086Y-15179520D01*
X9869757Y-15813847D01*
X9815241Y-15841624D01*
X9771863Y-15838833D01*
X9671964Y-15809500D01*
X9671961Y-15809500D01*
X9560575Y-15809500D01*
X9502384Y-15790593D01*
X9466420Y-15741093D01*
X9464192Y-15732557D01*
X9463867Y-15731772D01*
X9463867Y-15731769D01*
X9419552Y-15665448D01*
X9419548Y-15665445D01*
X9353233Y-15621134D01*
X9353231Y-15621133D01*
X9353228Y-15621132D01*
X9353227Y-15621132D01*
X9294758Y-15609501D01*
X9294748Y-15609500D01*
X6755252Y-15609500D01*
X6755251Y-15609500D01*
X6755241Y-15609501D01*
X6696772Y-15621132D01*
X6696766Y-15621134D01*
X6630451Y-15665445D01*
X6630445Y-15665451D01*
X6586134Y-15731766D01*
X6586132Y-15731772D01*
X6574501Y-15790241D01*
X6574500Y-15790253D01*
X-899500Y-15790253D01*
X-899500Y-5199500D01*
X-880593Y-5141309D01*
X-831093Y-5105345D01*
X-800500Y-5100500D01*
X19992Y-5100500D01*
X43283Y-5090852D01*
X56929Y-5085200D01*
X85200Y-5056929D01*
X100500Y-5019991D01*
X100500Y-2502984D01*
X100681Y-2497007D01*
X102181Y-2472209D01*
X124567Y-2415266D01*
X176148Y-2382356D01*
X237222Y-2386050D01*
X284460Y-2424937D01*
X300000Y-2478186D01*
X300000Y-3000002D01*
X599997Y-3699995D01*
X600000Y-3700000D01*
X1100000Y-4300000D01*
X1900000Y-4700000D01*
X2899998Y-4700000D01*
X2900000Y-4700000D01*
X3500000Y-4600000D01*
X3923540Y-4247049D01*
X3980344Y-4224323D01*
X4039661Y-4239327D01*
X4078831Y-4286330D01*
X4082893Y-4347381D01*
X4056919Y-4393109D01*
X3090489Y-5359540D01*
X3090488Y-5359539D01*
X3034539Y-5415489D01*
X2994980Y-5484007D01*
X2994978Y-5484011D01*
X2974500Y-5560435D01*
X2974500Y-12371105D01*
X2955593Y-12429296D01*
X2948258Y-12437289D01*
X2948509Y-12437506D01*
X2943872Y-12442856D01*
X2943872Y-12442857D01*
X2894361Y-12499996D01*
X2849622Y-12551628D01*
X2789834Y-12682543D01*
X2769353Y-12824997D01*
X2769353Y-12825002D01*
X2789834Y-12967456D01*
X2836437Y-13069500D01*
X2849623Y-13098373D01*
X2930553Y-13191772D01*
X2943873Y-13207144D01*
X3064942Y-13284950D01*
X3064947Y-13284953D01*
X3171403Y-13316211D01*
X3203035Y-13325499D01*
X3203036Y-13325499D01*
X3203039Y-13325500D01*
X3203041Y-13325500D01*
X3346959Y-13325500D01*
X3346961Y-13325500D01*
X3485053Y-13284953D01*
X3539047Y-13250253D01*
X6574500Y-13250253D01*
X6574500Y-14289746D01*
X6574501Y-14289758D01*
X6586132Y-14348227D01*
X6586133Y-14348231D01*
X6630448Y-14414552D01*
X6696769Y-14458867D01*
X6733715Y-14466216D01*
X6755241Y-14470498D01*
X6755246Y-14470498D01*
X6755252Y-14470500D01*
X6755253Y-14470500D01*
X9294747Y-14470500D01*
X9294748Y-14470500D01*
X9353231Y-14458867D01*
X9419552Y-14414552D01*
X9463867Y-14348231D01*
X9475500Y-14289748D01*
X9475500Y-14269500D01*
X9494407Y-14211309D01*
X9543907Y-14175345D01*
X9574500Y-14170500D01*
X10093368Y-14170500D01*
X10146889Y-14186215D01*
X10214947Y-14229953D01*
X10321403Y-14261211D01*
X10353035Y-14270499D01*
X10353036Y-14270499D01*
X10353039Y-14270500D01*
X10353041Y-14270500D01*
X10496959Y-14270500D01*
X10496961Y-14270500D01*
X10635053Y-14229953D01*
X10703110Y-14186215D01*
X10756632Y-14170500D01*
X10838099Y-14170500D01*
X10896290Y-14189407D01*
X10908103Y-14199496D01*
X11479087Y-14770480D01*
X11479089Y-14770481D01*
X11479090Y-14770482D01*
X11479091Y-14770483D01*
X11570408Y-14823205D01*
X11570406Y-14823205D01*
X11570410Y-14823206D01*
X11570412Y-14823207D01*
X11672273Y-14850500D01*
X11672275Y-14850500D01*
X44402725Y-14850500D01*
X44402727Y-14850500D01*
X44504588Y-14823207D01*
X44504590Y-14823205D01*
X44504592Y-14823205D01*
X44595908Y-14770483D01*
X44595908Y-14770482D01*
X44595913Y-14770480D01*
X44741405Y-14624987D01*
X44886898Y-14479496D01*
X44941414Y-14451719D01*
X44956901Y-14450500D01*
X45868368Y-14450500D01*
X45921889Y-14466215D01*
X45989947Y-14509953D01*
X46096403Y-14541211D01*
X46128035Y-14550499D01*
X46128036Y-14550499D01*
X46128039Y-14550500D01*
X46128041Y-14550500D01*
X46271959Y-14550500D01*
X46271961Y-14550500D01*
X46410053Y-14509953D01*
X46457622Y-14479381D01*
X46516796Y-14463827D01*
X46530461Y-14465569D01*
X46555243Y-14470499D01*
X46555250Y-14470499D01*
X46555252Y-14470500D01*
X46555253Y-14470500D01*
X48594747Y-14470500D01*
X48594748Y-14470500D01*
X48653231Y-14458867D01*
X48719552Y-14414552D01*
X48763867Y-14348231D01*
X48775500Y-14289748D01*
X48775500Y-13250252D01*
X48763867Y-13191769D01*
X48719552Y-13125448D01*
X48719548Y-13125445D01*
X48653233Y-13081134D01*
X48653231Y-13081133D01*
X48653228Y-13081132D01*
X48653227Y-13081132D01*
X48594758Y-13069501D01*
X48594748Y-13069500D01*
X46555252Y-13069500D01*
X46555251Y-13069500D01*
X46555241Y-13069501D01*
X46496772Y-13081132D01*
X46496766Y-13081134D01*
X46430451Y-13125445D01*
X46430445Y-13125451D01*
X46386134Y-13191766D01*
X46386132Y-13191772D01*
X46374501Y-13250241D01*
X46374500Y-13250253D01*
X46374500Y-13450500D01*
X46355593Y-13508691D01*
X46306093Y-13544655D01*
X46275500Y-13549500D01*
X46128035Y-13549500D01*
X45989949Y-13590046D01*
X45989946Y-13590047D01*
X45960868Y-13608734D01*
X45921889Y-13633784D01*
X45868368Y-13649500D01*
X44697273Y-13649500D01*
X44595413Y-13676793D01*
X44595412Y-13676793D01*
X44595410Y-13676794D01*
X44595409Y-13676794D01*
X44504087Y-13729519D01*
X44213102Y-14020504D01*
X44158586Y-14048281D01*
X44143099Y-14049500D01*
X11931901Y-14049500D01*
X11873710Y-14030593D01*
X11861897Y-14020504D01*
X11290913Y-13449520D01*
X11290910Y-13449518D01*
X11290909Y-13449517D01*
X11290908Y-13449516D01*
X11199591Y-13396794D01*
X11199593Y-13396794D01*
X11160070Y-13386204D01*
X11097727Y-13369500D01*
X11097725Y-13369500D01*
X10756632Y-13369500D01*
X10703110Y-13353784D01*
X10635053Y-13310047D01*
X10635050Y-13310046D01*
X10496964Y-13269500D01*
X10496961Y-13269500D01*
X10353039Y-13269500D01*
X10353035Y-13269500D01*
X10214949Y-13310046D01*
X10214946Y-13310047D01*
X10185868Y-13328734D01*
X10146889Y-13353784D01*
X10093368Y-13369500D01*
X9574500Y-13369500D01*
X9516309Y-13350593D01*
X9480345Y-13301093D01*
X9475500Y-13270500D01*
X9475500Y-13250253D01*
X9475498Y-13250241D01*
X9472711Y-13236231D01*
X9463867Y-13191769D01*
X9419552Y-13125448D01*
X9419548Y-13125445D01*
X9353233Y-13081134D01*
X9353231Y-13081133D01*
X9353228Y-13081132D01*
X9353227Y-13081132D01*
X9294758Y-13069501D01*
X9294748Y-13069500D01*
X6755252Y-13069500D01*
X6755251Y-13069500D01*
X6755241Y-13069501D01*
X6696772Y-13081132D01*
X6696766Y-13081134D01*
X6630451Y-13125445D01*
X6630445Y-13125451D01*
X6586134Y-13191766D01*
X6586132Y-13191772D01*
X6574501Y-13250241D01*
X6574500Y-13250253D01*
X3539047Y-13250253D01*
X3606128Y-13207143D01*
X3700377Y-13098373D01*
X3760165Y-12967457D01*
X3772060Y-12884727D01*
X3780647Y-12825002D01*
X3780647Y-12824997D01*
X3760165Y-12682543D01*
X3700377Y-12551628D01*
X3700377Y-12551627D01*
X3655639Y-12499996D01*
X19144659Y-12499996D01*
X19144659Y-12500003D01*
X19163974Y-12696126D01*
X19163975Y-12696129D01*
X19163976Y-12696132D01*
X19212818Y-12857143D01*
X19221187Y-12884730D01*
X19221188Y-12884732D01*
X19269705Y-12975500D01*
X19314090Y-13058538D01*
X19314092Y-13058540D01*
X19314093Y-13058542D01*
X19439112Y-13210878D01*
X19439121Y-13210887D01*
X19559947Y-13310046D01*
X19591462Y-13335910D01*
X19765273Y-13428814D01*
X19953868Y-13486024D01*
X19953870Y-13486024D01*
X19953873Y-13486025D01*
X20149997Y-13505341D01*
X20150000Y-13505341D01*
X20150003Y-13505341D01*
X20346126Y-13486025D01*
X20346127Y-13486024D01*
X20346132Y-13486024D01*
X20534727Y-13428814D01*
X20708538Y-13335910D01*
X20860883Y-13210883D01*
X20985910Y-13058538D01*
X21078814Y-12884727D01*
X21136024Y-12696132D01*
X21137363Y-12682543D01*
X21155341Y-12500003D01*
X21155341Y-12499996D01*
X21136025Y-12303873D01*
X21136024Y-12303870D01*
X21136024Y-12303868D01*
X21078814Y-12115273D01*
X20985910Y-11941462D01*
X20930995Y-11874548D01*
X20860887Y-11789121D01*
X20860878Y-11789112D01*
X20708542Y-11664093D01*
X20708540Y-11664092D01*
X20708538Y-11664090D01*
X20645694Y-11630499D01*
X20534732Y-11571188D01*
X20534730Y-11571187D01*
X20346129Y-11513975D01*
X20346126Y-11513974D01*
X20150003Y-11494659D01*
X20149997Y-11494659D01*
X19953873Y-11513974D01*
X19953870Y-11513975D01*
X19765269Y-11571187D01*
X19765267Y-11571188D01*
X19591467Y-11664087D01*
X19591457Y-11664093D01*
X19439121Y-11789112D01*
X19439112Y-11789121D01*
X19314093Y-11941457D01*
X19314087Y-11941467D01*
X19221188Y-12115267D01*
X19221187Y-12115269D01*
X19163975Y-12303870D01*
X19163974Y-12303873D01*
X19144659Y-12499996D01*
X3655639Y-12499996D01*
X3606128Y-12442857D01*
X3606127Y-12442856D01*
X3601491Y-12437506D01*
X3603524Y-12435743D01*
X3578067Y-12393505D01*
X3575500Y-12371105D01*
X3575500Y-10710253D01*
X6574500Y-10710253D01*
X6574500Y-11749746D01*
X6574501Y-11749758D01*
X6586132Y-11808227D01*
X6586133Y-11808231D01*
X6630448Y-11874552D01*
X6696769Y-11918867D01*
X6741231Y-11927711D01*
X6755241Y-11930498D01*
X6755246Y-11930498D01*
X6755252Y-11930500D01*
X6755253Y-11930500D01*
X9294747Y-11930500D01*
X9294748Y-11930500D01*
X9353231Y-11918867D01*
X9419552Y-11874552D01*
X9463867Y-11808231D01*
X9475500Y-11749748D01*
X9475500Y-11729500D01*
X9494407Y-11671309D01*
X9543907Y-11635345D01*
X9574500Y-11630500D01*
X9693368Y-11630500D01*
X9746889Y-11646215D01*
X9814947Y-11689953D01*
X9898551Y-11714501D01*
X9953035Y-11730499D01*
X9953036Y-11730499D01*
X9953039Y-11730500D01*
X9953041Y-11730500D01*
X10096959Y-11730500D01*
X10096961Y-11730500D01*
X10235053Y-11689953D01*
X10303736Y-11645813D01*
X10344340Y-11630945D01*
X10347720Y-11630500D01*
X10347727Y-11630500D01*
X10449588Y-11603207D01*
X10449590Y-11603205D01*
X10449592Y-11603205D01*
X10540908Y-11550483D01*
X10540908Y-11550482D01*
X10540913Y-11550480D01*
X11036897Y-11054496D01*
X11091414Y-11026719D01*
X11106901Y-11025500D01*
X44063099Y-11025500D01*
X44121290Y-11044407D01*
X44133103Y-11054496D01*
X44629087Y-11550480D01*
X44629089Y-11550481D01*
X44629090Y-11550482D01*
X44629091Y-11550483D01*
X44720408Y-11603205D01*
X44720406Y-11603205D01*
X44720410Y-11603206D01*
X44720412Y-11603207D01*
X44822273Y-11630500D01*
X46275500Y-11630500D01*
X46333691Y-11649407D01*
X46369655Y-11698907D01*
X46374500Y-11729500D01*
X46374500Y-11749746D01*
X46374501Y-11749758D01*
X46386132Y-11808227D01*
X46386133Y-11808231D01*
X46430448Y-11874552D01*
X46496769Y-11918867D01*
X46541231Y-11927711D01*
X46555241Y-11930498D01*
X46555246Y-11930498D01*
X46555252Y-11930500D01*
X46555253Y-11930500D01*
X48594747Y-11930500D01*
X48594748Y-11930500D01*
X48653231Y-11918867D01*
X48719552Y-11874552D01*
X48763867Y-11808231D01*
X48772428Y-11765188D01*
X48802326Y-11711806D01*
X48857891Y-11686191D01*
X48917900Y-11698128D01*
X48939530Y-11714501D01*
X49594453Y-12369424D01*
X49622230Y-12423941D01*
X49622441Y-12453514D01*
X49619354Y-12474997D01*
X49619353Y-12475002D01*
X49639834Y-12617456D01*
X49675765Y-12696132D01*
X49699623Y-12748373D01*
X49766018Y-12824997D01*
X49793873Y-12857144D01*
X49836798Y-12884730D01*
X49914947Y-12934953D01*
X50021403Y-12966211D01*
X50053035Y-12975499D01*
X50053036Y-12975499D01*
X50053039Y-12975500D01*
X50053041Y-12975500D01*
X50196959Y-12975500D01*
X50196961Y-12975500D01*
X50335053Y-12934953D01*
X50456128Y-12857143D01*
X50550377Y-12748373D01*
X50610165Y-12617457D01*
X50630647Y-12475000D01*
X50625256Y-12437506D01*
X50610165Y-12332543D01*
X50550377Y-12201628D01*
X50550377Y-12201627D01*
X50456128Y-12092857D01*
X50456127Y-12092856D01*
X50456126Y-12092855D01*
X50335057Y-12015049D01*
X50335054Y-12015047D01*
X50335053Y-12015047D01*
X50335050Y-12015046D01*
X50196964Y-11974500D01*
X50196961Y-11974500D01*
X50090479Y-11974500D01*
X50032288Y-11955593D01*
X50020475Y-11945504D01*
X49569630Y-11494659D01*
X49064511Y-10989540D01*
X49055066Y-10984087D01*
X48995989Y-10949979D01*
X48995988Y-10949978D01*
X48995987Y-10949978D01*
X48919564Y-10929500D01*
X48919562Y-10929500D01*
X48874500Y-10929500D01*
X48816309Y-10910593D01*
X48780345Y-10861093D01*
X48775500Y-10830500D01*
X48775500Y-10710253D01*
X48775498Y-10710241D01*
X48772711Y-10696231D01*
X48763867Y-10651769D01*
X48719552Y-10585448D01*
X48719548Y-10585445D01*
X48653233Y-10541134D01*
X48653231Y-10541133D01*
X48653228Y-10541132D01*
X48653227Y-10541132D01*
X48594758Y-10529501D01*
X48594748Y-10529500D01*
X46555252Y-10529500D01*
X46555251Y-10529500D01*
X46555241Y-10529501D01*
X46496772Y-10541132D01*
X46496766Y-10541134D01*
X46430451Y-10585445D01*
X46430445Y-10585451D01*
X46386134Y-10651766D01*
X46386132Y-10651772D01*
X46374501Y-10710241D01*
X46374500Y-10710253D01*
X46374500Y-10730500D01*
X46355593Y-10788691D01*
X46306093Y-10824655D01*
X46275500Y-10829500D01*
X45081901Y-10829500D01*
X45023710Y-10810593D01*
X45011897Y-10800504D01*
X44796838Y-10585445D01*
X44515913Y-10304520D01*
X44515910Y-10304518D01*
X44515909Y-10304517D01*
X44515908Y-10304516D01*
X44424591Y-10251794D01*
X44424593Y-10251794D01*
X44385070Y-10241204D01*
X44322727Y-10224500D01*
X10952727Y-10224500D01*
X10847273Y-10224500D01*
X10784929Y-10241204D01*
X10745407Y-10251794D01*
X10654091Y-10304516D01*
X10654086Y-10304520D01*
X10240646Y-10717959D01*
X10186130Y-10745736D01*
X10142752Y-10742945D01*
X10096964Y-10729500D01*
X10096961Y-10729500D01*
X9953039Y-10729500D01*
X9953035Y-10729500D01*
X9814949Y-10770046D01*
X9814946Y-10770047D01*
X9785936Y-10788691D01*
X9746889Y-10813784D01*
X9693368Y-10829500D01*
X9574500Y-10829500D01*
X9516309Y-10810593D01*
X9480345Y-10761093D01*
X9475500Y-10730500D01*
X9475500Y-10710253D01*
X9475498Y-10710241D01*
X9472711Y-10696231D01*
X9463867Y-10651769D01*
X9419552Y-10585448D01*
X9419548Y-10585445D01*
X9353233Y-10541134D01*
X9353231Y-10541133D01*
X9353228Y-10541132D01*
X9353227Y-10541132D01*
X9294758Y-10529501D01*
X9294748Y-10529500D01*
X6755252Y-10529500D01*
X6755251Y-10529500D01*
X6755241Y-10529501D01*
X6696772Y-10541132D01*
X6696766Y-10541134D01*
X6630451Y-10585445D01*
X6630445Y-10585451D01*
X6586134Y-10651766D01*
X6586132Y-10651772D01*
X6574501Y-10710241D01*
X6574500Y-10710253D01*
X3575500Y-10710253D01*
X3575500Y-9237824D01*
X6274999Y-9237824D01*
X6281401Y-9297370D01*
X6281403Y-9297381D01*
X6331646Y-9432088D01*
X6331647Y-9432090D01*
X6417807Y-9547184D01*
X6417815Y-9547192D01*
X6532909Y-9633352D01*
X6532911Y-9633353D01*
X6667618Y-9683596D01*
X6667629Y-9683598D01*
X6727176Y-9690000D01*
X7774999Y-9690000D01*
X7775000Y-9689999D01*
X7775000Y-8940001D01*
X8275000Y-8940001D01*
X8275000Y-9689999D01*
X8275001Y-9690000D01*
X9322824Y-9690000D01*
X9382370Y-9683598D01*
X9382381Y-9683596D01*
X9517088Y-9633353D01*
X9517090Y-9633352D01*
X9632184Y-9547192D01*
X9632192Y-9547184D01*
X9718352Y-9432090D01*
X9718353Y-9432088D01*
X9768596Y-9297381D01*
X9768598Y-9297370D01*
X9775000Y-9237824D01*
X46074999Y-9237824D01*
X46081401Y-9297370D01*
X46081403Y-9297381D01*
X46131646Y-9432088D01*
X46131647Y-9432090D01*
X46217807Y-9547184D01*
X46217815Y-9547192D01*
X46332909Y-9633352D01*
X46332911Y-9633353D01*
X46467618Y-9683596D01*
X46467629Y-9683598D01*
X46527176Y-9690000D01*
X47324999Y-9690000D01*
X47325000Y-9689999D01*
X47325000Y-8940001D01*
X47825000Y-8940001D01*
X47825000Y-9689999D01*
X47825001Y-9690000D01*
X48622824Y-9690000D01*
X48682370Y-9683598D01*
X48682381Y-9683596D01*
X48817088Y-9633353D01*
X48817090Y-9633352D01*
X48932184Y-9547192D01*
X48932192Y-9547184D01*
X49018352Y-9432090D01*
X49018353Y-9432088D01*
X49068596Y-9297381D01*
X49068598Y-9297370D01*
X49075000Y-9237824D01*
X49075000Y-8940001D01*
X49074999Y-8940000D01*
X47825001Y-8940000D01*
X47825000Y-8940001D01*
X47325000Y-8940001D01*
X47324999Y-8940000D01*
X46075001Y-8940000D01*
X46075000Y-8940001D01*
X46075000Y-9237824D01*
X46074999Y-9237824D01*
X9775000Y-9237824D01*
X9775000Y-8940001D01*
X9774999Y-8940000D01*
X8275001Y-8940000D01*
X8275000Y-8940001D01*
X7775000Y-8940001D01*
X7774999Y-8940000D01*
X6275001Y-8940000D01*
X6275000Y-8940001D01*
X6275000Y-9237824D01*
X6274999Y-9237824D01*
X3575500Y-9237824D01*
X3575500Y-8142175D01*
X6275000Y-8142175D01*
X6275000Y-8439999D01*
X6275001Y-8440000D01*
X7774999Y-8440000D01*
X7775000Y-8439999D01*
X7775000Y-7690001D01*
X8275000Y-7690001D01*
X8275000Y-8439999D01*
X8275001Y-8440000D01*
X9774999Y-8440000D01*
X9775000Y-8439999D01*
X9775000Y-8142175D01*
X9768598Y-8082629D01*
X9768596Y-8082618D01*
X9718353Y-7947911D01*
X9718352Y-7947909D01*
X9632192Y-7832815D01*
X9632184Y-7832807D01*
X9517090Y-7746647D01*
X9517088Y-7746646D01*
X9382381Y-7696403D01*
X9382370Y-7696401D01*
X9322824Y-7690000D01*
X8275001Y-7690000D01*
X8275000Y-7690001D01*
X7775000Y-7690001D01*
X7774999Y-7690000D01*
X6727176Y-7690000D01*
X6667629Y-7696401D01*
X6667618Y-7696403D01*
X6532911Y-7746646D01*
X6532909Y-7746647D01*
X6417815Y-7832807D01*
X6417807Y-7832815D01*
X6331647Y-7947909D01*
X6331646Y-7947911D01*
X6281403Y-8082618D01*
X6281401Y-8082629D01*
X6275000Y-8142175D01*
X3575500Y-8142175D01*
X3575500Y-6874996D01*
X21844659Y-6874996D01*
X21844659Y-6875003D01*
X21863974Y-7071126D01*
X21863975Y-7071129D01*
X21921187Y-7259730D01*
X21921188Y-7259732D01*
X21988630Y-7385906D01*
X22014090Y-7433538D01*
X22014092Y-7433540D01*
X22014093Y-7433542D01*
X22139112Y-7585878D01*
X22139121Y-7585887D01*
X22265983Y-7690000D01*
X22291462Y-7710910D01*
X22465273Y-7803814D01*
X22653868Y-7861024D01*
X22653870Y-7861024D01*
X22653873Y-7861025D01*
X22849997Y-7880341D01*
X22850000Y-7880341D01*
X22850003Y-7880341D01*
X23046126Y-7861025D01*
X23046127Y-7861024D01*
X23046132Y-7861024D01*
X23234727Y-7803814D01*
X23408538Y-7710910D01*
X23560883Y-7585883D01*
X23685910Y-7433538D01*
X23778814Y-7259727D01*
X23836024Y-7071132D01*
X23849459Y-6934730D01*
X23855341Y-6875003D01*
X23855341Y-6874996D01*
X23844364Y-6763543D01*
X25099500Y-6763543D01*
X25099500Y-6986457D01*
X25115571Y-7108532D01*
X25128595Y-7207455D01*
X25128595Y-7207460D01*
X25186290Y-7422782D01*
X25271592Y-7628722D01*
X25271595Y-7628727D01*
X25383050Y-7821771D01*
X25383052Y-7821774D01*
X25518753Y-7998624D01*
X25676376Y-8156247D01*
X25853226Y-8291948D01*
X25853228Y-8291949D01*
X26046272Y-8403404D01*
X26046277Y-8403407D01*
X26214179Y-8472953D01*
X26252219Y-8488710D01*
X26467537Y-8546404D01*
X26688543Y-8575500D01*
X26688544Y-8575500D01*
X27311456Y-8575500D01*
X27311457Y-8575500D01*
X27532463Y-8546404D01*
X27747781Y-8488710D01*
X27924553Y-8415489D01*
X27953722Y-8403407D01*
X27953723Y-8403405D01*
X27953726Y-8403405D01*
X28146774Y-8291948D01*
X28323624Y-8156247D01*
X28337696Y-8142175D01*
X46075000Y-8142175D01*
X46075000Y-8439999D01*
X46075001Y-8440000D01*
X47324999Y-8440000D01*
X47325000Y-8439999D01*
X47325000Y-7690001D01*
X47324999Y-7690000D01*
X46527176Y-7690000D01*
X46467629Y-7696401D01*
X46467618Y-7696403D01*
X46332911Y-7746646D01*
X46332909Y-7746647D01*
X46217815Y-7832807D01*
X46217807Y-7832815D01*
X46131647Y-7947909D01*
X46131646Y-7947911D01*
X46081403Y-8082618D01*
X46081401Y-8082629D01*
X46075000Y-8142175D01*
X28337696Y-8142175D01*
X28481247Y-7998624D01*
X28616948Y-7821774D01*
X28728405Y-7628726D01*
X28746150Y-7585887D01*
X28790501Y-7478812D01*
X28813710Y-7422781D01*
X28871404Y-7207463D01*
X28900500Y-6986457D01*
X28900500Y-6763543D01*
X28872386Y-6549996D01*
X29444659Y-6549996D01*
X29444659Y-6550003D01*
X29463974Y-6746126D01*
X29463975Y-6746129D01*
X29521187Y-6934730D01*
X29521188Y-6934732D01*
X29548836Y-6986457D01*
X29614090Y-7108538D01*
X29614092Y-7108540D01*
X29614093Y-7108542D01*
X29739112Y-7260878D01*
X29739121Y-7260887D01*
X29891457Y-7385906D01*
X29891462Y-7385910D01*
X30065273Y-7478814D01*
X30253868Y-7536024D01*
X30253870Y-7536024D01*
X30253873Y-7536025D01*
X30449997Y-7555341D01*
X30450000Y-7555341D01*
X30450003Y-7555341D01*
X30646126Y-7536025D01*
X30646127Y-7536024D01*
X30646132Y-7536024D01*
X30834727Y-7478814D01*
X31008538Y-7385910D01*
X31160883Y-7260883D01*
X31285910Y-7108538D01*
X31378814Y-6934727D01*
X31436024Y-6746132D01*
X31437788Y-6728227D01*
X31455341Y-6550003D01*
X31455341Y-6549996D01*
X31436025Y-6353873D01*
X31436024Y-6353870D01*
X31436024Y-6353868D01*
X31378814Y-6165273D01*
X31378193Y-6164112D01*
X31311369Y-6039093D01*
X31285910Y-5991462D01*
X31285906Y-5991457D01*
X31160887Y-5839121D01*
X31160878Y-5839112D01*
X31008542Y-5714093D01*
X31008540Y-5714092D01*
X31008538Y-5714090D01*
X30887699Y-5649500D01*
X30834732Y-5621188D01*
X30834730Y-5621187D01*
X30646129Y-5563975D01*
X30646126Y-5563974D01*
X30450003Y-5544659D01*
X30449997Y-5544659D01*
X30253873Y-5563974D01*
X30253870Y-5563975D01*
X30065269Y-5621187D01*
X30065267Y-5621188D01*
X29891467Y-5714087D01*
X29891457Y-5714093D01*
X29739121Y-5839112D01*
X29739112Y-5839121D01*
X29614093Y-5991457D01*
X29614087Y-5991467D01*
X29521188Y-6165267D01*
X29521187Y-6165269D01*
X29463975Y-6353870D01*
X29463974Y-6353873D01*
X29444659Y-6549996D01*
X28872386Y-6549996D01*
X28871404Y-6542537D01*
X28813710Y-6327219D01*
X28746630Y-6165273D01*
X28728407Y-6121277D01*
X28728404Y-6121272D01*
X28653460Y-5991467D01*
X28616948Y-5928226D01*
X28481247Y-5751376D01*
X28323624Y-5593753D01*
X28146774Y-5458052D01*
X28146771Y-5458050D01*
X27953727Y-5346595D01*
X27953722Y-5346592D01*
X27747782Y-5261290D01*
X27652839Y-5235850D01*
X27532463Y-5203596D01*
X27532460Y-5203595D01*
X27532458Y-5203595D01*
X27311457Y-5174500D01*
X26688543Y-5174500D01*
X26688542Y-5174500D01*
X26467544Y-5203595D01*
X26467539Y-5203595D01*
X26252217Y-5261290D01*
X26046277Y-5346592D01*
X26046272Y-5346595D01*
X25853228Y-5458050D01*
X25676379Y-5593750D01*
X25518750Y-5751379D01*
X25383050Y-5928228D01*
X25271595Y-6121272D01*
X25271592Y-6121277D01*
X25186290Y-6327217D01*
X25128595Y-6542539D01*
X25128595Y-6542544D01*
X25101793Y-6746129D01*
X25099500Y-6763543D01*
X23844364Y-6763543D01*
X23836025Y-6678873D01*
X23836024Y-6678870D01*
X23836024Y-6678868D01*
X23778814Y-6490273D01*
X23768235Y-6470482D01*
X23728376Y-6395910D01*
X23685910Y-6316462D01*
X23561832Y-6165273D01*
X23560887Y-6164121D01*
X23560878Y-6164112D01*
X23408542Y-6039093D01*
X23408540Y-6039092D01*
X23408538Y-6039090D01*
X23319442Y-5991467D01*
X23234732Y-5946188D01*
X23234730Y-5946187D01*
X23046129Y-5888975D01*
X23046126Y-5888974D01*
X22850003Y-5869659D01*
X22849997Y-5869659D01*
X22653873Y-5888974D01*
X22653870Y-5888975D01*
X22465269Y-5946187D01*
X22465267Y-5946188D01*
X22291467Y-6039087D01*
X22291457Y-6039093D01*
X22139121Y-6164112D01*
X22139112Y-6164121D01*
X22014093Y-6316457D01*
X22014087Y-6316467D01*
X21921188Y-6490267D01*
X21921187Y-6490269D01*
X21863975Y-6678870D01*
X21863974Y-6678873D01*
X21844659Y-6874996D01*
X3575500Y-6874996D01*
X3575500Y-5765479D01*
X3594407Y-5707288D01*
X3604496Y-5695475D01*
X3669718Y-5630253D01*
X6574500Y-5630253D01*
X6574500Y-6669746D01*
X6574501Y-6669758D01*
X6586132Y-6728227D01*
X6586134Y-6728233D01*
X6615361Y-6771973D01*
X6630448Y-6794552D01*
X6696769Y-6838867D01*
X6741231Y-6847711D01*
X6755241Y-6850498D01*
X6755246Y-6850498D01*
X6755252Y-6850500D01*
X6755253Y-6850500D01*
X9294747Y-6850500D01*
X9294748Y-6850500D01*
X9353231Y-6838867D01*
X9419552Y-6794552D01*
X9463867Y-6728231D01*
X9475500Y-6669748D01*
X9475500Y-6649500D01*
X9494407Y-6591309D01*
X9543907Y-6555345D01*
X9574500Y-6550500D01*
X9668368Y-6550500D01*
X9721889Y-6566215D01*
X9789947Y-6609953D01*
X9896403Y-6641211D01*
X9928035Y-6650499D01*
X9928036Y-6650499D01*
X9928039Y-6650500D01*
X9928041Y-6650500D01*
X10071959Y-6650500D01*
X10071961Y-6650500D01*
X10210053Y-6609953D01*
X10278110Y-6566215D01*
X10331632Y-6550500D01*
X10877725Y-6550500D01*
X10877727Y-6550500D01*
X10979588Y-6523207D01*
X10979590Y-6523205D01*
X10979592Y-6523205D01*
X11070908Y-6470483D01*
X11070908Y-6470482D01*
X11070913Y-6470480D01*
X13286896Y-4254495D01*
X13341413Y-4226719D01*
X13356900Y-4225500D01*
X35378149Y-4225500D01*
X35436340Y-4244407D01*
X35448153Y-4254496D01*
X37589568Y-6395910D01*
X37589570Y-6395913D01*
X37664137Y-6470480D01*
X37693617Y-6487500D01*
X37755463Y-6523207D01*
X37857320Y-6550500D01*
X37857322Y-6550501D01*
X37857323Y-6550501D01*
X37968840Y-6550501D01*
X37968856Y-6550500D01*
X45218368Y-6550500D01*
X45271889Y-6566215D01*
X45339947Y-6609953D01*
X45446403Y-6641211D01*
X45478035Y-6650499D01*
X45478036Y-6650499D01*
X45478039Y-6650500D01*
X45478041Y-6650500D01*
X45621959Y-6650500D01*
X45621961Y-6650500D01*
X45760053Y-6609953D01*
X45828110Y-6566215D01*
X45881632Y-6550500D01*
X46275500Y-6550500D01*
X46333691Y-6569407D01*
X46369655Y-6618907D01*
X46374500Y-6649500D01*
X46374500Y-6669746D01*
X46374501Y-6669758D01*
X46386132Y-6728227D01*
X46386134Y-6728233D01*
X46415361Y-6771973D01*
X46430448Y-6794552D01*
X46496769Y-6838867D01*
X46541231Y-6847711D01*
X46555241Y-6850498D01*
X46555246Y-6850498D01*
X46555252Y-6850500D01*
X47809521Y-6850500D01*
X47867712Y-6869407D01*
X47879525Y-6879496D01*
X48521025Y-7520996D01*
X48548802Y-7575513D01*
X48539231Y-7635945D01*
X48495966Y-7679210D01*
X48451021Y-7690000D01*
X47825001Y-7690000D01*
X47825000Y-7690001D01*
X47825000Y-8439999D01*
X47825001Y-8440000D01*
X49074999Y-8440000D01*
X49075000Y-8439999D01*
X49075000Y-8313979D01*
X49093907Y-8255788D01*
X49143407Y-8219824D01*
X49204593Y-8219824D01*
X49244004Y-8243975D01*
X49695504Y-8695475D01*
X49723281Y-8749992D01*
X49724500Y-8765479D01*
X49724500Y-8946105D01*
X49705593Y-9004296D01*
X49698258Y-9012289D01*
X49698509Y-9012506D01*
X49599622Y-9126628D01*
X49539834Y-9257543D01*
X49519353Y-9399997D01*
X49519353Y-9400002D01*
X49539834Y-9542456D01*
X49541997Y-9547192D01*
X49599623Y-9673373D01*
X49693872Y-9782143D01*
X49693873Y-9782144D01*
X49814942Y-9859950D01*
X49814947Y-9859953D01*
X49921403Y-9891211D01*
X49953035Y-9900499D01*
X49953036Y-9900499D01*
X49953039Y-9900500D01*
X49953041Y-9900500D01*
X50096959Y-9900500D01*
X50096961Y-9900500D01*
X50235053Y-9859953D01*
X50356128Y-9782143D01*
X50450377Y-9673373D01*
X50510165Y-9542457D01*
X50526033Y-9432090D01*
X50530647Y-9400002D01*
X50530647Y-9399997D01*
X50510165Y-9257543D01*
X50450377Y-9126627D01*
X50356128Y-9017857D01*
X50356127Y-9017856D01*
X50351491Y-9012506D01*
X50353524Y-9010743D01*
X50328067Y-8968505D01*
X50325500Y-8946105D01*
X50325500Y-8560437D01*
X50325499Y-8560435D01*
X50321739Y-8546404D01*
X50305021Y-8484011D01*
X50265460Y-8415489D01*
X50253375Y-8403404D01*
X50209511Y-8359539D01*
X50209511Y-8359540D01*
X48746950Y-6896979D01*
X48719173Y-6842462D01*
X48728744Y-6782030D01*
X48734639Y-6771973D01*
X48740272Y-6763543D01*
X48763867Y-6728231D01*
X48775500Y-6669748D01*
X48775500Y-5630252D01*
X48763867Y-5571769D01*
X48719552Y-5505448D01*
X48687464Y-5484007D01*
X48653233Y-5461134D01*
X48653231Y-5461133D01*
X48653228Y-5461132D01*
X48653227Y-5461132D01*
X48594758Y-5449501D01*
X48594748Y-5449500D01*
X46555252Y-5449500D01*
X46555251Y-5449500D01*
X46555241Y-5449501D01*
X46496772Y-5461132D01*
X46496766Y-5461134D01*
X46430451Y-5505445D01*
X46430445Y-5505451D01*
X46386134Y-5571766D01*
X46386132Y-5571772D01*
X46374501Y-5630241D01*
X46374500Y-5630253D01*
X46374500Y-5650500D01*
X46355593Y-5708691D01*
X46306093Y-5744655D01*
X46275500Y-5749500D01*
X45881632Y-5749500D01*
X45828110Y-5733784D01*
X45760053Y-5690047D01*
X45760050Y-5690046D01*
X45621964Y-5649500D01*
X45621961Y-5649500D01*
X45478039Y-5649500D01*
X45478035Y-5649500D01*
X45339949Y-5690046D01*
X45339946Y-5690047D01*
X45313119Y-5707288D01*
X45271889Y-5733784D01*
X45218368Y-5749500D01*
X38116950Y-5749500D01*
X38058759Y-5730593D01*
X38046946Y-5720504D01*
X36976441Y-4649999D01*
X35830963Y-3504520D01*
X35830960Y-3504518D01*
X35830958Y-3504516D01*
X35739641Y-3451794D01*
X35739643Y-3451794D01*
X35700120Y-3441204D01*
X35637777Y-3424500D01*
X35637775Y-3424500D01*
X13208806Y-3424500D01*
X13208790Y-3424499D01*
X13202727Y-3424499D01*
X13097273Y-3424499D01*
X13097270Y-3424499D01*
X12995413Y-3451792D01*
X12995409Y-3451794D01*
X12904087Y-3504519D01*
X12829519Y-3579086D01*
X12829520Y-3579087D01*
X10688103Y-5720504D01*
X10633586Y-5748281D01*
X10618099Y-5749500D01*
X10331632Y-5749500D01*
X10278110Y-5733784D01*
X10210053Y-5690047D01*
X10210050Y-5690046D01*
X10071964Y-5649500D01*
X10071961Y-5649500D01*
X9928039Y-5649500D01*
X9928035Y-5649500D01*
X9789949Y-5690046D01*
X9789946Y-5690047D01*
X9763119Y-5707288D01*
X9721889Y-5733784D01*
X9668368Y-5749500D01*
X9574500Y-5749500D01*
X9516309Y-5730593D01*
X9480345Y-5681093D01*
X9475500Y-5650500D01*
X9475500Y-5630253D01*
X9475498Y-5630241D01*
X9468239Y-5593750D01*
X9463867Y-5571769D01*
X9419552Y-5505448D01*
X9387464Y-5484007D01*
X9353233Y-5461134D01*
X9353231Y-5461133D01*
X9353228Y-5461132D01*
X9353227Y-5461132D01*
X9294758Y-5449501D01*
X9294748Y-5449500D01*
X6755252Y-5449500D01*
X6755251Y-5449500D01*
X6755241Y-5449501D01*
X6696772Y-5461132D01*
X6696766Y-5461134D01*
X6630451Y-5505445D01*
X6630445Y-5505451D01*
X6586134Y-5571766D01*
X6586132Y-5571772D01*
X6574501Y-5630241D01*
X6574500Y-5630253D01*
X3669718Y-5630253D01*
X6595475Y-2704496D01*
X6649992Y-2676719D01*
X6665479Y-2675500D01*
X28991302Y-2675500D01*
X29049493Y-2694407D01*
X29081355Y-2733373D01*
X29099623Y-2773373D01*
X29193872Y-2882143D01*
X29193873Y-2882144D01*
X29314942Y-2959950D01*
X29314947Y-2959953D01*
X29421403Y-2991211D01*
X29453035Y-3000499D01*
X29453036Y-3000499D01*
X29453039Y-3000500D01*
X29453041Y-3000500D01*
X29596959Y-3000500D01*
X29596961Y-3000500D01*
X29735053Y-2959953D01*
X29856128Y-2882143D01*
X29950377Y-2773373D01*
X30010165Y-2642457D01*
X30030647Y-2500000D01*
X30026651Y-2472209D01*
X30010165Y-2357543D01*
X29950377Y-2226628D01*
X29950377Y-2226627D01*
X29856128Y-2117857D01*
X29856127Y-2117856D01*
X29856126Y-2117855D01*
X29735057Y-2040049D01*
X29735054Y-2040047D01*
X29735053Y-2040047D01*
X29735050Y-2040046D01*
X29596964Y-1999500D01*
X29596961Y-1999500D01*
X29453039Y-1999500D01*
X29453035Y-1999500D01*
X29314949Y-2040046D01*
X29314942Y-2040049D01*
X29285791Y-2058784D01*
X29232268Y-2074500D01*
X6539562Y-2074500D01*
X6460438Y-2074500D01*
X6413661Y-2087033D01*
X6384007Y-2094979D01*
X6315493Y-2134536D01*
X6315492Y-2134537D01*
X4363829Y-4086199D01*
X4309312Y-4113976D01*
X4248880Y-4104405D01*
X4205615Y-4061140D01*
X4196044Y-4000708D01*
X4216517Y-3954352D01*
X4500000Y-3600000D01*
X4700000Y-2900000D01*
X4700000Y-1900000D01*
X4500000Y-1400000D01*
X4100000Y-900000D01*
X3631563Y-525250D01*
X3600000Y-500000D01*
X3000000Y-300000D01*
X2478187Y-300000D01*
X2419996Y-281093D01*
X2384032Y-231593D01*
X2384032Y-170407D01*
X2419996Y-120907D01*
X2472210Y-102181D01*
X2497008Y-100681D01*
X2502985Y-100500D01*
X2526929Y-100500D01*
X51473071Y-100500D01*
X51497015Y-100500D01*
X51502992Y-100681D01*
G37*
%TD.AperFunction*%
%TD*%
D19*
X23200000Y-11600000D03*
X25675000Y-11500000D03*
X35800000Y-8100000D03*
X15725000Y-3100000D03*
X21900000Y-13350000D03*
X41400000Y-16900000D03*
X6850000Y-21825000D03*
X20600000Y-18625000D03*
X25700000Y-1200000D03*
X14175000Y-7475000D03*
X51250000Y-8750000D03*
X7975000Y-10075000D03*
X9675000Y-12450000D03*
X22150000Y-5500000D03*
X47750000Y-1850000D03*
X5800000Y-17450000D03*
X29550000Y-8200000D03*
X24500000Y-19950000D03*
X35900000Y-3150000D03*
X4650000Y-20225000D03*
X5800000Y-7300000D03*
X2025000Y-9075000D03*
X36050000Y-13300000D03*
X15300000Y-23100000D03*
X45500000Y-7400000D03*
X46750000Y-9750000D03*
X50075000Y-16325000D03*
X3125000Y-16275000D03*
X48320000Y-20420000D03*
X8800000Y-14950000D03*
X13650000Y-20550000D03*
X42375000Y-20250000D03*
X18200000Y-13250000D03*
X17922499Y-16475000D03*
X4175000Y-12175000D03*
X43600000Y-11750000D03*
X7103235Y-15171765D03*
X15950000Y-5275000D03*
X32500000Y-11525000D03*
X7850000Y-3900000D03*
X9000000Y-17775000D03*
X5910000Y-1260000D03*
X28650000Y-24050000D03*
X46350000Y-4750000D03*
X15825000Y-12675000D03*
X10000000Y-6150000D03*
X50025000Y-9400000D03*
X45550000Y-6150000D03*
X43350000Y-18850000D03*
X14975000Y-18850000D03*
X8075000Y-19975000D03*
X45050000Y-16310000D03*
X9600000Y-16310000D03*
X10425000Y-13770000D03*
X46200000Y-14050000D03*
X50125000Y-12475000D03*
X10025000Y-11230000D03*
X29525000Y-2500000D03*
X3275000Y-12825000D03*
D20*
X51500000Y-22500000D03*
X5850000Y-23600000D03*
X7850000Y-23600000D03*
X9850000Y-23600000D03*
X11850000Y-23600000D03*
X51500000Y-2550000D03*
D21*
X27000000Y-18125000D03*
X27000000Y-6875000D03*
D20*
X22850000Y-18125000D03*
X22850000Y-6875000D03*
X31150000Y-18125000D03*
X30450000Y-6550000D03*
X20150000Y-12500000D03*
X2500000Y-2500000D03*
X2500000Y-22500000D03*
M02*
