%TF.GenerationSoftware,KiCad,Pcbnew,8.0.7*%
%TF.CreationDate,2025-01-15T18:24:23+00:00*%
%TF.ProjectId,Joystick,4a6f7973-7469-4636-9b2e-6b696361645f,rev?*%
%TF.SameCoordinates,Original*%
%TF.FileFunction,Legend,Bot*%
%TF.FilePolarity,Positive*%
%FSLAX46Y46*%
G04 Gerber Fmt 4.6, Leading zero omitted, Abs format (unit mm)*
G04 Created by KiCad (PCBNEW 8.0.7) date 2025-01-15 18:24:23*
%MOMM*%
%LPD*%
G01*
G04 APERTURE LIST*
%ADD10C,0.250000*%
%ADD11C,0.150000*%
%ADD12C,0.350000*%
G04 APERTURE END LIST*
D10*
X48114762Y-22929619D02*
X48114762Y-23643904D01*
X48114762Y-23643904D02*
X48162381Y-23786761D01*
X48162381Y-23786761D02*
X48257619Y-23882000D01*
X48257619Y-23882000D02*
X48400476Y-23929619D01*
X48400476Y-23929619D02*
X48495714Y-23929619D01*
X47495714Y-23929619D02*
X47590952Y-23882000D01*
X47590952Y-23882000D02*
X47638571Y-23834380D01*
X47638571Y-23834380D02*
X47686190Y-23739142D01*
X47686190Y-23739142D02*
X47686190Y-23453428D01*
X47686190Y-23453428D02*
X47638571Y-23358190D01*
X47638571Y-23358190D02*
X47590952Y-23310571D01*
X47590952Y-23310571D02*
X47495714Y-23262952D01*
X47495714Y-23262952D02*
X47352857Y-23262952D01*
X47352857Y-23262952D02*
X47257619Y-23310571D01*
X47257619Y-23310571D02*
X47210000Y-23358190D01*
X47210000Y-23358190D02*
X47162381Y-23453428D01*
X47162381Y-23453428D02*
X47162381Y-23739142D01*
X47162381Y-23739142D02*
X47210000Y-23834380D01*
X47210000Y-23834380D02*
X47257619Y-23882000D01*
X47257619Y-23882000D02*
X47352857Y-23929619D01*
X47352857Y-23929619D02*
X47495714Y-23929619D01*
X46829047Y-23262952D02*
X46590952Y-23929619D01*
X46352857Y-23262952D02*
X46590952Y-23929619D01*
X46590952Y-23929619D02*
X46686190Y-24167714D01*
X46686190Y-24167714D02*
X46733809Y-24215333D01*
X46733809Y-24215333D02*
X46829047Y-24262952D01*
X46019523Y-23882000D02*
X45924285Y-23929619D01*
X45924285Y-23929619D02*
X45733809Y-23929619D01*
X45733809Y-23929619D02*
X45638571Y-23882000D01*
X45638571Y-23882000D02*
X45590952Y-23786761D01*
X45590952Y-23786761D02*
X45590952Y-23739142D01*
X45590952Y-23739142D02*
X45638571Y-23643904D01*
X45638571Y-23643904D02*
X45733809Y-23596285D01*
X45733809Y-23596285D02*
X45876666Y-23596285D01*
X45876666Y-23596285D02*
X45971904Y-23548666D01*
X45971904Y-23548666D02*
X46019523Y-23453428D01*
X46019523Y-23453428D02*
X46019523Y-23405809D01*
X46019523Y-23405809D02*
X45971904Y-23310571D01*
X45971904Y-23310571D02*
X45876666Y-23262952D01*
X45876666Y-23262952D02*
X45733809Y-23262952D01*
X45733809Y-23262952D02*
X45638571Y-23310571D01*
X45305237Y-23262952D02*
X44924285Y-23262952D01*
X45162380Y-22929619D02*
X45162380Y-23786761D01*
X45162380Y-23786761D02*
X45114761Y-23882000D01*
X45114761Y-23882000D02*
X45019523Y-23929619D01*
X45019523Y-23929619D02*
X44924285Y-23929619D01*
X44590951Y-23929619D02*
X44590951Y-23262952D01*
X44590951Y-22929619D02*
X44638570Y-22977238D01*
X44638570Y-22977238D02*
X44590951Y-23024857D01*
X44590951Y-23024857D02*
X44543332Y-22977238D01*
X44543332Y-22977238D02*
X44590951Y-22929619D01*
X44590951Y-22929619D02*
X44590951Y-23024857D01*
X43686190Y-23882000D02*
X43781428Y-23929619D01*
X43781428Y-23929619D02*
X43971904Y-23929619D01*
X43971904Y-23929619D02*
X44067142Y-23882000D01*
X44067142Y-23882000D02*
X44114761Y-23834380D01*
X44114761Y-23834380D02*
X44162380Y-23739142D01*
X44162380Y-23739142D02*
X44162380Y-23453428D01*
X44162380Y-23453428D02*
X44114761Y-23358190D01*
X44114761Y-23358190D02*
X44067142Y-23310571D01*
X44067142Y-23310571D02*
X43971904Y-23262952D01*
X43971904Y-23262952D02*
X43781428Y-23262952D01*
X43781428Y-23262952D02*
X43686190Y-23310571D01*
X43257618Y-23929619D02*
X43257618Y-22929619D01*
X43162380Y-23548666D02*
X42876666Y-23929619D01*
X42876666Y-23262952D02*
X43257618Y-23643904D01*
X41781427Y-23262952D02*
X41543332Y-23929619D01*
X41543332Y-23929619D02*
X41305237Y-23262952D01*
X40733808Y-22929619D02*
X40638570Y-22929619D01*
X40638570Y-22929619D02*
X40543332Y-22977238D01*
X40543332Y-22977238D02*
X40495713Y-23024857D01*
X40495713Y-23024857D02*
X40448094Y-23120095D01*
X40448094Y-23120095D02*
X40400475Y-23310571D01*
X40400475Y-23310571D02*
X40400475Y-23548666D01*
X40400475Y-23548666D02*
X40448094Y-23739142D01*
X40448094Y-23739142D02*
X40495713Y-23834380D01*
X40495713Y-23834380D02*
X40543332Y-23882000D01*
X40543332Y-23882000D02*
X40638570Y-23929619D01*
X40638570Y-23929619D02*
X40733808Y-23929619D01*
X40733808Y-23929619D02*
X40829046Y-23882000D01*
X40829046Y-23882000D02*
X40876665Y-23834380D01*
X40876665Y-23834380D02*
X40924284Y-23739142D01*
X40924284Y-23739142D02*
X40971903Y-23548666D01*
X40971903Y-23548666D02*
X40971903Y-23310571D01*
X40971903Y-23310571D02*
X40924284Y-23120095D01*
X40924284Y-23120095D02*
X40876665Y-23024857D01*
X40876665Y-23024857D02*
X40829046Y-22977238D01*
X40829046Y-22977238D02*
X40733808Y-22929619D01*
X39971903Y-23834380D02*
X39924284Y-23882000D01*
X39924284Y-23882000D02*
X39971903Y-23929619D01*
X39971903Y-23929619D02*
X40019522Y-23882000D01*
X40019522Y-23882000D02*
X39971903Y-23834380D01*
X39971903Y-23834380D02*
X39971903Y-23929619D01*
X39019523Y-22929619D02*
X39495713Y-22929619D01*
X39495713Y-22929619D02*
X39543332Y-23405809D01*
X39543332Y-23405809D02*
X39495713Y-23358190D01*
X39495713Y-23358190D02*
X39400475Y-23310571D01*
X39400475Y-23310571D02*
X39162380Y-23310571D01*
X39162380Y-23310571D02*
X39067142Y-23358190D01*
X39067142Y-23358190D02*
X39019523Y-23405809D01*
X39019523Y-23405809D02*
X38971904Y-23501047D01*
X38971904Y-23501047D02*
X38971904Y-23739142D01*
X38971904Y-23739142D02*
X39019523Y-23834380D01*
X39019523Y-23834380D02*
X39067142Y-23882000D01*
X39067142Y-23882000D02*
X39162380Y-23929619D01*
X39162380Y-23929619D02*
X39400475Y-23929619D01*
X39400475Y-23929619D02*
X39495713Y-23882000D01*
X39495713Y-23882000D02*
X39543332Y-23834380D01*
D11*
X10181200Y-19051064D02*
X10219295Y-19165350D01*
X10219295Y-19165350D02*
X10219295Y-19355826D01*
X10219295Y-19355826D02*
X10181200Y-19432017D01*
X10181200Y-19432017D02*
X10143104Y-19470112D01*
X10143104Y-19470112D02*
X10066914Y-19508207D01*
X10066914Y-19508207D02*
X9990723Y-19508207D01*
X9990723Y-19508207D02*
X9914533Y-19470112D01*
X9914533Y-19470112D02*
X9876438Y-19432017D01*
X9876438Y-19432017D02*
X9838342Y-19355826D01*
X9838342Y-19355826D02*
X9800247Y-19203445D01*
X9800247Y-19203445D02*
X9762152Y-19127255D01*
X9762152Y-19127255D02*
X9724057Y-19089160D01*
X9724057Y-19089160D02*
X9647866Y-19051064D01*
X9647866Y-19051064D02*
X9571676Y-19051064D01*
X9571676Y-19051064D02*
X9495485Y-19089160D01*
X9495485Y-19089160D02*
X9457390Y-19127255D01*
X9457390Y-19127255D02*
X9419295Y-19203445D01*
X9419295Y-19203445D02*
X9419295Y-19393922D01*
X9419295Y-19393922D02*
X9457390Y-19508207D01*
X9419295Y-19774874D02*
X10219295Y-19965350D01*
X10219295Y-19965350D02*
X9647866Y-20117731D01*
X9647866Y-20117731D02*
X10219295Y-20270112D01*
X10219295Y-20270112D02*
X9419295Y-20460589D01*
X10219295Y-20765351D02*
X9419295Y-20765351D01*
X9419295Y-20765351D02*
X9419295Y-20955827D01*
X9419295Y-20955827D02*
X9457390Y-21070113D01*
X9457390Y-21070113D02*
X9533580Y-21146303D01*
X9533580Y-21146303D02*
X9609771Y-21184398D01*
X9609771Y-21184398D02*
X9762152Y-21222494D01*
X9762152Y-21222494D02*
X9876438Y-21222494D01*
X9876438Y-21222494D02*
X10028819Y-21184398D01*
X10028819Y-21184398D02*
X10105009Y-21146303D01*
X10105009Y-21146303D02*
X10181200Y-21070113D01*
X10181200Y-21070113D02*
X10219295Y-20955827D01*
X10219295Y-20955827D02*
X10219295Y-20765351D01*
X10219295Y-21565351D02*
X9419295Y-21565351D01*
X9419295Y-22098684D02*
X9419295Y-22251065D01*
X9419295Y-22251065D02*
X9457390Y-22327255D01*
X9457390Y-22327255D02*
X9533580Y-22403446D01*
X9533580Y-22403446D02*
X9685961Y-22441541D01*
X9685961Y-22441541D02*
X9952628Y-22441541D01*
X9952628Y-22441541D02*
X10105009Y-22403446D01*
X10105009Y-22403446D02*
X10181200Y-22327255D01*
X10181200Y-22327255D02*
X10219295Y-22251065D01*
X10219295Y-22251065D02*
X10219295Y-22098684D01*
X10219295Y-22098684D02*
X10181200Y-22022493D01*
X10181200Y-22022493D02*
X10105009Y-21946303D01*
X10105009Y-21946303D02*
X9952628Y-21908207D01*
X9952628Y-21908207D02*
X9685961Y-21908207D01*
X9685961Y-21908207D02*
X9533580Y-21946303D01*
X9533580Y-21946303D02*
X9457390Y-22022493D01*
X9457390Y-22022493D02*
X9419295Y-22098684D01*
X7507390Y-20783207D02*
X7469295Y-20707017D01*
X7469295Y-20707017D02*
X7469295Y-20592731D01*
X7469295Y-20592731D02*
X7507390Y-20478445D01*
X7507390Y-20478445D02*
X7583580Y-20402255D01*
X7583580Y-20402255D02*
X7659771Y-20364160D01*
X7659771Y-20364160D02*
X7812152Y-20326064D01*
X7812152Y-20326064D02*
X7926438Y-20326064D01*
X7926438Y-20326064D02*
X8078819Y-20364160D01*
X8078819Y-20364160D02*
X8155009Y-20402255D01*
X8155009Y-20402255D02*
X8231200Y-20478445D01*
X8231200Y-20478445D02*
X8269295Y-20592731D01*
X8269295Y-20592731D02*
X8269295Y-20668922D01*
X8269295Y-20668922D02*
X8231200Y-20783207D01*
X8231200Y-20783207D02*
X8193104Y-20821303D01*
X8193104Y-20821303D02*
X7926438Y-20821303D01*
X7926438Y-20821303D02*
X7926438Y-20668922D01*
X8269295Y-21164160D02*
X7469295Y-21164160D01*
X7469295Y-21164160D02*
X8269295Y-21621303D01*
X8269295Y-21621303D02*
X7469295Y-21621303D01*
X8269295Y-22002255D02*
X7469295Y-22002255D01*
X7469295Y-22002255D02*
X7469295Y-22192731D01*
X7469295Y-22192731D02*
X7507390Y-22307017D01*
X7507390Y-22307017D02*
X7583580Y-22383207D01*
X7583580Y-22383207D02*
X7659771Y-22421302D01*
X7659771Y-22421302D02*
X7812152Y-22459398D01*
X7812152Y-22459398D02*
X7926438Y-22459398D01*
X7926438Y-22459398D02*
X8078819Y-22421302D01*
X8078819Y-22421302D02*
X8155009Y-22383207D01*
X8155009Y-22383207D02*
X8231200Y-22307017D01*
X8231200Y-22307017D02*
X8269295Y-22192731D01*
X8269295Y-22192731D02*
X8269295Y-22002255D01*
X5444295Y-21645112D02*
X5444295Y-21264160D01*
X5444295Y-21264160D02*
X5825247Y-21226064D01*
X5825247Y-21226064D02*
X5787152Y-21264160D01*
X5787152Y-21264160D02*
X5749057Y-21340350D01*
X5749057Y-21340350D02*
X5749057Y-21530826D01*
X5749057Y-21530826D02*
X5787152Y-21607017D01*
X5787152Y-21607017D02*
X5825247Y-21645112D01*
X5825247Y-21645112D02*
X5901438Y-21683207D01*
X5901438Y-21683207D02*
X6091914Y-21683207D01*
X6091914Y-21683207D02*
X6168104Y-21645112D01*
X6168104Y-21645112D02*
X6206200Y-21607017D01*
X6206200Y-21607017D02*
X6244295Y-21530826D01*
X6244295Y-21530826D02*
X6244295Y-21340350D01*
X6244295Y-21340350D02*
X6206200Y-21264160D01*
X6206200Y-21264160D02*
X6168104Y-21226064D01*
X5444295Y-21911779D02*
X6244295Y-22178446D01*
X6244295Y-22178446D02*
X5444295Y-22445112D01*
X12218104Y-20971303D02*
X12256200Y-20933207D01*
X12256200Y-20933207D02*
X12294295Y-20818922D01*
X12294295Y-20818922D02*
X12294295Y-20742731D01*
X12294295Y-20742731D02*
X12256200Y-20628445D01*
X12256200Y-20628445D02*
X12180009Y-20552255D01*
X12180009Y-20552255D02*
X12103819Y-20514160D01*
X12103819Y-20514160D02*
X11951438Y-20476064D01*
X11951438Y-20476064D02*
X11837152Y-20476064D01*
X11837152Y-20476064D02*
X11684771Y-20514160D01*
X11684771Y-20514160D02*
X11608580Y-20552255D01*
X11608580Y-20552255D02*
X11532390Y-20628445D01*
X11532390Y-20628445D02*
X11494295Y-20742731D01*
X11494295Y-20742731D02*
X11494295Y-20818922D01*
X11494295Y-20818922D02*
X11532390Y-20933207D01*
X11532390Y-20933207D02*
X11570485Y-20971303D01*
X12294295Y-21695112D02*
X12294295Y-21314160D01*
X12294295Y-21314160D02*
X11494295Y-21314160D01*
X12294295Y-21961779D02*
X11494295Y-21961779D01*
X12294295Y-22418922D02*
X11837152Y-22076064D01*
X11494295Y-22418922D02*
X11951438Y-21961779D01*
D12*
X22000000Y-18825000D03*
X32000000Y-18825000D03*
X27000000Y-16800000D03*
X27000000Y-8200000D03*
X22000000Y-6175000D03*
X32000000Y-6075000D03*
X24500000Y-3770000D03*
X27000000Y-3770000D03*
X29500000Y-3770000D03*
X18270000Y-10000000D03*
X18270000Y-12500000D03*
X18270000Y-15000000D03*
X32750000Y-15750000D03*
X37250000Y-15750000D03*
X32750000Y-9250000D03*
X37250000Y-9250000D03*
X2500000Y-2500000D03*
X5850000Y-23600000D03*
X7850000Y-23600000D03*
X9850000Y-23600000D03*
X11850000Y-23600000D03*
X51500000Y-22500000D03*
X51500000Y-2550000D03*
X2500000Y-22500000D03*
M02*
