M48
; DRILL file {KiCad 8.0.7} date 2025-01-15T18:16:12+0000
; FORMAT={-:-/ absolute / inch / decimal}
; #@! TF.CreationDate,2025-01-15T18:16:12+00:00
; #@! TF.GenerationSoftware,Kicad,Pcbnew,8.0.7
; #@! TF.FileFunction,Plated,1,4,PTH
FMAT,2
INCH
; #@! TA.AperFunction,Plated,PTH,ViaDrill
T1C0.0118
; #@! TA.AperFunction,Plated,PTH,ComponentDrill
T2C0.0236
; #@! TA.AperFunction,Plated,PTH,ComponentDrill
T3C0.0295
%
G90
G05
T1
X0.0049Y-0.6939
X0.0662Y-0.6318
X0.0679Y-0.1181
X0.0805Y-0.5427
X0.088Y-0.5118
X0.1063Y-0.3799
X0.11Y-0.4893
X0.1142Y-0.6142
X0.1781Y-0.7923
X0.1821Y-0.3228
X0.2333Y-0.7156
X0.2333Y-0.4459
X0.2461Y-0.6663
X0.2638Y-0.7943
X0.2825Y-0.3583
X0.3086Y-0.1757
X0.3691Y-0.1368
X0.3848Y-0.3622
X0.4222Y-0.4657
X0.4447Y-0.1878
X0.4488Y-0.7963
X0.4734Y-0.6663
X0.48Y-0.293
X0.4852Y-0.497
X0.5039Y-0.6191
X0.5098Y-0.6663
X0.5443Y-0.1368
X0.5659Y-0.8514
X0.5685Y-0.3032
X0.5709Y-0.6663
X0.5886Y-0.2126
X0.5965Y-0.499
X0.6004Y-0.9429
X0.6063Y-0.6171
X0.6171Y-0.7933
X0.632Y-0.4657
X0.6516Y-0.3455
X0.6594Y-0.2496
X0.6801Y-0.0669
X0.7313Y-0.5421
X0.7411Y-0.4961
X0.7411Y-0.6988
X0.7421Y-0.2904
X0.7431Y-0.1959
X0.75Y-0.9459
X0.7963Y-0.248
X0.8248Y-0.6614
X0.8406Y-0.7726
X0.844Y-0.5571
X0.8593Y-0.3888
X0.8868Y-0.4213
X0.8878Y-0.469
X0.9116Y-0.4407
X0.9145Y-0.4857
X0.9518Y-0.9016
X0.9528Y-0.3494
X0.9852Y-0.5285
X0.9911Y-0.7195
T3
X0.2303Y-0.9291
X0.3091Y-0.9291
X0.3878Y-0.9291
X0.4665Y-0.9291
T2
G00X0.1959Y-0.0531
M15
G01X0.1959Y-0.0295
M16
G05
G00X0.1959Y-0.2276
M15
G01X0.1959Y-0.1843
M16
G05
G00X0.536Y-0.0531
M15
G01X0.536Y-0.0295
M16
G05
G00X0.536Y-0.2276
M15
G01X0.536Y-0.1843
M16
G05
M30
