%TF.GenerationSoftware,KiCad,Pcbnew,8.0.8*%
%TF.CreationDate,2025-07-09T11:23:43+01:00*%
%TF.ProjectId,Battery,42617474-6572-4792-9e6b-696361645f70,rev?*%
%TF.SameCoordinates,Original*%
%TF.FileFunction,Other,ECO1*%
%FSLAX46Y46*%
G04 Gerber Fmt 4.6, Leading zero omitted, Abs format (unit mm)*
G04 Created by KiCad (PCBNEW 8.0.8) date 2025-07-09 11:23:43*
%MOMM*%
%LPD*%
G01*
G04 APERTURE LIST*
%ADD10C,0.075000*%
%ADD11C,0.150000*%
%ADD12O,0.700000X1.500000*%
%ADD13O,0.900000X0.700000*%
%ADD14C,0.350000*%
%ADD15O,0.600000X1.200000*%
G04 APERTURE END LIST*
D10*
X12664885Y-21971428D02*
X12864885Y-21971428D01*
X12550600Y-22042856D02*
X12764885Y-22114285D01*
X12764885Y-22114285D02*
X12764885Y-21928570D01*
X12836314Y-21814285D02*
X12850600Y-21799999D01*
X12850600Y-21799999D02*
X12864885Y-21814285D01*
X12864885Y-21814285D02*
X12850600Y-21828571D01*
X12850600Y-21828571D02*
X12836314Y-21814285D01*
X12836314Y-21814285D02*
X12864885Y-21814285D01*
X12564885Y-21699999D02*
X12564885Y-21499999D01*
X12564885Y-21499999D02*
X12864885Y-21628571D01*
X12664885Y-21257143D02*
X12864885Y-21257143D01*
X12664885Y-21385714D02*
X12822028Y-21385714D01*
X12822028Y-21385714D02*
X12850600Y-21371428D01*
X12850600Y-21371428D02*
X12864885Y-21342857D01*
X12864885Y-21342857D02*
X12864885Y-21300000D01*
X12864885Y-21300000D02*
X12850600Y-21271428D01*
X12850600Y-21271428D02*
X12836314Y-21257143D01*
X12707742Y-21014285D02*
X12707742Y-21114285D01*
X12864885Y-21114285D02*
X12564885Y-21114285D01*
X12564885Y-21114285D02*
X12564885Y-20971428D01*
X556901Y-20519382D02*
X456901Y-20519382D01*
X456901Y-20676525D02*
X456901Y-20376525D01*
X456901Y-20376525D02*
X599758Y-20376525D01*
X814044Y-20519382D02*
X714044Y-20519382D01*
X714044Y-20676525D02*
X714044Y-20376525D01*
X714044Y-20376525D02*
X856901Y-20376525D01*
X1142616Y-20647954D02*
X1128330Y-20662240D01*
X1128330Y-20662240D02*
X1085473Y-20676525D01*
X1085473Y-20676525D02*
X1056901Y-20676525D01*
X1056901Y-20676525D02*
X1014044Y-20662240D01*
X1014044Y-20662240D02*
X985473Y-20633668D01*
X985473Y-20633668D02*
X971187Y-20605097D01*
X971187Y-20605097D02*
X956901Y-20547954D01*
X956901Y-20547954D02*
X956901Y-20505097D01*
X956901Y-20505097D02*
X971187Y-20447954D01*
X971187Y-20447954D02*
X985473Y-20419382D01*
X985473Y-20419382D02*
X1014044Y-20390811D01*
X1014044Y-20390811D02*
X1056901Y-20376525D01*
X1056901Y-20376525D02*
X1085473Y-20376525D01*
X1085473Y-20376525D02*
X1128330Y-20390811D01*
X1128330Y-20390811D02*
X1142616Y-20405097D01*
X1199759Y-20705097D02*
X1428330Y-20705097D01*
X1628330Y-20662240D02*
X1599758Y-20676525D01*
X1599758Y-20676525D02*
X1542615Y-20676525D01*
X1542615Y-20676525D02*
X1514044Y-20662240D01*
X1514044Y-20662240D02*
X1499758Y-20647954D01*
X1499758Y-20647954D02*
X1485472Y-20619382D01*
X1485472Y-20619382D02*
X1485472Y-20533668D01*
X1485472Y-20533668D02*
X1499758Y-20505097D01*
X1499758Y-20505097D02*
X1514044Y-20490811D01*
X1514044Y-20490811D02*
X1542615Y-20476525D01*
X1542615Y-20476525D02*
X1599758Y-20476525D01*
X1599758Y-20476525D02*
X1628330Y-20490811D01*
X1799758Y-20676525D02*
X1771187Y-20662240D01*
X1771187Y-20662240D02*
X1756901Y-20647954D01*
X1756901Y-20647954D02*
X1742615Y-20619382D01*
X1742615Y-20619382D02*
X1742615Y-20533668D01*
X1742615Y-20533668D02*
X1756901Y-20505097D01*
X1756901Y-20505097D02*
X1771187Y-20490811D01*
X1771187Y-20490811D02*
X1799758Y-20476525D01*
X1799758Y-20476525D02*
X1842615Y-20476525D01*
X1842615Y-20476525D02*
X1871187Y-20490811D01*
X1871187Y-20490811D02*
X1885473Y-20505097D01*
X1885473Y-20505097D02*
X1899758Y-20533668D01*
X1899758Y-20533668D02*
X1899758Y-20619382D01*
X1899758Y-20619382D02*
X1885473Y-20647954D01*
X1885473Y-20647954D02*
X1871187Y-20662240D01*
X1871187Y-20662240D02*
X1842615Y-20676525D01*
X1842615Y-20676525D02*
X1799758Y-20676525D01*
X2028330Y-20476525D02*
X2028330Y-20676525D01*
X2028330Y-20505097D02*
X2042616Y-20490811D01*
X2042616Y-20490811D02*
X2071187Y-20476525D01*
X2071187Y-20476525D02*
X2114044Y-20476525D01*
X2114044Y-20476525D02*
X2142616Y-20490811D01*
X2142616Y-20490811D02*
X2156902Y-20519382D01*
X2156902Y-20519382D02*
X2156902Y-20676525D01*
X2299759Y-20476525D02*
X2299759Y-20676525D01*
X2299759Y-20505097D02*
X2314045Y-20490811D01*
X2314045Y-20490811D02*
X2342616Y-20476525D01*
X2342616Y-20476525D02*
X2385473Y-20476525D01*
X2385473Y-20476525D02*
X2414045Y-20490811D01*
X2414045Y-20490811D02*
X2428331Y-20519382D01*
X2428331Y-20519382D02*
X2428331Y-20676525D01*
X2685474Y-20662240D02*
X2656902Y-20676525D01*
X2656902Y-20676525D02*
X2599760Y-20676525D01*
X2599760Y-20676525D02*
X2571188Y-20662240D01*
X2571188Y-20662240D02*
X2556902Y-20633668D01*
X2556902Y-20633668D02*
X2556902Y-20519382D01*
X2556902Y-20519382D02*
X2571188Y-20490811D01*
X2571188Y-20490811D02*
X2599760Y-20476525D01*
X2599760Y-20476525D02*
X2656902Y-20476525D01*
X2656902Y-20476525D02*
X2685474Y-20490811D01*
X2685474Y-20490811D02*
X2699760Y-20519382D01*
X2699760Y-20519382D02*
X2699760Y-20547954D01*
X2699760Y-20547954D02*
X2556902Y-20576525D01*
X2956903Y-20662240D02*
X2928331Y-20676525D01*
X2928331Y-20676525D02*
X2871188Y-20676525D01*
X2871188Y-20676525D02*
X2842617Y-20662240D01*
X2842617Y-20662240D02*
X2828331Y-20647954D01*
X2828331Y-20647954D02*
X2814045Y-20619382D01*
X2814045Y-20619382D02*
X2814045Y-20533668D01*
X2814045Y-20533668D02*
X2828331Y-20505097D01*
X2828331Y-20505097D02*
X2842617Y-20490811D01*
X2842617Y-20490811D02*
X2871188Y-20476525D01*
X2871188Y-20476525D02*
X2928331Y-20476525D01*
X2928331Y-20476525D02*
X2956903Y-20490811D01*
X3042617Y-20476525D02*
X3156903Y-20476525D01*
X3085474Y-20376525D02*
X3085474Y-20633668D01*
X3085474Y-20633668D02*
X3099760Y-20662240D01*
X3099760Y-20662240D02*
X3128331Y-20676525D01*
X3128331Y-20676525D02*
X3156903Y-20676525D01*
X3299760Y-20676525D02*
X3271189Y-20662240D01*
X3271189Y-20662240D02*
X3256903Y-20647954D01*
X3256903Y-20647954D02*
X3242617Y-20619382D01*
X3242617Y-20619382D02*
X3242617Y-20533668D01*
X3242617Y-20533668D02*
X3256903Y-20505097D01*
X3256903Y-20505097D02*
X3271189Y-20490811D01*
X3271189Y-20490811D02*
X3299760Y-20476525D01*
X3299760Y-20476525D02*
X3342617Y-20476525D01*
X3342617Y-20476525D02*
X3371189Y-20490811D01*
X3371189Y-20490811D02*
X3385475Y-20505097D01*
X3385475Y-20505097D02*
X3399760Y-20533668D01*
X3399760Y-20533668D02*
X3399760Y-20619382D01*
X3399760Y-20619382D02*
X3385475Y-20647954D01*
X3385475Y-20647954D02*
X3371189Y-20662240D01*
X3371189Y-20662240D02*
X3342617Y-20676525D01*
X3342617Y-20676525D02*
X3299760Y-20676525D01*
X3528332Y-20676525D02*
X3528332Y-20476525D01*
X3528332Y-20533668D02*
X3542618Y-20505097D01*
X3542618Y-20505097D02*
X3556904Y-20490811D01*
X3556904Y-20490811D02*
X3585475Y-20476525D01*
X3585475Y-20476525D02*
X3614046Y-20476525D01*
X3642618Y-20705097D02*
X3871189Y-20705097D01*
X4099760Y-20676525D02*
X3928331Y-20676525D01*
X4014046Y-20676525D02*
X4014046Y-20376525D01*
X4014046Y-20376525D02*
X3985474Y-20419382D01*
X3985474Y-20419382D02*
X3956903Y-20447954D01*
X3956903Y-20447954D02*
X3928331Y-20462240D01*
X4356903Y-20376525D02*
X4299760Y-20376525D01*
X4299760Y-20376525D02*
X4271188Y-20390811D01*
X4271188Y-20390811D02*
X4256903Y-20405097D01*
X4256903Y-20405097D02*
X4228331Y-20447954D01*
X4228331Y-20447954D02*
X4214045Y-20505097D01*
X4214045Y-20505097D02*
X4214045Y-20619382D01*
X4214045Y-20619382D02*
X4228331Y-20647954D01*
X4228331Y-20647954D02*
X4242617Y-20662240D01*
X4242617Y-20662240D02*
X4271188Y-20676525D01*
X4271188Y-20676525D02*
X4328331Y-20676525D01*
X4328331Y-20676525D02*
X4356903Y-20662240D01*
X4356903Y-20662240D02*
X4371188Y-20647954D01*
X4371188Y-20647954D02*
X4385474Y-20619382D01*
X4385474Y-20619382D02*
X4385474Y-20547954D01*
X4385474Y-20547954D02*
X4371188Y-20519382D01*
X4371188Y-20519382D02*
X4356903Y-20505097D01*
X4356903Y-20505097D02*
X4328331Y-20490811D01*
X4328331Y-20490811D02*
X4271188Y-20490811D01*
X4271188Y-20490811D02*
X4242617Y-20505097D01*
X4242617Y-20505097D02*
X4228331Y-20519382D01*
X4228331Y-20519382D02*
X4214045Y-20547954D01*
X4514045Y-20476525D02*
X4514045Y-20776525D01*
X4514045Y-20490811D02*
X4542617Y-20476525D01*
X4542617Y-20476525D02*
X4599759Y-20476525D01*
X4599759Y-20476525D02*
X4628331Y-20490811D01*
X4628331Y-20490811D02*
X4642617Y-20505097D01*
X4642617Y-20505097D02*
X4656902Y-20533668D01*
X4656902Y-20533668D02*
X4656902Y-20619382D01*
X4656902Y-20619382D02*
X4642617Y-20647954D01*
X4642617Y-20647954D02*
X4628331Y-20662240D01*
X4628331Y-20662240D02*
X4599759Y-20676525D01*
X4599759Y-20676525D02*
X4542617Y-20676525D01*
X4542617Y-20676525D02*
X4514045Y-20662240D01*
X4714046Y-20705097D02*
X4942617Y-20705097D01*
X5014045Y-20676525D02*
X5014045Y-20376525D01*
X5142617Y-20676525D02*
X5142617Y-20519382D01*
X5142617Y-20519382D02*
X5128331Y-20490811D01*
X5128331Y-20490811D02*
X5099759Y-20476525D01*
X5099759Y-20476525D02*
X5056902Y-20476525D01*
X5056902Y-20476525D02*
X5028331Y-20490811D01*
X5028331Y-20490811D02*
X5014045Y-20505097D01*
X5285474Y-20676525D02*
X5285474Y-20476525D01*
X5285474Y-20376525D02*
X5271188Y-20390811D01*
X5271188Y-20390811D02*
X5285474Y-20405097D01*
X5285474Y-20405097D02*
X5299760Y-20390811D01*
X5299760Y-20390811D02*
X5285474Y-20376525D01*
X5285474Y-20376525D02*
X5285474Y-20405097D01*
X5428331Y-20476525D02*
X5428331Y-20676525D01*
X5428331Y-20505097D02*
X5442617Y-20490811D01*
X5442617Y-20490811D02*
X5471188Y-20476525D01*
X5471188Y-20476525D02*
X5514045Y-20476525D01*
X5514045Y-20476525D02*
X5542617Y-20490811D01*
X5542617Y-20490811D02*
X5556903Y-20519382D01*
X5556903Y-20519382D02*
X5556903Y-20676525D01*
X5828332Y-20476525D02*
X5828332Y-20719382D01*
X5828332Y-20719382D02*
X5814046Y-20747954D01*
X5814046Y-20747954D02*
X5799760Y-20762240D01*
X5799760Y-20762240D02*
X5771189Y-20776525D01*
X5771189Y-20776525D02*
X5728332Y-20776525D01*
X5728332Y-20776525D02*
X5699760Y-20762240D01*
X5828332Y-20662240D02*
X5799760Y-20676525D01*
X5799760Y-20676525D02*
X5742617Y-20676525D01*
X5742617Y-20676525D02*
X5714046Y-20662240D01*
X5714046Y-20662240D02*
X5699760Y-20647954D01*
X5699760Y-20647954D02*
X5685474Y-20619382D01*
X5685474Y-20619382D02*
X5685474Y-20533668D01*
X5685474Y-20533668D02*
X5699760Y-20505097D01*
X5699760Y-20505097D02*
X5714046Y-20490811D01*
X5714046Y-20490811D02*
X5742617Y-20476525D01*
X5742617Y-20476525D02*
X5799760Y-20476525D01*
X5799760Y-20476525D02*
X5828332Y-20490811D01*
X6085475Y-20662240D02*
X6056903Y-20676525D01*
X6056903Y-20676525D02*
X5999761Y-20676525D01*
X5999761Y-20676525D02*
X5971189Y-20662240D01*
X5971189Y-20662240D02*
X5956903Y-20633668D01*
X5956903Y-20633668D02*
X5956903Y-20519382D01*
X5956903Y-20519382D02*
X5971189Y-20490811D01*
X5971189Y-20490811D02*
X5999761Y-20476525D01*
X5999761Y-20476525D02*
X6056903Y-20476525D01*
X6056903Y-20476525D02*
X6085475Y-20490811D01*
X6085475Y-20490811D02*
X6099761Y-20519382D01*
X6099761Y-20519382D02*
X6099761Y-20547954D01*
X6099761Y-20547954D02*
X5956903Y-20576525D01*
X6156904Y-20705097D02*
X6385475Y-20705097D01*
X6499760Y-20676525D02*
X6471189Y-20662240D01*
X6471189Y-20662240D02*
X6456903Y-20633668D01*
X6456903Y-20633668D02*
X6456903Y-20376525D01*
X6656903Y-20676525D02*
X6628332Y-20662240D01*
X6628332Y-20662240D02*
X6614046Y-20647954D01*
X6614046Y-20647954D02*
X6599760Y-20619382D01*
X6599760Y-20619382D02*
X6599760Y-20533668D01*
X6599760Y-20533668D02*
X6614046Y-20505097D01*
X6614046Y-20505097D02*
X6628332Y-20490811D01*
X6628332Y-20490811D02*
X6656903Y-20476525D01*
X6656903Y-20476525D02*
X6699760Y-20476525D01*
X6699760Y-20476525D02*
X6728332Y-20490811D01*
X6728332Y-20490811D02*
X6742618Y-20505097D01*
X6742618Y-20505097D02*
X6756903Y-20533668D01*
X6756903Y-20533668D02*
X6756903Y-20619382D01*
X6756903Y-20619382D02*
X6742618Y-20647954D01*
X6742618Y-20647954D02*
X6728332Y-20662240D01*
X6728332Y-20662240D02*
X6699760Y-20676525D01*
X6699760Y-20676525D02*
X6656903Y-20676525D01*
X7014047Y-20662240D02*
X6985475Y-20676525D01*
X6985475Y-20676525D02*
X6928332Y-20676525D01*
X6928332Y-20676525D02*
X6899761Y-20662240D01*
X6899761Y-20662240D02*
X6885475Y-20647954D01*
X6885475Y-20647954D02*
X6871189Y-20619382D01*
X6871189Y-20619382D02*
X6871189Y-20533668D01*
X6871189Y-20533668D02*
X6885475Y-20505097D01*
X6885475Y-20505097D02*
X6899761Y-20490811D01*
X6899761Y-20490811D02*
X6928332Y-20476525D01*
X6928332Y-20476525D02*
X6985475Y-20476525D01*
X6985475Y-20476525D02*
X7014047Y-20490811D01*
X7142618Y-20676525D02*
X7142618Y-20376525D01*
X7171190Y-20562240D02*
X7256904Y-20676525D01*
X7256904Y-20476525D02*
X7142618Y-20590811D01*
X7703572Y-5184885D02*
X7732143Y-5184885D01*
X7732143Y-5184885D02*
X7760715Y-5199171D01*
X7760715Y-5199171D02*
X7775001Y-5213457D01*
X7775001Y-5213457D02*
X7789286Y-5242028D01*
X7789286Y-5242028D02*
X7803572Y-5299171D01*
X7803572Y-5299171D02*
X7803572Y-5370600D01*
X7803572Y-5370600D02*
X7789286Y-5427742D01*
X7789286Y-5427742D02*
X7775001Y-5456314D01*
X7775001Y-5456314D02*
X7760715Y-5470600D01*
X7760715Y-5470600D02*
X7732143Y-5484885D01*
X7732143Y-5484885D02*
X7703572Y-5484885D01*
X7703572Y-5484885D02*
X7675001Y-5470600D01*
X7675001Y-5470600D02*
X7660715Y-5456314D01*
X7660715Y-5456314D02*
X7646429Y-5427742D01*
X7646429Y-5427742D02*
X7632143Y-5370600D01*
X7632143Y-5370600D02*
X7632143Y-5299171D01*
X7632143Y-5299171D02*
X7646429Y-5242028D01*
X7646429Y-5242028D02*
X7660715Y-5213457D01*
X7660715Y-5213457D02*
X7675001Y-5199171D01*
X7675001Y-5199171D02*
X7703572Y-5184885D01*
X7932143Y-5456314D02*
X7946429Y-5470600D01*
X7946429Y-5470600D02*
X7932143Y-5484885D01*
X7932143Y-5484885D02*
X7917857Y-5470600D01*
X7917857Y-5470600D02*
X7932143Y-5456314D01*
X7932143Y-5456314D02*
X7932143Y-5484885D01*
X8132143Y-5184885D02*
X8160714Y-5184885D01*
X8160714Y-5184885D02*
X8189286Y-5199171D01*
X8189286Y-5199171D02*
X8203572Y-5213457D01*
X8203572Y-5213457D02*
X8217857Y-5242028D01*
X8217857Y-5242028D02*
X8232143Y-5299171D01*
X8232143Y-5299171D02*
X8232143Y-5370600D01*
X8232143Y-5370600D02*
X8217857Y-5427742D01*
X8217857Y-5427742D02*
X8203572Y-5456314D01*
X8203572Y-5456314D02*
X8189286Y-5470600D01*
X8189286Y-5470600D02*
X8160714Y-5484885D01*
X8160714Y-5484885D02*
X8132143Y-5484885D01*
X8132143Y-5484885D02*
X8103572Y-5470600D01*
X8103572Y-5470600D02*
X8089286Y-5456314D01*
X8089286Y-5456314D02*
X8075000Y-5427742D01*
X8075000Y-5427742D02*
X8060714Y-5370600D01*
X8060714Y-5370600D02*
X8060714Y-5299171D01*
X8060714Y-5299171D02*
X8075000Y-5242028D01*
X8075000Y-5242028D02*
X8089286Y-5213457D01*
X8089286Y-5213457D02*
X8103572Y-5199171D01*
X8103572Y-5199171D02*
X8132143Y-5184885D01*
X8517857Y-5484885D02*
X8346428Y-5484885D01*
X8432143Y-5484885D02*
X8432143Y-5184885D01*
X8432143Y-5184885D02*
X8403571Y-5227742D01*
X8403571Y-5227742D02*
X8375000Y-5256314D01*
X8375000Y-5256314D02*
X8346428Y-5270600D01*
X8817857Y-5484885D02*
X8717857Y-5342028D01*
X8646428Y-5484885D02*
X8646428Y-5184885D01*
X8646428Y-5184885D02*
X8760714Y-5184885D01*
X8760714Y-5184885D02*
X8789285Y-5199171D01*
X8789285Y-5199171D02*
X8803571Y-5213457D01*
X8803571Y-5213457D02*
X8817857Y-5242028D01*
X8817857Y-5242028D02*
X8817857Y-5284885D01*
X8817857Y-5284885D02*
X8803571Y-5313457D01*
X8803571Y-5313457D02*
X8789285Y-5327742D01*
X8789285Y-5327742D02*
X8760714Y-5342028D01*
X8760714Y-5342028D02*
X8646428Y-5342028D01*
X1928572Y-2129885D02*
X1928572Y-2329885D01*
X1857143Y-2015600D02*
X1785714Y-2229885D01*
X1785714Y-2229885D02*
X1971429Y-2229885D01*
X2085714Y-2301314D02*
X2100000Y-2315600D01*
X2100000Y-2315600D02*
X2085714Y-2329885D01*
X2085714Y-2329885D02*
X2071428Y-2315600D01*
X2071428Y-2315600D02*
X2085714Y-2301314D01*
X2085714Y-2301314D02*
X2085714Y-2329885D01*
X2200000Y-2029885D02*
X2400000Y-2029885D01*
X2400000Y-2029885D02*
X2271428Y-2329885D01*
X2642857Y-2129885D02*
X2642857Y-2329885D01*
X2514285Y-2129885D02*
X2514285Y-2287028D01*
X2514285Y-2287028D02*
X2528571Y-2315600D01*
X2528571Y-2315600D02*
X2557142Y-2329885D01*
X2557142Y-2329885D02*
X2599999Y-2329885D01*
X2599999Y-2329885D02*
X2628571Y-2315600D01*
X2628571Y-2315600D02*
X2642857Y-2301314D01*
X2885714Y-2172742D02*
X2785714Y-2172742D01*
X2785714Y-2329885D02*
X2785714Y-2029885D01*
X2785714Y-2029885D02*
X2928571Y-2029885D01*
X46184885Y-22735713D02*
X45884885Y-22735713D01*
X45884885Y-22735713D02*
X45884885Y-22621427D01*
X45884885Y-22621427D02*
X45899171Y-22592856D01*
X45899171Y-22592856D02*
X45913457Y-22578570D01*
X45913457Y-22578570D02*
X45942028Y-22564284D01*
X45942028Y-22564284D02*
X45984885Y-22564284D01*
X45984885Y-22564284D02*
X46013457Y-22578570D01*
X46013457Y-22578570D02*
X46027742Y-22592856D01*
X46027742Y-22592856D02*
X46042028Y-22621427D01*
X46042028Y-22621427D02*
X46042028Y-22735713D01*
X46184885Y-22435713D02*
X45884885Y-22435713D01*
X45884885Y-22435713D02*
X46099171Y-22335713D01*
X46099171Y-22335713D02*
X45884885Y-22235713D01*
X45884885Y-22235713D02*
X46184885Y-22235713D01*
X45884885Y-22035713D02*
X45884885Y-21978570D01*
X45884885Y-21978570D02*
X45899171Y-21949999D01*
X45899171Y-21949999D02*
X45927742Y-21921427D01*
X45927742Y-21921427D02*
X45984885Y-21907142D01*
X45984885Y-21907142D02*
X46084885Y-21907142D01*
X46084885Y-21907142D02*
X46142028Y-21921427D01*
X46142028Y-21921427D02*
X46170600Y-21949999D01*
X46170600Y-21949999D02*
X46184885Y-21978570D01*
X46184885Y-21978570D02*
X46184885Y-22035713D01*
X46184885Y-22035713D02*
X46170600Y-22064285D01*
X46170600Y-22064285D02*
X46142028Y-22092856D01*
X46142028Y-22092856D02*
X46084885Y-22107142D01*
X46084885Y-22107142D02*
X45984885Y-22107142D01*
X45984885Y-22107142D02*
X45927742Y-22092856D01*
X45927742Y-22092856D02*
X45899171Y-22064285D01*
X45899171Y-22064285D02*
X45884885Y-22035713D01*
X46170600Y-21792856D02*
X46184885Y-21749999D01*
X46184885Y-21749999D02*
X46184885Y-21678570D01*
X46184885Y-21678570D02*
X46170600Y-21649999D01*
X46170600Y-21649999D02*
X46156314Y-21635713D01*
X46156314Y-21635713D02*
X46127742Y-21621427D01*
X46127742Y-21621427D02*
X46099171Y-21621427D01*
X46099171Y-21621427D02*
X46070600Y-21635713D01*
X46070600Y-21635713D02*
X46056314Y-21649999D01*
X46056314Y-21649999D02*
X46042028Y-21678570D01*
X46042028Y-21678570D02*
X46027742Y-21735713D01*
X46027742Y-21735713D02*
X46013457Y-21764284D01*
X46013457Y-21764284D02*
X45999171Y-21778570D01*
X45999171Y-21778570D02*
X45970600Y-21792856D01*
X45970600Y-21792856D02*
X45942028Y-21792856D01*
X45942028Y-21792856D02*
X45913457Y-21778570D01*
X45913457Y-21778570D02*
X45899171Y-21764284D01*
X45899171Y-21764284D02*
X45884885Y-21735713D01*
X45884885Y-21735713D02*
X45884885Y-21664284D01*
X45884885Y-21664284D02*
X45899171Y-21621427D01*
X46213457Y-21564285D02*
X46213457Y-21335713D01*
X45913457Y-21278571D02*
X45899171Y-21264285D01*
X45899171Y-21264285D02*
X45884885Y-21235714D01*
X45884885Y-21235714D02*
X45884885Y-21164285D01*
X45884885Y-21164285D02*
X45899171Y-21135714D01*
X45899171Y-21135714D02*
X45913457Y-21121428D01*
X45913457Y-21121428D02*
X45942028Y-21107142D01*
X45942028Y-21107142D02*
X45970600Y-21107142D01*
X45970600Y-21107142D02*
X46013457Y-21121428D01*
X46013457Y-21121428D02*
X46184885Y-21292856D01*
X46184885Y-21292856D02*
X46184885Y-21107142D01*
X46099171Y-20992857D02*
X46099171Y-20850000D01*
X46184885Y-21021428D02*
X45884885Y-20921428D01*
X45884885Y-20921428D02*
X46184885Y-20821428D01*
X47357381Y-4436102D02*
X47257381Y-4436102D01*
X47257381Y-4593245D02*
X47257381Y-4293245D01*
X47257381Y-4293245D02*
X47400238Y-4293245D01*
X47614524Y-4436102D02*
X47514524Y-4436102D01*
X47514524Y-4593245D02*
X47514524Y-4293245D01*
X47514524Y-4293245D02*
X47657381Y-4293245D01*
X47943096Y-4564674D02*
X47928810Y-4578960D01*
X47928810Y-4578960D02*
X47885953Y-4593245D01*
X47885953Y-4593245D02*
X47857381Y-4593245D01*
X47857381Y-4593245D02*
X47814524Y-4578960D01*
X47814524Y-4578960D02*
X47785953Y-4550388D01*
X47785953Y-4550388D02*
X47771667Y-4521817D01*
X47771667Y-4521817D02*
X47757381Y-4464674D01*
X47757381Y-4464674D02*
X47757381Y-4421817D01*
X47757381Y-4421817D02*
X47771667Y-4364674D01*
X47771667Y-4364674D02*
X47785953Y-4336102D01*
X47785953Y-4336102D02*
X47814524Y-4307531D01*
X47814524Y-4307531D02*
X47857381Y-4293245D01*
X47857381Y-4293245D02*
X47885953Y-4293245D01*
X47885953Y-4293245D02*
X47928810Y-4307531D01*
X47928810Y-4307531D02*
X47943096Y-4321817D01*
X48000239Y-4621817D02*
X48228810Y-4621817D01*
X48428810Y-4578960D02*
X48400238Y-4593245D01*
X48400238Y-4593245D02*
X48343095Y-4593245D01*
X48343095Y-4593245D02*
X48314524Y-4578960D01*
X48314524Y-4578960D02*
X48300238Y-4564674D01*
X48300238Y-4564674D02*
X48285952Y-4536102D01*
X48285952Y-4536102D02*
X48285952Y-4450388D01*
X48285952Y-4450388D02*
X48300238Y-4421817D01*
X48300238Y-4421817D02*
X48314524Y-4407531D01*
X48314524Y-4407531D02*
X48343095Y-4393245D01*
X48343095Y-4393245D02*
X48400238Y-4393245D01*
X48400238Y-4393245D02*
X48428810Y-4407531D01*
X48600238Y-4593245D02*
X48571667Y-4578960D01*
X48571667Y-4578960D02*
X48557381Y-4564674D01*
X48557381Y-4564674D02*
X48543095Y-4536102D01*
X48543095Y-4536102D02*
X48543095Y-4450388D01*
X48543095Y-4450388D02*
X48557381Y-4421817D01*
X48557381Y-4421817D02*
X48571667Y-4407531D01*
X48571667Y-4407531D02*
X48600238Y-4393245D01*
X48600238Y-4393245D02*
X48643095Y-4393245D01*
X48643095Y-4393245D02*
X48671667Y-4407531D01*
X48671667Y-4407531D02*
X48685953Y-4421817D01*
X48685953Y-4421817D02*
X48700238Y-4450388D01*
X48700238Y-4450388D02*
X48700238Y-4536102D01*
X48700238Y-4536102D02*
X48685953Y-4564674D01*
X48685953Y-4564674D02*
X48671667Y-4578960D01*
X48671667Y-4578960D02*
X48643095Y-4593245D01*
X48643095Y-4593245D02*
X48600238Y-4593245D01*
X48828810Y-4393245D02*
X48828810Y-4593245D01*
X48828810Y-4421817D02*
X48843096Y-4407531D01*
X48843096Y-4407531D02*
X48871667Y-4393245D01*
X48871667Y-4393245D02*
X48914524Y-4393245D01*
X48914524Y-4393245D02*
X48943096Y-4407531D01*
X48943096Y-4407531D02*
X48957382Y-4436102D01*
X48957382Y-4436102D02*
X48957382Y-4593245D01*
X49100239Y-4393245D02*
X49100239Y-4593245D01*
X49100239Y-4421817D02*
X49114525Y-4407531D01*
X49114525Y-4407531D02*
X49143096Y-4393245D01*
X49143096Y-4393245D02*
X49185953Y-4393245D01*
X49185953Y-4393245D02*
X49214525Y-4407531D01*
X49214525Y-4407531D02*
X49228811Y-4436102D01*
X49228811Y-4436102D02*
X49228811Y-4593245D01*
X49485954Y-4578960D02*
X49457382Y-4593245D01*
X49457382Y-4593245D02*
X49400240Y-4593245D01*
X49400240Y-4593245D02*
X49371668Y-4578960D01*
X49371668Y-4578960D02*
X49357382Y-4550388D01*
X49357382Y-4550388D02*
X49357382Y-4436102D01*
X49357382Y-4436102D02*
X49371668Y-4407531D01*
X49371668Y-4407531D02*
X49400240Y-4393245D01*
X49400240Y-4393245D02*
X49457382Y-4393245D01*
X49457382Y-4393245D02*
X49485954Y-4407531D01*
X49485954Y-4407531D02*
X49500240Y-4436102D01*
X49500240Y-4436102D02*
X49500240Y-4464674D01*
X49500240Y-4464674D02*
X49357382Y-4493245D01*
X49757383Y-4578960D02*
X49728811Y-4593245D01*
X49728811Y-4593245D02*
X49671668Y-4593245D01*
X49671668Y-4593245D02*
X49643097Y-4578960D01*
X49643097Y-4578960D02*
X49628811Y-4564674D01*
X49628811Y-4564674D02*
X49614525Y-4536102D01*
X49614525Y-4536102D02*
X49614525Y-4450388D01*
X49614525Y-4450388D02*
X49628811Y-4421817D01*
X49628811Y-4421817D02*
X49643097Y-4407531D01*
X49643097Y-4407531D02*
X49671668Y-4393245D01*
X49671668Y-4393245D02*
X49728811Y-4393245D01*
X49728811Y-4393245D02*
X49757383Y-4407531D01*
X49843097Y-4393245D02*
X49957383Y-4393245D01*
X49885954Y-4293245D02*
X49885954Y-4550388D01*
X49885954Y-4550388D02*
X49900240Y-4578960D01*
X49900240Y-4578960D02*
X49928811Y-4593245D01*
X49928811Y-4593245D02*
X49957383Y-4593245D01*
X50100240Y-4593245D02*
X50071669Y-4578960D01*
X50071669Y-4578960D02*
X50057383Y-4564674D01*
X50057383Y-4564674D02*
X50043097Y-4536102D01*
X50043097Y-4536102D02*
X50043097Y-4450388D01*
X50043097Y-4450388D02*
X50057383Y-4421817D01*
X50057383Y-4421817D02*
X50071669Y-4407531D01*
X50071669Y-4407531D02*
X50100240Y-4393245D01*
X50100240Y-4393245D02*
X50143097Y-4393245D01*
X50143097Y-4393245D02*
X50171669Y-4407531D01*
X50171669Y-4407531D02*
X50185955Y-4421817D01*
X50185955Y-4421817D02*
X50200240Y-4450388D01*
X50200240Y-4450388D02*
X50200240Y-4536102D01*
X50200240Y-4536102D02*
X50185955Y-4564674D01*
X50185955Y-4564674D02*
X50171669Y-4578960D01*
X50171669Y-4578960D02*
X50143097Y-4593245D01*
X50143097Y-4593245D02*
X50100240Y-4593245D01*
X50328812Y-4593245D02*
X50328812Y-4393245D01*
X50328812Y-4450388D02*
X50343098Y-4421817D01*
X50343098Y-4421817D02*
X50357384Y-4407531D01*
X50357384Y-4407531D02*
X50385955Y-4393245D01*
X50385955Y-4393245D02*
X50414526Y-4393245D01*
X50443098Y-4621817D02*
X50671669Y-4621817D01*
X50900240Y-4593245D02*
X50728811Y-4593245D01*
X50814526Y-4593245D02*
X50814526Y-4293245D01*
X50814526Y-4293245D02*
X50785954Y-4336102D01*
X50785954Y-4336102D02*
X50757383Y-4364674D01*
X50757383Y-4364674D02*
X50728811Y-4378960D01*
X51157383Y-4293245D02*
X51100240Y-4293245D01*
X51100240Y-4293245D02*
X51071668Y-4307531D01*
X51071668Y-4307531D02*
X51057383Y-4321817D01*
X51057383Y-4321817D02*
X51028811Y-4364674D01*
X51028811Y-4364674D02*
X51014525Y-4421817D01*
X51014525Y-4421817D02*
X51014525Y-4536102D01*
X51014525Y-4536102D02*
X51028811Y-4564674D01*
X51028811Y-4564674D02*
X51043097Y-4578960D01*
X51043097Y-4578960D02*
X51071668Y-4593245D01*
X51071668Y-4593245D02*
X51128811Y-4593245D01*
X51128811Y-4593245D02*
X51157383Y-4578960D01*
X51157383Y-4578960D02*
X51171668Y-4564674D01*
X51171668Y-4564674D02*
X51185954Y-4536102D01*
X51185954Y-4536102D02*
X51185954Y-4464674D01*
X51185954Y-4464674D02*
X51171668Y-4436102D01*
X51171668Y-4436102D02*
X51157383Y-4421817D01*
X51157383Y-4421817D02*
X51128811Y-4407531D01*
X51128811Y-4407531D02*
X51071668Y-4407531D01*
X51071668Y-4407531D02*
X51043097Y-4421817D01*
X51043097Y-4421817D02*
X51028811Y-4436102D01*
X51028811Y-4436102D02*
X51014525Y-4464674D01*
X51314525Y-4393245D02*
X51314525Y-4693245D01*
X51314525Y-4407531D02*
X51343097Y-4393245D01*
X51343097Y-4393245D02*
X51400239Y-4393245D01*
X51400239Y-4393245D02*
X51428811Y-4407531D01*
X51428811Y-4407531D02*
X51443097Y-4421817D01*
X51443097Y-4421817D02*
X51457382Y-4450388D01*
X51457382Y-4450388D02*
X51457382Y-4536102D01*
X51457382Y-4536102D02*
X51443097Y-4564674D01*
X51443097Y-4564674D02*
X51428811Y-4578960D01*
X51428811Y-4578960D02*
X51400239Y-4593245D01*
X51400239Y-4593245D02*
X51343097Y-4593245D01*
X51343097Y-4593245D02*
X51314525Y-4578960D01*
X51514526Y-4621817D02*
X51743097Y-4621817D01*
X51814525Y-4593245D02*
X51814525Y-4293245D01*
X51943097Y-4593245D02*
X51943097Y-4436102D01*
X51943097Y-4436102D02*
X51928811Y-4407531D01*
X51928811Y-4407531D02*
X51900239Y-4393245D01*
X51900239Y-4393245D02*
X51857382Y-4393245D01*
X51857382Y-4393245D02*
X51828811Y-4407531D01*
X51828811Y-4407531D02*
X51814525Y-4421817D01*
X52085954Y-4593245D02*
X52085954Y-4393245D01*
X52085954Y-4293245D02*
X52071668Y-4307531D01*
X52071668Y-4307531D02*
X52085954Y-4321817D01*
X52085954Y-4321817D02*
X52100240Y-4307531D01*
X52100240Y-4307531D02*
X52085954Y-4293245D01*
X52085954Y-4293245D02*
X52085954Y-4321817D01*
X52228811Y-4393245D02*
X52228811Y-4593245D01*
X52228811Y-4421817D02*
X52243097Y-4407531D01*
X52243097Y-4407531D02*
X52271668Y-4393245D01*
X52271668Y-4393245D02*
X52314525Y-4393245D01*
X52314525Y-4393245D02*
X52343097Y-4407531D01*
X52343097Y-4407531D02*
X52357383Y-4436102D01*
X52357383Y-4436102D02*
X52357383Y-4593245D01*
X52628812Y-4393245D02*
X52628812Y-4636102D01*
X52628812Y-4636102D02*
X52614526Y-4664674D01*
X52614526Y-4664674D02*
X52600240Y-4678960D01*
X52600240Y-4678960D02*
X52571669Y-4693245D01*
X52571669Y-4693245D02*
X52528812Y-4693245D01*
X52528812Y-4693245D02*
X52500240Y-4678960D01*
X52628812Y-4578960D02*
X52600240Y-4593245D01*
X52600240Y-4593245D02*
X52543097Y-4593245D01*
X52543097Y-4593245D02*
X52514526Y-4578960D01*
X52514526Y-4578960D02*
X52500240Y-4564674D01*
X52500240Y-4564674D02*
X52485954Y-4536102D01*
X52485954Y-4536102D02*
X52485954Y-4450388D01*
X52485954Y-4450388D02*
X52500240Y-4421817D01*
X52500240Y-4421817D02*
X52514526Y-4407531D01*
X52514526Y-4407531D02*
X52543097Y-4393245D01*
X52543097Y-4393245D02*
X52600240Y-4393245D01*
X52600240Y-4393245D02*
X52628812Y-4407531D01*
X52885955Y-4578960D02*
X52857383Y-4593245D01*
X52857383Y-4593245D02*
X52800241Y-4593245D01*
X52800241Y-4593245D02*
X52771669Y-4578960D01*
X52771669Y-4578960D02*
X52757383Y-4550388D01*
X52757383Y-4550388D02*
X52757383Y-4436102D01*
X52757383Y-4436102D02*
X52771669Y-4407531D01*
X52771669Y-4407531D02*
X52800241Y-4393245D01*
X52800241Y-4393245D02*
X52857383Y-4393245D01*
X52857383Y-4393245D02*
X52885955Y-4407531D01*
X52885955Y-4407531D02*
X52900241Y-4436102D01*
X52900241Y-4436102D02*
X52900241Y-4464674D01*
X52900241Y-4464674D02*
X52757383Y-4493245D01*
X52957384Y-4621817D02*
X53185955Y-4621817D01*
X53300240Y-4593245D02*
X53271669Y-4578960D01*
X53271669Y-4578960D02*
X53257383Y-4550388D01*
X53257383Y-4550388D02*
X53257383Y-4293245D01*
X53457383Y-4593245D02*
X53428812Y-4578960D01*
X53428812Y-4578960D02*
X53414526Y-4564674D01*
X53414526Y-4564674D02*
X53400240Y-4536102D01*
X53400240Y-4536102D02*
X53400240Y-4450388D01*
X53400240Y-4450388D02*
X53414526Y-4421817D01*
X53414526Y-4421817D02*
X53428812Y-4407531D01*
X53428812Y-4407531D02*
X53457383Y-4393245D01*
X53457383Y-4393245D02*
X53500240Y-4393245D01*
X53500240Y-4393245D02*
X53528812Y-4407531D01*
X53528812Y-4407531D02*
X53543098Y-4421817D01*
X53543098Y-4421817D02*
X53557383Y-4450388D01*
X53557383Y-4450388D02*
X53557383Y-4536102D01*
X53557383Y-4536102D02*
X53543098Y-4564674D01*
X53543098Y-4564674D02*
X53528812Y-4578960D01*
X53528812Y-4578960D02*
X53500240Y-4593245D01*
X53500240Y-4593245D02*
X53457383Y-4593245D01*
X53814527Y-4578960D02*
X53785955Y-4593245D01*
X53785955Y-4593245D02*
X53728812Y-4593245D01*
X53728812Y-4593245D02*
X53700241Y-4578960D01*
X53700241Y-4578960D02*
X53685955Y-4564674D01*
X53685955Y-4564674D02*
X53671669Y-4536102D01*
X53671669Y-4536102D02*
X53671669Y-4450388D01*
X53671669Y-4450388D02*
X53685955Y-4421817D01*
X53685955Y-4421817D02*
X53700241Y-4407531D01*
X53700241Y-4407531D02*
X53728812Y-4393245D01*
X53728812Y-4393245D02*
X53785955Y-4393245D01*
X53785955Y-4393245D02*
X53814527Y-4407531D01*
X53943098Y-4593245D02*
X53943098Y-4293245D01*
X53971670Y-4478960D02*
X54057384Y-4593245D01*
X54057384Y-4393245D02*
X53943098Y-4507531D01*
X29628571Y-19913457D02*
X29642857Y-19899171D01*
X29642857Y-19899171D02*
X29671429Y-19884885D01*
X29671429Y-19884885D02*
X29742857Y-19884885D01*
X29742857Y-19884885D02*
X29771429Y-19899171D01*
X29771429Y-19899171D02*
X29785714Y-19913457D01*
X29785714Y-19913457D02*
X29800000Y-19942028D01*
X29800000Y-19942028D02*
X29800000Y-19970600D01*
X29800000Y-19970600D02*
X29785714Y-20013457D01*
X29785714Y-20013457D02*
X29614286Y-20184885D01*
X29614286Y-20184885D02*
X29800000Y-20184885D01*
X29914285Y-19913457D02*
X29928571Y-19899171D01*
X29928571Y-19899171D02*
X29957143Y-19884885D01*
X29957143Y-19884885D02*
X30028571Y-19884885D01*
X30028571Y-19884885D02*
X30057143Y-19899171D01*
X30057143Y-19899171D02*
X30071428Y-19913457D01*
X30071428Y-19913457D02*
X30085714Y-19942028D01*
X30085714Y-19942028D02*
X30085714Y-19970600D01*
X30085714Y-19970600D02*
X30071428Y-20013457D01*
X30071428Y-20013457D02*
X29900000Y-20184885D01*
X29900000Y-20184885D02*
X30085714Y-20184885D01*
X30342857Y-19984885D02*
X30342857Y-20184885D01*
X30214285Y-19984885D02*
X30214285Y-20142028D01*
X30214285Y-20142028D02*
X30228571Y-20170600D01*
X30228571Y-20170600D02*
X30257142Y-20184885D01*
X30257142Y-20184885D02*
X30299999Y-20184885D01*
X30299999Y-20184885D02*
X30328571Y-20170600D01*
X30328571Y-20170600D02*
X30342857Y-20156314D01*
X30585714Y-20027742D02*
X30485714Y-20027742D01*
X30485714Y-20184885D02*
X30485714Y-19884885D01*
X30485714Y-19884885D02*
X30628571Y-19884885D01*
X30671429Y-20213457D02*
X30900000Y-20213457D01*
X30957142Y-19913457D02*
X30971428Y-19899171D01*
X30971428Y-19899171D02*
X31000000Y-19884885D01*
X31000000Y-19884885D02*
X31071428Y-19884885D01*
X31071428Y-19884885D02*
X31100000Y-19899171D01*
X31100000Y-19899171D02*
X31114285Y-19913457D01*
X31114285Y-19913457D02*
X31128571Y-19942028D01*
X31128571Y-19942028D02*
X31128571Y-19970600D01*
X31128571Y-19970600D02*
X31114285Y-20013457D01*
X31114285Y-20013457D02*
X30942857Y-20184885D01*
X30942857Y-20184885D02*
X31128571Y-20184885D01*
X31399999Y-19884885D02*
X31257142Y-19884885D01*
X31257142Y-19884885D02*
X31242856Y-20027742D01*
X31242856Y-20027742D02*
X31257142Y-20013457D01*
X31257142Y-20013457D02*
X31285714Y-19999171D01*
X31285714Y-19999171D02*
X31357142Y-19999171D01*
X31357142Y-19999171D02*
X31385714Y-20013457D01*
X31385714Y-20013457D02*
X31399999Y-20027742D01*
X31399999Y-20027742D02*
X31414285Y-20056314D01*
X31414285Y-20056314D02*
X31414285Y-20127742D01*
X31414285Y-20127742D02*
X31399999Y-20156314D01*
X31399999Y-20156314D02*
X31385714Y-20170600D01*
X31385714Y-20170600D02*
X31357142Y-20184885D01*
X31357142Y-20184885D02*
X31285714Y-20184885D01*
X31285714Y-20184885D02*
X31257142Y-20170600D01*
X31257142Y-20170600D02*
X31242856Y-20156314D01*
X31499999Y-19884885D02*
X31599999Y-20184885D01*
X31599999Y-20184885D02*
X31699999Y-19884885D01*
X21303572Y-5879885D02*
X21303572Y-6079885D01*
X21232143Y-5765600D02*
X21160714Y-5979885D01*
X21160714Y-5979885D02*
X21346429Y-5979885D01*
X21460714Y-6051314D02*
X21475000Y-6065600D01*
X21475000Y-6065600D02*
X21460714Y-6079885D01*
X21460714Y-6079885D02*
X21446428Y-6065600D01*
X21446428Y-6065600D02*
X21460714Y-6051314D01*
X21460714Y-6051314D02*
X21460714Y-6079885D01*
X21575000Y-5779885D02*
X21775000Y-5779885D01*
X21775000Y-5779885D02*
X21646428Y-6079885D01*
X22017857Y-5879885D02*
X22017857Y-6079885D01*
X21889285Y-5879885D02*
X21889285Y-6037028D01*
X21889285Y-6037028D02*
X21903571Y-6065600D01*
X21903571Y-6065600D02*
X21932142Y-6079885D01*
X21932142Y-6079885D02*
X21974999Y-6079885D01*
X21974999Y-6079885D02*
X22003571Y-6065600D01*
X22003571Y-6065600D02*
X22017857Y-6051314D01*
X22260714Y-5922742D02*
X22160714Y-5922742D01*
X22160714Y-6079885D02*
X22160714Y-5779885D01*
X22160714Y-5779885D02*
X22303571Y-5779885D01*
X21024885Y-5121428D02*
X21224885Y-5121428D01*
X20910600Y-5192856D02*
X21124885Y-5264285D01*
X21124885Y-5264285D02*
X21124885Y-5078570D01*
X21196314Y-4964285D02*
X21210600Y-4949999D01*
X21210600Y-4949999D02*
X21224885Y-4964285D01*
X21224885Y-4964285D02*
X21210600Y-4978571D01*
X21210600Y-4978571D02*
X21196314Y-4964285D01*
X21196314Y-4964285D02*
X21224885Y-4964285D01*
X20924885Y-4849999D02*
X20924885Y-4649999D01*
X20924885Y-4649999D02*
X21224885Y-4778571D01*
X21024885Y-4407143D02*
X21224885Y-4407143D01*
X21024885Y-4535714D02*
X21182028Y-4535714D01*
X21182028Y-4535714D02*
X21210600Y-4521428D01*
X21210600Y-4521428D02*
X21224885Y-4492857D01*
X21224885Y-4492857D02*
X21224885Y-4450000D01*
X21224885Y-4450000D02*
X21210600Y-4421428D01*
X21210600Y-4421428D02*
X21196314Y-4407143D01*
X21067742Y-4164285D02*
X21067742Y-4264285D01*
X21224885Y-4264285D02*
X20924885Y-4264285D01*
X20924885Y-4264285D02*
X20924885Y-4121428D01*
X19687005Y-1717457D02*
X19487005Y-1717457D01*
X19544148Y-1717457D02*
X19515577Y-1703171D01*
X19515577Y-1703171D02*
X19501291Y-1688886D01*
X19501291Y-1688886D02*
X19487005Y-1660314D01*
X19487005Y-1660314D02*
X19487005Y-1631743D01*
X19672720Y-1417457D02*
X19687005Y-1446029D01*
X19687005Y-1446029D02*
X19687005Y-1503172D01*
X19687005Y-1503172D02*
X19672720Y-1531743D01*
X19672720Y-1531743D02*
X19644148Y-1546029D01*
X19644148Y-1546029D02*
X19529862Y-1546029D01*
X19529862Y-1546029D02*
X19501291Y-1531743D01*
X19501291Y-1531743D02*
X19487005Y-1503172D01*
X19487005Y-1503172D02*
X19487005Y-1446029D01*
X19487005Y-1446029D02*
X19501291Y-1417457D01*
X19501291Y-1417457D02*
X19529862Y-1403172D01*
X19529862Y-1403172D02*
X19558434Y-1403172D01*
X19558434Y-1403172D02*
X19587005Y-1546029D01*
X19687005Y-1146029D02*
X19387005Y-1146029D01*
X19672720Y-1146029D02*
X19687005Y-1174600D01*
X19687005Y-1174600D02*
X19687005Y-1231743D01*
X19687005Y-1231743D02*
X19672720Y-1260314D01*
X19672720Y-1260314D02*
X19658434Y-1274600D01*
X19658434Y-1274600D02*
X19629862Y-1288886D01*
X19629862Y-1288886D02*
X19544148Y-1288886D01*
X19544148Y-1288886D02*
X19515577Y-1274600D01*
X19515577Y-1274600D02*
X19501291Y-1260314D01*
X19501291Y-1260314D02*
X19487005Y-1231743D01*
X19487005Y-1231743D02*
X19487005Y-1174600D01*
X19487005Y-1174600D02*
X19501291Y-1146029D01*
X19715577Y-1074600D02*
X19715577Y-846028D01*
X19687005Y-731743D02*
X19672720Y-760314D01*
X19672720Y-760314D02*
X19644148Y-774600D01*
X19644148Y-774600D02*
X19387005Y-774600D01*
X19672720Y-503171D02*
X19687005Y-531743D01*
X19687005Y-531743D02*
X19687005Y-588886D01*
X19687005Y-588886D02*
X19672720Y-617457D01*
X19672720Y-617457D02*
X19644148Y-631743D01*
X19644148Y-631743D02*
X19529862Y-631743D01*
X19529862Y-631743D02*
X19501291Y-617457D01*
X19501291Y-617457D02*
X19487005Y-588886D01*
X19487005Y-588886D02*
X19487005Y-531743D01*
X19487005Y-531743D02*
X19501291Y-503171D01*
X19501291Y-503171D02*
X19529862Y-488886D01*
X19529862Y-488886D02*
X19558434Y-488886D01*
X19558434Y-488886D02*
X19587005Y-631743D01*
X19687005Y-231743D02*
X19387005Y-231743D01*
X19672720Y-231743D02*
X19687005Y-260314D01*
X19687005Y-260314D02*
X19687005Y-317457D01*
X19687005Y-317457D02*
X19672720Y-346028D01*
X19672720Y-346028D02*
X19658434Y-360314D01*
X19658434Y-360314D02*
X19629862Y-374600D01*
X19629862Y-374600D02*
X19544148Y-374600D01*
X19544148Y-374600D02*
X19515577Y-360314D01*
X19515577Y-360314D02*
X19501291Y-346028D01*
X19501291Y-346028D02*
X19487005Y-317457D01*
X19487005Y-317457D02*
X19487005Y-260314D01*
X19487005Y-260314D02*
X19501291Y-231743D01*
X24554885Y-21271428D02*
X24554885Y-21442857D01*
X24554885Y-21357142D02*
X24254885Y-21357142D01*
X24254885Y-21357142D02*
X24297742Y-21385714D01*
X24297742Y-21385714D02*
X24326314Y-21414285D01*
X24326314Y-21414285D02*
X24340600Y-21442857D01*
X24254885Y-21085714D02*
X24254885Y-21057143D01*
X24254885Y-21057143D02*
X24269171Y-21028571D01*
X24269171Y-21028571D02*
X24283457Y-21014286D01*
X24283457Y-21014286D02*
X24312028Y-21000000D01*
X24312028Y-21000000D02*
X24369171Y-20985714D01*
X24369171Y-20985714D02*
X24440600Y-20985714D01*
X24440600Y-20985714D02*
X24497742Y-21000000D01*
X24497742Y-21000000D02*
X24526314Y-21014286D01*
X24526314Y-21014286D02*
X24540600Y-21028571D01*
X24540600Y-21028571D02*
X24554885Y-21057143D01*
X24554885Y-21057143D02*
X24554885Y-21085714D01*
X24554885Y-21085714D02*
X24540600Y-21114286D01*
X24540600Y-21114286D02*
X24526314Y-21128571D01*
X24526314Y-21128571D02*
X24497742Y-21142857D01*
X24497742Y-21142857D02*
X24440600Y-21157143D01*
X24440600Y-21157143D02*
X24369171Y-21157143D01*
X24369171Y-21157143D02*
X24312028Y-21142857D01*
X24312028Y-21142857D02*
X24283457Y-21128571D01*
X24283457Y-21128571D02*
X24269171Y-21114286D01*
X24269171Y-21114286D02*
X24254885Y-21085714D01*
X24354885Y-20857143D02*
X24654885Y-20857143D01*
X24369171Y-20857143D02*
X24354885Y-20828572D01*
X24354885Y-20828572D02*
X24354885Y-20771429D01*
X24354885Y-20771429D02*
X24369171Y-20742857D01*
X24369171Y-20742857D02*
X24383457Y-20728572D01*
X24383457Y-20728572D02*
X24412028Y-20714286D01*
X24412028Y-20714286D02*
X24497742Y-20714286D01*
X24497742Y-20714286D02*
X24526314Y-20728572D01*
X24526314Y-20728572D02*
X24540600Y-20742857D01*
X24540600Y-20742857D02*
X24554885Y-20771429D01*
X24554885Y-20771429D02*
X24554885Y-20828572D01*
X24554885Y-20828572D02*
X24540600Y-20857143D01*
X24397742Y-20485714D02*
X24397742Y-20585714D01*
X24554885Y-20585714D02*
X24254885Y-20585714D01*
X24254885Y-20585714D02*
X24254885Y-20442857D01*
X40309885Y-22800713D02*
X40009885Y-22800713D01*
X40009885Y-22800713D02*
X40009885Y-22686427D01*
X40009885Y-22686427D02*
X40024171Y-22657856D01*
X40024171Y-22657856D02*
X40038457Y-22643570D01*
X40038457Y-22643570D02*
X40067028Y-22629284D01*
X40067028Y-22629284D02*
X40109885Y-22629284D01*
X40109885Y-22629284D02*
X40138457Y-22643570D01*
X40138457Y-22643570D02*
X40152742Y-22657856D01*
X40152742Y-22657856D02*
X40167028Y-22686427D01*
X40167028Y-22686427D02*
X40167028Y-22800713D01*
X40309885Y-22500713D02*
X40009885Y-22500713D01*
X40009885Y-22500713D02*
X40224171Y-22400713D01*
X40224171Y-22400713D02*
X40009885Y-22300713D01*
X40009885Y-22300713D02*
X40309885Y-22300713D01*
X40009885Y-22100713D02*
X40009885Y-22043570D01*
X40009885Y-22043570D02*
X40024171Y-22014999D01*
X40024171Y-22014999D02*
X40052742Y-21986427D01*
X40052742Y-21986427D02*
X40109885Y-21972142D01*
X40109885Y-21972142D02*
X40209885Y-21972142D01*
X40209885Y-21972142D02*
X40267028Y-21986427D01*
X40267028Y-21986427D02*
X40295600Y-22014999D01*
X40295600Y-22014999D02*
X40309885Y-22043570D01*
X40309885Y-22043570D02*
X40309885Y-22100713D01*
X40309885Y-22100713D02*
X40295600Y-22129285D01*
X40295600Y-22129285D02*
X40267028Y-22157856D01*
X40267028Y-22157856D02*
X40209885Y-22172142D01*
X40209885Y-22172142D02*
X40109885Y-22172142D01*
X40109885Y-22172142D02*
X40052742Y-22157856D01*
X40052742Y-22157856D02*
X40024171Y-22129285D01*
X40024171Y-22129285D02*
X40009885Y-22100713D01*
X40295600Y-21857856D02*
X40309885Y-21814999D01*
X40309885Y-21814999D02*
X40309885Y-21743570D01*
X40309885Y-21743570D02*
X40295600Y-21714999D01*
X40295600Y-21714999D02*
X40281314Y-21700713D01*
X40281314Y-21700713D02*
X40252742Y-21686427D01*
X40252742Y-21686427D02*
X40224171Y-21686427D01*
X40224171Y-21686427D02*
X40195600Y-21700713D01*
X40195600Y-21700713D02*
X40181314Y-21714999D01*
X40181314Y-21714999D02*
X40167028Y-21743570D01*
X40167028Y-21743570D02*
X40152742Y-21800713D01*
X40152742Y-21800713D02*
X40138457Y-21829284D01*
X40138457Y-21829284D02*
X40124171Y-21843570D01*
X40124171Y-21843570D02*
X40095600Y-21857856D01*
X40095600Y-21857856D02*
X40067028Y-21857856D01*
X40067028Y-21857856D02*
X40038457Y-21843570D01*
X40038457Y-21843570D02*
X40024171Y-21829284D01*
X40024171Y-21829284D02*
X40009885Y-21800713D01*
X40009885Y-21800713D02*
X40009885Y-21729284D01*
X40009885Y-21729284D02*
X40024171Y-21686427D01*
X40338457Y-21629285D02*
X40338457Y-21400713D01*
X40038457Y-21343571D02*
X40024171Y-21329285D01*
X40024171Y-21329285D02*
X40009885Y-21300714D01*
X40009885Y-21300714D02*
X40009885Y-21229285D01*
X40009885Y-21229285D02*
X40024171Y-21200714D01*
X40024171Y-21200714D02*
X40038457Y-21186428D01*
X40038457Y-21186428D02*
X40067028Y-21172142D01*
X40067028Y-21172142D02*
X40095600Y-21172142D01*
X40095600Y-21172142D02*
X40138457Y-21186428D01*
X40138457Y-21186428D02*
X40309885Y-21357856D01*
X40309885Y-21357856D02*
X40309885Y-21172142D01*
X40224171Y-21057857D02*
X40224171Y-20915000D01*
X40309885Y-21086428D02*
X40009885Y-20986428D01*
X40009885Y-20986428D02*
X40309885Y-20886428D01*
X11771076Y3005894D02*
X11771076Y2763037D01*
X11771076Y2763037D02*
X11785362Y2734465D01*
X11785362Y2734465D02*
X11799648Y2720180D01*
X11799648Y2720180D02*
X11828219Y2705894D01*
X11828219Y2705894D02*
X11885362Y2705894D01*
X11885362Y2705894D02*
X11913933Y2720180D01*
X11913933Y2720180D02*
X11928219Y2734465D01*
X11928219Y2734465D02*
X11942505Y2763037D01*
X11942505Y2763037D02*
X11942505Y3005894D01*
X12071076Y2720180D02*
X12113934Y2705894D01*
X12113934Y2705894D02*
X12185362Y2705894D01*
X12185362Y2705894D02*
X12213934Y2720180D01*
X12213934Y2720180D02*
X12228219Y2734465D01*
X12228219Y2734465D02*
X12242505Y2763037D01*
X12242505Y2763037D02*
X12242505Y2791608D01*
X12242505Y2791608D02*
X12228219Y2820180D01*
X12228219Y2820180D02*
X12213934Y2834465D01*
X12213934Y2834465D02*
X12185362Y2848751D01*
X12185362Y2848751D02*
X12128219Y2863037D01*
X12128219Y2863037D02*
X12099648Y2877322D01*
X12099648Y2877322D02*
X12085362Y2891608D01*
X12085362Y2891608D02*
X12071076Y2920180D01*
X12071076Y2920180D02*
X12071076Y2948751D01*
X12071076Y2948751D02*
X12085362Y2977322D01*
X12085362Y2977322D02*
X12099648Y2991608D01*
X12099648Y2991608D02*
X12128219Y3005894D01*
X12128219Y3005894D02*
X12199648Y3005894D01*
X12199648Y3005894D02*
X12242505Y2991608D01*
X12471076Y2863037D02*
X12513933Y2848751D01*
X12513933Y2848751D02*
X12528219Y2834465D01*
X12528219Y2834465D02*
X12542505Y2805894D01*
X12542505Y2805894D02*
X12542505Y2763037D01*
X12542505Y2763037D02*
X12528219Y2734465D01*
X12528219Y2734465D02*
X12513933Y2720180D01*
X12513933Y2720180D02*
X12485362Y2705894D01*
X12485362Y2705894D02*
X12371076Y2705894D01*
X12371076Y2705894D02*
X12371076Y3005894D01*
X12371076Y3005894D02*
X12471076Y3005894D01*
X12471076Y3005894D02*
X12499648Y2991608D01*
X12499648Y2991608D02*
X12513933Y2977322D01*
X12513933Y2977322D02*
X12528219Y2948751D01*
X12528219Y2948751D02*
X12528219Y2920180D01*
X12528219Y2920180D02*
X12513933Y2891608D01*
X12513933Y2891608D02*
X12499648Y2877322D01*
X12499648Y2877322D02*
X12471076Y2863037D01*
X12471076Y2863037D02*
X12371076Y2863037D01*
X12599648Y2677322D02*
X12828219Y2677322D01*
X13071076Y2734465D02*
X13056790Y2720180D01*
X13056790Y2720180D02*
X13013933Y2705894D01*
X13013933Y2705894D02*
X12985361Y2705894D01*
X12985361Y2705894D02*
X12942504Y2720180D01*
X12942504Y2720180D02*
X12913933Y2748751D01*
X12913933Y2748751D02*
X12899647Y2777322D01*
X12899647Y2777322D02*
X12885361Y2834465D01*
X12885361Y2834465D02*
X12885361Y2877322D01*
X12885361Y2877322D02*
X12899647Y2934465D01*
X12899647Y2934465D02*
X12913933Y2963037D01*
X12913933Y2963037D02*
X12942504Y2991608D01*
X12942504Y2991608D02*
X12985361Y3005894D01*
X12985361Y3005894D02*
X13013933Y3005894D01*
X13013933Y3005894D02*
X13056790Y2991608D01*
X13056790Y2991608D02*
X13071076Y2977322D01*
X13128219Y2677322D02*
X13356790Y2677322D01*
X13428218Y2905894D02*
X13428218Y2605894D01*
X13428218Y2891608D02*
X13456790Y2905894D01*
X13456790Y2905894D02*
X13513932Y2905894D01*
X13513932Y2905894D02*
X13542504Y2891608D01*
X13542504Y2891608D02*
X13556790Y2877322D01*
X13556790Y2877322D02*
X13571075Y2848751D01*
X13571075Y2848751D02*
X13571075Y2763037D01*
X13571075Y2763037D02*
X13556790Y2734465D01*
X13556790Y2734465D02*
X13542504Y2720180D01*
X13542504Y2720180D02*
X13513932Y2705894D01*
X13513932Y2705894D02*
X13456790Y2705894D01*
X13456790Y2705894D02*
X13428218Y2720180D01*
X13742504Y2705894D02*
X13713933Y2720180D01*
X13713933Y2720180D02*
X13699647Y2734465D01*
X13699647Y2734465D02*
X13685361Y2763037D01*
X13685361Y2763037D02*
X13685361Y2848751D01*
X13685361Y2848751D02*
X13699647Y2877322D01*
X13699647Y2877322D02*
X13713933Y2891608D01*
X13713933Y2891608D02*
X13742504Y2905894D01*
X13742504Y2905894D02*
X13785361Y2905894D01*
X13785361Y2905894D02*
X13813933Y2891608D01*
X13813933Y2891608D02*
X13828219Y2877322D01*
X13828219Y2877322D02*
X13842504Y2848751D01*
X13842504Y2848751D02*
X13842504Y2763037D01*
X13842504Y2763037D02*
X13828219Y2734465D01*
X13828219Y2734465D02*
X13813933Y2720180D01*
X13813933Y2720180D02*
X13785361Y2705894D01*
X13785361Y2705894D02*
X13742504Y2705894D01*
X13942505Y2905894D02*
X13999648Y2705894D01*
X13999648Y2705894D02*
X14056790Y2848751D01*
X14056790Y2848751D02*
X14113933Y2705894D01*
X14113933Y2705894D02*
X14171076Y2905894D01*
X14399648Y2720180D02*
X14371076Y2705894D01*
X14371076Y2705894D02*
X14313934Y2705894D01*
X14313934Y2705894D02*
X14285362Y2720180D01*
X14285362Y2720180D02*
X14271076Y2748751D01*
X14271076Y2748751D02*
X14271076Y2863037D01*
X14271076Y2863037D02*
X14285362Y2891608D01*
X14285362Y2891608D02*
X14313934Y2905894D01*
X14313934Y2905894D02*
X14371076Y2905894D01*
X14371076Y2905894D02*
X14399648Y2891608D01*
X14399648Y2891608D02*
X14413934Y2863037D01*
X14413934Y2863037D02*
X14413934Y2834465D01*
X14413934Y2834465D02*
X14271076Y2805894D01*
X14542505Y2705894D02*
X14542505Y2905894D01*
X14542505Y2848751D02*
X14556791Y2877322D01*
X14556791Y2877322D02*
X14571077Y2891608D01*
X14571077Y2891608D02*
X14599648Y2905894D01*
X14599648Y2905894D02*
X14628219Y2905894D01*
X14656791Y2677322D02*
X14885362Y2677322D01*
X14999647Y2705894D02*
X14971076Y2720180D01*
X14971076Y2720180D02*
X14956790Y2734465D01*
X14956790Y2734465D02*
X14942504Y2763037D01*
X14942504Y2763037D02*
X14942504Y2848751D01*
X14942504Y2848751D02*
X14956790Y2877322D01*
X14956790Y2877322D02*
X14971076Y2891608D01*
X14971076Y2891608D02*
X14999647Y2905894D01*
X14999647Y2905894D02*
X15042504Y2905894D01*
X15042504Y2905894D02*
X15071076Y2891608D01*
X15071076Y2891608D02*
X15085362Y2877322D01*
X15085362Y2877322D02*
X15099647Y2848751D01*
X15099647Y2848751D02*
X15099647Y2763037D01*
X15099647Y2763037D02*
X15085362Y2734465D01*
X15085362Y2734465D02*
X15071076Y2720180D01*
X15071076Y2720180D02*
X15042504Y2705894D01*
X15042504Y2705894D02*
X14999647Y2705894D01*
X15228219Y2905894D02*
X15228219Y2705894D01*
X15228219Y2877322D02*
X15242505Y2891608D01*
X15242505Y2891608D02*
X15271076Y2905894D01*
X15271076Y2905894D02*
X15313933Y2905894D01*
X15313933Y2905894D02*
X15342505Y2891608D01*
X15342505Y2891608D02*
X15356791Y2863037D01*
X15356791Y2863037D02*
X15356791Y2705894D01*
X15542505Y2705894D02*
X15513934Y2720180D01*
X15513934Y2720180D02*
X15499648Y2748751D01*
X15499648Y2748751D02*
X15499648Y3005894D01*
X15628220Y2905894D02*
X15699648Y2705894D01*
X15771077Y2905894D02*
X15699648Y2705894D01*
X15699648Y2705894D02*
X15671077Y2634465D01*
X15671077Y2634465D02*
X15656791Y2620180D01*
X15656791Y2620180D02*
X15628220Y2605894D01*
X15813934Y2677322D02*
X16042505Y2677322D01*
X16242505Y2720180D02*
X16213933Y2705894D01*
X16213933Y2705894D02*
X16156790Y2705894D01*
X16156790Y2705894D02*
X16128219Y2720180D01*
X16128219Y2720180D02*
X16113933Y2734465D01*
X16113933Y2734465D02*
X16099647Y2763037D01*
X16099647Y2763037D02*
X16099647Y2848751D01*
X16099647Y2848751D02*
X16113933Y2877322D01*
X16113933Y2877322D02*
X16128219Y2891608D01*
X16128219Y2891608D02*
X16156790Y2905894D01*
X16156790Y2905894D02*
X16213933Y2905894D01*
X16213933Y2905894D02*
X16242505Y2891608D01*
X16413933Y2705894D02*
X16385362Y2720180D01*
X16385362Y2720180D02*
X16371076Y2734465D01*
X16371076Y2734465D02*
X16356790Y2763037D01*
X16356790Y2763037D02*
X16356790Y2848751D01*
X16356790Y2848751D02*
X16371076Y2877322D01*
X16371076Y2877322D02*
X16385362Y2891608D01*
X16385362Y2891608D02*
X16413933Y2905894D01*
X16413933Y2905894D02*
X16456790Y2905894D01*
X16456790Y2905894D02*
X16485362Y2891608D01*
X16485362Y2891608D02*
X16499648Y2877322D01*
X16499648Y2877322D02*
X16513933Y2848751D01*
X16513933Y2848751D02*
X16513933Y2763037D01*
X16513933Y2763037D02*
X16499648Y2734465D01*
X16499648Y2734465D02*
X16485362Y2720180D01*
X16485362Y2720180D02*
X16456790Y2705894D01*
X16456790Y2705894D02*
X16413933Y2705894D01*
X16642505Y2905894D02*
X16642505Y2705894D01*
X16642505Y2877322D02*
X16656791Y2891608D01*
X16656791Y2891608D02*
X16685362Y2905894D01*
X16685362Y2905894D02*
X16728219Y2905894D01*
X16728219Y2905894D02*
X16756791Y2891608D01*
X16756791Y2891608D02*
X16771077Y2863037D01*
X16771077Y2863037D02*
X16771077Y2705894D01*
X16913934Y2905894D02*
X16913934Y2705894D01*
X16913934Y2877322D02*
X16928220Y2891608D01*
X16928220Y2891608D02*
X16956791Y2905894D01*
X16956791Y2905894D02*
X16999648Y2905894D01*
X16999648Y2905894D02*
X17028220Y2891608D01*
X17028220Y2891608D02*
X17042506Y2863037D01*
X17042506Y2863037D02*
X17042506Y2705894D01*
X17299649Y2720180D02*
X17271077Y2705894D01*
X17271077Y2705894D02*
X17213935Y2705894D01*
X17213935Y2705894D02*
X17185363Y2720180D01*
X17185363Y2720180D02*
X17171077Y2748751D01*
X17171077Y2748751D02*
X17171077Y2863037D01*
X17171077Y2863037D02*
X17185363Y2891608D01*
X17185363Y2891608D02*
X17213935Y2905894D01*
X17213935Y2905894D02*
X17271077Y2905894D01*
X17271077Y2905894D02*
X17299649Y2891608D01*
X17299649Y2891608D02*
X17313935Y2863037D01*
X17313935Y2863037D02*
X17313935Y2834465D01*
X17313935Y2834465D02*
X17171077Y2805894D01*
X17571078Y2720180D02*
X17542506Y2705894D01*
X17542506Y2705894D02*
X17485363Y2705894D01*
X17485363Y2705894D02*
X17456792Y2720180D01*
X17456792Y2720180D02*
X17442506Y2734465D01*
X17442506Y2734465D02*
X17428220Y2763037D01*
X17428220Y2763037D02*
X17428220Y2848751D01*
X17428220Y2848751D02*
X17442506Y2877322D01*
X17442506Y2877322D02*
X17456792Y2891608D01*
X17456792Y2891608D02*
X17485363Y2905894D01*
X17485363Y2905894D02*
X17542506Y2905894D01*
X17542506Y2905894D02*
X17571078Y2891608D01*
X17656792Y2905894D02*
X17771078Y2905894D01*
X17699649Y3005894D02*
X17699649Y2748751D01*
X17699649Y2748751D02*
X17713935Y2720180D01*
X17713935Y2720180D02*
X17742506Y2705894D01*
X17742506Y2705894D02*
X17771078Y2705894D01*
X17913935Y2705894D02*
X17885364Y2720180D01*
X17885364Y2720180D02*
X17871078Y2734465D01*
X17871078Y2734465D02*
X17856792Y2763037D01*
X17856792Y2763037D02*
X17856792Y2848751D01*
X17856792Y2848751D02*
X17871078Y2877322D01*
X17871078Y2877322D02*
X17885364Y2891608D01*
X17885364Y2891608D02*
X17913935Y2905894D01*
X17913935Y2905894D02*
X17956792Y2905894D01*
X17956792Y2905894D02*
X17985364Y2891608D01*
X17985364Y2891608D02*
X17999650Y2877322D01*
X17999650Y2877322D02*
X18013935Y2848751D01*
X18013935Y2848751D02*
X18013935Y2763037D01*
X18013935Y2763037D02*
X17999650Y2734465D01*
X17999650Y2734465D02*
X17985364Y2720180D01*
X17985364Y2720180D02*
X17956792Y2705894D01*
X17956792Y2705894D02*
X17913935Y2705894D01*
X18142507Y2705894D02*
X18142507Y2905894D01*
X18142507Y2848751D02*
X18156793Y2877322D01*
X18156793Y2877322D02*
X18171079Y2891608D01*
X18171079Y2891608D02*
X18199650Y2905894D01*
X18199650Y2905894D02*
X18228221Y2905894D01*
X3764286Y-6609885D02*
X3764286Y-6309885D01*
X3907143Y-6609885D02*
X3907143Y-6309885D01*
X3907143Y-6309885D02*
X4078572Y-6609885D01*
X4078572Y-6609885D02*
X4078572Y-6309885D01*
X4207143Y-6524171D02*
X4350001Y-6524171D01*
X4178572Y-6609885D02*
X4278572Y-6309885D01*
X4278572Y-6309885D02*
X4378572Y-6609885D01*
X4635715Y-6609885D02*
X4464286Y-6609885D01*
X4550001Y-6609885D02*
X4550001Y-6309885D01*
X4550001Y-6309885D02*
X4521429Y-6352742D01*
X4521429Y-6352742D02*
X4492858Y-6381314D01*
X4492858Y-6381314D02*
X4464286Y-6395600D01*
X4807143Y-6438457D02*
X4778572Y-6424171D01*
X4778572Y-6424171D02*
X4764286Y-6409885D01*
X4764286Y-6409885D02*
X4750000Y-6381314D01*
X4750000Y-6381314D02*
X4750000Y-6367028D01*
X4750000Y-6367028D02*
X4764286Y-6338457D01*
X4764286Y-6338457D02*
X4778572Y-6324171D01*
X4778572Y-6324171D02*
X4807143Y-6309885D01*
X4807143Y-6309885D02*
X4864286Y-6309885D01*
X4864286Y-6309885D02*
X4892858Y-6324171D01*
X4892858Y-6324171D02*
X4907143Y-6338457D01*
X4907143Y-6338457D02*
X4921429Y-6367028D01*
X4921429Y-6367028D02*
X4921429Y-6381314D01*
X4921429Y-6381314D02*
X4907143Y-6409885D01*
X4907143Y-6409885D02*
X4892858Y-6424171D01*
X4892858Y-6424171D02*
X4864286Y-6438457D01*
X4864286Y-6438457D02*
X4807143Y-6438457D01*
X4807143Y-6438457D02*
X4778572Y-6452742D01*
X4778572Y-6452742D02*
X4764286Y-6467028D01*
X4764286Y-6467028D02*
X4750000Y-6495600D01*
X4750000Y-6495600D02*
X4750000Y-6552742D01*
X4750000Y-6552742D02*
X4764286Y-6581314D01*
X4764286Y-6581314D02*
X4778572Y-6595600D01*
X4778572Y-6595600D02*
X4807143Y-6609885D01*
X4807143Y-6609885D02*
X4864286Y-6609885D01*
X4864286Y-6609885D02*
X4892858Y-6595600D01*
X4892858Y-6595600D02*
X4907143Y-6581314D01*
X4907143Y-6581314D02*
X4921429Y-6552742D01*
X4921429Y-6552742D02*
X4921429Y-6495600D01*
X4921429Y-6495600D02*
X4907143Y-6467028D01*
X4907143Y-6467028D02*
X4892858Y-6452742D01*
X4892858Y-6452742D02*
X4864286Y-6438457D01*
X5107143Y-6309885D02*
X5135714Y-6309885D01*
X5135714Y-6309885D02*
X5164286Y-6324171D01*
X5164286Y-6324171D02*
X5178572Y-6338457D01*
X5178572Y-6338457D02*
X5192857Y-6367028D01*
X5192857Y-6367028D02*
X5207143Y-6424171D01*
X5207143Y-6424171D02*
X5207143Y-6495600D01*
X5207143Y-6495600D02*
X5192857Y-6552742D01*
X5192857Y-6552742D02*
X5178572Y-6581314D01*
X5178572Y-6581314D02*
X5164286Y-6595600D01*
X5164286Y-6595600D02*
X5135714Y-6609885D01*
X5135714Y-6609885D02*
X5107143Y-6609885D01*
X5107143Y-6609885D02*
X5078572Y-6595600D01*
X5078572Y-6595600D02*
X5064286Y-6581314D01*
X5064286Y-6581314D02*
X5050000Y-6552742D01*
X5050000Y-6552742D02*
X5035714Y-6495600D01*
X5035714Y-6495600D02*
X5035714Y-6424171D01*
X5035714Y-6424171D02*
X5050000Y-6367028D01*
X5050000Y-6367028D02*
X5064286Y-6338457D01*
X5064286Y-6338457D02*
X5078572Y-6324171D01*
X5078572Y-6324171D02*
X5107143Y-6309885D01*
X5321428Y-6524171D02*
X5464286Y-6524171D01*
X5292857Y-6609885D02*
X5392857Y-6309885D01*
X5392857Y-6309885D02*
X5492857Y-6609885D01*
X5564286Y-6309885D02*
X5750000Y-6309885D01*
X5750000Y-6309885D02*
X5650000Y-6424171D01*
X5650000Y-6424171D02*
X5692857Y-6424171D01*
X5692857Y-6424171D02*
X5721429Y-6438457D01*
X5721429Y-6438457D02*
X5735714Y-6452742D01*
X5735714Y-6452742D02*
X5750000Y-6481314D01*
X5750000Y-6481314D02*
X5750000Y-6552742D01*
X5750000Y-6552742D02*
X5735714Y-6581314D01*
X5735714Y-6581314D02*
X5721429Y-6595600D01*
X5721429Y-6595600D02*
X5692857Y-6609885D01*
X5692857Y-6609885D02*
X5607143Y-6609885D01*
X5607143Y-6609885D02*
X5578571Y-6595600D01*
X5578571Y-6595600D02*
X5564286Y-6581314D01*
X16984445Y-9226985D02*
X17227302Y-9226985D01*
X17227302Y-9226985D02*
X17255874Y-9212699D01*
X17255874Y-9212699D02*
X17270160Y-9198414D01*
X17270160Y-9198414D02*
X17284445Y-9169842D01*
X17284445Y-9169842D02*
X17284445Y-9112699D01*
X17284445Y-9112699D02*
X17270160Y-9084128D01*
X17270160Y-9084128D02*
X17255874Y-9069842D01*
X17255874Y-9069842D02*
X17227302Y-9055556D01*
X17227302Y-9055556D02*
X16984445Y-9055556D01*
X17270160Y-8926985D02*
X17284445Y-8884128D01*
X17284445Y-8884128D02*
X17284445Y-8812699D01*
X17284445Y-8812699D02*
X17270160Y-8784128D01*
X17270160Y-8784128D02*
X17255874Y-8769842D01*
X17255874Y-8769842D02*
X17227302Y-8755556D01*
X17227302Y-8755556D02*
X17198731Y-8755556D01*
X17198731Y-8755556D02*
X17170160Y-8769842D01*
X17170160Y-8769842D02*
X17155874Y-8784128D01*
X17155874Y-8784128D02*
X17141588Y-8812699D01*
X17141588Y-8812699D02*
X17127302Y-8869842D01*
X17127302Y-8869842D02*
X17113017Y-8898413D01*
X17113017Y-8898413D02*
X17098731Y-8912699D01*
X17098731Y-8912699D02*
X17070160Y-8926985D01*
X17070160Y-8926985D02*
X17041588Y-8926985D01*
X17041588Y-8926985D02*
X17013017Y-8912699D01*
X17013017Y-8912699D02*
X16998731Y-8898413D01*
X16998731Y-8898413D02*
X16984445Y-8869842D01*
X16984445Y-8869842D02*
X16984445Y-8798413D01*
X16984445Y-8798413D02*
X16998731Y-8755556D01*
X17127302Y-8526985D02*
X17141588Y-8484128D01*
X17141588Y-8484128D02*
X17155874Y-8469842D01*
X17155874Y-8469842D02*
X17184445Y-8455556D01*
X17184445Y-8455556D02*
X17227302Y-8455556D01*
X17227302Y-8455556D02*
X17255874Y-8469842D01*
X17255874Y-8469842D02*
X17270160Y-8484128D01*
X17270160Y-8484128D02*
X17284445Y-8512699D01*
X17284445Y-8512699D02*
X17284445Y-8626985D01*
X17284445Y-8626985D02*
X16984445Y-8626985D01*
X16984445Y-8626985D02*
X16984445Y-8526985D01*
X16984445Y-8526985D02*
X16998731Y-8498414D01*
X16998731Y-8498414D02*
X17013017Y-8484128D01*
X17013017Y-8484128D02*
X17041588Y-8469842D01*
X17041588Y-8469842D02*
X17070160Y-8469842D01*
X17070160Y-8469842D02*
X17098731Y-8484128D01*
X17098731Y-8484128D02*
X17113017Y-8498414D01*
X17113017Y-8498414D02*
X17127302Y-8526985D01*
X17127302Y-8526985D02*
X17127302Y-8626985D01*
X17284445Y-8184128D02*
X17284445Y-8326985D01*
X17284445Y-8326985D02*
X16984445Y-8326985D01*
X17255874Y-7912699D02*
X17270160Y-7926985D01*
X17270160Y-7926985D02*
X17284445Y-7969842D01*
X17284445Y-7969842D02*
X17284445Y-7998414D01*
X17284445Y-7998414D02*
X17270160Y-8041271D01*
X17270160Y-8041271D02*
X17241588Y-8069842D01*
X17241588Y-8069842D02*
X17213017Y-8084128D01*
X17213017Y-8084128D02*
X17155874Y-8098414D01*
X17155874Y-8098414D02*
X17113017Y-8098414D01*
X17113017Y-8098414D02*
X17055874Y-8084128D01*
X17055874Y-8084128D02*
X17027302Y-8069842D01*
X17027302Y-8069842D02*
X16998731Y-8041271D01*
X16998731Y-8041271D02*
X16984445Y-7998414D01*
X16984445Y-7998414D02*
X16984445Y-7969842D01*
X16984445Y-7969842D02*
X16998731Y-7926985D01*
X16998731Y-7926985D02*
X17013017Y-7912699D01*
X16984445Y-7655557D02*
X16984445Y-7712699D01*
X16984445Y-7712699D02*
X16998731Y-7741271D01*
X16998731Y-7741271D02*
X17013017Y-7755557D01*
X17013017Y-7755557D02*
X17055874Y-7784128D01*
X17055874Y-7784128D02*
X17113017Y-7798414D01*
X17113017Y-7798414D02*
X17227302Y-7798414D01*
X17227302Y-7798414D02*
X17255874Y-7784128D01*
X17255874Y-7784128D02*
X17270160Y-7769842D01*
X17270160Y-7769842D02*
X17284445Y-7741271D01*
X17284445Y-7741271D02*
X17284445Y-7684128D01*
X17284445Y-7684128D02*
X17270160Y-7655557D01*
X17270160Y-7655557D02*
X17255874Y-7641271D01*
X17255874Y-7641271D02*
X17227302Y-7626985D01*
X17227302Y-7626985D02*
X17155874Y-7626985D01*
X17155874Y-7626985D02*
X17127302Y-7641271D01*
X17127302Y-7641271D02*
X17113017Y-7655557D01*
X17113017Y-7655557D02*
X17098731Y-7684128D01*
X17098731Y-7684128D02*
X17098731Y-7741271D01*
X17098731Y-7741271D02*
X17113017Y-7769842D01*
X17113017Y-7769842D02*
X17127302Y-7784128D01*
X17127302Y-7784128D02*
X17155874Y-7798414D01*
X17170160Y-7498414D02*
X17170160Y-7269843D01*
X17013017Y-7141271D02*
X16998731Y-7126985D01*
X16998731Y-7126985D02*
X16984445Y-7098414D01*
X16984445Y-7098414D02*
X16984445Y-7026985D01*
X16984445Y-7026985D02*
X16998731Y-6998414D01*
X16998731Y-6998414D02*
X17013017Y-6984128D01*
X17013017Y-6984128D02*
X17041588Y-6969842D01*
X17041588Y-6969842D02*
X17070160Y-6969842D01*
X17070160Y-6969842D02*
X17113017Y-6984128D01*
X17113017Y-6984128D02*
X17284445Y-7155556D01*
X17284445Y-7155556D02*
X17284445Y-6969842D01*
X17284445Y-6841271D02*
X16984445Y-6841271D01*
X16984445Y-6841271D02*
X16984445Y-6726985D01*
X16984445Y-6726985D02*
X16998731Y-6698414D01*
X16998731Y-6698414D02*
X17013017Y-6684128D01*
X17013017Y-6684128D02*
X17041588Y-6669842D01*
X17041588Y-6669842D02*
X17084445Y-6669842D01*
X17084445Y-6669842D02*
X17113017Y-6684128D01*
X17113017Y-6684128D02*
X17127302Y-6698414D01*
X17127302Y-6698414D02*
X17141588Y-6726985D01*
X17141588Y-6726985D02*
X17141588Y-6841271D01*
X16984445Y-6412700D02*
X16984445Y-6469842D01*
X16984445Y-6469842D02*
X16998731Y-6498414D01*
X16998731Y-6498414D02*
X17013017Y-6512700D01*
X17013017Y-6512700D02*
X17055874Y-6541271D01*
X17055874Y-6541271D02*
X17113017Y-6555557D01*
X17113017Y-6555557D02*
X17227302Y-6555557D01*
X17227302Y-6555557D02*
X17255874Y-6541271D01*
X17255874Y-6541271D02*
X17270160Y-6526985D01*
X17270160Y-6526985D02*
X17284445Y-6498414D01*
X17284445Y-6498414D02*
X17284445Y-6441271D01*
X17284445Y-6441271D02*
X17270160Y-6412700D01*
X17270160Y-6412700D02*
X17255874Y-6398414D01*
X17255874Y-6398414D02*
X17227302Y-6384128D01*
X17227302Y-6384128D02*
X17155874Y-6384128D01*
X17155874Y-6384128D02*
X17127302Y-6398414D01*
X17127302Y-6398414D02*
X17113017Y-6412700D01*
X17113017Y-6412700D02*
X17098731Y-6441271D01*
X17098731Y-6441271D02*
X17098731Y-6498414D01*
X17098731Y-6498414D02*
X17113017Y-6526985D01*
X17113017Y-6526985D02*
X17127302Y-6541271D01*
X17127302Y-6541271D02*
X17155874Y-6555557D01*
X18978572Y-22454885D02*
X18978572Y-22654885D01*
X18907143Y-22340600D02*
X18835714Y-22554885D01*
X18835714Y-22554885D02*
X19021429Y-22554885D01*
X19135714Y-22626314D02*
X19150000Y-22640600D01*
X19150000Y-22640600D02*
X19135714Y-22654885D01*
X19135714Y-22654885D02*
X19121428Y-22640600D01*
X19121428Y-22640600D02*
X19135714Y-22626314D01*
X19135714Y-22626314D02*
X19135714Y-22654885D01*
X19250000Y-22354885D02*
X19450000Y-22354885D01*
X19450000Y-22354885D02*
X19321428Y-22654885D01*
X19692857Y-22454885D02*
X19692857Y-22654885D01*
X19564285Y-22454885D02*
X19564285Y-22612028D01*
X19564285Y-22612028D02*
X19578571Y-22640600D01*
X19578571Y-22640600D02*
X19607142Y-22654885D01*
X19607142Y-22654885D02*
X19649999Y-22654885D01*
X19649999Y-22654885D02*
X19678571Y-22640600D01*
X19678571Y-22640600D02*
X19692857Y-22626314D01*
X19935714Y-22497742D02*
X19835714Y-22497742D01*
X19835714Y-22654885D02*
X19835714Y-22354885D01*
X19835714Y-22354885D02*
X19978571Y-22354885D01*
X23325358Y-4109885D02*
X23496787Y-4109885D01*
X23411072Y-4409885D02*
X23411072Y-4109885D01*
X23596786Y-4409885D02*
X23596786Y-4109885D01*
X23596786Y-4109885D02*
X23711072Y-4109885D01*
X23711072Y-4109885D02*
X23739643Y-4124171D01*
X23739643Y-4124171D02*
X23753929Y-4138457D01*
X23753929Y-4138457D02*
X23768215Y-4167028D01*
X23768215Y-4167028D02*
X23768215Y-4209885D01*
X23768215Y-4209885D02*
X23753929Y-4238457D01*
X23753929Y-4238457D02*
X23739643Y-4252742D01*
X23739643Y-4252742D02*
X23711072Y-4267028D01*
X23711072Y-4267028D02*
X23596786Y-4267028D01*
X24025358Y-4209885D02*
X24025358Y-4409885D01*
X23953929Y-4095600D02*
X23882500Y-4309885D01*
X23882500Y-4309885D02*
X24068215Y-4309885D01*
X24239643Y-4109885D02*
X24268214Y-4109885D01*
X24268214Y-4109885D02*
X24296786Y-4124171D01*
X24296786Y-4124171D02*
X24311072Y-4138457D01*
X24311072Y-4138457D02*
X24325357Y-4167028D01*
X24325357Y-4167028D02*
X24339643Y-4224171D01*
X24339643Y-4224171D02*
X24339643Y-4295600D01*
X24339643Y-4295600D02*
X24325357Y-4352742D01*
X24325357Y-4352742D02*
X24311072Y-4381314D01*
X24311072Y-4381314D02*
X24296786Y-4395600D01*
X24296786Y-4395600D02*
X24268214Y-4409885D01*
X24268214Y-4409885D02*
X24239643Y-4409885D01*
X24239643Y-4409885D02*
X24211072Y-4395600D01*
X24211072Y-4395600D02*
X24196786Y-4381314D01*
X24196786Y-4381314D02*
X24182500Y-4352742D01*
X24182500Y-4352742D02*
X24168214Y-4295600D01*
X24168214Y-4295600D02*
X24168214Y-4224171D01*
X24168214Y-4224171D02*
X24182500Y-4167028D01*
X24182500Y-4167028D02*
X24196786Y-4138457D01*
X24196786Y-4138457D02*
X24211072Y-4124171D01*
X24211072Y-4124171D02*
X24239643Y-4109885D01*
X24611071Y-4109885D02*
X24468214Y-4109885D01*
X24468214Y-4109885D02*
X24453928Y-4252742D01*
X24453928Y-4252742D02*
X24468214Y-4238457D01*
X24468214Y-4238457D02*
X24496786Y-4224171D01*
X24496786Y-4224171D02*
X24568214Y-4224171D01*
X24568214Y-4224171D02*
X24596786Y-4238457D01*
X24596786Y-4238457D02*
X24611071Y-4252742D01*
X24611071Y-4252742D02*
X24625357Y-4281314D01*
X24625357Y-4281314D02*
X24625357Y-4352742D01*
X24625357Y-4352742D02*
X24611071Y-4381314D01*
X24611071Y-4381314D02*
X24596786Y-4395600D01*
X24596786Y-4395600D02*
X24568214Y-4409885D01*
X24568214Y-4409885D02*
X24496786Y-4409885D01*
X24496786Y-4409885D02*
X24468214Y-4395600D01*
X24468214Y-4395600D02*
X24453928Y-4381314D01*
X24725357Y-4109885D02*
X24925357Y-4109885D01*
X24925357Y-4109885D02*
X24796785Y-4409885D01*
X36692857Y-17659885D02*
X36521428Y-17659885D01*
X36607143Y-17659885D02*
X36607143Y-17359885D01*
X36607143Y-17359885D02*
X36578571Y-17402742D01*
X36578571Y-17402742D02*
X36550000Y-17431314D01*
X36550000Y-17431314D02*
X36521428Y-17445600D01*
X36878571Y-17359885D02*
X36907142Y-17359885D01*
X36907142Y-17359885D02*
X36935714Y-17374171D01*
X36935714Y-17374171D02*
X36950000Y-17388457D01*
X36950000Y-17388457D02*
X36964285Y-17417028D01*
X36964285Y-17417028D02*
X36978571Y-17474171D01*
X36978571Y-17474171D02*
X36978571Y-17545600D01*
X36978571Y-17545600D02*
X36964285Y-17602742D01*
X36964285Y-17602742D02*
X36950000Y-17631314D01*
X36950000Y-17631314D02*
X36935714Y-17645600D01*
X36935714Y-17645600D02*
X36907142Y-17659885D01*
X36907142Y-17659885D02*
X36878571Y-17659885D01*
X36878571Y-17659885D02*
X36850000Y-17645600D01*
X36850000Y-17645600D02*
X36835714Y-17631314D01*
X36835714Y-17631314D02*
X36821428Y-17602742D01*
X36821428Y-17602742D02*
X36807142Y-17545600D01*
X36807142Y-17545600D02*
X36807142Y-17474171D01*
X36807142Y-17474171D02*
X36821428Y-17417028D01*
X36821428Y-17417028D02*
X36835714Y-17388457D01*
X36835714Y-17388457D02*
X36850000Y-17374171D01*
X36850000Y-17374171D02*
X36878571Y-17359885D01*
X37107142Y-17659885D02*
X37107142Y-17359885D01*
X37278571Y-17659885D02*
X37149999Y-17488457D01*
X37278571Y-17359885D02*
X37107142Y-17531314D01*
D11*
X36779819Y-25471428D02*
X36779819Y-24900000D01*
X37779819Y-25185714D02*
X36779819Y-25185714D01*
X37779819Y-24566666D02*
X36779819Y-24566666D01*
X36779819Y-24566666D02*
X36779819Y-24185714D01*
X36779819Y-24185714D02*
X36827438Y-24090476D01*
X36827438Y-24090476D02*
X36875057Y-24042857D01*
X36875057Y-24042857D02*
X36970295Y-23995238D01*
X36970295Y-23995238D02*
X37113152Y-23995238D01*
X37113152Y-23995238D02*
X37208390Y-24042857D01*
X37208390Y-24042857D02*
X37256009Y-24090476D01*
X37256009Y-24090476D02*
X37303628Y-24185714D01*
X37303628Y-24185714D02*
X37303628Y-24566666D01*
X37732200Y-23614285D02*
X37779819Y-23471428D01*
X37779819Y-23471428D02*
X37779819Y-23233333D01*
X37779819Y-23233333D02*
X37732200Y-23138095D01*
X37732200Y-23138095D02*
X37684580Y-23090476D01*
X37684580Y-23090476D02*
X37589342Y-23042857D01*
X37589342Y-23042857D02*
X37494104Y-23042857D01*
X37494104Y-23042857D02*
X37398866Y-23090476D01*
X37398866Y-23090476D02*
X37351247Y-23138095D01*
X37351247Y-23138095D02*
X37303628Y-23233333D01*
X37303628Y-23233333D02*
X37256009Y-23423809D01*
X37256009Y-23423809D02*
X37208390Y-23519047D01*
X37208390Y-23519047D02*
X37160771Y-23566666D01*
X37160771Y-23566666D02*
X37065533Y-23614285D01*
X37065533Y-23614285D02*
X36970295Y-23614285D01*
X36970295Y-23614285D02*
X36875057Y-23566666D01*
X36875057Y-23566666D02*
X36827438Y-23519047D01*
X36827438Y-23519047D02*
X36779819Y-23423809D01*
X36779819Y-23423809D02*
X36779819Y-23185714D01*
X36779819Y-23185714D02*
X36827438Y-23042857D01*
X36779819Y-22185714D02*
X36779819Y-22376190D01*
X36779819Y-22376190D02*
X36827438Y-22471428D01*
X36827438Y-22471428D02*
X36875057Y-22519047D01*
X36875057Y-22519047D02*
X37017914Y-22614285D01*
X37017914Y-22614285D02*
X37208390Y-22661904D01*
X37208390Y-22661904D02*
X37589342Y-22661904D01*
X37589342Y-22661904D02*
X37684580Y-22614285D01*
X37684580Y-22614285D02*
X37732200Y-22566666D01*
X37732200Y-22566666D02*
X37779819Y-22471428D01*
X37779819Y-22471428D02*
X37779819Y-22280952D01*
X37779819Y-22280952D02*
X37732200Y-22185714D01*
X37732200Y-22185714D02*
X37684580Y-22138095D01*
X37684580Y-22138095D02*
X37589342Y-22090476D01*
X37589342Y-22090476D02*
X37351247Y-22090476D01*
X37351247Y-22090476D02*
X37256009Y-22138095D01*
X37256009Y-22138095D02*
X37208390Y-22185714D01*
X37208390Y-22185714D02*
X37160771Y-22280952D01*
X37160771Y-22280952D02*
X37160771Y-22471428D01*
X37160771Y-22471428D02*
X37208390Y-22566666D01*
X37208390Y-22566666D02*
X37256009Y-22614285D01*
X37256009Y-22614285D02*
X37351247Y-22661904D01*
X37779819Y-21138095D02*
X37779819Y-21709523D01*
X37779819Y-21423809D02*
X36779819Y-21423809D01*
X36779819Y-21423809D02*
X36922676Y-21519047D01*
X36922676Y-21519047D02*
X37017914Y-21614285D01*
X37017914Y-21614285D02*
X37065533Y-21709523D01*
X36875057Y-20757142D02*
X36827438Y-20709523D01*
X36827438Y-20709523D02*
X36779819Y-20614285D01*
X36779819Y-20614285D02*
X36779819Y-20376190D01*
X36779819Y-20376190D02*
X36827438Y-20280952D01*
X36827438Y-20280952D02*
X36875057Y-20233333D01*
X36875057Y-20233333D02*
X36970295Y-20185714D01*
X36970295Y-20185714D02*
X37065533Y-20185714D01*
X37065533Y-20185714D02*
X37208390Y-20233333D01*
X37208390Y-20233333D02*
X37779819Y-20804761D01*
X37779819Y-20804761D02*
X37779819Y-20185714D01*
X36779819Y-19852380D02*
X36779819Y-19233333D01*
X36779819Y-19233333D02*
X37160771Y-19566666D01*
X37160771Y-19566666D02*
X37160771Y-19423809D01*
X37160771Y-19423809D02*
X37208390Y-19328571D01*
X37208390Y-19328571D02*
X37256009Y-19280952D01*
X37256009Y-19280952D02*
X37351247Y-19233333D01*
X37351247Y-19233333D02*
X37589342Y-19233333D01*
X37589342Y-19233333D02*
X37684580Y-19280952D01*
X37684580Y-19280952D02*
X37732200Y-19328571D01*
X37732200Y-19328571D02*
X37779819Y-19423809D01*
X37779819Y-19423809D02*
X37779819Y-19709523D01*
X37779819Y-19709523D02*
X37732200Y-19804761D01*
X37732200Y-19804761D02*
X37684580Y-19852380D01*
X36779819Y-18614285D02*
X36779819Y-18519047D01*
X36779819Y-18519047D02*
X36827438Y-18423809D01*
X36827438Y-18423809D02*
X36875057Y-18376190D01*
X36875057Y-18376190D02*
X36970295Y-18328571D01*
X36970295Y-18328571D02*
X37160771Y-18280952D01*
X37160771Y-18280952D02*
X37398866Y-18280952D01*
X37398866Y-18280952D02*
X37589342Y-18328571D01*
X37589342Y-18328571D02*
X37684580Y-18376190D01*
X37684580Y-18376190D02*
X37732200Y-18423809D01*
X37732200Y-18423809D02*
X37779819Y-18519047D01*
X37779819Y-18519047D02*
X37779819Y-18614285D01*
X37779819Y-18614285D02*
X37732200Y-18709523D01*
X37732200Y-18709523D02*
X37684580Y-18757142D01*
X37684580Y-18757142D02*
X37589342Y-18804761D01*
X37589342Y-18804761D02*
X37398866Y-18852380D01*
X37398866Y-18852380D02*
X37160771Y-18852380D01*
X37160771Y-18852380D02*
X36970295Y-18804761D01*
X36970295Y-18804761D02*
X36875057Y-18757142D01*
X36875057Y-18757142D02*
X36827438Y-18709523D01*
X36827438Y-18709523D02*
X36779819Y-18614285D01*
X37494104Y-17899999D02*
X37494104Y-17423809D01*
X37779819Y-17995237D02*
X36779819Y-17661904D01*
X36779819Y-17661904D02*
X37779819Y-17328571D01*
D10*
X19934885Y-23799999D02*
X19634885Y-23799999D01*
X19634885Y-23799999D02*
X19849171Y-23699999D01*
X19849171Y-23699999D02*
X19634885Y-23599999D01*
X19634885Y-23599999D02*
X19934885Y-23599999D01*
X19777742Y-23457142D02*
X19777742Y-23357142D01*
X19934885Y-23314285D02*
X19934885Y-23457142D01*
X19934885Y-23457142D02*
X19634885Y-23457142D01*
X19634885Y-23457142D02*
X19634885Y-23314285D01*
X19634885Y-23057142D02*
X19634885Y-23114284D01*
X19634885Y-23114284D02*
X19649171Y-23142856D01*
X19649171Y-23142856D02*
X19663457Y-23157142D01*
X19663457Y-23157142D02*
X19706314Y-23185713D01*
X19706314Y-23185713D02*
X19763457Y-23199999D01*
X19763457Y-23199999D02*
X19877742Y-23199999D01*
X19877742Y-23199999D02*
X19906314Y-23185713D01*
X19906314Y-23185713D02*
X19920600Y-23171427D01*
X19920600Y-23171427D02*
X19934885Y-23142856D01*
X19934885Y-23142856D02*
X19934885Y-23085713D01*
X19934885Y-23085713D02*
X19920600Y-23057142D01*
X19920600Y-23057142D02*
X19906314Y-23042856D01*
X19906314Y-23042856D02*
X19877742Y-23028570D01*
X19877742Y-23028570D02*
X19806314Y-23028570D01*
X19806314Y-23028570D02*
X19777742Y-23042856D01*
X19777742Y-23042856D02*
X19763457Y-23057142D01*
X19763457Y-23057142D02*
X19749171Y-23085713D01*
X19749171Y-23085713D02*
X19749171Y-23142856D01*
X19749171Y-23142856D02*
X19763457Y-23171427D01*
X19763457Y-23171427D02*
X19777742Y-23185713D01*
X19777742Y-23185713D02*
X19806314Y-23199999D01*
X19663457Y-22914285D02*
X19649171Y-22899999D01*
X19649171Y-22899999D02*
X19634885Y-22871428D01*
X19634885Y-22871428D02*
X19634885Y-22799999D01*
X19634885Y-22799999D02*
X19649171Y-22771428D01*
X19649171Y-22771428D02*
X19663457Y-22757142D01*
X19663457Y-22757142D02*
X19692028Y-22742856D01*
X19692028Y-22742856D02*
X19720600Y-22742856D01*
X19720600Y-22742856D02*
X19763457Y-22757142D01*
X19763457Y-22757142D02*
X19934885Y-22928570D01*
X19934885Y-22928570D02*
X19934885Y-22742856D01*
X19934885Y-22457142D02*
X19934885Y-22628571D01*
X19934885Y-22542856D02*
X19634885Y-22542856D01*
X19634885Y-22542856D02*
X19677742Y-22571428D01*
X19677742Y-22571428D02*
X19706314Y-22599999D01*
X19706314Y-22599999D02*
X19720600Y-22628571D01*
X19934885Y-22171428D02*
X19934885Y-22342857D01*
X19934885Y-22257142D02*
X19634885Y-22257142D01*
X19634885Y-22257142D02*
X19677742Y-22285714D01*
X19677742Y-22285714D02*
X19706314Y-22314285D01*
X19706314Y-22314285D02*
X19720600Y-22342857D01*
X19906314Y-21871428D02*
X19920600Y-21885714D01*
X19920600Y-21885714D02*
X19934885Y-21928571D01*
X19934885Y-21928571D02*
X19934885Y-21957143D01*
X19934885Y-21957143D02*
X19920600Y-22000000D01*
X19920600Y-22000000D02*
X19892028Y-22028571D01*
X19892028Y-22028571D02*
X19863457Y-22042857D01*
X19863457Y-22042857D02*
X19806314Y-22057143D01*
X19806314Y-22057143D02*
X19763457Y-22057143D01*
X19763457Y-22057143D02*
X19706314Y-22042857D01*
X19706314Y-22042857D02*
X19677742Y-22028571D01*
X19677742Y-22028571D02*
X19649171Y-22000000D01*
X19649171Y-22000000D02*
X19634885Y-21957143D01*
X19634885Y-21957143D02*
X19634885Y-21928571D01*
X19634885Y-21928571D02*
X19649171Y-21885714D01*
X19649171Y-21885714D02*
X19663457Y-21871428D01*
X19634885Y-21771428D02*
X19634885Y-21585714D01*
X19634885Y-21585714D02*
X19749171Y-21685714D01*
X19749171Y-21685714D02*
X19749171Y-21642857D01*
X19749171Y-21642857D02*
X19763457Y-21614286D01*
X19763457Y-21614286D02*
X19777742Y-21600000D01*
X19777742Y-21600000D02*
X19806314Y-21585714D01*
X19806314Y-21585714D02*
X19877742Y-21585714D01*
X19877742Y-21585714D02*
X19906314Y-21600000D01*
X19906314Y-21600000D02*
X19920600Y-21614286D01*
X19920600Y-21614286D02*
X19934885Y-21642857D01*
X19934885Y-21642857D02*
X19934885Y-21728571D01*
X19934885Y-21728571D02*
X19920600Y-21757143D01*
X19920600Y-21757143D02*
X19906314Y-21771428D01*
X19634885Y-21485714D02*
X19634885Y-21300000D01*
X19634885Y-21300000D02*
X19749171Y-21400000D01*
X19749171Y-21400000D02*
X19749171Y-21357143D01*
X19749171Y-21357143D02*
X19763457Y-21328572D01*
X19763457Y-21328572D02*
X19777742Y-21314286D01*
X19777742Y-21314286D02*
X19806314Y-21300000D01*
X19806314Y-21300000D02*
X19877742Y-21300000D01*
X19877742Y-21300000D02*
X19906314Y-21314286D01*
X19906314Y-21314286D02*
X19920600Y-21328572D01*
X19920600Y-21328572D02*
X19934885Y-21357143D01*
X19934885Y-21357143D02*
X19934885Y-21442857D01*
X19934885Y-21442857D02*
X19920600Y-21471429D01*
X19920600Y-21471429D02*
X19906314Y-21485714D01*
X19934885Y-21171429D02*
X19634885Y-21171429D01*
X19634885Y-21171429D02*
X19849171Y-21071429D01*
X19849171Y-21071429D02*
X19634885Y-20971429D01*
X19634885Y-20971429D02*
X19934885Y-20971429D01*
X19634885Y-20685715D02*
X19634885Y-20828572D01*
X19634885Y-20828572D02*
X19777742Y-20842858D01*
X19777742Y-20842858D02*
X19763457Y-20828572D01*
X19763457Y-20828572D02*
X19749171Y-20800001D01*
X19749171Y-20800001D02*
X19749171Y-20728572D01*
X19749171Y-20728572D02*
X19763457Y-20700001D01*
X19763457Y-20700001D02*
X19777742Y-20685715D01*
X19777742Y-20685715D02*
X19806314Y-20671429D01*
X19806314Y-20671429D02*
X19877742Y-20671429D01*
X19877742Y-20671429D02*
X19906314Y-20685715D01*
X19906314Y-20685715D02*
X19920600Y-20700001D01*
X19920600Y-20700001D02*
X19934885Y-20728572D01*
X19934885Y-20728572D02*
X19934885Y-20800001D01*
X19934885Y-20800001D02*
X19920600Y-20828572D01*
X19920600Y-20828572D02*
X19906314Y-20842858D01*
X19649171Y-20385715D02*
X19634885Y-20414287D01*
X19634885Y-20414287D02*
X19634885Y-20457144D01*
X19634885Y-20457144D02*
X19649171Y-20500001D01*
X19649171Y-20500001D02*
X19677742Y-20528572D01*
X19677742Y-20528572D02*
X19706314Y-20542858D01*
X19706314Y-20542858D02*
X19763457Y-20557144D01*
X19763457Y-20557144D02*
X19806314Y-20557144D01*
X19806314Y-20557144D02*
X19863457Y-20542858D01*
X19863457Y-20542858D02*
X19892028Y-20528572D01*
X19892028Y-20528572D02*
X19920600Y-20500001D01*
X19920600Y-20500001D02*
X19934885Y-20457144D01*
X19934885Y-20457144D02*
X19934885Y-20428572D01*
X19934885Y-20428572D02*
X19920600Y-20385715D01*
X19920600Y-20385715D02*
X19906314Y-20371429D01*
X19906314Y-20371429D02*
X19806314Y-20371429D01*
X19806314Y-20371429D02*
X19806314Y-20428572D01*
X19820600Y-20242858D02*
X19820600Y-20014287D01*
X19934885Y-19871429D02*
X19634885Y-19871429D01*
X19634885Y-19871429D02*
X19934885Y-19700000D01*
X19934885Y-19700000D02*
X19634885Y-19700000D01*
X19457143Y-17004885D02*
X19485714Y-17004885D01*
X19485714Y-17004885D02*
X19514286Y-17019171D01*
X19514286Y-17019171D02*
X19528572Y-17033457D01*
X19528572Y-17033457D02*
X19542857Y-17062028D01*
X19542857Y-17062028D02*
X19557143Y-17119171D01*
X19557143Y-17119171D02*
X19557143Y-17190600D01*
X19557143Y-17190600D02*
X19542857Y-17247742D01*
X19542857Y-17247742D02*
X19528572Y-17276314D01*
X19528572Y-17276314D02*
X19514286Y-17290600D01*
X19514286Y-17290600D02*
X19485714Y-17304885D01*
X19485714Y-17304885D02*
X19457143Y-17304885D01*
X19457143Y-17304885D02*
X19428572Y-17290600D01*
X19428572Y-17290600D02*
X19414286Y-17276314D01*
X19414286Y-17276314D02*
X19400000Y-17247742D01*
X19400000Y-17247742D02*
X19385714Y-17190600D01*
X19385714Y-17190600D02*
X19385714Y-17119171D01*
X19385714Y-17119171D02*
X19400000Y-17062028D01*
X19400000Y-17062028D02*
X19414286Y-17033457D01*
X19414286Y-17033457D02*
X19428572Y-17019171D01*
X19428572Y-17019171D02*
X19457143Y-17004885D01*
X19685714Y-17276314D02*
X19700000Y-17290600D01*
X19700000Y-17290600D02*
X19685714Y-17304885D01*
X19685714Y-17304885D02*
X19671428Y-17290600D01*
X19671428Y-17290600D02*
X19685714Y-17276314D01*
X19685714Y-17276314D02*
X19685714Y-17304885D01*
X19985714Y-17304885D02*
X19814285Y-17304885D01*
X19900000Y-17304885D02*
X19900000Y-17004885D01*
X19900000Y-17004885D02*
X19871428Y-17047742D01*
X19871428Y-17047742D02*
X19842857Y-17076314D01*
X19842857Y-17076314D02*
X19814285Y-17090600D01*
X20242857Y-17104885D02*
X20242857Y-17304885D01*
X20114285Y-17104885D02*
X20114285Y-17262028D01*
X20114285Y-17262028D02*
X20128571Y-17290600D01*
X20128571Y-17290600D02*
X20157142Y-17304885D01*
X20157142Y-17304885D02*
X20199999Y-17304885D01*
X20199999Y-17304885D02*
X20228571Y-17290600D01*
X20228571Y-17290600D02*
X20242857Y-17276314D01*
X20485714Y-17147742D02*
X20385714Y-17147742D01*
X20385714Y-17304885D02*
X20385714Y-17004885D01*
X20385714Y-17004885D02*
X20528571Y-17004885D01*
X22254885Y-23424999D02*
X22254885Y-23596428D01*
X22254885Y-23510713D02*
X21954885Y-23510713D01*
X21954885Y-23510713D02*
X21997742Y-23539285D01*
X21997742Y-23539285D02*
X22026314Y-23567856D01*
X22026314Y-23567856D02*
X22040600Y-23596428D01*
X21954885Y-23153571D02*
X21954885Y-23296428D01*
X21954885Y-23296428D02*
X22097742Y-23310714D01*
X22097742Y-23310714D02*
X22083457Y-23296428D01*
X22083457Y-23296428D02*
X22069171Y-23267857D01*
X22069171Y-23267857D02*
X22069171Y-23196428D01*
X22069171Y-23196428D02*
X22083457Y-23167857D01*
X22083457Y-23167857D02*
X22097742Y-23153571D01*
X22097742Y-23153571D02*
X22126314Y-23139285D01*
X22126314Y-23139285D02*
X22197742Y-23139285D01*
X22197742Y-23139285D02*
X22226314Y-23153571D01*
X22226314Y-23153571D02*
X22240600Y-23167857D01*
X22240600Y-23167857D02*
X22254885Y-23196428D01*
X22254885Y-23196428D02*
X22254885Y-23267857D01*
X22254885Y-23267857D02*
X22240600Y-23296428D01*
X22240600Y-23296428D02*
X22226314Y-23310714D01*
X21954885Y-22953571D02*
X21954885Y-22925000D01*
X21954885Y-22925000D02*
X21969171Y-22896428D01*
X21969171Y-22896428D02*
X21983457Y-22882143D01*
X21983457Y-22882143D02*
X22012028Y-22867857D01*
X22012028Y-22867857D02*
X22069171Y-22853571D01*
X22069171Y-22853571D02*
X22140600Y-22853571D01*
X22140600Y-22853571D02*
X22197742Y-22867857D01*
X22197742Y-22867857D02*
X22226314Y-22882143D01*
X22226314Y-22882143D02*
X22240600Y-22896428D01*
X22240600Y-22896428D02*
X22254885Y-22925000D01*
X22254885Y-22925000D02*
X22254885Y-22953571D01*
X22254885Y-22953571D02*
X22240600Y-22982143D01*
X22240600Y-22982143D02*
X22226314Y-22996428D01*
X22226314Y-22996428D02*
X22197742Y-23010714D01*
X22197742Y-23010714D02*
X22140600Y-23025000D01*
X22140600Y-23025000D02*
X22069171Y-23025000D01*
X22069171Y-23025000D02*
X22012028Y-23010714D01*
X22012028Y-23010714D02*
X21983457Y-22996428D01*
X21983457Y-22996428D02*
X21969171Y-22982143D01*
X21969171Y-22982143D02*
X21954885Y-22953571D01*
X22254885Y-22725000D02*
X21954885Y-22725000D01*
X22254885Y-22553571D02*
X22083457Y-22682143D01*
X21954885Y-22553571D02*
X22126314Y-22725000D01*
X24269885Y-22389285D02*
X24269885Y-22532142D01*
X24269885Y-22532142D02*
X24412742Y-22546428D01*
X24412742Y-22546428D02*
X24398457Y-22532142D01*
X24398457Y-22532142D02*
X24384171Y-22503571D01*
X24384171Y-22503571D02*
X24384171Y-22432142D01*
X24384171Y-22432142D02*
X24398457Y-22403571D01*
X24398457Y-22403571D02*
X24412742Y-22389285D01*
X24412742Y-22389285D02*
X24441314Y-22374999D01*
X24441314Y-22374999D02*
X24512742Y-22374999D01*
X24512742Y-22374999D02*
X24541314Y-22389285D01*
X24541314Y-22389285D02*
X24555600Y-22403571D01*
X24555600Y-22403571D02*
X24569885Y-22432142D01*
X24569885Y-22432142D02*
X24569885Y-22503571D01*
X24569885Y-22503571D02*
X24555600Y-22532142D01*
X24555600Y-22532142D02*
X24541314Y-22546428D01*
X24569885Y-22089285D02*
X24569885Y-22260714D01*
X24569885Y-22174999D02*
X24269885Y-22174999D01*
X24269885Y-22174999D02*
X24312742Y-22203571D01*
X24312742Y-22203571D02*
X24341314Y-22232142D01*
X24341314Y-22232142D02*
X24355600Y-22260714D01*
X24269885Y-21903571D02*
X24269885Y-21875000D01*
X24269885Y-21875000D02*
X24284171Y-21846428D01*
X24284171Y-21846428D02*
X24298457Y-21832143D01*
X24298457Y-21832143D02*
X24327028Y-21817857D01*
X24327028Y-21817857D02*
X24384171Y-21803571D01*
X24384171Y-21803571D02*
X24455600Y-21803571D01*
X24455600Y-21803571D02*
X24512742Y-21817857D01*
X24512742Y-21817857D02*
X24541314Y-21832143D01*
X24541314Y-21832143D02*
X24555600Y-21846428D01*
X24555600Y-21846428D02*
X24569885Y-21875000D01*
X24569885Y-21875000D02*
X24569885Y-21903571D01*
X24569885Y-21903571D02*
X24555600Y-21932143D01*
X24555600Y-21932143D02*
X24541314Y-21946428D01*
X24541314Y-21946428D02*
X24512742Y-21960714D01*
X24512742Y-21960714D02*
X24455600Y-21975000D01*
X24455600Y-21975000D02*
X24384171Y-21975000D01*
X24384171Y-21975000D02*
X24327028Y-21960714D01*
X24327028Y-21960714D02*
X24298457Y-21946428D01*
X24298457Y-21946428D02*
X24284171Y-21932143D01*
X24284171Y-21932143D02*
X24269885Y-21903571D01*
X24569885Y-21675000D02*
X24269885Y-21675000D01*
X24569885Y-21503571D02*
X24398457Y-21632143D01*
X24269885Y-21503571D02*
X24441314Y-21675000D01*
X26603571Y-19688457D02*
X26617857Y-19674171D01*
X26617857Y-19674171D02*
X26646429Y-19659885D01*
X26646429Y-19659885D02*
X26717857Y-19659885D01*
X26717857Y-19659885D02*
X26746429Y-19674171D01*
X26746429Y-19674171D02*
X26760714Y-19688457D01*
X26760714Y-19688457D02*
X26775000Y-19717028D01*
X26775000Y-19717028D02*
X26775000Y-19745600D01*
X26775000Y-19745600D02*
X26760714Y-19788457D01*
X26760714Y-19788457D02*
X26589286Y-19959885D01*
X26589286Y-19959885D02*
X26775000Y-19959885D01*
X26889285Y-19688457D02*
X26903571Y-19674171D01*
X26903571Y-19674171D02*
X26932143Y-19659885D01*
X26932143Y-19659885D02*
X27003571Y-19659885D01*
X27003571Y-19659885D02*
X27032143Y-19674171D01*
X27032143Y-19674171D02*
X27046428Y-19688457D01*
X27046428Y-19688457D02*
X27060714Y-19717028D01*
X27060714Y-19717028D02*
X27060714Y-19745600D01*
X27060714Y-19745600D02*
X27046428Y-19788457D01*
X27046428Y-19788457D02*
X26875000Y-19959885D01*
X26875000Y-19959885D02*
X27060714Y-19959885D01*
X27317857Y-19759885D02*
X27317857Y-19959885D01*
X27189285Y-19759885D02*
X27189285Y-19917028D01*
X27189285Y-19917028D02*
X27203571Y-19945600D01*
X27203571Y-19945600D02*
X27232142Y-19959885D01*
X27232142Y-19959885D02*
X27274999Y-19959885D01*
X27274999Y-19959885D02*
X27303571Y-19945600D01*
X27303571Y-19945600D02*
X27317857Y-19931314D01*
X27560714Y-19802742D02*
X27460714Y-19802742D01*
X27460714Y-19959885D02*
X27460714Y-19659885D01*
X27460714Y-19659885D02*
X27603571Y-19659885D01*
X27646429Y-19988457D02*
X27875000Y-19988457D01*
X27932142Y-19688457D02*
X27946428Y-19674171D01*
X27946428Y-19674171D02*
X27975000Y-19659885D01*
X27975000Y-19659885D02*
X28046428Y-19659885D01*
X28046428Y-19659885D02*
X28075000Y-19674171D01*
X28075000Y-19674171D02*
X28089285Y-19688457D01*
X28089285Y-19688457D02*
X28103571Y-19717028D01*
X28103571Y-19717028D02*
X28103571Y-19745600D01*
X28103571Y-19745600D02*
X28089285Y-19788457D01*
X28089285Y-19788457D02*
X27917857Y-19959885D01*
X27917857Y-19959885D02*
X28103571Y-19959885D01*
X28374999Y-19659885D02*
X28232142Y-19659885D01*
X28232142Y-19659885D02*
X28217856Y-19802742D01*
X28217856Y-19802742D02*
X28232142Y-19788457D01*
X28232142Y-19788457D02*
X28260714Y-19774171D01*
X28260714Y-19774171D02*
X28332142Y-19774171D01*
X28332142Y-19774171D02*
X28360714Y-19788457D01*
X28360714Y-19788457D02*
X28374999Y-19802742D01*
X28374999Y-19802742D02*
X28389285Y-19831314D01*
X28389285Y-19831314D02*
X28389285Y-19902742D01*
X28389285Y-19902742D02*
X28374999Y-19931314D01*
X28374999Y-19931314D02*
X28360714Y-19945600D01*
X28360714Y-19945600D02*
X28332142Y-19959885D01*
X28332142Y-19959885D02*
X28260714Y-19959885D01*
X28260714Y-19959885D02*
X28232142Y-19945600D01*
X28232142Y-19945600D02*
X28217856Y-19931314D01*
X28474999Y-19659885D02*
X28574999Y-19959885D01*
X28574999Y-19959885D02*
X28674999Y-19659885D01*
X22769885Y-2885713D02*
X22769885Y-2699999D01*
X22769885Y-2699999D02*
X22884171Y-2799999D01*
X22884171Y-2799999D02*
X22884171Y-2757142D01*
X22884171Y-2757142D02*
X22898457Y-2728571D01*
X22898457Y-2728571D02*
X22912742Y-2714285D01*
X22912742Y-2714285D02*
X22941314Y-2699999D01*
X22941314Y-2699999D02*
X23012742Y-2699999D01*
X23012742Y-2699999D02*
X23041314Y-2714285D01*
X23041314Y-2714285D02*
X23055600Y-2728571D01*
X23055600Y-2728571D02*
X23069885Y-2757142D01*
X23069885Y-2757142D02*
X23069885Y-2842856D01*
X23069885Y-2842856D02*
X23055600Y-2871428D01*
X23055600Y-2871428D02*
X23041314Y-2885713D01*
X22769885Y-2599999D02*
X22769885Y-2414285D01*
X22769885Y-2414285D02*
X22884171Y-2514285D01*
X22884171Y-2514285D02*
X22884171Y-2471428D01*
X22884171Y-2471428D02*
X22898457Y-2442857D01*
X22898457Y-2442857D02*
X22912742Y-2428571D01*
X22912742Y-2428571D02*
X22941314Y-2414285D01*
X22941314Y-2414285D02*
X23012742Y-2414285D01*
X23012742Y-2414285D02*
X23041314Y-2428571D01*
X23041314Y-2428571D02*
X23055600Y-2442857D01*
X23055600Y-2442857D02*
X23069885Y-2471428D01*
X23069885Y-2471428D02*
X23069885Y-2557142D01*
X23069885Y-2557142D02*
X23055600Y-2585714D01*
X23055600Y-2585714D02*
X23041314Y-2599999D01*
X22769885Y-2228571D02*
X22769885Y-2200000D01*
X22769885Y-2200000D02*
X22784171Y-2171428D01*
X22784171Y-2171428D02*
X22798457Y-2157143D01*
X22798457Y-2157143D02*
X22827028Y-2142857D01*
X22827028Y-2142857D02*
X22884171Y-2128571D01*
X22884171Y-2128571D02*
X22955600Y-2128571D01*
X22955600Y-2128571D02*
X23012742Y-2142857D01*
X23012742Y-2142857D02*
X23041314Y-2157143D01*
X23041314Y-2157143D02*
X23055600Y-2171428D01*
X23055600Y-2171428D02*
X23069885Y-2200000D01*
X23069885Y-2200000D02*
X23069885Y-2228571D01*
X23069885Y-2228571D02*
X23055600Y-2257143D01*
X23055600Y-2257143D02*
X23041314Y-2271428D01*
X23041314Y-2271428D02*
X23012742Y-2285714D01*
X23012742Y-2285714D02*
X22955600Y-2300000D01*
X22955600Y-2300000D02*
X22884171Y-2300000D01*
X22884171Y-2300000D02*
X22827028Y-2285714D01*
X22827028Y-2285714D02*
X22798457Y-2271428D01*
X22798457Y-2271428D02*
X22784171Y-2257143D01*
X22784171Y-2257143D02*
X22769885Y-2228571D01*
X23069885Y-1828571D02*
X22927028Y-1928571D01*
X23069885Y-2000000D02*
X22769885Y-2000000D01*
X22769885Y-2000000D02*
X22769885Y-1885714D01*
X22769885Y-1885714D02*
X22784171Y-1857143D01*
X22784171Y-1857143D02*
X22798457Y-1842857D01*
X22798457Y-1842857D02*
X22827028Y-1828571D01*
X22827028Y-1828571D02*
X22869885Y-1828571D01*
X22869885Y-1828571D02*
X22898457Y-1842857D01*
X22898457Y-1842857D02*
X22912742Y-1857143D01*
X22912742Y-1857143D02*
X22927028Y-1885714D01*
X22927028Y-1885714D02*
X22927028Y-2000000D01*
X37792857Y-19954885D02*
X37621428Y-19954885D01*
X37707143Y-19954885D02*
X37707143Y-19654885D01*
X37707143Y-19654885D02*
X37678571Y-19697742D01*
X37678571Y-19697742D02*
X37650000Y-19726314D01*
X37650000Y-19726314D02*
X37621428Y-19740600D01*
X37978571Y-19654885D02*
X38007142Y-19654885D01*
X38007142Y-19654885D02*
X38035714Y-19669171D01*
X38035714Y-19669171D02*
X38050000Y-19683457D01*
X38050000Y-19683457D02*
X38064285Y-19712028D01*
X38064285Y-19712028D02*
X38078571Y-19769171D01*
X38078571Y-19769171D02*
X38078571Y-19840600D01*
X38078571Y-19840600D02*
X38064285Y-19897742D01*
X38064285Y-19897742D02*
X38050000Y-19926314D01*
X38050000Y-19926314D02*
X38035714Y-19940600D01*
X38035714Y-19940600D02*
X38007142Y-19954885D01*
X38007142Y-19954885D02*
X37978571Y-19954885D01*
X37978571Y-19954885D02*
X37950000Y-19940600D01*
X37950000Y-19940600D02*
X37935714Y-19926314D01*
X37935714Y-19926314D02*
X37921428Y-19897742D01*
X37921428Y-19897742D02*
X37907142Y-19840600D01*
X37907142Y-19840600D02*
X37907142Y-19769171D01*
X37907142Y-19769171D02*
X37921428Y-19712028D01*
X37921428Y-19712028D02*
X37935714Y-19683457D01*
X37935714Y-19683457D02*
X37950000Y-19669171D01*
X37950000Y-19669171D02*
X37978571Y-19654885D01*
X38207142Y-19954885D02*
X38207142Y-19654885D01*
X38378571Y-19954885D02*
X38249999Y-19783457D01*
X38378571Y-19654885D02*
X38207142Y-19826314D01*
X7807143Y-18139885D02*
X8007143Y-18139885D01*
X8007143Y-18139885D02*
X7878571Y-18439885D01*
X8264285Y-18139885D02*
X8121428Y-18139885D01*
X8121428Y-18139885D02*
X8107142Y-18282742D01*
X8107142Y-18282742D02*
X8121428Y-18268457D01*
X8121428Y-18268457D02*
X8150000Y-18254171D01*
X8150000Y-18254171D02*
X8221428Y-18254171D01*
X8221428Y-18254171D02*
X8250000Y-18268457D01*
X8250000Y-18268457D02*
X8264285Y-18282742D01*
X8264285Y-18282742D02*
X8278571Y-18311314D01*
X8278571Y-18311314D02*
X8278571Y-18382742D01*
X8278571Y-18382742D02*
X8264285Y-18411314D01*
X8264285Y-18411314D02*
X8250000Y-18425600D01*
X8250000Y-18425600D02*
X8221428Y-18439885D01*
X8221428Y-18439885D02*
X8150000Y-18439885D01*
X8150000Y-18439885D02*
X8121428Y-18425600D01*
X8121428Y-18425600D02*
X8107142Y-18411314D01*
X8578571Y-18439885D02*
X8478571Y-18297028D01*
X8407142Y-18439885D02*
X8407142Y-18139885D01*
X8407142Y-18139885D02*
X8521428Y-18139885D01*
X8521428Y-18139885D02*
X8549999Y-18154171D01*
X8549999Y-18154171D02*
X8564285Y-18168457D01*
X8564285Y-18168457D02*
X8578571Y-18197028D01*
X8578571Y-18197028D02*
X8578571Y-18239885D01*
X8578571Y-18239885D02*
X8564285Y-18268457D01*
X8564285Y-18268457D02*
X8549999Y-18282742D01*
X8549999Y-18282742D02*
X8521428Y-18297028D01*
X8521428Y-18297028D02*
X8407142Y-18297028D01*
D11*
X46312618Y-16265180D02*
X45645952Y-15265180D01*
X45645952Y-16265180D02*
X46312618Y-15265180D01*
X44931666Y-15788990D02*
X44788809Y-15741371D01*
X44788809Y-15741371D02*
X44741190Y-15693752D01*
X44741190Y-15693752D02*
X44693571Y-15598514D01*
X44693571Y-15598514D02*
X44693571Y-15455657D01*
X44693571Y-15455657D02*
X44741190Y-15360419D01*
X44741190Y-15360419D02*
X44788809Y-15312800D01*
X44788809Y-15312800D02*
X44884047Y-15265180D01*
X44884047Y-15265180D02*
X45264999Y-15265180D01*
X45264999Y-15265180D02*
X45264999Y-16265180D01*
X45264999Y-16265180D02*
X44931666Y-16265180D01*
X44931666Y-16265180D02*
X44836428Y-16217561D01*
X44836428Y-16217561D02*
X44788809Y-16169942D01*
X44788809Y-16169942D02*
X44741190Y-16074704D01*
X44741190Y-16074704D02*
X44741190Y-15979466D01*
X44741190Y-15979466D02*
X44788809Y-15884228D01*
X44788809Y-15884228D02*
X44836428Y-15836609D01*
X44836428Y-15836609D02*
X44931666Y-15788990D01*
X44931666Y-15788990D02*
X45264999Y-15788990D01*
X44360237Y-16265180D02*
X43693571Y-16265180D01*
X43693571Y-16265180D02*
X44122142Y-15265180D01*
X42884047Y-16265180D02*
X43074523Y-16265180D01*
X43074523Y-16265180D02*
X43169761Y-16217561D01*
X43169761Y-16217561D02*
X43217380Y-16169942D01*
X43217380Y-16169942D02*
X43312618Y-16027085D01*
X43312618Y-16027085D02*
X43360237Y-15836609D01*
X43360237Y-15836609D02*
X43360237Y-15455657D01*
X43360237Y-15455657D02*
X43312618Y-15360419D01*
X43312618Y-15360419D02*
X43264999Y-15312800D01*
X43264999Y-15312800D02*
X43169761Y-15265180D01*
X43169761Y-15265180D02*
X42979285Y-15265180D01*
X42979285Y-15265180D02*
X42884047Y-15312800D01*
X42884047Y-15312800D02*
X42836428Y-15360419D01*
X42836428Y-15360419D02*
X42788809Y-15455657D01*
X42788809Y-15455657D02*
X42788809Y-15693752D01*
X42788809Y-15693752D02*
X42836428Y-15788990D01*
X42836428Y-15788990D02*
X42884047Y-15836609D01*
X42884047Y-15836609D02*
X42979285Y-15884228D01*
X42979285Y-15884228D02*
X43169761Y-15884228D01*
X43169761Y-15884228D02*
X43264999Y-15836609D01*
X43264999Y-15836609D02*
X43312618Y-15788990D01*
X43312618Y-15788990D02*
X43360237Y-15693752D01*
X42169761Y-16265180D02*
X42074523Y-16265180D01*
X42074523Y-16265180D02*
X41979285Y-16217561D01*
X41979285Y-16217561D02*
X41931666Y-16169942D01*
X41931666Y-16169942D02*
X41884047Y-16074704D01*
X41884047Y-16074704D02*
X41836428Y-15884228D01*
X41836428Y-15884228D02*
X41836428Y-15646133D01*
X41836428Y-15646133D02*
X41884047Y-15455657D01*
X41884047Y-15455657D02*
X41931666Y-15360419D01*
X41931666Y-15360419D02*
X41979285Y-15312800D01*
X41979285Y-15312800D02*
X42074523Y-15265180D01*
X42074523Y-15265180D02*
X42169761Y-15265180D01*
X42169761Y-15265180D02*
X42264999Y-15312800D01*
X42264999Y-15312800D02*
X42312618Y-15360419D01*
X42312618Y-15360419D02*
X42360237Y-15455657D01*
X42360237Y-15455657D02*
X42407856Y-15646133D01*
X42407856Y-15646133D02*
X42407856Y-15884228D01*
X42407856Y-15884228D02*
X42360237Y-16074704D01*
X42360237Y-16074704D02*
X42312618Y-16169942D01*
X42312618Y-16169942D02*
X42264999Y-16217561D01*
X42264999Y-16217561D02*
X42169761Y-16265180D01*
X41264999Y-15836609D02*
X41360237Y-15884228D01*
X41360237Y-15884228D02*
X41407856Y-15931847D01*
X41407856Y-15931847D02*
X41455475Y-16027085D01*
X41455475Y-16027085D02*
X41455475Y-16074704D01*
X41455475Y-16074704D02*
X41407856Y-16169942D01*
X41407856Y-16169942D02*
X41360237Y-16217561D01*
X41360237Y-16217561D02*
X41264999Y-16265180D01*
X41264999Y-16265180D02*
X41074523Y-16265180D01*
X41074523Y-16265180D02*
X40979285Y-16217561D01*
X40979285Y-16217561D02*
X40931666Y-16169942D01*
X40931666Y-16169942D02*
X40884047Y-16074704D01*
X40884047Y-16074704D02*
X40884047Y-16027085D01*
X40884047Y-16027085D02*
X40931666Y-15931847D01*
X40931666Y-15931847D02*
X40979285Y-15884228D01*
X40979285Y-15884228D02*
X41074523Y-15836609D01*
X41074523Y-15836609D02*
X41264999Y-15836609D01*
X41264999Y-15836609D02*
X41360237Y-15788990D01*
X41360237Y-15788990D02*
X41407856Y-15741371D01*
X41407856Y-15741371D02*
X41455475Y-15646133D01*
X41455475Y-15646133D02*
X41455475Y-15455657D01*
X41455475Y-15455657D02*
X41407856Y-15360419D01*
X41407856Y-15360419D02*
X41360237Y-15312800D01*
X41360237Y-15312800D02*
X41264999Y-15265180D01*
X41264999Y-15265180D02*
X41074523Y-15265180D01*
X41074523Y-15265180D02*
X40979285Y-15312800D01*
X40979285Y-15312800D02*
X40931666Y-15360419D01*
X40931666Y-15360419D02*
X40884047Y-15455657D01*
X40884047Y-15455657D02*
X40884047Y-15646133D01*
X40884047Y-15646133D02*
X40931666Y-15741371D01*
X40931666Y-15741371D02*
X40979285Y-15788990D01*
X40979285Y-15788990D02*
X41074523Y-15836609D01*
X40503094Y-15550895D02*
X40026904Y-15550895D01*
X40598332Y-15265180D02*
X40264999Y-16265180D01*
X40264999Y-16265180D02*
X39931666Y-15265180D01*
X39312618Y-16265180D02*
X39312618Y-15550895D01*
X39312618Y-15550895D02*
X39360237Y-15408038D01*
X39360237Y-15408038D02*
X39455475Y-15312800D01*
X39455475Y-15312800D02*
X39598332Y-15265180D01*
X39598332Y-15265180D02*
X39693570Y-15265180D01*
D10*
X49535713Y-5934885D02*
X49535713Y-5634885D01*
X49535713Y-5634885D02*
X49635713Y-5849171D01*
X49635713Y-5849171D02*
X49735713Y-5634885D01*
X49735713Y-5634885D02*
X49735713Y-5934885D01*
X49864284Y-5663457D02*
X49878570Y-5649171D01*
X49878570Y-5649171D02*
X49907142Y-5634885D01*
X49907142Y-5634885D02*
X49978570Y-5634885D01*
X49978570Y-5634885D02*
X50007142Y-5649171D01*
X50007142Y-5649171D02*
X50021427Y-5663457D01*
X50021427Y-5663457D02*
X50035713Y-5692028D01*
X50035713Y-5692028D02*
X50035713Y-5720600D01*
X50035713Y-5720600D02*
X50021427Y-5763457D01*
X50021427Y-5763457D02*
X49849999Y-5934885D01*
X49849999Y-5934885D02*
X50035713Y-5934885D01*
X50164284Y-5906314D02*
X50178570Y-5920600D01*
X50178570Y-5920600D02*
X50164284Y-5934885D01*
X50164284Y-5934885D02*
X50149998Y-5920600D01*
X50149998Y-5920600D02*
X50164284Y-5906314D01*
X50164284Y-5906314D02*
X50164284Y-5934885D01*
X50449998Y-5634885D02*
X50307141Y-5634885D01*
X50307141Y-5634885D02*
X50292855Y-5777742D01*
X50292855Y-5777742D02*
X50307141Y-5763457D01*
X50307141Y-5763457D02*
X50335713Y-5749171D01*
X50335713Y-5749171D02*
X50407141Y-5749171D01*
X50407141Y-5749171D02*
X50435713Y-5763457D01*
X50435713Y-5763457D02*
X50449998Y-5777742D01*
X50449998Y-5777742D02*
X50464284Y-5806314D01*
X50464284Y-5806314D02*
X50464284Y-5877742D01*
X50464284Y-5877742D02*
X50449998Y-5906314D01*
X50449998Y-5906314D02*
X50435713Y-5920600D01*
X50435713Y-5920600D02*
X50407141Y-5934885D01*
X50407141Y-5934885D02*
X50335713Y-5934885D01*
X50335713Y-5934885D02*
X50307141Y-5920600D01*
X50307141Y-5920600D02*
X50292855Y-5906314D01*
X50592855Y-5934885D02*
X50592855Y-5634885D01*
X50592855Y-5634885D02*
X50692855Y-5849171D01*
X50692855Y-5849171D02*
X50792855Y-5634885D01*
X50792855Y-5634885D02*
X50792855Y-5934885D01*
X50978569Y-5934885D02*
X50949998Y-5920600D01*
X50949998Y-5920600D02*
X50935712Y-5906314D01*
X50935712Y-5906314D02*
X50921426Y-5877742D01*
X50921426Y-5877742D02*
X50921426Y-5792028D01*
X50921426Y-5792028D02*
X50935712Y-5763457D01*
X50935712Y-5763457D02*
X50949998Y-5749171D01*
X50949998Y-5749171D02*
X50978569Y-5734885D01*
X50978569Y-5734885D02*
X51021426Y-5734885D01*
X51021426Y-5734885D02*
X51049998Y-5749171D01*
X51049998Y-5749171D02*
X51064284Y-5763457D01*
X51064284Y-5763457D02*
X51078569Y-5792028D01*
X51078569Y-5792028D02*
X51078569Y-5877742D01*
X51078569Y-5877742D02*
X51064284Y-5906314D01*
X51064284Y-5906314D02*
X51049998Y-5920600D01*
X51049998Y-5920600D02*
X51021426Y-5934885D01*
X51021426Y-5934885D02*
X50978569Y-5934885D01*
X51335713Y-5734885D02*
X51335713Y-5934885D01*
X51207141Y-5734885D02*
X51207141Y-5892028D01*
X51207141Y-5892028D02*
X51221427Y-5920600D01*
X51221427Y-5920600D02*
X51249998Y-5934885D01*
X51249998Y-5934885D02*
X51292855Y-5934885D01*
X51292855Y-5934885D02*
X51321427Y-5920600D01*
X51321427Y-5920600D02*
X51335713Y-5906314D01*
X51478570Y-5734885D02*
X51478570Y-5934885D01*
X51478570Y-5763457D02*
X51492856Y-5749171D01*
X51492856Y-5749171D02*
X51521427Y-5734885D01*
X51521427Y-5734885D02*
X51564284Y-5734885D01*
X51564284Y-5734885D02*
X51592856Y-5749171D01*
X51592856Y-5749171D02*
X51607142Y-5777742D01*
X51607142Y-5777742D02*
X51607142Y-5934885D01*
X51707142Y-5734885D02*
X51821428Y-5734885D01*
X51749999Y-5634885D02*
X51749999Y-5892028D01*
X51749999Y-5892028D02*
X51764285Y-5920600D01*
X51764285Y-5920600D02*
X51792856Y-5934885D01*
X51792856Y-5934885D02*
X51821428Y-5934885D01*
X51921428Y-5934885D02*
X51921428Y-5734885D01*
X51921428Y-5634885D02*
X51907142Y-5649171D01*
X51907142Y-5649171D02*
X51921428Y-5663457D01*
X51921428Y-5663457D02*
X51935714Y-5649171D01*
X51935714Y-5649171D02*
X51921428Y-5634885D01*
X51921428Y-5634885D02*
X51921428Y-5663457D01*
X52064285Y-5734885D02*
X52064285Y-5934885D01*
X52064285Y-5763457D02*
X52078571Y-5749171D01*
X52078571Y-5749171D02*
X52107142Y-5734885D01*
X52107142Y-5734885D02*
X52149999Y-5734885D01*
X52149999Y-5734885D02*
X52178571Y-5749171D01*
X52178571Y-5749171D02*
X52192857Y-5777742D01*
X52192857Y-5777742D02*
X52192857Y-5934885D01*
X52464286Y-5734885D02*
X52464286Y-5977742D01*
X52464286Y-5977742D02*
X52450000Y-6006314D01*
X52450000Y-6006314D02*
X52435714Y-6020600D01*
X52435714Y-6020600D02*
X52407143Y-6034885D01*
X52407143Y-6034885D02*
X52364286Y-6034885D01*
X52364286Y-6034885D02*
X52335714Y-6020600D01*
X52464286Y-5920600D02*
X52435714Y-5934885D01*
X52435714Y-5934885D02*
X52378571Y-5934885D01*
X52378571Y-5934885D02*
X52350000Y-5920600D01*
X52350000Y-5920600D02*
X52335714Y-5906314D01*
X52335714Y-5906314D02*
X52321428Y-5877742D01*
X52321428Y-5877742D02*
X52321428Y-5792028D01*
X52321428Y-5792028D02*
X52335714Y-5763457D01*
X52335714Y-5763457D02*
X52350000Y-5749171D01*
X52350000Y-5749171D02*
X52378571Y-5734885D01*
X52378571Y-5734885D02*
X52435714Y-5734885D01*
X52435714Y-5734885D02*
X52464286Y-5749171D01*
X52607143Y-5934885D02*
X52607143Y-5634885D01*
X52607143Y-5777742D02*
X52778572Y-5777742D01*
X52778572Y-5934885D02*
X52778572Y-5634885D01*
X52964286Y-5934885D02*
X52935715Y-5920600D01*
X52935715Y-5920600D02*
X52921429Y-5906314D01*
X52921429Y-5906314D02*
X52907143Y-5877742D01*
X52907143Y-5877742D02*
X52907143Y-5792028D01*
X52907143Y-5792028D02*
X52921429Y-5763457D01*
X52921429Y-5763457D02*
X52935715Y-5749171D01*
X52935715Y-5749171D02*
X52964286Y-5734885D01*
X52964286Y-5734885D02*
X53007143Y-5734885D01*
X53007143Y-5734885D02*
X53035715Y-5749171D01*
X53035715Y-5749171D02*
X53050001Y-5763457D01*
X53050001Y-5763457D02*
X53064286Y-5792028D01*
X53064286Y-5792028D02*
X53064286Y-5877742D01*
X53064286Y-5877742D02*
X53050001Y-5906314D01*
X53050001Y-5906314D02*
X53035715Y-5920600D01*
X53035715Y-5920600D02*
X53007143Y-5934885D01*
X53007143Y-5934885D02*
X52964286Y-5934885D01*
X53235715Y-5934885D02*
X53207144Y-5920600D01*
X53207144Y-5920600D02*
X53192858Y-5892028D01*
X53192858Y-5892028D02*
X53192858Y-5634885D01*
X53464287Y-5920600D02*
X53435715Y-5934885D01*
X53435715Y-5934885D02*
X53378573Y-5934885D01*
X53378573Y-5934885D02*
X53350001Y-5920600D01*
X53350001Y-5920600D02*
X53335715Y-5892028D01*
X53335715Y-5892028D02*
X53335715Y-5777742D01*
X53335715Y-5777742D02*
X53350001Y-5749171D01*
X53350001Y-5749171D02*
X53378573Y-5734885D01*
X53378573Y-5734885D02*
X53435715Y-5734885D01*
X53435715Y-5734885D02*
X53464287Y-5749171D01*
X53464287Y-5749171D02*
X53478573Y-5777742D01*
X53478573Y-5777742D02*
X53478573Y-5806314D01*
X53478573Y-5806314D02*
X53335715Y-5834885D01*
D11*
X8237500Y-12032200D02*
X8380357Y-12079819D01*
X8380357Y-12079819D02*
X8618452Y-12079819D01*
X8618452Y-12079819D02*
X8713690Y-12032200D01*
X8713690Y-12032200D02*
X8761309Y-11984580D01*
X8761309Y-11984580D02*
X8808928Y-11889342D01*
X8808928Y-11889342D02*
X8808928Y-11794104D01*
X8808928Y-11794104D02*
X8761309Y-11698866D01*
X8761309Y-11698866D02*
X8713690Y-11651247D01*
X8713690Y-11651247D02*
X8618452Y-11603628D01*
X8618452Y-11603628D02*
X8427976Y-11556009D01*
X8427976Y-11556009D02*
X8332738Y-11508390D01*
X8332738Y-11508390D02*
X8285119Y-11460771D01*
X8285119Y-11460771D02*
X8237500Y-11365533D01*
X8237500Y-11365533D02*
X8237500Y-11270295D01*
X8237500Y-11270295D02*
X8285119Y-11175057D01*
X8285119Y-11175057D02*
X8332738Y-11127438D01*
X8332738Y-11127438D02*
X8427976Y-11079819D01*
X8427976Y-11079819D02*
X8666071Y-11079819D01*
X8666071Y-11079819D02*
X8808928Y-11127438D01*
X9094643Y-11079819D02*
X9666071Y-11079819D01*
X9380357Y-12079819D02*
X9380357Y-11079819D01*
X9999405Y-12079819D02*
X9999405Y-11079819D01*
X9999405Y-11079819D02*
X10332738Y-11794104D01*
X10332738Y-11794104D02*
X10666071Y-11079819D01*
X10666071Y-11079819D02*
X10666071Y-12079819D01*
X11047024Y-11079819D02*
X11666071Y-11079819D01*
X11666071Y-11079819D02*
X11332738Y-11460771D01*
X11332738Y-11460771D02*
X11475595Y-11460771D01*
X11475595Y-11460771D02*
X11570833Y-11508390D01*
X11570833Y-11508390D02*
X11618452Y-11556009D01*
X11618452Y-11556009D02*
X11666071Y-11651247D01*
X11666071Y-11651247D02*
X11666071Y-11889342D01*
X11666071Y-11889342D02*
X11618452Y-11984580D01*
X11618452Y-11984580D02*
X11570833Y-12032200D01*
X11570833Y-12032200D02*
X11475595Y-12079819D01*
X11475595Y-12079819D02*
X11189881Y-12079819D01*
X11189881Y-12079819D02*
X11094643Y-12032200D01*
X11094643Y-12032200D02*
X11047024Y-11984580D01*
X12047024Y-11175057D02*
X12094643Y-11127438D01*
X12094643Y-11127438D02*
X12189881Y-11079819D01*
X12189881Y-11079819D02*
X12427976Y-11079819D01*
X12427976Y-11079819D02*
X12523214Y-11127438D01*
X12523214Y-11127438D02*
X12570833Y-11175057D01*
X12570833Y-11175057D02*
X12618452Y-11270295D01*
X12618452Y-11270295D02*
X12618452Y-11365533D01*
X12618452Y-11365533D02*
X12570833Y-11508390D01*
X12570833Y-11508390D02*
X11999405Y-12079819D01*
X11999405Y-12079819D02*
X12618452Y-12079819D01*
X13570833Y-11127438D02*
X13475595Y-11079819D01*
X13475595Y-11079819D02*
X13332738Y-11079819D01*
X13332738Y-11079819D02*
X13189881Y-11127438D01*
X13189881Y-11127438D02*
X13094643Y-11222676D01*
X13094643Y-11222676D02*
X13047024Y-11317914D01*
X13047024Y-11317914D02*
X12999405Y-11508390D01*
X12999405Y-11508390D02*
X12999405Y-11651247D01*
X12999405Y-11651247D02*
X13047024Y-11841723D01*
X13047024Y-11841723D02*
X13094643Y-11936961D01*
X13094643Y-11936961D02*
X13189881Y-12032200D01*
X13189881Y-12032200D02*
X13332738Y-12079819D01*
X13332738Y-12079819D02*
X13427976Y-12079819D01*
X13427976Y-12079819D02*
X13570833Y-12032200D01*
X13570833Y-12032200D02*
X13618452Y-11984580D01*
X13618452Y-11984580D02*
X13618452Y-11651247D01*
X13618452Y-11651247D02*
X13427976Y-11651247D01*
X14237500Y-11079819D02*
X14332738Y-11079819D01*
X14332738Y-11079819D02*
X14427976Y-11127438D01*
X14427976Y-11127438D02*
X14475595Y-11175057D01*
X14475595Y-11175057D02*
X14523214Y-11270295D01*
X14523214Y-11270295D02*
X14570833Y-11460771D01*
X14570833Y-11460771D02*
X14570833Y-11698866D01*
X14570833Y-11698866D02*
X14523214Y-11889342D01*
X14523214Y-11889342D02*
X14475595Y-11984580D01*
X14475595Y-11984580D02*
X14427976Y-12032200D01*
X14427976Y-12032200D02*
X14332738Y-12079819D01*
X14332738Y-12079819D02*
X14237500Y-12079819D01*
X14237500Y-12079819D02*
X14142262Y-12032200D01*
X14142262Y-12032200D02*
X14094643Y-11984580D01*
X14094643Y-11984580D02*
X14047024Y-11889342D01*
X14047024Y-11889342D02*
X13999405Y-11698866D01*
X13999405Y-11698866D02*
X13999405Y-11460771D01*
X13999405Y-11460771D02*
X14047024Y-11270295D01*
X14047024Y-11270295D02*
X14094643Y-11175057D01*
X14094643Y-11175057D02*
X14142262Y-11127438D01*
X14142262Y-11127438D02*
X14237500Y-11079819D01*
X14904167Y-11079819D02*
X15523214Y-11079819D01*
X15523214Y-11079819D02*
X15189881Y-11460771D01*
X15189881Y-11460771D02*
X15332738Y-11460771D01*
X15332738Y-11460771D02*
X15427976Y-11508390D01*
X15427976Y-11508390D02*
X15475595Y-11556009D01*
X15475595Y-11556009D02*
X15523214Y-11651247D01*
X15523214Y-11651247D02*
X15523214Y-11889342D01*
X15523214Y-11889342D02*
X15475595Y-11984580D01*
X15475595Y-11984580D02*
X15427976Y-12032200D01*
X15427976Y-12032200D02*
X15332738Y-12079819D01*
X15332738Y-12079819D02*
X15047024Y-12079819D01*
X15047024Y-12079819D02*
X14951786Y-12032200D01*
X14951786Y-12032200D02*
X14904167Y-11984580D01*
X16142262Y-11079819D02*
X16237500Y-11079819D01*
X16237500Y-11079819D02*
X16332738Y-11127438D01*
X16332738Y-11127438D02*
X16380357Y-11175057D01*
X16380357Y-11175057D02*
X16427976Y-11270295D01*
X16427976Y-11270295D02*
X16475595Y-11460771D01*
X16475595Y-11460771D02*
X16475595Y-11698866D01*
X16475595Y-11698866D02*
X16427976Y-11889342D01*
X16427976Y-11889342D02*
X16380357Y-11984580D01*
X16380357Y-11984580D02*
X16332738Y-12032200D01*
X16332738Y-12032200D02*
X16237500Y-12079819D01*
X16237500Y-12079819D02*
X16142262Y-12079819D01*
X16142262Y-12079819D02*
X16047024Y-12032200D01*
X16047024Y-12032200D02*
X15999405Y-11984580D01*
X15999405Y-11984580D02*
X15951786Y-11889342D01*
X15951786Y-11889342D02*
X15904167Y-11698866D01*
X15904167Y-11698866D02*
X15904167Y-11460771D01*
X15904167Y-11460771D02*
X15951786Y-11270295D01*
X15951786Y-11270295D02*
X15999405Y-11175057D01*
X15999405Y-11175057D02*
X16047024Y-11127438D01*
X16047024Y-11127438D02*
X16142262Y-11079819D01*
X17237500Y-11556009D02*
X16904167Y-11556009D01*
X16904167Y-12079819D02*
X16904167Y-11079819D01*
X16904167Y-11079819D02*
X17380357Y-11079819D01*
X18189881Y-11079819D02*
X17999405Y-11079819D01*
X17999405Y-11079819D02*
X17904167Y-11127438D01*
X17904167Y-11127438D02*
X17856548Y-11175057D01*
X17856548Y-11175057D02*
X17761310Y-11317914D01*
X17761310Y-11317914D02*
X17713691Y-11508390D01*
X17713691Y-11508390D02*
X17713691Y-11889342D01*
X17713691Y-11889342D02*
X17761310Y-11984580D01*
X17761310Y-11984580D02*
X17808929Y-12032200D01*
X17808929Y-12032200D02*
X17904167Y-12079819D01*
X17904167Y-12079819D02*
X18094643Y-12079819D01*
X18094643Y-12079819D02*
X18189881Y-12032200D01*
X18189881Y-12032200D02*
X18237500Y-11984580D01*
X18237500Y-11984580D02*
X18285119Y-11889342D01*
X18285119Y-11889342D02*
X18285119Y-11651247D01*
X18285119Y-11651247D02*
X18237500Y-11556009D01*
X18237500Y-11556009D02*
X18189881Y-11508390D01*
X18189881Y-11508390D02*
X18094643Y-11460771D01*
X18094643Y-11460771D02*
X17904167Y-11460771D01*
X17904167Y-11460771D02*
X17808929Y-11508390D01*
X17808929Y-11508390D02*
X17761310Y-11556009D01*
X17761310Y-11556009D02*
X17713691Y-11651247D01*
X18713691Y-12079819D02*
X18713691Y-11079819D01*
X18713691Y-11079819D02*
X19094643Y-11079819D01*
X19094643Y-11079819D02*
X19189881Y-11127438D01*
X19189881Y-11127438D02*
X19237500Y-11175057D01*
X19237500Y-11175057D02*
X19285119Y-11270295D01*
X19285119Y-11270295D02*
X19285119Y-11413152D01*
X19285119Y-11413152D02*
X19237500Y-11508390D01*
X19237500Y-11508390D02*
X19189881Y-11556009D01*
X19189881Y-11556009D02*
X19094643Y-11603628D01*
X19094643Y-11603628D02*
X18713691Y-11603628D01*
X20142262Y-11079819D02*
X19951786Y-11079819D01*
X19951786Y-11079819D02*
X19856548Y-11127438D01*
X19856548Y-11127438D02*
X19808929Y-11175057D01*
X19808929Y-11175057D02*
X19713691Y-11317914D01*
X19713691Y-11317914D02*
X19666072Y-11508390D01*
X19666072Y-11508390D02*
X19666072Y-11889342D01*
X19666072Y-11889342D02*
X19713691Y-11984580D01*
X19713691Y-11984580D02*
X19761310Y-12032200D01*
X19761310Y-12032200D02*
X19856548Y-12079819D01*
X19856548Y-12079819D02*
X20047024Y-12079819D01*
X20047024Y-12079819D02*
X20142262Y-12032200D01*
X20142262Y-12032200D02*
X20189881Y-11984580D01*
X20189881Y-11984580D02*
X20237500Y-11889342D01*
X20237500Y-11889342D02*
X20237500Y-11651247D01*
X20237500Y-11651247D02*
X20189881Y-11556009D01*
X20189881Y-11556009D02*
X20142262Y-11508390D01*
X20142262Y-11508390D02*
X20047024Y-11460771D01*
X20047024Y-11460771D02*
X19856548Y-11460771D01*
X19856548Y-11460771D02*
X19761310Y-11508390D01*
X19761310Y-11508390D02*
X19713691Y-11556009D01*
X19713691Y-11556009D02*
X19666072Y-11651247D01*
D10*
X7807143Y-11714885D02*
X8007143Y-11714885D01*
X8007143Y-11714885D02*
X7878571Y-12014885D01*
X8264285Y-11714885D02*
X8121428Y-11714885D01*
X8121428Y-11714885D02*
X8107142Y-11857742D01*
X8107142Y-11857742D02*
X8121428Y-11843457D01*
X8121428Y-11843457D02*
X8150000Y-11829171D01*
X8150000Y-11829171D02*
X8221428Y-11829171D01*
X8221428Y-11829171D02*
X8250000Y-11843457D01*
X8250000Y-11843457D02*
X8264285Y-11857742D01*
X8264285Y-11857742D02*
X8278571Y-11886314D01*
X8278571Y-11886314D02*
X8278571Y-11957742D01*
X8278571Y-11957742D02*
X8264285Y-11986314D01*
X8264285Y-11986314D02*
X8250000Y-12000600D01*
X8250000Y-12000600D02*
X8221428Y-12014885D01*
X8221428Y-12014885D02*
X8150000Y-12014885D01*
X8150000Y-12014885D02*
X8121428Y-12000600D01*
X8121428Y-12000600D02*
X8107142Y-11986314D01*
X8578571Y-12014885D02*
X8478571Y-11872028D01*
X8407142Y-12014885D02*
X8407142Y-11714885D01*
X8407142Y-11714885D02*
X8521428Y-11714885D01*
X8521428Y-11714885D02*
X8549999Y-11729171D01*
X8549999Y-11729171D02*
X8564285Y-11743457D01*
X8564285Y-11743457D02*
X8578571Y-11772028D01*
X8578571Y-11772028D02*
X8578571Y-11814885D01*
X8578571Y-11814885D02*
X8564285Y-11843457D01*
X8564285Y-11843457D02*
X8549999Y-11857742D01*
X8549999Y-11857742D02*
X8521428Y-11872028D01*
X8521428Y-11872028D02*
X8407142Y-11872028D01*
X17404885Y-7342856D02*
X17404885Y-7485713D01*
X17404885Y-7485713D02*
X17547742Y-7499999D01*
X17547742Y-7499999D02*
X17533457Y-7485713D01*
X17533457Y-7485713D02*
X17519171Y-7457142D01*
X17519171Y-7457142D02*
X17519171Y-7385713D01*
X17519171Y-7385713D02*
X17533457Y-7357142D01*
X17533457Y-7357142D02*
X17547742Y-7342856D01*
X17547742Y-7342856D02*
X17576314Y-7328570D01*
X17576314Y-7328570D02*
X17647742Y-7328570D01*
X17647742Y-7328570D02*
X17676314Y-7342856D01*
X17676314Y-7342856D02*
X17690600Y-7357142D01*
X17690600Y-7357142D02*
X17704885Y-7385713D01*
X17704885Y-7385713D02*
X17704885Y-7457142D01*
X17704885Y-7457142D02*
X17690600Y-7485713D01*
X17690600Y-7485713D02*
X17676314Y-7499999D01*
X17676314Y-7199999D02*
X17690600Y-7185713D01*
X17690600Y-7185713D02*
X17704885Y-7199999D01*
X17704885Y-7199999D02*
X17690600Y-7214285D01*
X17690600Y-7214285D02*
X17676314Y-7199999D01*
X17676314Y-7199999D02*
X17704885Y-7199999D01*
X17704885Y-6899999D02*
X17704885Y-7071428D01*
X17704885Y-6985713D02*
X17404885Y-6985713D01*
X17404885Y-6985713D02*
X17447742Y-7014285D01*
X17447742Y-7014285D02*
X17476314Y-7042856D01*
X17476314Y-7042856D02*
X17490600Y-7071428D01*
X17704885Y-6771428D02*
X17404885Y-6771428D01*
X17704885Y-6599999D02*
X17533457Y-6728571D01*
X17404885Y-6599999D02*
X17576314Y-6771428D01*
X18328572Y-15649885D02*
X18328572Y-15849885D01*
X18257143Y-15535600D02*
X18185714Y-15749885D01*
X18185714Y-15749885D02*
X18371429Y-15749885D01*
X18485714Y-15821314D02*
X18500000Y-15835600D01*
X18500000Y-15835600D02*
X18485714Y-15849885D01*
X18485714Y-15849885D02*
X18471428Y-15835600D01*
X18471428Y-15835600D02*
X18485714Y-15821314D01*
X18485714Y-15821314D02*
X18485714Y-15849885D01*
X18600000Y-15549885D02*
X18800000Y-15549885D01*
X18800000Y-15549885D02*
X18671428Y-15849885D01*
X19042857Y-15649885D02*
X19042857Y-15849885D01*
X18914285Y-15649885D02*
X18914285Y-15807028D01*
X18914285Y-15807028D02*
X18928571Y-15835600D01*
X18928571Y-15835600D02*
X18957142Y-15849885D01*
X18957142Y-15849885D02*
X18999999Y-15849885D01*
X18999999Y-15849885D02*
X19028571Y-15835600D01*
X19028571Y-15835600D02*
X19042857Y-15821314D01*
X19285714Y-15692742D02*
X19185714Y-15692742D01*
X19185714Y-15849885D02*
X19185714Y-15549885D01*
X19185714Y-15549885D02*
X19328571Y-15549885D01*
X22859885Y-33414999D02*
X22859885Y-33586428D01*
X22859885Y-33500713D02*
X22559885Y-33500713D01*
X22559885Y-33500713D02*
X22602742Y-33529285D01*
X22602742Y-33529285D02*
X22631314Y-33557856D01*
X22631314Y-33557856D02*
X22645600Y-33586428D01*
X22559885Y-33229285D02*
X22559885Y-33200714D01*
X22559885Y-33200714D02*
X22574171Y-33172142D01*
X22574171Y-33172142D02*
X22588457Y-33157857D01*
X22588457Y-33157857D02*
X22617028Y-33143571D01*
X22617028Y-33143571D02*
X22674171Y-33129285D01*
X22674171Y-33129285D02*
X22745600Y-33129285D01*
X22745600Y-33129285D02*
X22802742Y-33143571D01*
X22802742Y-33143571D02*
X22831314Y-33157857D01*
X22831314Y-33157857D02*
X22845600Y-33172142D01*
X22845600Y-33172142D02*
X22859885Y-33200714D01*
X22859885Y-33200714D02*
X22859885Y-33229285D01*
X22859885Y-33229285D02*
X22845600Y-33257857D01*
X22845600Y-33257857D02*
X22831314Y-33272142D01*
X22831314Y-33272142D02*
X22802742Y-33286428D01*
X22802742Y-33286428D02*
X22745600Y-33300714D01*
X22745600Y-33300714D02*
X22674171Y-33300714D01*
X22674171Y-33300714D02*
X22617028Y-33286428D01*
X22617028Y-33286428D02*
X22588457Y-33272142D01*
X22588457Y-33272142D02*
X22574171Y-33257857D01*
X22574171Y-33257857D02*
X22559885Y-33229285D01*
X22559885Y-32943571D02*
X22559885Y-32915000D01*
X22559885Y-32915000D02*
X22574171Y-32886428D01*
X22574171Y-32886428D02*
X22588457Y-32872143D01*
X22588457Y-32872143D02*
X22617028Y-32857857D01*
X22617028Y-32857857D02*
X22674171Y-32843571D01*
X22674171Y-32843571D02*
X22745600Y-32843571D01*
X22745600Y-32843571D02*
X22802742Y-32857857D01*
X22802742Y-32857857D02*
X22831314Y-32872143D01*
X22831314Y-32872143D02*
X22845600Y-32886428D01*
X22845600Y-32886428D02*
X22859885Y-32915000D01*
X22859885Y-32915000D02*
X22859885Y-32943571D01*
X22859885Y-32943571D02*
X22845600Y-32972143D01*
X22845600Y-32972143D02*
X22831314Y-32986428D01*
X22831314Y-32986428D02*
X22802742Y-33000714D01*
X22802742Y-33000714D02*
X22745600Y-33015000D01*
X22745600Y-33015000D02*
X22674171Y-33015000D01*
X22674171Y-33015000D02*
X22617028Y-33000714D01*
X22617028Y-33000714D02*
X22588457Y-32986428D01*
X22588457Y-32986428D02*
X22574171Y-32972143D01*
X22574171Y-32972143D02*
X22559885Y-32943571D01*
X22859885Y-32715000D02*
X22559885Y-32715000D01*
X22859885Y-32543571D02*
X22688457Y-32672143D01*
X22559885Y-32543571D02*
X22731314Y-32715000D01*
X27628571Y-19913457D02*
X27642857Y-19899171D01*
X27642857Y-19899171D02*
X27671429Y-19884885D01*
X27671429Y-19884885D02*
X27742857Y-19884885D01*
X27742857Y-19884885D02*
X27771429Y-19899171D01*
X27771429Y-19899171D02*
X27785714Y-19913457D01*
X27785714Y-19913457D02*
X27800000Y-19942028D01*
X27800000Y-19942028D02*
X27800000Y-19970600D01*
X27800000Y-19970600D02*
X27785714Y-20013457D01*
X27785714Y-20013457D02*
X27614286Y-20184885D01*
X27614286Y-20184885D02*
X27800000Y-20184885D01*
X27914285Y-19913457D02*
X27928571Y-19899171D01*
X27928571Y-19899171D02*
X27957143Y-19884885D01*
X27957143Y-19884885D02*
X28028571Y-19884885D01*
X28028571Y-19884885D02*
X28057143Y-19899171D01*
X28057143Y-19899171D02*
X28071428Y-19913457D01*
X28071428Y-19913457D02*
X28085714Y-19942028D01*
X28085714Y-19942028D02*
X28085714Y-19970600D01*
X28085714Y-19970600D02*
X28071428Y-20013457D01*
X28071428Y-20013457D02*
X27900000Y-20184885D01*
X27900000Y-20184885D02*
X28085714Y-20184885D01*
X28342857Y-19984885D02*
X28342857Y-20184885D01*
X28214285Y-19984885D02*
X28214285Y-20142028D01*
X28214285Y-20142028D02*
X28228571Y-20170600D01*
X28228571Y-20170600D02*
X28257142Y-20184885D01*
X28257142Y-20184885D02*
X28299999Y-20184885D01*
X28299999Y-20184885D02*
X28328571Y-20170600D01*
X28328571Y-20170600D02*
X28342857Y-20156314D01*
X28585714Y-20027742D02*
X28485714Y-20027742D01*
X28485714Y-20184885D02*
X28485714Y-19884885D01*
X28485714Y-19884885D02*
X28628571Y-19884885D01*
X28671429Y-20213457D02*
X28900000Y-20213457D01*
X28957142Y-19913457D02*
X28971428Y-19899171D01*
X28971428Y-19899171D02*
X29000000Y-19884885D01*
X29000000Y-19884885D02*
X29071428Y-19884885D01*
X29071428Y-19884885D02*
X29100000Y-19899171D01*
X29100000Y-19899171D02*
X29114285Y-19913457D01*
X29114285Y-19913457D02*
X29128571Y-19942028D01*
X29128571Y-19942028D02*
X29128571Y-19970600D01*
X29128571Y-19970600D02*
X29114285Y-20013457D01*
X29114285Y-20013457D02*
X28942857Y-20184885D01*
X28942857Y-20184885D02*
X29128571Y-20184885D01*
X29399999Y-19884885D02*
X29257142Y-19884885D01*
X29257142Y-19884885D02*
X29242856Y-20027742D01*
X29242856Y-20027742D02*
X29257142Y-20013457D01*
X29257142Y-20013457D02*
X29285714Y-19999171D01*
X29285714Y-19999171D02*
X29357142Y-19999171D01*
X29357142Y-19999171D02*
X29385714Y-20013457D01*
X29385714Y-20013457D02*
X29399999Y-20027742D01*
X29399999Y-20027742D02*
X29414285Y-20056314D01*
X29414285Y-20056314D02*
X29414285Y-20127742D01*
X29414285Y-20127742D02*
X29399999Y-20156314D01*
X29399999Y-20156314D02*
X29385714Y-20170600D01*
X29385714Y-20170600D02*
X29357142Y-20184885D01*
X29357142Y-20184885D02*
X29285714Y-20184885D01*
X29285714Y-20184885D02*
X29257142Y-20170600D01*
X29257142Y-20170600D02*
X29242856Y-20156314D01*
X29499999Y-19884885D02*
X29599999Y-20184885D01*
X29599999Y-20184885D02*
X29699999Y-19884885D01*
X22782857Y-20689885D02*
X22611428Y-20689885D01*
X22697143Y-20689885D02*
X22697143Y-20389885D01*
X22697143Y-20389885D02*
X22668571Y-20432742D01*
X22668571Y-20432742D02*
X22640000Y-20461314D01*
X22640000Y-20461314D02*
X22611428Y-20475600D01*
X22968571Y-20389885D02*
X22997142Y-20389885D01*
X22997142Y-20389885D02*
X23025714Y-20404171D01*
X23025714Y-20404171D02*
X23040000Y-20418457D01*
X23040000Y-20418457D02*
X23054285Y-20447028D01*
X23054285Y-20447028D02*
X23068571Y-20504171D01*
X23068571Y-20504171D02*
X23068571Y-20575600D01*
X23068571Y-20575600D02*
X23054285Y-20632742D01*
X23054285Y-20632742D02*
X23040000Y-20661314D01*
X23040000Y-20661314D02*
X23025714Y-20675600D01*
X23025714Y-20675600D02*
X22997142Y-20689885D01*
X22997142Y-20689885D02*
X22968571Y-20689885D01*
X22968571Y-20689885D02*
X22940000Y-20675600D01*
X22940000Y-20675600D02*
X22925714Y-20661314D01*
X22925714Y-20661314D02*
X22911428Y-20632742D01*
X22911428Y-20632742D02*
X22897142Y-20575600D01*
X22897142Y-20575600D02*
X22897142Y-20504171D01*
X22897142Y-20504171D02*
X22911428Y-20447028D01*
X22911428Y-20447028D02*
X22925714Y-20418457D01*
X22925714Y-20418457D02*
X22940000Y-20404171D01*
X22940000Y-20404171D02*
X22968571Y-20389885D01*
X23197142Y-20689885D02*
X23197142Y-20389885D01*
X23368571Y-20689885D02*
X23239999Y-20518457D01*
X23368571Y-20389885D02*
X23197142Y-20561314D01*
X26407143Y-5099885D02*
X26264286Y-5099885D01*
X26264286Y-5099885D02*
X26250000Y-5242742D01*
X26250000Y-5242742D02*
X26264286Y-5228457D01*
X26264286Y-5228457D02*
X26292858Y-5214171D01*
X26292858Y-5214171D02*
X26364286Y-5214171D01*
X26364286Y-5214171D02*
X26392858Y-5228457D01*
X26392858Y-5228457D02*
X26407143Y-5242742D01*
X26407143Y-5242742D02*
X26421429Y-5271314D01*
X26421429Y-5271314D02*
X26421429Y-5342742D01*
X26421429Y-5342742D02*
X26407143Y-5371314D01*
X26407143Y-5371314D02*
X26392858Y-5385600D01*
X26392858Y-5385600D02*
X26364286Y-5399885D01*
X26364286Y-5399885D02*
X26292858Y-5399885D01*
X26292858Y-5399885D02*
X26264286Y-5385600D01*
X26264286Y-5385600D02*
X26250000Y-5371314D01*
X26550000Y-5371314D02*
X26564286Y-5385600D01*
X26564286Y-5385600D02*
X26550000Y-5399885D01*
X26550000Y-5399885D02*
X26535714Y-5385600D01*
X26535714Y-5385600D02*
X26550000Y-5371314D01*
X26550000Y-5371314D02*
X26550000Y-5399885D01*
X26850000Y-5399885D02*
X26678571Y-5399885D01*
X26764286Y-5399885D02*
X26764286Y-5099885D01*
X26764286Y-5099885D02*
X26735714Y-5142742D01*
X26735714Y-5142742D02*
X26707143Y-5171314D01*
X26707143Y-5171314D02*
X26678571Y-5185600D01*
X26978571Y-5399885D02*
X26978571Y-5099885D01*
X27150000Y-5399885D02*
X27021428Y-5228457D01*
X27150000Y-5099885D02*
X26978571Y-5271314D01*
X7807143Y-16054885D02*
X8007143Y-16054885D01*
X8007143Y-16054885D02*
X7878571Y-16354885D01*
X8264285Y-16054885D02*
X8121428Y-16054885D01*
X8121428Y-16054885D02*
X8107142Y-16197742D01*
X8107142Y-16197742D02*
X8121428Y-16183457D01*
X8121428Y-16183457D02*
X8150000Y-16169171D01*
X8150000Y-16169171D02*
X8221428Y-16169171D01*
X8221428Y-16169171D02*
X8250000Y-16183457D01*
X8250000Y-16183457D02*
X8264285Y-16197742D01*
X8264285Y-16197742D02*
X8278571Y-16226314D01*
X8278571Y-16226314D02*
X8278571Y-16297742D01*
X8278571Y-16297742D02*
X8264285Y-16326314D01*
X8264285Y-16326314D02*
X8250000Y-16340600D01*
X8250000Y-16340600D02*
X8221428Y-16354885D01*
X8221428Y-16354885D02*
X8150000Y-16354885D01*
X8150000Y-16354885D02*
X8121428Y-16340600D01*
X8121428Y-16340600D02*
X8107142Y-16326314D01*
X8578571Y-16354885D02*
X8478571Y-16212028D01*
X8407142Y-16354885D02*
X8407142Y-16054885D01*
X8407142Y-16054885D02*
X8521428Y-16054885D01*
X8521428Y-16054885D02*
X8549999Y-16069171D01*
X8549999Y-16069171D02*
X8564285Y-16083457D01*
X8564285Y-16083457D02*
X8578571Y-16112028D01*
X8578571Y-16112028D02*
X8578571Y-16154885D01*
X8578571Y-16154885D02*
X8564285Y-16183457D01*
X8564285Y-16183457D02*
X8549999Y-16197742D01*
X8549999Y-16197742D02*
X8521428Y-16212028D01*
X8521428Y-16212028D02*
X8407142Y-16212028D01*
X12507143Y-8814885D02*
X12707143Y-8814885D01*
X12707143Y-8814885D02*
X12578571Y-9114885D01*
X12964285Y-8814885D02*
X12821428Y-8814885D01*
X12821428Y-8814885D02*
X12807142Y-8957742D01*
X12807142Y-8957742D02*
X12821428Y-8943457D01*
X12821428Y-8943457D02*
X12850000Y-8929171D01*
X12850000Y-8929171D02*
X12921428Y-8929171D01*
X12921428Y-8929171D02*
X12950000Y-8943457D01*
X12950000Y-8943457D02*
X12964285Y-8957742D01*
X12964285Y-8957742D02*
X12978571Y-8986314D01*
X12978571Y-8986314D02*
X12978571Y-9057742D01*
X12978571Y-9057742D02*
X12964285Y-9086314D01*
X12964285Y-9086314D02*
X12950000Y-9100600D01*
X12950000Y-9100600D02*
X12921428Y-9114885D01*
X12921428Y-9114885D02*
X12850000Y-9114885D01*
X12850000Y-9114885D02*
X12821428Y-9100600D01*
X12821428Y-9100600D02*
X12807142Y-9086314D01*
X13278571Y-9114885D02*
X13178571Y-8972028D01*
X13107142Y-9114885D02*
X13107142Y-8814885D01*
X13107142Y-8814885D02*
X13221428Y-8814885D01*
X13221428Y-8814885D02*
X13249999Y-8829171D01*
X13249999Y-8829171D02*
X13264285Y-8843457D01*
X13264285Y-8843457D02*
X13278571Y-8872028D01*
X13278571Y-8872028D02*
X13278571Y-8914885D01*
X13278571Y-8914885D02*
X13264285Y-8943457D01*
X13264285Y-8943457D02*
X13249999Y-8957742D01*
X13249999Y-8957742D02*
X13221428Y-8972028D01*
X13221428Y-8972028D02*
X13107142Y-8972028D01*
X42654885Y-8014285D02*
X42654885Y-8185714D01*
X42654885Y-8099999D02*
X42354885Y-8099999D01*
X42354885Y-8099999D02*
X42397742Y-8128571D01*
X42397742Y-8128571D02*
X42426314Y-8157142D01*
X42426314Y-8157142D02*
X42440600Y-8185714D01*
X42654885Y-7885714D02*
X42354885Y-7885714D01*
X42654885Y-7714285D02*
X42483457Y-7842857D01*
X42354885Y-7714285D02*
X42526314Y-7885714D01*
X12529885Y-7367856D02*
X12529885Y-7510713D01*
X12529885Y-7510713D02*
X12672742Y-7524999D01*
X12672742Y-7524999D02*
X12658457Y-7510713D01*
X12658457Y-7510713D02*
X12644171Y-7482142D01*
X12644171Y-7482142D02*
X12644171Y-7410713D01*
X12644171Y-7410713D02*
X12658457Y-7382142D01*
X12658457Y-7382142D02*
X12672742Y-7367856D01*
X12672742Y-7367856D02*
X12701314Y-7353570D01*
X12701314Y-7353570D02*
X12772742Y-7353570D01*
X12772742Y-7353570D02*
X12801314Y-7367856D01*
X12801314Y-7367856D02*
X12815600Y-7382142D01*
X12815600Y-7382142D02*
X12829885Y-7410713D01*
X12829885Y-7410713D02*
X12829885Y-7482142D01*
X12829885Y-7482142D02*
X12815600Y-7510713D01*
X12815600Y-7510713D02*
X12801314Y-7524999D01*
X12801314Y-7224999D02*
X12815600Y-7210713D01*
X12815600Y-7210713D02*
X12829885Y-7224999D01*
X12829885Y-7224999D02*
X12815600Y-7239285D01*
X12815600Y-7239285D02*
X12801314Y-7224999D01*
X12801314Y-7224999D02*
X12829885Y-7224999D01*
X12829885Y-6924999D02*
X12829885Y-7096428D01*
X12829885Y-7010713D02*
X12529885Y-7010713D01*
X12529885Y-7010713D02*
X12572742Y-7039285D01*
X12572742Y-7039285D02*
X12601314Y-7067856D01*
X12601314Y-7067856D02*
X12615600Y-7096428D01*
X12829885Y-6796428D02*
X12529885Y-6796428D01*
X12829885Y-6624999D02*
X12658457Y-6753571D01*
X12529885Y-6624999D02*
X12701314Y-6796428D01*
X36584885Y-22864999D02*
X36284885Y-22864999D01*
X36284885Y-22864999D02*
X36584885Y-22693570D01*
X36584885Y-22693570D02*
X36284885Y-22693570D01*
X36613457Y-22622142D02*
X36613457Y-22393570D01*
X36584885Y-22322142D02*
X36284885Y-22322142D01*
X36284885Y-22322142D02*
X36499171Y-22222142D01*
X36499171Y-22222142D02*
X36284885Y-22122142D01*
X36284885Y-22122142D02*
X36584885Y-22122142D01*
X36284885Y-21922142D02*
X36284885Y-21864999D01*
X36284885Y-21864999D02*
X36299171Y-21836428D01*
X36299171Y-21836428D02*
X36327742Y-21807856D01*
X36327742Y-21807856D02*
X36384885Y-21793571D01*
X36384885Y-21793571D02*
X36484885Y-21793571D01*
X36484885Y-21793571D02*
X36542028Y-21807856D01*
X36542028Y-21807856D02*
X36570600Y-21836428D01*
X36570600Y-21836428D02*
X36584885Y-21864999D01*
X36584885Y-21864999D02*
X36584885Y-21922142D01*
X36584885Y-21922142D02*
X36570600Y-21950714D01*
X36570600Y-21950714D02*
X36542028Y-21979285D01*
X36542028Y-21979285D02*
X36484885Y-21993571D01*
X36484885Y-21993571D02*
X36384885Y-21993571D01*
X36384885Y-21993571D02*
X36327742Y-21979285D01*
X36327742Y-21979285D02*
X36299171Y-21950714D01*
X36299171Y-21950714D02*
X36284885Y-21922142D01*
X36570600Y-21679285D02*
X36584885Y-21636428D01*
X36584885Y-21636428D02*
X36584885Y-21564999D01*
X36584885Y-21564999D02*
X36570600Y-21536428D01*
X36570600Y-21536428D02*
X36556314Y-21522142D01*
X36556314Y-21522142D02*
X36527742Y-21507856D01*
X36527742Y-21507856D02*
X36499171Y-21507856D01*
X36499171Y-21507856D02*
X36470600Y-21522142D01*
X36470600Y-21522142D02*
X36456314Y-21536428D01*
X36456314Y-21536428D02*
X36442028Y-21564999D01*
X36442028Y-21564999D02*
X36427742Y-21622142D01*
X36427742Y-21622142D02*
X36413457Y-21650713D01*
X36413457Y-21650713D02*
X36399171Y-21664999D01*
X36399171Y-21664999D02*
X36370600Y-21679285D01*
X36370600Y-21679285D02*
X36342028Y-21679285D01*
X36342028Y-21679285D02*
X36313457Y-21664999D01*
X36313457Y-21664999D02*
X36299171Y-21650713D01*
X36299171Y-21650713D02*
X36284885Y-21622142D01*
X36284885Y-21622142D02*
X36284885Y-21550713D01*
X36284885Y-21550713D02*
X36299171Y-21507856D01*
X36427742Y-21279285D02*
X36427742Y-21379285D01*
X36584885Y-21379285D02*
X36284885Y-21379285D01*
X36284885Y-21379285D02*
X36284885Y-21236428D01*
X36427742Y-21122142D02*
X36427742Y-21022142D01*
X36584885Y-20979285D02*
X36584885Y-21122142D01*
X36584885Y-21122142D02*
X36284885Y-21122142D01*
X36284885Y-21122142D02*
X36284885Y-20979285D01*
X36284885Y-20893570D02*
X36284885Y-20722142D01*
X36584885Y-20807856D02*
X36284885Y-20807856D01*
X19279885Y-17974999D02*
X19279885Y-18146428D01*
X19279885Y-18060713D02*
X18979885Y-18060713D01*
X18979885Y-18060713D02*
X19022742Y-18089285D01*
X19022742Y-18089285D02*
X19051314Y-18117856D01*
X19051314Y-18117856D02*
X19065600Y-18146428D01*
X18979885Y-17789285D02*
X18979885Y-17760714D01*
X18979885Y-17760714D02*
X18994171Y-17732142D01*
X18994171Y-17732142D02*
X19008457Y-17717857D01*
X19008457Y-17717857D02*
X19037028Y-17703571D01*
X19037028Y-17703571D02*
X19094171Y-17689285D01*
X19094171Y-17689285D02*
X19165600Y-17689285D01*
X19165600Y-17689285D02*
X19222742Y-17703571D01*
X19222742Y-17703571D02*
X19251314Y-17717857D01*
X19251314Y-17717857D02*
X19265600Y-17732142D01*
X19265600Y-17732142D02*
X19279885Y-17760714D01*
X19279885Y-17760714D02*
X19279885Y-17789285D01*
X19279885Y-17789285D02*
X19265600Y-17817857D01*
X19265600Y-17817857D02*
X19251314Y-17832142D01*
X19251314Y-17832142D02*
X19222742Y-17846428D01*
X19222742Y-17846428D02*
X19165600Y-17860714D01*
X19165600Y-17860714D02*
X19094171Y-17860714D01*
X19094171Y-17860714D02*
X19037028Y-17846428D01*
X19037028Y-17846428D02*
X19008457Y-17832142D01*
X19008457Y-17832142D02*
X18994171Y-17817857D01*
X18994171Y-17817857D02*
X18979885Y-17789285D01*
X18979885Y-17503571D02*
X18979885Y-17475000D01*
X18979885Y-17475000D02*
X18994171Y-17446428D01*
X18994171Y-17446428D02*
X19008457Y-17432143D01*
X19008457Y-17432143D02*
X19037028Y-17417857D01*
X19037028Y-17417857D02*
X19094171Y-17403571D01*
X19094171Y-17403571D02*
X19165600Y-17403571D01*
X19165600Y-17403571D02*
X19222742Y-17417857D01*
X19222742Y-17417857D02*
X19251314Y-17432143D01*
X19251314Y-17432143D02*
X19265600Y-17446428D01*
X19265600Y-17446428D02*
X19279885Y-17475000D01*
X19279885Y-17475000D02*
X19279885Y-17503571D01*
X19279885Y-17503571D02*
X19265600Y-17532143D01*
X19265600Y-17532143D02*
X19251314Y-17546428D01*
X19251314Y-17546428D02*
X19222742Y-17560714D01*
X19222742Y-17560714D02*
X19165600Y-17575000D01*
X19165600Y-17575000D02*
X19094171Y-17575000D01*
X19094171Y-17575000D02*
X19037028Y-17560714D01*
X19037028Y-17560714D02*
X19008457Y-17546428D01*
X19008457Y-17546428D02*
X18994171Y-17532143D01*
X18994171Y-17532143D02*
X18979885Y-17503571D01*
X19279885Y-17275000D02*
X18979885Y-17275000D01*
X19279885Y-17103571D02*
X19108457Y-17232143D01*
X18979885Y-17103571D02*
X19151314Y-17275000D01*
X535713Y-25884885D02*
X535713Y-25584885D01*
X535713Y-25584885D02*
X635713Y-25799171D01*
X635713Y-25799171D02*
X735713Y-25584885D01*
X735713Y-25584885D02*
X735713Y-25884885D01*
X864284Y-25613457D02*
X878570Y-25599171D01*
X878570Y-25599171D02*
X907142Y-25584885D01*
X907142Y-25584885D02*
X978570Y-25584885D01*
X978570Y-25584885D02*
X1007142Y-25599171D01*
X1007142Y-25599171D02*
X1021427Y-25613457D01*
X1021427Y-25613457D02*
X1035713Y-25642028D01*
X1035713Y-25642028D02*
X1035713Y-25670600D01*
X1035713Y-25670600D02*
X1021427Y-25713457D01*
X1021427Y-25713457D02*
X849999Y-25884885D01*
X849999Y-25884885D02*
X1035713Y-25884885D01*
X1164284Y-25856314D02*
X1178570Y-25870600D01*
X1178570Y-25870600D02*
X1164284Y-25884885D01*
X1164284Y-25884885D02*
X1149998Y-25870600D01*
X1149998Y-25870600D02*
X1164284Y-25856314D01*
X1164284Y-25856314D02*
X1164284Y-25884885D01*
X1449998Y-25584885D02*
X1307141Y-25584885D01*
X1307141Y-25584885D02*
X1292855Y-25727742D01*
X1292855Y-25727742D02*
X1307141Y-25713457D01*
X1307141Y-25713457D02*
X1335713Y-25699171D01*
X1335713Y-25699171D02*
X1407141Y-25699171D01*
X1407141Y-25699171D02*
X1435713Y-25713457D01*
X1435713Y-25713457D02*
X1449998Y-25727742D01*
X1449998Y-25727742D02*
X1464284Y-25756314D01*
X1464284Y-25756314D02*
X1464284Y-25827742D01*
X1464284Y-25827742D02*
X1449998Y-25856314D01*
X1449998Y-25856314D02*
X1435713Y-25870600D01*
X1435713Y-25870600D02*
X1407141Y-25884885D01*
X1407141Y-25884885D02*
X1335713Y-25884885D01*
X1335713Y-25884885D02*
X1307141Y-25870600D01*
X1307141Y-25870600D02*
X1292855Y-25856314D01*
X1592855Y-25884885D02*
X1592855Y-25584885D01*
X1592855Y-25584885D02*
X1692855Y-25799171D01*
X1692855Y-25799171D02*
X1792855Y-25584885D01*
X1792855Y-25584885D02*
X1792855Y-25884885D01*
X1978569Y-25884885D02*
X1949998Y-25870600D01*
X1949998Y-25870600D02*
X1935712Y-25856314D01*
X1935712Y-25856314D02*
X1921426Y-25827742D01*
X1921426Y-25827742D02*
X1921426Y-25742028D01*
X1921426Y-25742028D02*
X1935712Y-25713457D01*
X1935712Y-25713457D02*
X1949998Y-25699171D01*
X1949998Y-25699171D02*
X1978569Y-25684885D01*
X1978569Y-25684885D02*
X2021426Y-25684885D01*
X2021426Y-25684885D02*
X2049998Y-25699171D01*
X2049998Y-25699171D02*
X2064284Y-25713457D01*
X2064284Y-25713457D02*
X2078569Y-25742028D01*
X2078569Y-25742028D02*
X2078569Y-25827742D01*
X2078569Y-25827742D02*
X2064284Y-25856314D01*
X2064284Y-25856314D02*
X2049998Y-25870600D01*
X2049998Y-25870600D02*
X2021426Y-25884885D01*
X2021426Y-25884885D02*
X1978569Y-25884885D01*
X2335713Y-25684885D02*
X2335713Y-25884885D01*
X2207141Y-25684885D02*
X2207141Y-25842028D01*
X2207141Y-25842028D02*
X2221427Y-25870600D01*
X2221427Y-25870600D02*
X2249998Y-25884885D01*
X2249998Y-25884885D02*
X2292855Y-25884885D01*
X2292855Y-25884885D02*
X2321427Y-25870600D01*
X2321427Y-25870600D02*
X2335713Y-25856314D01*
X2478570Y-25684885D02*
X2478570Y-25884885D01*
X2478570Y-25713457D02*
X2492856Y-25699171D01*
X2492856Y-25699171D02*
X2521427Y-25684885D01*
X2521427Y-25684885D02*
X2564284Y-25684885D01*
X2564284Y-25684885D02*
X2592856Y-25699171D01*
X2592856Y-25699171D02*
X2607142Y-25727742D01*
X2607142Y-25727742D02*
X2607142Y-25884885D01*
X2707142Y-25684885D02*
X2821428Y-25684885D01*
X2749999Y-25584885D02*
X2749999Y-25842028D01*
X2749999Y-25842028D02*
X2764285Y-25870600D01*
X2764285Y-25870600D02*
X2792856Y-25884885D01*
X2792856Y-25884885D02*
X2821428Y-25884885D01*
X2921428Y-25884885D02*
X2921428Y-25684885D01*
X2921428Y-25584885D02*
X2907142Y-25599171D01*
X2907142Y-25599171D02*
X2921428Y-25613457D01*
X2921428Y-25613457D02*
X2935714Y-25599171D01*
X2935714Y-25599171D02*
X2921428Y-25584885D01*
X2921428Y-25584885D02*
X2921428Y-25613457D01*
X3064285Y-25684885D02*
X3064285Y-25884885D01*
X3064285Y-25713457D02*
X3078571Y-25699171D01*
X3078571Y-25699171D02*
X3107142Y-25684885D01*
X3107142Y-25684885D02*
X3149999Y-25684885D01*
X3149999Y-25684885D02*
X3178571Y-25699171D01*
X3178571Y-25699171D02*
X3192857Y-25727742D01*
X3192857Y-25727742D02*
X3192857Y-25884885D01*
X3464286Y-25684885D02*
X3464286Y-25927742D01*
X3464286Y-25927742D02*
X3450000Y-25956314D01*
X3450000Y-25956314D02*
X3435714Y-25970600D01*
X3435714Y-25970600D02*
X3407143Y-25984885D01*
X3407143Y-25984885D02*
X3364286Y-25984885D01*
X3364286Y-25984885D02*
X3335714Y-25970600D01*
X3464286Y-25870600D02*
X3435714Y-25884885D01*
X3435714Y-25884885D02*
X3378571Y-25884885D01*
X3378571Y-25884885D02*
X3350000Y-25870600D01*
X3350000Y-25870600D02*
X3335714Y-25856314D01*
X3335714Y-25856314D02*
X3321428Y-25827742D01*
X3321428Y-25827742D02*
X3321428Y-25742028D01*
X3321428Y-25742028D02*
X3335714Y-25713457D01*
X3335714Y-25713457D02*
X3350000Y-25699171D01*
X3350000Y-25699171D02*
X3378571Y-25684885D01*
X3378571Y-25684885D02*
X3435714Y-25684885D01*
X3435714Y-25684885D02*
X3464286Y-25699171D01*
X3607143Y-25884885D02*
X3607143Y-25584885D01*
X3607143Y-25727742D02*
X3778572Y-25727742D01*
X3778572Y-25884885D02*
X3778572Y-25584885D01*
X3964286Y-25884885D02*
X3935715Y-25870600D01*
X3935715Y-25870600D02*
X3921429Y-25856314D01*
X3921429Y-25856314D02*
X3907143Y-25827742D01*
X3907143Y-25827742D02*
X3907143Y-25742028D01*
X3907143Y-25742028D02*
X3921429Y-25713457D01*
X3921429Y-25713457D02*
X3935715Y-25699171D01*
X3935715Y-25699171D02*
X3964286Y-25684885D01*
X3964286Y-25684885D02*
X4007143Y-25684885D01*
X4007143Y-25684885D02*
X4035715Y-25699171D01*
X4035715Y-25699171D02*
X4050001Y-25713457D01*
X4050001Y-25713457D02*
X4064286Y-25742028D01*
X4064286Y-25742028D02*
X4064286Y-25827742D01*
X4064286Y-25827742D02*
X4050001Y-25856314D01*
X4050001Y-25856314D02*
X4035715Y-25870600D01*
X4035715Y-25870600D02*
X4007143Y-25884885D01*
X4007143Y-25884885D02*
X3964286Y-25884885D01*
X4235715Y-25884885D02*
X4207144Y-25870600D01*
X4207144Y-25870600D02*
X4192858Y-25842028D01*
X4192858Y-25842028D02*
X4192858Y-25584885D01*
X4464287Y-25870600D02*
X4435715Y-25884885D01*
X4435715Y-25884885D02*
X4378573Y-25884885D01*
X4378573Y-25884885D02*
X4350001Y-25870600D01*
X4350001Y-25870600D02*
X4335715Y-25842028D01*
X4335715Y-25842028D02*
X4335715Y-25727742D01*
X4335715Y-25727742D02*
X4350001Y-25699171D01*
X4350001Y-25699171D02*
X4378573Y-25684885D01*
X4378573Y-25684885D02*
X4435715Y-25684885D01*
X4435715Y-25684885D02*
X4464287Y-25699171D01*
X4464287Y-25699171D02*
X4478573Y-25727742D01*
X4478573Y-25727742D02*
X4478573Y-25756314D01*
X4478573Y-25756314D02*
X4335715Y-25784885D01*
X24739885Y-23796428D02*
X24739885Y-23967857D01*
X24739885Y-23882142D02*
X24439885Y-23882142D01*
X24439885Y-23882142D02*
X24482742Y-23910714D01*
X24482742Y-23910714D02*
X24511314Y-23939285D01*
X24511314Y-23939285D02*
X24525600Y-23967857D01*
X24439885Y-23610714D02*
X24439885Y-23582143D01*
X24439885Y-23582143D02*
X24454171Y-23553571D01*
X24454171Y-23553571D02*
X24468457Y-23539286D01*
X24468457Y-23539286D02*
X24497028Y-23525000D01*
X24497028Y-23525000D02*
X24554171Y-23510714D01*
X24554171Y-23510714D02*
X24625600Y-23510714D01*
X24625600Y-23510714D02*
X24682742Y-23525000D01*
X24682742Y-23525000D02*
X24711314Y-23539286D01*
X24711314Y-23539286D02*
X24725600Y-23553571D01*
X24725600Y-23553571D02*
X24739885Y-23582143D01*
X24739885Y-23582143D02*
X24739885Y-23610714D01*
X24739885Y-23610714D02*
X24725600Y-23639286D01*
X24725600Y-23639286D02*
X24711314Y-23653571D01*
X24711314Y-23653571D02*
X24682742Y-23667857D01*
X24682742Y-23667857D02*
X24625600Y-23682143D01*
X24625600Y-23682143D02*
X24554171Y-23682143D01*
X24554171Y-23682143D02*
X24497028Y-23667857D01*
X24497028Y-23667857D02*
X24468457Y-23653571D01*
X24468457Y-23653571D02*
X24454171Y-23639286D01*
X24454171Y-23639286D02*
X24439885Y-23610714D01*
X24539885Y-23382143D02*
X24739885Y-23382143D01*
X24568457Y-23382143D02*
X24554171Y-23367857D01*
X24554171Y-23367857D02*
X24539885Y-23339286D01*
X24539885Y-23339286D02*
X24539885Y-23296429D01*
X24539885Y-23296429D02*
X24554171Y-23267857D01*
X24554171Y-23267857D02*
X24582742Y-23253572D01*
X24582742Y-23253572D02*
X24739885Y-23253572D01*
X24582742Y-23010714D02*
X24582742Y-23110714D01*
X24739885Y-23110714D02*
X24439885Y-23110714D01*
X24439885Y-23110714D02*
X24439885Y-22967857D01*
X22549885Y-32507856D02*
X22549885Y-32479285D01*
X22549885Y-32479285D02*
X22564171Y-32450713D01*
X22564171Y-32450713D02*
X22578457Y-32436428D01*
X22578457Y-32436428D02*
X22607028Y-32422142D01*
X22607028Y-32422142D02*
X22664171Y-32407856D01*
X22664171Y-32407856D02*
X22735600Y-32407856D01*
X22735600Y-32407856D02*
X22792742Y-32422142D01*
X22792742Y-32422142D02*
X22821314Y-32436428D01*
X22821314Y-32436428D02*
X22835600Y-32450713D01*
X22835600Y-32450713D02*
X22849885Y-32479285D01*
X22849885Y-32479285D02*
X22849885Y-32507856D01*
X22849885Y-32507856D02*
X22835600Y-32536428D01*
X22835600Y-32536428D02*
X22821314Y-32550713D01*
X22821314Y-32550713D02*
X22792742Y-32564999D01*
X22792742Y-32564999D02*
X22735600Y-32579285D01*
X22735600Y-32579285D02*
X22664171Y-32579285D01*
X22664171Y-32579285D02*
X22607028Y-32564999D01*
X22607028Y-32564999D02*
X22578457Y-32550713D01*
X22578457Y-32550713D02*
X22564171Y-32536428D01*
X22564171Y-32536428D02*
X22549885Y-32507856D01*
X22821314Y-32279285D02*
X22835600Y-32264999D01*
X22835600Y-32264999D02*
X22849885Y-32279285D01*
X22849885Y-32279285D02*
X22835600Y-32293571D01*
X22835600Y-32293571D02*
X22821314Y-32279285D01*
X22821314Y-32279285D02*
X22849885Y-32279285D01*
X22849885Y-31979285D02*
X22849885Y-32150714D01*
X22849885Y-32064999D02*
X22549885Y-32064999D01*
X22549885Y-32064999D02*
X22592742Y-32093571D01*
X22592742Y-32093571D02*
X22621314Y-32122142D01*
X22621314Y-32122142D02*
X22635600Y-32150714D01*
X22649885Y-31722143D02*
X22849885Y-31722143D01*
X22649885Y-31850714D02*
X22807028Y-31850714D01*
X22807028Y-31850714D02*
X22835600Y-31836428D01*
X22835600Y-31836428D02*
X22849885Y-31807857D01*
X22849885Y-31807857D02*
X22849885Y-31765000D01*
X22849885Y-31765000D02*
X22835600Y-31736428D01*
X22835600Y-31736428D02*
X22821314Y-31722143D01*
X22692742Y-31479285D02*
X22692742Y-31579285D01*
X22849885Y-31579285D02*
X22549885Y-31579285D01*
X22549885Y-31579285D02*
X22549885Y-31436428D01*
X45942857Y-21039885D02*
X45771428Y-21039885D01*
X45857143Y-21039885D02*
X45857143Y-20739885D01*
X45857143Y-20739885D02*
X45828571Y-20782742D01*
X45828571Y-20782742D02*
X45800000Y-20811314D01*
X45800000Y-20811314D02*
X45771428Y-20825600D01*
X46128571Y-20739885D02*
X46157142Y-20739885D01*
X46157142Y-20739885D02*
X46185714Y-20754171D01*
X46185714Y-20754171D02*
X46200000Y-20768457D01*
X46200000Y-20768457D02*
X46214285Y-20797028D01*
X46214285Y-20797028D02*
X46228571Y-20854171D01*
X46228571Y-20854171D02*
X46228571Y-20925600D01*
X46228571Y-20925600D02*
X46214285Y-20982742D01*
X46214285Y-20982742D02*
X46200000Y-21011314D01*
X46200000Y-21011314D02*
X46185714Y-21025600D01*
X46185714Y-21025600D02*
X46157142Y-21039885D01*
X46157142Y-21039885D02*
X46128571Y-21039885D01*
X46128571Y-21039885D02*
X46100000Y-21025600D01*
X46100000Y-21025600D02*
X46085714Y-21011314D01*
X46085714Y-21011314D02*
X46071428Y-20982742D01*
X46071428Y-20982742D02*
X46057142Y-20925600D01*
X46057142Y-20925600D02*
X46057142Y-20854171D01*
X46057142Y-20854171D02*
X46071428Y-20797028D01*
X46071428Y-20797028D02*
X46085714Y-20768457D01*
X46085714Y-20768457D02*
X46100000Y-20754171D01*
X46100000Y-20754171D02*
X46128571Y-20739885D01*
X46357142Y-21039885D02*
X46357142Y-20739885D01*
X46528571Y-21039885D02*
X46399999Y-20868457D01*
X46528571Y-20739885D02*
X46357142Y-20911314D01*
X42594885Y-8442856D02*
X42594885Y-8414285D01*
X42594885Y-8414285D02*
X42609171Y-8385713D01*
X42609171Y-8385713D02*
X42623457Y-8371428D01*
X42623457Y-8371428D02*
X42652028Y-8357142D01*
X42652028Y-8357142D02*
X42709171Y-8342856D01*
X42709171Y-8342856D02*
X42780600Y-8342856D01*
X42780600Y-8342856D02*
X42837742Y-8357142D01*
X42837742Y-8357142D02*
X42866314Y-8371428D01*
X42866314Y-8371428D02*
X42880600Y-8385713D01*
X42880600Y-8385713D02*
X42894885Y-8414285D01*
X42894885Y-8414285D02*
X42894885Y-8442856D01*
X42894885Y-8442856D02*
X42880600Y-8471428D01*
X42880600Y-8471428D02*
X42866314Y-8485713D01*
X42866314Y-8485713D02*
X42837742Y-8499999D01*
X42837742Y-8499999D02*
X42780600Y-8514285D01*
X42780600Y-8514285D02*
X42709171Y-8514285D01*
X42709171Y-8514285D02*
X42652028Y-8499999D01*
X42652028Y-8499999D02*
X42623457Y-8485713D01*
X42623457Y-8485713D02*
X42609171Y-8471428D01*
X42609171Y-8471428D02*
X42594885Y-8442856D01*
X42866314Y-8214285D02*
X42880600Y-8199999D01*
X42880600Y-8199999D02*
X42894885Y-8214285D01*
X42894885Y-8214285D02*
X42880600Y-8228571D01*
X42880600Y-8228571D02*
X42866314Y-8214285D01*
X42866314Y-8214285D02*
X42894885Y-8214285D01*
X42894885Y-7914285D02*
X42894885Y-8085714D01*
X42894885Y-7999999D02*
X42594885Y-7999999D01*
X42594885Y-7999999D02*
X42637742Y-8028571D01*
X42637742Y-8028571D02*
X42666314Y-8057142D01*
X42666314Y-8057142D02*
X42680600Y-8085714D01*
X42694885Y-7657143D02*
X42894885Y-7657143D01*
X42694885Y-7785714D02*
X42852028Y-7785714D01*
X42852028Y-7785714D02*
X42880600Y-7771428D01*
X42880600Y-7771428D02*
X42894885Y-7742857D01*
X42894885Y-7742857D02*
X42894885Y-7700000D01*
X42894885Y-7700000D02*
X42880600Y-7671428D01*
X42880600Y-7671428D02*
X42866314Y-7657143D01*
X42737742Y-7414285D02*
X42737742Y-7514285D01*
X42894885Y-7514285D02*
X42594885Y-7514285D01*
X42594885Y-7514285D02*
X42594885Y-7371428D01*
X44725000Y-21029885D02*
X44553571Y-21029885D01*
X44639286Y-21029885D02*
X44639286Y-20729885D01*
X44639286Y-20729885D02*
X44610714Y-20772742D01*
X44610714Y-20772742D02*
X44582143Y-20801314D01*
X44582143Y-20801314D02*
X44553571Y-20815600D01*
X44910714Y-20729885D02*
X44939285Y-20729885D01*
X44939285Y-20729885D02*
X44967857Y-20744171D01*
X44967857Y-20744171D02*
X44982143Y-20758457D01*
X44982143Y-20758457D02*
X44996428Y-20787028D01*
X44996428Y-20787028D02*
X45010714Y-20844171D01*
X45010714Y-20844171D02*
X45010714Y-20915600D01*
X45010714Y-20915600D02*
X44996428Y-20972742D01*
X44996428Y-20972742D02*
X44982143Y-21001314D01*
X44982143Y-21001314D02*
X44967857Y-21015600D01*
X44967857Y-21015600D02*
X44939285Y-21029885D01*
X44939285Y-21029885D02*
X44910714Y-21029885D01*
X44910714Y-21029885D02*
X44882143Y-21015600D01*
X44882143Y-21015600D02*
X44867857Y-21001314D01*
X44867857Y-21001314D02*
X44853571Y-20972742D01*
X44853571Y-20972742D02*
X44839285Y-20915600D01*
X44839285Y-20915600D02*
X44839285Y-20844171D01*
X44839285Y-20844171D02*
X44853571Y-20787028D01*
X44853571Y-20787028D02*
X44867857Y-20758457D01*
X44867857Y-20758457D02*
X44882143Y-20744171D01*
X44882143Y-20744171D02*
X44910714Y-20729885D01*
X45196428Y-20729885D02*
X45224999Y-20729885D01*
X45224999Y-20729885D02*
X45253571Y-20744171D01*
X45253571Y-20744171D02*
X45267857Y-20758457D01*
X45267857Y-20758457D02*
X45282142Y-20787028D01*
X45282142Y-20787028D02*
X45296428Y-20844171D01*
X45296428Y-20844171D02*
X45296428Y-20915600D01*
X45296428Y-20915600D02*
X45282142Y-20972742D01*
X45282142Y-20972742D02*
X45267857Y-21001314D01*
X45267857Y-21001314D02*
X45253571Y-21015600D01*
X45253571Y-21015600D02*
X45224999Y-21029885D01*
X45224999Y-21029885D02*
X45196428Y-21029885D01*
X45196428Y-21029885D02*
X45167857Y-21015600D01*
X45167857Y-21015600D02*
X45153571Y-21001314D01*
X45153571Y-21001314D02*
X45139285Y-20972742D01*
X45139285Y-20972742D02*
X45124999Y-20915600D01*
X45124999Y-20915600D02*
X45124999Y-20844171D01*
X45124999Y-20844171D02*
X45139285Y-20787028D01*
X45139285Y-20787028D02*
X45153571Y-20758457D01*
X45153571Y-20758457D02*
X45167857Y-20744171D01*
X45167857Y-20744171D02*
X45196428Y-20729885D01*
X45424999Y-21029885D02*
X45424999Y-20729885D01*
X45596428Y-21029885D02*
X45467856Y-20858457D01*
X45596428Y-20729885D02*
X45424999Y-20901314D01*
D11*
X38610476Y-3134819D02*
X38705714Y-3134819D01*
X38705714Y-3134819D02*
X38800952Y-3182438D01*
X38800952Y-3182438D02*
X38848571Y-3230057D01*
X38848571Y-3230057D02*
X38896190Y-3325295D01*
X38896190Y-3325295D02*
X38943809Y-3515771D01*
X38943809Y-3515771D02*
X38943809Y-3753866D01*
X38943809Y-3753866D02*
X38896190Y-3944342D01*
X38896190Y-3944342D02*
X38848571Y-4039580D01*
X38848571Y-4039580D02*
X38800952Y-4087200D01*
X38800952Y-4087200D02*
X38705714Y-4134819D01*
X38705714Y-4134819D02*
X38610476Y-4134819D01*
X38610476Y-4134819D02*
X38515238Y-4087200D01*
X38515238Y-4087200D02*
X38467619Y-4039580D01*
X38467619Y-4039580D02*
X38420000Y-3944342D01*
X38420000Y-3944342D02*
X38372381Y-3753866D01*
X38372381Y-3753866D02*
X38372381Y-3515771D01*
X38372381Y-3515771D02*
X38420000Y-3325295D01*
X38420000Y-3325295D02*
X38467619Y-3230057D01*
X38467619Y-3230057D02*
X38515238Y-3182438D01*
X38515238Y-3182438D02*
X38610476Y-3134819D01*
X39896190Y-4134819D02*
X39324762Y-4134819D01*
X39610476Y-4134819D02*
X39610476Y-3134819D01*
X39610476Y-3134819D02*
X39515238Y-3277676D01*
X39515238Y-3277676D02*
X39420000Y-3372914D01*
X39420000Y-3372914D02*
X39324762Y-3420533D01*
X40229524Y-4134819D02*
X40753333Y-3468152D01*
X40229524Y-3468152D02*
X40753333Y-4134819D01*
X41324762Y-3134819D02*
X41420000Y-3134819D01*
X41420000Y-3134819D02*
X41515238Y-3182438D01*
X41515238Y-3182438D02*
X41562857Y-3230057D01*
X41562857Y-3230057D02*
X41610476Y-3325295D01*
X41610476Y-3325295D02*
X41658095Y-3515771D01*
X41658095Y-3515771D02*
X41658095Y-3753866D01*
X41658095Y-3753866D02*
X41610476Y-3944342D01*
X41610476Y-3944342D02*
X41562857Y-4039580D01*
X41562857Y-4039580D02*
X41515238Y-4087200D01*
X41515238Y-4087200D02*
X41420000Y-4134819D01*
X41420000Y-4134819D02*
X41324762Y-4134819D01*
X41324762Y-4134819D02*
X41229524Y-4087200D01*
X41229524Y-4087200D02*
X41181905Y-4039580D01*
X41181905Y-4039580D02*
X41134286Y-3944342D01*
X41134286Y-3944342D02*
X41086667Y-3753866D01*
X41086667Y-3753866D02*
X41086667Y-3515771D01*
X41086667Y-3515771D02*
X41134286Y-3325295D01*
X41134286Y-3325295D02*
X41181905Y-3230057D01*
X41181905Y-3230057D02*
X41229524Y-3182438D01*
X41229524Y-3182438D02*
X41324762Y-3134819D01*
X42515238Y-3134819D02*
X42324762Y-3134819D01*
X42324762Y-3134819D02*
X42229524Y-3182438D01*
X42229524Y-3182438D02*
X42181905Y-3230057D01*
X42181905Y-3230057D02*
X42086667Y-3372914D01*
X42086667Y-3372914D02*
X42039048Y-3563390D01*
X42039048Y-3563390D02*
X42039048Y-3944342D01*
X42039048Y-3944342D02*
X42086667Y-4039580D01*
X42086667Y-4039580D02*
X42134286Y-4087200D01*
X42134286Y-4087200D02*
X42229524Y-4134819D01*
X42229524Y-4134819D02*
X42420000Y-4134819D01*
X42420000Y-4134819D02*
X42515238Y-4087200D01*
X42515238Y-4087200D02*
X42562857Y-4039580D01*
X42562857Y-4039580D02*
X42610476Y-3944342D01*
X42610476Y-3944342D02*
X42610476Y-3706247D01*
X42610476Y-3706247D02*
X42562857Y-3611009D01*
X42562857Y-3611009D02*
X42515238Y-3563390D01*
X42515238Y-3563390D02*
X42420000Y-3515771D01*
X42420000Y-3515771D02*
X42229524Y-3515771D01*
X42229524Y-3515771D02*
X42134286Y-3563390D01*
X42134286Y-3563390D02*
X42086667Y-3611009D01*
X42086667Y-3611009D02*
X42039048Y-3706247D01*
X42800953Y-4230057D02*
X43562857Y-4230057D01*
X43753334Y-3230057D02*
X43800953Y-3182438D01*
X43800953Y-3182438D02*
X43896191Y-3134819D01*
X43896191Y-3134819D02*
X44134286Y-3134819D01*
X44134286Y-3134819D02*
X44229524Y-3182438D01*
X44229524Y-3182438D02*
X44277143Y-3230057D01*
X44277143Y-3230057D02*
X44324762Y-3325295D01*
X44324762Y-3325295D02*
X44324762Y-3420533D01*
X44324762Y-3420533D02*
X44277143Y-3563390D01*
X44277143Y-3563390D02*
X43705715Y-4134819D01*
X43705715Y-4134819D02*
X44324762Y-4134819D01*
X44753334Y-4039580D02*
X44800953Y-4087200D01*
X44800953Y-4087200D02*
X44753334Y-4134819D01*
X44753334Y-4134819D02*
X44705715Y-4087200D01*
X44705715Y-4087200D02*
X44753334Y-4039580D01*
X44753334Y-4039580D02*
X44753334Y-4134819D01*
X45705714Y-3134819D02*
X45229524Y-3134819D01*
X45229524Y-3134819D02*
X45181905Y-3611009D01*
X45181905Y-3611009D02*
X45229524Y-3563390D01*
X45229524Y-3563390D02*
X45324762Y-3515771D01*
X45324762Y-3515771D02*
X45562857Y-3515771D01*
X45562857Y-3515771D02*
X45658095Y-3563390D01*
X45658095Y-3563390D02*
X45705714Y-3611009D01*
X45705714Y-3611009D02*
X45753333Y-3706247D01*
X45753333Y-3706247D02*
X45753333Y-3944342D01*
X45753333Y-3944342D02*
X45705714Y-4039580D01*
X45705714Y-4039580D02*
X45658095Y-4087200D01*
X45658095Y-4087200D02*
X45562857Y-4134819D01*
X45562857Y-4134819D02*
X45324762Y-4134819D01*
X45324762Y-4134819D02*
X45229524Y-4087200D01*
X45229524Y-4087200D02*
X45181905Y-4039580D01*
X46610476Y-3468152D02*
X46610476Y-4134819D01*
X46372381Y-3087200D02*
X46134286Y-3801485D01*
X46134286Y-3801485D02*
X46753333Y-3801485D01*
X47134286Y-4134819D02*
X47134286Y-3468152D01*
X47134286Y-3563390D02*
X47181905Y-3515771D01*
X47181905Y-3515771D02*
X47277143Y-3468152D01*
X47277143Y-3468152D02*
X47420000Y-3468152D01*
X47420000Y-3468152D02*
X47515238Y-3515771D01*
X47515238Y-3515771D02*
X47562857Y-3611009D01*
X47562857Y-3611009D02*
X47562857Y-4134819D01*
X47562857Y-3611009D02*
X47610476Y-3515771D01*
X47610476Y-3515771D02*
X47705714Y-3468152D01*
X47705714Y-3468152D02*
X47848571Y-3468152D01*
X47848571Y-3468152D02*
X47943810Y-3515771D01*
X47943810Y-3515771D02*
X47991429Y-3611009D01*
X47991429Y-3611009D02*
X47991429Y-4134819D01*
X48467619Y-4134819D02*
X48467619Y-3468152D01*
X48467619Y-3563390D02*
X48515238Y-3515771D01*
X48515238Y-3515771D02*
X48610476Y-3468152D01*
X48610476Y-3468152D02*
X48753333Y-3468152D01*
X48753333Y-3468152D02*
X48848571Y-3515771D01*
X48848571Y-3515771D02*
X48896190Y-3611009D01*
X48896190Y-3611009D02*
X48896190Y-4134819D01*
X48896190Y-3611009D02*
X48943809Y-3515771D01*
X48943809Y-3515771D02*
X49039047Y-3468152D01*
X49039047Y-3468152D02*
X49181904Y-3468152D01*
X49181904Y-3468152D02*
X49277143Y-3515771D01*
X49277143Y-3515771D02*
X49324762Y-3611009D01*
X49324762Y-3611009D02*
X49324762Y-4134819D01*
X49562857Y-4230057D02*
X50324761Y-4230057D01*
X50896190Y-3611009D02*
X50562857Y-3611009D01*
X50562857Y-4134819D02*
X50562857Y-3134819D01*
X50562857Y-3134819D02*
X51039047Y-3134819D01*
X51800952Y-4087200D02*
X51705714Y-4134819D01*
X51705714Y-4134819D02*
X51515238Y-4134819D01*
X51515238Y-4134819D02*
X51420000Y-4087200D01*
X51420000Y-4087200D02*
X51372381Y-3991961D01*
X51372381Y-3991961D02*
X51372381Y-3611009D01*
X51372381Y-3611009D02*
X51420000Y-3515771D01*
X51420000Y-3515771D02*
X51515238Y-3468152D01*
X51515238Y-3468152D02*
X51705714Y-3468152D01*
X51705714Y-3468152D02*
X51800952Y-3515771D01*
X51800952Y-3515771D02*
X51848571Y-3611009D01*
X51848571Y-3611009D02*
X51848571Y-3706247D01*
X51848571Y-3706247D02*
X51372381Y-3801485D01*
X52277143Y-4134819D02*
X52277143Y-3468152D01*
X52277143Y-3563390D02*
X52324762Y-3515771D01*
X52324762Y-3515771D02*
X52420000Y-3468152D01*
X52420000Y-3468152D02*
X52562857Y-3468152D01*
X52562857Y-3468152D02*
X52658095Y-3515771D01*
X52658095Y-3515771D02*
X52705714Y-3611009D01*
X52705714Y-3611009D02*
X52705714Y-4134819D01*
X52705714Y-3611009D02*
X52753333Y-3515771D01*
X52753333Y-3515771D02*
X52848571Y-3468152D01*
X52848571Y-3468152D02*
X52991428Y-3468152D01*
X52991428Y-3468152D02*
X53086667Y-3515771D01*
X53086667Y-3515771D02*
X53134286Y-3611009D01*
X53134286Y-3611009D02*
X53134286Y-4134819D01*
X54039047Y-4134819D02*
X54039047Y-3611009D01*
X54039047Y-3611009D02*
X53991428Y-3515771D01*
X53991428Y-3515771D02*
X53896190Y-3468152D01*
X53896190Y-3468152D02*
X53705714Y-3468152D01*
X53705714Y-3468152D02*
X53610476Y-3515771D01*
X54039047Y-4087200D02*
X53943809Y-4134819D01*
X53943809Y-4134819D02*
X53705714Y-4134819D01*
X53705714Y-4134819D02*
X53610476Y-4087200D01*
X53610476Y-4087200D02*
X53562857Y-3991961D01*
X53562857Y-3991961D02*
X53562857Y-3896723D01*
X53562857Y-3896723D02*
X53610476Y-3801485D01*
X53610476Y-3801485D02*
X53705714Y-3753866D01*
X53705714Y-3753866D02*
X53943809Y-3753866D01*
X53943809Y-3753866D02*
X54039047Y-3706247D01*
X54658095Y-4134819D02*
X54562857Y-4087200D01*
X54562857Y-4087200D02*
X54515238Y-3991961D01*
X54515238Y-3991961D02*
X54515238Y-3134819D01*
X55420000Y-4087200D02*
X55324762Y-4134819D01*
X55324762Y-4134819D02*
X55134286Y-4134819D01*
X55134286Y-4134819D02*
X55039048Y-4087200D01*
X55039048Y-4087200D02*
X54991429Y-3991961D01*
X54991429Y-3991961D02*
X54991429Y-3611009D01*
X54991429Y-3611009D02*
X55039048Y-3515771D01*
X55039048Y-3515771D02*
X55134286Y-3468152D01*
X55134286Y-3468152D02*
X55324762Y-3468152D01*
X55324762Y-3468152D02*
X55420000Y-3515771D01*
X55420000Y-3515771D02*
X55467619Y-3611009D01*
X55467619Y-3611009D02*
X55467619Y-3706247D01*
X55467619Y-3706247D02*
X54991429Y-3801485D01*
X1222857Y-20774819D02*
X1318095Y-20774819D01*
X1318095Y-20774819D02*
X1413333Y-20822438D01*
X1413333Y-20822438D02*
X1460952Y-20870057D01*
X1460952Y-20870057D02*
X1508571Y-20965295D01*
X1508571Y-20965295D02*
X1556190Y-21155771D01*
X1556190Y-21155771D02*
X1556190Y-21393866D01*
X1556190Y-21393866D02*
X1508571Y-21584342D01*
X1508571Y-21584342D02*
X1460952Y-21679580D01*
X1460952Y-21679580D02*
X1413333Y-21727200D01*
X1413333Y-21727200D02*
X1318095Y-21774819D01*
X1318095Y-21774819D02*
X1222857Y-21774819D01*
X1222857Y-21774819D02*
X1127619Y-21727200D01*
X1127619Y-21727200D02*
X1080000Y-21679580D01*
X1080000Y-21679580D02*
X1032381Y-21584342D01*
X1032381Y-21584342D02*
X984762Y-21393866D01*
X984762Y-21393866D02*
X984762Y-21155771D01*
X984762Y-21155771D02*
X1032381Y-20965295D01*
X1032381Y-20965295D02*
X1080000Y-20870057D01*
X1080000Y-20870057D02*
X1127619Y-20822438D01*
X1127619Y-20822438D02*
X1222857Y-20774819D01*
X2508571Y-21774819D02*
X1937143Y-21774819D01*
X2222857Y-21774819D02*
X2222857Y-20774819D01*
X2222857Y-20774819D02*
X2127619Y-20917676D01*
X2127619Y-20917676D02*
X2032381Y-21012914D01*
X2032381Y-21012914D02*
X1937143Y-21060533D01*
X2841905Y-21774819D02*
X3365714Y-21108152D01*
X2841905Y-21108152D02*
X3365714Y-21774819D01*
X3937143Y-20774819D02*
X4032381Y-20774819D01*
X4032381Y-20774819D02*
X4127619Y-20822438D01*
X4127619Y-20822438D02*
X4175238Y-20870057D01*
X4175238Y-20870057D02*
X4222857Y-20965295D01*
X4222857Y-20965295D02*
X4270476Y-21155771D01*
X4270476Y-21155771D02*
X4270476Y-21393866D01*
X4270476Y-21393866D02*
X4222857Y-21584342D01*
X4222857Y-21584342D02*
X4175238Y-21679580D01*
X4175238Y-21679580D02*
X4127619Y-21727200D01*
X4127619Y-21727200D02*
X4032381Y-21774819D01*
X4032381Y-21774819D02*
X3937143Y-21774819D01*
X3937143Y-21774819D02*
X3841905Y-21727200D01*
X3841905Y-21727200D02*
X3794286Y-21679580D01*
X3794286Y-21679580D02*
X3746667Y-21584342D01*
X3746667Y-21584342D02*
X3699048Y-21393866D01*
X3699048Y-21393866D02*
X3699048Y-21155771D01*
X3699048Y-21155771D02*
X3746667Y-20965295D01*
X3746667Y-20965295D02*
X3794286Y-20870057D01*
X3794286Y-20870057D02*
X3841905Y-20822438D01*
X3841905Y-20822438D02*
X3937143Y-20774819D01*
X5127619Y-20774819D02*
X4937143Y-20774819D01*
X4937143Y-20774819D02*
X4841905Y-20822438D01*
X4841905Y-20822438D02*
X4794286Y-20870057D01*
X4794286Y-20870057D02*
X4699048Y-21012914D01*
X4699048Y-21012914D02*
X4651429Y-21203390D01*
X4651429Y-21203390D02*
X4651429Y-21584342D01*
X4651429Y-21584342D02*
X4699048Y-21679580D01*
X4699048Y-21679580D02*
X4746667Y-21727200D01*
X4746667Y-21727200D02*
X4841905Y-21774819D01*
X4841905Y-21774819D02*
X5032381Y-21774819D01*
X5032381Y-21774819D02*
X5127619Y-21727200D01*
X5127619Y-21727200D02*
X5175238Y-21679580D01*
X5175238Y-21679580D02*
X5222857Y-21584342D01*
X5222857Y-21584342D02*
X5222857Y-21346247D01*
X5222857Y-21346247D02*
X5175238Y-21251009D01*
X5175238Y-21251009D02*
X5127619Y-21203390D01*
X5127619Y-21203390D02*
X5032381Y-21155771D01*
X5032381Y-21155771D02*
X4841905Y-21155771D01*
X4841905Y-21155771D02*
X4746667Y-21203390D01*
X4746667Y-21203390D02*
X4699048Y-21251009D01*
X4699048Y-21251009D02*
X4651429Y-21346247D01*
X5413334Y-21870057D02*
X6175238Y-21870057D01*
X6365715Y-20870057D02*
X6413334Y-20822438D01*
X6413334Y-20822438D02*
X6508572Y-20774819D01*
X6508572Y-20774819D02*
X6746667Y-20774819D01*
X6746667Y-20774819D02*
X6841905Y-20822438D01*
X6841905Y-20822438D02*
X6889524Y-20870057D01*
X6889524Y-20870057D02*
X6937143Y-20965295D01*
X6937143Y-20965295D02*
X6937143Y-21060533D01*
X6937143Y-21060533D02*
X6889524Y-21203390D01*
X6889524Y-21203390D02*
X6318096Y-21774819D01*
X6318096Y-21774819D02*
X6937143Y-21774819D01*
X7365715Y-21679580D02*
X7413334Y-21727200D01*
X7413334Y-21727200D02*
X7365715Y-21774819D01*
X7365715Y-21774819D02*
X7318096Y-21727200D01*
X7318096Y-21727200D02*
X7365715Y-21679580D01*
X7365715Y-21679580D02*
X7365715Y-21774819D01*
X8318095Y-20774819D02*
X7841905Y-20774819D01*
X7841905Y-20774819D02*
X7794286Y-21251009D01*
X7794286Y-21251009D02*
X7841905Y-21203390D01*
X7841905Y-21203390D02*
X7937143Y-21155771D01*
X7937143Y-21155771D02*
X8175238Y-21155771D01*
X8175238Y-21155771D02*
X8270476Y-21203390D01*
X8270476Y-21203390D02*
X8318095Y-21251009D01*
X8318095Y-21251009D02*
X8365714Y-21346247D01*
X8365714Y-21346247D02*
X8365714Y-21584342D01*
X8365714Y-21584342D02*
X8318095Y-21679580D01*
X8318095Y-21679580D02*
X8270476Y-21727200D01*
X8270476Y-21727200D02*
X8175238Y-21774819D01*
X8175238Y-21774819D02*
X7937143Y-21774819D01*
X7937143Y-21774819D02*
X7841905Y-21727200D01*
X7841905Y-21727200D02*
X7794286Y-21679580D01*
X9222857Y-21108152D02*
X9222857Y-21774819D01*
X8984762Y-20727200D02*
X8746667Y-21441485D01*
X8746667Y-21441485D02*
X9365714Y-21441485D01*
X9746667Y-21774819D02*
X9746667Y-21108152D01*
X9746667Y-21203390D02*
X9794286Y-21155771D01*
X9794286Y-21155771D02*
X9889524Y-21108152D01*
X9889524Y-21108152D02*
X10032381Y-21108152D01*
X10032381Y-21108152D02*
X10127619Y-21155771D01*
X10127619Y-21155771D02*
X10175238Y-21251009D01*
X10175238Y-21251009D02*
X10175238Y-21774819D01*
X10175238Y-21251009D02*
X10222857Y-21155771D01*
X10222857Y-21155771D02*
X10318095Y-21108152D01*
X10318095Y-21108152D02*
X10460952Y-21108152D01*
X10460952Y-21108152D02*
X10556191Y-21155771D01*
X10556191Y-21155771D02*
X10603810Y-21251009D01*
X10603810Y-21251009D02*
X10603810Y-21774819D01*
X11080000Y-21774819D02*
X11080000Y-21108152D01*
X11080000Y-21203390D02*
X11127619Y-21155771D01*
X11127619Y-21155771D02*
X11222857Y-21108152D01*
X11222857Y-21108152D02*
X11365714Y-21108152D01*
X11365714Y-21108152D02*
X11460952Y-21155771D01*
X11460952Y-21155771D02*
X11508571Y-21251009D01*
X11508571Y-21251009D02*
X11508571Y-21774819D01*
X11508571Y-21251009D02*
X11556190Y-21155771D01*
X11556190Y-21155771D02*
X11651428Y-21108152D01*
X11651428Y-21108152D02*
X11794285Y-21108152D01*
X11794285Y-21108152D02*
X11889524Y-21155771D01*
X11889524Y-21155771D02*
X11937143Y-21251009D01*
X11937143Y-21251009D02*
X11937143Y-21774819D01*
X12175238Y-21870057D02*
X12937142Y-21870057D01*
X13175238Y-21774819D02*
X13175238Y-20774819D01*
X13175238Y-20774819D02*
X13508571Y-21489104D01*
X13508571Y-21489104D02*
X13841904Y-20774819D01*
X13841904Y-20774819D02*
X13841904Y-21774819D01*
X14746666Y-21774819D02*
X14746666Y-21251009D01*
X14746666Y-21251009D02*
X14699047Y-21155771D01*
X14699047Y-21155771D02*
X14603809Y-21108152D01*
X14603809Y-21108152D02*
X14413333Y-21108152D01*
X14413333Y-21108152D02*
X14318095Y-21155771D01*
X14746666Y-21727200D02*
X14651428Y-21774819D01*
X14651428Y-21774819D02*
X14413333Y-21774819D01*
X14413333Y-21774819D02*
X14318095Y-21727200D01*
X14318095Y-21727200D02*
X14270476Y-21631961D01*
X14270476Y-21631961D02*
X14270476Y-21536723D01*
X14270476Y-21536723D02*
X14318095Y-21441485D01*
X14318095Y-21441485D02*
X14413333Y-21393866D01*
X14413333Y-21393866D02*
X14651428Y-21393866D01*
X14651428Y-21393866D02*
X14746666Y-21346247D01*
X15365714Y-21774819D02*
X15270476Y-21727200D01*
X15270476Y-21727200D02*
X15222857Y-21631961D01*
X15222857Y-21631961D02*
X15222857Y-20774819D01*
X16127619Y-21727200D02*
X16032381Y-21774819D01*
X16032381Y-21774819D02*
X15841905Y-21774819D01*
X15841905Y-21774819D02*
X15746667Y-21727200D01*
X15746667Y-21727200D02*
X15699048Y-21631961D01*
X15699048Y-21631961D02*
X15699048Y-21251009D01*
X15699048Y-21251009D02*
X15746667Y-21155771D01*
X15746667Y-21155771D02*
X15841905Y-21108152D01*
X15841905Y-21108152D02*
X16032381Y-21108152D01*
X16032381Y-21108152D02*
X16127619Y-21155771D01*
X16127619Y-21155771D02*
X16175238Y-21251009D01*
X16175238Y-21251009D02*
X16175238Y-21346247D01*
X16175238Y-21346247D02*
X15699048Y-21441485D01*
D12*
X47750000Y-2400000D03*
X39450000Y-2400000D03*
D13*
X45600000Y-2400000D03*
X43600000Y-2400000D03*
X41600000Y-2400000D03*
D14*
X30300000Y-14250000D03*
X28300000Y-14250000D03*
D15*
X10930000Y-1500000D03*
X10930000Y-5300000D03*
X19570000Y-1500000D03*
X19570000Y-5300000D03*
D14*
X5850000Y-23600000D03*
X7850000Y-23600000D03*
X9850000Y-23600000D03*
X11850000Y-23600000D03*
X51500000Y-2550000D03*
X37300000Y-14250000D03*
X35300000Y-14250000D03*
X2500000Y-22500000D03*
M02*
