%TF.GenerationSoftware,KiCad,Pcbnew,8.0.8*%
%TF.CreationDate,2025-07-09T11:23:43+01:00*%
%TF.ProjectId,Battery,42617474-6572-4792-9e6b-696361645f70,rev?*%
%TF.SameCoordinates,Original*%
%TF.FileFunction,Copper,L2,Bot*%
%TF.FilePolarity,Positive*%
%FSLAX46Y46*%
G04 Gerber Fmt 4.6, Leading zero omitted, Abs format (unit mm)*
G04 Created by KiCad (PCBNEW 8.0.8) date 2025-07-09 11:23:43*
%MOMM*%
%LPD*%
G01*
G04 APERTURE LIST*
G04 Aperture macros list*
%AMRoundRect*
0 Rectangle with rounded corners*
0 $1 Rounding radius*
0 $2 $3 $4 $5 $6 $7 $8 $9 X,Y pos of 4 corners*
0 Add a 4 corners polygon primitive as box body*
4,1,4,$2,$3,$4,$5,$6,$7,$8,$9,$2,$3,0*
0 Add four circle primitives for the rounded corners*
1,1,$1+$1,$2,$3*
1,1,$1+$1,$4,$5*
1,1,$1+$1,$6,$7*
1,1,$1+$1,$8,$9*
0 Add four rect primitives between the rounded corners*
20,1,$1+$1,$2,$3,$4,$5,0*
20,1,$1+$1,$4,$5,$6,$7,0*
20,1,$1+$1,$6,$7,$8,$9,0*
20,1,$1+$1,$8,$9,$2,$3,0*%
G04 Aperture macros list end*
%TA.AperFunction,ComponentPad*%
%ADD10R,1.200000X2.000000*%
%TD*%
%TA.AperFunction,ComponentPad*%
%ADD11O,1.400000X1.100000*%
%TD*%
%TA.AperFunction,ComponentPad*%
%ADD12RoundRect,0.249999X0.350001X0.625001X-0.350001X0.625001X-0.350001X-0.625001X0.350001X-0.625001X0*%
%TD*%
%TA.AperFunction,ComponentPad*%
%ADD13O,1.200000X1.750000*%
%TD*%
%TA.AperFunction,ComponentPad*%
%ADD14O,1.000000X1.600000*%
%TD*%
%TA.AperFunction,ComponentPad*%
%ADD15O,1.000000X1.700000*%
%TD*%
%TA.AperFunction,ComponentPad*%
%ADD16R,1.350000X1.350000*%
%TD*%
%TA.AperFunction,ComponentPad*%
%ADD17O,1.350000X1.350000*%
%TD*%
%TA.AperFunction,SMDPad,CuDef*%
%ADD18R,2.000000X1.000000*%
%TD*%
%TA.AperFunction,SMDPad,CuDef*%
%ADD19R,2.500000X1.000000*%
%TD*%
%TA.AperFunction,ViaPad*%
%ADD20C,0.600000*%
%TD*%
%TA.AperFunction,Conductor*%
%ADD21C,0.200000*%
%TD*%
%TA.AperFunction,Conductor*%
%ADD22C,0.400000*%
%TD*%
%ADD23C,0.300000*%
%ADD24O,0.700000X1.500000*%
%ADD25O,0.900000X0.700000*%
%ADD26C,0.350000*%
%ADD27O,0.600000X1.200000*%
G04 APERTURE END LIST*
D10*
%TO.P,SW1,*%
%TO.N,*%
X47750000Y-2400000D03*
X39450000Y-2400000D03*
D11*
%TO.P,SW1,1,A*%
%TO.N,SWITCHED_VBAT*%
X45600000Y-2400000D03*
%TO.P,SW1,2,B*%
%TO.N,VBAT*%
X43600000Y-2400000D03*
%TO.P,SW1,3,C*%
%TO.N,unconnected-(SW1-C-Pad3)*%
X41600000Y-2400000D03*
%TD*%
D12*
%TO.P,J5,1,1*%
%TO.N,VBAT*%
X30300000Y-14250000D03*
D13*
%TO.P,J5,2,2*%
%TO.N,Net-(C12-Pad1)*%
X28300000Y-14250000D03*
%TD*%
D14*
%TO.P,J2,S1,SHIELD*%
%TO.N,REAL_GND*%
X10930000Y-1500000D03*
D15*
X10930000Y-5300000D03*
D14*
X19570000Y-1500000D03*
D15*
X19570000Y-5300000D03*
%TD*%
D16*
%TO.P,J4,1,Pin_1*%
%TO.N,INT_5V*%
X5850000Y-23600000D03*
D17*
%TO.P,J4,2,Pin_2*%
%TO.N,GND*%
X7850000Y-23600000D03*
%TO.P,J4,3,Pin_3*%
%TO.N,SWDIO*%
X9850000Y-23600000D03*
%TO.P,J4,4,Pin_4*%
%TO.N,SWDCLK*%
X11850000Y-23600000D03*
%TD*%
D12*
%TO.P,J8,1,1*%
%TO.N,Net-(C12-Pad1)*%
X37300000Y-14250000D03*
D13*
%TO.P,J8,2,2*%
%TO.N,VBAT*%
X35300000Y-14250000D03*
%TD*%
D18*
%TO.P,J6,1,Pin_1*%
%TO.N,MOSI*%
X47575000Y-18850000D03*
%TO.P,J6,2,Pin_2*%
%TO.N,MISO*%
X47575000Y-16310000D03*
%TO.P,J6,3,Pin_3*%
%TO.N,SCLK*%
X47575000Y-13770000D03*
%TO.P,J6,4,Pin_4*%
%TO.N,PS*%
X47575000Y-11230000D03*
%TO.P,J6,5,Pin_5*%
%TO.N,GND*%
X47575000Y-8690000D03*
%TO.P,J6,6,Pin_6*%
%TO.N,5V*%
X47575000Y-6150000D03*
%TD*%
D19*
%TO.P,J7,1,Pin_1*%
%TO.N,5V*%
X8025000Y-6150000D03*
%TO.P,J7,2,Pin_2*%
%TO.N,GND*%
X8025000Y-8690000D03*
%TO.P,J7,3,Pin_3*%
%TO.N,PS*%
X8025000Y-11230000D03*
%TO.P,J7,4,Pin_4*%
%TO.N,SCLK*%
X8025000Y-13770000D03*
%TO.P,J7,5,Pin_5*%
%TO.N,MISO*%
X8025000Y-16310000D03*
%TO.P,J7,6,Pin_6*%
%TO.N,MOSI*%
X8025000Y-18850000D03*
%TD*%
D20*
%TO.N,GND*%
X34200000Y-17400000D03*
X39000000Y-17100000D03*
X40650000Y-16500000D03*
X29250000Y-19400000D03*
X53150000Y-12200000D03*
X5625000Y-6275000D03*
X51300000Y-8600000D03*
X1450000Y-2075000D03*
X31950000Y-21650000D03*
X51100000Y-16100000D03*
X9800000Y-3425000D03*
X38950000Y-16000000D03*
X40450000Y-14800000D03*
X40250000Y-22800000D03*
X34100000Y-21250000D03*
X24025000Y-11625000D03*
X43900000Y-3950000D03*
X250000Y-18875000D03*
X10925000Y-6700000D03*
X21350000Y-14750000D03*
X43400000Y-24300000D03*
X30600000Y-19400000D03*
X5700000Y-20825000D03*
X13550000Y-17200000D03*
X8950000Y-7300000D03*
X13200000Y-19750000D03*
X9800000Y-4525000D03*
X51350000Y-20900000D03*
X11800000Y-2800000D03*
X27600000Y-5650000D03*
X14025000Y-22725000D03*
X29250000Y-18300000D03*
X6875000Y-4675000D03*
X22100000Y-19450000D03*
X33150000Y-16600000D03*
X15200000Y-650000D03*
X11400000Y-8425000D03*
X23600000Y-15300000D03*
X39500000Y-19200000D03*
X44450000Y-19250000D03*
X18800000Y-14150000D03*
X39200000Y-13800000D03*
X31100000Y-17350000D03*
X35000000Y-22050000D03*
X40000000Y-17950000D03*
X31900000Y-19450000D03*
X32000000Y-20650000D03*
X20850000Y-21850000D03*
X43650000Y-16400000D03*
X22950000Y-16700000D03*
X48700000Y-4650000D03*
X24800000Y-2450000D03*
X34400000Y-16300000D03*
X8025000Y-8690000D03*
X6850000Y-3500000D03*
X15275000Y-16025000D03*
X48475000Y-21790000D03*
X37300000Y-15950000D03*
X21825000Y-3650000D03*
X24420200Y-23665000D03*
X21725000Y-5575000D03*
X21350000Y-16450000D03*
X36000000Y-22700000D03*
X22500000Y-15550000D03*
X11925000Y-19825000D03*
X27757500Y-20342500D03*
X35850000Y-21200000D03*
X29300000Y-17300000D03*
X34050000Y-22700000D03*
X18450000Y-2950000D03*
X48850000Y-17700000D03*
X45625000Y-1175000D03*
X-50000Y-11275000D03*
X37650000Y-4850000D03*
X4300000Y-12800000D03*
X29650000Y-20750000D03*
X41400000Y-18150000D03*
X31900000Y-18400000D03*
X4800000Y-18425000D03*
X30550000Y-18400000D03*
X3975000Y-8775000D03*
X45750000Y-7325000D03*
X36150000Y-17250000D03*
X30050000Y-4700000D03*
X2225000Y-8450000D03*
%TO.N,INT_5V*%
X16800000Y-21750000D03*
%TO.N,5V*%
X8025000Y-6150000D03*
X49350000Y-6200000D03*
%TO.N,MOSI*%
X9300000Y-17800000D03*
X46050000Y-18800000D03*
%TO.N,MISO*%
X47575000Y-16310000D03*
X9467500Y-15617500D03*
%TO.N,SCLK*%
X9473200Y-12948500D03*
X50250000Y-13250000D03*
%TO.N,PS*%
X11528200Y-9228200D03*
X50800000Y-11150000D03*
X8025000Y-11230000D03*
%TO.N,Interrupt5V*%
X40405025Y-12644975D03*
X15875000Y-14925000D03*
X20224265Y-13250000D03*
X4350000Y-14250000D03*
X42750000Y-21850000D03*
%TO.N,SWITCHED_VBAT*%
X25200000Y-16850000D03*
X28350000Y-6600000D03*
X25300000Y-20125000D03*
%TO.N,REAL_GND*%
X39400000Y-6600000D03*
%TO.N,BATTERY_CURRENT*%
X8300000Y-19925000D03*
X15775000Y-13625000D03*
%TO.N,CHRG*%
X26100000Y-5050000D03*
X11875000Y-7025000D03*
X23275000Y-2125000D03*
%TO.N,STBY*%
X12408000Y-15403400D03*
X22650000Y-12625000D03*
%TO.N,ENABLE_5V*%
X19025000Y-13025000D03*
X40300000Y-20400000D03*
%TO.N,Net-(U5-EN)*%
X23715000Y-20050000D03*
X24736900Y-21750000D03*
%TO.N,USB_5V*%
X23200000Y-14350000D03*
X32850000Y-17850000D03*
%TD*%
D21*
%TO.N,GND*%
X8290000Y-8425000D02*
X11400000Y-8425000D01*
X9575000Y-17110000D02*
X11125000Y-15560000D01*
X13500000Y-11425000D02*
X24150000Y-11425000D01*
X8025000Y-8690000D02*
X6475000Y-10240000D01*
X6475000Y-10240000D02*
X6475000Y-12425000D01*
X11400000Y-8425000D02*
X43800000Y-8425000D01*
X12842900Y-10425000D02*
X40350000Y-10425000D01*
X6475000Y-12425000D02*
X6475000Y-14950000D01*
X9180000Y-12425000D02*
X12180000Y-9425000D01*
X6475000Y-17110000D02*
X9575000Y-17110000D01*
X9427900Y-14950000D02*
X10125000Y-14252900D01*
X24150000Y-11425000D02*
X39857200Y-11425000D01*
X43800000Y-8425000D02*
X43875000Y-8350000D01*
X7035000Y-14950000D02*
X6475000Y-15510000D01*
X4875000Y-24575000D02*
X4850000Y-24550000D01*
X10125000Y-13142900D02*
X12842900Y-10425000D01*
X12180000Y-9425000D02*
X41600000Y-9425000D01*
X6475000Y-12425000D02*
X9180000Y-12425000D01*
X7300000Y-14950000D02*
X9427900Y-14950000D01*
X8025000Y-8690000D02*
X8290000Y-8425000D01*
X11125000Y-13800000D02*
X13500000Y-11425000D01*
X4850000Y-21675000D02*
X5700000Y-20825000D01*
X6475000Y-14950000D02*
X7035000Y-14950000D01*
X10125000Y-14252900D02*
X10125000Y-13142900D01*
X6475000Y-15510000D02*
X6475000Y-17110000D01*
X4850000Y-24550000D02*
X4850000Y-21675000D01*
X11125000Y-15560000D02*
X11125000Y-13800000D01*
X6875000Y-24575000D02*
X4875000Y-24575000D01*
X7850000Y-23600000D02*
X6875000Y-24575000D01*
X24150000Y-11500000D02*
X24025000Y-11625000D01*
X24150000Y-11425000D02*
X24150000Y-11500000D01*
%TO.N,INT_5V*%
X12375000Y-22625000D02*
X13550000Y-23800000D01*
X5850000Y-23600000D02*
X6825000Y-22625000D01*
X14750000Y-23800000D02*
X16800000Y-21750000D01*
X6825000Y-22625000D02*
X12375000Y-22625000D01*
X13550000Y-23800000D02*
X14750000Y-23800000D01*
D22*
%TO.N,5V*%
X47625000Y-6200000D02*
X47575000Y-6150000D01*
X49350000Y-6200000D02*
X47625000Y-6200000D01*
X9385050Y-6150000D02*
X10960050Y-7725000D01*
X8025000Y-6150000D02*
X9385050Y-6150000D01*
D21*
X45575000Y-6150000D02*
X47575000Y-6150000D01*
D22*
X12750000Y-7925000D02*
X43450000Y-7925000D01*
X43450000Y-7925000D02*
X45225000Y-6150000D01*
X10960050Y-7725000D02*
X12550000Y-7725000D01*
X45225000Y-6150000D02*
X45575000Y-6150000D01*
X12550000Y-7725000D02*
X12750000Y-7925000D01*
D21*
%TO.N,MOSI*%
X9300000Y-18250000D02*
X9337500Y-18287500D01*
X47525000Y-18800000D02*
X47575000Y-18850000D01*
D22*
X23275000Y-11925000D02*
X23700000Y-12350000D01*
D21*
X46050000Y-18800000D02*
X47525000Y-18800000D01*
D22*
X11650000Y-15975000D02*
X11650000Y-13982100D01*
X9337500Y-18287500D02*
X11650000Y-15975000D01*
X9337500Y-18287500D02*
X8775000Y-18850000D01*
X25100000Y-11925000D02*
X40675000Y-11925000D01*
D21*
X9300000Y-17800000D02*
X9300000Y-18250000D01*
D22*
X24675000Y-12350000D02*
X25100000Y-11925000D01*
X23700000Y-12350000D02*
X24675000Y-12350000D01*
X40675000Y-11925000D02*
X44950000Y-16200000D01*
X44950000Y-16200000D02*
X44950000Y-17900000D01*
X11650000Y-13982100D02*
X13707100Y-11925000D01*
X44950000Y-17900000D02*
X45850000Y-18800000D01*
X8775000Y-18850000D02*
X8025000Y-18850000D01*
X13707100Y-11925000D02*
X23275000Y-11925000D01*
X45850000Y-18800000D02*
X46050000Y-18800000D01*
%TO.N,MISO*%
X8775000Y-16310000D02*
X9467500Y-15617500D01*
X41825000Y-10925000D02*
X47210000Y-16310000D01*
X9467500Y-15617500D02*
X10625000Y-14460000D01*
X8025000Y-16310000D02*
X8775000Y-16310000D01*
X13050000Y-10925000D02*
X41825000Y-10925000D01*
X10625000Y-13350000D02*
X13050000Y-10925000D01*
X10625000Y-14460000D02*
X10625000Y-13350000D01*
X47210000Y-16310000D02*
X47575000Y-16310000D01*
D21*
%TO.N,SCLK*%
X9224200Y-13197500D02*
X9473200Y-12948500D01*
D22*
X8025000Y-13770000D02*
X8605000Y-13770000D01*
D21*
X9177500Y-13197500D02*
X9224200Y-13197500D01*
D22*
X8605000Y-13770000D02*
X9177500Y-13197500D01*
X9177500Y-13197500D02*
X12450000Y-9925000D01*
D21*
X49730000Y-13770000D02*
X47575000Y-13770000D01*
D22*
X46870000Y-13770000D02*
X47575000Y-13770000D01*
X12450000Y-9925000D02*
X43025000Y-9925000D01*
D21*
X50250000Y-13250000D02*
X49730000Y-13770000D01*
D22*
X43025000Y-9925000D02*
X46870000Y-13770000D01*
%TO.N,PS*%
X46930000Y-11230000D02*
X47575000Y-11230000D01*
D21*
X50720000Y-11230000D02*
X47575000Y-11230000D01*
X11528200Y-9369700D02*
X11528200Y-9228200D01*
D22*
X11528200Y-9369700D02*
X11972900Y-8925000D01*
X11972900Y-8925000D02*
X44625000Y-8925000D01*
X9667900Y-11230000D02*
X11528200Y-9369700D01*
D21*
X50800000Y-11150000D02*
X50720000Y-11230000D01*
D22*
X8025000Y-11230000D02*
X9667900Y-11230000D01*
X44625000Y-8925000D02*
X46930000Y-11230000D01*
D21*
%TO.N,Interrupt5V*%
X20224265Y-13250000D02*
X22900000Y-13250000D01*
X22900000Y-13250000D02*
X25775000Y-13250000D01*
X9440700Y-20525000D02*
X9975000Y-19990700D01*
X40185050Y-12425000D02*
X40405025Y-12644975D01*
X5675000Y-19000000D02*
X7200000Y-20525000D01*
X42750000Y-21850000D02*
X42750000Y-14989950D01*
X25775000Y-13250000D02*
X26600000Y-12425000D01*
X4350000Y-14250000D02*
X5675000Y-15575000D01*
X5675000Y-15575000D02*
X5675000Y-19000000D01*
X7200000Y-20525000D02*
X9440700Y-20525000D01*
X9975000Y-19250600D02*
X14300600Y-14925000D01*
X14300600Y-14925000D02*
X15875000Y-14925000D01*
X42750000Y-14989950D02*
X40405025Y-12644975D01*
X9975000Y-19990700D02*
X9975000Y-19250600D01*
X26600000Y-12425000D02*
X40185050Y-12425000D01*
D22*
%TO.N,SWITCHED_VBAT*%
X30200000Y-7300000D02*
X43226472Y-7300000D01*
X28350000Y-6600000D02*
X29500000Y-6600000D01*
D21*
X25200000Y-19940000D02*
X25200000Y-17900000D01*
X25200000Y-17900000D02*
X25200000Y-16850000D01*
D22*
X43226472Y-7300000D02*
X45600000Y-4926472D01*
D21*
X25200000Y-20025000D02*
X25300000Y-20125000D01*
X25200000Y-17900000D02*
X25200000Y-20025000D01*
D22*
X29500000Y-6600000D02*
X30200000Y-7300000D01*
X45600000Y-4926472D02*
X45600000Y-2400000D01*
%TO.N,REAL_GND*%
X25785050Y-1425000D02*
X30960050Y-6600000D01*
X19645000Y-1425000D02*
X25785050Y-1425000D01*
X19570000Y-1500000D02*
X19645000Y-1425000D01*
X19570000Y-1500000D02*
X19570000Y-5300000D01*
X10930000Y-5300000D02*
X19570000Y-5300000D01*
X39400000Y-6600000D02*
X30960050Y-6600000D01*
D21*
%TO.N,BATTERY_CURRENT*%
X8300000Y-19925000D02*
X9475000Y-19925000D01*
X12509900Y-16150000D02*
X13400000Y-15259900D01*
X9475000Y-19925000D02*
X9575000Y-19825000D01*
X12182100Y-16150000D02*
X12509900Y-16150000D01*
X13400000Y-14575000D02*
X14350000Y-13625000D01*
X14350000Y-13625000D02*
X15775000Y-13625000D01*
X9575000Y-18757100D02*
X12182100Y-16150000D01*
X9575000Y-19825000D02*
X9575000Y-18757100D01*
X13400000Y-15259900D02*
X13400000Y-14575000D01*
%TO.N,CHRG*%
X12075000Y-7225000D02*
X11875000Y-7025000D01*
X25150000Y-5050000D02*
X25075000Y-4975000D01*
X25075000Y-4975000D02*
X23275000Y-3175000D01*
X23275000Y-3175000D02*
X23275000Y-2125000D01*
X22825000Y-7225000D02*
X12075000Y-7225000D01*
X25075000Y-4975000D02*
X22825000Y-7225000D01*
X26100000Y-5050000D02*
X25150000Y-5050000D01*
%TO.N,STBY*%
X22650000Y-12625000D02*
X19600000Y-12625000D01*
X19600000Y-12625000D02*
X19400000Y-12425000D01*
X14800000Y-12425000D02*
X12408000Y-14817000D01*
X12408000Y-14817000D02*
X12408000Y-15403400D01*
X19400000Y-12425000D02*
X14800000Y-12425000D01*
%TO.N,ENABLE_5V*%
X19025000Y-13025000D02*
X19850000Y-13850000D01*
X39425000Y-12825000D02*
X40225000Y-13625000D01*
X40819364Y-13625000D02*
X42350000Y-15155636D01*
X26250000Y-13650000D02*
X27075000Y-12825000D01*
X42350000Y-15155636D02*
X42350000Y-18600000D01*
X40225000Y-13625000D02*
X40819364Y-13625000D01*
X27075000Y-12825000D02*
X39425000Y-12825000D01*
X22700000Y-13850000D02*
X22900000Y-13650000D01*
X19850000Y-13850000D02*
X22700000Y-13850000D01*
X22900000Y-13650000D02*
X26250000Y-13650000D01*
X42350000Y-18600000D02*
X40550000Y-20400000D01*
X40550000Y-20400000D02*
X40300000Y-20400000D01*
%TO.N,Net-(U5-EN)*%
X23715000Y-20728100D02*
X24736900Y-21750000D01*
X23715000Y-20050000D02*
X23715000Y-20728100D01*
D22*
%TO.N,USB_5V*%
X26525000Y-14350000D02*
X23200000Y-14350000D01*
X27700000Y-15525000D02*
X30525000Y-15525000D01*
X27700000Y-15525000D02*
X26525000Y-14350000D01*
X30525000Y-15525000D02*
X32850000Y-17850000D01*
%TD*%
%TA.AperFunction,Conductor*%
%TO.N,GND*%
G36*
X25636340Y-1844407D02*
G01*
X25648153Y-1854496D01*
X30441304Y-6647647D01*
X30469081Y-6702164D01*
X30469292Y-6703562D01*
X30474883Y-6742455D01*
X30476192Y-6746910D01*
X30474444Y-6808071D01*
X30437081Y-6856523D01*
X30378374Y-6873761D01*
X30320747Y-6853199D01*
X30311198Y-6844805D01*
X30031439Y-6565046D01*
X29745913Y-6279520D01*
X29745910Y-6279518D01*
X29745909Y-6279517D01*
X29745908Y-6279516D01*
X29654591Y-6226794D01*
X29654593Y-6226794D01*
X29615070Y-6216204D01*
X29552727Y-6199500D01*
X29552725Y-6199500D01*
X28681632Y-6199500D01*
X28628110Y-6183784D01*
X28560053Y-6140047D01*
X28560050Y-6140046D01*
X28421964Y-6099500D01*
X28421961Y-6099500D01*
X28278039Y-6099500D01*
X28278035Y-6099500D01*
X28139949Y-6140046D01*
X28139942Y-6140049D01*
X28018873Y-6217855D01*
X27924622Y-6326628D01*
X27864834Y-6457543D01*
X27844353Y-6599997D01*
X27844353Y-6600002D01*
X27864834Y-6742456D01*
X27908864Y-6838867D01*
X27924623Y-6873373D01*
X28018872Y-6982143D01*
X28018873Y-6982144D01*
X28139942Y-7059950D01*
X28139947Y-7059953D01*
X28246403Y-7091211D01*
X28278035Y-7100499D01*
X28278036Y-7100499D01*
X28278039Y-7100500D01*
X28278041Y-7100500D01*
X28421959Y-7100500D01*
X28421961Y-7100500D01*
X28560053Y-7059953D01*
X28628110Y-7016215D01*
X28681632Y-7000500D01*
X29293099Y-7000500D01*
X29351290Y-7019407D01*
X29363103Y-7029496D01*
X29689103Y-7355496D01*
X29716880Y-7410013D01*
X29707309Y-7470445D01*
X29664044Y-7513710D01*
X29619099Y-7524500D01*
X23189479Y-7524500D01*
X23131288Y-7505593D01*
X23095324Y-7456093D01*
X23095324Y-7394907D01*
X23119475Y-7355496D01*
X25095475Y-5379496D01*
X25149992Y-5351719D01*
X25165479Y-5350500D01*
X25652917Y-5350500D01*
X25711108Y-5369407D01*
X25727733Y-5384667D01*
X25768872Y-5432143D01*
X25813983Y-5461134D01*
X25882941Y-5505451D01*
X25889947Y-5509953D01*
X25996403Y-5541211D01*
X26028035Y-5550499D01*
X26028036Y-5550499D01*
X26028039Y-5550500D01*
X26028041Y-5550500D01*
X26171959Y-5550500D01*
X26171961Y-5550500D01*
X26310053Y-5509953D01*
X26431128Y-5432143D01*
X26525377Y-5323373D01*
X26585165Y-5192457D01*
X26601181Y-5081062D01*
X26605647Y-5050002D01*
X26605647Y-5049997D01*
X26585165Y-4907543D01*
X26538941Y-4806328D01*
X26525377Y-4776627D01*
X26431128Y-4667857D01*
X26431127Y-4667856D01*
X26431126Y-4667855D01*
X26310057Y-4590049D01*
X26310054Y-4590047D01*
X26310053Y-4590047D01*
X26310050Y-4590046D01*
X26171964Y-4549500D01*
X26171961Y-4549500D01*
X26028039Y-4549500D01*
X26028035Y-4549500D01*
X25889949Y-4590046D01*
X25889942Y-4590049D01*
X25768876Y-4667854D01*
X25768871Y-4667858D01*
X25727736Y-4715331D01*
X25675340Y-4746927D01*
X25652917Y-4749500D01*
X25315479Y-4749500D01*
X25257288Y-4730593D01*
X25245475Y-4720504D01*
X23604496Y-3079525D01*
X23576719Y-3025008D01*
X23575500Y-3009521D01*
X23575500Y-2578893D01*
X23594407Y-2520702D01*
X23601741Y-2512711D01*
X23601491Y-2512494D01*
X23606128Y-2507143D01*
X23700377Y-2398373D01*
X23760165Y-2267457D01*
X23779668Y-2131811D01*
X23780647Y-2125002D01*
X23780647Y-2124997D01*
X23760165Y-1982543D01*
X23752440Y-1965627D01*
X23745465Y-1904840D01*
X23775551Y-1851563D01*
X23831207Y-1826145D01*
X23842493Y-1825500D01*
X25578149Y-1825500D01*
X25636340Y-1844407D01*
G37*
%TD.AperFunction*%
%TA.AperFunction,Conductor*%
G36*
X29858691Y-119407D02*
G01*
X29894655Y-168907D01*
X29899500Y-199500D01*
X29899500Y-2334019D01*
X29892630Y-2359681D01*
X29895639Y-2360487D01*
X29892199Y-2373325D01*
X29892204Y-2546038D01*
X29892205Y-2546050D01*
X29924918Y-2836287D01*
X29924918Y-2836289D01*
X29973825Y-3050529D01*
X29989923Y-3121049D01*
X30086399Y-3396739D01*
X30213136Y-3659894D01*
X30368539Y-3907205D01*
X30550654Y-4135561D01*
X30757191Y-4342093D01*
X30985552Y-4524201D01*
X31090345Y-4590046D01*
X31232868Y-4679599D01*
X31317810Y-4720504D01*
X31496025Y-4806327D01*
X31496028Y-4806328D01*
X31496027Y-4806328D01*
X31771714Y-4902796D01*
X31771717Y-4902796D01*
X31771718Y-4902797D01*
X32056478Y-4967793D01*
X32346724Y-5000499D01*
X32453082Y-5000499D01*
X32453086Y-5000500D01*
X32472776Y-5000500D01*
X35037434Y-5000500D01*
X35037500Y-5000493D01*
X35153273Y-5000494D01*
X35443519Y-4967794D01*
X35728279Y-4902802D01*
X36003971Y-4806335D01*
X36267129Y-4679607D01*
X36514443Y-4524211D01*
X36701859Y-4374752D01*
X36742796Y-4342106D01*
X36742797Y-4342105D01*
X36742797Y-4342104D01*
X36742802Y-4342101D01*
X36949336Y-4135568D01*
X37131446Y-3907209D01*
X37286843Y-3659895D01*
X37413572Y-3396738D01*
X37510040Y-3121046D01*
X37575033Y-2836286D01*
X37607734Y-2546040D01*
X37607733Y-2399999D01*
X37607733Y-2373070D01*
X37604360Y-2360483D01*
X37607373Y-2359675D01*
X37600500Y-2334016D01*
X37600500Y-1380253D01*
X38649500Y-1380253D01*
X38649500Y-3419746D01*
X38649501Y-3419758D01*
X38661132Y-3478227D01*
X38661133Y-3478231D01*
X38705448Y-3544552D01*
X38771769Y-3588867D01*
X38816231Y-3597711D01*
X38830241Y-3600498D01*
X38830246Y-3600498D01*
X38830252Y-3600500D01*
X38830253Y-3600500D01*
X40069747Y-3600500D01*
X40069748Y-3600500D01*
X40128231Y-3588867D01*
X40194552Y-3544552D01*
X40238867Y-3478231D01*
X40250500Y-3419748D01*
X40250500Y-2326081D01*
X40699500Y-2326081D01*
X40699500Y-2473918D01*
X40728342Y-2618914D01*
X40784915Y-2755493D01*
X40784916Y-2755495D01*
X40867049Y-2878416D01*
X40971584Y-2982951D01*
X41094505Y-3065084D01*
X41231087Y-3121658D01*
X41376082Y-3150500D01*
X41376083Y-3150500D01*
X41823917Y-3150500D01*
X41823918Y-3150500D01*
X41968913Y-3121658D01*
X42105495Y-3065084D01*
X42228416Y-2982951D01*
X42332951Y-2878416D01*
X42415084Y-2755495D01*
X42471658Y-2618913D01*
X42500500Y-2473918D01*
X42500500Y-2326082D01*
X42500500Y-2326081D01*
X42699500Y-2326081D01*
X42699500Y-2473918D01*
X42728342Y-2618914D01*
X42784915Y-2755493D01*
X42784916Y-2755495D01*
X42867049Y-2878416D01*
X42971584Y-2982951D01*
X43094505Y-3065084D01*
X43231087Y-3121658D01*
X43376082Y-3150500D01*
X43376083Y-3150500D01*
X43823917Y-3150500D01*
X43823918Y-3150500D01*
X43968913Y-3121658D01*
X44105495Y-3065084D01*
X44228416Y-2982951D01*
X44332951Y-2878416D01*
X44415084Y-2755495D01*
X44471658Y-2618913D01*
X44500500Y-2473918D01*
X44500500Y-2326082D01*
X44471658Y-2181087D01*
X44415084Y-2044505D01*
X44332951Y-1921584D01*
X44228416Y-1817049D01*
X44105495Y-1734916D01*
X44105493Y-1734915D01*
X43968914Y-1678342D01*
X43823918Y-1649500D01*
X43376082Y-1649500D01*
X43376081Y-1649500D01*
X43231085Y-1678342D01*
X43094506Y-1734915D01*
X42971585Y-1817048D01*
X42867048Y-1921585D01*
X42784915Y-2044506D01*
X42728342Y-2181085D01*
X42699500Y-2326081D01*
X42500500Y-2326081D01*
X42471658Y-2181087D01*
X42415084Y-2044505D01*
X42332951Y-1921584D01*
X42228416Y-1817049D01*
X42105495Y-1734916D01*
X42105493Y-1734915D01*
X41968914Y-1678342D01*
X41823918Y-1649500D01*
X41376082Y-1649500D01*
X41376081Y-1649500D01*
X41231085Y-1678342D01*
X41094506Y-1734915D01*
X40971585Y-1817048D01*
X40867048Y-1921585D01*
X40784915Y-2044506D01*
X40728342Y-2181085D01*
X40699500Y-2326081D01*
X40250500Y-2326081D01*
X40250500Y-1380253D01*
X46949500Y-1380253D01*
X46949500Y-3419746D01*
X46949501Y-3419758D01*
X46961132Y-3478227D01*
X46961133Y-3478231D01*
X47005448Y-3544552D01*
X47071769Y-3588867D01*
X47116231Y-3597711D01*
X47130241Y-3600498D01*
X47130246Y-3600498D01*
X47130252Y-3600500D01*
X47130253Y-3600500D01*
X48369747Y-3600500D01*
X48369748Y-3600500D01*
X48428231Y-3588867D01*
X48494552Y-3544552D01*
X48538867Y-3478231D01*
X48550500Y-3419748D01*
X48550500Y-1380252D01*
X48538867Y-1321769D01*
X48494552Y-1255448D01*
X48471593Y-1240107D01*
X48428233Y-1211134D01*
X48428231Y-1211133D01*
X48428228Y-1211132D01*
X48428227Y-1211132D01*
X48369758Y-1199501D01*
X48369748Y-1199500D01*
X47130252Y-1199500D01*
X47130251Y-1199500D01*
X47130241Y-1199501D01*
X47071772Y-1211132D01*
X47071766Y-1211134D01*
X47005451Y-1255445D01*
X47005445Y-1255451D01*
X46961134Y-1321766D01*
X46961132Y-1321772D01*
X46949501Y-1380241D01*
X46949500Y-1380253D01*
X40250500Y-1380253D01*
X40250500Y-1380252D01*
X40238867Y-1321769D01*
X40194552Y-1255448D01*
X40171593Y-1240107D01*
X40128233Y-1211134D01*
X40128231Y-1211133D01*
X40128228Y-1211132D01*
X40128227Y-1211132D01*
X40069758Y-1199501D01*
X40069748Y-1199500D01*
X38830252Y-1199500D01*
X38830251Y-1199500D01*
X38830241Y-1199501D01*
X38771772Y-1211132D01*
X38771766Y-1211134D01*
X38705451Y-1255445D01*
X38705445Y-1255451D01*
X38661134Y-1321766D01*
X38661132Y-1321772D01*
X38649501Y-1380241D01*
X38649500Y-1380253D01*
X37600500Y-1380253D01*
X37600500Y-199500D01*
X37619407Y-141309D01*
X37668907Y-105345D01*
X37699500Y-100500D01*
X51473071Y-100500D01*
X51497015Y-100500D01*
X51502992Y-100681D01*
X51783256Y-117633D01*
X51795111Y-119073D01*
X51958223Y-148964D01*
X51983638Y-153622D01*
X52037468Y-182709D01*
X52063920Y-237880D01*
X52052891Y-298064D01*
X52008593Y-340270D01*
X51965793Y-350000D01*
X50999997Y-350000D01*
X50299998Y-650000D01*
X49799999Y-1050000D01*
X49600005Y-1349990D01*
X49599998Y-1350002D01*
X49400001Y-1749996D01*
X49300000Y-2050000D01*
X49300000Y-3050002D01*
X49599997Y-3749995D01*
X49600000Y-3750000D01*
X50093417Y-4342101D01*
X50100000Y-4350000D01*
X50900000Y-4750000D01*
X51899998Y-4750000D01*
X51900000Y-4750000D01*
X52500000Y-4650000D01*
X53100000Y-4150000D01*
X53500000Y-3650000D01*
X53700000Y-2950000D01*
X53700000Y-2478186D01*
X53718907Y-2419995D01*
X53768407Y-2384031D01*
X53829593Y-2384031D01*
X53879093Y-2419995D01*
X53897819Y-2472209D01*
X53899319Y-2497007D01*
X53899500Y-2502984D01*
X53899500Y-5019991D01*
X53914798Y-5056926D01*
X53914799Y-5056927D01*
X53914800Y-5056929D01*
X53943071Y-5085200D01*
X53943072Y-5085200D01*
X53943073Y-5085201D01*
X53980008Y-5100500D01*
X54057289Y-5100500D01*
X54115480Y-5119407D01*
X54151444Y-5168907D01*
X54156283Y-5198552D01*
X54225687Y-12472007D01*
X54295606Y-19799555D01*
X54277255Y-19857924D01*
X54228101Y-19894358D01*
X54196611Y-19899500D01*
X53980008Y-19899500D01*
X53943073Y-19914798D01*
X53914798Y-19943073D01*
X53899500Y-19980008D01*
X53899500Y-22497015D01*
X53899319Y-22502993D01*
X53882366Y-22783251D01*
X53880925Y-22795118D01*
X53830854Y-23068346D01*
X53827993Y-23079954D01*
X53745353Y-23345154D01*
X53741114Y-23356332D01*
X53627107Y-23609646D01*
X53621551Y-23620231D01*
X53477849Y-23857944D01*
X53471058Y-23867783D01*
X53299749Y-24086443D01*
X53291822Y-24095392D01*
X53095392Y-24291822D01*
X53086443Y-24299749D01*
X52867783Y-24471058D01*
X52857944Y-24477849D01*
X52620231Y-24621551D01*
X52609646Y-24627107D01*
X52356332Y-24741114D01*
X52345154Y-24745353D01*
X52079954Y-24827993D01*
X52068346Y-24830854D01*
X51795118Y-24880925D01*
X51783251Y-24882366D01*
X51527790Y-24897819D01*
X51502991Y-24899319D01*
X51497015Y-24899500D01*
X8277877Y-24899500D01*
X8219686Y-24880593D01*
X8183722Y-24831093D01*
X8183722Y-24769907D01*
X8219686Y-24720407D01*
X8242114Y-24708185D01*
X8375986Y-24656322D01*
X8375991Y-24656319D01*
X8561126Y-24541688D01*
X8561129Y-24541686D01*
X8722052Y-24394987D01*
X8853283Y-24221209D01*
X8853288Y-24221200D01*
X8930605Y-24065927D01*
X8973467Y-24022265D01*
X9033808Y-24012135D01*
X9088579Y-24039407D01*
X9104962Y-24060555D01*
X9137805Y-24117440D01*
X9231239Y-24221209D01*
X9254463Y-24247003D01*
X9260950Y-24254207D01*
X9409839Y-24362381D01*
X9409843Y-24362383D01*
X9409845Y-24362384D01*
X9465485Y-24387156D01*
X9577966Y-24437236D01*
X9757981Y-24475500D01*
X9757983Y-24475500D01*
X9942017Y-24475500D01*
X9942019Y-24475500D01*
X10122034Y-24437236D01*
X10290161Y-24362381D01*
X10439050Y-24254207D01*
X10562195Y-24117440D01*
X10654214Y-23958059D01*
X10711085Y-23783029D01*
X10730322Y-23600000D01*
X10711085Y-23416971D01*
X10654214Y-23241941D01*
X10654211Y-23241936D01*
X10654209Y-23241931D01*
X10559601Y-23078067D01*
X10560600Y-23077490D01*
X10543382Y-23024502D01*
X10562288Y-22966311D01*
X10611787Y-22930346D01*
X10642382Y-22925500D01*
X11057618Y-22925500D01*
X11115809Y-22944407D01*
X11151773Y-22993907D01*
X11151773Y-23055093D01*
X11140141Y-23077918D01*
X11140399Y-23078067D01*
X11045790Y-23241931D01*
X11045784Y-23241945D01*
X10988916Y-23416965D01*
X10988915Y-23416969D01*
X10988915Y-23416971D01*
X10969678Y-23600000D01*
X10986483Y-23759893D01*
X10988916Y-23783034D01*
X11045784Y-23958054D01*
X11045790Y-23958068D01*
X11082855Y-24022265D01*
X11137805Y-24117440D01*
X11231239Y-24221209D01*
X11254463Y-24247003D01*
X11260950Y-24254207D01*
X11409839Y-24362381D01*
X11409843Y-24362383D01*
X11409845Y-24362384D01*
X11465485Y-24387156D01*
X11577966Y-24437236D01*
X11757981Y-24475500D01*
X11757983Y-24475500D01*
X11942017Y-24475500D01*
X11942019Y-24475500D01*
X12122034Y-24437236D01*
X12290161Y-24362381D01*
X12439050Y-24254207D01*
X12562195Y-24117440D01*
X12654214Y-23958059D01*
X12711085Y-23783029D01*
X12727144Y-23630231D01*
X12752031Y-23574337D01*
X12805019Y-23543744D01*
X12865869Y-23550140D01*
X12895606Y-23570577D01*
X13309540Y-23984511D01*
X13309539Y-23984511D01*
X13365489Y-24040460D01*
X13434007Y-24080019D01*
X13434011Y-24080021D01*
X13510435Y-24100499D01*
X13510437Y-24100500D01*
X13510438Y-24100500D01*
X14789563Y-24100500D01*
X14789563Y-24100499D01*
X14865989Y-24080021D01*
X14934511Y-24040460D01*
X14990460Y-23984511D01*
X16695474Y-22279495D01*
X16749991Y-22251719D01*
X16765478Y-22250500D01*
X16871959Y-22250500D01*
X16871961Y-22250500D01*
X17010053Y-22209953D01*
X17131128Y-22132143D01*
X17225377Y-22023373D01*
X17285165Y-21892457D01*
X17295506Y-21820534D01*
X17305647Y-21750002D01*
X17305647Y-21749997D01*
X17285165Y-21607543D01*
X17225377Y-21476628D01*
X17225377Y-21476627D01*
X17131128Y-21367857D01*
X17131127Y-21367856D01*
X17131126Y-21367855D01*
X17010057Y-21290049D01*
X17010054Y-21290047D01*
X17010053Y-21290047D01*
X17010050Y-21290046D01*
X16871964Y-21249500D01*
X16871961Y-21249500D01*
X16728039Y-21249500D01*
X16728035Y-21249500D01*
X16589949Y-21290046D01*
X16589942Y-21290049D01*
X16468873Y-21367855D01*
X16374622Y-21476628D01*
X16314834Y-21607543D01*
X16294353Y-21749997D01*
X16294353Y-21750003D01*
X16297441Y-21771482D01*
X16287007Y-21831771D01*
X16269453Y-21855574D01*
X14654525Y-23470504D01*
X14600008Y-23498281D01*
X14584521Y-23499500D01*
X13715479Y-23499500D01*
X13657288Y-23480593D01*
X13645475Y-23470504D01*
X13105316Y-22930345D01*
X12559511Y-22384540D01*
X12559508Y-22384538D01*
X12490992Y-22344980D01*
X12490988Y-22344978D01*
X12414564Y-22324500D01*
X12414562Y-22324500D01*
X6785438Y-22324500D01*
X6785435Y-22324500D01*
X6709011Y-22344978D01*
X6709007Y-22344980D01*
X6640489Y-22384539D01*
X6329524Y-22695504D01*
X6275008Y-22723281D01*
X6259521Y-22724500D01*
X5155252Y-22724500D01*
X5155251Y-22724500D01*
X5155241Y-22724501D01*
X5096772Y-22736132D01*
X5096766Y-22736134D01*
X5030451Y-22780445D01*
X5030445Y-22780451D01*
X4986134Y-22846766D01*
X4986132Y-22846772D01*
X4974501Y-22905241D01*
X4974500Y-22905253D01*
X4974500Y-24294746D01*
X4974501Y-24294758D01*
X4986132Y-24353227D01*
X4986134Y-24353233D01*
X4992249Y-24362384D01*
X5030448Y-24419552D01*
X5096769Y-24463867D01*
X5132921Y-24471058D01*
X5155241Y-24475498D01*
X5155246Y-24475498D01*
X5155252Y-24475500D01*
X5155253Y-24475500D01*
X6544747Y-24475500D01*
X6544748Y-24475500D01*
X6603231Y-24463867D01*
X6669552Y-24419552D01*
X6713867Y-24353231D01*
X6719283Y-24326001D01*
X6749178Y-24272619D01*
X6804743Y-24247003D01*
X6864753Y-24258940D01*
X6895384Y-24285656D01*
X6977947Y-24394987D01*
X7138870Y-24541686D01*
X7138873Y-24541688D01*
X7324008Y-24656319D01*
X7324013Y-24656322D01*
X7457886Y-24708185D01*
X7505317Y-24746837D01*
X7520971Y-24805986D01*
X7498868Y-24863040D01*
X7447451Y-24896205D01*
X7422123Y-24899500D01*
X2502985Y-24899500D01*
X2497008Y-24899319D01*
X2472210Y-24897819D01*
X2415267Y-24875433D01*
X2382357Y-24823852D01*
X2386051Y-24762778D01*
X2424938Y-24715540D01*
X2478187Y-24700000D01*
X2899998Y-24700000D01*
X2900000Y-24700000D01*
X3500000Y-24600000D01*
X4100000Y-24100000D01*
X4500000Y-23600000D01*
X4700000Y-22900000D01*
X4700000Y-21900000D01*
X4500000Y-21400000D01*
X4100000Y-20900000D01*
X3600000Y-20500000D01*
X3000000Y-20300000D01*
X2000000Y-20300000D01*
X1999997Y-20300000D01*
X1299998Y-20600000D01*
X799999Y-21000000D01*
X600005Y-21299990D01*
X599998Y-21300002D01*
X400001Y-21699996D01*
X300000Y-22000000D01*
X300000Y-22521813D01*
X281093Y-22580004D01*
X231593Y-22615968D01*
X170407Y-22615968D01*
X120907Y-22580004D01*
X102181Y-22527790D01*
X100681Y-22502992D01*
X100500Y-22497015D01*
X100500Y-19980008D01*
X85201Y-19943073D01*
X85200Y-19943072D01*
X85200Y-19943071D01*
X56929Y-19914800D01*
X56927Y-19914799D01*
X56926Y-19914798D01*
X19992Y-19899500D01*
X19991Y-19899500D01*
X-800500Y-19899500D01*
X-858691Y-19880593D01*
X-894655Y-19831093D01*
X-899500Y-19800500D01*
X-899500Y-14249997D01*
X3844353Y-14249997D01*
X3844353Y-14250002D01*
X3864834Y-14392456D01*
X3919760Y-14512725D01*
X3924623Y-14523373D01*
X4018872Y-14632143D01*
X4018873Y-14632144D01*
X4139942Y-14709950D01*
X4139947Y-14709953D01*
X4243910Y-14740479D01*
X4278035Y-14750499D01*
X4278036Y-14750499D01*
X4278039Y-14750500D01*
X4278041Y-14750500D01*
X4384521Y-14750500D01*
X4442712Y-14769407D01*
X4454525Y-14779496D01*
X5345504Y-15670475D01*
X5373281Y-15724992D01*
X5374500Y-15740479D01*
X5374500Y-19039564D01*
X5394977Y-19115985D01*
X5394978Y-19115987D01*
X5394979Y-19115989D01*
X5426439Y-19170480D01*
X5426440Y-19170481D01*
X5426440Y-19170482D01*
X5434536Y-19184506D01*
X5434538Y-19184508D01*
X5434540Y-19184511D01*
X7015489Y-20765460D01*
X7015491Y-20765461D01*
X7015493Y-20765463D01*
X7084008Y-20805020D01*
X7084006Y-20805020D01*
X7084010Y-20805021D01*
X7084012Y-20805022D01*
X7160438Y-20825500D01*
X7160440Y-20825500D01*
X9480263Y-20825500D01*
X9480263Y-20825499D01*
X9556689Y-20805021D01*
X9625211Y-20765460D01*
X9681160Y-20709511D01*
X10215460Y-20175211D01*
X10224438Y-20159661D01*
X10255021Y-20106689D01*
X10270212Y-20049997D01*
X23209353Y-20049997D01*
X23209353Y-20050002D01*
X23229834Y-20192456D01*
X23259559Y-20257543D01*
X23289623Y-20323373D01*
X23354610Y-20398373D01*
X23388509Y-20437494D01*
X23386471Y-20439259D01*
X23411925Y-20481458D01*
X23414500Y-20503893D01*
X23414500Y-20767664D01*
X23434977Y-20844085D01*
X23434978Y-20844088D01*
X23434979Y-20844089D01*
X23444138Y-20859953D01*
X23474540Y-20912611D01*
X23851975Y-21290046D01*
X24206353Y-21644424D01*
X24234130Y-21698941D01*
X24234341Y-21728514D01*
X24231254Y-21749997D01*
X24231253Y-21750002D01*
X24251734Y-21892456D01*
X24297404Y-21992457D01*
X24311523Y-22023373D01*
X24398171Y-22123371D01*
X24405773Y-22132144D01*
X24526842Y-22209950D01*
X24526847Y-22209953D01*
X24633303Y-22241211D01*
X24664935Y-22250499D01*
X24664936Y-22250499D01*
X24664939Y-22250500D01*
X24664941Y-22250500D01*
X24808859Y-22250500D01*
X24808861Y-22250500D01*
X24946953Y-22209953D01*
X25068028Y-22132143D01*
X25162277Y-22023373D01*
X25222065Y-21892457D01*
X25232406Y-21820534D01*
X25242547Y-21750002D01*
X25242547Y-21749997D01*
X25222065Y-21607543D01*
X25162277Y-21476628D01*
X25162277Y-21476627D01*
X25068028Y-21367857D01*
X25068027Y-21367856D01*
X25068026Y-21367855D01*
X24946957Y-21290049D01*
X24946954Y-21290047D01*
X24946953Y-21290047D01*
X24946950Y-21290046D01*
X24808864Y-21249500D01*
X24808861Y-21249500D01*
X24702379Y-21249500D01*
X24644188Y-21230593D01*
X24632375Y-21220504D01*
X24044496Y-20632625D01*
X24016719Y-20578108D01*
X24015500Y-20562621D01*
X24015500Y-20503893D01*
X24034407Y-20445702D01*
X24041741Y-20437711D01*
X24041491Y-20437494D01*
X24073978Y-20400002D01*
X24140377Y-20323373D01*
X24200165Y-20192457D01*
X24209630Y-20126627D01*
X24220647Y-20050002D01*
X24220647Y-20049997D01*
X24200165Y-19907543D01*
X24196492Y-19899500D01*
X24140377Y-19776627D01*
X24046128Y-19667857D01*
X24046127Y-19667856D01*
X24046126Y-19667855D01*
X23925057Y-19590049D01*
X23925054Y-19590047D01*
X23925053Y-19590047D01*
X23925050Y-19590046D01*
X23786964Y-19549500D01*
X23786961Y-19549500D01*
X23643039Y-19549500D01*
X23643035Y-19549500D01*
X23504949Y-19590046D01*
X23504942Y-19590049D01*
X23383873Y-19667855D01*
X23289622Y-19776628D01*
X23229834Y-19907543D01*
X23209353Y-20049997D01*
X10270212Y-20049997D01*
X10275500Y-20030262D01*
X10275500Y-19416079D01*
X10294407Y-19357888D01*
X10304496Y-19346075D01*
X12800574Y-16849997D01*
X24694353Y-16849997D01*
X24694353Y-16850002D01*
X24714834Y-16992456D01*
X24774623Y-17123373D01*
X24873509Y-17237494D01*
X24871471Y-17239259D01*
X24896925Y-17281458D01*
X24899500Y-17303893D01*
X24899500Y-19785992D01*
X24880593Y-19844183D01*
X24875321Y-19850821D01*
X24874623Y-19851626D01*
X24814834Y-19982543D01*
X24794353Y-20124997D01*
X24794353Y-20125002D01*
X24814834Y-20267456D01*
X24829697Y-20300000D01*
X24874623Y-20398373D01*
X24920940Y-20451826D01*
X24968873Y-20507144D01*
X25079296Y-20578108D01*
X25089947Y-20584953D01*
X25196403Y-20616211D01*
X25228035Y-20625499D01*
X25228036Y-20625499D01*
X25228039Y-20625500D01*
X25228041Y-20625500D01*
X25371959Y-20625500D01*
X25371961Y-20625500D01*
X25510053Y-20584953D01*
X25631128Y-20507143D01*
X25725377Y-20398373D01*
X25785165Y-20267457D01*
X25794060Y-20205593D01*
X25805647Y-20125002D01*
X25805647Y-20124997D01*
X25785165Y-19982543D01*
X25767139Y-19943073D01*
X25725377Y-19851627D01*
X25631128Y-19742857D01*
X25570336Y-19703788D01*
X25545976Y-19688133D01*
X25507245Y-19640767D01*
X25500500Y-19604849D01*
X25500500Y-17303893D01*
X25519407Y-17245702D01*
X25526741Y-17237711D01*
X25526491Y-17237494D01*
X25531128Y-17232143D01*
X25625377Y-17123373D01*
X25685165Y-16992457D01*
X25705647Y-16850000D01*
X25702735Y-16829748D01*
X25685165Y-16707543D01*
X25625377Y-16576628D01*
X25625377Y-16576627D01*
X25531128Y-16467857D01*
X25531127Y-16467856D01*
X25531126Y-16467855D01*
X25410057Y-16390049D01*
X25410054Y-16390047D01*
X25410053Y-16390047D01*
X25410050Y-16390046D01*
X25271964Y-16349500D01*
X25271961Y-16349500D01*
X25128039Y-16349500D01*
X25128035Y-16349500D01*
X24989949Y-16390046D01*
X24989942Y-16390049D01*
X24868873Y-16467855D01*
X24774622Y-16576628D01*
X24714834Y-16707543D01*
X24694353Y-16849997D01*
X12800574Y-16849997D01*
X14396075Y-15254496D01*
X14450592Y-15226719D01*
X14466079Y-15225500D01*
X15427917Y-15225500D01*
X15486108Y-15244407D01*
X15502733Y-15259667D01*
X15543872Y-15307143D01*
X15664947Y-15384953D01*
X15771403Y-15416211D01*
X15803035Y-15425499D01*
X15803036Y-15425499D01*
X15803039Y-15425500D01*
X15803041Y-15425500D01*
X15946959Y-15425500D01*
X15946961Y-15425500D01*
X16085053Y-15384953D01*
X16206128Y-15307143D01*
X16300377Y-15198373D01*
X16360165Y-15067457D01*
X16373401Y-14975400D01*
X16380647Y-14925002D01*
X16380647Y-14924997D01*
X16360165Y-14782543D01*
X16327014Y-14709953D01*
X16300377Y-14651627D01*
X16206128Y-14542857D01*
X16206127Y-14542856D01*
X16206126Y-14542855D01*
X16085057Y-14465049D01*
X16085054Y-14465047D01*
X16085053Y-14465047D01*
X16064006Y-14458867D01*
X15946964Y-14424500D01*
X15946961Y-14424500D01*
X15803039Y-14424500D01*
X15803035Y-14424500D01*
X15664949Y-14465046D01*
X15664942Y-14465049D01*
X15543876Y-14542854D01*
X15543871Y-14542858D01*
X15502736Y-14590331D01*
X15450340Y-14621927D01*
X15427917Y-14624500D01*
X14261035Y-14624500D01*
X14184612Y-14644978D01*
X14140442Y-14670480D01*
X14140441Y-14670479D01*
X14116088Y-14684540D01*
X13869503Y-14931125D01*
X13814987Y-14958902D01*
X13754555Y-14949331D01*
X13711290Y-14906066D01*
X13700500Y-14861121D01*
X13700500Y-14740479D01*
X13719407Y-14682288D01*
X13729496Y-14670475D01*
X14445475Y-13954496D01*
X14499992Y-13926719D01*
X14515479Y-13925500D01*
X15327917Y-13925500D01*
X15386108Y-13944407D01*
X15402733Y-13959667D01*
X15443872Y-14007143D01*
X15486458Y-14034511D01*
X15549996Y-14075345D01*
X15564947Y-14084953D01*
X15671403Y-14116211D01*
X15703035Y-14125499D01*
X15703036Y-14125499D01*
X15703039Y-14125500D01*
X15703041Y-14125500D01*
X15846959Y-14125500D01*
X15846961Y-14125500D01*
X15985053Y-14084953D01*
X16106128Y-14007143D01*
X16200377Y-13898373D01*
X16260165Y-13767457D01*
X16280647Y-13625000D01*
X16276452Y-13595825D01*
X16260165Y-13482543D01*
X16225731Y-13407144D01*
X16200377Y-13351627D01*
X16106128Y-13242857D01*
X16106127Y-13242856D01*
X16106126Y-13242855D01*
X15985057Y-13165049D01*
X15985054Y-13165047D01*
X15985053Y-13165047D01*
X15985050Y-13165046D01*
X15846964Y-13124500D01*
X15846961Y-13124500D01*
X15703039Y-13124500D01*
X15703035Y-13124500D01*
X15564949Y-13165046D01*
X15564942Y-13165049D01*
X15443876Y-13242854D01*
X15443875Y-13242855D01*
X15443872Y-13242857D01*
X15419068Y-13271483D01*
X15402736Y-13290331D01*
X15350340Y-13321927D01*
X15327917Y-13324500D01*
X14564479Y-13324500D01*
X14506288Y-13305593D01*
X14470324Y-13256093D01*
X14470324Y-13194907D01*
X14494475Y-13155496D01*
X14895475Y-12754496D01*
X14949992Y-12726719D01*
X14965479Y-12725500D01*
X18457507Y-12725500D01*
X18515698Y-12744407D01*
X18551662Y-12793907D01*
X18551662Y-12855093D01*
X18547560Y-12865627D01*
X18539834Y-12882543D01*
X18519353Y-13024997D01*
X18519353Y-13025002D01*
X18539834Y-13167456D01*
X18595950Y-13290331D01*
X18599623Y-13298373D01*
X18647140Y-13353211D01*
X18693873Y-13407144D01*
X18811197Y-13482543D01*
X18814947Y-13484953D01*
X18920320Y-13515893D01*
X18953035Y-13525499D01*
X18953036Y-13525499D01*
X18953039Y-13525500D01*
X18953041Y-13525500D01*
X19059521Y-13525500D01*
X19117712Y-13544407D01*
X19129525Y-13554496D01*
X19609540Y-14034511D01*
X19609539Y-14034511D01*
X19665489Y-14090460D01*
X19734007Y-14130019D01*
X19734011Y-14130021D01*
X19810435Y-14150499D01*
X19810437Y-14150500D01*
X22608784Y-14150500D01*
X22666975Y-14169407D01*
X22702939Y-14218907D01*
X22706776Y-14263589D01*
X22694353Y-14349996D01*
X22694353Y-14350002D01*
X22714834Y-14492456D01*
X22753235Y-14576540D01*
X22774623Y-14623373D01*
X22857895Y-14719475D01*
X22868873Y-14732144D01*
X22988128Y-14808784D01*
X22989947Y-14809953D01*
X23096403Y-14841211D01*
X23128035Y-14850499D01*
X23128036Y-14850499D01*
X23128039Y-14850500D01*
X23128041Y-14850500D01*
X23271959Y-14850500D01*
X23271961Y-14850500D01*
X23410053Y-14809953D01*
X23478110Y-14766215D01*
X23531632Y-14750500D01*
X26318099Y-14750500D01*
X26376290Y-14769407D01*
X26388103Y-14779496D01*
X27454087Y-15845480D01*
X27454089Y-15845481D01*
X27454090Y-15845482D01*
X27454091Y-15845483D01*
X27545408Y-15898205D01*
X27545406Y-15898205D01*
X27545410Y-15898206D01*
X27545412Y-15898207D01*
X27647273Y-15925500D01*
X27752727Y-15925500D01*
X30318099Y-15925500D01*
X30376290Y-15944407D01*
X30388103Y-15954496D01*
X32331254Y-17897646D01*
X32359031Y-17952163D01*
X32359242Y-17953561D01*
X32364834Y-17992456D01*
X32424622Y-18123371D01*
X32424623Y-18123373D01*
X32518872Y-18232143D01*
X32518873Y-18232144D01*
X32624864Y-18300260D01*
X32639947Y-18309953D01*
X32742439Y-18340047D01*
X32778035Y-18350499D01*
X32778036Y-18350499D01*
X32778039Y-18350500D01*
X32778041Y-18350500D01*
X32921959Y-18350500D01*
X32921961Y-18350500D01*
X33060053Y-18309953D01*
X33181128Y-18232143D01*
X33275377Y-18123373D01*
X33335165Y-17992457D01*
X33348797Y-17897646D01*
X33355647Y-17850002D01*
X33355647Y-17849997D01*
X33335165Y-17707543D01*
X33328569Y-17693099D01*
X33275377Y-17576627D01*
X33181128Y-17467857D01*
X33181127Y-17467856D01*
X33181126Y-17467855D01*
X33060057Y-17390049D01*
X33060054Y-17390048D01*
X33060053Y-17390047D01*
X32937614Y-17354096D01*
X32895502Y-17329110D01*
X30933471Y-15367078D01*
X30905694Y-15312561D01*
X30915265Y-15252129D01*
X30944688Y-15217418D01*
X30970493Y-15198373D01*
X30972150Y-15197150D01*
X31001379Y-15157547D01*
X31027912Y-15121596D01*
X31052793Y-15087883D01*
X31097646Y-14959700D01*
X31100500Y-14929267D01*
X31100499Y-13570734D01*
X31097646Y-13540300D01*
X31052793Y-13412117D01*
X31052791Y-13412115D01*
X31052791Y-13412113D01*
X30972154Y-13302854D01*
X30966904Y-13297604D01*
X30968262Y-13296245D01*
X30938326Y-13254384D01*
X30938786Y-13193200D01*
X30975121Y-13143972D01*
X31032708Y-13125500D01*
X34804145Y-13125500D01*
X34862336Y-13144407D01*
X34898300Y-13193907D01*
X34898300Y-13255093D01*
X34862336Y-13304593D01*
X34859147Y-13306815D01*
X34789711Y-13353211D01*
X34789707Y-13353214D01*
X34678214Y-13464707D01*
X34678211Y-13464711D01*
X34590609Y-13595814D01*
X34590603Y-13595825D01*
X34530263Y-13741501D01*
X34530263Y-13741503D01*
X34499500Y-13896155D01*
X34499500Y-14603844D01*
X34530263Y-14758496D01*
X34530263Y-14758498D01*
X34590603Y-14904174D01*
X34590609Y-14904185D01*
X34634919Y-14970498D01*
X34678211Y-15035289D01*
X34789711Y-15146789D01*
X34866909Y-15198371D01*
X34920814Y-15234390D01*
X34920825Y-15234396D01*
X34961180Y-15251111D01*
X35066503Y-15294737D01*
X35221158Y-15325500D01*
X35221159Y-15325500D01*
X35378841Y-15325500D01*
X35378842Y-15325500D01*
X35533497Y-15294737D01*
X35679179Y-15234394D01*
X35810289Y-15146789D01*
X35921789Y-15035289D01*
X36009394Y-14904179D01*
X36069737Y-14758497D01*
X36100500Y-14603842D01*
X36100500Y-13896158D01*
X36069737Y-13741503D01*
X36049622Y-13692942D01*
X36009396Y-13595825D01*
X36009390Y-13595814D01*
X35962406Y-13525499D01*
X35921789Y-13464711D01*
X35810289Y-13353211D01*
X35740853Y-13306815D01*
X35702974Y-13258765D01*
X35700572Y-13197627D01*
X35734565Y-13146753D01*
X35791969Y-13125576D01*
X35795855Y-13125500D01*
X36567292Y-13125500D01*
X36625483Y-13144407D01*
X36661447Y-13193907D01*
X36661447Y-13255093D01*
X36631763Y-13296271D01*
X36633096Y-13297604D01*
X36627845Y-13302854D01*
X36547207Y-13412115D01*
X36502355Y-13540295D01*
X36502353Y-13540304D01*
X36499500Y-13570724D01*
X36499500Y-14929267D01*
X36502353Y-14959696D01*
X36502353Y-14959698D01*
X36502354Y-14959700D01*
X36533150Y-15047710D01*
X36547208Y-15087886D01*
X36627845Y-15197145D01*
X36627854Y-15197154D01*
X36737115Y-15277792D01*
X36737116Y-15277792D01*
X36737117Y-15277793D01*
X36865300Y-15322646D01*
X36895733Y-15325500D01*
X37704266Y-15325499D01*
X37704267Y-15325499D01*
X37710352Y-15324928D01*
X37734700Y-15322646D01*
X37862883Y-15277793D01*
X37887440Y-15259669D01*
X37972145Y-15197154D01*
X37972146Y-15197152D01*
X37972150Y-15197150D01*
X38001379Y-15157547D01*
X38027912Y-15121596D01*
X38052793Y-15087883D01*
X38097646Y-14959700D01*
X38100500Y-14929267D01*
X38100499Y-13570734D01*
X38097646Y-13540300D01*
X38052793Y-13412117D01*
X38052791Y-13412115D01*
X38052791Y-13412113D01*
X37972154Y-13302854D01*
X37966904Y-13297604D01*
X37968262Y-13296245D01*
X37938326Y-13254384D01*
X37938786Y-13193200D01*
X37975121Y-13143972D01*
X38032708Y-13125500D01*
X39259521Y-13125500D01*
X39317712Y-13144407D01*
X39329525Y-13154496D01*
X39984540Y-13809511D01*
X39984539Y-13809511D01*
X40040489Y-13865460D01*
X40109007Y-13905019D01*
X40109011Y-13905021D01*
X40185435Y-13925499D01*
X40185437Y-13925500D01*
X40185438Y-13925500D01*
X40653885Y-13925500D01*
X40712076Y-13944407D01*
X40723889Y-13954496D01*
X42020504Y-15251111D01*
X42048281Y-15305628D01*
X42049500Y-15321115D01*
X42049500Y-18434520D01*
X42030593Y-18492711D01*
X42020504Y-18504524D01*
X40609508Y-19915519D01*
X40554991Y-19943296D01*
X40511613Y-19940505D01*
X40371964Y-19899500D01*
X40371961Y-19899500D01*
X40228039Y-19899500D01*
X40228035Y-19899500D01*
X40089949Y-19940046D01*
X40089942Y-19940049D01*
X39968873Y-20017855D01*
X39874622Y-20126628D01*
X39814834Y-20257543D01*
X39794353Y-20399997D01*
X39794353Y-20400002D01*
X39814834Y-20542456D01*
X39848866Y-20616974D01*
X39874623Y-20673373D01*
X39905937Y-20709511D01*
X39968873Y-20782144D01*
X40065262Y-20844089D01*
X40089947Y-20859953D01*
X40196403Y-20891211D01*
X40228035Y-20900499D01*
X40228036Y-20900499D01*
X40228039Y-20900500D01*
X40228041Y-20900500D01*
X40371959Y-20900500D01*
X40371961Y-20900500D01*
X40510053Y-20859953D01*
X40631128Y-20782143D01*
X40725377Y-20673373D01*
X40737944Y-20645852D01*
X40757996Y-20616974D01*
X40790460Y-20584511D01*
X42280498Y-19094472D01*
X42335013Y-19066697D01*
X42395445Y-19076268D01*
X42438710Y-19119533D01*
X42449500Y-19164478D01*
X42449500Y-21396105D01*
X42430593Y-21454296D01*
X42423258Y-21462289D01*
X42423509Y-21462506D01*
X42324622Y-21576628D01*
X42264834Y-21707543D01*
X42244353Y-21849997D01*
X42244353Y-21850002D01*
X42264834Y-21992456D01*
X42278953Y-22023371D01*
X42324623Y-22123373D01*
X42418872Y-22232143D01*
X42418873Y-22232144D01*
X42539942Y-22309950D01*
X42539947Y-22309953D01*
X42646403Y-22341211D01*
X42678035Y-22350499D01*
X42678036Y-22350499D01*
X42678039Y-22350500D01*
X42678041Y-22350500D01*
X42821959Y-22350500D01*
X42821961Y-22350500D01*
X42960053Y-22309953D01*
X43081128Y-22232143D01*
X43175377Y-22123373D01*
X43235165Y-21992457D01*
X43255647Y-21850000D01*
X43251410Y-21820534D01*
X43235165Y-21707543D01*
X43175377Y-21576628D01*
X43175377Y-21576627D01*
X43081128Y-21467857D01*
X43081127Y-21467856D01*
X43076491Y-21462506D01*
X43078524Y-21460743D01*
X43053067Y-21418505D01*
X43050500Y-21396105D01*
X43050500Y-15105901D01*
X43069407Y-15047710D01*
X43118907Y-15011746D01*
X43180093Y-15011746D01*
X43219504Y-15035897D01*
X44520504Y-16336897D01*
X44548281Y-16391414D01*
X44549500Y-16406901D01*
X44549500Y-17847273D01*
X44549500Y-17952727D01*
X44564678Y-18009373D01*
X44576794Y-18054592D01*
X44629516Y-18145908D01*
X44629518Y-18145910D01*
X44629520Y-18145913D01*
X45604087Y-19120480D01*
X45604089Y-19120481D01*
X45604091Y-19120483D01*
X45695406Y-19173204D01*
X45695407Y-19173204D01*
X45695412Y-19173207D01*
X45696879Y-19173600D01*
X45724785Y-19185944D01*
X45839942Y-19259950D01*
X45839947Y-19259953D01*
X45946403Y-19291211D01*
X45978035Y-19300499D01*
X45978036Y-19300499D01*
X45978039Y-19300500D01*
X45978041Y-19300500D01*
X46121959Y-19300500D01*
X46121961Y-19300500D01*
X46247611Y-19263606D01*
X46308769Y-19265353D01*
X46357222Y-19302716D01*
X46374500Y-19358596D01*
X46374500Y-19369746D01*
X46374501Y-19369758D01*
X46386132Y-19428227D01*
X46386133Y-19428231D01*
X46430448Y-19494552D01*
X46496769Y-19538867D01*
X46541231Y-19547711D01*
X46555241Y-19550498D01*
X46555246Y-19550498D01*
X46555252Y-19550500D01*
X46555253Y-19550500D01*
X48594747Y-19550500D01*
X48594748Y-19550500D01*
X48653231Y-19538867D01*
X48719552Y-19494552D01*
X48763867Y-19428231D01*
X48775500Y-19369748D01*
X48775500Y-18330252D01*
X48763867Y-18271769D01*
X48719552Y-18205448D01*
X48719548Y-18205445D01*
X48653233Y-18161134D01*
X48653231Y-18161133D01*
X48653228Y-18161132D01*
X48653227Y-18161132D01*
X48594758Y-18149501D01*
X48594748Y-18149500D01*
X46555252Y-18149500D01*
X46555251Y-18149500D01*
X46555241Y-18149501D01*
X46496772Y-18161132D01*
X46496766Y-18161134D01*
X46430451Y-18205445D01*
X46430445Y-18205451D01*
X46386134Y-18271766D01*
X46382403Y-18280776D01*
X46379380Y-18279523D01*
X46357544Y-18318487D01*
X46301971Y-18344085D01*
X46262474Y-18340758D01*
X46121964Y-18299500D01*
X46121961Y-18299500D01*
X45978039Y-18299500D01*
X45978036Y-18299500D01*
X45972756Y-18300260D01*
X45912467Y-18289825D01*
X45888664Y-18272271D01*
X45379496Y-17763103D01*
X45351719Y-17708586D01*
X45350500Y-17693099D01*
X45350500Y-16147274D01*
X45350500Y-16147273D01*
X45323207Y-16045413D01*
X45323207Y-16045412D01*
X45323207Y-16045411D01*
X45270483Y-15954091D01*
X45270481Y-15954089D01*
X45270480Y-15954087D01*
X40920913Y-11604520D01*
X40920910Y-11604518D01*
X40920908Y-11604516D01*
X40829591Y-11551794D01*
X40829593Y-11551794D01*
X40790070Y-11541204D01*
X40727727Y-11524500D01*
X25152727Y-11524500D01*
X25047273Y-11524500D01*
X24966226Y-11546216D01*
X24945408Y-11551794D01*
X24911609Y-11571309D01*
X24899750Y-11578156D01*
X24870800Y-11594870D01*
X24854086Y-11604520D01*
X24779519Y-11679086D01*
X24779520Y-11679087D01*
X24538103Y-11920504D01*
X24483586Y-11948281D01*
X24468099Y-11949500D01*
X23906899Y-11949500D01*
X23848708Y-11930593D01*
X23836895Y-11920503D01*
X23520913Y-11604520D01*
X23520908Y-11604516D01*
X23429591Y-11551794D01*
X23429593Y-11551794D01*
X23390070Y-11541204D01*
X23327727Y-11524500D01*
X23327725Y-11524500D01*
X13765906Y-11524500D01*
X13765890Y-11524499D01*
X13759827Y-11524499D01*
X13654373Y-11524499D01*
X13654370Y-11524499D01*
X13573326Y-11546216D01*
X13557413Y-11550480D01*
X13553166Y-11551618D01*
X13552509Y-11551794D01*
X13461187Y-11604519D01*
X13386619Y-11679086D01*
X13386620Y-11679087D01*
X11329516Y-13736191D01*
X11276795Y-13827506D01*
X11276793Y-13827510D01*
X11276793Y-13827512D01*
X11265983Y-13867857D01*
X11258675Y-13895131D01*
X11249500Y-13929373D01*
X11249500Y-15768098D01*
X11230593Y-15826289D01*
X11220504Y-15838102D01*
X9693397Y-17365208D01*
X9638880Y-17392985D01*
X9578448Y-17383414D01*
X9569870Y-17378489D01*
X9549204Y-17365208D01*
X9510053Y-17340047D01*
X9510050Y-17340046D01*
X9371964Y-17299500D01*
X9371961Y-17299500D01*
X9228039Y-17299500D01*
X9228035Y-17299500D01*
X9089949Y-17340046D01*
X9089942Y-17340049D01*
X8968873Y-17417855D01*
X8874622Y-17526628D01*
X8814834Y-17657543D01*
X8794353Y-17799997D01*
X8794353Y-17800002D01*
X8814834Y-17942456D01*
X8845395Y-18009373D01*
X8852370Y-18070159D01*
X8822284Y-18123437D01*
X8766628Y-18148855D01*
X8755342Y-18149500D01*
X6755252Y-18149500D01*
X6755251Y-18149500D01*
X6755241Y-18149501D01*
X6696772Y-18161132D01*
X6696766Y-18161134D01*
X6630451Y-18205445D01*
X6630445Y-18205451D01*
X6586134Y-18271766D01*
X6586132Y-18271772D01*
X6574501Y-18330241D01*
X6574500Y-18330253D01*
X6574500Y-19235521D01*
X6555593Y-19293712D01*
X6506093Y-19329676D01*
X6444907Y-19329676D01*
X6405496Y-19305525D01*
X6004496Y-18904525D01*
X5976719Y-18850008D01*
X5975500Y-18834521D01*
X5975500Y-15790253D01*
X6574500Y-15790253D01*
X6574500Y-16829746D01*
X6574501Y-16829758D01*
X6586132Y-16888227D01*
X6586133Y-16888231D01*
X6630448Y-16954552D01*
X6696769Y-16998867D01*
X6741231Y-17007711D01*
X6755241Y-17010498D01*
X6755246Y-17010498D01*
X6755252Y-17010500D01*
X6755253Y-17010500D01*
X9294747Y-17010500D01*
X9294748Y-17010500D01*
X9353231Y-16998867D01*
X9419552Y-16954552D01*
X9463867Y-16888231D01*
X9475500Y-16829748D01*
X9475500Y-16216901D01*
X9494407Y-16158710D01*
X9504492Y-16146902D01*
X9512999Y-16138394D01*
X9555114Y-16113403D01*
X9677553Y-16077453D01*
X9798628Y-15999643D01*
X9892877Y-15890873D01*
X9952665Y-15759957D01*
X9958256Y-15721062D01*
X9985249Y-15666157D01*
X9986176Y-15665215D01*
X10945480Y-14705913D01*
X10959120Y-14682288D01*
X10998205Y-14614592D01*
X10998205Y-14614590D01*
X10998207Y-14614588D01*
X11025500Y-14512727D01*
X11025500Y-14407273D01*
X11025500Y-13556901D01*
X11044407Y-13498710D01*
X11054496Y-13486897D01*
X13186897Y-11354496D01*
X13241414Y-11326719D01*
X13256901Y-11325500D01*
X41618099Y-11325500D01*
X41676290Y-11344407D01*
X41688103Y-11354496D01*
X46345504Y-16011897D01*
X46373281Y-16066414D01*
X46374500Y-16081901D01*
X46374500Y-16829746D01*
X46374501Y-16829758D01*
X46386132Y-16888227D01*
X46386133Y-16888231D01*
X46430448Y-16954552D01*
X46496769Y-16998867D01*
X46541231Y-17007711D01*
X46555241Y-17010498D01*
X46555246Y-17010498D01*
X46555252Y-17010500D01*
X46555253Y-17010500D01*
X48594747Y-17010500D01*
X48594748Y-17010500D01*
X48653231Y-16998867D01*
X48719552Y-16954552D01*
X48763867Y-16888231D01*
X48775500Y-16829748D01*
X48775500Y-15790252D01*
X48763867Y-15731769D01*
X48719552Y-15665448D01*
X48719102Y-15665147D01*
X48653233Y-15621134D01*
X48653231Y-15621133D01*
X48653228Y-15621132D01*
X48653227Y-15621132D01*
X48594758Y-15609501D01*
X48594748Y-15609500D01*
X48594747Y-15609500D01*
X47116901Y-15609500D01*
X47058710Y-15590593D01*
X47046897Y-15580504D01*
X44561927Y-13095534D01*
X42070913Y-10604520D01*
X42070910Y-10604518D01*
X42070909Y-10604517D01*
X42070908Y-10604516D01*
X41979591Y-10551794D01*
X41979593Y-10551794D01*
X41939807Y-10541134D01*
X41877727Y-10524500D01*
X13102727Y-10524500D01*
X12997273Y-10524500D01*
X12935193Y-10541134D01*
X12895407Y-10551794D01*
X12804091Y-10604516D01*
X10304516Y-13104091D01*
X10251795Y-13195406D01*
X10237106Y-13250227D01*
X10224500Y-13297273D01*
X10224500Y-14253099D01*
X10205593Y-14311290D01*
X10195504Y-14323103D01*
X9421996Y-15096610D01*
X9379884Y-15121596D01*
X9257447Y-15157547D01*
X9257442Y-15157549D01*
X9136373Y-15235355D01*
X9042122Y-15344128D01*
X8982334Y-15475043D01*
X8976742Y-15513938D01*
X8949746Y-15568846D01*
X8948757Y-15569849D01*
X8938107Y-15580500D01*
X8883592Y-15608280D01*
X8868100Y-15609500D01*
X6755252Y-15609500D01*
X6755251Y-15609500D01*
X6755241Y-15609501D01*
X6696772Y-15621132D01*
X6696766Y-15621134D01*
X6630451Y-15665445D01*
X6630445Y-15665451D01*
X6586134Y-15731766D01*
X6586132Y-15731772D01*
X6574501Y-15790241D01*
X6574500Y-15790253D01*
X5975500Y-15790253D01*
X5975500Y-15535437D01*
X5975499Y-15535435D01*
X5955021Y-15459011D01*
X5955019Y-15459007D01*
X5915460Y-15390489D01*
X5859511Y-15334539D01*
X5859511Y-15334540D01*
X4880546Y-14355575D01*
X4852769Y-14301058D01*
X4852558Y-14271482D01*
X4855647Y-14250000D01*
X4835165Y-14107543D01*
X4775377Y-13976627D01*
X4681128Y-13867857D01*
X4681127Y-13867856D01*
X4681126Y-13867855D01*
X4560057Y-13790049D01*
X4560054Y-13790047D01*
X4560053Y-13790047D01*
X4560050Y-13790046D01*
X4421964Y-13749500D01*
X4421961Y-13749500D01*
X4278039Y-13749500D01*
X4278035Y-13749500D01*
X4139949Y-13790046D01*
X4139942Y-13790049D01*
X4018873Y-13867855D01*
X3924622Y-13976628D01*
X3864834Y-14107543D01*
X3844353Y-14249997D01*
X-899500Y-14249997D01*
X-899500Y-13250253D01*
X6574500Y-13250253D01*
X6574500Y-14289746D01*
X6574501Y-14289758D01*
X6586132Y-14348227D01*
X6586134Y-14348233D01*
X6615684Y-14392457D01*
X6630448Y-14414552D01*
X6696769Y-14458867D01*
X6741231Y-14467711D01*
X6755241Y-14470498D01*
X6755246Y-14470498D01*
X6755252Y-14470500D01*
X6755253Y-14470500D01*
X9294747Y-14470500D01*
X9294748Y-14470500D01*
X9353231Y-14458867D01*
X9419552Y-14414552D01*
X9463867Y-14348231D01*
X9475500Y-14289748D01*
X9475500Y-13543564D01*
X9494407Y-13485373D01*
X9543907Y-13449409D01*
X9546554Y-13448590D01*
X9683253Y-13408453D01*
X9804328Y-13330643D01*
X9898577Y-13221873D01*
X9958365Y-13090957D01*
X9971799Y-12997517D01*
X9998793Y-12942613D01*
X9999719Y-12941672D01*
X12586897Y-10354496D01*
X12641414Y-10326719D01*
X12656901Y-10325500D01*
X42818099Y-10325500D01*
X42876290Y-10344407D01*
X42888103Y-10354496D01*
X46345504Y-13811897D01*
X46373281Y-13866414D01*
X46374500Y-13881901D01*
X46374500Y-14289746D01*
X46374501Y-14289758D01*
X46386132Y-14348227D01*
X46386134Y-14348233D01*
X46415684Y-14392457D01*
X46430448Y-14414552D01*
X46496769Y-14458867D01*
X46541231Y-14467711D01*
X46555241Y-14470498D01*
X46555246Y-14470498D01*
X46555252Y-14470500D01*
X46555253Y-14470500D01*
X48594747Y-14470500D01*
X48594748Y-14470500D01*
X48653231Y-14458867D01*
X48719552Y-14414552D01*
X48763867Y-14348231D01*
X48775500Y-14289748D01*
X48775500Y-14169500D01*
X48794407Y-14111309D01*
X48843907Y-14075345D01*
X48874500Y-14070500D01*
X49769563Y-14070500D01*
X49769563Y-14070499D01*
X49845989Y-14050021D01*
X49914511Y-14010460D01*
X49970460Y-13954511D01*
X50145473Y-13779496D01*
X50199990Y-13751719D01*
X50215477Y-13750500D01*
X50321959Y-13750500D01*
X50321961Y-13750500D01*
X50460053Y-13709953D01*
X50581128Y-13632143D01*
X50675377Y-13523373D01*
X50735165Y-13392457D01*
X50748048Y-13302854D01*
X50755647Y-13250002D01*
X50755647Y-13249997D01*
X50735165Y-13107543D01*
X50733971Y-13104928D01*
X50675377Y-12976627D01*
X50581128Y-12867857D01*
X50581127Y-12867856D01*
X50581126Y-12867855D01*
X50460057Y-12790049D01*
X50460054Y-12790047D01*
X50460053Y-12790047D01*
X50460050Y-12790046D01*
X50321964Y-12749500D01*
X50321961Y-12749500D01*
X50178039Y-12749500D01*
X50178035Y-12749500D01*
X50039949Y-12790046D01*
X50039942Y-12790049D01*
X49918873Y-12867855D01*
X49824622Y-12976628D01*
X49764834Y-13107543D01*
X49744353Y-13249996D01*
X49744353Y-13249997D01*
X49744353Y-13250000D01*
X49746597Y-13265606D01*
X49747442Y-13271483D01*
X49737007Y-13331772D01*
X49719453Y-13355574D01*
X49634526Y-13440503D01*
X49580010Y-13468281D01*
X49564522Y-13469500D01*
X48874500Y-13469500D01*
X48816309Y-13450593D01*
X48780345Y-13401093D01*
X48775500Y-13370500D01*
X48775500Y-13250253D01*
X48775498Y-13250241D01*
X48769855Y-13221873D01*
X48763867Y-13191769D01*
X48719552Y-13125448D01*
X48719548Y-13125445D01*
X48653233Y-13081134D01*
X48653231Y-13081133D01*
X48653228Y-13081132D01*
X48653227Y-13081132D01*
X48594758Y-13069501D01*
X48594748Y-13069500D01*
X48594747Y-13069500D01*
X46776901Y-13069500D01*
X46718710Y-13050593D01*
X46706897Y-13040504D01*
X44991893Y-11325500D01*
X43270913Y-9604520D01*
X43270910Y-9604518D01*
X43270909Y-9604517D01*
X43270908Y-9604516D01*
X43179591Y-9551794D01*
X43179593Y-9551794D01*
X43140070Y-9541204D01*
X43077727Y-9524500D01*
X12502727Y-9524500D01*
X12397273Y-9524500D01*
X12334929Y-9541204D01*
X12295407Y-9551794D01*
X12204091Y-9604516D01*
X12204090Y-9604517D01*
X9361583Y-12447022D01*
X9319472Y-12472007D01*
X9263149Y-12488545D01*
X9263147Y-12488546D01*
X9142073Y-12566355D01*
X9047822Y-12675128D01*
X8985093Y-12812484D01*
X8983536Y-12811773D01*
X8964129Y-12844476D01*
X8931588Y-12877018D01*
X8931587Y-12877020D01*
X8768103Y-13040504D01*
X8713586Y-13068281D01*
X8698099Y-13069500D01*
X6755252Y-13069500D01*
X6755251Y-13069500D01*
X6755241Y-13069501D01*
X6696772Y-13081132D01*
X6696766Y-13081134D01*
X6630451Y-13125445D01*
X6630445Y-13125451D01*
X6586134Y-13191766D01*
X6586132Y-13191772D01*
X6574501Y-13250241D01*
X6574500Y-13250253D01*
X-899500Y-13250253D01*
X-899500Y-10710253D01*
X6574500Y-10710253D01*
X6574500Y-11749746D01*
X6574501Y-11749758D01*
X6586132Y-11808227D01*
X6586133Y-11808231D01*
X6630448Y-11874552D01*
X6696769Y-11918867D01*
X6741231Y-11927711D01*
X6755241Y-11930498D01*
X6755246Y-11930498D01*
X6755252Y-11930500D01*
X6755253Y-11930500D01*
X9294747Y-11930500D01*
X9294748Y-11930500D01*
X9353231Y-11918867D01*
X9419552Y-11874552D01*
X9463867Y-11808231D01*
X9475500Y-11749748D01*
X9475500Y-11729500D01*
X9494407Y-11671309D01*
X9543907Y-11635345D01*
X9574500Y-11630500D01*
X9720625Y-11630500D01*
X9720627Y-11630500D01*
X9822488Y-11603207D01*
X9822490Y-11603205D01*
X9822492Y-11603205D01*
X9913808Y-11550483D01*
X9913808Y-11550482D01*
X9913813Y-11550480D01*
X11836756Y-9627535D01*
X11853232Y-9614260D01*
X11859328Y-9610343D01*
X11891925Y-9572721D01*
X11896728Y-9567564D01*
X12109797Y-9354496D01*
X12164313Y-9326719D01*
X12179800Y-9325500D01*
X44418099Y-9325500D01*
X44476290Y-9344407D01*
X44488103Y-9354496D01*
X46345504Y-11211897D01*
X46373281Y-11266414D01*
X46374500Y-11281901D01*
X46374500Y-11749746D01*
X46374501Y-11749758D01*
X46386132Y-11808227D01*
X46386133Y-11808231D01*
X46430448Y-11874552D01*
X46496769Y-11918867D01*
X46541231Y-11927711D01*
X46555241Y-11930498D01*
X46555246Y-11930498D01*
X46555252Y-11930500D01*
X46555253Y-11930500D01*
X48594747Y-11930500D01*
X48594748Y-11930500D01*
X48653231Y-11918867D01*
X48719552Y-11874552D01*
X48763867Y-11808231D01*
X48775500Y-11749748D01*
X48775500Y-11629500D01*
X48794407Y-11571309D01*
X48843907Y-11535345D01*
X48874500Y-11530500D01*
X50437246Y-11530500D01*
X50490769Y-11546216D01*
X50581493Y-11604520D01*
X50589947Y-11609953D01*
X50696403Y-11641211D01*
X50728035Y-11650499D01*
X50728036Y-11650499D01*
X50728039Y-11650500D01*
X50728041Y-11650500D01*
X50871959Y-11650500D01*
X50871961Y-11650500D01*
X51010053Y-11609953D01*
X51131128Y-11532143D01*
X51225377Y-11423373D01*
X51285165Y-11292457D01*
X51305647Y-11150000D01*
X51285165Y-11007543D01*
X51225377Y-10876627D01*
X51131128Y-10767857D01*
X51131127Y-10767856D01*
X51131126Y-10767855D01*
X51010057Y-10690049D01*
X51010054Y-10690047D01*
X51010053Y-10690047D01*
X51010050Y-10690046D01*
X50871964Y-10649500D01*
X50871961Y-10649500D01*
X50728039Y-10649500D01*
X50728035Y-10649500D01*
X50589949Y-10690046D01*
X50589942Y-10690049D01*
X50468873Y-10767855D01*
X50374619Y-10876631D01*
X50370795Y-10882583D01*
X50368317Y-10880990D01*
X50335516Y-10916714D01*
X50286853Y-10929500D01*
X48874500Y-10929500D01*
X48816309Y-10910593D01*
X48780345Y-10861093D01*
X48775500Y-10830500D01*
X48775500Y-10710253D01*
X48775498Y-10710241D01*
X48771481Y-10690046D01*
X48763867Y-10651769D01*
X48719552Y-10585448D01*
X48719548Y-10585445D01*
X48653233Y-10541134D01*
X48653231Y-10541133D01*
X48653228Y-10541132D01*
X48653227Y-10541132D01*
X48594758Y-10529501D01*
X48594748Y-10529500D01*
X48594747Y-10529500D01*
X46836901Y-10529500D01*
X46778710Y-10510593D01*
X46766897Y-10500504D01*
X45833957Y-9567564D01*
X45504217Y-9237824D01*
X46074999Y-9237824D01*
X46081401Y-9297370D01*
X46081403Y-9297381D01*
X46131646Y-9432088D01*
X46131647Y-9432090D01*
X46217807Y-9547184D01*
X46217815Y-9547192D01*
X46332909Y-9633352D01*
X46332911Y-9633353D01*
X46467618Y-9683596D01*
X46467629Y-9683598D01*
X46527176Y-9690000D01*
X47324999Y-9690000D01*
X47325000Y-9689999D01*
X47325000Y-8940001D01*
X47825000Y-8940001D01*
X47825000Y-9689999D01*
X47825001Y-9690000D01*
X48622824Y-9690000D01*
X48682370Y-9683598D01*
X48682381Y-9683596D01*
X48817088Y-9633353D01*
X48817090Y-9633352D01*
X48932184Y-9547192D01*
X48932192Y-9547184D01*
X49018352Y-9432090D01*
X49018353Y-9432088D01*
X49068596Y-9297381D01*
X49068598Y-9297370D01*
X49075000Y-9237824D01*
X49075000Y-8940001D01*
X49074999Y-8940000D01*
X47825001Y-8940000D01*
X47825000Y-8940001D01*
X47325000Y-8940001D01*
X47324999Y-8940000D01*
X46075001Y-8940000D01*
X46075000Y-8940001D01*
X46075000Y-9237824D01*
X46074999Y-9237824D01*
X45504217Y-9237824D01*
X44870913Y-8604520D01*
X44870910Y-8604518D01*
X44870909Y-8604517D01*
X44870908Y-8604516D01*
X44779591Y-8551794D01*
X44779593Y-8551794D01*
X44740070Y-8541204D01*
X44677727Y-8524500D01*
X12025627Y-8524500D01*
X11920173Y-8524500D01*
X11830340Y-8548570D01*
X11818308Y-8551794D01*
X11772650Y-8578156D01*
X11743700Y-8594870D01*
X11726986Y-8604520D01*
X11652419Y-8679086D01*
X11652420Y-8679087D01*
X11632803Y-8698704D01*
X11578286Y-8726481D01*
X11562799Y-8727700D01*
X11456235Y-8727700D01*
X11318149Y-8768246D01*
X11318142Y-8768249D01*
X11197073Y-8846055D01*
X11102822Y-8954828D01*
X11043034Y-9085743D01*
X11022553Y-9228197D01*
X11022553Y-9228201D01*
X11025651Y-9249748D01*
X11015218Y-9310038D01*
X10997663Y-9333842D01*
X9630649Y-10700857D01*
X9576132Y-10728634D01*
X9515700Y-10719063D01*
X9472435Y-10675798D01*
X9465322Y-10655284D01*
X9463867Y-10651772D01*
X9463867Y-10651769D01*
X9419552Y-10585448D01*
X9419548Y-10585445D01*
X9353233Y-10541134D01*
X9353231Y-10541133D01*
X9353228Y-10541132D01*
X9353227Y-10541132D01*
X9294758Y-10529501D01*
X9294748Y-10529500D01*
X6755252Y-10529500D01*
X6755251Y-10529500D01*
X6755241Y-10529501D01*
X6696772Y-10541132D01*
X6696766Y-10541134D01*
X6630451Y-10585445D01*
X6630445Y-10585451D01*
X6586134Y-10651766D01*
X6586132Y-10651772D01*
X6574501Y-10710241D01*
X6574500Y-10710253D01*
X-899500Y-10710253D01*
X-899500Y-9237824D01*
X6274999Y-9237824D01*
X6281401Y-9297370D01*
X6281403Y-9297381D01*
X6331646Y-9432088D01*
X6331647Y-9432090D01*
X6417807Y-9547184D01*
X6417815Y-9547192D01*
X6532909Y-9633352D01*
X6532911Y-9633353D01*
X6667618Y-9683596D01*
X6667629Y-9683598D01*
X6727176Y-9690000D01*
X7774999Y-9690000D01*
X7775000Y-9689999D01*
X7775000Y-8940001D01*
X8275000Y-8940001D01*
X8275000Y-9689999D01*
X8275001Y-9690000D01*
X9322824Y-9690000D01*
X9382370Y-9683598D01*
X9382381Y-9683596D01*
X9517088Y-9633353D01*
X9517090Y-9633352D01*
X9632184Y-9547192D01*
X9632192Y-9547184D01*
X9718352Y-9432090D01*
X9718353Y-9432088D01*
X9768596Y-9297381D01*
X9768598Y-9297370D01*
X9775000Y-9237824D01*
X9775000Y-8940001D01*
X9774999Y-8940000D01*
X8275001Y-8940000D01*
X8275000Y-8940001D01*
X7775000Y-8940001D01*
X7774999Y-8940000D01*
X6275001Y-8940000D01*
X6275000Y-8940001D01*
X6275000Y-9237824D01*
X6274999Y-9237824D01*
X-899500Y-9237824D01*
X-899500Y-8142175D01*
X6275000Y-8142175D01*
X6275000Y-8439999D01*
X6275001Y-8440000D01*
X7774999Y-8440000D01*
X7775000Y-8439999D01*
X7775000Y-7690001D01*
X8275000Y-7690001D01*
X8275000Y-8439999D01*
X8275001Y-8440000D01*
X9774999Y-8440000D01*
X9775000Y-8439999D01*
X9775000Y-8142175D01*
X9768598Y-8082629D01*
X9768596Y-8082618D01*
X9718353Y-7947911D01*
X9718352Y-7947909D01*
X9632192Y-7832815D01*
X9632184Y-7832807D01*
X9517090Y-7746647D01*
X9517088Y-7746646D01*
X9382381Y-7696403D01*
X9382370Y-7696401D01*
X9322824Y-7690000D01*
X8275001Y-7690000D01*
X8275000Y-7690001D01*
X7775000Y-7690001D01*
X7774999Y-7690000D01*
X6727176Y-7690000D01*
X6667629Y-7696401D01*
X6667618Y-7696403D01*
X6532911Y-7746646D01*
X6532909Y-7746647D01*
X6417815Y-7832807D01*
X6417807Y-7832815D01*
X6331647Y-7947909D01*
X6331646Y-7947911D01*
X6281403Y-8082618D01*
X6281401Y-8082629D01*
X6275000Y-8142175D01*
X-899500Y-8142175D01*
X-899500Y-5630253D01*
X6574500Y-5630253D01*
X6574500Y-6669746D01*
X6574501Y-6669758D01*
X6586132Y-6728227D01*
X6586134Y-6728233D01*
X6613980Y-6769907D01*
X6630448Y-6794552D01*
X6696769Y-6838867D01*
X6732182Y-6845911D01*
X6755241Y-6850498D01*
X6755246Y-6850498D01*
X6755252Y-6850500D01*
X6755253Y-6850500D01*
X9294747Y-6850500D01*
X9294748Y-6850500D01*
X9353231Y-6838867D01*
X9378167Y-6822204D01*
X9437055Y-6805596D01*
X9494459Y-6826773D01*
X9503173Y-6834516D01*
X10639570Y-7970913D01*
X10639569Y-7970913D01*
X10714137Y-8045480D01*
X10805463Y-8098207D01*
X10907323Y-8125500D01*
X12343100Y-8125500D01*
X12401291Y-8144407D01*
X12413104Y-8154496D01*
X12429519Y-8170911D01*
X12429520Y-8170913D01*
X12504087Y-8245480D01*
X12504092Y-8245483D01*
X12595409Y-8298205D01*
X12595413Y-8298207D01*
X12697270Y-8325500D01*
X12697272Y-8325501D01*
X12697273Y-8325501D01*
X12808790Y-8325501D01*
X12808806Y-8325500D01*
X43502725Y-8325500D01*
X43502727Y-8325500D01*
X43604588Y-8298207D01*
X43604590Y-8298205D01*
X43604592Y-8298205D01*
X43695908Y-8245483D01*
X43695908Y-8245482D01*
X43695913Y-8245480D01*
X43799218Y-8142175D01*
X46075000Y-8142175D01*
X46075000Y-8439999D01*
X46075001Y-8440000D01*
X47324999Y-8440000D01*
X47325000Y-8439999D01*
X47325000Y-7690001D01*
X47825000Y-7690001D01*
X47825000Y-8439999D01*
X47825001Y-8440000D01*
X49074999Y-8440000D01*
X49075000Y-8439999D01*
X49075000Y-8142175D01*
X49068598Y-8082629D01*
X49068596Y-8082618D01*
X49018353Y-7947911D01*
X49018352Y-7947909D01*
X48932192Y-7832815D01*
X48932184Y-7832807D01*
X48817090Y-7746647D01*
X48817088Y-7746646D01*
X48682381Y-7696403D01*
X48682370Y-7696401D01*
X48622824Y-7690000D01*
X47825001Y-7690000D01*
X47825000Y-7690001D01*
X47325000Y-7690001D01*
X47324999Y-7690000D01*
X46527176Y-7690000D01*
X46467629Y-7696401D01*
X46467618Y-7696403D01*
X46332911Y-7746646D01*
X46332909Y-7746647D01*
X46217815Y-7832807D01*
X46217807Y-7832815D01*
X46131647Y-7947909D01*
X46131646Y-7947911D01*
X46081403Y-8082618D01*
X46081401Y-8082629D01*
X46075000Y-8142175D01*
X43799218Y-8142175D01*
X45361897Y-6579496D01*
X45416414Y-6551719D01*
X45431901Y-6550500D01*
X45627725Y-6550500D01*
X45627727Y-6550500D01*
X45729587Y-6523207D01*
X45820913Y-6470480D01*
X45820912Y-6470480D01*
X45826532Y-6467236D01*
X45827256Y-6468490D01*
X45877968Y-6450534D01*
X45880557Y-6450500D01*
X46275500Y-6450500D01*
X46333691Y-6469407D01*
X46369655Y-6518907D01*
X46374500Y-6549500D01*
X46374500Y-6669746D01*
X46374501Y-6669758D01*
X46386132Y-6728227D01*
X46386134Y-6728233D01*
X46413980Y-6769907D01*
X46430448Y-6794552D01*
X46496769Y-6838867D01*
X46532182Y-6845911D01*
X46555241Y-6850498D01*
X46555246Y-6850498D01*
X46555252Y-6850500D01*
X46555253Y-6850500D01*
X48594747Y-6850500D01*
X48594748Y-6850500D01*
X48653231Y-6838867D01*
X48719552Y-6794552D01*
X48763867Y-6728231D01*
X48769383Y-6700499D01*
X48773425Y-6680184D01*
X48803322Y-6626801D01*
X48858888Y-6601186D01*
X48870522Y-6600500D01*
X49018368Y-6600500D01*
X49071889Y-6616215D01*
X49139947Y-6659953D01*
X49246403Y-6691211D01*
X49278035Y-6700499D01*
X49278036Y-6700499D01*
X49278039Y-6700500D01*
X49278041Y-6700500D01*
X49421959Y-6700500D01*
X49421961Y-6700500D01*
X49560053Y-6659953D01*
X49681128Y-6582143D01*
X49775377Y-6473373D01*
X49835165Y-6342457D01*
X49855647Y-6200000D01*
X49855575Y-6199500D01*
X49835165Y-6057543D01*
X49802600Y-5986236D01*
X49775377Y-5926627D01*
X49681128Y-5817857D01*
X49681127Y-5817856D01*
X49681126Y-5817855D01*
X49560057Y-5740049D01*
X49560054Y-5740047D01*
X49560053Y-5740047D01*
X49545596Y-5735802D01*
X49421964Y-5699500D01*
X49421961Y-5699500D01*
X49278039Y-5699500D01*
X49278035Y-5699500D01*
X49139949Y-5740046D01*
X49139946Y-5740047D01*
X49110868Y-5758734D01*
X49071889Y-5783784D01*
X49018368Y-5799500D01*
X48874500Y-5799500D01*
X48816309Y-5780593D01*
X48780345Y-5731093D01*
X48775500Y-5700500D01*
X48775500Y-5630253D01*
X48775498Y-5630241D01*
X48765603Y-5580497D01*
X48763867Y-5571769D01*
X48719552Y-5505448D01*
X48719548Y-5505445D01*
X48653233Y-5461134D01*
X48653231Y-5461133D01*
X48653228Y-5461132D01*
X48653227Y-5461132D01*
X48594758Y-5449501D01*
X48594748Y-5449500D01*
X46555252Y-5449500D01*
X46555251Y-5449500D01*
X46555241Y-5449501D01*
X46496772Y-5461132D01*
X46496766Y-5461134D01*
X46430451Y-5505445D01*
X46430445Y-5505451D01*
X46386134Y-5571766D01*
X46386132Y-5571772D01*
X46374501Y-5630241D01*
X46374500Y-5630253D01*
X46374500Y-5750500D01*
X46355593Y-5808691D01*
X46306093Y-5844655D01*
X46275500Y-5849500D01*
X45880557Y-5849500D01*
X45826929Y-5832075D01*
X45826532Y-5832764D01*
X45823293Y-5830894D01*
X45822366Y-5830593D01*
X45820985Y-5829561D01*
X45729589Y-5776794D01*
X45729588Y-5776793D01*
X45729587Y-5776793D01*
X45627727Y-5749500D01*
X45627725Y-5749500D01*
X45582373Y-5749500D01*
X45524182Y-5730593D01*
X45488218Y-5681093D01*
X45488218Y-5619907D01*
X45512369Y-5580497D01*
X45769494Y-5323371D01*
X45920480Y-5172385D01*
X45936052Y-5145413D01*
X45973207Y-5081059D01*
X46000500Y-4979199D01*
X46000500Y-3174723D01*
X46019407Y-3116532D01*
X46061612Y-3083260D01*
X46105495Y-3065084D01*
X46228416Y-2982951D01*
X46332951Y-2878416D01*
X46415084Y-2755495D01*
X46471658Y-2618913D01*
X46500500Y-2473918D01*
X46500500Y-2326082D01*
X46471658Y-2181087D01*
X46415084Y-2044505D01*
X46332951Y-1921584D01*
X46228416Y-1817049D01*
X46105495Y-1734916D01*
X46105493Y-1734915D01*
X45968914Y-1678342D01*
X45823918Y-1649500D01*
X45376082Y-1649500D01*
X45376081Y-1649500D01*
X45231085Y-1678342D01*
X45094506Y-1734915D01*
X44971585Y-1817048D01*
X44867048Y-1921585D01*
X44784915Y-2044506D01*
X44728342Y-2181085D01*
X44699500Y-2326081D01*
X44699500Y-2473918D01*
X44728342Y-2618914D01*
X44784915Y-2755493D01*
X44784916Y-2755495D01*
X44867049Y-2878416D01*
X44971584Y-2982951D01*
X45011349Y-3009521D01*
X45094503Y-3065083D01*
X45094504Y-3065083D01*
X45094505Y-3065084D01*
X45138386Y-3083260D01*
X45184910Y-3122994D01*
X45199500Y-3174723D01*
X45199500Y-4719571D01*
X45180593Y-4777762D01*
X45170504Y-4789575D01*
X43089575Y-6870504D01*
X43035058Y-6898281D01*
X43019571Y-6899500D01*
X39967493Y-6899500D01*
X39909302Y-6880593D01*
X39873338Y-6831093D01*
X39873338Y-6769907D01*
X39877440Y-6759373D01*
X39885165Y-6742456D01*
X39905647Y-6600002D01*
X39905647Y-6599997D01*
X39885165Y-6457543D01*
X39881949Y-6450500D01*
X39825377Y-6326627D01*
X39731128Y-6217857D01*
X39731127Y-6217856D01*
X39731126Y-6217855D01*
X39610057Y-6140049D01*
X39610054Y-6140047D01*
X39610053Y-6140047D01*
X39610050Y-6140046D01*
X39471964Y-6099500D01*
X39471961Y-6099500D01*
X39328039Y-6099500D01*
X39328035Y-6099500D01*
X39189949Y-6140046D01*
X39189946Y-6140047D01*
X39160868Y-6158734D01*
X39121889Y-6183784D01*
X39068368Y-6199500D01*
X38556901Y-6199500D01*
X38498710Y-6180593D01*
X38486898Y-6170504D01*
X38395913Y-6079520D01*
X38395908Y-6079516D01*
X38304591Y-6026794D01*
X38304593Y-6026794D01*
X38265070Y-6016204D01*
X38202727Y-5999500D01*
X38202725Y-5999500D01*
X33070445Y-5999500D01*
X33020945Y-5986236D01*
X33004591Y-5976794D01*
X33004593Y-5976794D01*
X32965070Y-5966204D01*
X32902727Y-5949500D01*
X31157323Y-5949500D01*
X31055463Y-5976793D01*
X31055462Y-5976793D01*
X31055460Y-5976794D01*
X31055458Y-5976795D01*
X31024741Y-5994529D01*
X30964893Y-6007249D01*
X30908998Y-5982362D01*
X30905239Y-5978796D01*
X28470991Y-3544548D01*
X26030963Y-1104520D01*
X26030960Y-1104518D01*
X26030959Y-1104517D01*
X26030958Y-1104516D01*
X25939641Y-1051794D01*
X25939643Y-1051794D01*
X25900120Y-1041204D01*
X25837777Y-1024500D01*
X25837775Y-1024500D01*
X20321670Y-1024500D01*
X20263479Y-1005593D01*
X20230206Y-963385D01*
X20190777Y-868193D01*
X20190771Y-868182D01*
X20114114Y-753458D01*
X20016541Y-655885D01*
X19901817Y-579228D01*
X19901806Y-579222D01*
X19774328Y-526420D01*
X19638995Y-499500D01*
X19638993Y-499500D01*
X19501007Y-499500D01*
X19501004Y-499500D01*
X19365672Y-526420D01*
X19365670Y-526420D01*
X19238193Y-579222D01*
X19238182Y-579228D01*
X19123458Y-655885D01*
X19025885Y-753458D01*
X18949228Y-868182D01*
X18949222Y-868193D01*
X18896420Y-995670D01*
X18896420Y-995672D01*
X18869500Y-1131004D01*
X18869500Y-1868995D01*
X18896420Y-2004327D01*
X18896420Y-2004329D01*
X18949222Y-2131806D01*
X18949228Y-2131817D01*
X19025885Y-2246541D01*
X19025893Y-2246550D01*
X19105425Y-2326081D01*
X19123458Y-2344114D01*
X19125500Y-2345478D01*
X19126197Y-2346362D01*
X19127220Y-2347202D01*
X19127035Y-2347426D01*
X19163380Y-2393527D01*
X19169500Y-2427795D01*
X19169500Y-4322205D01*
X19150593Y-4380396D01*
X19125504Y-4404518D01*
X19124323Y-4405307D01*
X19123456Y-4405887D01*
X19025893Y-4503449D01*
X19025885Y-4503458D01*
X18949228Y-4618182D01*
X18949222Y-4618193D01*
X18896420Y-4745670D01*
X18896420Y-4745672D01*
X18881672Y-4819814D01*
X18851775Y-4873198D01*
X18796210Y-4898814D01*
X18784574Y-4899500D01*
X11715426Y-4899500D01*
X11657235Y-4880593D01*
X11621271Y-4831093D01*
X11618328Y-4819814D01*
X11612313Y-4789575D01*
X11603580Y-4745672D01*
X11585978Y-4703177D01*
X11550777Y-4618193D01*
X11550771Y-4618182D01*
X11474114Y-4503458D01*
X11376541Y-4405885D01*
X11261817Y-4329228D01*
X11261806Y-4329222D01*
X11134328Y-4276420D01*
X10998995Y-4249500D01*
X10998993Y-4249500D01*
X10861007Y-4249500D01*
X10861004Y-4249500D01*
X10725672Y-4276420D01*
X10725670Y-4276420D01*
X10598193Y-4329222D01*
X10598182Y-4329228D01*
X10483458Y-4405885D01*
X10385885Y-4503458D01*
X10309228Y-4618182D01*
X10309222Y-4618193D01*
X10256420Y-4745670D01*
X10256420Y-4745672D01*
X10229500Y-4881004D01*
X10229500Y-5718995D01*
X10256420Y-5854327D01*
X10256420Y-5854329D01*
X10309222Y-5981806D01*
X10309228Y-5981817D01*
X10385885Y-6096541D01*
X10483458Y-6194114D01*
X10598182Y-6270771D01*
X10598193Y-6270777D01*
X10619294Y-6279517D01*
X10725672Y-6323580D01*
X10861007Y-6350500D01*
X10861008Y-6350500D01*
X10998992Y-6350500D01*
X10998993Y-6350500D01*
X11134328Y-6323580D01*
X11261811Y-6270775D01*
X11376542Y-6194114D01*
X11474114Y-6096542D01*
X11550775Y-5981811D01*
X11603580Y-5854328D01*
X11618328Y-5780186D01*
X11648225Y-5726802D01*
X11703790Y-5701186D01*
X11715426Y-5700500D01*
X18784574Y-5700500D01*
X18842765Y-5719407D01*
X18878729Y-5768907D01*
X18881672Y-5780186D01*
X18896420Y-5854327D01*
X18896420Y-5854329D01*
X18949222Y-5981806D01*
X18949228Y-5981817D01*
X19025885Y-6096541D01*
X19123458Y-6194114D01*
X19238182Y-6270771D01*
X19238193Y-6270777D01*
X19259294Y-6279517D01*
X19365672Y-6323580D01*
X19501007Y-6350500D01*
X19501008Y-6350500D01*
X19638992Y-6350500D01*
X19638993Y-6350500D01*
X19774328Y-6323580D01*
X19901811Y-6270775D01*
X20016542Y-6194114D01*
X20114114Y-6096542D01*
X20190775Y-5981811D01*
X20243580Y-5854328D01*
X20270500Y-5718993D01*
X20270500Y-4881007D01*
X20243580Y-4745672D01*
X20225978Y-4703177D01*
X20190777Y-4618193D01*
X20190771Y-4618182D01*
X20114114Y-4503458D01*
X20114106Y-4503449D01*
X20016543Y-4405887D01*
X20016542Y-4405886D01*
X20014496Y-4404519D01*
X20013798Y-4403634D01*
X20012781Y-4402799D01*
X20012964Y-4402575D01*
X19976619Y-4356469D01*
X19970500Y-4322205D01*
X19970500Y-2427795D01*
X19989407Y-2369604D01*
X20014498Y-2345479D01*
X20016542Y-2344114D01*
X20114114Y-2246542D01*
X20190775Y-2131811D01*
X20243580Y-2004328D01*
X20263301Y-1905186D01*
X20293198Y-1851802D01*
X20348763Y-1826186D01*
X20360399Y-1825500D01*
X22707507Y-1825500D01*
X22765698Y-1844407D01*
X22801662Y-1893907D01*
X22801662Y-1955093D01*
X22797560Y-1965627D01*
X22789834Y-1982543D01*
X22769353Y-2124997D01*
X22769353Y-2125002D01*
X22789834Y-2267456D01*
X22831950Y-2359675D01*
X22849623Y-2398373D01*
X22940268Y-2502984D01*
X22948509Y-2512494D01*
X22946471Y-2514259D01*
X22971925Y-2556458D01*
X22974500Y-2578893D01*
X22974500Y-3214562D01*
X22994979Y-3290989D01*
X23006087Y-3310228D01*
X23034540Y-3359511D01*
X24580026Y-4904997D01*
X24607802Y-4959512D01*
X24598231Y-5019944D01*
X24580025Y-5045003D01*
X22729525Y-6895504D01*
X22675008Y-6923281D01*
X22659521Y-6924500D01*
X12442949Y-6924500D01*
X12384758Y-6905593D01*
X12352896Y-6866628D01*
X12300377Y-6751627D01*
X12206128Y-6642857D01*
X12206127Y-6642856D01*
X12206126Y-6642855D01*
X12085057Y-6565049D01*
X12085054Y-6565047D01*
X12085053Y-6565047D01*
X12085050Y-6565046D01*
X11946964Y-6524500D01*
X11946961Y-6524500D01*
X11803039Y-6524500D01*
X11803035Y-6524500D01*
X11664949Y-6565046D01*
X11664942Y-6565049D01*
X11543873Y-6642855D01*
X11449622Y-6751628D01*
X11389834Y-6882543D01*
X11369353Y-7024997D01*
X11369353Y-7025002D01*
X11389834Y-7167456D01*
X11397560Y-7184373D01*
X11404535Y-7245160D01*
X11374449Y-7298437D01*
X11318793Y-7323855D01*
X11307507Y-7324500D01*
X11166951Y-7324500D01*
X11108760Y-7305593D01*
X11096947Y-7295504D01*
X10366489Y-6565046D01*
X9630963Y-5829520D01*
X9630960Y-5829518D01*
X9630959Y-5829517D01*
X9630958Y-5829516D01*
X9539637Y-5776791D01*
X9536613Y-5775539D01*
X9534830Y-5774016D01*
X9534019Y-5773548D01*
X9534105Y-5773397D01*
X9490088Y-5735802D01*
X9475500Y-5684076D01*
X9475500Y-5630253D01*
X9475498Y-5630241D01*
X9465603Y-5580497D01*
X9463867Y-5571769D01*
X9419552Y-5505448D01*
X9419548Y-5505445D01*
X9353233Y-5461134D01*
X9353231Y-5461133D01*
X9353228Y-5461132D01*
X9353227Y-5461132D01*
X9294758Y-5449501D01*
X9294748Y-5449500D01*
X6755252Y-5449500D01*
X6755251Y-5449500D01*
X6755241Y-5449501D01*
X6696772Y-5461132D01*
X6696766Y-5461134D01*
X6630451Y-5505445D01*
X6630445Y-5505451D01*
X6586134Y-5571766D01*
X6586132Y-5571772D01*
X6574501Y-5630241D01*
X6574500Y-5630253D01*
X-899500Y-5630253D01*
X-899500Y-5199500D01*
X-880593Y-5141309D01*
X-831093Y-5105345D01*
X-800500Y-5100500D01*
X19992Y-5100500D01*
X43283Y-5090852D01*
X56929Y-5085200D01*
X85200Y-5056929D01*
X100500Y-5019991D01*
X100500Y-2502984D01*
X100681Y-2497007D01*
X104572Y-2432681D01*
X117633Y-2216741D01*
X119072Y-2204890D01*
X169146Y-1931646D01*
X172004Y-1920052D01*
X254650Y-1654832D01*
X258880Y-1643679D01*
X372895Y-1390346D01*
X378444Y-1379775D01*
X522159Y-1142040D01*
X528930Y-1132230D01*
X529891Y-1131004D01*
X10229500Y-1131004D01*
X10229500Y-1868995D01*
X10256420Y-2004327D01*
X10256420Y-2004329D01*
X10309222Y-2131806D01*
X10309228Y-2131817D01*
X10385885Y-2246541D01*
X10483458Y-2344114D01*
X10598182Y-2420771D01*
X10598193Y-2420777D01*
X10627263Y-2432818D01*
X10725672Y-2473580D01*
X10861007Y-2500500D01*
X10861008Y-2500500D01*
X10998992Y-2500500D01*
X10998993Y-2500500D01*
X11134328Y-2473580D01*
X11261811Y-2420775D01*
X11376542Y-2344114D01*
X11474114Y-2246542D01*
X11550775Y-2131811D01*
X11603580Y-2004328D01*
X11630500Y-1868993D01*
X11630500Y-1131007D01*
X11603580Y-995672D01*
X11550775Y-868189D01*
X11550774Y-868187D01*
X11550771Y-868182D01*
X11474114Y-753458D01*
X11376541Y-655885D01*
X11261817Y-579228D01*
X11261806Y-579222D01*
X11134328Y-526420D01*
X10998995Y-499500D01*
X10998993Y-499500D01*
X10861007Y-499500D01*
X10861004Y-499500D01*
X10725672Y-526420D01*
X10725670Y-526420D01*
X10598193Y-579222D01*
X10598182Y-579228D01*
X10483458Y-655885D01*
X10385885Y-753458D01*
X10309228Y-868182D01*
X10309222Y-868193D01*
X10256420Y-995670D01*
X10256420Y-995672D01*
X10229500Y-1131004D01*
X529891Y-1131004D01*
X700257Y-913547D01*
X708169Y-904615D01*
X904615Y-708169D01*
X913547Y-700257D01*
X1132230Y-528930D01*
X1142040Y-522159D01*
X1379775Y-378444D01*
X1390346Y-372895D01*
X1643679Y-258880D01*
X1654832Y-254650D01*
X1920052Y-172004D01*
X1931646Y-169146D01*
X2204890Y-119072D01*
X2216741Y-117633D01*
X2497008Y-100681D01*
X2502985Y-100500D01*
X2526929Y-100500D01*
X29800500Y-100500D01*
X29858691Y-119407D01*
G37*
%TD.AperFunction*%
%TA.AperFunction,Conductor*%
G36*
X8059191Y-22944407D02*
G01*
X8095155Y-22993907D01*
X8100000Y-23024500D01*
X8100000Y-23319670D01*
X8080255Y-23299925D01*
X7994745Y-23250556D01*
X7899370Y-23225000D01*
X7800630Y-23225000D01*
X7705255Y-23250556D01*
X7619745Y-23299925D01*
X7600000Y-23319670D01*
X7600000Y-23024500D01*
X7618907Y-22966309D01*
X7668407Y-22930345D01*
X7699000Y-22925500D01*
X8001000Y-22925500D01*
X8059191Y-22944407D01*
G37*
%TD.AperFunction*%
%TD*%
D23*
X34200000Y-17400000D03*
X39000000Y-17100000D03*
X40650000Y-16500000D03*
X29250000Y-19400000D03*
X53150000Y-12200000D03*
X5625000Y-6275000D03*
X51300000Y-8600000D03*
X1450000Y-2075000D03*
X31950000Y-21650000D03*
X51100000Y-16100000D03*
X9800000Y-3425000D03*
X38950000Y-16000000D03*
X40450000Y-14800000D03*
X40250000Y-22800000D03*
X34100000Y-21250000D03*
X24025000Y-11625000D03*
X43900000Y-3950000D03*
X250000Y-18875000D03*
X10925000Y-6700000D03*
X21350000Y-14750000D03*
X43400000Y-24300000D03*
X30600000Y-19400000D03*
X5700000Y-20825000D03*
X13550000Y-17200000D03*
X8950000Y-7300000D03*
X13200000Y-19750000D03*
X9800000Y-4525000D03*
X51350000Y-20900000D03*
X11800000Y-2800000D03*
X27600000Y-5650000D03*
X14025000Y-22725000D03*
X29250000Y-18300000D03*
X6875000Y-4675000D03*
X22100000Y-19450000D03*
X33150000Y-16600000D03*
X15200000Y-650000D03*
X11400000Y-8425000D03*
X23600000Y-15300000D03*
X39500000Y-19200000D03*
X44450000Y-19250000D03*
X18800000Y-14150000D03*
X39200000Y-13800000D03*
X31100000Y-17350000D03*
X35000000Y-22050000D03*
X40000000Y-17950000D03*
X31900000Y-19450000D03*
X32000000Y-20650000D03*
X20850000Y-21850000D03*
X43650000Y-16400000D03*
X22950000Y-16700000D03*
X48700000Y-4650000D03*
X24800000Y-2450000D03*
X34400000Y-16300000D03*
X8025000Y-8690000D03*
X6850000Y-3500000D03*
X15275000Y-16025000D03*
X48475000Y-21790000D03*
X37300000Y-15950000D03*
X21825000Y-3650000D03*
X24420200Y-23665000D03*
X21725000Y-5575000D03*
X21350000Y-16450000D03*
X36000000Y-22700000D03*
X22500000Y-15550000D03*
X11925000Y-19825000D03*
X27757500Y-20342500D03*
X35850000Y-21200000D03*
X29300000Y-17300000D03*
X34050000Y-22700000D03*
X18450000Y-2950000D03*
X48850000Y-17700000D03*
X45625000Y-1175000D03*
X-50000Y-11275000D03*
X37650000Y-4850000D03*
X4300000Y-12800000D03*
X29650000Y-20750000D03*
X41400000Y-18150000D03*
X31900000Y-18400000D03*
X4800000Y-18425000D03*
X30550000Y-18400000D03*
X3975000Y-8775000D03*
X45750000Y-7325000D03*
X36150000Y-17250000D03*
X30050000Y-4700000D03*
X2225000Y-8450000D03*
X16800000Y-21750000D03*
X8025000Y-6150000D03*
X49350000Y-6200000D03*
X9300000Y-17800000D03*
X46050000Y-18800000D03*
X47575000Y-16310000D03*
X9467500Y-15617500D03*
X9473200Y-12948500D03*
X50250000Y-13250000D03*
X11528200Y-9228200D03*
X50800000Y-11150000D03*
X8025000Y-11230000D03*
X40405025Y-12644975D03*
X15875000Y-14925000D03*
X20224265Y-13250000D03*
X4350000Y-14250000D03*
X42750000Y-21850000D03*
X25200000Y-16850000D03*
X28350000Y-6600000D03*
X25300000Y-20125000D03*
X39400000Y-6600000D03*
X8300000Y-19925000D03*
X15775000Y-13625000D03*
X26100000Y-5050000D03*
X11875000Y-7025000D03*
X23275000Y-2125000D03*
X12408000Y-15403400D03*
X22650000Y-12625000D03*
X19025000Y-13025000D03*
X40300000Y-20400000D03*
X23715000Y-20050000D03*
X24736900Y-21750000D03*
X23200000Y-14350000D03*
X32850000Y-17850000D03*
D24*
X47750000Y-2400000D03*
X39450000Y-2400000D03*
D25*
X45600000Y-2400000D03*
X43600000Y-2400000D03*
X41600000Y-2400000D03*
D26*
X30300000Y-14250000D03*
X28300000Y-14250000D03*
D27*
X10930000Y-1500000D03*
X10930000Y-5300000D03*
X19570000Y-1500000D03*
X19570000Y-5300000D03*
D26*
X5850000Y-23600000D03*
X7850000Y-23600000D03*
X9850000Y-23600000D03*
X11850000Y-23600000D03*
X51500000Y-2550000D03*
X37300000Y-14250000D03*
X35300000Y-14250000D03*
X2500000Y-22500000D03*
M02*
