%TF.GenerationSoftware,KiCad,Pcbnew,8.0.8*%
%TF.CreationDate,2025-06-11T20:36:41+01:00*%
%TF.ProjectId,IMU,494d552e-6b69-4636-9164-5f7063625858,rev?*%
%TF.SameCoordinates,Original*%
%TF.FileFunction,Paste,Top*%
%TF.FilePolarity,Positive*%
%FSLAX46Y46*%
G04 Gerber Fmt 4.6, Leading zero omitted, Abs format (unit mm)*
G04 Created by KiCad (PCBNEW 8.0.8) date 2025-06-11 20:36:41*
%MOMM*%
%LPD*%
G01*
G04 APERTURE LIST*
G04 Aperture macros list*
%AMRoundRect*
0 Rectangle with rounded corners*
0 $1 Rounding radius*
0 $2 $3 $4 $5 $6 $7 $8 $9 X,Y pos of 4 corners*
0 Add a 4 corners polygon primitive as box body*
4,1,4,$2,$3,$4,$5,$6,$7,$8,$9,$2,$3,0*
0 Add four circle primitives for the rounded corners*
1,1,$1+$1,$2,$3*
1,1,$1+$1,$4,$5*
1,1,$1+$1,$6,$7*
1,1,$1+$1,$8,$9*
0 Add four rect primitives between the rounded corners*
20,1,$1+$1,$2,$3,$4,$5,0*
20,1,$1+$1,$4,$5,$6,$7,0*
20,1,$1+$1,$6,$7,$8,$9,0*
20,1,$1+$1,$8,$9,$2,$3,0*%
G04 Aperture macros list end*
%ADD10RoundRect,0.147500X-0.172500X0.147500X-0.172500X-0.147500X0.172500X-0.147500X0.172500X0.147500X0*%
%ADD11R,2.000000X1.600000*%
%ADD12R,1.250000X0.300000*%
%ADD13RoundRect,0.147500X-0.147500X-0.172500X0.147500X-0.172500X0.147500X0.172500X-0.147500X0.172500X0*%
%ADD14RoundRect,0.147500X0.172500X-0.147500X0.172500X0.147500X-0.172500X0.147500X-0.172500X-0.147500X0*%
%ADD15RoundRect,0.147500X0.147500X0.172500X-0.147500X0.172500X-0.147500X-0.172500X0.147500X-0.172500X0*%
%ADD16R,1.800000X1.000000*%
%ADD17R,1.060000X0.650000*%
%ADD18R,0.500000X0.300000*%
%ADD19R,0.300000X0.500000*%
%ADD20RoundRect,0.100000X0.637500X0.100000X-0.637500X0.100000X-0.637500X-0.100000X0.637500X-0.100000X0*%
G04 APERTURE END LIST*
D10*
%TO.C,C9*%
X17100000Y-21980000D03*
X17100000Y-22950000D03*
%TD*%
D11*
%TO.C,J1*%
X3000000Y-18100000D03*
X3000000Y-6900000D03*
D12*
X5655000Y-8750000D03*
X5655000Y-9250000D03*
X5655000Y-9750000D03*
X5655000Y-10250000D03*
X5655000Y-10750000D03*
X5655000Y-11250000D03*
X5655000Y-11750000D03*
X5655000Y-12250000D03*
X5655000Y-12750000D03*
X5655000Y-13250000D03*
X5655000Y-13750000D03*
X5655000Y-14250000D03*
X5655000Y-14750000D03*
X5655000Y-15250000D03*
X5655000Y-15750000D03*
X5655000Y-16250000D03*
%TD*%
D11*
%TO.C,J3*%
X22000000Y-6900000D03*
X22000000Y-18100000D03*
D12*
X19345000Y-16250000D03*
X19345000Y-15750000D03*
X19345000Y-15250000D03*
X19345000Y-14750000D03*
X19345000Y-14250000D03*
X19345000Y-13750000D03*
X19345000Y-13250000D03*
X19345000Y-12750000D03*
X19345000Y-12250000D03*
X19345000Y-11750000D03*
X19345000Y-11250000D03*
X19345000Y-10750000D03*
X19345000Y-10250000D03*
X19345000Y-9750000D03*
X19345000Y-9250000D03*
X19345000Y-8750000D03*
%TD*%
D13*
%TO.C,R6*%
X13765000Y-9000000D03*
X14735000Y-9000000D03*
%TD*%
D14*
%TO.C,C4*%
X9400000Y-4235000D03*
X9400000Y-3265000D03*
%TD*%
D15*
%TO.C,R5*%
X13850000Y-10150000D03*
X12880000Y-10150000D03*
%TD*%
%TO.C,R7*%
X12120000Y-1300000D03*
X11150000Y-1300000D03*
%TD*%
D16*
%TO.C,Y2*%
X17000000Y-3200000D03*
X17000000Y-5700000D03*
%TD*%
D10*
%TO.C,C8*%
X22100000Y-21115000D03*
X22100000Y-22085000D03*
%TD*%
D17*
%TO.C,U2*%
X20700000Y-22950000D03*
X20700000Y-22000000D03*
X20700000Y-21050000D03*
X18500000Y-21050000D03*
X18500000Y-22950000D03*
%TD*%
D14*
%TO.C,R2*%
X7521526Y-16335000D03*
X7521526Y-15365000D03*
%TD*%
D18*
%TO.C,U4*%
X14067900Y-2748400D03*
D19*
X13255400Y-2735900D03*
X12755400Y-2735900D03*
X12255400Y-2735900D03*
X11755400Y-2735900D03*
D18*
X10942900Y-2748400D03*
X10942900Y-3248400D03*
X10942900Y-3748400D03*
X10942900Y-4248400D03*
X10942900Y-4748400D03*
X10942900Y-5248400D03*
X10942900Y-5748400D03*
X10942900Y-6248400D03*
X10942900Y-6748400D03*
X10942900Y-7248400D03*
D19*
X11755400Y-7260900D03*
X12255400Y-7260900D03*
X12755400Y-7260900D03*
X13255400Y-7260900D03*
D18*
X14067900Y-7248400D03*
X14067900Y-6748400D03*
X14067900Y-6248400D03*
X14067900Y-5748400D03*
X14067900Y-5248400D03*
X14067900Y-4748400D03*
X14067900Y-4248400D03*
X14067900Y-3748400D03*
X14067900Y-3248400D03*
%TD*%
D20*
%TO.C,U3*%
X15628474Y-20550000D03*
X15628474Y-19900000D03*
X15628474Y-19250000D03*
X15628474Y-18600000D03*
X15628474Y-17950000D03*
X15628474Y-17300000D03*
X15628474Y-16650000D03*
X15628474Y-16000000D03*
X15628474Y-15350000D03*
X15628474Y-14700000D03*
X9903474Y-14700000D03*
X9903474Y-15350000D03*
X9903474Y-16000000D03*
X9903474Y-16650000D03*
X9903474Y-17300000D03*
X9903474Y-17950000D03*
X9903474Y-18600000D03*
X9903474Y-19250000D03*
X9903474Y-19900000D03*
X9903474Y-20550000D03*
%TD*%
D14*
%TO.C,R3*%
X7521526Y-12325000D03*
X7521526Y-11355000D03*
%TD*%
%TO.C,C2*%
X17478474Y-19270000D03*
X17478474Y-18300000D03*
%TD*%
%TO.C,R4*%
X7546526Y-14335000D03*
X7546526Y-13365000D03*
%TD*%
%TO.C,R1*%
X17346526Y-12310000D03*
X17346526Y-11340000D03*
%TD*%
%TO.C,C7*%
X15400000Y-1885000D03*
X15400000Y-915000D03*
%TD*%
D13*
%TO.C,C6*%
X16465000Y-7050000D03*
X17435000Y-7050000D03*
%TD*%
D10*
%TO.C,C1*%
X17478474Y-16290000D03*
X17478474Y-17260000D03*
%TD*%
D13*
%TO.C,C3*%
X13165000Y-1300000D03*
X14135000Y-1300000D03*
%TD*%
%TO.C,C5*%
X16480000Y-1850000D03*
X17450000Y-1850000D03*
%TD*%
M02*
