%TF.GenerationSoftware,KiCad,Pcbnew,8.0.7*%
%TF.CreationDate,2025-01-15T18:24:23+00:00*%
%TF.ProjectId,Joystick,4a6f7973-7469-4636-9b2e-6b696361645f,rev?*%
%TF.SameCoordinates,Original*%
%TF.FileFunction,Profile,NP*%
%FSLAX46Y46*%
G04 Gerber Fmt 4.6, Leading zero omitted, Abs format (unit mm)*
G04 Created by KiCad (PCBNEW 8.0.7) date 2025-01-15 18:24:23*
%MOMM*%
%LPD*%
G01*
G04 APERTURE LIST*
%TA.AperFunction,Profile*%
%ADD10C,0.050000*%
%TD*%
%ADD11C,0.350000*%
G04 APERTURE END LIST*
D10*
X0Y-2500000D02*
X0Y-5000000D01*
X55000000Y-20000000D02*
X54000000Y-20000000D01*
X-1000000Y-20000000D02*
X0Y-20000000D01*
X-1000000Y-5000000D02*
X-1000000Y-20000000D01*
X0Y-2500000D02*
G75*
G02*
X2500000Y0I2500000J0D01*
G01*
X54000000Y-2500000D02*
X54000000Y-5000000D01*
X54000000Y-5000000D02*
X55000000Y-5000000D01*
X2500000Y0D02*
X51500000Y0D01*
X54000000Y-20000000D02*
X54000000Y-22500000D01*
X51500000Y0D02*
G75*
G02*
X54000000Y-2500000I0J-2500000D01*
G01*
X54000000Y-22500000D02*
G75*
G02*
X51500000Y-25000000I-2500000J0D01*
G01*
X51500000Y-25000000D02*
X2500000Y-25000000D01*
X55000000Y-5000000D02*
X55000000Y-20000000D01*
X0Y-5000000D02*
X-1000000Y-5000000D01*
X2500000Y-25000000D02*
G75*
G02*
X0Y-22500000I0J2500000D01*
G01*
X0Y-20000000D02*
X0Y-22500000D01*
D11*
X22000000Y-18825000D03*
X32000000Y-18825000D03*
X27000000Y-16800000D03*
X27000000Y-8200000D03*
X22000000Y-6175000D03*
X32000000Y-6075000D03*
X24500000Y-3770000D03*
X27000000Y-3770000D03*
X29500000Y-3770000D03*
X18270000Y-10000000D03*
X18270000Y-12500000D03*
X18270000Y-15000000D03*
X32750000Y-15750000D03*
X37250000Y-15750000D03*
X32750000Y-9250000D03*
X37250000Y-9250000D03*
X2500000Y-2500000D03*
X5850000Y-23600000D03*
X7850000Y-23600000D03*
X9850000Y-23600000D03*
X11850000Y-23600000D03*
X51500000Y-22500000D03*
X51500000Y-2550000D03*
X2500000Y-22500000D03*
M02*
