M48
; DRILL file {KiCad 8.0.7} date 2025-01-15T18:24:23+0000
; FORMAT={-:-/ absolute / inch / decimal}
; #@! TF.CreationDate,2025-01-15T18:24:23+00:00
; #@! TF.GenerationSoftware,Kicad,Pcbnew,8.0.7
; #@! TF.FileFunction,Plated,1,2,PTH
FMAT,2
INCH
; #@! TA.AperFunction,Plated,PTH,ViaDrill
T1C0.0118
; #@! TA.AperFunction,Plated,PTH,ComponentDrill
T2C0.0295
; #@! TA.AperFunction,Plated,PTH,ComponentDrill
T3C0.0394
; #@! TA.AperFunction,Plated,PTH,ComponentDrill
T4C0.0472
; #@! TA.AperFunction,Plated,PTH,ComponentDrill
T5C0.0591
%
G90
G05
T1
X0.0697Y-0.637
X0.0921Y-0.3764
X0.1133Y-0.5918
X0.1149Y-0.4204
X0.1516Y-0.5315
X0.1533Y-0.5984
X0.1535Y-0.4459
X0.2315Y-0.1386
X0.2362Y-0.685
X0.2846Y-0.1976
X0.2879Y-0.6959
X0.2958Y-0.4404
X0.3159Y-0.5421
X0.3258Y-0.4882
X0.3937Y-0.2421
X0.3957Y-0.0276
X0.3976Y-0.815
X0.4Y-0.5717
X0.4063Y-0.2949
X0.4524Y-0.1638
X0.4657Y-0.7146
X0.5591Y-0.2091
X0.5677Y-0.7134
X0.6073Y-0.627
X0.6228Y-0.1425
X0.6339Y-0.4197
X0.6665Y-0.7571
X0.6992Y-0.2933
X0.7453Y-0.9441
X0.8102Y-0.1591
X0.822Y-0.4772
X0.848Y-0.4075
X0.9157Y-0.4949
X0.9417Y-0.2157
X1.0012Y-0.0256
X1.024Y-0.3894
X1.0398Y-0.2335
X1.061Y-0.7571
X1.1276Y-0.9406
X1.1508Y-0.4161
X1.2547Y-0.4232
X1.3756Y-0.6646
X1.3843Y-0.3764
X1.5008Y-0.5075
X1.5323Y-0.9441
X1.5756Y-0.7453
X1.6185Y-0.2437
X1.6642Y-0.8575
X1.7252Y-0.0909
X1.7268Y-0.5992
X1.7295Y-0.5008
X1.7874Y-0.2884
X1.8075Y-0.3953
X1.8091Y-0.5858
X1.8988Y-0.8413
X1.9063Y-0.687
X1.9663Y-0.4819
X1.9868Y-0.3858
X1.9876Y-0.4331
X2.0043Y-0.5108
X2.0314Y-0.3802
X2.0592Y-0.5992
X2.0854Y-0.4925
T2
X0.2303Y-0.9291
X0.3091Y-0.9291
X0.3878Y-0.9291
X0.4665Y-0.9291
T3
X0.7193Y-0.3937
X0.7193Y-0.4921
X0.7193Y-0.5906
X0.9646Y-0.1484
X1.063Y-0.1484
X1.1614Y-0.1484
T4
X1.2894Y-0.3642
X1.2894Y-0.6201
X1.4665Y-0.3642
X1.4665Y-0.6201
T5
X0.8661Y-0.2431
X0.8661Y-0.7411
X1.2598Y-0.2392
X1.2598Y-0.7411
M30
