M48
; DRILL file {KiCad 8.0.7} date 2025-01-15T23:29:00+0000
; FORMAT={-:-/ absolute / inch / decimal}
; #@! TF.CreationDate,2025-01-15T23:29:00+00:00
; #@! TF.GenerationSoftware,Kicad,Pcbnew,8.0.7
; #@! TF.FileFunction,NonPlated,1,4,NPTH
FMAT,2
INCH
; #@! TA.AperFunction,NonPlated,NPTH,ComponentDrill
T1C0.0256
; #@! TA.AperFunction,NonPlated,NPTH,ComponentDrill
T2C0.0630
; #@! TA.AperFunction,NonPlated,NPTH,ComponentDrill
T3C0.1063
%
G90
G05
T1
X0.2522Y-0.185
X0.4797Y-0.185
X1.6104Y-3.374
X1.838Y-3.374
T2
X3.7795Y-0.3228
X3.7795Y-0.6614
T3
X0.0984Y-0.8858
X0.0984Y-1.9488
X0.0984Y-3.0118
X0.0984Y-4.0748
X0.8858Y-0.1004
X0.8858Y-1.1634
X0.8858Y-2.2264
X0.8858Y-3.2894
X1.4567Y-0.8858
X1.4567Y-1.9488
X1.4567Y-3.0118
X1.4567Y-4.0748
X2.2441Y-0.0984
X2.2441Y-1.1634
X2.2441Y-2.2264
X2.2441Y-3.2894
X2.815Y-0.0984
X2.815Y-0.8858
X2.815Y-1.1614
X2.815Y-1.9488
X2.815Y-2.2244
X2.815Y-3.0118
X4.7441Y-0.1004
X4.7441Y-0.8858
X4.7441Y-1.1634
X4.7441Y-1.9488
X4.7441Y-2.2264
X4.7441Y-3.0118
M30
