M48
; DRILL file {KiCad 8.0.7} date 2025-01-15T23:29:00+0000
; FORMAT={-:-/ absolute / inch / decimal}
; #@! TF.CreationDate,2025-01-15T23:29:00+00:00
; #@! TF.GenerationSoftware,Kicad,Pcbnew,8.0.7
; #@! TF.FileFunction,Plated,1,4,PTH
FMAT,2
INCH
; #@! TA.AperFunction,Plated,PTH,ViaDrill
T1C0.0118
; #@! TA.AperFunction,Plated,PTH,ComponentDrill
T2C0.0118
; #@! TA.AperFunction,Plated,PTH,ComponentDrill
T3C0.0236
; #@! TA.AperFunction,Plated,PTH,ComponentDrill
T4C0.0295
; #@! TA.AperFunction,Plated,PTH,ComponentDrill
T5C0.0394
; #@! TA.AperFunction,Plated,PTH,ComponentDrill
T6C0.0433
; #@! TA.AperFunction,Plated,PTH,ComponentDrill
T7C0.0472
; #@! TA.AperFunction,Plated,PTH,ComponentDrill
T8C0.0591
; #@! TA.AperFunction,Plated,PTH,ComponentDrill
T9C0.0807
%
G90
G05
T1
X0.0049Y-0.6939
X0.0148Y-1.6024
X0.0502Y-1.4931
X0.0571Y-1.1929
X0.0662Y-0.6318
X0.0679Y-0.1181
X0.0805Y-0.5427
X0.088Y-0.5118
X0.1063Y-0.3799
X0.11Y-0.4893
X0.1102Y-2.6417
X0.1102Y-3.7047
X0.1142Y-0.6142
X0.1152Y-1.4626
X0.1292Y-1.5362
X0.13Y-1.6604
X0.1309Y-2.4961
X0.1309Y-3.5591
X0.1339Y-2.7549
X0.1339Y-3.8179
X0.1349Y-1.5916
X0.1535Y-1.4862
X0.1648Y-1.6284
X0.1654Y-1.8327
X0.1654Y-3.9764
X0.1673Y-2.688
X0.1673Y-3.751
X0.1781Y-0.7923
X0.1821Y-0.3228
X0.1909Y-2.4291
X0.1909Y-3.4921
X0.2146Y-1.3474
X0.2165Y-1.1161
X0.2224Y-1.3839
X0.2257Y-2.8036
X0.2257Y-3.8666
X0.2313Y-1.811
X0.2333Y-0.7156
X0.2333Y-0.4459
X0.2421Y-2.8671
X0.2421Y-3.9301
X0.2461Y-0.6663
X0.249Y-1.3061
X0.252Y-1.8514
X0.2638Y-0.7943
X0.2756Y-3.9813
X0.2825Y-0.3583
X0.2864Y-1.439
X0.2874Y-1.5445
X0.2884Y-1.3504
X0.2923Y-2.7215
X0.2923Y-3.7844
X0.3061Y-3.3425
X0.3086Y-0.1757
X0.311Y-2.4045
X0.311Y-3.4675
X0.315Y-2.5266
X0.315Y-3.5896
X0.3169Y-3.2392
X0.3179Y-1.8494
X0.3376Y-1.1644
X0.3617Y-1.3518
X0.3691Y-0.1368
X0.3711Y-3.6752
X0.3839Y-2.6681
X0.3839Y-3.7311
X0.3848Y-0.3622
X0.3848Y-1.1096
X0.3868Y-1.9272
X0.3878Y-1.5679
X0.3917Y-1.2549
X0.3937Y-2.4681
X0.3937Y-3.5311
X0.3957Y-1.6555
X0.3996Y-1.7461
X0.4144Y-3.3681
X0.4222Y-0.4657
X0.4262Y-2.6093
X0.4262Y-3.6722
X0.4447Y-0.1878
X0.4488Y-0.7963
X0.4537Y-2.5917
X0.4577Y-2.5157
X0.4577Y-3.5787
X0.4596Y-2.7136
X0.4596Y-3.7766
X0.4626Y-2.814
X0.4626Y-3.877
X0.4675Y-2.1762
X0.4675Y-2.2096
X0.4675Y-2.2431
X0.4695Y-1.5815
X0.4724Y-1.6516
X0.4734Y-0.6663
X0.4764Y-1.7441
X0.4764Y-3.2254
X0.4774Y-3.3445
X0.48Y-0.293
X0.4852Y-0.497
X0.4852Y-2.9114
X0.4852Y-3.9744
X0.501Y-2.1762
X0.501Y-2.2096
X0.501Y-2.2431
X0.5039Y-0.6191
X0.5098Y-0.6663
X0.5202Y-2.5007
X0.5295Y-3.3563
X0.5305Y-2.5917
X0.5443Y-0.1368
X0.5463Y-1.4203
X0.5482Y-1.9222
X0.5659Y-0.8514
X0.5669Y-3.4852
X0.5685Y-0.3032
X0.5699Y-2.5276
X0.5709Y-0.6663
X0.5763Y-1.3784
X0.5837Y-3.0039
X0.5837Y-4.0669
X0.5886Y-0.2126
X0.5965Y-0.499
X0.6004Y-0.9429
X0.6063Y-0.6171
X0.6122Y-1.1673
X0.6122Y-2.6348
X0.6122Y-3.6978
X0.6171Y-0.7933
X0.6309Y-1.8415
X0.6317Y-1.3781
X0.632Y-0.4657
X0.6447Y-3.5581
X0.6516Y-0.3455
X0.6526Y-2.5681
X0.6526Y-3.6311
X0.6594Y-0.2496
X0.6654Y-1.253
X0.6663Y-3.4114
X0.6683Y-3.4774
X0.6693Y-1.438
X0.6801Y-0.0669
X0.6821Y-1.3484
X0.6821Y-2.5246
X0.6821Y-3.5876
X0.6841Y-3.2274
X0.687Y-1.6506
X0.688Y-1.9626
X0.6969Y-2.627
X0.6969Y-3.69
X0.7057Y-2.4055
X0.7057Y-3.4685
X0.7173Y-1.7051
X0.7304Y-1.4027
X0.7313Y-0.5421
X0.7343Y-1.3425
X0.7411Y-0.4961
X0.7411Y-0.6988
X0.7421Y-0.2904
X0.7431Y-0.1959
X0.75Y-0.9459
X0.7528Y-1.8051
X0.7539Y-2.9144
X0.7539Y-3.9774
X0.7559Y-2.8159
X0.7559Y-3.8789
X0.7717Y-2.4163
X0.7717Y-3.4793
X0.7904Y-1.7392
X0.7963Y-0.248
X0.8061Y-1.5384
X0.8114Y-1.5764
X0.815Y-1.4675
X0.815Y-2.6496
X0.815Y-3.7126
X0.8248Y-0.6614
X0.8268Y-2.4724
X0.8268Y-3.5354
X0.8307Y-2.685
X0.8307Y-3.748
X0.8323Y-1.6222
X0.8327Y-2.5974
X0.8327Y-3.6604
X0.8356Y-1.4961
X0.8376Y-1.9459
X0.8378Y-2.7598
X0.8406Y-0.7726
X0.844Y-0.5571
X0.8543Y-1.4085
X0.8583Y-1.8543
X0.8593Y-0.3888
X0.8642Y-2.5846
X0.8642Y-3.6476
X0.8868Y-0.4213
X0.8878Y-0.469
X0.9055Y-1.7008
X0.9116Y-0.4407
X0.9145Y-0.4857
X0.928Y-2.7744
X0.937Y-3.0472
X0.937Y-4.1102
X0.9518Y-0.9016
X0.9528Y-0.3494
X0.9852Y-0.5285
X0.9911Y-0.7195
X1.3622Y-0.5906
X1.3632Y-3.8829
X1.3652Y-0.4094
X1.3681Y-0.2776
X1.3819Y-0.1024
X1.3917Y-0.7569
X1.4161Y-1.2445
X1.4245Y-3.8208
X1.4262Y-3.3071
X1.4291Y-1.7047
X1.4331Y-1.5512
X1.438Y-2.1949
X1.4387Y-3.7316
X1.4463Y-3.7008
X1.4488Y-1.4035
X1.4646Y-3.5689
X1.4656Y-0.4085
X1.4683Y-3.6782
X1.4695Y-0.5689
X1.4705Y-2.7362
X1.4724Y-0.5217
X1.4724Y-3.8031
X1.4744Y-0.6555
X1.4759Y-0.465
X1.4803Y-1.252
X1.4882Y-2.501
X1.499Y-0.3307
X1.4991Y-0.1751
X1.4994Y-0.1067
X1.5012Y-0.6061
X1.5039Y-0.4262
X1.5098Y-0.5758
X1.5177Y-1.1654
X1.5251Y-2.6472
X1.5295Y-1.4331
X1.5305Y-2.686
X1.5325Y-0.749
X1.5335Y-2.249
X1.5353Y-2.5613
X1.5364Y-3.9813
X1.5404Y-3.5118
X1.563Y-1.2756
X1.5738Y-0.2893
X1.5738Y-2.4114
X1.5787Y-1.7343
X1.5896Y-0.0994
X1.5915Y-3.9045
X1.5916Y-3.6349
X1.6004Y-2.8022
X1.6043Y-0.7431
X1.6043Y-3.8553
X1.6063Y-2.3031
X1.6076Y-0.6627
X1.6102Y-1.2146
X1.6142Y-1.8642
X1.6211Y-0.2923
X1.622Y-0.0994
X1.622Y-1.2549
X1.622Y-3.9833
X1.626Y-1.6445
X1.627Y-0.4852
X1.6339Y-0.7943
X1.6398Y-1.4488
X1.6398Y-1.5531
X1.6486Y-0.2018
X1.6545Y-0.0984
X1.6575Y-0.3976
X1.6644Y-2.6339
X1.6668Y-3.3647
X1.6683Y-0.487
X1.6742Y-0.5421
X1.6742Y-1.5051
X1.6742Y-1.7051
X1.6742Y-2.7681
X1.6742Y-2.8681
X1.6781Y-2.4114
X1.685Y-0.0994
X1.686Y-0.1299
X1.7028Y-1.4587
X1.7087Y-2.6075
X1.7274Y-3.3258
X1.7303Y-1.5512
X1.7382Y-1.5984
X1.7425Y-1.7926
X1.7441Y-2.5681
X1.7461Y-2.4656
X1.753Y-0.5106
X1.7756Y-1.3346
X1.7785Y-0.0994
X1.7854Y-1.1063
X1.7904Y-0.5817
X1.8012Y-0.128
X1.8029Y-3.3767
X1.8071Y-3.9852
X1.8081Y-0.0994
X1.81Y-0.7717
X1.811Y-2.8346
X1.813Y-0.7126
X1.815Y-2.8986
X1.8169Y-1.748
X1.8199Y-0.3784
X1.8209Y-1.4567
X1.8307Y-1.5551
X1.8317Y-2.7205
X1.8376Y-0.0994
X1.8383Y-3.482
X1.8406Y-1.3701
X1.8435Y-3.686
X1.8524Y-2.6339
X1.8543Y-0.7185
X1.8563Y-1.6772
X1.8622Y-3.8081
X1.8711Y-0.1004
X1.8858Y-0.1565
X1.8898Y-1.1181
X1.8976Y-1.2677
X1.8996Y-0.3012
X1.9016Y-0.5696
X1.9016Y-1.3445
X1.9026Y-0.1004
X1.9103Y-0.5999
X1.9144Y-2.7205
X1.9154Y-0.7185
X1.9154Y-2.8376
X1.9154Y-2.8976
X1.9183Y-0.4439
X1.9193Y-0.936
X1.9291Y-3.8553
X1.9331Y-0.1004
X1.939Y-1.4528
X1.939Y-1.6437
X1.9449Y-0.19
X1.9467Y-0.367
X1.9508Y-1.812
X1.9547Y-3.688
X1.9636Y-0.1014
X1.9646Y-3.8061
X1.9658Y-0.55
X1.9705Y-1.6051
X1.9902Y-3.0305
X1.9941Y-0.1014
X1.9961Y-2.0118
X1.9961Y-2.6161
X2.0013Y-0.4285
X2.0069Y-0.1516
X2.0079Y-1.1437
X2.0098Y-1.7051
X2.0157Y-2.4163
X2.0177Y-3.4386
X2.0197Y-1.3327
X2.026Y-2.5138
X2.0276Y-0.1014
X2.0276Y-1.1024
X2.0276Y-1.9341
X2.0285Y-0.4528
X2.0305Y-2.5681
X2.0335Y-1.6043
X2.0374Y-0.8583
X2.0384Y-3.2559
X2.06Y-0.3898
X2.062Y-0.5
X2.063Y-0.1014
X2.0659Y-0.5955
X2.0738Y-2.6368
X2.0756Y-1.4626
X2.0768Y-2.1929
X2.0807Y-0.189
X2.0846Y-0.6978
X2.0856Y-2.4055
X2.0896Y-3.7311
X2.0906Y-0.2992
X2.0915Y-0.7844
X2.0955Y-0.1014
X2.0994Y-3.685
X2.0994Y-3.8878
X2.1004Y-3.4793
X2.1014Y-3.3848
X2.1102Y-1.7579
X2.12Y-1.3819
X2.126Y-1.1043
X2.1309Y-0.1024
X2.1358Y-0.1467
X2.1378Y-2.815
X2.1417Y-2.9094
X2.1545Y-3.437
X2.1555Y-0.1841
X2.1584Y-1.3877
X2.1654Y-0.8455
X2.1683Y-2.635
X2.1684Y-2.5412
X2.1772Y-0.5305
X2.1772Y-0.5719
X2.1811Y-1.622
X2.1831Y-3.8504
X2.185Y-2.4705
X2.186Y-0.373
X2.187Y-1.5098
X2.189Y-1.9281
X2.1919Y-2.6093
X2.1978Y-2.7087
X2.1988Y-3.9616
X2.1998Y-0.2096
X2.2023Y-3.7461
X2.2047Y-1.4154
X2.2116Y-0.4872
X2.2175Y-3.5778
X2.2195Y-2.7628
X2.2264Y-1.6949
X2.2321Y-0.6356
X2.2372Y-0.3445
X2.2411Y-0.4193
X2.2451Y-3.6102
X2.2461Y-3.658
X2.25Y-0.938
X2.2677Y-0.4445
X2.2699Y-3.6296
X2.2707Y-2.998
X2.2728Y-3.6747
X2.2884Y-2.6181
X2.2913Y-1.8366
X2.2972Y-0.8051
X2.31Y-4.0906
X2.311Y-3.5384
X2.315Y-0.3031
X2.3169Y-1.3071
X2.3228Y-0.5079
X2.3317Y-0.7441
X2.3435Y-3.7175
X2.3494Y-3.9085
X2.3543Y-1.5709
X2.753Y-1.8228
X2.7717Y-1.5079
X2.7862Y-0.637
X2.7963Y-2.4833
X2.8081Y-1.6427
X2.8087Y-0.3764
X2.8299Y-0.5918
X2.8314Y-0.4204
X2.8396Y-2.7667
X2.8445Y-1.5049
X2.8455Y-2.6309
X2.8563Y-1.6604
X2.8681Y-0.5315
X2.8699Y-0.5984
X2.8701Y-0.4459
X2.8728Y-1.5529
X2.8809Y-2.6053
X2.8858Y-1.4852
X2.8996Y-2.9222
X2.9035Y-1.6211
X2.9104Y-1.6663
X2.938Y-1.811
X2.9449Y-1.313
X2.9449Y-1.752
X2.9449Y-2.4134
X2.9449Y-2.813
X2.948Y-0.1386
X2.9492Y-2.1756
X2.9498Y-1.377
X2.9528Y-0.685
X2.9661Y-1.1346
X2.9862Y-2.9852
X2.9962Y-2.7233
X3.0012Y-0.1976
X3.0044Y-0.6959
X3.0123Y-0.4404
X3.0256Y-2.2795
X3.0285Y-1.3455
X3.0305Y-2.5226
X3.0315Y-1.752
X3.0325Y-0.5421
X3.0344Y-2.9124
X3.0423Y-0.4882
X3.0591Y-1.8563
X3.063Y-2.7146
X3.0709Y-2.8258
X3.0945Y-2.7681
X3.0974Y-2.6161
X3.1102Y-0.2421
X3.1102Y-2.3681
X3.1112Y-2.5681
X3.1122Y-0.0276
X3.1142Y-0.815
X3.1165Y-0.5717
X3.1228Y-0.2949
X3.127Y-2.6681
X3.1417Y-1.874
X3.1689Y-0.1638
X3.1811Y-1.4114
X3.1823Y-0.7146
X3.2047Y-1.7234
X3.2067Y-1.2648
X3.2087Y-1.3386
X3.2116Y-1.1014
X3.2539Y-2.935
X3.2589Y-1.3839
X3.2717Y-2.0226
X3.2746Y-2.4203
X3.2756Y-0.2091
X3.2835Y-1.8406
X3.2843Y-0.7134
X3.2844Y-1.7618
X3.3061Y-2.8681
X3.3189Y-3.0354
X3.3238Y-0.627
X3.3356Y-2.248
X3.3394Y-0.1425
X3.3396Y-2.625
X3.3445Y-2.3337
X3.3504Y-0.4197
X3.3831Y-0.7571
X3.3898Y-1.4616
X3.4026Y-1.7638
X3.4055Y-1.815
X3.4157Y-0.2933
X3.4221Y-2.7746
X3.4331Y-2.6476
X3.4618Y-0.9441
X3.4931Y-1.6722
X3.5268Y-0.1591
X3.5276Y-2.8593
X3.5386Y-0.4772
X3.561Y-1.3406
X3.5646Y-0.4075
X3.5679Y-1.2618
X3.5689Y-2.0256
X3.5787Y-2.6516
X3.5886Y-2.3425
X3.6299Y-2.5827
X3.6323Y-0.4949
X3.6476Y-1.639
X3.6583Y-0.2157
X3.6713Y-1.8465
X3.6722Y-1.5917
X3.6811Y-2.9114
X3.7177Y-0.0256
X3.7274Y-2.5787
X3.7283Y-2.1732
X3.7406Y-0.3894
X3.7563Y-0.2335
X3.7707Y-1.123
X3.7776Y-0.7571
X3.8001Y-1.8975
X3.8425Y-1.5524
X3.8441Y-0.9406
X3.8445Y-3.0728
X3.8673Y-0.4161
X3.8789Y-2.2244
X3.8799Y-2.4488
X3.8809Y-2.0217
X3.8996Y-1.6988
X3.9713Y-0.4232
X3.9961Y-2.5797
X3.999Y-1.7677
X4.0226Y-1.3563
X4.0728Y-2.0128
X4.0921Y-0.6646
X4.1008Y-0.3764
X4.1181Y-1.2667
X4.1211Y-1.7175
X4.126Y-2.4449
X4.1299Y-2.25
X4.1358Y-2.6496
X4.2173Y-0.5075
X4.2362Y-1.4892
X4.2488Y-0.9441
X4.2559Y-1.7894
X4.2589Y-1.1132
X4.2835Y-1.8907
X4.2921Y-0.7453
X4.335Y-0.2437
X4.3425Y-1.4646
X4.3461Y-1.9839
X4.3465Y-2.7913
X4.3543Y-1.753
X4.3602Y-1.6988
X4.3632Y-1.3435
X4.3807Y-0.8575
X4.3848Y-2.9232
X4.4232Y-2.8681
X4.433Y-1.639
X4.4331Y-2.5886
X4.4417Y-0.0909
X4.4433Y-0.5992
X4.4439Y-1.2569
X4.4461Y-0.5008
X4.4587Y-1.7923
X4.4871Y-1.6251
X4.4902Y-2.7681
X4.5039Y-0.2884
X4.5079Y-2.4173
X4.5098Y-2.3681
X4.524Y-0.3953
X4.5256Y-0.5858
X4.5276Y-1.5906
X4.5305Y-1.3051
X4.5354Y-2.6791
X4.5413Y-2.313
X4.5561Y-1.6445
X4.5571Y-2.5098
X4.56Y-1.3504
X4.56Y-1.438
X4.5876Y-1.2549
X4.5965Y-2.1988
X4.6073Y-1.8829
X4.6154Y-0.8413
X4.6189Y-2.9299
X4.6228Y-0.687
X4.6722Y-1.6152
X4.6829Y-0.4819
X4.686Y-2.4961
X4.688Y-2.7687
X4.689Y-1.7077
X4.69Y-2.6171
X4.7033Y-0.3858
X4.7041Y-0.4331
X4.7208Y-0.5108
X4.7343Y-2.4705
X4.7479Y-0.3802
X4.7758Y-0.5992
X4.802Y-0.4925
T2
X1.9927Y-0.0502
T4
X0.2303Y-0.9291
X0.2303Y-1.9921
X0.2307Y-3.0551
X0.2307Y-4.1181
X0.3091Y-0.9291
X0.3091Y-1.9921
X0.3094Y-3.0551
X0.3094Y-4.1181
X0.3878Y-0.9291
X0.3878Y-1.9921
X0.3882Y-3.0551
X0.3882Y-4.1181
X0.4665Y-0.9291
X0.4665Y-1.9921
X0.4669Y-3.0551
X0.4669Y-4.1181
X1.5886Y-0.9291
X1.5886Y-1.9921
X1.5886Y-3.0551
X1.6673Y-0.9291
X1.6673Y-1.9921
X1.6673Y-3.0551
X1.7461Y-0.9291
X1.7461Y-1.9921
X1.7461Y-3.0551
X1.8248Y-0.9291
X1.8248Y-1.9921
X1.8248Y-3.0551
X2.9469Y-0.9291
X2.9469Y-1.9921
X2.9469Y-3.0551
X3.0256Y-0.9291
X3.0256Y-1.9921
X3.0256Y-3.0551
X3.1043Y-0.9291
X3.1043Y-1.9921
X3.1043Y-3.0551
X3.1831Y-0.9291
X3.1831Y-1.9921
X3.1831Y-3.0551
T5
X3.4358Y-0.3937
X3.4358Y-0.4921
X3.4358Y-0.5906
X3.6811Y-0.1484
X3.7795Y-0.1484
X3.878Y-0.1484
T6
X3.5098Y-2.6181
X3.6161Y-2.3967
X3.6161Y-2.8396
X3.9154Y-2.3839
X3.9429Y-2.8396
T7
X1.7053Y-2.2783
X1.8553Y-2.2783
X2.0053Y-2.2783
X4.0059Y-0.3642
X4.0059Y-0.6201
X4.1831Y-0.3642
X4.1831Y-0.6201
T8
X3.5827Y-0.2431
X3.5827Y-0.7411
X3.9764Y-0.2392
X3.9764Y-0.7411
T3
G00X0.1959Y-0.0531
M15
G01X0.1959Y-0.0295
M16
G05
G00X0.1959Y-0.2276
M15
G01X0.1959Y-0.1843
M16
G05
G00X0.536Y-0.0531
M15
G01X0.536Y-0.0295
M16
G05
G00X0.536Y-0.2276
M15
G01X0.536Y-0.1843
M16
G05
G00X1.5541Y-3.2421
M15
G01X1.5541Y-3.2185
M16
G05
G00X1.5541Y-3.4165
M15
G01X1.5541Y-3.3732
M16
G05
G00X1.8943Y-3.2421
M15
G01X1.8943Y-3.2185
M16
G05
G00X1.8943Y-3.4165
M15
G01X1.8943Y-3.3732
M16
G05
T9
G00X3.7707Y-2.3967
M15
G01X3.7884Y-2.3967
M16
G05
G00X3.7707Y-2.8396
M15
G01X3.7884Y-2.8396
M16
G05
M30
