%TF.GenerationSoftware,KiCad,Pcbnew,8.0.7*%
%TF.CreationDate,2025-01-15T23:29:00+00:00*%
%TF.ProjectId,Panel2,50616e65-6c32-42e6-9b69-6361645f7063,rev?*%
%TF.SameCoordinates,Original*%
%TF.FileFunction,Other,ECO2*%
%FSLAX46Y46*%
G04 Gerber Fmt 4.6, Leading zero omitted, Abs format (unit mm)*
G04 Created by KiCad (PCBNEW 8.0.7) date 2025-01-15 23:29:00*
%MOMM*%
%LPD*%
G01*
G04 APERTURE LIST*
%ADD10C,0.150000*%
%ADD11C,0.300000*%
%ADD12C,0.350000*%
%ADD13O,2.500000X2.050000*%
%ADD14O,0.600000X1.700000*%
%ADD15O,0.600000X1.200000*%
G04 APERTURE END LIST*
D10*
X35503570Y-5544104D02*
X35979760Y-5544104D01*
X35408332Y-5829819D02*
X35741665Y-4829819D01*
X35741665Y-4829819D02*
X36074998Y-5829819D01*
X36408332Y-5163152D02*
X36408332Y-5829819D01*
X36408332Y-5258390D02*
X36455951Y-5210771D01*
X36455951Y-5210771D02*
X36551189Y-5163152D01*
X36551189Y-5163152D02*
X36694046Y-5163152D01*
X36694046Y-5163152D02*
X36789284Y-5210771D01*
X36789284Y-5210771D02*
X36836903Y-5306009D01*
X36836903Y-5306009D02*
X36836903Y-5829819D01*
X37170237Y-5163152D02*
X37551189Y-5163152D01*
X37313094Y-4829819D02*
X37313094Y-5686961D01*
X37313094Y-5686961D02*
X37360713Y-5782200D01*
X37360713Y-5782200D02*
X37455951Y-5829819D01*
X37455951Y-5829819D02*
X37551189Y-5829819D01*
X38265475Y-5782200D02*
X38170237Y-5829819D01*
X38170237Y-5829819D02*
X37979761Y-5829819D01*
X37979761Y-5829819D02*
X37884523Y-5782200D01*
X37884523Y-5782200D02*
X37836904Y-5686961D01*
X37836904Y-5686961D02*
X37836904Y-5306009D01*
X37836904Y-5306009D02*
X37884523Y-5210771D01*
X37884523Y-5210771D02*
X37979761Y-5163152D01*
X37979761Y-5163152D02*
X38170237Y-5163152D01*
X38170237Y-5163152D02*
X38265475Y-5210771D01*
X38265475Y-5210771D02*
X38313094Y-5306009D01*
X38313094Y-5306009D02*
X38313094Y-5401247D01*
X38313094Y-5401247D02*
X37836904Y-5496485D01*
X38741666Y-5163152D02*
X38741666Y-5829819D01*
X38741666Y-5258390D02*
X38789285Y-5210771D01*
X38789285Y-5210771D02*
X38884523Y-5163152D01*
X38884523Y-5163152D02*
X39027380Y-5163152D01*
X39027380Y-5163152D02*
X39122618Y-5210771D01*
X39122618Y-5210771D02*
X39170237Y-5306009D01*
X39170237Y-5306009D02*
X39170237Y-5829819D01*
X39646428Y-5163152D02*
X39646428Y-5829819D01*
X39646428Y-5258390D02*
X39694047Y-5210771D01*
X39694047Y-5210771D02*
X39789285Y-5163152D01*
X39789285Y-5163152D02*
X39932142Y-5163152D01*
X39932142Y-5163152D02*
X40027380Y-5210771D01*
X40027380Y-5210771D02*
X40074999Y-5306009D01*
X40074999Y-5306009D02*
X40074999Y-5829819D01*
X40979761Y-5829819D02*
X40979761Y-5306009D01*
X40979761Y-5306009D02*
X40932142Y-5210771D01*
X40932142Y-5210771D02*
X40836904Y-5163152D01*
X40836904Y-5163152D02*
X40646428Y-5163152D01*
X40646428Y-5163152D02*
X40551190Y-5210771D01*
X40979761Y-5782200D02*
X40884523Y-5829819D01*
X40884523Y-5829819D02*
X40646428Y-5829819D01*
X40646428Y-5829819D02*
X40551190Y-5782200D01*
X40551190Y-5782200D02*
X40503571Y-5686961D01*
X40503571Y-5686961D02*
X40503571Y-5591723D01*
X40503571Y-5591723D02*
X40551190Y-5496485D01*
X40551190Y-5496485D02*
X40646428Y-5448866D01*
X40646428Y-5448866D02*
X40884523Y-5448866D01*
X40884523Y-5448866D02*
X40979761Y-5401247D01*
X41217857Y-5925057D02*
X41979761Y-5925057D01*
X42217857Y-5829819D02*
X42217857Y-4829819D01*
X42217857Y-4829819D02*
X42551190Y-5544104D01*
X42551190Y-5544104D02*
X42884523Y-4829819D01*
X42884523Y-4829819D02*
X42884523Y-5829819D01*
X43360714Y-5829819D02*
X43360714Y-4829819D01*
X44170237Y-5306009D02*
X43836904Y-5306009D01*
X43836904Y-5829819D02*
X43836904Y-4829819D01*
X43836904Y-4829819D02*
X44313094Y-4829819D01*
X44646428Y-5544104D02*
X45122618Y-5544104D01*
X44551190Y-5829819D02*
X44884523Y-4829819D01*
X44884523Y-4829819D02*
X45217856Y-5829819D01*
X45313095Y-5925057D02*
X46074999Y-5925057D01*
X46884523Y-5734580D02*
X46836904Y-5782200D01*
X46836904Y-5782200D02*
X46694047Y-5829819D01*
X46694047Y-5829819D02*
X46598809Y-5829819D01*
X46598809Y-5829819D02*
X46455952Y-5782200D01*
X46455952Y-5782200D02*
X46360714Y-5686961D01*
X46360714Y-5686961D02*
X46313095Y-5591723D01*
X46313095Y-5591723D02*
X46265476Y-5401247D01*
X46265476Y-5401247D02*
X46265476Y-5258390D01*
X46265476Y-5258390D02*
X46313095Y-5067914D01*
X46313095Y-5067914D02*
X46360714Y-4972676D01*
X46360714Y-4972676D02*
X46455952Y-4877438D01*
X46455952Y-4877438D02*
X46598809Y-4829819D01*
X46598809Y-4829819D02*
X46694047Y-4829819D01*
X46694047Y-4829819D02*
X46836904Y-4877438D01*
X46836904Y-4877438D02*
X46884523Y-4925057D01*
X47217857Y-5163152D02*
X47455952Y-5829819D01*
X47694047Y-5163152D02*
X47455952Y-5829819D01*
X47455952Y-5829819D02*
X47360714Y-6067914D01*
X47360714Y-6067914D02*
X47313095Y-6115533D01*
X47313095Y-6115533D02*
X47217857Y-6163152D01*
X48075000Y-5163152D02*
X48075000Y-6163152D01*
X48075000Y-5210771D02*
X48170238Y-5163152D01*
X48170238Y-5163152D02*
X48360714Y-5163152D01*
X48360714Y-5163152D02*
X48455952Y-5210771D01*
X48455952Y-5210771D02*
X48503571Y-5258390D01*
X48503571Y-5258390D02*
X48551190Y-5353628D01*
X48551190Y-5353628D02*
X48551190Y-5639342D01*
X48551190Y-5639342D02*
X48503571Y-5734580D01*
X48503571Y-5734580D02*
X48455952Y-5782200D01*
X48455952Y-5782200D02*
X48360714Y-5829819D01*
X48360714Y-5829819D02*
X48170238Y-5829819D01*
X48170238Y-5829819D02*
X48075000Y-5782200D01*
X48979762Y-5829819D02*
X48979762Y-5163152D01*
X48979762Y-5353628D02*
X49027381Y-5258390D01*
X49027381Y-5258390D02*
X49075000Y-5210771D01*
X49075000Y-5210771D02*
X49170238Y-5163152D01*
X49170238Y-5163152D02*
X49265476Y-5163152D01*
X49979762Y-5782200D02*
X49884524Y-5829819D01*
X49884524Y-5829819D02*
X49694048Y-5829819D01*
X49694048Y-5829819D02*
X49598810Y-5782200D01*
X49598810Y-5782200D02*
X49551191Y-5686961D01*
X49551191Y-5686961D02*
X49551191Y-5306009D01*
X49551191Y-5306009D02*
X49598810Y-5210771D01*
X49598810Y-5210771D02*
X49694048Y-5163152D01*
X49694048Y-5163152D02*
X49884524Y-5163152D01*
X49884524Y-5163152D02*
X49979762Y-5210771D01*
X49979762Y-5210771D02*
X50027381Y-5306009D01*
X50027381Y-5306009D02*
X50027381Y-5401247D01*
X50027381Y-5401247D02*
X49551191Y-5496485D01*
X50408334Y-5782200D02*
X50503572Y-5829819D01*
X50503572Y-5829819D02*
X50694048Y-5829819D01*
X50694048Y-5829819D02*
X50789286Y-5782200D01*
X50789286Y-5782200D02*
X50836905Y-5686961D01*
X50836905Y-5686961D02*
X50836905Y-5639342D01*
X50836905Y-5639342D02*
X50789286Y-5544104D01*
X50789286Y-5544104D02*
X50694048Y-5496485D01*
X50694048Y-5496485D02*
X50551191Y-5496485D01*
X50551191Y-5496485D02*
X50455953Y-5448866D01*
X50455953Y-5448866D02*
X50408334Y-5353628D01*
X50408334Y-5353628D02*
X50408334Y-5306009D01*
X50408334Y-5306009D02*
X50455953Y-5210771D01*
X50455953Y-5210771D02*
X50551191Y-5163152D01*
X50551191Y-5163152D02*
X50694048Y-5163152D01*
X50694048Y-5163152D02*
X50789286Y-5210771D01*
X51217858Y-5782200D02*
X51313096Y-5829819D01*
X51313096Y-5829819D02*
X51503572Y-5829819D01*
X51503572Y-5829819D02*
X51598810Y-5782200D01*
X51598810Y-5782200D02*
X51646429Y-5686961D01*
X51646429Y-5686961D02*
X51646429Y-5639342D01*
X51646429Y-5639342D02*
X51598810Y-5544104D01*
X51598810Y-5544104D02*
X51503572Y-5496485D01*
X51503572Y-5496485D02*
X51360715Y-5496485D01*
X51360715Y-5496485D02*
X51265477Y-5448866D01*
X51265477Y-5448866D02*
X51217858Y-5353628D01*
X51217858Y-5353628D02*
X51217858Y-5306009D01*
X51217858Y-5306009D02*
X51265477Y-5210771D01*
X51265477Y-5210771D02*
X51360715Y-5163152D01*
X51360715Y-5163152D02*
X51503572Y-5163152D01*
X51503572Y-5163152D02*
X51598810Y-5210771D01*
X35257200Y-26665475D02*
X35304819Y-26570237D01*
X35304819Y-26570237D02*
X35304819Y-26379761D01*
X35304819Y-26379761D02*
X35257200Y-26284523D01*
X35257200Y-26284523D02*
X35161961Y-26236904D01*
X35161961Y-26236904D02*
X35114342Y-26236904D01*
X35114342Y-26236904D02*
X35019104Y-26284523D01*
X35019104Y-26284523D02*
X34971485Y-26379761D01*
X34971485Y-26379761D02*
X34971485Y-26522618D01*
X34971485Y-26522618D02*
X34923866Y-26617856D01*
X34923866Y-26617856D02*
X34828628Y-26665475D01*
X34828628Y-26665475D02*
X34781009Y-26665475D01*
X34781009Y-26665475D02*
X34685771Y-26617856D01*
X34685771Y-26617856D02*
X34638152Y-26522618D01*
X34638152Y-26522618D02*
X34638152Y-26379761D01*
X34638152Y-26379761D02*
X34685771Y-26284523D01*
X34638152Y-25903570D02*
X35304819Y-25713094D01*
X35304819Y-25713094D02*
X34828628Y-25522618D01*
X34828628Y-25522618D02*
X35304819Y-25332142D01*
X35304819Y-25332142D02*
X34638152Y-25141666D01*
X35304819Y-24332142D02*
X34304819Y-24332142D01*
X35257200Y-24332142D02*
X35304819Y-24427380D01*
X35304819Y-24427380D02*
X35304819Y-24617856D01*
X35304819Y-24617856D02*
X35257200Y-24713094D01*
X35257200Y-24713094D02*
X35209580Y-24760713D01*
X35209580Y-24760713D02*
X35114342Y-24808332D01*
X35114342Y-24808332D02*
X34828628Y-24808332D01*
X34828628Y-24808332D02*
X34733390Y-24760713D01*
X34733390Y-24760713D02*
X34685771Y-24713094D01*
X34685771Y-24713094D02*
X34638152Y-24617856D01*
X34638152Y-24617856D02*
X34638152Y-24427380D01*
X34638152Y-24427380D02*
X34685771Y-24332142D01*
X35400057Y-24094047D02*
X35400057Y-23332142D01*
X34638152Y-22665475D02*
X35304819Y-22665475D01*
X34257200Y-22903570D02*
X34971485Y-23141665D01*
X34971485Y-23141665D02*
X34971485Y-22522618D01*
X34638152Y-22141665D02*
X35638152Y-22141665D01*
X34685771Y-22141665D02*
X34638152Y-22046427D01*
X34638152Y-22046427D02*
X34638152Y-21855951D01*
X34638152Y-21855951D02*
X34685771Y-21760713D01*
X34685771Y-21760713D02*
X34733390Y-21713094D01*
X34733390Y-21713094D02*
X34828628Y-21665475D01*
X34828628Y-21665475D02*
X35114342Y-21665475D01*
X35114342Y-21665475D02*
X35209580Y-21713094D01*
X35209580Y-21713094D02*
X35257200Y-21760713D01*
X35257200Y-21760713D02*
X35304819Y-21855951D01*
X35304819Y-21855951D02*
X35304819Y-22046427D01*
X35304819Y-22046427D02*
X35257200Y-22141665D01*
X35304819Y-21236903D02*
X34638152Y-21236903D01*
X34304819Y-21236903D02*
X34352438Y-21284522D01*
X34352438Y-21284522D02*
X34400057Y-21236903D01*
X34400057Y-21236903D02*
X34352438Y-21189284D01*
X34352438Y-21189284D02*
X34304819Y-21236903D01*
X34304819Y-21236903D02*
X34400057Y-21236903D01*
X34638152Y-20760713D02*
X35304819Y-20760713D01*
X34733390Y-20760713D02*
X34685771Y-20713094D01*
X34685771Y-20713094D02*
X34638152Y-20617856D01*
X34638152Y-20617856D02*
X34638152Y-20474999D01*
X34638152Y-20474999D02*
X34685771Y-20379761D01*
X34685771Y-20379761D02*
X34781009Y-20332142D01*
X34781009Y-20332142D02*
X35304819Y-20332142D01*
X757200Y-53665475D02*
X804819Y-53570237D01*
X804819Y-53570237D02*
X804819Y-53379761D01*
X804819Y-53379761D02*
X757200Y-53284523D01*
X757200Y-53284523D02*
X661961Y-53236904D01*
X661961Y-53236904D02*
X614342Y-53236904D01*
X614342Y-53236904D02*
X519104Y-53284523D01*
X519104Y-53284523D02*
X471485Y-53379761D01*
X471485Y-53379761D02*
X471485Y-53522618D01*
X471485Y-53522618D02*
X423866Y-53617856D01*
X423866Y-53617856D02*
X328628Y-53665475D01*
X328628Y-53665475D02*
X281009Y-53665475D01*
X281009Y-53665475D02*
X185771Y-53617856D01*
X185771Y-53617856D02*
X138152Y-53522618D01*
X138152Y-53522618D02*
X138152Y-53379761D01*
X138152Y-53379761D02*
X185771Y-53284523D01*
X138152Y-52903570D02*
X804819Y-52713094D01*
X804819Y-52713094D02*
X328628Y-52522618D01*
X328628Y-52522618D02*
X804819Y-52332142D01*
X804819Y-52332142D02*
X138152Y-52141666D01*
X804819Y-51332142D02*
X-195180Y-51332142D01*
X757200Y-51332142D02*
X804819Y-51427380D01*
X804819Y-51427380D02*
X804819Y-51617856D01*
X804819Y-51617856D02*
X757200Y-51713094D01*
X757200Y-51713094D02*
X709580Y-51760713D01*
X709580Y-51760713D02*
X614342Y-51808332D01*
X614342Y-51808332D02*
X328628Y-51808332D01*
X328628Y-51808332D02*
X233390Y-51760713D01*
X233390Y-51760713D02*
X185771Y-51713094D01*
X185771Y-51713094D02*
X138152Y-51617856D01*
X138152Y-51617856D02*
X138152Y-51427380D01*
X138152Y-51427380D02*
X185771Y-51332142D01*
X900057Y-51094047D02*
X900057Y-50332142D01*
X138152Y-49665475D02*
X804819Y-49665475D01*
X-242800Y-49903570D02*
X471485Y-50141665D01*
X471485Y-50141665D02*
X471485Y-49522618D01*
X138152Y-49141665D02*
X1138152Y-49141665D01*
X185771Y-49141665D02*
X138152Y-49046427D01*
X138152Y-49046427D02*
X138152Y-48855951D01*
X138152Y-48855951D02*
X185771Y-48760713D01*
X185771Y-48760713D02*
X233390Y-48713094D01*
X233390Y-48713094D02*
X328628Y-48665475D01*
X328628Y-48665475D02*
X614342Y-48665475D01*
X614342Y-48665475D02*
X709580Y-48713094D01*
X709580Y-48713094D02*
X757200Y-48760713D01*
X757200Y-48760713D02*
X804819Y-48855951D01*
X804819Y-48855951D02*
X804819Y-49046427D01*
X804819Y-49046427D02*
X757200Y-49141665D01*
X804819Y-48236903D02*
X138152Y-48236903D01*
X-195180Y-48236903D02*
X-147561Y-48284522D01*
X-147561Y-48284522D02*
X-99942Y-48236903D01*
X-99942Y-48236903D02*
X-147561Y-48189284D01*
X-147561Y-48189284D02*
X-195180Y-48236903D01*
X-195180Y-48236903D02*
X-99942Y-48236903D01*
X138152Y-47760713D02*
X804819Y-47760713D01*
X233390Y-47760713D02*
X185771Y-47713094D01*
X185771Y-47713094D02*
X138152Y-47617856D01*
X138152Y-47617856D02*
X138152Y-47474999D01*
X138152Y-47474999D02*
X185771Y-47379761D01*
X185771Y-47379761D02*
X281009Y-47332142D01*
X281009Y-47332142D02*
X804819Y-47332142D01*
X19332200Y-20280952D02*
X19379819Y-20138095D01*
X19379819Y-20138095D02*
X19379819Y-19900000D01*
X19379819Y-19900000D02*
X19332200Y-19804762D01*
X19332200Y-19804762D02*
X19284580Y-19757143D01*
X19284580Y-19757143D02*
X19189342Y-19709524D01*
X19189342Y-19709524D02*
X19094104Y-19709524D01*
X19094104Y-19709524D02*
X18998866Y-19757143D01*
X18998866Y-19757143D02*
X18951247Y-19804762D01*
X18951247Y-19804762D02*
X18903628Y-19900000D01*
X18903628Y-19900000D02*
X18856009Y-20090476D01*
X18856009Y-20090476D02*
X18808390Y-20185714D01*
X18808390Y-20185714D02*
X18760771Y-20233333D01*
X18760771Y-20233333D02*
X18665533Y-20280952D01*
X18665533Y-20280952D02*
X18570295Y-20280952D01*
X18570295Y-20280952D02*
X18475057Y-20233333D01*
X18475057Y-20233333D02*
X18427438Y-20185714D01*
X18427438Y-20185714D02*
X18379819Y-20090476D01*
X18379819Y-20090476D02*
X18379819Y-19852381D01*
X18379819Y-19852381D02*
X18427438Y-19709524D01*
X18379819Y-19423809D02*
X18379819Y-18852381D01*
X19379819Y-19138095D02*
X18379819Y-19138095D01*
X19379819Y-18519047D02*
X18379819Y-18519047D01*
X18379819Y-18519047D02*
X19094104Y-18185714D01*
X19094104Y-18185714D02*
X18379819Y-17852381D01*
X18379819Y-17852381D02*
X19379819Y-17852381D01*
X18379819Y-17471428D02*
X18379819Y-16852381D01*
X18379819Y-16852381D02*
X18760771Y-17185714D01*
X18760771Y-17185714D02*
X18760771Y-17042857D01*
X18760771Y-17042857D02*
X18808390Y-16947619D01*
X18808390Y-16947619D02*
X18856009Y-16900000D01*
X18856009Y-16900000D02*
X18951247Y-16852381D01*
X18951247Y-16852381D02*
X19189342Y-16852381D01*
X19189342Y-16852381D02*
X19284580Y-16900000D01*
X19284580Y-16900000D02*
X19332200Y-16947619D01*
X19332200Y-16947619D02*
X19379819Y-17042857D01*
X19379819Y-17042857D02*
X19379819Y-17328571D01*
X19379819Y-17328571D02*
X19332200Y-17423809D01*
X19332200Y-17423809D02*
X19284580Y-17471428D01*
X18475057Y-16471428D02*
X18427438Y-16423809D01*
X18427438Y-16423809D02*
X18379819Y-16328571D01*
X18379819Y-16328571D02*
X18379819Y-16090476D01*
X18379819Y-16090476D02*
X18427438Y-15995238D01*
X18427438Y-15995238D02*
X18475057Y-15947619D01*
X18475057Y-15947619D02*
X18570295Y-15900000D01*
X18570295Y-15900000D02*
X18665533Y-15900000D01*
X18665533Y-15900000D02*
X18808390Y-15947619D01*
X18808390Y-15947619D02*
X19379819Y-16519047D01*
X19379819Y-16519047D02*
X19379819Y-15900000D01*
X18856009Y-15138095D02*
X18856009Y-15471428D01*
X19379819Y-15471428D02*
X18379819Y-15471428D01*
X18379819Y-15471428D02*
X18379819Y-14995238D01*
X19379819Y-14090476D02*
X19379819Y-14661904D01*
X19379819Y-14376190D02*
X18379819Y-14376190D01*
X18379819Y-14376190D02*
X18522676Y-14471428D01*
X18522676Y-14471428D02*
X18617914Y-14566666D01*
X18617914Y-14566666D02*
X18665533Y-14661904D01*
X18379819Y-13471428D02*
X18379819Y-13376190D01*
X18379819Y-13376190D02*
X18427438Y-13280952D01*
X18427438Y-13280952D02*
X18475057Y-13233333D01*
X18475057Y-13233333D02*
X18570295Y-13185714D01*
X18570295Y-13185714D02*
X18760771Y-13138095D01*
X18760771Y-13138095D02*
X18998866Y-13138095D01*
X18998866Y-13138095D02*
X19189342Y-13185714D01*
X19189342Y-13185714D02*
X19284580Y-13233333D01*
X19284580Y-13233333D02*
X19332200Y-13280952D01*
X19332200Y-13280952D02*
X19379819Y-13376190D01*
X19379819Y-13376190D02*
X19379819Y-13471428D01*
X19379819Y-13471428D02*
X19332200Y-13566666D01*
X19332200Y-13566666D02*
X19284580Y-13614285D01*
X19284580Y-13614285D02*
X19189342Y-13661904D01*
X19189342Y-13661904D02*
X18998866Y-13709523D01*
X18998866Y-13709523D02*
X18760771Y-13709523D01*
X18760771Y-13709523D02*
X18570295Y-13661904D01*
X18570295Y-13661904D02*
X18475057Y-13614285D01*
X18475057Y-13614285D02*
X18427438Y-13566666D01*
X18427438Y-13566666D02*
X18379819Y-13471428D01*
X18379819Y-12804761D02*
X18379819Y-12185714D01*
X18379819Y-12185714D02*
X18760771Y-12519047D01*
X18760771Y-12519047D02*
X18760771Y-12376190D01*
X18760771Y-12376190D02*
X18808390Y-12280952D01*
X18808390Y-12280952D02*
X18856009Y-12233333D01*
X18856009Y-12233333D02*
X18951247Y-12185714D01*
X18951247Y-12185714D02*
X19189342Y-12185714D01*
X19189342Y-12185714D02*
X19284580Y-12233333D01*
X19284580Y-12233333D02*
X19332200Y-12280952D01*
X19332200Y-12280952D02*
X19379819Y-12376190D01*
X19379819Y-12376190D02*
X19379819Y-12661904D01*
X19379819Y-12661904D02*
X19332200Y-12757142D01*
X19332200Y-12757142D02*
X19284580Y-12804761D01*
X19284580Y-11185714D02*
X19332200Y-11233333D01*
X19332200Y-11233333D02*
X19379819Y-11376190D01*
X19379819Y-11376190D02*
X19379819Y-11471428D01*
X19379819Y-11471428D02*
X19332200Y-11614285D01*
X19332200Y-11614285D02*
X19236961Y-11709523D01*
X19236961Y-11709523D02*
X19141723Y-11757142D01*
X19141723Y-11757142D02*
X18951247Y-11804761D01*
X18951247Y-11804761D02*
X18808390Y-11804761D01*
X18808390Y-11804761D02*
X18617914Y-11757142D01*
X18617914Y-11757142D02*
X18522676Y-11709523D01*
X18522676Y-11709523D02*
X18427438Y-11614285D01*
X18427438Y-11614285D02*
X18379819Y-11471428D01*
X18379819Y-11471428D02*
X18379819Y-11376190D01*
X18379819Y-11376190D02*
X18427438Y-11233333D01*
X18427438Y-11233333D02*
X18475057Y-11185714D01*
X18808390Y-10614285D02*
X18760771Y-10709523D01*
X18760771Y-10709523D02*
X18713152Y-10757142D01*
X18713152Y-10757142D02*
X18617914Y-10804761D01*
X18617914Y-10804761D02*
X18570295Y-10804761D01*
X18570295Y-10804761D02*
X18475057Y-10757142D01*
X18475057Y-10757142D02*
X18427438Y-10709523D01*
X18427438Y-10709523D02*
X18379819Y-10614285D01*
X18379819Y-10614285D02*
X18379819Y-10423809D01*
X18379819Y-10423809D02*
X18427438Y-10328571D01*
X18427438Y-10328571D02*
X18475057Y-10280952D01*
X18475057Y-10280952D02*
X18570295Y-10233333D01*
X18570295Y-10233333D02*
X18617914Y-10233333D01*
X18617914Y-10233333D02*
X18713152Y-10280952D01*
X18713152Y-10280952D02*
X18760771Y-10328571D01*
X18760771Y-10328571D02*
X18808390Y-10423809D01*
X18808390Y-10423809D02*
X18808390Y-10614285D01*
X18808390Y-10614285D02*
X18856009Y-10709523D01*
X18856009Y-10709523D02*
X18903628Y-10757142D01*
X18903628Y-10757142D02*
X18998866Y-10804761D01*
X18998866Y-10804761D02*
X19189342Y-10804761D01*
X19189342Y-10804761D02*
X19284580Y-10757142D01*
X19284580Y-10757142D02*
X19332200Y-10709523D01*
X19332200Y-10709523D02*
X19379819Y-10614285D01*
X19379819Y-10614285D02*
X19379819Y-10423809D01*
X19379819Y-10423809D02*
X19332200Y-10328571D01*
X19332200Y-10328571D02*
X19284580Y-10280952D01*
X19284580Y-10280952D02*
X19189342Y-10233333D01*
X19189342Y-10233333D02*
X18998866Y-10233333D01*
X18998866Y-10233333D02*
X18903628Y-10280952D01*
X18903628Y-10280952D02*
X18856009Y-10328571D01*
X18856009Y-10328571D02*
X18808390Y-10423809D01*
X18379819Y-9947618D02*
X18379819Y-9376190D01*
X19379819Y-9661904D02*
X18379819Y-9661904D01*
X18379819Y-8614285D02*
X18379819Y-8804761D01*
X18379819Y-8804761D02*
X18427438Y-8899999D01*
X18427438Y-8899999D02*
X18475057Y-8947618D01*
X18475057Y-8947618D02*
X18617914Y-9042856D01*
X18617914Y-9042856D02*
X18808390Y-9090475D01*
X18808390Y-9090475D02*
X19189342Y-9090475D01*
X19189342Y-9090475D02*
X19284580Y-9042856D01*
X19284580Y-9042856D02*
X19332200Y-8995237D01*
X19332200Y-8995237D02*
X19379819Y-8899999D01*
X19379819Y-8899999D02*
X19379819Y-8709523D01*
X19379819Y-8709523D02*
X19332200Y-8614285D01*
X19332200Y-8614285D02*
X19284580Y-8566666D01*
X19284580Y-8566666D02*
X19189342Y-8519047D01*
X19189342Y-8519047D02*
X18951247Y-8519047D01*
X18951247Y-8519047D02*
X18856009Y-8566666D01*
X18856009Y-8566666D02*
X18808390Y-8614285D01*
X18808390Y-8614285D02*
X18760771Y-8709523D01*
X18760771Y-8709523D02*
X18760771Y-8899999D01*
X18760771Y-8899999D02*
X18808390Y-8995237D01*
X18808390Y-8995237D02*
X18856009Y-9042856D01*
X18856009Y-9042856D02*
X18951247Y-9090475D01*
X757200Y-26665475D02*
X804819Y-26570237D01*
X804819Y-26570237D02*
X804819Y-26379761D01*
X804819Y-26379761D02*
X757200Y-26284523D01*
X757200Y-26284523D02*
X661961Y-26236904D01*
X661961Y-26236904D02*
X614342Y-26236904D01*
X614342Y-26236904D02*
X519104Y-26284523D01*
X519104Y-26284523D02*
X471485Y-26379761D01*
X471485Y-26379761D02*
X471485Y-26522618D01*
X471485Y-26522618D02*
X423866Y-26617856D01*
X423866Y-26617856D02*
X328628Y-26665475D01*
X328628Y-26665475D02*
X281009Y-26665475D01*
X281009Y-26665475D02*
X185771Y-26617856D01*
X185771Y-26617856D02*
X138152Y-26522618D01*
X138152Y-26522618D02*
X138152Y-26379761D01*
X138152Y-26379761D02*
X185771Y-26284523D01*
X138152Y-25903570D02*
X804819Y-25713094D01*
X804819Y-25713094D02*
X328628Y-25522618D01*
X328628Y-25522618D02*
X804819Y-25332142D01*
X804819Y-25332142D02*
X138152Y-25141666D01*
X804819Y-24332142D02*
X-195180Y-24332142D01*
X757200Y-24332142D02*
X804819Y-24427380D01*
X804819Y-24427380D02*
X804819Y-24617856D01*
X804819Y-24617856D02*
X757200Y-24713094D01*
X757200Y-24713094D02*
X709580Y-24760713D01*
X709580Y-24760713D02*
X614342Y-24808332D01*
X614342Y-24808332D02*
X328628Y-24808332D01*
X328628Y-24808332D02*
X233390Y-24760713D01*
X233390Y-24760713D02*
X185771Y-24713094D01*
X185771Y-24713094D02*
X138152Y-24617856D01*
X138152Y-24617856D02*
X138152Y-24427380D01*
X138152Y-24427380D02*
X185771Y-24332142D01*
X900057Y-24094047D02*
X900057Y-23332142D01*
X138152Y-22665475D02*
X804819Y-22665475D01*
X-242800Y-22903570D02*
X471485Y-23141665D01*
X471485Y-23141665D02*
X471485Y-22522618D01*
X138152Y-22141665D02*
X1138152Y-22141665D01*
X185771Y-22141665D02*
X138152Y-22046427D01*
X138152Y-22046427D02*
X138152Y-21855951D01*
X138152Y-21855951D02*
X185771Y-21760713D01*
X185771Y-21760713D02*
X233390Y-21713094D01*
X233390Y-21713094D02*
X328628Y-21665475D01*
X328628Y-21665475D02*
X614342Y-21665475D01*
X614342Y-21665475D02*
X709580Y-21713094D01*
X709580Y-21713094D02*
X757200Y-21760713D01*
X757200Y-21760713D02*
X804819Y-21855951D01*
X804819Y-21855951D02*
X804819Y-22046427D01*
X804819Y-22046427D02*
X757200Y-22141665D01*
X804819Y-21236903D02*
X138152Y-21236903D01*
X-195180Y-21236903D02*
X-147561Y-21284522D01*
X-147561Y-21284522D02*
X-99942Y-21236903D01*
X-99942Y-21236903D02*
X-147561Y-21189284D01*
X-147561Y-21189284D02*
X-195180Y-21236903D01*
X-195180Y-21236903D02*
X-99942Y-21236903D01*
X138152Y-20760713D02*
X804819Y-20760713D01*
X233390Y-20760713D02*
X185771Y-20713094D01*
X185771Y-20713094D02*
X138152Y-20617856D01*
X138152Y-20617856D02*
X138152Y-20474999D01*
X138152Y-20474999D02*
X185771Y-20379761D01*
X185771Y-20379761D02*
X281009Y-20332142D01*
X281009Y-20332142D02*
X804819Y-20332142D01*
X6973809Y-17262319D02*
X7307142Y-18262319D01*
X7307142Y-18262319D02*
X7640475Y-17262319D01*
X8449999Y-18262319D02*
X7973809Y-18262319D01*
X7973809Y-18262319D02*
X7973809Y-17262319D01*
X9259523Y-17262319D02*
X8783333Y-17262319D01*
X8783333Y-17262319D02*
X8735714Y-17738509D01*
X8735714Y-17738509D02*
X8783333Y-17690890D01*
X8783333Y-17690890D02*
X8878571Y-17643271D01*
X8878571Y-17643271D02*
X9116666Y-17643271D01*
X9116666Y-17643271D02*
X9211904Y-17690890D01*
X9211904Y-17690890D02*
X9259523Y-17738509D01*
X9259523Y-17738509D02*
X9307142Y-17833747D01*
X9307142Y-17833747D02*
X9307142Y-18071842D01*
X9307142Y-18071842D02*
X9259523Y-18167080D01*
X9259523Y-18167080D02*
X9211904Y-18214700D01*
X9211904Y-18214700D02*
X9116666Y-18262319D01*
X9116666Y-18262319D02*
X8878571Y-18262319D01*
X8878571Y-18262319D02*
X8783333Y-18214700D01*
X8783333Y-18214700D02*
X8735714Y-18167080D01*
X9640476Y-17262319D02*
X10259523Y-17262319D01*
X10259523Y-17262319D02*
X9926190Y-17643271D01*
X9926190Y-17643271D02*
X10069047Y-17643271D01*
X10069047Y-17643271D02*
X10164285Y-17690890D01*
X10164285Y-17690890D02*
X10211904Y-17738509D01*
X10211904Y-17738509D02*
X10259523Y-17833747D01*
X10259523Y-17833747D02*
X10259523Y-18071842D01*
X10259523Y-18071842D02*
X10211904Y-18167080D01*
X10211904Y-18167080D02*
X10164285Y-18214700D01*
X10164285Y-18214700D02*
X10069047Y-18262319D01*
X10069047Y-18262319D02*
X9783333Y-18262319D01*
X9783333Y-18262319D02*
X9688095Y-18214700D01*
X9688095Y-18214700D02*
X9640476Y-18167080D01*
X11164285Y-18262319D02*
X10688095Y-18262319D01*
X10688095Y-18262319D02*
X10688095Y-17262319D01*
X11402381Y-17262319D02*
X12021428Y-17262319D01*
X12021428Y-17262319D02*
X11688095Y-17643271D01*
X11688095Y-17643271D02*
X11830952Y-17643271D01*
X11830952Y-17643271D02*
X11926190Y-17690890D01*
X11926190Y-17690890D02*
X11973809Y-17738509D01*
X11973809Y-17738509D02*
X12021428Y-17833747D01*
X12021428Y-17833747D02*
X12021428Y-18071842D01*
X12021428Y-18071842D02*
X11973809Y-18167080D01*
X11973809Y-18167080D02*
X11926190Y-18214700D01*
X11926190Y-18214700D02*
X11830952Y-18262319D01*
X11830952Y-18262319D02*
X11545238Y-18262319D01*
X11545238Y-18262319D02*
X11450000Y-18214700D01*
X11450000Y-18214700D02*
X11402381Y-18167080D01*
X13021428Y-18167080D02*
X12973809Y-18214700D01*
X12973809Y-18214700D02*
X12830952Y-18262319D01*
X12830952Y-18262319D02*
X12735714Y-18262319D01*
X12735714Y-18262319D02*
X12592857Y-18214700D01*
X12592857Y-18214700D02*
X12497619Y-18119461D01*
X12497619Y-18119461D02*
X12450000Y-18024223D01*
X12450000Y-18024223D02*
X12402381Y-17833747D01*
X12402381Y-17833747D02*
X12402381Y-17690890D01*
X12402381Y-17690890D02*
X12450000Y-17500414D01*
X12450000Y-17500414D02*
X12497619Y-17405176D01*
X12497619Y-17405176D02*
X12592857Y-17309938D01*
X12592857Y-17309938D02*
X12735714Y-17262319D01*
X12735714Y-17262319D02*
X12830952Y-17262319D01*
X12830952Y-17262319D02*
X12973809Y-17309938D01*
X12973809Y-17309938D02*
X13021428Y-17357557D01*
X13354762Y-17262319D02*
X14021428Y-18262319D01*
X14021428Y-17262319D02*
X13354762Y-18262319D01*
X14259524Y-17262319D02*
X14592857Y-18262319D01*
X14592857Y-18262319D02*
X14926190Y-17262319D01*
X15450000Y-17262319D02*
X15545238Y-17262319D01*
X15545238Y-17262319D02*
X15640476Y-17309938D01*
X15640476Y-17309938D02*
X15688095Y-17357557D01*
X15688095Y-17357557D02*
X15735714Y-17452795D01*
X15735714Y-17452795D02*
X15783333Y-17643271D01*
X15783333Y-17643271D02*
X15783333Y-17881366D01*
X15783333Y-17881366D02*
X15735714Y-18071842D01*
X15735714Y-18071842D02*
X15688095Y-18167080D01*
X15688095Y-18167080D02*
X15640476Y-18214700D01*
X15640476Y-18214700D02*
X15545238Y-18262319D01*
X15545238Y-18262319D02*
X15450000Y-18262319D01*
X15450000Y-18262319D02*
X15354762Y-18214700D01*
X15354762Y-18214700D02*
X15307143Y-18167080D01*
X15307143Y-18167080D02*
X15259524Y-18071842D01*
X15259524Y-18071842D02*
X15211905Y-17881366D01*
X15211905Y-17881366D02*
X15211905Y-17643271D01*
X15211905Y-17643271D02*
X15259524Y-17452795D01*
X15259524Y-17452795D02*
X15307143Y-17357557D01*
X15307143Y-17357557D02*
X15354762Y-17309938D01*
X15354762Y-17309938D02*
X15450000Y-17262319D01*
X16211905Y-18262319D02*
X16211905Y-17262319D01*
X16211905Y-17262319D02*
X16450000Y-17262319D01*
X16450000Y-17262319D02*
X16592857Y-17309938D01*
X16592857Y-17309938D02*
X16688095Y-17405176D01*
X16688095Y-17405176D02*
X16735714Y-17500414D01*
X16735714Y-17500414D02*
X16783333Y-17690890D01*
X16783333Y-17690890D02*
X16783333Y-17833747D01*
X16783333Y-17833747D02*
X16735714Y-18024223D01*
X16735714Y-18024223D02*
X16688095Y-18119461D01*
X16688095Y-18119461D02*
X16592857Y-18214700D01*
X16592857Y-18214700D02*
X16450000Y-18262319D01*
X16450000Y-18262319D02*
X16211905Y-18262319D01*
X17211905Y-18262319D02*
X17211905Y-17262319D01*
X17211905Y-17738509D02*
X17783333Y-17738509D01*
X17783333Y-18262319D02*
X17783333Y-17262319D01*
X49954819Y-13136309D02*
X48954819Y-13136309D01*
X48954819Y-13136309D02*
X49954819Y-12564881D01*
X49954819Y-12564881D02*
X48954819Y-12564881D01*
X49954819Y-11517262D02*
X49478628Y-11850595D01*
X49954819Y-12088690D02*
X48954819Y-12088690D01*
X48954819Y-12088690D02*
X48954819Y-11707738D01*
X48954819Y-11707738D02*
X49002438Y-11612500D01*
X49002438Y-11612500D02*
X49050057Y-11564881D01*
X49050057Y-11564881D02*
X49145295Y-11517262D01*
X49145295Y-11517262D02*
X49288152Y-11517262D01*
X49288152Y-11517262D02*
X49383390Y-11564881D01*
X49383390Y-11564881D02*
X49431009Y-11612500D01*
X49431009Y-11612500D02*
X49478628Y-11707738D01*
X49478628Y-11707738D02*
X49478628Y-12088690D01*
X49431009Y-10755357D02*
X49431009Y-11088690D01*
X49954819Y-11088690D02*
X48954819Y-11088690D01*
X48954819Y-11088690D02*
X48954819Y-10612500D01*
X49050057Y-10279166D02*
X49002438Y-10231547D01*
X49002438Y-10231547D02*
X48954819Y-10136309D01*
X48954819Y-10136309D02*
X48954819Y-9898214D01*
X48954819Y-9898214D02*
X49002438Y-9802976D01*
X49002438Y-9802976D02*
X49050057Y-9755357D01*
X49050057Y-9755357D02*
X49145295Y-9707738D01*
X49145295Y-9707738D02*
X49240533Y-9707738D01*
X49240533Y-9707738D02*
X49383390Y-9755357D01*
X49383390Y-9755357D02*
X49954819Y-10326785D01*
X49954819Y-10326785D02*
X49954819Y-9707738D01*
X49288152Y-8850595D02*
X49954819Y-8850595D01*
X48907200Y-9088690D02*
X49621485Y-9326785D01*
X49621485Y-9326785D02*
X49621485Y-8707738D01*
X49954819Y-7850595D02*
X49954819Y-8326785D01*
X49954819Y-8326785D02*
X48954819Y-8326785D01*
X48954819Y-7326785D02*
X48954819Y-7231547D01*
X48954819Y-7231547D02*
X49002438Y-7136309D01*
X49002438Y-7136309D02*
X49050057Y-7088690D01*
X49050057Y-7088690D02*
X49145295Y-7041071D01*
X49145295Y-7041071D02*
X49335771Y-6993452D01*
X49335771Y-6993452D02*
X49573866Y-6993452D01*
X49573866Y-6993452D02*
X49764342Y-7041071D01*
X49764342Y-7041071D02*
X49859580Y-7088690D01*
X49859580Y-7088690D02*
X49907200Y-7136309D01*
X49907200Y-7136309D02*
X49954819Y-7231547D01*
X49954819Y-7231547D02*
X49954819Y-7326785D01*
X49954819Y-7326785D02*
X49907200Y-7422023D01*
X49907200Y-7422023D02*
X49859580Y-7469642D01*
X49859580Y-7469642D02*
X49764342Y-7517261D01*
X49764342Y-7517261D02*
X49573866Y-7564880D01*
X49573866Y-7564880D02*
X49335771Y-7564880D01*
X49335771Y-7564880D02*
X49145295Y-7517261D01*
X49145295Y-7517261D02*
X49050057Y-7469642D01*
X49050057Y-7469642D02*
X49002438Y-7422023D01*
X49002438Y-7422023D02*
X48954819Y-7326785D01*
X49954819Y-6041071D02*
X49954819Y-6612499D01*
X49954819Y-6326785D02*
X48954819Y-6326785D01*
X48954819Y-6326785D02*
X49097676Y-6422023D01*
X49097676Y-6422023D02*
X49192914Y-6517261D01*
X49192914Y-6517261D02*
X49240533Y-6612499D01*
D11*
X50615000Y-1275000D03*
D12*
X40350000Y-23600000D03*
X42350000Y-23600000D03*
X44350000Y-23600000D03*
X46350000Y-23600000D03*
X120500000Y-56550000D03*
X91000000Y-18825000D03*
X101000000Y-18825000D03*
X96000000Y-16800000D03*
X96000000Y-8200000D03*
X91000000Y-6175000D03*
X101000000Y-6075000D03*
X93500000Y-3770000D03*
X96000000Y-3770000D03*
X98500000Y-3770000D03*
X87270000Y-10000000D03*
X87270000Y-12500000D03*
X87270000Y-15000000D03*
X101750000Y-15750000D03*
X106250000Y-15750000D03*
X101750000Y-9250000D03*
X106250000Y-9250000D03*
X74850000Y-23600000D03*
X76850000Y-23600000D03*
X78850000Y-23600000D03*
X80850000Y-23600000D03*
X37000000Y-103500000D03*
X120500000Y-2550000D03*
X120500000Y-76500000D03*
X5850000Y-50600000D03*
X7850000Y-50600000D03*
X9850000Y-50600000D03*
X11850000Y-50600000D03*
X57000000Y-29550000D03*
X5860000Y-77600000D03*
X7860000Y-77600000D03*
X9860000Y-77600000D03*
X11860000Y-77600000D03*
X71500000Y-2500000D03*
X22500000Y-56550000D03*
X22500000Y-29550000D03*
X57000000Y-83550000D03*
X40350000Y-50600000D03*
X42350000Y-50600000D03*
X44350000Y-50600000D03*
X46350000Y-50600000D03*
X74850000Y-50600000D03*
X76850000Y-50600000D03*
X78850000Y-50600000D03*
X80850000Y-50600000D03*
X5850000Y-23600000D03*
X7850000Y-23600000D03*
X9850000Y-23600000D03*
X11850000Y-23600000D03*
X22500000Y-83550000D03*
X71500000Y-29500000D03*
X71500000Y-22500000D03*
X120500000Y-29550000D03*
X120500000Y-22500000D03*
X120500000Y-49500000D03*
X22500000Y-2550000D03*
D13*
X96000000Y-72125000D03*
X96000000Y-60875000D03*
D12*
X91850000Y-72125000D03*
X91850000Y-60875000D03*
X100150000Y-72125000D03*
X99450000Y-60550000D03*
X89150000Y-66500000D03*
X71500000Y-49500000D03*
X57000000Y-56550000D03*
X40350000Y-77600000D03*
X42350000Y-77600000D03*
X44350000Y-77600000D03*
X46350000Y-77600000D03*
X37000000Y-76500000D03*
X2500000Y-103500000D03*
X37000000Y-49500000D03*
X71500000Y-56500000D03*
X71500000Y-76500000D03*
X43315000Y-57870000D03*
X47125000Y-57870000D03*
X50935000Y-57870000D03*
X40905000Y-85700000D03*
X46685000Y-85700000D03*
D14*
X39475000Y-86230000D03*
X48115000Y-86230000D03*
D15*
X39475000Y-82050000D03*
X48115000Y-82050000D03*
D12*
X57000000Y-2500000D03*
X2500000Y-22500000D03*
X2500000Y-76500000D03*
X5860000Y-104600000D03*
X7860000Y-104600000D03*
X9860000Y-104600000D03*
X11860000Y-104600000D03*
X2500000Y-49500000D03*
X6405000Y-4700000D03*
X12185000Y-4700000D03*
D14*
X4975000Y-5230000D03*
X13615000Y-5230000D03*
D15*
X4975000Y-1050000D03*
X13615000Y-1050000D03*
D12*
X74850000Y-77600000D03*
X76850000Y-77600000D03*
X78850000Y-77600000D03*
X80850000Y-77600000D03*
X37000000Y-22500000D03*
M02*
