%TF.GenerationSoftware,KiCad,Pcbnew,8.0.8*%
%TF.CreationDate,2025-06-12T11:23:45+01:00*%
%TF.ProjectId,LedMatrix,4c65644d-6174-4726-9978-2e6b69636164,rev?*%
%TF.SameCoordinates,Original*%
%TF.FileFunction,Legend,Bot*%
%TF.FilePolarity,Positive*%
%FSLAX46Y46*%
G04 Gerber Fmt 4.6, Leading zero omitted, Abs format (unit mm)*
G04 Created by KiCad (PCBNEW 8.0.8) date 2025-06-12 11:23:45*
%MOMM*%
%LPD*%
G01*
G04 APERTURE LIST*
%ADD10C,0.250000*%
%ADD11C,0.150000*%
%ADD12C,0.120000*%
%ADD13C,0.350000*%
G04 APERTURE END LIST*
D10*
X46618094Y-52981099D02*
X47094284Y-52981099D01*
X47094284Y-52981099D02*
X47094284Y-51981099D01*
X45903808Y-52933480D02*
X45999046Y-52981099D01*
X45999046Y-52981099D02*
X46189522Y-52981099D01*
X46189522Y-52981099D02*
X46284760Y-52933480D01*
X46284760Y-52933480D02*
X46332379Y-52838241D01*
X46332379Y-52838241D02*
X46332379Y-52457289D01*
X46332379Y-52457289D02*
X46284760Y-52362051D01*
X46284760Y-52362051D02*
X46189522Y-52314432D01*
X46189522Y-52314432D02*
X45999046Y-52314432D01*
X45999046Y-52314432D02*
X45903808Y-52362051D01*
X45903808Y-52362051D02*
X45856189Y-52457289D01*
X45856189Y-52457289D02*
X45856189Y-52552527D01*
X45856189Y-52552527D02*
X46332379Y-52647765D01*
X44999046Y-52981099D02*
X44999046Y-51981099D01*
X44999046Y-52933480D02*
X45094284Y-52981099D01*
X45094284Y-52981099D02*
X45284760Y-52981099D01*
X45284760Y-52981099D02*
X45379998Y-52933480D01*
X45379998Y-52933480D02*
X45427617Y-52885860D01*
X45427617Y-52885860D02*
X45475236Y-52790622D01*
X45475236Y-52790622D02*
X45475236Y-52504908D01*
X45475236Y-52504908D02*
X45427617Y-52409670D01*
X45427617Y-52409670D02*
X45379998Y-52362051D01*
X45379998Y-52362051D02*
X45284760Y-52314432D01*
X45284760Y-52314432D02*
X45094284Y-52314432D01*
X45094284Y-52314432D02*
X44999046Y-52362051D01*
X44522855Y-52981099D02*
X44522855Y-51981099D01*
X44522855Y-51981099D02*
X44189522Y-52695384D01*
X44189522Y-52695384D02*
X43856189Y-51981099D01*
X43856189Y-51981099D02*
X43856189Y-52981099D01*
X42951427Y-52981099D02*
X42951427Y-52457289D01*
X42951427Y-52457289D02*
X42999046Y-52362051D01*
X42999046Y-52362051D02*
X43094284Y-52314432D01*
X43094284Y-52314432D02*
X43284760Y-52314432D01*
X43284760Y-52314432D02*
X43379998Y-52362051D01*
X42951427Y-52933480D02*
X43046665Y-52981099D01*
X43046665Y-52981099D02*
X43284760Y-52981099D01*
X43284760Y-52981099D02*
X43379998Y-52933480D01*
X43379998Y-52933480D02*
X43427617Y-52838241D01*
X43427617Y-52838241D02*
X43427617Y-52743003D01*
X43427617Y-52743003D02*
X43379998Y-52647765D01*
X43379998Y-52647765D02*
X43284760Y-52600146D01*
X43284760Y-52600146D02*
X43046665Y-52600146D01*
X43046665Y-52600146D02*
X42951427Y-52552527D01*
X42618093Y-52314432D02*
X42237141Y-52314432D01*
X42475236Y-51981099D02*
X42475236Y-52838241D01*
X42475236Y-52838241D02*
X42427617Y-52933480D01*
X42427617Y-52933480D02*
X42332379Y-52981099D01*
X42332379Y-52981099D02*
X42237141Y-52981099D01*
X41903807Y-52981099D02*
X41903807Y-52314432D01*
X41903807Y-52504908D02*
X41856188Y-52409670D01*
X41856188Y-52409670D02*
X41808569Y-52362051D01*
X41808569Y-52362051D02*
X41713331Y-52314432D01*
X41713331Y-52314432D02*
X41618093Y-52314432D01*
X41284759Y-52981099D02*
X41284759Y-52314432D01*
X41284759Y-51981099D02*
X41332378Y-52028718D01*
X41332378Y-52028718D02*
X41284759Y-52076337D01*
X41284759Y-52076337D02*
X41237140Y-52028718D01*
X41237140Y-52028718D02*
X41284759Y-51981099D01*
X41284759Y-51981099D02*
X41284759Y-52076337D01*
X40903807Y-52981099D02*
X40379998Y-52314432D01*
X40903807Y-52314432D02*
X40379998Y-52981099D01*
X39332378Y-52314432D02*
X39094283Y-52981099D01*
X39094283Y-52981099D02*
X38856188Y-52314432D01*
X38284759Y-51981099D02*
X38189521Y-51981099D01*
X38189521Y-51981099D02*
X38094283Y-52028718D01*
X38094283Y-52028718D02*
X38046664Y-52076337D01*
X38046664Y-52076337D02*
X37999045Y-52171575D01*
X37999045Y-52171575D02*
X37951426Y-52362051D01*
X37951426Y-52362051D02*
X37951426Y-52600146D01*
X37951426Y-52600146D02*
X37999045Y-52790622D01*
X37999045Y-52790622D02*
X38046664Y-52885860D01*
X38046664Y-52885860D02*
X38094283Y-52933480D01*
X38094283Y-52933480D02*
X38189521Y-52981099D01*
X38189521Y-52981099D02*
X38284759Y-52981099D01*
X38284759Y-52981099D02*
X38379997Y-52933480D01*
X38379997Y-52933480D02*
X38427616Y-52885860D01*
X38427616Y-52885860D02*
X38475235Y-52790622D01*
X38475235Y-52790622D02*
X38522854Y-52600146D01*
X38522854Y-52600146D02*
X38522854Y-52362051D01*
X38522854Y-52362051D02*
X38475235Y-52171575D01*
X38475235Y-52171575D02*
X38427616Y-52076337D01*
X38427616Y-52076337D02*
X38379997Y-52028718D01*
X38379997Y-52028718D02*
X38284759Y-51981099D01*
X37522854Y-52885860D02*
X37475235Y-52933480D01*
X37475235Y-52933480D02*
X37522854Y-52981099D01*
X37522854Y-52981099D02*
X37570473Y-52933480D01*
X37570473Y-52933480D02*
X37522854Y-52885860D01*
X37522854Y-52885860D02*
X37522854Y-52981099D01*
X36618093Y-51981099D02*
X36808569Y-51981099D01*
X36808569Y-51981099D02*
X36903807Y-52028718D01*
X36903807Y-52028718D02*
X36951426Y-52076337D01*
X36951426Y-52076337D02*
X37046664Y-52219194D01*
X37046664Y-52219194D02*
X37094283Y-52409670D01*
X37094283Y-52409670D02*
X37094283Y-52790622D01*
X37094283Y-52790622D02*
X37046664Y-52885860D01*
X37046664Y-52885860D02*
X36999045Y-52933480D01*
X36999045Y-52933480D02*
X36903807Y-52981099D01*
X36903807Y-52981099D02*
X36713331Y-52981099D01*
X36713331Y-52981099D02*
X36618093Y-52933480D01*
X36618093Y-52933480D02*
X36570474Y-52885860D01*
X36570474Y-52885860D02*
X36522855Y-52790622D01*
X36522855Y-52790622D02*
X36522855Y-52552527D01*
X36522855Y-52552527D02*
X36570474Y-52457289D01*
X36570474Y-52457289D02*
X36618093Y-52409670D01*
X36618093Y-52409670D02*
X36713331Y-52362051D01*
X36713331Y-52362051D02*
X36903807Y-52362051D01*
X36903807Y-52362051D02*
X36999045Y-52409670D01*
X36999045Y-52409670D02*
X37046664Y-52457289D01*
X37046664Y-52457289D02*
X37094283Y-52552527D01*
D11*
X5444295Y-50645112D02*
X5444295Y-50264160D01*
X5444295Y-50264160D02*
X5825247Y-50226064D01*
X5825247Y-50226064D02*
X5787152Y-50264160D01*
X5787152Y-50264160D02*
X5749057Y-50340350D01*
X5749057Y-50340350D02*
X5749057Y-50530826D01*
X5749057Y-50530826D02*
X5787152Y-50607017D01*
X5787152Y-50607017D02*
X5825247Y-50645112D01*
X5825247Y-50645112D02*
X5901438Y-50683207D01*
X5901438Y-50683207D02*
X6091914Y-50683207D01*
X6091914Y-50683207D02*
X6168104Y-50645112D01*
X6168104Y-50645112D02*
X6206200Y-50607017D01*
X6206200Y-50607017D02*
X6244295Y-50530826D01*
X6244295Y-50530826D02*
X6244295Y-50340350D01*
X6244295Y-50340350D02*
X6206200Y-50264160D01*
X6206200Y-50264160D02*
X6168104Y-50226064D01*
X5444295Y-50911779D02*
X6244295Y-51178446D01*
X6244295Y-51178446D02*
X5444295Y-51445112D01*
X10181200Y-48051064D02*
X10219295Y-48165350D01*
X10219295Y-48165350D02*
X10219295Y-48355826D01*
X10219295Y-48355826D02*
X10181200Y-48432017D01*
X10181200Y-48432017D02*
X10143104Y-48470112D01*
X10143104Y-48470112D02*
X10066914Y-48508207D01*
X10066914Y-48508207D02*
X9990723Y-48508207D01*
X9990723Y-48508207D02*
X9914533Y-48470112D01*
X9914533Y-48470112D02*
X9876438Y-48432017D01*
X9876438Y-48432017D02*
X9838342Y-48355826D01*
X9838342Y-48355826D02*
X9800247Y-48203445D01*
X9800247Y-48203445D02*
X9762152Y-48127255D01*
X9762152Y-48127255D02*
X9724057Y-48089160D01*
X9724057Y-48089160D02*
X9647866Y-48051064D01*
X9647866Y-48051064D02*
X9571676Y-48051064D01*
X9571676Y-48051064D02*
X9495485Y-48089160D01*
X9495485Y-48089160D02*
X9457390Y-48127255D01*
X9457390Y-48127255D02*
X9419295Y-48203445D01*
X9419295Y-48203445D02*
X9419295Y-48393922D01*
X9419295Y-48393922D02*
X9457390Y-48508207D01*
X9419295Y-48774874D02*
X10219295Y-48965350D01*
X10219295Y-48965350D02*
X9647866Y-49117731D01*
X9647866Y-49117731D02*
X10219295Y-49270112D01*
X10219295Y-49270112D02*
X9419295Y-49460589D01*
X10219295Y-49765351D02*
X9419295Y-49765351D01*
X9419295Y-49765351D02*
X9419295Y-49955827D01*
X9419295Y-49955827D02*
X9457390Y-50070113D01*
X9457390Y-50070113D02*
X9533580Y-50146303D01*
X9533580Y-50146303D02*
X9609771Y-50184398D01*
X9609771Y-50184398D02*
X9762152Y-50222494D01*
X9762152Y-50222494D02*
X9876438Y-50222494D01*
X9876438Y-50222494D02*
X10028819Y-50184398D01*
X10028819Y-50184398D02*
X10105009Y-50146303D01*
X10105009Y-50146303D02*
X10181200Y-50070113D01*
X10181200Y-50070113D02*
X10219295Y-49955827D01*
X10219295Y-49955827D02*
X10219295Y-49765351D01*
X10219295Y-50565351D02*
X9419295Y-50565351D01*
X9419295Y-51098684D02*
X9419295Y-51251065D01*
X9419295Y-51251065D02*
X9457390Y-51327255D01*
X9457390Y-51327255D02*
X9533580Y-51403446D01*
X9533580Y-51403446D02*
X9685961Y-51441541D01*
X9685961Y-51441541D02*
X9952628Y-51441541D01*
X9952628Y-51441541D02*
X10105009Y-51403446D01*
X10105009Y-51403446D02*
X10181200Y-51327255D01*
X10181200Y-51327255D02*
X10219295Y-51251065D01*
X10219295Y-51251065D02*
X10219295Y-51098684D01*
X10219295Y-51098684D02*
X10181200Y-51022493D01*
X10181200Y-51022493D02*
X10105009Y-50946303D01*
X10105009Y-50946303D02*
X9952628Y-50908207D01*
X9952628Y-50908207D02*
X9685961Y-50908207D01*
X9685961Y-50908207D02*
X9533580Y-50946303D01*
X9533580Y-50946303D02*
X9457390Y-51022493D01*
X9457390Y-51022493D02*
X9419295Y-51098684D01*
X7507390Y-49783207D02*
X7469295Y-49707017D01*
X7469295Y-49707017D02*
X7469295Y-49592731D01*
X7469295Y-49592731D02*
X7507390Y-49478445D01*
X7507390Y-49478445D02*
X7583580Y-49402255D01*
X7583580Y-49402255D02*
X7659771Y-49364160D01*
X7659771Y-49364160D02*
X7812152Y-49326064D01*
X7812152Y-49326064D02*
X7926438Y-49326064D01*
X7926438Y-49326064D02*
X8078819Y-49364160D01*
X8078819Y-49364160D02*
X8155009Y-49402255D01*
X8155009Y-49402255D02*
X8231200Y-49478445D01*
X8231200Y-49478445D02*
X8269295Y-49592731D01*
X8269295Y-49592731D02*
X8269295Y-49668922D01*
X8269295Y-49668922D02*
X8231200Y-49783207D01*
X8231200Y-49783207D02*
X8193104Y-49821303D01*
X8193104Y-49821303D02*
X7926438Y-49821303D01*
X7926438Y-49821303D02*
X7926438Y-49668922D01*
X8269295Y-50164160D02*
X7469295Y-50164160D01*
X7469295Y-50164160D02*
X8269295Y-50621303D01*
X8269295Y-50621303D02*
X7469295Y-50621303D01*
X8269295Y-51002255D02*
X7469295Y-51002255D01*
X7469295Y-51002255D02*
X7469295Y-51192731D01*
X7469295Y-51192731D02*
X7507390Y-51307017D01*
X7507390Y-51307017D02*
X7583580Y-51383207D01*
X7583580Y-51383207D02*
X7659771Y-51421302D01*
X7659771Y-51421302D02*
X7812152Y-51459398D01*
X7812152Y-51459398D02*
X7926438Y-51459398D01*
X7926438Y-51459398D02*
X8078819Y-51421302D01*
X8078819Y-51421302D02*
X8155009Y-51383207D01*
X8155009Y-51383207D02*
X8231200Y-51307017D01*
X8231200Y-51307017D02*
X8269295Y-51192731D01*
X8269295Y-51192731D02*
X8269295Y-51002255D01*
X12218104Y-49971303D02*
X12256200Y-49933207D01*
X12256200Y-49933207D02*
X12294295Y-49818922D01*
X12294295Y-49818922D02*
X12294295Y-49742731D01*
X12294295Y-49742731D02*
X12256200Y-49628445D01*
X12256200Y-49628445D02*
X12180009Y-49552255D01*
X12180009Y-49552255D02*
X12103819Y-49514160D01*
X12103819Y-49514160D02*
X11951438Y-49476064D01*
X11951438Y-49476064D02*
X11837152Y-49476064D01*
X11837152Y-49476064D02*
X11684771Y-49514160D01*
X11684771Y-49514160D02*
X11608580Y-49552255D01*
X11608580Y-49552255D02*
X11532390Y-49628445D01*
X11532390Y-49628445D02*
X11494295Y-49742731D01*
X11494295Y-49742731D02*
X11494295Y-49818922D01*
X11494295Y-49818922D02*
X11532390Y-49933207D01*
X11532390Y-49933207D02*
X11570485Y-49971303D01*
X12294295Y-50695112D02*
X12294295Y-50314160D01*
X12294295Y-50314160D02*
X11494295Y-50314160D01*
X12294295Y-50961779D02*
X11494295Y-50961779D01*
X12294295Y-51418922D02*
X11837152Y-51076064D01*
X11494295Y-51418922D02*
X11951438Y-50961779D01*
D12*
%TO.C,U2*%
X29302500Y-44305000D02*
X29062500Y-43975000D01*
X29542500Y-43975000D01*
X29302500Y-44305000D01*
G36*
X29302500Y-44305000D02*
G01*
X29062500Y-43975000D01*
X29542500Y-43975000D01*
X29302500Y-44305000D01*
G37*
%TD*%
D13*
X51500000Y-51500000D03*
X51500000Y-2550000D03*
X2500000Y-2500000D03*
X5850000Y-52600000D03*
X7850000Y-52600000D03*
X9850000Y-52600000D03*
X11850000Y-52600000D03*
X2500000Y-51500000D03*
M02*
