%TF.GenerationSoftware,KiCad,Pcbnew,8.0.8*%
%TF.CreationDate,2025-06-12T11:23:45+01:00*%
%TF.ProjectId,LedMatrix,4c65644d-6174-4726-9978-2e6b69636164,rev?*%
%TF.SameCoordinates,Original*%
%TF.FileFunction,Legend,Top*%
%TF.FilePolarity,Positive*%
%FSLAX46Y46*%
G04 Gerber Fmt 4.6, Leading zero omitted, Abs format (unit mm)*
G04 Created by KiCad (PCBNEW 8.0.8) date 2025-06-12 11:23:45*
%MOMM*%
%LPD*%
G01*
G04 APERTURE LIST*
%ADD10C,0.100000*%
%ADD11C,0.120000*%
%ADD12C,0.350000*%
G04 APERTURE END LIST*
D10*
%TO.C,D34*%
X38820000Y-31440000D02*
X38820000Y-32210000D01*
X38820000Y-32210000D02*
X39820000Y-31440000D01*
X39820000Y-31440000D02*
X38820000Y-31440000D01*
X42689200Y-36083800D02*
X41586200Y-36083800D01*
X42700000Y-34100000D02*
X42700000Y-33180000D01*
D11*
X41510868Y-35530000D02*
G75*
G02*
X41049132Y-35530000I-230868J0D01*
G01*
X41049132Y-35530000D02*
G75*
G02*
X41510868Y-35530000I230868J0D01*
G01*
D10*
%TO.C,D48*%
X38820000Y-44680000D02*
X38820000Y-45450000D01*
X38820000Y-45450000D02*
X39820000Y-44680000D01*
X39820000Y-44680000D02*
X38820000Y-44680000D01*
X42689200Y-49323800D02*
X41586200Y-49323800D01*
X42700000Y-47340000D02*
X42700000Y-46420000D01*
D11*
X41510868Y-48770000D02*
G75*
G02*
X41049132Y-48770000I-230868J0D01*
G01*
X41049132Y-48770000D02*
G75*
G02*
X41510868Y-48770000I230868J0D01*
G01*
D10*
%TO.C,D12*%
X31080000Y-13200000D02*
X31080000Y-14120000D01*
X31090800Y-11216200D02*
X32193800Y-11216200D01*
X33960000Y-15860000D02*
X34960000Y-15860000D01*
X34960000Y-15090000D02*
X33960000Y-15860000D01*
X34960000Y-15860000D02*
X34960000Y-15090000D01*
D11*
X32730868Y-11770000D02*
G75*
G02*
X32269132Y-11770000I-230868J0D01*
G01*
X32269132Y-11770000D02*
G75*
G02*
X32730868Y-11770000I230868J0D01*
G01*
D10*
%TO.C,D2*%
X12340000Y-4960000D02*
X12340000Y-5730000D01*
X12340000Y-5730000D02*
X13340000Y-4960000D01*
X13340000Y-4960000D02*
X12340000Y-4960000D01*
X16209200Y-9603800D02*
X15106200Y-9603800D01*
X16220000Y-7620000D02*
X16220000Y-6700000D01*
D11*
X15030868Y-9050000D02*
G75*
G02*
X14569132Y-9050000I-230868J0D01*
G01*
X14569132Y-9050000D02*
G75*
G02*
X15030868Y-9050000I230868J0D01*
G01*
D10*
%TO.C,D37*%
X11580000Y-40580000D02*
X11580000Y-41580000D01*
X11580000Y-41580000D02*
X12350000Y-41580000D01*
X12350000Y-41580000D02*
X11580000Y-40580000D01*
X14240000Y-37700000D02*
X13320000Y-37700000D01*
X16223800Y-37710800D02*
X16223800Y-38813800D01*
D11*
X15900868Y-39120000D02*
G75*
G02*
X15439132Y-39120000I-230868J0D01*
G01*
X15439132Y-39120000D02*
G75*
G02*
X15900868Y-39120000I230868J0D01*
G01*
D10*
%TO.C,D47*%
X31076200Y-49309200D02*
X31076200Y-48206200D01*
X33060000Y-49320000D02*
X33980000Y-49320000D01*
X34950000Y-45440000D02*
X35720000Y-46440000D01*
X35720000Y-45440000D02*
X34950000Y-45440000D01*
X35720000Y-46440000D02*
X35720000Y-45440000D01*
D11*
X31860868Y-47900000D02*
G75*
G02*
X31399132Y-47900000I-230868J0D01*
G01*
X31399132Y-47900000D02*
G75*
G02*
X31860868Y-47900000I230868J0D01*
G01*
D10*
%TO.C,D39*%
X24820000Y-40580000D02*
X24820000Y-41580000D01*
X24820000Y-41580000D02*
X25590000Y-41580000D01*
X25590000Y-41580000D02*
X24820000Y-40580000D01*
X27480000Y-37700000D02*
X26560000Y-37700000D01*
X29463800Y-37710800D02*
X29463800Y-38813800D01*
D11*
X29140868Y-39120000D02*
G75*
G02*
X28679132Y-39120000I-230868J0D01*
G01*
X28679132Y-39120000D02*
G75*
G02*
X29140868Y-39120000I230868J0D01*
G01*
D10*
%TO.C,D42*%
X44320000Y-39680000D02*
X44320000Y-40600000D01*
X44330800Y-37696200D02*
X45433800Y-37696200D01*
X47200000Y-42340000D02*
X48200000Y-42340000D01*
X48200000Y-41570000D02*
X47200000Y-42340000D01*
X48200000Y-42340000D02*
X48200000Y-41570000D01*
D11*
X45970868Y-38250000D02*
G75*
G02*
X45509132Y-38250000I-230868J0D01*
G01*
X45509132Y-38250000D02*
G75*
G02*
X45970868Y-38250000I230868J0D01*
G01*
D10*
%TO.C,D11*%
X24820000Y-14100000D02*
X24820000Y-15100000D01*
X24820000Y-15100000D02*
X25590000Y-15100000D01*
X25590000Y-15100000D02*
X24820000Y-14100000D01*
X27480000Y-11220000D02*
X26560000Y-11220000D01*
X29463800Y-11230800D02*
X29463800Y-12333800D01*
D11*
X29140868Y-12640000D02*
G75*
G02*
X28679132Y-12640000I-230868J0D01*
G01*
X28679132Y-12640000D02*
G75*
G02*
X29140868Y-12640000I230868J0D01*
G01*
D10*
%TO.C,D3*%
X17836200Y-9589200D02*
X17836200Y-8486200D01*
X19820000Y-9600000D02*
X20740000Y-9600000D01*
X21710000Y-5720000D02*
X22480000Y-6720000D01*
X22480000Y-5720000D02*
X21710000Y-5720000D01*
X22480000Y-6720000D02*
X22480000Y-5720000D01*
D11*
X18620868Y-8180000D02*
G75*
G02*
X18159132Y-8180000I-230868J0D01*
G01*
X18159132Y-8180000D02*
G75*
G02*
X18620868Y-8180000I230868J0D01*
G01*
D10*
%TO.C,D18*%
X25580000Y-18200000D02*
X25580000Y-18970000D01*
X25580000Y-18970000D02*
X26580000Y-18200000D01*
X26580000Y-18200000D02*
X25580000Y-18200000D01*
X29449200Y-22843800D02*
X28346200Y-22843800D01*
X29460000Y-20860000D02*
X29460000Y-19940000D01*
D11*
X28270868Y-22290000D02*
G75*
G02*
X27809132Y-22290000I-230868J0D01*
G01*
X27809132Y-22290000D02*
G75*
G02*
X28270868Y-22290000I230868J0D01*
G01*
D10*
%TO.C,D16*%
X12340000Y-18200000D02*
X12340000Y-18970000D01*
X12340000Y-18970000D02*
X13340000Y-18200000D01*
X13340000Y-18200000D02*
X12340000Y-18200000D01*
X16209200Y-22843800D02*
X15106200Y-22843800D01*
X16220000Y-20860000D02*
X16220000Y-19940000D01*
D11*
X15030868Y-22290000D02*
G75*
G02*
X14569132Y-22290000I-230868J0D01*
G01*
X14569132Y-22290000D02*
G75*
G02*
X15030868Y-22290000I230868J0D01*
G01*
D10*
%TO.C,D15*%
X4596200Y-22829200D02*
X4596200Y-21726200D01*
X6580000Y-22840000D02*
X7500000Y-22840000D01*
X8470000Y-18960000D02*
X9240000Y-19960000D01*
X9240000Y-18960000D02*
X8470000Y-18960000D01*
X9240000Y-19960000D02*
X9240000Y-18960000D01*
D11*
X5380868Y-21420000D02*
G75*
G02*
X4919132Y-21420000I-230868J0D01*
G01*
X4919132Y-21420000D02*
G75*
G02*
X5380868Y-21420000I230868J0D01*
G01*
D10*
%TO.C,D29*%
X4596200Y-36069200D02*
X4596200Y-34966200D01*
X6580000Y-36080000D02*
X7500000Y-36080000D01*
X8470000Y-32200000D02*
X9240000Y-33200000D01*
X9240000Y-32200000D02*
X8470000Y-32200000D01*
X9240000Y-33200000D02*
X9240000Y-32200000D01*
D11*
X5380868Y-34660000D02*
G75*
G02*
X4919132Y-34660000I-230868J0D01*
G01*
X4919132Y-34660000D02*
G75*
G02*
X5380868Y-34660000I230868J0D01*
G01*
D10*
%TO.C,D17*%
X17836200Y-22829200D02*
X17836200Y-21726200D01*
X19820000Y-22840000D02*
X20740000Y-22840000D01*
X21710000Y-18960000D02*
X22480000Y-19960000D01*
X22480000Y-18960000D02*
X21710000Y-18960000D01*
X22480000Y-19960000D02*
X22480000Y-18960000D01*
D11*
X18620868Y-21420000D02*
G75*
G02*
X18159132Y-21420000I-230868J0D01*
G01*
X18159132Y-21420000D02*
G75*
G02*
X18620868Y-21420000I230868J0D01*
G01*
D10*
%TO.C,D38*%
X17840000Y-39680000D02*
X17840000Y-40600000D01*
X17850800Y-37696200D02*
X18953800Y-37696200D01*
X20720000Y-42340000D02*
X21720000Y-42340000D01*
X21720000Y-41570000D02*
X20720000Y-42340000D01*
X21720000Y-42340000D02*
X21720000Y-41570000D01*
D11*
X19490868Y-38250000D02*
G75*
G02*
X19029132Y-38250000I-230868J0D01*
G01*
X19029132Y-38250000D02*
G75*
G02*
X19490868Y-38250000I230868J0D01*
G01*
D10*
%TO.C,D28*%
X44320000Y-26440000D02*
X44320000Y-27360000D01*
X44330800Y-24456200D02*
X45433800Y-24456200D01*
X47200000Y-29100000D02*
X48200000Y-29100000D01*
X48200000Y-28330000D02*
X47200000Y-29100000D01*
X48200000Y-29100000D02*
X48200000Y-28330000D01*
D11*
X45970868Y-25010000D02*
G75*
G02*
X45509132Y-25010000I-230868J0D01*
G01*
X45509132Y-25010000D02*
G75*
G02*
X45970868Y-25010000I230868J0D01*
G01*
D10*
%TO.C,D4*%
X25580000Y-4960000D02*
X25580000Y-5730000D01*
X25580000Y-5730000D02*
X26580000Y-4960000D01*
X26580000Y-4960000D02*
X25580000Y-4960000D01*
X29449200Y-9603800D02*
X28346200Y-9603800D01*
X29460000Y-7620000D02*
X29460000Y-6700000D01*
D11*
X28270868Y-9050000D02*
G75*
G02*
X27809132Y-9050000I-230868J0D01*
G01*
X27809132Y-9050000D02*
G75*
G02*
X28270868Y-9050000I230868J0D01*
G01*
D10*
%TO.C,D36*%
X4600000Y-39680000D02*
X4600000Y-40600000D01*
X4610800Y-37696200D02*
X5713800Y-37696200D01*
X7480000Y-42340000D02*
X8480000Y-42340000D01*
X8480000Y-41570000D02*
X7480000Y-42340000D01*
X8480000Y-42340000D02*
X8480000Y-41570000D01*
D11*
X6250868Y-38250000D02*
G75*
G02*
X5789132Y-38250000I-230868J0D01*
G01*
X5789132Y-38250000D02*
G75*
G02*
X6250868Y-38250000I230868J0D01*
G01*
D10*
%TO.C,D43*%
X4596200Y-49309200D02*
X4596200Y-48206200D01*
X6580000Y-49320000D02*
X7500000Y-49320000D01*
X8470000Y-45440000D02*
X9240000Y-46440000D01*
X9240000Y-45440000D02*
X8470000Y-45440000D01*
X9240000Y-46440000D02*
X9240000Y-45440000D01*
D11*
X5380868Y-47900000D02*
G75*
G02*
X4919132Y-47900000I-230868J0D01*
G01*
X4919132Y-47900000D02*
G75*
G02*
X5380868Y-47900000I230868J0D01*
G01*
D10*
%TO.C,D21*%
X44316200Y-22829200D02*
X44316200Y-21726200D01*
X46300000Y-22840000D02*
X47220000Y-22840000D01*
X48190000Y-18960000D02*
X48960000Y-19960000D01*
X48960000Y-18960000D02*
X48190000Y-18960000D01*
X48960000Y-19960000D02*
X48960000Y-18960000D01*
D11*
X45100868Y-21420000D02*
G75*
G02*
X44639132Y-21420000I-230868J0D01*
G01*
X44639132Y-21420000D02*
G75*
G02*
X45100868Y-21420000I230868J0D01*
G01*
D10*
%TO.C,D14*%
X44320000Y-13200000D02*
X44320000Y-14120000D01*
X44330800Y-11216200D02*
X45433800Y-11216200D01*
X47200000Y-15860000D02*
X48200000Y-15860000D01*
X48200000Y-15090000D02*
X47200000Y-15860000D01*
X48200000Y-15860000D02*
X48200000Y-15090000D01*
D11*
X45970868Y-11770000D02*
G75*
G02*
X45509132Y-11770000I-230868J0D01*
G01*
X45509132Y-11770000D02*
G75*
G02*
X45970868Y-11770000I230868J0D01*
G01*
D10*
%TO.C,D26*%
X31080000Y-26440000D02*
X31080000Y-27360000D01*
X31090800Y-24456200D02*
X32193800Y-24456200D01*
X33960000Y-29100000D02*
X34960000Y-29100000D01*
X34960000Y-28330000D02*
X33960000Y-29100000D01*
X34960000Y-29100000D02*
X34960000Y-28330000D01*
D11*
X32730868Y-25010000D02*
G75*
G02*
X32269132Y-25010000I-230868J0D01*
G01*
X32269132Y-25010000D02*
G75*
G02*
X32730868Y-25010000I230868J0D01*
G01*
D10*
%TO.C,D24*%
X17840000Y-26440000D02*
X17840000Y-27360000D01*
X17850800Y-24456200D02*
X18953800Y-24456200D01*
X20720000Y-29100000D02*
X21720000Y-29100000D01*
X21720000Y-28330000D02*
X20720000Y-29100000D01*
X21720000Y-29100000D02*
X21720000Y-28330000D01*
D11*
X19490868Y-25010000D02*
G75*
G02*
X19029132Y-25010000I-230868J0D01*
G01*
X19029132Y-25010000D02*
G75*
G02*
X19490868Y-25010000I230868J0D01*
G01*
D10*
%TO.C,D8*%
X4600000Y-13200000D02*
X4600000Y-14120000D01*
X4610800Y-11216200D02*
X5713800Y-11216200D01*
X7480000Y-15860000D02*
X8480000Y-15860000D01*
X8480000Y-15090000D02*
X7480000Y-15860000D01*
X8480000Y-15860000D02*
X8480000Y-15090000D01*
D11*
X6250868Y-11770000D02*
G75*
G02*
X5789132Y-11770000I-230868J0D01*
G01*
X5789132Y-11770000D02*
G75*
G02*
X6250868Y-11770000I230868J0D01*
G01*
D10*
%TO.C,D22*%
X4600000Y-26440000D02*
X4600000Y-27360000D01*
X4610800Y-24456200D02*
X5713800Y-24456200D01*
X7480000Y-29100000D02*
X8480000Y-29100000D01*
X8480000Y-28330000D02*
X7480000Y-29100000D01*
X8480000Y-29100000D02*
X8480000Y-28330000D01*
D11*
X6250868Y-25010000D02*
G75*
G02*
X5789132Y-25010000I-230868J0D01*
G01*
X5789132Y-25010000D02*
G75*
G02*
X6250868Y-25010000I230868J0D01*
G01*
D10*
%TO.C,D40*%
X31080000Y-39680000D02*
X31080000Y-40600000D01*
X31090800Y-37696200D02*
X32193800Y-37696200D01*
X33960000Y-42340000D02*
X34960000Y-42340000D01*
X34960000Y-41570000D02*
X33960000Y-42340000D01*
X34960000Y-42340000D02*
X34960000Y-41570000D01*
D11*
X32730868Y-38250000D02*
G75*
G02*
X32269132Y-38250000I-230868J0D01*
G01*
X32269132Y-38250000D02*
G75*
G02*
X32730868Y-38250000I230868J0D01*
G01*
D10*
%TO.C,D32*%
X25580000Y-31440000D02*
X25580000Y-32210000D01*
X25580000Y-32210000D02*
X26580000Y-31440000D01*
X26580000Y-31440000D02*
X25580000Y-31440000D01*
X29449200Y-36083800D02*
X28346200Y-36083800D01*
X29460000Y-34100000D02*
X29460000Y-33180000D01*
D11*
X28270868Y-35530000D02*
G75*
G02*
X27809132Y-35530000I-230868J0D01*
G01*
X27809132Y-35530000D02*
G75*
G02*
X28270868Y-35530000I230868J0D01*
G01*
D10*
%TO.C,D6*%
X38820000Y-4960000D02*
X38820000Y-5730000D01*
X38820000Y-5730000D02*
X39820000Y-4960000D01*
X39820000Y-4960000D02*
X38820000Y-4960000D01*
X42689200Y-9603800D02*
X41586200Y-9603800D01*
X42700000Y-7620000D02*
X42700000Y-6700000D01*
D11*
X41510868Y-9050000D02*
G75*
G02*
X41049132Y-9050000I-230868J0D01*
G01*
X41049132Y-9050000D02*
G75*
G02*
X41510868Y-9050000I230868J0D01*
G01*
D10*
%TO.C,D10*%
X17840000Y-13200000D02*
X17840000Y-14120000D01*
X17850800Y-11216200D02*
X18953800Y-11216200D01*
X20720000Y-15860000D02*
X21720000Y-15860000D01*
X21720000Y-15090000D02*
X20720000Y-15860000D01*
X21720000Y-15860000D02*
X21720000Y-15090000D01*
D11*
X19490868Y-11770000D02*
G75*
G02*
X19029132Y-11770000I-230868J0D01*
G01*
X19029132Y-11770000D02*
G75*
G02*
X19490868Y-11770000I230868J0D01*
G01*
D10*
%TO.C,D49*%
X44316200Y-49309200D02*
X44316200Y-48206200D01*
X46300000Y-49320000D02*
X47220000Y-49320000D01*
X48190000Y-45440000D02*
X48960000Y-46440000D01*
X48960000Y-45440000D02*
X48190000Y-45440000D01*
X48960000Y-46440000D02*
X48960000Y-45440000D01*
D11*
X45100868Y-47900000D02*
G75*
G02*
X44639132Y-47900000I-230868J0D01*
G01*
X44639132Y-47900000D02*
G75*
G02*
X45100868Y-47900000I230868J0D01*
G01*
D10*
%TO.C,D44*%
X12340000Y-44680000D02*
X12340000Y-45450000D01*
X12340000Y-45450000D02*
X13340000Y-44680000D01*
X13340000Y-44680000D02*
X12340000Y-44680000D01*
X16209200Y-49323800D02*
X15106200Y-49323800D01*
X16220000Y-47340000D02*
X16220000Y-46420000D01*
D11*
X15030868Y-48770000D02*
G75*
G02*
X14569132Y-48770000I-230868J0D01*
G01*
X14569132Y-48770000D02*
G75*
G02*
X15030868Y-48770000I230868J0D01*
G01*
D10*
%TO.C,D41*%
X38060000Y-40580000D02*
X38060000Y-41580000D01*
X38060000Y-41580000D02*
X38830000Y-41580000D01*
X38830000Y-41580000D02*
X38060000Y-40580000D01*
X40720000Y-37700000D02*
X39800000Y-37700000D01*
X42703800Y-37710800D02*
X42703800Y-38813800D01*
D11*
X42380868Y-39120000D02*
G75*
G02*
X41919132Y-39120000I-230868J0D01*
G01*
X41919132Y-39120000D02*
G75*
G02*
X42380868Y-39120000I230868J0D01*
G01*
D10*
%TO.C,D35*%
X44316200Y-36069200D02*
X44316200Y-34966200D01*
X46300000Y-36080000D02*
X47220000Y-36080000D01*
X48190000Y-32200000D02*
X48960000Y-33200000D01*
X48960000Y-32200000D02*
X48190000Y-32200000D01*
X48960000Y-33200000D02*
X48960000Y-32200000D01*
D11*
X45100868Y-34660000D02*
G75*
G02*
X44639132Y-34660000I-230868J0D01*
G01*
X44639132Y-34660000D02*
G75*
G02*
X45100868Y-34660000I230868J0D01*
G01*
D10*
%TO.C,D31*%
X17836200Y-36069200D02*
X17836200Y-34966200D01*
X19820000Y-36080000D02*
X20740000Y-36080000D01*
X21710000Y-32200000D02*
X22480000Y-33200000D01*
X22480000Y-32200000D02*
X21710000Y-32200000D01*
X22480000Y-33200000D02*
X22480000Y-32200000D01*
D11*
X18620868Y-34660000D02*
G75*
G02*
X18159132Y-34660000I-230868J0D01*
G01*
X18159132Y-34660000D02*
G75*
G02*
X18620868Y-34660000I230868J0D01*
G01*
D10*
%TO.C,D33*%
X31076200Y-36069200D02*
X31076200Y-34966200D01*
X33060000Y-36080000D02*
X33980000Y-36080000D01*
X34950000Y-32200000D02*
X35720000Y-33200000D01*
X35720000Y-32200000D02*
X34950000Y-32200000D01*
X35720000Y-33200000D02*
X35720000Y-32200000D01*
D11*
X31860868Y-34660000D02*
G75*
G02*
X31399132Y-34660000I-230868J0D01*
G01*
X31399132Y-34660000D02*
G75*
G02*
X31860868Y-34660000I230868J0D01*
G01*
D10*
%TO.C,D20*%
X38820000Y-18200000D02*
X38820000Y-18970000D01*
X38820000Y-18970000D02*
X39820000Y-18200000D01*
X39820000Y-18200000D02*
X38820000Y-18200000D01*
X42689200Y-22843800D02*
X41586200Y-22843800D01*
X42700000Y-20860000D02*
X42700000Y-19940000D01*
D11*
X41510868Y-22290000D02*
G75*
G02*
X41049132Y-22290000I-230868J0D01*
G01*
X41049132Y-22290000D02*
G75*
G02*
X41510868Y-22290000I230868J0D01*
G01*
D10*
%TO.C,D30*%
X12340000Y-31440000D02*
X12340000Y-32210000D01*
X12340000Y-32210000D02*
X13340000Y-31440000D01*
X13340000Y-31440000D02*
X12340000Y-31440000D01*
X16209200Y-36083800D02*
X15106200Y-36083800D01*
X16220000Y-34100000D02*
X16220000Y-33180000D01*
D11*
X15030868Y-35530000D02*
G75*
G02*
X14569132Y-35530000I-230868J0D01*
G01*
X14569132Y-35530000D02*
G75*
G02*
X15030868Y-35530000I230868J0D01*
G01*
D10*
%TO.C,D46*%
X25580000Y-44680000D02*
X25580000Y-45450000D01*
X25580000Y-45450000D02*
X26580000Y-44680000D01*
X26580000Y-44680000D02*
X25580000Y-44680000D01*
X29449200Y-49323800D02*
X28346200Y-49323800D01*
X29460000Y-47340000D02*
X29460000Y-46420000D01*
D11*
X28270868Y-48770000D02*
G75*
G02*
X27809132Y-48770000I-230868J0D01*
G01*
X27809132Y-48770000D02*
G75*
G02*
X28270868Y-48770000I230868J0D01*
G01*
D10*
%TO.C,D9*%
X11580000Y-14100000D02*
X11580000Y-15100000D01*
X11580000Y-15100000D02*
X12350000Y-15100000D01*
X12350000Y-15100000D02*
X11580000Y-14100000D01*
X14240000Y-11220000D02*
X13320000Y-11220000D01*
X16223800Y-11230800D02*
X16223800Y-12333800D01*
D11*
X15900868Y-12640000D02*
G75*
G02*
X15439132Y-12640000I-230868J0D01*
G01*
X15439132Y-12640000D02*
G75*
G02*
X15900868Y-12640000I230868J0D01*
G01*
D10*
%TO.C,D27*%
X38060000Y-27340000D02*
X38060000Y-28340000D01*
X38060000Y-28340000D02*
X38830000Y-28340000D01*
X38830000Y-28340000D02*
X38060000Y-27340000D01*
X40720000Y-24460000D02*
X39800000Y-24460000D01*
X42703800Y-24470800D02*
X42703800Y-25573800D01*
D11*
X42380868Y-25880000D02*
G75*
G02*
X41919132Y-25880000I-230868J0D01*
G01*
X41919132Y-25880000D02*
G75*
G02*
X42380868Y-25880000I230868J0D01*
G01*
D10*
%TO.C,D13*%
X38060000Y-14100000D02*
X38060000Y-15100000D01*
X38060000Y-15100000D02*
X38830000Y-15100000D01*
X38830000Y-15100000D02*
X38060000Y-14100000D01*
X40720000Y-11220000D02*
X39800000Y-11220000D01*
X42703800Y-11230800D02*
X42703800Y-12333800D01*
D11*
X42380868Y-12640000D02*
G75*
G02*
X41919132Y-12640000I-230868J0D01*
G01*
X41919132Y-12640000D02*
G75*
G02*
X42380868Y-12640000I230868J0D01*
G01*
D10*
%TO.C,D23*%
X11580000Y-27340000D02*
X11580000Y-28340000D01*
X11580000Y-28340000D02*
X12350000Y-28340000D01*
X12350000Y-28340000D02*
X11580000Y-27340000D01*
X14240000Y-24460000D02*
X13320000Y-24460000D01*
X16223800Y-24470800D02*
X16223800Y-25573800D01*
D11*
X15900868Y-25880000D02*
G75*
G02*
X15439132Y-25880000I-230868J0D01*
G01*
X15439132Y-25880000D02*
G75*
G02*
X15900868Y-25880000I230868J0D01*
G01*
D10*
%TO.C,D1*%
X4596200Y-9589200D02*
X4596200Y-8486200D01*
X6580000Y-9600000D02*
X7500000Y-9600000D01*
X8470000Y-5720000D02*
X9240000Y-6720000D01*
X9240000Y-5720000D02*
X8470000Y-5720000D01*
X9240000Y-6720000D02*
X9240000Y-5720000D01*
D11*
X5380868Y-8180000D02*
G75*
G02*
X4919132Y-8180000I-230868J0D01*
G01*
X4919132Y-8180000D02*
G75*
G02*
X5380868Y-8180000I230868J0D01*
G01*
D10*
%TO.C,D25*%
X24820000Y-27340000D02*
X24820000Y-28340000D01*
X24820000Y-28340000D02*
X25590000Y-28340000D01*
X25590000Y-28340000D02*
X24820000Y-27340000D01*
X27480000Y-24460000D02*
X26560000Y-24460000D01*
X29463800Y-24470800D02*
X29463800Y-25573800D01*
D11*
X29140868Y-25880000D02*
G75*
G02*
X28679132Y-25880000I-230868J0D01*
G01*
X28679132Y-25880000D02*
G75*
G02*
X29140868Y-25880000I230868J0D01*
G01*
D10*
%TO.C,D19*%
X31076200Y-22829200D02*
X31076200Y-21726200D01*
X33060000Y-22840000D02*
X33980000Y-22840000D01*
X34950000Y-18960000D02*
X35720000Y-19960000D01*
X35720000Y-18960000D02*
X34950000Y-18960000D01*
X35720000Y-19960000D02*
X35720000Y-18960000D01*
D11*
X31860868Y-21420000D02*
G75*
G02*
X31399132Y-21420000I-230868J0D01*
G01*
X31399132Y-21420000D02*
G75*
G02*
X31860868Y-21420000I230868J0D01*
G01*
D10*
%TO.C,D7*%
X44316200Y-9589200D02*
X44316200Y-8486200D01*
X46300000Y-9600000D02*
X47220000Y-9600000D01*
X48190000Y-5720000D02*
X48960000Y-6720000D01*
X48960000Y-5720000D02*
X48190000Y-5720000D01*
X48960000Y-6720000D02*
X48960000Y-5720000D01*
D11*
X45100868Y-8180000D02*
G75*
G02*
X44639132Y-8180000I-230868J0D01*
G01*
X44639132Y-8180000D02*
G75*
G02*
X45100868Y-8180000I230868J0D01*
G01*
D10*
%TO.C,D5*%
X31076200Y-9589200D02*
X31076200Y-8486200D01*
X33060000Y-9600000D02*
X33980000Y-9600000D01*
X34950000Y-5720000D02*
X35720000Y-6720000D01*
X35720000Y-5720000D02*
X34950000Y-5720000D01*
X35720000Y-6720000D02*
X35720000Y-5720000D01*
D11*
X31860868Y-8180000D02*
G75*
G02*
X31399132Y-8180000I-230868J0D01*
G01*
X31399132Y-8180000D02*
G75*
G02*
X31860868Y-8180000I230868J0D01*
G01*
D10*
%TO.C,D45*%
X17836200Y-49309200D02*
X17836200Y-48206200D01*
X19820000Y-49320000D02*
X20740000Y-49320000D01*
X21710000Y-45440000D02*
X22480000Y-46440000D01*
X22480000Y-45440000D02*
X21710000Y-45440000D01*
X22480000Y-46440000D02*
X22480000Y-45440000D01*
D11*
X18620868Y-47900000D02*
G75*
G02*
X18159132Y-47900000I-230868J0D01*
G01*
X18159132Y-47900000D02*
G75*
G02*
X18620868Y-47900000I230868J0D01*
G01*
%TD*%
D12*
X51500000Y-51500000D03*
X51500000Y-2550000D03*
X2500000Y-2500000D03*
X5850000Y-52600000D03*
X7850000Y-52600000D03*
X9850000Y-52600000D03*
X11850000Y-52600000D03*
X2500000Y-51500000D03*
M02*
