%TF.GenerationSoftware,KiCad,Pcbnew,8.0.8*%
%TF.CreationDate,2025-07-09T11:23:43+01:00*%
%TF.ProjectId,Motor,4d6f746f-722e-46b6-9963-61645f706362,rev?*%
%TF.SameCoordinates,Original*%
%TF.FileFunction,Other,ECO1*%
%FSLAX46Y46*%
G04 Gerber Fmt 4.6, Leading zero omitted, Abs format (unit mm)*
G04 Created by KiCad (PCBNEW 8.0.8) date 2025-07-09 11:23:43*
%MOMM*%
%LPD*%
G01*
G04 APERTURE LIST*
%ADD10C,0.075000*%
%ADD11C,0.150000*%
%ADD12C,0.300000*%
%ADD13C,0.350000*%
G04 APERTURE END LIST*
D10*
X15778572Y-7399885D02*
X15778572Y-7599885D01*
X15707143Y-7285600D02*
X15635714Y-7499885D01*
X15635714Y-7499885D02*
X15821429Y-7499885D01*
X15935714Y-7571314D02*
X15950000Y-7585600D01*
X15950000Y-7585600D02*
X15935714Y-7599885D01*
X15935714Y-7599885D02*
X15921428Y-7585600D01*
X15921428Y-7585600D02*
X15935714Y-7571314D01*
X15935714Y-7571314D02*
X15935714Y-7599885D01*
X16050000Y-7299885D02*
X16250000Y-7299885D01*
X16250000Y-7299885D02*
X16121428Y-7599885D01*
X16492857Y-7399885D02*
X16492857Y-7599885D01*
X16364285Y-7399885D02*
X16364285Y-7557028D01*
X16364285Y-7557028D02*
X16378571Y-7585600D01*
X16378571Y-7585600D02*
X16407142Y-7599885D01*
X16407142Y-7599885D02*
X16449999Y-7599885D01*
X16449999Y-7599885D02*
X16478571Y-7585600D01*
X16478571Y-7585600D02*
X16492857Y-7571314D01*
X16735714Y-7442742D02*
X16635714Y-7442742D01*
X16635714Y-7599885D02*
X16635714Y-7299885D01*
X16635714Y-7299885D02*
X16778571Y-7299885D01*
X556901Y-20519382D02*
X456901Y-20519382D01*
X456901Y-20676525D02*
X456901Y-20376525D01*
X456901Y-20376525D02*
X599758Y-20376525D01*
X814044Y-20519382D02*
X714044Y-20519382D01*
X714044Y-20676525D02*
X714044Y-20376525D01*
X714044Y-20376525D02*
X856901Y-20376525D01*
X1142616Y-20647954D02*
X1128330Y-20662240D01*
X1128330Y-20662240D02*
X1085473Y-20676525D01*
X1085473Y-20676525D02*
X1056901Y-20676525D01*
X1056901Y-20676525D02*
X1014044Y-20662240D01*
X1014044Y-20662240D02*
X985473Y-20633668D01*
X985473Y-20633668D02*
X971187Y-20605097D01*
X971187Y-20605097D02*
X956901Y-20547954D01*
X956901Y-20547954D02*
X956901Y-20505097D01*
X956901Y-20505097D02*
X971187Y-20447954D01*
X971187Y-20447954D02*
X985473Y-20419382D01*
X985473Y-20419382D02*
X1014044Y-20390811D01*
X1014044Y-20390811D02*
X1056901Y-20376525D01*
X1056901Y-20376525D02*
X1085473Y-20376525D01*
X1085473Y-20376525D02*
X1128330Y-20390811D01*
X1128330Y-20390811D02*
X1142616Y-20405097D01*
X1199759Y-20705097D02*
X1428330Y-20705097D01*
X1628330Y-20662240D02*
X1599758Y-20676525D01*
X1599758Y-20676525D02*
X1542615Y-20676525D01*
X1542615Y-20676525D02*
X1514044Y-20662240D01*
X1514044Y-20662240D02*
X1499758Y-20647954D01*
X1499758Y-20647954D02*
X1485472Y-20619382D01*
X1485472Y-20619382D02*
X1485472Y-20533668D01*
X1485472Y-20533668D02*
X1499758Y-20505097D01*
X1499758Y-20505097D02*
X1514044Y-20490811D01*
X1514044Y-20490811D02*
X1542615Y-20476525D01*
X1542615Y-20476525D02*
X1599758Y-20476525D01*
X1599758Y-20476525D02*
X1628330Y-20490811D01*
X1799758Y-20676525D02*
X1771187Y-20662240D01*
X1771187Y-20662240D02*
X1756901Y-20647954D01*
X1756901Y-20647954D02*
X1742615Y-20619382D01*
X1742615Y-20619382D02*
X1742615Y-20533668D01*
X1742615Y-20533668D02*
X1756901Y-20505097D01*
X1756901Y-20505097D02*
X1771187Y-20490811D01*
X1771187Y-20490811D02*
X1799758Y-20476525D01*
X1799758Y-20476525D02*
X1842615Y-20476525D01*
X1842615Y-20476525D02*
X1871187Y-20490811D01*
X1871187Y-20490811D02*
X1885473Y-20505097D01*
X1885473Y-20505097D02*
X1899758Y-20533668D01*
X1899758Y-20533668D02*
X1899758Y-20619382D01*
X1899758Y-20619382D02*
X1885473Y-20647954D01*
X1885473Y-20647954D02*
X1871187Y-20662240D01*
X1871187Y-20662240D02*
X1842615Y-20676525D01*
X1842615Y-20676525D02*
X1799758Y-20676525D01*
X2028330Y-20476525D02*
X2028330Y-20676525D01*
X2028330Y-20505097D02*
X2042616Y-20490811D01*
X2042616Y-20490811D02*
X2071187Y-20476525D01*
X2071187Y-20476525D02*
X2114044Y-20476525D01*
X2114044Y-20476525D02*
X2142616Y-20490811D01*
X2142616Y-20490811D02*
X2156902Y-20519382D01*
X2156902Y-20519382D02*
X2156902Y-20676525D01*
X2299759Y-20476525D02*
X2299759Y-20676525D01*
X2299759Y-20505097D02*
X2314045Y-20490811D01*
X2314045Y-20490811D02*
X2342616Y-20476525D01*
X2342616Y-20476525D02*
X2385473Y-20476525D01*
X2385473Y-20476525D02*
X2414045Y-20490811D01*
X2414045Y-20490811D02*
X2428331Y-20519382D01*
X2428331Y-20519382D02*
X2428331Y-20676525D01*
X2685474Y-20662240D02*
X2656902Y-20676525D01*
X2656902Y-20676525D02*
X2599760Y-20676525D01*
X2599760Y-20676525D02*
X2571188Y-20662240D01*
X2571188Y-20662240D02*
X2556902Y-20633668D01*
X2556902Y-20633668D02*
X2556902Y-20519382D01*
X2556902Y-20519382D02*
X2571188Y-20490811D01*
X2571188Y-20490811D02*
X2599760Y-20476525D01*
X2599760Y-20476525D02*
X2656902Y-20476525D01*
X2656902Y-20476525D02*
X2685474Y-20490811D01*
X2685474Y-20490811D02*
X2699760Y-20519382D01*
X2699760Y-20519382D02*
X2699760Y-20547954D01*
X2699760Y-20547954D02*
X2556902Y-20576525D01*
X2956903Y-20662240D02*
X2928331Y-20676525D01*
X2928331Y-20676525D02*
X2871188Y-20676525D01*
X2871188Y-20676525D02*
X2842617Y-20662240D01*
X2842617Y-20662240D02*
X2828331Y-20647954D01*
X2828331Y-20647954D02*
X2814045Y-20619382D01*
X2814045Y-20619382D02*
X2814045Y-20533668D01*
X2814045Y-20533668D02*
X2828331Y-20505097D01*
X2828331Y-20505097D02*
X2842617Y-20490811D01*
X2842617Y-20490811D02*
X2871188Y-20476525D01*
X2871188Y-20476525D02*
X2928331Y-20476525D01*
X2928331Y-20476525D02*
X2956903Y-20490811D01*
X3042617Y-20476525D02*
X3156903Y-20476525D01*
X3085474Y-20376525D02*
X3085474Y-20633668D01*
X3085474Y-20633668D02*
X3099760Y-20662240D01*
X3099760Y-20662240D02*
X3128331Y-20676525D01*
X3128331Y-20676525D02*
X3156903Y-20676525D01*
X3299760Y-20676525D02*
X3271189Y-20662240D01*
X3271189Y-20662240D02*
X3256903Y-20647954D01*
X3256903Y-20647954D02*
X3242617Y-20619382D01*
X3242617Y-20619382D02*
X3242617Y-20533668D01*
X3242617Y-20533668D02*
X3256903Y-20505097D01*
X3256903Y-20505097D02*
X3271189Y-20490811D01*
X3271189Y-20490811D02*
X3299760Y-20476525D01*
X3299760Y-20476525D02*
X3342617Y-20476525D01*
X3342617Y-20476525D02*
X3371189Y-20490811D01*
X3371189Y-20490811D02*
X3385475Y-20505097D01*
X3385475Y-20505097D02*
X3399760Y-20533668D01*
X3399760Y-20533668D02*
X3399760Y-20619382D01*
X3399760Y-20619382D02*
X3385475Y-20647954D01*
X3385475Y-20647954D02*
X3371189Y-20662240D01*
X3371189Y-20662240D02*
X3342617Y-20676525D01*
X3342617Y-20676525D02*
X3299760Y-20676525D01*
X3528332Y-20676525D02*
X3528332Y-20476525D01*
X3528332Y-20533668D02*
X3542618Y-20505097D01*
X3542618Y-20505097D02*
X3556904Y-20490811D01*
X3556904Y-20490811D02*
X3585475Y-20476525D01*
X3585475Y-20476525D02*
X3614046Y-20476525D01*
X3642618Y-20705097D02*
X3871189Y-20705097D01*
X4099760Y-20676525D02*
X3928331Y-20676525D01*
X4014046Y-20676525D02*
X4014046Y-20376525D01*
X4014046Y-20376525D02*
X3985474Y-20419382D01*
X3985474Y-20419382D02*
X3956903Y-20447954D01*
X3956903Y-20447954D02*
X3928331Y-20462240D01*
X4356903Y-20376525D02*
X4299760Y-20376525D01*
X4299760Y-20376525D02*
X4271188Y-20390811D01*
X4271188Y-20390811D02*
X4256903Y-20405097D01*
X4256903Y-20405097D02*
X4228331Y-20447954D01*
X4228331Y-20447954D02*
X4214045Y-20505097D01*
X4214045Y-20505097D02*
X4214045Y-20619382D01*
X4214045Y-20619382D02*
X4228331Y-20647954D01*
X4228331Y-20647954D02*
X4242617Y-20662240D01*
X4242617Y-20662240D02*
X4271188Y-20676525D01*
X4271188Y-20676525D02*
X4328331Y-20676525D01*
X4328331Y-20676525D02*
X4356903Y-20662240D01*
X4356903Y-20662240D02*
X4371188Y-20647954D01*
X4371188Y-20647954D02*
X4385474Y-20619382D01*
X4385474Y-20619382D02*
X4385474Y-20547954D01*
X4385474Y-20547954D02*
X4371188Y-20519382D01*
X4371188Y-20519382D02*
X4356903Y-20505097D01*
X4356903Y-20505097D02*
X4328331Y-20490811D01*
X4328331Y-20490811D02*
X4271188Y-20490811D01*
X4271188Y-20490811D02*
X4242617Y-20505097D01*
X4242617Y-20505097D02*
X4228331Y-20519382D01*
X4228331Y-20519382D02*
X4214045Y-20547954D01*
X4514045Y-20476525D02*
X4514045Y-20776525D01*
X4514045Y-20490811D02*
X4542617Y-20476525D01*
X4542617Y-20476525D02*
X4599759Y-20476525D01*
X4599759Y-20476525D02*
X4628331Y-20490811D01*
X4628331Y-20490811D02*
X4642617Y-20505097D01*
X4642617Y-20505097D02*
X4656902Y-20533668D01*
X4656902Y-20533668D02*
X4656902Y-20619382D01*
X4656902Y-20619382D02*
X4642617Y-20647954D01*
X4642617Y-20647954D02*
X4628331Y-20662240D01*
X4628331Y-20662240D02*
X4599759Y-20676525D01*
X4599759Y-20676525D02*
X4542617Y-20676525D01*
X4542617Y-20676525D02*
X4514045Y-20662240D01*
X4714046Y-20705097D02*
X4942617Y-20705097D01*
X5014045Y-20676525D02*
X5014045Y-20376525D01*
X5142617Y-20676525D02*
X5142617Y-20519382D01*
X5142617Y-20519382D02*
X5128331Y-20490811D01*
X5128331Y-20490811D02*
X5099759Y-20476525D01*
X5099759Y-20476525D02*
X5056902Y-20476525D01*
X5056902Y-20476525D02*
X5028331Y-20490811D01*
X5028331Y-20490811D02*
X5014045Y-20505097D01*
X5285474Y-20676525D02*
X5285474Y-20476525D01*
X5285474Y-20376525D02*
X5271188Y-20390811D01*
X5271188Y-20390811D02*
X5285474Y-20405097D01*
X5285474Y-20405097D02*
X5299760Y-20390811D01*
X5299760Y-20390811D02*
X5285474Y-20376525D01*
X5285474Y-20376525D02*
X5285474Y-20405097D01*
X5428331Y-20476525D02*
X5428331Y-20676525D01*
X5428331Y-20505097D02*
X5442617Y-20490811D01*
X5442617Y-20490811D02*
X5471188Y-20476525D01*
X5471188Y-20476525D02*
X5514045Y-20476525D01*
X5514045Y-20476525D02*
X5542617Y-20490811D01*
X5542617Y-20490811D02*
X5556903Y-20519382D01*
X5556903Y-20519382D02*
X5556903Y-20676525D01*
X5828332Y-20476525D02*
X5828332Y-20719382D01*
X5828332Y-20719382D02*
X5814046Y-20747954D01*
X5814046Y-20747954D02*
X5799760Y-20762240D01*
X5799760Y-20762240D02*
X5771189Y-20776525D01*
X5771189Y-20776525D02*
X5728332Y-20776525D01*
X5728332Y-20776525D02*
X5699760Y-20762240D01*
X5828332Y-20662240D02*
X5799760Y-20676525D01*
X5799760Y-20676525D02*
X5742617Y-20676525D01*
X5742617Y-20676525D02*
X5714046Y-20662240D01*
X5714046Y-20662240D02*
X5699760Y-20647954D01*
X5699760Y-20647954D02*
X5685474Y-20619382D01*
X5685474Y-20619382D02*
X5685474Y-20533668D01*
X5685474Y-20533668D02*
X5699760Y-20505097D01*
X5699760Y-20505097D02*
X5714046Y-20490811D01*
X5714046Y-20490811D02*
X5742617Y-20476525D01*
X5742617Y-20476525D02*
X5799760Y-20476525D01*
X5799760Y-20476525D02*
X5828332Y-20490811D01*
X6085475Y-20662240D02*
X6056903Y-20676525D01*
X6056903Y-20676525D02*
X5999761Y-20676525D01*
X5999761Y-20676525D02*
X5971189Y-20662240D01*
X5971189Y-20662240D02*
X5956903Y-20633668D01*
X5956903Y-20633668D02*
X5956903Y-20519382D01*
X5956903Y-20519382D02*
X5971189Y-20490811D01*
X5971189Y-20490811D02*
X5999761Y-20476525D01*
X5999761Y-20476525D02*
X6056903Y-20476525D01*
X6056903Y-20476525D02*
X6085475Y-20490811D01*
X6085475Y-20490811D02*
X6099761Y-20519382D01*
X6099761Y-20519382D02*
X6099761Y-20547954D01*
X6099761Y-20547954D02*
X5956903Y-20576525D01*
X6156904Y-20705097D02*
X6385475Y-20705097D01*
X6499760Y-20676525D02*
X6471189Y-20662240D01*
X6471189Y-20662240D02*
X6456903Y-20633668D01*
X6456903Y-20633668D02*
X6456903Y-20376525D01*
X6656903Y-20676525D02*
X6628332Y-20662240D01*
X6628332Y-20662240D02*
X6614046Y-20647954D01*
X6614046Y-20647954D02*
X6599760Y-20619382D01*
X6599760Y-20619382D02*
X6599760Y-20533668D01*
X6599760Y-20533668D02*
X6614046Y-20505097D01*
X6614046Y-20505097D02*
X6628332Y-20490811D01*
X6628332Y-20490811D02*
X6656903Y-20476525D01*
X6656903Y-20476525D02*
X6699760Y-20476525D01*
X6699760Y-20476525D02*
X6728332Y-20490811D01*
X6728332Y-20490811D02*
X6742618Y-20505097D01*
X6742618Y-20505097D02*
X6756903Y-20533668D01*
X6756903Y-20533668D02*
X6756903Y-20619382D01*
X6756903Y-20619382D02*
X6742618Y-20647954D01*
X6742618Y-20647954D02*
X6728332Y-20662240D01*
X6728332Y-20662240D02*
X6699760Y-20676525D01*
X6699760Y-20676525D02*
X6656903Y-20676525D01*
X7014047Y-20662240D02*
X6985475Y-20676525D01*
X6985475Y-20676525D02*
X6928332Y-20676525D01*
X6928332Y-20676525D02*
X6899761Y-20662240D01*
X6899761Y-20662240D02*
X6885475Y-20647954D01*
X6885475Y-20647954D02*
X6871189Y-20619382D01*
X6871189Y-20619382D02*
X6871189Y-20533668D01*
X6871189Y-20533668D02*
X6885475Y-20505097D01*
X6885475Y-20505097D02*
X6899761Y-20490811D01*
X6899761Y-20490811D02*
X6928332Y-20476525D01*
X6928332Y-20476525D02*
X6985475Y-20476525D01*
X6985475Y-20476525D02*
X7014047Y-20490811D01*
X7142618Y-20676525D02*
X7142618Y-20376525D01*
X7171190Y-20562240D02*
X7256904Y-20676525D01*
X7256904Y-20476525D02*
X7142618Y-20590811D01*
X41254885Y-2321428D02*
X41454885Y-2321428D01*
X41140600Y-2392856D02*
X41354885Y-2464285D01*
X41354885Y-2464285D02*
X41354885Y-2278570D01*
X41426314Y-2164285D02*
X41440600Y-2149999D01*
X41440600Y-2149999D02*
X41454885Y-2164285D01*
X41454885Y-2164285D02*
X41440600Y-2178571D01*
X41440600Y-2178571D02*
X41426314Y-2164285D01*
X41426314Y-2164285D02*
X41454885Y-2164285D01*
X41154885Y-2049999D02*
X41154885Y-1849999D01*
X41154885Y-1849999D02*
X41454885Y-1978571D01*
X41254885Y-1607143D02*
X41454885Y-1607143D01*
X41254885Y-1735714D02*
X41412028Y-1735714D01*
X41412028Y-1735714D02*
X41440600Y-1721428D01*
X41440600Y-1721428D02*
X41454885Y-1692857D01*
X41454885Y-1692857D02*
X41454885Y-1650000D01*
X41454885Y-1650000D02*
X41440600Y-1621428D01*
X41440600Y-1621428D02*
X41426314Y-1607143D01*
X41297742Y-1364285D02*
X41297742Y-1464285D01*
X41454885Y-1464285D02*
X41154885Y-1464285D01*
X41154885Y-1464285D02*
X41154885Y-1321428D01*
X49535713Y-25884885D02*
X49535713Y-25584885D01*
X49535713Y-25584885D02*
X49635713Y-25799171D01*
X49635713Y-25799171D02*
X49735713Y-25584885D01*
X49735713Y-25584885D02*
X49735713Y-25884885D01*
X49864284Y-25613457D02*
X49878570Y-25599171D01*
X49878570Y-25599171D02*
X49907142Y-25584885D01*
X49907142Y-25584885D02*
X49978570Y-25584885D01*
X49978570Y-25584885D02*
X50007142Y-25599171D01*
X50007142Y-25599171D02*
X50021427Y-25613457D01*
X50021427Y-25613457D02*
X50035713Y-25642028D01*
X50035713Y-25642028D02*
X50035713Y-25670600D01*
X50035713Y-25670600D02*
X50021427Y-25713457D01*
X50021427Y-25713457D02*
X49849999Y-25884885D01*
X49849999Y-25884885D02*
X50035713Y-25884885D01*
X50164284Y-25856314D02*
X50178570Y-25870600D01*
X50178570Y-25870600D02*
X50164284Y-25884885D01*
X50164284Y-25884885D02*
X50149998Y-25870600D01*
X50149998Y-25870600D02*
X50164284Y-25856314D01*
X50164284Y-25856314D02*
X50164284Y-25884885D01*
X50449998Y-25584885D02*
X50307141Y-25584885D01*
X50307141Y-25584885D02*
X50292855Y-25727742D01*
X50292855Y-25727742D02*
X50307141Y-25713457D01*
X50307141Y-25713457D02*
X50335713Y-25699171D01*
X50335713Y-25699171D02*
X50407141Y-25699171D01*
X50407141Y-25699171D02*
X50435713Y-25713457D01*
X50435713Y-25713457D02*
X50449998Y-25727742D01*
X50449998Y-25727742D02*
X50464284Y-25756314D01*
X50464284Y-25756314D02*
X50464284Y-25827742D01*
X50464284Y-25827742D02*
X50449998Y-25856314D01*
X50449998Y-25856314D02*
X50435713Y-25870600D01*
X50435713Y-25870600D02*
X50407141Y-25884885D01*
X50407141Y-25884885D02*
X50335713Y-25884885D01*
X50335713Y-25884885D02*
X50307141Y-25870600D01*
X50307141Y-25870600D02*
X50292855Y-25856314D01*
X50592855Y-25884885D02*
X50592855Y-25584885D01*
X50592855Y-25584885D02*
X50692855Y-25799171D01*
X50692855Y-25799171D02*
X50792855Y-25584885D01*
X50792855Y-25584885D02*
X50792855Y-25884885D01*
X50978569Y-25884885D02*
X50949998Y-25870600D01*
X50949998Y-25870600D02*
X50935712Y-25856314D01*
X50935712Y-25856314D02*
X50921426Y-25827742D01*
X50921426Y-25827742D02*
X50921426Y-25742028D01*
X50921426Y-25742028D02*
X50935712Y-25713457D01*
X50935712Y-25713457D02*
X50949998Y-25699171D01*
X50949998Y-25699171D02*
X50978569Y-25684885D01*
X50978569Y-25684885D02*
X51021426Y-25684885D01*
X51021426Y-25684885D02*
X51049998Y-25699171D01*
X51049998Y-25699171D02*
X51064284Y-25713457D01*
X51064284Y-25713457D02*
X51078569Y-25742028D01*
X51078569Y-25742028D02*
X51078569Y-25827742D01*
X51078569Y-25827742D02*
X51064284Y-25856314D01*
X51064284Y-25856314D02*
X51049998Y-25870600D01*
X51049998Y-25870600D02*
X51021426Y-25884885D01*
X51021426Y-25884885D02*
X50978569Y-25884885D01*
X51335713Y-25684885D02*
X51335713Y-25884885D01*
X51207141Y-25684885D02*
X51207141Y-25842028D01*
X51207141Y-25842028D02*
X51221427Y-25870600D01*
X51221427Y-25870600D02*
X51249998Y-25884885D01*
X51249998Y-25884885D02*
X51292855Y-25884885D01*
X51292855Y-25884885D02*
X51321427Y-25870600D01*
X51321427Y-25870600D02*
X51335713Y-25856314D01*
X51478570Y-25684885D02*
X51478570Y-25884885D01*
X51478570Y-25713457D02*
X51492856Y-25699171D01*
X51492856Y-25699171D02*
X51521427Y-25684885D01*
X51521427Y-25684885D02*
X51564284Y-25684885D01*
X51564284Y-25684885D02*
X51592856Y-25699171D01*
X51592856Y-25699171D02*
X51607142Y-25727742D01*
X51607142Y-25727742D02*
X51607142Y-25884885D01*
X51707142Y-25684885D02*
X51821428Y-25684885D01*
X51749999Y-25584885D02*
X51749999Y-25842028D01*
X51749999Y-25842028D02*
X51764285Y-25870600D01*
X51764285Y-25870600D02*
X51792856Y-25884885D01*
X51792856Y-25884885D02*
X51821428Y-25884885D01*
X51921428Y-25884885D02*
X51921428Y-25684885D01*
X51921428Y-25584885D02*
X51907142Y-25599171D01*
X51907142Y-25599171D02*
X51921428Y-25613457D01*
X51921428Y-25613457D02*
X51935714Y-25599171D01*
X51935714Y-25599171D02*
X51921428Y-25584885D01*
X51921428Y-25584885D02*
X51921428Y-25613457D01*
X52064285Y-25684885D02*
X52064285Y-25884885D01*
X52064285Y-25713457D02*
X52078571Y-25699171D01*
X52078571Y-25699171D02*
X52107142Y-25684885D01*
X52107142Y-25684885D02*
X52149999Y-25684885D01*
X52149999Y-25684885D02*
X52178571Y-25699171D01*
X52178571Y-25699171D02*
X52192857Y-25727742D01*
X52192857Y-25727742D02*
X52192857Y-25884885D01*
X52464286Y-25684885D02*
X52464286Y-25927742D01*
X52464286Y-25927742D02*
X52450000Y-25956314D01*
X52450000Y-25956314D02*
X52435714Y-25970600D01*
X52435714Y-25970600D02*
X52407143Y-25984885D01*
X52407143Y-25984885D02*
X52364286Y-25984885D01*
X52364286Y-25984885D02*
X52335714Y-25970600D01*
X52464286Y-25870600D02*
X52435714Y-25884885D01*
X52435714Y-25884885D02*
X52378571Y-25884885D01*
X52378571Y-25884885D02*
X52350000Y-25870600D01*
X52350000Y-25870600D02*
X52335714Y-25856314D01*
X52335714Y-25856314D02*
X52321428Y-25827742D01*
X52321428Y-25827742D02*
X52321428Y-25742028D01*
X52321428Y-25742028D02*
X52335714Y-25713457D01*
X52335714Y-25713457D02*
X52350000Y-25699171D01*
X52350000Y-25699171D02*
X52378571Y-25684885D01*
X52378571Y-25684885D02*
X52435714Y-25684885D01*
X52435714Y-25684885D02*
X52464286Y-25699171D01*
X52607143Y-25884885D02*
X52607143Y-25584885D01*
X52607143Y-25727742D02*
X52778572Y-25727742D01*
X52778572Y-25884885D02*
X52778572Y-25584885D01*
X52964286Y-25884885D02*
X52935715Y-25870600D01*
X52935715Y-25870600D02*
X52921429Y-25856314D01*
X52921429Y-25856314D02*
X52907143Y-25827742D01*
X52907143Y-25827742D02*
X52907143Y-25742028D01*
X52907143Y-25742028D02*
X52921429Y-25713457D01*
X52921429Y-25713457D02*
X52935715Y-25699171D01*
X52935715Y-25699171D02*
X52964286Y-25684885D01*
X52964286Y-25684885D02*
X53007143Y-25684885D01*
X53007143Y-25684885D02*
X53035715Y-25699171D01*
X53035715Y-25699171D02*
X53050001Y-25713457D01*
X53050001Y-25713457D02*
X53064286Y-25742028D01*
X53064286Y-25742028D02*
X53064286Y-25827742D01*
X53064286Y-25827742D02*
X53050001Y-25856314D01*
X53050001Y-25856314D02*
X53035715Y-25870600D01*
X53035715Y-25870600D02*
X53007143Y-25884885D01*
X53007143Y-25884885D02*
X52964286Y-25884885D01*
X53235715Y-25884885D02*
X53207144Y-25870600D01*
X53207144Y-25870600D02*
X53192858Y-25842028D01*
X53192858Y-25842028D02*
X53192858Y-25584885D01*
X53464287Y-25870600D02*
X53435715Y-25884885D01*
X53435715Y-25884885D02*
X53378573Y-25884885D01*
X53378573Y-25884885D02*
X53350001Y-25870600D01*
X53350001Y-25870600D02*
X53335715Y-25842028D01*
X53335715Y-25842028D02*
X53335715Y-25727742D01*
X53335715Y-25727742D02*
X53350001Y-25699171D01*
X53350001Y-25699171D02*
X53378573Y-25684885D01*
X53378573Y-25684885D02*
X53435715Y-25684885D01*
X53435715Y-25684885D02*
X53464287Y-25699171D01*
X53464287Y-25699171D02*
X53478573Y-25727742D01*
X53478573Y-25727742D02*
X53478573Y-25756314D01*
X53478573Y-25756314D02*
X53335715Y-25784885D01*
X46887381Y-4586102D02*
X46787381Y-4586102D01*
X46787381Y-4743245D02*
X46787381Y-4443245D01*
X46787381Y-4443245D02*
X46930238Y-4443245D01*
X47144524Y-4586102D02*
X47044524Y-4586102D01*
X47044524Y-4743245D02*
X47044524Y-4443245D01*
X47044524Y-4443245D02*
X47187381Y-4443245D01*
X47473096Y-4714674D02*
X47458810Y-4728960D01*
X47458810Y-4728960D02*
X47415953Y-4743245D01*
X47415953Y-4743245D02*
X47387381Y-4743245D01*
X47387381Y-4743245D02*
X47344524Y-4728960D01*
X47344524Y-4728960D02*
X47315953Y-4700388D01*
X47315953Y-4700388D02*
X47301667Y-4671817D01*
X47301667Y-4671817D02*
X47287381Y-4614674D01*
X47287381Y-4614674D02*
X47287381Y-4571817D01*
X47287381Y-4571817D02*
X47301667Y-4514674D01*
X47301667Y-4514674D02*
X47315953Y-4486102D01*
X47315953Y-4486102D02*
X47344524Y-4457531D01*
X47344524Y-4457531D02*
X47387381Y-4443245D01*
X47387381Y-4443245D02*
X47415953Y-4443245D01*
X47415953Y-4443245D02*
X47458810Y-4457531D01*
X47458810Y-4457531D02*
X47473096Y-4471817D01*
X47530239Y-4771817D02*
X47758810Y-4771817D01*
X47958810Y-4728960D02*
X47930238Y-4743245D01*
X47930238Y-4743245D02*
X47873095Y-4743245D01*
X47873095Y-4743245D02*
X47844524Y-4728960D01*
X47844524Y-4728960D02*
X47830238Y-4714674D01*
X47830238Y-4714674D02*
X47815952Y-4686102D01*
X47815952Y-4686102D02*
X47815952Y-4600388D01*
X47815952Y-4600388D02*
X47830238Y-4571817D01*
X47830238Y-4571817D02*
X47844524Y-4557531D01*
X47844524Y-4557531D02*
X47873095Y-4543245D01*
X47873095Y-4543245D02*
X47930238Y-4543245D01*
X47930238Y-4543245D02*
X47958810Y-4557531D01*
X48130238Y-4743245D02*
X48101667Y-4728960D01*
X48101667Y-4728960D02*
X48087381Y-4714674D01*
X48087381Y-4714674D02*
X48073095Y-4686102D01*
X48073095Y-4686102D02*
X48073095Y-4600388D01*
X48073095Y-4600388D02*
X48087381Y-4571817D01*
X48087381Y-4571817D02*
X48101667Y-4557531D01*
X48101667Y-4557531D02*
X48130238Y-4543245D01*
X48130238Y-4543245D02*
X48173095Y-4543245D01*
X48173095Y-4543245D02*
X48201667Y-4557531D01*
X48201667Y-4557531D02*
X48215953Y-4571817D01*
X48215953Y-4571817D02*
X48230238Y-4600388D01*
X48230238Y-4600388D02*
X48230238Y-4686102D01*
X48230238Y-4686102D02*
X48215953Y-4714674D01*
X48215953Y-4714674D02*
X48201667Y-4728960D01*
X48201667Y-4728960D02*
X48173095Y-4743245D01*
X48173095Y-4743245D02*
X48130238Y-4743245D01*
X48358810Y-4543245D02*
X48358810Y-4743245D01*
X48358810Y-4571817D02*
X48373096Y-4557531D01*
X48373096Y-4557531D02*
X48401667Y-4543245D01*
X48401667Y-4543245D02*
X48444524Y-4543245D01*
X48444524Y-4543245D02*
X48473096Y-4557531D01*
X48473096Y-4557531D02*
X48487382Y-4586102D01*
X48487382Y-4586102D02*
X48487382Y-4743245D01*
X48630239Y-4543245D02*
X48630239Y-4743245D01*
X48630239Y-4571817D02*
X48644525Y-4557531D01*
X48644525Y-4557531D02*
X48673096Y-4543245D01*
X48673096Y-4543245D02*
X48715953Y-4543245D01*
X48715953Y-4543245D02*
X48744525Y-4557531D01*
X48744525Y-4557531D02*
X48758811Y-4586102D01*
X48758811Y-4586102D02*
X48758811Y-4743245D01*
X49015954Y-4728960D02*
X48987382Y-4743245D01*
X48987382Y-4743245D02*
X48930240Y-4743245D01*
X48930240Y-4743245D02*
X48901668Y-4728960D01*
X48901668Y-4728960D02*
X48887382Y-4700388D01*
X48887382Y-4700388D02*
X48887382Y-4586102D01*
X48887382Y-4586102D02*
X48901668Y-4557531D01*
X48901668Y-4557531D02*
X48930240Y-4543245D01*
X48930240Y-4543245D02*
X48987382Y-4543245D01*
X48987382Y-4543245D02*
X49015954Y-4557531D01*
X49015954Y-4557531D02*
X49030240Y-4586102D01*
X49030240Y-4586102D02*
X49030240Y-4614674D01*
X49030240Y-4614674D02*
X48887382Y-4643245D01*
X49287383Y-4728960D02*
X49258811Y-4743245D01*
X49258811Y-4743245D02*
X49201668Y-4743245D01*
X49201668Y-4743245D02*
X49173097Y-4728960D01*
X49173097Y-4728960D02*
X49158811Y-4714674D01*
X49158811Y-4714674D02*
X49144525Y-4686102D01*
X49144525Y-4686102D02*
X49144525Y-4600388D01*
X49144525Y-4600388D02*
X49158811Y-4571817D01*
X49158811Y-4571817D02*
X49173097Y-4557531D01*
X49173097Y-4557531D02*
X49201668Y-4543245D01*
X49201668Y-4543245D02*
X49258811Y-4543245D01*
X49258811Y-4543245D02*
X49287383Y-4557531D01*
X49373097Y-4543245D02*
X49487383Y-4543245D01*
X49415954Y-4443245D02*
X49415954Y-4700388D01*
X49415954Y-4700388D02*
X49430240Y-4728960D01*
X49430240Y-4728960D02*
X49458811Y-4743245D01*
X49458811Y-4743245D02*
X49487383Y-4743245D01*
X49630240Y-4743245D02*
X49601669Y-4728960D01*
X49601669Y-4728960D02*
X49587383Y-4714674D01*
X49587383Y-4714674D02*
X49573097Y-4686102D01*
X49573097Y-4686102D02*
X49573097Y-4600388D01*
X49573097Y-4600388D02*
X49587383Y-4571817D01*
X49587383Y-4571817D02*
X49601669Y-4557531D01*
X49601669Y-4557531D02*
X49630240Y-4543245D01*
X49630240Y-4543245D02*
X49673097Y-4543245D01*
X49673097Y-4543245D02*
X49701669Y-4557531D01*
X49701669Y-4557531D02*
X49715955Y-4571817D01*
X49715955Y-4571817D02*
X49730240Y-4600388D01*
X49730240Y-4600388D02*
X49730240Y-4686102D01*
X49730240Y-4686102D02*
X49715955Y-4714674D01*
X49715955Y-4714674D02*
X49701669Y-4728960D01*
X49701669Y-4728960D02*
X49673097Y-4743245D01*
X49673097Y-4743245D02*
X49630240Y-4743245D01*
X49858812Y-4743245D02*
X49858812Y-4543245D01*
X49858812Y-4600388D02*
X49873098Y-4571817D01*
X49873098Y-4571817D02*
X49887384Y-4557531D01*
X49887384Y-4557531D02*
X49915955Y-4543245D01*
X49915955Y-4543245D02*
X49944526Y-4543245D01*
X49973098Y-4771817D02*
X50201669Y-4771817D01*
X50430240Y-4743245D02*
X50258811Y-4743245D01*
X50344526Y-4743245D02*
X50344526Y-4443245D01*
X50344526Y-4443245D02*
X50315954Y-4486102D01*
X50315954Y-4486102D02*
X50287383Y-4514674D01*
X50287383Y-4514674D02*
X50258811Y-4528960D01*
X50687383Y-4443245D02*
X50630240Y-4443245D01*
X50630240Y-4443245D02*
X50601668Y-4457531D01*
X50601668Y-4457531D02*
X50587383Y-4471817D01*
X50587383Y-4471817D02*
X50558811Y-4514674D01*
X50558811Y-4514674D02*
X50544525Y-4571817D01*
X50544525Y-4571817D02*
X50544525Y-4686102D01*
X50544525Y-4686102D02*
X50558811Y-4714674D01*
X50558811Y-4714674D02*
X50573097Y-4728960D01*
X50573097Y-4728960D02*
X50601668Y-4743245D01*
X50601668Y-4743245D02*
X50658811Y-4743245D01*
X50658811Y-4743245D02*
X50687383Y-4728960D01*
X50687383Y-4728960D02*
X50701668Y-4714674D01*
X50701668Y-4714674D02*
X50715954Y-4686102D01*
X50715954Y-4686102D02*
X50715954Y-4614674D01*
X50715954Y-4614674D02*
X50701668Y-4586102D01*
X50701668Y-4586102D02*
X50687383Y-4571817D01*
X50687383Y-4571817D02*
X50658811Y-4557531D01*
X50658811Y-4557531D02*
X50601668Y-4557531D01*
X50601668Y-4557531D02*
X50573097Y-4571817D01*
X50573097Y-4571817D02*
X50558811Y-4586102D01*
X50558811Y-4586102D02*
X50544525Y-4614674D01*
X50844525Y-4543245D02*
X50844525Y-4843245D01*
X50844525Y-4557531D02*
X50873097Y-4543245D01*
X50873097Y-4543245D02*
X50930239Y-4543245D01*
X50930239Y-4543245D02*
X50958811Y-4557531D01*
X50958811Y-4557531D02*
X50973097Y-4571817D01*
X50973097Y-4571817D02*
X50987382Y-4600388D01*
X50987382Y-4600388D02*
X50987382Y-4686102D01*
X50987382Y-4686102D02*
X50973097Y-4714674D01*
X50973097Y-4714674D02*
X50958811Y-4728960D01*
X50958811Y-4728960D02*
X50930239Y-4743245D01*
X50930239Y-4743245D02*
X50873097Y-4743245D01*
X50873097Y-4743245D02*
X50844525Y-4728960D01*
X51044526Y-4771817D02*
X51273097Y-4771817D01*
X51344525Y-4743245D02*
X51344525Y-4443245D01*
X51473097Y-4743245D02*
X51473097Y-4586102D01*
X51473097Y-4586102D02*
X51458811Y-4557531D01*
X51458811Y-4557531D02*
X51430239Y-4543245D01*
X51430239Y-4543245D02*
X51387382Y-4543245D01*
X51387382Y-4543245D02*
X51358811Y-4557531D01*
X51358811Y-4557531D02*
X51344525Y-4571817D01*
X51615954Y-4743245D02*
X51615954Y-4543245D01*
X51615954Y-4443245D02*
X51601668Y-4457531D01*
X51601668Y-4457531D02*
X51615954Y-4471817D01*
X51615954Y-4471817D02*
X51630240Y-4457531D01*
X51630240Y-4457531D02*
X51615954Y-4443245D01*
X51615954Y-4443245D02*
X51615954Y-4471817D01*
X51758811Y-4543245D02*
X51758811Y-4743245D01*
X51758811Y-4571817D02*
X51773097Y-4557531D01*
X51773097Y-4557531D02*
X51801668Y-4543245D01*
X51801668Y-4543245D02*
X51844525Y-4543245D01*
X51844525Y-4543245D02*
X51873097Y-4557531D01*
X51873097Y-4557531D02*
X51887383Y-4586102D01*
X51887383Y-4586102D02*
X51887383Y-4743245D01*
X52158812Y-4543245D02*
X52158812Y-4786102D01*
X52158812Y-4786102D02*
X52144526Y-4814674D01*
X52144526Y-4814674D02*
X52130240Y-4828960D01*
X52130240Y-4828960D02*
X52101669Y-4843245D01*
X52101669Y-4843245D02*
X52058812Y-4843245D01*
X52058812Y-4843245D02*
X52030240Y-4828960D01*
X52158812Y-4728960D02*
X52130240Y-4743245D01*
X52130240Y-4743245D02*
X52073097Y-4743245D01*
X52073097Y-4743245D02*
X52044526Y-4728960D01*
X52044526Y-4728960D02*
X52030240Y-4714674D01*
X52030240Y-4714674D02*
X52015954Y-4686102D01*
X52015954Y-4686102D02*
X52015954Y-4600388D01*
X52015954Y-4600388D02*
X52030240Y-4571817D01*
X52030240Y-4571817D02*
X52044526Y-4557531D01*
X52044526Y-4557531D02*
X52073097Y-4543245D01*
X52073097Y-4543245D02*
X52130240Y-4543245D01*
X52130240Y-4543245D02*
X52158812Y-4557531D01*
X52415955Y-4728960D02*
X52387383Y-4743245D01*
X52387383Y-4743245D02*
X52330241Y-4743245D01*
X52330241Y-4743245D02*
X52301669Y-4728960D01*
X52301669Y-4728960D02*
X52287383Y-4700388D01*
X52287383Y-4700388D02*
X52287383Y-4586102D01*
X52287383Y-4586102D02*
X52301669Y-4557531D01*
X52301669Y-4557531D02*
X52330241Y-4543245D01*
X52330241Y-4543245D02*
X52387383Y-4543245D01*
X52387383Y-4543245D02*
X52415955Y-4557531D01*
X52415955Y-4557531D02*
X52430241Y-4586102D01*
X52430241Y-4586102D02*
X52430241Y-4614674D01*
X52430241Y-4614674D02*
X52287383Y-4643245D01*
X52487384Y-4771817D02*
X52715955Y-4771817D01*
X52830240Y-4743245D02*
X52801669Y-4728960D01*
X52801669Y-4728960D02*
X52787383Y-4700388D01*
X52787383Y-4700388D02*
X52787383Y-4443245D01*
X52987383Y-4743245D02*
X52958812Y-4728960D01*
X52958812Y-4728960D02*
X52944526Y-4714674D01*
X52944526Y-4714674D02*
X52930240Y-4686102D01*
X52930240Y-4686102D02*
X52930240Y-4600388D01*
X52930240Y-4600388D02*
X52944526Y-4571817D01*
X52944526Y-4571817D02*
X52958812Y-4557531D01*
X52958812Y-4557531D02*
X52987383Y-4543245D01*
X52987383Y-4543245D02*
X53030240Y-4543245D01*
X53030240Y-4543245D02*
X53058812Y-4557531D01*
X53058812Y-4557531D02*
X53073098Y-4571817D01*
X53073098Y-4571817D02*
X53087383Y-4600388D01*
X53087383Y-4600388D02*
X53087383Y-4686102D01*
X53087383Y-4686102D02*
X53073098Y-4714674D01*
X53073098Y-4714674D02*
X53058812Y-4728960D01*
X53058812Y-4728960D02*
X53030240Y-4743245D01*
X53030240Y-4743245D02*
X52987383Y-4743245D01*
X53344527Y-4728960D02*
X53315955Y-4743245D01*
X53315955Y-4743245D02*
X53258812Y-4743245D01*
X53258812Y-4743245D02*
X53230241Y-4728960D01*
X53230241Y-4728960D02*
X53215955Y-4714674D01*
X53215955Y-4714674D02*
X53201669Y-4686102D01*
X53201669Y-4686102D02*
X53201669Y-4600388D01*
X53201669Y-4600388D02*
X53215955Y-4571817D01*
X53215955Y-4571817D02*
X53230241Y-4557531D01*
X53230241Y-4557531D02*
X53258812Y-4543245D01*
X53258812Y-4543245D02*
X53315955Y-4543245D01*
X53315955Y-4543245D02*
X53344527Y-4557531D01*
X53473098Y-4743245D02*
X53473098Y-4443245D01*
X53501670Y-4628960D02*
X53587384Y-4743245D01*
X53587384Y-4543245D02*
X53473098Y-4657531D01*
X32278572Y-2464885D02*
X32278572Y-2664885D01*
X32207143Y-2350600D02*
X32135714Y-2564885D01*
X32135714Y-2564885D02*
X32321429Y-2564885D01*
X32435714Y-2636314D02*
X32450000Y-2650600D01*
X32450000Y-2650600D02*
X32435714Y-2664885D01*
X32435714Y-2664885D02*
X32421428Y-2650600D01*
X32421428Y-2650600D02*
X32435714Y-2636314D01*
X32435714Y-2636314D02*
X32435714Y-2664885D01*
X32550000Y-2364885D02*
X32750000Y-2364885D01*
X32750000Y-2364885D02*
X32621428Y-2664885D01*
X32992857Y-2464885D02*
X32992857Y-2664885D01*
X32864285Y-2464885D02*
X32864285Y-2622028D01*
X32864285Y-2622028D02*
X32878571Y-2650600D01*
X32878571Y-2650600D02*
X32907142Y-2664885D01*
X32907142Y-2664885D02*
X32949999Y-2664885D01*
X32949999Y-2664885D02*
X32978571Y-2650600D01*
X32978571Y-2650600D02*
X32992857Y-2636314D01*
X33235714Y-2507742D02*
X33135714Y-2507742D01*
X33135714Y-2664885D02*
X33135714Y-2364885D01*
X33135714Y-2364885D02*
X33278571Y-2364885D01*
X32778572Y-5354885D02*
X32807143Y-5354885D01*
X32807143Y-5354885D02*
X32835715Y-5369171D01*
X32835715Y-5369171D02*
X32850001Y-5383457D01*
X32850001Y-5383457D02*
X32864286Y-5412028D01*
X32864286Y-5412028D02*
X32878572Y-5469171D01*
X32878572Y-5469171D02*
X32878572Y-5540600D01*
X32878572Y-5540600D02*
X32864286Y-5597742D01*
X32864286Y-5597742D02*
X32850001Y-5626314D01*
X32850001Y-5626314D02*
X32835715Y-5640600D01*
X32835715Y-5640600D02*
X32807143Y-5654885D01*
X32807143Y-5654885D02*
X32778572Y-5654885D01*
X32778572Y-5654885D02*
X32750001Y-5640600D01*
X32750001Y-5640600D02*
X32735715Y-5626314D01*
X32735715Y-5626314D02*
X32721429Y-5597742D01*
X32721429Y-5597742D02*
X32707143Y-5540600D01*
X32707143Y-5540600D02*
X32707143Y-5469171D01*
X32707143Y-5469171D02*
X32721429Y-5412028D01*
X32721429Y-5412028D02*
X32735715Y-5383457D01*
X32735715Y-5383457D02*
X32750001Y-5369171D01*
X32750001Y-5369171D02*
X32778572Y-5354885D01*
X33007143Y-5626314D02*
X33021429Y-5640600D01*
X33021429Y-5640600D02*
X33007143Y-5654885D01*
X33007143Y-5654885D02*
X32992857Y-5640600D01*
X32992857Y-5640600D02*
X33007143Y-5626314D01*
X33007143Y-5626314D02*
X33007143Y-5654885D01*
X33307143Y-5654885D02*
X33135714Y-5654885D01*
X33221429Y-5654885D02*
X33221429Y-5354885D01*
X33221429Y-5354885D02*
X33192857Y-5397742D01*
X33192857Y-5397742D02*
X33164286Y-5426314D01*
X33164286Y-5426314D02*
X33135714Y-5440600D01*
X33564286Y-5454885D02*
X33564286Y-5654885D01*
X33435714Y-5454885D02*
X33435714Y-5612028D01*
X33435714Y-5612028D02*
X33450000Y-5640600D01*
X33450000Y-5640600D02*
X33478571Y-5654885D01*
X33478571Y-5654885D02*
X33521428Y-5654885D01*
X33521428Y-5654885D02*
X33550000Y-5640600D01*
X33550000Y-5640600D02*
X33564286Y-5626314D01*
X33807143Y-5497742D02*
X33707143Y-5497742D01*
X33707143Y-5654885D02*
X33707143Y-5354885D01*
X33707143Y-5354885D02*
X33850000Y-5354885D01*
X33892858Y-5683457D02*
X34121429Y-5683457D01*
X34335714Y-5354885D02*
X34192857Y-5354885D01*
X34192857Y-5354885D02*
X34178571Y-5497742D01*
X34178571Y-5497742D02*
X34192857Y-5483457D01*
X34192857Y-5483457D02*
X34221429Y-5469171D01*
X34221429Y-5469171D02*
X34292857Y-5469171D01*
X34292857Y-5469171D02*
X34321429Y-5483457D01*
X34321429Y-5483457D02*
X34335714Y-5497742D01*
X34335714Y-5497742D02*
X34350000Y-5526314D01*
X34350000Y-5526314D02*
X34350000Y-5597742D01*
X34350000Y-5597742D02*
X34335714Y-5626314D01*
X34335714Y-5626314D02*
X34321429Y-5640600D01*
X34321429Y-5640600D02*
X34292857Y-5654885D01*
X34292857Y-5654885D02*
X34221429Y-5654885D01*
X34221429Y-5654885D02*
X34192857Y-5640600D01*
X34192857Y-5640600D02*
X34178571Y-5626314D01*
X34535714Y-5354885D02*
X34564285Y-5354885D01*
X34564285Y-5354885D02*
X34592857Y-5369171D01*
X34592857Y-5369171D02*
X34607143Y-5383457D01*
X34607143Y-5383457D02*
X34621428Y-5412028D01*
X34621428Y-5412028D02*
X34635714Y-5469171D01*
X34635714Y-5469171D02*
X34635714Y-5540600D01*
X34635714Y-5540600D02*
X34621428Y-5597742D01*
X34621428Y-5597742D02*
X34607143Y-5626314D01*
X34607143Y-5626314D02*
X34592857Y-5640600D01*
X34592857Y-5640600D02*
X34564285Y-5654885D01*
X34564285Y-5654885D02*
X34535714Y-5654885D01*
X34535714Y-5654885D02*
X34507143Y-5640600D01*
X34507143Y-5640600D02*
X34492857Y-5626314D01*
X34492857Y-5626314D02*
X34478571Y-5597742D01*
X34478571Y-5597742D02*
X34464285Y-5540600D01*
X34464285Y-5540600D02*
X34464285Y-5469171D01*
X34464285Y-5469171D02*
X34478571Y-5412028D01*
X34478571Y-5412028D02*
X34492857Y-5383457D01*
X34492857Y-5383457D02*
X34507143Y-5369171D01*
X34507143Y-5369171D02*
X34535714Y-5354885D01*
X34721428Y-5354885D02*
X34821428Y-5654885D01*
X34821428Y-5654885D02*
X34921428Y-5354885D01*
X34528572Y-9264885D02*
X34528572Y-9464885D01*
X34457143Y-9150600D02*
X34385714Y-9364885D01*
X34385714Y-9364885D02*
X34571429Y-9364885D01*
X34685714Y-9436314D02*
X34700000Y-9450600D01*
X34700000Y-9450600D02*
X34685714Y-9464885D01*
X34685714Y-9464885D02*
X34671428Y-9450600D01*
X34671428Y-9450600D02*
X34685714Y-9436314D01*
X34685714Y-9436314D02*
X34685714Y-9464885D01*
X34800000Y-9164885D02*
X35000000Y-9164885D01*
X35000000Y-9164885D02*
X34871428Y-9464885D01*
X35242857Y-9264885D02*
X35242857Y-9464885D01*
X35114285Y-9264885D02*
X35114285Y-9422028D01*
X35114285Y-9422028D02*
X35128571Y-9450600D01*
X35128571Y-9450600D02*
X35157142Y-9464885D01*
X35157142Y-9464885D02*
X35199999Y-9464885D01*
X35199999Y-9464885D02*
X35228571Y-9450600D01*
X35228571Y-9450600D02*
X35242857Y-9436314D01*
X35485714Y-9307742D02*
X35385714Y-9307742D01*
X35385714Y-9464885D02*
X35385714Y-9164885D01*
X35385714Y-9164885D02*
X35528571Y-9164885D01*
X27829885Y-11242856D02*
X27829885Y-11042856D01*
X27829885Y-11042856D02*
X28129885Y-11171428D01*
X27829885Y-10785714D02*
X27829885Y-10928571D01*
X27829885Y-10928571D02*
X27972742Y-10942857D01*
X27972742Y-10942857D02*
X27958457Y-10928571D01*
X27958457Y-10928571D02*
X27944171Y-10900000D01*
X27944171Y-10900000D02*
X27944171Y-10828571D01*
X27944171Y-10828571D02*
X27958457Y-10800000D01*
X27958457Y-10800000D02*
X27972742Y-10785714D01*
X27972742Y-10785714D02*
X28001314Y-10771428D01*
X28001314Y-10771428D02*
X28072742Y-10771428D01*
X28072742Y-10771428D02*
X28101314Y-10785714D01*
X28101314Y-10785714D02*
X28115600Y-10800000D01*
X28115600Y-10800000D02*
X28129885Y-10828571D01*
X28129885Y-10828571D02*
X28129885Y-10900000D01*
X28129885Y-10900000D02*
X28115600Y-10928571D01*
X28115600Y-10928571D02*
X28101314Y-10942857D01*
X28129885Y-10471428D02*
X27987028Y-10571428D01*
X28129885Y-10642857D02*
X27829885Y-10642857D01*
X27829885Y-10642857D02*
X27829885Y-10528571D01*
X27829885Y-10528571D02*
X27844171Y-10500000D01*
X27844171Y-10500000D02*
X27858457Y-10485714D01*
X27858457Y-10485714D02*
X27887028Y-10471428D01*
X27887028Y-10471428D02*
X27929885Y-10471428D01*
X27929885Y-10471428D02*
X27958457Y-10485714D01*
X27958457Y-10485714D02*
X27972742Y-10500000D01*
X27972742Y-10500000D02*
X27987028Y-10528571D01*
X27987028Y-10528571D02*
X27987028Y-10642857D01*
X16640272Y-8014505D02*
X16811701Y-8014505D01*
X16725986Y-8314505D02*
X16725986Y-8014505D01*
X17025986Y-8300220D02*
X16997414Y-8314505D01*
X16997414Y-8314505D02*
X16940272Y-8314505D01*
X16940272Y-8314505D02*
X16911700Y-8300220D01*
X16911700Y-8300220D02*
X16897414Y-8271648D01*
X16897414Y-8271648D02*
X16897414Y-8157362D01*
X16897414Y-8157362D02*
X16911700Y-8128791D01*
X16911700Y-8128791D02*
X16940272Y-8114505D01*
X16940272Y-8114505D02*
X16997414Y-8114505D01*
X16997414Y-8114505D02*
X17025986Y-8128791D01*
X17025986Y-8128791D02*
X17040272Y-8157362D01*
X17040272Y-8157362D02*
X17040272Y-8185934D01*
X17040272Y-8185934D02*
X16897414Y-8214505D01*
X17168843Y-8314505D02*
X17168843Y-8114505D01*
X17168843Y-8171648D02*
X17183129Y-8143077D01*
X17183129Y-8143077D02*
X17197415Y-8128791D01*
X17197415Y-8128791D02*
X17225986Y-8114505D01*
X17225986Y-8114505D02*
X17254557Y-8114505D01*
X17354557Y-8314505D02*
X17354557Y-8114505D01*
X17354557Y-8143077D02*
X17368843Y-8128791D01*
X17368843Y-8128791D02*
X17397414Y-8114505D01*
X17397414Y-8114505D02*
X17440271Y-8114505D01*
X17440271Y-8114505D02*
X17468843Y-8128791D01*
X17468843Y-8128791D02*
X17483129Y-8157362D01*
X17483129Y-8157362D02*
X17483129Y-8314505D01*
X17483129Y-8157362D02*
X17497414Y-8128791D01*
X17497414Y-8128791D02*
X17525986Y-8114505D01*
X17525986Y-8114505D02*
X17568843Y-8114505D01*
X17568843Y-8114505D02*
X17597414Y-8128791D01*
X17597414Y-8128791D02*
X17611700Y-8157362D01*
X17611700Y-8157362D02*
X17611700Y-8314505D01*
X17754557Y-8314505D02*
X17754557Y-8114505D01*
X17754557Y-8014505D02*
X17740271Y-8028791D01*
X17740271Y-8028791D02*
X17754557Y-8043077D01*
X17754557Y-8043077D02*
X17768843Y-8028791D01*
X17768843Y-8028791D02*
X17754557Y-8014505D01*
X17754557Y-8014505D02*
X17754557Y-8043077D01*
X17897414Y-8114505D02*
X17897414Y-8314505D01*
X17897414Y-8143077D02*
X17911700Y-8128791D01*
X17911700Y-8128791D02*
X17940271Y-8114505D01*
X17940271Y-8114505D02*
X17983128Y-8114505D01*
X17983128Y-8114505D02*
X18011700Y-8128791D01*
X18011700Y-8128791D02*
X18025986Y-8157362D01*
X18025986Y-8157362D02*
X18025986Y-8314505D01*
X18297415Y-8314505D02*
X18297415Y-8157362D01*
X18297415Y-8157362D02*
X18283129Y-8128791D01*
X18283129Y-8128791D02*
X18254557Y-8114505D01*
X18254557Y-8114505D02*
X18197415Y-8114505D01*
X18197415Y-8114505D02*
X18168843Y-8128791D01*
X18297415Y-8300220D02*
X18268843Y-8314505D01*
X18268843Y-8314505D02*
X18197415Y-8314505D01*
X18197415Y-8314505D02*
X18168843Y-8300220D01*
X18168843Y-8300220D02*
X18154557Y-8271648D01*
X18154557Y-8271648D02*
X18154557Y-8243077D01*
X18154557Y-8243077D02*
X18168843Y-8214505D01*
X18168843Y-8214505D02*
X18197415Y-8200220D01*
X18197415Y-8200220D02*
X18268843Y-8200220D01*
X18268843Y-8200220D02*
X18297415Y-8185934D01*
X18483129Y-8314505D02*
X18454558Y-8300220D01*
X18454558Y-8300220D02*
X18440272Y-8271648D01*
X18440272Y-8271648D02*
X18440272Y-8014505D01*
X18697415Y-8157362D02*
X18740272Y-8171648D01*
X18740272Y-8171648D02*
X18754558Y-8185934D01*
X18754558Y-8185934D02*
X18768844Y-8214505D01*
X18768844Y-8214505D02*
X18768844Y-8257362D01*
X18768844Y-8257362D02*
X18754558Y-8285934D01*
X18754558Y-8285934D02*
X18740272Y-8300220D01*
X18740272Y-8300220D02*
X18711701Y-8314505D01*
X18711701Y-8314505D02*
X18597415Y-8314505D01*
X18597415Y-8314505D02*
X18597415Y-8014505D01*
X18597415Y-8014505D02*
X18697415Y-8014505D01*
X18697415Y-8014505D02*
X18725987Y-8028791D01*
X18725987Y-8028791D02*
X18740272Y-8043077D01*
X18740272Y-8043077D02*
X18754558Y-8071648D01*
X18754558Y-8071648D02*
X18754558Y-8100220D01*
X18754558Y-8100220D02*
X18740272Y-8128791D01*
X18740272Y-8128791D02*
X18725987Y-8143077D01*
X18725987Y-8143077D02*
X18697415Y-8157362D01*
X18697415Y-8157362D02*
X18597415Y-8157362D01*
X18940272Y-8314505D02*
X18911701Y-8300220D01*
X18911701Y-8300220D02*
X18897415Y-8271648D01*
X18897415Y-8271648D02*
X18897415Y-8014505D01*
X19097415Y-8314505D02*
X19068844Y-8300220D01*
X19068844Y-8300220D02*
X19054558Y-8285934D01*
X19054558Y-8285934D02*
X19040272Y-8257362D01*
X19040272Y-8257362D02*
X19040272Y-8171648D01*
X19040272Y-8171648D02*
X19054558Y-8143077D01*
X19054558Y-8143077D02*
X19068844Y-8128791D01*
X19068844Y-8128791D02*
X19097415Y-8114505D01*
X19097415Y-8114505D02*
X19140272Y-8114505D01*
X19140272Y-8114505D02*
X19168844Y-8128791D01*
X19168844Y-8128791D02*
X19183130Y-8143077D01*
X19183130Y-8143077D02*
X19197415Y-8171648D01*
X19197415Y-8171648D02*
X19197415Y-8257362D01*
X19197415Y-8257362D02*
X19183130Y-8285934D01*
X19183130Y-8285934D02*
X19168844Y-8300220D01*
X19168844Y-8300220D02*
X19140272Y-8314505D01*
X19140272Y-8314505D02*
X19097415Y-8314505D01*
X19454559Y-8300220D02*
X19425987Y-8314505D01*
X19425987Y-8314505D02*
X19368844Y-8314505D01*
X19368844Y-8314505D02*
X19340273Y-8300220D01*
X19340273Y-8300220D02*
X19325987Y-8285934D01*
X19325987Y-8285934D02*
X19311701Y-8257362D01*
X19311701Y-8257362D02*
X19311701Y-8171648D01*
X19311701Y-8171648D02*
X19325987Y-8143077D01*
X19325987Y-8143077D02*
X19340273Y-8128791D01*
X19340273Y-8128791D02*
X19368844Y-8114505D01*
X19368844Y-8114505D02*
X19425987Y-8114505D01*
X19425987Y-8114505D02*
X19454559Y-8128791D01*
X19583130Y-8314505D02*
X19583130Y-8014505D01*
X19611702Y-8200220D02*
X19697416Y-8314505D01*
X19697416Y-8114505D02*
X19583130Y-8228791D01*
X19754559Y-8343077D02*
X19983130Y-8343077D01*
X20040272Y-8043077D02*
X20054558Y-8028791D01*
X20054558Y-8028791D02*
X20083130Y-8014505D01*
X20083130Y-8014505D02*
X20154558Y-8014505D01*
X20154558Y-8014505D02*
X20183130Y-8028791D01*
X20183130Y-8028791D02*
X20197415Y-8043077D01*
X20197415Y-8043077D02*
X20211701Y-8071648D01*
X20211701Y-8071648D02*
X20211701Y-8100220D01*
X20211701Y-8100220D02*
X20197415Y-8143077D01*
X20197415Y-8143077D02*
X20025987Y-8314505D01*
X20025987Y-8314505D02*
X20211701Y-8314505D01*
X20340272Y-8314505D02*
X20340272Y-8014505D01*
X20340272Y-8014505D02*
X20454558Y-8014505D01*
X20454558Y-8014505D02*
X20483129Y-8028791D01*
X20483129Y-8028791D02*
X20497415Y-8043077D01*
X20497415Y-8043077D02*
X20511701Y-8071648D01*
X20511701Y-8071648D02*
X20511701Y-8114505D01*
X20511701Y-8114505D02*
X20497415Y-8143077D01*
X20497415Y-8143077D02*
X20483129Y-8157362D01*
X20483129Y-8157362D02*
X20454558Y-8171648D01*
X20454558Y-8171648D02*
X20340272Y-8171648D01*
X20568844Y-8343077D02*
X20797415Y-8343077D01*
X20840272Y-8014505D02*
X21025986Y-8014505D01*
X21025986Y-8014505D02*
X20925986Y-8128791D01*
X20925986Y-8128791D02*
X20968843Y-8128791D01*
X20968843Y-8128791D02*
X20997415Y-8143077D01*
X20997415Y-8143077D02*
X21011700Y-8157362D01*
X21011700Y-8157362D02*
X21025986Y-8185934D01*
X21025986Y-8185934D02*
X21025986Y-8257362D01*
X21025986Y-8257362D02*
X21011700Y-8285934D01*
X21011700Y-8285934D02*
X20997415Y-8300220D01*
X20997415Y-8300220D02*
X20968843Y-8314505D01*
X20968843Y-8314505D02*
X20883129Y-8314505D01*
X20883129Y-8314505D02*
X20854557Y-8300220D01*
X20854557Y-8300220D02*
X20840272Y-8285934D01*
X21154557Y-8285934D02*
X21168843Y-8300220D01*
X21168843Y-8300220D02*
X21154557Y-8314505D01*
X21154557Y-8314505D02*
X21140271Y-8300220D01*
X21140271Y-8300220D02*
X21154557Y-8285934D01*
X21154557Y-8285934D02*
X21154557Y-8314505D01*
X21440271Y-8014505D02*
X21297414Y-8014505D01*
X21297414Y-8014505D02*
X21283128Y-8157362D01*
X21283128Y-8157362D02*
X21297414Y-8143077D01*
X21297414Y-8143077D02*
X21325986Y-8128791D01*
X21325986Y-8128791D02*
X21397414Y-8128791D01*
X21397414Y-8128791D02*
X21425986Y-8143077D01*
X21425986Y-8143077D02*
X21440271Y-8157362D01*
X21440271Y-8157362D02*
X21454557Y-8185934D01*
X21454557Y-8185934D02*
X21454557Y-8257362D01*
X21454557Y-8257362D02*
X21440271Y-8285934D01*
X21440271Y-8285934D02*
X21425986Y-8300220D01*
X21425986Y-8300220D02*
X21397414Y-8314505D01*
X21397414Y-8314505D02*
X21325986Y-8314505D01*
X21325986Y-8314505D02*
X21297414Y-8300220D01*
X21297414Y-8300220D02*
X21283128Y-8285934D01*
X21583128Y-8314505D02*
X21583128Y-8114505D01*
X21583128Y-8143077D02*
X21597414Y-8128791D01*
X21597414Y-8128791D02*
X21625985Y-8114505D01*
X21625985Y-8114505D02*
X21668842Y-8114505D01*
X21668842Y-8114505D02*
X21697414Y-8128791D01*
X21697414Y-8128791D02*
X21711700Y-8157362D01*
X21711700Y-8157362D02*
X21711700Y-8314505D01*
X21711700Y-8157362D02*
X21725985Y-8128791D01*
X21725985Y-8128791D02*
X21754557Y-8114505D01*
X21754557Y-8114505D02*
X21797414Y-8114505D01*
X21797414Y-8114505D02*
X21825985Y-8128791D01*
X21825985Y-8128791D02*
X21840271Y-8157362D01*
X21840271Y-8157362D02*
X21840271Y-8314505D01*
X21983128Y-8314505D02*
X21983128Y-8114505D01*
X21983128Y-8143077D02*
X21997414Y-8128791D01*
X21997414Y-8128791D02*
X22025985Y-8114505D01*
X22025985Y-8114505D02*
X22068842Y-8114505D01*
X22068842Y-8114505D02*
X22097414Y-8128791D01*
X22097414Y-8128791D02*
X22111700Y-8157362D01*
X22111700Y-8157362D02*
X22111700Y-8314505D01*
X22111700Y-8157362D02*
X22125985Y-8128791D01*
X22125985Y-8128791D02*
X22154557Y-8114505D01*
X22154557Y-8114505D02*
X22197414Y-8114505D01*
X22197414Y-8114505D02*
X22225985Y-8128791D01*
X22225985Y-8128791D02*
X22240271Y-8157362D01*
X22240271Y-8157362D02*
X22240271Y-8314505D01*
X10728572Y-8646289D02*
X10728572Y-8846289D01*
X10657143Y-8532004D02*
X10585714Y-8746289D01*
X10585714Y-8746289D02*
X10771429Y-8746289D01*
X10885714Y-8817718D02*
X10900000Y-8832004D01*
X10900000Y-8832004D02*
X10885714Y-8846289D01*
X10885714Y-8846289D02*
X10871428Y-8832004D01*
X10871428Y-8832004D02*
X10885714Y-8817718D01*
X10885714Y-8817718D02*
X10885714Y-8846289D01*
X11000000Y-8546289D02*
X11200000Y-8546289D01*
X11200000Y-8546289D02*
X11071428Y-8846289D01*
X11442857Y-8646289D02*
X11442857Y-8846289D01*
X11314285Y-8646289D02*
X11314285Y-8803432D01*
X11314285Y-8803432D02*
X11328571Y-8832004D01*
X11328571Y-8832004D02*
X11357142Y-8846289D01*
X11357142Y-8846289D02*
X11399999Y-8846289D01*
X11399999Y-8846289D02*
X11428571Y-8832004D01*
X11428571Y-8832004D02*
X11442857Y-8817718D01*
X11685714Y-8689146D02*
X11585714Y-8689146D01*
X11585714Y-8846289D02*
X11585714Y-8546289D01*
X11585714Y-8546289D02*
X11728571Y-8546289D01*
X10884885Y-11531403D02*
X10584885Y-11531403D01*
X10584885Y-11531403D02*
X10799171Y-11431403D01*
X10799171Y-11431403D02*
X10584885Y-11331403D01*
X10584885Y-11331403D02*
X10884885Y-11331403D01*
X10727742Y-11188546D02*
X10727742Y-11088546D01*
X10884885Y-11045689D02*
X10884885Y-11188546D01*
X10884885Y-11188546D02*
X10584885Y-11188546D01*
X10584885Y-11188546D02*
X10584885Y-11045689D01*
X10584885Y-10788546D02*
X10584885Y-10845688D01*
X10584885Y-10845688D02*
X10599171Y-10874260D01*
X10599171Y-10874260D02*
X10613457Y-10888546D01*
X10613457Y-10888546D02*
X10656314Y-10917117D01*
X10656314Y-10917117D02*
X10713457Y-10931403D01*
X10713457Y-10931403D02*
X10827742Y-10931403D01*
X10827742Y-10931403D02*
X10856314Y-10917117D01*
X10856314Y-10917117D02*
X10870600Y-10902831D01*
X10870600Y-10902831D02*
X10884885Y-10874260D01*
X10884885Y-10874260D02*
X10884885Y-10817117D01*
X10884885Y-10817117D02*
X10870600Y-10788546D01*
X10870600Y-10788546D02*
X10856314Y-10774260D01*
X10856314Y-10774260D02*
X10827742Y-10759974D01*
X10827742Y-10759974D02*
X10756314Y-10759974D01*
X10756314Y-10759974D02*
X10727742Y-10774260D01*
X10727742Y-10774260D02*
X10713457Y-10788546D01*
X10713457Y-10788546D02*
X10699171Y-10817117D01*
X10699171Y-10817117D02*
X10699171Y-10874260D01*
X10699171Y-10874260D02*
X10713457Y-10902831D01*
X10713457Y-10902831D02*
X10727742Y-10917117D01*
X10727742Y-10917117D02*
X10756314Y-10931403D01*
X10613457Y-10645689D02*
X10599171Y-10631403D01*
X10599171Y-10631403D02*
X10584885Y-10602832D01*
X10584885Y-10602832D02*
X10584885Y-10531403D01*
X10584885Y-10531403D02*
X10599171Y-10502832D01*
X10599171Y-10502832D02*
X10613457Y-10488546D01*
X10613457Y-10488546D02*
X10642028Y-10474260D01*
X10642028Y-10474260D02*
X10670600Y-10474260D01*
X10670600Y-10474260D02*
X10713457Y-10488546D01*
X10713457Y-10488546D02*
X10884885Y-10659974D01*
X10884885Y-10659974D02*
X10884885Y-10474260D01*
X10884885Y-10188546D02*
X10884885Y-10359975D01*
X10884885Y-10274260D02*
X10584885Y-10274260D01*
X10584885Y-10274260D02*
X10627742Y-10302832D01*
X10627742Y-10302832D02*
X10656314Y-10331403D01*
X10656314Y-10331403D02*
X10670600Y-10359975D01*
X10884885Y-9902832D02*
X10884885Y-10074261D01*
X10884885Y-9988546D02*
X10584885Y-9988546D01*
X10584885Y-9988546D02*
X10627742Y-10017118D01*
X10627742Y-10017118D02*
X10656314Y-10045689D01*
X10656314Y-10045689D02*
X10670600Y-10074261D01*
X10856314Y-9602832D02*
X10870600Y-9617118D01*
X10870600Y-9617118D02*
X10884885Y-9659975D01*
X10884885Y-9659975D02*
X10884885Y-9688547D01*
X10884885Y-9688547D02*
X10870600Y-9731404D01*
X10870600Y-9731404D02*
X10842028Y-9759975D01*
X10842028Y-9759975D02*
X10813457Y-9774261D01*
X10813457Y-9774261D02*
X10756314Y-9788547D01*
X10756314Y-9788547D02*
X10713457Y-9788547D01*
X10713457Y-9788547D02*
X10656314Y-9774261D01*
X10656314Y-9774261D02*
X10627742Y-9759975D01*
X10627742Y-9759975D02*
X10599171Y-9731404D01*
X10599171Y-9731404D02*
X10584885Y-9688547D01*
X10584885Y-9688547D02*
X10584885Y-9659975D01*
X10584885Y-9659975D02*
X10599171Y-9617118D01*
X10599171Y-9617118D02*
X10613457Y-9602832D01*
X10584885Y-9502832D02*
X10584885Y-9317118D01*
X10584885Y-9317118D02*
X10699171Y-9417118D01*
X10699171Y-9417118D02*
X10699171Y-9374261D01*
X10699171Y-9374261D02*
X10713457Y-9345690D01*
X10713457Y-9345690D02*
X10727742Y-9331404D01*
X10727742Y-9331404D02*
X10756314Y-9317118D01*
X10756314Y-9317118D02*
X10827742Y-9317118D01*
X10827742Y-9317118D02*
X10856314Y-9331404D01*
X10856314Y-9331404D02*
X10870600Y-9345690D01*
X10870600Y-9345690D02*
X10884885Y-9374261D01*
X10884885Y-9374261D02*
X10884885Y-9459975D01*
X10884885Y-9459975D02*
X10870600Y-9488547D01*
X10870600Y-9488547D02*
X10856314Y-9502832D01*
X10584885Y-9217118D02*
X10584885Y-9031404D01*
X10584885Y-9031404D02*
X10699171Y-9131404D01*
X10699171Y-9131404D02*
X10699171Y-9088547D01*
X10699171Y-9088547D02*
X10713457Y-9059976D01*
X10713457Y-9059976D02*
X10727742Y-9045690D01*
X10727742Y-9045690D02*
X10756314Y-9031404D01*
X10756314Y-9031404D02*
X10827742Y-9031404D01*
X10827742Y-9031404D02*
X10856314Y-9045690D01*
X10856314Y-9045690D02*
X10870600Y-9059976D01*
X10870600Y-9059976D02*
X10884885Y-9088547D01*
X10884885Y-9088547D02*
X10884885Y-9174261D01*
X10884885Y-9174261D02*
X10870600Y-9202833D01*
X10870600Y-9202833D02*
X10856314Y-9217118D01*
X10884885Y-8902833D02*
X10584885Y-8902833D01*
X10584885Y-8902833D02*
X10799171Y-8802833D01*
X10799171Y-8802833D02*
X10584885Y-8702833D01*
X10584885Y-8702833D02*
X10884885Y-8702833D01*
X10584885Y-8417119D02*
X10584885Y-8559976D01*
X10584885Y-8559976D02*
X10727742Y-8574262D01*
X10727742Y-8574262D02*
X10713457Y-8559976D01*
X10713457Y-8559976D02*
X10699171Y-8531405D01*
X10699171Y-8531405D02*
X10699171Y-8459976D01*
X10699171Y-8459976D02*
X10713457Y-8431405D01*
X10713457Y-8431405D02*
X10727742Y-8417119D01*
X10727742Y-8417119D02*
X10756314Y-8402833D01*
X10756314Y-8402833D02*
X10827742Y-8402833D01*
X10827742Y-8402833D02*
X10856314Y-8417119D01*
X10856314Y-8417119D02*
X10870600Y-8431405D01*
X10870600Y-8431405D02*
X10884885Y-8459976D01*
X10884885Y-8459976D02*
X10884885Y-8531405D01*
X10884885Y-8531405D02*
X10870600Y-8559976D01*
X10870600Y-8559976D02*
X10856314Y-8574262D01*
X10599171Y-8117119D02*
X10584885Y-8145691D01*
X10584885Y-8145691D02*
X10584885Y-8188548D01*
X10584885Y-8188548D02*
X10599171Y-8231405D01*
X10599171Y-8231405D02*
X10627742Y-8259976D01*
X10627742Y-8259976D02*
X10656314Y-8274262D01*
X10656314Y-8274262D02*
X10713457Y-8288548D01*
X10713457Y-8288548D02*
X10756314Y-8288548D01*
X10756314Y-8288548D02*
X10813457Y-8274262D01*
X10813457Y-8274262D02*
X10842028Y-8259976D01*
X10842028Y-8259976D02*
X10870600Y-8231405D01*
X10870600Y-8231405D02*
X10884885Y-8188548D01*
X10884885Y-8188548D02*
X10884885Y-8159976D01*
X10884885Y-8159976D02*
X10870600Y-8117119D01*
X10870600Y-8117119D02*
X10856314Y-8102833D01*
X10856314Y-8102833D02*
X10756314Y-8102833D01*
X10756314Y-8102833D02*
X10756314Y-8159976D01*
X10770600Y-7974262D02*
X10770600Y-7745691D01*
X10884885Y-7602833D02*
X10584885Y-7602833D01*
X10584885Y-7602833D02*
X10884885Y-7431404D01*
X10884885Y-7431404D02*
X10584885Y-7431404D01*
X40814885Y-2342856D02*
X40814885Y-2314285D01*
X40814885Y-2314285D02*
X40829171Y-2285713D01*
X40829171Y-2285713D02*
X40843457Y-2271428D01*
X40843457Y-2271428D02*
X40872028Y-2257142D01*
X40872028Y-2257142D02*
X40929171Y-2242856D01*
X40929171Y-2242856D02*
X41000600Y-2242856D01*
X41000600Y-2242856D02*
X41057742Y-2257142D01*
X41057742Y-2257142D02*
X41086314Y-2271428D01*
X41086314Y-2271428D02*
X41100600Y-2285713D01*
X41100600Y-2285713D02*
X41114885Y-2314285D01*
X41114885Y-2314285D02*
X41114885Y-2342856D01*
X41114885Y-2342856D02*
X41100600Y-2371428D01*
X41100600Y-2371428D02*
X41086314Y-2385713D01*
X41086314Y-2385713D02*
X41057742Y-2399999D01*
X41057742Y-2399999D02*
X41000600Y-2414285D01*
X41000600Y-2414285D02*
X40929171Y-2414285D01*
X40929171Y-2414285D02*
X40872028Y-2399999D01*
X40872028Y-2399999D02*
X40843457Y-2385713D01*
X40843457Y-2385713D02*
X40829171Y-2371428D01*
X40829171Y-2371428D02*
X40814885Y-2342856D01*
X41086314Y-2114285D02*
X41100600Y-2099999D01*
X41100600Y-2099999D02*
X41114885Y-2114285D01*
X41114885Y-2114285D02*
X41100600Y-2128571D01*
X41100600Y-2128571D02*
X41086314Y-2114285D01*
X41086314Y-2114285D02*
X41114885Y-2114285D01*
X41114885Y-1814285D02*
X41114885Y-1985714D01*
X41114885Y-1899999D02*
X40814885Y-1899999D01*
X40814885Y-1899999D02*
X40857742Y-1928571D01*
X40857742Y-1928571D02*
X40886314Y-1957142D01*
X40886314Y-1957142D02*
X40900600Y-1985714D01*
X40914885Y-1557143D02*
X41114885Y-1557143D01*
X40914885Y-1685714D02*
X41072028Y-1685714D01*
X41072028Y-1685714D02*
X41100600Y-1671428D01*
X41100600Y-1671428D02*
X41114885Y-1642857D01*
X41114885Y-1642857D02*
X41114885Y-1600000D01*
X41114885Y-1600000D02*
X41100600Y-1571428D01*
X41100600Y-1571428D02*
X41086314Y-1557143D01*
X40957742Y-1314285D02*
X40957742Y-1414285D01*
X41114885Y-1414285D02*
X40814885Y-1414285D01*
X40814885Y-1414285D02*
X40814885Y-1271428D01*
X535713Y-5884885D02*
X535713Y-5584885D01*
X535713Y-5584885D02*
X635713Y-5799171D01*
X635713Y-5799171D02*
X735713Y-5584885D01*
X735713Y-5584885D02*
X735713Y-5884885D01*
X864284Y-5613457D02*
X878570Y-5599171D01*
X878570Y-5599171D02*
X907142Y-5584885D01*
X907142Y-5584885D02*
X978570Y-5584885D01*
X978570Y-5584885D02*
X1007142Y-5599171D01*
X1007142Y-5599171D02*
X1021427Y-5613457D01*
X1021427Y-5613457D02*
X1035713Y-5642028D01*
X1035713Y-5642028D02*
X1035713Y-5670600D01*
X1035713Y-5670600D02*
X1021427Y-5713457D01*
X1021427Y-5713457D02*
X849999Y-5884885D01*
X849999Y-5884885D02*
X1035713Y-5884885D01*
X1164284Y-5856314D02*
X1178570Y-5870600D01*
X1178570Y-5870600D02*
X1164284Y-5884885D01*
X1164284Y-5884885D02*
X1149998Y-5870600D01*
X1149998Y-5870600D02*
X1164284Y-5856314D01*
X1164284Y-5856314D02*
X1164284Y-5884885D01*
X1449998Y-5584885D02*
X1307141Y-5584885D01*
X1307141Y-5584885D02*
X1292855Y-5727742D01*
X1292855Y-5727742D02*
X1307141Y-5713457D01*
X1307141Y-5713457D02*
X1335713Y-5699171D01*
X1335713Y-5699171D02*
X1407141Y-5699171D01*
X1407141Y-5699171D02*
X1435713Y-5713457D01*
X1435713Y-5713457D02*
X1449998Y-5727742D01*
X1449998Y-5727742D02*
X1464284Y-5756314D01*
X1464284Y-5756314D02*
X1464284Y-5827742D01*
X1464284Y-5827742D02*
X1449998Y-5856314D01*
X1449998Y-5856314D02*
X1435713Y-5870600D01*
X1435713Y-5870600D02*
X1407141Y-5884885D01*
X1407141Y-5884885D02*
X1335713Y-5884885D01*
X1335713Y-5884885D02*
X1307141Y-5870600D01*
X1307141Y-5870600D02*
X1292855Y-5856314D01*
X1592855Y-5884885D02*
X1592855Y-5584885D01*
X1592855Y-5584885D02*
X1692855Y-5799171D01*
X1692855Y-5799171D02*
X1792855Y-5584885D01*
X1792855Y-5584885D02*
X1792855Y-5884885D01*
X1978569Y-5884885D02*
X1949998Y-5870600D01*
X1949998Y-5870600D02*
X1935712Y-5856314D01*
X1935712Y-5856314D02*
X1921426Y-5827742D01*
X1921426Y-5827742D02*
X1921426Y-5742028D01*
X1921426Y-5742028D02*
X1935712Y-5713457D01*
X1935712Y-5713457D02*
X1949998Y-5699171D01*
X1949998Y-5699171D02*
X1978569Y-5684885D01*
X1978569Y-5684885D02*
X2021426Y-5684885D01*
X2021426Y-5684885D02*
X2049998Y-5699171D01*
X2049998Y-5699171D02*
X2064284Y-5713457D01*
X2064284Y-5713457D02*
X2078569Y-5742028D01*
X2078569Y-5742028D02*
X2078569Y-5827742D01*
X2078569Y-5827742D02*
X2064284Y-5856314D01*
X2064284Y-5856314D02*
X2049998Y-5870600D01*
X2049998Y-5870600D02*
X2021426Y-5884885D01*
X2021426Y-5884885D02*
X1978569Y-5884885D01*
X2335713Y-5684885D02*
X2335713Y-5884885D01*
X2207141Y-5684885D02*
X2207141Y-5842028D01*
X2207141Y-5842028D02*
X2221427Y-5870600D01*
X2221427Y-5870600D02*
X2249998Y-5884885D01*
X2249998Y-5884885D02*
X2292855Y-5884885D01*
X2292855Y-5884885D02*
X2321427Y-5870600D01*
X2321427Y-5870600D02*
X2335713Y-5856314D01*
X2478570Y-5684885D02*
X2478570Y-5884885D01*
X2478570Y-5713457D02*
X2492856Y-5699171D01*
X2492856Y-5699171D02*
X2521427Y-5684885D01*
X2521427Y-5684885D02*
X2564284Y-5684885D01*
X2564284Y-5684885D02*
X2592856Y-5699171D01*
X2592856Y-5699171D02*
X2607142Y-5727742D01*
X2607142Y-5727742D02*
X2607142Y-5884885D01*
X2707142Y-5684885D02*
X2821428Y-5684885D01*
X2749999Y-5584885D02*
X2749999Y-5842028D01*
X2749999Y-5842028D02*
X2764285Y-5870600D01*
X2764285Y-5870600D02*
X2792856Y-5884885D01*
X2792856Y-5884885D02*
X2821428Y-5884885D01*
X2921428Y-5884885D02*
X2921428Y-5684885D01*
X2921428Y-5584885D02*
X2907142Y-5599171D01*
X2907142Y-5599171D02*
X2921428Y-5613457D01*
X2921428Y-5613457D02*
X2935714Y-5599171D01*
X2935714Y-5599171D02*
X2921428Y-5584885D01*
X2921428Y-5584885D02*
X2921428Y-5613457D01*
X3064285Y-5684885D02*
X3064285Y-5884885D01*
X3064285Y-5713457D02*
X3078571Y-5699171D01*
X3078571Y-5699171D02*
X3107142Y-5684885D01*
X3107142Y-5684885D02*
X3149999Y-5684885D01*
X3149999Y-5684885D02*
X3178571Y-5699171D01*
X3178571Y-5699171D02*
X3192857Y-5727742D01*
X3192857Y-5727742D02*
X3192857Y-5884885D01*
X3464286Y-5684885D02*
X3464286Y-5927742D01*
X3464286Y-5927742D02*
X3450000Y-5956314D01*
X3450000Y-5956314D02*
X3435714Y-5970600D01*
X3435714Y-5970600D02*
X3407143Y-5984885D01*
X3407143Y-5984885D02*
X3364286Y-5984885D01*
X3364286Y-5984885D02*
X3335714Y-5970600D01*
X3464286Y-5870600D02*
X3435714Y-5884885D01*
X3435714Y-5884885D02*
X3378571Y-5884885D01*
X3378571Y-5884885D02*
X3350000Y-5870600D01*
X3350000Y-5870600D02*
X3335714Y-5856314D01*
X3335714Y-5856314D02*
X3321428Y-5827742D01*
X3321428Y-5827742D02*
X3321428Y-5742028D01*
X3321428Y-5742028D02*
X3335714Y-5713457D01*
X3335714Y-5713457D02*
X3350000Y-5699171D01*
X3350000Y-5699171D02*
X3378571Y-5684885D01*
X3378571Y-5684885D02*
X3435714Y-5684885D01*
X3435714Y-5684885D02*
X3464286Y-5699171D01*
X3607143Y-5884885D02*
X3607143Y-5584885D01*
X3607143Y-5727742D02*
X3778572Y-5727742D01*
X3778572Y-5884885D02*
X3778572Y-5584885D01*
X3964286Y-5884885D02*
X3935715Y-5870600D01*
X3935715Y-5870600D02*
X3921429Y-5856314D01*
X3921429Y-5856314D02*
X3907143Y-5827742D01*
X3907143Y-5827742D02*
X3907143Y-5742028D01*
X3907143Y-5742028D02*
X3921429Y-5713457D01*
X3921429Y-5713457D02*
X3935715Y-5699171D01*
X3935715Y-5699171D02*
X3964286Y-5684885D01*
X3964286Y-5684885D02*
X4007143Y-5684885D01*
X4007143Y-5684885D02*
X4035715Y-5699171D01*
X4035715Y-5699171D02*
X4050001Y-5713457D01*
X4050001Y-5713457D02*
X4064286Y-5742028D01*
X4064286Y-5742028D02*
X4064286Y-5827742D01*
X4064286Y-5827742D02*
X4050001Y-5856314D01*
X4050001Y-5856314D02*
X4035715Y-5870600D01*
X4035715Y-5870600D02*
X4007143Y-5884885D01*
X4007143Y-5884885D02*
X3964286Y-5884885D01*
X4235715Y-5884885D02*
X4207144Y-5870600D01*
X4207144Y-5870600D02*
X4192858Y-5842028D01*
X4192858Y-5842028D02*
X4192858Y-5584885D01*
X4464287Y-5870600D02*
X4435715Y-5884885D01*
X4435715Y-5884885D02*
X4378573Y-5884885D01*
X4378573Y-5884885D02*
X4350001Y-5870600D01*
X4350001Y-5870600D02*
X4335715Y-5842028D01*
X4335715Y-5842028D02*
X4335715Y-5727742D01*
X4335715Y-5727742D02*
X4350001Y-5699171D01*
X4350001Y-5699171D02*
X4378573Y-5684885D01*
X4378573Y-5684885D02*
X4435715Y-5684885D01*
X4435715Y-5684885D02*
X4464287Y-5699171D01*
X4464287Y-5699171D02*
X4478573Y-5727742D01*
X4478573Y-5727742D02*
X4478573Y-5756314D01*
X4478573Y-5756314D02*
X4335715Y-5784885D01*
X27750811Y-8092856D02*
X27750811Y-7892856D01*
X27750811Y-7892856D02*
X28050811Y-8021428D01*
X27750811Y-7635714D02*
X27750811Y-7778571D01*
X27750811Y-7778571D02*
X27893668Y-7792857D01*
X27893668Y-7792857D02*
X27879383Y-7778571D01*
X27879383Y-7778571D02*
X27865097Y-7750000D01*
X27865097Y-7750000D02*
X27865097Y-7678571D01*
X27865097Y-7678571D02*
X27879383Y-7650000D01*
X27879383Y-7650000D02*
X27893668Y-7635714D01*
X27893668Y-7635714D02*
X27922240Y-7621428D01*
X27922240Y-7621428D02*
X27993668Y-7621428D01*
X27993668Y-7621428D02*
X28022240Y-7635714D01*
X28022240Y-7635714D02*
X28036526Y-7650000D01*
X28036526Y-7650000D02*
X28050811Y-7678571D01*
X28050811Y-7678571D02*
X28050811Y-7750000D01*
X28050811Y-7750000D02*
X28036526Y-7778571D01*
X28036526Y-7778571D02*
X28022240Y-7792857D01*
X28050811Y-7321428D02*
X27907954Y-7421428D01*
X28050811Y-7492857D02*
X27750811Y-7492857D01*
X27750811Y-7492857D02*
X27750811Y-7378571D01*
X27750811Y-7378571D02*
X27765097Y-7350000D01*
X27765097Y-7350000D02*
X27779383Y-7335714D01*
X27779383Y-7335714D02*
X27807954Y-7321428D01*
X27807954Y-7321428D02*
X27850811Y-7321428D01*
X27850811Y-7321428D02*
X27879383Y-7335714D01*
X27879383Y-7335714D02*
X27893668Y-7350000D01*
X27893668Y-7350000D02*
X27907954Y-7378571D01*
X27907954Y-7378571D02*
X27907954Y-7492857D01*
X49535713Y-5934885D02*
X49535713Y-5634885D01*
X49535713Y-5634885D02*
X49635713Y-5849171D01*
X49635713Y-5849171D02*
X49735713Y-5634885D01*
X49735713Y-5634885D02*
X49735713Y-5934885D01*
X49864284Y-5663457D02*
X49878570Y-5649171D01*
X49878570Y-5649171D02*
X49907142Y-5634885D01*
X49907142Y-5634885D02*
X49978570Y-5634885D01*
X49978570Y-5634885D02*
X50007142Y-5649171D01*
X50007142Y-5649171D02*
X50021427Y-5663457D01*
X50021427Y-5663457D02*
X50035713Y-5692028D01*
X50035713Y-5692028D02*
X50035713Y-5720600D01*
X50035713Y-5720600D02*
X50021427Y-5763457D01*
X50021427Y-5763457D02*
X49849999Y-5934885D01*
X49849999Y-5934885D02*
X50035713Y-5934885D01*
X50164284Y-5906314D02*
X50178570Y-5920600D01*
X50178570Y-5920600D02*
X50164284Y-5934885D01*
X50164284Y-5934885D02*
X50149998Y-5920600D01*
X50149998Y-5920600D02*
X50164284Y-5906314D01*
X50164284Y-5906314D02*
X50164284Y-5934885D01*
X50449998Y-5634885D02*
X50307141Y-5634885D01*
X50307141Y-5634885D02*
X50292855Y-5777742D01*
X50292855Y-5777742D02*
X50307141Y-5763457D01*
X50307141Y-5763457D02*
X50335713Y-5749171D01*
X50335713Y-5749171D02*
X50407141Y-5749171D01*
X50407141Y-5749171D02*
X50435713Y-5763457D01*
X50435713Y-5763457D02*
X50449998Y-5777742D01*
X50449998Y-5777742D02*
X50464284Y-5806314D01*
X50464284Y-5806314D02*
X50464284Y-5877742D01*
X50464284Y-5877742D02*
X50449998Y-5906314D01*
X50449998Y-5906314D02*
X50435713Y-5920600D01*
X50435713Y-5920600D02*
X50407141Y-5934885D01*
X50407141Y-5934885D02*
X50335713Y-5934885D01*
X50335713Y-5934885D02*
X50307141Y-5920600D01*
X50307141Y-5920600D02*
X50292855Y-5906314D01*
X50592855Y-5934885D02*
X50592855Y-5634885D01*
X50592855Y-5634885D02*
X50692855Y-5849171D01*
X50692855Y-5849171D02*
X50792855Y-5634885D01*
X50792855Y-5634885D02*
X50792855Y-5934885D01*
X50978569Y-5934885D02*
X50949998Y-5920600D01*
X50949998Y-5920600D02*
X50935712Y-5906314D01*
X50935712Y-5906314D02*
X50921426Y-5877742D01*
X50921426Y-5877742D02*
X50921426Y-5792028D01*
X50921426Y-5792028D02*
X50935712Y-5763457D01*
X50935712Y-5763457D02*
X50949998Y-5749171D01*
X50949998Y-5749171D02*
X50978569Y-5734885D01*
X50978569Y-5734885D02*
X51021426Y-5734885D01*
X51021426Y-5734885D02*
X51049998Y-5749171D01*
X51049998Y-5749171D02*
X51064284Y-5763457D01*
X51064284Y-5763457D02*
X51078569Y-5792028D01*
X51078569Y-5792028D02*
X51078569Y-5877742D01*
X51078569Y-5877742D02*
X51064284Y-5906314D01*
X51064284Y-5906314D02*
X51049998Y-5920600D01*
X51049998Y-5920600D02*
X51021426Y-5934885D01*
X51021426Y-5934885D02*
X50978569Y-5934885D01*
X51335713Y-5734885D02*
X51335713Y-5934885D01*
X51207141Y-5734885D02*
X51207141Y-5892028D01*
X51207141Y-5892028D02*
X51221427Y-5920600D01*
X51221427Y-5920600D02*
X51249998Y-5934885D01*
X51249998Y-5934885D02*
X51292855Y-5934885D01*
X51292855Y-5934885D02*
X51321427Y-5920600D01*
X51321427Y-5920600D02*
X51335713Y-5906314D01*
X51478570Y-5734885D02*
X51478570Y-5934885D01*
X51478570Y-5763457D02*
X51492856Y-5749171D01*
X51492856Y-5749171D02*
X51521427Y-5734885D01*
X51521427Y-5734885D02*
X51564284Y-5734885D01*
X51564284Y-5734885D02*
X51592856Y-5749171D01*
X51592856Y-5749171D02*
X51607142Y-5777742D01*
X51607142Y-5777742D02*
X51607142Y-5934885D01*
X51707142Y-5734885D02*
X51821428Y-5734885D01*
X51749999Y-5634885D02*
X51749999Y-5892028D01*
X51749999Y-5892028D02*
X51764285Y-5920600D01*
X51764285Y-5920600D02*
X51792856Y-5934885D01*
X51792856Y-5934885D02*
X51821428Y-5934885D01*
X51921428Y-5934885D02*
X51921428Y-5734885D01*
X51921428Y-5634885D02*
X51907142Y-5649171D01*
X51907142Y-5649171D02*
X51921428Y-5663457D01*
X51921428Y-5663457D02*
X51935714Y-5649171D01*
X51935714Y-5649171D02*
X51921428Y-5634885D01*
X51921428Y-5634885D02*
X51921428Y-5663457D01*
X52064285Y-5734885D02*
X52064285Y-5934885D01*
X52064285Y-5763457D02*
X52078571Y-5749171D01*
X52078571Y-5749171D02*
X52107142Y-5734885D01*
X52107142Y-5734885D02*
X52149999Y-5734885D01*
X52149999Y-5734885D02*
X52178571Y-5749171D01*
X52178571Y-5749171D02*
X52192857Y-5777742D01*
X52192857Y-5777742D02*
X52192857Y-5934885D01*
X52464286Y-5734885D02*
X52464286Y-5977742D01*
X52464286Y-5977742D02*
X52450000Y-6006314D01*
X52450000Y-6006314D02*
X52435714Y-6020600D01*
X52435714Y-6020600D02*
X52407143Y-6034885D01*
X52407143Y-6034885D02*
X52364286Y-6034885D01*
X52364286Y-6034885D02*
X52335714Y-6020600D01*
X52464286Y-5920600D02*
X52435714Y-5934885D01*
X52435714Y-5934885D02*
X52378571Y-5934885D01*
X52378571Y-5934885D02*
X52350000Y-5920600D01*
X52350000Y-5920600D02*
X52335714Y-5906314D01*
X52335714Y-5906314D02*
X52321428Y-5877742D01*
X52321428Y-5877742D02*
X52321428Y-5792028D01*
X52321428Y-5792028D02*
X52335714Y-5763457D01*
X52335714Y-5763457D02*
X52350000Y-5749171D01*
X52350000Y-5749171D02*
X52378571Y-5734885D01*
X52378571Y-5734885D02*
X52435714Y-5734885D01*
X52435714Y-5734885D02*
X52464286Y-5749171D01*
X52607143Y-5934885D02*
X52607143Y-5634885D01*
X52607143Y-5777742D02*
X52778572Y-5777742D01*
X52778572Y-5934885D02*
X52778572Y-5634885D01*
X52964286Y-5934885D02*
X52935715Y-5920600D01*
X52935715Y-5920600D02*
X52921429Y-5906314D01*
X52921429Y-5906314D02*
X52907143Y-5877742D01*
X52907143Y-5877742D02*
X52907143Y-5792028D01*
X52907143Y-5792028D02*
X52921429Y-5763457D01*
X52921429Y-5763457D02*
X52935715Y-5749171D01*
X52935715Y-5749171D02*
X52964286Y-5734885D01*
X52964286Y-5734885D02*
X53007143Y-5734885D01*
X53007143Y-5734885D02*
X53035715Y-5749171D01*
X53035715Y-5749171D02*
X53050001Y-5763457D01*
X53050001Y-5763457D02*
X53064286Y-5792028D01*
X53064286Y-5792028D02*
X53064286Y-5877742D01*
X53064286Y-5877742D02*
X53050001Y-5906314D01*
X53050001Y-5906314D02*
X53035715Y-5920600D01*
X53035715Y-5920600D02*
X53007143Y-5934885D01*
X53007143Y-5934885D02*
X52964286Y-5934885D01*
X53235715Y-5934885D02*
X53207144Y-5920600D01*
X53207144Y-5920600D02*
X53192858Y-5892028D01*
X53192858Y-5892028D02*
X53192858Y-5634885D01*
X53464287Y-5920600D02*
X53435715Y-5934885D01*
X53435715Y-5934885D02*
X53378573Y-5934885D01*
X53378573Y-5934885D02*
X53350001Y-5920600D01*
X53350001Y-5920600D02*
X53335715Y-5892028D01*
X53335715Y-5892028D02*
X53335715Y-5777742D01*
X53335715Y-5777742D02*
X53350001Y-5749171D01*
X53350001Y-5749171D02*
X53378573Y-5734885D01*
X53378573Y-5734885D02*
X53435715Y-5734885D01*
X53435715Y-5734885D02*
X53464287Y-5749171D01*
X53464287Y-5749171D02*
X53478573Y-5777742D01*
X53478573Y-5777742D02*
X53478573Y-5806314D01*
X53478573Y-5806314D02*
X53335715Y-5834885D01*
X27764885Y-10192856D02*
X27764885Y-9992856D01*
X27764885Y-9992856D02*
X28064885Y-10121428D01*
X27764885Y-9735714D02*
X27764885Y-9878571D01*
X27764885Y-9878571D02*
X27907742Y-9892857D01*
X27907742Y-9892857D02*
X27893457Y-9878571D01*
X27893457Y-9878571D02*
X27879171Y-9850000D01*
X27879171Y-9850000D02*
X27879171Y-9778571D01*
X27879171Y-9778571D02*
X27893457Y-9750000D01*
X27893457Y-9750000D02*
X27907742Y-9735714D01*
X27907742Y-9735714D02*
X27936314Y-9721428D01*
X27936314Y-9721428D02*
X28007742Y-9721428D01*
X28007742Y-9721428D02*
X28036314Y-9735714D01*
X28036314Y-9735714D02*
X28050600Y-9750000D01*
X28050600Y-9750000D02*
X28064885Y-9778571D01*
X28064885Y-9778571D02*
X28064885Y-9850000D01*
X28064885Y-9850000D02*
X28050600Y-9878571D01*
X28050600Y-9878571D02*
X28036314Y-9892857D01*
X28064885Y-9421428D02*
X27922028Y-9521428D01*
X28064885Y-9592857D02*
X27764885Y-9592857D01*
X27764885Y-9592857D02*
X27764885Y-9478571D01*
X27764885Y-9478571D02*
X27779171Y-9450000D01*
X27779171Y-9450000D02*
X27793457Y-9435714D01*
X27793457Y-9435714D02*
X27822028Y-9421428D01*
X27822028Y-9421428D02*
X27864885Y-9421428D01*
X27864885Y-9421428D02*
X27893457Y-9435714D01*
X27893457Y-9435714D02*
X27907742Y-9450000D01*
X27907742Y-9450000D02*
X27922028Y-9478571D01*
X27922028Y-9478571D02*
X27922028Y-9592857D01*
X27779885Y-9142856D02*
X27779885Y-8942856D01*
X27779885Y-8942856D02*
X28079885Y-9071428D01*
X27779885Y-8685714D02*
X27779885Y-8828571D01*
X27779885Y-8828571D02*
X27922742Y-8842857D01*
X27922742Y-8842857D02*
X27908457Y-8828571D01*
X27908457Y-8828571D02*
X27894171Y-8800000D01*
X27894171Y-8800000D02*
X27894171Y-8728571D01*
X27894171Y-8728571D02*
X27908457Y-8700000D01*
X27908457Y-8700000D02*
X27922742Y-8685714D01*
X27922742Y-8685714D02*
X27951314Y-8671428D01*
X27951314Y-8671428D02*
X28022742Y-8671428D01*
X28022742Y-8671428D02*
X28051314Y-8685714D01*
X28051314Y-8685714D02*
X28065600Y-8700000D01*
X28065600Y-8700000D02*
X28079885Y-8728571D01*
X28079885Y-8728571D02*
X28079885Y-8800000D01*
X28079885Y-8800000D02*
X28065600Y-8828571D01*
X28065600Y-8828571D02*
X28051314Y-8842857D01*
X28079885Y-8371428D02*
X27937028Y-8471428D01*
X28079885Y-8542857D02*
X27779885Y-8542857D01*
X27779885Y-8542857D02*
X27779885Y-8428571D01*
X27779885Y-8428571D02*
X27794171Y-8400000D01*
X27794171Y-8400000D02*
X27808457Y-8385714D01*
X27808457Y-8385714D02*
X27837028Y-8371428D01*
X27837028Y-8371428D02*
X27879885Y-8371428D01*
X27879885Y-8371428D02*
X27908457Y-8385714D01*
X27908457Y-8385714D02*
X27922742Y-8400000D01*
X27922742Y-8400000D02*
X27937028Y-8428571D01*
X27937028Y-8428571D02*
X27937028Y-8542857D01*
X535713Y-25884885D02*
X535713Y-25584885D01*
X535713Y-25584885D02*
X635713Y-25799171D01*
X635713Y-25799171D02*
X735713Y-25584885D01*
X735713Y-25584885D02*
X735713Y-25884885D01*
X864284Y-25613457D02*
X878570Y-25599171D01*
X878570Y-25599171D02*
X907142Y-25584885D01*
X907142Y-25584885D02*
X978570Y-25584885D01*
X978570Y-25584885D02*
X1007142Y-25599171D01*
X1007142Y-25599171D02*
X1021427Y-25613457D01*
X1021427Y-25613457D02*
X1035713Y-25642028D01*
X1035713Y-25642028D02*
X1035713Y-25670600D01*
X1035713Y-25670600D02*
X1021427Y-25713457D01*
X1021427Y-25713457D02*
X849999Y-25884885D01*
X849999Y-25884885D02*
X1035713Y-25884885D01*
X1164284Y-25856314D02*
X1178570Y-25870600D01*
X1178570Y-25870600D02*
X1164284Y-25884885D01*
X1164284Y-25884885D02*
X1149998Y-25870600D01*
X1149998Y-25870600D02*
X1164284Y-25856314D01*
X1164284Y-25856314D02*
X1164284Y-25884885D01*
X1449998Y-25584885D02*
X1307141Y-25584885D01*
X1307141Y-25584885D02*
X1292855Y-25727742D01*
X1292855Y-25727742D02*
X1307141Y-25713457D01*
X1307141Y-25713457D02*
X1335713Y-25699171D01*
X1335713Y-25699171D02*
X1407141Y-25699171D01*
X1407141Y-25699171D02*
X1435713Y-25713457D01*
X1435713Y-25713457D02*
X1449998Y-25727742D01*
X1449998Y-25727742D02*
X1464284Y-25756314D01*
X1464284Y-25756314D02*
X1464284Y-25827742D01*
X1464284Y-25827742D02*
X1449998Y-25856314D01*
X1449998Y-25856314D02*
X1435713Y-25870600D01*
X1435713Y-25870600D02*
X1407141Y-25884885D01*
X1407141Y-25884885D02*
X1335713Y-25884885D01*
X1335713Y-25884885D02*
X1307141Y-25870600D01*
X1307141Y-25870600D02*
X1292855Y-25856314D01*
X1592855Y-25884885D02*
X1592855Y-25584885D01*
X1592855Y-25584885D02*
X1692855Y-25799171D01*
X1692855Y-25799171D02*
X1792855Y-25584885D01*
X1792855Y-25584885D02*
X1792855Y-25884885D01*
X1978569Y-25884885D02*
X1949998Y-25870600D01*
X1949998Y-25870600D02*
X1935712Y-25856314D01*
X1935712Y-25856314D02*
X1921426Y-25827742D01*
X1921426Y-25827742D02*
X1921426Y-25742028D01*
X1921426Y-25742028D02*
X1935712Y-25713457D01*
X1935712Y-25713457D02*
X1949998Y-25699171D01*
X1949998Y-25699171D02*
X1978569Y-25684885D01*
X1978569Y-25684885D02*
X2021426Y-25684885D01*
X2021426Y-25684885D02*
X2049998Y-25699171D01*
X2049998Y-25699171D02*
X2064284Y-25713457D01*
X2064284Y-25713457D02*
X2078569Y-25742028D01*
X2078569Y-25742028D02*
X2078569Y-25827742D01*
X2078569Y-25827742D02*
X2064284Y-25856314D01*
X2064284Y-25856314D02*
X2049998Y-25870600D01*
X2049998Y-25870600D02*
X2021426Y-25884885D01*
X2021426Y-25884885D02*
X1978569Y-25884885D01*
X2335713Y-25684885D02*
X2335713Y-25884885D01*
X2207141Y-25684885D02*
X2207141Y-25842028D01*
X2207141Y-25842028D02*
X2221427Y-25870600D01*
X2221427Y-25870600D02*
X2249998Y-25884885D01*
X2249998Y-25884885D02*
X2292855Y-25884885D01*
X2292855Y-25884885D02*
X2321427Y-25870600D01*
X2321427Y-25870600D02*
X2335713Y-25856314D01*
X2478570Y-25684885D02*
X2478570Y-25884885D01*
X2478570Y-25713457D02*
X2492856Y-25699171D01*
X2492856Y-25699171D02*
X2521427Y-25684885D01*
X2521427Y-25684885D02*
X2564284Y-25684885D01*
X2564284Y-25684885D02*
X2592856Y-25699171D01*
X2592856Y-25699171D02*
X2607142Y-25727742D01*
X2607142Y-25727742D02*
X2607142Y-25884885D01*
X2707142Y-25684885D02*
X2821428Y-25684885D01*
X2749999Y-25584885D02*
X2749999Y-25842028D01*
X2749999Y-25842028D02*
X2764285Y-25870600D01*
X2764285Y-25870600D02*
X2792856Y-25884885D01*
X2792856Y-25884885D02*
X2821428Y-25884885D01*
X2921428Y-25884885D02*
X2921428Y-25684885D01*
X2921428Y-25584885D02*
X2907142Y-25599171D01*
X2907142Y-25599171D02*
X2921428Y-25613457D01*
X2921428Y-25613457D02*
X2935714Y-25599171D01*
X2935714Y-25599171D02*
X2921428Y-25584885D01*
X2921428Y-25584885D02*
X2921428Y-25613457D01*
X3064285Y-25684885D02*
X3064285Y-25884885D01*
X3064285Y-25713457D02*
X3078571Y-25699171D01*
X3078571Y-25699171D02*
X3107142Y-25684885D01*
X3107142Y-25684885D02*
X3149999Y-25684885D01*
X3149999Y-25684885D02*
X3178571Y-25699171D01*
X3178571Y-25699171D02*
X3192857Y-25727742D01*
X3192857Y-25727742D02*
X3192857Y-25884885D01*
X3464286Y-25684885D02*
X3464286Y-25927742D01*
X3464286Y-25927742D02*
X3450000Y-25956314D01*
X3450000Y-25956314D02*
X3435714Y-25970600D01*
X3435714Y-25970600D02*
X3407143Y-25984885D01*
X3407143Y-25984885D02*
X3364286Y-25984885D01*
X3364286Y-25984885D02*
X3335714Y-25970600D01*
X3464286Y-25870600D02*
X3435714Y-25884885D01*
X3435714Y-25884885D02*
X3378571Y-25884885D01*
X3378571Y-25884885D02*
X3350000Y-25870600D01*
X3350000Y-25870600D02*
X3335714Y-25856314D01*
X3335714Y-25856314D02*
X3321428Y-25827742D01*
X3321428Y-25827742D02*
X3321428Y-25742028D01*
X3321428Y-25742028D02*
X3335714Y-25713457D01*
X3335714Y-25713457D02*
X3350000Y-25699171D01*
X3350000Y-25699171D02*
X3378571Y-25684885D01*
X3378571Y-25684885D02*
X3435714Y-25684885D01*
X3435714Y-25684885D02*
X3464286Y-25699171D01*
X3607143Y-25884885D02*
X3607143Y-25584885D01*
X3607143Y-25727742D02*
X3778572Y-25727742D01*
X3778572Y-25884885D02*
X3778572Y-25584885D01*
X3964286Y-25884885D02*
X3935715Y-25870600D01*
X3935715Y-25870600D02*
X3921429Y-25856314D01*
X3921429Y-25856314D02*
X3907143Y-25827742D01*
X3907143Y-25827742D02*
X3907143Y-25742028D01*
X3907143Y-25742028D02*
X3921429Y-25713457D01*
X3921429Y-25713457D02*
X3935715Y-25699171D01*
X3935715Y-25699171D02*
X3964286Y-25684885D01*
X3964286Y-25684885D02*
X4007143Y-25684885D01*
X4007143Y-25684885D02*
X4035715Y-25699171D01*
X4035715Y-25699171D02*
X4050001Y-25713457D01*
X4050001Y-25713457D02*
X4064286Y-25742028D01*
X4064286Y-25742028D02*
X4064286Y-25827742D01*
X4064286Y-25827742D02*
X4050001Y-25856314D01*
X4050001Y-25856314D02*
X4035715Y-25870600D01*
X4035715Y-25870600D02*
X4007143Y-25884885D01*
X4007143Y-25884885D02*
X3964286Y-25884885D01*
X4235715Y-25884885D02*
X4207144Y-25870600D01*
X4207144Y-25870600D02*
X4192858Y-25842028D01*
X4192858Y-25842028D02*
X4192858Y-25584885D01*
X4464287Y-25870600D02*
X4435715Y-25884885D01*
X4435715Y-25884885D02*
X4378573Y-25884885D01*
X4378573Y-25884885D02*
X4350001Y-25870600D01*
X4350001Y-25870600D02*
X4335715Y-25842028D01*
X4335715Y-25842028D02*
X4335715Y-25727742D01*
X4335715Y-25727742D02*
X4350001Y-25699171D01*
X4350001Y-25699171D02*
X4378573Y-25684885D01*
X4378573Y-25684885D02*
X4435715Y-25684885D01*
X4435715Y-25684885D02*
X4464287Y-25699171D01*
X4464287Y-25699171D02*
X4478573Y-25727742D01*
X4478573Y-25727742D02*
X4478573Y-25756314D01*
X4478573Y-25756314D02*
X4335715Y-25784885D01*
X8340272Y-8014505D02*
X8511701Y-8014505D01*
X8425986Y-8314505D02*
X8425986Y-8014505D01*
X8725986Y-8300220D02*
X8697414Y-8314505D01*
X8697414Y-8314505D02*
X8640272Y-8314505D01*
X8640272Y-8314505D02*
X8611700Y-8300220D01*
X8611700Y-8300220D02*
X8597414Y-8271648D01*
X8597414Y-8271648D02*
X8597414Y-8157362D01*
X8597414Y-8157362D02*
X8611700Y-8128791D01*
X8611700Y-8128791D02*
X8640272Y-8114505D01*
X8640272Y-8114505D02*
X8697414Y-8114505D01*
X8697414Y-8114505D02*
X8725986Y-8128791D01*
X8725986Y-8128791D02*
X8740272Y-8157362D01*
X8740272Y-8157362D02*
X8740272Y-8185934D01*
X8740272Y-8185934D02*
X8597414Y-8214505D01*
X8868843Y-8314505D02*
X8868843Y-8114505D01*
X8868843Y-8171648D02*
X8883129Y-8143077D01*
X8883129Y-8143077D02*
X8897415Y-8128791D01*
X8897415Y-8128791D02*
X8925986Y-8114505D01*
X8925986Y-8114505D02*
X8954557Y-8114505D01*
X9054557Y-8314505D02*
X9054557Y-8114505D01*
X9054557Y-8143077D02*
X9068843Y-8128791D01*
X9068843Y-8128791D02*
X9097414Y-8114505D01*
X9097414Y-8114505D02*
X9140271Y-8114505D01*
X9140271Y-8114505D02*
X9168843Y-8128791D01*
X9168843Y-8128791D02*
X9183129Y-8157362D01*
X9183129Y-8157362D02*
X9183129Y-8314505D01*
X9183129Y-8157362D02*
X9197414Y-8128791D01*
X9197414Y-8128791D02*
X9225986Y-8114505D01*
X9225986Y-8114505D02*
X9268843Y-8114505D01*
X9268843Y-8114505D02*
X9297414Y-8128791D01*
X9297414Y-8128791D02*
X9311700Y-8157362D01*
X9311700Y-8157362D02*
X9311700Y-8314505D01*
X9454557Y-8314505D02*
X9454557Y-8114505D01*
X9454557Y-8014505D02*
X9440271Y-8028791D01*
X9440271Y-8028791D02*
X9454557Y-8043077D01*
X9454557Y-8043077D02*
X9468843Y-8028791D01*
X9468843Y-8028791D02*
X9454557Y-8014505D01*
X9454557Y-8014505D02*
X9454557Y-8043077D01*
X9597414Y-8114505D02*
X9597414Y-8314505D01*
X9597414Y-8143077D02*
X9611700Y-8128791D01*
X9611700Y-8128791D02*
X9640271Y-8114505D01*
X9640271Y-8114505D02*
X9683128Y-8114505D01*
X9683128Y-8114505D02*
X9711700Y-8128791D01*
X9711700Y-8128791D02*
X9725986Y-8157362D01*
X9725986Y-8157362D02*
X9725986Y-8314505D01*
X9997415Y-8314505D02*
X9997415Y-8157362D01*
X9997415Y-8157362D02*
X9983129Y-8128791D01*
X9983129Y-8128791D02*
X9954557Y-8114505D01*
X9954557Y-8114505D02*
X9897415Y-8114505D01*
X9897415Y-8114505D02*
X9868843Y-8128791D01*
X9997415Y-8300220D02*
X9968843Y-8314505D01*
X9968843Y-8314505D02*
X9897415Y-8314505D01*
X9897415Y-8314505D02*
X9868843Y-8300220D01*
X9868843Y-8300220D02*
X9854557Y-8271648D01*
X9854557Y-8271648D02*
X9854557Y-8243077D01*
X9854557Y-8243077D02*
X9868843Y-8214505D01*
X9868843Y-8214505D02*
X9897415Y-8200220D01*
X9897415Y-8200220D02*
X9968843Y-8200220D01*
X9968843Y-8200220D02*
X9997415Y-8185934D01*
X10183129Y-8314505D02*
X10154558Y-8300220D01*
X10154558Y-8300220D02*
X10140272Y-8271648D01*
X10140272Y-8271648D02*
X10140272Y-8014505D01*
X10397415Y-8157362D02*
X10440272Y-8171648D01*
X10440272Y-8171648D02*
X10454558Y-8185934D01*
X10454558Y-8185934D02*
X10468844Y-8214505D01*
X10468844Y-8214505D02*
X10468844Y-8257362D01*
X10468844Y-8257362D02*
X10454558Y-8285934D01*
X10454558Y-8285934D02*
X10440272Y-8300220D01*
X10440272Y-8300220D02*
X10411701Y-8314505D01*
X10411701Y-8314505D02*
X10297415Y-8314505D01*
X10297415Y-8314505D02*
X10297415Y-8014505D01*
X10297415Y-8014505D02*
X10397415Y-8014505D01*
X10397415Y-8014505D02*
X10425987Y-8028791D01*
X10425987Y-8028791D02*
X10440272Y-8043077D01*
X10440272Y-8043077D02*
X10454558Y-8071648D01*
X10454558Y-8071648D02*
X10454558Y-8100220D01*
X10454558Y-8100220D02*
X10440272Y-8128791D01*
X10440272Y-8128791D02*
X10425987Y-8143077D01*
X10425987Y-8143077D02*
X10397415Y-8157362D01*
X10397415Y-8157362D02*
X10297415Y-8157362D01*
X10640272Y-8314505D02*
X10611701Y-8300220D01*
X10611701Y-8300220D02*
X10597415Y-8271648D01*
X10597415Y-8271648D02*
X10597415Y-8014505D01*
X10797415Y-8314505D02*
X10768844Y-8300220D01*
X10768844Y-8300220D02*
X10754558Y-8285934D01*
X10754558Y-8285934D02*
X10740272Y-8257362D01*
X10740272Y-8257362D02*
X10740272Y-8171648D01*
X10740272Y-8171648D02*
X10754558Y-8143077D01*
X10754558Y-8143077D02*
X10768844Y-8128791D01*
X10768844Y-8128791D02*
X10797415Y-8114505D01*
X10797415Y-8114505D02*
X10840272Y-8114505D01*
X10840272Y-8114505D02*
X10868844Y-8128791D01*
X10868844Y-8128791D02*
X10883130Y-8143077D01*
X10883130Y-8143077D02*
X10897415Y-8171648D01*
X10897415Y-8171648D02*
X10897415Y-8257362D01*
X10897415Y-8257362D02*
X10883130Y-8285934D01*
X10883130Y-8285934D02*
X10868844Y-8300220D01*
X10868844Y-8300220D02*
X10840272Y-8314505D01*
X10840272Y-8314505D02*
X10797415Y-8314505D01*
X11154559Y-8300220D02*
X11125987Y-8314505D01*
X11125987Y-8314505D02*
X11068844Y-8314505D01*
X11068844Y-8314505D02*
X11040273Y-8300220D01*
X11040273Y-8300220D02*
X11025987Y-8285934D01*
X11025987Y-8285934D02*
X11011701Y-8257362D01*
X11011701Y-8257362D02*
X11011701Y-8171648D01*
X11011701Y-8171648D02*
X11025987Y-8143077D01*
X11025987Y-8143077D02*
X11040273Y-8128791D01*
X11040273Y-8128791D02*
X11068844Y-8114505D01*
X11068844Y-8114505D02*
X11125987Y-8114505D01*
X11125987Y-8114505D02*
X11154559Y-8128791D01*
X11283130Y-8314505D02*
X11283130Y-8014505D01*
X11311702Y-8200220D02*
X11397416Y-8314505D01*
X11397416Y-8114505D02*
X11283130Y-8228791D01*
X11454559Y-8343077D02*
X11683130Y-8343077D01*
X11740272Y-8043077D02*
X11754558Y-8028791D01*
X11754558Y-8028791D02*
X11783130Y-8014505D01*
X11783130Y-8014505D02*
X11854558Y-8014505D01*
X11854558Y-8014505D02*
X11883130Y-8028791D01*
X11883130Y-8028791D02*
X11897415Y-8043077D01*
X11897415Y-8043077D02*
X11911701Y-8071648D01*
X11911701Y-8071648D02*
X11911701Y-8100220D01*
X11911701Y-8100220D02*
X11897415Y-8143077D01*
X11897415Y-8143077D02*
X11725987Y-8314505D01*
X11725987Y-8314505D02*
X11911701Y-8314505D01*
X12040272Y-8314505D02*
X12040272Y-8014505D01*
X12040272Y-8014505D02*
X12154558Y-8014505D01*
X12154558Y-8014505D02*
X12183129Y-8028791D01*
X12183129Y-8028791D02*
X12197415Y-8043077D01*
X12197415Y-8043077D02*
X12211701Y-8071648D01*
X12211701Y-8071648D02*
X12211701Y-8114505D01*
X12211701Y-8114505D02*
X12197415Y-8143077D01*
X12197415Y-8143077D02*
X12183129Y-8157362D01*
X12183129Y-8157362D02*
X12154558Y-8171648D01*
X12154558Y-8171648D02*
X12040272Y-8171648D01*
X12268844Y-8343077D02*
X12497415Y-8343077D01*
X12540272Y-8014505D02*
X12725986Y-8014505D01*
X12725986Y-8014505D02*
X12625986Y-8128791D01*
X12625986Y-8128791D02*
X12668843Y-8128791D01*
X12668843Y-8128791D02*
X12697415Y-8143077D01*
X12697415Y-8143077D02*
X12711700Y-8157362D01*
X12711700Y-8157362D02*
X12725986Y-8185934D01*
X12725986Y-8185934D02*
X12725986Y-8257362D01*
X12725986Y-8257362D02*
X12711700Y-8285934D01*
X12711700Y-8285934D02*
X12697415Y-8300220D01*
X12697415Y-8300220D02*
X12668843Y-8314505D01*
X12668843Y-8314505D02*
X12583129Y-8314505D01*
X12583129Y-8314505D02*
X12554557Y-8300220D01*
X12554557Y-8300220D02*
X12540272Y-8285934D01*
X12854557Y-8285934D02*
X12868843Y-8300220D01*
X12868843Y-8300220D02*
X12854557Y-8314505D01*
X12854557Y-8314505D02*
X12840271Y-8300220D01*
X12840271Y-8300220D02*
X12854557Y-8285934D01*
X12854557Y-8285934D02*
X12854557Y-8314505D01*
X13140271Y-8014505D02*
X12997414Y-8014505D01*
X12997414Y-8014505D02*
X12983128Y-8157362D01*
X12983128Y-8157362D02*
X12997414Y-8143077D01*
X12997414Y-8143077D02*
X13025986Y-8128791D01*
X13025986Y-8128791D02*
X13097414Y-8128791D01*
X13097414Y-8128791D02*
X13125986Y-8143077D01*
X13125986Y-8143077D02*
X13140271Y-8157362D01*
X13140271Y-8157362D02*
X13154557Y-8185934D01*
X13154557Y-8185934D02*
X13154557Y-8257362D01*
X13154557Y-8257362D02*
X13140271Y-8285934D01*
X13140271Y-8285934D02*
X13125986Y-8300220D01*
X13125986Y-8300220D02*
X13097414Y-8314505D01*
X13097414Y-8314505D02*
X13025986Y-8314505D01*
X13025986Y-8314505D02*
X12997414Y-8300220D01*
X12997414Y-8300220D02*
X12983128Y-8285934D01*
X13283128Y-8314505D02*
X13283128Y-8114505D01*
X13283128Y-8143077D02*
X13297414Y-8128791D01*
X13297414Y-8128791D02*
X13325985Y-8114505D01*
X13325985Y-8114505D02*
X13368842Y-8114505D01*
X13368842Y-8114505D02*
X13397414Y-8128791D01*
X13397414Y-8128791D02*
X13411700Y-8157362D01*
X13411700Y-8157362D02*
X13411700Y-8314505D01*
X13411700Y-8157362D02*
X13425985Y-8128791D01*
X13425985Y-8128791D02*
X13454557Y-8114505D01*
X13454557Y-8114505D02*
X13497414Y-8114505D01*
X13497414Y-8114505D02*
X13525985Y-8128791D01*
X13525985Y-8128791D02*
X13540271Y-8157362D01*
X13540271Y-8157362D02*
X13540271Y-8314505D01*
X13683128Y-8314505D02*
X13683128Y-8114505D01*
X13683128Y-8143077D02*
X13697414Y-8128791D01*
X13697414Y-8128791D02*
X13725985Y-8114505D01*
X13725985Y-8114505D02*
X13768842Y-8114505D01*
X13768842Y-8114505D02*
X13797414Y-8128791D01*
X13797414Y-8128791D02*
X13811700Y-8157362D01*
X13811700Y-8157362D02*
X13811700Y-8314505D01*
X13811700Y-8157362D02*
X13825985Y-8128791D01*
X13825985Y-8128791D02*
X13854557Y-8114505D01*
X13854557Y-8114505D02*
X13897414Y-8114505D01*
X13897414Y-8114505D02*
X13925985Y-8128791D01*
X13925985Y-8128791D02*
X13940271Y-8157362D01*
X13940271Y-8157362D02*
X13940271Y-8314505D01*
X33008457Y-3114285D02*
X32994171Y-3099999D01*
X32994171Y-3099999D02*
X32979885Y-3071428D01*
X32979885Y-3071428D02*
X32979885Y-2999999D01*
X32979885Y-2999999D02*
X32994171Y-2971428D01*
X32994171Y-2971428D02*
X33008457Y-2957142D01*
X33008457Y-2957142D02*
X33037028Y-2942856D01*
X33037028Y-2942856D02*
X33065600Y-2942856D01*
X33065600Y-2942856D02*
X33108457Y-2957142D01*
X33108457Y-2957142D02*
X33279885Y-3128570D01*
X33279885Y-3128570D02*
X33279885Y-2942856D01*
X33251314Y-2814285D02*
X33265600Y-2799999D01*
X33265600Y-2799999D02*
X33279885Y-2814285D01*
X33279885Y-2814285D02*
X33265600Y-2828571D01*
X33265600Y-2828571D02*
X33251314Y-2814285D01*
X33251314Y-2814285D02*
X33279885Y-2814285D01*
X33008457Y-2685714D02*
X32994171Y-2671428D01*
X32994171Y-2671428D02*
X32979885Y-2642857D01*
X32979885Y-2642857D02*
X32979885Y-2571428D01*
X32979885Y-2571428D02*
X32994171Y-2542857D01*
X32994171Y-2542857D02*
X33008457Y-2528571D01*
X33008457Y-2528571D02*
X33037028Y-2514285D01*
X33037028Y-2514285D02*
X33065600Y-2514285D01*
X33065600Y-2514285D02*
X33108457Y-2528571D01*
X33108457Y-2528571D02*
X33279885Y-2699999D01*
X33279885Y-2699999D02*
X33279885Y-2514285D01*
X33079885Y-2257143D02*
X33279885Y-2257143D01*
X33079885Y-2385714D02*
X33237028Y-2385714D01*
X33237028Y-2385714D02*
X33265600Y-2371428D01*
X33265600Y-2371428D02*
X33279885Y-2342857D01*
X33279885Y-2342857D02*
X33279885Y-2300000D01*
X33279885Y-2300000D02*
X33265600Y-2271428D01*
X33265600Y-2271428D02*
X33251314Y-2257143D01*
X33122742Y-2014285D02*
X33122742Y-2114285D01*
X33279885Y-2114285D02*
X32979885Y-2114285D01*
X32979885Y-2114285D02*
X32979885Y-1971428D01*
D11*
X1222857Y-20774819D02*
X1318095Y-20774819D01*
X1318095Y-20774819D02*
X1413333Y-20822438D01*
X1413333Y-20822438D02*
X1460952Y-20870057D01*
X1460952Y-20870057D02*
X1508571Y-20965295D01*
X1508571Y-20965295D02*
X1556190Y-21155771D01*
X1556190Y-21155771D02*
X1556190Y-21393866D01*
X1556190Y-21393866D02*
X1508571Y-21584342D01*
X1508571Y-21584342D02*
X1460952Y-21679580D01*
X1460952Y-21679580D02*
X1413333Y-21727200D01*
X1413333Y-21727200D02*
X1318095Y-21774819D01*
X1318095Y-21774819D02*
X1222857Y-21774819D01*
X1222857Y-21774819D02*
X1127619Y-21727200D01*
X1127619Y-21727200D02*
X1080000Y-21679580D01*
X1080000Y-21679580D02*
X1032381Y-21584342D01*
X1032381Y-21584342D02*
X984762Y-21393866D01*
X984762Y-21393866D02*
X984762Y-21155771D01*
X984762Y-21155771D02*
X1032381Y-20965295D01*
X1032381Y-20965295D02*
X1080000Y-20870057D01*
X1080000Y-20870057D02*
X1127619Y-20822438D01*
X1127619Y-20822438D02*
X1222857Y-20774819D01*
X2508571Y-21774819D02*
X1937143Y-21774819D01*
X2222857Y-21774819D02*
X2222857Y-20774819D01*
X2222857Y-20774819D02*
X2127619Y-20917676D01*
X2127619Y-20917676D02*
X2032381Y-21012914D01*
X2032381Y-21012914D02*
X1937143Y-21060533D01*
X2841905Y-21774819D02*
X3365714Y-21108152D01*
X2841905Y-21108152D02*
X3365714Y-21774819D01*
X3937143Y-20774819D02*
X4032381Y-20774819D01*
X4032381Y-20774819D02*
X4127619Y-20822438D01*
X4127619Y-20822438D02*
X4175238Y-20870057D01*
X4175238Y-20870057D02*
X4222857Y-20965295D01*
X4222857Y-20965295D02*
X4270476Y-21155771D01*
X4270476Y-21155771D02*
X4270476Y-21393866D01*
X4270476Y-21393866D02*
X4222857Y-21584342D01*
X4222857Y-21584342D02*
X4175238Y-21679580D01*
X4175238Y-21679580D02*
X4127619Y-21727200D01*
X4127619Y-21727200D02*
X4032381Y-21774819D01*
X4032381Y-21774819D02*
X3937143Y-21774819D01*
X3937143Y-21774819D02*
X3841905Y-21727200D01*
X3841905Y-21727200D02*
X3794286Y-21679580D01*
X3794286Y-21679580D02*
X3746667Y-21584342D01*
X3746667Y-21584342D02*
X3699048Y-21393866D01*
X3699048Y-21393866D02*
X3699048Y-21155771D01*
X3699048Y-21155771D02*
X3746667Y-20965295D01*
X3746667Y-20965295D02*
X3794286Y-20870057D01*
X3794286Y-20870057D02*
X3841905Y-20822438D01*
X3841905Y-20822438D02*
X3937143Y-20774819D01*
X5127619Y-20774819D02*
X4937143Y-20774819D01*
X4937143Y-20774819D02*
X4841905Y-20822438D01*
X4841905Y-20822438D02*
X4794286Y-20870057D01*
X4794286Y-20870057D02*
X4699048Y-21012914D01*
X4699048Y-21012914D02*
X4651429Y-21203390D01*
X4651429Y-21203390D02*
X4651429Y-21584342D01*
X4651429Y-21584342D02*
X4699048Y-21679580D01*
X4699048Y-21679580D02*
X4746667Y-21727200D01*
X4746667Y-21727200D02*
X4841905Y-21774819D01*
X4841905Y-21774819D02*
X5032381Y-21774819D01*
X5032381Y-21774819D02*
X5127619Y-21727200D01*
X5127619Y-21727200D02*
X5175238Y-21679580D01*
X5175238Y-21679580D02*
X5222857Y-21584342D01*
X5222857Y-21584342D02*
X5222857Y-21346247D01*
X5222857Y-21346247D02*
X5175238Y-21251009D01*
X5175238Y-21251009D02*
X5127619Y-21203390D01*
X5127619Y-21203390D02*
X5032381Y-21155771D01*
X5032381Y-21155771D02*
X4841905Y-21155771D01*
X4841905Y-21155771D02*
X4746667Y-21203390D01*
X4746667Y-21203390D02*
X4699048Y-21251009D01*
X4699048Y-21251009D02*
X4651429Y-21346247D01*
X5413334Y-21870057D02*
X6175238Y-21870057D01*
X6365715Y-20870057D02*
X6413334Y-20822438D01*
X6413334Y-20822438D02*
X6508572Y-20774819D01*
X6508572Y-20774819D02*
X6746667Y-20774819D01*
X6746667Y-20774819D02*
X6841905Y-20822438D01*
X6841905Y-20822438D02*
X6889524Y-20870057D01*
X6889524Y-20870057D02*
X6937143Y-20965295D01*
X6937143Y-20965295D02*
X6937143Y-21060533D01*
X6937143Y-21060533D02*
X6889524Y-21203390D01*
X6889524Y-21203390D02*
X6318096Y-21774819D01*
X6318096Y-21774819D02*
X6937143Y-21774819D01*
X7365715Y-21679580D02*
X7413334Y-21727200D01*
X7413334Y-21727200D02*
X7365715Y-21774819D01*
X7365715Y-21774819D02*
X7318096Y-21727200D01*
X7318096Y-21727200D02*
X7365715Y-21679580D01*
X7365715Y-21679580D02*
X7365715Y-21774819D01*
X8318095Y-20774819D02*
X7841905Y-20774819D01*
X7841905Y-20774819D02*
X7794286Y-21251009D01*
X7794286Y-21251009D02*
X7841905Y-21203390D01*
X7841905Y-21203390D02*
X7937143Y-21155771D01*
X7937143Y-21155771D02*
X8175238Y-21155771D01*
X8175238Y-21155771D02*
X8270476Y-21203390D01*
X8270476Y-21203390D02*
X8318095Y-21251009D01*
X8318095Y-21251009D02*
X8365714Y-21346247D01*
X8365714Y-21346247D02*
X8365714Y-21584342D01*
X8365714Y-21584342D02*
X8318095Y-21679580D01*
X8318095Y-21679580D02*
X8270476Y-21727200D01*
X8270476Y-21727200D02*
X8175238Y-21774819D01*
X8175238Y-21774819D02*
X7937143Y-21774819D01*
X7937143Y-21774819D02*
X7841905Y-21727200D01*
X7841905Y-21727200D02*
X7794286Y-21679580D01*
X9222857Y-21108152D02*
X9222857Y-21774819D01*
X8984762Y-20727200D02*
X8746667Y-21441485D01*
X8746667Y-21441485D02*
X9365714Y-21441485D01*
X9746667Y-21774819D02*
X9746667Y-21108152D01*
X9746667Y-21203390D02*
X9794286Y-21155771D01*
X9794286Y-21155771D02*
X9889524Y-21108152D01*
X9889524Y-21108152D02*
X10032381Y-21108152D01*
X10032381Y-21108152D02*
X10127619Y-21155771D01*
X10127619Y-21155771D02*
X10175238Y-21251009D01*
X10175238Y-21251009D02*
X10175238Y-21774819D01*
X10175238Y-21251009D02*
X10222857Y-21155771D01*
X10222857Y-21155771D02*
X10318095Y-21108152D01*
X10318095Y-21108152D02*
X10460952Y-21108152D01*
X10460952Y-21108152D02*
X10556191Y-21155771D01*
X10556191Y-21155771D02*
X10603810Y-21251009D01*
X10603810Y-21251009D02*
X10603810Y-21774819D01*
X11080000Y-21774819D02*
X11080000Y-21108152D01*
X11080000Y-21203390D02*
X11127619Y-21155771D01*
X11127619Y-21155771D02*
X11222857Y-21108152D01*
X11222857Y-21108152D02*
X11365714Y-21108152D01*
X11365714Y-21108152D02*
X11460952Y-21155771D01*
X11460952Y-21155771D02*
X11508571Y-21251009D01*
X11508571Y-21251009D02*
X11508571Y-21774819D01*
X11508571Y-21251009D02*
X11556190Y-21155771D01*
X11556190Y-21155771D02*
X11651428Y-21108152D01*
X11651428Y-21108152D02*
X11794285Y-21108152D01*
X11794285Y-21108152D02*
X11889524Y-21155771D01*
X11889524Y-21155771D02*
X11937143Y-21251009D01*
X11937143Y-21251009D02*
X11937143Y-21774819D01*
X12175238Y-21870057D02*
X12937142Y-21870057D01*
X13175238Y-21774819D02*
X13175238Y-20774819D01*
X13175238Y-20774819D02*
X13508571Y-21489104D01*
X13508571Y-21489104D02*
X13841904Y-20774819D01*
X13841904Y-20774819D02*
X13841904Y-21774819D01*
X14746666Y-21774819D02*
X14746666Y-21251009D01*
X14746666Y-21251009D02*
X14699047Y-21155771D01*
X14699047Y-21155771D02*
X14603809Y-21108152D01*
X14603809Y-21108152D02*
X14413333Y-21108152D01*
X14413333Y-21108152D02*
X14318095Y-21155771D01*
X14746666Y-21727200D02*
X14651428Y-21774819D01*
X14651428Y-21774819D02*
X14413333Y-21774819D01*
X14413333Y-21774819D02*
X14318095Y-21727200D01*
X14318095Y-21727200D02*
X14270476Y-21631961D01*
X14270476Y-21631961D02*
X14270476Y-21536723D01*
X14270476Y-21536723D02*
X14318095Y-21441485D01*
X14318095Y-21441485D02*
X14413333Y-21393866D01*
X14413333Y-21393866D02*
X14651428Y-21393866D01*
X14651428Y-21393866D02*
X14746666Y-21346247D01*
X15365714Y-21774819D02*
X15270476Y-21727200D01*
X15270476Y-21727200D02*
X15222857Y-21631961D01*
X15222857Y-21631961D02*
X15222857Y-20774819D01*
X16127619Y-21727200D02*
X16032381Y-21774819D01*
X16032381Y-21774819D02*
X15841905Y-21774819D01*
X15841905Y-21774819D02*
X15746667Y-21727200D01*
X15746667Y-21727200D02*
X15699048Y-21631961D01*
X15699048Y-21631961D02*
X15699048Y-21251009D01*
X15699048Y-21251009D02*
X15746667Y-21155771D01*
X15746667Y-21155771D02*
X15841905Y-21108152D01*
X15841905Y-21108152D02*
X16032381Y-21108152D01*
X16032381Y-21108152D02*
X16127619Y-21155771D01*
X16127619Y-21155771D02*
X16175238Y-21251009D01*
X16175238Y-21251009D02*
X16175238Y-21346247D01*
X16175238Y-21346247D02*
X15699048Y-21441485D01*
D10*
X29328571Y-12713457D02*
X29342857Y-12699171D01*
X29342857Y-12699171D02*
X29371429Y-12684885D01*
X29371429Y-12684885D02*
X29442857Y-12684885D01*
X29442857Y-12684885D02*
X29471429Y-12699171D01*
X29471429Y-12699171D02*
X29485714Y-12713457D01*
X29485714Y-12713457D02*
X29500000Y-12742028D01*
X29500000Y-12742028D02*
X29500000Y-12770600D01*
X29500000Y-12770600D02*
X29485714Y-12813457D01*
X29485714Y-12813457D02*
X29314286Y-12984885D01*
X29314286Y-12984885D02*
X29500000Y-12984885D01*
X29614285Y-12713457D02*
X29628571Y-12699171D01*
X29628571Y-12699171D02*
X29657143Y-12684885D01*
X29657143Y-12684885D02*
X29728571Y-12684885D01*
X29728571Y-12684885D02*
X29757143Y-12699171D01*
X29757143Y-12699171D02*
X29771428Y-12713457D01*
X29771428Y-12713457D02*
X29785714Y-12742028D01*
X29785714Y-12742028D02*
X29785714Y-12770600D01*
X29785714Y-12770600D02*
X29771428Y-12813457D01*
X29771428Y-12813457D02*
X29600000Y-12984885D01*
X29600000Y-12984885D02*
X29785714Y-12984885D01*
X30042857Y-12784885D02*
X30042857Y-12984885D01*
X29914285Y-12784885D02*
X29914285Y-12942028D01*
X29914285Y-12942028D02*
X29928571Y-12970600D01*
X29928571Y-12970600D02*
X29957142Y-12984885D01*
X29957142Y-12984885D02*
X29999999Y-12984885D01*
X29999999Y-12984885D02*
X30028571Y-12970600D01*
X30028571Y-12970600D02*
X30042857Y-12956314D01*
X30285714Y-12827742D02*
X30185714Y-12827742D01*
X30185714Y-12984885D02*
X30185714Y-12684885D01*
X30185714Y-12684885D02*
X30328571Y-12684885D01*
X30371429Y-13013457D02*
X30600000Y-13013457D01*
X30657142Y-12713457D02*
X30671428Y-12699171D01*
X30671428Y-12699171D02*
X30700000Y-12684885D01*
X30700000Y-12684885D02*
X30771428Y-12684885D01*
X30771428Y-12684885D02*
X30800000Y-12699171D01*
X30800000Y-12699171D02*
X30814285Y-12713457D01*
X30814285Y-12713457D02*
X30828571Y-12742028D01*
X30828571Y-12742028D02*
X30828571Y-12770600D01*
X30828571Y-12770600D02*
X30814285Y-12813457D01*
X30814285Y-12813457D02*
X30642857Y-12984885D01*
X30642857Y-12984885D02*
X30828571Y-12984885D01*
X31099999Y-12684885D02*
X30957142Y-12684885D01*
X30957142Y-12684885D02*
X30942856Y-12827742D01*
X30942856Y-12827742D02*
X30957142Y-12813457D01*
X30957142Y-12813457D02*
X30985714Y-12799171D01*
X30985714Y-12799171D02*
X31057142Y-12799171D01*
X31057142Y-12799171D02*
X31085714Y-12813457D01*
X31085714Y-12813457D02*
X31099999Y-12827742D01*
X31099999Y-12827742D02*
X31114285Y-12856314D01*
X31114285Y-12856314D02*
X31114285Y-12927742D01*
X31114285Y-12927742D02*
X31099999Y-12956314D01*
X31099999Y-12956314D02*
X31085714Y-12970600D01*
X31085714Y-12970600D02*
X31057142Y-12984885D01*
X31057142Y-12984885D02*
X30985714Y-12984885D01*
X30985714Y-12984885D02*
X30957142Y-12970600D01*
X30957142Y-12970600D02*
X30942856Y-12956314D01*
X31199999Y-12684885D02*
X31299999Y-12984885D01*
X31299999Y-12984885D02*
X31399999Y-12684885D01*
X19203571Y-12600957D02*
X19217857Y-12586671D01*
X19217857Y-12586671D02*
X19246429Y-12572385D01*
X19246429Y-12572385D02*
X19317857Y-12572385D01*
X19317857Y-12572385D02*
X19346429Y-12586671D01*
X19346429Y-12586671D02*
X19360714Y-12600957D01*
X19360714Y-12600957D02*
X19375000Y-12629528D01*
X19375000Y-12629528D02*
X19375000Y-12658100D01*
X19375000Y-12658100D02*
X19360714Y-12700957D01*
X19360714Y-12700957D02*
X19189286Y-12872385D01*
X19189286Y-12872385D02*
X19375000Y-12872385D01*
X19489285Y-12600957D02*
X19503571Y-12586671D01*
X19503571Y-12586671D02*
X19532143Y-12572385D01*
X19532143Y-12572385D02*
X19603571Y-12572385D01*
X19603571Y-12572385D02*
X19632143Y-12586671D01*
X19632143Y-12586671D02*
X19646428Y-12600957D01*
X19646428Y-12600957D02*
X19660714Y-12629528D01*
X19660714Y-12629528D02*
X19660714Y-12658100D01*
X19660714Y-12658100D02*
X19646428Y-12700957D01*
X19646428Y-12700957D02*
X19475000Y-12872385D01*
X19475000Y-12872385D02*
X19660714Y-12872385D01*
X19917857Y-12672385D02*
X19917857Y-12872385D01*
X19789285Y-12672385D02*
X19789285Y-12829528D01*
X19789285Y-12829528D02*
X19803571Y-12858100D01*
X19803571Y-12858100D02*
X19832142Y-12872385D01*
X19832142Y-12872385D02*
X19874999Y-12872385D01*
X19874999Y-12872385D02*
X19903571Y-12858100D01*
X19903571Y-12858100D02*
X19917857Y-12843814D01*
X20160714Y-12715242D02*
X20060714Y-12715242D01*
X20060714Y-12872385D02*
X20060714Y-12572385D01*
X20060714Y-12572385D02*
X20203571Y-12572385D01*
X20246429Y-12900957D02*
X20475000Y-12900957D01*
X20532142Y-12600957D02*
X20546428Y-12586671D01*
X20546428Y-12586671D02*
X20575000Y-12572385D01*
X20575000Y-12572385D02*
X20646428Y-12572385D01*
X20646428Y-12572385D02*
X20675000Y-12586671D01*
X20675000Y-12586671D02*
X20689285Y-12600957D01*
X20689285Y-12600957D02*
X20703571Y-12629528D01*
X20703571Y-12629528D02*
X20703571Y-12658100D01*
X20703571Y-12658100D02*
X20689285Y-12700957D01*
X20689285Y-12700957D02*
X20517857Y-12872385D01*
X20517857Y-12872385D02*
X20703571Y-12872385D01*
X20974999Y-12572385D02*
X20832142Y-12572385D01*
X20832142Y-12572385D02*
X20817856Y-12715242D01*
X20817856Y-12715242D02*
X20832142Y-12700957D01*
X20832142Y-12700957D02*
X20860714Y-12686671D01*
X20860714Y-12686671D02*
X20932142Y-12686671D01*
X20932142Y-12686671D02*
X20960714Y-12700957D01*
X20960714Y-12700957D02*
X20974999Y-12715242D01*
X20974999Y-12715242D02*
X20989285Y-12743814D01*
X20989285Y-12743814D02*
X20989285Y-12815242D01*
X20989285Y-12815242D02*
X20974999Y-12843814D01*
X20974999Y-12843814D02*
X20960714Y-12858100D01*
X20960714Y-12858100D02*
X20932142Y-12872385D01*
X20932142Y-12872385D02*
X20860714Y-12872385D01*
X20860714Y-12872385D02*
X20832142Y-12858100D01*
X20832142Y-12858100D02*
X20817856Y-12843814D01*
X21074999Y-12572385D02*
X21174999Y-12872385D01*
X21174999Y-12872385D02*
X21274999Y-12572385D01*
X23178571Y-12600957D02*
X23192857Y-12586671D01*
X23192857Y-12586671D02*
X23221429Y-12572385D01*
X23221429Y-12572385D02*
X23292857Y-12572385D01*
X23292857Y-12572385D02*
X23321429Y-12586671D01*
X23321429Y-12586671D02*
X23335714Y-12600957D01*
X23335714Y-12600957D02*
X23350000Y-12629528D01*
X23350000Y-12629528D02*
X23350000Y-12658100D01*
X23350000Y-12658100D02*
X23335714Y-12700957D01*
X23335714Y-12700957D02*
X23164286Y-12872385D01*
X23164286Y-12872385D02*
X23350000Y-12872385D01*
X23464285Y-12600957D02*
X23478571Y-12586671D01*
X23478571Y-12586671D02*
X23507143Y-12572385D01*
X23507143Y-12572385D02*
X23578571Y-12572385D01*
X23578571Y-12572385D02*
X23607143Y-12586671D01*
X23607143Y-12586671D02*
X23621428Y-12600957D01*
X23621428Y-12600957D02*
X23635714Y-12629528D01*
X23635714Y-12629528D02*
X23635714Y-12658100D01*
X23635714Y-12658100D02*
X23621428Y-12700957D01*
X23621428Y-12700957D02*
X23450000Y-12872385D01*
X23450000Y-12872385D02*
X23635714Y-12872385D01*
X23892857Y-12672385D02*
X23892857Y-12872385D01*
X23764285Y-12672385D02*
X23764285Y-12829528D01*
X23764285Y-12829528D02*
X23778571Y-12858100D01*
X23778571Y-12858100D02*
X23807142Y-12872385D01*
X23807142Y-12872385D02*
X23849999Y-12872385D01*
X23849999Y-12872385D02*
X23878571Y-12858100D01*
X23878571Y-12858100D02*
X23892857Y-12843814D01*
X24135714Y-12715242D02*
X24035714Y-12715242D01*
X24035714Y-12872385D02*
X24035714Y-12572385D01*
X24035714Y-12572385D02*
X24178571Y-12572385D01*
X24221429Y-12900957D02*
X24450000Y-12900957D01*
X24507142Y-12600957D02*
X24521428Y-12586671D01*
X24521428Y-12586671D02*
X24550000Y-12572385D01*
X24550000Y-12572385D02*
X24621428Y-12572385D01*
X24621428Y-12572385D02*
X24650000Y-12586671D01*
X24650000Y-12586671D02*
X24664285Y-12600957D01*
X24664285Y-12600957D02*
X24678571Y-12629528D01*
X24678571Y-12629528D02*
X24678571Y-12658100D01*
X24678571Y-12658100D02*
X24664285Y-12700957D01*
X24664285Y-12700957D02*
X24492857Y-12872385D01*
X24492857Y-12872385D02*
X24678571Y-12872385D01*
X24949999Y-12572385D02*
X24807142Y-12572385D01*
X24807142Y-12572385D02*
X24792856Y-12715242D01*
X24792856Y-12715242D02*
X24807142Y-12700957D01*
X24807142Y-12700957D02*
X24835714Y-12686671D01*
X24835714Y-12686671D02*
X24907142Y-12686671D01*
X24907142Y-12686671D02*
X24935714Y-12700957D01*
X24935714Y-12700957D02*
X24949999Y-12715242D01*
X24949999Y-12715242D02*
X24964285Y-12743814D01*
X24964285Y-12743814D02*
X24964285Y-12815242D01*
X24964285Y-12815242D02*
X24949999Y-12843814D01*
X24949999Y-12843814D02*
X24935714Y-12858100D01*
X24935714Y-12858100D02*
X24907142Y-12872385D01*
X24907142Y-12872385D02*
X24835714Y-12872385D01*
X24835714Y-12872385D02*
X24807142Y-12858100D01*
X24807142Y-12858100D02*
X24792856Y-12843814D01*
X25049999Y-12572385D02*
X25149999Y-12872385D01*
X25149999Y-12872385D02*
X25249999Y-12572385D01*
D11*
X38610476Y-3134819D02*
X38705714Y-3134819D01*
X38705714Y-3134819D02*
X38800952Y-3182438D01*
X38800952Y-3182438D02*
X38848571Y-3230057D01*
X38848571Y-3230057D02*
X38896190Y-3325295D01*
X38896190Y-3325295D02*
X38943809Y-3515771D01*
X38943809Y-3515771D02*
X38943809Y-3753866D01*
X38943809Y-3753866D02*
X38896190Y-3944342D01*
X38896190Y-3944342D02*
X38848571Y-4039580D01*
X38848571Y-4039580D02*
X38800952Y-4087200D01*
X38800952Y-4087200D02*
X38705714Y-4134819D01*
X38705714Y-4134819D02*
X38610476Y-4134819D01*
X38610476Y-4134819D02*
X38515238Y-4087200D01*
X38515238Y-4087200D02*
X38467619Y-4039580D01*
X38467619Y-4039580D02*
X38420000Y-3944342D01*
X38420000Y-3944342D02*
X38372381Y-3753866D01*
X38372381Y-3753866D02*
X38372381Y-3515771D01*
X38372381Y-3515771D02*
X38420000Y-3325295D01*
X38420000Y-3325295D02*
X38467619Y-3230057D01*
X38467619Y-3230057D02*
X38515238Y-3182438D01*
X38515238Y-3182438D02*
X38610476Y-3134819D01*
X39896190Y-4134819D02*
X39324762Y-4134819D01*
X39610476Y-4134819D02*
X39610476Y-3134819D01*
X39610476Y-3134819D02*
X39515238Y-3277676D01*
X39515238Y-3277676D02*
X39420000Y-3372914D01*
X39420000Y-3372914D02*
X39324762Y-3420533D01*
X40229524Y-4134819D02*
X40753333Y-3468152D01*
X40229524Y-3468152D02*
X40753333Y-4134819D01*
X41324762Y-3134819D02*
X41420000Y-3134819D01*
X41420000Y-3134819D02*
X41515238Y-3182438D01*
X41515238Y-3182438D02*
X41562857Y-3230057D01*
X41562857Y-3230057D02*
X41610476Y-3325295D01*
X41610476Y-3325295D02*
X41658095Y-3515771D01*
X41658095Y-3515771D02*
X41658095Y-3753866D01*
X41658095Y-3753866D02*
X41610476Y-3944342D01*
X41610476Y-3944342D02*
X41562857Y-4039580D01*
X41562857Y-4039580D02*
X41515238Y-4087200D01*
X41515238Y-4087200D02*
X41420000Y-4134819D01*
X41420000Y-4134819D02*
X41324762Y-4134819D01*
X41324762Y-4134819D02*
X41229524Y-4087200D01*
X41229524Y-4087200D02*
X41181905Y-4039580D01*
X41181905Y-4039580D02*
X41134286Y-3944342D01*
X41134286Y-3944342D02*
X41086667Y-3753866D01*
X41086667Y-3753866D02*
X41086667Y-3515771D01*
X41086667Y-3515771D02*
X41134286Y-3325295D01*
X41134286Y-3325295D02*
X41181905Y-3230057D01*
X41181905Y-3230057D02*
X41229524Y-3182438D01*
X41229524Y-3182438D02*
X41324762Y-3134819D01*
X42515238Y-3134819D02*
X42324762Y-3134819D01*
X42324762Y-3134819D02*
X42229524Y-3182438D01*
X42229524Y-3182438D02*
X42181905Y-3230057D01*
X42181905Y-3230057D02*
X42086667Y-3372914D01*
X42086667Y-3372914D02*
X42039048Y-3563390D01*
X42039048Y-3563390D02*
X42039048Y-3944342D01*
X42039048Y-3944342D02*
X42086667Y-4039580D01*
X42086667Y-4039580D02*
X42134286Y-4087200D01*
X42134286Y-4087200D02*
X42229524Y-4134819D01*
X42229524Y-4134819D02*
X42420000Y-4134819D01*
X42420000Y-4134819D02*
X42515238Y-4087200D01*
X42515238Y-4087200D02*
X42562857Y-4039580D01*
X42562857Y-4039580D02*
X42610476Y-3944342D01*
X42610476Y-3944342D02*
X42610476Y-3706247D01*
X42610476Y-3706247D02*
X42562857Y-3611009D01*
X42562857Y-3611009D02*
X42515238Y-3563390D01*
X42515238Y-3563390D02*
X42420000Y-3515771D01*
X42420000Y-3515771D02*
X42229524Y-3515771D01*
X42229524Y-3515771D02*
X42134286Y-3563390D01*
X42134286Y-3563390D02*
X42086667Y-3611009D01*
X42086667Y-3611009D02*
X42039048Y-3706247D01*
X42800953Y-4230057D02*
X43562857Y-4230057D01*
X43753334Y-3230057D02*
X43800953Y-3182438D01*
X43800953Y-3182438D02*
X43896191Y-3134819D01*
X43896191Y-3134819D02*
X44134286Y-3134819D01*
X44134286Y-3134819D02*
X44229524Y-3182438D01*
X44229524Y-3182438D02*
X44277143Y-3230057D01*
X44277143Y-3230057D02*
X44324762Y-3325295D01*
X44324762Y-3325295D02*
X44324762Y-3420533D01*
X44324762Y-3420533D02*
X44277143Y-3563390D01*
X44277143Y-3563390D02*
X43705715Y-4134819D01*
X43705715Y-4134819D02*
X44324762Y-4134819D01*
X44753334Y-4039580D02*
X44800953Y-4087200D01*
X44800953Y-4087200D02*
X44753334Y-4134819D01*
X44753334Y-4134819D02*
X44705715Y-4087200D01*
X44705715Y-4087200D02*
X44753334Y-4039580D01*
X44753334Y-4039580D02*
X44753334Y-4134819D01*
X45705714Y-3134819D02*
X45229524Y-3134819D01*
X45229524Y-3134819D02*
X45181905Y-3611009D01*
X45181905Y-3611009D02*
X45229524Y-3563390D01*
X45229524Y-3563390D02*
X45324762Y-3515771D01*
X45324762Y-3515771D02*
X45562857Y-3515771D01*
X45562857Y-3515771D02*
X45658095Y-3563390D01*
X45658095Y-3563390D02*
X45705714Y-3611009D01*
X45705714Y-3611009D02*
X45753333Y-3706247D01*
X45753333Y-3706247D02*
X45753333Y-3944342D01*
X45753333Y-3944342D02*
X45705714Y-4039580D01*
X45705714Y-4039580D02*
X45658095Y-4087200D01*
X45658095Y-4087200D02*
X45562857Y-4134819D01*
X45562857Y-4134819D02*
X45324762Y-4134819D01*
X45324762Y-4134819D02*
X45229524Y-4087200D01*
X45229524Y-4087200D02*
X45181905Y-4039580D01*
X46610476Y-3468152D02*
X46610476Y-4134819D01*
X46372381Y-3087200D02*
X46134286Y-3801485D01*
X46134286Y-3801485D02*
X46753333Y-3801485D01*
X47134286Y-4134819D02*
X47134286Y-3468152D01*
X47134286Y-3563390D02*
X47181905Y-3515771D01*
X47181905Y-3515771D02*
X47277143Y-3468152D01*
X47277143Y-3468152D02*
X47420000Y-3468152D01*
X47420000Y-3468152D02*
X47515238Y-3515771D01*
X47515238Y-3515771D02*
X47562857Y-3611009D01*
X47562857Y-3611009D02*
X47562857Y-4134819D01*
X47562857Y-3611009D02*
X47610476Y-3515771D01*
X47610476Y-3515771D02*
X47705714Y-3468152D01*
X47705714Y-3468152D02*
X47848571Y-3468152D01*
X47848571Y-3468152D02*
X47943810Y-3515771D01*
X47943810Y-3515771D02*
X47991429Y-3611009D01*
X47991429Y-3611009D02*
X47991429Y-4134819D01*
X48467619Y-4134819D02*
X48467619Y-3468152D01*
X48467619Y-3563390D02*
X48515238Y-3515771D01*
X48515238Y-3515771D02*
X48610476Y-3468152D01*
X48610476Y-3468152D02*
X48753333Y-3468152D01*
X48753333Y-3468152D02*
X48848571Y-3515771D01*
X48848571Y-3515771D02*
X48896190Y-3611009D01*
X48896190Y-3611009D02*
X48896190Y-4134819D01*
X48896190Y-3611009D02*
X48943809Y-3515771D01*
X48943809Y-3515771D02*
X49039047Y-3468152D01*
X49039047Y-3468152D02*
X49181904Y-3468152D01*
X49181904Y-3468152D02*
X49277143Y-3515771D01*
X49277143Y-3515771D02*
X49324762Y-3611009D01*
X49324762Y-3611009D02*
X49324762Y-4134819D01*
X49562857Y-4230057D02*
X50324761Y-4230057D01*
X50896190Y-3611009D02*
X50562857Y-3611009D01*
X50562857Y-4134819D02*
X50562857Y-3134819D01*
X50562857Y-3134819D02*
X51039047Y-3134819D01*
X51800952Y-4087200D02*
X51705714Y-4134819D01*
X51705714Y-4134819D02*
X51515238Y-4134819D01*
X51515238Y-4134819D02*
X51420000Y-4087200D01*
X51420000Y-4087200D02*
X51372381Y-3991961D01*
X51372381Y-3991961D02*
X51372381Y-3611009D01*
X51372381Y-3611009D02*
X51420000Y-3515771D01*
X51420000Y-3515771D02*
X51515238Y-3468152D01*
X51515238Y-3468152D02*
X51705714Y-3468152D01*
X51705714Y-3468152D02*
X51800952Y-3515771D01*
X51800952Y-3515771D02*
X51848571Y-3611009D01*
X51848571Y-3611009D02*
X51848571Y-3706247D01*
X51848571Y-3706247D02*
X51372381Y-3801485D01*
X52277143Y-4134819D02*
X52277143Y-3468152D01*
X52277143Y-3563390D02*
X52324762Y-3515771D01*
X52324762Y-3515771D02*
X52420000Y-3468152D01*
X52420000Y-3468152D02*
X52562857Y-3468152D01*
X52562857Y-3468152D02*
X52658095Y-3515771D01*
X52658095Y-3515771D02*
X52705714Y-3611009D01*
X52705714Y-3611009D02*
X52705714Y-4134819D01*
X52705714Y-3611009D02*
X52753333Y-3515771D01*
X52753333Y-3515771D02*
X52848571Y-3468152D01*
X52848571Y-3468152D02*
X52991428Y-3468152D01*
X52991428Y-3468152D02*
X53086667Y-3515771D01*
X53086667Y-3515771D02*
X53134286Y-3611009D01*
X53134286Y-3611009D02*
X53134286Y-4134819D01*
X54039047Y-4134819D02*
X54039047Y-3611009D01*
X54039047Y-3611009D02*
X53991428Y-3515771D01*
X53991428Y-3515771D02*
X53896190Y-3468152D01*
X53896190Y-3468152D02*
X53705714Y-3468152D01*
X53705714Y-3468152D02*
X53610476Y-3515771D01*
X54039047Y-4087200D02*
X53943809Y-4134819D01*
X53943809Y-4134819D02*
X53705714Y-4134819D01*
X53705714Y-4134819D02*
X53610476Y-4087200D01*
X53610476Y-4087200D02*
X53562857Y-3991961D01*
X53562857Y-3991961D02*
X53562857Y-3896723D01*
X53562857Y-3896723D02*
X53610476Y-3801485D01*
X53610476Y-3801485D02*
X53705714Y-3753866D01*
X53705714Y-3753866D02*
X53943809Y-3753866D01*
X53943809Y-3753866D02*
X54039047Y-3706247D01*
X54658095Y-4134819D02*
X54562857Y-4087200D01*
X54562857Y-4087200D02*
X54515238Y-3991961D01*
X54515238Y-3991961D02*
X54515238Y-3134819D01*
X55420000Y-4087200D02*
X55324762Y-4134819D01*
X55324762Y-4134819D02*
X55134286Y-4134819D01*
X55134286Y-4134819D02*
X55039048Y-4087200D01*
X55039048Y-4087200D02*
X54991429Y-3991961D01*
X54991429Y-3991961D02*
X54991429Y-3611009D01*
X54991429Y-3611009D02*
X55039048Y-3515771D01*
X55039048Y-3515771D02*
X55134286Y-3468152D01*
X55134286Y-3468152D02*
X55324762Y-3468152D01*
X55324762Y-3468152D02*
X55420000Y-3515771D01*
X55420000Y-3515771D02*
X55467619Y-3611009D01*
X55467619Y-3611009D02*
X55467619Y-3706247D01*
X55467619Y-3706247D02*
X54991429Y-3801485D01*
D10*
X17178571Y-12600957D02*
X17192857Y-12586671D01*
X17192857Y-12586671D02*
X17221429Y-12572385D01*
X17221429Y-12572385D02*
X17292857Y-12572385D01*
X17292857Y-12572385D02*
X17321429Y-12586671D01*
X17321429Y-12586671D02*
X17335714Y-12600957D01*
X17335714Y-12600957D02*
X17350000Y-12629528D01*
X17350000Y-12629528D02*
X17350000Y-12658100D01*
X17350000Y-12658100D02*
X17335714Y-12700957D01*
X17335714Y-12700957D02*
X17164286Y-12872385D01*
X17164286Y-12872385D02*
X17350000Y-12872385D01*
X17464285Y-12600957D02*
X17478571Y-12586671D01*
X17478571Y-12586671D02*
X17507143Y-12572385D01*
X17507143Y-12572385D02*
X17578571Y-12572385D01*
X17578571Y-12572385D02*
X17607143Y-12586671D01*
X17607143Y-12586671D02*
X17621428Y-12600957D01*
X17621428Y-12600957D02*
X17635714Y-12629528D01*
X17635714Y-12629528D02*
X17635714Y-12658100D01*
X17635714Y-12658100D02*
X17621428Y-12700957D01*
X17621428Y-12700957D02*
X17450000Y-12872385D01*
X17450000Y-12872385D02*
X17635714Y-12872385D01*
X17892857Y-12672385D02*
X17892857Y-12872385D01*
X17764285Y-12672385D02*
X17764285Y-12829528D01*
X17764285Y-12829528D02*
X17778571Y-12858100D01*
X17778571Y-12858100D02*
X17807142Y-12872385D01*
X17807142Y-12872385D02*
X17849999Y-12872385D01*
X17849999Y-12872385D02*
X17878571Y-12858100D01*
X17878571Y-12858100D02*
X17892857Y-12843814D01*
X18135714Y-12715242D02*
X18035714Y-12715242D01*
X18035714Y-12872385D02*
X18035714Y-12572385D01*
X18035714Y-12572385D02*
X18178571Y-12572385D01*
X18221429Y-12900957D02*
X18450000Y-12900957D01*
X18507142Y-12600957D02*
X18521428Y-12586671D01*
X18521428Y-12586671D02*
X18550000Y-12572385D01*
X18550000Y-12572385D02*
X18621428Y-12572385D01*
X18621428Y-12572385D02*
X18650000Y-12586671D01*
X18650000Y-12586671D02*
X18664285Y-12600957D01*
X18664285Y-12600957D02*
X18678571Y-12629528D01*
X18678571Y-12629528D02*
X18678571Y-12658100D01*
X18678571Y-12658100D02*
X18664285Y-12700957D01*
X18664285Y-12700957D02*
X18492857Y-12872385D01*
X18492857Y-12872385D02*
X18678571Y-12872385D01*
X18949999Y-12572385D02*
X18807142Y-12572385D01*
X18807142Y-12572385D02*
X18792856Y-12715242D01*
X18792856Y-12715242D02*
X18807142Y-12700957D01*
X18807142Y-12700957D02*
X18835714Y-12686671D01*
X18835714Y-12686671D02*
X18907142Y-12686671D01*
X18907142Y-12686671D02*
X18935714Y-12700957D01*
X18935714Y-12700957D02*
X18949999Y-12715242D01*
X18949999Y-12715242D02*
X18964285Y-12743814D01*
X18964285Y-12743814D02*
X18964285Y-12815242D01*
X18964285Y-12815242D02*
X18949999Y-12843814D01*
X18949999Y-12843814D02*
X18935714Y-12858100D01*
X18935714Y-12858100D02*
X18907142Y-12872385D01*
X18907142Y-12872385D02*
X18835714Y-12872385D01*
X18835714Y-12872385D02*
X18807142Y-12858100D01*
X18807142Y-12858100D02*
X18792856Y-12843814D01*
X19049999Y-12572385D02*
X19149999Y-12872385D01*
X19149999Y-12872385D02*
X19249999Y-12572385D01*
X27353571Y-12713457D02*
X27367857Y-12699171D01*
X27367857Y-12699171D02*
X27396429Y-12684885D01*
X27396429Y-12684885D02*
X27467857Y-12684885D01*
X27467857Y-12684885D02*
X27496429Y-12699171D01*
X27496429Y-12699171D02*
X27510714Y-12713457D01*
X27510714Y-12713457D02*
X27525000Y-12742028D01*
X27525000Y-12742028D02*
X27525000Y-12770600D01*
X27525000Y-12770600D02*
X27510714Y-12813457D01*
X27510714Y-12813457D02*
X27339286Y-12984885D01*
X27339286Y-12984885D02*
X27525000Y-12984885D01*
X27639285Y-12713457D02*
X27653571Y-12699171D01*
X27653571Y-12699171D02*
X27682143Y-12684885D01*
X27682143Y-12684885D02*
X27753571Y-12684885D01*
X27753571Y-12684885D02*
X27782143Y-12699171D01*
X27782143Y-12699171D02*
X27796428Y-12713457D01*
X27796428Y-12713457D02*
X27810714Y-12742028D01*
X27810714Y-12742028D02*
X27810714Y-12770600D01*
X27810714Y-12770600D02*
X27796428Y-12813457D01*
X27796428Y-12813457D02*
X27625000Y-12984885D01*
X27625000Y-12984885D02*
X27810714Y-12984885D01*
X28067857Y-12784885D02*
X28067857Y-12984885D01*
X27939285Y-12784885D02*
X27939285Y-12942028D01*
X27939285Y-12942028D02*
X27953571Y-12970600D01*
X27953571Y-12970600D02*
X27982142Y-12984885D01*
X27982142Y-12984885D02*
X28024999Y-12984885D01*
X28024999Y-12984885D02*
X28053571Y-12970600D01*
X28053571Y-12970600D02*
X28067857Y-12956314D01*
X28310714Y-12827742D02*
X28210714Y-12827742D01*
X28210714Y-12984885D02*
X28210714Y-12684885D01*
X28210714Y-12684885D02*
X28353571Y-12684885D01*
X28396429Y-13013457D02*
X28625000Y-13013457D01*
X28682142Y-12713457D02*
X28696428Y-12699171D01*
X28696428Y-12699171D02*
X28725000Y-12684885D01*
X28725000Y-12684885D02*
X28796428Y-12684885D01*
X28796428Y-12684885D02*
X28825000Y-12699171D01*
X28825000Y-12699171D02*
X28839285Y-12713457D01*
X28839285Y-12713457D02*
X28853571Y-12742028D01*
X28853571Y-12742028D02*
X28853571Y-12770600D01*
X28853571Y-12770600D02*
X28839285Y-12813457D01*
X28839285Y-12813457D02*
X28667857Y-12984885D01*
X28667857Y-12984885D02*
X28853571Y-12984885D01*
X29124999Y-12684885D02*
X28982142Y-12684885D01*
X28982142Y-12684885D02*
X28967856Y-12827742D01*
X28967856Y-12827742D02*
X28982142Y-12813457D01*
X28982142Y-12813457D02*
X29010714Y-12799171D01*
X29010714Y-12799171D02*
X29082142Y-12799171D01*
X29082142Y-12799171D02*
X29110714Y-12813457D01*
X29110714Y-12813457D02*
X29124999Y-12827742D01*
X29124999Y-12827742D02*
X29139285Y-12856314D01*
X29139285Y-12856314D02*
X29139285Y-12927742D01*
X29139285Y-12927742D02*
X29124999Y-12956314D01*
X29124999Y-12956314D02*
X29110714Y-12970600D01*
X29110714Y-12970600D02*
X29082142Y-12984885D01*
X29082142Y-12984885D02*
X29010714Y-12984885D01*
X29010714Y-12984885D02*
X28982142Y-12970600D01*
X28982142Y-12970600D02*
X28967856Y-12956314D01*
X29224999Y-12684885D02*
X29324999Y-12984885D01*
X29324999Y-12984885D02*
X29424999Y-12684885D01*
X25378571Y-12713457D02*
X25392857Y-12699171D01*
X25392857Y-12699171D02*
X25421429Y-12684885D01*
X25421429Y-12684885D02*
X25492857Y-12684885D01*
X25492857Y-12684885D02*
X25521429Y-12699171D01*
X25521429Y-12699171D02*
X25535714Y-12713457D01*
X25535714Y-12713457D02*
X25550000Y-12742028D01*
X25550000Y-12742028D02*
X25550000Y-12770600D01*
X25550000Y-12770600D02*
X25535714Y-12813457D01*
X25535714Y-12813457D02*
X25364286Y-12984885D01*
X25364286Y-12984885D02*
X25550000Y-12984885D01*
X25664285Y-12713457D02*
X25678571Y-12699171D01*
X25678571Y-12699171D02*
X25707143Y-12684885D01*
X25707143Y-12684885D02*
X25778571Y-12684885D01*
X25778571Y-12684885D02*
X25807143Y-12699171D01*
X25807143Y-12699171D02*
X25821428Y-12713457D01*
X25821428Y-12713457D02*
X25835714Y-12742028D01*
X25835714Y-12742028D02*
X25835714Y-12770600D01*
X25835714Y-12770600D02*
X25821428Y-12813457D01*
X25821428Y-12813457D02*
X25650000Y-12984885D01*
X25650000Y-12984885D02*
X25835714Y-12984885D01*
X26092857Y-12784885D02*
X26092857Y-12984885D01*
X25964285Y-12784885D02*
X25964285Y-12942028D01*
X25964285Y-12942028D02*
X25978571Y-12970600D01*
X25978571Y-12970600D02*
X26007142Y-12984885D01*
X26007142Y-12984885D02*
X26049999Y-12984885D01*
X26049999Y-12984885D02*
X26078571Y-12970600D01*
X26078571Y-12970600D02*
X26092857Y-12956314D01*
X26335714Y-12827742D02*
X26235714Y-12827742D01*
X26235714Y-12984885D02*
X26235714Y-12684885D01*
X26235714Y-12684885D02*
X26378571Y-12684885D01*
X26421429Y-13013457D02*
X26650000Y-13013457D01*
X26707142Y-12713457D02*
X26721428Y-12699171D01*
X26721428Y-12699171D02*
X26750000Y-12684885D01*
X26750000Y-12684885D02*
X26821428Y-12684885D01*
X26821428Y-12684885D02*
X26850000Y-12699171D01*
X26850000Y-12699171D02*
X26864285Y-12713457D01*
X26864285Y-12713457D02*
X26878571Y-12742028D01*
X26878571Y-12742028D02*
X26878571Y-12770600D01*
X26878571Y-12770600D02*
X26864285Y-12813457D01*
X26864285Y-12813457D02*
X26692857Y-12984885D01*
X26692857Y-12984885D02*
X26878571Y-12984885D01*
X27149999Y-12684885D02*
X27007142Y-12684885D01*
X27007142Y-12684885D02*
X26992856Y-12827742D01*
X26992856Y-12827742D02*
X27007142Y-12813457D01*
X27007142Y-12813457D02*
X27035714Y-12799171D01*
X27035714Y-12799171D02*
X27107142Y-12799171D01*
X27107142Y-12799171D02*
X27135714Y-12813457D01*
X27135714Y-12813457D02*
X27149999Y-12827742D01*
X27149999Y-12827742D02*
X27164285Y-12856314D01*
X27164285Y-12856314D02*
X27164285Y-12927742D01*
X27164285Y-12927742D02*
X27149999Y-12956314D01*
X27149999Y-12956314D02*
X27135714Y-12970600D01*
X27135714Y-12970600D02*
X27107142Y-12984885D01*
X27107142Y-12984885D02*
X27035714Y-12984885D01*
X27035714Y-12984885D02*
X27007142Y-12970600D01*
X27007142Y-12970600D02*
X26992856Y-12956314D01*
X27249999Y-12684885D02*
X27349999Y-12984885D01*
X27349999Y-12984885D02*
X27449999Y-12684885D01*
X21178571Y-12600957D02*
X21192857Y-12586671D01*
X21192857Y-12586671D02*
X21221429Y-12572385D01*
X21221429Y-12572385D02*
X21292857Y-12572385D01*
X21292857Y-12572385D02*
X21321429Y-12586671D01*
X21321429Y-12586671D02*
X21335714Y-12600957D01*
X21335714Y-12600957D02*
X21350000Y-12629528D01*
X21350000Y-12629528D02*
X21350000Y-12658100D01*
X21350000Y-12658100D02*
X21335714Y-12700957D01*
X21335714Y-12700957D02*
X21164286Y-12872385D01*
X21164286Y-12872385D02*
X21350000Y-12872385D01*
X21464285Y-12600957D02*
X21478571Y-12586671D01*
X21478571Y-12586671D02*
X21507143Y-12572385D01*
X21507143Y-12572385D02*
X21578571Y-12572385D01*
X21578571Y-12572385D02*
X21607143Y-12586671D01*
X21607143Y-12586671D02*
X21621428Y-12600957D01*
X21621428Y-12600957D02*
X21635714Y-12629528D01*
X21635714Y-12629528D02*
X21635714Y-12658100D01*
X21635714Y-12658100D02*
X21621428Y-12700957D01*
X21621428Y-12700957D02*
X21450000Y-12872385D01*
X21450000Y-12872385D02*
X21635714Y-12872385D01*
X21892857Y-12672385D02*
X21892857Y-12872385D01*
X21764285Y-12672385D02*
X21764285Y-12829528D01*
X21764285Y-12829528D02*
X21778571Y-12858100D01*
X21778571Y-12858100D02*
X21807142Y-12872385D01*
X21807142Y-12872385D02*
X21849999Y-12872385D01*
X21849999Y-12872385D02*
X21878571Y-12858100D01*
X21878571Y-12858100D02*
X21892857Y-12843814D01*
X22135714Y-12715242D02*
X22035714Y-12715242D01*
X22035714Y-12872385D02*
X22035714Y-12572385D01*
X22035714Y-12572385D02*
X22178571Y-12572385D01*
X22221429Y-12900957D02*
X22450000Y-12900957D01*
X22507142Y-12600957D02*
X22521428Y-12586671D01*
X22521428Y-12586671D02*
X22550000Y-12572385D01*
X22550000Y-12572385D02*
X22621428Y-12572385D01*
X22621428Y-12572385D02*
X22650000Y-12586671D01*
X22650000Y-12586671D02*
X22664285Y-12600957D01*
X22664285Y-12600957D02*
X22678571Y-12629528D01*
X22678571Y-12629528D02*
X22678571Y-12658100D01*
X22678571Y-12658100D02*
X22664285Y-12700957D01*
X22664285Y-12700957D02*
X22492857Y-12872385D01*
X22492857Y-12872385D02*
X22678571Y-12872385D01*
X22949999Y-12572385D02*
X22807142Y-12572385D01*
X22807142Y-12572385D02*
X22792856Y-12715242D01*
X22792856Y-12715242D02*
X22807142Y-12700957D01*
X22807142Y-12700957D02*
X22835714Y-12686671D01*
X22835714Y-12686671D02*
X22907142Y-12686671D01*
X22907142Y-12686671D02*
X22935714Y-12700957D01*
X22935714Y-12700957D02*
X22949999Y-12715242D01*
X22949999Y-12715242D02*
X22964285Y-12743814D01*
X22964285Y-12743814D02*
X22964285Y-12815242D01*
X22964285Y-12815242D02*
X22949999Y-12843814D01*
X22949999Y-12843814D02*
X22935714Y-12858100D01*
X22935714Y-12858100D02*
X22907142Y-12872385D01*
X22907142Y-12872385D02*
X22835714Y-12872385D01*
X22835714Y-12872385D02*
X22807142Y-12858100D01*
X22807142Y-12858100D02*
X22792856Y-12843814D01*
X23049999Y-12572385D02*
X23149999Y-12872385D01*
X23149999Y-12872385D02*
X23249999Y-12572385D01*
X31353571Y-12725957D02*
X31367857Y-12711671D01*
X31367857Y-12711671D02*
X31396429Y-12697385D01*
X31396429Y-12697385D02*
X31467857Y-12697385D01*
X31467857Y-12697385D02*
X31496429Y-12711671D01*
X31496429Y-12711671D02*
X31510714Y-12725957D01*
X31510714Y-12725957D02*
X31525000Y-12754528D01*
X31525000Y-12754528D02*
X31525000Y-12783100D01*
X31525000Y-12783100D02*
X31510714Y-12825957D01*
X31510714Y-12825957D02*
X31339286Y-12997385D01*
X31339286Y-12997385D02*
X31525000Y-12997385D01*
X31639285Y-12725957D02*
X31653571Y-12711671D01*
X31653571Y-12711671D02*
X31682143Y-12697385D01*
X31682143Y-12697385D02*
X31753571Y-12697385D01*
X31753571Y-12697385D02*
X31782143Y-12711671D01*
X31782143Y-12711671D02*
X31796428Y-12725957D01*
X31796428Y-12725957D02*
X31810714Y-12754528D01*
X31810714Y-12754528D02*
X31810714Y-12783100D01*
X31810714Y-12783100D02*
X31796428Y-12825957D01*
X31796428Y-12825957D02*
X31625000Y-12997385D01*
X31625000Y-12997385D02*
X31810714Y-12997385D01*
X32067857Y-12797385D02*
X32067857Y-12997385D01*
X31939285Y-12797385D02*
X31939285Y-12954528D01*
X31939285Y-12954528D02*
X31953571Y-12983100D01*
X31953571Y-12983100D02*
X31982142Y-12997385D01*
X31982142Y-12997385D02*
X32024999Y-12997385D01*
X32024999Y-12997385D02*
X32053571Y-12983100D01*
X32053571Y-12983100D02*
X32067857Y-12968814D01*
X32310714Y-12840242D02*
X32210714Y-12840242D01*
X32210714Y-12997385D02*
X32210714Y-12697385D01*
X32210714Y-12697385D02*
X32353571Y-12697385D01*
X32396429Y-13025957D02*
X32625000Y-13025957D01*
X32682142Y-12725957D02*
X32696428Y-12711671D01*
X32696428Y-12711671D02*
X32725000Y-12697385D01*
X32725000Y-12697385D02*
X32796428Y-12697385D01*
X32796428Y-12697385D02*
X32825000Y-12711671D01*
X32825000Y-12711671D02*
X32839285Y-12725957D01*
X32839285Y-12725957D02*
X32853571Y-12754528D01*
X32853571Y-12754528D02*
X32853571Y-12783100D01*
X32853571Y-12783100D02*
X32839285Y-12825957D01*
X32839285Y-12825957D02*
X32667857Y-12997385D01*
X32667857Y-12997385D02*
X32853571Y-12997385D01*
X33124999Y-12697385D02*
X32982142Y-12697385D01*
X32982142Y-12697385D02*
X32967856Y-12840242D01*
X32967856Y-12840242D02*
X32982142Y-12825957D01*
X32982142Y-12825957D02*
X33010714Y-12811671D01*
X33010714Y-12811671D02*
X33082142Y-12811671D01*
X33082142Y-12811671D02*
X33110714Y-12825957D01*
X33110714Y-12825957D02*
X33124999Y-12840242D01*
X33124999Y-12840242D02*
X33139285Y-12868814D01*
X33139285Y-12868814D02*
X33139285Y-12940242D01*
X33139285Y-12940242D02*
X33124999Y-12968814D01*
X33124999Y-12968814D02*
X33110714Y-12983100D01*
X33110714Y-12983100D02*
X33082142Y-12997385D01*
X33082142Y-12997385D02*
X33010714Y-12997385D01*
X33010714Y-12997385D02*
X32982142Y-12983100D01*
X32982142Y-12983100D02*
X32967856Y-12968814D01*
X33224999Y-12697385D02*
X33324999Y-12997385D01*
X33324999Y-12997385D02*
X33424999Y-12697385D01*
D12*
X27350000Y-1900000D03*
X27350000Y-3400000D03*
X27350000Y-4900000D03*
X28850000Y-1900000D03*
X28850000Y-3400000D03*
X28850000Y-4900000D03*
D13*
X51500000Y-22500000D03*
X21100000Y-3600000D03*
X17600000Y-3600000D03*
X5850000Y-23600000D03*
X7850000Y-23600000D03*
X9850000Y-23600000D03*
X11850000Y-23600000D03*
X2500000Y-2500000D03*
X51500000Y-2550000D03*
X2500000Y-22500000D03*
X12800000Y-3600000D03*
X9300000Y-3600000D03*
M02*
