%TF.GenerationSoftware,KiCad,Pcbnew,8.0.8*%
%TF.CreationDate,2025-07-09T11:23:43+01:00*%
%TF.ProjectId,Motor,4d6f746f-722e-46b6-9963-61645f706362,rev?*%
%TF.SameCoordinates,Original*%
%TF.FileFunction,Legend,Bot*%
%TF.FilePolarity,Positive*%
%FSLAX46Y46*%
G04 Gerber Fmt 4.6, Leading zero omitted, Abs format (unit mm)*
G04 Created by KiCad (PCBNEW 8.0.8) date 2025-07-09 11:23:43*
%MOMM*%
%LPD*%
G01*
G04 APERTURE LIST*
%ADD10C,0.250000*%
%ADD11C,0.150000*%
%ADD12C,0.300000*%
%ADD13C,0.350000*%
G04 APERTURE END LIST*
D10*
X14574906Y-1141099D02*
X14574906Y-141099D01*
X14574906Y-141099D02*
X14241573Y-855384D01*
X14241573Y-855384D02*
X13908240Y-141099D01*
X13908240Y-141099D02*
X13908240Y-1141099D01*
X13289192Y-1141099D02*
X13384430Y-1093480D01*
X13384430Y-1093480D02*
X13432049Y-1045860D01*
X13432049Y-1045860D02*
X13479668Y-950622D01*
X13479668Y-950622D02*
X13479668Y-664908D01*
X13479668Y-664908D02*
X13432049Y-569670D01*
X13432049Y-569670D02*
X13384430Y-522051D01*
X13384430Y-522051D02*
X13289192Y-474432D01*
X13289192Y-474432D02*
X13146335Y-474432D01*
X13146335Y-474432D02*
X13051097Y-522051D01*
X13051097Y-522051D02*
X13003478Y-569670D01*
X13003478Y-569670D02*
X12955859Y-664908D01*
X12955859Y-664908D02*
X12955859Y-950622D01*
X12955859Y-950622D02*
X13003478Y-1045860D01*
X13003478Y-1045860D02*
X13051097Y-1093480D01*
X13051097Y-1093480D02*
X13146335Y-1141099D01*
X13146335Y-1141099D02*
X13289192Y-1141099D01*
X12670144Y-474432D02*
X12289192Y-474432D01*
X12527287Y-141099D02*
X12527287Y-998241D01*
X12527287Y-998241D02*
X12479668Y-1093480D01*
X12479668Y-1093480D02*
X12384430Y-1141099D01*
X12384430Y-1141099D02*
X12289192Y-1141099D01*
X11813001Y-1141099D02*
X11908239Y-1093480D01*
X11908239Y-1093480D02*
X11955858Y-1045860D01*
X11955858Y-1045860D02*
X12003477Y-950622D01*
X12003477Y-950622D02*
X12003477Y-664908D01*
X12003477Y-664908D02*
X11955858Y-569670D01*
X11955858Y-569670D02*
X11908239Y-522051D01*
X11908239Y-522051D02*
X11813001Y-474432D01*
X11813001Y-474432D02*
X11670144Y-474432D01*
X11670144Y-474432D02*
X11574906Y-522051D01*
X11574906Y-522051D02*
X11527287Y-569670D01*
X11527287Y-569670D02*
X11479668Y-664908D01*
X11479668Y-664908D02*
X11479668Y-950622D01*
X11479668Y-950622D02*
X11527287Y-1045860D01*
X11527287Y-1045860D02*
X11574906Y-1093480D01*
X11574906Y-1093480D02*
X11670144Y-1141099D01*
X11670144Y-1141099D02*
X11813001Y-1141099D01*
X11051096Y-1141099D02*
X11051096Y-474432D01*
X11051096Y-664908D02*
X11003477Y-569670D01*
X11003477Y-569670D02*
X10955858Y-522051D01*
X10955858Y-522051D02*
X10860620Y-474432D01*
X10860620Y-474432D02*
X10765382Y-474432D01*
X9479667Y-141099D02*
X9384429Y-141099D01*
X9384429Y-141099D02*
X9289191Y-188718D01*
X9289191Y-188718D02*
X9241572Y-236337D01*
X9241572Y-236337D02*
X9193953Y-331575D01*
X9193953Y-331575D02*
X9146334Y-522051D01*
X9146334Y-522051D02*
X9146334Y-760146D01*
X9146334Y-760146D02*
X9193953Y-950622D01*
X9193953Y-950622D02*
X9241572Y-1045860D01*
X9241572Y-1045860D02*
X9289191Y-1093480D01*
X9289191Y-1093480D02*
X9384429Y-1141099D01*
X9384429Y-1141099D02*
X9479667Y-1141099D01*
X9479667Y-1141099D02*
X9574905Y-1093480D01*
X9574905Y-1093480D02*
X9622524Y-1045860D01*
X9622524Y-1045860D02*
X9670143Y-950622D01*
X9670143Y-950622D02*
X9717762Y-760146D01*
X9717762Y-760146D02*
X9717762Y-522051D01*
X9717762Y-522051D02*
X9670143Y-331575D01*
X9670143Y-331575D02*
X9622524Y-236337D01*
X9622524Y-236337D02*
X9574905Y-188718D01*
X9574905Y-188718D02*
X9479667Y-141099D01*
X22424576Y-1174619D02*
X22424576Y-174619D01*
X22424576Y-174619D02*
X22091243Y-888904D01*
X22091243Y-888904D02*
X21757910Y-174619D01*
X21757910Y-174619D02*
X21757910Y-1174619D01*
X21138862Y-1174619D02*
X21234100Y-1127000D01*
X21234100Y-1127000D02*
X21281719Y-1079380D01*
X21281719Y-1079380D02*
X21329338Y-984142D01*
X21329338Y-984142D02*
X21329338Y-698428D01*
X21329338Y-698428D02*
X21281719Y-603190D01*
X21281719Y-603190D02*
X21234100Y-555571D01*
X21234100Y-555571D02*
X21138862Y-507952D01*
X21138862Y-507952D02*
X20996005Y-507952D01*
X20996005Y-507952D02*
X20900767Y-555571D01*
X20900767Y-555571D02*
X20853148Y-603190D01*
X20853148Y-603190D02*
X20805529Y-698428D01*
X20805529Y-698428D02*
X20805529Y-984142D01*
X20805529Y-984142D02*
X20853148Y-1079380D01*
X20853148Y-1079380D02*
X20900767Y-1127000D01*
X20900767Y-1127000D02*
X20996005Y-1174619D01*
X20996005Y-1174619D02*
X21138862Y-1174619D01*
X20519814Y-507952D02*
X20138862Y-507952D01*
X20376957Y-174619D02*
X20376957Y-1031761D01*
X20376957Y-1031761D02*
X20329338Y-1127000D01*
X20329338Y-1127000D02*
X20234100Y-1174619D01*
X20234100Y-1174619D02*
X20138862Y-1174619D01*
X19662671Y-1174619D02*
X19757909Y-1127000D01*
X19757909Y-1127000D02*
X19805528Y-1079380D01*
X19805528Y-1079380D02*
X19853147Y-984142D01*
X19853147Y-984142D02*
X19853147Y-698428D01*
X19853147Y-698428D02*
X19805528Y-603190D01*
X19805528Y-603190D02*
X19757909Y-555571D01*
X19757909Y-555571D02*
X19662671Y-507952D01*
X19662671Y-507952D02*
X19519814Y-507952D01*
X19519814Y-507952D02*
X19424576Y-555571D01*
X19424576Y-555571D02*
X19376957Y-603190D01*
X19376957Y-603190D02*
X19329338Y-698428D01*
X19329338Y-698428D02*
X19329338Y-984142D01*
X19329338Y-984142D02*
X19376957Y-1079380D01*
X19376957Y-1079380D02*
X19424576Y-1127000D01*
X19424576Y-1127000D02*
X19519814Y-1174619D01*
X19519814Y-1174619D02*
X19662671Y-1174619D01*
X18900766Y-1174619D02*
X18900766Y-507952D01*
X18900766Y-698428D02*
X18853147Y-603190D01*
X18853147Y-603190D02*
X18805528Y-555571D01*
X18805528Y-555571D02*
X18710290Y-507952D01*
X18710290Y-507952D02*
X18615052Y-507952D01*
X16996004Y-1174619D02*
X17567432Y-1174619D01*
X17281718Y-1174619D02*
X17281718Y-174619D01*
X17281718Y-174619D02*
X17376956Y-317476D01*
X17376956Y-317476D02*
X17472194Y-412714D01*
X17472194Y-412714D02*
X17567432Y-460333D01*
X48168094Y-24101099D02*
X48168094Y-23101099D01*
X48168094Y-23101099D02*
X47834761Y-23815384D01*
X47834761Y-23815384D02*
X47501428Y-23101099D01*
X47501428Y-23101099D02*
X47501428Y-24101099D01*
X46882380Y-24101099D02*
X46977618Y-24053480D01*
X46977618Y-24053480D02*
X47025237Y-24005860D01*
X47025237Y-24005860D02*
X47072856Y-23910622D01*
X47072856Y-23910622D02*
X47072856Y-23624908D01*
X47072856Y-23624908D02*
X47025237Y-23529670D01*
X47025237Y-23529670D02*
X46977618Y-23482051D01*
X46977618Y-23482051D02*
X46882380Y-23434432D01*
X46882380Y-23434432D02*
X46739523Y-23434432D01*
X46739523Y-23434432D02*
X46644285Y-23482051D01*
X46644285Y-23482051D02*
X46596666Y-23529670D01*
X46596666Y-23529670D02*
X46549047Y-23624908D01*
X46549047Y-23624908D02*
X46549047Y-23910622D01*
X46549047Y-23910622D02*
X46596666Y-24005860D01*
X46596666Y-24005860D02*
X46644285Y-24053480D01*
X46644285Y-24053480D02*
X46739523Y-24101099D01*
X46739523Y-24101099D02*
X46882380Y-24101099D01*
X46263332Y-23434432D02*
X45882380Y-23434432D01*
X46120475Y-23101099D02*
X46120475Y-23958241D01*
X46120475Y-23958241D02*
X46072856Y-24053480D01*
X46072856Y-24053480D02*
X45977618Y-24101099D01*
X45977618Y-24101099D02*
X45882380Y-24101099D01*
X45406189Y-24101099D02*
X45501427Y-24053480D01*
X45501427Y-24053480D02*
X45549046Y-24005860D01*
X45549046Y-24005860D02*
X45596665Y-23910622D01*
X45596665Y-23910622D02*
X45596665Y-23624908D01*
X45596665Y-23624908D02*
X45549046Y-23529670D01*
X45549046Y-23529670D02*
X45501427Y-23482051D01*
X45501427Y-23482051D02*
X45406189Y-23434432D01*
X45406189Y-23434432D02*
X45263332Y-23434432D01*
X45263332Y-23434432D02*
X45168094Y-23482051D01*
X45168094Y-23482051D02*
X45120475Y-23529670D01*
X45120475Y-23529670D02*
X45072856Y-23624908D01*
X45072856Y-23624908D02*
X45072856Y-23910622D01*
X45072856Y-23910622D02*
X45120475Y-24005860D01*
X45120475Y-24005860D02*
X45168094Y-24053480D01*
X45168094Y-24053480D02*
X45263332Y-24101099D01*
X45263332Y-24101099D02*
X45406189Y-24101099D01*
X44644284Y-24101099D02*
X44644284Y-23434432D01*
X44644284Y-23624908D02*
X44596665Y-23529670D01*
X44596665Y-23529670D02*
X44549046Y-23482051D01*
X44549046Y-23482051D02*
X44453808Y-23434432D01*
X44453808Y-23434432D02*
X44358570Y-23434432D01*
X43358569Y-23434432D02*
X43120474Y-24101099D01*
X43120474Y-24101099D02*
X42882379Y-23434432D01*
X42310950Y-23101099D02*
X42215712Y-23101099D01*
X42215712Y-23101099D02*
X42120474Y-23148718D01*
X42120474Y-23148718D02*
X42072855Y-23196337D01*
X42072855Y-23196337D02*
X42025236Y-23291575D01*
X42025236Y-23291575D02*
X41977617Y-23482051D01*
X41977617Y-23482051D02*
X41977617Y-23720146D01*
X41977617Y-23720146D02*
X42025236Y-23910622D01*
X42025236Y-23910622D02*
X42072855Y-24005860D01*
X42072855Y-24005860D02*
X42120474Y-24053480D01*
X42120474Y-24053480D02*
X42215712Y-24101099D01*
X42215712Y-24101099D02*
X42310950Y-24101099D01*
X42310950Y-24101099D02*
X42406188Y-24053480D01*
X42406188Y-24053480D02*
X42453807Y-24005860D01*
X42453807Y-24005860D02*
X42501426Y-23910622D01*
X42501426Y-23910622D02*
X42549045Y-23720146D01*
X42549045Y-23720146D02*
X42549045Y-23482051D01*
X42549045Y-23482051D02*
X42501426Y-23291575D01*
X42501426Y-23291575D02*
X42453807Y-23196337D01*
X42453807Y-23196337D02*
X42406188Y-23148718D01*
X42406188Y-23148718D02*
X42310950Y-23101099D01*
X41549045Y-24005860D02*
X41501426Y-24053480D01*
X41501426Y-24053480D02*
X41549045Y-24101099D01*
X41549045Y-24101099D02*
X41596664Y-24053480D01*
X41596664Y-24053480D02*
X41549045Y-24005860D01*
X41549045Y-24005860D02*
X41549045Y-24101099D01*
X41168093Y-23101099D02*
X40501427Y-23101099D01*
X40501427Y-23101099D02*
X40929998Y-24101099D01*
D11*
X10181200Y-19051064D02*
X10219295Y-19165350D01*
X10219295Y-19165350D02*
X10219295Y-19355826D01*
X10219295Y-19355826D02*
X10181200Y-19432017D01*
X10181200Y-19432017D02*
X10143104Y-19470112D01*
X10143104Y-19470112D02*
X10066914Y-19508207D01*
X10066914Y-19508207D02*
X9990723Y-19508207D01*
X9990723Y-19508207D02*
X9914533Y-19470112D01*
X9914533Y-19470112D02*
X9876438Y-19432017D01*
X9876438Y-19432017D02*
X9838342Y-19355826D01*
X9838342Y-19355826D02*
X9800247Y-19203445D01*
X9800247Y-19203445D02*
X9762152Y-19127255D01*
X9762152Y-19127255D02*
X9724057Y-19089160D01*
X9724057Y-19089160D02*
X9647866Y-19051064D01*
X9647866Y-19051064D02*
X9571676Y-19051064D01*
X9571676Y-19051064D02*
X9495485Y-19089160D01*
X9495485Y-19089160D02*
X9457390Y-19127255D01*
X9457390Y-19127255D02*
X9419295Y-19203445D01*
X9419295Y-19203445D02*
X9419295Y-19393922D01*
X9419295Y-19393922D02*
X9457390Y-19508207D01*
X9419295Y-19774874D02*
X10219295Y-19965350D01*
X10219295Y-19965350D02*
X9647866Y-20117731D01*
X9647866Y-20117731D02*
X10219295Y-20270112D01*
X10219295Y-20270112D02*
X9419295Y-20460589D01*
X10219295Y-20765351D02*
X9419295Y-20765351D01*
X9419295Y-20765351D02*
X9419295Y-20955827D01*
X9419295Y-20955827D02*
X9457390Y-21070113D01*
X9457390Y-21070113D02*
X9533580Y-21146303D01*
X9533580Y-21146303D02*
X9609771Y-21184398D01*
X9609771Y-21184398D02*
X9762152Y-21222494D01*
X9762152Y-21222494D02*
X9876438Y-21222494D01*
X9876438Y-21222494D02*
X10028819Y-21184398D01*
X10028819Y-21184398D02*
X10105009Y-21146303D01*
X10105009Y-21146303D02*
X10181200Y-21070113D01*
X10181200Y-21070113D02*
X10219295Y-20955827D01*
X10219295Y-20955827D02*
X10219295Y-20765351D01*
X10219295Y-21565351D02*
X9419295Y-21565351D01*
X9419295Y-22098684D02*
X9419295Y-22251065D01*
X9419295Y-22251065D02*
X9457390Y-22327255D01*
X9457390Y-22327255D02*
X9533580Y-22403446D01*
X9533580Y-22403446D02*
X9685961Y-22441541D01*
X9685961Y-22441541D02*
X9952628Y-22441541D01*
X9952628Y-22441541D02*
X10105009Y-22403446D01*
X10105009Y-22403446D02*
X10181200Y-22327255D01*
X10181200Y-22327255D02*
X10219295Y-22251065D01*
X10219295Y-22251065D02*
X10219295Y-22098684D01*
X10219295Y-22098684D02*
X10181200Y-22022493D01*
X10181200Y-22022493D02*
X10105009Y-21946303D01*
X10105009Y-21946303D02*
X9952628Y-21908207D01*
X9952628Y-21908207D02*
X9685961Y-21908207D01*
X9685961Y-21908207D02*
X9533580Y-21946303D01*
X9533580Y-21946303D02*
X9457390Y-22022493D01*
X9457390Y-22022493D02*
X9419295Y-22098684D01*
X12218104Y-20971303D02*
X12256200Y-20933207D01*
X12256200Y-20933207D02*
X12294295Y-20818922D01*
X12294295Y-20818922D02*
X12294295Y-20742731D01*
X12294295Y-20742731D02*
X12256200Y-20628445D01*
X12256200Y-20628445D02*
X12180009Y-20552255D01*
X12180009Y-20552255D02*
X12103819Y-20514160D01*
X12103819Y-20514160D02*
X11951438Y-20476064D01*
X11951438Y-20476064D02*
X11837152Y-20476064D01*
X11837152Y-20476064D02*
X11684771Y-20514160D01*
X11684771Y-20514160D02*
X11608580Y-20552255D01*
X11608580Y-20552255D02*
X11532390Y-20628445D01*
X11532390Y-20628445D02*
X11494295Y-20742731D01*
X11494295Y-20742731D02*
X11494295Y-20818922D01*
X11494295Y-20818922D02*
X11532390Y-20933207D01*
X11532390Y-20933207D02*
X11570485Y-20971303D01*
X12294295Y-21695112D02*
X12294295Y-21314160D01*
X12294295Y-21314160D02*
X11494295Y-21314160D01*
X12294295Y-21961779D02*
X11494295Y-21961779D01*
X12294295Y-22418922D02*
X11837152Y-22076064D01*
X11494295Y-22418922D02*
X11951438Y-21961779D01*
X7507390Y-20783207D02*
X7469295Y-20707017D01*
X7469295Y-20707017D02*
X7469295Y-20592731D01*
X7469295Y-20592731D02*
X7507390Y-20478445D01*
X7507390Y-20478445D02*
X7583580Y-20402255D01*
X7583580Y-20402255D02*
X7659771Y-20364160D01*
X7659771Y-20364160D02*
X7812152Y-20326064D01*
X7812152Y-20326064D02*
X7926438Y-20326064D01*
X7926438Y-20326064D02*
X8078819Y-20364160D01*
X8078819Y-20364160D02*
X8155009Y-20402255D01*
X8155009Y-20402255D02*
X8231200Y-20478445D01*
X8231200Y-20478445D02*
X8269295Y-20592731D01*
X8269295Y-20592731D02*
X8269295Y-20668922D01*
X8269295Y-20668922D02*
X8231200Y-20783207D01*
X8231200Y-20783207D02*
X8193104Y-20821303D01*
X8193104Y-20821303D02*
X7926438Y-20821303D01*
X7926438Y-20821303D02*
X7926438Y-20668922D01*
X8269295Y-21164160D02*
X7469295Y-21164160D01*
X7469295Y-21164160D02*
X8269295Y-21621303D01*
X8269295Y-21621303D02*
X7469295Y-21621303D01*
X8269295Y-22002255D02*
X7469295Y-22002255D01*
X7469295Y-22002255D02*
X7469295Y-22192731D01*
X7469295Y-22192731D02*
X7507390Y-22307017D01*
X7507390Y-22307017D02*
X7583580Y-22383207D01*
X7583580Y-22383207D02*
X7659771Y-22421302D01*
X7659771Y-22421302D02*
X7812152Y-22459398D01*
X7812152Y-22459398D02*
X7926438Y-22459398D01*
X7926438Y-22459398D02*
X8078819Y-22421302D01*
X8078819Y-22421302D02*
X8155009Y-22383207D01*
X8155009Y-22383207D02*
X8231200Y-22307017D01*
X8231200Y-22307017D02*
X8269295Y-22192731D01*
X8269295Y-22192731D02*
X8269295Y-22002255D01*
X5444295Y-21645112D02*
X5444295Y-21264160D01*
X5444295Y-21264160D02*
X5825247Y-21226064D01*
X5825247Y-21226064D02*
X5787152Y-21264160D01*
X5787152Y-21264160D02*
X5749057Y-21340350D01*
X5749057Y-21340350D02*
X5749057Y-21530826D01*
X5749057Y-21530826D02*
X5787152Y-21607017D01*
X5787152Y-21607017D02*
X5825247Y-21645112D01*
X5825247Y-21645112D02*
X5901438Y-21683207D01*
X5901438Y-21683207D02*
X6091914Y-21683207D01*
X6091914Y-21683207D02*
X6168104Y-21645112D01*
X6168104Y-21645112D02*
X6206200Y-21607017D01*
X6206200Y-21607017D02*
X6244295Y-21530826D01*
X6244295Y-21530826D02*
X6244295Y-21340350D01*
X6244295Y-21340350D02*
X6206200Y-21264160D01*
X6206200Y-21264160D02*
X6168104Y-21226064D01*
X5444295Y-21911779D02*
X6244295Y-22178446D01*
X6244295Y-22178446D02*
X5444295Y-22445112D01*
D12*
X27350000Y-1900000D03*
X27350000Y-3400000D03*
X27350000Y-4900000D03*
X28850000Y-1900000D03*
X28850000Y-3400000D03*
X28850000Y-4900000D03*
D13*
X51500000Y-22500000D03*
X21100000Y-3600000D03*
X17600000Y-3600000D03*
X5850000Y-23600000D03*
X7850000Y-23600000D03*
X9850000Y-23600000D03*
X11850000Y-23600000D03*
X2500000Y-2500000D03*
X51500000Y-2550000D03*
X2500000Y-22500000D03*
X12800000Y-3600000D03*
X9300000Y-3600000D03*
M02*
