M48
; DRILL file {KiCad 8.0.8} date 2025-07-09T11:23:43+0100
; FORMAT={-:-/ absolute / inch / decimal}
; #@! TF.CreationDate,2025-07-09T11:23:43+01:00
; #@! TF.GenerationSoftware,Kicad,Pcbnew,8.0.8
; #@! TF.FileFunction,Plated,1,2,PTH
FMAT,2
INCH
; #@! TA.AperFunction,Plated,PTH,ViaDrill
T1C0.0118
; #@! TA.AperFunction,Plated,PTH,ComponentDrill
T2C0.0118
; #@! TA.AperFunction,Plated,PTH,ComponentDrill
T3C0.0295
; #@! TA.AperFunction,Plated,PTH,ComponentDrill
T4C0.0472
%
G90
G05
T1
X0.0453Y-0.6634
X0.1083Y-0.4862
X0.1102Y-0.3484
X0.1161Y-0.6063
X0.1201Y-0.5453
X0.1535Y-0.502
X0.1575Y-0.4311
X0.1831Y-0.7913
X0.2461Y-0.1831
X0.2717Y-0.6845
X0.3071Y-0.5866
X0.311Y-0.063
X0.3159Y-0.2421
X0.3159Y-0.4421
X0.3169Y-0.4972
X0.4803Y-0.6417
X0.5531Y-0.935
X0.5945Y-0.1457
X0.5945Y-0.5669
X0.687Y-0.874
X0.7303Y-0.2323
X0.7736Y-0.3425
X0.7736Y-0.4577
X0.7776Y-0.2402
X0.8307Y-0.0354
X0.8839Y-0.8799
X0.9035Y-0.3425
X0.9035Y-0.4577
X0.9232Y-0.0935
X0.9331Y-0.0433
X0.9508Y-0.2953
X1.0059Y-0.4567
X1.0768Y-0.2815
X1.0787Y-0.876
X1.2382Y-0.4646
X1.2455Y-0.2549
X1.2776Y-0.3839
X1.2776Y-0.8799
X1.3406Y-0.5
X1.3671Y-0.1368
X1.374Y-0.3524
X1.4075Y-0.1004
X1.4488Y-0.4803
X1.5079Y-0.2185
X1.5079Y-0.3917
X1.5709Y-0.8917
X1.5768Y-0.3071
X1.5984Y-0.0256
X1.6516Y-0.3819
X1.6575Y-0.2205
X1.7874Y-0.1437
X1.8084Y-0.5683
X1.813Y-0.5372
X1.8406Y-0.1929
X1.8431Y-0.5005
X1.8488Y-0.5948
X1.8524Y-0.3957
X1.8563Y-0.689
X1.8642Y-0.0748
X1.873Y-0.2421
X1.876Y-0.2913
X1.8937Y-0.8583
X1.9109Y-0.7869
X1.939Y-0.2441
X1.9488Y-0.7283
X1.9567Y-0.3799
X1.9665Y-0.5295
X1.9724Y-0.6004
X1.998Y-0.6299
X2.0118Y-0.3406
X2.0512Y-0.4311
X2.0846Y-0.5079
X2.0925Y-0.7362
T2
X1.0768Y-0.0748
X1.0768Y-0.1339
X1.0768Y-0.1929
X1.1358Y-0.0748
X1.1358Y-0.1339
X1.1358Y-0.1929
T3
X0.2303Y-0.9291
X0.3091Y-0.9291
X0.3878Y-0.9291
X0.4665Y-0.9291
T4
X0.3661Y-0.1417
X0.5039Y-0.1417
X0.6929Y-0.1417
X0.8307Y-0.1417
M30
