%TF.GenerationSoftware,KiCad,Pcbnew,8.0.6-8.0.6-0~ubuntu24.04.1*%
%TF.CreationDate,2024-10-19T13:47:32+01:00*%
%TF.ProjectId,LED,4c45442e-6b69-4636-9164-5f7063625858,rev?*%
%TF.SameCoordinates,Original*%
%TF.FileFunction,Paste,Top*%
%TF.FilePolarity,Positive*%
%FSLAX46Y46*%
G04 Gerber Fmt 4.6, Leading zero omitted, Abs format (unit mm)*
G04 Created by KiCad (PCBNEW 8.0.6-8.0.6-0~ubuntu24.04.1) date 2024-10-19 13:47:32*
%MOMM*%
%LPD*%
G01*
G04 APERTURE LIST*
G04 Aperture macros list*
%AMRoundRect*
0 Rectangle with rounded corners*
0 $1 Rounding radius*
0 $2 $3 $4 $5 $6 $7 $8 $9 X,Y pos of 4 corners*
0 Add a 4 corners polygon primitive as box body*
4,1,4,$2,$3,$4,$5,$6,$7,$8,$9,$2,$3,0*
0 Add four circle primitives for the rounded corners*
1,1,$1+$1,$2,$3*
1,1,$1+$1,$4,$5*
1,1,$1+$1,$6,$7*
1,1,$1+$1,$8,$9*
0 Add four rect primitives between the rounded corners*
20,1,$1+$1,$2,$3,$4,$5,0*
20,1,$1+$1,$4,$5,$6,$7,0*
20,1,$1+$1,$6,$7,$8,$9,0*
20,1,$1+$1,$8,$9,$2,$3,0*%
G04 Aperture macros list end*
%ADD10RoundRect,0.147500X-0.172500X0.147500X-0.172500X-0.147500X0.172500X-0.147500X0.172500X0.147500X0*%
%ADD11R,2.000000X1.600000*%
%ADD12R,1.250000X0.300000*%
%ADD13RoundRect,0.250000X-1.075000X0.375000X-1.075000X-0.375000X1.075000X-0.375000X1.075000X0.375000X0*%
%ADD14RoundRect,0.147500X0.172500X-0.147500X0.172500X0.147500X-0.172500X0.147500X-0.172500X-0.147500X0*%
%ADD15R,1.060000X0.650000*%
%ADD16R,0.800000X0.900000*%
%ADD17RoundRect,0.147500X0.147500X0.172500X-0.147500X0.172500X-0.147500X-0.172500X0.147500X-0.172500X0*%
%ADD18RoundRect,0.100000X0.637500X0.100000X-0.637500X0.100000X-0.637500X-0.100000X0.637500X-0.100000X0*%
G04 APERTURE END LIST*
D10*
%TO.C,C9*%
X17100000Y-21980000D03*
X17100000Y-22950000D03*
%TD*%
D11*
%TO.C,J1*%
X3000000Y-18100000D03*
X3000000Y-6900000D03*
D12*
X5655000Y-8750000D03*
X5655000Y-9250000D03*
X5655000Y-9750000D03*
X5655000Y-10250000D03*
X5655000Y-10750000D03*
X5655000Y-11250000D03*
X5655000Y-11750000D03*
X5655000Y-12250000D03*
X5655000Y-12750000D03*
X5655000Y-13250000D03*
X5655000Y-13750000D03*
X5655000Y-14250000D03*
X5655000Y-14750000D03*
X5655000Y-15250000D03*
X5655000Y-15750000D03*
X5655000Y-16250000D03*
%TD*%
D11*
%TO.C,J3*%
X22000000Y-6900000D03*
X22000000Y-18100000D03*
D12*
X19345000Y-16250000D03*
X19345000Y-15750000D03*
X19345000Y-15250000D03*
X19345000Y-14750000D03*
X19345000Y-14250000D03*
X19345000Y-13750000D03*
X19345000Y-13250000D03*
X19345000Y-12750000D03*
X19345000Y-12250000D03*
X19345000Y-11750000D03*
X19345000Y-11250000D03*
X19345000Y-10750000D03*
X19345000Y-10250000D03*
X19345000Y-9750000D03*
X19345000Y-9250000D03*
X19345000Y-8750000D03*
%TD*%
D13*
%TO.C,C4*%
X4220000Y-1700000D03*
X4220000Y-4500000D03*
%TD*%
D14*
%TO.C,R5*%
X14990000Y-10135000D03*
X14990000Y-9165000D03*
%TD*%
D10*
%TO.C,R7*%
X16150000Y-9135000D03*
X16150000Y-10105000D03*
%TD*%
%TO.C,C8*%
X22100000Y-21115000D03*
X22100000Y-22085000D03*
%TD*%
D15*
%TO.C,U2*%
X20700000Y-22950000D03*
X20700000Y-22000000D03*
X20700000Y-21050000D03*
X18500000Y-21050000D03*
X18500000Y-22950000D03*
%TD*%
D16*
%TO.C,Q3*%
X11300000Y-11430000D03*
X13200000Y-11430000D03*
X12250000Y-9430000D03*
%TD*%
D17*
%TO.C,R2*%
X8485000Y-15275000D03*
X7515000Y-15275000D03*
%TD*%
D18*
%TO.C,U3*%
X15900000Y-19425000D03*
X15900000Y-18775000D03*
X15900000Y-18125000D03*
X15900000Y-17475000D03*
X15900000Y-16825000D03*
X15900000Y-16175000D03*
X15900000Y-15525000D03*
X15900000Y-14875000D03*
X15900000Y-14225000D03*
X15900000Y-13575000D03*
X10175000Y-13575000D03*
X10175000Y-14225000D03*
X10175000Y-14875000D03*
X10175000Y-15525000D03*
X10175000Y-16175000D03*
X10175000Y-16825000D03*
X10175000Y-17475000D03*
X10175000Y-18125000D03*
X10175000Y-18775000D03*
X10175000Y-19425000D03*
%TD*%
D17*
%TO.C,R3*%
X8485000Y-13175000D03*
X7515000Y-13175000D03*
%TD*%
D14*
%TO.C,C2*%
X17750000Y-18145000D03*
X17750000Y-17175000D03*
%TD*%
D17*
%TO.C,R4*%
X8475000Y-14225000D03*
X7505000Y-14225000D03*
%TD*%
D14*
%TO.C,R1*%
X17525000Y-12310000D03*
X17525000Y-11340000D03*
%TD*%
D10*
%TO.C,C1*%
X17750000Y-15165000D03*
X17750000Y-16135000D03*
%TD*%
M02*
