M48
; DRILL file {KiCad 8.0.6-8.0.6-0~ubuntu24.04.1} date 2024-10-19T13:47:32+0100
; FORMAT={-:-/ absolute / inch / decimal}
; #@! TF.CreationDate,2024-10-19T13:47:32+01:00
; #@! TF.GenerationSoftware,Kicad,Pcbnew,8.0.6-8.0.6-0~ubuntu24.04.1
; #@! TF.FileFunction,Plated,1,4,PTH
FMAT,2
INCH
; #@! TA.AperFunction,Plated,PTH,ViaDrill
T1C0.0118
; #@! TA.AperFunction,Plated,PTH,ComponentDrill
T2C0.0276
; #@! TA.AperFunction,Plated,PTH,ComponentDrill
T3C0.0472
%
G90
G05
T1
X0.065Y-0.6181
X0.0817Y-0.1791
X0.0955Y-0.4026
X0.1053Y-0.501
X0.1073Y-0.3297
X0.1122Y-0.4577
X0.1152Y-0.5463
X0.1378Y-0.5856
X0.1457Y-0.4222
X0.1575Y-0.501
X0.1663Y-0.125
X0.1693Y-0.5787
X0.2283Y-0.8337
X0.2352Y-0.2402
X0.2717Y-0.0276
X0.3287Y-0.6624
X0.3573Y-0.3711
X0.4646Y-0.815
X0.4724Y-0.3248
X0.4783Y-0.622
X0.5Y-0.0364
X0.56Y-0.625
X0.5827Y-0.3002
X0.6201Y-0.8209
X0.6319Y-0.9094
X0.6841Y-0.4075
X0.7215Y-0.7766
X0.7333Y-0.0541
X0.8248Y-0.3996
X0.8297Y-0.5906
X0.8348Y-0.5453
X0.8425Y-0.4587
X0.8533Y-0.628
X0.8661Y-0.5679
X0.8701Y-0.5049
X0.877Y-0.4577
X0.9134Y-0.8691
X0.9341Y-0.2175
X0.9439Y-0.6575
T2
X0.2736Y-0.9154
X0.3524Y-0.9154
X0.4311Y-0.9154
X0.5098Y-0.9154
T3
X0.3553Y-0.1703
X0.4931Y-0.1703
X0.6309Y-0.1703
M30
