%TF.GenerationSoftware,KiCad,Pcbnew,8.0.8*%
%TF.CreationDate,2025-06-12T10:34:06+01:00*%
%TF.ProjectId,Speaker,53706561-6b65-4722-9e6b-696361645f70,rev?*%
%TF.SameCoordinates,Original*%
%TF.FileFunction,Copper,L1,Top*%
%TF.FilePolarity,Positive*%
%FSLAX46Y46*%
G04 Gerber Fmt 4.6, Leading zero omitted, Abs format (unit mm)*
G04 Created by KiCad (PCBNEW 8.0.8) date 2025-06-12 10:34:06*
%MOMM*%
%LPD*%
G01*
G04 APERTURE LIST*
G04 Aperture macros list*
%AMRoundRect*
0 Rectangle with rounded corners*
0 $1 Rounding radius*
0 $2 $3 $4 $5 $6 $7 $8 $9 X,Y pos of 4 corners*
0 Add a 4 corners polygon primitive as box body*
4,1,4,$2,$3,$4,$5,$6,$7,$8,$9,$2,$3,0*
0 Add four circle primitives for the rounded corners*
1,1,$1+$1,$2,$3*
1,1,$1+$1,$4,$5*
1,1,$1+$1,$6,$7*
1,1,$1+$1,$8,$9*
0 Add four rect primitives between the rounded corners*
20,1,$1+$1,$2,$3,$4,$5,0*
20,1,$1+$1,$4,$5,$6,$7,0*
20,1,$1+$1,$6,$7,$8,$9,0*
20,1,$1+$1,$8,$9,$2,$3,0*%
G04 Aperture macros list end*
%TA.AperFunction,SMDPad,CuDef*%
%ADD10R,2.000000X1.600000*%
%TD*%
%TA.AperFunction,SMDPad,CuDef*%
%ADD11R,1.250000X0.300000*%
%TD*%
%TA.AperFunction,ComponentPad*%
%ADD12R,1.350000X1.350000*%
%TD*%
%TA.AperFunction,ComponentPad*%
%ADD13O,1.350000X1.350000*%
%TD*%
%TA.AperFunction,SMDPad,CuDef*%
%ADD14RoundRect,0.200000X-0.200000X-0.600000X0.200000X-0.600000X0.200000X0.600000X-0.200000X0.600000X0*%
%TD*%
%TA.AperFunction,SMDPad,CuDef*%
%ADD15RoundRect,0.250001X-0.799999X-1.249999X0.799999X-1.249999X0.799999X1.249999X-0.799999X1.249999X0*%
%TD*%
%TA.AperFunction,ComponentPad*%
%ADD16C,1.400000*%
%TD*%
%TA.AperFunction,ViaPad*%
%ADD17C,0.600000*%
%TD*%
%TA.AperFunction,Conductor*%
%ADD18C,0.200000*%
%TD*%
%ADD19C,0.300000*%
%ADD20C,0.350000*%
G04 APERTURE END LIST*
D10*
%TO.P,J12,*%
%TO.N,*%
X3645000Y-18100000D03*
X3645000Y-6900000D03*
D11*
%TO.P,J12,1,1*%
%TO.N,GND*%
X6300000Y-8750000D03*
%TO.P,J12,2,2*%
%TO.N,5V*%
X6300000Y-9250000D03*
%TO.P,J12,3,3*%
X6300000Y-9750000D03*
%TO.P,J12,4,4*%
%TO.N,GND*%
X6300000Y-10250000D03*
%TO.P,J12,5,5*%
%TO.N,PS*%
X6300000Y-10750000D03*
%TO.P,J12,6,6*%
%TO.N,GND*%
X6300000Y-11250000D03*
%TO.P,J12,7,7*%
%TO.N,SCLK*%
X6300000Y-11750000D03*
%TO.P,J12,8,8*%
%TO.N,GND*%
X6300000Y-12250000D03*
%TO.P,J12,9,9*%
%TO.N,MISO*%
X6300000Y-12750000D03*
%TO.P,J12,10,10*%
%TO.N,GND*%
X6300000Y-13250000D03*
%TO.P,J12,11,11*%
%TO.N,MOSI*%
X6300000Y-13750000D03*
%TO.P,J12,12,12*%
%TO.N,Interrupt5V*%
X6300000Y-14250000D03*
%TO.P,J12,13,13*%
%TO.N,GND*%
X6300000Y-14750000D03*
%TO.P,J12,14,14*%
%TO.N,5V*%
X6300000Y-15250000D03*
%TO.P,J12,15,15*%
X6300000Y-15750000D03*
%TO.P,J12,16,16*%
%TO.N,GND*%
X6300000Y-16250000D03*
%TD*%
D10*
%TO.P,J13,*%
%TO.N,*%
X50900000Y-6900000D03*
X50900000Y-18100000D03*
D11*
%TO.P,J13,1,1*%
%TO.N,GND*%
X48245000Y-16250000D03*
%TO.P,J13,2,2*%
%TO.N,5V*%
X48245000Y-15750000D03*
%TO.P,J13,3,3*%
X48245000Y-15250000D03*
%TO.P,J13,4,4*%
%TO.N,GND*%
X48245000Y-14750000D03*
%TO.P,J13,5,5*%
%TO.N,PS*%
X48245000Y-14250000D03*
%TO.P,J13,6,6*%
%TO.N,GND*%
X48245000Y-13750000D03*
%TO.P,J13,7,7*%
%TO.N,SCLK*%
X48245000Y-13250000D03*
%TO.P,J13,8,8*%
%TO.N,GND*%
X48245000Y-12750000D03*
%TO.P,J13,9,9*%
%TO.N,MISO*%
X48245000Y-12250000D03*
%TO.P,J13,10,10*%
%TO.N,GND*%
X48245000Y-11750000D03*
%TO.P,J13,11,11*%
%TO.N,MOSI*%
X48245000Y-11250000D03*
%TO.P,J13,12,12*%
%TO.N,Interrupt5V*%
X48245000Y-10750000D03*
%TO.P,J13,13,13*%
%TO.N,GND*%
X48245000Y-10250000D03*
%TO.P,J13,14,14*%
%TO.N,5V*%
X48245000Y-9750000D03*
%TO.P,J13,15,15*%
X48245000Y-9250000D03*
%TO.P,J13,16,16*%
%TO.N,GND*%
X48245000Y-8750000D03*
%TD*%
D12*
%TO.P,J4,1,Pin_1*%
%TO.N,5V*%
X5850000Y-23600000D03*
D13*
%TO.P,J4,2,Pin_2*%
%TO.N,GND*%
X7850000Y-23600000D03*
%TO.P,J4,3,Pin_3*%
%TO.N,SWDIO*%
X9850000Y-23600000D03*
%TO.P,J4,4,Pin_4*%
%TO.N,SWDCLK*%
X11850000Y-23600000D03*
%TD*%
D14*
%TO.P,J2,1,Pin_1*%
%TO.N,OUT2*%
X11730000Y-1630000D03*
%TO.P,J2,2,Pin_2*%
%TO.N,OUT1*%
X12980000Y-1630000D03*
D15*
%TO.P,J2,MP*%
%TO.N,N/C*%
X15530000Y-4530000D03*
X9180000Y-4530000D03*
%TD*%
D16*
%TO.P,TP1,1,1*%
%TO.N,OUT1*%
X20080000Y-2390000D03*
%TO.P,TP1,2,2*%
%TO.N,OUT2*%
X22620000Y-2390000D03*
%TD*%
D17*
%TO.N,VDD*%
X20630000Y-16550000D03*
X25400000Y-16320000D03*
%TO.N,GND*%
X47350000Y-2150000D03*
X18000000Y-6750000D03*
X25150000Y-15340000D03*
X40250000Y-17250000D03*
X45660000Y-4210000D03*
X24330000Y-3450000D03*
X48460000Y-22940000D03*
X44000000Y-6080000D03*
X21500000Y-12500000D03*
X51150000Y-15710000D03*
X22040000Y-6960000D03*
X25700000Y-9230000D03*
X51400000Y-8580000D03*
X41250000Y-11750000D03*
X14580000Y-17050000D03*
X31890000Y-16530000D03*
X17320000Y-15430000D03*
X35050000Y-5290000D03*
X11240000Y-11810000D03*
X19250000Y-11750000D03*
X29410000Y-7970000D03*
X28630000Y-3510000D03*
X30540000Y-15260000D03*
X44670000Y-20420000D03*
X2920000Y-15610000D03*
X32750000Y-3250000D03*
X15250000Y-12500000D03*
X26920000Y-5480000D03*
X23730000Y-5310000D03*
X29850000Y-19190000D03*
X47010000Y-17460000D03*
X6670000Y-3710000D03*
X34300000Y-10920000D03*
X35030000Y-19930000D03*
X6500000Y-17500000D03*
X31875000Y-6360000D03*
X42500000Y-14750000D03*
X36890000Y-16250000D03*
X16250000Y-9500000D03*
X47240000Y-21500000D03*
X34350000Y-6860000D03*
X43040000Y-21890000D03*
X11810000Y-6610000D03*
X26240000Y-19350000D03*
X13905000Y-23795000D03*
X12750000Y-4750000D03*
X3990000Y-9220000D03*
X3760000Y-13280000D03*
X7850000Y-15040000D03*
X36680000Y-11900000D03*
%TO.N,5V*%
X27920000Y-5290000D03*
X41250000Y-7250000D03*
X41250000Y-13000000D03*
X19000000Y-6000000D03*
X9920000Y-9770000D03*
X4740000Y-15480000D03*
X45660000Y-6240000D03*
%TO.N,MOSI*%
X45960000Y-19080000D03*
X25150000Y-18880000D03*
X25370000Y-24200000D03*
X6420000Y-18820000D03*
X45614044Y-11209389D03*
%TO.N,MISO*%
X21550000Y-18970000D03*
X45385000Y-17625000D03*
X42000000Y-17000000D03*
X4800000Y-12690000D03*
X21700000Y-22910000D03*
X43630000Y-19380000D03*
%TO.N,SCLK*%
X8223235Y-12630000D03*
X23690000Y-21870000D03*
X23520000Y-18970000D03*
X45980000Y-14250000D03*
%TO.N,PS*%
X44630000Y-14980000D03*
X9860000Y-11280000D03*
%TO.N,SWDIO*%
X18600000Y-19290000D03*
%TO.N,SWDCLK*%
X20060000Y-20270000D03*
%TO.N,FILTER*%
X25100000Y-7430000D03*
X26404743Y-7025257D03*
%TO.N,SD_MAX*%
X31570000Y-13610000D03*
X31400000Y-10340000D03*
%TO.N,Interrupt5V*%
X45500000Y-10000000D03*
%TO.N,OUT2*%
X13440000Y-3540000D03*
%TO.N,OUT1*%
X11995000Y-10775000D03*
X15750000Y-7250000D03*
%TD*%
D18*
%TO.N,VDD*%
X20630000Y-16550000D02*
X25170000Y-16550000D01*
X25170000Y-16550000D02*
X25400000Y-16320000D01*
%TO.N,GND*%
X6300000Y-14750000D02*
X7560000Y-14750000D01*
X48245000Y-14750000D02*
X49120000Y-14750000D01*
X6300000Y-13250000D02*
X6260000Y-13290000D01*
X5425000Y-10250000D02*
X5290000Y-10115000D01*
X45136471Y-18225000D02*
X46245000Y-18225000D01*
X49740000Y-10590000D02*
X49400000Y-10250000D01*
X5425000Y-12250000D02*
X5375000Y-12200000D01*
X49670000Y-12750000D02*
X49740000Y-12680000D01*
X5290000Y-11115000D02*
X5290000Y-10115000D01*
X49400000Y-10250000D02*
X48245000Y-10250000D01*
X49740000Y-12680000D02*
X49740000Y-11780000D01*
X5375000Y-11300000D02*
X5425000Y-11250000D01*
X6260000Y-13290000D02*
X3770000Y-13290000D01*
X5425000Y-11250000D02*
X5290000Y-11115000D01*
X43630000Y-13994314D02*
X43630000Y-16718529D01*
X49630000Y-13750000D02*
X49740000Y-13640000D01*
X48245000Y-13750000D02*
X49630000Y-13750000D01*
X49710000Y-11750000D02*
X49740000Y-11780000D01*
X5290000Y-10115000D02*
X5290000Y-8885000D01*
X6300000Y-12250000D02*
X5425000Y-12250000D01*
X43630000Y-16718529D02*
X45136471Y-18225000D01*
X6300000Y-17100000D02*
X6260000Y-17140000D01*
X49740000Y-13640000D02*
X49740000Y-12680000D01*
X48245000Y-11750000D02*
X49710000Y-11750000D01*
X5290000Y-8885000D02*
X5425000Y-8750000D01*
X6300000Y-10250000D02*
X5425000Y-10250000D01*
X48245000Y-12750000D02*
X49670000Y-12750000D01*
X45874314Y-11750000D02*
X43630000Y-13994314D01*
X7560000Y-14750000D02*
X7850000Y-15040000D01*
X3770000Y-13290000D02*
X3760000Y-13280000D01*
X6300000Y-16250000D02*
X6300000Y-17100000D01*
X49740000Y-14130000D02*
X49740000Y-13640000D01*
X49120000Y-14750000D02*
X49740000Y-14130000D01*
X6300000Y-11250000D02*
X5425000Y-11250000D01*
X5375000Y-12200000D02*
X5375000Y-11300000D01*
X48245000Y-11750000D02*
X45874314Y-11750000D01*
X5425000Y-8750000D02*
X6300000Y-8750000D01*
X46245000Y-18225000D02*
X47010000Y-17460000D01*
X49740000Y-11780000D02*
X49740000Y-10590000D01*
%TO.N,5V*%
X50140000Y-10424314D02*
X49465686Y-9750000D01*
X41250000Y-7250000D02*
X41850000Y-7850000D01*
X4970000Y-15250000D02*
X4740000Y-15480000D01*
X49465686Y-9750000D02*
X48245000Y-9750000D01*
X5010000Y-15750000D02*
X4740000Y-15480000D01*
X49210000Y-15750000D02*
X49250000Y-15710000D01*
X27920000Y-5290000D02*
X27920000Y-4500000D01*
X47540000Y-9750000D02*
X47280000Y-9490000D01*
X27950000Y-4470000D02*
X22700000Y-4470000D01*
X42470000Y-4470000D02*
X27950000Y-4470000D01*
X9222500Y-9072500D02*
X9920000Y-9770000D01*
X49250000Y-15710000D02*
X49227843Y-15687843D01*
X42470000Y-4470000D02*
X43890000Y-4470000D01*
X49185686Y-15250000D02*
X49227843Y-15207843D01*
X22700000Y-4470000D02*
X21170000Y-6000000D01*
X6300000Y-9750000D02*
X7070000Y-9750000D01*
X49227843Y-15207843D02*
X50140000Y-14295686D01*
X48245000Y-9250000D02*
X47370000Y-9250000D01*
X7352500Y-9372500D02*
X7352500Y-9072500D01*
X7352500Y-9072500D02*
X9222500Y-9072500D01*
X43890000Y-4470000D02*
X45660000Y-6240000D01*
X6300000Y-15250000D02*
X4970000Y-15250000D01*
X6300000Y-15750000D02*
X5010000Y-15750000D01*
X21170000Y-6000000D02*
X19000000Y-6000000D01*
X45660000Y-7540000D02*
X45660000Y-6240000D01*
X48245000Y-15750000D02*
X49210000Y-15750000D01*
X7070000Y-9750000D02*
X7400000Y-9420000D01*
X47370000Y-9250000D02*
X45660000Y-7540000D01*
X47280000Y-9490000D02*
X47280000Y-9380000D01*
X47280000Y-9380000D02*
X47370000Y-9290000D01*
X7175000Y-9250000D02*
X7352500Y-9072500D01*
X41850000Y-7850000D02*
X41850000Y-12400000D01*
X48245000Y-9750000D02*
X47540000Y-9750000D01*
X49227843Y-15687843D02*
X49227843Y-15207843D01*
X6300000Y-9250000D02*
X7175000Y-9250000D01*
X47370000Y-9290000D02*
X47370000Y-9250000D01*
X7400000Y-9420000D02*
X7352500Y-9372500D01*
X48245000Y-15250000D02*
X49185686Y-15250000D01*
X27920000Y-4500000D02*
X27950000Y-4470000D01*
X41850000Y-12400000D02*
X41250000Y-13000000D01*
X50140000Y-14295686D02*
X50140000Y-10424314D01*
%TO.N,MOSI*%
X5020000Y-13750000D02*
X4140000Y-14630000D01*
X45768017Y-11209389D02*
X45614044Y-11209389D01*
X45400000Y-19080000D02*
X45960000Y-19080000D01*
X43860000Y-17540000D02*
X45400000Y-19080000D01*
X4685000Y-16690000D02*
X5375000Y-17380000D01*
X4140000Y-14630000D02*
X4140000Y-16600000D01*
X48245000Y-11250000D02*
X45808628Y-11250000D01*
X5375000Y-17380000D02*
X5375000Y-17775000D01*
X45808628Y-11250000D02*
X45768017Y-11209389D01*
X25150000Y-18880000D02*
X25150000Y-23980000D01*
X45808628Y-11250000D02*
X43230000Y-13828628D01*
X5375000Y-17775000D02*
X6420000Y-18820000D01*
X25150000Y-23980000D02*
X25370000Y-24200000D01*
X4230000Y-16690000D02*
X4685000Y-16690000D01*
X43230000Y-13828628D02*
X43230000Y-16910000D01*
X6300000Y-13750000D02*
X5020000Y-13750000D01*
X4140000Y-16600000D02*
X4230000Y-16690000D01*
X43230000Y-16910000D02*
X43860000Y-17540000D01*
%TO.N,MISO*%
X42000000Y-17750000D02*
X43630000Y-19380000D01*
X45940000Y-12250000D02*
X44030000Y-14160000D01*
X4860000Y-12750000D02*
X4800000Y-12690000D01*
X44030000Y-14160000D02*
X44030000Y-16270000D01*
X6300000Y-12750000D02*
X4860000Y-12750000D01*
X21550000Y-22760000D02*
X21700000Y-22910000D01*
X21550000Y-18970000D02*
X21550000Y-22760000D01*
X42000000Y-17000000D02*
X42000000Y-17750000D01*
X48245000Y-12250000D02*
X45940000Y-12250000D01*
X44030000Y-16270000D02*
X45385000Y-17625000D01*
%TO.N,SCLK*%
X6300000Y-11750000D02*
X7343235Y-11750000D01*
X48245000Y-13250000D02*
X46980000Y-13250000D01*
X23520000Y-18970000D02*
X23520000Y-21700000D01*
X7343235Y-11750000D02*
X8223235Y-12630000D01*
X23520000Y-21700000D02*
X23690000Y-21870000D01*
X46980000Y-13250000D02*
X45980000Y-14250000D01*
%TO.N,PS*%
X46228529Y-14850000D02*
X44760000Y-14850000D01*
X44760000Y-14850000D02*
X44630000Y-14980000D01*
X9330000Y-10750000D02*
X9860000Y-11280000D01*
X46828529Y-14250000D02*
X46228529Y-14850000D01*
X48245000Y-14250000D02*
X46828529Y-14250000D01*
X6300000Y-10750000D02*
X9330000Y-10750000D01*
%TO.N,SWDIO*%
X18470000Y-19160000D02*
X18600000Y-19290000D01*
X9850000Y-23600000D02*
X14290000Y-19160000D01*
X17260000Y-19160000D02*
X18470000Y-19160000D01*
X14290000Y-19160000D02*
X17260000Y-19160000D01*
%TO.N,SWDCLK*%
X15560000Y-19890000D02*
X19680000Y-19890000D01*
X19680000Y-19890000D02*
X20060000Y-20270000D01*
X11850000Y-23600000D02*
X15560000Y-19890000D01*
%TO.N,FILTER*%
X26000000Y-7430000D02*
X26404743Y-7025257D01*
X25100000Y-7430000D02*
X26000000Y-7430000D01*
%TO.N,SD_MAX*%
X31400000Y-13440000D02*
X31570000Y-13610000D01*
X31400000Y-10340000D02*
X31400000Y-13440000D01*
%TO.N,Interrupt5V*%
X10100000Y-14250000D02*
X13740000Y-17890000D01*
X38040000Y-17890000D02*
X44590000Y-11340000D01*
X44590000Y-11340000D02*
X44590000Y-10910000D01*
X45500000Y-10250000D02*
X45500000Y-10000000D01*
X6300000Y-14250000D02*
X10100000Y-14250000D01*
X46000000Y-10750000D02*
X45500000Y-10250000D01*
X44590000Y-10910000D02*
X45500000Y-10000000D01*
X13740000Y-17890000D02*
X38040000Y-17890000D01*
X46000000Y-10750000D02*
X48245000Y-10750000D01*
%TO.N,OUT2*%
X13440000Y-3540000D02*
X13440000Y-2760000D01*
X21620000Y-3390000D02*
X22620000Y-2390000D01*
X11730000Y-1630000D02*
X11730000Y-2430000D01*
X13440000Y-2760000D02*
X13410000Y-2730000D01*
X19005786Y-2730000D02*
X19665786Y-3390000D01*
X13410000Y-2730000D02*
X19005786Y-2730000D01*
X12030000Y-2730000D02*
X13410000Y-2730000D01*
X11730000Y-2430000D02*
X12030000Y-2730000D01*
X19665786Y-3390000D02*
X21620000Y-3390000D01*
%TO.N,OUT1*%
X11000000Y-847352D02*
X11000000Y-7250000D01*
X12980000Y-830000D02*
X12680000Y-530000D01*
X11000000Y-9350000D02*
X11630000Y-9980000D01*
X11317352Y-530000D02*
X11000000Y-847352D01*
X11630000Y-9980000D02*
X11630000Y-10410000D01*
X11630000Y-10410000D02*
X11995000Y-10775000D01*
X15750000Y-7250000D02*
X11000000Y-7250000D01*
X19320000Y-1630000D02*
X20080000Y-2390000D01*
X12980000Y-1630000D02*
X12980000Y-830000D01*
X11000000Y-7250000D02*
X11000000Y-9350000D01*
X12680000Y-530000D02*
X11317352Y-530000D01*
X12980000Y-1630000D02*
X19320000Y-1630000D01*
%TD*%
%TA.AperFunction,Conductor*%
%TO.N,GND*%
G36*
X11148985Y-119407D02*
G01*
X11184949Y-168907D01*
X11184949Y-230093D01*
X11148985Y-279593D01*
X11140295Y-285236D01*
X11132843Y-289538D01*
X11132840Y-289540D01*
X10759539Y-662841D01*
X10719980Y-731359D01*
X10719978Y-731363D01*
X10699500Y-807787D01*
X10699500Y-9389564D01*
X10719978Y-9465988D01*
X10727047Y-9478231D01*
X10750766Y-9519314D01*
X10756680Y-9529556D01*
X10756681Y-9529562D01*
X10756683Y-9529562D01*
X10759540Y-9534511D01*
X11300505Y-10075476D01*
X11328281Y-10129991D01*
X11329500Y-10145478D01*
X11329500Y-10449564D01*
X11349977Y-10525985D01*
X11349979Y-10525990D01*
X11372783Y-10565488D01*
X11389538Y-10594509D01*
X11389540Y-10594511D01*
X11464453Y-10669425D01*
X11492230Y-10723942D01*
X11492441Y-10753514D01*
X11489354Y-10774997D01*
X11489353Y-10775002D01*
X11509834Y-10917456D01*
X11557473Y-11021769D01*
X11569623Y-11048373D01*
X11646889Y-11137543D01*
X11663873Y-11157144D01*
X11775592Y-11228941D01*
X11784947Y-11234953D01*
X11865193Y-11258515D01*
X11923035Y-11275499D01*
X11923036Y-11275499D01*
X11923039Y-11275500D01*
X11923041Y-11275500D01*
X12066959Y-11275500D01*
X12066961Y-11275500D01*
X12205053Y-11234953D01*
X12326128Y-11157143D01*
X12420377Y-11048373D01*
X12480165Y-10917457D01*
X12494170Y-10820047D01*
X12500647Y-10775002D01*
X12500647Y-10774997D01*
X12480165Y-10632543D01*
X12462795Y-10594509D01*
X12420377Y-10501627D01*
X12326128Y-10392857D01*
X12326127Y-10392856D01*
X12326126Y-10392855D01*
X12243877Y-10339997D01*
X30894353Y-10339997D01*
X30894353Y-10340002D01*
X30914834Y-10482456D01*
X30959497Y-10580252D01*
X30974623Y-10613373D01*
X30999504Y-10642088D01*
X31073509Y-10727494D01*
X31071471Y-10729259D01*
X31096925Y-10771458D01*
X31099500Y-10793893D01*
X31099500Y-13413894D01*
X31090555Y-13455018D01*
X31084834Y-13467545D01*
X31084833Y-13467547D01*
X31064353Y-13609997D01*
X31064353Y-13610002D01*
X31084834Y-13752456D01*
X31137536Y-13867855D01*
X31144623Y-13883373D01*
X31237413Y-13990459D01*
X31238873Y-13992144D01*
X31265939Y-14009538D01*
X31359947Y-14069953D01*
X31466403Y-14101211D01*
X31498035Y-14110499D01*
X31498036Y-14110499D01*
X31498039Y-14110500D01*
X31498041Y-14110500D01*
X31641959Y-14110500D01*
X31641961Y-14110500D01*
X31780053Y-14069953D01*
X31901128Y-13992143D01*
X31995377Y-13883373D01*
X32055165Y-13752457D01*
X32071033Y-13642090D01*
X32075647Y-13610002D01*
X32075647Y-13609997D01*
X32055165Y-13467543D01*
X32033683Y-13420504D01*
X31995377Y-13336627D01*
X31901128Y-13227857D01*
X31901127Y-13227856D01*
X31901126Y-13227855D01*
X31780057Y-13150049D01*
X31780051Y-13150046D01*
X31771604Y-13147566D01*
X31721099Y-13113028D01*
X31700540Y-13055400D01*
X31700500Y-13052577D01*
X31700500Y-10793893D01*
X31719407Y-10735702D01*
X31726741Y-10727711D01*
X31726491Y-10727494D01*
X31731128Y-10722143D01*
X31825377Y-10613373D01*
X31885165Y-10482457D01*
X31897020Y-10400001D01*
X31905647Y-10340002D01*
X31905647Y-10339997D01*
X31885165Y-10197543D01*
X31860006Y-10142454D01*
X31825377Y-10066627D01*
X31731128Y-9957857D01*
X31731127Y-9957856D01*
X31731126Y-9957855D01*
X31610057Y-9880049D01*
X31610054Y-9880047D01*
X31610053Y-9880047D01*
X31610050Y-9880046D01*
X31471964Y-9839500D01*
X31471961Y-9839500D01*
X31328039Y-9839500D01*
X31328035Y-9839500D01*
X31189949Y-9880046D01*
X31189942Y-9880049D01*
X31068873Y-9957855D01*
X30974622Y-10066628D01*
X30914834Y-10197543D01*
X30894353Y-10339997D01*
X12243877Y-10339997D01*
X12205057Y-10315049D01*
X12205054Y-10315047D01*
X12205053Y-10315047D01*
X12205050Y-10315046D01*
X12066964Y-10274500D01*
X12066961Y-10274500D01*
X12029500Y-10274500D01*
X11971309Y-10255593D01*
X11935345Y-10206093D01*
X11930500Y-10175500D01*
X11930500Y-9940437D01*
X11924968Y-9919791D01*
X11924962Y-9919773D01*
X11924956Y-9919748D01*
X11910022Y-9864012D01*
X11906500Y-9857911D01*
X11870463Y-9795493D01*
X11870462Y-9795492D01*
X11870461Y-9795491D01*
X11870460Y-9795489D01*
X11329496Y-9254525D01*
X11301719Y-9200008D01*
X11300500Y-9184521D01*
X11300500Y-7649500D01*
X11319407Y-7591309D01*
X11368907Y-7555345D01*
X11399500Y-7550500D01*
X15302917Y-7550500D01*
X15361108Y-7569407D01*
X15377733Y-7584667D01*
X15418872Y-7632143D01*
X15539947Y-7709953D01*
X15621882Y-7734011D01*
X15678035Y-7750499D01*
X15678036Y-7750499D01*
X15678039Y-7750500D01*
X15678041Y-7750500D01*
X15821959Y-7750500D01*
X15821961Y-7750500D01*
X15960053Y-7709953D01*
X16081128Y-7632143D01*
X16175377Y-7523373D01*
X16218021Y-7429997D01*
X24594353Y-7429997D01*
X24594353Y-7430002D01*
X24614834Y-7572456D01*
X24657321Y-7665487D01*
X24674623Y-7703373D01*
X24767392Y-7810435D01*
X24768873Y-7812144D01*
X24888254Y-7888865D01*
X24889947Y-7889953D01*
X24996403Y-7921211D01*
X25028035Y-7930499D01*
X25028036Y-7930499D01*
X25028039Y-7930500D01*
X25028041Y-7930500D01*
X25171959Y-7930500D01*
X25171961Y-7930500D01*
X25310053Y-7889953D01*
X25431128Y-7812143D01*
X25472264Y-7764668D01*
X25524660Y-7733073D01*
X25547083Y-7730500D01*
X26039563Y-7730500D01*
X26039563Y-7730499D01*
X26115989Y-7710021D01*
X26184511Y-7670460D01*
X26240460Y-7614511D01*
X26300216Y-7554753D01*
X26354732Y-7526976D01*
X26370220Y-7525757D01*
X26476702Y-7525757D01*
X26476704Y-7525757D01*
X26614796Y-7485210D01*
X26735871Y-7407400D01*
X26830120Y-7298630D01*
X26852330Y-7249997D01*
X40744353Y-7249997D01*
X40744353Y-7250002D01*
X40764834Y-7392456D01*
X40781981Y-7430002D01*
X40824623Y-7523373D01*
X40899286Y-7609539D01*
X40918873Y-7632144D01*
X40978496Y-7670461D01*
X41039947Y-7709953D01*
X41121882Y-7734011D01*
X41178035Y-7750499D01*
X41178036Y-7750499D01*
X41178039Y-7750500D01*
X41178041Y-7750500D01*
X41284521Y-7750500D01*
X41342712Y-7769407D01*
X41354525Y-7779496D01*
X41520504Y-7945475D01*
X41548281Y-7999992D01*
X41549500Y-8015479D01*
X41549500Y-12234521D01*
X41530593Y-12292712D01*
X41520504Y-12304524D01*
X41354523Y-12470504D01*
X41300008Y-12498281D01*
X41284521Y-12499500D01*
X41178035Y-12499500D01*
X41039949Y-12540046D01*
X41039942Y-12540049D01*
X40918873Y-12617855D01*
X40824622Y-12726628D01*
X40764834Y-12857543D01*
X40744353Y-12999997D01*
X40744353Y-13000002D01*
X40764834Y-13142456D01*
X40787899Y-13192960D01*
X40824623Y-13273373D01*
X40897877Y-13357913D01*
X40918873Y-13382144D01*
X41032268Y-13455018D01*
X41039947Y-13459953D01*
X41130795Y-13486628D01*
X41178035Y-13500499D01*
X41178036Y-13500499D01*
X41178039Y-13500500D01*
X41178041Y-13500500D01*
X41321959Y-13500500D01*
X41321961Y-13500500D01*
X41460053Y-13459953D01*
X41581128Y-13382143D01*
X41675377Y-13273373D01*
X41735165Y-13142457D01*
X41748088Y-13052577D01*
X41755647Y-13000002D01*
X41755647Y-13000000D01*
X41752558Y-12978518D01*
X41762990Y-12918228D01*
X41780547Y-12894423D01*
X41923556Y-12751415D01*
X42090460Y-12584511D01*
X42092919Y-12580252D01*
X42130021Y-12515989D01*
X42150500Y-12439562D01*
X42150500Y-7810438D01*
X42130021Y-7734011D01*
X42129479Y-7733073D01*
X42090460Y-7665489D01*
X42034511Y-7609539D01*
X42034511Y-7609540D01*
X41780546Y-7355575D01*
X41752769Y-7301058D01*
X41752558Y-7271482D01*
X41755647Y-7250000D01*
X41735165Y-7107543D01*
X41675377Y-6976627D01*
X41581128Y-6867857D01*
X41581127Y-6867856D01*
X41581126Y-6867855D01*
X41460057Y-6790049D01*
X41460054Y-6790047D01*
X41460053Y-6790047D01*
X41460050Y-6790046D01*
X41321964Y-6749500D01*
X41321961Y-6749500D01*
X41178039Y-6749500D01*
X41178035Y-6749500D01*
X41039949Y-6790046D01*
X41039942Y-6790049D01*
X40918873Y-6867855D01*
X40824622Y-6976628D01*
X40764834Y-7107543D01*
X40744353Y-7249997D01*
X26852330Y-7249997D01*
X26889908Y-7167714D01*
X26910390Y-7025257D01*
X26903398Y-6976628D01*
X26889908Y-6882800D01*
X26875157Y-6850500D01*
X26830120Y-6751884D01*
X26735871Y-6643114D01*
X26735870Y-6643113D01*
X26735869Y-6643112D01*
X26614800Y-6565306D01*
X26614797Y-6565304D01*
X26614796Y-6565304D01*
X26614793Y-6565303D01*
X26476707Y-6524757D01*
X26476704Y-6524757D01*
X26332782Y-6524757D01*
X26332778Y-6524757D01*
X26194692Y-6565303D01*
X26194685Y-6565306D01*
X26073616Y-6643112D01*
X25979365Y-6751885D01*
X25919577Y-6882800D01*
X25899096Y-7025254D01*
X25899096Y-7030500D01*
X25880189Y-7088691D01*
X25830689Y-7124655D01*
X25800096Y-7129500D01*
X25547083Y-7129500D01*
X25488892Y-7110593D01*
X25472264Y-7095331D01*
X25431128Y-7047857D01*
X25395957Y-7025254D01*
X25310057Y-6970049D01*
X25310054Y-6970047D01*
X25310053Y-6970047D01*
X25310050Y-6970046D01*
X25171964Y-6929500D01*
X25171961Y-6929500D01*
X25028039Y-6929500D01*
X25028035Y-6929500D01*
X24889949Y-6970046D01*
X24889942Y-6970049D01*
X24768873Y-7047855D01*
X24674622Y-7156628D01*
X24614834Y-7287543D01*
X24594353Y-7429997D01*
X16218021Y-7429997D01*
X16235165Y-7392457D01*
X16248655Y-7298630D01*
X16255647Y-7250002D01*
X16255647Y-7249997D01*
X16235165Y-7107543D01*
X16207906Y-7047855D01*
X16175377Y-6976627D01*
X16081128Y-6867857D01*
X16081127Y-6867856D01*
X16081126Y-6867855D01*
X15960057Y-6790049D01*
X15960054Y-6790047D01*
X15960053Y-6790047D01*
X15960050Y-6790046D01*
X15821964Y-6749500D01*
X15821961Y-6749500D01*
X15678039Y-6749500D01*
X15678035Y-6749500D01*
X15539949Y-6790046D01*
X15539942Y-6790049D01*
X15418876Y-6867854D01*
X15418871Y-6867858D01*
X15377736Y-6915331D01*
X15325340Y-6946927D01*
X15302917Y-6949500D01*
X11399500Y-6949500D01*
X11341309Y-6930593D01*
X11305345Y-6881093D01*
X11300500Y-6850500D01*
X11300500Y-2715056D01*
X11319407Y-2656865D01*
X11368907Y-2620901D01*
X11414983Y-2617275D01*
X11475084Y-2626794D01*
X11529600Y-2654571D01*
X11789540Y-2914511D01*
X11789539Y-2914511D01*
X11845489Y-2970460D01*
X11914007Y-3010019D01*
X11914011Y-3010021D01*
X11990435Y-3030499D01*
X11990437Y-3030500D01*
X11990438Y-3030500D01*
X12069562Y-3030500D01*
X13002448Y-3030500D01*
X13060639Y-3049407D01*
X13096603Y-3098907D01*
X13096603Y-3160093D01*
X13077267Y-3194331D01*
X13014623Y-3266626D01*
X12954834Y-3397543D01*
X12934353Y-3539997D01*
X12934353Y-3540002D01*
X12954834Y-3682456D01*
X12985679Y-3749995D01*
X13014623Y-3813373D01*
X13108872Y-3922143D01*
X13108873Y-3922144D01*
X13229942Y-3999950D01*
X13229947Y-3999953D01*
X13336403Y-4031211D01*
X13368035Y-4040499D01*
X13368036Y-4040499D01*
X13368039Y-4040500D01*
X13368041Y-4040500D01*
X13511959Y-4040500D01*
X13511961Y-4040500D01*
X13650053Y-3999953D01*
X13771128Y-3922143D01*
X13865377Y-3813373D01*
X13925165Y-3682457D01*
X13937020Y-3600001D01*
X13945647Y-3540002D01*
X13945647Y-3539997D01*
X13925165Y-3397543D01*
X13865377Y-3266627D01*
X13802733Y-3194331D01*
X13778915Y-3137972D01*
X13792774Y-3078376D01*
X13839015Y-3038309D01*
X13877552Y-3030500D01*
X14200493Y-3030500D01*
X14258684Y-3049407D01*
X14294648Y-3098907D01*
X14294648Y-3160093D01*
X14293938Y-3162196D01*
X14282353Y-3195304D01*
X14279500Y-3225726D01*
X14279500Y-5834265D01*
X14282353Y-5864694D01*
X14282353Y-5864696D01*
X14282354Y-5864698D01*
X14318020Y-5966627D01*
X14327208Y-5992885D01*
X14407845Y-6102144D01*
X14407847Y-6102146D01*
X14407850Y-6102150D01*
X14407853Y-6102152D01*
X14407855Y-6102154D01*
X14517114Y-6182791D01*
X14517116Y-6182791D01*
X14517118Y-6182793D01*
X14645302Y-6227646D01*
X14675735Y-6230500D01*
X16384264Y-6230499D01*
X16384265Y-6230499D01*
X16390350Y-6229928D01*
X16414698Y-6227646D01*
X16542882Y-6182793D01*
X16652150Y-6102150D01*
X16727542Y-5999997D01*
X18494353Y-5999997D01*
X18494353Y-6000002D01*
X18514834Y-6142456D01*
X18559382Y-6240000D01*
X18574623Y-6273373D01*
X18627736Y-6334669D01*
X18668873Y-6382144D01*
X18789942Y-6459950D01*
X18789947Y-6459953D01*
X18896403Y-6491211D01*
X18928035Y-6500499D01*
X18928036Y-6500499D01*
X18928039Y-6500500D01*
X18928041Y-6500500D01*
X19071959Y-6500500D01*
X19071961Y-6500500D01*
X19210053Y-6459953D01*
X19331128Y-6382143D01*
X19372264Y-6334668D01*
X19424660Y-6303073D01*
X19447083Y-6300500D01*
X21209563Y-6300500D01*
X21209563Y-6300499D01*
X21285989Y-6280021D01*
X21354511Y-6240460D01*
X21410460Y-6184511D01*
X22795475Y-4799496D01*
X22849992Y-4771719D01*
X22865479Y-4770500D01*
X27491113Y-4770500D01*
X27549304Y-4789407D01*
X27585268Y-4838907D01*
X27585268Y-4900093D01*
X27565932Y-4934331D01*
X27494623Y-5016626D01*
X27434834Y-5147543D01*
X27414353Y-5289997D01*
X27414353Y-5290002D01*
X27434834Y-5432456D01*
X27465453Y-5499500D01*
X27494623Y-5563373D01*
X27587452Y-5670504D01*
X27588873Y-5672144D01*
X27709942Y-5749950D01*
X27709947Y-5749953D01*
X27812436Y-5780046D01*
X27848035Y-5790499D01*
X27848036Y-5790499D01*
X27848039Y-5790500D01*
X27848041Y-5790500D01*
X27991959Y-5790500D01*
X27991961Y-5790500D01*
X28130053Y-5749953D01*
X28251128Y-5672143D01*
X28345377Y-5563373D01*
X28405165Y-5432457D01*
X28425647Y-5290000D01*
X28405165Y-5147543D01*
X28345377Y-5016627D01*
X28274068Y-4934331D01*
X28250250Y-4877972D01*
X28264109Y-4818376D01*
X28310350Y-4778309D01*
X28348887Y-4770500D01*
X42430438Y-4770500D01*
X43724521Y-4770500D01*
X43782712Y-4789407D01*
X43794525Y-4799496D01*
X45129453Y-6134424D01*
X45157230Y-6188941D01*
X45157441Y-6218514D01*
X45154354Y-6239997D01*
X45154353Y-6240002D01*
X45174834Y-6382456D01*
X45234623Y-6513373D01*
X45333509Y-6627494D01*
X45331471Y-6629259D01*
X45356925Y-6671458D01*
X45359500Y-6693893D01*
X45359500Y-7579564D01*
X45379976Y-7655982D01*
X45379980Y-7655992D01*
X45385463Y-7665487D01*
X45385464Y-7665490D01*
X45407335Y-7703371D01*
X45419540Y-7724511D01*
X46187647Y-8492618D01*
X46951489Y-9256460D01*
X46979266Y-9310977D01*
X46979639Y-9339381D01*
X46979500Y-9340437D01*
X46979500Y-9529562D01*
X46999978Y-9605988D01*
X47038658Y-9672982D01*
X47038662Y-9672998D01*
X47038666Y-9672997D01*
X47039537Y-9674507D01*
X47039542Y-9674513D01*
X47144234Y-9779206D01*
X47172011Y-9833722D01*
X47166988Y-9883805D01*
X47126403Y-9992618D01*
X47126401Y-9992629D01*
X47120000Y-10052175D01*
X47120000Y-10099999D01*
X47120001Y-10100000D01*
X47590311Y-10100000D01*
X47600012Y-10100476D01*
X47600248Y-10100499D01*
X47600252Y-10100500D01*
X47600256Y-10100500D01*
X48889744Y-10100500D01*
X48889748Y-10100500D01*
X48889751Y-10100499D01*
X48889988Y-10100476D01*
X48899689Y-10100000D01*
X49349707Y-10100000D01*
X49407898Y-10118907D01*
X49419711Y-10128996D01*
X49810504Y-10519789D01*
X49838281Y-10574306D01*
X49839500Y-10589793D01*
X49839500Y-14130207D01*
X49820593Y-14188398D01*
X49810503Y-14200211D01*
X49514493Y-14496220D01*
X49459977Y-14523997D01*
X49399545Y-14514426D01*
X49356280Y-14471161D01*
X49351731Y-14460812D01*
X49313352Y-14357910D01*
X49276984Y-14309329D01*
X49257247Y-14251415D01*
X49275321Y-14192960D01*
X49276984Y-14190671D01*
X49313354Y-14142086D01*
X49363596Y-14007381D01*
X49363598Y-14007370D01*
X49370000Y-13947820D01*
X49370000Y-13900001D01*
X49369999Y-13900000D01*
X48899689Y-13900000D01*
X48889988Y-13899524D01*
X48889751Y-13899500D01*
X48889748Y-13899500D01*
X47600252Y-13899500D01*
X47600248Y-13899500D01*
X47600012Y-13899524D01*
X47590311Y-13900000D01*
X47120001Y-13900000D01*
X47099497Y-13920504D01*
X47044980Y-13948281D01*
X47029493Y-13949500D01*
X46944477Y-13949500D01*
X46886286Y-13930593D01*
X46850322Y-13881093D01*
X46850322Y-13819907D01*
X46874474Y-13780496D01*
X46883724Y-13771247D01*
X47025975Y-13628996D01*
X47080491Y-13601219D01*
X47095978Y-13600000D01*
X47590311Y-13600000D01*
X47600012Y-13600476D01*
X47600248Y-13600499D01*
X47600252Y-13600500D01*
X47600256Y-13600500D01*
X48889744Y-13600500D01*
X48889748Y-13600500D01*
X48889751Y-13600499D01*
X48889988Y-13600476D01*
X48899689Y-13600000D01*
X49369999Y-13600000D01*
X49370000Y-13599999D01*
X49370000Y-13552175D01*
X49363598Y-13492629D01*
X49363596Y-13492618D01*
X49313354Y-13357913D01*
X49276984Y-13309329D01*
X49257247Y-13251415D01*
X49275321Y-13192960D01*
X49276984Y-13190671D01*
X49313354Y-13142086D01*
X49363596Y-13007381D01*
X49363598Y-13007370D01*
X49370000Y-12947821D01*
X49370000Y-12900001D01*
X49369999Y-12900000D01*
X48899689Y-12900000D01*
X48889988Y-12899524D01*
X48889751Y-12899500D01*
X48889748Y-12899500D01*
X47600252Y-12899500D01*
X47600248Y-12899500D01*
X47600012Y-12899524D01*
X47590311Y-12900000D01*
X47120001Y-12900000D01*
X47099497Y-12920504D01*
X47044980Y-12948281D01*
X47029493Y-12949500D01*
X47019562Y-12949500D01*
X46940438Y-12949500D01*
X46893661Y-12962033D01*
X46864007Y-12969979D01*
X46795493Y-13009536D01*
X46795488Y-13009540D01*
X46084523Y-13720504D01*
X46030007Y-13748281D01*
X46014520Y-13749500D01*
X45908035Y-13749500D01*
X45769949Y-13790046D01*
X45769942Y-13790049D01*
X45648873Y-13867855D01*
X45554622Y-13976628D01*
X45494834Y-14107543D01*
X45474353Y-14249997D01*
X45474353Y-14250002D01*
X45494834Y-14392456D01*
X45502560Y-14409373D01*
X45509535Y-14470160D01*
X45479449Y-14523437D01*
X45423793Y-14548855D01*
X45412507Y-14549500D01*
X44914952Y-14549500D01*
X44861429Y-14533784D01*
X44840057Y-14520049D01*
X44840054Y-14520047D01*
X44840053Y-14520047D01*
X44840050Y-14520046D01*
X44701964Y-14479500D01*
X44701961Y-14479500D01*
X44558039Y-14479500D01*
X44558035Y-14479500D01*
X44457391Y-14509052D01*
X44396230Y-14507304D01*
X44347778Y-14469941D01*
X44330500Y-14414062D01*
X44330500Y-14325479D01*
X44349407Y-14267288D01*
X44359496Y-14255475D01*
X46035475Y-12579496D01*
X46089992Y-12551719D01*
X46105479Y-12550500D01*
X47029493Y-12550500D01*
X47087684Y-12569407D01*
X47099497Y-12579496D01*
X47120001Y-12600000D01*
X47590311Y-12600000D01*
X47600012Y-12600476D01*
X47600248Y-12600499D01*
X47600252Y-12600500D01*
X47600256Y-12600500D01*
X48889744Y-12600500D01*
X48889748Y-12600500D01*
X48889751Y-12600499D01*
X48889988Y-12600476D01*
X48899689Y-12600000D01*
X49369999Y-12600000D01*
X49370000Y-12599999D01*
X49370000Y-12552175D01*
X49363598Y-12492629D01*
X49363596Y-12492618D01*
X49313354Y-12357913D01*
X49276984Y-12309329D01*
X49257247Y-12251415D01*
X49275321Y-12192960D01*
X49276984Y-12190671D01*
X49313354Y-12142086D01*
X49363596Y-12007381D01*
X49363598Y-12007370D01*
X49370000Y-11947820D01*
X49370000Y-11900001D01*
X49369999Y-11900000D01*
X48899689Y-11900000D01*
X48889988Y-11899524D01*
X48889751Y-11899500D01*
X48889748Y-11899500D01*
X47600252Y-11899500D01*
X47600248Y-11899500D01*
X47600012Y-11899524D01*
X47590311Y-11900000D01*
X47120001Y-11900000D01*
X47099497Y-11920504D01*
X47044980Y-11948281D01*
X47029493Y-11949500D01*
X45900435Y-11949500D01*
X45824011Y-11969978D01*
X45788539Y-11990459D01*
X45788538Y-11990459D01*
X45755491Y-12009538D01*
X43845489Y-13919540D01*
X43845488Y-13919539D01*
X43789539Y-13975489D01*
X43749980Y-14044007D01*
X43749978Y-14044011D01*
X43729500Y-14120435D01*
X43729500Y-16309564D01*
X43749978Y-16385987D01*
X43777705Y-16434012D01*
X43777704Y-16434012D01*
X43785679Y-16447824D01*
X43789540Y-16454511D01*
X44325529Y-16990500D01*
X44854453Y-17519424D01*
X44882230Y-17573941D01*
X44882441Y-17603514D01*
X44879354Y-17624997D01*
X44879353Y-17625002D01*
X44899834Y-17767456D01*
X44956250Y-17890987D01*
X44959623Y-17898373D01*
X45012599Y-17959511D01*
X45053873Y-18007144D01*
X45158699Y-18074511D01*
X45174947Y-18084953D01*
X45281403Y-18116211D01*
X45313035Y-18125499D01*
X45313036Y-18125499D01*
X45313039Y-18125500D01*
X45313041Y-18125500D01*
X45456959Y-18125500D01*
X45456961Y-18125500D01*
X45595053Y-18084953D01*
X45716128Y-18007143D01*
X45810377Y-17898373D01*
X45870165Y-17767457D01*
X45890647Y-17625000D01*
X45888421Y-17609521D01*
X45870165Y-17482543D01*
X45833302Y-17401826D01*
X45810377Y-17351627D01*
X45748532Y-17280253D01*
X49699500Y-17280253D01*
X49699500Y-18919746D01*
X49699501Y-18919758D01*
X49711132Y-18978227D01*
X49711134Y-18978233D01*
X49740684Y-19022457D01*
X49755448Y-19044552D01*
X49821769Y-19088867D01*
X49866231Y-19097711D01*
X49880241Y-19100498D01*
X49880246Y-19100498D01*
X49880252Y-19100500D01*
X49880253Y-19100500D01*
X51919747Y-19100500D01*
X51919748Y-19100500D01*
X51978231Y-19088867D01*
X52044552Y-19044552D01*
X52088867Y-18978231D01*
X52100500Y-18919748D01*
X52100500Y-17280252D01*
X52088867Y-17221769D01*
X52044552Y-17155448D01*
X52025110Y-17142457D01*
X51978233Y-17111134D01*
X51978231Y-17111133D01*
X51978228Y-17111132D01*
X51978227Y-17111132D01*
X51919758Y-17099501D01*
X51919748Y-17099500D01*
X49880252Y-17099500D01*
X49880251Y-17099500D01*
X49880241Y-17099501D01*
X49821772Y-17111132D01*
X49821766Y-17111134D01*
X49755451Y-17155445D01*
X49755445Y-17155451D01*
X49711134Y-17221766D01*
X49711132Y-17221772D01*
X49699501Y-17280241D01*
X49699500Y-17280253D01*
X45748532Y-17280253D01*
X45716128Y-17242857D01*
X45716127Y-17242856D01*
X45716126Y-17242855D01*
X45595057Y-17165049D01*
X45595054Y-17165047D01*
X45595053Y-17165047D01*
X45595050Y-17165046D01*
X45456964Y-17124500D01*
X45456961Y-17124500D01*
X45350479Y-17124500D01*
X45292288Y-17105593D01*
X45280475Y-17095504D01*
X44632795Y-16447824D01*
X47119999Y-16447824D01*
X47126401Y-16507370D01*
X47126403Y-16507381D01*
X47176646Y-16642088D01*
X47176647Y-16642090D01*
X47262807Y-16757184D01*
X47262815Y-16757192D01*
X47377909Y-16843352D01*
X47377911Y-16843353D01*
X47512618Y-16893596D01*
X47512629Y-16893598D01*
X47572176Y-16900000D01*
X48094999Y-16900000D01*
X48095000Y-16899999D01*
X48095000Y-16400001D01*
X48395000Y-16400001D01*
X48395000Y-16899999D01*
X48395001Y-16900000D01*
X48917824Y-16900000D01*
X48977370Y-16893598D01*
X48977381Y-16893596D01*
X49112088Y-16843353D01*
X49112090Y-16843352D01*
X49227184Y-16757192D01*
X49227192Y-16757184D01*
X49313352Y-16642090D01*
X49313353Y-16642088D01*
X49363596Y-16507381D01*
X49363598Y-16507370D01*
X49370000Y-16447824D01*
X49370000Y-16400001D01*
X49369999Y-16400000D01*
X48395001Y-16400000D01*
X48395000Y-16400001D01*
X48095000Y-16400001D01*
X48094999Y-16400000D01*
X47120001Y-16400000D01*
X47120000Y-16400001D01*
X47120000Y-16447824D01*
X47119999Y-16447824D01*
X44632795Y-16447824D01*
X44359496Y-16174525D01*
X44331719Y-16120008D01*
X44330500Y-16104521D01*
X44330500Y-15545937D01*
X44349407Y-15487746D01*
X44398907Y-15451782D01*
X44457389Y-15450947D01*
X44558039Y-15480500D01*
X44558041Y-15480500D01*
X44701959Y-15480500D01*
X44701961Y-15480500D01*
X44840053Y-15439953D01*
X44961128Y-15362143D01*
X45055377Y-15253373D01*
X45075928Y-15208374D01*
X45117300Y-15163296D01*
X45165981Y-15150500D01*
X46268092Y-15150500D01*
X46268092Y-15150499D01*
X46344518Y-15130021D01*
X46413040Y-15090460D01*
X46468989Y-15034511D01*
X46924004Y-14579496D01*
X46978521Y-14551719D01*
X46994008Y-14550500D01*
X47029493Y-14550500D01*
X47087684Y-14569407D01*
X47099497Y-14579496D01*
X47120001Y-14600000D01*
X47590311Y-14600000D01*
X47600012Y-14600476D01*
X47600248Y-14600499D01*
X47600252Y-14600500D01*
X47600256Y-14600500D01*
X48296000Y-14600500D01*
X48354191Y-14619407D01*
X48390155Y-14668907D01*
X48395000Y-14699500D01*
X48395000Y-14800500D01*
X48376093Y-14858691D01*
X48326593Y-14894655D01*
X48296000Y-14899500D01*
X47600252Y-14899500D01*
X47600248Y-14899500D01*
X47600012Y-14899524D01*
X47590311Y-14900000D01*
X47120001Y-14900000D01*
X47120000Y-14900001D01*
X47120000Y-14947820D01*
X47126401Y-15007370D01*
X47126403Y-15007381D01*
X47176646Y-15142088D01*
X47176647Y-15142090D01*
X47262807Y-15257184D01*
X47262815Y-15257192D01*
X47379829Y-15344788D01*
X47415082Y-15394796D01*
X47418134Y-15414999D01*
X47419024Y-15414912D01*
X47419500Y-15419751D01*
X47431621Y-15480686D01*
X47431621Y-15519314D01*
X47419500Y-15580248D01*
X47419024Y-15585088D01*
X47416610Y-15584850D01*
X47400593Y-15634148D01*
X47379829Y-15655210D01*
X47262815Y-15742807D01*
X47262807Y-15742815D01*
X47176647Y-15857909D01*
X47176646Y-15857911D01*
X47126403Y-15992618D01*
X47126401Y-15992629D01*
X47120000Y-16052175D01*
X47120000Y-16099999D01*
X47120001Y-16100000D01*
X47590311Y-16100000D01*
X47600012Y-16100476D01*
X47600248Y-16100499D01*
X47600252Y-16100500D01*
X47600256Y-16100500D01*
X48889744Y-16100500D01*
X48889748Y-16100500D01*
X48889751Y-16100499D01*
X48889988Y-16100476D01*
X48899689Y-16100000D01*
X49369999Y-16100000D01*
X49370000Y-16099999D01*
X49370000Y-16055978D01*
X49388907Y-15997787D01*
X49398997Y-15985974D01*
X49450461Y-15934511D01*
X49490459Y-15894512D01*
X49490463Y-15894506D01*
X49530020Y-15825992D01*
X49530020Y-15825990D01*
X49530022Y-15825988D01*
X49550500Y-15749562D01*
X49550500Y-15670438D01*
X49531715Y-15600332D01*
X49528343Y-15574713D01*
X49528343Y-15373321D01*
X49547250Y-15315130D01*
X49557333Y-15303323D01*
X50380460Y-14480197D01*
X50392936Y-14458587D01*
X50420021Y-14411675D01*
X50440500Y-14335248D01*
X50440500Y-10384752D01*
X50420021Y-10308325D01*
X50380460Y-10239803D01*
X50370607Y-10229950D01*
X50324511Y-10183853D01*
X50324511Y-10183854D01*
X49650197Y-9509540D01*
X49613735Y-9488489D01*
X49613734Y-9488488D01*
X49613734Y-9488487D01*
X49613732Y-9488487D01*
X49595968Y-9478231D01*
X49581676Y-9469979D01*
X49581674Y-9469978D01*
X49505250Y-9449500D01*
X49505248Y-9449500D01*
X49267739Y-9449500D01*
X49209548Y-9430593D01*
X49173584Y-9381093D01*
X49173584Y-9319907D01*
X49208410Y-9271247D01*
X49227184Y-9257192D01*
X49227192Y-9257184D01*
X49313352Y-9142090D01*
X49313353Y-9142088D01*
X49363596Y-9007381D01*
X49363598Y-9007370D01*
X49370000Y-8947824D01*
X49370000Y-8900001D01*
X49369999Y-8900000D01*
X48899689Y-8900000D01*
X48889988Y-8899524D01*
X48889751Y-8899500D01*
X48889748Y-8899500D01*
X48194000Y-8899500D01*
X48135809Y-8880593D01*
X48099845Y-8831093D01*
X48095000Y-8800500D01*
X48095000Y-8100001D01*
X48395000Y-8100001D01*
X48395000Y-8599999D01*
X48395001Y-8600000D01*
X49369999Y-8600000D01*
X49370000Y-8599999D01*
X49370000Y-8552175D01*
X49363598Y-8492629D01*
X49363596Y-8492618D01*
X49313353Y-8357911D01*
X49313352Y-8357909D01*
X49227192Y-8242815D01*
X49227184Y-8242807D01*
X49112090Y-8156647D01*
X49112088Y-8156646D01*
X48977381Y-8106403D01*
X48977370Y-8106401D01*
X48917824Y-8100000D01*
X48395001Y-8100000D01*
X48395000Y-8100001D01*
X48095000Y-8100001D01*
X48094999Y-8100000D01*
X47572176Y-8100000D01*
X47512629Y-8106401D01*
X47512618Y-8106403D01*
X47377911Y-8156646D01*
X47377909Y-8156647D01*
X47262815Y-8242807D01*
X47262807Y-8242815D01*
X47176647Y-8357908D01*
X47156110Y-8412971D01*
X47118058Y-8460885D01*
X47059111Y-8477282D01*
X47001784Y-8455899D01*
X46993348Y-8448377D01*
X45989496Y-7444525D01*
X45961719Y-7390008D01*
X45960500Y-7374521D01*
X45960500Y-6693893D01*
X45979407Y-6635702D01*
X45986741Y-6627711D01*
X45986491Y-6627494D01*
X45991128Y-6622143D01*
X46085377Y-6513373D01*
X46145165Y-6382457D01*
X46165647Y-6240000D01*
X46164281Y-6230500D01*
X46145165Y-6097543D01*
X46137269Y-6080253D01*
X49699500Y-6080253D01*
X49699500Y-7719746D01*
X49699501Y-7719758D01*
X49711132Y-7778227D01*
X49711134Y-7778233D01*
X49733793Y-7812144D01*
X49755448Y-7844552D01*
X49821769Y-7888867D01*
X49866231Y-7897711D01*
X49880241Y-7900498D01*
X49880246Y-7900498D01*
X49880252Y-7900500D01*
X49880253Y-7900500D01*
X51919747Y-7900500D01*
X51919748Y-7900500D01*
X51978231Y-7888867D01*
X52044552Y-7844552D01*
X52088867Y-7778231D01*
X52100500Y-7719748D01*
X52100500Y-6080252D01*
X52088867Y-6021769D01*
X52044552Y-5955448D01*
X52044548Y-5955445D01*
X51978233Y-5911134D01*
X51978231Y-5911133D01*
X51978228Y-5911132D01*
X51978227Y-5911132D01*
X51919758Y-5899501D01*
X51919748Y-5899500D01*
X49880252Y-5899500D01*
X49880251Y-5899500D01*
X49880241Y-5899501D01*
X49821772Y-5911132D01*
X49821766Y-5911134D01*
X49755451Y-5955445D01*
X49755445Y-5955451D01*
X49711134Y-6021766D01*
X49711132Y-6021772D01*
X49699501Y-6080241D01*
X49699500Y-6080253D01*
X46137269Y-6080253D01*
X46100618Y-6000000D01*
X46085377Y-5966627D01*
X45991128Y-5857857D01*
X45991127Y-5857856D01*
X45991126Y-5857855D01*
X45870057Y-5780049D01*
X45870054Y-5780047D01*
X45870053Y-5780047D01*
X45870050Y-5780046D01*
X45731964Y-5739500D01*
X45731961Y-5739500D01*
X45625479Y-5739500D01*
X45567288Y-5720593D01*
X45555475Y-5710504D01*
X44824980Y-4980009D01*
X44074511Y-4229540D01*
X44074508Y-4229538D01*
X44057950Y-4219978D01*
X44057950Y-4219977D01*
X44005990Y-4189979D01*
X44005985Y-4189977D01*
X43929564Y-4169500D01*
X43929562Y-4169500D01*
X42509562Y-4169500D01*
X27989562Y-4169500D01*
X22739562Y-4169500D01*
X22660438Y-4169500D01*
X22613661Y-4182033D01*
X22584007Y-4189979D01*
X22515493Y-4229536D01*
X21074525Y-5670504D01*
X21020008Y-5698281D01*
X21004521Y-5699500D01*
X19447083Y-5699500D01*
X19388892Y-5680593D01*
X19372264Y-5665331D01*
X19331128Y-5617857D01*
X19298182Y-5596684D01*
X19210057Y-5540049D01*
X19210054Y-5540047D01*
X19210053Y-5540047D01*
X19210050Y-5540046D01*
X19071964Y-5499500D01*
X19071961Y-5499500D01*
X18928039Y-5499500D01*
X18928035Y-5499500D01*
X18789949Y-5540046D01*
X18789942Y-5540049D01*
X18668873Y-5617855D01*
X18574622Y-5726628D01*
X18514834Y-5857543D01*
X18494353Y-5999997D01*
X16727542Y-5999997D01*
X16732793Y-5992882D01*
X16777646Y-5864698D01*
X16780500Y-5834265D01*
X16780499Y-3225736D01*
X16777646Y-3195302D01*
X16766062Y-3162196D01*
X16764690Y-3101026D01*
X16799535Y-3050732D01*
X16857287Y-3030525D01*
X16859507Y-3030500D01*
X18840307Y-3030500D01*
X18898498Y-3049407D01*
X18910311Y-3059496D01*
X19425326Y-3574511D01*
X19425325Y-3574511D01*
X19481275Y-3630460D01*
X19549793Y-3670019D01*
X19549797Y-3670021D01*
X19626221Y-3690499D01*
X19626223Y-3690500D01*
X19626224Y-3690500D01*
X21659563Y-3690500D01*
X21659563Y-3690499D01*
X21735989Y-3670021D01*
X21804511Y-3630460D01*
X21834971Y-3600000D01*
X21860461Y-3574511D01*
X22012339Y-3422630D01*
X22183888Y-3251081D01*
X22238403Y-3223305D01*
X22294155Y-3230644D01*
X22340197Y-3251144D01*
X22525354Y-3290500D01*
X22525357Y-3290500D01*
X22714643Y-3290500D01*
X22714646Y-3290500D01*
X22899803Y-3251144D01*
X23072730Y-3174151D01*
X23225871Y-3062888D01*
X23352533Y-2922216D01*
X23447179Y-2758284D01*
X23505674Y-2578256D01*
X23525460Y-2390000D01*
X23505674Y-2201744D01*
X23447179Y-2021716D01*
X23447176Y-2021711D01*
X23447174Y-2021706D01*
X23397313Y-1935345D01*
X23352533Y-1857784D01*
X23225871Y-1717112D01*
X23202318Y-1700000D01*
X23072731Y-1605850D01*
X23072732Y-1605850D01*
X23072730Y-1605849D01*
X23072725Y-1605847D01*
X23072722Y-1605845D01*
X22899805Y-1528857D01*
X22899803Y-1528856D01*
X22899800Y-1528855D01*
X22899799Y-1528855D01*
X22864580Y-1521369D01*
X22714646Y-1489500D01*
X22525354Y-1489500D01*
X22407289Y-1514595D01*
X22340200Y-1528855D01*
X22340194Y-1528857D01*
X22167277Y-1605845D01*
X22167268Y-1605850D01*
X22014129Y-1717111D01*
X22014124Y-1717116D01*
X21887469Y-1857781D01*
X21887465Y-1857787D01*
X21792825Y-2021706D01*
X21792819Y-2021720D01*
X21734327Y-2201738D01*
X21734326Y-2201742D01*
X21734326Y-2201744D01*
X21714540Y-2390000D01*
X21734326Y-2578256D01*
X21778775Y-2715056D01*
X21782393Y-2726189D01*
X21782393Y-2787375D01*
X21758242Y-2826785D01*
X21524526Y-3060503D01*
X21470009Y-3088281D01*
X21454522Y-3089500D01*
X20884267Y-3089500D01*
X20826076Y-3070593D01*
X20790112Y-3021093D01*
X20790112Y-2959907D01*
X20810697Y-2924255D01*
X20812533Y-2922216D01*
X20907179Y-2758284D01*
X20965674Y-2578256D01*
X20985460Y-2390000D01*
X20965674Y-2201744D01*
X20907179Y-2021716D01*
X20907176Y-2021711D01*
X20907174Y-2021706D01*
X20857313Y-1935345D01*
X20812533Y-1857784D01*
X20685871Y-1717112D01*
X20662318Y-1700000D01*
X20532731Y-1605850D01*
X20532732Y-1605850D01*
X20532730Y-1605849D01*
X20532725Y-1605847D01*
X20532722Y-1605845D01*
X20359805Y-1528857D01*
X20359803Y-1528856D01*
X20359800Y-1528855D01*
X20359799Y-1528855D01*
X20324580Y-1521369D01*
X20174646Y-1489500D01*
X19985354Y-1489500D01*
X19867289Y-1514595D01*
X19800200Y-1528855D01*
X19800194Y-1528857D01*
X19754156Y-1549354D01*
X19693306Y-1555748D01*
X19643888Y-1528916D01*
X19504510Y-1389539D01*
X19496469Y-1384896D01*
X19496469Y-1384897D01*
X19435989Y-1349979D01*
X19435988Y-1349978D01*
X19435987Y-1349978D01*
X19359564Y-1329500D01*
X19359562Y-1329500D01*
X13679499Y-1329500D01*
X13621308Y-1310593D01*
X13585344Y-1261093D01*
X13580499Y-1230500D01*
X13580499Y-998478D01*
X13580498Y-998476D01*
X13565647Y-904700D01*
X13565646Y-904698D01*
X13565646Y-904696D01*
X13508050Y-791658D01*
X13418342Y-701950D01*
X13305304Y-644354D01*
X13305305Y-644354D01*
X13234915Y-633205D01*
X13180399Y-605428D01*
X13164511Y-589540D01*
X13164511Y-589539D01*
X12864511Y-289540D01*
X12857056Y-285236D01*
X12816115Y-239765D01*
X12809721Y-178915D01*
X12840314Y-125928D01*
X12896210Y-101042D01*
X12906557Y-100500D01*
X51473071Y-100500D01*
X51497015Y-100500D01*
X51502992Y-100681D01*
X51783256Y-117633D01*
X51795111Y-119073D01*
X51958223Y-148964D01*
X51983638Y-153622D01*
X52037468Y-182709D01*
X52063920Y-237880D01*
X52052891Y-298064D01*
X52008593Y-340270D01*
X51965793Y-350000D01*
X50999997Y-350000D01*
X50299998Y-650000D01*
X49799999Y-1050000D01*
X49600005Y-1349990D01*
X49599998Y-1350002D01*
X49400001Y-1749996D01*
X49300000Y-2050000D01*
X49300000Y-3050002D01*
X49599997Y-3749995D01*
X49600000Y-3750000D01*
X49991647Y-4219977D01*
X50100000Y-4350000D01*
X50900000Y-4750000D01*
X51899998Y-4750000D01*
X51900000Y-4750000D01*
X52500000Y-4650000D01*
X53100000Y-4150000D01*
X53500000Y-3650000D01*
X53700000Y-2950000D01*
X53700000Y-2478186D01*
X53718907Y-2419995D01*
X53768407Y-2384031D01*
X53829593Y-2384031D01*
X53879093Y-2419995D01*
X53897819Y-2472209D01*
X53899319Y-2497007D01*
X53899500Y-2502984D01*
X53899500Y-5019991D01*
X53914798Y-5056926D01*
X53914799Y-5056927D01*
X53914800Y-5056929D01*
X53943071Y-5085200D01*
X53943072Y-5085200D01*
X53943073Y-5085201D01*
X53980008Y-5100500D01*
X53980009Y-5100500D01*
X55100500Y-5100500D01*
X55158691Y-5119407D01*
X55194655Y-5168907D01*
X55199500Y-5199500D01*
X55199500Y-19800500D01*
X55180593Y-19858691D01*
X55131093Y-19894655D01*
X55100500Y-19899500D01*
X53980008Y-19899500D01*
X53943073Y-19914798D01*
X53914798Y-19943073D01*
X53899500Y-19980008D01*
X53899500Y-22497015D01*
X53899319Y-22502992D01*
X53897819Y-22527790D01*
X53875433Y-22584733D01*
X53823852Y-22617643D01*
X53762778Y-22613949D01*
X53715540Y-22575062D01*
X53700000Y-22521813D01*
X53700000Y-21900000D01*
X53618172Y-21695431D01*
X53500000Y-21400000D01*
X53100000Y-20900000D01*
X52600000Y-20500000D01*
X52000000Y-20300000D01*
X51000000Y-20300000D01*
X50999997Y-20300000D01*
X50299998Y-20600000D01*
X49799999Y-21000000D01*
X49600005Y-21299990D01*
X49599998Y-21300002D01*
X49400001Y-21699996D01*
X49300000Y-22000000D01*
X49300000Y-23000002D01*
X49599997Y-23699995D01*
X49600000Y-23700000D01*
X50061837Y-24254205D01*
X50100000Y-24300000D01*
X50900000Y-24700000D01*
X51521813Y-24700000D01*
X51580004Y-24718907D01*
X51615968Y-24768407D01*
X51615968Y-24829593D01*
X51580004Y-24879093D01*
X51527790Y-24897819D01*
X51502992Y-24899319D01*
X51497015Y-24899500D01*
X8277877Y-24899500D01*
X8219686Y-24880593D01*
X8183722Y-24831093D01*
X8183722Y-24769907D01*
X8219686Y-24720407D01*
X8242114Y-24708185D01*
X8375986Y-24656322D01*
X8375991Y-24656319D01*
X8561126Y-24541688D01*
X8561129Y-24541686D01*
X8722052Y-24394987D01*
X8853283Y-24221209D01*
X8853288Y-24221200D01*
X8930605Y-24065927D01*
X8973467Y-24022265D01*
X9033808Y-24012135D01*
X9088579Y-24039407D01*
X9104962Y-24060555D01*
X9137805Y-24117440D01*
X9231239Y-24221209D01*
X9254463Y-24247003D01*
X9260950Y-24254207D01*
X9409839Y-24362381D01*
X9409843Y-24362383D01*
X9409845Y-24362384D01*
X9465485Y-24387156D01*
X9577966Y-24437236D01*
X9757981Y-24475500D01*
X9757983Y-24475500D01*
X9942017Y-24475500D01*
X9942019Y-24475500D01*
X10122034Y-24437236D01*
X10290161Y-24362381D01*
X10439050Y-24254207D01*
X10562195Y-24117440D01*
X10654214Y-23958059D01*
X10711085Y-23783029D01*
X10730322Y-23600000D01*
X10711085Y-23416971D01*
X10667765Y-23283649D01*
X10667765Y-23222465D01*
X10691914Y-23183055D01*
X14385475Y-19489496D01*
X14439992Y-19461719D01*
X14455479Y-19460500D01*
X15333443Y-19460500D01*
X15391634Y-19479407D01*
X15427598Y-19528907D01*
X15427598Y-19590093D01*
X15391634Y-19639593D01*
X15382944Y-19645236D01*
X15375490Y-19649539D01*
X12267175Y-22757852D01*
X12212658Y-22785629D01*
X12156905Y-22778289D01*
X12122040Y-22762766D01*
X12122035Y-22762764D01*
X12122034Y-22762764D01*
X12122031Y-22762763D01*
X12122030Y-22762763D01*
X12075135Y-22752795D01*
X11942019Y-22724500D01*
X11757981Y-22724500D01*
X11660797Y-22745157D01*
X11577969Y-22762763D01*
X11577963Y-22762765D01*
X11409845Y-22837615D01*
X11409842Y-22837617D01*
X11409839Y-22837618D01*
X11409839Y-22837619D01*
X11397245Y-22846769D01*
X11260948Y-22945794D01*
X11137803Y-23082562D01*
X11137803Y-23082563D01*
X11045790Y-23241931D01*
X11045784Y-23241945D01*
X10988916Y-23416965D01*
X10988915Y-23416969D01*
X10988915Y-23416971D01*
X10969678Y-23600000D01*
X10986483Y-23759893D01*
X10988916Y-23783034D01*
X11045784Y-23958054D01*
X11045790Y-23958068D01*
X11082855Y-24022265D01*
X11137805Y-24117440D01*
X11231239Y-24221209D01*
X11254463Y-24247003D01*
X11260950Y-24254207D01*
X11409839Y-24362381D01*
X11409843Y-24362383D01*
X11409845Y-24362384D01*
X11465485Y-24387156D01*
X11577966Y-24437236D01*
X11757981Y-24475500D01*
X11757983Y-24475500D01*
X11942017Y-24475500D01*
X11942019Y-24475500D01*
X12122034Y-24437236D01*
X12290161Y-24362381D01*
X12439050Y-24254207D01*
X12562195Y-24117440D01*
X12654214Y-23958059D01*
X12711085Y-23783029D01*
X12730322Y-23600000D01*
X12711085Y-23416971D01*
X12667765Y-23283649D01*
X12667765Y-23222465D01*
X12691914Y-23183055D01*
X15655475Y-20219496D01*
X15709992Y-20191719D01*
X15725479Y-20190500D01*
X19457139Y-20190500D01*
X19515330Y-20209407D01*
X19551294Y-20258907D01*
X19555131Y-20275411D01*
X19574834Y-20412456D01*
X19614815Y-20500000D01*
X19634623Y-20543373D01*
X19728872Y-20652143D01*
X19728873Y-20652144D01*
X19849942Y-20729950D01*
X19849947Y-20729953D01*
X19956403Y-20761211D01*
X19988035Y-20770499D01*
X19988036Y-20770499D01*
X19988039Y-20770500D01*
X19988041Y-20770500D01*
X20131959Y-20770500D01*
X20131961Y-20770500D01*
X20270053Y-20729953D01*
X20391128Y-20652143D01*
X20485377Y-20543373D01*
X20545165Y-20412457D01*
X20565647Y-20270000D01*
X20545165Y-20127543D01*
X20485377Y-19996627D01*
X20391128Y-19887857D01*
X20391127Y-19887856D01*
X20391126Y-19887855D01*
X20270057Y-19810049D01*
X20270054Y-19810047D01*
X20270053Y-19810047D01*
X20270050Y-19810046D01*
X20131964Y-19769500D01*
X20131961Y-19769500D01*
X20025479Y-19769500D01*
X19967288Y-19750593D01*
X19955476Y-19740504D01*
X19864510Y-19649539D01*
X19795992Y-19609980D01*
X19795988Y-19609978D01*
X19719564Y-19589500D01*
X19719562Y-19589500D01*
X19167493Y-19589500D01*
X19109302Y-19570593D01*
X19073338Y-19521093D01*
X19073338Y-19459907D01*
X19077440Y-19449373D01*
X19085165Y-19432456D01*
X19087723Y-19414669D01*
X19095943Y-19357494D01*
X19105647Y-19290002D01*
X19105647Y-19289997D01*
X19085165Y-19147543D01*
X19025377Y-19016627D01*
X18984972Y-18969997D01*
X21044353Y-18969997D01*
X21044353Y-18970002D01*
X21064834Y-19112456D01*
X21080858Y-19147543D01*
X21124623Y-19243373D01*
X21203058Y-19333893D01*
X21223509Y-19357494D01*
X21221471Y-19359259D01*
X21246925Y-19401458D01*
X21249500Y-19423893D01*
X21249500Y-22670102D01*
X21240553Y-22711229D01*
X21214834Y-22767543D01*
X21194353Y-22909997D01*
X21194353Y-22910002D01*
X21214834Y-23052456D01*
X21262207Y-23156187D01*
X21274623Y-23183373D01*
X21325372Y-23241941D01*
X21368873Y-23292144D01*
X21380981Y-23299925D01*
X21489947Y-23369953D01*
X21596403Y-23401211D01*
X21628035Y-23410499D01*
X21628036Y-23410499D01*
X21628039Y-23410500D01*
X21628041Y-23410500D01*
X21771959Y-23410500D01*
X21771961Y-23410500D01*
X21910053Y-23369953D01*
X22031128Y-23292143D01*
X22125377Y-23183373D01*
X22185165Y-23052457D01*
X22205023Y-22914343D01*
X22205647Y-22910002D01*
X22205647Y-22909997D01*
X22185165Y-22767543D01*
X22150500Y-22691638D01*
X22125377Y-22636627D01*
X22031128Y-22527857D01*
X22031127Y-22527856D01*
X22031126Y-22527855D01*
X21910055Y-22450048D01*
X21908367Y-22449277D01*
X21907226Y-22448230D01*
X21904097Y-22446219D01*
X21904445Y-22445677D01*
X21863293Y-22407901D01*
X21850500Y-22359226D01*
X21850500Y-19423893D01*
X21869407Y-19365702D01*
X21876741Y-19357711D01*
X21876491Y-19357494D01*
X21881128Y-19352143D01*
X21975377Y-19243373D01*
X22035165Y-19112457D01*
X22051642Y-18997855D01*
X22055647Y-18970002D01*
X22055647Y-18969997D01*
X23014353Y-18969997D01*
X23014353Y-18970002D01*
X23034834Y-19112456D01*
X23050858Y-19147543D01*
X23094623Y-19243373D01*
X23173058Y-19333893D01*
X23193509Y-19357494D01*
X23191471Y-19359259D01*
X23216925Y-19401458D01*
X23219500Y-19423893D01*
X23219500Y-21673894D01*
X23210555Y-21715018D01*
X23204834Y-21727545D01*
X23204833Y-21727547D01*
X23184353Y-21869997D01*
X23184353Y-21870002D01*
X23204834Y-22012456D01*
X23264622Y-22143371D01*
X23264623Y-22143373D01*
X23358872Y-22252143D01*
X23358873Y-22252144D01*
X23479942Y-22329950D01*
X23479947Y-22329953D01*
X23579643Y-22359226D01*
X23618035Y-22370499D01*
X23618036Y-22370499D01*
X23618039Y-22370500D01*
X23618041Y-22370500D01*
X23761959Y-22370500D01*
X23761961Y-22370500D01*
X23900053Y-22329953D01*
X24021128Y-22252143D01*
X24115377Y-22143373D01*
X24175165Y-22012457D01*
X24195647Y-21870000D01*
X24175165Y-21727543D01*
X24115377Y-21596627D01*
X24021128Y-21487857D01*
X24021127Y-21487856D01*
X24021126Y-21487855D01*
X23900057Y-21410049D01*
X23900051Y-21410046D01*
X23891604Y-21407566D01*
X23841099Y-21373028D01*
X23820540Y-21315400D01*
X23820500Y-21312577D01*
X23820500Y-19423893D01*
X23839407Y-19365702D01*
X23846741Y-19357711D01*
X23846491Y-19357494D01*
X23851128Y-19352143D01*
X23945377Y-19243373D01*
X24005165Y-19112457D01*
X24021642Y-18997855D01*
X24025647Y-18970002D01*
X24025647Y-18969997D01*
X24005165Y-18827543D01*
X23978402Y-18768941D01*
X23945377Y-18696627D01*
X23851128Y-18587857D01*
X23851127Y-18587856D01*
X23851126Y-18587855D01*
X23730057Y-18510049D01*
X23730054Y-18510047D01*
X23730053Y-18510047D01*
X23730050Y-18510046D01*
X23591964Y-18469500D01*
X23591961Y-18469500D01*
X23448039Y-18469500D01*
X23448035Y-18469500D01*
X23309949Y-18510046D01*
X23309942Y-18510049D01*
X23188873Y-18587855D01*
X23094622Y-18696628D01*
X23034834Y-18827543D01*
X23014353Y-18969997D01*
X22055647Y-18969997D01*
X22035165Y-18827543D01*
X22008402Y-18768941D01*
X21975377Y-18696627D01*
X21881128Y-18587857D01*
X21881127Y-18587856D01*
X21881126Y-18587855D01*
X21760057Y-18510049D01*
X21760054Y-18510047D01*
X21760053Y-18510047D01*
X21760050Y-18510046D01*
X21621964Y-18469500D01*
X21621961Y-18469500D01*
X21478039Y-18469500D01*
X21478035Y-18469500D01*
X21339949Y-18510046D01*
X21339942Y-18510049D01*
X21218873Y-18587855D01*
X21124622Y-18696628D01*
X21064834Y-18827543D01*
X21044353Y-18969997D01*
X18984972Y-18969997D01*
X18931128Y-18907857D01*
X18931127Y-18907856D01*
X18931126Y-18907855D01*
X18810057Y-18830049D01*
X18810054Y-18830047D01*
X18810053Y-18830047D01*
X18810050Y-18830046D01*
X18671964Y-18789500D01*
X18671961Y-18789500D01*
X18528039Y-18789500D01*
X18528035Y-18789500D01*
X18389949Y-18830046D01*
X18389942Y-18830049D01*
X18368571Y-18843784D01*
X18315048Y-18859500D01*
X14250435Y-18859500D01*
X14174012Y-18879978D01*
X14147147Y-18895489D01*
X14147146Y-18895488D01*
X14105490Y-18919539D01*
X10267175Y-22757852D01*
X10212658Y-22785629D01*
X10156905Y-22778289D01*
X10122040Y-22762766D01*
X10122035Y-22762764D01*
X10122034Y-22762764D01*
X10122031Y-22762763D01*
X10122030Y-22762763D01*
X10075135Y-22752795D01*
X9942019Y-22724500D01*
X9757981Y-22724500D01*
X9660797Y-22745157D01*
X9577969Y-22762763D01*
X9577963Y-22762765D01*
X9409845Y-22837615D01*
X9409842Y-22837617D01*
X9409839Y-22837618D01*
X9409839Y-22837619D01*
X9397245Y-22846769D01*
X9260948Y-22945794D01*
X9137804Y-23082561D01*
X9104962Y-23139445D01*
X9059492Y-23180385D01*
X8998642Y-23186780D01*
X8945654Y-23156187D01*
X8930605Y-23134072D01*
X8853288Y-22978799D01*
X8853283Y-22978790D01*
X8722052Y-22805012D01*
X8561129Y-22658313D01*
X8561126Y-22658311D01*
X8375991Y-22543680D01*
X8375986Y-22543677D01*
X8172932Y-22465013D01*
X8172926Y-22465011D01*
X8100000Y-22451379D01*
X8100000Y-23319670D01*
X8080255Y-23299925D01*
X7994745Y-23250556D01*
X7899370Y-23225000D01*
X7800630Y-23225000D01*
X7705255Y-23250556D01*
X7619745Y-23299925D01*
X7600000Y-23319670D01*
X7600000Y-22451379D01*
X7599999Y-22451379D01*
X7527073Y-22465011D01*
X7527067Y-22465013D01*
X7324013Y-22543677D01*
X7324008Y-22543680D01*
X7138873Y-22658311D01*
X7138870Y-22658313D01*
X6977944Y-22805015D01*
X6895383Y-22914343D01*
X6845227Y-22949386D01*
X6784052Y-22948255D01*
X6735225Y-22911382D01*
X6719283Y-22873999D01*
X6713867Y-22846769D01*
X6669552Y-22780448D01*
X6650239Y-22767543D01*
X6603233Y-22736134D01*
X6603231Y-22736133D01*
X6603228Y-22736132D01*
X6603227Y-22736132D01*
X6544758Y-22724501D01*
X6544748Y-22724500D01*
X5155252Y-22724500D01*
X5155251Y-22724500D01*
X5155241Y-22724501D01*
X5096772Y-22736132D01*
X5096766Y-22736134D01*
X5030451Y-22780445D01*
X5030445Y-22780451D01*
X4986134Y-22846766D01*
X4986132Y-22846772D01*
X4974501Y-22905241D01*
X4974500Y-22905253D01*
X4974500Y-24294746D01*
X4974501Y-24294758D01*
X4986132Y-24353227D01*
X4986134Y-24353233D01*
X4992249Y-24362384D01*
X5030448Y-24419552D01*
X5096769Y-24463867D01*
X5141231Y-24472711D01*
X5155241Y-24475498D01*
X5155246Y-24475498D01*
X5155252Y-24475500D01*
X5155253Y-24475500D01*
X6544747Y-24475500D01*
X6544748Y-24475500D01*
X6603231Y-24463867D01*
X6669552Y-24419552D01*
X6713867Y-24353231D01*
X6719283Y-24326001D01*
X6749178Y-24272619D01*
X6804743Y-24247003D01*
X6864753Y-24258940D01*
X6895384Y-24285656D01*
X6977947Y-24394987D01*
X7138870Y-24541686D01*
X7138873Y-24541688D01*
X7324008Y-24656319D01*
X7324013Y-24656322D01*
X7457886Y-24708185D01*
X7505317Y-24746837D01*
X7520971Y-24805986D01*
X7498868Y-24863040D01*
X7447451Y-24896205D01*
X7422123Y-24899500D01*
X2502985Y-24899500D01*
X2497008Y-24899319D01*
X2472210Y-24897819D01*
X2415267Y-24875433D01*
X2382357Y-24823852D01*
X2386051Y-24762778D01*
X2424938Y-24715540D01*
X2478187Y-24700000D01*
X2899998Y-24700000D01*
X2900000Y-24700000D01*
X3500000Y-24600000D01*
X4100000Y-24100000D01*
X4500000Y-23600000D01*
X4700000Y-22900000D01*
X4700000Y-21900000D01*
X4500000Y-21400000D01*
X4100000Y-20900000D01*
X3600000Y-20500000D01*
X3000000Y-20300000D01*
X2000000Y-20300000D01*
X1999997Y-20300000D01*
X1299998Y-20600000D01*
X799999Y-21000000D01*
X600005Y-21299990D01*
X599998Y-21300002D01*
X400001Y-21699996D01*
X300000Y-22000000D01*
X300000Y-22521813D01*
X281093Y-22580004D01*
X231593Y-22615968D01*
X170407Y-22615968D01*
X120907Y-22580004D01*
X102181Y-22527790D01*
X100681Y-22502992D01*
X100500Y-22497015D01*
X100500Y-19980008D01*
X85201Y-19943073D01*
X85200Y-19943072D01*
X85200Y-19943071D01*
X56929Y-19914800D01*
X56927Y-19914799D01*
X56926Y-19914798D01*
X19992Y-19899500D01*
X19991Y-19899500D01*
X-401000Y-19899500D01*
X-459191Y-19880593D01*
X-495155Y-19831093D01*
X-500000Y-19800500D01*
X-500000Y-17280253D01*
X2444500Y-17280253D01*
X2444500Y-18919746D01*
X2444501Y-18919758D01*
X2456132Y-18978227D01*
X2456134Y-18978233D01*
X2485684Y-19022457D01*
X2500448Y-19044552D01*
X2566769Y-19088867D01*
X2611231Y-19097711D01*
X2625241Y-19100498D01*
X2625246Y-19100498D01*
X2625252Y-19100500D01*
X2625253Y-19100500D01*
X4664747Y-19100500D01*
X4664748Y-19100500D01*
X4723231Y-19088867D01*
X4789552Y-19044552D01*
X4833867Y-18978231D01*
X4845500Y-18919748D01*
X4845500Y-17514479D01*
X4864407Y-17456288D01*
X4913907Y-17420324D01*
X4975093Y-17420324D01*
X5014504Y-17444475D01*
X5045504Y-17475475D01*
X5073281Y-17529992D01*
X5074500Y-17545479D01*
X5074500Y-17814564D01*
X5094978Y-17890987D01*
X5094979Y-17890990D01*
X5099242Y-17898373D01*
X5134540Y-17959511D01*
X5524983Y-18349954D01*
X5889453Y-18714424D01*
X5917230Y-18768941D01*
X5917441Y-18798514D01*
X5914354Y-18819997D01*
X5914353Y-18820002D01*
X5934834Y-18962456D01*
X5992564Y-19088865D01*
X5994623Y-19093373D01*
X6046613Y-19153373D01*
X6088873Y-19202144D01*
X6203332Y-19275702D01*
X6209947Y-19279953D01*
X6310457Y-19309465D01*
X6348035Y-19320499D01*
X6348036Y-19320499D01*
X6348039Y-19320500D01*
X6348041Y-19320500D01*
X6491959Y-19320500D01*
X6491961Y-19320500D01*
X6630053Y-19279953D01*
X6751128Y-19202143D01*
X6845377Y-19093373D01*
X6905165Y-18962457D01*
X6913015Y-18907857D01*
X6925647Y-18820002D01*
X6925647Y-18819997D01*
X6905165Y-18677543D01*
X6864205Y-18587855D01*
X6845377Y-18546627D01*
X6751128Y-18437857D01*
X6751127Y-18437856D01*
X6751126Y-18437855D01*
X6630057Y-18360049D01*
X6630054Y-18360047D01*
X6630053Y-18360047D01*
X6630050Y-18360046D01*
X6491964Y-18319500D01*
X6491961Y-18319500D01*
X6385479Y-18319500D01*
X6327288Y-18300593D01*
X6315475Y-18290504D01*
X5704496Y-17679525D01*
X5676719Y-17625008D01*
X5675500Y-17609521D01*
X5675500Y-17340437D01*
X5675499Y-17340435D01*
X5655021Y-17264011D01*
X5655019Y-17264007D01*
X5615460Y-17195489D01*
X5559511Y-17139539D01*
X5559511Y-17139540D01*
X5481399Y-17061428D01*
X5453622Y-17006911D01*
X5463193Y-16946479D01*
X5506458Y-16903214D01*
X5561986Y-16892991D01*
X5627177Y-16900000D01*
X6149999Y-16900000D01*
X6150000Y-16899999D01*
X6150000Y-16400001D01*
X6450000Y-16400001D01*
X6450000Y-16899999D01*
X6450001Y-16900000D01*
X6972824Y-16900000D01*
X7032370Y-16893598D01*
X7032381Y-16893596D01*
X7167088Y-16843353D01*
X7167090Y-16843352D01*
X7282184Y-16757192D01*
X7282192Y-16757184D01*
X7368352Y-16642090D01*
X7368353Y-16642088D01*
X7418596Y-16507381D01*
X7418598Y-16507370D01*
X7425000Y-16447824D01*
X7425000Y-16400001D01*
X7424999Y-16400000D01*
X6450001Y-16400000D01*
X6450000Y-16400001D01*
X6150000Y-16400001D01*
X6149999Y-16400000D01*
X5175001Y-16400000D01*
X5175000Y-16400001D01*
X5175000Y-16447824D01*
X5182008Y-16513014D01*
X5169429Y-16572893D01*
X5124056Y-16613941D01*
X5063221Y-16620481D01*
X5013572Y-16593600D01*
X4869513Y-16449542D01*
X4869511Y-16449540D01*
X4846038Y-16435988D01*
X4846036Y-16435986D01*
X4800987Y-16409978D01*
X4724564Y-16389500D01*
X4724562Y-16389500D01*
X4539500Y-16389500D01*
X4481309Y-16370593D01*
X4445345Y-16321093D01*
X4440500Y-16290500D01*
X4440500Y-16045937D01*
X4459407Y-15987746D01*
X4508907Y-15951782D01*
X4567389Y-15950947D01*
X4668039Y-15980500D01*
X4668041Y-15980500D01*
X4781710Y-15980500D01*
X4831210Y-15993764D01*
X4894008Y-16030020D01*
X4894006Y-16030020D01*
X4894010Y-16030021D01*
X4894012Y-16030022D01*
X4970438Y-16050500D01*
X5084493Y-16050500D01*
X5142684Y-16069407D01*
X5154497Y-16079496D01*
X5175001Y-16100000D01*
X5645311Y-16100000D01*
X5655012Y-16100476D01*
X5655248Y-16100499D01*
X5655252Y-16100500D01*
X5655256Y-16100500D01*
X6944744Y-16100500D01*
X6944748Y-16100500D01*
X6944751Y-16100499D01*
X6944988Y-16100476D01*
X6954689Y-16100000D01*
X7424999Y-16100000D01*
X7425000Y-16099999D01*
X7425000Y-16052175D01*
X7418598Y-15992629D01*
X7418596Y-15992618D01*
X7368353Y-15857911D01*
X7368352Y-15857909D01*
X7282192Y-15742815D01*
X7282184Y-15742807D01*
X7165171Y-15655210D01*
X7129918Y-15605201D01*
X7126866Y-15585000D01*
X7125976Y-15585088D01*
X7125500Y-15580261D01*
X7125500Y-15580252D01*
X7113867Y-15521769D01*
X7113379Y-15519315D01*
X7113379Y-15480685D01*
X7125498Y-15419758D01*
X7125499Y-15419751D01*
X7125500Y-15419748D01*
X7125500Y-15419737D01*
X7125976Y-15414912D01*
X7128388Y-15415149D01*
X7144407Y-15365850D01*
X7165171Y-15344788D01*
X7282184Y-15257192D01*
X7282192Y-15257184D01*
X7368352Y-15142090D01*
X7368353Y-15142088D01*
X7418596Y-15007381D01*
X7418598Y-15007370D01*
X7425000Y-14947820D01*
X7425000Y-14900001D01*
X7424999Y-14900000D01*
X6954689Y-14900000D01*
X6944988Y-14899524D01*
X6944751Y-14899500D01*
X6944748Y-14899500D01*
X5655252Y-14899500D01*
X5655248Y-14899500D01*
X5655012Y-14899524D01*
X5645311Y-14900000D01*
X5175001Y-14900000D01*
X5154497Y-14920504D01*
X5099980Y-14948281D01*
X5084493Y-14949500D01*
X4930435Y-14949500D01*
X4854015Y-14969977D01*
X4849215Y-14971966D01*
X4811333Y-14979500D01*
X4668035Y-14979500D01*
X4567391Y-15009052D01*
X4506230Y-15007304D01*
X4457778Y-14969941D01*
X4440500Y-14914062D01*
X4440500Y-14795479D01*
X4459407Y-14737288D01*
X4469496Y-14725475D01*
X5115475Y-14079496D01*
X5169992Y-14051719D01*
X5185479Y-14050500D01*
X5277261Y-14050500D01*
X5335452Y-14069407D01*
X5371416Y-14118907D01*
X5371416Y-14180093D01*
X5336590Y-14228753D01*
X5317815Y-14242807D01*
X5317807Y-14242815D01*
X5231647Y-14357909D01*
X5231646Y-14357911D01*
X5181403Y-14492618D01*
X5181401Y-14492629D01*
X5175000Y-14552175D01*
X5175000Y-14599999D01*
X5175001Y-14600000D01*
X5645311Y-14600000D01*
X5655012Y-14600476D01*
X5655248Y-14600499D01*
X5655252Y-14600500D01*
X5655256Y-14600500D01*
X6944744Y-14600500D01*
X6944748Y-14600500D01*
X6944751Y-14600499D01*
X6944988Y-14600476D01*
X6954689Y-14600000D01*
X7424999Y-14600000D01*
X7445503Y-14579496D01*
X7500020Y-14551719D01*
X7515507Y-14550500D01*
X9934521Y-14550500D01*
X9992712Y-14569407D01*
X10004525Y-14579496D01*
X13499540Y-18074511D01*
X13499539Y-18074511D01*
X13555489Y-18130460D01*
X13624007Y-18170019D01*
X13624011Y-18170021D01*
X13700435Y-18190499D01*
X13700437Y-18190500D01*
X25033153Y-18190500D01*
X25091344Y-18209407D01*
X25127308Y-18258907D01*
X25127308Y-18320093D01*
X25091344Y-18369593D01*
X25061044Y-18384490D01*
X24939949Y-18420046D01*
X24939942Y-18420049D01*
X24818873Y-18497855D01*
X24724622Y-18606628D01*
X24664834Y-18737543D01*
X24644353Y-18879997D01*
X24644353Y-18880002D01*
X24664834Y-19022456D01*
X24705937Y-19112457D01*
X24724623Y-19153373D01*
X24784483Y-19222456D01*
X24823509Y-19267494D01*
X24821471Y-19269259D01*
X24846925Y-19311458D01*
X24849500Y-19333893D01*
X24849500Y-24019562D01*
X24854818Y-24039407D01*
X24870794Y-24099031D01*
X24873160Y-24138742D01*
X24864354Y-24199997D01*
X24864353Y-24200003D01*
X24884834Y-24342456D01*
X24930340Y-24442098D01*
X24944623Y-24473373D01*
X25003816Y-24541686D01*
X25038873Y-24582144D01*
X25105017Y-24624652D01*
X25159947Y-24659953D01*
X25266403Y-24691211D01*
X25298035Y-24700499D01*
X25298036Y-24700499D01*
X25298039Y-24700500D01*
X25298041Y-24700500D01*
X25441959Y-24700500D01*
X25441961Y-24700500D01*
X25580053Y-24659953D01*
X25701128Y-24582143D01*
X25795377Y-24473373D01*
X25855165Y-24342457D01*
X25875647Y-24200000D01*
X25863776Y-24117437D01*
X25855165Y-24057543D01*
X25837819Y-24019561D01*
X25795377Y-23926627D01*
X25701128Y-23817857D01*
X25701127Y-23817856D01*
X25701126Y-23817855D01*
X25580057Y-23740049D01*
X25580054Y-23740048D01*
X25580053Y-23740047D01*
X25521608Y-23722886D01*
X25471101Y-23688350D01*
X25450540Y-23630722D01*
X25450500Y-23627896D01*
X25450500Y-19333893D01*
X25469407Y-19275702D01*
X25476741Y-19267711D01*
X25476491Y-19267494D01*
X25497392Y-19243373D01*
X25575377Y-19153373D01*
X25635165Y-19022457D01*
X25649932Y-18919748D01*
X25655647Y-18880002D01*
X25655647Y-18879997D01*
X25635165Y-18737543D01*
X25617039Y-18697854D01*
X25575377Y-18606627D01*
X25481128Y-18497857D01*
X25481127Y-18497856D01*
X25481126Y-18497855D01*
X25360057Y-18420049D01*
X25360054Y-18420047D01*
X25360053Y-18420047D01*
X25238956Y-18384490D01*
X25188449Y-18349954D01*
X25167887Y-18292327D01*
X25185125Y-18233620D01*
X25233578Y-18196257D01*
X25266847Y-18190500D01*
X38079563Y-18190500D01*
X38079563Y-18190499D01*
X38155989Y-18170021D01*
X38224511Y-18130460D01*
X38280460Y-18074511D01*
X39354974Y-16999997D01*
X41494353Y-16999997D01*
X41494353Y-17000002D01*
X41514834Y-17142456D01*
X41574623Y-17273373D01*
X41673509Y-17387494D01*
X41671471Y-17389259D01*
X41696925Y-17431458D01*
X41699500Y-17453893D01*
X41699500Y-17789564D01*
X41719977Y-17865985D01*
X41719978Y-17865987D01*
X41734411Y-17890987D01*
X41752806Y-17922847D01*
X41759540Y-17934511D01*
X42431656Y-18606627D01*
X43099453Y-19274424D01*
X43127230Y-19328941D01*
X43127441Y-19358514D01*
X43124354Y-19379997D01*
X43124353Y-19380002D01*
X43144834Y-19522456D01*
X43204622Y-19653371D01*
X43204623Y-19653373D01*
X43280122Y-19740504D01*
X43298873Y-19762144D01*
X43419942Y-19839950D01*
X43419947Y-19839953D01*
X43483764Y-19858691D01*
X43558035Y-19880499D01*
X43558036Y-19880499D01*
X43558039Y-19880500D01*
X43558041Y-19880500D01*
X43701959Y-19880500D01*
X43701961Y-19880500D01*
X43840053Y-19839953D01*
X43961128Y-19762143D01*
X44055377Y-19653373D01*
X44115165Y-19522457D01*
X44121992Y-19474971D01*
X44135647Y-19380002D01*
X44135647Y-19379997D01*
X44115165Y-19237543D01*
X44074063Y-19147543D01*
X44055377Y-19106627D01*
X43961128Y-18997857D01*
X43961127Y-18997856D01*
X43961126Y-18997855D01*
X43840057Y-18920049D01*
X43840054Y-18920047D01*
X43840053Y-18920047D01*
X43839028Y-18919746D01*
X43701964Y-18879500D01*
X43701961Y-18879500D01*
X43595479Y-18879500D01*
X43537288Y-18860593D01*
X43525475Y-18850504D01*
X42329496Y-17654525D01*
X42301719Y-17600008D01*
X42300500Y-17584521D01*
X42300500Y-17453893D01*
X42319407Y-17395702D01*
X42326741Y-17387711D01*
X42326491Y-17387494D01*
X42357569Y-17351628D01*
X42425377Y-17273373D01*
X42485165Y-17142457D01*
X42498386Y-17050500D01*
X42505647Y-17000002D01*
X42505647Y-16999997D01*
X42485165Y-16857543D01*
X42472596Y-16830021D01*
X42425377Y-16726627D01*
X42331128Y-16617857D01*
X42331127Y-16617856D01*
X42331126Y-16617855D01*
X42210057Y-16540049D01*
X42210054Y-16540047D01*
X42210053Y-16540047D01*
X42210050Y-16540046D01*
X42071964Y-16499500D01*
X42071961Y-16499500D01*
X41928039Y-16499500D01*
X41928035Y-16499500D01*
X41789949Y-16540046D01*
X41789942Y-16540049D01*
X41668873Y-16617855D01*
X41574622Y-16726628D01*
X41514834Y-16857543D01*
X41494353Y-16999997D01*
X39354974Y-16999997D01*
X42840568Y-13514402D01*
X42895081Y-13486628D01*
X42955513Y-13496199D01*
X42998778Y-13539464D01*
X43008349Y-13599896D01*
X42991969Y-13638028D01*
X42992784Y-13638498D01*
X42949980Y-13712635D01*
X42949978Y-13712639D01*
X42929500Y-13789063D01*
X42929500Y-16949564D01*
X42949978Y-17025988D01*
X42949980Y-17025992D01*
X42986190Y-17088709D01*
X42989540Y-17094511D01*
X43315353Y-17420324D01*
X43619540Y-17724511D01*
X45159540Y-19264511D01*
X45159539Y-19264511D01*
X45215489Y-19320460D01*
X45284007Y-19360019D01*
X45284011Y-19360021D01*
X45360435Y-19380499D01*
X45360437Y-19380500D01*
X45360438Y-19380500D01*
X45439562Y-19380500D01*
X45512917Y-19380500D01*
X45571108Y-19399407D01*
X45587733Y-19414667D01*
X45628872Y-19462143D01*
X45749947Y-19539953D01*
X45856403Y-19571211D01*
X45888035Y-19580499D01*
X45888036Y-19580499D01*
X45888039Y-19580500D01*
X45888041Y-19580500D01*
X46031959Y-19580500D01*
X46031961Y-19580500D01*
X46170053Y-19539953D01*
X46291128Y-19462143D01*
X46385377Y-19353373D01*
X46445165Y-19222457D01*
X46455936Y-19147543D01*
X46465647Y-19080002D01*
X46465647Y-19079997D01*
X46445165Y-18937543D01*
X46419027Y-18880309D01*
X46385377Y-18806627D01*
X46291128Y-18697857D01*
X46291127Y-18697856D01*
X46291126Y-18697855D01*
X46170057Y-18620049D01*
X46170054Y-18620047D01*
X46170053Y-18620047D01*
X46170050Y-18620046D01*
X46031964Y-18579500D01*
X46031961Y-18579500D01*
X45888039Y-18579500D01*
X45888035Y-18579500D01*
X45749949Y-18620046D01*
X45749942Y-18620049D01*
X45628876Y-18697854D01*
X45628870Y-18697859D01*
X45612136Y-18717171D01*
X45559740Y-18748766D01*
X45498779Y-18743530D01*
X45467314Y-18722343D01*
X43559496Y-16814525D01*
X43531719Y-16760008D01*
X43530500Y-16744521D01*
X43530500Y-13994106D01*
X43549407Y-13935915D01*
X43559490Y-13924108D01*
X45793357Y-11690240D01*
X45822239Y-11670190D01*
X45824087Y-11669344D01*
X45824097Y-11669342D01*
X45945172Y-11591532D01*
X45951117Y-11584670D01*
X46003513Y-11553073D01*
X46025938Y-11550500D01*
X47029493Y-11550500D01*
X47087684Y-11569407D01*
X47099497Y-11579496D01*
X47120001Y-11600000D01*
X47590311Y-11600000D01*
X47600012Y-11600476D01*
X47600248Y-11600499D01*
X47600252Y-11600500D01*
X47600256Y-11600500D01*
X48889744Y-11600500D01*
X48889748Y-11600500D01*
X48889751Y-11600499D01*
X48889988Y-11600476D01*
X48899689Y-11600000D01*
X49369999Y-11600000D01*
X49370000Y-11599999D01*
X49370000Y-11552175D01*
X49363598Y-11492629D01*
X49363596Y-11492618D01*
X49313353Y-11357911D01*
X49313352Y-11357909D01*
X49227192Y-11242815D01*
X49227184Y-11242807D01*
X49110171Y-11155210D01*
X49074918Y-11105201D01*
X49071866Y-11085000D01*
X49070976Y-11085088D01*
X49070500Y-11080261D01*
X49070500Y-11080252D01*
X49067850Y-11066932D01*
X49058379Y-11019315D01*
X49058379Y-10980685D01*
X49070498Y-10919758D01*
X49070497Y-10919758D01*
X49070500Y-10919748D01*
X49070500Y-10919737D01*
X49070976Y-10914912D01*
X49073388Y-10915149D01*
X49089407Y-10865850D01*
X49110171Y-10844788D01*
X49227184Y-10757192D01*
X49227192Y-10757184D01*
X49313352Y-10642090D01*
X49313353Y-10642088D01*
X49363596Y-10507381D01*
X49363598Y-10507370D01*
X49370000Y-10447820D01*
X49370000Y-10400001D01*
X49369999Y-10400000D01*
X48899689Y-10400000D01*
X48889988Y-10399524D01*
X48889751Y-10399500D01*
X48889748Y-10399500D01*
X47600252Y-10399500D01*
X47600248Y-10399500D01*
X47600012Y-10399524D01*
X47590311Y-10400000D01*
X47120001Y-10400000D01*
X47099497Y-10420504D01*
X47044980Y-10448281D01*
X47029493Y-10449500D01*
X46165479Y-10449500D01*
X46107288Y-10430593D01*
X46095475Y-10420504D01*
X45981181Y-10306210D01*
X45953404Y-10251693D01*
X45961131Y-10195081D01*
X45985165Y-10142457D01*
X45985165Y-10142455D01*
X45985166Y-10142454D01*
X46005647Y-10000002D01*
X46005647Y-9999997D01*
X45985165Y-9857543D01*
X45956827Y-9795492D01*
X45925377Y-9726627D01*
X45831128Y-9617857D01*
X45831127Y-9617856D01*
X45831126Y-9617855D01*
X45710057Y-9540049D01*
X45710054Y-9540047D01*
X45710053Y-9540047D01*
X45710050Y-9540046D01*
X45571964Y-9499500D01*
X45571961Y-9499500D01*
X45428039Y-9499500D01*
X45428035Y-9499500D01*
X45289949Y-9540046D01*
X45289942Y-9540049D01*
X45168873Y-9617855D01*
X45074622Y-9726628D01*
X45014834Y-9857543D01*
X44994353Y-9999997D01*
X44994353Y-10000003D01*
X44997441Y-10021482D01*
X44987007Y-10081771D01*
X44969453Y-10105573D01*
X44405489Y-10669539D01*
X44349539Y-10725489D01*
X44309980Y-10794007D01*
X44309978Y-10794011D01*
X44289500Y-10870435D01*
X44289500Y-11174521D01*
X44270593Y-11232712D01*
X44260504Y-11244525D01*
X37944525Y-17560504D01*
X37890008Y-17588281D01*
X37874521Y-17589500D01*
X13905479Y-17589500D01*
X13847288Y-17570593D01*
X13835475Y-17560504D01*
X12824968Y-16549997D01*
X20124353Y-16549997D01*
X20124353Y-16550002D01*
X20144834Y-16692456D01*
X20186875Y-16784511D01*
X20204623Y-16823373D01*
X20271020Y-16900000D01*
X20298873Y-16932144D01*
X20419942Y-17009950D01*
X20419947Y-17009953D01*
X20526403Y-17041211D01*
X20558035Y-17050499D01*
X20558036Y-17050499D01*
X20558039Y-17050500D01*
X20558041Y-17050500D01*
X20701959Y-17050500D01*
X20701961Y-17050500D01*
X20840053Y-17009953D01*
X20961128Y-16932143D01*
X21002264Y-16884668D01*
X21054660Y-16853073D01*
X21077083Y-16850500D01*
X25209560Y-16850500D01*
X25209562Y-16850500D01*
X25285989Y-16830021D01*
X25285992Y-16830018D01*
X25290775Y-16828038D01*
X25328666Y-16820500D01*
X25471959Y-16820500D01*
X25471961Y-16820500D01*
X25610053Y-16779953D01*
X25731128Y-16702143D01*
X25825377Y-16593373D01*
X25885165Y-16462457D01*
X25905647Y-16320000D01*
X25904146Y-16309562D01*
X25885165Y-16177543D01*
X25880742Y-16167858D01*
X25825377Y-16046627D01*
X25731128Y-15937857D01*
X25731127Y-15937856D01*
X25731126Y-15937855D01*
X25610057Y-15860049D01*
X25610054Y-15860047D01*
X25610053Y-15860047D01*
X25610050Y-15860046D01*
X25471964Y-15819500D01*
X25471961Y-15819500D01*
X25328039Y-15819500D01*
X25328035Y-15819500D01*
X25189949Y-15860046D01*
X25189942Y-15860049D01*
X25068873Y-15937855D01*
X24974622Y-16046628D01*
X24914834Y-16177544D01*
X24914586Y-16178389D01*
X24914170Y-16178995D01*
X24911893Y-16183984D01*
X24911029Y-16183589D01*
X24880052Y-16228897D01*
X24822425Y-16249460D01*
X24819596Y-16249500D01*
X21077083Y-16249500D01*
X21018892Y-16230593D01*
X21002264Y-16215331D01*
X20961128Y-16167857D01*
X20926385Y-16145529D01*
X20840057Y-16090049D01*
X20840054Y-16090047D01*
X20840053Y-16090047D01*
X20840050Y-16090046D01*
X20701964Y-16049500D01*
X20701961Y-16049500D01*
X20558039Y-16049500D01*
X20558035Y-16049500D01*
X20419949Y-16090046D01*
X20419942Y-16090049D01*
X20298873Y-16167855D01*
X20204622Y-16276628D01*
X20144834Y-16407543D01*
X20124353Y-16549997D01*
X12824968Y-16549997D01*
X12094471Y-15819500D01*
X10284511Y-14009540D01*
X10284508Y-14009538D01*
X10251464Y-13990460D01*
X10251462Y-13990459D01*
X10215989Y-13969979D01*
X10215986Y-13969978D01*
X10139564Y-13949500D01*
X10139562Y-13949500D01*
X7322739Y-13949500D01*
X7264548Y-13930593D01*
X7228584Y-13881093D01*
X7228584Y-13819907D01*
X7263410Y-13771247D01*
X7282184Y-13757192D01*
X7282192Y-13757184D01*
X7368352Y-13642090D01*
X7368353Y-13642088D01*
X7418596Y-13507381D01*
X7418598Y-13507370D01*
X7425000Y-13447820D01*
X7425000Y-13400001D01*
X7424999Y-13400000D01*
X6954689Y-13400000D01*
X6944988Y-13399524D01*
X6944751Y-13399500D01*
X6944748Y-13399500D01*
X5655252Y-13399500D01*
X5655248Y-13399500D01*
X5655012Y-13399524D01*
X5645311Y-13400000D01*
X5175001Y-13400000D01*
X5154497Y-13420504D01*
X5099980Y-13448281D01*
X5084493Y-13449500D01*
X4980435Y-13449500D01*
X4904011Y-13469978D01*
X4904010Y-13469978D01*
X4851428Y-13500338D01*
X4851424Y-13500340D01*
X4835492Y-13509537D01*
X3955489Y-14389540D01*
X3955488Y-14389539D01*
X3899539Y-14445489D01*
X3859980Y-14514007D01*
X3859978Y-14514011D01*
X3839500Y-14590435D01*
X3839500Y-16639564D01*
X3859976Y-16715982D01*
X3859982Y-16715995D01*
X3870673Y-16734512D01*
X3870674Y-16734512D01*
X3899540Y-16784511D01*
X3899542Y-16784513D01*
X3989539Y-16874511D01*
X4045525Y-16930496D01*
X4073303Y-16985012D01*
X4063732Y-17045444D01*
X4020468Y-17088709D01*
X3975522Y-17099500D01*
X2625252Y-17099500D01*
X2625251Y-17099500D01*
X2625241Y-17099501D01*
X2566772Y-17111132D01*
X2566766Y-17111134D01*
X2500451Y-17155445D01*
X2500445Y-17155451D01*
X2456134Y-17221766D01*
X2456132Y-17221772D01*
X2444501Y-17280241D01*
X2444500Y-17280253D01*
X-500000Y-17280253D01*
X-500000Y-12689997D01*
X4294353Y-12689997D01*
X4294353Y-12690002D01*
X4314834Y-12832456D01*
X4368287Y-12949500D01*
X4374623Y-12963373D01*
X4451570Y-13052175D01*
X4468873Y-13072144D01*
X4589942Y-13149950D01*
X4589947Y-13149953D01*
X4696403Y-13181211D01*
X4728035Y-13190499D01*
X4728036Y-13190499D01*
X4728039Y-13190500D01*
X4728041Y-13190500D01*
X4871959Y-13190500D01*
X4871961Y-13190500D01*
X5010053Y-13149953D01*
X5073764Y-13109008D01*
X5132937Y-13093454D01*
X5149750Y-13100000D01*
X5645311Y-13100000D01*
X5655012Y-13100476D01*
X5655248Y-13100499D01*
X5655252Y-13100500D01*
X5655256Y-13100500D01*
X6944744Y-13100500D01*
X6944748Y-13100500D01*
X6944751Y-13100499D01*
X6944988Y-13100476D01*
X6954689Y-13100000D01*
X7424999Y-13100000D01*
X7425000Y-13099999D01*
X7425000Y-13052175D01*
X7418598Y-12992629D01*
X7418596Y-12992618D01*
X7368354Y-12857913D01*
X7331984Y-12809329D01*
X7312247Y-12751415D01*
X7330321Y-12692960D01*
X7331984Y-12690671D01*
X7368354Y-12642086D01*
X7418596Y-12507381D01*
X7418598Y-12507369D01*
X7421430Y-12481028D01*
X7446447Y-12425191D01*
X7499507Y-12394722D01*
X7560342Y-12401261D01*
X7589867Y-12421603D01*
X7692688Y-12524424D01*
X7720465Y-12578941D01*
X7720676Y-12608514D01*
X7717589Y-12629997D01*
X7717588Y-12630002D01*
X7738069Y-12772456D01*
X7796318Y-12900001D01*
X7797858Y-12903373D01*
X7862971Y-12978518D01*
X7892108Y-13012144D01*
X7998087Y-13080252D01*
X8013182Y-13089953D01*
X8119638Y-13121211D01*
X8151270Y-13130499D01*
X8151271Y-13130499D01*
X8151274Y-13130500D01*
X8151276Y-13130500D01*
X8295194Y-13130500D01*
X8295196Y-13130500D01*
X8433288Y-13089953D01*
X8554363Y-13012143D01*
X8648612Y-12903373D01*
X8708400Y-12772457D01*
X8720255Y-12690002D01*
X8728882Y-12630002D01*
X8728882Y-12629997D01*
X8708400Y-12487543D01*
X8700618Y-12470504D01*
X8648612Y-12356627D01*
X8554363Y-12247857D01*
X8554362Y-12247856D01*
X8554361Y-12247855D01*
X8433292Y-12170049D01*
X8433289Y-12170047D01*
X8433288Y-12170047D01*
X8433285Y-12170046D01*
X8295199Y-12129500D01*
X8295196Y-12129500D01*
X8188714Y-12129500D01*
X8130523Y-12110593D01*
X8118710Y-12100504D01*
X7825247Y-11807041D01*
X7527746Y-11509540D01*
X7527743Y-11509538D01*
X7494697Y-11490459D01*
X7494695Y-11490458D01*
X7474496Y-11478796D01*
X7433558Y-11433326D01*
X7426872Y-11401873D01*
X7424999Y-11400000D01*
X6954689Y-11400000D01*
X6944988Y-11399524D01*
X6944751Y-11399500D01*
X6944748Y-11399500D01*
X5655252Y-11399500D01*
X5655248Y-11399500D01*
X5655012Y-11399524D01*
X5645311Y-11400000D01*
X5175001Y-11400000D01*
X5175000Y-11400001D01*
X5175000Y-11447824D01*
X5174999Y-11447824D01*
X5181401Y-11507370D01*
X5181403Y-11507381D01*
X5231645Y-11642087D01*
X5268015Y-11690671D01*
X5287752Y-11748586D01*
X5269678Y-11807041D01*
X5268015Y-11809329D01*
X5231645Y-11857912D01*
X5181403Y-11992618D01*
X5181401Y-11992629D01*
X5175000Y-12052175D01*
X5175000Y-12099999D01*
X5175001Y-12100000D01*
X5645311Y-12100000D01*
X5655012Y-12100476D01*
X5655248Y-12100499D01*
X5655252Y-12100500D01*
X5655256Y-12100500D01*
X6351000Y-12100500D01*
X6409191Y-12119407D01*
X6445155Y-12168907D01*
X6450000Y-12199500D01*
X6450000Y-12300500D01*
X6431093Y-12358691D01*
X6381593Y-12394655D01*
X6351000Y-12399500D01*
X5655252Y-12399500D01*
X5655248Y-12399500D01*
X5655012Y-12399524D01*
X5645311Y-12400000D01*
X5256181Y-12400000D01*
X5197990Y-12381093D01*
X5181362Y-12365831D01*
X5131128Y-12307857D01*
X5091336Y-12282284D01*
X5081888Y-12270730D01*
X5060927Y-12262741D01*
X5010057Y-12230049D01*
X5010054Y-12230047D01*
X5010053Y-12230047D01*
X5010050Y-12230046D01*
X4871964Y-12189500D01*
X4871961Y-12189500D01*
X4728039Y-12189500D01*
X4728035Y-12189500D01*
X4589949Y-12230046D01*
X4589942Y-12230049D01*
X4468873Y-12307855D01*
X4374622Y-12416628D01*
X4314834Y-12547543D01*
X4294353Y-12689997D01*
X-500000Y-12689997D01*
X-500000Y-10400001D01*
X5175000Y-10400001D01*
X5175000Y-10447820D01*
X5181401Y-10507370D01*
X5181403Y-10507381D01*
X5231645Y-10642087D01*
X5268015Y-10690671D01*
X5287752Y-10748586D01*
X5269678Y-10807041D01*
X5268015Y-10809329D01*
X5231645Y-10857912D01*
X5181403Y-10992618D01*
X5181401Y-10992629D01*
X5175000Y-11052175D01*
X5175000Y-11099999D01*
X5175001Y-11100000D01*
X5645311Y-11100000D01*
X5655012Y-11100476D01*
X5655248Y-11100499D01*
X5655252Y-11100500D01*
X5655256Y-11100500D01*
X6944744Y-11100500D01*
X6944748Y-11100500D01*
X6944751Y-11100499D01*
X6944988Y-11100476D01*
X6954689Y-11100000D01*
X7424999Y-11100000D01*
X7445503Y-11079496D01*
X7500020Y-11051719D01*
X7515507Y-11050500D01*
X9164521Y-11050500D01*
X9222712Y-11069407D01*
X9234525Y-11079496D01*
X9329453Y-11174424D01*
X9357230Y-11228941D01*
X9357441Y-11258514D01*
X9354354Y-11279997D01*
X9354353Y-11280002D01*
X9374834Y-11422456D01*
X9433311Y-11550500D01*
X9434623Y-11553373D01*
X9511494Y-11642087D01*
X9528873Y-11662144D01*
X9649942Y-11739950D01*
X9649947Y-11739953D01*
X9756403Y-11771211D01*
X9788035Y-11780499D01*
X9788036Y-11780499D01*
X9788039Y-11780500D01*
X9788041Y-11780500D01*
X9931959Y-11780500D01*
X9931961Y-11780500D01*
X10070053Y-11739953D01*
X10191128Y-11662143D01*
X10285377Y-11553373D01*
X10345165Y-11422457D01*
X10354445Y-11357911D01*
X10365647Y-11280002D01*
X10365647Y-11279997D01*
X10345165Y-11137543D01*
X10318996Y-11080241D01*
X10285377Y-11006627D01*
X10191128Y-10897857D01*
X10191127Y-10897856D01*
X10191126Y-10897855D01*
X10070057Y-10820049D01*
X10070054Y-10820047D01*
X10070053Y-10820047D01*
X10070050Y-10820046D01*
X9931964Y-10779500D01*
X9931961Y-10779500D01*
X9825479Y-10779500D01*
X9767288Y-10760593D01*
X9755476Y-10750504D01*
X9514510Y-10509539D01*
X9481464Y-10490460D01*
X9481462Y-10490459D01*
X9445989Y-10469979D01*
X9445986Y-10469978D01*
X9369564Y-10449500D01*
X9369562Y-10449500D01*
X7515507Y-10449500D01*
X7457316Y-10430593D01*
X7445503Y-10420504D01*
X7424999Y-10400000D01*
X6954689Y-10400000D01*
X6944988Y-10399524D01*
X6944751Y-10399500D01*
X6944748Y-10399500D01*
X5655252Y-10399500D01*
X5655248Y-10399500D01*
X5655012Y-10399524D01*
X5645311Y-10400000D01*
X5175001Y-10400000D01*
X5175000Y-10400001D01*
X-500000Y-10400001D01*
X-500000Y-8947824D01*
X5174999Y-8947824D01*
X5181401Y-9007370D01*
X5181403Y-9007381D01*
X5231646Y-9142088D01*
X5231647Y-9142090D01*
X5317807Y-9257184D01*
X5317815Y-9257192D01*
X5434829Y-9344788D01*
X5470082Y-9394796D01*
X5473134Y-9414999D01*
X5474024Y-9414912D01*
X5474500Y-9419751D01*
X5486621Y-9480686D01*
X5486621Y-9519314D01*
X5474500Y-9580248D01*
X5474024Y-9585088D01*
X5471610Y-9584850D01*
X5455593Y-9634148D01*
X5434829Y-9655210D01*
X5317815Y-9742807D01*
X5317807Y-9742815D01*
X5231647Y-9857909D01*
X5231646Y-9857911D01*
X5181403Y-9992618D01*
X5181401Y-9992629D01*
X5175000Y-10052175D01*
X5175000Y-10099999D01*
X5175001Y-10100000D01*
X5645311Y-10100000D01*
X5655012Y-10100476D01*
X5655248Y-10100499D01*
X5655252Y-10100500D01*
X5655256Y-10100500D01*
X6944744Y-10100500D01*
X6944748Y-10100500D01*
X6944751Y-10100499D01*
X6944988Y-10100476D01*
X6954689Y-10100000D01*
X7424999Y-10100000D01*
X7425000Y-10099999D01*
X7425000Y-10052175D01*
X7418598Y-9992624D01*
X7418597Y-9992623D01*
X7395668Y-9931147D01*
X7393048Y-9870018D01*
X7418420Y-9826550D01*
X7640460Y-9604511D01*
X7680021Y-9535988D01*
X7694840Y-9480686D01*
X7700499Y-9459566D01*
X7700564Y-9459075D01*
X7700716Y-9458754D01*
X7702180Y-9453294D01*
X7703192Y-9453565D01*
X7726907Y-9403851D01*
X7780679Y-9374657D01*
X7798717Y-9373000D01*
X9057021Y-9373000D01*
X9115212Y-9391907D01*
X9127025Y-9401996D01*
X9389453Y-9664424D01*
X9417230Y-9718941D01*
X9417441Y-9748514D01*
X9414354Y-9769997D01*
X9414353Y-9770002D01*
X9434834Y-9912456D01*
X9488525Y-10030021D01*
X9494623Y-10043373D01*
X9580479Y-10142457D01*
X9588873Y-10152144D01*
X9638215Y-10183854D01*
X9709947Y-10229953D01*
X9797270Y-10255593D01*
X9848035Y-10270499D01*
X9848036Y-10270499D01*
X9848039Y-10270500D01*
X9848041Y-10270500D01*
X9991959Y-10270500D01*
X9991961Y-10270500D01*
X10130053Y-10229953D01*
X10251128Y-10152143D01*
X10345377Y-10043373D01*
X10405165Y-9912457D01*
X10421982Y-9795489D01*
X10425647Y-9770002D01*
X10425647Y-9769997D01*
X10405165Y-9627543D01*
X10345377Y-9496627D01*
X10251128Y-9387857D01*
X10251127Y-9387856D01*
X10251126Y-9387855D01*
X10130057Y-9310049D01*
X10130054Y-9310047D01*
X10130053Y-9310047D01*
X10130050Y-9310046D01*
X9991964Y-9269500D01*
X9991961Y-9269500D01*
X9885479Y-9269500D01*
X9827288Y-9250593D01*
X9815476Y-9240504D01*
X9407010Y-8832039D01*
X9338492Y-8792480D01*
X9338488Y-8792478D01*
X9262064Y-8772000D01*
X9262062Y-8772000D01*
X7492007Y-8772000D01*
X7433816Y-8753093D01*
X7397852Y-8703593D01*
X7397852Y-8642407D01*
X7422003Y-8602996D01*
X7425000Y-8599999D01*
X7425000Y-8552175D01*
X7418598Y-8492629D01*
X7418596Y-8492618D01*
X7368353Y-8357911D01*
X7368352Y-8357909D01*
X7282192Y-8242815D01*
X7282184Y-8242807D01*
X7167090Y-8156647D01*
X7167088Y-8156646D01*
X7032381Y-8106403D01*
X7032370Y-8106401D01*
X6972824Y-8100000D01*
X6450001Y-8100000D01*
X6450000Y-8100001D01*
X6450000Y-8599999D01*
X6450001Y-8600000D01*
X7203490Y-8600000D01*
X7261681Y-8618907D01*
X7297645Y-8668407D01*
X7297645Y-8729593D01*
X7261681Y-8779093D01*
X7241373Y-8790465D01*
X7236507Y-8792480D01*
X7167989Y-8832039D01*
X7129024Y-8871004D01*
X7074507Y-8898781D01*
X7059021Y-8900000D01*
X6954689Y-8900000D01*
X6944988Y-8899524D01*
X6944751Y-8899500D01*
X6944748Y-8899500D01*
X5655252Y-8899500D01*
X5655248Y-8899500D01*
X5655012Y-8899524D01*
X5645311Y-8900000D01*
X5175001Y-8900000D01*
X5175000Y-8900001D01*
X5175000Y-8947824D01*
X5174999Y-8947824D01*
X-500000Y-8947824D01*
X-500000Y-8552175D01*
X5175000Y-8552175D01*
X5175000Y-8599999D01*
X5175001Y-8600000D01*
X6149999Y-8600000D01*
X6150000Y-8599999D01*
X6150000Y-8100001D01*
X6149999Y-8100000D01*
X5627176Y-8100000D01*
X5567629Y-8106401D01*
X5567618Y-8106403D01*
X5432911Y-8156646D01*
X5432909Y-8156647D01*
X5317815Y-8242807D01*
X5317807Y-8242815D01*
X5231647Y-8357909D01*
X5231646Y-8357911D01*
X5181403Y-8492618D01*
X5181401Y-8492629D01*
X5175000Y-8552175D01*
X-500000Y-8552175D01*
X-500000Y-6080253D01*
X2444500Y-6080253D01*
X2444500Y-7719746D01*
X2444501Y-7719758D01*
X2456132Y-7778227D01*
X2456134Y-7778233D01*
X2478793Y-7812144D01*
X2500448Y-7844552D01*
X2566769Y-7888867D01*
X2611231Y-7897711D01*
X2625241Y-7900498D01*
X2625246Y-7900498D01*
X2625252Y-7900500D01*
X2625253Y-7900500D01*
X4664747Y-7900500D01*
X4664748Y-7900500D01*
X4723231Y-7888867D01*
X4789552Y-7844552D01*
X4833867Y-7778231D01*
X4845500Y-7719748D01*
X4845500Y-6080252D01*
X4833867Y-6021769D01*
X4789552Y-5955448D01*
X4789548Y-5955445D01*
X4723233Y-5911134D01*
X4723231Y-5911133D01*
X4723228Y-5911132D01*
X4723227Y-5911132D01*
X4664758Y-5899501D01*
X4664748Y-5899500D01*
X2625252Y-5899500D01*
X2625251Y-5899500D01*
X2625241Y-5899501D01*
X2566772Y-5911132D01*
X2566766Y-5911134D01*
X2500451Y-5955445D01*
X2500445Y-5955451D01*
X2456134Y-6021766D01*
X2456132Y-6021772D01*
X2444501Y-6080241D01*
X2444500Y-6080253D01*
X-500000Y-6080253D01*
X-500000Y-5199500D01*
X-481093Y-5141309D01*
X-431593Y-5105345D01*
X-401000Y-5100500D01*
X19992Y-5100500D01*
X43283Y-5090852D01*
X56929Y-5085200D01*
X85200Y-5056929D01*
X100500Y-5019991D01*
X100500Y-2502984D01*
X100681Y-2497007D01*
X102181Y-2472209D01*
X124567Y-2415266D01*
X176148Y-2382356D01*
X237222Y-2386050D01*
X284460Y-2424937D01*
X300000Y-2478186D01*
X300000Y-3000002D01*
X599997Y-3699995D01*
X600000Y-3700000D01*
X694477Y-3813373D01*
X1100000Y-4300000D01*
X1900000Y-4700000D01*
X2899998Y-4700000D01*
X2900000Y-4700000D01*
X3500000Y-4600000D01*
X4100000Y-4100000D01*
X4500000Y-3600000D01*
X4606935Y-3225726D01*
X7929500Y-3225726D01*
X7929500Y-5834265D01*
X7932353Y-5864694D01*
X7932353Y-5864696D01*
X7932354Y-5864698D01*
X7968020Y-5966627D01*
X7977208Y-5992885D01*
X8057845Y-6102144D01*
X8057847Y-6102146D01*
X8057850Y-6102150D01*
X8057853Y-6102152D01*
X8057855Y-6102154D01*
X8167114Y-6182791D01*
X8167116Y-6182791D01*
X8167118Y-6182793D01*
X8295302Y-6227646D01*
X8325735Y-6230500D01*
X10034264Y-6230499D01*
X10034265Y-6230499D01*
X10040350Y-6229928D01*
X10064698Y-6227646D01*
X10192882Y-6182793D01*
X10302150Y-6102150D01*
X10382793Y-5992882D01*
X10427646Y-5864698D01*
X10430500Y-5834265D01*
X10430499Y-3225736D01*
X10427646Y-3195302D01*
X10382793Y-3067118D01*
X10382791Y-3067116D01*
X10382791Y-3067114D01*
X10302154Y-2957855D01*
X10302152Y-2957853D01*
X10302150Y-2957850D01*
X10302146Y-2957847D01*
X10302144Y-2957845D01*
X10192885Y-2877208D01*
X10178697Y-2872243D01*
X10064698Y-2832354D01*
X10064696Y-2832353D01*
X10064694Y-2832353D01*
X10034272Y-2829500D01*
X8325734Y-2829500D01*
X8295305Y-2832353D01*
X8167114Y-2877208D01*
X8057855Y-2957845D01*
X8057845Y-2957855D01*
X7977208Y-3067114D01*
X7932353Y-3195305D01*
X7929500Y-3225726D01*
X4606935Y-3225726D01*
X4700000Y-2900000D01*
X4700000Y-1900000D01*
X4500000Y-1400000D01*
X4100000Y-900000D01*
X3964573Y-791658D01*
X3852438Y-701950D01*
X3780443Y-644354D01*
X3672378Y-557902D01*
X3631563Y-525250D01*
X3600000Y-500000D01*
X3000000Y-300000D01*
X2478187Y-300000D01*
X2419996Y-281093D01*
X2384032Y-231593D01*
X2384032Y-170407D01*
X2419996Y-120907D01*
X2472210Y-102181D01*
X2497008Y-100681D01*
X2502985Y-100500D01*
X2526929Y-100500D01*
X11090794Y-100500D01*
X11148985Y-119407D01*
G37*
%TD.AperFunction*%
%TD*%
D19*
X20630000Y-16550000D03*
X25400000Y-16320000D03*
X47350000Y-2150000D03*
X18000000Y-6750000D03*
X25150000Y-15340000D03*
X40250000Y-17250000D03*
X45660000Y-4210000D03*
X24330000Y-3450000D03*
X48460000Y-22940000D03*
X44000000Y-6080000D03*
X21500000Y-12500000D03*
X51150000Y-15710000D03*
X22040000Y-6960000D03*
X25700000Y-9230000D03*
X51400000Y-8580000D03*
X41250000Y-11750000D03*
X14580000Y-17050000D03*
X31890000Y-16530000D03*
X17320000Y-15430000D03*
X35050000Y-5290000D03*
X11240000Y-11810000D03*
X19250000Y-11750000D03*
X29410000Y-7970000D03*
X28630000Y-3510000D03*
X30540000Y-15260000D03*
X44670000Y-20420000D03*
X2920000Y-15610000D03*
X32750000Y-3250000D03*
X15250000Y-12500000D03*
X26920000Y-5480000D03*
X23730000Y-5310000D03*
X29850000Y-19190000D03*
X47010000Y-17460000D03*
X6670000Y-3710000D03*
X34300000Y-10920000D03*
X35030000Y-19930000D03*
X6500000Y-17500000D03*
X31875000Y-6360000D03*
X42500000Y-14750000D03*
X36890000Y-16250000D03*
X16250000Y-9500000D03*
X47240000Y-21500000D03*
X34350000Y-6860000D03*
X43040000Y-21890000D03*
X11810000Y-6610000D03*
X26240000Y-19350000D03*
X13905000Y-23795000D03*
X12750000Y-4750000D03*
X3990000Y-9220000D03*
X3760000Y-13280000D03*
X7850000Y-15040000D03*
X36680000Y-11900000D03*
X27920000Y-5290000D03*
X41250000Y-7250000D03*
X41250000Y-13000000D03*
X19000000Y-6000000D03*
X9920000Y-9770000D03*
X4740000Y-15480000D03*
X45660000Y-6240000D03*
X45960000Y-19080000D03*
X25150000Y-18880000D03*
X25370000Y-24200000D03*
X6420000Y-18820000D03*
X45614044Y-11209389D03*
X21550000Y-18970000D03*
X45385000Y-17625000D03*
X42000000Y-17000000D03*
X4800000Y-12690000D03*
X21700000Y-22910000D03*
X43630000Y-19380000D03*
X8223235Y-12630000D03*
X23690000Y-21870000D03*
X23520000Y-18970000D03*
X45980000Y-14250000D03*
X44630000Y-14980000D03*
X9860000Y-11280000D03*
X18600000Y-19290000D03*
X20060000Y-20270000D03*
X25100000Y-7430000D03*
X26404743Y-7025257D03*
X31570000Y-13610000D03*
X31400000Y-10340000D03*
X45500000Y-10000000D03*
X13440000Y-3540000D03*
X11995000Y-10775000D03*
X15750000Y-7250000D03*
D20*
X2500000Y-2500000D03*
X51500000Y-22500000D03*
X5850000Y-23600000D03*
X7850000Y-23600000D03*
X9850000Y-23600000D03*
X11850000Y-23600000D03*
X51500000Y-2550000D03*
X20080000Y-2390000D03*
X22620000Y-2390000D03*
X2500000Y-22500000D03*
M02*
