%TF.GenerationSoftware,KiCad,Pcbnew,8.0.8*%
%TF.CreationDate,2025-06-12T10:34:06+01:00*%
%TF.ProjectId,Speaker,53706561-6b65-4722-9e6b-696361645f70,rev?*%
%TF.SameCoordinates,Original*%
%TF.FileFunction,Soldermask,Bot*%
%TF.FilePolarity,Negative*%
%FSLAX46Y46*%
G04 Gerber Fmt 4.6, Leading zero omitted, Abs format (unit mm)*
G04 Created by KiCad (PCBNEW 8.0.8) date 2025-06-12 10:34:06*
%MOMM*%
%LPD*%
G01*
G04 APERTURE LIST*
G04 Aperture macros list*
%AMRoundRect*
0 Rectangle with rounded corners*
0 $1 Rounding radius*
0 $2 $3 $4 $5 $6 $7 $8 $9 X,Y pos of 4 corners*
0 Add a 4 corners polygon primitive as box body*
4,1,4,$2,$3,$4,$5,$6,$7,$8,$9,$2,$3,0*
0 Add four circle primitives for the rounded corners*
1,1,$1+$1,$2,$3*
1,1,$1+$1,$4,$5*
1,1,$1+$1,$6,$7*
1,1,$1+$1,$8,$9*
0 Add four rect primitives between the rounded corners*
20,1,$1+$1,$2,$3,$4,$5,0*
20,1,$1+$1,$4,$5,$6,$7,0*
20,1,$1+$1,$6,$7,$8,$9,0*
20,1,$1+$1,$8,$9,$2,$3,0*%
G04 Aperture macros list end*
%ADD10C,2.700000*%
%ADD11R,1.350000X1.350000*%
%ADD12O,1.350000X1.350000*%
%ADD13C,1.400000*%
%ADD14RoundRect,0.147500X-0.147500X-0.172500X0.147500X-0.172500X0.147500X0.172500X-0.147500X0.172500X0*%
%ADD15R,2.000000X1.600000*%
%ADD16R,1.250000X0.300000*%
%ADD17RoundRect,0.147500X0.172500X-0.147500X0.172500X0.147500X-0.172500X0.147500X-0.172500X-0.147500X0*%
%ADD18RoundRect,0.147500X0.147500X0.172500X-0.147500X0.172500X-0.147500X-0.172500X0.147500X-0.172500X0*%
%ADD19R,2.500000X1.000000*%
%ADD20R,2.000000X1.000000*%
%ADD21RoundRect,0.100000X-0.637500X-0.100000X0.637500X-0.100000X0.637500X0.100000X-0.637500X0.100000X0*%
%ADD22RoundRect,0.147500X-0.172500X0.147500X-0.172500X-0.147500X0.172500X-0.147500X0.172500X0.147500X0*%
%ADD23RoundRect,0.200000X-0.200000X-0.600000X0.200000X-0.600000X0.200000X0.600000X-0.200000X0.600000X0*%
%ADD24RoundRect,0.250001X-0.799999X-1.249999X0.799999X-1.249999X0.799999X1.249999X-0.799999X1.249999X0*%
%ADD25R,0.650000X1.060000*%
%ADD26R,0.270000X0.840000*%
%ADD27R,0.840000X0.270000*%
%ADD28R,1.100000X1.100000*%
%ADD29RoundRect,0.100000X0.712500X0.100000X-0.712500X0.100000X-0.712500X-0.100000X0.712500X-0.100000X0*%
G04 APERTURE END LIST*
D10*
%TO.C,H3*%
X2500000Y-2500000D03*
%TD*%
%TO.C,H4*%
X51500000Y-22500000D03*
%TD*%
D11*
%TO.C,J4*%
X5850000Y-23600000D03*
D12*
X7850000Y-23600000D03*
X9850000Y-23600000D03*
X11850000Y-23600000D03*
%TD*%
D10*
%TO.C,H2*%
X51500000Y-2550000D03*
%TD*%
D13*
%TO.C,TP1*%
X20080000Y-2390000D03*
X22620000Y-2390000D03*
%TD*%
D10*
%TO.C,H1*%
X2500000Y-22500000D03*
%TD*%
D14*
%TO.C,C9*%
X16350000Y-17900000D03*
X17320000Y-17900000D03*
%TD*%
%TO.C,C10*%
X31030000Y-2500000D03*
X32000000Y-2500000D03*
%TD*%
D15*
%TO.C,J6*%
X39920000Y-15600000D03*
X39920000Y-4400000D03*
D16*
X42575000Y-13750000D03*
X42575000Y-13250000D03*
X42575000Y-12750000D03*
X42575000Y-12250000D03*
X42575000Y-11750000D03*
X42575000Y-11250000D03*
X42575000Y-10750000D03*
X42575000Y-10250000D03*
X42575000Y-9750000D03*
X42575000Y-9250000D03*
X42575000Y-8750000D03*
X42575000Y-8250000D03*
X42575000Y-7750000D03*
X42575000Y-7250000D03*
X42575000Y-6750000D03*
X42575000Y-6250000D03*
%TD*%
D17*
%TO.C,C5*%
X12750000Y-9985000D03*
X12750000Y-9015000D03*
%TD*%
D18*
%TO.C,R4*%
X26125000Y-17737500D03*
X25155000Y-17737500D03*
%TD*%
%TO.C,R9*%
X26410000Y-13177500D03*
X25440000Y-13177500D03*
%TD*%
D19*
%TO.C,J1*%
X7525000Y-6150000D03*
X7525000Y-8690000D03*
X7525000Y-11230000D03*
X7525000Y-13770000D03*
X7525000Y-16310000D03*
X7525000Y-18850000D03*
%TD*%
D20*
%TO.C,J3*%
X48075000Y-18850000D03*
X48075000Y-16310000D03*
X48075000Y-13770000D03*
X48075000Y-11230000D03*
X48075000Y-8690000D03*
X48075000Y-6150000D03*
%TD*%
D17*
%TO.C,C3*%
X26370000Y-16247500D03*
X26370000Y-15277500D03*
%TD*%
D14*
%TO.C,C1*%
X23560000Y-9295000D03*
X24530000Y-9295000D03*
%TD*%
D21*
%TO.C,U5*%
X29017500Y-17642500D03*
X29017500Y-16992500D03*
X29017500Y-16342500D03*
X29017500Y-15692500D03*
X29017500Y-15042500D03*
X29017500Y-14392500D03*
X29017500Y-13742500D03*
X29017500Y-13092500D03*
X29017500Y-12442500D03*
X29017500Y-11792500D03*
X34742500Y-11792500D03*
X34742500Y-12442500D03*
X34742500Y-13092500D03*
X34742500Y-13742500D03*
X34742500Y-14392500D03*
X34742500Y-15042500D03*
X34742500Y-15692500D03*
X34742500Y-16342500D03*
X34742500Y-16992500D03*
X34742500Y-17642500D03*
%TD*%
D18*
%TO.C,R10*%
X26410000Y-12137500D03*
X25440000Y-12137500D03*
%TD*%
D22*
%TO.C,C4*%
X26800000Y-2435000D03*
X26800000Y-3405000D03*
%TD*%
D18*
%TO.C,C8*%
X18185000Y-12900000D03*
X17215000Y-12900000D03*
%TD*%
%TO.C,C7*%
X26425000Y-14247500D03*
X25455000Y-14247500D03*
%TD*%
D22*
%TO.C,C6*%
X22430000Y-8060000D03*
X22430000Y-9030000D03*
%TD*%
D23*
%TO.C,J5*%
X13375000Y-6650000D03*
X14625000Y-6650000D03*
D24*
X10825000Y-3750000D03*
X17175000Y-3750000D03*
%TD*%
D25*
%TO.C,U2*%
X16350000Y-14300000D03*
X17300000Y-14300000D03*
X18250000Y-14300000D03*
X18250000Y-16500000D03*
X16350000Y-16500000D03*
%TD*%
D18*
%TO.C,R2*%
X31045000Y-9010000D03*
X30075000Y-9010000D03*
%TD*%
D26*
%TO.C,U4*%
X32625000Y-7795000D03*
X32125000Y-7795000D03*
X31625000Y-7795000D03*
X31125000Y-7795000D03*
D27*
X30440000Y-7110000D03*
X30440000Y-6610000D03*
X30440000Y-6110000D03*
X30440000Y-5610000D03*
D26*
X31125000Y-4925000D03*
X31625000Y-4925000D03*
X32125000Y-4925000D03*
X32625000Y-4925000D03*
D27*
X33310000Y-5610000D03*
X33310000Y-6110000D03*
X33310000Y-6610000D03*
X33310000Y-7110000D03*
D28*
X31875000Y-6360000D03*
%TD*%
D22*
%TO.C,R1*%
X23490000Y-7095000D03*
X23490000Y-8065000D03*
%TD*%
%TO.C,C2*%
X28880000Y-5715000D03*
X28880000Y-6685000D03*
%TD*%
D18*
%TO.C,R3*%
X21000000Y-7250000D03*
X20030000Y-7250000D03*
%TD*%
%TO.C,R11*%
X26430000Y-11047500D03*
X25460000Y-11047500D03*
%TD*%
D29*
%TO.C,U1*%
X19000000Y-8800000D03*
X19000000Y-9450000D03*
X19000000Y-10100000D03*
X19000000Y-10750000D03*
X14775000Y-10750000D03*
X14775000Y-10100000D03*
X14775000Y-9450000D03*
X14775000Y-8800000D03*
%TD*%
M02*
