%TF.GenerationSoftware,KiCad,Pcbnew,8.0.6-8.0.6-0~ubuntu24.04.1*%
%TF.CreationDate,2024-10-19T18:08:10+01:00*%
%TF.ProjectId,IMU,494d552e-6b69-4636-9164-5f7063625858,rev?*%
%TF.SameCoordinates,Original*%
%TF.FileFunction,Legend,Bot*%
%TF.FilePolarity,Positive*%
%FSLAX46Y46*%
G04 Gerber Fmt 4.6, Leading zero omitted, Abs format (unit mm)*
G04 Created by KiCad (PCBNEW 8.0.6-8.0.6-0~ubuntu24.04.1) date 2024-10-19 18:08:10*
%MOMM*%
%LPD*%
G01*
G04 APERTURE LIST*
%ADD10C,0.150000*%
%ADD11C,0.250000*%
%ADD12C,0.350000*%
G04 APERTURE END LIST*
D10*
X11356200Y-18651064D02*
X11394295Y-18765350D01*
X11394295Y-18765350D02*
X11394295Y-18955826D01*
X11394295Y-18955826D02*
X11356200Y-19032017D01*
X11356200Y-19032017D02*
X11318104Y-19070112D01*
X11318104Y-19070112D02*
X11241914Y-19108207D01*
X11241914Y-19108207D02*
X11165723Y-19108207D01*
X11165723Y-19108207D02*
X11089533Y-19070112D01*
X11089533Y-19070112D02*
X11051438Y-19032017D01*
X11051438Y-19032017D02*
X11013342Y-18955826D01*
X11013342Y-18955826D02*
X10975247Y-18803445D01*
X10975247Y-18803445D02*
X10937152Y-18727255D01*
X10937152Y-18727255D02*
X10899057Y-18689160D01*
X10899057Y-18689160D02*
X10822866Y-18651064D01*
X10822866Y-18651064D02*
X10746676Y-18651064D01*
X10746676Y-18651064D02*
X10670485Y-18689160D01*
X10670485Y-18689160D02*
X10632390Y-18727255D01*
X10632390Y-18727255D02*
X10594295Y-18803445D01*
X10594295Y-18803445D02*
X10594295Y-18993922D01*
X10594295Y-18993922D02*
X10632390Y-19108207D01*
X10594295Y-19374874D02*
X11394295Y-19565350D01*
X11394295Y-19565350D02*
X10822866Y-19717731D01*
X10822866Y-19717731D02*
X11394295Y-19870112D01*
X11394295Y-19870112D02*
X10594295Y-20060589D01*
X11394295Y-20365351D02*
X10594295Y-20365351D01*
X10594295Y-20365351D02*
X10594295Y-20555827D01*
X10594295Y-20555827D02*
X10632390Y-20670113D01*
X10632390Y-20670113D02*
X10708580Y-20746303D01*
X10708580Y-20746303D02*
X10784771Y-20784398D01*
X10784771Y-20784398D02*
X10937152Y-20822494D01*
X10937152Y-20822494D02*
X11051438Y-20822494D01*
X11051438Y-20822494D02*
X11203819Y-20784398D01*
X11203819Y-20784398D02*
X11280009Y-20746303D01*
X11280009Y-20746303D02*
X11356200Y-20670113D01*
X11356200Y-20670113D02*
X11394295Y-20555827D01*
X11394295Y-20555827D02*
X11394295Y-20365351D01*
X11394295Y-21165351D02*
X10594295Y-21165351D01*
X10594295Y-21698684D02*
X10594295Y-21851065D01*
X10594295Y-21851065D02*
X10632390Y-21927255D01*
X10632390Y-21927255D02*
X10708580Y-22003446D01*
X10708580Y-22003446D02*
X10860961Y-22041541D01*
X10860961Y-22041541D02*
X11127628Y-22041541D01*
X11127628Y-22041541D02*
X11280009Y-22003446D01*
X11280009Y-22003446D02*
X11356200Y-21927255D01*
X11356200Y-21927255D02*
X11394295Y-21851065D01*
X11394295Y-21851065D02*
X11394295Y-21698684D01*
X11394295Y-21698684D02*
X11356200Y-21622493D01*
X11356200Y-21622493D02*
X11280009Y-21546303D01*
X11280009Y-21546303D02*
X11127628Y-21508207D01*
X11127628Y-21508207D02*
X10860961Y-21508207D01*
X10860961Y-21508207D02*
X10708580Y-21546303D01*
X10708580Y-21546303D02*
X10632390Y-21622493D01*
X10632390Y-21622493D02*
X10594295Y-21698684D01*
X6569295Y-21170112D02*
X6569295Y-20789160D01*
X6569295Y-20789160D02*
X6950247Y-20751064D01*
X6950247Y-20751064D02*
X6912152Y-20789160D01*
X6912152Y-20789160D02*
X6874057Y-20865350D01*
X6874057Y-20865350D02*
X6874057Y-21055826D01*
X6874057Y-21055826D02*
X6912152Y-21132017D01*
X6912152Y-21132017D02*
X6950247Y-21170112D01*
X6950247Y-21170112D02*
X7026438Y-21208207D01*
X7026438Y-21208207D02*
X7216914Y-21208207D01*
X7216914Y-21208207D02*
X7293104Y-21170112D01*
X7293104Y-21170112D02*
X7331200Y-21132017D01*
X7331200Y-21132017D02*
X7369295Y-21055826D01*
X7369295Y-21055826D02*
X7369295Y-20865350D01*
X7369295Y-20865350D02*
X7331200Y-20789160D01*
X7331200Y-20789160D02*
X7293104Y-20751064D01*
X6569295Y-21436779D02*
X7369295Y-21703446D01*
X7369295Y-21703446D02*
X6569295Y-21970112D01*
D11*
X23339998Y-23741099D02*
X23339998Y-22741099D01*
X22863808Y-23741099D02*
X22863808Y-22741099D01*
X22863808Y-22741099D02*
X22530475Y-23455384D01*
X22530475Y-23455384D02*
X22197142Y-22741099D01*
X22197142Y-22741099D02*
X22197142Y-23741099D01*
X21720951Y-22741099D02*
X21720951Y-23550622D01*
X21720951Y-23550622D02*
X21673332Y-23645860D01*
X21673332Y-23645860D02*
X21625713Y-23693480D01*
X21625713Y-23693480D02*
X21530475Y-23741099D01*
X21530475Y-23741099D02*
X21339999Y-23741099D01*
X21339999Y-23741099D02*
X21244761Y-23693480D01*
X21244761Y-23693480D02*
X21197142Y-23645860D01*
X21197142Y-23645860D02*
X21149523Y-23550622D01*
X21149523Y-23550622D02*
X21149523Y-22741099D01*
X20006665Y-23074432D02*
X19768570Y-23741099D01*
X19768570Y-23741099D02*
X19530475Y-23074432D01*
X18625713Y-23741099D02*
X19197141Y-23741099D01*
X18911427Y-23741099D02*
X18911427Y-22741099D01*
X18911427Y-22741099D02*
X19006665Y-22883956D01*
X19006665Y-22883956D02*
X19101903Y-22979194D01*
X19101903Y-22979194D02*
X19197141Y-23026813D01*
X18197141Y-23645860D02*
X18149522Y-23693480D01*
X18149522Y-23693480D02*
X18197141Y-23741099D01*
X18197141Y-23741099D02*
X18244760Y-23693480D01*
X18244760Y-23693480D02*
X18197141Y-23645860D01*
X18197141Y-23645860D02*
X18197141Y-23741099D01*
X17530475Y-22741099D02*
X17435237Y-22741099D01*
X17435237Y-22741099D02*
X17339999Y-22788718D01*
X17339999Y-22788718D02*
X17292380Y-22836337D01*
X17292380Y-22836337D02*
X17244761Y-22931575D01*
X17244761Y-22931575D02*
X17197142Y-23122051D01*
X17197142Y-23122051D02*
X17197142Y-23360146D01*
X17197142Y-23360146D02*
X17244761Y-23550622D01*
X17244761Y-23550622D02*
X17292380Y-23645860D01*
X17292380Y-23645860D02*
X17339999Y-23693480D01*
X17339999Y-23693480D02*
X17435237Y-23741099D01*
X17435237Y-23741099D02*
X17530475Y-23741099D01*
X17530475Y-23741099D02*
X17625713Y-23693480D01*
X17625713Y-23693480D02*
X17673332Y-23645860D01*
X17673332Y-23645860D02*
X17720951Y-23550622D01*
X17720951Y-23550622D02*
X17768570Y-23360146D01*
X17768570Y-23360146D02*
X17768570Y-23122051D01*
X17768570Y-23122051D02*
X17720951Y-22931575D01*
X17720951Y-22931575D02*
X17673332Y-22836337D01*
X17673332Y-22836337D02*
X17625713Y-22788718D01*
X17625713Y-22788718D02*
X17530475Y-22741099D01*
D12*
X6950000Y-23250000D03*
X8950000Y-23250000D03*
X10950000Y-23250000D03*
X12950000Y-23250000D03*
X22500000Y-2550000D03*
X2500000Y-22500000D03*
M02*
