%TF.GenerationSoftware,KiCad,Pcbnew,8.0.6-8.0.6-0~ubuntu24.04.1*%
%TF.CreationDate,2024-10-19T18:08:10+01:00*%
%TF.ProjectId,LedMatrix,4c65644d-6174-4726-9978-2e6b69636164,rev?*%
%TF.SameCoordinates,Original*%
%TF.FileFunction,Legend,Top*%
%TF.FilePolarity,Positive*%
%FSLAX46Y46*%
G04 Gerber Fmt 4.6, Leading zero omitted, Abs format (unit mm)*
G04 Created by KiCad (PCBNEW 8.0.6-8.0.6-0~ubuntu24.04.1) date 2024-10-19 18:08:10*
%MOMM*%
%LPD*%
G01*
G04 APERTURE LIST*
%ADD10C,0.300000*%
%ADD11C,0.100000*%
%ADD12C,0.120000*%
%ADD13C,0.350000*%
G04 APERTURE END LIST*
D10*
X750000Y-19850000D02*
X2550000Y-19850000D01*
X73550000Y-19175000D02*
X73550000Y-20825000D01*
D11*
%TO.C,D34*%
X56175000Y-9200000D02*
G75*
G02*
X55925000Y-9200000I-125000J0D01*
G01*
X55925000Y-9200000D02*
G75*
G02*
X56175000Y-9200000I125000J0D01*
G01*
%TO.C,D5*%
X37425000Y-1700000D02*
G75*
G02*
X37175000Y-1700000I-125000J0D01*
G01*
X37175000Y-1700000D02*
G75*
G02*
X37425000Y-1700000I125000J0D01*
G01*
%TO.C,D32*%
X48675000Y-9200000D02*
G75*
G02*
X48425000Y-9200000I-125000J0D01*
G01*
X48425000Y-9200000D02*
G75*
G02*
X48675000Y-9200000I125000J0D01*
G01*
%TO.C,D6*%
X41175000Y-1700000D02*
G75*
G02*
X40925000Y-1700000I-125000J0D01*
G01*
X40925000Y-1700000D02*
G75*
G02*
X41175000Y-1700000I125000J0D01*
G01*
%TO.C,D67*%
X44925000Y-20450000D02*
G75*
G02*
X44675000Y-20450000I-125000J0D01*
G01*
X44675000Y-20450000D02*
G75*
G02*
X44925000Y-20450000I125000J0D01*
G01*
%TO.C,D49*%
X22425000Y-16700000D02*
G75*
G02*
X22175000Y-16700000I-125000J0D01*
G01*
X22175000Y-16700000D02*
G75*
G02*
X22425000Y-16700000I125000J0D01*
G01*
%TO.C,D54*%
X41175000Y-16700000D02*
G75*
G02*
X40925000Y-16700000I-125000J0D01*
G01*
X40925000Y-16700000D02*
G75*
G02*
X41175000Y-16700000I125000J0D01*
G01*
%TO.C,D58*%
X56175000Y-16700000D02*
G75*
G02*
X55925000Y-16700000I-125000J0D01*
G01*
X55925000Y-16700000D02*
G75*
G02*
X56175000Y-16700000I125000J0D01*
G01*
%TO.C,D9*%
X52425000Y-1700000D02*
G75*
G02*
X52175000Y-1700000I-125000J0D01*
G01*
X52175000Y-1700000D02*
G75*
G02*
X52425000Y-1700000I125000J0D01*
G01*
%TO.C,D72*%
X63675000Y-20450000D02*
G75*
G02*
X63425000Y-20450000I-125000J0D01*
G01*
X63425000Y-20450000D02*
G75*
G02*
X63675000Y-20450000I125000J0D01*
G01*
%TO.C,D13*%
X22425000Y-5450000D02*
G75*
G02*
X22175000Y-5450000I-125000J0D01*
G01*
X22175000Y-5450000D02*
G75*
G02*
X22425000Y-5450000I125000J0D01*
G01*
%TO.C,D50*%
X26175000Y-16700000D02*
G75*
G02*
X25925000Y-16700000I-125000J0D01*
G01*
X25925000Y-16700000D02*
G75*
G02*
X26175000Y-16700000I125000J0D01*
G01*
%TO.C,D53*%
X37425000Y-16700000D02*
G75*
G02*
X37175000Y-16700000I-125000J0D01*
G01*
X37175000Y-16700000D02*
G75*
G02*
X37425000Y-16700000I125000J0D01*
G01*
%TO.C,D33*%
X52425000Y-9200000D02*
G75*
G02*
X52175000Y-9200000I-125000J0D01*
G01*
X52175000Y-9200000D02*
G75*
G02*
X52425000Y-9200000I125000J0D01*
G01*
%TO.C,D47*%
X59925000Y-12950000D02*
G75*
G02*
X59675000Y-12950000I-125000J0D01*
G01*
X59675000Y-12950000D02*
G75*
G02*
X59925000Y-12950000I125000J0D01*
G01*
%TO.C,D48*%
X63675000Y-12950000D02*
G75*
G02*
X63425000Y-12950000I-125000J0D01*
G01*
X63425000Y-12950000D02*
G75*
G02*
X63675000Y-12950000I125000J0D01*
G01*
%TO.C,D17*%
X37425000Y-5450000D02*
G75*
G02*
X37175000Y-5450000I-125000J0D01*
G01*
X37175000Y-5450000D02*
G75*
G02*
X37425000Y-5450000I125000J0D01*
G01*
%TO.C,D57*%
X52425000Y-16700000D02*
G75*
G02*
X52175000Y-16700000I-125000J0D01*
G01*
X52175000Y-16700000D02*
G75*
G02*
X52425000Y-16700000I125000J0D01*
G01*
%TO.C,D29*%
X37425000Y-9200000D02*
G75*
G02*
X37175000Y-9200000I-125000J0D01*
G01*
X37175000Y-9200000D02*
G75*
G02*
X37425000Y-9200000I125000J0D01*
G01*
%TO.C,D22*%
X56175000Y-5450000D02*
G75*
G02*
X55925000Y-5450000I-125000J0D01*
G01*
X55925000Y-5450000D02*
G75*
G02*
X56175000Y-5450000I125000J0D01*
G01*
%TO.C,D70*%
X56175000Y-20450000D02*
G75*
G02*
X55925000Y-20450000I-125000J0D01*
G01*
X55925000Y-20450000D02*
G75*
G02*
X56175000Y-20450000I125000J0D01*
G01*
%TO.C,D60*%
X63675000Y-16700000D02*
G75*
G02*
X63425000Y-16700000I-125000J0D01*
G01*
X63425000Y-16700000D02*
G75*
G02*
X63675000Y-16700000I125000J0D01*
G01*
%TO.C,D26*%
X26175000Y-9200000D02*
G75*
G02*
X25925000Y-9200000I-125000J0D01*
G01*
X25925000Y-9200000D02*
G75*
G02*
X26175000Y-9200000I125000J0D01*
G01*
%TO.C,D41*%
X37425000Y-12950000D02*
G75*
G02*
X37175000Y-12950000I-125000J0D01*
G01*
X37175000Y-12950000D02*
G75*
G02*
X37425000Y-12950000I125000J0D01*
G01*
%TO.C,D14*%
X26175000Y-5450000D02*
G75*
G02*
X25925000Y-5450000I-125000J0D01*
G01*
X25925000Y-5450000D02*
G75*
G02*
X26175000Y-5450000I125000J0D01*
G01*
%TO.C,D31*%
X44925000Y-9200000D02*
G75*
G02*
X44675000Y-9200000I-125000J0D01*
G01*
X44675000Y-9200000D02*
G75*
G02*
X44925000Y-9200000I125000J0D01*
G01*
%TO.C,D10*%
X56175000Y-1700000D02*
G75*
G02*
X55925000Y-1700000I-125000J0D01*
G01*
X55925000Y-1700000D02*
G75*
G02*
X56175000Y-1700000I125000J0D01*
G01*
%TO.C,D68*%
X48675000Y-20450000D02*
G75*
G02*
X48425000Y-20450000I-125000J0D01*
G01*
X48425000Y-20450000D02*
G75*
G02*
X48675000Y-20450000I125000J0D01*
G01*
%TO.C,D38*%
X26175000Y-12950000D02*
G75*
G02*
X25925000Y-12950000I-125000J0D01*
G01*
X25925000Y-12950000D02*
G75*
G02*
X26175000Y-12950000I125000J0D01*
G01*
%TO.C,D35*%
X59925000Y-9200000D02*
G75*
G02*
X59675000Y-9200000I-125000J0D01*
G01*
X59675000Y-9200000D02*
G75*
G02*
X59925000Y-9200000I125000J0D01*
G01*
%TO.C,D36*%
X63675000Y-9200000D02*
G75*
G02*
X63425000Y-9200000I-125000J0D01*
G01*
X63425000Y-9200000D02*
G75*
G02*
X63675000Y-9200000I125000J0D01*
G01*
%TO.C,D7*%
X44925000Y-1700000D02*
G75*
G02*
X44675000Y-1700000I-125000J0D01*
G01*
X44675000Y-1700000D02*
G75*
G02*
X44925000Y-1700000I125000J0D01*
G01*
%TO.C,D24*%
X63675000Y-5450000D02*
G75*
G02*
X63425000Y-5450000I-125000J0D01*
G01*
X63425000Y-5450000D02*
G75*
G02*
X63675000Y-5450000I125000J0D01*
G01*
%TO.C,D71*%
X59925000Y-20450000D02*
G75*
G02*
X59675000Y-20450000I-125000J0D01*
G01*
X59675000Y-20450000D02*
G75*
G02*
X59925000Y-20450000I125000J0D01*
G01*
%TO.C,D37*%
X22425000Y-12950000D02*
G75*
G02*
X22175000Y-12950000I-125000J0D01*
G01*
X22175000Y-12950000D02*
G75*
G02*
X22425000Y-12950000I125000J0D01*
G01*
%TO.C,D1*%
X22425000Y-1700000D02*
G75*
G02*
X22175000Y-1700000I-125000J0D01*
G01*
X22175000Y-1700000D02*
G75*
G02*
X22425000Y-1700000I125000J0D01*
G01*
%TO.C,D64*%
X33675000Y-20450000D02*
G75*
G02*
X33425000Y-20450000I-125000J0D01*
G01*
X33425000Y-20450000D02*
G75*
G02*
X33675000Y-20450000I125000J0D01*
G01*
%TO.C,D23*%
X59925000Y-5450000D02*
G75*
G02*
X59675000Y-5450000I-125000J0D01*
G01*
X59675000Y-5450000D02*
G75*
G02*
X59925000Y-5450000I125000J0D01*
G01*
%TO.C,D19*%
X44925000Y-5450000D02*
G75*
G02*
X44675000Y-5450000I-125000J0D01*
G01*
X44675000Y-5450000D02*
G75*
G02*
X44925000Y-5450000I125000J0D01*
G01*
%TO.C,D69*%
X52425000Y-20450000D02*
G75*
G02*
X52175000Y-20450000I-125000J0D01*
G01*
X52175000Y-20450000D02*
G75*
G02*
X52425000Y-20450000I125000J0D01*
G01*
%TO.C,D2*%
X26175000Y-1700000D02*
G75*
G02*
X25925000Y-1700000I-125000J0D01*
G01*
X25925000Y-1700000D02*
G75*
G02*
X26175000Y-1700000I125000J0D01*
G01*
%TO.C,D45*%
X52425000Y-12950000D02*
G75*
G02*
X52175000Y-12950000I-125000J0D01*
G01*
X52175000Y-12950000D02*
G75*
G02*
X52425000Y-12950000I125000J0D01*
G01*
%TO.C,D20*%
X48675000Y-5450000D02*
G75*
G02*
X48425000Y-5450000I-125000J0D01*
G01*
X48425000Y-5450000D02*
G75*
G02*
X48675000Y-5450000I125000J0D01*
G01*
D12*
%TO.C,U3*%
X15592500Y-17525000D02*
X15112500Y-17525000D01*
X15352500Y-17195000D01*
X15592500Y-17525000D01*
G36*
X15592500Y-17525000D02*
G01*
X15112500Y-17525000D01*
X15352500Y-17195000D01*
X15592500Y-17525000D01*
G37*
D11*
%TO.C,D18*%
X41175000Y-5450000D02*
G75*
G02*
X40925000Y-5450000I-125000J0D01*
G01*
X40925000Y-5450000D02*
G75*
G02*
X41175000Y-5450000I125000J0D01*
G01*
%TO.C,D66*%
X41175000Y-20450000D02*
G75*
G02*
X40925000Y-20450000I-125000J0D01*
G01*
X40925000Y-20450000D02*
G75*
G02*
X41175000Y-20450000I125000J0D01*
G01*
%TO.C,D44*%
X48675000Y-12950000D02*
G75*
G02*
X48425000Y-12950000I-125000J0D01*
G01*
X48425000Y-12950000D02*
G75*
G02*
X48675000Y-12950000I125000J0D01*
G01*
%TO.C,D39*%
X29925000Y-12950000D02*
G75*
G02*
X29675000Y-12950000I-125000J0D01*
G01*
X29675000Y-12950000D02*
G75*
G02*
X29925000Y-12950000I125000J0D01*
G01*
%TO.C,D52*%
X33675000Y-16700000D02*
G75*
G02*
X33425000Y-16700000I-125000J0D01*
G01*
X33425000Y-16700000D02*
G75*
G02*
X33675000Y-16700000I125000J0D01*
G01*
%TO.C,D28*%
X33675000Y-9200000D02*
G75*
G02*
X33425000Y-9200000I-125000J0D01*
G01*
X33425000Y-9200000D02*
G75*
G02*
X33675000Y-9200000I125000J0D01*
G01*
%TO.C,D42*%
X41175000Y-12950000D02*
G75*
G02*
X40925000Y-12950000I-125000J0D01*
G01*
X40925000Y-12950000D02*
G75*
G02*
X41175000Y-12950000I125000J0D01*
G01*
%TO.C,D61*%
X22425000Y-20450000D02*
G75*
G02*
X22175000Y-20450000I-125000J0D01*
G01*
X22175000Y-20450000D02*
G75*
G02*
X22425000Y-20450000I125000J0D01*
G01*
%TO.C,D65*%
X37425000Y-20450000D02*
G75*
G02*
X37175000Y-20450000I-125000J0D01*
G01*
X37175000Y-20450000D02*
G75*
G02*
X37425000Y-20450000I125000J0D01*
G01*
%TO.C,D8*%
X48675000Y-1700000D02*
G75*
G02*
X48425000Y-1700000I-125000J0D01*
G01*
X48425000Y-1700000D02*
G75*
G02*
X48675000Y-1700000I125000J0D01*
G01*
%TO.C,D63*%
X29925000Y-20450000D02*
G75*
G02*
X29675000Y-20450000I-125000J0D01*
G01*
X29675000Y-20450000D02*
G75*
G02*
X29925000Y-20450000I125000J0D01*
G01*
%TO.C,D59*%
X59925000Y-16700000D02*
G75*
G02*
X59675000Y-16700000I-125000J0D01*
G01*
X59675000Y-16700000D02*
G75*
G02*
X59925000Y-16700000I125000J0D01*
G01*
%TO.C,D46*%
X56175000Y-12950000D02*
G75*
G02*
X55925000Y-12950000I-125000J0D01*
G01*
X55925000Y-12950000D02*
G75*
G02*
X56175000Y-12950000I125000J0D01*
G01*
%TO.C,D55*%
X44925000Y-16700000D02*
G75*
G02*
X44675000Y-16700000I-125000J0D01*
G01*
X44675000Y-16700000D02*
G75*
G02*
X44925000Y-16700000I125000J0D01*
G01*
%TO.C,D30*%
X41175000Y-9200000D02*
G75*
G02*
X40925000Y-9200000I-125000J0D01*
G01*
X40925000Y-9200000D02*
G75*
G02*
X41175000Y-9200000I125000J0D01*
G01*
%TO.C,D56*%
X48675000Y-16700000D02*
G75*
G02*
X48425000Y-16700000I-125000J0D01*
G01*
X48425000Y-16700000D02*
G75*
G02*
X48675000Y-16700000I125000J0D01*
G01*
%TO.C,D25*%
X22425000Y-9200000D02*
G75*
G02*
X22175000Y-9200000I-125000J0D01*
G01*
X22175000Y-9200000D02*
G75*
G02*
X22425000Y-9200000I125000J0D01*
G01*
%TO.C,D21*%
X52425000Y-5450000D02*
G75*
G02*
X52175000Y-5450000I-125000J0D01*
G01*
X52175000Y-5450000D02*
G75*
G02*
X52425000Y-5450000I125000J0D01*
G01*
%TO.C,D51*%
X29925000Y-16700000D02*
G75*
G02*
X29675000Y-16700000I-125000J0D01*
G01*
X29675000Y-16700000D02*
G75*
G02*
X29925000Y-16700000I125000J0D01*
G01*
%TO.C,D4*%
X33675000Y-1700000D02*
G75*
G02*
X33425000Y-1700000I-125000J0D01*
G01*
X33425000Y-1700000D02*
G75*
G02*
X33675000Y-1700000I125000J0D01*
G01*
%TO.C,D11*%
X59925000Y-1700000D02*
G75*
G02*
X59675000Y-1700000I-125000J0D01*
G01*
X59675000Y-1700000D02*
G75*
G02*
X59925000Y-1700000I125000J0D01*
G01*
%TO.C,D16*%
X33675000Y-5450000D02*
G75*
G02*
X33425000Y-5450000I-125000J0D01*
G01*
X33425000Y-5450000D02*
G75*
G02*
X33675000Y-5450000I125000J0D01*
G01*
%TO.C,D27*%
X29925000Y-9200000D02*
G75*
G02*
X29675000Y-9200000I-125000J0D01*
G01*
X29675000Y-9200000D02*
G75*
G02*
X29925000Y-9200000I125000J0D01*
G01*
%TO.C,D15*%
X29925000Y-5450000D02*
G75*
G02*
X29675000Y-5450000I-125000J0D01*
G01*
X29675000Y-5450000D02*
G75*
G02*
X29925000Y-5450000I125000J0D01*
G01*
%TO.C,D40*%
X33675000Y-12950000D02*
G75*
G02*
X33425000Y-12950000I-125000J0D01*
G01*
X33425000Y-12950000D02*
G75*
G02*
X33675000Y-12950000I125000J0D01*
G01*
%TO.C,D43*%
X44925000Y-12950000D02*
G75*
G02*
X44675000Y-12950000I-125000J0D01*
G01*
X44675000Y-12950000D02*
G75*
G02*
X44925000Y-12950000I125000J0D01*
G01*
%TO.C,D12*%
X63675000Y-1700000D02*
G75*
G02*
X63425000Y-1700000I-125000J0D01*
G01*
X63425000Y-1700000D02*
G75*
G02*
X63675000Y-1700000I125000J0D01*
G01*
%TO.C,D62*%
X26175000Y-20450000D02*
G75*
G02*
X25925000Y-20450000I-125000J0D01*
G01*
X25925000Y-20450000D02*
G75*
G02*
X26175000Y-20450000I125000J0D01*
G01*
%TO.C,D3*%
X29925000Y-1700000D02*
G75*
G02*
X29675000Y-1700000I-125000J0D01*
G01*
X29675000Y-1700000D02*
G75*
G02*
X29925000Y-1700000I125000J0D01*
G01*
%TD*%
D13*
X6950000Y-23250000D03*
X8950000Y-23250000D03*
X10950000Y-23250000D03*
X12950000Y-23250000D03*
X72500000Y-2550000D03*
X2500000Y-22500000D03*
M02*
