%TF.GenerationSoftware,KiCad,Pcbnew,8.0.6-8.0.6-0~ubuntu24.04.1*%
%TF.CreationDate,2024-10-19T16:33:05+01:00*%
%TF.ProjectId,Wireless,57697265-6c65-4737-932e-6b696361645f,rev?*%
%TF.SameCoordinates,Original*%
%TF.FileFunction,Legend,Top*%
%TF.FilePolarity,Positive*%
%FSLAX46Y46*%
G04 Gerber Fmt 4.6, Leading zero omitted, Abs format (unit mm)*
G04 Created by KiCad (PCBNEW 8.0.6-8.0.6-0~ubuntu24.04.1) date 2024-10-19 16:33:05*
%MOMM*%
%LPD*%
G01*
G04 APERTURE LIST*
%ADD10C,0.300000*%
%ADD11C,0.120000*%
%ADD12C,0.350000*%
%ADD13C,0.300000*%
G04 APERTURE END LIST*
D10*
X750000Y-19850000D02*
X2550000Y-19850000D01*
X23550000Y-19175000D02*
X23550000Y-20825000D01*
X22650000Y-20000000D02*
X24450000Y-20000000D01*
D11*
%TO.C,Y2*%
X15160000Y-6575000D02*
X15160000Y-9275000D01*
X17460000Y-6575000D02*
X15160000Y-6575000D01*
%TO.C,U4*%
X9590000Y-7502500D02*
X10315000Y-7502500D01*
X9590000Y-8227500D02*
X9590000Y-7502500D01*
X13810000Y-7502500D02*
X13085000Y-7502500D01*
X13810000Y-8227500D02*
X13810000Y-7502500D01*
X13810000Y-10997500D02*
X13810000Y-11722500D01*
X13810000Y-11722500D02*
X13085000Y-11722500D01*
X9875960Y-11762500D02*
G75*
G02*
X9224040Y-11762500I-325960J0D01*
G01*
X9224040Y-11762500D02*
G75*
G02*
X9875960Y-11762500I325960J0D01*
G01*
%TO.C,U3*%
X15870974Y-21275000D02*
X15390974Y-21275000D01*
X15630974Y-20945000D01*
X15870974Y-21275000D01*
G36*
X15870974Y-21275000D02*
G01*
X15390974Y-21275000D01*
X15630974Y-20945000D01*
X15870974Y-21275000D01*
G37*
%TD*%
D12*
X6950000Y-23250000D03*
X8950000Y-23250000D03*
X10950000Y-23250000D03*
X12950000Y-23250000D03*
X22500000Y-2500000D03*
X2500000Y-22500000D03*
D13*
X2325000Y-325000D03*
X3325000Y-325000D03*
X4325000Y-325000D03*
X4325000Y-1325000D03*
X7250000Y-350000D03*
X7250000Y-1350000D03*
X8250000Y-350000D03*
X9250000Y-350000D03*
X10250000Y-350000D03*
X11250000Y-350000D03*
X12250000Y-350000D03*
X13250000Y-350000D03*
X14250000Y-350000D03*
X15250000Y-350000D03*
X16250000Y-350000D03*
X17250000Y-350000D03*
X18250000Y-350000D03*
X19250000Y-350000D03*
X20250000Y-350000D03*
X21250000Y-350000D03*
X22250000Y-350000D03*
M02*
