%TF.GenerationSoftware,KiCad,Pcbnew,8.0.6-8.0.6-0~ubuntu24.04.1*%
%TF.CreationDate,2024-10-19T16:33:05+01:00*%
%TF.ProjectId,Wireless,57697265-6c65-4737-932e-6b696361645f,rev?*%
%TF.SameCoordinates,Original*%
%TF.FileFunction,Copper,L4,Bot*%
%TF.FilePolarity,Positive*%
%FSLAX46Y46*%
G04 Gerber Fmt 4.6, Leading zero omitted, Abs format (unit mm)*
G04 Created by KiCad (PCBNEW 8.0.6-8.0.6-0~ubuntu24.04.1) date 2024-10-19 16:33:05*
%MOMM*%
%LPD*%
G01*
G04 APERTURE LIST*
%TA.AperFunction,ComponentPad*%
%ADD10R,1.350000X1.350000*%
%TD*%
%TA.AperFunction,ComponentPad*%
%ADD11O,1.350000X1.350000*%
%TD*%
%TA.AperFunction,ComponentPad*%
%ADD12C,0.600000*%
%TD*%
%TA.AperFunction,ViaPad*%
%ADD13C,0.600000*%
%TD*%
%TA.AperFunction,Conductor*%
%ADD14C,0.200000*%
%TD*%
%ADD15C,0.300000*%
%ADD16C,0.350000*%
G04 APERTURE END LIST*
D10*
%TO.P,J4,1,Pin_1*%
%TO.N,5V*%
X6950000Y-23250000D03*
D11*
%TO.P,J4,2,Pin_2*%
%TO.N,GND*%
X8950000Y-23250000D03*
%TO.P,J4,3,Pin_3*%
%TO.N,SWDIO*%
X10950000Y-23250000D03*
%TO.P,J4,4,Pin_4*%
%TO.N,SWDCLK*%
X12950000Y-23250000D03*
%TD*%
D12*
%TO.P,AE3,2,GND*%
%TO.N,GND*%
X2325000Y-325000D03*
X3325000Y-325000D03*
X4325000Y-325000D03*
X4325000Y-1325000D03*
X7250000Y-350000D03*
X7250000Y-1350000D03*
X8250000Y-350000D03*
X9250000Y-350000D03*
X10250000Y-350000D03*
X11250000Y-350000D03*
X12250000Y-350000D03*
X13250000Y-350000D03*
X14250000Y-350000D03*
X15250000Y-350000D03*
X16250000Y-350000D03*
X17250000Y-350000D03*
X18250000Y-350000D03*
X19250000Y-350000D03*
X20250000Y-350000D03*
X21250000Y-350000D03*
X22250000Y-350000D03*
%TD*%
D13*
%TO.N,VDD*%
X7525000Y-9450000D03*
X14525000Y-10850000D03*
X10375000Y-6825000D03*
%TO.N,GND*%
X9050000Y-6425000D03*
X15650000Y-2650000D03*
X700000Y-4100000D03*
X7200000Y-8600000D03*
X2650000Y-5075000D03*
X17750000Y-4425000D03*
X11618750Y-9693750D03*
X4725000Y-4650000D03*
X20950000Y-10150000D03*
X13425000Y-4050000D03*
X4325000Y-2325000D03*
X14925306Y-8869312D03*
X7250000Y-2350000D03*
X15775000Y-21650000D03*
X1325000Y-325000D03*
X6875000Y-3275000D03*
X4675000Y-3250000D03*
X7950000Y-4000000D03*
X21325000Y-20250000D03*
X5800000Y-21175000D03*
X17925000Y-6300000D03*
X2675000Y-12725000D03*
X14550000Y-4600000D03*
X22000000Y-14425000D03*
X5350000Y-24100000D03*
X725000Y-2625000D03*
X15975000Y-4525000D03*
X2725000Y-8375000D03*
X23925000Y-600000D03*
X22275000Y-11625000D03*
X7900000Y-18775000D03*
X19450000Y-7775000D03*
X11875000Y-18075000D03*
X14475000Y-6050000D03*
X600000Y-1175000D03*
X16050000Y-23100000D03*
X2425000Y-10225000D03*
X15450000Y-13000000D03*
X9025000Y-12625000D03*
X18850000Y-18200000D03*
X11500000Y-20875000D03*
X5375000Y-7125000D03*
X24325000Y-4000000D03*
X7475000Y-6250000D03*
X9725000Y-4175000D03*
X11175000Y-3125000D03*
X1650000Y-15700000D03*
X19100000Y-2850000D03*
%TO.N,Interrupt{slash}CAN*%
X3433283Y-14492777D03*
X21175000Y-15100000D03*
%TO.N,5V*%
X21150000Y-16400000D03*
X4762500Y-16862500D03*
%TO.N,MOSI*%
X21203925Y-13850000D03*
X2925000Y-13875000D03*
%TO.N,MISO*%
X4011311Y-12750000D03*
X22100000Y-12825000D03*
%TO.N,SCLK*%
X21400000Y-11650000D03*
X2850000Y-11625000D03*
%TO.N,PS*%
X17375000Y-10350000D03*
X3725000Y-10575000D03*
%TO.N,W_MOSI*%
X9650000Y-13500000D03*
X13275000Y-12975000D03*
%TO.N,W_MISO*%
X16050000Y-11825000D03*
X13625000Y-11700000D03*
%TD*%
D14*
%TO.N,VDD*%
X7875000Y-9325000D02*
X10375000Y-6825000D01*
X7525000Y-9450000D02*
X7650000Y-9325000D01*
X7650000Y-9325000D02*
X7875000Y-9325000D01*
X14525000Y-10850000D02*
X10500000Y-6825000D01*
X10500000Y-6825000D02*
X10375000Y-6825000D01*
%TO.N,GND*%
X20892652Y-11050000D02*
X20892652Y-10207348D01*
X22700000Y-12775000D02*
X22700000Y-12575000D01*
X21851471Y-13425000D02*
X22425000Y-13425000D01*
X3375000Y-11175000D02*
X4416210Y-11175000D01*
X4416210Y-11175000D02*
X7891210Y-14650000D01*
X18893628Y-16250000D02*
X19284314Y-15859314D01*
X22800000Y-13050000D02*
X22800000Y-12875000D01*
X4895406Y-12785566D02*
X4234840Y-12125000D01*
X3079721Y-12725000D02*
X4790686Y-14435965D01*
X7025000Y-16250000D02*
X18893628Y-16250000D01*
X22000000Y-15123529D02*
X22000000Y-14425000D01*
X20955396Y-13250000D02*
X21676471Y-13250000D01*
X7276996Y-15450000D02*
X4895406Y-13068409D01*
X22800000Y-12875000D02*
X22700000Y-12775000D01*
X2675000Y-12725000D02*
X3079721Y-12725000D01*
X2425000Y-10225000D02*
X3375000Y-11175000D01*
X22425000Y-13425000D02*
X22800000Y-13050000D01*
X20649024Y-12425000D02*
X17624024Y-15450000D01*
X19284314Y-14921082D02*
X20955396Y-13250000D01*
X17292652Y-14650000D02*
X20892652Y-11050000D01*
X4234840Y-12125000D02*
X4050000Y-12125000D01*
X21423529Y-15700000D02*
X22000000Y-15123529D01*
X4895406Y-13068409D02*
X4895406Y-12785566D01*
X20892652Y-10207348D02*
X20950000Y-10150000D01*
X19284314Y-15859314D02*
X19284314Y-14921082D01*
X17624024Y-15450000D02*
X7276996Y-15450000D01*
X6206372Y-16250000D02*
X7025000Y-16250000D01*
X21475000Y-12425000D02*
X20649024Y-12425000D01*
X22275000Y-11625000D02*
X21475000Y-12425000D01*
X20855396Y-13350000D02*
X20955396Y-13250000D01*
X4790686Y-14435965D02*
X4790686Y-14834314D01*
X21676471Y-13250000D02*
X21851471Y-13425000D01*
X21676471Y-13250000D02*
X22101471Y-13675000D01*
X22101471Y-13675000D02*
X22275000Y-13675000D01*
X7891210Y-14650000D02*
X17292652Y-14650000D01*
X4790686Y-14834314D02*
X6206372Y-16250000D01*
X2675000Y-12725000D02*
X3300000Y-13350000D01*
%TO.N,Interrupt{slash}CAN*%
X5875000Y-17050000D02*
X19225000Y-17050000D01*
X3433283Y-14608283D02*
X5875000Y-17050000D01*
X3433283Y-14492777D02*
X3433283Y-14608283D01*
X19225000Y-17050000D02*
X21175000Y-15100000D01*
%TO.N,5V*%
X20100000Y-17450000D02*
X5350000Y-17450000D01*
X5350000Y-17450000D02*
X4762500Y-16862500D01*
X21150000Y-16400000D02*
X20100000Y-17450000D01*
%TO.N,MOSI*%
X6040686Y-16650000D02*
X19059314Y-16650000D01*
X4257843Y-14867157D02*
X6040686Y-16650000D01*
X19059314Y-16650000D02*
X20354657Y-15354657D01*
X3664035Y-13875000D02*
X4257843Y-14468808D01*
X2925000Y-13875000D02*
X3664035Y-13875000D01*
X20354657Y-15354657D02*
X20354657Y-14699268D01*
X4257843Y-14468808D02*
X4257843Y-14867157D01*
X20354657Y-14699268D02*
X21203925Y-13850000D01*
%TO.N,MISO*%
X4495406Y-13575000D02*
X4495406Y-13234095D01*
X5190686Y-14270280D02*
X5190686Y-14270279D01*
X18727942Y-15850000D02*
X6770406Y-15850000D01*
X20814710Y-12825000D02*
X18884314Y-14755396D01*
X5190686Y-14270279D02*
X4495406Y-13575000D01*
X18884314Y-15693628D02*
X18727942Y-15850000D01*
X6770406Y-15850000D02*
X5190686Y-14270280D01*
X4495406Y-13234095D02*
X4011311Y-12750000D01*
X22100000Y-12825000D02*
X20814710Y-12825000D01*
X18884314Y-14755396D02*
X18884314Y-15693628D01*
%TO.N,SCLK*%
X2850000Y-11625000D02*
X4300525Y-11625000D01*
X4950000Y-12274475D02*
X7725525Y-15050000D01*
X20858338Y-11650000D02*
X21400000Y-11650000D01*
X4400526Y-11725000D02*
X4950000Y-12274475D01*
X7725525Y-15050000D02*
X17458338Y-15050000D01*
X4300525Y-11625000D02*
X4400525Y-11725000D01*
X4400525Y-11725000D02*
X4400526Y-11725000D01*
X17458338Y-15050000D02*
X20858338Y-11650000D01*
%TO.N,PS*%
X17950983Y-13425983D02*
X17950983Y-10925983D01*
X17126966Y-14250000D02*
X17950983Y-13425983D01*
X3725000Y-10575000D02*
X4381895Y-10575000D01*
X8056895Y-14250000D02*
X17126966Y-14250000D01*
X4381895Y-10575000D02*
X8056895Y-14250000D01*
X17950983Y-10925983D02*
X17375000Y-10350000D01*
%TO.N,W_MOSI*%
X12750000Y-13500000D02*
X13275000Y-12975000D01*
X9650000Y-13500000D02*
X12750000Y-13500000D01*
%TO.N,W_MISO*%
X13750000Y-11825000D02*
X16050000Y-11825000D01*
X13625000Y-11700000D02*
X13750000Y-11825000D01*
%TD*%
%TA.AperFunction,Conductor*%
%TO.N,GND*%
G36*
X24858691Y-18907D02*
G01*
X24894655Y-68407D01*
X24899500Y-99000D01*
X24899500Y-22497015D01*
X24899319Y-22502993D01*
X24882366Y-22783251D01*
X24880925Y-22795118D01*
X24830854Y-23068346D01*
X24827993Y-23079954D01*
X24745353Y-23345154D01*
X24741114Y-23356332D01*
X24627107Y-23609646D01*
X24621551Y-23620231D01*
X24477849Y-23857944D01*
X24471058Y-23867783D01*
X24299749Y-24086443D01*
X24291822Y-24095392D01*
X24095392Y-24291822D01*
X24086443Y-24299749D01*
X23867783Y-24471058D01*
X23857944Y-24477849D01*
X23620231Y-24621551D01*
X23609646Y-24627107D01*
X23356332Y-24741114D01*
X23345154Y-24745353D01*
X23079954Y-24827993D01*
X23068346Y-24830854D01*
X22795118Y-24880925D01*
X22783251Y-24882366D01*
X22527790Y-24897819D01*
X22502991Y-24899319D01*
X22497015Y-24899500D01*
X2502985Y-24899500D01*
X2497008Y-24899319D01*
X2472210Y-24897819D01*
X2415267Y-24875433D01*
X2382357Y-24823852D01*
X2386051Y-24762778D01*
X2424938Y-24715540D01*
X2478187Y-24700000D01*
X2899998Y-24700000D01*
X2900000Y-24700000D01*
X3500000Y-24600000D01*
X4100000Y-24100000D01*
X4500000Y-23600000D01*
X4700000Y-22900000D01*
X4700000Y-22555253D01*
X6074500Y-22555253D01*
X6074500Y-23944746D01*
X6074501Y-23944758D01*
X6086132Y-24003227D01*
X6086134Y-24003233D01*
X6092249Y-24012384D01*
X6130448Y-24069552D01*
X6196769Y-24113867D01*
X6241231Y-24122711D01*
X6255241Y-24125498D01*
X6255246Y-24125498D01*
X6255252Y-24125500D01*
X6255253Y-24125500D01*
X7644747Y-24125500D01*
X7644748Y-24125500D01*
X7703231Y-24113867D01*
X7769552Y-24069552D01*
X7813867Y-24003231D01*
X7819283Y-23976001D01*
X7849178Y-23922619D01*
X7904743Y-23897003D01*
X7964753Y-23908940D01*
X7995384Y-23935656D01*
X8077947Y-24044987D01*
X8238870Y-24191686D01*
X8238873Y-24191688D01*
X8424008Y-24306319D01*
X8424013Y-24306322D01*
X8627070Y-24384987D01*
X8699999Y-24398620D01*
X8700000Y-24398620D01*
X8700000Y-23530330D01*
X8719745Y-23550075D01*
X8805255Y-23599444D01*
X8900630Y-23625000D01*
X8999370Y-23625000D01*
X9094745Y-23599444D01*
X9180255Y-23550075D01*
X9200000Y-23530330D01*
X9200000Y-24398620D01*
X9272929Y-24384987D01*
X9475986Y-24306322D01*
X9475991Y-24306319D01*
X9661126Y-24191688D01*
X9661129Y-24191686D01*
X9822052Y-24044987D01*
X9953283Y-23871209D01*
X9953288Y-23871200D01*
X10030605Y-23715927D01*
X10073467Y-23672265D01*
X10133808Y-23662135D01*
X10188579Y-23689407D01*
X10204962Y-23710555D01*
X10237805Y-23767440D01*
X10331239Y-23871209D01*
X10354463Y-23897003D01*
X10360950Y-23904207D01*
X10509839Y-24012381D01*
X10509843Y-24012383D01*
X10509845Y-24012384D01*
X10565485Y-24037156D01*
X10677966Y-24087236D01*
X10857981Y-24125500D01*
X10857983Y-24125500D01*
X11042017Y-24125500D01*
X11042019Y-24125500D01*
X11222034Y-24087236D01*
X11390161Y-24012381D01*
X11539050Y-23904207D01*
X11662195Y-23767440D01*
X11744433Y-23625000D01*
X11754209Y-23608068D01*
X11754209Y-23608066D01*
X11754214Y-23608059D01*
X11811085Y-23433029D01*
X11830322Y-23250000D01*
X12069678Y-23250000D01*
X12084891Y-23394745D01*
X12088916Y-23433034D01*
X12145784Y-23608054D01*
X12145790Y-23608068D01*
X12182855Y-23672265D01*
X12237805Y-23767440D01*
X12331239Y-23871209D01*
X12354463Y-23897003D01*
X12360950Y-23904207D01*
X12509839Y-24012381D01*
X12509843Y-24012383D01*
X12509845Y-24012384D01*
X12565485Y-24037156D01*
X12677966Y-24087236D01*
X12857981Y-24125500D01*
X12857983Y-24125500D01*
X13042017Y-24125500D01*
X13042019Y-24125500D01*
X13222034Y-24087236D01*
X13390161Y-24012381D01*
X13539050Y-23904207D01*
X13662195Y-23767440D01*
X13744433Y-23625000D01*
X13754209Y-23608068D01*
X13754209Y-23608066D01*
X13754214Y-23608059D01*
X13811085Y-23433029D01*
X13830322Y-23250000D01*
X13811085Y-23066971D01*
X13754214Y-22891941D01*
X13754211Y-22891936D01*
X13754209Y-22891931D01*
X13698313Y-22795118D01*
X13662195Y-22732560D01*
X13539050Y-22595793D01*
X13390161Y-22487619D01*
X13390157Y-22487617D01*
X13390154Y-22487615D01*
X13222036Y-22412765D01*
X13222034Y-22412764D01*
X13222031Y-22412763D01*
X13222030Y-22412763D01*
X13175135Y-22402795D01*
X13042019Y-22374500D01*
X12857981Y-22374500D01*
X12760797Y-22395157D01*
X12677969Y-22412763D01*
X12677963Y-22412765D01*
X12509845Y-22487615D01*
X12509842Y-22487617D01*
X12509839Y-22487618D01*
X12509839Y-22487619D01*
X12467571Y-22518328D01*
X12360948Y-22595794D01*
X12237803Y-22732562D01*
X12237803Y-22732563D01*
X12145790Y-22891931D01*
X12145784Y-22891945D01*
X12088916Y-23066965D01*
X12088915Y-23066969D01*
X12088915Y-23066971D01*
X12069678Y-23250000D01*
X11830322Y-23250000D01*
X11811085Y-23066971D01*
X11754214Y-22891941D01*
X11754211Y-22891936D01*
X11754209Y-22891931D01*
X11698313Y-22795118D01*
X11662195Y-22732560D01*
X11539050Y-22595793D01*
X11390161Y-22487619D01*
X11390157Y-22487617D01*
X11390154Y-22487615D01*
X11222036Y-22412765D01*
X11222034Y-22412764D01*
X11222031Y-22412763D01*
X11222030Y-22412763D01*
X11175135Y-22402795D01*
X11042019Y-22374500D01*
X10857981Y-22374500D01*
X10760797Y-22395157D01*
X10677969Y-22412763D01*
X10677963Y-22412765D01*
X10509845Y-22487615D01*
X10509842Y-22487617D01*
X10509839Y-22487618D01*
X10509839Y-22487619D01*
X10467571Y-22518328D01*
X10360948Y-22595794D01*
X10237804Y-22732561D01*
X10204962Y-22789445D01*
X10159492Y-22830385D01*
X10098642Y-22836780D01*
X10045654Y-22806187D01*
X10030605Y-22784072D01*
X9953288Y-22628799D01*
X9953283Y-22628790D01*
X9822052Y-22455012D01*
X9661129Y-22308313D01*
X9661126Y-22308311D01*
X9475991Y-22193680D01*
X9475986Y-22193677D01*
X9272932Y-22115013D01*
X9272926Y-22115011D01*
X9200000Y-22101379D01*
X9200000Y-22969670D01*
X9180255Y-22949925D01*
X9094745Y-22900556D01*
X8999370Y-22875000D01*
X8900630Y-22875000D01*
X8805255Y-22900556D01*
X8719745Y-22949925D01*
X8700000Y-22969670D01*
X8700000Y-22101379D01*
X8699999Y-22101379D01*
X8627073Y-22115011D01*
X8627067Y-22115013D01*
X8424013Y-22193677D01*
X8424008Y-22193680D01*
X8238873Y-22308311D01*
X8238870Y-22308313D01*
X8077944Y-22455015D01*
X7995383Y-22564343D01*
X7945227Y-22599386D01*
X7884052Y-22598255D01*
X7835225Y-22561382D01*
X7819283Y-22523999D01*
X7813867Y-22496769D01*
X7769552Y-22430448D01*
X7743088Y-22412765D01*
X7703233Y-22386134D01*
X7703231Y-22386133D01*
X7703228Y-22386132D01*
X7703227Y-22386132D01*
X7644758Y-22374501D01*
X7644748Y-22374500D01*
X6255252Y-22374500D01*
X6255251Y-22374500D01*
X6255241Y-22374501D01*
X6196772Y-22386132D01*
X6196766Y-22386134D01*
X6130451Y-22430445D01*
X6130445Y-22430451D01*
X6086134Y-22496766D01*
X6086132Y-22496772D01*
X6074501Y-22555241D01*
X6074500Y-22555253D01*
X4700000Y-22555253D01*
X4700000Y-21900000D01*
X4500000Y-21400000D01*
X4100000Y-20900000D01*
X3600000Y-20500000D01*
X3000000Y-20300000D01*
X2000000Y-20300000D01*
X1999997Y-20300000D01*
X1299998Y-20600000D01*
X799999Y-21000000D01*
X600005Y-21299990D01*
X599998Y-21300002D01*
X400001Y-21699996D01*
X300000Y-22000000D01*
X300000Y-22521813D01*
X281093Y-22580004D01*
X231593Y-22615968D01*
X170407Y-22615968D01*
X120907Y-22580004D01*
X102181Y-22527790D01*
X100681Y-22502992D01*
X100500Y-22497015D01*
X100500Y-13874997D01*
X2419353Y-13874997D01*
X2419353Y-13875002D01*
X2439834Y-14017456D01*
X2471032Y-14085768D01*
X2499623Y-14148373D01*
X2593872Y-14257143D01*
X2593873Y-14257144D01*
X2676041Y-14309950D01*
X2714947Y-14334953D01*
X2853039Y-14375500D01*
X2853041Y-14375500D01*
X2858483Y-14377098D01*
X2908990Y-14411633D01*
X2929552Y-14469260D01*
X2928585Y-14486173D01*
X2927636Y-14492775D01*
X2927636Y-14492779D01*
X2948117Y-14635233D01*
X2984926Y-14715831D01*
X3007906Y-14766150D01*
X3060310Y-14826628D01*
X3102156Y-14874921D01*
X3223225Y-14952727D01*
X3223230Y-14952730D01*
X3361322Y-14993277D01*
X3366053Y-14993957D01*
X3420963Y-15020949D01*
X3421975Y-15021946D01*
X4627817Y-16227788D01*
X4655594Y-16282305D01*
X4646023Y-16342737D01*
X4602758Y-16386002D01*
X4585704Y-16392782D01*
X4552449Y-16402546D01*
X4552442Y-16402549D01*
X4431373Y-16480355D01*
X4337122Y-16589128D01*
X4277334Y-16720043D01*
X4256853Y-16862497D01*
X4256853Y-16862502D01*
X4277334Y-17004956D01*
X4330104Y-17120503D01*
X4337123Y-17135873D01*
X4347875Y-17148281D01*
X4431373Y-17244644D01*
X4552442Y-17322450D01*
X4552447Y-17322453D01*
X4658903Y-17353711D01*
X4690535Y-17362999D01*
X4690536Y-17362999D01*
X4690539Y-17363000D01*
X4690541Y-17363000D01*
X4797021Y-17363000D01*
X4855212Y-17381907D01*
X4867025Y-17391996D01*
X5109540Y-17634511D01*
X5109539Y-17634511D01*
X5165489Y-17690460D01*
X5234007Y-17730019D01*
X5234011Y-17730021D01*
X5310435Y-17750499D01*
X5310437Y-17750500D01*
X5310438Y-17750500D01*
X20139563Y-17750500D01*
X20139563Y-17750499D01*
X20215989Y-17730021D01*
X20284511Y-17690460D01*
X20340460Y-17634511D01*
X21045474Y-16929495D01*
X21099991Y-16901719D01*
X21115478Y-16900500D01*
X21221959Y-16900500D01*
X21221961Y-16900500D01*
X21360053Y-16859953D01*
X21481128Y-16782143D01*
X21575377Y-16673373D01*
X21635165Y-16542457D01*
X21645506Y-16470534D01*
X21655647Y-16400002D01*
X21655647Y-16399997D01*
X21635165Y-16257543D01*
X21612592Y-16208116D01*
X21575377Y-16126627D01*
X21481128Y-16017857D01*
X21481127Y-16017856D01*
X21481126Y-16017855D01*
X21360057Y-15940049D01*
X21360054Y-15940047D01*
X21360053Y-15940047D01*
X21360050Y-15940046D01*
X21221964Y-15899500D01*
X21221961Y-15899500D01*
X21078039Y-15899500D01*
X21078035Y-15899500D01*
X21057254Y-15905602D01*
X20996094Y-15903852D01*
X20947642Y-15866488D01*
X20930406Y-15807781D01*
X20950970Y-15750154D01*
X20959363Y-15740607D01*
X21070475Y-15629496D01*
X21124991Y-15601719D01*
X21140478Y-15600500D01*
X21246959Y-15600500D01*
X21246961Y-15600500D01*
X21385053Y-15559953D01*
X21506128Y-15482143D01*
X21600377Y-15373373D01*
X21660165Y-15242457D01*
X21680647Y-15100000D01*
X21665400Y-14993957D01*
X21660165Y-14957543D01*
X21600377Y-14826628D01*
X21600377Y-14826627D01*
X21506128Y-14717857D01*
X21506127Y-14717856D01*
X21506126Y-14717855D01*
X21385057Y-14640049D01*
X21385054Y-14640047D01*
X21385053Y-14640047D01*
X21385050Y-14640046D01*
X21246964Y-14599500D01*
X21246961Y-14599500D01*
X21118402Y-14599500D01*
X21060211Y-14580593D01*
X21024247Y-14531093D01*
X21024247Y-14469907D01*
X21048396Y-14430499D01*
X21099400Y-14379494D01*
X21153915Y-14351719D01*
X21169402Y-14350500D01*
X21275884Y-14350500D01*
X21275886Y-14350500D01*
X21413978Y-14309953D01*
X21535053Y-14232143D01*
X21629302Y-14123373D01*
X21689090Y-13992457D01*
X21705102Y-13881093D01*
X21709572Y-13850002D01*
X21709572Y-13849997D01*
X21689090Y-13707543D01*
X21681528Y-13690985D01*
X21629302Y-13576627D01*
X21535053Y-13467857D01*
X21535052Y-13467856D01*
X21535051Y-13467855D01*
X21413982Y-13390049D01*
X21413979Y-13390047D01*
X21413978Y-13390047D01*
X21413975Y-13390046D01*
X21275889Y-13349500D01*
X21275886Y-13349500D01*
X21131964Y-13349500D01*
X21131960Y-13349500D01*
X20993874Y-13390046D01*
X20993867Y-13390049D01*
X20875154Y-13466341D01*
X20860653Y-13470152D01*
X20848876Y-13495462D01*
X20778548Y-13576626D01*
X20718759Y-13707543D01*
X20698278Y-13849997D01*
X20698278Y-13850003D01*
X20701366Y-13871482D01*
X20690932Y-13931771D01*
X20673378Y-13955573D01*
X20170146Y-14458807D01*
X20114196Y-14514757D01*
X20074637Y-14583275D01*
X20074635Y-14583279D01*
X20054157Y-14659703D01*
X20054157Y-15189178D01*
X20035250Y-15247369D01*
X20025161Y-15259182D01*
X18963839Y-16320504D01*
X18909322Y-16348281D01*
X18893835Y-16349500D01*
X6206165Y-16349500D01*
X6147974Y-16330593D01*
X6136161Y-16320504D01*
X4587339Y-14771682D01*
X4559562Y-14717165D01*
X4558343Y-14701678D01*
X4558343Y-14429245D01*
X4558342Y-14429243D01*
X4553623Y-14411633D01*
X4537864Y-14352819D01*
X4536057Y-14349690D01*
X4498303Y-14284297D01*
X4442354Y-14228347D01*
X4442354Y-14228348D01*
X3848546Y-13634540D01*
X3848543Y-13634538D01*
X3780027Y-13594980D01*
X3780023Y-13594978D01*
X3703599Y-13574500D01*
X3703597Y-13574500D01*
X3372083Y-13574500D01*
X3313892Y-13555593D01*
X3297264Y-13540331D01*
X3256128Y-13492857D01*
X3190263Y-13450528D01*
X3135057Y-13415049D01*
X3135054Y-13415047D01*
X3135053Y-13415047D01*
X3116230Y-13409520D01*
X2996964Y-13374500D01*
X2996961Y-13374500D01*
X2853039Y-13374500D01*
X2853035Y-13374500D01*
X2714949Y-13415046D01*
X2714942Y-13415049D01*
X2593873Y-13492855D01*
X2499622Y-13601628D01*
X2439835Y-13732542D01*
X2439834Y-13732543D01*
X2419353Y-13874997D01*
X100500Y-13874997D01*
X100500Y-12749997D01*
X3505664Y-12749997D01*
X3505664Y-12750002D01*
X3526145Y-12892456D01*
X3575031Y-12999500D01*
X3585934Y-13023373D01*
X3668021Y-13118107D01*
X3680184Y-13132144D01*
X3801253Y-13209950D01*
X3801258Y-13209953D01*
X3907714Y-13241211D01*
X3939346Y-13250499D01*
X3939347Y-13250499D01*
X3939350Y-13250500D01*
X3939352Y-13250500D01*
X4045832Y-13250500D01*
X4104023Y-13269407D01*
X4115836Y-13279496D01*
X4165910Y-13329570D01*
X4193687Y-13384087D01*
X4194906Y-13399574D01*
X4194906Y-13614564D01*
X4215383Y-13690985D01*
X4215385Y-13690990D01*
X4224942Y-13707543D01*
X4239376Y-13732543D01*
X4254946Y-13759511D01*
X4950224Y-14454788D01*
X4950226Y-14454791D01*
X6529946Y-16034511D01*
X6529945Y-16034511D01*
X6585895Y-16090460D01*
X6654413Y-16130019D01*
X6654417Y-16130021D01*
X6730841Y-16150499D01*
X6730843Y-16150500D01*
X6730844Y-16150500D01*
X18767505Y-16150500D01*
X18767505Y-16150499D01*
X18843931Y-16130021D01*
X18912453Y-16090460D01*
X18940427Y-16062485D01*
X18968403Y-16034511D01*
X19062867Y-15940046D01*
X19124774Y-15878139D01*
X19164335Y-15809617D01*
X19184814Y-15733190D01*
X19184814Y-14920875D01*
X19203721Y-14862684D01*
X19213810Y-14850871D01*
X19941310Y-14123371D01*
X20704054Y-13360626D01*
X20729342Y-13347742D01*
X20729377Y-13347138D01*
X20751628Y-13313053D01*
X20910186Y-13154496D01*
X20964702Y-13126719D01*
X20980189Y-13125500D01*
X21652917Y-13125500D01*
X21711108Y-13144407D01*
X21727733Y-13159667D01*
X21768872Y-13207143D01*
X21836337Y-13250500D01*
X21881455Y-13279496D01*
X21889947Y-13284953D01*
X21985648Y-13313053D01*
X22028035Y-13325499D01*
X22028036Y-13325499D01*
X22028039Y-13325500D01*
X22028041Y-13325500D01*
X22171959Y-13325500D01*
X22171961Y-13325500D01*
X22310053Y-13284953D01*
X22431128Y-13207143D01*
X22525377Y-13098373D01*
X22585165Y-12967457D01*
X22601251Y-12855574D01*
X22605647Y-12825002D01*
X22605647Y-12824997D01*
X22585165Y-12682543D01*
X22540407Y-12584538D01*
X22525377Y-12551627D01*
X22431128Y-12442857D01*
X22431127Y-12442856D01*
X22431126Y-12442855D01*
X22310057Y-12365049D01*
X22310054Y-12365047D01*
X22310053Y-12365047D01*
X22310050Y-12365046D01*
X22171964Y-12324500D01*
X22171961Y-12324500D01*
X22028039Y-12324500D01*
X22028035Y-12324500D01*
X21889949Y-12365046D01*
X21889942Y-12365049D01*
X21768876Y-12442854D01*
X21768875Y-12442855D01*
X21768872Y-12442857D01*
X21739610Y-12476628D01*
X21727736Y-12490331D01*
X21675340Y-12521927D01*
X21652917Y-12524500D01*
X20775145Y-12524500D01*
X20698724Y-12544977D01*
X20698719Y-12544979D01*
X20646766Y-12574973D01*
X20646767Y-12574974D01*
X20630201Y-12584538D01*
X18699803Y-14514936D01*
X18699802Y-14514935D01*
X18643853Y-14570885D01*
X18604294Y-14639403D01*
X18604292Y-14639407D01*
X18583814Y-14715831D01*
X18583814Y-15450500D01*
X18564907Y-15508691D01*
X18515407Y-15544655D01*
X18484814Y-15549500D01*
X6935885Y-15549500D01*
X6877694Y-15530593D01*
X6865881Y-15520504D01*
X5431147Y-14085770D01*
X5431147Y-14085769D01*
X5375197Y-14029818D01*
X5375197Y-14029819D01*
X4824902Y-13479524D01*
X4797125Y-13425007D01*
X4795906Y-13409520D01*
X4795906Y-13194534D01*
X4795906Y-13194533D01*
X4788504Y-13166911D01*
X4786522Y-13159510D01*
X4786522Y-13159509D01*
X4775428Y-13118107D01*
X4775426Y-13118103D01*
X4735869Y-13049588D01*
X4735865Y-13049583D01*
X4541857Y-12855574D01*
X4514080Y-12801058D01*
X4513869Y-12771482D01*
X4516958Y-12750000D01*
X4510003Y-12701628D01*
X4496476Y-12607543D01*
X4485970Y-12584538D01*
X4436688Y-12476627D01*
X4366364Y-12395468D01*
X4356737Y-12372688D01*
X4340080Y-12366340D01*
X4221368Y-12290049D01*
X4221365Y-12290047D01*
X4221364Y-12290047D01*
X4221361Y-12290046D01*
X4083275Y-12249500D01*
X4083272Y-12249500D01*
X3939350Y-12249500D01*
X3939346Y-12249500D01*
X3801260Y-12290046D01*
X3801253Y-12290049D01*
X3680184Y-12367855D01*
X3585933Y-12476628D01*
X3526145Y-12607543D01*
X3505664Y-12749997D01*
X100500Y-12749997D01*
X100500Y-11624997D01*
X2344353Y-11624997D01*
X2344353Y-11625002D01*
X2364834Y-11767456D01*
X2424622Y-11898371D01*
X2424623Y-11898373D01*
X2518870Y-12007141D01*
X2518873Y-12007144D01*
X2635576Y-12082144D01*
X2639947Y-12084953D01*
X2746403Y-12116211D01*
X2778035Y-12125499D01*
X2778036Y-12125499D01*
X2778039Y-12125500D01*
X2778041Y-12125500D01*
X2921959Y-12125500D01*
X2921961Y-12125500D01*
X3060053Y-12084953D01*
X3181128Y-12007143D01*
X3222264Y-11959668D01*
X3274660Y-11928073D01*
X3297083Y-11925500D01*
X4135047Y-11925500D01*
X4193238Y-11944407D01*
X4205044Y-11954490D01*
X4216014Y-11965460D01*
X4216016Y-11965461D01*
X4463607Y-12213053D01*
X4478641Y-12242559D01*
X4511187Y-12260633D01*
X7485065Y-15234511D01*
X7485064Y-15234511D01*
X7541014Y-15290460D01*
X7609532Y-15330019D01*
X7609536Y-15330021D01*
X7685960Y-15350499D01*
X7685962Y-15350500D01*
X7685963Y-15350500D01*
X17497901Y-15350500D01*
X17497901Y-15350499D01*
X17574327Y-15330021D01*
X17642849Y-15290460D01*
X17698798Y-15234511D01*
X20915829Y-12017479D01*
X20970344Y-11989704D01*
X21030776Y-11999275D01*
X21060649Y-12022653D01*
X21068872Y-12032143D01*
X21189947Y-12109953D01*
X21296403Y-12141211D01*
X21328035Y-12150499D01*
X21328036Y-12150499D01*
X21328039Y-12150500D01*
X21328041Y-12150500D01*
X21471959Y-12150500D01*
X21471961Y-12150500D01*
X21610053Y-12109953D01*
X21731128Y-12032143D01*
X21825377Y-11923373D01*
X21885165Y-11792457D01*
X21905647Y-11650000D01*
X21902052Y-11624997D01*
X21885165Y-11507543D01*
X21873217Y-11481380D01*
X21825377Y-11376627D01*
X21731128Y-11267857D01*
X21731127Y-11267856D01*
X21731126Y-11267855D01*
X21610057Y-11190049D01*
X21610054Y-11190047D01*
X21610053Y-11190047D01*
X21610050Y-11190046D01*
X21471964Y-11149500D01*
X21471961Y-11149500D01*
X21328039Y-11149500D01*
X21328035Y-11149500D01*
X21189949Y-11190046D01*
X21189942Y-11190049D01*
X21068876Y-11267854D01*
X21068875Y-11267855D01*
X21068872Y-11267857D01*
X21032399Y-11309950D01*
X21027736Y-11315331D01*
X20975340Y-11346927D01*
X20952917Y-11349500D01*
X20818773Y-11349500D01*
X20742350Y-11369978D01*
X20691217Y-11399500D01*
X20691216Y-11399499D01*
X20673829Y-11409538D01*
X17362863Y-14720504D01*
X17308346Y-14748281D01*
X17292859Y-14749500D01*
X7891004Y-14749500D01*
X7832813Y-14730593D01*
X7821000Y-14720504D01*
X4867952Y-11767456D01*
X4585037Y-11484540D01*
X4585034Y-11484538D01*
X4581578Y-11481082D01*
X4581578Y-11481081D01*
X4485035Y-11384539D01*
X4471330Y-11376627D01*
X4459816Y-11369979D01*
X4459814Y-11369978D01*
X4416514Y-11344979D01*
X4416511Y-11344978D01*
X4340089Y-11324500D01*
X4340087Y-11324500D01*
X3297083Y-11324500D01*
X3238892Y-11305593D01*
X3222264Y-11290331D01*
X3202791Y-11267858D01*
X3181128Y-11242857D01*
X3098954Y-11190047D01*
X3060057Y-11165049D01*
X3060054Y-11165047D01*
X3060053Y-11165047D01*
X3060050Y-11165046D01*
X2921964Y-11124500D01*
X2921961Y-11124500D01*
X2778039Y-11124500D01*
X2778035Y-11124500D01*
X2639949Y-11165046D01*
X2639942Y-11165049D01*
X2518873Y-11242855D01*
X2424622Y-11351628D01*
X2364834Y-11482543D01*
X2344353Y-11624997D01*
X100500Y-11624997D01*
X100500Y-10574997D01*
X3219353Y-10574997D01*
X3219353Y-10575002D01*
X3239834Y-10717456D01*
X3290554Y-10828515D01*
X3299623Y-10848373D01*
X3352736Y-10909669D01*
X3393873Y-10957144D01*
X3493948Y-11021458D01*
X3514947Y-11034953D01*
X3621403Y-11066211D01*
X3653035Y-11075499D01*
X3653036Y-11075499D01*
X3653039Y-11075500D01*
X3653041Y-11075500D01*
X3796959Y-11075500D01*
X3796961Y-11075500D01*
X3935053Y-11034953D01*
X4056128Y-10957143D01*
X4097264Y-10909668D01*
X4149660Y-10878073D01*
X4172083Y-10875500D01*
X4216416Y-10875500D01*
X4274607Y-10894407D01*
X4286420Y-10904496D01*
X7816435Y-14434511D01*
X7816434Y-14434511D01*
X7872384Y-14490460D01*
X7940902Y-14530019D01*
X7940906Y-14530021D01*
X8017330Y-14550499D01*
X8017332Y-14550500D01*
X8017333Y-14550500D01*
X17166529Y-14550500D01*
X17166529Y-14550499D01*
X17242955Y-14530021D01*
X17311477Y-14490460D01*
X17367426Y-14434511D01*
X18191443Y-13610494D01*
X18196562Y-13601627D01*
X18231004Y-13541972D01*
X18251483Y-13465545D01*
X18251483Y-10886421D01*
X18231004Y-10809994D01*
X18230980Y-10809953D01*
X18191443Y-10741472D01*
X18135494Y-10685522D01*
X18135494Y-10685523D01*
X17905546Y-10455575D01*
X17877769Y-10401058D01*
X17877558Y-10371482D01*
X17880647Y-10350000D01*
X17880575Y-10349500D01*
X17860165Y-10207543D01*
X17800377Y-10076627D01*
X17706128Y-9967857D01*
X17706127Y-9967856D01*
X17706126Y-9967855D01*
X17585057Y-9890049D01*
X17585054Y-9890047D01*
X17585053Y-9890047D01*
X17585050Y-9890046D01*
X17446964Y-9849500D01*
X17446961Y-9849500D01*
X17303039Y-9849500D01*
X17303035Y-9849500D01*
X17164949Y-9890046D01*
X17164942Y-9890049D01*
X17043873Y-9967855D01*
X16949622Y-10076628D01*
X16889834Y-10207543D01*
X16869353Y-10349997D01*
X16869353Y-10350002D01*
X16889834Y-10492456D01*
X16928275Y-10576628D01*
X16949623Y-10623373D01*
X17003475Y-10685522D01*
X17043873Y-10732144D01*
X17147812Y-10798941D01*
X17164947Y-10809953D01*
X17271403Y-10841211D01*
X17303035Y-10850499D01*
X17303036Y-10850499D01*
X17303039Y-10850500D01*
X17303041Y-10850500D01*
X17409521Y-10850500D01*
X17467712Y-10869407D01*
X17479525Y-10879496D01*
X17621487Y-11021458D01*
X17649264Y-11075975D01*
X17650483Y-11091462D01*
X17650483Y-13260504D01*
X17631576Y-13318695D01*
X17621487Y-13330508D01*
X17031491Y-13920504D01*
X16976974Y-13948281D01*
X16961487Y-13949500D01*
X12941916Y-13949500D01*
X12883725Y-13930593D01*
X12847761Y-13881093D01*
X12847761Y-13819907D01*
X12883725Y-13770407D01*
X12892416Y-13764764D01*
X12910665Y-13754227D01*
X12934511Y-13740460D01*
X12990460Y-13684511D01*
X13170473Y-13504496D01*
X13224990Y-13476719D01*
X13240477Y-13475500D01*
X13346959Y-13475500D01*
X13346961Y-13475500D01*
X13485053Y-13434953D01*
X13606128Y-13357143D01*
X13700377Y-13248373D01*
X13760165Y-13117457D01*
X13770506Y-13045534D01*
X13780647Y-12975002D01*
X13780647Y-12974997D01*
X13760165Y-12832543D01*
X13745786Y-12801058D01*
X13700377Y-12701627D01*
X13606128Y-12592857D01*
X13606127Y-12592856D01*
X13606126Y-12592855D01*
X13485057Y-12515049D01*
X13485054Y-12515047D01*
X13485053Y-12515047D01*
X13485050Y-12515046D01*
X13346964Y-12474500D01*
X13346961Y-12474500D01*
X13203039Y-12474500D01*
X13203035Y-12474500D01*
X13064949Y-12515046D01*
X13064942Y-12515049D01*
X12943873Y-12592855D01*
X12849622Y-12701628D01*
X12789834Y-12832543D01*
X12769353Y-12974996D01*
X12769353Y-12974997D01*
X12769353Y-12975000D01*
X12772442Y-12996483D01*
X12762007Y-13056772D01*
X12744453Y-13080574D01*
X12654526Y-13170503D01*
X12600010Y-13198281D01*
X12584522Y-13199500D01*
X10097083Y-13199500D01*
X10038892Y-13180593D01*
X10022264Y-13165331D01*
X10017220Y-13159510D01*
X9981128Y-13117857D01*
X9948182Y-13096684D01*
X9860057Y-13040049D01*
X9860054Y-13040047D01*
X9860053Y-13040047D01*
X9860050Y-13040046D01*
X9721964Y-12999500D01*
X9721961Y-12999500D01*
X9578039Y-12999500D01*
X9578035Y-12999500D01*
X9439949Y-13040046D01*
X9439942Y-13040049D01*
X9318873Y-13117855D01*
X9224622Y-13226628D01*
X9164834Y-13357543D01*
X9144353Y-13499997D01*
X9144353Y-13500002D01*
X9164834Y-13642456D01*
X9194559Y-13707543D01*
X9224623Y-13773373D01*
X9235278Y-13785670D01*
X9259095Y-13842029D01*
X9245236Y-13901624D01*
X9198995Y-13941692D01*
X9160458Y-13949500D01*
X8222374Y-13949500D01*
X8164183Y-13930593D01*
X8152370Y-13920504D01*
X6373082Y-12141216D01*
X4566406Y-10334540D01*
X4559570Y-10330593D01*
X4497887Y-10294980D01*
X4497883Y-10294978D01*
X4421459Y-10274500D01*
X4421457Y-10274500D01*
X4172083Y-10274500D01*
X4113892Y-10255593D01*
X4097264Y-10240331D01*
X4068853Y-10207543D01*
X4056128Y-10192857D01*
X4023182Y-10171684D01*
X3935057Y-10115049D01*
X3935054Y-10115047D01*
X3935053Y-10115047D01*
X3935050Y-10115046D01*
X3796964Y-10074500D01*
X3796961Y-10074500D01*
X3653039Y-10074500D01*
X3653035Y-10074500D01*
X3514949Y-10115046D01*
X3514942Y-10115049D01*
X3393873Y-10192855D01*
X3299622Y-10301628D01*
X3239834Y-10432543D01*
X3219353Y-10574997D01*
X100500Y-10574997D01*
X100500Y-9449997D01*
X7019353Y-9449997D01*
X7019353Y-9450002D01*
X7039834Y-9592456D01*
X7053907Y-9623271D01*
X7099623Y-9723373D01*
X7193872Y-9832143D01*
X7193873Y-9832144D01*
X7314942Y-9909950D01*
X7314947Y-9909953D01*
X7421403Y-9941211D01*
X7453035Y-9950499D01*
X7453036Y-9950499D01*
X7453039Y-9950500D01*
X7453041Y-9950500D01*
X7596959Y-9950500D01*
X7596961Y-9950500D01*
X7735053Y-9909953D01*
X7856128Y-9832143D01*
X7950377Y-9723373D01*
X7996093Y-9623268D01*
X8036644Y-9578661D01*
X8059511Y-9565460D01*
X8115460Y-9509511D01*
X10270474Y-7354495D01*
X10324991Y-7326719D01*
X10340478Y-7325500D01*
X10446960Y-7325500D01*
X10446961Y-7325500D01*
X10446962Y-7325499D01*
X10446966Y-7325499D01*
X10489984Y-7312867D01*
X10551144Y-7314613D01*
X10587881Y-7337852D01*
X13994453Y-10744424D01*
X14022230Y-10798941D01*
X14022441Y-10828514D01*
X14019354Y-10849997D01*
X14019353Y-10850002D01*
X14039834Y-10992456D01*
X14099622Y-11123371D01*
X14099623Y-11123373D01*
X14157395Y-11190046D01*
X14193873Y-11232144D01*
X14314942Y-11309950D01*
X14314947Y-11309953D01*
X14384959Y-11330510D01*
X14435466Y-11365046D01*
X14456028Y-11422673D01*
X14438790Y-11481380D01*
X14390337Y-11518742D01*
X14357068Y-11524500D01*
X14158698Y-11524500D01*
X14100507Y-11505593D01*
X14068645Y-11466627D01*
X14062269Y-11452666D01*
X14050377Y-11426627D01*
X13956128Y-11317857D01*
X13956127Y-11317856D01*
X13956126Y-11317855D01*
X13835057Y-11240049D01*
X13835054Y-11240047D01*
X13835053Y-11240047D01*
X13808138Y-11232144D01*
X13696964Y-11199500D01*
X13696961Y-11199500D01*
X13553039Y-11199500D01*
X13553035Y-11199500D01*
X13414949Y-11240046D01*
X13414942Y-11240049D01*
X13293873Y-11317855D01*
X13199622Y-11426628D01*
X13139834Y-11557543D01*
X13119353Y-11699997D01*
X13119353Y-11700002D01*
X13139834Y-11842456D01*
X13196009Y-11965460D01*
X13199623Y-11973373D01*
X13293872Y-12082143D01*
X13293873Y-12082144D01*
X13414505Y-12159669D01*
X13414947Y-12159953D01*
X13521403Y-12191211D01*
X13553035Y-12200499D01*
X13553036Y-12200499D01*
X13553039Y-12200500D01*
X13553041Y-12200500D01*
X13696959Y-12200500D01*
X13696961Y-12200500D01*
X13835053Y-12159953D01*
X13859243Y-12144407D01*
X13864209Y-12141216D01*
X13917732Y-12125500D01*
X15602917Y-12125500D01*
X15661108Y-12144407D01*
X15677733Y-12159667D01*
X15718872Y-12207143D01*
X15839947Y-12284953D01*
X15946403Y-12316211D01*
X15978035Y-12325499D01*
X15978036Y-12325499D01*
X15978039Y-12325500D01*
X15978041Y-12325500D01*
X16121959Y-12325500D01*
X16121961Y-12325500D01*
X16260053Y-12284953D01*
X16381128Y-12207143D01*
X16475377Y-12098373D01*
X16535165Y-11967457D01*
X16555647Y-11825000D01*
X16537674Y-11699997D01*
X16535165Y-11682543D01*
X16520303Y-11650000D01*
X16475377Y-11551627D01*
X16381128Y-11442857D01*
X16381127Y-11442856D01*
X16381126Y-11442855D01*
X16260057Y-11365049D01*
X16260054Y-11365047D01*
X16260053Y-11365047D01*
X16260050Y-11365046D01*
X16121964Y-11324500D01*
X16121961Y-11324500D01*
X15978039Y-11324500D01*
X15978035Y-11324500D01*
X15839949Y-11365046D01*
X15839942Y-11365049D01*
X15718876Y-11442854D01*
X15718875Y-11442855D01*
X15718872Y-11442857D01*
X15682756Y-11484538D01*
X15677736Y-11490331D01*
X15625340Y-11521927D01*
X15602917Y-11524500D01*
X14692932Y-11524500D01*
X14634741Y-11505593D01*
X14598777Y-11456093D01*
X14598777Y-11394907D01*
X14634741Y-11345407D01*
X14665041Y-11330510D01*
X14735053Y-11309953D01*
X14856128Y-11232143D01*
X14950377Y-11123373D01*
X15010165Y-10992457D01*
X15030575Y-10850500D01*
X15030647Y-10850002D01*
X15030647Y-10849997D01*
X15010165Y-10707543D01*
X14971725Y-10623373D01*
X14950377Y-10576627D01*
X14856128Y-10467857D01*
X14856127Y-10467856D01*
X14856126Y-10467855D01*
X14735057Y-10390049D01*
X14735054Y-10390047D01*
X14735053Y-10390047D01*
X14735050Y-10390046D01*
X14596964Y-10349500D01*
X14596961Y-10349500D01*
X14490479Y-10349500D01*
X14432288Y-10330593D01*
X14420475Y-10320504D01*
X10896502Y-6796531D01*
X10868725Y-6742014D01*
X10868536Y-6740769D01*
X10860165Y-6682543D01*
X10800377Y-6551627D01*
X10706128Y-6442857D01*
X10706127Y-6442856D01*
X10706126Y-6442855D01*
X10585057Y-6365049D01*
X10585054Y-6365047D01*
X10585053Y-6365047D01*
X10585050Y-6365046D01*
X10446964Y-6324500D01*
X10446961Y-6324500D01*
X10303039Y-6324500D01*
X10303035Y-6324500D01*
X10164949Y-6365046D01*
X10164942Y-6365049D01*
X10043873Y-6442855D01*
X9949622Y-6551628D01*
X9889834Y-6682543D01*
X9869353Y-6824997D01*
X9869353Y-6825003D01*
X9872441Y-6846482D01*
X9862007Y-6906771D01*
X9844453Y-6930574D01*
X7815183Y-8959844D01*
X7760666Y-8987621D01*
X7717288Y-8984830D01*
X7596964Y-8949500D01*
X7596961Y-8949500D01*
X7453039Y-8949500D01*
X7453035Y-8949500D01*
X7314949Y-8990046D01*
X7314942Y-8990049D01*
X7193873Y-9067855D01*
X7099622Y-9176628D01*
X7039834Y-9307543D01*
X7019353Y-9449997D01*
X100500Y-9449997D01*
X100500Y-2385839D01*
X21049500Y-2385839D01*
X21049500Y-2614160D01*
X21085214Y-2839655D01*
X21155769Y-3056799D01*
X21259420Y-3260227D01*
X21259424Y-3260233D01*
X21393616Y-3444931D01*
X21393618Y-3444933D01*
X21393621Y-3444937D01*
X21555063Y-3606379D01*
X21555066Y-3606381D01*
X21555068Y-3606383D01*
X21739766Y-3740575D01*
X21739772Y-3740579D01*
X21943201Y-3844231D01*
X22160340Y-3914784D01*
X22160341Y-3914784D01*
X22160344Y-3914785D01*
X22385840Y-3950500D01*
X22385843Y-3950500D01*
X22614160Y-3950500D01*
X22839655Y-3914785D01*
X22839656Y-3914784D01*
X22839660Y-3914784D01*
X23056799Y-3844231D01*
X23260228Y-3740579D01*
X23444937Y-3606379D01*
X23606379Y-3444937D01*
X23740579Y-3260228D01*
X23844231Y-3056799D01*
X23914784Y-2839660D01*
X23950500Y-2614157D01*
X23950500Y-2385843D01*
X23950500Y-2385839D01*
X23914785Y-2160344D01*
X23914784Y-2160340D01*
X23844231Y-1943201D01*
X23740579Y-1739772D01*
X23606379Y-1555063D01*
X23444937Y-1393621D01*
X23444933Y-1393618D01*
X23444931Y-1393616D01*
X23260233Y-1259424D01*
X23260227Y-1259420D01*
X23056799Y-1155769D01*
X22839655Y-1085214D01*
X22614160Y-1049500D01*
X22614157Y-1049500D01*
X22385843Y-1049500D01*
X22385840Y-1049500D01*
X22160344Y-1085214D01*
X21943200Y-1155769D01*
X21739772Y-1259420D01*
X21739766Y-1259424D01*
X21555068Y-1393616D01*
X21393616Y-1555068D01*
X21259424Y-1739766D01*
X21259420Y-1739772D01*
X21155769Y-1943200D01*
X21085214Y-2160344D01*
X21049500Y-2385839D01*
X100500Y-2385839D01*
X100500Y-99000D01*
X119407Y-40809D01*
X168907Y-4845D01*
X199500Y0D01*
X24800500Y0D01*
X24858691Y-18907D01*
G37*
%TD.AperFunction*%
%TD*%
D15*
X7525000Y-9450000D03*
X14525000Y-10850000D03*
X10375000Y-6825000D03*
X9050000Y-6425000D03*
X15650000Y-2650000D03*
X700000Y-4100000D03*
X7200000Y-8600000D03*
X2650000Y-5075000D03*
X17750000Y-4425000D03*
X11618750Y-9693750D03*
X4725000Y-4650000D03*
X20950000Y-10150000D03*
X13425000Y-4050000D03*
X4325000Y-2325000D03*
X14925306Y-8869312D03*
X7250000Y-2350000D03*
X15775000Y-21650000D03*
X1325000Y-325000D03*
X6875000Y-3275000D03*
X4675000Y-3250000D03*
X7950000Y-4000000D03*
X21325000Y-20250000D03*
X5800000Y-21175000D03*
X17925000Y-6300000D03*
X2675000Y-12725000D03*
X14550000Y-4600000D03*
X22000000Y-14425000D03*
X5350000Y-24100000D03*
X725000Y-2625000D03*
X15975000Y-4525000D03*
X2725000Y-8375000D03*
X23925000Y-600000D03*
X22275000Y-11625000D03*
X7900000Y-18775000D03*
X19450000Y-7775000D03*
X11875000Y-18075000D03*
X14475000Y-6050000D03*
X600000Y-1175000D03*
X16050000Y-23100000D03*
X2425000Y-10225000D03*
X15450000Y-13000000D03*
X9025000Y-12625000D03*
X18850000Y-18200000D03*
X11500000Y-20875000D03*
X5375000Y-7125000D03*
X24325000Y-4000000D03*
X7475000Y-6250000D03*
X9725000Y-4175000D03*
X11175000Y-3125000D03*
X1650000Y-15700000D03*
X19100000Y-2850000D03*
X3433283Y-14492777D03*
X21175000Y-15100000D03*
X21150000Y-16400000D03*
X4762500Y-16862500D03*
X21203925Y-13850000D03*
X2925000Y-13875000D03*
X4011311Y-12750000D03*
X22100000Y-12825000D03*
X21400000Y-11650000D03*
X2850000Y-11625000D03*
X17375000Y-10350000D03*
X3725000Y-10575000D03*
X9650000Y-13500000D03*
X13275000Y-12975000D03*
X16050000Y-11825000D03*
X13625000Y-11700000D03*
D16*
X6950000Y-23250000D03*
X8950000Y-23250000D03*
X10950000Y-23250000D03*
X12950000Y-23250000D03*
X22500000Y-2500000D03*
X2500000Y-22500000D03*
D15*
X2325000Y-325000D03*
X3325000Y-325000D03*
X4325000Y-325000D03*
X4325000Y-1325000D03*
X7250000Y-350000D03*
X7250000Y-1350000D03*
X8250000Y-350000D03*
X9250000Y-350000D03*
X10250000Y-350000D03*
X11250000Y-350000D03*
X12250000Y-350000D03*
X13250000Y-350000D03*
X14250000Y-350000D03*
X15250000Y-350000D03*
X16250000Y-350000D03*
X17250000Y-350000D03*
X18250000Y-350000D03*
X19250000Y-350000D03*
X20250000Y-350000D03*
X21250000Y-350000D03*
X22250000Y-350000D03*
M02*
