%TF.GenerationSoftware,KiCad,Pcbnew,8.0.7*%
%TF.CreationDate,2025-01-15T18:16:11+00:00*%
%TF.ProjectId,Distance,44697374-616e-4636-952e-6b696361645f,rev?*%
%TF.SameCoordinates,Original*%
%TF.FileFunction,Other,ECO1*%
%FSLAX46Y46*%
G04 Gerber Fmt 4.6, Leading zero omitted, Abs format (unit mm)*
G04 Created by KiCad (PCBNEW 8.0.7) date 2025-01-15 18:16:11*
%MOMM*%
%LPD*%
G01*
G04 APERTURE LIST*
%ADD10C,0.075000*%
%ADD11C,0.150000*%
%ADD12C,0.350000*%
G04 APERTURE END LIST*
D10*
X7353572Y-1629885D02*
X7353572Y-1829885D01*
X7282143Y-1515600D02*
X7210714Y-1729885D01*
X7210714Y-1729885D02*
X7396429Y-1729885D01*
X7510714Y-1801314D02*
X7525000Y-1815600D01*
X7525000Y-1815600D02*
X7510714Y-1829885D01*
X7510714Y-1829885D02*
X7496428Y-1815600D01*
X7496428Y-1815600D02*
X7510714Y-1801314D01*
X7510714Y-1801314D02*
X7510714Y-1829885D01*
X7625000Y-1529885D02*
X7825000Y-1529885D01*
X7825000Y-1529885D02*
X7696428Y-1829885D01*
X8067857Y-1629885D02*
X8067857Y-1829885D01*
X7939285Y-1629885D02*
X7939285Y-1787028D01*
X7939285Y-1787028D02*
X7953571Y-1815600D01*
X7953571Y-1815600D02*
X7982142Y-1829885D01*
X7982142Y-1829885D02*
X8024999Y-1829885D01*
X8024999Y-1829885D02*
X8053571Y-1815600D01*
X8053571Y-1815600D02*
X8067857Y-1801314D01*
X8310714Y-1672742D02*
X8210714Y-1672742D01*
X8210714Y-1829885D02*
X8210714Y-1529885D01*
X8210714Y-1529885D02*
X8353571Y-1529885D01*
X13454885Y-6971428D02*
X13454885Y-7142857D01*
X13454885Y-7057142D02*
X13154885Y-7057142D01*
X13154885Y-7057142D02*
X13197742Y-7085714D01*
X13197742Y-7085714D02*
X13226314Y-7114285D01*
X13226314Y-7114285D02*
X13240600Y-7142857D01*
X13183457Y-6857143D02*
X13169171Y-6842857D01*
X13169171Y-6842857D02*
X13154885Y-6814286D01*
X13154885Y-6814286D02*
X13154885Y-6742857D01*
X13154885Y-6742857D02*
X13169171Y-6714286D01*
X13169171Y-6714286D02*
X13183457Y-6700000D01*
X13183457Y-6700000D02*
X13212028Y-6685714D01*
X13212028Y-6685714D02*
X13240600Y-6685714D01*
X13240600Y-6685714D02*
X13283457Y-6700000D01*
X13283457Y-6700000D02*
X13454885Y-6871428D01*
X13454885Y-6871428D02*
X13454885Y-6685714D01*
X13254885Y-6557143D02*
X13554885Y-6557143D01*
X13269171Y-6557143D02*
X13254885Y-6528572D01*
X13254885Y-6528572D02*
X13254885Y-6471429D01*
X13254885Y-6471429D02*
X13269171Y-6442857D01*
X13269171Y-6442857D02*
X13283457Y-6428572D01*
X13283457Y-6428572D02*
X13312028Y-6414286D01*
X13312028Y-6414286D02*
X13397742Y-6414286D01*
X13397742Y-6414286D02*
X13426314Y-6428572D01*
X13426314Y-6428572D02*
X13440600Y-6442857D01*
X13440600Y-6442857D02*
X13454885Y-6471429D01*
X13454885Y-6471429D02*
X13454885Y-6528572D01*
X13454885Y-6528572D02*
X13440600Y-6557143D01*
X13297742Y-6185714D02*
X13297742Y-6285714D01*
X13454885Y-6285714D02*
X13154885Y-6285714D01*
X13154885Y-6285714D02*
X13154885Y-6142857D01*
X17857381Y-4436102D02*
X17757381Y-4436102D01*
X17757381Y-4593245D02*
X17757381Y-4293245D01*
X17757381Y-4293245D02*
X17900238Y-4293245D01*
X18114524Y-4436102D02*
X18014524Y-4436102D01*
X18014524Y-4593245D02*
X18014524Y-4293245D01*
X18014524Y-4293245D02*
X18157381Y-4293245D01*
X18443096Y-4564674D02*
X18428810Y-4578960D01*
X18428810Y-4578960D02*
X18385953Y-4593245D01*
X18385953Y-4593245D02*
X18357381Y-4593245D01*
X18357381Y-4593245D02*
X18314524Y-4578960D01*
X18314524Y-4578960D02*
X18285953Y-4550388D01*
X18285953Y-4550388D02*
X18271667Y-4521817D01*
X18271667Y-4521817D02*
X18257381Y-4464674D01*
X18257381Y-4464674D02*
X18257381Y-4421817D01*
X18257381Y-4421817D02*
X18271667Y-4364674D01*
X18271667Y-4364674D02*
X18285953Y-4336102D01*
X18285953Y-4336102D02*
X18314524Y-4307531D01*
X18314524Y-4307531D02*
X18357381Y-4293245D01*
X18357381Y-4293245D02*
X18385953Y-4293245D01*
X18385953Y-4293245D02*
X18428810Y-4307531D01*
X18428810Y-4307531D02*
X18443096Y-4321817D01*
X18500239Y-4621817D02*
X18728810Y-4621817D01*
X18928810Y-4578960D02*
X18900238Y-4593245D01*
X18900238Y-4593245D02*
X18843095Y-4593245D01*
X18843095Y-4593245D02*
X18814524Y-4578960D01*
X18814524Y-4578960D02*
X18800238Y-4564674D01*
X18800238Y-4564674D02*
X18785952Y-4536102D01*
X18785952Y-4536102D02*
X18785952Y-4450388D01*
X18785952Y-4450388D02*
X18800238Y-4421817D01*
X18800238Y-4421817D02*
X18814524Y-4407531D01*
X18814524Y-4407531D02*
X18843095Y-4393245D01*
X18843095Y-4393245D02*
X18900238Y-4393245D01*
X18900238Y-4393245D02*
X18928810Y-4407531D01*
X19100238Y-4593245D02*
X19071667Y-4578960D01*
X19071667Y-4578960D02*
X19057381Y-4564674D01*
X19057381Y-4564674D02*
X19043095Y-4536102D01*
X19043095Y-4536102D02*
X19043095Y-4450388D01*
X19043095Y-4450388D02*
X19057381Y-4421817D01*
X19057381Y-4421817D02*
X19071667Y-4407531D01*
X19071667Y-4407531D02*
X19100238Y-4393245D01*
X19100238Y-4393245D02*
X19143095Y-4393245D01*
X19143095Y-4393245D02*
X19171667Y-4407531D01*
X19171667Y-4407531D02*
X19185953Y-4421817D01*
X19185953Y-4421817D02*
X19200238Y-4450388D01*
X19200238Y-4450388D02*
X19200238Y-4536102D01*
X19200238Y-4536102D02*
X19185953Y-4564674D01*
X19185953Y-4564674D02*
X19171667Y-4578960D01*
X19171667Y-4578960D02*
X19143095Y-4593245D01*
X19143095Y-4593245D02*
X19100238Y-4593245D01*
X19328810Y-4393245D02*
X19328810Y-4593245D01*
X19328810Y-4421817D02*
X19343096Y-4407531D01*
X19343096Y-4407531D02*
X19371667Y-4393245D01*
X19371667Y-4393245D02*
X19414524Y-4393245D01*
X19414524Y-4393245D02*
X19443096Y-4407531D01*
X19443096Y-4407531D02*
X19457382Y-4436102D01*
X19457382Y-4436102D02*
X19457382Y-4593245D01*
X19600239Y-4393245D02*
X19600239Y-4593245D01*
X19600239Y-4421817D02*
X19614525Y-4407531D01*
X19614525Y-4407531D02*
X19643096Y-4393245D01*
X19643096Y-4393245D02*
X19685953Y-4393245D01*
X19685953Y-4393245D02*
X19714525Y-4407531D01*
X19714525Y-4407531D02*
X19728811Y-4436102D01*
X19728811Y-4436102D02*
X19728811Y-4593245D01*
X19985954Y-4578960D02*
X19957382Y-4593245D01*
X19957382Y-4593245D02*
X19900240Y-4593245D01*
X19900240Y-4593245D02*
X19871668Y-4578960D01*
X19871668Y-4578960D02*
X19857382Y-4550388D01*
X19857382Y-4550388D02*
X19857382Y-4436102D01*
X19857382Y-4436102D02*
X19871668Y-4407531D01*
X19871668Y-4407531D02*
X19900240Y-4393245D01*
X19900240Y-4393245D02*
X19957382Y-4393245D01*
X19957382Y-4393245D02*
X19985954Y-4407531D01*
X19985954Y-4407531D02*
X20000240Y-4436102D01*
X20000240Y-4436102D02*
X20000240Y-4464674D01*
X20000240Y-4464674D02*
X19857382Y-4493245D01*
X20257383Y-4578960D02*
X20228811Y-4593245D01*
X20228811Y-4593245D02*
X20171668Y-4593245D01*
X20171668Y-4593245D02*
X20143097Y-4578960D01*
X20143097Y-4578960D02*
X20128811Y-4564674D01*
X20128811Y-4564674D02*
X20114525Y-4536102D01*
X20114525Y-4536102D02*
X20114525Y-4450388D01*
X20114525Y-4450388D02*
X20128811Y-4421817D01*
X20128811Y-4421817D02*
X20143097Y-4407531D01*
X20143097Y-4407531D02*
X20171668Y-4393245D01*
X20171668Y-4393245D02*
X20228811Y-4393245D01*
X20228811Y-4393245D02*
X20257383Y-4407531D01*
X20343097Y-4393245D02*
X20457383Y-4393245D01*
X20385954Y-4293245D02*
X20385954Y-4550388D01*
X20385954Y-4550388D02*
X20400240Y-4578960D01*
X20400240Y-4578960D02*
X20428811Y-4593245D01*
X20428811Y-4593245D02*
X20457383Y-4593245D01*
X20600240Y-4593245D02*
X20571669Y-4578960D01*
X20571669Y-4578960D02*
X20557383Y-4564674D01*
X20557383Y-4564674D02*
X20543097Y-4536102D01*
X20543097Y-4536102D02*
X20543097Y-4450388D01*
X20543097Y-4450388D02*
X20557383Y-4421817D01*
X20557383Y-4421817D02*
X20571669Y-4407531D01*
X20571669Y-4407531D02*
X20600240Y-4393245D01*
X20600240Y-4393245D02*
X20643097Y-4393245D01*
X20643097Y-4393245D02*
X20671669Y-4407531D01*
X20671669Y-4407531D02*
X20685955Y-4421817D01*
X20685955Y-4421817D02*
X20700240Y-4450388D01*
X20700240Y-4450388D02*
X20700240Y-4536102D01*
X20700240Y-4536102D02*
X20685955Y-4564674D01*
X20685955Y-4564674D02*
X20671669Y-4578960D01*
X20671669Y-4578960D02*
X20643097Y-4593245D01*
X20643097Y-4593245D02*
X20600240Y-4593245D01*
X20828812Y-4593245D02*
X20828812Y-4393245D01*
X20828812Y-4450388D02*
X20843098Y-4421817D01*
X20843098Y-4421817D02*
X20857384Y-4407531D01*
X20857384Y-4407531D02*
X20885955Y-4393245D01*
X20885955Y-4393245D02*
X20914526Y-4393245D01*
X20943098Y-4621817D02*
X21171669Y-4621817D01*
X21400240Y-4593245D02*
X21228811Y-4593245D01*
X21314526Y-4593245D02*
X21314526Y-4293245D01*
X21314526Y-4293245D02*
X21285954Y-4336102D01*
X21285954Y-4336102D02*
X21257383Y-4364674D01*
X21257383Y-4364674D02*
X21228811Y-4378960D01*
X21657383Y-4293245D02*
X21600240Y-4293245D01*
X21600240Y-4293245D02*
X21571668Y-4307531D01*
X21571668Y-4307531D02*
X21557383Y-4321817D01*
X21557383Y-4321817D02*
X21528811Y-4364674D01*
X21528811Y-4364674D02*
X21514525Y-4421817D01*
X21514525Y-4421817D02*
X21514525Y-4536102D01*
X21514525Y-4536102D02*
X21528811Y-4564674D01*
X21528811Y-4564674D02*
X21543097Y-4578960D01*
X21543097Y-4578960D02*
X21571668Y-4593245D01*
X21571668Y-4593245D02*
X21628811Y-4593245D01*
X21628811Y-4593245D02*
X21657383Y-4578960D01*
X21657383Y-4578960D02*
X21671668Y-4564674D01*
X21671668Y-4564674D02*
X21685954Y-4536102D01*
X21685954Y-4536102D02*
X21685954Y-4464674D01*
X21685954Y-4464674D02*
X21671668Y-4436102D01*
X21671668Y-4436102D02*
X21657383Y-4421817D01*
X21657383Y-4421817D02*
X21628811Y-4407531D01*
X21628811Y-4407531D02*
X21571668Y-4407531D01*
X21571668Y-4407531D02*
X21543097Y-4421817D01*
X21543097Y-4421817D02*
X21528811Y-4436102D01*
X21528811Y-4436102D02*
X21514525Y-4464674D01*
X21814525Y-4393245D02*
X21814525Y-4693245D01*
X21814525Y-4407531D02*
X21843097Y-4393245D01*
X21843097Y-4393245D02*
X21900239Y-4393245D01*
X21900239Y-4393245D02*
X21928811Y-4407531D01*
X21928811Y-4407531D02*
X21943097Y-4421817D01*
X21943097Y-4421817D02*
X21957382Y-4450388D01*
X21957382Y-4450388D02*
X21957382Y-4536102D01*
X21957382Y-4536102D02*
X21943097Y-4564674D01*
X21943097Y-4564674D02*
X21928811Y-4578960D01*
X21928811Y-4578960D02*
X21900239Y-4593245D01*
X21900239Y-4593245D02*
X21843097Y-4593245D01*
X21843097Y-4593245D02*
X21814525Y-4578960D01*
X22014526Y-4621817D02*
X22243097Y-4621817D01*
X22314525Y-4593245D02*
X22314525Y-4293245D01*
X22443097Y-4593245D02*
X22443097Y-4436102D01*
X22443097Y-4436102D02*
X22428811Y-4407531D01*
X22428811Y-4407531D02*
X22400239Y-4393245D01*
X22400239Y-4393245D02*
X22357382Y-4393245D01*
X22357382Y-4393245D02*
X22328811Y-4407531D01*
X22328811Y-4407531D02*
X22314525Y-4421817D01*
X22585954Y-4593245D02*
X22585954Y-4393245D01*
X22585954Y-4293245D02*
X22571668Y-4307531D01*
X22571668Y-4307531D02*
X22585954Y-4321817D01*
X22585954Y-4321817D02*
X22600240Y-4307531D01*
X22600240Y-4307531D02*
X22585954Y-4293245D01*
X22585954Y-4293245D02*
X22585954Y-4321817D01*
X22728811Y-4393245D02*
X22728811Y-4593245D01*
X22728811Y-4421817D02*
X22743097Y-4407531D01*
X22743097Y-4407531D02*
X22771668Y-4393245D01*
X22771668Y-4393245D02*
X22814525Y-4393245D01*
X22814525Y-4393245D02*
X22843097Y-4407531D01*
X22843097Y-4407531D02*
X22857383Y-4436102D01*
X22857383Y-4436102D02*
X22857383Y-4593245D01*
X23128812Y-4393245D02*
X23128812Y-4636102D01*
X23128812Y-4636102D02*
X23114526Y-4664674D01*
X23114526Y-4664674D02*
X23100240Y-4678960D01*
X23100240Y-4678960D02*
X23071669Y-4693245D01*
X23071669Y-4693245D02*
X23028812Y-4693245D01*
X23028812Y-4693245D02*
X23000240Y-4678960D01*
X23128812Y-4578960D02*
X23100240Y-4593245D01*
X23100240Y-4593245D02*
X23043097Y-4593245D01*
X23043097Y-4593245D02*
X23014526Y-4578960D01*
X23014526Y-4578960D02*
X23000240Y-4564674D01*
X23000240Y-4564674D02*
X22985954Y-4536102D01*
X22985954Y-4536102D02*
X22985954Y-4450388D01*
X22985954Y-4450388D02*
X23000240Y-4421817D01*
X23000240Y-4421817D02*
X23014526Y-4407531D01*
X23014526Y-4407531D02*
X23043097Y-4393245D01*
X23043097Y-4393245D02*
X23100240Y-4393245D01*
X23100240Y-4393245D02*
X23128812Y-4407531D01*
X23385955Y-4578960D02*
X23357383Y-4593245D01*
X23357383Y-4593245D02*
X23300241Y-4593245D01*
X23300241Y-4593245D02*
X23271669Y-4578960D01*
X23271669Y-4578960D02*
X23257383Y-4550388D01*
X23257383Y-4550388D02*
X23257383Y-4436102D01*
X23257383Y-4436102D02*
X23271669Y-4407531D01*
X23271669Y-4407531D02*
X23300241Y-4393245D01*
X23300241Y-4393245D02*
X23357383Y-4393245D01*
X23357383Y-4393245D02*
X23385955Y-4407531D01*
X23385955Y-4407531D02*
X23400241Y-4436102D01*
X23400241Y-4436102D02*
X23400241Y-4464674D01*
X23400241Y-4464674D02*
X23257383Y-4493245D01*
X23457384Y-4621817D02*
X23685955Y-4621817D01*
X23800240Y-4593245D02*
X23771669Y-4578960D01*
X23771669Y-4578960D02*
X23757383Y-4550388D01*
X23757383Y-4550388D02*
X23757383Y-4293245D01*
X23957383Y-4593245D02*
X23928812Y-4578960D01*
X23928812Y-4578960D02*
X23914526Y-4564674D01*
X23914526Y-4564674D02*
X23900240Y-4536102D01*
X23900240Y-4536102D02*
X23900240Y-4450388D01*
X23900240Y-4450388D02*
X23914526Y-4421817D01*
X23914526Y-4421817D02*
X23928812Y-4407531D01*
X23928812Y-4407531D02*
X23957383Y-4393245D01*
X23957383Y-4393245D02*
X24000240Y-4393245D01*
X24000240Y-4393245D02*
X24028812Y-4407531D01*
X24028812Y-4407531D02*
X24043098Y-4421817D01*
X24043098Y-4421817D02*
X24057383Y-4450388D01*
X24057383Y-4450388D02*
X24057383Y-4536102D01*
X24057383Y-4536102D02*
X24043098Y-4564674D01*
X24043098Y-4564674D02*
X24028812Y-4578960D01*
X24028812Y-4578960D02*
X24000240Y-4593245D01*
X24000240Y-4593245D02*
X23957383Y-4593245D01*
X24314527Y-4578960D02*
X24285955Y-4593245D01*
X24285955Y-4593245D02*
X24228812Y-4593245D01*
X24228812Y-4593245D02*
X24200241Y-4578960D01*
X24200241Y-4578960D02*
X24185955Y-4564674D01*
X24185955Y-4564674D02*
X24171669Y-4536102D01*
X24171669Y-4536102D02*
X24171669Y-4450388D01*
X24171669Y-4450388D02*
X24185955Y-4421817D01*
X24185955Y-4421817D02*
X24200241Y-4407531D01*
X24200241Y-4407531D02*
X24228812Y-4393245D01*
X24228812Y-4393245D02*
X24285955Y-4393245D01*
X24285955Y-4393245D02*
X24314527Y-4407531D01*
X24443098Y-4593245D02*
X24443098Y-4293245D01*
X24471670Y-4478960D02*
X24557384Y-4593245D01*
X24557384Y-4393245D02*
X24443098Y-4507531D01*
X556901Y-20519382D02*
X456901Y-20519382D01*
X456901Y-20676525D02*
X456901Y-20376525D01*
X456901Y-20376525D02*
X599758Y-20376525D01*
X814044Y-20519382D02*
X714044Y-20519382D01*
X714044Y-20676525D02*
X714044Y-20376525D01*
X714044Y-20376525D02*
X856901Y-20376525D01*
X1142616Y-20647954D02*
X1128330Y-20662240D01*
X1128330Y-20662240D02*
X1085473Y-20676525D01*
X1085473Y-20676525D02*
X1056901Y-20676525D01*
X1056901Y-20676525D02*
X1014044Y-20662240D01*
X1014044Y-20662240D02*
X985473Y-20633668D01*
X985473Y-20633668D02*
X971187Y-20605097D01*
X971187Y-20605097D02*
X956901Y-20547954D01*
X956901Y-20547954D02*
X956901Y-20505097D01*
X956901Y-20505097D02*
X971187Y-20447954D01*
X971187Y-20447954D02*
X985473Y-20419382D01*
X985473Y-20419382D02*
X1014044Y-20390811D01*
X1014044Y-20390811D02*
X1056901Y-20376525D01*
X1056901Y-20376525D02*
X1085473Y-20376525D01*
X1085473Y-20376525D02*
X1128330Y-20390811D01*
X1128330Y-20390811D02*
X1142616Y-20405097D01*
X1199759Y-20705097D02*
X1428330Y-20705097D01*
X1628330Y-20662240D02*
X1599758Y-20676525D01*
X1599758Y-20676525D02*
X1542615Y-20676525D01*
X1542615Y-20676525D02*
X1514044Y-20662240D01*
X1514044Y-20662240D02*
X1499758Y-20647954D01*
X1499758Y-20647954D02*
X1485472Y-20619382D01*
X1485472Y-20619382D02*
X1485472Y-20533668D01*
X1485472Y-20533668D02*
X1499758Y-20505097D01*
X1499758Y-20505097D02*
X1514044Y-20490811D01*
X1514044Y-20490811D02*
X1542615Y-20476525D01*
X1542615Y-20476525D02*
X1599758Y-20476525D01*
X1599758Y-20476525D02*
X1628330Y-20490811D01*
X1799758Y-20676525D02*
X1771187Y-20662240D01*
X1771187Y-20662240D02*
X1756901Y-20647954D01*
X1756901Y-20647954D02*
X1742615Y-20619382D01*
X1742615Y-20619382D02*
X1742615Y-20533668D01*
X1742615Y-20533668D02*
X1756901Y-20505097D01*
X1756901Y-20505097D02*
X1771187Y-20490811D01*
X1771187Y-20490811D02*
X1799758Y-20476525D01*
X1799758Y-20476525D02*
X1842615Y-20476525D01*
X1842615Y-20476525D02*
X1871187Y-20490811D01*
X1871187Y-20490811D02*
X1885473Y-20505097D01*
X1885473Y-20505097D02*
X1899758Y-20533668D01*
X1899758Y-20533668D02*
X1899758Y-20619382D01*
X1899758Y-20619382D02*
X1885473Y-20647954D01*
X1885473Y-20647954D02*
X1871187Y-20662240D01*
X1871187Y-20662240D02*
X1842615Y-20676525D01*
X1842615Y-20676525D02*
X1799758Y-20676525D01*
X2028330Y-20476525D02*
X2028330Y-20676525D01*
X2028330Y-20505097D02*
X2042616Y-20490811D01*
X2042616Y-20490811D02*
X2071187Y-20476525D01*
X2071187Y-20476525D02*
X2114044Y-20476525D01*
X2114044Y-20476525D02*
X2142616Y-20490811D01*
X2142616Y-20490811D02*
X2156902Y-20519382D01*
X2156902Y-20519382D02*
X2156902Y-20676525D01*
X2299759Y-20476525D02*
X2299759Y-20676525D01*
X2299759Y-20505097D02*
X2314045Y-20490811D01*
X2314045Y-20490811D02*
X2342616Y-20476525D01*
X2342616Y-20476525D02*
X2385473Y-20476525D01*
X2385473Y-20476525D02*
X2414045Y-20490811D01*
X2414045Y-20490811D02*
X2428331Y-20519382D01*
X2428331Y-20519382D02*
X2428331Y-20676525D01*
X2685474Y-20662240D02*
X2656902Y-20676525D01*
X2656902Y-20676525D02*
X2599760Y-20676525D01*
X2599760Y-20676525D02*
X2571188Y-20662240D01*
X2571188Y-20662240D02*
X2556902Y-20633668D01*
X2556902Y-20633668D02*
X2556902Y-20519382D01*
X2556902Y-20519382D02*
X2571188Y-20490811D01*
X2571188Y-20490811D02*
X2599760Y-20476525D01*
X2599760Y-20476525D02*
X2656902Y-20476525D01*
X2656902Y-20476525D02*
X2685474Y-20490811D01*
X2685474Y-20490811D02*
X2699760Y-20519382D01*
X2699760Y-20519382D02*
X2699760Y-20547954D01*
X2699760Y-20547954D02*
X2556902Y-20576525D01*
X2956903Y-20662240D02*
X2928331Y-20676525D01*
X2928331Y-20676525D02*
X2871188Y-20676525D01*
X2871188Y-20676525D02*
X2842617Y-20662240D01*
X2842617Y-20662240D02*
X2828331Y-20647954D01*
X2828331Y-20647954D02*
X2814045Y-20619382D01*
X2814045Y-20619382D02*
X2814045Y-20533668D01*
X2814045Y-20533668D02*
X2828331Y-20505097D01*
X2828331Y-20505097D02*
X2842617Y-20490811D01*
X2842617Y-20490811D02*
X2871188Y-20476525D01*
X2871188Y-20476525D02*
X2928331Y-20476525D01*
X2928331Y-20476525D02*
X2956903Y-20490811D01*
X3042617Y-20476525D02*
X3156903Y-20476525D01*
X3085474Y-20376525D02*
X3085474Y-20633668D01*
X3085474Y-20633668D02*
X3099760Y-20662240D01*
X3099760Y-20662240D02*
X3128331Y-20676525D01*
X3128331Y-20676525D02*
X3156903Y-20676525D01*
X3299760Y-20676525D02*
X3271189Y-20662240D01*
X3271189Y-20662240D02*
X3256903Y-20647954D01*
X3256903Y-20647954D02*
X3242617Y-20619382D01*
X3242617Y-20619382D02*
X3242617Y-20533668D01*
X3242617Y-20533668D02*
X3256903Y-20505097D01*
X3256903Y-20505097D02*
X3271189Y-20490811D01*
X3271189Y-20490811D02*
X3299760Y-20476525D01*
X3299760Y-20476525D02*
X3342617Y-20476525D01*
X3342617Y-20476525D02*
X3371189Y-20490811D01*
X3371189Y-20490811D02*
X3385475Y-20505097D01*
X3385475Y-20505097D02*
X3399760Y-20533668D01*
X3399760Y-20533668D02*
X3399760Y-20619382D01*
X3399760Y-20619382D02*
X3385475Y-20647954D01*
X3385475Y-20647954D02*
X3371189Y-20662240D01*
X3371189Y-20662240D02*
X3342617Y-20676525D01*
X3342617Y-20676525D02*
X3299760Y-20676525D01*
X3528332Y-20676525D02*
X3528332Y-20476525D01*
X3528332Y-20533668D02*
X3542618Y-20505097D01*
X3542618Y-20505097D02*
X3556904Y-20490811D01*
X3556904Y-20490811D02*
X3585475Y-20476525D01*
X3585475Y-20476525D02*
X3614046Y-20476525D01*
X3642618Y-20705097D02*
X3871189Y-20705097D01*
X4099760Y-20676525D02*
X3928331Y-20676525D01*
X4014046Y-20676525D02*
X4014046Y-20376525D01*
X4014046Y-20376525D02*
X3985474Y-20419382D01*
X3985474Y-20419382D02*
X3956903Y-20447954D01*
X3956903Y-20447954D02*
X3928331Y-20462240D01*
X4356903Y-20376525D02*
X4299760Y-20376525D01*
X4299760Y-20376525D02*
X4271188Y-20390811D01*
X4271188Y-20390811D02*
X4256903Y-20405097D01*
X4256903Y-20405097D02*
X4228331Y-20447954D01*
X4228331Y-20447954D02*
X4214045Y-20505097D01*
X4214045Y-20505097D02*
X4214045Y-20619382D01*
X4214045Y-20619382D02*
X4228331Y-20647954D01*
X4228331Y-20647954D02*
X4242617Y-20662240D01*
X4242617Y-20662240D02*
X4271188Y-20676525D01*
X4271188Y-20676525D02*
X4328331Y-20676525D01*
X4328331Y-20676525D02*
X4356903Y-20662240D01*
X4356903Y-20662240D02*
X4371188Y-20647954D01*
X4371188Y-20647954D02*
X4385474Y-20619382D01*
X4385474Y-20619382D02*
X4385474Y-20547954D01*
X4385474Y-20547954D02*
X4371188Y-20519382D01*
X4371188Y-20519382D02*
X4356903Y-20505097D01*
X4356903Y-20505097D02*
X4328331Y-20490811D01*
X4328331Y-20490811D02*
X4271188Y-20490811D01*
X4271188Y-20490811D02*
X4242617Y-20505097D01*
X4242617Y-20505097D02*
X4228331Y-20519382D01*
X4228331Y-20519382D02*
X4214045Y-20547954D01*
X4514045Y-20476525D02*
X4514045Y-20776525D01*
X4514045Y-20490811D02*
X4542617Y-20476525D01*
X4542617Y-20476525D02*
X4599759Y-20476525D01*
X4599759Y-20476525D02*
X4628331Y-20490811D01*
X4628331Y-20490811D02*
X4642617Y-20505097D01*
X4642617Y-20505097D02*
X4656902Y-20533668D01*
X4656902Y-20533668D02*
X4656902Y-20619382D01*
X4656902Y-20619382D02*
X4642617Y-20647954D01*
X4642617Y-20647954D02*
X4628331Y-20662240D01*
X4628331Y-20662240D02*
X4599759Y-20676525D01*
X4599759Y-20676525D02*
X4542617Y-20676525D01*
X4542617Y-20676525D02*
X4514045Y-20662240D01*
X4714046Y-20705097D02*
X4942617Y-20705097D01*
X5014045Y-20676525D02*
X5014045Y-20376525D01*
X5142617Y-20676525D02*
X5142617Y-20519382D01*
X5142617Y-20519382D02*
X5128331Y-20490811D01*
X5128331Y-20490811D02*
X5099759Y-20476525D01*
X5099759Y-20476525D02*
X5056902Y-20476525D01*
X5056902Y-20476525D02*
X5028331Y-20490811D01*
X5028331Y-20490811D02*
X5014045Y-20505097D01*
X5285474Y-20676525D02*
X5285474Y-20476525D01*
X5285474Y-20376525D02*
X5271188Y-20390811D01*
X5271188Y-20390811D02*
X5285474Y-20405097D01*
X5285474Y-20405097D02*
X5299760Y-20390811D01*
X5299760Y-20390811D02*
X5285474Y-20376525D01*
X5285474Y-20376525D02*
X5285474Y-20405097D01*
X5428331Y-20476525D02*
X5428331Y-20676525D01*
X5428331Y-20505097D02*
X5442617Y-20490811D01*
X5442617Y-20490811D02*
X5471188Y-20476525D01*
X5471188Y-20476525D02*
X5514045Y-20476525D01*
X5514045Y-20476525D02*
X5542617Y-20490811D01*
X5542617Y-20490811D02*
X5556903Y-20519382D01*
X5556903Y-20519382D02*
X5556903Y-20676525D01*
X5828332Y-20476525D02*
X5828332Y-20719382D01*
X5828332Y-20719382D02*
X5814046Y-20747954D01*
X5814046Y-20747954D02*
X5799760Y-20762240D01*
X5799760Y-20762240D02*
X5771189Y-20776525D01*
X5771189Y-20776525D02*
X5728332Y-20776525D01*
X5728332Y-20776525D02*
X5699760Y-20762240D01*
X5828332Y-20662240D02*
X5799760Y-20676525D01*
X5799760Y-20676525D02*
X5742617Y-20676525D01*
X5742617Y-20676525D02*
X5714046Y-20662240D01*
X5714046Y-20662240D02*
X5699760Y-20647954D01*
X5699760Y-20647954D02*
X5685474Y-20619382D01*
X5685474Y-20619382D02*
X5685474Y-20533668D01*
X5685474Y-20533668D02*
X5699760Y-20505097D01*
X5699760Y-20505097D02*
X5714046Y-20490811D01*
X5714046Y-20490811D02*
X5742617Y-20476525D01*
X5742617Y-20476525D02*
X5799760Y-20476525D01*
X5799760Y-20476525D02*
X5828332Y-20490811D01*
X6085475Y-20662240D02*
X6056903Y-20676525D01*
X6056903Y-20676525D02*
X5999761Y-20676525D01*
X5999761Y-20676525D02*
X5971189Y-20662240D01*
X5971189Y-20662240D02*
X5956903Y-20633668D01*
X5956903Y-20633668D02*
X5956903Y-20519382D01*
X5956903Y-20519382D02*
X5971189Y-20490811D01*
X5971189Y-20490811D02*
X5999761Y-20476525D01*
X5999761Y-20476525D02*
X6056903Y-20476525D01*
X6056903Y-20476525D02*
X6085475Y-20490811D01*
X6085475Y-20490811D02*
X6099761Y-20519382D01*
X6099761Y-20519382D02*
X6099761Y-20547954D01*
X6099761Y-20547954D02*
X5956903Y-20576525D01*
X6156904Y-20705097D02*
X6385475Y-20705097D01*
X6499760Y-20676525D02*
X6471189Y-20662240D01*
X6471189Y-20662240D02*
X6456903Y-20633668D01*
X6456903Y-20633668D02*
X6456903Y-20376525D01*
X6656903Y-20676525D02*
X6628332Y-20662240D01*
X6628332Y-20662240D02*
X6614046Y-20647954D01*
X6614046Y-20647954D02*
X6599760Y-20619382D01*
X6599760Y-20619382D02*
X6599760Y-20533668D01*
X6599760Y-20533668D02*
X6614046Y-20505097D01*
X6614046Y-20505097D02*
X6628332Y-20490811D01*
X6628332Y-20490811D02*
X6656903Y-20476525D01*
X6656903Y-20476525D02*
X6699760Y-20476525D01*
X6699760Y-20476525D02*
X6728332Y-20490811D01*
X6728332Y-20490811D02*
X6742618Y-20505097D01*
X6742618Y-20505097D02*
X6756903Y-20533668D01*
X6756903Y-20533668D02*
X6756903Y-20619382D01*
X6756903Y-20619382D02*
X6742618Y-20647954D01*
X6742618Y-20647954D02*
X6728332Y-20662240D01*
X6728332Y-20662240D02*
X6699760Y-20676525D01*
X6699760Y-20676525D02*
X6656903Y-20676525D01*
X7014047Y-20662240D02*
X6985475Y-20676525D01*
X6985475Y-20676525D02*
X6928332Y-20676525D01*
X6928332Y-20676525D02*
X6899761Y-20662240D01*
X6899761Y-20662240D02*
X6885475Y-20647954D01*
X6885475Y-20647954D02*
X6871189Y-20619382D01*
X6871189Y-20619382D02*
X6871189Y-20533668D01*
X6871189Y-20533668D02*
X6885475Y-20505097D01*
X6885475Y-20505097D02*
X6899761Y-20490811D01*
X6899761Y-20490811D02*
X6928332Y-20476525D01*
X6928332Y-20476525D02*
X6985475Y-20476525D01*
X6985475Y-20476525D02*
X7014047Y-20490811D01*
X7142618Y-20676525D02*
X7142618Y-20376525D01*
X7171190Y-20562240D02*
X7256904Y-20676525D01*
X7256904Y-20476525D02*
X7142618Y-20590811D01*
X20044885Y-21642856D02*
X20044885Y-21442856D01*
X20044885Y-21442856D02*
X20344885Y-21571428D01*
X20044885Y-21185714D02*
X20044885Y-21328571D01*
X20044885Y-21328571D02*
X20187742Y-21342857D01*
X20187742Y-21342857D02*
X20173457Y-21328571D01*
X20173457Y-21328571D02*
X20159171Y-21300000D01*
X20159171Y-21300000D02*
X20159171Y-21228571D01*
X20159171Y-21228571D02*
X20173457Y-21200000D01*
X20173457Y-21200000D02*
X20187742Y-21185714D01*
X20187742Y-21185714D02*
X20216314Y-21171428D01*
X20216314Y-21171428D02*
X20287742Y-21171428D01*
X20287742Y-21171428D02*
X20316314Y-21185714D01*
X20316314Y-21185714D02*
X20330600Y-21200000D01*
X20330600Y-21200000D02*
X20344885Y-21228571D01*
X20344885Y-21228571D02*
X20344885Y-21300000D01*
X20344885Y-21300000D02*
X20330600Y-21328571D01*
X20330600Y-21328571D02*
X20316314Y-21342857D01*
X20344885Y-20871428D02*
X20202028Y-20971428D01*
X20344885Y-21042857D02*
X20044885Y-21042857D01*
X20044885Y-21042857D02*
X20044885Y-20928571D01*
X20044885Y-20928571D02*
X20059171Y-20900000D01*
X20059171Y-20900000D02*
X20073457Y-20885714D01*
X20073457Y-20885714D02*
X20102028Y-20871428D01*
X20102028Y-20871428D02*
X20144885Y-20871428D01*
X20144885Y-20871428D02*
X20173457Y-20885714D01*
X20173457Y-20885714D02*
X20187742Y-20900000D01*
X20187742Y-20900000D02*
X20202028Y-20928571D01*
X20202028Y-20928571D02*
X20202028Y-21042857D01*
X6114885Y-21417856D02*
X6114885Y-21217856D01*
X6114885Y-21217856D02*
X6414885Y-21346428D01*
X6114885Y-20960714D02*
X6114885Y-21103571D01*
X6114885Y-21103571D02*
X6257742Y-21117857D01*
X6257742Y-21117857D02*
X6243457Y-21103571D01*
X6243457Y-21103571D02*
X6229171Y-21075000D01*
X6229171Y-21075000D02*
X6229171Y-21003571D01*
X6229171Y-21003571D02*
X6243457Y-20975000D01*
X6243457Y-20975000D02*
X6257742Y-20960714D01*
X6257742Y-20960714D02*
X6286314Y-20946428D01*
X6286314Y-20946428D02*
X6357742Y-20946428D01*
X6357742Y-20946428D02*
X6386314Y-20960714D01*
X6386314Y-20960714D02*
X6400600Y-20975000D01*
X6400600Y-20975000D02*
X6414885Y-21003571D01*
X6414885Y-21003571D02*
X6414885Y-21075000D01*
X6414885Y-21075000D02*
X6400600Y-21103571D01*
X6400600Y-21103571D02*
X6386314Y-21117857D01*
X6414885Y-20646428D02*
X6272028Y-20746428D01*
X6414885Y-20817857D02*
X6114885Y-20817857D01*
X6114885Y-20817857D02*
X6114885Y-20703571D01*
X6114885Y-20703571D02*
X6129171Y-20675000D01*
X6129171Y-20675000D02*
X6143457Y-20660714D01*
X6143457Y-20660714D02*
X6172028Y-20646428D01*
X6172028Y-20646428D02*
X6214885Y-20646428D01*
X6214885Y-20646428D02*
X6243457Y-20660714D01*
X6243457Y-20660714D02*
X6257742Y-20675000D01*
X6257742Y-20675000D02*
X6272028Y-20703571D01*
X6272028Y-20703571D02*
X6272028Y-20817857D01*
X8632143Y-9779885D02*
X8660714Y-9779885D01*
X8660714Y-9779885D02*
X8689286Y-9794171D01*
X8689286Y-9794171D02*
X8703572Y-9808457D01*
X8703572Y-9808457D02*
X8717857Y-9837028D01*
X8717857Y-9837028D02*
X8732143Y-9894171D01*
X8732143Y-9894171D02*
X8732143Y-9965600D01*
X8732143Y-9965600D02*
X8717857Y-10022742D01*
X8717857Y-10022742D02*
X8703572Y-10051314D01*
X8703572Y-10051314D02*
X8689286Y-10065600D01*
X8689286Y-10065600D02*
X8660714Y-10079885D01*
X8660714Y-10079885D02*
X8632143Y-10079885D01*
X8632143Y-10079885D02*
X8603572Y-10065600D01*
X8603572Y-10065600D02*
X8589286Y-10051314D01*
X8589286Y-10051314D02*
X8575000Y-10022742D01*
X8575000Y-10022742D02*
X8560714Y-9965600D01*
X8560714Y-9965600D02*
X8560714Y-9894171D01*
X8560714Y-9894171D02*
X8575000Y-9837028D01*
X8575000Y-9837028D02*
X8589286Y-9808457D01*
X8589286Y-9808457D02*
X8603572Y-9794171D01*
X8603572Y-9794171D02*
X8632143Y-9779885D01*
X8860714Y-10051314D02*
X8875000Y-10065600D01*
X8875000Y-10065600D02*
X8860714Y-10079885D01*
X8860714Y-10079885D02*
X8846428Y-10065600D01*
X8846428Y-10065600D02*
X8860714Y-10051314D01*
X8860714Y-10051314D02*
X8860714Y-10079885D01*
X9160714Y-10079885D02*
X8989285Y-10079885D01*
X9075000Y-10079885D02*
X9075000Y-9779885D01*
X9075000Y-9779885D02*
X9046428Y-9822742D01*
X9046428Y-9822742D02*
X9017857Y-9851314D01*
X9017857Y-9851314D02*
X8989285Y-9865600D01*
X9417857Y-9879885D02*
X9417857Y-10079885D01*
X9289285Y-9879885D02*
X9289285Y-10037028D01*
X9289285Y-10037028D02*
X9303571Y-10065600D01*
X9303571Y-10065600D02*
X9332142Y-10079885D01*
X9332142Y-10079885D02*
X9374999Y-10079885D01*
X9374999Y-10079885D02*
X9403571Y-10065600D01*
X9403571Y-10065600D02*
X9417857Y-10051314D01*
X9660714Y-9922742D02*
X9560714Y-9922742D01*
X9560714Y-10079885D02*
X9560714Y-9779885D01*
X9560714Y-9779885D02*
X9703571Y-9779885D01*
X14089885Y-6807142D02*
X14089885Y-6978571D01*
X14089885Y-6892856D02*
X13789885Y-6892856D01*
X13789885Y-6892856D02*
X13832742Y-6921428D01*
X13832742Y-6921428D02*
X13861314Y-6949999D01*
X13861314Y-6949999D02*
X13875600Y-6978571D01*
X13789885Y-6621428D02*
X13789885Y-6592857D01*
X13789885Y-6592857D02*
X13804171Y-6564285D01*
X13804171Y-6564285D02*
X13818457Y-6550000D01*
X13818457Y-6550000D02*
X13847028Y-6535714D01*
X13847028Y-6535714D02*
X13904171Y-6521428D01*
X13904171Y-6521428D02*
X13975600Y-6521428D01*
X13975600Y-6521428D02*
X14032742Y-6535714D01*
X14032742Y-6535714D02*
X14061314Y-6550000D01*
X14061314Y-6550000D02*
X14075600Y-6564285D01*
X14075600Y-6564285D02*
X14089885Y-6592857D01*
X14089885Y-6592857D02*
X14089885Y-6621428D01*
X14089885Y-6621428D02*
X14075600Y-6650000D01*
X14075600Y-6650000D02*
X14061314Y-6664285D01*
X14061314Y-6664285D02*
X14032742Y-6678571D01*
X14032742Y-6678571D02*
X13975600Y-6692857D01*
X13975600Y-6692857D02*
X13904171Y-6692857D01*
X13904171Y-6692857D02*
X13847028Y-6678571D01*
X13847028Y-6678571D02*
X13818457Y-6664285D01*
X13818457Y-6664285D02*
X13804171Y-6650000D01*
X13804171Y-6650000D02*
X13789885Y-6621428D01*
X14089885Y-6392857D02*
X13789885Y-6392857D01*
X14089885Y-6221428D02*
X13918457Y-6350000D01*
X13789885Y-6221428D02*
X13961314Y-6392857D01*
X2353572Y-2494885D02*
X2353572Y-2694885D01*
X2282143Y-2380600D02*
X2210714Y-2594885D01*
X2210714Y-2594885D02*
X2396429Y-2594885D01*
X2510714Y-2666314D02*
X2525000Y-2680600D01*
X2525000Y-2680600D02*
X2510714Y-2694885D01*
X2510714Y-2694885D02*
X2496428Y-2680600D01*
X2496428Y-2680600D02*
X2510714Y-2666314D01*
X2510714Y-2666314D02*
X2510714Y-2694885D01*
X2625000Y-2394885D02*
X2825000Y-2394885D01*
X2825000Y-2394885D02*
X2696428Y-2694885D01*
X3067857Y-2494885D02*
X3067857Y-2694885D01*
X2939285Y-2494885D02*
X2939285Y-2652028D01*
X2939285Y-2652028D02*
X2953571Y-2680600D01*
X2953571Y-2680600D02*
X2982142Y-2694885D01*
X2982142Y-2694885D02*
X3024999Y-2694885D01*
X3024999Y-2694885D02*
X3053571Y-2680600D01*
X3053571Y-2680600D02*
X3067857Y-2666314D01*
X3310714Y-2537742D02*
X3210714Y-2537742D01*
X3210714Y-2694885D02*
X3210714Y-2394885D01*
X3210714Y-2394885D02*
X3353571Y-2394885D01*
X2509885Y-5379999D02*
X2209885Y-5379999D01*
X2209885Y-5379999D02*
X2424171Y-5279999D01*
X2424171Y-5279999D02*
X2209885Y-5179999D01*
X2209885Y-5179999D02*
X2509885Y-5179999D01*
X2352742Y-5037142D02*
X2352742Y-4937142D01*
X2509885Y-4894285D02*
X2509885Y-5037142D01*
X2509885Y-5037142D02*
X2209885Y-5037142D01*
X2209885Y-5037142D02*
X2209885Y-4894285D01*
X2209885Y-4637142D02*
X2209885Y-4694284D01*
X2209885Y-4694284D02*
X2224171Y-4722856D01*
X2224171Y-4722856D02*
X2238457Y-4737142D01*
X2238457Y-4737142D02*
X2281314Y-4765713D01*
X2281314Y-4765713D02*
X2338457Y-4779999D01*
X2338457Y-4779999D02*
X2452742Y-4779999D01*
X2452742Y-4779999D02*
X2481314Y-4765713D01*
X2481314Y-4765713D02*
X2495600Y-4751427D01*
X2495600Y-4751427D02*
X2509885Y-4722856D01*
X2509885Y-4722856D02*
X2509885Y-4665713D01*
X2509885Y-4665713D02*
X2495600Y-4637142D01*
X2495600Y-4637142D02*
X2481314Y-4622856D01*
X2481314Y-4622856D02*
X2452742Y-4608570D01*
X2452742Y-4608570D02*
X2381314Y-4608570D01*
X2381314Y-4608570D02*
X2352742Y-4622856D01*
X2352742Y-4622856D02*
X2338457Y-4637142D01*
X2338457Y-4637142D02*
X2324171Y-4665713D01*
X2324171Y-4665713D02*
X2324171Y-4722856D01*
X2324171Y-4722856D02*
X2338457Y-4751427D01*
X2338457Y-4751427D02*
X2352742Y-4765713D01*
X2352742Y-4765713D02*
X2381314Y-4779999D01*
X2238457Y-4494285D02*
X2224171Y-4479999D01*
X2224171Y-4479999D02*
X2209885Y-4451428D01*
X2209885Y-4451428D02*
X2209885Y-4379999D01*
X2209885Y-4379999D02*
X2224171Y-4351428D01*
X2224171Y-4351428D02*
X2238457Y-4337142D01*
X2238457Y-4337142D02*
X2267028Y-4322856D01*
X2267028Y-4322856D02*
X2295600Y-4322856D01*
X2295600Y-4322856D02*
X2338457Y-4337142D01*
X2338457Y-4337142D02*
X2509885Y-4508570D01*
X2509885Y-4508570D02*
X2509885Y-4322856D01*
X2509885Y-4037142D02*
X2509885Y-4208571D01*
X2509885Y-4122856D02*
X2209885Y-4122856D01*
X2209885Y-4122856D02*
X2252742Y-4151428D01*
X2252742Y-4151428D02*
X2281314Y-4179999D01*
X2281314Y-4179999D02*
X2295600Y-4208571D01*
X2509885Y-3751428D02*
X2509885Y-3922857D01*
X2509885Y-3837142D02*
X2209885Y-3837142D01*
X2209885Y-3837142D02*
X2252742Y-3865714D01*
X2252742Y-3865714D02*
X2281314Y-3894285D01*
X2281314Y-3894285D02*
X2295600Y-3922857D01*
X2481314Y-3451428D02*
X2495600Y-3465714D01*
X2495600Y-3465714D02*
X2509885Y-3508571D01*
X2509885Y-3508571D02*
X2509885Y-3537143D01*
X2509885Y-3537143D02*
X2495600Y-3580000D01*
X2495600Y-3580000D02*
X2467028Y-3608571D01*
X2467028Y-3608571D02*
X2438457Y-3622857D01*
X2438457Y-3622857D02*
X2381314Y-3637143D01*
X2381314Y-3637143D02*
X2338457Y-3637143D01*
X2338457Y-3637143D02*
X2281314Y-3622857D01*
X2281314Y-3622857D02*
X2252742Y-3608571D01*
X2252742Y-3608571D02*
X2224171Y-3580000D01*
X2224171Y-3580000D02*
X2209885Y-3537143D01*
X2209885Y-3537143D02*
X2209885Y-3508571D01*
X2209885Y-3508571D02*
X2224171Y-3465714D01*
X2224171Y-3465714D02*
X2238457Y-3451428D01*
X2209885Y-3351428D02*
X2209885Y-3165714D01*
X2209885Y-3165714D02*
X2324171Y-3265714D01*
X2324171Y-3265714D02*
X2324171Y-3222857D01*
X2324171Y-3222857D02*
X2338457Y-3194286D01*
X2338457Y-3194286D02*
X2352742Y-3180000D01*
X2352742Y-3180000D02*
X2381314Y-3165714D01*
X2381314Y-3165714D02*
X2452742Y-3165714D01*
X2452742Y-3165714D02*
X2481314Y-3180000D01*
X2481314Y-3180000D02*
X2495600Y-3194286D01*
X2495600Y-3194286D02*
X2509885Y-3222857D01*
X2509885Y-3222857D02*
X2509885Y-3308571D01*
X2509885Y-3308571D02*
X2495600Y-3337143D01*
X2495600Y-3337143D02*
X2481314Y-3351428D01*
X2209885Y-3065714D02*
X2209885Y-2880000D01*
X2209885Y-2880000D02*
X2324171Y-2980000D01*
X2324171Y-2980000D02*
X2324171Y-2937143D01*
X2324171Y-2937143D02*
X2338457Y-2908572D01*
X2338457Y-2908572D02*
X2352742Y-2894286D01*
X2352742Y-2894286D02*
X2381314Y-2880000D01*
X2381314Y-2880000D02*
X2452742Y-2880000D01*
X2452742Y-2880000D02*
X2481314Y-2894286D01*
X2481314Y-2894286D02*
X2495600Y-2908572D01*
X2495600Y-2908572D02*
X2509885Y-2937143D01*
X2509885Y-2937143D02*
X2509885Y-3022857D01*
X2509885Y-3022857D02*
X2495600Y-3051429D01*
X2495600Y-3051429D02*
X2481314Y-3065714D01*
X2509885Y-2751429D02*
X2209885Y-2751429D01*
X2209885Y-2751429D02*
X2424171Y-2651429D01*
X2424171Y-2651429D02*
X2209885Y-2551429D01*
X2209885Y-2551429D02*
X2509885Y-2551429D01*
X2209885Y-2265715D02*
X2209885Y-2408572D01*
X2209885Y-2408572D02*
X2352742Y-2422858D01*
X2352742Y-2422858D02*
X2338457Y-2408572D01*
X2338457Y-2408572D02*
X2324171Y-2380001D01*
X2324171Y-2380001D02*
X2324171Y-2308572D01*
X2324171Y-2308572D02*
X2338457Y-2280001D01*
X2338457Y-2280001D02*
X2352742Y-2265715D01*
X2352742Y-2265715D02*
X2381314Y-2251429D01*
X2381314Y-2251429D02*
X2452742Y-2251429D01*
X2452742Y-2251429D02*
X2481314Y-2265715D01*
X2481314Y-2265715D02*
X2495600Y-2280001D01*
X2495600Y-2280001D02*
X2509885Y-2308572D01*
X2509885Y-2308572D02*
X2509885Y-2380001D01*
X2509885Y-2380001D02*
X2495600Y-2408572D01*
X2495600Y-2408572D02*
X2481314Y-2422858D01*
X2224171Y-1965715D02*
X2209885Y-1994287D01*
X2209885Y-1994287D02*
X2209885Y-2037144D01*
X2209885Y-2037144D02*
X2224171Y-2080001D01*
X2224171Y-2080001D02*
X2252742Y-2108572D01*
X2252742Y-2108572D02*
X2281314Y-2122858D01*
X2281314Y-2122858D02*
X2338457Y-2137144D01*
X2338457Y-2137144D02*
X2381314Y-2137144D01*
X2381314Y-2137144D02*
X2438457Y-2122858D01*
X2438457Y-2122858D02*
X2467028Y-2108572D01*
X2467028Y-2108572D02*
X2495600Y-2080001D01*
X2495600Y-2080001D02*
X2509885Y-2037144D01*
X2509885Y-2037144D02*
X2509885Y-2008572D01*
X2509885Y-2008572D02*
X2495600Y-1965715D01*
X2495600Y-1965715D02*
X2481314Y-1951429D01*
X2481314Y-1951429D02*
X2381314Y-1951429D01*
X2381314Y-1951429D02*
X2381314Y-2008572D01*
X2395600Y-1822858D02*
X2395600Y-1594287D01*
X2509885Y-1451429D02*
X2209885Y-1451429D01*
X2209885Y-1451429D02*
X2509885Y-1280000D01*
X2509885Y-1280000D02*
X2209885Y-1280000D01*
X14454885Y-21871428D02*
X14654885Y-21871428D01*
X14340600Y-21942856D02*
X14554885Y-22014285D01*
X14554885Y-22014285D02*
X14554885Y-21828570D01*
X14626314Y-21714285D02*
X14640600Y-21699999D01*
X14640600Y-21699999D02*
X14654885Y-21714285D01*
X14654885Y-21714285D02*
X14640600Y-21728571D01*
X14640600Y-21728571D02*
X14626314Y-21714285D01*
X14626314Y-21714285D02*
X14654885Y-21714285D01*
X14354885Y-21599999D02*
X14354885Y-21399999D01*
X14354885Y-21399999D02*
X14654885Y-21528571D01*
X14454885Y-21157143D02*
X14654885Y-21157143D01*
X14454885Y-21285714D02*
X14612028Y-21285714D01*
X14612028Y-21285714D02*
X14640600Y-21271428D01*
X14640600Y-21271428D02*
X14654885Y-21242857D01*
X14654885Y-21242857D02*
X14654885Y-21200000D01*
X14654885Y-21200000D02*
X14640600Y-21171428D01*
X14640600Y-21171428D02*
X14626314Y-21157143D01*
X14497742Y-20914285D02*
X14497742Y-21014285D01*
X14654885Y-21014285D02*
X14354885Y-21014285D01*
X14354885Y-21014285D02*
X14354885Y-20871428D01*
X15379885Y-5657142D02*
X15379885Y-5828571D01*
X15379885Y-5742856D02*
X15079885Y-5742856D01*
X15079885Y-5742856D02*
X15122742Y-5771428D01*
X15122742Y-5771428D02*
X15151314Y-5799999D01*
X15151314Y-5799999D02*
X15165600Y-5828571D01*
X15079885Y-5471428D02*
X15079885Y-5442857D01*
X15079885Y-5442857D02*
X15094171Y-5414285D01*
X15094171Y-5414285D02*
X15108457Y-5400000D01*
X15108457Y-5400000D02*
X15137028Y-5385714D01*
X15137028Y-5385714D02*
X15194171Y-5371428D01*
X15194171Y-5371428D02*
X15265600Y-5371428D01*
X15265600Y-5371428D02*
X15322742Y-5385714D01*
X15322742Y-5385714D02*
X15351314Y-5400000D01*
X15351314Y-5400000D02*
X15365600Y-5414285D01*
X15365600Y-5414285D02*
X15379885Y-5442857D01*
X15379885Y-5442857D02*
X15379885Y-5471428D01*
X15379885Y-5471428D02*
X15365600Y-5500000D01*
X15365600Y-5500000D02*
X15351314Y-5514285D01*
X15351314Y-5514285D02*
X15322742Y-5528571D01*
X15322742Y-5528571D02*
X15265600Y-5542857D01*
X15265600Y-5542857D02*
X15194171Y-5542857D01*
X15194171Y-5542857D02*
X15137028Y-5528571D01*
X15137028Y-5528571D02*
X15108457Y-5514285D01*
X15108457Y-5514285D02*
X15094171Y-5500000D01*
X15094171Y-5500000D02*
X15079885Y-5471428D01*
X15379885Y-5242857D02*
X15079885Y-5242857D01*
X15379885Y-5071428D02*
X15208457Y-5200000D01*
X15079885Y-5071428D02*
X15251314Y-5242857D01*
X20535713Y-5934885D02*
X20535713Y-5634885D01*
X20535713Y-5634885D02*
X20635713Y-5849171D01*
X20635713Y-5849171D02*
X20735713Y-5634885D01*
X20735713Y-5634885D02*
X20735713Y-5934885D01*
X20864284Y-5663457D02*
X20878570Y-5649171D01*
X20878570Y-5649171D02*
X20907142Y-5634885D01*
X20907142Y-5634885D02*
X20978570Y-5634885D01*
X20978570Y-5634885D02*
X21007142Y-5649171D01*
X21007142Y-5649171D02*
X21021427Y-5663457D01*
X21021427Y-5663457D02*
X21035713Y-5692028D01*
X21035713Y-5692028D02*
X21035713Y-5720600D01*
X21035713Y-5720600D02*
X21021427Y-5763457D01*
X21021427Y-5763457D02*
X20849999Y-5934885D01*
X20849999Y-5934885D02*
X21035713Y-5934885D01*
X21164284Y-5906314D02*
X21178570Y-5920600D01*
X21178570Y-5920600D02*
X21164284Y-5934885D01*
X21164284Y-5934885D02*
X21149998Y-5920600D01*
X21149998Y-5920600D02*
X21164284Y-5906314D01*
X21164284Y-5906314D02*
X21164284Y-5934885D01*
X21449998Y-5634885D02*
X21307141Y-5634885D01*
X21307141Y-5634885D02*
X21292855Y-5777742D01*
X21292855Y-5777742D02*
X21307141Y-5763457D01*
X21307141Y-5763457D02*
X21335713Y-5749171D01*
X21335713Y-5749171D02*
X21407141Y-5749171D01*
X21407141Y-5749171D02*
X21435713Y-5763457D01*
X21435713Y-5763457D02*
X21449998Y-5777742D01*
X21449998Y-5777742D02*
X21464284Y-5806314D01*
X21464284Y-5806314D02*
X21464284Y-5877742D01*
X21464284Y-5877742D02*
X21449998Y-5906314D01*
X21449998Y-5906314D02*
X21435713Y-5920600D01*
X21435713Y-5920600D02*
X21407141Y-5934885D01*
X21407141Y-5934885D02*
X21335713Y-5934885D01*
X21335713Y-5934885D02*
X21307141Y-5920600D01*
X21307141Y-5920600D02*
X21292855Y-5906314D01*
X21592855Y-5934885D02*
X21592855Y-5634885D01*
X21592855Y-5634885D02*
X21692855Y-5849171D01*
X21692855Y-5849171D02*
X21792855Y-5634885D01*
X21792855Y-5634885D02*
X21792855Y-5934885D01*
X21978569Y-5934885D02*
X21949998Y-5920600D01*
X21949998Y-5920600D02*
X21935712Y-5906314D01*
X21935712Y-5906314D02*
X21921426Y-5877742D01*
X21921426Y-5877742D02*
X21921426Y-5792028D01*
X21921426Y-5792028D02*
X21935712Y-5763457D01*
X21935712Y-5763457D02*
X21949998Y-5749171D01*
X21949998Y-5749171D02*
X21978569Y-5734885D01*
X21978569Y-5734885D02*
X22021426Y-5734885D01*
X22021426Y-5734885D02*
X22049998Y-5749171D01*
X22049998Y-5749171D02*
X22064284Y-5763457D01*
X22064284Y-5763457D02*
X22078569Y-5792028D01*
X22078569Y-5792028D02*
X22078569Y-5877742D01*
X22078569Y-5877742D02*
X22064284Y-5906314D01*
X22064284Y-5906314D02*
X22049998Y-5920600D01*
X22049998Y-5920600D02*
X22021426Y-5934885D01*
X22021426Y-5934885D02*
X21978569Y-5934885D01*
X22335713Y-5734885D02*
X22335713Y-5934885D01*
X22207141Y-5734885D02*
X22207141Y-5892028D01*
X22207141Y-5892028D02*
X22221427Y-5920600D01*
X22221427Y-5920600D02*
X22249998Y-5934885D01*
X22249998Y-5934885D02*
X22292855Y-5934885D01*
X22292855Y-5934885D02*
X22321427Y-5920600D01*
X22321427Y-5920600D02*
X22335713Y-5906314D01*
X22478570Y-5734885D02*
X22478570Y-5934885D01*
X22478570Y-5763457D02*
X22492856Y-5749171D01*
X22492856Y-5749171D02*
X22521427Y-5734885D01*
X22521427Y-5734885D02*
X22564284Y-5734885D01*
X22564284Y-5734885D02*
X22592856Y-5749171D01*
X22592856Y-5749171D02*
X22607142Y-5777742D01*
X22607142Y-5777742D02*
X22607142Y-5934885D01*
X22707142Y-5734885D02*
X22821428Y-5734885D01*
X22749999Y-5634885D02*
X22749999Y-5892028D01*
X22749999Y-5892028D02*
X22764285Y-5920600D01*
X22764285Y-5920600D02*
X22792856Y-5934885D01*
X22792856Y-5934885D02*
X22821428Y-5934885D01*
X22921428Y-5934885D02*
X22921428Y-5734885D01*
X22921428Y-5634885D02*
X22907142Y-5649171D01*
X22907142Y-5649171D02*
X22921428Y-5663457D01*
X22921428Y-5663457D02*
X22935714Y-5649171D01*
X22935714Y-5649171D02*
X22921428Y-5634885D01*
X22921428Y-5634885D02*
X22921428Y-5663457D01*
X23064285Y-5734885D02*
X23064285Y-5934885D01*
X23064285Y-5763457D02*
X23078571Y-5749171D01*
X23078571Y-5749171D02*
X23107142Y-5734885D01*
X23107142Y-5734885D02*
X23149999Y-5734885D01*
X23149999Y-5734885D02*
X23178571Y-5749171D01*
X23178571Y-5749171D02*
X23192857Y-5777742D01*
X23192857Y-5777742D02*
X23192857Y-5934885D01*
X23464286Y-5734885D02*
X23464286Y-5977742D01*
X23464286Y-5977742D02*
X23450000Y-6006314D01*
X23450000Y-6006314D02*
X23435714Y-6020600D01*
X23435714Y-6020600D02*
X23407143Y-6034885D01*
X23407143Y-6034885D02*
X23364286Y-6034885D01*
X23364286Y-6034885D02*
X23335714Y-6020600D01*
X23464286Y-5920600D02*
X23435714Y-5934885D01*
X23435714Y-5934885D02*
X23378571Y-5934885D01*
X23378571Y-5934885D02*
X23350000Y-5920600D01*
X23350000Y-5920600D02*
X23335714Y-5906314D01*
X23335714Y-5906314D02*
X23321428Y-5877742D01*
X23321428Y-5877742D02*
X23321428Y-5792028D01*
X23321428Y-5792028D02*
X23335714Y-5763457D01*
X23335714Y-5763457D02*
X23350000Y-5749171D01*
X23350000Y-5749171D02*
X23378571Y-5734885D01*
X23378571Y-5734885D02*
X23435714Y-5734885D01*
X23435714Y-5734885D02*
X23464286Y-5749171D01*
X23607143Y-5934885D02*
X23607143Y-5634885D01*
X23607143Y-5777742D02*
X23778572Y-5777742D01*
X23778572Y-5934885D02*
X23778572Y-5634885D01*
X23964286Y-5934885D02*
X23935715Y-5920600D01*
X23935715Y-5920600D02*
X23921429Y-5906314D01*
X23921429Y-5906314D02*
X23907143Y-5877742D01*
X23907143Y-5877742D02*
X23907143Y-5792028D01*
X23907143Y-5792028D02*
X23921429Y-5763457D01*
X23921429Y-5763457D02*
X23935715Y-5749171D01*
X23935715Y-5749171D02*
X23964286Y-5734885D01*
X23964286Y-5734885D02*
X24007143Y-5734885D01*
X24007143Y-5734885D02*
X24035715Y-5749171D01*
X24035715Y-5749171D02*
X24050001Y-5763457D01*
X24050001Y-5763457D02*
X24064286Y-5792028D01*
X24064286Y-5792028D02*
X24064286Y-5877742D01*
X24064286Y-5877742D02*
X24050001Y-5906314D01*
X24050001Y-5906314D02*
X24035715Y-5920600D01*
X24035715Y-5920600D02*
X24007143Y-5934885D01*
X24007143Y-5934885D02*
X23964286Y-5934885D01*
X24235715Y-5934885D02*
X24207144Y-5920600D01*
X24207144Y-5920600D02*
X24192858Y-5892028D01*
X24192858Y-5892028D02*
X24192858Y-5634885D01*
X24464287Y-5920600D02*
X24435715Y-5934885D01*
X24435715Y-5934885D02*
X24378573Y-5934885D01*
X24378573Y-5934885D02*
X24350001Y-5920600D01*
X24350001Y-5920600D02*
X24335715Y-5892028D01*
X24335715Y-5892028D02*
X24335715Y-5777742D01*
X24335715Y-5777742D02*
X24350001Y-5749171D01*
X24350001Y-5749171D02*
X24378573Y-5734885D01*
X24378573Y-5734885D02*
X24435715Y-5734885D01*
X24435715Y-5734885D02*
X24464287Y-5749171D01*
X24464287Y-5749171D02*
X24478573Y-5777742D01*
X24478573Y-5777742D02*
X24478573Y-5806314D01*
X24478573Y-5806314D02*
X24335715Y-5834885D01*
X20009885Y-20532856D02*
X20009885Y-20332856D01*
X20009885Y-20332856D02*
X20309885Y-20461428D01*
X20009885Y-20075714D02*
X20009885Y-20218571D01*
X20009885Y-20218571D02*
X20152742Y-20232857D01*
X20152742Y-20232857D02*
X20138457Y-20218571D01*
X20138457Y-20218571D02*
X20124171Y-20190000D01*
X20124171Y-20190000D02*
X20124171Y-20118571D01*
X20124171Y-20118571D02*
X20138457Y-20090000D01*
X20138457Y-20090000D02*
X20152742Y-20075714D01*
X20152742Y-20075714D02*
X20181314Y-20061428D01*
X20181314Y-20061428D02*
X20252742Y-20061428D01*
X20252742Y-20061428D02*
X20281314Y-20075714D01*
X20281314Y-20075714D02*
X20295600Y-20090000D01*
X20295600Y-20090000D02*
X20309885Y-20118571D01*
X20309885Y-20118571D02*
X20309885Y-20190000D01*
X20309885Y-20190000D02*
X20295600Y-20218571D01*
X20295600Y-20218571D02*
X20281314Y-20232857D01*
X20309885Y-19761428D02*
X20167028Y-19861428D01*
X20309885Y-19932857D02*
X20009885Y-19932857D01*
X20009885Y-19932857D02*
X20009885Y-19818571D01*
X20009885Y-19818571D02*
X20024171Y-19790000D01*
X20024171Y-19790000D02*
X20038457Y-19775714D01*
X20038457Y-19775714D02*
X20067028Y-19761428D01*
X20067028Y-19761428D02*
X20109885Y-19761428D01*
X20109885Y-19761428D02*
X20138457Y-19775714D01*
X20138457Y-19775714D02*
X20152742Y-19790000D01*
X20152742Y-19790000D02*
X20167028Y-19818571D01*
X20167028Y-19818571D02*
X20167028Y-19932857D01*
X9178572Y-1837385D02*
X9178572Y-2037385D01*
X9107143Y-1723100D02*
X9035714Y-1937385D01*
X9035714Y-1937385D02*
X9221429Y-1937385D01*
X9335714Y-2008814D02*
X9350000Y-2023100D01*
X9350000Y-2023100D02*
X9335714Y-2037385D01*
X9335714Y-2037385D02*
X9321428Y-2023100D01*
X9321428Y-2023100D02*
X9335714Y-2008814D01*
X9335714Y-2008814D02*
X9335714Y-2037385D01*
X9450000Y-1737385D02*
X9650000Y-1737385D01*
X9650000Y-1737385D02*
X9521428Y-2037385D01*
X9892857Y-1837385D02*
X9892857Y-2037385D01*
X9764285Y-1837385D02*
X9764285Y-1994528D01*
X9764285Y-1994528D02*
X9778571Y-2023100D01*
X9778571Y-2023100D02*
X9807142Y-2037385D01*
X9807142Y-2037385D02*
X9849999Y-2037385D01*
X9849999Y-2037385D02*
X9878571Y-2023100D01*
X9878571Y-2023100D02*
X9892857Y-2008814D01*
X10135714Y-1880242D02*
X10035714Y-1880242D01*
X10035714Y-2037385D02*
X10035714Y-1737385D01*
X10035714Y-1737385D02*
X10178571Y-1737385D01*
X535713Y-25884885D02*
X535713Y-25584885D01*
X535713Y-25584885D02*
X635713Y-25799171D01*
X635713Y-25799171D02*
X735713Y-25584885D01*
X735713Y-25584885D02*
X735713Y-25884885D01*
X864284Y-25613457D02*
X878570Y-25599171D01*
X878570Y-25599171D02*
X907142Y-25584885D01*
X907142Y-25584885D02*
X978570Y-25584885D01*
X978570Y-25584885D02*
X1007142Y-25599171D01*
X1007142Y-25599171D02*
X1021427Y-25613457D01*
X1021427Y-25613457D02*
X1035713Y-25642028D01*
X1035713Y-25642028D02*
X1035713Y-25670600D01*
X1035713Y-25670600D02*
X1021427Y-25713457D01*
X1021427Y-25713457D02*
X849999Y-25884885D01*
X849999Y-25884885D02*
X1035713Y-25884885D01*
X1164284Y-25856314D02*
X1178570Y-25870600D01*
X1178570Y-25870600D02*
X1164284Y-25884885D01*
X1164284Y-25884885D02*
X1149998Y-25870600D01*
X1149998Y-25870600D02*
X1164284Y-25856314D01*
X1164284Y-25856314D02*
X1164284Y-25884885D01*
X1449998Y-25584885D02*
X1307141Y-25584885D01*
X1307141Y-25584885D02*
X1292855Y-25727742D01*
X1292855Y-25727742D02*
X1307141Y-25713457D01*
X1307141Y-25713457D02*
X1335713Y-25699171D01*
X1335713Y-25699171D02*
X1407141Y-25699171D01*
X1407141Y-25699171D02*
X1435713Y-25713457D01*
X1435713Y-25713457D02*
X1449998Y-25727742D01*
X1449998Y-25727742D02*
X1464284Y-25756314D01*
X1464284Y-25756314D02*
X1464284Y-25827742D01*
X1464284Y-25827742D02*
X1449998Y-25856314D01*
X1449998Y-25856314D02*
X1435713Y-25870600D01*
X1435713Y-25870600D02*
X1407141Y-25884885D01*
X1407141Y-25884885D02*
X1335713Y-25884885D01*
X1335713Y-25884885D02*
X1307141Y-25870600D01*
X1307141Y-25870600D02*
X1292855Y-25856314D01*
X1592855Y-25884885D02*
X1592855Y-25584885D01*
X1592855Y-25584885D02*
X1692855Y-25799171D01*
X1692855Y-25799171D02*
X1792855Y-25584885D01*
X1792855Y-25584885D02*
X1792855Y-25884885D01*
X1978569Y-25884885D02*
X1949998Y-25870600D01*
X1949998Y-25870600D02*
X1935712Y-25856314D01*
X1935712Y-25856314D02*
X1921426Y-25827742D01*
X1921426Y-25827742D02*
X1921426Y-25742028D01*
X1921426Y-25742028D02*
X1935712Y-25713457D01*
X1935712Y-25713457D02*
X1949998Y-25699171D01*
X1949998Y-25699171D02*
X1978569Y-25684885D01*
X1978569Y-25684885D02*
X2021426Y-25684885D01*
X2021426Y-25684885D02*
X2049998Y-25699171D01*
X2049998Y-25699171D02*
X2064284Y-25713457D01*
X2064284Y-25713457D02*
X2078569Y-25742028D01*
X2078569Y-25742028D02*
X2078569Y-25827742D01*
X2078569Y-25827742D02*
X2064284Y-25856314D01*
X2064284Y-25856314D02*
X2049998Y-25870600D01*
X2049998Y-25870600D02*
X2021426Y-25884885D01*
X2021426Y-25884885D02*
X1978569Y-25884885D01*
X2335713Y-25684885D02*
X2335713Y-25884885D01*
X2207141Y-25684885D02*
X2207141Y-25842028D01*
X2207141Y-25842028D02*
X2221427Y-25870600D01*
X2221427Y-25870600D02*
X2249998Y-25884885D01*
X2249998Y-25884885D02*
X2292855Y-25884885D01*
X2292855Y-25884885D02*
X2321427Y-25870600D01*
X2321427Y-25870600D02*
X2335713Y-25856314D01*
X2478570Y-25684885D02*
X2478570Y-25884885D01*
X2478570Y-25713457D02*
X2492856Y-25699171D01*
X2492856Y-25699171D02*
X2521427Y-25684885D01*
X2521427Y-25684885D02*
X2564284Y-25684885D01*
X2564284Y-25684885D02*
X2592856Y-25699171D01*
X2592856Y-25699171D02*
X2607142Y-25727742D01*
X2607142Y-25727742D02*
X2607142Y-25884885D01*
X2707142Y-25684885D02*
X2821428Y-25684885D01*
X2749999Y-25584885D02*
X2749999Y-25842028D01*
X2749999Y-25842028D02*
X2764285Y-25870600D01*
X2764285Y-25870600D02*
X2792856Y-25884885D01*
X2792856Y-25884885D02*
X2821428Y-25884885D01*
X2921428Y-25884885D02*
X2921428Y-25684885D01*
X2921428Y-25584885D02*
X2907142Y-25599171D01*
X2907142Y-25599171D02*
X2921428Y-25613457D01*
X2921428Y-25613457D02*
X2935714Y-25599171D01*
X2935714Y-25599171D02*
X2921428Y-25584885D01*
X2921428Y-25584885D02*
X2921428Y-25613457D01*
X3064285Y-25684885D02*
X3064285Y-25884885D01*
X3064285Y-25713457D02*
X3078571Y-25699171D01*
X3078571Y-25699171D02*
X3107142Y-25684885D01*
X3107142Y-25684885D02*
X3149999Y-25684885D01*
X3149999Y-25684885D02*
X3178571Y-25699171D01*
X3178571Y-25699171D02*
X3192857Y-25727742D01*
X3192857Y-25727742D02*
X3192857Y-25884885D01*
X3464286Y-25684885D02*
X3464286Y-25927742D01*
X3464286Y-25927742D02*
X3450000Y-25956314D01*
X3450000Y-25956314D02*
X3435714Y-25970600D01*
X3435714Y-25970600D02*
X3407143Y-25984885D01*
X3407143Y-25984885D02*
X3364286Y-25984885D01*
X3364286Y-25984885D02*
X3335714Y-25970600D01*
X3464286Y-25870600D02*
X3435714Y-25884885D01*
X3435714Y-25884885D02*
X3378571Y-25884885D01*
X3378571Y-25884885D02*
X3350000Y-25870600D01*
X3350000Y-25870600D02*
X3335714Y-25856314D01*
X3335714Y-25856314D02*
X3321428Y-25827742D01*
X3321428Y-25827742D02*
X3321428Y-25742028D01*
X3321428Y-25742028D02*
X3335714Y-25713457D01*
X3335714Y-25713457D02*
X3350000Y-25699171D01*
X3350000Y-25699171D02*
X3378571Y-25684885D01*
X3378571Y-25684885D02*
X3435714Y-25684885D01*
X3435714Y-25684885D02*
X3464286Y-25699171D01*
X3607143Y-25884885D02*
X3607143Y-25584885D01*
X3607143Y-25727742D02*
X3778572Y-25727742D01*
X3778572Y-25884885D02*
X3778572Y-25584885D01*
X3964286Y-25884885D02*
X3935715Y-25870600D01*
X3935715Y-25870600D02*
X3921429Y-25856314D01*
X3921429Y-25856314D02*
X3907143Y-25827742D01*
X3907143Y-25827742D02*
X3907143Y-25742028D01*
X3907143Y-25742028D02*
X3921429Y-25713457D01*
X3921429Y-25713457D02*
X3935715Y-25699171D01*
X3935715Y-25699171D02*
X3964286Y-25684885D01*
X3964286Y-25684885D02*
X4007143Y-25684885D01*
X4007143Y-25684885D02*
X4035715Y-25699171D01*
X4035715Y-25699171D02*
X4050001Y-25713457D01*
X4050001Y-25713457D02*
X4064286Y-25742028D01*
X4064286Y-25742028D02*
X4064286Y-25827742D01*
X4064286Y-25827742D02*
X4050001Y-25856314D01*
X4050001Y-25856314D02*
X4035715Y-25870600D01*
X4035715Y-25870600D02*
X4007143Y-25884885D01*
X4007143Y-25884885D02*
X3964286Y-25884885D01*
X4235715Y-25884885D02*
X4207144Y-25870600D01*
X4207144Y-25870600D02*
X4192858Y-25842028D01*
X4192858Y-25842028D02*
X4192858Y-25584885D01*
X4464287Y-25870600D02*
X4435715Y-25884885D01*
X4435715Y-25884885D02*
X4378573Y-25884885D01*
X4378573Y-25884885D02*
X4350001Y-25870600D01*
X4350001Y-25870600D02*
X4335715Y-25842028D01*
X4335715Y-25842028D02*
X4335715Y-25727742D01*
X4335715Y-25727742D02*
X4350001Y-25699171D01*
X4350001Y-25699171D02*
X4378573Y-25684885D01*
X4378573Y-25684885D02*
X4435715Y-25684885D01*
X4435715Y-25684885D02*
X4464287Y-25699171D01*
X4464287Y-25699171D02*
X4478573Y-25727742D01*
X4478573Y-25727742D02*
X4478573Y-25756314D01*
X4478573Y-25756314D02*
X4335715Y-25784885D01*
D11*
X6193950Y-6758580D02*
X6146331Y-6806200D01*
X6146331Y-6806200D02*
X6003474Y-6853819D01*
X6003474Y-6853819D02*
X5908236Y-6853819D01*
X5908236Y-6853819D02*
X5765379Y-6806200D01*
X5765379Y-6806200D02*
X5670141Y-6710961D01*
X5670141Y-6710961D02*
X5622522Y-6615723D01*
X5622522Y-6615723D02*
X5574903Y-6425247D01*
X5574903Y-6425247D02*
X5574903Y-6282390D01*
X5574903Y-6282390D02*
X5622522Y-6091914D01*
X5622522Y-6091914D02*
X5670141Y-5996676D01*
X5670141Y-5996676D02*
X5765379Y-5901438D01*
X5765379Y-5901438D02*
X5908236Y-5853819D01*
X5908236Y-5853819D02*
X6003474Y-5853819D01*
X6003474Y-5853819D02*
X6146331Y-5901438D01*
X6146331Y-5901438D02*
X6193950Y-5949057D01*
X6622522Y-6853819D02*
X6622522Y-6187152D01*
X6622522Y-6377628D02*
X6670141Y-6282390D01*
X6670141Y-6282390D02*
X6717760Y-6234771D01*
X6717760Y-6234771D02*
X6812998Y-6187152D01*
X6812998Y-6187152D02*
X6908236Y-6187152D01*
X7146332Y-6187152D02*
X7384427Y-6853819D01*
X7622522Y-6187152D02*
X7384427Y-6853819D01*
X7384427Y-6853819D02*
X7289189Y-7091914D01*
X7289189Y-7091914D02*
X7241570Y-7139533D01*
X7241570Y-7139533D02*
X7146332Y-7187152D01*
X7955856Y-6806200D02*
X8051094Y-6853819D01*
X8051094Y-6853819D02*
X8241570Y-6853819D01*
X8241570Y-6853819D02*
X8336808Y-6806200D01*
X8336808Y-6806200D02*
X8384427Y-6710961D01*
X8384427Y-6710961D02*
X8384427Y-6663342D01*
X8384427Y-6663342D02*
X8336808Y-6568104D01*
X8336808Y-6568104D02*
X8241570Y-6520485D01*
X8241570Y-6520485D02*
X8098713Y-6520485D01*
X8098713Y-6520485D02*
X8003475Y-6472866D01*
X8003475Y-6472866D02*
X7955856Y-6377628D01*
X7955856Y-6377628D02*
X7955856Y-6330009D01*
X7955856Y-6330009D02*
X8003475Y-6234771D01*
X8003475Y-6234771D02*
X8098713Y-6187152D01*
X8098713Y-6187152D02*
X8241570Y-6187152D01*
X8241570Y-6187152D02*
X8336808Y-6234771D01*
X8670142Y-6187152D02*
X9051094Y-6187152D01*
X8812999Y-5853819D02*
X8812999Y-6710961D01*
X8812999Y-6710961D02*
X8860618Y-6806200D01*
X8860618Y-6806200D02*
X8955856Y-6853819D01*
X8955856Y-6853819D02*
X9051094Y-6853819D01*
X9812999Y-6853819D02*
X9812999Y-6330009D01*
X9812999Y-6330009D02*
X9765380Y-6234771D01*
X9765380Y-6234771D02*
X9670142Y-6187152D01*
X9670142Y-6187152D02*
X9479666Y-6187152D01*
X9479666Y-6187152D02*
X9384428Y-6234771D01*
X9812999Y-6806200D02*
X9717761Y-6853819D01*
X9717761Y-6853819D02*
X9479666Y-6853819D01*
X9479666Y-6853819D02*
X9384428Y-6806200D01*
X9384428Y-6806200D02*
X9336809Y-6710961D01*
X9336809Y-6710961D02*
X9336809Y-6615723D01*
X9336809Y-6615723D02*
X9384428Y-6520485D01*
X9384428Y-6520485D02*
X9479666Y-6472866D01*
X9479666Y-6472866D02*
X9717761Y-6472866D01*
X9717761Y-6472866D02*
X9812999Y-6425247D01*
X10432047Y-6853819D02*
X10336809Y-6806200D01*
X10336809Y-6806200D02*
X10289190Y-6710961D01*
X10289190Y-6710961D02*
X10289190Y-5853819D01*
X10574905Y-6949057D02*
X11336809Y-6949057D01*
X12098714Y-6853819D02*
X11527286Y-6853819D01*
X11813000Y-6853819D02*
X11813000Y-5853819D01*
X11813000Y-5853819D02*
X11717762Y-5996676D01*
X11717762Y-5996676D02*
X11622524Y-6091914D01*
X11622524Y-6091914D02*
X11527286Y-6139533D01*
X12955857Y-5853819D02*
X12765381Y-5853819D01*
X12765381Y-5853819D02*
X12670143Y-5901438D01*
X12670143Y-5901438D02*
X12622524Y-5949057D01*
X12622524Y-5949057D02*
X12527286Y-6091914D01*
X12527286Y-6091914D02*
X12479667Y-6282390D01*
X12479667Y-6282390D02*
X12479667Y-6663342D01*
X12479667Y-6663342D02*
X12527286Y-6758580D01*
X12527286Y-6758580D02*
X12574905Y-6806200D01*
X12574905Y-6806200D02*
X12670143Y-6853819D01*
X12670143Y-6853819D02*
X12860619Y-6853819D01*
X12860619Y-6853819D02*
X12955857Y-6806200D01*
X12955857Y-6806200D02*
X13003476Y-6758580D01*
X13003476Y-6758580D02*
X13051095Y-6663342D01*
X13051095Y-6663342D02*
X13051095Y-6425247D01*
X13051095Y-6425247D02*
X13003476Y-6330009D01*
X13003476Y-6330009D02*
X12955857Y-6282390D01*
X12955857Y-6282390D02*
X12860619Y-6234771D01*
X12860619Y-6234771D02*
X12670143Y-6234771D01*
X12670143Y-6234771D02*
X12574905Y-6282390D01*
X12574905Y-6282390D02*
X12527286Y-6330009D01*
X12527286Y-6330009D02*
X12479667Y-6425247D01*
X13479667Y-6853819D02*
X13479667Y-5853819D01*
X13479667Y-5853819D02*
X13813000Y-6568104D01*
X13813000Y-6568104D02*
X14146333Y-5853819D01*
X14146333Y-5853819D02*
X14146333Y-6853819D01*
X14384429Y-6949057D02*
X15146333Y-6949057D01*
X15336810Y-6806200D02*
X15432048Y-6853819D01*
X15432048Y-6853819D02*
X15622524Y-6853819D01*
X15622524Y-6853819D02*
X15717762Y-6806200D01*
X15717762Y-6806200D02*
X15765381Y-6710961D01*
X15765381Y-6710961D02*
X15765381Y-6663342D01*
X15765381Y-6663342D02*
X15717762Y-6568104D01*
X15717762Y-6568104D02*
X15622524Y-6520485D01*
X15622524Y-6520485D02*
X15479667Y-6520485D01*
X15479667Y-6520485D02*
X15384429Y-6472866D01*
X15384429Y-6472866D02*
X15336810Y-6377628D01*
X15336810Y-6377628D02*
X15336810Y-6330009D01*
X15336810Y-6330009D02*
X15384429Y-6234771D01*
X15384429Y-6234771D02*
X15479667Y-6187152D01*
X15479667Y-6187152D02*
X15622524Y-6187152D01*
X15622524Y-6187152D02*
X15717762Y-6234771D01*
X16193953Y-6853819D02*
X16193953Y-6187152D01*
X16193953Y-6282390D02*
X16241572Y-6234771D01*
X16241572Y-6234771D02*
X16336810Y-6187152D01*
X16336810Y-6187152D02*
X16479667Y-6187152D01*
X16479667Y-6187152D02*
X16574905Y-6234771D01*
X16574905Y-6234771D02*
X16622524Y-6330009D01*
X16622524Y-6330009D02*
X16622524Y-6853819D01*
X16622524Y-6330009D02*
X16670143Y-6234771D01*
X16670143Y-6234771D02*
X16765381Y-6187152D01*
X16765381Y-6187152D02*
X16908238Y-6187152D01*
X16908238Y-6187152D02*
X17003477Y-6234771D01*
X17003477Y-6234771D02*
X17051096Y-6330009D01*
X17051096Y-6330009D02*
X17051096Y-6853819D01*
X17955857Y-6853819D02*
X17955857Y-6330009D01*
X17955857Y-6330009D02*
X17908238Y-6234771D01*
X17908238Y-6234771D02*
X17813000Y-6187152D01*
X17813000Y-6187152D02*
X17622524Y-6187152D01*
X17622524Y-6187152D02*
X17527286Y-6234771D01*
X17955857Y-6806200D02*
X17860619Y-6853819D01*
X17860619Y-6853819D02*
X17622524Y-6853819D01*
X17622524Y-6853819D02*
X17527286Y-6806200D01*
X17527286Y-6806200D02*
X17479667Y-6710961D01*
X17479667Y-6710961D02*
X17479667Y-6615723D01*
X17479667Y-6615723D02*
X17527286Y-6520485D01*
X17527286Y-6520485D02*
X17622524Y-6472866D01*
X17622524Y-6472866D02*
X17860619Y-6472866D01*
X17860619Y-6472866D02*
X17955857Y-6425247D01*
X18574905Y-6853819D02*
X18479667Y-6806200D01*
X18479667Y-6806200D02*
X18432048Y-6710961D01*
X18432048Y-6710961D02*
X18432048Y-5853819D01*
X19098715Y-6853819D02*
X19003477Y-6806200D01*
X19003477Y-6806200D02*
X18955858Y-6710961D01*
X18955858Y-6710961D02*
X18955858Y-5853819D01*
D10*
X20044885Y-22717856D02*
X20044885Y-22517856D01*
X20044885Y-22517856D02*
X20344885Y-22646428D01*
X20044885Y-22260714D02*
X20044885Y-22403571D01*
X20044885Y-22403571D02*
X20187742Y-22417857D01*
X20187742Y-22417857D02*
X20173457Y-22403571D01*
X20173457Y-22403571D02*
X20159171Y-22375000D01*
X20159171Y-22375000D02*
X20159171Y-22303571D01*
X20159171Y-22303571D02*
X20173457Y-22275000D01*
X20173457Y-22275000D02*
X20187742Y-22260714D01*
X20187742Y-22260714D02*
X20216314Y-22246428D01*
X20216314Y-22246428D02*
X20287742Y-22246428D01*
X20287742Y-22246428D02*
X20316314Y-22260714D01*
X20316314Y-22260714D02*
X20330600Y-22275000D01*
X20330600Y-22275000D02*
X20344885Y-22303571D01*
X20344885Y-22303571D02*
X20344885Y-22375000D01*
X20344885Y-22375000D02*
X20330600Y-22403571D01*
X20330600Y-22403571D02*
X20316314Y-22417857D01*
X20344885Y-21946428D02*
X20202028Y-22046428D01*
X20344885Y-22117857D02*
X20044885Y-22117857D01*
X20044885Y-22117857D02*
X20044885Y-22003571D01*
X20044885Y-22003571D02*
X20059171Y-21975000D01*
X20059171Y-21975000D02*
X20073457Y-21960714D01*
X20073457Y-21960714D02*
X20102028Y-21946428D01*
X20102028Y-21946428D02*
X20144885Y-21946428D01*
X20144885Y-21946428D02*
X20173457Y-21960714D01*
X20173457Y-21960714D02*
X20187742Y-21975000D01*
X20187742Y-21975000D02*
X20202028Y-22003571D01*
X20202028Y-22003571D02*
X20202028Y-22117857D01*
X9878571Y-9829885D02*
X9707142Y-9829885D01*
X9792857Y-9829885D02*
X9792857Y-9529885D01*
X9792857Y-9529885D02*
X9764285Y-9572742D01*
X9764285Y-9572742D02*
X9735714Y-9601314D01*
X9735714Y-9601314D02*
X9707142Y-9615600D01*
X9992856Y-9558457D02*
X10007142Y-9544171D01*
X10007142Y-9544171D02*
X10035714Y-9529885D01*
X10035714Y-9529885D02*
X10107142Y-9529885D01*
X10107142Y-9529885D02*
X10135714Y-9544171D01*
X10135714Y-9544171D02*
X10149999Y-9558457D01*
X10149999Y-9558457D02*
X10164285Y-9587028D01*
X10164285Y-9587028D02*
X10164285Y-9615600D01*
X10164285Y-9615600D02*
X10149999Y-9658457D01*
X10149999Y-9658457D02*
X9978571Y-9829885D01*
X9978571Y-9829885D02*
X10164285Y-9829885D01*
X10292856Y-9629885D02*
X10292856Y-9929885D01*
X10292856Y-9644171D02*
X10321428Y-9629885D01*
X10321428Y-9629885D02*
X10378570Y-9629885D01*
X10378570Y-9629885D02*
X10407142Y-9644171D01*
X10407142Y-9644171D02*
X10421428Y-9658457D01*
X10421428Y-9658457D02*
X10435713Y-9687028D01*
X10435713Y-9687028D02*
X10435713Y-9772742D01*
X10435713Y-9772742D02*
X10421428Y-9801314D01*
X10421428Y-9801314D02*
X10407142Y-9815600D01*
X10407142Y-9815600D02*
X10378570Y-9829885D01*
X10378570Y-9829885D02*
X10321428Y-9829885D01*
X10321428Y-9829885D02*
X10292856Y-9815600D01*
X10664285Y-9672742D02*
X10564285Y-9672742D01*
X10564285Y-9829885D02*
X10564285Y-9529885D01*
X10564285Y-9529885D02*
X10707142Y-9529885D01*
X17819885Y-11721428D02*
X18019885Y-11721428D01*
X17705600Y-11792856D02*
X17919885Y-11864285D01*
X17919885Y-11864285D02*
X17919885Y-11678570D01*
X17991314Y-11564285D02*
X18005600Y-11549999D01*
X18005600Y-11549999D02*
X18019885Y-11564285D01*
X18019885Y-11564285D02*
X18005600Y-11578571D01*
X18005600Y-11578571D02*
X17991314Y-11564285D01*
X17991314Y-11564285D02*
X18019885Y-11564285D01*
X17719885Y-11449999D02*
X17719885Y-11249999D01*
X17719885Y-11249999D02*
X18019885Y-11378571D01*
X17819885Y-11007143D02*
X18019885Y-11007143D01*
X17819885Y-11135714D02*
X17977028Y-11135714D01*
X17977028Y-11135714D02*
X18005600Y-11121428D01*
X18005600Y-11121428D02*
X18019885Y-11092857D01*
X18019885Y-11092857D02*
X18019885Y-11050000D01*
X18019885Y-11050000D02*
X18005600Y-11021428D01*
X18005600Y-11021428D02*
X17991314Y-11007143D01*
X17862742Y-10764285D02*
X17862742Y-10864285D01*
X18019885Y-10864285D02*
X17719885Y-10864285D01*
X17719885Y-10864285D02*
X17719885Y-10721428D01*
D11*
X1222857Y-20774819D02*
X1318095Y-20774819D01*
X1318095Y-20774819D02*
X1413333Y-20822438D01*
X1413333Y-20822438D02*
X1460952Y-20870057D01*
X1460952Y-20870057D02*
X1508571Y-20965295D01*
X1508571Y-20965295D02*
X1556190Y-21155771D01*
X1556190Y-21155771D02*
X1556190Y-21393866D01*
X1556190Y-21393866D02*
X1508571Y-21584342D01*
X1508571Y-21584342D02*
X1460952Y-21679580D01*
X1460952Y-21679580D02*
X1413333Y-21727200D01*
X1413333Y-21727200D02*
X1318095Y-21774819D01*
X1318095Y-21774819D02*
X1222857Y-21774819D01*
X1222857Y-21774819D02*
X1127619Y-21727200D01*
X1127619Y-21727200D02*
X1080000Y-21679580D01*
X1080000Y-21679580D02*
X1032381Y-21584342D01*
X1032381Y-21584342D02*
X984762Y-21393866D01*
X984762Y-21393866D02*
X984762Y-21155771D01*
X984762Y-21155771D02*
X1032381Y-20965295D01*
X1032381Y-20965295D02*
X1080000Y-20870057D01*
X1080000Y-20870057D02*
X1127619Y-20822438D01*
X1127619Y-20822438D02*
X1222857Y-20774819D01*
X2508571Y-21774819D02*
X1937143Y-21774819D01*
X2222857Y-21774819D02*
X2222857Y-20774819D01*
X2222857Y-20774819D02*
X2127619Y-20917676D01*
X2127619Y-20917676D02*
X2032381Y-21012914D01*
X2032381Y-21012914D02*
X1937143Y-21060533D01*
X2841905Y-21774819D02*
X3365714Y-21108152D01*
X2841905Y-21108152D02*
X3365714Y-21774819D01*
X3937143Y-20774819D02*
X4032381Y-20774819D01*
X4032381Y-20774819D02*
X4127619Y-20822438D01*
X4127619Y-20822438D02*
X4175238Y-20870057D01*
X4175238Y-20870057D02*
X4222857Y-20965295D01*
X4222857Y-20965295D02*
X4270476Y-21155771D01*
X4270476Y-21155771D02*
X4270476Y-21393866D01*
X4270476Y-21393866D02*
X4222857Y-21584342D01*
X4222857Y-21584342D02*
X4175238Y-21679580D01*
X4175238Y-21679580D02*
X4127619Y-21727200D01*
X4127619Y-21727200D02*
X4032381Y-21774819D01*
X4032381Y-21774819D02*
X3937143Y-21774819D01*
X3937143Y-21774819D02*
X3841905Y-21727200D01*
X3841905Y-21727200D02*
X3794286Y-21679580D01*
X3794286Y-21679580D02*
X3746667Y-21584342D01*
X3746667Y-21584342D02*
X3699048Y-21393866D01*
X3699048Y-21393866D02*
X3699048Y-21155771D01*
X3699048Y-21155771D02*
X3746667Y-20965295D01*
X3746667Y-20965295D02*
X3794286Y-20870057D01*
X3794286Y-20870057D02*
X3841905Y-20822438D01*
X3841905Y-20822438D02*
X3937143Y-20774819D01*
X5127619Y-20774819D02*
X4937143Y-20774819D01*
X4937143Y-20774819D02*
X4841905Y-20822438D01*
X4841905Y-20822438D02*
X4794286Y-20870057D01*
X4794286Y-20870057D02*
X4699048Y-21012914D01*
X4699048Y-21012914D02*
X4651429Y-21203390D01*
X4651429Y-21203390D02*
X4651429Y-21584342D01*
X4651429Y-21584342D02*
X4699048Y-21679580D01*
X4699048Y-21679580D02*
X4746667Y-21727200D01*
X4746667Y-21727200D02*
X4841905Y-21774819D01*
X4841905Y-21774819D02*
X5032381Y-21774819D01*
X5032381Y-21774819D02*
X5127619Y-21727200D01*
X5127619Y-21727200D02*
X5175238Y-21679580D01*
X5175238Y-21679580D02*
X5222857Y-21584342D01*
X5222857Y-21584342D02*
X5222857Y-21346247D01*
X5222857Y-21346247D02*
X5175238Y-21251009D01*
X5175238Y-21251009D02*
X5127619Y-21203390D01*
X5127619Y-21203390D02*
X5032381Y-21155771D01*
X5032381Y-21155771D02*
X4841905Y-21155771D01*
X4841905Y-21155771D02*
X4746667Y-21203390D01*
X4746667Y-21203390D02*
X4699048Y-21251009D01*
X4699048Y-21251009D02*
X4651429Y-21346247D01*
X5413334Y-21870057D02*
X6175238Y-21870057D01*
X6365715Y-20870057D02*
X6413334Y-20822438D01*
X6413334Y-20822438D02*
X6508572Y-20774819D01*
X6508572Y-20774819D02*
X6746667Y-20774819D01*
X6746667Y-20774819D02*
X6841905Y-20822438D01*
X6841905Y-20822438D02*
X6889524Y-20870057D01*
X6889524Y-20870057D02*
X6937143Y-20965295D01*
X6937143Y-20965295D02*
X6937143Y-21060533D01*
X6937143Y-21060533D02*
X6889524Y-21203390D01*
X6889524Y-21203390D02*
X6318096Y-21774819D01*
X6318096Y-21774819D02*
X6937143Y-21774819D01*
X7365715Y-21679580D02*
X7413334Y-21727200D01*
X7413334Y-21727200D02*
X7365715Y-21774819D01*
X7365715Y-21774819D02*
X7318096Y-21727200D01*
X7318096Y-21727200D02*
X7365715Y-21679580D01*
X7365715Y-21679580D02*
X7365715Y-21774819D01*
X8318095Y-20774819D02*
X7841905Y-20774819D01*
X7841905Y-20774819D02*
X7794286Y-21251009D01*
X7794286Y-21251009D02*
X7841905Y-21203390D01*
X7841905Y-21203390D02*
X7937143Y-21155771D01*
X7937143Y-21155771D02*
X8175238Y-21155771D01*
X8175238Y-21155771D02*
X8270476Y-21203390D01*
X8270476Y-21203390D02*
X8318095Y-21251009D01*
X8318095Y-21251009D02*
X8365714Y-21346247D01*
X8365714Y-21346247D02*
X8365714Y-21584342D01*
X8365714Y-21584342D02*
X8318095Y-21679580D01*
X8318095Y-21679580D02*
X8270476Y-21727200D01*
X8270476Y-21727200D02*
X8175238Y-21774819D01*
X8175238Y-21774819D02*
X7937143Y-21774819D01*
X7937143Y-21774819D02*
X7841905Y-21727200D01*
X7841905Y-21727200D02*
X7794286Y-21679580D01*
X9222857Y-21108152D02*
X9222857Y-21774819D01*
X8984762Y-20727200D02*
X8746667Y-21441485D01*
X8746667Y-21441485D02*
X9365714Y-21441485D01*
X9746667Y-21774819D02*
X9746667Y-21108152D01*
X9746667Y-21203390D02*
X9794286Y-21155771D01*
X9794286Y-21155771D02*
X9889524Y-21108152D01*
X9889524Y-21108152D02*
X10032381Y-21108152D01*
X10032381Y-21108152D02*
X10127619Y-21155771D01*
X10127619Y-21155771D02*
X10175238Y-21251009D01*
X10175238Y-21251009D02*
X10175238Y-21774819D01*
X10175238Y-21251009D02*
X10222857Y-21155771D01*
X10222857Y-21155771D02*
X10318095Y-21108152D01*
X10318095Y-21108152D02*
X10460952Y-21108152D01*
X10460952Y-21108152D02*
X10556191Y-21155771D01*
X10556191Y-21155771D02*
X10603810Y-21251009D01*
X10603810Y-21251009D02*
X10603810Y-21774819D01*
X11080000Y-21774819D02*
X11080000Y-21108152D01*
X11080000Y-21203390D02*
X11127619Y-21155771D01*
X11127619Y-21155771D02*
X11222857Y-21108152D01*
X11222857Y-21108152D02*
X11365714Y-21108152D01*
X11365714Y-21108152D02*
X11460952Y-21155771D01*
X11460952Y-21155771D02*
X11508571Y-21251009D01*
X11508571Y-21251009D02*
X11508571Y-21774819D01*
X11508571Y-21251009D02*
X11556190Y-21155771D01*
X11556190Y-21155771D02*
X11651428Y-21108152D01*
X11651428Y-21108152D02*
X11794285Y-21108152D01*
X11794285Y-21108152D02*
X11889524Y-21155771D01*
X11889524Y-21155771D02*
X11937143Y-21251009D01*
X11937143Y-21251009D02*
X11937143Y-21774819D01*
X12175238Y-21870057D02*
X12937142Y-21870057D01*
X13175238Y-21774819D02*
X13175238Y-20774819D01*
X13175238Y-20774819D02*
X13508571Y-21489104D01*
X13508571Y-21489104D02*
X13841904Y-20774819D01*
X13841904Y-20774819D02*
X13841904Y-21774819D01*
X14746666Y-21774819D02*
X14746666Y-21251009D01*
X14746666Y-21251009D02*
X14699047Y-21155771D01*
X14699047Y-21155771D02*
X14603809Y-21108152D01*
X14603809Y-21108152D02*
X14413333Y-21108152D01*
X14413333Y-21108152D02*
X14318095Y-21155771D01*
X14746666Y-21727200D02*
X14651428Y-21774819D01*
X14651428Y-21774819D02*
X14413333Y-21774819D01*
X14413333Y-21774819D02*
X14318095Y-21727200D01*
X14318095Y-21727200D02*
X14270476Y-21631961D01*
X14270476Y-21631961D02*
X14270476Y-21536723D01*
X14270476Y-21536723D02*
X14318095Y-21441485D01*
X14318095Y-21441485D02*
X14413333Y-21393866D01*
X14413333Y-21393866D02*
X14651428Y-21393866D01*
X14651428Y-21393866D02*
X14746666Y-21346247D01*
X15365714Y-21774819D02*
X15270476Y-21727200D01*
X15270476Y-21727200D02*
X15222857Y-21631961D01*
X15222857Y-21631961D02*
X15222857Y-20774819D01*
X16127619Y-21727200D02*
X16032381Y-21774819D01*
X16032381Y-21774819D02*
X15841905Y-21774819D01*
X15841905Y-21774819D02*
X15746667Y-21727200D01*
X15746667Y-21727200D02*
X15699048Y-21631961D01*
X15699048Y-21631961D02*
X15699048Y-21251009D01*
X15699048Y-21251009D02*
X15746667Y-21155771D01*
X15746667Y-21155771D02*
X15841905Y-21108152D01*
X15841905Y-21108152D02*
X16032381Y-21108152D01*
X16032381Y-21108152D02*
X16127619Y-21155771D01*
X16127619Y-21155771D02*
X16175238Y-21251009D01*
X16175238Y-21251009D02*
X16175238Y-21346247D01*
X16175238Y-21346247D02*
X15699048Y-21441485D01*
X9610476Y-3134819D02*
X9705714Y-3134819D01*
X9705714Y-3134819D02*
X9800952Y-3182438D01*
X9800952Y-3182438D02*
X9848571Y-3230057D01*
X9848571Y-3230057D02*
X9896190Y-3325295D01*
X9896190Y-3325295D02*
X9943809Y-3515771D01*
X9943809Y-3515771D02*
X9943809Y-3753866D01*
X9943809Y-3753866D02*
X9896190Y-3944342D01*
X9896190Y-3944342D02*
X9848571Y-4039580D01*
X9848571Y-4039580D02*
X9800952Y-4087200D01*
X9800952Y-4087200D02*
X9705714Y-4134819D01*
X9705714Y-4134819D02*
X9610476Y-4134819D01*
X9610476Y-4134819D02*
X9515238Y-4087200D01*
X9515238Y-4087200D02*
X9467619Y-4039580D01*
X9467619Y-4039580D02*
X9420000Y-3944342D01*
X9420000Y-3944342D02*
X9372381Y-3753866D01*
X9372381Y-3753866D02*
X9372381Y-3515771D01*
X9372381Y-3515771D02*
X9420000Y-3325295D01*
X9420000Y-3325295D02*
X9467619Y-3230057D01*
X9467619Y-3230057D02*
X9515238Y-3182438D01*
X9515238Y-3182438D02*
X9610476Y-3134819D01*
X10896190Y-4134819D02*
X10324762Y-4134819D01*
X10610476Y-4134819D02*
X10610476Y-3134819D01*
X10610476Y-3134819D02*
X10515238Y-3277676D01*
X10515238Y-3277676D02*
X10420000Y-3372914D01*
X10420000Y-3372914D02*
X10324762Y-3420533D01*
X11229524Y-4134819D02*
X11753333Y-3468152D01*
X11229524Y-3468152D02*
X11753333Y-4134819D01*
X12324762Y-3134819D02*
X12420000Y-3134819D01*
X12420000Y-3134819D02*
X12515238Y-3182438D01*
X12515238Y-3182438D02*
X12562857Y-3230057D01*
X12562857Y-3230057D02*
X12610476Y-3325295D01*
X12610476Y-3325295D02*
X12658095Y-3515771D01*
X12658095Y-3515771D02*
X12658095Y-3753866D01*
X12658095Y-3753866D02*
X12610476Y-3944342D01*
X12610476Y-3944342D02*
X12562857Y-4039580D01*
X12562857Y-4039580D02*
X12515238Y-4087200D01*
X12515238Y-4087200D02*
X12420000Y-4134819D01*
X12420000Y-4134819D02*
X12324762Y-4134819D01*
X12324762Y-4134819D02*
X12229524Y-4087200D01*
X12229524Y-4087200D02*
X12181905Y-4039580D01*
X12181905Y-4039580D02*
X12134286Y-3944342D01*
X12134286Y-3944342D02*
X12086667Y-3753866D01*
X12086667Y-3753866D02*
X12086667Y-3515771D01*
X12086667Y-3515771D02*
X12134286Y-3325295D01*
X12134286Y-3325295D02*
X12181905Y-3230057D01*
X12181905Y-3230057D02*
X12229524Y-3182438D01*
X12229524Y-3182438D02*
X12324762Y-3134819D01*
X13515238Y-3134819D02*
X13324762Y-3134819D01*
X13324762Y-3134819D02*
X13229524Y-3182438D01*
X13229524Y-3182438D02*
X13181905Y-3230057D01*
X13181905Y-3230057D02*
X13086667Y-3372914D01*
X13086667Y-3372914D02*
X13039048Y-3563390D01*
X13039048Y-3563390D02*
X13039048Y-3944342D01*
X13039048Y-3944342D02*
X13086667Y-4039580D01*
X13086667Y-4039580D02*
X13134286Y-4087200D01*
X13134286Y-4087200D02*
X13229524Y-4134819D01*
X13229524Y-4134819D02*
X13420000Y-4134819D01*
X13420000Y-4134819D02*
X13515238Y-4087200D01*
X13515238Y-4087200D02*
X13562857Y-4039580D01*
X13562857Y-4039580D02*
X13610476Y-3944342D01*
X13610476Y-3944342D02*
X13610476Y-3706247D01*
X13610476Y-3706247D02*
X13562857Y-3611009D01*
X13562857Y-3611009D02*
X13515238Y-3563390D01*
X13515238Y-3563390D02*
X13420000Y-3515771D01*
X13420000Y-3515771D02*
X13229524Y-3515771D01*
X13229524Y-3515771D02*
X13134286Y-3563390D01*
X13134286Y-3563390D02*
X13086667Y-3611009D01*
X13086667Y-3611009D02*
X13039048Y-3706247D01*
X13800953Y-4230057D02*
X14562857Y-4230057D01*
X14753334Y-3230057D02*
X14800953Y-3182438D01*
X14800953Y-3182438D02*
X14896191Y-3134819D01*
X14896191Y-3134819D02*
X15134286Y-3134819D01*
X15134286Y-3134819D02*
X15229524Y-3182438D01*
X15229524Y-3182438D02*
X15277143Y-3230057D01*
X15277143Y-3230057D02*
X15324762Y-3325295D01*
X15324762Y-3325295D02*
X15324762Y-3420533D01*
X15324762Y-3420533D02*
X15277143Y-3563390D01*
X15277143Y-3563390D02*
X14705715Y-4134819D01*
X14705715Y-4134819D02*
X15324762Y-4134819D01*
X15753334Y-4039580D02*
X15800953Y-4087200D01*
X15800953Y-4087200D02*
X15753334Y-4134819D01*
X15753334Y-4134819D02*
X15705715Y-4087200D01*
X15705715Y-4087200D02*
X15753334Y-4039580D01*
X15753334Y-4039580D02*
X15753334Y-4134819D01*
X16705714Y-3134819D02*
X16229524Y-3134819D01*
X16229524Y-3134819D02*
X16181905Y-3611009D01*
X16181905Y-3611009D02*
X16229524Y-3563390D01*
X16229524Y-3563390D02*
X16324762Y-3515771D01*
X16324762Y-3515771D02*
X16562857Y-3515771D01*
X16562857Y-3515771D02*
X16658095Y-3563390D01*
X16658095Y-3563390D02*
X16705714Y-3611009D01*
X16705714Y-3611009D02*
X16753333Y-3706247D01*
X16753333Y-3706247D02*
X16753333Y-3944342D01*
X16753333Y-3944342D02*
X16705714Y-4039580D01*
X16705714Y-4039580D02*
X16658095Y-4087200D01*
X16658095Y-4087200D02*
X16562857Y-4134819D01*
X16562857Y-4134819D02*
X16324762Y-4134819D01*
X16324762Y-4134819D02*
X16229524Y-4087200D01*
X16229524Y-4087200D02*
X16181905Y-4039580D01*
X17610476Y-3468152D02*
X17610476Y-4134819D01*
X17372381Y-3087200D02*
X17134286Y-3801485D01*
X17134286Y-3801485D02*
X17753333Y-3801485D01*
X18134286Y-4134819D02*
X18134286Y-3468152D01*
X18134286Y-3563390D02*
X18181905Y-3515771D01*
X18181905Y-3515771D02*
X18277143Y-3468152D01*
X18277143Y-3468152D02*
X18420000Y-3468152D01*
X18420000Y-3468152D02*
X18515238Y-3515771D01*
X18515238Y-3515771D02*
X18562857Y-3611009D01*
X18562857Y-3611009D02*
X18562857Y-4134819D01*
X18562857Y-3611009D02*
X18610476Y-3515771D01*
X18610476Y-3515771D02*
X18705714Y-3468152D01*
X18705714Y-3468152D02*
X18848571Y-3468152D01*
X18848571Y-3468152D02*
X18943810Y-3515771D01*
X18943810Y-3515771D02*
X18991429Y-3611009D01*
X18991429Y-3611009D02*
X18991429Y-4134819D01*
X19467619Y-4134819D02*
X19467619Y-3468152D01*
X19467619Y-3563390D02*
X19515238Y-3515771D01*
X19515238Y-3515771D02*
X19610476Y-3468152D01*
X19610476Y-3468152D02*
X19753333Y-3468152D01*
X19753333Y-3468152D02*
X19848571Y-3515771D01*
X19848571Y-3515771D02*
X19896190Y-3611009D01*
X19896190Y-3611009D02*
X19896190Y-4134819D01*
X19896190Y-3611009D02*
X19943809Y-3515771D01*
X19943809Y-3515771D02*
X20039047Y-3468152D01*
X20039047Y-3468152D02*
X20181904Y-3468152D01*
X20181904Y-3468152D02*
X20277143Y-3515771D01*
X20277143Y-3515771D02*
X20324762Y-3611009D01*
X20324762Y-3611009D02*
X20324762Y-4134819D01*
X20562857Y-4230057D02*
X21324761Y-4230057D01*
X21896190Y-3611009D02*
X21562857Y-3611009D01*
X21562857Y-4134819D02*
X21562857Y-3134819D01*
X21562857Y-3134819D02*
X22039047Y-3134819D01*
X22800952Y-4087200D02*
X22705714Y-4134819D01*
X22705714Y-4134819D02*
X22515238Y-4134819D01*
X22515238Y-4134819D02*
X22420000Y-4087200D01*
X22420000Y-4087200D02*
X22372381Y-3991961D01*
X22372381Y-3991961D02*
X22372381Y-3611009D01*
X22372381Y-3611009D02*
X22420000Y-3515771D01*
X22420000Y-3515771D02*
X22515238Y-3468152D01*
X22515238Y-3468152D02*
X22705714Y-3468152D01*
X22705714Y-3468152D02*
X22800952Y-3515771D01*
X22800952Y-3515771D02*
X22848571Y-3611009D01*
X22848571Y-3611009D02*
X22848571Y-3706247D01*
X22848571Y-3706247D02*
X22372381Y-3801485D01*
X23277143Y-4134819D02*
X23277143Y-3468152D01*
X23277143Y-3563390D02*
X23324762Y-3515771D01*
X23324762Y-3515771D02*
X23420000Y-3468152D01*
X23420000Y-3468152D02*
X23562857Y-3468152D01*
X23562857Y-3468152D02*
X23658095Y-3515771D01*
X23658095Y-3515771D02*
X23705714Y-3611009D01*
X23705714Y-3611009D02*
X23705714Y-4134819D01*
X23705714Y-3611009D02*
X23753333Y-3515771D01*
X23753333Y-3515771D02*
X23848571Y-3468152D01*
X23848571Y-3468152D02*
X23991428Y-3468152D01*
X23991428Y-3468152D02*
X24086667Y-3515771D01*
X24086667Y-3515771D02*
X24134286Y-3611009D01*
X24134286Y-3611009D02*
X24134286Y-4134819D01*
X25039047Y-4134819D02*
X25039047Y-3611009D01*
X25039047Y-3611009D02*
X24991428Y-3515771D01*
X24991428Y-3515771D02*
X24896190Y-3468152D01*
X24896190Y-3468152D02*
X24705714Y-3468152D01*
X24705714Y-3468152D02*
X24610476Y-3515771D01*
X25039047Y-4087200D02*
X24943809Y-4134819D01*
X24943809Y-4134819D02*
X24705714Y-4134819D01*
X24705714Y-4134819D02*
X24610476Y-4087200D01*
X24610476Y-4087200D02*
X24562857Y-3991961D01*
X24562857Y-3991961D02*
X24562857Y-3896723D01*
X24562857Y-3896723D02*
X24610476Y-3801485D01*
X24610476Y-3801485D02*
X24705714Y-3753866D01*
X24705714Y-3753866D02*
X24943809Y-3753866D01*
X24943809Y-3753866D02*
X25039047Y-3706247D01*
X25658095Y-4134819D02*
X25562857Y-4087200D01*
X25562857Y-4087200D02*
X25515238Y-3991961D01*
X25515238Y-3991961D02*
X25515238Y-3134819D01*
X26420000Y-4087200D02*
X26324762Y-4134819D01*
X26324762Y-4134819D02*
X26134286Y-4134819D01*
X26134286Y-4134819D02*
X26039048Y-4087200D01*
X26039048Y-4087200D02*
X25991429Y-3991961D01*
X25991429Y-3991961D02*
X25991429Y-3611009D01*
X25991429Y-3611009D02*
X26039048Y-3515771D01*
X26039048Y-3515771D02*
X26134286Y-3468152D01*
X26134286Y-3468152D02*
X26324762Y-3468152D01*
X26324762Y-3468152D02*
X26420000Y-3515771D01*
X26420000Y-3515771D02*
X26467619Y-3611009D01*
X26467619Y-3611009D02*
X26467619Y-3706247D01*
X26467619Y-3706247D02*
X25991429Y-3801485D01*
D12*
X5850000Y-23600000D03*
X7850000Y-23600000D03*
X9850000Y-23600000D03*
X11850000Y-23600000D03*
X22500000Y-2550000D03*
X2500000Y-22500000D03*
M02*
