%TF.GenerationSoftware,KiCad,Pcbnew,8.0.8*%
%TF.CreationDate,2025-07-09T11:02:25+01:00*%
%TF.ProjectId,Panel4,50616e65-6c34-42e6-9b69-6361645f7063,rev?*%
%TF.SameCoordinates,Original*%
%TF.FileFunction,Paste,Top*%
%TF.FilePolarity,Positive*%
%FSLAX46Y46*%
G04 Gerber Fmt 4.6, Leading zero omitted, Abs format (unit mm)*
G04 Created by KiCad (PCBNEW 8.0.8) date 2025-07-09 11:02:25*
%MOMM*%
%LPD*%
G01*
G04 APERTURE LIST*
G04 Aperture macros list*
%AMRoundRect*
0 Rectangle with rounded corners*
0 $1 Rounding radius*
0 $2 $3 $4 $5 $6 $7 $8 $9 X,Y pos of 4 corners*
0 Add a 4 corners polygon primitive as box body*
4,1,4,$2,$3,$4,$5,$6,$7,$8,$9,$2,$3,0*
0 Add four circle primitives for the rounded corners*
1,1,$1+$1,$2,$3*
1,1,$1+$1,$4,$5*
1,1,$1+$1,$6,$7*
1,1,$1+$1,$8,$9*
0 Add four rect primitives between the rounded corners*
20,1,$1+$1,$2,$3,$4,$5,0*
20,1,$1+$1,$4,$5,$6,$7,0*
20,1,$1+$1,$6,$7,$8,$9,0*
20,1,$1+$1,$8,$9,$2,$3,0*%
G04 Aperture macros list end*
%ADD10RoundRect,0.147500X0.147500X0.172500X-0.147500X0.172500X-0.147500X-0.172500X0.147500X-0.172500X0*%
%ADD11RoundRect,0.147500X0.172500X-0.147500X0.172500X0.147500X-0.172500X0.147500X-0.172500X-0.147500X0*%
%ADD12RoundRect,0.147500X-0.147500X-0.172500X0.147500X-0.172500X0.147500X0.172500X-0.147500X0.172500X0*%
%ADD13RoundRect,0.147500X-0.172500X0.147500X-0.172500X-0.147500X0.172500X-0.147500X0.172500X0.147500X0*%
%ADD14RoundRect,0.232500X-0.757500X-0.232500X0.757500X-0.232500X0.757500X0.232500X-0.757500X0.232500X0*%
%ADD15RoundRect,0.100000X-0.687500X-0.100000X0.687500X-0.100000X0.687500X0.100000X-0.687500X0.100000X0*%
%ADD16R,2.000000X1.600000*%
%ADD17R,1.250000X0.300000*%
%ADD18RoundRect,0.300000X1.100000X0.300000X-1.100000X0.300000X-1.100000X-0.300000X1.100000X-0.300000X0*%
%ADD19RoundRect,0.243750X-0.456250X0.243750X-0.456250X-0.243750X0.456250X-0.243750X0.456250X0.243750X0*%
%ADD20R,0.900000X0.800000*%
%ADD21RoundRect,0.100000X0.637500X0.100000X-0.637500X0.100000X-0.637500X-0.100000X0.637500X-0.100000X0*%
%ADD22R,3.150000X1.000000*%
%ADD23RoundRect,0.243750X0.456250X-0.243750X0.456250X0.243750X-0.456250X0.243750X-0.456250X-0.243750X0*%
%ADD24RoundRect,0.218750X0.218750X0.256250X-0.218750X0.256250X-0.218750X-0.256250X0.218750X-0.256250X0*%
%ADD25R,1.060000X0.650000*%
%ADD26R,0.700000X1.200000*%
%ADD27R,0.760000X1.200000*%
%ADD28R,0.800000X1.200000*%
%ADD29R,0.650000X1.060000*%
%ADD30R,0.990000X0.300000*%
%ADD31RoundRect,0.062500X0.237500X-0.062500X0.237500X0.062500X-0.237500X0.062500X-0.237500X-0.062500X0*%
%ADD32RoundRect,0.062500X0.062500X1.137500X-0.062500X1.137500X-0.062500X-1.137500X0.062500X-1.137500X0*%
%ADD33RoundRect,0.075000X0.075000X0.375000X-0.075000X0.375000X-0.075000X-0.375000X0.075000X-0.375000X0*%
%ADD34RoundRect,0.075000X0.075000X0.525000X-0.075000X0.525000X-0.075000X-0.525000X0.075000X-0.525000X0*%
%ADD35RoundRect,0.087500X0.087500X-0.187500X0.087500X0.187500X-0.087500X0.187500X-0.087500X-0.187500X0*%
%ADD36RoundRect,0.087500X0.187500X-0.087500X0.187500X0.087500X-0.187500X0.087500X-0.187500X-0.087500X0*%
%ADD37RoundRect,0.200000X-0.200000X-0.600000X0.200000X-0.600000X0.200000X0.600000X-0.200000X0.600000X0*%
%ADD38RoundRect,0.250001X-0.799999X-1.249999X0.799999X-1.249999X0.799999X1.249999X-0.799999X1.249999X0*%
%ADD39RoundRect,0.075000X-0.075000X0.662500X-0.075000X-0.662500X0.075000X-0.662500X0.075000X0.662500X0*%
%ADD40RoundRect,0.075000X-0.662500X0.075000X-0.662500X-0.075000X0.662500X-0.075000X0.662500X0.075000X0*%
%ADD41RoundRect,0.075000X0.075000X0.275000X-0.075000X0.275000X-0.075000X-0.275000X0.075000X-0.275000X0*%
%ADD42RoundRect,0.175000X0.225000X0.175000X-0.225000X0.175000X-0.225000X-0.175000X0.225000X-0.175000X0*%
%ADD43RoundRect,0.250000X0.850000X-0.375000X0.850000X0.375000X-0.850000X0.375000X-0.850000X-0.375000X0*%
%ADD44RoundRect,0.050000X0.285000X0.100000X-0.285000X0.100000X-0.285000X-0.100000X0.285000X-0.100000X0*%
%ADD45RoundRect,0.075000X-0.250000X-0.075000X0.250000X-0.075000X0.250000X0.075000X-0.250000X0.075000X0*%
%ADD46RoundRect,0.150000X0.512500X0.150000X-0.512500X0.150000X-0.512500X-0.150000X0.512500X-0.150000X0*%
%ADD47RoundRect,0.140000X-0.140000X-0.140000X0.140000X-0.140000X0.140000X0.140000X-0.140000X0.140000X0*%
%ADD48RoundRect,0.250000X1.075000X-0.312500X1.075000X0.312500X-1.075000X0.312500X-1.075000X-0.312500X0*%
G04 APERTURE END LIST*
D10*
%TO.C,BATC9*%
X14385000Y-21550000D03*
X13415000Y-21550000D03*
%TD*%
D11*
%TO.C,LIGC6*%
X65492500Y-4685000D03*
X65492500Y-3715000D03*
%TD*%
D12*
%TO.C,LIGR12*%
X80815000Y-20300000D03*
X81785000Y-20300000D03*
%TD*%
%TO.C,LIGR9*%
X80065000Y-21850000D03*
X81035000Y-21850000D03*
%TD*%
D13*
%TO.C,LIGC7*%
X73612500Y-3065000D03*
X73612500Y-4035000D03*
%TD*%
D14*
%TO.C,MOTU1*%
X28100000Y-29820000D03*
X28100000Y-30980000D03*
D15*
X25237500Y-28125000D03*
X25237500Y-28775000D03*
X25237500Y-29425000D03*
X25237500Y-30075000D03*
X25237500Y-30725000D03*
X25237500Y-31375000D03*
X25237500Y-32025000D03*
X25237500Y-32675000D03*
X30962500Y-32675000D03*
X30962500Y-32025000D03*
X30962500Y-31375000D03*
X30962500Y-30725000D03*
X30962500Y-30075000D03*
X30962500Y-29425000D03*
X30962500Y-28775000D03*
X30962500Y-28125000D03*
%TD*%
D16*
%TO.C,BATJ1*%
X3000000Y-18100000D03*
X3000000Y-6900000D03*
D17*
X5655000Y-8750000D03*
X5655000Y-9250000D03*
X5655000Y-9750000D03*
X5655000Y-10250000D03*
X5655000Y-10750000D03*
X5655000Y-11250000D03*
X5655000Y-11750000D03*
X5655000Y-12250000D03*
X5655000Y-12750000D03*
X5655000Y-13250000D03*
X5655000Y-13750000D03*
X5655000Y-14250000D03*
X5655000Y-14750000D03*
X5655000Y-15250000D03*
X5655000Y-15750000D03*
X5655000Y-16250000D03*
%TD*%
D18*
%TO.C,SPKLS2*%
X34950000Y-75750000D03*
X23150000Y-75750000D03*
X34950000Y-59050000D03*
X23150000Y-59050000D03*
%TD*%
D12*
%TO.C,MOTC1*%
X39665000Y-28900000D03*
X40635000Y-28900000D03*
%TD*%
D19*
%TO.C,BATR13*%
X8225000Y-2762500D03*
X8225000Y-4637500D03*
%TD*%
D11*
%TO.C,BATC4*%
X2350000Y-3850000D03*
X2350000Y-2880000D03*
%TD*%
D10*
%TO.C,LIGR2*%
X71785000Y-17450000D03*
X70815000Y-17450000D03*
%TD*%
D20*
%TO.C,BATQ6*%
X47550000Y-20850000D03*
X47550000Y-22750000D03*
X49550000Y-21800000D03*
%TD*%
D11*
%TO.C,LIGR7*%
X72492500Y-2020000D03*
X72492500Y-1050000D03*
%TD*%
D16*
%TO.C,BATJ3*%
X51500000Y-6900000D03*
X51500000Y-18100000D03*
D17*
X48845000Y-16250000D03*
X48845000Y-15750000D03*
X48845000Y-15250000D03*
X48845000Y-14750000D03*
X48845000Y-14250000D03*
X48845000Y-13750000D03*
X48845000Y-13250000D03*
X48845000Y-12750000D03*
X48845000Y-12250000D03*
X48845000Y-11750000D03*
X48845000Y-11250000D03*
X48845000Y-10750000D03*
X48845000Y-10250000D03*
X48845000Y-9750000D03*
X48845000Y-9250000D03*
X48845000Y-8750000D03*
%TD*%
D11*
%TO.C,LIGC2*%
X80978474Y-19270000D03*
X80978474Y-18300000D03*
%TD*%
D21*
%TO.C,LIGU3*%
X79128474Y-20550000D03*
X79128474Y-19900000D03*
X79128474Y-19250000D03*
X79128474Y-18600000D03*
X79128474Y-17950000D03*
X79128474Y-17300000D03*
X79128474Y-16650000D03*
X79128474Y-16000000D03*
X79128474Y-15350000D03*
X79128474Y-14700000D03*
X73403474Y-14700000D03*
X73403474Y-15350000D03*
X73403474Y-16000000D03*
X73403474Y-16650000D03*
X73403474Y-17300000D03*
X73403474Y-17950000D03*
X73403474Y-18600000D03*
X73403474Y-19250000D03*
X73403474Y-19900000D03*
X73403474Y-20550000D03*
%TD*%
D22*
%TO.C,MOTJ2*%
X24950000Y-47930000D03*
X19900000Y-47930000D03*
X24950000Y-45390000D03*
X19900000Y-45390000D03*
X24950000Y-42850000D03*
X19900000Y-42850000D03*
%TD*%
D16*
%TO.C,MOTJ11*%
X51030000Y-34050000D03*
X51030000Y-45250000D03*
D17*
X48375000Y-43400000D03*
X48375000Y-42900000D03*
X48375000Y-42400000D03*
X48375000Y-41900000D03*
X48375000Y-41400000D03*
X48375000Y-40900000D03*
X48375000Y-40400000D03*
X48375000Y-39900000D03*
X48375000Y-39400000D03*
X48375000Y-38900000D03*
X48375000Y-38400000D03*
X48375000Y-37900000D03*
X48375000Y-37400000D03*
X48375000Y-36900000D03*
X48375000Y-36400000D03*
X48375000Y-35900000D03*
%TD*%
D23*
%TO.C,BATC10*%
X30650000Y-22637500D03*
X30650000Y-20762500D03*
%TD*%
D11*
%TO.C,BATC13*%
X21725000Y-7600000D03*
X21725000Y-6630000D03*
%TD*%
%TO.C,MOTC2*%
X32700000Y-31185000D03*
X32700000Y-30215000D03*
%TD*%
D13*
%TO.C,LIGR8*%
X66622500Y-1680000D03*
X66622500Y-2650000D03*
%TD*%
D16*
%TO.C,LIGJ3*%
X85500000Y-6900000D03*
X85500000Y-18100000D03*
D17*
X82845000Y-16250000D03*
X82845000Y-15750000D03*
X82845000Y-15250000D03*
X82845000Y-14750000D03*
X82845000Y-14250000D03*
X82845000Y-13750000D03*
X82845000Y-13250000D03*
X82845000Y-12750000D03*
X82845000Y-12250000D03*
X82845000Y-11750000D03*
X82845000Y-11250000D03*
X82845000Y-10750000D03*
X82845000Y-10250000D03*
X82845000Y-9750000D03*
X82845000Y-9250000D03*
X82845000Y-8750000D03*
%TD*%
D10*
%TO.C,BATC14*%
X22745000Y-4700000D03*
X21775000Y-4700000D03*
%TD*%
D13*
%TO.C,LIGR10*%
X66652500Y-3750000D03*
X66652500Y-4720000D03*
%TD*%
%TO.C,MOTC5*%
X33800000Y-30865000D03*
X33800000Y-31835000D03*
%TD*%
D16*
%TO.C,SPKJ12*%
X3345000Y-72100000D03*
X3345000Y-60900000D03*
D17*
X6000000Y-62750000D03*
X6000000Y-63250000D03*
X6000000Y-63750000D03*
X6000000Y-64250000D03*
X6000000Y-64750000D03*
X6000000Y-65250000D03*
X6000000Y-65750000D03*
X6000000Y-66250000D03*
X6000000Y-66750000D03*
X6000000Y-67250000D03*
X6000000Y-67750000D03*
X6000000Y-68250000D03*
X6000000Y-68750000D03*
X6000000Y-69250000D03*
X6000000Y-69750000D03*
X6000000Y-70250000D03*
%TD*%
D24*
%TO.C,BATD2*%
X23062500Y-1000000D03*
X21487500Y-1000000D03*
%TD*%
D11*
%TO.C,MOTC26*%
X34950000Y-37985000D03*
X34950000Y-37015000D03*
%TD*%
D10*
%TO.C,MOTR13*%
X29650000Y-37850000D03*
X28680000Y-37850000D03*
%TD*%
D25*
%TO.C,MOTU2*%
X12550000Y-35531404D03*
X12550000Y-36481404D03*
X12550000Y-37431404D03*
X14750000Y-37431404D03*
X14750000Y-35531404D03*
%TD*%
D12*
%TO.C,BATC7*%
X22765000Y-20950000D03*
X23735000Y-20950000D03*
%TD*%
D13*
%TO.C,LIGC9*%
X82250000Y-21995000D03*
X82250000Y-22965000D03*
%TD*%
D20*
%TO.C,BATQ2*%
X41675000Y-20915000D03*
X41675000Y-22815000D03*
X43675000Y-21865000D03*
%TD*%
D11*
%TO.C,LIGC5*%
X73600000Y-6735000D03*
X73600000Y-5765000D03*
%TD*%
D26*
%TO.C,BATJ2*%
X15750000Y-5300000D03*
D27*
X13730000Y-5300000D03*
D28*
X12500000Y-5300000D03*
D26*
X14750000Y-5300000D03*
D27*
X16770000Y-5300000D03*
D28*
X18000000Y-5300000D03*
%TD*%
D16*
%TO.C,MOTJ1*%
X3000000Y-45100000D03*
X3000000Y-33900000D03*
D17*
X5655000Y-35750000D03*
X5655000Y-36250000D03*
X5655000Y-36750000D03*
X5655000Y-37250000D03*
X5655000Y-37750000D03*
X5655000Y-38250000D03*
X5655000Y-38750000D03*
X5655000Y-39250000D03*
X5655000Y-39750000D03*
X5655000Y-40250000D03*
X5655000Y-40750000D03*
X5655000Y-41250000D03*
X5655000Y-41750000D03*
X5655000Y-42250000D03*
X5655000Y-42750000D03*
X5655000Y-43250000D03*
%TD*%
D29*
%TO.C,BATU6*%
X3800000Y-4675000D03*
X4750000Y-4675000D03*
X5700000Y-4675000D03*
X5700000Y-2475000D03*
X3800000Y-2475000D03*
%TD*%
D11*
%TO.C,LIGR11*%
X72502500Y-4050000D03*
X72502500Y-3080000D03*
%TD*%
D30*
%TO.C,BATIC1*%
X18590000Y-7300000D03*
X18590000Y-7800000D03*
X18590000Y-8300000D03*
X20210000Y-8300000D03*
X20210000Y-7800000D03*
X20210000Y-7300000D03*
%TD*%
D13*
%TO.C,BATC8*%
X19400000Y-20865000D03*
X19400000Y-21835000D03*
%TD*%
D29*
%TO.C,BATU8*%
X25082500Y-6075000D03*
X24132500Y-6075000D03*
X23182500Y-6075000D03*
X23182500Y-8275000D03*
X24132500Y-8275000D03*
X25082500Y-8275000D03*
%TD*%
D11*
%TO.C,BATR5*%
X36900000Y-19180000D03*
X36900000Y-18210000D03*
%TD*%
D31*
%TO.C,BATU5*%
X25425000Y-22150000D03*
X25425000Y-21650000D03*
X25425000Y-21150000D03*
X25425000Y-20650000D03*
D32*
X26325000Y-21400000D03*
D33*
X26865000Y-20650000D03*
D34*
X26865000Y-22000000D03*
%TD*%
D11*
%TO.C,LIGR3*%
X71475000Y-13625000D03*
X71475000Y-12655000D03*
%TD*%
D35*
%TO.C,LIGU6*%
X75000000Y-8350000D03*
X75500000Y-8350000D03*
X76000000Y-8350000D03*
X76500000Y-8350000D03*
X77000000Y-8350000D03*
D36*
X77225000Y-7625000D03*
X77225000Y-7125000D03*
X77225000Y-6625000D03*
D35*
X77000000Y-5900000D03*
X76500000Y-5900000D03*
X76000000Y-5900000D03*
X75500000Y-5900000D03*
X75000000Y-5900000D03*
D36*
X74775000Y-6625000D03*
X74775000Y-7125000D03*
X74775000Y-7625000D03*
%TD*%
D25*
%TO.C,BATU2*%
X18000000Y-22700000D03*
X18000000Y-21750000D03*
X18000000Y-20800000D03*
X15800000Y-20800000D03*
X15800000Y-22700000D03*
%TD*%
D16*
%TO.C,SPKJ13*%
X50730000Y-60900000D03*
X50730000Y-72100000D03*
D17*
X48075000Y-70250000D03*
X48075000Y-69750000D03*
X48075000Y-69250000D03*
X48075000Y-68750000D03*
X48075000Y-68250000D03*
X48075000Y-67750000D03*
X48075000Y-67250000D03*
X48075000Y-66750000D03*
X48075000Y-66250000D03*
X48075000Y-65750000D03*
X48075000Y-65250000D03*
X48075000Y-64750000D03*
X48075000Y-64250000D03*
X48075000Y-63750000D03*
X48075000Y-63250000D03*
X48075000Y-62750000D03*
%TD*%
D13*
%TO.C,BATC1*%
X19950000Y-15515000D03*
X19950000Y-16485000D03*
%TD*%
D10*
%TO.C,BATR10*%
X23775000Y-23075000D03*
X22805000Y-23075000D03*
%TD*%
D12*
%TO.C,BATR9*%
X22780000Y-22025000D03*
X23750000Y-22025000D03*
%TD*%
D19*
%TO.C,BATC5*%
X27625000Y-17237500D03*
X27625000Y-19112500D03*
%TD*%
D10*
%TO.C,MOTC3*%
X42635000Y-28850000D03*
X41665000Y-28850000D03*
%TD*%
D12*
%TO.C,BATR16*%
X21280000Y-2350000D03*
X22250000Y-2350000D03*
%TD*%
D13*
%TO.C,BATR6*%
X38000000Y-18165000D03*
X38000000Y-19135000D03*
%TD*%
D22*
%TO.C,MOTJ8*%
X44800000Y-47930000D03*
X39750000Y-47930000D03*
X44800000Y-45390000D03*
X39750000Y-45390000D03*
X44800000Y-42850000D03*
X39750000Y-42850000D03*
%TD*%
D11*
%TO.C,MOTC8*%
X11150000Y-37366404D03*
X11150000Y-36396404D03*
%TD*%
D13*
%TO.C,BATR2*%
X8200000Y-16650000D03*
X8200000Y-17620000D03*
%TD*%
D37*
%TO.C,SPKJ2*%
X11430000Y-55630000D03*
X12680000Y-55630000D03*
D38*
X15230000Y-58530000D03*
X8880000Y-58530000D03*
%TD*%
D39*
%TO.C,MOTU4*%
X43550000Y-30687500D03*
X43050000Y-30687500D03*
X42550000Y-30687500D03*
X42050000Y-30687500D03*
X41550000Y-30687500D03*
X41050000Y-30687500D03*
X40550000Y-30687500D03*
X40050000Y-30687500D03*
X39550000Y-30687500D03*
X39050000Y-30687500D03*
X38550000Y-30687500D03*
X38050000Y-30687500D03*
D40*
X36637500Y-32100000D03*
X36637500Y-32600000D03*
X36637500Y-33100000D03*
X36637500Y-33600000D03*
X36637500Y-34100000D03*
X36637500Y-34600000D03*
X36637500Y-35100000D03*
X36637500Y-35600000D03*
X36637500Y-36100000D03*
X36637500Y-36600000D03*
X36637500Y-37100000D03*
X36637500Y-37600000D03*
D39*
X38050000Y-39012500D03*
X38550000Y-39012500D03*
X39050000Y-39012500D03*
X39550000Y-39012500D03*
X40050000Y-39012500D03*
X40550000Y-39012500D03*
X41050000Y-39012500D03*
X41550000Y-39012500D03*
X42050000Y-39012500D03*
X42550000Y-39012500D03*
X43050000Y-39012500D03*
X43550000Y-39012500D03*
D40*
X44962500Y-37600000D03*
X44962500Y-37100000D03*
X44962500Y-36600000D03*
X44962500Y-36100000D03*
X44962500Y-35600000D03*
X44962500Y-35100000D03*
X44962500Y-34600000D03*
X44962500Y-34100000D03*
X44962500Y-33600000D03*
X44962500Y-33100000D03*
X44962500Y-32600000D03*
X44962500Y-32100000D03*
%TD*%
D10*
%TO.C,MOTR14*%
X29570926Y-34700000D03*
X28600926Y-34700000D03*
%TD*%
D41*
%TO.C,BATU4*%
X43480000Y-9200000D03*
X42950000Y-9200000D03*
X41785000Y-9200000D03*
D42*
X42155000Y-12500000D03*
X43215000Y-12500000D03*
%TD*%
D21*
%TO.C,BATU3*%
X17100000Y-18750000D03*
X17100000Y-18100000D03*
X17100000Y-17450000D03*
X17100000Y-16800000D03*
X17100000Y-16150000D03*
X17100000Y-15500000D03*
X17100000Y-14850000D03*
X17100000Y-14200000D03*
X17100000Y-13550000D03*
X17100000Y-12900000D03*
X11375000Y-12900000D03*
X11375000Y-13550000D03*
X11375000Y-14200000D03*
X11375000Y-14850000D03*
X11375000Y-15500000D03*
X11375000Y-16150000D03*
X11375000Y-16800000D03*
X11375000Y-17450000D03*
X11375000Y-18100000D03*
X11375000Y-18750000D03*
%TD*%
D11*
%TO.C,BATR3*%
X8200000Y-13535000D03*
X8200000Y-12565000D03*
%TD*%
D12*
%TO.C,BATR12*%
X15915000Y-7050000D03*
X16885000Y-7050000D03*
%TD*%
D11*
%TO.C,BATC2*%
X18750000Y-17370000D03*
X18750000Y-16400000D03*
%TD*%
D10*
%TO.C,LIGR4*%
X71875000Y-16050000D03*
X70905000Y-16050000D03*
%TD*%
D12*
%TO.C,BATR15*%
X19890000Y-19775000D03*
X20860000Y-19775000D03*
%TD*%
D25*
%TO.C,LIGU2*%
X85850000Y-22965000D03*
X85850000Y-22015000D03*
X85850000Y-21065000D03*
X83650000Y-21065000D03*
X83650000Y-22965000D03*
%TD*%
D43*
%TO.C,BATL1*%
X25200000Y-19000000D03*
X25200000Y-16850000D03*
%TD*%
D23*
%TO.C,BATC11*%
X28650000Y-22637500D03*
X28650000Y-20762500D03*
%TD*%
D13*
%TO.C,BATR18*%
X22990000Y-18900000D03*
X22990000Y-19870000D03*
%TD*%
D11*
%TO.C,BATR17*%
X26700000Y-6920000D03*
X26700000Y-5950000D03*
%TD*%
D13*
%TO.C,BATR4*%
X8200000Y-14565000D03*
X8200000Y-15535000D03*
%TD*%
D11*
%TO.C,MOTC9*%
X16200000Y-36120000D03*
X16200000Y-35150000D03*
%TD*%
D13*
%TO.C,LIGC8*%
X87250000Y-21130000D03*
X87250000Y-22100000D03*
%TD*%
D11*
%TO.C,BATR1*%
X12900000Y-10635000D03*
X12900000Y-9665000D03*
%TD*%
D22*
%TO.C,MOTJ6*%
X34900000Y-47930000D03*
X29850000Y-47930000D03*
X34900000Y-45390000D03*
X29850000Y-45390000D03*
X34900000Y-42850000D03*
X29850000Y-42850000D03*
%TD*%
D10*
%TO.C,MOTR12*%
X29585000Y-36800000D03*
X28615000Y-36800000D03*
%TD*%
%TO.C,MOTR11*%
X29600000Y-35750000D03*
X28630000Y-35750000D03*
%TD*%
%TO.C,BATR7*%
X44175000Y-7950000D03*
X43205000Y-7950000D03*
%TD*%
%TO.C,BATR11*%
X14350000Y-7075000D03*
X13380000Y-7075000D03*
%TD*%
D13*
%TO.C,LIGC3*%
X78495000Y-1365000D03*
X78495000Y-2335000D03*
%TD*%
D20*
%TO.C,BATQ5*%
X37950000Y-20865000D03*
X37950000Y-22765000D03*
X39950000Y-21815000D03*
%TD*%
D10*
%TO.C,BATR14*%
X20800000Y-17625000D03*
X19830000Y-17625000D03*
%TD*%
D13*
%TO.C,LIGC1*%
X80978474Y-16290000D03*
X80978474Y-17260000D03*
%TD*%
D11*
%TO.C,LIGR1*%
X80975000Y-15160000D03*
X80975000Y-14190000D03*
%TD*%
%TO.C,LIGC4*%
X73702500Y-1965000D03*
X73702500Y-995000D03*
%TD*%
D44*
%TO.C,BATU1*%
X35580000Y-19995000D03*
X35580000Y-19495000D03*
X35580000Y-18995000D03*
X35580000Y-18495000D03*
X34100000Y-18495000D03*
X34100000Y-18995000D03*
X34100000Y-19495000D03*
X34100000Y-19995000D03*
%TD*%
D10*
%TO.C,BATC6*%
X26260000Y-23475000D03*
X25290000Y-23475000D03*
%TD*%
D22*
%TO.C,MOTJ9*%
X15025000Y-47930000D03*
X9975000Y-47930000D03*
X15025000Y-45390000D03*
X9975000Y-45390000D03*
X15025000Y-42850000D03*
X9975000Y-42850000D03*
%TD*%
D45*
%TO.C,LIGU1*%
X79870000Y-1360000D03*
X79870000Y-2010000D03*
X79870000Y-2660000D03*
X81670000Y-2660000D03*
X81670000Y-2010000D03*
X81670000Y-1360000D03*
%TD*%
D46*
%TO.C,LIGU5*%
X70777500Y-4550000D03*
X70777500Y-3600000D03*
X70777500Y-2650000D03*
X68502500Y-2650000D03*
X68502500Y-4550000D03*
%TD*%
D12*
%TO.C,BATC3*%
X19880000Y-18725000D03*
X20850000Y-18725000D03*
%TD*%
D16*
%TO.C,LIGJ5*%
X66500000Y-18100000D03*
X66500000Y-6900000D03*
D17*
X69155000Y-8750000D03*
X69155000Y-9250000D03*
X69155000Y-9750000D03*
X69155000Y-10250000D03*
X69155000Y-10750000D03*
X69155000Y-11250000D03*
X69155000Y-11750000D03*
X69155000Y-12250000D03*
X69155000Y-12750000D03*
X69155000Y-13250000D03*
X69155000Y-13750000D03*
X69155000Y-14250000D03*
X69155000Y-14750000D03*
X69155000Y-15250000D03*
X69155000Y-15750000D03*
X69155000Y-16250000D03*
%TD*%
D10*
%TO.C,LIGC10*%
X77770000Y-4550000D03*
X76800000Y-4550000D03*
%TD*%
%TO.C,MOTC6*%
X34800000Y-29550000D03*
X33830000Y-29550000D03*
%TD*%
D47*
%TO.C,LIGU4*%
X76010000Y-1060000D03*
X76010000Y-3000000D03*
X77010000Y-3000000D03*
X77010000Y-1060000D03*
%TD*%
D11*
%TO.C,BATR19*%
X46150000Y-22560000D03*
X46150000Y-21590000D03*
%TD*%
D12*
%TO.C,BATC12*%
X41105000Y-7950000D03*
X42075000Y-7950000D03*
%TD*%
D11*
%TO.C,BATR20*%
X45075000Y-22550000D03*
X45075000Y-21580000D03*
%TD*%
D48*
%TO.C,MOTR5*%
X22950000Y-38625000D03*
X22950000Y-35700000D03*
%TD*%
%TO.C,MOTR6*%
X19650000Y-38625000D03*
X19650000Y-35700000D03*
%TD*%
M02*
