%TF.GenerationSoftware,KiCad,Pcbnew,8.0.8*%
%TF.CreationDate,2025-07-09T11:02:25+01:00*%
%TF.ProjectId,Panel4,50616e65-6c34-42e6-9b69-6361645f7063,rev?*%
%TF.SameCoordinates,Original*%
%TF.FileFunction,Profile,NP*%
%FSLAX46Y46*%
G04 Gerber Fmt 4.6, Leading zero omitted, Abs format (unit mm)*
G04 Created by KiCad (PCBNEW 8.0.8) date 2025-07-09 11:02:25*
%MOMM*%
%LPD*%
G01*
G04 APERTURE LIST*
%TA.AperFunction,Profile*%
%ADD10C,0.050000*%
%TD*%
%ADD11C,0.300000*%
%ADD12C,0.350000*%
%ADD13C,0.300000*%
%ADD14O,0.700000X1.500000*%
%ADD15O,0.900000X0.700000*%
%ADD16O,0.600000X1.200000*%
G04 APERTURE END LIST*
D10*
X-1000000Y-161400000D02*
X-1000000Y22600000D01*
X0Y-32000000D02*
X-1000000Y-32000000D01*
X97500000Y14000000D02*
X-7000000Y14000000D01*
X56000000Y-59000000D02*
X55000000Y-59000000D01*
X-1000000Y-32000000D02*
X-2000000Y-32000000D01*
X56000000Y-32000000D02*
X55000000Y-32000000D01*
X90500000Y-27000000D02*
X61500000Y-27000000D01*
X54000000Y-49500000D02*
G75*
G02*
X51500000Y-52000000I-2500000J0D01*
G01*
X-300000Y-74000000D02*
X-300000Y-76500000D01*
X-7000000Y-87000000D02*
X97500000Y-87000000D01*
X54000000Y-5000000D02*
X55000000Y-5000000D01*
X53700000Y-76500000D02*
X53700000Y-74000000D01*
X51500000Y-27000000D02*
G75*
G02*
X54000000Y-29500000I0J-2500000D01*
G01*
X88500000Y-20000000D02*
X89500000Y-20000000D01*
X88500000Y-5000000D02*
X88500000Y-2500000D01*
X-1000000Y-32000000D02*
X-1000000Y-47000000D01*
X2500000Y-27000000D02*
X51500000Y-27000000D01*
X51500000Y-52000000D02*
X2500000Y-52000000D01*
X-300000Y-56500000D02*
X-300000Y-59000000D01*
X2200000Y-54000000D02*
X51200000Y-54000000D01*
X0Y-20000000D02*
X0Y-22500000D01*
X62500000Y-160790000D02*
X62500000Y23210000D01*
X62500000Y-20000000D02*
X63500000Y-20000000D01*
X-7000000Y14000000D02*
X-7000000Y-87000000D01*
X56000000Y-47000000D02*
X56000000Y-59000000D01*
X54000000Y-29500000D02*
X54000000Y-32000000D01*
X-1000000Y-5000000D02*
X-1000000Y-20000000D01*
X86000000Y0D02*
G75*
G02*
X88500000Y-2500000I0J-2500000D01*
G01*
X63500000Y-2500000D02*
G75*
G02*
X66000000Y0I2500000J0D01*
G01*
X-1000000Y-74000000D02*
X-300000Y-74000000D01*
X90500000Y-5000000D02*
X90500000Y7000000D01*
X37500000Y0D02*
X51500000Y0D01*
X0Y-2500000D02*
G75*
G02*
X2500000Y0I2500000J0D01*
G01*
X54000000Y-32000000D02*
X55000000Y-32000000D01*
X56000000Y-20000000D02*
X56000000Y-32000000D01*
X63500000Y-20000000D02*
X63500000Y-22500000D01*
X51200000Y-79000000D02*
X2200000Y-79000000D01*
X62500000Y-5000000D02*
X62500000Y-20000000D01*
X63500000Y-5000000D02*
X62500000Y-5000000D01*
X-1000000Y-47000000D02*
X0Y-47000000D01*
X55000000Y-5000000D02*
X55000000Y-20000000D01*
X35007233Y-4900000D02*
X32492767Y-4900000D01*
X55000000Y-74000000D02*
X56000000Y-74000000D01*
X89500000Y-160950000D02*
X89500000Y23050000D01*
X-300000Y-56500000D02*
G75*
G02*
X2200000Y-54000000I2500000J0D01*
G01*
X-300000Y-59000000D02*
X-1500000Y-59000000D01*
X53700000Y-76500000D02*
G75*
G02*
X51200000Y-79000000I-2500000J0D01*
G01*
X-1000000Y-59000000D02*
X-1000000Y-74000000D01*
X2500000Y0D02*
X30000000Y0D01*
X86000000Y-25000000D02*
X66000000Y-25000000D01*
X63500000Y-2500000D02*
X63500000Y-5000000D01*
X-2000000Y-74000000D02*
X-1000000Y-74000000D01*
X37507233Y-2400000D02*
G75*
G02*
X35007233Y-4899993I-2499973J-20D01*
G01*
X0Y-47000000D02*
X0Y-49500000D01*
X2200000Y-79000000D02*
G75*
G02*
X-300000Y-76500000I0J2500000D01*
G01*
X97500000Y-87000000D02*
X97500000Y14000000D01*
X55000000Y-74000000D02*
X55000000Y-59000000D01*
X90500000Y-20000000D02*
X89500000Y-20000000D01*
X0Y-29500000D02*
X0Y-32000000D01*
X51500000Y0D02*
G75*
G02*
X54000000Y-2500000I0J-2500000D01*
G01*
X0Y-5000000D02*
X-1000000Y-5000000D01*
X55000000Y-47000000D02*
X56000000Y-47000000D01*
X-2000000Y-20000000D02*
X-1000000Y-20000000D01*
X88500000Y-22500000D02*
G75*
G02*
X86000000Y-25000000I-2500000J0D01*
G01*
X54000000Y-22500000D02*
G75*
G02*
X51500000Y-25000000I-2500000J0D01*
G01*
X56000000Y-74000000D02*
X56000000Y-82000000D01*
X51500000Y-25000000D02*
X2500000Y-25000000D01*
X-1000000Y-59000000D02*
X-2000000Y-59000000D01*
X89500000Y-20000000D02*
X89500000Y-5000000D01*
X51200000Y-54000000D02*
G75*
G02*
X53700000Y-56500000I0J-2500000D01*
G01*
X30000000Y-2400000D02*
X30000000Y0D01*
X61500000Y-20000000D02*
X62500000Y-20000000D01*
X54000000Y-47000000D02*
X54000000Y-49500000D01*
X61500000Y-5000000D02*
X61500000Y7000000D01*
X88500000Y-22500000D02*
X88500000Y-20000000D01*
X-2000000Y-82000000D02*
X-2000000Y-74000000D01*
X55000000Y-20000000D02*
X54000000Y-20000000D01*
X53700000Y-74000000D02*
X55000000Y-74000000D01*
X54000000Y-2500000D02*
X54000000Y-5000000D01*
X32492767Y-4900000D02*
G75*
G02*
X29992700Y-2400000I33J2500100D01*
G01*
X0Y-2500000D02*
X0Y-5000000D01*
X2500000Y-25000000D02*
G75*
G02*
X0Y-22500000I0J2500000D01*
G01*
X-2000000Y-32000000D02*
X-2000000Y-20000000D01*
X53700000Y-59000000D02*
X53700000Y-56500000D01*
X54000000Y-20000000D02*
X54000000Y-22500000D01*
X55000000Y-20000000D02*
X56000000Y-20000000D01*
X-2000000Y7000000D02*
X90500000Y7000000D01*
X0Y-29500000D02*
G75*
G02*
X2500000Y-27000000I2500000J0D01*
G01*
X-2000000Y-82000000D02*
X56000000Y-82000000D01*
X55000000Y-47000000D02*
X54000000Y-47000000D01*
X89500000Y-5000000D02*
X88500000Y-5000000D01*
X-2000000Y-59000000D02*
X-2000000Y-47000000D01*
X2500000Y-52000000D02*
G75*
G02*
X0Y-49500000I0J2500000D01*
G01*
X66000000Y-25000000D02*
G75*
G02*
X63500000Y-22500000I0J2500000D01*
G01*
X66000000Y0D02*
X86000000Y0D01*
X89500000Y-5000000D02*
X90500000Y-5000000D01*
X56000000Y7000000D02*
X56000000Y-5000000D01*
X-2000000Y-5000000D02*
X-2000000Y7000000D01*
X55000000Y-59000000D02*
X53700000Y-59000000D01*
X56000000Y-5000000D02*
X55000000Y-5000000D01*
X-2000000Y-47000000D02*
X-1000000Y-47000000D01*
X-1000000Y-5000000D02*
X-2000000Y-5000000D01*
X37500000Y-2400000D02*
X37500000Y0D01*
X90500000Y-27000000D02*
X90500000Y-20000000D01*
X55000000Y-32000000D02*
X55000000Y-47000000D01*
X55000000Y-160540000D02*
X55000000Y23460000D01*
X-1000000Y-20000000D02*
X0Y-20000000D01*
X62500000Y-5000000D02*
X61500000Y-5000000D01*
X61500000Y-27000000D02*
X61500000Y-20000000D01*
D11*
X59800828Y15140225D02*
X61300828Y15640225D01*
X61300828Y15640225D02*
X59800828Y16140225D01*
X60729400Y16640224D02*
X60729400Y17783082D01*
X61157971Y19354510D02*
X61229400Y19283082D01*
X61229400Y19283082D02*
X61300828Y19068796D01*
X61300828Y19068796D02*
X61300828Y18925939D01*
X61300828Y18925939D02*
X61229400Y18711653D01*
X61229400Y18711653D02*
X61086542Y18568796D01*
X61086542Y18568796D02*
X60943685Y18497367D01*
X60943685Y18497367D02*
X60657971Y18425939D01*
X60657971Y18425939D02*
X60443685Y18425939D01*
X60443685Y18425939D02*
X60157971Y18497367D01*
X60157971Y18497367D02*
X60015114Y18568796D01*
X60015114Y18568796D02*
X59872257Y18711653D01*
X59872257Y18711653D02*
X59800828Y18925939D01*
X59800828Y18925939D02*
X59800828Y19068796D01*
X59800828Y19068796D02*
X59872257Y19283082D01*
X59872257Y19283082D02*
X59943685Y19354510D01*
X59800828Y19997367D02*
X61015114Y19997367D01*
X61015114Y19997367D02*
X61157971Y20068796D01*
X61157971Y20068796D02*
X61229400Y20140225D01*
X61229400Y20140225D02*
X61300828Y20283082D01*
X61300828Y20283082D02*
X61300828Y20568796D01*
X61300828Y20568796D02*
X61229400Y20711653D01*
X61229400Y20711653D02*
X61157971Y20783082D01*
X61157971Y20783082D02*
X61015114Y20854510D01*
X61015114Y20854510D02*
X59800828Y20854510D01*
X59800828Y21354511D02*
X59800828Y22211654D01*
X61300828Y21783082D02*
X59800828Y21783082D01*
X52500828Y15390225D02*
X54000828Y15890225D01*
X54000828Y15890225D02*
X52500828Y16390225D01*
X53429400Y16890224D02*
X53429400Y18033082D01*
X53857971Y19604510D02*
X53929400Y19533082D01*
X53929400Y19533082D02*
X54000828Y19318796D01*
X54000828Y19318796D02*
X54000828Y19175939D01*
X54000828Y19175939D02*
X53929400Y18961653D01*
X53929400Y18961653D02*
X53786542Y18818796D01*
X53786542Y18818796D02*
X53643685Y18747367D01*
X53643685Y18747367D02*
X53357971Y18675939D01*
X53357971Y18675939D02*
X53143685Y18675939D01*
X53143685Y18675939D02*
X52857971Y18747367D01*
X52857971Y18747367D02*
X52715114Y18818796D01*
X52715114Y18818796D02*
X52572257Y18961653D01*
X52572257Y18961653D02*
X52500828Y19175939D01*
X52500828Y19175939D02*
X52500828Y19318796D01*
X52500828Y19318796D02*
X52572257Y19533082D01*
X52572257Y19533082D02*
X52643685Y19604510D01*
X52500828Y20247367D02*
X53715114Y20247367D01*
X53715114Y20247367D02*
X53857971Y20318796D01*
X53857971Y20318796D02*
X53929400Y20390225D01*
X53929400Y20390225D02*
X54000828Y20533082D01*
X54000828Y20533082D02*
X54000828Y20818796D01*
X54000828Y20818796D02*
X53929400Y20961653D01*
X53929400Y20961653D02*
X53857971Y21033082D01*
X53857971Y21033082D02*
X53715114Y21104510D01*
X53715114Y21104510D02*
X52500828Y21104510D01*
X52500828Y21604511D02*
X52500828Y22461654D01*
X54000828Y22033082D02*
X52500828Y22033082D01*
X86800828Y14980225D02*
X88300828Y15480225D01*
X88300828Y15480225D02*
X86800828Y15980225D01*
X87729400Y16480224D02*
X87729400Y17623082D01*
X88157971Y19194510D02*
X88229400Y19123082D01*
X88229400Y19123082D02*
X88300828Y18908796D01*
X88300828Y18908796D02*
X88300828Y18765939D01*
X88300828Y18765939D02*
X88229400Y18551653D01*
X88229400Y18551653D02*
X88086542Y18408796D01*
X88086542Y18408796D02*
X87943685Y18337367D01*
X87943685Y18337367D02*
X87657971Y18265939D01*
X87657971Y18265939D02*
X87443685Y18265939D01*
X87443685Y18265939D02*
X87157971Y18337367D01*
X87157971Y18337367D02*
X87015114Y18408796D01*
X87015114Y18408796D02*
X86872257Y18551653D01*
X86872257Y18551653D02*
X86800828Y18765939D01*
X86800828Y18765939D02*
X86800828Y18908796D01*
X86800828Y18908796D02*
X86872257Y19123082D01*
X86872257Y19123082D02*
X86943685Y19194510D01*
X86800828Y19837367D02*
X88015114Y19837367D01*
X88015114Y19837367D02*
X88157971Y19908796D01*
X88157971Y19908796D02*
X88229400Y19980225D01*
X88229400Y19980225D02*
X88300828Y20123082D01*
X88300828Y20123082D02*
X88300828Y20408796D01*
X88300828Y20408796D02*
X88229400Y20551653D01*
X88229400Y20551653D02*
X88157971Y20623082D01*
X88157971Y20623082D02*
X88015114Y20694510D01*
X88015114Y20694510D02*
X86800828Y20694510D01*
X86800828Y21194511D02*
X86800828Y22051654D01*
X88300828Y21623082D02*
X86800828Y21623082D01*
X-3509171Y14530225D02*
X-2009171Y15030225D01*
X-2009171Y15030225D02*
X-3509171Y15530225D01*
X-2580600Y16030224D02*
X-2580600Y17173082D01*
X-2152028Y18744510D02*
X-2080600Y18673082D01*
X-2080600Y18673082D02*
X-2009171Y18458796D01*
X-2009171Y18458796D02*
X-2009171Y18315939D01*
X-2009171Y18315939D02*
X-2080600Y18101653D01*
X-2080600Y18101653D02*
X-2223457Y17958796D01*
X-2223457Y17958796D02*
X-2366314Y17887367D01*
X-2366314Y17887367D02*
X-2652028Y17815939D01*
X-2652028Y17815939D02*
X-2866314Y17815939D01*
X-2866314Y17815939D02*
X-3152028Y17887367D01*
X-3152028Y17887367D02*
X-3294885Y17958796D01*
X-3294885Y17958796D02*
X-3437742Y18101653D01*
X-3437742Y18101653D02*
X-3509171Y18315939D01*
X-3509171Y18315939D02*
X-3509171Y18458796D01*
X-3509171Y18458796D02*
X-3437742Y18673082D01*
X-3437742Y18673082D02*
X-3366314Y18744510D01*
X-3509171Y19387367D02*
X-2294885Y19387367D01*
X-2294885Y19387367D02*
X-2152028Y19458796D01*
X-2152028Y19458796D02*
X-2080600Y19530225D01*
X-2080600Y19530225D02*
X-2009171Y19673082D01*
X-2009171Y19673082D02*
X-2009171Y19958796D01*
X-2009171Y19958796D02*
X-2080600Y20101653D01*
X-2080600Y20101653D02*
X-2152028Y20173082D01*
X-2152028Y20173082D02*
X-2294885Y20244510D01*
X-2294885Y20244510D02*
X-3509171Y20244510D01*
X-3509171Y20744511D02*
X-3509171Y21601654D01*
X-2009171Y21173082D02*
X-3509171Y21173082D01*
D12*
X51500000Y-29550000D03*
X5550000Y-77600000D03*
X7550000Y-77600000D03*
X9550000Y-77600000D03*
X11550000Y-77600000D03*
D13*
X27350000Y-28900000D03*
X27350000Y-30400000D03*
X27350000Y-31900000D03*
X28850000Y-28900000D03*
X28850000Y-30400000D03*
X28850000Y-31900000D03*
D12*
X51500000Y-49500000D03*
X2200000Y-56500000D03*
X51200000Y-76500000D03*
D14*
X47750000Y-2400000D03*
X39450000Y-2400000D03*
D15*
X45600000Y-2400000D03*
X43600000Y-2400000D03*
X41600000Y-2400000D03*
D12*
X2500000Y-49500000D03*
X21100000Y-30600000D03*
X17600000Y-30600000D03*
X2200000Y-76500000D03*
X30300000Y-14250000D03*
X28300000Y-14250000D03*
D16*
X10930000Y-1500000D03*
X10930000Y-5300000D03*
X19570000Y-1500000D03*
X19570000Y-5300000D03*
D12*
X5850000Y-23600000D03*
X7850000Y-23600000D03*
X9850000Y-23600000D03*
X11850000Y-23600000D03*
X51200000Y-56550000D03*
X2500000Y-29500000D03*
X5850000Y-50600000D03*
X7850000Y-50600000D03*
X9850000Y-50600000D03*
X11850000Y-50600000D03*
X51500000Y-2550000D03*
X37300000Y-14250000D03*
X35300000Y-14250000D03*
X66000000Y-22500000D03*
X69360000Y-23600000D03*
X71360000Y-23600000D03*
X73360000Y-23600000D03*
X75360000Y-23600000D03*
X19780000Y-56390000D03*
X22320000Y-56390000D03*
X86000000Y-2550000D03*
X2500000Y-22500000D03*
X12800000Y-30600000D03*
X9300000Y-30600000D03*
M02*
