M48
; DRILL file {KiCad 8.0.7} date 2025-01-15T18:16:12+0000
; FORMAT={-:-/ absolute / inch / decimal}
; #@! TF.CreationDate,2025-01-15T18:16:12+00:00
; #@! TF.GenerationSoftware,Kicad,Pcbnew,8.0.7
; #@! TF.FileFunction,Plated,1,2,PTH
FMAT,2
INCH
; #@! TA.AperFunction,Plated,PTH,ViaDrill
T1C0.0118
; #@! TA.AperFunction,Plated,PTH,ComponentDrill
T2C0.0118
; #@! TA.AperFunction,Plated,PTH,ComponentDrill
T3C0.0295
%
G90
G05
T1
X0.1152Y-0.3553
X0.1161Y-0.6427
X0.1545Y-0.5197
X0.1555Y-0.4478
X0.1841Y-0.1919
X0.186Y-0.7835
X0.247Y-0.2785
X0.3159Y-0.3878
X0.3159Y-0.4421
X0.3159Y-0.6421
X0.3159Y-0.7421
X0.3612Y-0.4961
X0.3689Y-0.2892
X0.3711Y-0.5906
X0.3789Y-0.6909
X0.3829Y-0.5421
X0.4291Y-0.2185
X0.4343Y-0.489
X0.4741Y-0.4954
X0.4892Y-0.438
X0.5236Y-0.1437
X0.5276Y-0.8435
X0.5591Y-0.2687
X0.562Y-0.5197
X0.5846Y-0.5758
X0.623Y-0.9606
X0.7136Y-0.1742
X0.8061Y-0.2648
X0.8671Y-0.3612
X0.8819Y-0.4272
X0.8848Y-0.0344
X0.9262Y-0.6506
X0.9449Y-0.6152
X0.9449Y-0.7313
X0.9488Y-0.2264
X0.971Y-0.6458
X0.998Y-0.7884
X1.0404Y-0.2707
X1.0561Y-0.7884
X1.061Y-0.2087
X1.0787Y-0.69
X1.1077Y-0.8628
X1.1348Y-0.9035
X1.1703Y-0.938
X1.185Y-0.7234
X1.189Y-0.3317
X1.1929Y-0.4774
X1.1929Y-0.5669
X1.2234Y-0.0344
X1.2323Y-0.1132
X1.2608Y-0.4065
X1.2766Y-0.6831
X1.2933Y-0.2963
X1.2933Y-0.5581
X1.3278Y-0.4705
X1.3839Y-0.2146
X1.4124Y-0.378
X1.435Y-0.7372
X1.4616Y-0.717
X1.497Y-0.7274
X1.5143Y-0.4356
X1.5236Y-0.6221
X1.5256Y-0.7421
X1.5276Y-0.3671
X1.563Y-0.626
X1.5709Y-0.4951
X1.5876Y-0.4331
X1.5886Y-0.686
X1.6033Y-0.7746
X1.624Y-0.5837
X1.6378Y-0.438
X1.6752Y-0.5856
X1.7037Y-0.5472
X1.7303Y-0.1407
X1.7362Y-0.4724
X1.7785Y-0.0354
X1.7943Y-0.6506
X1.8612Y-0.7018
X1.8839Y-0.8307
X1.9449Y-0.2677
X1.9744Y-0.3602
X1.9774Y-0.2116
T2
X0.9921Y-0.4163
X0.9921Y-0.4754
X1.0512Y-0.4163
X1.0512Y-0.4754
X1.1102Y-0.4163
X1.1102Y-0.4754
T3
X0.2303Y-0.9291
X0.3091Y-0.9291
X0.3878Y-0.9291
X0.4665Y-0.9291
M30
