M48
; DRILL file {KiCad 8.0.6-8.0.6-0~ubuntu24.04.1} date 2024-10-19T16:33:05+0100
; FORMAT={-:-/ absolute / inch / decimal}
; #@! TF.CreationDate,2024-10-19T16:33:05+01:00
; #@! TF.GenerationSoftware,Kicad,Pcbnew,8.0.6-8.0.6-0~ubuntu24.04.1
; #@! TF.FileFunction,Plated,1,2,PTH
FMAT,2
INCH
; #@! TA.AperFunction,Plated,PTH,ViaDrill
T1C0.0118
; #@! TA.AperFunction,Plated,PTH,ComponentDrill
T2C0.0118
; #@! TA.AperFunction,Plated,PTH,ComponentDrill
T3C0.0295
%
G90
G05
T1
X0.0433Y-0.3346
X0.0512Y-0.6417
X0.0606Y-0.1161
X0.0876Y-0.5709
X0.0955Y-0.4026
X0.1053Y-0.501
X0.1122Y-0.4577
X0.1152Y-0.5463
X0.1368Y-0.6014
X0.1467Y-0.4163
X0.1579Y-0.502
X0.2116Y-0.9577
X0.2283Y-0.8337
X0.2902Y-0.0433
X0.3425Y-0.4563
X0.3709Y-0.3315
X0.3929Y-0.5933
X0.4303Y-0.4563
X0.4358Y-0.572
X0.4512Y-0.3236
X0.4693Y-0.0807
X0.4953Y-0.4276
X0.5063Y-0.3795
X0.5461Y-0.6213
X0.565Y-0.6701
X0.5827Y-0.8878
X0.5906Y-0.5327
X0.5972Y-0.615
X0.5976Y-0.3429
X0.5988Y-0.4118
X0.6362Y-0.5988
X0.6677Y-0.5634
X0.6846Y-0.3449
X0.6878Y-0.4165
X0.7429Y-0.8783
X0.7701Y-0.1705
X0.7831Y-0.478
X0.7976Y-0.3917
X0.8059Y-0.1154
X0.8181Y-0.5031
X0.8327Y-0.5795
X0.8449Y-0.1705
X0.8744Y-0.1157
X0.8957Y-0.1571
X0.9031Y-0.6169
X0.9205Y-0.8827
X0.9555Y-0.2366
X0.9795Y-0.5681
X0.9909Y-0.1469
X1.0241Y-0.5943
X1.0812Y-0.6049
X1.1173Y-0.0744
X1.1634Y-0.1512
X1.1689Y-0.9445
X1.1992Y-0.1681
X1.2059Y-0.6551
X1.2374Y-0.1555
X1.2484Y-0.0756
X1.2709Y-0.1685
X1.3114Y-0.587
X1.3492Y-0.172
X1.3854Y-0.2299
X1.4004Y-0.6583
X1.4177Y-0.3185
X1.4957Y-0.0917
X1.5445Y-0.9386
X1.5807Y-0.3319
X1.7116Y-0.3061
X1.7185Y-0.1579
X1.7461Y-0.6673
X1.7594Y-0.8122
X1.8146Y-0.4114
X1.8161Y-0.3484
X1.8179Y-0.5945
X1.8191Y-0.5453
X1.8268Y-0.4587
X1.8504Y-0.5679
X1.8543Y-0.5049
X1.8612Y-0.4577
X1.9281Y-0.6575
X1.9321Y-0.2874
T2
X1.1571Y-0.4091
X1.1571Y-0.4681
X1.1571Y-0.5272
X1.2161Y-0.4091
X1.2161Y-0.4681
X1.2161Y-0.5272
T3
X0.2736Y-0.9154
X0.3524Y-0.9154
X0.4311Y-0.9154
X0.5098Y-0.9154
M30
