%TF.GenerationSoftware,KiCad,Pcbnew,8.0.6-8.0.6-0~ubuntu24.04.1*%
%TF.CreationDate,2024-10-19T16:33:05+01:00*%
%TF.ProjectId,Motor,4d6f746f-722e-46b6-9963-61645f706362,rev?*%
%TF.SameCoordinates,Original*%
%TF.FileFunction,Copper,L2,Bot*%
%TF.FilePolarity,Positive*%
%FSLAX46Y46*%
G04 Gerber Fmt 4.6, Leading zero omitted, Abs format (unit mm)*
G04 Created by KiCad (PCBNEW 8.0.6-8.0.6-0~ubuntu24.04.1) date 2024-10-19 16:33:05*
%MOMM*%
%LPD*%
G01*
G04 APERTURE LIST*
%TA.AperFunction,HeatsinkPad*%
%ADD10C,0.500000*%
%TD*%
%TA.AperFunction,HeatsinkPad*%
%ADD11R,2.000000X3.500000*%
%TD*%
%TA.AperFunction,ComponentPad*%
%ADD12R,1.350000X1.350000*%
%TD*%
%TA.AperFunction,ComponentPad*%
%ADD13O,1.350000X1.350000*%
%TD*%
%TA.AperFunction,ViaPad*%
%ADD14C,0.600000*%
%TD*%
%TA.AperFunction,Conductor*%
%ADD15C,0.200000*%
%TD*%
%ADD16C,0.300000*%
%ADD17C,0.350000*%
G04 APERTURE END LIST*
D10*
%TO.P,U1,17,GND*%
%TO.N,GND*%
X30890000Y-13390000D03*
X30890000Y-11890000D03*
X30890000Y-10390000D03*
D11*
X30140000Y-11890000D03*
D10*
X29390000Y-13390000D03*
X29390000Y-11890000D03*
X29390000Y-10390000D03*
%TD*%
D12*
%TO.P,J4,1,Pin_1*%
%TO.N,5V*%
X6950000Y-23250000D03*
D13*
%TO.P,J4,2,Pin_2*%
%TO.N,GND*%
X8950000Y-23250000D03*
%TO.P,J4,3,Pin_3*%
%TO.N,SWDIO*%
X10950000Y-23250000D03*
%TO.P,J4,4,Pin_4*%
%TO.N,SWDCLK*%
X12950000Y-23250000D03*
%TD*%
D14*
%TO.N,VDD*%
X19560000Y-4330000D03*
X33310000Y-14910000D03*
X29550000Y-3840000D03*
X16160000Y-15210000D03*
%TO.N,GND*%
X31710000Y-1920000D03*
X15180000Y-8710000D03*
X36010000Y-8090000D03*
X16960000Y-14310000D03*
X10930000Y-11590000D03*
X43475000Y-7775000D03*
X35570000Y-16720000D03*
X15000000Y-13530000D03*
X44690000Y-20630000D03*
X2225000Y-14500000D03*
X39230000Y-23840000D03*
X11920000Y-2050000D03*
X23380000Y-22420000D03*
X25170000Y-3730000D03*
X5800000Y-21175000D03*
X32280000Y-4280000D03*
X17470000Y-10580000D03*
X20260000Y-9950000D03*
X7370000Y-1100000D03*
X2675000Y-12725000D03*
X34270000Y-4370000D03*
X47000000Y-14425000D03*
X5375000Y-24325000D03*
X43650000Y-4010000D03*
X29690000Y-23990000D03*
X49075000Y-7300000D03*
X22210000Y-2940000D03*
X1100000Y-8500000D03*
X22940000Y-15670000D03*
X9420000Y-8420000D03*
X37990000Y-2330000D03*
X35190000Y-5840000D03*
X47275000Y-11625000D03*
X15170000Y-15620000D03*
X30630000Y-16640000D03*
X22750000Y-3990000D03*
X8700000Y-11590000D03*
X46130000Y-8850000D03*
X2425000Y-10225000D03*
X24880000Y-14430000D03*
X11460000Y-8220000D03*
X28380000Y-1890000D03*
X18870000Y-22310000D03*
X15210000Y-10460000D03*
X21150000Y-14720000D03*
X40150000Y-8430000D03*
X17390000Y-8760000D03*
X24270000Y-6010000D03*
X44350000Y-16950000D03*
X48975000Y-16700000D03*
X1300000Y-16300000D03*
X14800000Y-22550000D03*
X1540000Y-2950000D03*
%TO.N,Interrupt{slash}CAN*%
X3475000Y-15275000D03*
X46175000Y-15100000D03*
%TO.N,MOSI*%
X46203925Y-13850000D03*
X2925000Y-13875000D03*
%TO.N,MISO*%
X4011311Y-12750000D03*
X47100000Y-12825000D03*
%TO.N,SCLK*%
X46400000Y-11650000D03*
X2850000Y-11625000D03*
%TO.N,PS*%
X46090000Y-10450000D03*
X3725000Y-10575000D03*
%TO.N,IN2_A*%
X11070000Y-14530000D03*
X26012500Y-15095000D03*
%TO.N,IN1_A*%
X14350000Y-17020000D03*
X27462500Y-15365000D03*
%TO.N,ENC1_B*%
X20470000Y-2930000D03*
X9980000Y-15070000D03*
%TO.N,ENC2_B*%
X13870000Y-15780000D03*
X21460000Y-4330000D03*
%TO.N,ENC1_A*%
X19890000Y-12140000D03*
X30460000Y-4270000D03*
%TO.N,ENC2_A*%
X20780000Y-12780000D03*
X31430000Y-3950000D03*
%TO.N,NFAULT*%
X12580000Y-10860000D03*
X12860000Y-9640000D03*
%TD*%
D15*
%TO.N,VDD*%
X16160000Y-7730000D02*
X16160000Y-15210000D01*
X33590000Y-14630000D02*
X33590000Y-4660000D01*
X33590000Y-4660000D02*
X32280000Y-3350000D01*
X28460000Y-4930000D02*
X29550000Y-3840000D01*
X32280000Y-3350000D02*
X30040000Y-3350000D01*
X19560000Y-4330000D02*
X16160000Y-7730000D01*
X30040000Y-3350000D02*
X29550000Y-3840000D01*
X20160000Y-4930000D02*
X28460000Y-4930000D01*
X19560000Y-4330000D02*
X20160000Y-4930000D01*
X33310000Y-14910000D02*
X33590000Y-14630000D01*
%TO.N,GND*%
X47800000Y-13050000D02*
X47425000Y-13425000D01*
X44350000Y-16950000D02*
X44350000Y-15959314D01*
X5875686Y-14494314D02*
X5875686Y-13765846D01*
X35420000Y-18840000D02*
X10221372Y-18840000D01*
X4075000Y-15026471D02*
X4075000Y-15309314D01*
X4416211Y-11175000D02*
X11261211Y-18020000D01*
X47800000Y-12875000D02*
X47800000Y-13050000D01*
X47700000Y-12575000D02*
X47700000Y-12775000D01*
X46050000Y-12325000D02*
X45721572Y-12325000D01*
X45721572Y-12325000D02*
X44933286Y-13113286D01*
X2225000Y-14500000D02*
X3548529Y-14500000D01*
X47000000Y-15123529D02*
X47000000Y-14425000D01*
X39206571Y-18840000D02*
X35420000Y-18840000D01*
X3725000Y-13475000D02*
X3380000Y-13475000D01*
X39537943Y-19640000D02*
X9890000Y-19640000D01*
X44925000Y-11175000D02*
X45050000Y-11050000D01*
X11261211Y-18020000D02*
X38823628Y-18020000D01*
X3380000Y-13430000D02*
X2675000Y-12725000D01*
X46050000Y-12325000D02*
X46575000Y-12325000D01*
X46975000Y-14450000D02*
X47000000Y-14425000D01*
X2425000Y-10225000D02*
X3375000Y-11175000D01*
X3380000Y-13475000D02*
X3380000Y-13430000D01*
X46851471Y-13425000D02*
X46676471Y-13250000D01*
X44350000Y-16950000D02*
X44350000Y-17232843D01*
X45955396Y-13250000D02*
X45880396Y-13325000D01*
X47700000Y-12775000D02*
X47800000Y-12875000D01*
X41142843Y-20440000D02*
X9205686Y-20440000D01*
X3375000Y-11175000D02*
X4416211Y-11175000D01*
X3275000Y-12125000D02*
X3155000Y-12245000D01*
X45050000Y-11050000D02*
X46700000Y-11050000D01*
X46875000Y-14425000D02*
X46850000Y-14450000D01*
X46423529Y-15700000D02*
X47000000Y-15123529D01*
X2675000Y-12725000D02*
X3275000Y-12125000D01*
X44350000Y-17232843D02*
X41142843Y-20440000D01*
X47425000Y-13425000D02*
X46851471Y-13425000D01*
X45852943Y-13325000D02*
X39537943Y-19640000D01*
X44350000Y-15959314D02*
X45859314Y-14450000D01*
X46676471Y-13250000D02*
X45955396Y-13250000D01*
X10221372Y-18840000D02*
X5875686Y-14494314D01*
X4234840Y-12125000D02*
X3275000Y-12125000D01*
X9890000Y-19640000D02*
X3725000Y-13475000D01*
X45880396Y-13325000D02*
X45852943Y-13325000D01*
X46575000Y-12325000D02*
X47275000Y-11625000D01*
X47000000Y-14425000D02*
X46875000Y-14425000D01*
X46700000Y-11050000D02*
X47275000Y-11625000D01*
X4075000Y-15309314D02*
X5247843Y-16482157D01*
X9205686Y-20440000D02*
X5247843Y-16482157D01*
X44925000Y-11918628D02*
X44925000Y-11175000D01*
X38823628Y-18020000D02*
X44925000Y-11918628D01*
X3548529Y-14500000D02*
X4075000Y-15026471D01*
X44933286Y-13113286D02*
X39206571Y-18840000D01*
X45859314Y-14450000D02*
X46975000Y-14450000D01*
X5875686Y-13765846D02*
X4234840Y-12125000D01*
%TO.N,Interrupt{slash}CAN*%
X41308529Y-20840000D02*
X46023529Y-16125000D01*
X46023529Y-16125000D02*
X46023529Y-15251471D01*
X46023529Y-15251471D02*
X46175000Y-15100000D01*
X45975000Y-14900000D02*
X46175000Y-15100000D01*
X3475000Y-15275000D02*
X9040000Y-20840000D01*
X9040000Y-20840000D02*
X41308529Y-20840000D01*
%TO.N,MOSI*%
X39703629Y-20040000D02*
X45893629Y-13850000D01*
X3489215Y-13875000D02*
X9654215Y-20040000D01*
X9654215Y-20040000D02*
X39703629Y-20040000D01*
X2950000Y-13850000D02*
X2925000Y-13875000D01*
X2925000Y-13875000D02*
X3489215Y-13875000D01*
X45893629Y-13850000D02*
X46203925Y-13850000D01*
%TO.N,MISO*%
X4011311Y-13195625D02*
X10055686Y-19240000D01*
X4011311Y-12750000D02*
X4011311Y-13195625D01*
X45787257Y-12825000D02*
X47100000Y-12825000D01*
X39372257Y-19240000D02*
X45787257Y-12825000D01*
X47000000Y-12725000D02*
X47100000Y-12825000D01*
X10055686Y-19240000D02*
X39372257Y-19240000D01*
%TO.N,SCLK*%
X45759314Y-11650000D02*
X46400000Y-11650000D01*
X6275686Y-14328628D02*
X10367058Y-18420000D01*
X2850000Y-11625000D02*
X2900000Y-11675000D01*
X2850000Y-11625000D02*
X4300526Y-11625000D01*
X38989314Y-18420000D02*
X45759314Y-11650000D01*
X6275686Y-13600160D02*
X6275686Y-14328628D01*
X46375000Y-11675000D02*
X46400000Y-11650000D01*
X4300526Y-11625000D02*
X6275686Y-13600160D01*
X10367058Y-18420000D02*
X38989314Y-18420000D01*
%TO.N,PS*%
X11426897Y-17620000D02*
X4381897Y-10575000D01*
X45084314Y-10450000D02*
X44123971Y-11410343D01*
X46090000Y-10450000D02*
X45084314Y-10450000D01*
X44123971Y-12153971D02*
X38657942Y-17620000D01*
X44123971Y-11410343D02*
X44123971Y-12153971D01*
X38657942Y-17620000D02*
X11426897Y-17620000D01*
X4381897Y-10575000D02*
X3725000Y-10575000D01*
%TO.N,IN2_A*%
X24687500Y-16420000D02*
X26012500Y-15095000D01*
X12960000Y-16420000D02*
X24687500Y-16420000D01*
X11070000Y-14530000D02*
X12960000Y-16420000D01*
%TO.N,IN1_A*%
X27462500Y-15365000D02*
X25807500Y-17020000D01*
X25807500Y-17020000D02*
X14350000Y-17020000D01*
%TO.N,ENC1_B*%
X20470000Y-2930000D02*
X18240000Y-2930000D01*
X18240000Y-2930000D02*
X9980000Y-11190000D01*
X9980000Y-11190000D02*
X9980000Y-15070000D01*
%TO.N,ENC2_B*%
X18930000Y-3710000D02*
X20840000Y-3710000D01*
X20840000Y-3710000D02*
X21460000Y-4330000D01*
X13870000Y-15780000D02*
X13870000Y-8770000D01*
X13870000Y-8770000D02*
X18930000Y-3710000D01*
%TO.N,ENC1_A*%
X28790000Y-5940000D02*
X30460000Y-4270000D01*
X19890000Y-12140000D02*
X26090000Y-5940000D01*
X26090000Y-5940000D02*
X28790000Y-5940000D01*
%TO.N,ENC2_A*%
X26690000Y-6870000D02*
X28708530Y-6870000D01*
X28708530Y-6870000D02*
X29139265Y-6439265D01*
X29139265Y-6439265D02*
X31430000Y-4148529D01*
X20780000Y-12780000D02*
X26690000Y-6870000D01*
X31430000Y-4148529D02*
X31430000Y-3950000D01*
%TO.N,NFAULT*%
X12580000Y-10860000D02*
X12580000Y-9920000D01*
X12580000Y-9920000D02*
X12860000Y-9640000D01*
%TD*%
%TA.AperFunction,Conductor*%
%TO.N,GND*%
G36*
X18864686Y-3249407D02*
G01*
X18900650Y-3298907D01*
X18900650Y-3360093D01*
X18864686Y-3409593D01*
X18832120Y-3425126D01*
X18822099Y-3427810D01*
X18814007Y-3429979D01*
X18745493Y-3469536D01*
X13685489Y-8529540D01*
X13685488Y-8529539D01*
X13629539Y-8585489D01*
X13589980Y-8654007D01*
X13589978Y-8654011D01*
X13569500Y-8730435D01*
X13569500Y-15326105D01*
X13550593Y-15384296D01*
X13543258Y-15392289D01*
X13543509Y-15392506D01*
X13444622Y-15506628D01*
X13384834Y-15637543D01*
X13364353Y-15779997D01*
X13364353Y-15780002D01*
X13384834Y-15922456D01*
X13410828Y-15979373D01*
X13417803Y-16040159D01*
X13387717Y-16093437D01*
X13332061Y-16118855D01*
X13320775Y-16119500D01*
X13125479Y-16119500D01*
X13067288Y-16100593D01*
X13055475Y-16090504D01*
X11600546Y-14635575D01*
X11572769Y-14581058D01*
X11572558Y-14551482D01*
X11575647Y-14530000D01*
X11573222Y-14513135D01*
X11555165Y-14387543D01*
X11519729Y-14309950D01*
X11495377Y-14256627D01*
X11401128Y-14147857D01*
X11401127Y-14147856D01*
X11401126Y-14147855D01*
X11280057Y-14070049D01*
X11280054Y-14070047D01*
X11280053Y-14070047D01*
X11280050Y-14070046D01*
X11141964Y-14029500D01*
X11141961Y-14029500D01*
X10998039Y-14029500D01*
X10998035Y-14029500D01*
X10859949Y-14070046D01*
X10859942Y-14070049D01*
X10738873Y-14147855D01*
X10644622Y-14256628D01*
X10584834Y-14387543D01*
X10564353Y-14529997D01*
X10564353Y-14530002D01*
X10584834Y-14672456D01*
X10614792Y-14738053D01*
X10644623Y-14803373D01*
X10737015Y-14910000D01*
X10738873Y-14912144D01*
X10848902Y-14982855D01*
X10859947Y-14989953D01*
X10966403Y-15021211D01*
X10998035Y-15030499D01*
X10998036Y-15030499D01*
X10998039Y-15030500D01*
X10998041Y-15030500D01*
X11104521Y-15030500D01*
X11162712Y-15049407D01*
X11174525Y-15059496D01*
X12775489Y-16660460D01*
X12775491Y-16660461D01*
X12775492Y-16660462D01*
X12775493Y-16660463D01*
X12844008Y-16700020D01*
X12844006Y-16700020D01*
X12844010Y-16700021D01*
X12844012Y-16700022D01*
X12920438Y-16720500D01*
X12999562Y-16720500D01*
X13782507Y-16720500D01*
X13840698Y-16739407D01*
X13876662Y-16788907D01*
X13876662Y-16850093D01*
X13872560Y-16860627D01*
X13864834Y-16877543D01*
X13844353Y-17019997D01*
X13844353Y-17020002D01*
X13864834Y-17162456D01*
X13872560Y-17179373D01*
X13879535Y-17240160D01*
X13849449Y-17293437D01*
X13793793Y-17318855D01*
X13782507Y-17319500D01*
X11592376Y-17319500D01*
X11534185Y-17300593D01*
X11522372Y-17290504D01*
X9971372Y-15739504D01*
X9943595Y-15684987D01*
X9953166Y-15624555D01*
X9996431Y-15581290D01*
X10041376Y-15570500D01*
X10051959Y-15570500D01*
X10051961Y-15570500D01*
X10190053Y-15529953D01*
X10311128Y-15452143D01*
X10405377Y-15343373D01*
X10465165Y-15212457D01*
X10480112Y-15108499D01*
X10485647Y-15070002D01*
X10485647Y-15069997D01*
X10465165Y-14927543D01*
X10454891Y-14905046D01*
X10405377Y-14796627D01*
X10311128Y-14687857D01*
X10311127Y-14687856D01*
X10306491Y-14682506D01*
X10308524Y-14680743D01*
X10283067Y-14638505D01*
X10280500Y-14616105D01*
X10280500Y-11355479D01*
X10299407Y-11297288D01*
X10309496Y-11285475D01*
X11260966Y-10334005D01*
X12220006Y-9374964D01*
X12274521Y-9347189D01*
X12334953Y-9356760D01*
X12378218Y-9400025D01*
X12387789Y-9460457D01*
X12380063Y-9486093D01*
X12374834Y-9497543D01*
X12354353Y-9639996D01*
X12354353Y-9639997D01*
X12354353Y-9640000D01*
X12357644Y-9662888D01*
X12347209Y-9723177D01*
X12341543Y-9732018D01*
X12299980Y-9804007D01*
X12299978Y-9804011D01*
X12279500Y-9880435D01*
X12279500Y-10406105D01*
X12260593Y-10464296D01*
X12253258Y-10472289D01*
X12253509Y-10472506D01*
X12154622Y-10586628D01*
X12094834Y-10717543D01*
X12074353Y-10859997D01*
X12074353Y-10860002D01*
X12094834Y-11002456D01*
X12147589Y-11117971D01*
X12154623Y-11133373D01*
X12186259Y-11169883D01*
X12248873Y-11242144D01*
X12362755Y-11315331D01*
X12369947Y-11319953D01*
X12455179Y-11344979D01*
X12508035Y-11360499D01*
X12508036Y-11360499D01*
X12508039Y-11360500D01*
X12508041Y-11360500D01*
X12651959Y-11360500D01*
X12651961Y-11360500D01*
X12790053Y-11319953D01*
X12911128Y-11242143D01*
X13005377Y-11133373D01*
X13065165Y-11002457D01*
X13083049Y-10878073D01*
X13085647Y-10860002D01*
X13085647Y-10859997D01*
X13065165Y-10717543D01*
X13059814Y-10705826D01*
X13005377Y-10586627D01*
X12911128Y-10477857D01*
X12911127Y-10477856D01*
X12906491Y-10472506D01*
X12908524Y-10470743D01*
X12883067Y-10428505D01*
X12880500Y-10406105D01*
X12880500Y-10229720D01*
X12899407Y-10171529D01*
X12948907Y-10135565D01*
X12951551Y-10134747D01*
X13070053Y-10099953D01*
X13191128Y-10022143D01*
X13285377Y-9913373D01*
X13345165Y-9782457D01*
X13365647Y-9640000D01*
X13365646Y-9639996D01*
X13345165Y-9497543D01*
X13328228Y-9460457D01*
X13285377Y-9366627D01*
X13191128Y-9257857D01*
X13191127Y-9257856D01*
X13191126Y-9257855D01*
X13070057Y-9180049D01*
X13070054Y-9180047D01*
X13070053Y-9180047D01*
X13070050Y-9180046D01*
X12931964Y-9139500D01*
X12931961Y-9139500D01*
X12788039Y-9139500D01*
X12788035Y-9139500D01*
X12689396Y-9168463D01*
X12628235Y-9166715D01*
X12579783Y-9129352D01*
X12562545Y-9070645D01*
X12583107Y-9013018D01*
X12591493Y-9003477D01*
X18335475Y-3259496D01*
X18389992Y-3231719D01*
X18405479Y-3230500D01*
X18806495Y-3230500D01*
X18864686Y-3249407D01*
G37*
%TD.AperFunction*%
%TA.AperFunction,Conductor*%
G36*
X47502992Y-100681D02*
G01*
X47783256Y-117633D01*
X47795111Y-119073D01*
X47958223Y-148964D01*
X47983638Y-153622D01*
X48037468Y-182709D01*
X48063920Y-237880D01*
X48052891Y-298064D01*
X48008593Y-340270D01*
X47965793Y-350000D01*
X46999997Y-350000D01*
X46299998Y-650000D01*
X45799999Y-1050000D01*
X45600005Y-1349990D01*
X45599998Y-1350002D01*
X45400001Y-1749996D01*
X45300000Y-2050000D01*
X45300000Y-3050002D01*
X45599997Y-3749995D01*
X45600000Y-3750000D01*
X45994477Y-4223373D01*
X46100000Y-4350000D01*
X46900000Y-4750000D01*
X47899998Y-4750000D01*
X47900000Y-4750000D01*
X48500000Y-4650000D01*
X49100000Y-4150000D01*
X49500000Y-3650000D01*
X49700000Y-2950000D01*
X49700000Y-2478186D01*
X49718907Y-2419995D01*
X49768407Y-2384031D01*
X49829593Y-2384031D01*
X49879093Y-2419995D01*
X49897819Y-2472209D01*
X49899319Y-2497007D01*
X49899500Y-2502984D01*
X49899500Y-22497015D01*
X49899319Y-22502993D01*
X49882366Y-22783251D01*
X49880925Y-22795118D01*
X49830854Y-23068346D01*
X49827993Y-23079954D01*
X49745353Y-23345154D01*
X49741114Y-23356332D01*
X49627107Y-23609646D01*
X49621551Y-23620231D01*
X49477849Y-23857944D01*
X49471058Y-23867783D01*
X49299749Y-24086443D01*
X49291822Y-24095392D01*
X49095392Y-24291822D01*
X49086443Y-24299749D01*
X48867783Y-24471058D01*
X48857944Y-24477849D01*
X48620231Y-24621551D01*
X48609646Y-24627107D01*
X48356332Y-24741114D01*
X48345154Y-24745353D01*
X48079954Y-24827993D01*
X48068346Y-24830854D01*
X47795118Y-24880925D01*
X47783251Y-24882366D01*
X47527790Y-24897819D01*
X47502991Y-24899319D01*
X47497015Y-24899500D01*
X2502985Y-24899500D01*
X2497008Y-24899319D01*
X2472210Y-24897819D01*
X2415267Y-24875433D01*
X2382357Y-24823852D01*
X2386051Y-24762778D01*
X2424938Y-24715540D01*
X2478187Y-24700000D01*
X2899998Y-24700000D01*
X2900000Y-24700000D01*
X3500000Y-24600000D01*
X4100000Y-24100000D01*
X4500000Y-23600000D01*
X4700000Y-22900000D01*
X4700000Y-22555253D01*
X6074500Y-22555253D01*
X6074500Y-23944746D01*
X6074501Y-23944758D01*
X6086132Y-24003227D01*
X6086134Y-24003233D01*
X6092249Y-24012384D01*
X6130448Y-24069552D01*
X6196769Y-24113867D01*
X6241231Y-24122711D01*
X6255241Y-24125498D01*
X6255246Y-24125498D01*
X6255252Y-24125500D01*
X6255253Y-24125500D01*
X7644747Y-24125500D01*
X7644748Y-24125500D01*
X7703231Y-24113867D01*
X7769552Y-24069552D01*
X7813867Y-24003231D01*
X7819283Y-23976001D01*
X7849178Y-23922619D01*
X7904743Y-23897003D01*
X7964753Y-23908940D01*
X7995384Y-23935656D01*
X8077947Y-24044987D01*
X8238870Y-24191686D01*
X8238873Y-24191688D01*
X8424008Y-24306319D01*
X8424013Y-24306322D01*
X8627070Y-24384987D01*
X8699999Y-24398620D01*
X8700000Y-24398620D01*
X8700000Y-23530330D01*
X8719745Y-23550075D01*
X8805255Y-23599444D01*
X8900630Y-23625000D01*
X8999370Y-23625000D01*
X9094745Y-23599444D01*
X9180255Y-23550075D01*
X9200000Y-23530330D01*
X9200000Y-24398620D01*
X9272929Y-24384987D01*
X9475986Y-24306322D01*
X9475991Y-24306319D01*
X9661126Y-24191688D01*
X9661129Y-24191686D01*
X9822052Y-24044987D01*
X9953283Y-23871209D01*
X9953288Y-23871200D01*
X10030605Y-23715927D01*
X10073467Y-23672265D01*
X10133808Y-23662135D01*
X10188579Y-23689407D01*
X10204962Y-23710555D01*
X10237805Y-23767440D01*
X10331239Y-23871209D01*
X10354463Y-23897003D01*
X10360950Y-23904207D01*
X10509839Y-24012381D01*
X10509843Y-24012383D01*
X10509845Y-24012384D01*
X10565485Y-24037156D01*
X10677966Y-24087236D01*
X10857981Y-24125500D01*
X10857983Y-24125500D01*
X11042017Y-24125500D01*
X11042019Y-24125500D01*
X11222034Y-24087236D01*
X11390161Y-24012381D01*
X11539050Y-23904207D01*
X11662195Y-23767440D01*
X11744433Y-23625000D01*
X11754209Y-23608068D01*
X11754209Y-23608066D01*
X11754214Y-23608059D01*
X11811085Y-23433029D01*
X11830322Y-23250000D01*
X12069678Y-23250000D01*
X12084891Y-23394745D01*
X12088916Y-23433034D01*
X12145784Y-23608054D01*
X12145790Y-23608068D01*
X12182855Y-23672265D01*
X12237805Y-23767440D01*
X12331239Y-23871209D01*
X12354463Y-23897003D01*
X12360950Y-23904207D01*
X12509839Y-24012381D01*
X12509843Y-24012383D01*
X12509845Y-24012384D01*
X12565485Y-24037156D01*
X12677966Y-24087236D01*
X12857981Y-24125500D01*
X12857983Y-24125500D01*
X13042017Y-24125500D01*
X13042019Y-24125500D01*
X13222034Y-24087236D01*
X13390161Y-24012381D01*
X13539050Y-23904207D01*
X13662195Y-23767440D01*
X13744433Y-23625000D01*
X13754209Y-23608068D01*
X13754209Y-23608066D01*
X13754214Y-23608059D01*
X13811085Y-23433029D01*
X13830322Y-23250000D01*
X13811085Y-23066971D01*
X13754214Y-22891941D01*
X13754211Y-22891936D01*
X13754209Y-22891931D01*
X13698313Y-22795118D01*
X13662195Y-22732560D01*
X13539050Y-22595793D01*
X13390161Y-22487619D01*
X13390157Y-22487617D01*
X13390154Y-22487615D01*
X13222036Y-22412765D01*
X13222034Y-22412764D01*
X13222031Y-22412763D01*
X13222030Y-22412763D01*
X13175135Y-22402795D01*
X13042019Y-22374500D01*
X12857981Y-22374500D01*
X12760797Y-22395157D01*
X12677969Y-22412763D01*
X12677963Y-22412765D01*
X12509845Y-22487615D01*
X12509842Y-22487617D01*
X12509839Y-22487618D01*
X12509839Y-22487619D01*
X12467571Y-22518328D01*
X12360948Y-22595794D01*
X12237803Y-22732562D01*
X12237803Y-22732563D01*
X12145790Y-22891931D01*
X12145784Y-22891945D01*
X12088916Y-23066965D01*
X12088915Y-23066969D01*
X12088915Y-23066971D01*
X12069678Y-23250000D01*
X11830322Y-23250000D01*
X11811085Y-23066971D01*
X11754214Y-22891941D01*
X11754211Y-22891936D01*
X11754209Y-22891931D01*
X11698313Y-22795118D01*
X11662195Y-22732560D01*
X11539050Y-22595793D01*
X11390161Y-22487619D01*
X11390157Y-22487617D01*
X11390154Y-22487615D01*
X11222036Y-22412765D01*
X11222034Y-22412764D01*
X11222031Y-22412763D01*
X11222030Y-22412763D01*
X11175135Y-22402795D01*
X11042019Y-22374500D01*
X10857981Y-22374500D01*
X10760797Y-22395157D01*
X10677969Y-22412763D01*
X10677963Y-22412765D01*
X10509845Y-22487615D01*
X10509842Y-22487617D01*
X10509839Y-22487618D01*
X10509839Y-22487619D01*
X10467571Y-22518328D01*
X10360948Y-22595794D01*
X10237804Y-22732561D01*
X10204962Y-22789445D01*
X10159492Y-22830385D01*
X10098642Y-22836780D01*
X10045654Y-22806187D01*
X10030605Y-22784072D01*
X9953288Y-22628799D01*
X9953283Y-22628790D01*
X9822052Y-22455012D01*
X9661129Y-22308313D01*
X9661126Y-22308311D01*
X9475991Y-22193680D01*
X9475986Y-22193677D01*
X9272932Y-22115013D01*
X9272926Y-22115011D01*
X9200000Y-22101379D01*
X9200000Y-22969670D01*
X9180255Y-22949925D01*
X9094745Y-22900556D01*
X8999370Y-22875000D01*
X8900630Y-22875000D01*
X8805255Y-22900556D01*
X8719745Y-22949925D01*
X8700000Y-22969670D01*
X8700000Y-22101379D01*
X8699999Y-22101379D01*
X8627073Y-22115011D01*
X8627067Y-22115013D01*
X8424013Y-22193677D01*
X8424008Y-22193680D01*
X8238873Y-22308311D01*
X8238870Y-22308313D01*
X8077944Y-22455015D01*
X7995383Y-22564343D01*
X7945227Y-22599386D01*
X7884052Y-22598255D01*
X7835225Y-22561382D01*
X7819283Y-22523999D01*
X7813867Y-22496769D01*
X7769552Y-22430448D01*
X7743088Y-22412765D01*
X7703233Y-22386134D01*
X7703231Y-22386133D01*
X7703228Y-22386132D01*
X7703227Y-22386132D01*
X7644758Y-22374501D01*
X7644748Y-22374500D01*
X6255252Y-22374500D01*
X6255251Y-22374500D01*
X6255241Y-22374501D01*
X6196772Y-22386132D01*
X6196766Y-22386134D01*
X6130451Y-22430445D01*
X6130445Y-22430451D01*
X6086134Y-22496766D01*
X6086132Y-22496772D01*
X6074501Y-22555241D01*
X6074500Y-22555253D01*
X4700000Y-22555253D01*
X4700000Y-21900000D01*
X4500000Y-21400000D01*
X4100000Y-20900000D01*
X3600000Y-20500000D01*
X3000000Y-20300000D01*
X2000000Y-20300000D01*
X1999997Y-20300000D01*
X1299998Y-20600000D01*
X799999Y-21000000D01*
X600005Y-21299990D01*
X599998Y-21300002D01*
X400001Y-21699996D01*
X300000Y-22000000D01*
X300000Y-22521813D01*
X281093Y-22580004D01*
X231593Y-22615968D01*
X170407Y-22615968D01*
X120907Y-22580004D01*
X102181Y-22527790D01*
X100681Y-22502992D01*
X100500Y-22497015D01*
X100500Y-15274997D01*
X2969353Y-15274997D01*
X2969353Y-15275002D01*
X2989834Y-15417456D01*
X3030937Y-15507457D01*
X3049623Y-15548373D01*
X3115635Y-15624555D01*
X3143873Y-15657144D01*
X3226897Y-15710500D01*
X3264947Y-15734953D01*
X3371403Y-15766211D01*
X3403035Y-15775499D01*
X3403036Y-15775499D01*
X3403039Y-15775500D01*
X3403041Y-15775500D01*
X3509521Y-15775500D01*
X3567712Y-15794407D01*
X3579525Y-15804496D01*
X8799540Y-21024511D01*
X8799539Y-21024511D01*
X8855489Y-21080460D01*
X8924007Y-21120019D01*
X8924011Y-21120021D01*
X9000435Y-21140499D01*
X9000437Y-21140500D01*
X9000438Y-21140500D01*
X41348092Y-21140500D01*
X41348092Y-21140499D01*
X41424518Y-21120021D01*
X41493040Y-21080460D01*
X41548989Y-21024511D01*
X46263989Y-16309511D01*
X46280738Y-16280500D01*
X46303550Y-16240989D01*
X46324029Y-16164562D01*
X46324029Y-15651445D01*
X46342936Y-15593254D01*
X46381903Y-15561391D01*
X46385045Y-15559955D01*
X46385053Y-15559953D01*
X46506128Y-15482143D01*
X46600377Y-15373373D01*
X46660165Y-15242457D01*
X46675968Y-15132543D01*
X46680647Y-15100002D01*
X46680647Y-15099997D01*
X46660165Y-14957543D01*
X46639431Y-14912143D01*
X46600377Y-14826627D01*
X46506128Y-14717857D01*
X46506127Y-14717856D01*
X46506126Y-14717855D01*
X46385057Y-14640049D01*
X46385054Y-14640047D01*
X46385053Y-14640047D01*
X46385050Y-14640046D01*
X46246964Y-14599500D01*
X46246961Y-14599500D01*
X46103039Y-14599500D01*
X46103036Y-14599500D01*
X46087487Y-14604066D01*
X46033978Y-14604702D01*
X46014564Y-14599500D01*
X46014562Y-14599500D01*
X45935438Y-14599500D01*
X45935435Y-14599500D01*
X45859015Y-14619977D01*
X45859014Y-14619978D01*
X45859012Y-14619978D01*
X45859012Y-14619979D01*
X45790489Y-14659540D01*
X45734540Y-14715489D01*
X45698159Y-14778505D01*
X45694978Y-14784014D01*
X45694977Y-14784015D01*
X45674500Y-14860435D01*
X45674500Y-14939561D01*
X45680907Y-14963474D01*
X45683272Y-15003185D01*
X45669353Y-15099997D01*
X45669353Y-15100002D01*
X45689833Y-15242454D01*
X45702473Y-15270130D01*
X45714082Y-15295550D01*
X45723029Y-15336676D01*
X45723029Y-15959521D01*
X45704122Y-16017712D01*
X45694033Y-16029525D01*
X41213054Y-20510504D01*
X41158537Y-20538281D01*
X41143050Y-20539500D01*
X9205479Y-20539500D01*
X9147288Y-20520593D01*
X9135475Y-20510504D01*
X4005546Y-15380575D01*
X3977769Y-15326058D01*
X3977558Y-15296482D01*
X3980647Y-15275000D01*
X3975249Y-15237457D01*
X3960165Y-15132543D01*
X3945303Y-15100000D01*
X3900377Y-15001627D01*
X3884111Y-14982855D01*
X3830049Y-14920463D01*
X3820424Y-14897688D01*
X3803771Y-14891341D01*
X3685057Y-14815049D01*
X3685054Y-14815047D01*
X3685053Y-14815047D01*
X3683228Y-14814511D01*
X3546964Y-14774500D01*
X3546961Y-14774500D01*
X3403039Y-14774500D01*
X3403035Y-14774500D01*
X3264949Y-14815046D01*
X3264942Y-14815049D01*
X3143873Y-14892855D01*
X3049622Y-15001628D01*
X2989834Y-15132543D01*
X2969353Y-15274997D01*
X100500Y-15274997D01*
X100500Y-13874997D01*
X2419353Y-13874997D01*
X2419353Y-13875002D01*
X2439834Y-14017456D01*
X2488205Y-14123371D01*
X2499623Y-14148373D01*
X2573085Y-14233153D01*
X2593873Y-14257144D01*
X2714942Y-14334950D01*
X2714947Y-14334953D01*
X2821403Y-14366211D01*
X2853035Y-14375499D01*
X2853036Y-14375499D01*
X2853039Y-14375500D01*
X2853041Y-14375500D01*
X2996959Y-14375500D01*
X2996961Y-14375500D01*
X3135053Y-14334953D01*
X3256128Y-14257143D01*
X3274820Y-14235570D01*
X3327213Y-14203975D01*
X3388174Y-14209210D01*
X3419642Y-14230398D01*
X3927299Y-14738055D01*
X3942330Y-14767556D01*
X3974872Y-14785628D01*
X9469704Y-20280460D01*
X9469706Y-20280461D01*
X9469707Y-20280462D01*
X9469708Y-20280463D01*
X9538223Y-20320020D01*
X9538221Y-20320020D01*
X9538225Y-20320021D01*
X9538227Y-20320022D01*
X9614653Y-20340500D01*
X9614655Y-20340500D01*
X39743192Y-20340500D01*
X39743192Y-20340499D01*
X39819618Y-20320021D01*
X39888140Y-20280460D01*
X39944089Y-20224511D01*
X45855140Y-14313458D01*
X45909655Y-14285683D01*
X45970087Y-14295254D01*
X45978666Y-14300181D01*
X45989814Y-14307345D01*
X45993872Y-14309953D01*
X46100328Y-14341211D01*
X46131960Y-14350499D01*
X46131961Y-14350499D01*
X46131964Y-14350500D01*
X46131966Y-14350500D01*
X46275884Y-14350500D01*
X46275886Y-14350500D01*
X46413978Y-14309953D01*
X46535053Y-14232143D01*
X46629302Y-14123373D01*
X46689090Y-13992457D01*
X46695917Y-13944971D01*
X46709572Y-13850002D01*
X46709572Y-13849997D01*
X46689090Y-13707543D01*
X46644332Y-13609538D01*
X46629302Y-13576627D01*
X46535053Y-13467857D01*
X46535052Y-13467856D01*
X46535051Y-13467855D01*
X46413982Y-13390049D01*
X46413979Y-13390047D01*
X46413978Y-13390047D01*
X46413815Y-13389999D01*
X46275889Y-13349500D01*
X46275886Y-13349500D01*
X46131964Y-13349500D01*
X46131960Y-13349500D01*
X45993874Y-13390046D01*
X45993867Y-13390049D01*
X45872798Y-13467855D01*
X45801881Y-13549697D01*
X45776562Y-13570601D01*
X45734340Y-13594978D01*
X45734339Y-13594979D01*
X45725932Y-13599832D01*
X45709120Y-13609538D01*
X39608154Y-19710504D01*
X39553637Y-19738281D01*
X39538150Y-19739500D01*
X9819694Y-19739500D01*
X9761503Y-19720593D01*
X9749690Y-19710504D01*
X6729690Y-16690504D01*
X3673726Y-13634540D01*
X3630425Y-13609540D01*
X3605207Y-13594980D01*
X3605203Y-13594978D01*
X3528779Y-13574500D01*
X3528777Y-13574500D01*
X3372083Y-13574500D01*
X3313892Y-13555593D01*
X3297264Y-13540331D01*
X3256128Y-13492857D01*
X3217224Y-13467855D01*
X3135057Y-13415049D01*
X3135054Y-13415047D01*
X3135053Y-13415047D01*
X3135050Y-13415046D01*
X2996964Y-13374500D01*
X2996961Y-13374500D01*
X2853039Y-13374500D01*
X2853035Y-13374500D01*
X2714949Y-13415046D01*
X2714942Y-13415049D01*
X2593873Y-13492855D01*
X2499622Y-13601628D01*
X2439834Y-13732543D01*
X2419353Y-13874997D01*
X100500Y-13874997D01*
X100500Y-12749997D01*
X3505664Y-12749997D01*
X3505664Y-12750002D01*
X3526145Y-12892456D01*
X3560397Y-12967456D01*
X3585934Y-13023373D01*
X3650921Y-13098373D01*
X3684820Y-13137494D01*
X3682782Y-13139259D01*
X3708236Y-13181458D01*
X3710811Y-13203893D01*
X3710811Y-13235189D01*
X3731288Y-13311610D01*
X3731291Y-13311617D01*
X3767597Y-13374500D01*
X3770851Y-13380136D01*
X9815226Y-19424511D01*
X9815225Y-19424511D01*
X9871175Y-19480460D01*
X9939693Y-19520019D01*
X9939697Y-19520021D01*
X10016121Y-19540499D01*
X10016123Y-19540500D01*
X10016124Y-19540500D01*
X39411820Y-19540500D01*
X39411820Y-19540499D01*
X39488246Y-19520021D01*
X39556768Y-19480460D01*
X39612717Y-19424511D01*
X45882732Y-13154496D01*
X45937249Y-13126719D01*
X45952736Y-13125500D01*
X46652917Y-13125500D01*
X46711108Y-13144407D01*
X46727733Y-13159667D01*
X46768872Y-13207143D01*
X46889947Y-13284953D01*
X46996403Y-13316211D01*
X47028035Y-13325499D01*
X47028036Y-13325499D01*
X47028039Y-13325500D01*
X47028041Y-13325500D01*
X47171959Y-13325500D01*
X47171961Y-13325500D01*
X47310053Y-13284953D01*
X47431128Y-13207143D01*
X47525377Y-13098373D01*
X47585165Y-12967457D01*
X47605647Y-12825000D01*
X47599177Y-12780002D01*
X47585165Y-12682543D01*
X47562776Y-12633518D01*
X47525377Y-12551627D01*
X47431128Y-12442857D01*
X47431127Y-12442856D01*
X47431126Y-12442855D01*
X47310057Y-12365049D01*
X47310054Y-12365047D01*
X47310053Y-12365047D01*
X47310050Y-12365046D01*
X47171964Y-12324500D01*
X47171961Y-12324500D01*
X47028039Y-12324500D01*
X47028035Y-12324500D01*
X46889949Y-12365046D01*
X46889942Y-12365049D01*
X46768876Y-12442854D01*
X46768875Y-12442855D01*
X46768872Y-12442857D01*
X46739610Y-12476628D01*
X46727736Y-12490331D01*
X46675340Y-12521927D01*
X46652917Y-12524500D01*
X45747692Y-12524500D01*
X45671269Y-12544978D01*
X45625483Y-12571413D01*
X45625482Y-12571412D01*
X45602747Y-12584539D01*
X39276782Y-18910504D01*
X39222265Y-18938281D01*
X39206778Y-18939500D01*
X10221165Y-18939500D01*
X10162974Y-18920593D01*
X10151161Y-18910504D01*
X4421708Y-13181051D01*
X4393931Y-13126534D01*
X4403502Y-13066102D01*
X4416888Y-13046222D01*
X4436688Y-13023373D01*
X4496476Y-12892457D01*
X4503303Y-12844971D01*
X4516958Y-12750002D01*
X4516958Y-12749997D01*
X4496476Y-12607543D01*
X4470940Y-12551627D01*
X4436688Y-12476627D01*
X4366360Y-12395463D01*
X4356735Y-12372688D01*
X4340081Y-12366341D01*
X4221368Y-12290049D01*
X4221365Y-12290047D01*
X4221364Y-12290047D01*
X4221361Y-12290046D01*
X4083275Y-12249500D01*
X4083272Y-12249500D01*
X3939350Y-12249500D01*
X3939346Y-12249500D01*
X3801260Y-12290046D01*
X3801253Y-12290049D01*
X3680184Y-12367855D01*
X3585933Y-12476628D01*
X3526145Y-12607543D01*
X3505664Y-12749997D01*
X100500Y-12749997D01*
X100500Y-11624997D01*
X2344353Y-11624997D01*
X2344353Y-11625002D01*
X2364834Y-11767456D01*
X2376252Y-11792457D01*
X2424623Y-11898373D01*
X2502711Y-11988492D01*
X2518873Y-12007144D01*
X2597934Y-12057953D01*
X2639947Y-12084953D01*
X2746403Y-12116211D01*
X2778035Y-12125499D01*
X2778036Y-12125499D01*
X2778039Y-12125500D01*
X2778041Y-12125500D01*
X2921959Y-12125500D01*
X2921961Y-12125500D01*
X3060053Y-12084953D01*
X3181128Y-12007143D01*
X3222264Y-11959668D01*
X3274660Y-11928073D01*
X3297083Y-11925500D01*
X4135047Y-11925500D01*
X4193238Y-11944407D01*
X4205051Y-11954496D01*
X4463608Y-12213053D01*
X4478639Y-12242555D01*
X4511183Y-12260628D01*
X5946190Y-13695635D01*
X5973967Y-13750152D01*
X5975186Y-13765639D01*
X5975186Y-14368192D01*
X5986255Y-14409500D01*
X5995665Y-14444617D01*
X6022120Y-14490438D01*
X6022121Y-14490440D01*
X6035223Y-14513135D01*
X6035224Y-14513136D01*
X6035226Y-14513139D01*
X10182547Y-18660460D01*
X10182549Y-18660461D01*
X10182551Y-18660463D01*
X10251066Y-18700020D01*
X10251064Y-18700020D01*
X10251068Y-18700021D01*
X10251070Y-18700022D01*
X10327496Y-18720500D01*
X10327498Y-18720500D01*
X39028877Y-18720500D01*
X39028877Y-18720499D01*
X39105303Y-18700021D01*
X39173825Y-18660460D01*
X39229774Y-18604511D01*
X45854789Y-11979496D01*
X45909306Y-11951719D01*
X45924793Y-11950500D01*
X45952917Y-11950500D01*
X46011108Y-11969407D01*
X46027733Y-11984667D01*
X46068872Y-12032143D01*
X46189947Y-12109953D01*
X46292269Y-12139997D01*
X46328035Y-12150499D01*
X46328036Y-12150499D01*
X46328039Y-12150500D01*
X46328041Y-12150500D01*
X46471959Y-12150500D01*
X46471961Y-12150500D01*
X46610053Y-12109953D01*
X46731128Y-12032143D01*
X46825377Y-11923373D01*
X46885165Y-11792457D01*
X46895288Y-11722050D01*
X46905647Y-11650002D01*
X46905647Y-11649997D01*
X46885165Y-11507543D01*
X46840407Y-11409538D01*
X46825377Y-11376627D01*
X46731128Y-11267857D01*
X46731127Y-11267856D01*
X46731126Y-11267855D01*
X46610057Y-11190049D01*
X46610054Y-11190047D01*
X46610053Y-11190047D01*
X46610050Y-11190046D01*
X46471964Y-11149500D01*
X46471961Y-11149500D01*
X46328039Y-11149500D01*
X46328035Y-11149500D01*
X46189949Y-11190046D01*
X46189942Y-11190049D01*
X46068876Y-11267854D01*
X46068871Y-11267858D01*
X46027736Y-11315331D01*
X45975340Y-11346927D01*
X45952917Y-11349500D01*
X45719749Y-11349500D01*
X45643325Y-11369978D01*
X45643321Y-11369980D01*
X45574805Y-11409538D01*
X38893839Y-18090504D01*
X38839322Y-18118281D01*
X38823835Y-18119500D01*
X10532537Y-18119500D01*
X10474346Y-18100593D01*
X10462533Y-18090504D01*
X6605182Y-14233153D01*
X6577405Y-14178636D01*
X6576186Y-14163149D01*
X6576186Y-13560597D01*
X6576185Y-13560595D01*
X6555707Y-13484171D01*
X6555705Y-13484167D01*
X6516146Y-13415649D01*
X6460197Y-13359699D01*
X6460197Y-13359700D01*
X4485037Y-11384540D01*
X4485034Y-11384538D01*
X4467666Y-11374510D01*
X4467666Y-11374511D01*
X4416515Y-11344979D01*
X4416514Y-11344978D01*
X4416513Y-11344978D01*
X4340090Y-11324500D01*
X4340088Y-11324500D01*
X3297083Y-11324500D01*
X3238892Y-11305593D01*
X3222264Y-11290331D01*
X3181128Y-11242857D01*
X3148182Y-11221684D01*
X3060057Y-11165049D01*
X3060054Y-11165047D01*
X3060053Y-11165047D01*
X3049775Y-11162029D01*
X2921964Y-11124500D01*
X2921961Y-11124500D01*
X2778039Y-11124500D01*
X2778035Y-11124500D01*
X2639949Y-11165046D01*
X2639942Y-11165049D01*
X2518873Y-11242855D01*
X2424622Y-11351628D01*
X2364834Y-11482543D01*
X2344353Y-11624997D01*
X100500Y-11624997D01*
X100500Y-10574997D01*
X3219353Y-10574997D01*
X3219353Y-10575002D01*
X3239834Y-10717456D01*
X3270530Y-10784669D01*
X3299623Y-10848373D01*
X3352982Y-10909953D01*
X3393873Y-10957144D01*
X3464382Y-11002457D01*
X3514947Y-11034953D01*
X3621403Y-11066211D01*
X3653035Y-11075499D01*
X3653036Y-11075499D01*
X3653039Y-11075500D01*
X3653041Y-11075500D01*
X3796959Y-11075500D01*
X3796961Y-11075500D01*
X3935053Y-11034953D01*
X4056128Y-10957143D01*
X4097264Y-10909668D01*
X4149660Y-10878073D01*
X4172083Y-10875500D01*
X4216418Y-10875500D01*
X4274609Y-10894407D01*
X4286422Y-10904496D01*
X11242386Y-17860460D01*
X11242388Y-17860461D01*
X11242389Y-17860462D01*
X11242390Y-17860463D01*
X11310905Y-17900020D01*
X11310903Y-17900020D01*
X11310907Y-17900021D01*
X11310909Y-17900022D01*
X11387335Y-17920500D01*
X11387337Y-17920500D01*
X38697505Y-17920500D01*
X38697505Y-17920499D01*
X38773931Y-17900021D01*
X38842453Y-17860460D01*
X38898402Y-17804511D01*
X44364431Y-12338482D01*
X44375074Y-12320047D01*
X44403992Y-12269960D01*
X44424471Y-12193533D01*
X44424471Y-11575822D01*
X44443378Y-11517631D01*
X44453467Y-11505818D01*
X45179789Y-10779496D01*
X45234306Y-10751719D01*
X45249793Y-10750500D01*
X45642917Y-10750500D01*
X45701108Y-10769407D01*
X45717733Y-10784667D01*
X45758872Y-10832143D01*
X45802222Y-10860002D01*
X45871455Y-10904496D01*
X45879947Y-10909953D01*
X45986403Y-10941211D01*
X46018035Y-10950499D01*
X46018036Y-10950499D01*
X46018039Y-10950500D01*
X46018041Y-10950500D01*
X46161959Y-10950500D01*
X46161961Y-10950500D01*
X46300053Y-10909953D01*
X46421128Y-10832143D01*
X46515377Y-10723373D01*
X46575165Y-10592457D01*
X46592411Y-10472506D01*
X46595647Y-10450002D01*
X46595647Y-10449997D01*
X46575165Y-10307543D01*
X46569426Y-10294977D01*
X46515377Y-10176627D01*
X46421128Y-10067857D01*
X46421127Y-10067856D01*
X46421126Y-10067855D01*
X46300057Y-9990049D01*
X46300054Y-9990047D01*
X46300053Y-9990047D01*
X46300050Y-9990046D01*
X46161964Y-9949500D01*
X46161961Y-9949500D01*
X46018039Y-9949500D01*
X46018035Y-9949500D01*
X45879949Y-9990046D01*
X45879942Y-9990049D01*
X45758876Y-10067854D01*
X45758875Y-10067855D01*
X45758872Y-10067857D01*
X45731064Y-10099950D01*
X45717736Y-10115331D01*
X45665340Y-10146927D01*
X45642917Y-10149500D01*
X45044749Y-10149500D01*
X44968325Y-10169978D01*
X44968321Y-10169980D01*
X44899805Y-10209538D01*
X43939460Y-11169883D01*
X43939459Y-11169882D01*
X43883510Y-11225832D01*
X43843951Y-11294350D01*
X43843949Y-11294354D01*
X43823471Y-11370778D01*
X43823471Y-11988492D01*
X43804564Y-12046683D01*
X43794475Y-12058496D01*
X38562467Y-17290504D01*
X38507950Y-17318281D01*
X38492463Y-17319500D01*
X26171979Y-17319500D01*
X26113788Y-17300593D01*
X26077824Y-17251093D01*
X26077824Y-17189907D01*
X26101975Y-17150496D01*
X27357974Y-15894496D01*
X27412491Y-15866719D01*
X27427978Y-15865500D01*
X27534459Y-15865500D01*
X27534461Y-15865500D01*
X27672553Y-15824953D01*
X27793628Y-15747143D01*
X27887877Y-15638373D01*
X27947665Y-15507457D01*
X27964192Y-15392506D01*
X27968147Y-15365002D01*
X27968147Y-15364997D01*
X27947665Y-15222543D01*
X27941935Y-15209997D01*
X27887877Y-15091627D01*
X27793628Y-14982857D01*
X27793627Y-14982856D01*
X27793626Y-14982855D01*
X27672557Y-14905049D01*
X27672554Y-14905047D01*
X27672553Y-14905047D01*
X27672550Y-14905046D01*
X27534464Y-14864500D01*
X27534461Y-14864500D01*
X27390539Y-14864500D01*
X27390535Y-14864500D01*
X27252449Y-14905046D01*
X27252442Y-14905049D01*
X27131373Y-14982855D01*
X27037122Y-15091628D01*
X26977334Y-15222543D01*
X26956853Y-15364997D01*
X26956853Y-15365003D01*
X26959941Y-15386482D01*
X26949507Y-15446771D01*
X26931953Y-15470574D01*
X25712025Y-16690504D01*
X25657508Y-16718281D01*
X25642021Y-16719500D01*
X25051979Y-16719500D01*
X24993788Y-16700593D01*
X24957824Y-16651093D01*
X24957824Y-16589907D01*
X24981975Y-16550496D01*
X25907974Y-15624496D01*
X25962491Y-15596719D01*
X25977978Y-15595500D01*
X26084459Y-15595500D01*
X26084461Y-15595500D01*
X26222553Y-15554953D01*
X26343628Y-15477143D01*
X26437877Y-15368373D01*
X26497665Y-15237457D01*
X26512749Y-15132543D01*
X26518147Y-15095002D01*
X26518147Y-15094997D01*
X26497665Y-14952543D01*
X26475974Y-14905047D01*
X26437877Y-14821627D01*
X26343628Y-14712857D01*
X26343627Y-14712856D01*
X26343626Y-14712855D01*
X26222557Y-14635049D01*
X26222554Y-14635047D01*
X26222553Y-14635047D01*
X26222550Y-14635046D01*
X26084464Y-14594500D01*
X26084461Y-14594500D01*
X25940539Y-14594500D01*
X25940535Y-14594500D01*
X25802449Y-14635046D01*
X25802442Y-14635049D01*
X25681373Y-14712855D01*
X25587122Y-14821628D01*
X25527334Y-14952543D01*
X25506853Y-15094997D01*
X25506853Y-15095003D01*
X25509941Y-15116482D01*
X25499507Y-15176771D01*
X25481953Y-15200573D01*
X24592025Y-16090503D01*
X24537508Y-16118281D01*
X24522021Y-16119500D01*
X14419225Y-16119500D01*
X14361034Y-16100593D01*
X14325070Y-16051093D01*
X14325070Y-15989907D01*
X14329172Y-15979373D01*
X14355165Y-15922456D01*
X14375647Y-15780002D01*
X14375647Y-15779997D01*
X14355165Y-15637543D01*
X14295377Y-15506627D01*
X14201128Y-15397857D01*
X14201127Y-15397856D01*
X14196491Y-15392506D01*
X14198524Y-15390743D01*
X14173067Y-15348505D01*
X14170500Y-15326105D01*
X14170500Y-8935479D01*
X14189407Y-8877288D01*
X14199496Y-8865475D01*
X16524467Y-6540504D01*
X18897658Y-4167312D01*
X18952173Y-4139537D01*
X19012605Y-4149108D01*
X19055870Y-4192373D01*
X19065652Y-4251407D01*
X19054353Y-4329996D01*
X19054353Y-4330003D01*
X19057441Y-4351482D01*
X19047007Y-4411771D01*
X19029453Y-4435574D01*
X15975489Y-7489540D01*
X15975488Y-7489539D01*
X15919539Y-7545489D01*
X15879980Y-7614007D01*
X15879978Y-7614011D01*
X15859500Y-7690435D01*
X15859500Y-14756105D01*
X15840593Y-14814296D01*
X15833258Y-14822289D01*
X15833509Y-14822506D01*
X15734622Y-14936628D01*
X15674834Y-15067543D01*
X15654353Y-15209997D01*
X15654353Y-15210002D01*
X15674834Y-15352456D01*
X15728778Y-15470574D01*
X15734623Y-15483373D01*
X15819468Y-15581290D01*
X15828873Y-15592144D01*
X15949942Y-15669950D01*
X15949947Y-15669953D01*
X16056403Y-15701211D01*
X16088035Y-15710499D01*
X16088036Y-15710499D01*
X16088039Y-15710500D01*
X16088041Y-15710500D01*
X16231959Y-15710500D01*
X16231961Y-15710500D01*
X16370053Y-15669953D01*
X16491128Y-15592143D01*
X16585377Y-15483373D01*
X16645165Y-15352457D01*
X16656302Y-15274997D01*
X16665647Y-15210002D01*
X16665647Y-15209997D01*
X16645165Y-15067543D01*
X16606594Y-14983085D01*
X16585377Y-14936627D01*
X16491128Y-14827857D01*
X16491127Y-14827856D01*
X16486491Y-14822506D01*
X16488524Y-14820743D01*
X16463067Y-14778505D01*
X16460500Y-14756105D01*
X16460500Y-14070267D01*
X29063284Y-14070267D01*
X29222046Y-14125821D01*
X29222050Y-14125822D01*
X29390000Y-14144745D01*
X29557949Y-14125822D01*
X29557953Y-14125821D01*
X29716713Y-14070267D01*
X30563284Y-14070267D01*
X30722046Y-14125821D01*
X30722050Y-14125822D01*
X30890000Y-14144745D01*
X31057949Y-14125822D01*
X31057953Y-14125821D01*
X31216713Y-14070267D01*
X30889999Y-13743553D01*
X30563284Y-14070267D01*
X29716713Y-14070267D01*
X29389999Y-13743553D01*
X29063284Y-14070267D01*
X16460500Y-14070267D01*
X16460500Y-13390000D01*
X28635254Y-13390000D01*
X28654177Y-13557949D01*
X28654178Y-13557953D01*
X28709731Y-13716714D01*
X29036446Y-13390000D01*
X29006609Y-13360163D01*
X29240000Y-13360163D01*
X29240000Y-13419837D01*
X29262836Y-13474968D01*
X29305032Y-13517164D01*
X29360163Y-13540000D01*
X29419837Y-13540000D01*
X29474968Y-13517164D01*
X29517164Y-13474968D01*
X29540000Y-13419837D01*
X29540000Y-13389999D01*
X29743553Y-13389999D01*
X30070267Y-13716713D01*
X30117970Y-13705826D01*
X30162028Y-13705826D01*
X30209732Y-13716713D01*
X30536446Y-13390000D01*
X30506609Y-13360163D01*
X30740000Y-13360163D01*
X30740000Y-13419837D01*
X30762836Y-13474968D01*
X30805032Y-13517164D01*
X30860163Y-13540000D01*
X30919837Y-13540000D01*
X30974968Y-13517164D01*
X31017164Y-13474968D01*
X31040000Y-13419837D01*
X31040000Y-13389999D01*
X31243553Y-13389999D01*
X31570267Y-13716713D01*
X31625821Y-13557953D01*
X31625822Y-13557949D01*
X31644745Y-13390000D01*
X31625822Y-13222050D01*
X31625821Y-13222046D01*
X31570267Y-13063285D01*
X31570267Y-13063284D01*
X31243553Y-13389999D01*
X31040000Y-13389999D01*
X31040000Y-13360163D01*
X31017164Y-13305032D01*
X30974968Y-13262836D01*
X30919837Y-13240000D01*
X30860163Y-13240000D01*
X30805032Y-13262836D01*
X30762836Y-13305032D01*
X30740000Y-13360163D01*
X30506609Y-13360163D01*
X30209731Y-13063285D01*
X30162031Y-13074173D01*
X30117972Y-13074173D01*
X30070267Y-13063284D01*
X29743553Y-13389999D01*
X29540000Y-13389999D01*
X29540000Y-13360163D01*
X29517164Y-13305032D01*
X29474968Y-13262836D01*
X29419837Y-13240000D01*
X29360163Y-13240000D01*
X29305032Y-13262836D01*
X29262836Y-13305032D01*
X29240000Y-13360163D01*
X29006609Y-13360163D01*
X28709731Y-13063285D01*
X28654178Y-13222046D01*
X28654177Y-13222050D01*
X28635254Y-13390000D01*
X16460500Y-13390000D01*
X16460500Y-7895478D01*
X16479407Y-7837287D01*
X16489490Y-7825480D01*
X19455474Y-4859495D01*
X19509991Y-4831719D01*
X19525478Y-4830500D01*
X19594521Y-4830500D01*
X19652712Y-4849407D01*
X19664525Y-4859496D01*
X19919540Y-5114511D01*
X19919539Y-5114511D01*
X19975489Y-5170460D01*
X20044007Y-5210019D01*
X20044011Y-5210021D01*
X20120435Y-5230499D01*
X20120437Y-5230500D01*
X20120438Y-5230500D01*
X28499563Y-5230500D01*
X28499563Y-5230499D01*
X28575989Y-5210021D01*
X28644511Y-5170460D01*
X28700460Y-5114511D01*
X29445474Y-4369495D01*
X29499991Y-4341719D01*
X29515478Y-4340500D01*
X29621959Y-4340500D01*
X29621961Y-4340500D01*
X29734761Y-4307379D01*
X29795918Y-4309126D01*
X29844371Y-4346489D01*
X29861610Y-4405196D01*
X29841049Y-4462823D01*
X29832654Y-4472373D01*
X28694525Y-5610504D01*
X28640008Y-5638281D01*
X28624521Y-5639500D01*
X26050435Y-5639500D01*
X25974011Y-5659978D01*
X25974007Y-5659980D01*
X25905491Y-5699538D01*
X19994524Y-11610504D01*
X19940007Y-11638281D01*
X19924520Y-11639500D01*
X19818035Y-11639500D01*
X19679949Y-11680046D01*
X19679942Y-11680049D01*
X19558873Y-11757855D01*
X19464622Y-11866628D01*
X19404834Y-11997543D01*
X19384353Y-12139997D01*
X19384353Y-12140002D01*
X19404834Y-12282456D01*
X19456444Y-12395463D01*
X19464623Y-12413373D01*
X19558685Y-12521927D01*
X19558873Y-12522144D01*
X19679942Y-12599950D01*
X19679947Y-12599953D01*
X19786403Y-12631211D01*
X19818035Y-12640499D01*
X19818036Y-12640499D01*
X19818039Y-12640500D01*
X19818041Y-12640500D01*
X19961959Y-12640500D01*
X19961961Y-12640500D01*
X20100053Y-12599953D01*
X20138254Y-12575402D01*
X20197427Y-12559848D01*
X20254443Y-12582046D01*
X20287523Y-12633518D01*
X20289768Y-12672775D01*
X20274353Y-12779995D01*
X20274353Y-12780002D01*
X20294834Y-12922456D01*
X20351353Y-13046213D01*
X20354623Y-13053373D01*
X20442246Y-13154496D01*
X20448873Y-13162144D01*
X20542083Y-13222046D01*
X20569947Y-13239953D01*
X20676403Y-13271211D01*
X20708035Y-13280499D01*
X20708036Y-13280499D01*
X20708039Y-13280500D01*
X20708041Y-13280500D01*
X20851959Y-13280500D01*
X20851961Y-13280500D01*
X20990053Y-13239953D01*
X21111128Y-13162143D01*
X21205377Y-13053373D01*
X21265165Y-12922457D01*
X21279177Y-12825000D01*
X21285647Y-12780002D01*
X21285647Y-12780000D01*
X21282558Y-12758518D01*
X21292990Y-12698228D01*
X21310543Y-12674426D01*
X21414702Y-12570267D01*
X29063285Y-12570267D01*
X29074173Y-12617971D01*
X29074173Y-12662029D01*
X29063285Y-12709731D01*
X29390000Y-13036446D01*
X29716713Y-12709732D01*
X29705826Y-12662028D01*
X29705826Y-12617970D01*
X29716713Y-12570267D01*
X30563285Y-12570267D01*
X30574173Y-12617971D01*
X30574173Y-12662029D01*
X30563285Y-12709731D01*
X30890000Y-13036446D01*
X31216713Y-12709732D01*
X31205826Y-12662028D01*
X31205826Y-12617970D01*
X31216713Y-12570267D01*
X30889999Y-12243553D01*
X30563285Y-12570267D01*
X29716713Y-12570267D01*
X29389999Y-12243553D01*
X29063285Y-12570267D01*
X21414702Y-12570267D01*
X22094969Y-11890000D01*
X28635254Y-11890000D01*
X28654177Y-12057949D01*
X28654178Y-12057953D01*
X28709731Y-12216714D01*
X29036446Y-11890000D01*
X29006609Y-11860163D01*
X29240000Y-11860163D01*
X29240000Y-11919837D01*
X29262836Y-11974968D01*
X29305032Y-12017164D01*
X29360163Y-12040000D01*
X29419837Y-12040000D01*
X29474968Y-12017164D01*
X29517164Y-11974968D01*
X29540000Y-11919837D01*
X29540000Y-11889999D01*
X29743553Y-11889999D01*
X30070267Y-12216713D01*
X30117970Y-12205826D01*
X30162028Y-12205826D01*
X30209732Y-12216713D01*
X30536446Y-11890000D01*
X30506609Y-11860163D01*
X30740000Y-11860163D01*
X30740000Y-11919837D01*
X30762836Y-11974968D01*
X30805032Y-12017164D01*
X30860163Y-12040000D01*
X30919837Y-12040000D01*
X30974968Y-12017164D01*
X31017164Y-11974968D01*
X31040000Y-11919837D01*
X31040000Y-11889999D01*
X31243553Y-11889999D01*
X31570267Y-12216713D01*
X31625821Y-12057953D01*
X31625822Y-12057949D01*
X31644745Y-11890000D01*
X31625822Y-11722050D01*
X31625821Y-11722046D01*
X31570267Y-11563285D01*
X31570267Y-11563284D01*
X31243553Y-11889999D01*
X31040000Y-11889999D01*
X31040000Y-11860163D01*
X31017164Y-11805032D01*
X30974968Y-11762836D01*
X30919837Y-11740000D01*
X30860163Y-11740000D01*
X30805032Y-11762836D01*
X30762836Y-11805032D01*
X30740000Y-11860163D01*
X30506609Y-11860163D01*
X30209731Y-11563285D01*
X30162031Y-11574173D01*
X30117972Y-11574173D01*
X30070267Y-11563284D01*
X29743553Y-11889999D01*
X29540000Y-11889999D01*
X29540000Y-11860163D01*
X29517164Y-11805032D01*
X29474968Y-11762836D01*
X29419837Y-11740000D01*
X29360163Y-11740000D01*
X29305032Y-11762836D01*
X29262836Y-11805032D01*
X29240000Y-11860163D01*
X29006609Y-11860163D01*
X28709731Y-11563285D01*
X28654178Y-11722046D01*
X28654177Y-11722050D01*
X28635254Y-11890000D01*
X22094969Y-11890000D01*
X22914703Y-11070267D01*
X29063285Y-11070267D01*
X29074173Y-11117971D01*
X29074173Y-11162029D01*
X29063285Y-11209731D01*
X29390000Y-11536446D01*
X29716713Y-11209732D01*
X29705826Y-11162028D01*
X29705826Y-11117970D01*
X29716713Y-11070267D01*
X30563285Y-11070267D01*
X30574173Y-11117971D01*
X30574173Y-11162029D01*
X30563285Y-11209731D01*
X30890000Y-11536446D01*
X31216713Y-11209732D01*
X31205826Y-11162028D01*
X31205826Y-11117970D01*
X31216713Y-11070267D01*
X30889999Y-10743553D01*
X30563285Y-11070267D01*
X29716713Y-11070267D01*
X29389999Y-10743553D01*
X29063285Y-11070267D01*
X22914703Y-11070267D01*
X23594970Y-10390000D01*
X28635254Y-10390000D01*
X28654177Y-10557949D01*
X28654178Y-10557953D01*
X28709731Y-10716714D01*
X29036446Y-10390000D01*
X29006609Y-10360163D01*
X29240000Y-10360163D01*
X29240000Y-10419837D01*
X29262836Y-10474968D01*
X29305032Y-10517164D01*
X29360163Y-10540000D01*
X29419837Y-10540000D01*
X29474968Y-10517164D01*
X29517164Y-10474968D01*
X29540000Y-10419837D01*
X29540000Y-10389999D01*
X29743553Y-10389999D01*
X30070267Y-10716713D01*
X30117970Y-10705826D01*
X30162028Y-10705826D01*
X30209732Y-10716713D01*
X30536446Y-10390000D01*
X30506609Y-10360163D01*
X30740000Y-10360163D01*
X30740000Y-10419837D01*
X30762836Y-10474968D01*
X30805032Y-10517164D01*
X30860163Y-10540000D01*
X30919837Y-10540000D01*
X30974968Y-10517164D01*
X31017164Y-10474968D01*
X31040000Y-10419837D01*
X31040000Y-10389999D01*
X31243553Y-10389999D01*
X31570267Y-10716713D01*
X31625821Y-10557953D01*
X31625822Y-10557949D01*
X31644745Y-10390000D01*
X31625822Y-10222050D01*
X31625821Y-10222046D01*
X31570267Y-10063285D01*
X31570267Y-10063284D01*
X31243553Y-10389999D01*
X31040000Y-10389999D01*
X31040000Y-10360163D01*
X31017164Y-10305032D01*
X30974968Y-10262836D01*
X30919837Y-10240000D01*
X30860163Y-10240000D01*
X30805032Y-10262836D01*
X30762836Y-10305032D01*
X30740000Y-10360163D01*
X30506609Y-10360163D01*
X30209731Y-10063285D01*
X30162031Y-10074173D01*
X30117972Y-10074173D01*
X30070267Y-10063284D01*
X29743553Y-10389999D01*
X29540000Y-10389999D01*
X29540000Y-10360163D01*
X29517164Y-10305032D01*
X29474968Y-10262836D01*
X29419837Y-10240000D01*
X29360163Y-10240000D01*
X29305032Y-10262836D01*
X29262836Y-10305032D01*
X29240000Y-10360163D01*
X29006609Y-10360163D01*
X28709731Y-10063285D01*
X28654178Y-10222046D01*
X28654177Y-10222050D01*
X28635254Y-10390000D01*
X23594970Y-10390000D01*
X24275239Y-9709731D01*
X29063285Y-9709731D01*
X29390000Y-10036446D01*
X29716714Y-9709731D01*
X30563285Y-9709731D01*
X30890000Y-10036446D01*
X31216714Y-9709731D01*
X31057953Y-9654178D01*
X31057949Y-9654177D01*
X30890000Y-9635254D01*
X30722050Y-9654177D01*
X30722046Y-9654178D01*
X30563285Y-9709731D01*
X29716714Y-9709731D01*
X29557953Y-9654178D01*
X29557949Y-9654177D01*
X29390000Y-9635254D01*
X29222050Y-9654177D01*
X29222046Y-9654178D01*
X29063285Y-9709731D01*
X24275239Y-9709731D01*
X26785475Y-7199496D01*
X26839992Y-7171719D01*
X26855479Y-7170500D01*
X28748093Y-7170500D01*
X28748093Y-7170499D01*
X28824519Y-7150021D01*
X28893041Y-7110460D01*
X28921015Y-7082485D01*
X28948991Y-7054511D01*
X29171314Y-6832187D01*
X29379725Y-6623776D01*
X29379725Y-6623775D01*
X31556350Y-4447148D01*
X31598458Y-4422165D01*
X31640053Y-4409953D01*
X31761128Y-4332143D01*
X31855377Y-4223373D01*
X31915165Y-4092457D01*
X31928943Y-3996627D01*
X31935647Y-3950002D01*
X31935647Y-3949997D01*
X31915165Y-3807543D01*
X31907440Y-3790627D01*
X31900465Y-3729840D01*
X31930551Y-3676563D01*
X31986207Y-3651145D01*
X31997493Y-3650500D01*
X32114521Y-3650500D01*
X32172712Y-3669407D01*
X32184525Y-3679496D01*
X33260504Y-4755475D01*
X33288281Y-4809992D01*
X33289500Y-4825479D01*
X33289500Y-14320279D01*
X33270593Y-14378470D01*
X33221093Y-14414434D01*
X33218391Y-14415269D01*
X33099949Y-14450046D01*
X33099942Y-14450049D01*
X32978873Y-14527855D01*
X32884622Y-14636628D01*
X32824834Y-14767543D01*
X32804353Y-14909997D01*
X32804353Y-14910002D01*
X32824834Y-15052456D01*
X32861409Y-15132543D01*
X32884623Y-15183373D01*
X32978872Y-15292143D01*
X32978873Y-15292144D01*
X33097485Y-15368371D01*
X33099947Y-15369953D01*
X33206403Y-15401211D01*
X33238035Y-15410499D01*
X33238036Y-15410499D01*
X33238039Y-15410500D01*
X33238041Y-15410500D01*
X33381959Y-15410500D01*
X33381961Y-15410500D01*
X33520053Y-15369953D01*
X33641128Y-15292143D01*
X33735377Y-15183373D01*
X33795165Y-15052457D01*
X33807959Y-14963474D01*
X33815647Y-14910002D01*
X33815647Y-14910000D01*
X33812356Y-14887114D01*
X33822788Y-14826825D01*
X33828452Y-14817989D01*
X33836890Y-14803373D01*
X33838642Y-14800339D01*
X33870021Y-14745989D01*
X33890500Y-14669562D01*
X33890500Y-4620438D01*
X33887033Y-4607500D01*
X33870022Y-4544012D01*
X33844558Y-4499907D01*
X33830463Y-4475493D01*
X33830462Y-4475492D01*
X33830461Y-4475491D01*
X33830460Y-4475489D01*
X32464511Y-3109540D01*
X32464510Y-3109539D01*
X32459762Y-3106798D01*
X32459762Y-3106797D01*
X32459758Y-3106796D01*
X32426381Y-3087526D01*
X32395988Y-3069978D01*
X32319564Y-3049500D01*
X32319562Y-3049500D01*
X30079562Y-3049500D01*
X30000438Y-3049500D01*
X29953661Y-3062033D01*
X29924007Y-3069979D01*
X29855493Y-3109536D01*
X29855488Y-3109540D01*
X29654524Y-3310504D01*
X29600008Y-3338281D01*
X29584521Y-3339500D01*
X29478035Y-3339500D01*
X29339949Y-3380046D01*
X29339942Y-3380049D01*
X29218873Y-3457855D01*
X29124622Y-3566628D01*
X29064834Y-3697543D01*
X29044353Y-3839997D01*
X29044353Y-3840003D01*
X29047441Y-3861482D01*
X29037007Y-3921771D01*
X29019453Y-3945573D01*
X28364525Y-4600503D01*
X28310008Y-4628281D01*
X28294521Y-4629500D01*
X22027493Y-4629500D01*
X21969302Y-4610593D01*
X21933338Y-4561093D01*
X21933338Y-4499907D01*
X21937440Y-4489373D01*
X21945165Y-4472456D01*
X21948804Y-4447150D01*
X21958306Y-4381058D01*
X21965647Y-4330002D01*
X21965647Y-4329997D01*
X21945165Y-4187543D01*
X21928019Y-4150000D01*
X21885377Y-4056627D01*
X21791128Y-3947857D01*
X21791127Y-3947856D01*
X21791126Y-3947855D01*
X21670057Y-3870049D01*
X21670054Y-3870047D01*
X21670053Y-3870047D01*
X21670050Y-3870046D01*
X21531964Y-3829500D01*
X21531961Y-3829500D01*
X21425479Y-3829500D01*
X21367288Y-3810593D01*
X21355476Y-3800504D01*
X21024510Y-3469539D01*
X21014393Y-3463698D01*
X21004276Y-3457857D01*
X21004274Y-3457856D01*
X20973661Y-3440182D01*
X20955988Y-3429978D01*
X20900206Y-3415031D01*
X20848892Y-3381707D01*
X20826966Y-3324585D01*
X20842802Y-3265485D01*
X20851002Y-3254584D01*
X20895377Y-3203373D01*
X20955165Y-3072457D01*
X20961992Y-3024971D01*
X20975647Y-2930002D01*
X20975647Y-2929997D01*
X20955165Y-2787543D01*
X20895377Y-2656628D01*
X20895377Y-2656627D01*
X20801128Y-2547857D01*
X20801127Y-2547856D01*
X20801126Y-2547855D01*
X20680057Y-2470049D01*
X20680054Y-2470047D01*
X20680053Y-2470047D01*
X20680050Y-2470046D01*
X20541964Y-2429500D01*
X20541961Y-2429500D01*
X20398039Y-2429500D01*
X20398035Y-2429500D01*
X20259949Y-2470046D01*
X20259942Y-2470049D01*
X20138876Y-2547854D01*
X20138871Y-2547858D01*
X20097736Y-2595331D01*
X20045340Y-2626927D01*
X20022917Y-2629500D01*
X18200435Y-2629500D01*
X18124011Y-2649978D01*
X18124007Y-2649980D01*
X18055491Y-2689538D01*
X9795489Y-10949540D01*
X9795488Y-10949539D01*
X9739539Y-11005489D01*
X9699980Y-11074007D01*
X9699978Y-11074011D01*
X9679500Y-11150435D01*
X9679500Y-14616105D01*
X9660593Y-14674296D01*
X9653258Y-14682289D01*
X9653509Y-14682506D01*
X9648872Y-14687856D01*
X9648872Y-14687857D01*
X9598501Y-14745989D01*
X9554622Y-14796628D01*
X9494834Y-14927543D01*
X9480816Y-15025039D01*
X9453820Y-15079946D01*
X9399705Y-15108499D01*
X9339143Y-15099791D01*
X9312823Y-15080955D01*
X4566408Y-10334540D01*
X4566405Y-10334538D01*
X4566404Y-10334537D01*
X4565484Y-10334006D01*
X4565484Y-10334005D01*
X4497886Y-10294979D01*
X4497882Y-10294977D01*
X4421461Y-10274500D01*
X4421459Y-10274500D01*
X4172083Y-10274500D01*
X4113892Y-10255593D01*
X4097264Y-10240331D01*
X4056128Y-10192857D01*
X4020529Y-10169979D01*
X3935057Y-10115049D01*
X3935054Y-10115047D01*
X3935053Y-10115047D01*
X3935050Y-10115046D01*
X3796964Y-10074500D01*
X3796961Y-10074500D01*
X3653039Y-10074500D01*
X3653035Y-10074500D01*
X3514949Y-10115046D01*
X3514942Y-10115049D01*
X3393873Y-10192855D01*
X3299622Y-10301628D01*
X3239834Y-10432543D01*
X3219353Y-10574997D01*
X100500Y-10574997D01*
X100500Y-2502984D01*
X100681Y-2497007D01*
X117633Y-2216749D01*
X119072Y-2204890D01*
X169146Y-1931646D01*
X172004Y-1920052D01*
X254650Y-1654832D01*
X258880Y-1643679D01*
X372895Y-1390346D01*
X378444Y-1379775D01*
X522159Y-1142040D01*
X528930Y-1132230D01*
X700257Y-913547D01*
X708169Y-904615D01*
X904615Y-708169D01*
X913547Y-700257D01*
X1132230Y-528930D01*
X1142040Y-522159D01*
X1379775Y-378444D01*
X1390346Y-372895D01*
X1643679Y-258880D01*
X1654832Y-254650D01*
X1920052Y-172004D01*
X1931646Y-169146D01*
X2204890Y-119072D01*
X2216741Y-117633D01*
X2497008Y-100681D01*
X2502985Y-100500D01*
X2526929Y-100500D01*
X47473071Y-100500D01*
X47497015Y-100500D01*
X47502992Y-100681D01*
G37*
%TD.AperFunction*%
%TD*%
D16*
X19560000Y-4330000D03*
X33310000Y-14910000D03*
X29550000Y-3840000D03*
X16160000Y-15210000D03*
X31710000Y-1920000D03*
X15180000Y-8710000D03*
X36010000Y-8090000D03*
X16960000Y-14310000D03*
X10930000Y-11590000D03*
X43475000Y-7775000D03*
X35570000Y-16720000D03*
X15000000Y-13530000D03*
X44690000Y-20630000D03*
X2225000Y-14500000D03*
X39230000Y-23840000D03*
X11920000Y-2050000D03*
X23380000Y-22420000D03*
X25170000Y-3730000D03*
X5800000Y-21175000D03*
X32280000Y-4280000D03*
X17470000Y-10580000D03*
X20260000Y-9950000D03*
X7370000Y-1100000D03*
X2675000Y-12725000D03*
X34270000Y-4370000D03*
X47000000Y-14425000D03*
X5375000Y-24325000D03*
X43650000Y-4010000D03*
X29690000Y-23990000D03*
X49075000Y-7300000D03*
X22210000Y-2940000D03*
X1100000Y-8500000D03*
X22940000Y-15670000D03*
X9420000Y-8420000D03*
X37990000Y-2330000D03*
X35190000Y-5840000D03*
X47275000Y-11625000D03*
X15170000Y-15620000D03*
X30630000Y-16640000D03*
X22750000Y-3990000D03*
X8700000Y-11590000D03*
X46130000Y-8850000D03*
X2425000Y-10225000D03*
X24880000Y-14430000D03*
X11460000Y-8220000D03*
X28380000Y-1890000D03*
X18870000Y-22310000D03*
X15210000Y-10460000D03*
X21150000Y-14720000D03*
X40150000Y-8430000D03*
X17390000Y-8760000D03*
X24270000Y-6010000D03*
X44350000Y-16950000D03*
X48975000Y-16700000D03*
X1300000Y-16300000D03*
X14800000Y-22550000D03*
X1540000Y-2950000D03*
X3475000Y-15275000D03*
X46175000Y-15100000D03*
X46203925Y-13850000D03*
X2925000Y-13875000D03*
X4011311Y-12750000D03*
X47100000Y-12825000D03*
X46400000Y-11650000D03*
X2850000Y-11625000D03*
X46090000Y-10450000D03*
X3725000Y-10575000D03*
X11070000Y-14530000D03*
X26012500Y-15095000D03*
X14350000Y-17020000D03*
X27462500Y-15365000D03*
X20470000Y-2930000D03*
X9980000Y-15070000D03*
X13870000Y-15780000D03*
X21460000Y-4330000D03*
X19890000Y-12140000D03*
X30460000Y-4270000D03*
X20780000Y-12780000D03*
X31430000Y-3950000D03*
X12580000Y-10860000D03*
X12860000Y-9640000D03*
X30890000Y-13390000D03*
X30890000Y-11890000D03*
X30890000Y-10390000D03*
X29390000Y-13390000D03*
X29390000Y-11890000D03*
X29390000Y-10390000D03*
D17*
X6950000Y-23250000D03*
X8950000Y-23250000D03*
X10950000Y-23250000D03*
X12950000Y-23250000D03*
X47500000Y-2550000D03*
X2500000Y-22500000D03*
M02*
