%TF.GenerationSoftware,KiCad,Pcbnew,8.0.6-8.0.6-0~ubuntu24.04.1*%
%TF.CreationDate,2024-10-19T18:08:10+01:00*%
%TF.ProjectId,Magnet,4d61676e-6574-42e6-9b69-6361645f7063,rev?*%
%TF.SameCoordinates,Original*%
%TF.FileFunction,Legend,Bot*%
%TF.FilePolarity,Positive*%
%FSLAX46Y46*%
G04 Gerber Fmt 4.6, Leading zero omitted, Abs format (unit mm)*
G04 Created by KiCad (PCBNEW 8.0.6-8.0.6-0~ubuntu24.04.1) date 2024-10-19 18:08:10*
%MOMM*%
%LPD*%
G01*
G04 APERTURE LIST*
%ADD10C,0.150000*%
%ADD11C,0.250000*%
%ADD12C,0.350000*%
G04 APERTURE END LIST*
D10*
X11356200Y-18651064D02*
X11394295Y-18765350D01*
X11394295Y-18765350D02*
X11394295Y-18955826D01*
X11394295Y-18955826D02*
X11356200Y-19032017D01*
X11356200Y-19032017D02*
X11318104Y-19070112D01*
X11318104Y-19070112D02*
X11241914Y-19108207D01*
X11241914Y-19108207D02*
X11165723Y-19108207D01*
X11165723Y-19108207D02*
X11089533Y-19070112D01*
X11089533Y-19070112D02*
X11051438Y-19032017D01*
X11051438Y-19032017D02*
X11013342Y-18955826D01*
X11013342Y-18955826D02*
X10975247Y-18803445D01*
X10975247Y-18803445D02*
X10937152Y-18727255D01*
X10937152Y-18727255D02*
X10899057Y-18689160D01*
X10899057Y-18689160D02*
X10822866Y-18651064D01*
X10822866Y-18651064D02*
X10746676Y-18651064D01*
X10746676Y-18651064D02*
X10670485Y-18689160D01*
X10670485Y-18689160D02*
X10632390Y-18727255D01*
X10632390Y-18727255D02*
X10594295Y-18803445D01*
X10594295Y-18803445D02*
X10594295Y-18993922D01*
X10594295Y-18993922D02*
X10632390Y-19108207D01*
X10594295Y-19374874D02*
X11394295Y-19565350D01*
X11394295Y-19565350D02*
X10822866Y-19717731D01*
X10822866Y-19717731D02*
X11394295Y-19870112D01*
X11394295Y-19870112D02*
X10594295Y-20060589D01*
X11394295Y-20365351D02*
X10594295Y-20365351D01*
X10594295Y-20365351D02*
X10594295Y-20555827D01*
X10594295Y-20555827D02*
X10632390Y-20670113D01*
X10632390Y-20670113D02*
X10708580Y-20746303D01*
X10708580Y-20746303D02*
X10784771Y-20784398D01*
X10784771Y-20784398D02*
X10937152Y-20822494D01*
X10937152Y-20822494D02*
X11051438Y-20822494D01*
X11051438Y-20822494D02*
X11203819Y-20784398D01*
X11203819Y-20784398D02*
X11280009Y-20746303D01*
X11280009Y-20746303D02*
X11356200Y-20670113D01*
X11356200Y-20670113D02*
X11394295Y-20555827D01*
X11394295Y-20555827D02*
X11394295Y-20365351D01*
X11394295Y-21165351D02*
X10594295Y-21165351D01*
X10594295Y-21698684D02*
X10594295Y-21851065D01*
X10594295Y-21851065D02*
X10632390Y-21927255D01*
X10632390Y-21927255D02*
X10708580Y-22003446D01*
X10708580Y-22003446D02*
X10860961Y-22041541D01*
X10860961Y-22041541D02*
X11127628Y-22041541D01*
X11127628Y-22041541D02*
X11280009Y-22003446D01*
X11280009Y-22003446D02*
X11356200Y-21927255D01*
X11356200Y-21927255D02*
X11394295Y-21851065D01*
X11394295Y-21851065D02*
X11394295Y-21698684D01*
X11394295Y-21698684D02*
X11356200Y-21622493D01*
X11356200Y-21622493D02*
X11280009Y-21546303D01*
X11280009Y-21546303D02*
X11127628Y-21508207D01*
X11127628Y-21508207D02*
X10860961Y-21508207D01*
X10860961Y-21508207D02*
X10708580Y-21546303D01*
X10708580Y-21546303D02*
X10632390Y-21622493D01*
X10632390Y-21622493D02*
X10594295Y-21698684D01*
X13456200Y-17651064D02*
X13494295Y-17765350D01*
X13494295Y-17765350D02*
X13494295Y-17955826D01*
X13494295Y-17955826D02*
X13456200Y-18032017D01*
X13456200Y-18032017D02*
X13418104Y-18070112D01*
X13418104Y-18070112D02*
X13341914Y-18108207D01*
X13341914Y-18108207D02*
X13265723Y-18108207D01*
X13265723Y-18108207D02*
X13189533Y-18070112D01*
X13189533Y-18070112D02*
X13151438Y-18032017D01*
X13151438Y-18032017D02*
X13113342Y-17955826D01*
X13113342Y-17955826D02*
X13075247Y-17803445D01*
X13075247Y-17803445D02*
X13037152Y-17727255D01*
X13037152Y-17727255D02*
X12999057Y-17689160D01*
X12999057Y-17689160D02*
X12922866Y-17651064D01*
X12922866Y-17651064D02*
X12846676Y-17651064D01*
X12846676Y-17651064D02*
X12770485Y-17689160D01*
X12770485Y-17689160D02*
X12732390Y-17727255D01*
X12732390Y-17727255D02*
X12694295Y-17803445D01*
X12694295Y-17803445D02*
X12694295Y-17993922D01*
X12694295Y-17993922D02*
X12732390Y-18108207D01*
X12694295Y-18374874D02*
X13494295Y-18565350D01*
X13494295Y-18565350D02*
X12922866Y-18717731D01*
X12922866Y-18717731D02*
X13494295Y-18870112D01*
X13494295Y-18870112D02*
X12694295Y-19060589D01*
X13494295Y-19365351D02*
X12694295Y-19365351D01*
X12694295Y-19365351D02*
X12694295Y-19555827D01*
X12694295Y-19555827D02*
X12732390Y-19670113D01*
X12732390Y-19670113D02*
X12808580Y-19746303D01*
X12808580Y-19746303D02*
X12884771Y-19784398D01*
X12884771Y-19784398D02*
X13037152Y-19822494D01*
X13037152Y-19822494D02*
X13151438Y-19822494D01*
X13151438Y-19822494D02*
X13303819Y-19784398D01*
X13303819Y-19784398D02*
X13380009Y-19746303D01*
X13380009Y-19746303D02*
X13456200Y-19670113D01*
X13456200Y-19670113D02*
X13494295Y-19555827D01*
X13494295Y-19555827D02*
X13494295Y-19365351D01*
X13418104Y-20622494D02*
X13456200Y-20584398D01*
X13456200Y-20584398D02*
X13494295Y-20470113D01*
X13494295Y-20470113D02*
X13494295Y-20393922D01*
X13494295Y-20393922D02*
X13456200Y-20279636D01*
X13456200Y-20279636D02*
X13380009Y-20203446D01*
X13380009Y-20203446D02*
X13303819Y-20165351D01*
X13303819Y-20165351D02*
X13151438Y-20127255D01*
X13151438Y-20127255D02*
X13037152Y-20127255D01*
X13037152Y-20127255D02*
X12884771Y-20165351D01*
X12884771Y-20165351D02*
X12808580Y-20203446D01*
X12808580Y-20203446D02*
X12732390Y-20279636D01*
X12732390Y-20279636D02*
X12694295Y-20393922D01*
X12694295Y-20393922D02*
X12694295Y-20470113D01*
X12694295Y-20470113D02*
X12732390Y-20584398D01*
X12732390Y-20584398D02*
X12770485Y-20622494D01*
X13494295Y-21346303D02*
X13494295Y-20965351D01*
X13494295Y-20965351D02*
X12694295Y-20965351D01*
X13494295Y-21612970D02*
X12694295Y-21612970D01*
X13494295Y-22070113D02*
X13037152Y-21727255D01*
X12694295Y-22070113D02*
X13151438Y-21612970D01*
X8582390Y-20358207D02*
X8544295Y-20282017D01*
X8544295Y-20282017D02*
X8544295Y-20167731D01*
X8544295Y-20167731D02*
X8582390Y-20053445D01*
X8582390Y-20053445D02*
X8658580Y-19977255D01*
X8658580Y-19977255D02*
X8734771Y-19939160D01*
X8734771Y-19939160D02*
X8887152Y-19901064D01*
X8887152Y-19901064D02*
X9001438Y-19901064D01*
X9001438Y-19901064D02*
X9153819Y-19939160D01*
X9153819Y-19939160D02*
X9230009Y-19977255D01*
X9230009Y-19977255D02*
X9306200Y-20053445D01*
X9306200Y-20053445D02*
X9344295Y-20167731D01*
X9344295Y-20167731D02*
X9344295Y-20243922D01*
X9344295Y-20243922D02*
X9306200Y-20358207D01*
X9306200Y-20358207D02*
X9268104Y-20396303D01*
X9268104Y-20396303D02*
X9001438Y-20396303D01*
X9001438Y-20396303D02*
X9001438Y-20243922D01*
X9344295Y-20739160D02*
X8544295Y-20739160D01*
X8544295Y-20739160D02*
X9344295Y-21196303D01*
X9344295Y-21196303D02*
X8544295Y-21196303D01*
X9344295Y-21577255D02*
X8544295Y-21577255D01*
X8544295Y-21577255D02*
X8544295Y-21767731D01*
X8544295Y-21767731D02*
X8582390Y-21882017D01*
X8582390Y-21882017D02*
X8658580Y-21958207D01*
X8658580Y-21958207D02*
X8734771Y-21996302D01*
X8734771Y-21996302D02*
X8887152Y-22034398D01*
X8887152Y-22034398D02*
X9001438Y-22034398D01*
X9001438Y-22034398D02*
X9153819Y-21996302D01*
X9153819Y-21996302D02*
X9230009Y-21958207D01*
X9230009Y-21958207D02*
X9306200Y-21882017D01*
X9306200Y-21882017D02*
X9344295Y-21767731D01*
X9344295Y-21767731D02*
X9344295Y-21577255D01*
X6569295Y-21170112D02*
X6569295Y-20789160D01*
X6569295Y-20789160D02*
X6950247Y-20751064D01*
X6950247Y-20751064D02*
X6912152Y-20789160D01*
X6912152Y-20789160D02*
X6874057Y-20865350D01*
X6874057Y-20865350D02*
X6874057Y-21055826D01*
X6874057Y-21055826D02*
X6912152Y-21132017D01*
X6912152Y-21132017D02*
X6950247Y-21170112D01*
X6950247Y-21170112D02*
X7026438Y-21208207D01*
X7026438Y-21208207D02*
X7216914Y-21208207D01*
X7216914Y-21208207D02*
X7293104Y-21170112D01*
X7293104Y-21170112D02*
X7331200Y-21132017D01*
X7331200Y-21132017D02*
X7369295Y-21055826D01*
X7369295Y-21055826D02*
X7369295Y-20865350D01*
X7369295Y-20865350D02*
X7331200Y-20789160D01*
X7331200Y-20789160D02*
X7293104Y-20751064D01*
X6569295Y-21436779D02*
X7369295Y-21703446D01*
X7369295Y-21703446D02*
X6569295Y-21970112D01*
D11*
X19573332Y-5291099D02*
X19573332Y-4291099D01*
X19573332Y-4291099D02*
X19239999Y-5005384D01*
X19239999Y-5005384D02*
X18906666Y-4291099D01*
X18906666Y-4291099D02*
X18906666Y-5291099D01*
X18001904Y-5291099D02*
X18001904Y-4767289D01*
X18001904Y-4767289D02*
X18049523Y-4672051D01*
X18049523Y-4672051D02*
X18144761Y-4624432D01*
X18144761Y-4624432D02*
X18335237Y-4624432D01*
X18335237Y-4624432D02*
X18430475Y-4672051D01*
X18001904Y-5243480D02*
X18097142Y-5291099D01*
X18097142Y-5291099D02*
X18335237Y-5291099D01*
X18335237Y-5291099D02*
X18430475Y-5243480D01*
X18430475Y-5243480D02*
X18478094Y-5148241D01*
X18478094Y-5148241D02*
X18478094Y-5053003D01*
X18478094Y-5053003D02*
X18430475Y-4957765D01*
X18430475Y-4957765D02*
X18335237Y-4910146D01*
X18335237Y-4910146D02*
X18097142Y-4910146D01*
X18097142Y-4910146D02*
X18001904Y-4862527D01*
X17097142Y-4624432D02*
X17097142Y-5433956D01*
X17097142Y-5433956D02*
X17144761Y-5529194D01*
X17144761Y-5529194D02*
X17192380Y-5576813D01*
X17192380Y-5576813D02*
X17287618Y-5624432D01*
X17287618Y-5624432D02*
X17430475Y-5624432D01*
X17430475Y-5624432D02*
X17525713Y-5576813D01*
X17097142Y-5243480D02*
X17192380Y-5291099D01*
X17192380Y-5291099D02*
X17382856Y-5291099D01*
X17382856Y-5291099D02*
X17478094Y-5243480D01*
X17478094Y-5243480D02*
X17525713Y-5195860D01*
X17525713Y-5195860D02*
X17573332Y-5100622D01*
X17573332Y-5100622D02*
X17573332Y-4814908D01*
X17573332Y-4814908D02*
X17525713Y-4719670D01*
X17525713Y-4719670D02*
X17478094Y-4672051D01*
X17478094Y-4672051D02*
X17382856Y-4624432D01*
X17382856Y-4624432D02*
X17192380Y-4624432D01*
X17192380Y-4624432D02*
X17097142Y-4672051D01*
X16620951Y-4624432D02*
X16620951Y-5291099D01*
X16620951Y-4719670D02*
X16573332Y-4672051D01*
X16573332Y-4672051D02*
X16478094Y-4624432D01*
X16478094Y-4624432D02*
X16335237Y-4624432D01*
X16335237Y-4624432D02*
X16239999Y-4672051D01*
X16239999Y-4672051D02*
X16192380Y-4767289D01*
X16192380Y-4767289D02*
X16192380Y-5291099D01*
X15335237Y-5243480D02*
X15430475Y-5291099D01*
X15430475Y-5291099D02*
X15620951Y-5291099D01*
X15620951Y-5291099D02*
X15716189Y-5243480D01*
X15716189Y-5243480D02*
X15763808Y-5148241D01*
X15763808Y-5148241D02*
X15763808Y-4767289D01*
X15763808Y-4767289D02*
X15716189Y-4672051D01*
X15716189Y-4672051D02*
X15620951Y-4624432D01*
X15620951Y-4624432D02*
X15430475Y-4624432D01*
X15430475Y-4624432D02*
X15335237Y-4672051D01*
X15335237Y-4672051D02*
X15287618Y-4767289D01*
X15287618Y-4767289D02*
X15287618Y-4862527D01*
X15287618Y-4862527D02*
X15763808Y-4957765D01*
X15001903Y-4624432D02*
X14620951Y-4624432D01*
X14859046Y-4291099D02*
X14859046Y-5148241D01*
X14859046Y-5148241D02*
X14811427Y-5243480D01*
X14811427Y-5243480D02*
X14716189Y-5291099D01*
X14716189Y-5291099D02*
X14620951Y-5291099D01*
X14335236Y-5243480D02*
X14192379Y-5291099D01*
X14192379Y-5291099D02*
X13954284Y-5291099D01*
X13954284Y-5291099D02*
X13859046Y-5243480D01*
X13859046Y-5243480D02*
X13811427Y-5195860D01*
X13811427Y-5195860D02*
X13763808Y-5100622D01*
X13763808Y-5100622D02*
X13763808Y-5005384D01*
X13763808Y-5005384D02*
X13811427Y-4910146D01*
X13811427Y-4910146D02*
X13859046Y-4862527D01*
X13859046Y-4862527D02*
X13954284Y-4814908D01*
X13954284Y-4814908D02*
X14144760Y-4767289D01*
X14144760Y-4767289D02*
X14239998Y-4719670D01*
X14239998Y-4719670D02*
X14287617Y-4672051D01*
X14287617Y-4672051D02*
X14335236Y-4576813D01*
X14335236Y-4576813D02*
X14335236Y-4481575D01*
X14335236Y-4481575D02*
X14287617Y-4386337D01*
X14287617Y-4386337D02*
X14239998Y-4338718D01*
X14239998Y-4338718D02*
X14144760Y-4291099D01*
X14144760Y-4291099D02*
X13906665Y-4291099D01*
X13906665Y-4291099D02*
X13763808Y-4338718D01*
X12954284Y-5243480D02*
X13049522Y-5291099D01*
X13049522Y-5291099D02*
X13239998Y-5291099D01*
X13239998Y-5291099D02*
X13335236Y-5243480D01*
X13335236Y-5243480D02*
X13382855Y-5148241D01*
X13382855Y-5148241D02*
X13382855Y-4767289D01*
X13382855Y-4767289D02*
X13335236Y-4672051D01*
X13335236Y-4672051D02*
X13239998Y-4624432D01*
X13239998Y-4624432D02*
X13049522Y-4624432D01*
X13049522Y-4624432D02*
X12954284Y-4672051D01*
X12954284Y-4672051D02*
X12906665Y-4767289D01*
X12906665Y-4767289D02*
X12906665Y-4862527D01*
X12906665Y-4862527D02*
X13382855Y-4957765D01*
X12478093Y-4624432D02*
X12478093Y-5291099D01*
X12478093Y-4719670D02*
X12430474Y-4672051D01*
X12430474Y-4672051D02*
X12335236Y-4624432D01*
X12335236Y-4624432D02*
X12192379Y-4624432D01*
X12192379Y-4624432D02*
X12097141Y-4672051D01*
X12097141Y-4672051D02*
X12049522Y-4767289D01*
X12049522Y-4767289D02*
X12049522Y-5291099D01*
X11620950Y-5243480D02*
X11525712Y-5291099D01*
X11525712Y-5291099D02*
X11335236Y-5291099D01*
X11335236Y-5291099D02*
X11239998Y-5243480D01*
X11239998Y-5243480D02*
X11192379Y-5148241D01*
X11192379Y-5148241D02*
X11192379Y-5100622D01*
X11192379Y-5100622D02*
X11239998Y-5005384D01*
X11239998Y-5005384D02*
X11335236Y-4957765D01*
X11335236Y-4957765D02*
X11478093Y-4957765D01*
X11478093Y-4957765D02*
X11573331Y-4910146D01*
X11573331Y-4910146D02*
X11620950Y-4814908D01*
X11620950Y-4814908D02*
X11620950Y-4767289D01*
X11620950Y-4767289D02*
X11573331Y-4672051D01*
X11573331Y-4672051D02*
X11478093Y-4624432D01*
X11478093Y-4624432D02*
X11335236Y-4624432D01*
X11335236Y-4624432D02*
X11239998Y-4672051D01*
X10620950Y-5291099D02*
X10716188Y-5243480D01*
X10716188Y-5243480D02*
X10763807Y-5195860D01*
X10763807Y-5195860D02*
X10811426Y-5100622D01*
X10811426Y-5100622D02*
X10811426Y-4814908D01*
X10811426Y-4814908D02*
X10763807Y-4719670D01*
X10763807Y-4719670D02*
X10716188Y-4672051D01*
X10716188Y-4672051D02*
X10620950Y-4624432D01*
X10620950Y-4624432D02*
X10478093Y-4624432D01*
X10478093Y-4624432D02*
X10382855Y-4672051D01*
X10382855Y-4672051D02*
X10335236Y-4719670D01*
X10335236Y-4719670D02*
X10287617Y-4814908D01*
X10287617Y-4814908D02*
X10287617Y-5100622D01*
X10287617Y-5100622D02*
X10335236Y-5195860D01*
X10335236Y-5195860D02*
X10382855Y-5243480D01*
X10382855Y-5243480D02*
X10478093Y-5291099D01*
X10478093Y-5291099D02*
X10620950Y-5291099D01*
X9859045Y-5291099D02*
X9859045Y-4624432D01*
X9859045Y-4814908D02*
X9811426Y-4719670D01*
X9811426Y-4719670D02*
X9763807Y-4672051D01*
X9763807Y-4672051D02*
X9668569Y-4624432D01*
X9668569Y-4624432D02*
X9573331Y-4624432D01*
X8573330Y-4624432D02*
X8335235Y-5291099D01*
X8335235Y-5291099D02*
X8097140Y-4624432D01*
X7192378Y-5291099D02*
X7763806Y-5291099D01*
X7478092Y-5291099D02*
X7478092Y-4291099D01*
X7478092Y-4291099D02*
X7573330Y-4433956D01*
X7573330Y-4433956D02*
X7668568Y-4529194D01*
X7668568Y-4529194D02*
X7763806Y-4576813D01*
X6763806Y-5195860D02*
X6716187Y-5243480D01*
X6716187Y-5243480D02*
X6763806Y-5291099D01*
X6763806Y-5291099D02*
X6811425Y-5243480D01*
X6811425Y-5243480D02*
X6763806Y-5195860D01*
X6763806Y-5195860D02*
X6763806Y-5291099D01*
X6097140Y-4291099D02*
X6001902Y-4291099D01*
X6001902Y-4291099D02*
X5906664Y-4338718D01*
X5906664Y-4338718D02*
X5859045Y-4386337D01*
X5859045Y-4386337D02*
X5811426Y-4481575D01*
X5811426Y-4481575D02*
X5763807Y-4672051D01*
X5763807Y-4672051D02*
X5763807Y-4910146D01*
X5763807Y-4910146D02*
X5811426Y-5100622D01*
X5811426Y-5100622D02*
X5859045Y-5195860D01*
X5859045Y-5195860D02*
X5906664Y-5243480D01*
X5906664Y-5243480D02*
X6001902Y-5291099D01*
X6001902Y-5291099D02*
X6097140Y-5291099D01*
X6097140Y-5291099D02*
X6192378Y-5243480D01*
X6192378Y-5243480D02*
X6239997Y-5195860D01*
X6239997Y-5195860D02*
X6287616Y-5100622D01*
X6287616Y-5100622D02*
X6335235Y-4910146D01*
X6335235Y-4910146D02*
X6335235Y-4672051D01*
X6335235Y-4672051D02*
X6287616Y-4481575D01*
X6287616Y-4481575D02*
X6239997Y-4386337D01*
X6239997Y-4386337D02*
X6192378Y-4338718D01*
X6192378Y-4338718D02*
X6097140Y-4291099D01*
D12*
X6950000Y-23250000D03*
X8950000Y-23250000D03*
X10950000Y-23250000D03*
X12950000Y-23250000D03*
X22500000Y-2550000D03*
X2500000Y-22500000D03*
M02*
