%TF.GenerationSoftware,KiCad,Pcbnew,8.0.6-8.0.6-0~ubuntu24.04.1*%
%TF.CreationDate,2024-10-19T18:08:10+01:00*%
%TF.ProjectId,Magnet,4d61676e-6574-42e6-9b69-6361645f7063,rev?*%
%TF.SameCoordinates,Original*%
%TF.FileFunction,Other,ECO1*%
%FSLAX46Y46*%
G04 Gerber Fmt 4.6, Leading zero omitted, Abs format (unit mm)*
G04 Created by KiCad (PCBNEW 8.0.6-8.0.6-0~ubuntu24.04.1) date 2024-10-19 18:08:10*
%MOMM*%
%LPD*%
G01*
G04 APERTURE LIST*
%ADD10C,0.075000*%
%ADD11C,0.150000*%
%ADD12C,0.350000*%
G04 APERTURE END LIST*
D10*
X16678572Y-23569885D02*
X16678572Y-23769885D01*
X16607143Y-23455600D02*
X16535714Y-23669885D01*
X16535714Y-23669885D02*
X16721429Y-23669885D01*
X16835714Y-23741314D02*
X16850000Y-23755600D01*
X16850000Y-23755600D02*
X16835714Y-23769885D01*
X16835714Y-23769885D02*
X16821428Y-23755600D01*
X16821428Y-23755600D02*
X16835714Y-23741314D01*
X16835714Y-23741314D02*
X16835714Y-23769885D01*
X16950000Y-23469885D02*
X17150000Y-23469885D01*
X17150000Y-23469885D02*
X17021428Y-23769885D01*
X17392857Y-23569885D02*
X17392857Y-23769885D01*
X17264285Y-23569885D02*
X17264285Y-23727028D01*
X17264285Y-23727028D02*
X17278571Y-23755600D01*
X17278571Y-23755600D02*
X17307142Y-23769885D01*
X17307142Y-23769885D02*
X17349999Y-23769885D01*
X17349999Y-23769885D02*
X17378571Y-23755600D01*
X17378571Y-23755600D02*
X17392857Y-23741314D01*
X17635714Y-23612742D02*
X17535714Y-23612742D01*
X17535714Y-23769885D02*
X17535714Y-23469885D01*
X17535714Y-23469885D02*
X17678571Y-23469885D01*
X556901Y-20519382D02*
X456901Y-20519382D01*
X456901Y-20676525D02*
X456901Y-20376525D01*
X456901Y-20376525D02*
X599758Y-20376525D01*
X814044Y-20519382D02*
X714044Y-20519382D01*
X714044Y-20676525D02*
X714044Y-20376525D01*
X714044Y-20376525D02*
X856901Y-20376525D01*
X1142616Y-20647954D02*
X1128330Y-20662240D01*
X1128330Y-20662240D02*
X1085473Y-20676525D01*
X1085473Y-20676525D02*
X1056901Y-20676525D01*
X1056901Y-20676525D02*
X1014044Y-20662240D01*
X1014044Y-20662240D02*
X985473Y-20633668D01*
X985473Y-20633668D02*
X971187Y-20605097D01*
X971187Y-20605097D02*
X956901Y-20547954D01*
X956901Y-20547954D02*
X956901Y-20505097D01*
X956901Y-20505097D02*
X971187Y-20447954D01*
X971187Y-20447954D02*
X985473Y-20419382D01*
X985473Y-20419382D02*
X1014044Y-20390811D01*
X1014044Y-20390811D02*
X1056901Y-20376525D01*
X1056901Y-20376525D02*
X1085473Y-20376525D01*
X1085473Y-20376525D02*
X1128330Y-20390811D01*
X1128330Y-20390811D02*
X1142616Y-20405097D01*
X1199759Y-20705097D02*
X1428330Y-20705097D01*
X1628330Y-20662240D02*
X1599758Y-20676525D01*
X1599758Y-20676525D02*
X1542615Y-20676525D01*
X1542615Y-20676525D02*
X1514044Y-20662240D01*
X1514044Y-20662240D02*
X1499758Y-20647954D01*
X1499758Y-20647954D02*
X1485472Y-20619382D01*
X1485472Y-20619382D02*
X1485472Y-20533668D01*
X1485472Y-20533668D02*
X1499758Y-20505097D01*
X1499758Y-20505097D02*
X1514044Y-20490811D01*
X1514044Y-20490811D02*
X1542615Y-20476525D01*
X1542615Y-20476525D02*
X1599758Y-20476525D01*
X1599758Y-20476525D02*
X1628330Y-20490811D01*
X1799758Y-20676525D02*
X1771187Y-20662240D01*
X1771187Y-20662240D02*
X1756901Y-20647954D01*
X1756901Y-20647954D02*
X1742615Y-20619382D01*
X1742615Y-20619382D02*
X1742615Y-20533668D01*
X1742615Y-20533668D02*
X1756901Y-20505097D01*
X1756901Y-20505097D02*
X1771187Y-20490811D01*
X1771187Y-20490811D02*
X1799758Y-20476525D01*
X1799758Y-20476525D02*
X1842615Y-20476525D01*
X1842615Y-20476525D02*
X1871187Y-20490811D01*
X1871187Y-20490811D02*
X1885473Y-20505097D01*
X1885473Y-20505097D02*
X1899758Y-20533668D01*
X1899758Y-20533668D02*
X1899758Y-20619382D01*
X1899758Y-20619382D02*
X1885473Y-20647954D01*
X1885473Y-20647954D02*
X1871187Y-20662240D01*
X1871187Y-20662240D02*
X1842615Y-20676525D01*
X1842615Y-20676525D02*
X1799758Y-20676525D01*
X2028330Y-20476525D02*
X2028330Y-20676525D01*
X2028330Y-20505097D02*
X2042616Y-20490811D01*
X2042616Y-20490811D02*
X2071187Y-20476525D01*
X2071187Y-20476525D02*
X2114044Y-20476525D01*
X2114044Y-20476525D02*
X2142616Y-20490811D01*
X2142616Y-20490811D02*
X2156902Y-20519382D01*
X2156902Y-20519382D02*
X2156902Y-20676525D01*
X2299759Y-20476525D02*
X2299759Y-20676525D01*
X2299759Y-20505097D02*
X2314045Y-20490811D01*
X2314045Y-20490811D02*
X2342616Y-20476525D01*
X2342616Y-20476525D02*
X2385473Y-20476525D01*
X2385473Y-20476525D02*
X2414045Y-20490811D01*
X2414045Y-20490811D02*
X2428331Y-20519382D01*
X2428331Y-20519382D02*
X2428331Y-20676525D01*
X2685474Y-20662240D02*
X2656902Y-20676525D01*
X2656902Y-20676525D02*
X2599760Y-20676525D01*
X2599760Y-20676525D02*
X2571188Y-20662240D01*
X2571188Y-20662240D02*
X2556902Y-20633668D01*
X2556902Y-20633668D02*
X2556902Y-20519382D01*
X2556902Y-20519382D02*
X2571188Y-20490811D01*
X2571188Y-20490811D02*
X2599760Y-20476525D01*
X2599760Y-20476525D02*
X2656902Y-20476525D01*
X2656902Y-20476525D02*
X2685474Y-20490811D01*
X2685474Y-20490811D02*
X2699760Y-20519382D01*
X2699760Y-20519382D02*
X2699760Y-20547954D01*
X2699760Y-20547954D02*
X2556902Y-20576525D01*
X2956903Y-20662240D02*
X2928331Y-20676525D01*
X2928331Y-20676525D02*
X2871188Y-20676525D01*
X2871188Y-20676525D02*
X2842617Y-20662240D01*
X2842617Y-20662240D02*
X2828331Y-20647954D01*
X2828331Y-20647954D02*
X2814045Y-20619382D01*
X2814045Y-20619382D02*
X2814045Y-20533668D01*
X2814045Y-20533668D02*
X2828331Y-20505097D01*
X2828331Y-20505097D02*
X2842617Y-20490811D01*
X2842617Y-20490811D02*
X2871188Y-20476525D01*
X2871188Y-20476525D02*
X2928331Y-20476525D01*
X2928331Y-20476525D02*
X2956903Y-20490811D01*
X3042617Y-20476525D02*
X3156903Y-20476525D01*
X3085474Y-20376525D02*
X3085474Y-20633668D01*
X3085474Y-20633668D02*
X3099760Y-20662240D01*
X3099760Y-20662240D02*
X3128331Y-20676525D01*
X3128331Y-20676525D02*
X3156903Y-20676525D01*
X3299760Y-20676525D02*
X3271189Y-20662240D01*
X3271189Y-20662240D02*
X3256903Y-20647954D01*
X3256903Y-20647954D02*
X3242617Y-20619382D01*
X3242617Y-20619382D02*
X3242617Y-20533668D01*
X3242617Y-20533668D02*
X3256903Y-20505097D01*
X3256903Y-20505097D02*
X3271189Y-20490811D01*
X3271189Y-20490811D02*
X3299760Y-20476525D01*
X3299760Y-20476525D02*
X3342617Y-20476525D01*
X3342617Y-20476525D02*
X3371189Y-20490811D01*
X3371189Y-20490811D02*
X3385475Y-20505097D01*
X3385475Y-20505097D02*
X3399760Y-20533668D01*
X3399760Y-20533668D02*
X3399760Y-20619382D01*
X3399760Y-20619382D02*
X3385475Y-20647954D01*
X3385475Y-20647954D02*
X3371189Y-20662240D01*
X3371189Y-20662240D02*
X3342617Y-20676525D01*
X3342617Y-20676525D02*
X3299760Y-20676525D01*
X3528332Y-20676525D02*
X3528332Y-20476525D01*
X3528332Y-20533668D02*
X3542618Y-20505097D01*
X3542618Y-20505097D02*
X3556904Y-20490811D01*
X3556904Y-20490811D02*
X3585475Y-20476525D01*
X3585475Y-20476525D02*
X3614046Y-20476525D01*
X3642618Y-20705097D02*
X3871189Y-20705097D01*
X4099760Y-20676525D02*
X3928331Y-20676525D01*
X4014046Y-20676525D02*
X4014046Y-20376525D01*
X4014046Y-20376525D02*
X3985474Y-20419382D01*
X3985474Y-20419382D02*
X3956903Y-20447954D01*
X3956903Y-20447954D02*
X3928331Y-20462240D01*
X4356903Y-20376525D02*
X4299760Y-20376525D01*
X4299760Y-20376525D02*
X4271188Y-20390811D01*
X4271188Y-20390811D02*
X4256903Y-20405097D01*
X4256903Y-20405097D02*
X4228331Y-20447954D01*
X4228331Y-20447954D02*
X4214045Y-20505097D01*
X4214045Y-20505097D02*
X4214045Y-20619382D01*
X4214045Y-20619382D02*
X4228331Y-20647954D01*
X4228331Y-20647954D02*
X4242617Y-20662240D01*
X4242617Y-20662240D02*
X4271188Y-20676525D01*
X4271188Y-20676525D02*
X4328331Y-20676525D01*
X4328331Y-20676525D02*
X4356903Y-20662240D01*
X4356903Y-20662240D02*
X4371188Y-20647954D01*
X4371188Y-20647954D02*
X4385474Y-20619382D01*
X4385474Y-20619382D02*
X4385474Y-20547954D01*
X4385474Y-20547954D02*
X4371188Y-20519382D01*
X4371188Y-20519382D02*
X4356903Y-20505097D01*
X4356903Y-20505097D02*
X4328331Y-20490811D01*
X4328331Y-20490811D02*
X4271188Y-20490811D01*
X4271188Y-20490811D02*
X4242617Y-20505097D01*
X4242617Y-20505097D02*
X4228331Y-20519382D01*
X4228331Y-20519382D02*
X4214045Y-20547954D01*
X4514045Y-20476525D02*
X4514045Y-20776525D01*
X4514045Y-20490811D02*
X4542617Y-20476525D01*
X4542617Y-20476525D02*
X4599759Y-20476525D01*
X4599759Y-20476525D02*
X4628331Y-20490811D01*
X4628331Y-20490811D02*
X4642617Y-20505097D01*
X4642617Y-20505097D02*
X4656902Y-20533668D01*
X4656902Y-20533668D02*
X4656902Y-20619382D01*
X4656902Y-20619382D02*
X4642617Y-20647954D01*
X4642617Y-20647954D02*
X4628331Y-20662240D01*
X4628331Y-20662240D02*
X4599759Y-20676525D01*
X4599759Y-20676525D02*
X4542617Y-20676525D01*
X4542617Y-20676525D02*
X4514045Y-20662240D01*
X4714046Y-20705097D02*
X4942617Y-20705097D01*
X5014045Y-20676525D02*
X5014045Y-20376525D01*
X5142617Y-20676525D02*
X5142617Y-20519382D01*
X5142617Y-20519382D02*
X5128331Y-20490811D01*
X5128331Y-20490811D02*
X5099759Y-20476525D01*
X5099759Y-20476525D02*
X5056902Y-20476525D01*
X5056902Y-20476525D02*
X5028331Y-20490811D01*
X5028331Y-20490811D02*
X5014045Y-20505097D01*
X5285474Y-20676525D02*
X5285474Y-20476525D01*
X5285474Y-20376525D02*
X5271188Y-20390811D01*
X5271188Y-20390811D02*
X5285474Y-20405097D01*
X5285474Y-20405097D02*
X5299760Y-20390811D01*
X5299760Y-20390811D02*
X5285474Y-20376525D01*
X5285474Y-20376525D02*
X5285474Y-20405097D01*
X5428331Y-20476525D02*
X5428331Y-20676525D01*
X5428331Y-20505097D02*
X5442617Y-20490811D01*
X5442617Y-20490811D02*
X5471188Y-20476525D01*
X5471188Y-20476525D02*
X5514045Y-20476525D01*
X5514045Y-20476525D02*
X5542617Y-20490811D01*
X5542617Y-20490811D02*
X5556903Y-20519382D01*
X5556903Y-20519382D02*
X5556903Y-20676525D01*
X5828332Y-20476525D02*
X5828332Y-20719382D01*
X5828332Y-20719382D02*
X5814046Y-20747954D01*
X5814046Y-20747954D02*
X5799760Y-20762240D01*
X5799760Y-20762240D02*
X5771189Y-20776525D01*
X5771189Y-20776525D02*
X5728332Y-20776525D01*
X5728332Y-20776525D02*
X5699760Y-20762240D01*
X5828332Y-20662240D02*
X5799760Y-20676525D01*
X5799760Y-20676525D02*
X5742617Y-20676525D01*
X5742617Y-20676525D02*
X5714046Y-20662240D01*
X5714046Y-20662240D02*
X5699760Y-20647954D01*
X5699760Y-20647954D02*
X5685474Y-20619382D01*
X5685474Y-20619382D02*
X5685474Y-20533668D01*
X5685474Y-20533668D02*
X5699760Y-20505097D01*
X5699760Y-20505097D02*
X5714046Y-20490811D01*
X5714046Y-20490811D02*
X5742617Y-20476525D01*
X5742617Y-20476525D02*
X5799760Y-20476525D01*
X5799760Y-20476525D02*
X5828332Y-20490811D01*
X6085475Y-20662240D02*
X6056903Y-20676525D01*
X6056903Y-20676525D02*
X5999761Y-20676525D01*
X5999761Y-20676525D02*
X5971189Y-20662240D01*
X5971189Y-20662240D02*
X5956903Y-20633668D01*
X5956903Y-20633668D02*
X5956903Y-20519382D01*
X5956903Y-20519382D02*
X5971189Y-20490811D01*
X5971189Y-20490811D02*
X5999761Y-20476525D01*
X5999761Y-20476525D02*
X6056903Y-20476525D01*
X6056903Y-20476525D02*
X6085475Y-20490811D01*
X6085475Y-20490811D02*
X6099761Y-20519382D01*
X6099761Y-20519382D02*
X6099761Y-20547954D01*
X6099761Y-20547954D02*
X5956903Y-20576525D01*
X6156904Y-20705097D02*
X6385475Y-20705097D01*
X6499760Y-20676525D02*
X6471189Y-20662240D01*
X6471189Y-20662240D02*
X6456903Y-20633668D01*
X6456903Y-20633668D02*
X6456903Y-20376525D01*
X6656903Y-20676525D02*
X6628332Y-20662240D01*
X6628332Y-20662240D02*
X6614046Y-20647954D01*
X6614046Y-20647954D02*
X6599760Y-20619382D01*
X6599760Y-20619382D02*
X6599760Y-20533668D01*
X6599760Y-20533668D02*
X6614046Y-20505097D01*
X6614046Y-20505097D02*
X6628332Y-20490811D01*
X6628332Y-20490811D02*
X6656903Y-20476525D01*
X6656903Y-20476525D02*
X6699760Y-20476525D01*
X6699760Y-20476525D02*
X6728332Y-20490811D01*
X6728332Y-20490811D02*
X6742618Y-20505097D01*
X6742618Y-20505097D02*
X6756903Y-20533668D01*
X6756903Y-20533668D02*
X6756903Y-20619382D01*
X6756903Y-20619382D02*
X6742618Y-20647954D01*
X6742618Y-20647954D02*
X6728332Y-20662240D01*
X6728332Y-20662240D02*
X6699760Y-20676525D01*
X6699760Y-20676525D02*
X6656903Y-20676525D01*
X7014047Y-20662240D02*
X6985475Y-20676525D01*
X6985475Y-20676525D02*
X6928332Y-20676525D01*
X6928332Y-20676525D02*
X6899761Y-20662240D01*
X6899761Y-20662240D02*
X6885475Y-20647954D01*
X6885475Y-20647954D02*
X6871189Y-20619382D01*
X6871189Y-20619382D02*
X6871189Y-20533668D01*
X6871189Y-20533668D02*
X6885475Y-20505097D01*
X6885475Y-20505097D02*
X6899761Y-20490811D01*
X6899761Y-20490811D02*
X6928332Y-20476525D01*
X6928332Y-20476525D02*
X6985475Y-20476525D01*
X6985475Y-20476525D02*
X7014047Y-20490811D01*
X7142618Y-20676525D02*
X7142618Y-20376525D01*
X7171190Y-20562240D02*
X7256904Y-20676525D01*
X7256904Y-20476525D02*
X7142618Y-20590811D01*
X17857381Y-4436102D02*
X17757381Y-4436102D01*
X17757381Y-4593245D02*
X17757381Y-4293245D01*
X17757381Y-4293245D02*
X17900238Y-4293245D01*
X18114524Y-4436102D02*
X18014524Y-4436102D01*
X18014524Y-4593245D02*
X18014524Y-4293245D01*
X18014524Y-4293245D02*
X18157381Y-4293245D01*
X18443096Y-4564674D02*
X18428810Y-4578960D01*
X18428810Y-4578960D02*
X18385953Y-4593245D01*
X18385953Y-4593245D02*
X18357381Y-4593245D01*
X18357381Y-4593245D02*
X18314524Y-4578960D01*
X18314524Y-4578960D02*
X18285953Y-4550388D01*
X18285953Y-4550388D02*
X18271667Y-4521817D01*
X18271667Y-4521817D02*
X18257381Y-4464674D01*
X18257381Y-4464674D02*
X18257381Y-4421817D01*
X18257381Y-4421817D02*
X18271667Y-4364674D01*
X18271667Y-4364674D02*
X18285953Y-4336102D01*
X18285953Y-4336102D02*
X18314524Y-4307531D01*
X18314524Y-4307531D02*
X18357381Y-4293245D01*
X18357381Y-4293245D02*
X18385953Y-4293245D01*
X18385953Y-4293245D02*
X18428810Y-4307531D01*
X18428810Y-4307531D02*
X18443096Y-4321817D01*
X18500239Y-4621817D02*
X18728810Y-4621817D01*
X18928810Y-4578960D02*
X18900238Y-4593245D01*
X18900238Y-4593245D02*
X18843095Y-4593245D01*
X18843095Y-4593245D02*
X18814524Y-4578960D01*
X18814524Y-4578960D02*
X18800238Y-4564674D01*
X18800238Y-4564674D02*
X18785952Y-4536102D01*
X18785952Y-4536102D02*
X18785952Y-4450388D01*
X18785952Y-4450388D02*
X18800238Y-4421817D01*
X18800238Y-4421817D02*
X18814524Y-4407531D01*
X18814524Y-4407531D02*
X18843095Y-4393245D01*
X18843095Y-4393245D02*
X18900238Y-4393245D01*
X18900238Y-4393245D02*
X18928810Y-4407531D01*
X19100238Y-4593245D02*
X19071667Y-4578960D01*
X19071667Y-4578960D02*
X19057381Y-4564674D01*
X19057381Y-4564674D02*
X19043095Y-4536102D01*
X19043095Y-4536102D02*
X19043095Y-4450388D01*
X19043095Y-4450388D02*
X19057381Y-4421817D01*
X19057381Y-4421817D02*
X19071667Y-4407531D01*
X19071667Y-4407531D02*
X19100238Y-4393245D01*
X19100238Y-4393245D02*
X19143095Y-4393245D01*
X19143095Y-4393245D02*
X19171667Y-4407531D01*
X19171667Y-4407531D02*
X19185953Y-4421817D01*
X19185953Y-4421817D02*
X19200238Y-4450388D01*
X19200238Y-4450388D02*
X19200238Y-4536102D01*
X19200238Y-4536102D02*
X19185953Y-4564674D01*
X19185953Y-4564674D02*
X19171667Y-4578960D01*
X19171667Y-4578960D02*
X19143095Y-4593245D01*
X19143095Y-4593245D02*
X19100238Y-4593245D01*
X19328810Y-4393245D02*
X19328810Y-4593245D01*
X19328810Y-4421817D02*
X19343096Y-4407531D01*
X19343096Y-4407531D02*
X19371667Y-4393245D01*
X19371667Y-4393245D02*
X19414524Y-4393245D01*
X19414524Y-4393245D02*
X19443096Y-4407531D01*
X19443096Y-4407531D02*
X19457382Y-4436102D01*
X19457382Y-4436102D02*
X19457382Y-4593245D01*
X19600239Y-4393245D02*
X19600239Y-4593245D01*
X19600239Y-4421817D02*
X19614525Y-4407531D01*
X19614525Y-4407531D02*
X19643096Y-4393245D01*
X19643096Y-4393245D02*
X19685953Y-4393245D01*
X19685953Y-4393245D02*
X19714525Y-4407531D01*
X19714525Y-4407531D02*
X19728811Y-4436102D01*
X19728811Y-4436102D02*
X19728811Y-4593245D01*
X19985954Y-4578960D02*
X19957382Y-4593245D01*
X19957382Y-4593245D02*
X19900240Y-4593245D01*
X19900240Y-4593245D02*
X19871668Y-4578960D01*
X19871668Y-4578960D02*
X19857382Y-4550388D01*
X19857382Y-4550388D02*
X19857382Y-4436102D01*
X19857382Y-4436102D02*
X19871668Y-4407531D01*
X19871668Y-4407531D02*
X19900240Y-4393245D01*
X19900240Y-4393245D02*
X19957382Y-4393245D01*
X19957382Y-4393245D02*
X19985954Y-4407531D01*
X19985954Y-4407531D02*
X20000240Y-4436102D01*
X20000240Y-4436102D02*
X20000240Y-4464674D01*
X20000240Y-4464674D02*
X19857382Y-4493245D01*
X20257383Y-4578960D02*
X20228811Y-4593245D01*
X20228811Y-4593245D02*
X20171668Y-4593245D01*
X20171668Y-4593245D02*
X20143097Y-4578960D01*
X20143097Y-4578960D02*
X20128811Y-4564674D01*
X20128811Y-4564674D02*
X20114525Y-4536102D01*
X20114525Y-4536102D02*
X20114525Y-4450388D01*
X20114525Y-4450388D02*
X20128811Y-4421817D01*
X20128811Y-4421817D02*
X20143097Y-4407531D01*
X20143097Y-4407531D02*
X20171668Y-4393245D01*
X20171668Y-4393245D02*
X20228811Y-4393245D01*
X20228811Y-4393245D02*
X20257383Y-4407531D01*
X20343097Y-4393245D02*
X20457383Y-4393245D01*
X20385954Y-4293245D02*
X20385954Y-4550388D01*
X20385954Y-4550388D02*
X20400240Y-4578960D01*
X20400240Y-4578960D02*
X20428811Y-4593245D01*
X20428811Y-4593245D02*
X20457383Y-4593245D01*
X20600240Y-4593245D02*
X20571669Y-4578960D01*
X20571669Y-4578960D02*
X20557383Y-4564674D01*
X20557383Y-4564674D02*
X20543097Y-4536102D01*
X20543097Y-4536102D02*
X20543097Y-4450388D01*
X20543097Y-4450388D02*
X20557383Y-4421817D01*
X20557383Y-4421817D02*
X20571669Y-4407531D01*
X20571669Y-4407531D02*
X20600240Y-4393245D01*
X20600240Y-4393245D02*
X20643097Y-4393245D01*
X20643097Y-4393245D02*
X20671669Y-4407531D01*
X20671669Y-4407531D02*
X20685955Y-4421817D01*
X20685955Y-4421817D02*
X20700240Y-4450388D01*
X20700240Y-4450388D02*
X20700240Y-4536102D01*
X20700240Y-4536102D02*
X20685955Y-4564674D01*
X20685955Y-4564674D02*
X20671669Y-4578960D01*
X20671669Y-4578960D02*
X20643097Y-4593245D01*
X20643097Y-4593245D02*
X20600240Y-4593245D01*
X20828812Y-4593245D02*
X20828812Y-4393245D01*
X20828812Y-4450388D02*
X20843098Y-4421817D01*
X20843098Y-4421817D02*
X20857384Y-4407531D01*
X20857384Y-4407531D02*
X20885955Y-4393245D01*
X20885955Y-4393245D02*
X20914526Y-4393245D01*
X20943098Y-4621817D02*
X21171669Y-4621817D01*
X21400240Y-4593245D02*
X21228811Y-4593245D01*
X21314526Y-4593245D02*
X21314526Y-4293245D01*
X21314526Y-4293245D02*
X21285954Y-4336102D01*
X21285954Y-4336102D02*
X21257383Y-4364674D01*
X21257383Y-4364674D02*
X21228811Y-4378960D01*
X21657383Y-4293245D02*
X21600240Y-4293245D01*
X21600240Y-4293245D02*
X21571668Y-4307531D01*
X21571668Y-4307531D02*
X21557383Y-4321817D01*
X21557383Y-4321817D02*
X21528811Y-4364674D01*
X21528811Y-4364674D02*
X21514525Y-4421817D01*
X21514525Y-4421817D02*
X21514525Y-4536102D01*
X21514525Y-4536102D02*
X21528811Y-4564674D01*
X21528811Y-4564674D02*
X21543097Y-4578960D01*
X21543097Y-4578960D02*
X21571668Y-4593245D01*
X21571668Y-4593245D02*
X21628811Y-4593245D01*
X21628811Y-4593245D02*
X21657383Y-4578960D01*
X21657383Y-4578960D02*
X21671668Y-4564674D01*
X21671668Y-4564674D02*
X21685954Y-4536102D01*
X21685954Y-4536102D02*
X21685954Y-4464674D01*
X21685954Y-4464674D02*
X21671668Y-4436102D01*
X21671668Y-4436102D02*
X21657383Y-4421817D01*
X21657383Y-4421817D02*
X21628811Y-4407531D01*
X21628811Y-4407531D02*
X21571668Y-4407531D01*
X21571668Y-4407531D02*
X21543097Y-4421817D01*
X21543097Y-4421817D02*
X21528811Y-4436102D01*
X21528811Y-4436102D02*
X21514525Y-4464674D01*
X21814525Y-4393245D02*
X21814525Y-4693245D01*
X21814525Y-4407531D02*
X21843097Y-4393245D01*
X21843097Y-4393245D02*
X21900239Y-4393245D01*
X21900239Y-4393245D02*
X21928811Y-4407531D01*
X21928811Y-4407531D02*
X21943097Y-4421817D01*
X21943097Y-4421817D02*
X21957382Y-4450388D01*
X21957382Y-4450388D02*
X21957382Y-4536102D01*
X21957382Y-4536102D02*
X21943097Y-4564674D01*
X21943097Y-4564674D02*
X21928811Y-4578960D01*
X21928811Y-4578960D02*
X21900239Y-4593245D01*
X21900239Y-4593245D02*
X21843097Y-4593245D01*
X21843097Y-4593245D02*
X21814525Y-4578960D01*
X22014526Y-4621817D02*
X22243097Y-4621817D01*
X22314525Y-4593245D02*
X22314525Y-4293245D01*
X22443097Y-4593245D02*
X22443097Y-4436102D01*
X22443097Y-4436102D02*
X22428811Y-4407531D01*
X22428811Y-4407531D02*
X22400239Y-4393245D01*
X22400239Y-4393245D02*
X22357382Y-4393245D01*
X22357382Y-4393245D02*
X22328811Y-4407531D01*
X22328811Y-4407531D02*
X22314525Y-4421817D01*
X22585954Y-4593245D02*
X22585954Y-4393245D01*
X22585954Y-4293245D02*
X22571668Y-4307531D01*
X22571668Y-4307531D02*
X22585954Y-4321817D01*
X22585954Y-4321817D02*
X22600240Y-4307531D01*
X22600240Y-4307531D02*
X22585954Y-4293245D01*
X22585954Y-4293245D02*
X22585954Y-4321817D01*
X22728811Y-4393245D02*
X22728811Y-4593245D01*
X22728811Y-4421817D02*
X22743097Y-4407531D01*
X22743097Y-4407531D02*
X22771668Y-4393245D01*
X22771668Y-4393245D02*
X22814525Y-4393245D01*
X22814525Y-4393245D02*
X22843097Y-4407531D01*
X22843097Y-4407531D02*
X22857383Y-4436102D01*
X22857383Y-4436102D02*
X22857383Y-4593245D01*
X23128812Y-4393245D02*
X23128812Y-4636102D01*
X23128812Y-4636102D02*
X23114526Y-4664674D01*
X23114526Y-4664674D02*
X23100240Y-4678960D01*
X23100240Y-4678960D02*
X23071669Y-4693245D01*
X23071669Y-4693245D02*
X23028812Y-4693245D01*
X23028812Y-4693245D02*
X23000240Y-4678960D01*
X23128812Y-4578960D02*
X23100240Y-4593245D01*
X23100240Y-4593245D02*
X23043097Y-4593245D01*
X23043097Y-4593245D02*
X23014526Y-4578960D01*
X23014526Y-4578960D02*
X23000240Y-4564674D01*
X23000240Y-4564674D02*
X22985954Y-4536102D01*
X22985954Y-4536102D02*
X22985954Y-4450388D01*
X22985954Y-4450388D02*
X23000240Y-4421817D01*
X23000240Y-4421817D02*
X23014526Y-4407531D01*
X23014526Y-4407531D02*
X23043097Y-4393245D01*
X23043097Y-4393245D02*
X23100240Y-4393245D01*
X23100240Y-4393245D02*
X23128812Y-4407531D01*
X23385955Y-4578960D02*
X23357383Y-4593245D01*
X23357383Y-4593245D02*
X23300241Y-4593245D01*
X23300241Y-4593245D02*
X23271669Y-4578960D01*
X23271669Y-4578960D02*
X23257383Y-4550388D01*
X23257383Y-4550388D02*
X23257383Y-4436102D01*
X23257383Y-4436102D02*
X23271669Y-4407531D01*
X23271669Y-4407531D02*
X23300241Y-4393245D01*
X23300241Y-4393245D02*
X23357383Y-4393245D01*
X23357383Y-4393245D02*
X23385955Y-4407531D01*
X23385955Y-4407531D02*
X23400241Y-4436102D01*
X23400241Y-4436102D02*
X23400241Y-4464674D01*
X23400241Y-4464674D02*
X23257383Y-4493245D01*
X23457384Y-4621817D02*
X23685955Y-4621817D01*
X23800240Y-4593245D02*
X23771669Y-4578960D01*
X23771669Y-4578960D02*
X23757383Y-4550388D01*
X23757383Y-4550388D02*
X23757383Y-4293245D01*
X23957383Y-4593245D02*
X23928812Y-4578960D01*
X23928812Y-4578960D02*
X23914526Y-4564674D01*
X23914526Y-4564674D02*
X23900240Y-4536102D01*
X23900240Y-4536102D02*
X23900240Y-4450388D01*
X23900240Y-4450388D02*
X23914526Y-4421817D01*
X23914526Y-4421817D02*
X23928812Y-4407531D01*
X23928812Y-4407531D02*
X23957383Y-4393245D01*
X23957383Y-4393245D02*
X24000240Y-4393245D01*
X24000240Y-4393245D02*
X24028812Y-4407531D01*
X24028812Y-4407531D02*
X24043098Y-4421817D01*
X24043098Y-4421817D02*
X24057383Y-4450388D01*
X24057383Y-4450388D02*
X24057383Y-4536102D01*
X24057383Y-4536102D02*
X24043098Y-4564674D01*
X24043098Y-4564674D02*
X24028812Y-4578960D01*
X24028812Y-4578960D02*
X24000240Y-4593245D01*
X24000240Y-4593245D02*
X23957383Y-4593245D01*
X24314527Y-4578960D02*
X24285955Y-4593245D01*
X24285955Y-4593245D02*
X24228812Y-4593245D01*
X24228812Y-4593245D02*
X24200241Y-4578960D01*
X24200241Y-4578960D02*
X24185955Y-4564674D01*
X24185955Y-4564674D02*
X24171669Y-4536102D01*
X24171669Y-4536102D02*
X24171669Y-4450388D01*
X24171669Y-4450388D02*
X24185955Y-4421817D01*
X24185955Y-4421817D02*
X24200241Y-4407531D01*
X24200241Y-4407531D02*
X24228812Y-4393245D01*
X24228812Y-4393245D02*
X24285955Y-4393245D01*
X24285955Y-4393245D02*
X24314527Y-4407531D01*
X24443098Y-4593245D02*
X24443098Y-4293245D01*
X24471670Y-4478960D02*
X24557384Y-4593245D01*
X24557384Y-4393245D02*
X24443098Y-4507531D01*
X21678572Y-22704885D02*
X21678572Y-22904885D01*
X21607143Y-22590600D02*
X21535714Y-22804885D01*
X21535714Y-22804885D02*
X21721429Y-22804885D01*
X21835714Y-22876314D02*
X21850000Y-22890600D01*
X21850000Y-22890600D02*
X21835714Y-22904885D01*
X21835714Y-22904885D02*
X21821428Y-22890600D01*
X21821428Y-22890600D02*
X21835714Y-22876314D01*
X21835714Y-22876314D02*
X21835714Y-22904885D01*
X21950000Y-22604885D02*
X22150000Y-22604885D01*
X22150000Y-22604885D02*
X22021428Y-22904885D01*
X22392857Y-22704885D02*
X22392857Y-22904885D01*
X22264285Y-22704885D02*
X22264285Y-22862028D01*
X22264285Y-22862028D02*
X22278571Y-22890600D01*
X22278571Y-22890600D02*
X22307142Y-22904885D01*
X22307142Y-22904885D02*
X22349999Y-22904885D01*
X22349999Y-22904885D02*
X22378571Y-22890600D01*
X22378571Y-22890600D02*
X22392857Y-22876314D01*
X22635714Y-22747742D02*
X22535714Y-22747742D01*
X22535714Y-22904885D02*
X22535714Y-22604885D01*
X22535714Y-22604885D02*
X22678571Y-22604885D01*
X22634885Y-24049999D02*
X22334885Y-24049999D01*
X22334885Y-24049999D02*
X22549171Y-23949999D01*
X22549171Y-23949999D02*
X22334885Y-23849999D01*
X22334885Y-23849999D02*
X22634885Y-23849999D01*
X22477742Y-23707142D02*
X22477742Y-23607142D01*
X22634885Y-23564285D02*
X22634885Y-23707142D01*
X22634885Y-23707142D02*
X22334885Y-23707142D01*
X22334885Y-23707142D02*
X22334885Y-23564285D01*
X22334885Y-23307142D02*
X22334885Y-23364284D01*
X22334885Y-23364284D02*
X22349171Y-23392856D01*
X22349171Y-23392856D02*
X22363457Y-23407142D01*
X22363457Y-23407142D02*
X22406314Y-23435713D01*
X22406314Y-23435713D02*
X22463457Y-23449999D01*
X22463457Y-23449999D02*
X22577742Y-23449999D01*
X22577742Y-23449999D02*
X22606314Y-23435713D01*
X22606314Y-23435713D02*
X22620600Y-23421427D01*
X22620600Y-23421427D02*
X22634885Y-23392856D01*
X22634885Y-23392856D02*
X22634885Y-23335713D01*
X22634885Y-23335713D02*
X22620600Y-23307142D01*
X22620600Y-23307142D02*
X22606314Y-23292856D01*
X22606314Y-23292856D02*
X22577742Y-23278570D01*
X22577742Y-23278570D02*
X22506314Y-23278570D01*
X22506314Y-23278570D02*
X22477742Y-23292856D01*
X22477742Y-23292856D02*
X22463457Y-23307142D01*
X22463457Y-23307142D02*
X22449171Y-23335713D01*
X22449171Y-23335713D02*
X22449171Y-23392856D01*
X22449171Y-23392856D02*
X22463457Y-23421427D01*
X22463457Y-23421427D02*
X22477742Y-23435713D01*
X22477742Y-23435713D02*
X22506314Y-23449999D01*
X22363457Y-23164285D02*
X22349171Y-23149999D01*
X22349171Y-23149999D02*
X22334885Y-23121428D01*
X22334885Y-23121428D02*
X22334885Y-23049999D01*
X22334885Y-23049999D02*
X22349171Y-23021428D01*
X22349171Y-23021428D02*
X22363457Y-23007142D01*
X22363457Y-23007142D02*
X22392028Y-22992856D01*
X22392028Y-22992856D02*
X22420600Y-22992856D01*
X22420600Y-22992856D02*
X22463457Y-23007142D01*
X22463457Y-23007142D02*
X22634885Y-23178570D01*
X22634885Y-23178570D02*
X22634885Y-22992856D01*
X22634885Y-22707142D02*
X22634885Y-22878571D01*
X22634885Y-22792856D02*
X22334885Y-22792856D01*
X22334885Y-22792856D02*
X22377742Y-22821428D01*
X22377742Y-22821428D02*
X22406314Y-22849999D01*
X22406314Y-22849999D02*
X22420600Y-22878571D01*
X22634885Y-22421428D02*
X22634885Y-22592857D01*
X22634885Y-22507142D02*
X22334885Y-22507142D01*
X22334885Y-22507142D02*
X22377742Y-22535714D01*
X22377742Y-22535714D02*
X22406314Y-22564285D01*
X22406314Y-22564285D02*
X22420600Y-22592857D01*
X22606314Y-22121428D02*
X22620600Y-22135714D01*
X22620600Y-22135714D02*
X22634885Y-22178571D01*
X22634885Y-22178571D02*
X22634885Y-22207143D01*
X22634885Y-22207143D02*
X22620600Y-22250000D01*
X22620600Y-22250000D02*
X22592028Y-22278571D01*
X22592028Y-22278571D02*
X22563457Y-22292857D01*
X22563457Y-22292857D02*
X22506314Y-22307143D01*
X22506314Y-22307143D02*
X22463457Y-22307143D01*
X22463457Y-22307143D02*
X22406314Y-22292857D01*
X22406314Y-22292857D02*
X22377742Y-22278571D01*
X22377742Y-22278571D02*
X22349171Y-22250000D01*
X22349171Y-22250000D02*
X22334885Y-22207143D01*
X22334885Y-22207143D02*
X22334885Y-22178571D01*
X22334885Y-22178571D02*
X22349171Y-22135714D01*
X22349171Y-22135714D02*
X22363457Y-22121428D01*
X22334885Y-22021428D02*
X22334885Y-21835714D01*
X22334885Y-21835714D02*
X22449171Y-21935714D01*
X22449171Y-21935714D02*
X22449171Y-21892857D01*
X22449171Y-21892857D02*
X22463457Y-21864286D01*
X22463457Y-21864286D02*
X22477742Y-21850000D01*
X22477742Y-21850000D02*
X22506314Y-21835714D01*
X22506314Y-21835714D02*
X22577742Y-21835714D01*
X22577742Y-21835714D02*
X22606314Y-21850000D01*
X22606314Y-21850000D02*
X22620600Y-21864286D01*
X22620600Y-21864286D02*
X22634885Y-21892857D01*
X22634885Y-21892857D02*
X22634885Y-21978571D01*
X22634885Y-21978571D02*
X22620600Y-22007143D01*
X22620600Y-22007143D02*
X22606314Y-22021428D01*
X22334885Y-21735714D02*
X22334885Y-21550000D01*
X22334885Y-21550000D02*
X22449171Y-21650000D01*
X22449171Y-21650000D02*
X22449171Y-21607143D01*
X22449171Y-21607143D02*
X22463457Y-21578572D01*
X22463457Y-21578572D02*
X22477742Y-21564286D01*
X22477742Y-21564286D02*
X22506314Y-21550000D01*
X22506314Y-21550000D02*
X22577742Y-21550000D01*
X22577742Y-21550000D02*
X22606314Y-21564286D01*
X22606314Y-21564286D02*
X22620600Y-21578572D01*
X22620600Y-21578572D02*
X22634885Y-21607143D01*
X22634885Y-21607143D02*
X22634885Y-21692857D01*
X22634885Y-21692857D02*
X22620600Y-21721429D01*
X22620600Y-21721429D02*
X22606314Y-21735714D01*
X22634885Y-21421429D02*
X22334885Y-21421429D01*
X22334885Y-21421429D02*
X22549171Y-21321429D01*
X22549171Y-21321429D02*
X22334885Y-21221429D01*
X22334885Y-21221429D02*
X22634885Y-21221429D01*
X22334885Y-20935715D02*
X22334885Y-21078572D01*
X22334885Y-21078572D02*
X22477742Y-21092858D01*
X22477742Y-21092858D02*
X22463457Y-21078572D01*
X22463457Y-21078572D02*
X22449171Y-21050001D01*
X22449171Y-21050001D02*
X22449171Y-20978572D01*
X22449171Y-20978572D02*
X22463457Y-20950001D01*
X22463457Y-20950001D02*
X22477742Y-20935715D01*
X22477742Y-20935715D02*
X22506314Y-20921429D01*
X22506314Y-20921429D02*
X22577742Y-20921429D01*
X22577742Y-20921429D02*
X22606314Y-20935715D01*
X22606314Y-20935715D02*
X22620600Y-20950001D01*
X22620600Y-20950001D02*
X22634885Y-20978572D01*
X22634885Y-20978572D02*
X22634885Y-21050001D01*
X22634885Y-21050001D02*
X22620600Y-21078572D01*
X22620600Y-21078572D02*
X22606314Y-21092858D01*
X22349171Y-20635715D02*
X22334885Y-20664287D01*
X22334885Y-20664287D02*
X22334885Y-20707144D01*
X22334885Y-20707144D02*
X22349171Y-20750001D01*
X22349171Y-20750001D02*
X22377742Y-20778572D01*
X22377742Y-20778572D02*
X22406314Y-20792858D01*
X22406314Y-20792858D02*
X22463457Y-20807144D01*
X22463457Y-20807144D02*
X22506314Y-20807144D01*
X22506314Y-20807144D02*
X22563457Y-20792858D01*
X22563457Y-20792858D02*
X22592028Y-20778572D01*
X22592028Y-20778572D02*
X22620600Y-20750001D01*
X22620600Y-20750001D02*
X22634885Y-20707144D01*
X22634885Y-20707144D02*
X22634885Y-20678572D01*
X22634885Y-20678572D02*
X22620600Y-20635715D01*
X22620600Y-20635715D02*
X22606314Y-20621429D01*
X22606314Y-20621429D02*
X22506314Y-20621429D01*
X22506314Y-20621429D02*
X22506314Y-20678572D01*
X22520600Y-20492858D02*
X22520600Y-20264287D01*
X22634885Y-20121429D02*
X22334885Y-20121429D01*
X22334885Y-20121429D02*
X22634885Y-19950000D01*
X22634885Y-19950000D02*
X22334885Y-19950000D01*
X7171526Y-14814885D02*
X7000097Y-14814885D01*
X7085812Y-14814885D02*
X7085812Y-14514885D01*
X7085812Y-14514885D02*
X7057240Y-14557742D01*
X7057240Y-14557742D02*
X7028669Y-14586314D01*
X7028669Y-14586314D02*
X7000097Y-14600600D01*
X7285811Y-14543457D02*
X7300097Y-14529171D01*
X7300097Y-14529171D02*
X7328669Y-14514885D01*
X7328669Y-14514885D02*
X7400097Y-14514885D01*
X7400097Y-14514885D02*
X7428669Y-14529171D01*
X7428669Y-14529171D02*
X7442954Y-14543457D01*
X7442954Y-14543457D02*
X7457240Y-14572028D01*
X7457240Y-14572028D02*
X7457240Y-14600600D01*
X7457240Y-14600600D02*
X7442954Y-14643457D01*
X7442954Y-14643457D02*
X7271526Y-14814885D01*
X7271526Y-14814885D02*
X7457240Y-14814885D01*
X7642954Y-14514885D02*
X7671525Y-14514885D01*
X7671525Y-14514885D02*
X7700097Y-14529171D01*
X7700097Y-14529171D02*
X7714383Y-14543457D01*
X7714383Y-14543457D02*
X7728668Y-14572028D01*
X7728668Y-14572028D02*
X7742954Y-14629171D01*
X7742954Y-14629171D02*
X7742954Y-14700600D01*
X7742954Y-14700600D02*
X7728668Y-14757742D01*
X7728668Y-14757742D02*
X7714383Y-14786314D01*
X7714383Y-14786314D02*
X7700097Y-14800600D01*
X7700097Y-14800600D02*
X7671525Y-14814885D01*
X7671525Y-14814885D02*
X7642954Y-14814885D01*
X7642954Y-14814885D02*
X7614383Y-14800600D01*
X7614383Y-14800600D02*
X7600097Y-14786314D01*
X7600097Y-14786314D02*
X7585811Y-14757742D01*
X7585811Y-14757742D02*
X7571525Y-14700600D01*
X7571525Y-14700600D02*
X7571525Y-14629171D01*
X7571525Y-14629171D02*
X7585811Y-14572028D01*
X7585811Y-14572028D02*
X7600097Y-14543457D01*
X7600097Y-14543457D02*
X7614383Y-14529171D01*
X7614383Y-14529171D02*
X7642954Y-14514885D01*
X8042954Y-14814885D02*
X7942954Y-14672028D01*
X7871525Y-14814885D02*
X7871525Y-14514885D01*
X7871525Y-14514885D02*
X7985811Y-14514885D01*
X7985811Y-14514885D02*
X8014382Y-14529171D01*
X8014382Y-14529171D02*
X8028668Y-14543457D01*
X8028668Y-14543457D02*
X8042954Y-14572028D01*
X8042954Y-14572028D02*
X8042954Y-14614885D01*
X8042954Y-14614885D02*
X8028668Y-14643457D01*
X8028668Y-14643457D02*
X8014382Y-14657742D01*
X8014382Y-14657742D02*
X7985811Y-14672028D01*
X7985811Y-14672028D02*
X7871525Y-14672028D01*
X20535713Y-5934885D02*
X20535713Y-5634885D01*
X20535713Y-5634885D02*
X20635713Y-5849171D01*
X20635713Y-5849171D02*
X20735713Y-5634885D01*
X20735713Y-5634885D02*
X20735713Y-5934885D01*
X20864284Y-5663457D02*
X20878570Y-5649171D01*
X20878570Y-5649171D02*
X20907142Y-5634885D01*
X20907142Y-5634885D02*
X20978570Y-5634885D01*
X20978570Y-5634885D02*
X21007142Y-5649171D01*
X21007142Y-5649171D02*
X21021427Y-5663457D01*
X21021427Y-5663457D02*
X21035713Y-5692028D01*
X21035713Y-5692028D02*
X21035713Y-5720600D01*
X21035713Y-5720600D02*
X21021427Y-5763457D01*
X21021427Y-5763457D02*
X20849999Y-5934885D01*
X20849999Y-5934885D02*
X21035713Y-5934885D01*
X21164284Y-5906314D02*
X21178570Y-5920600D01*
X21178570Y-5920600D02*
X21164284Y-5934885D01*
X21164284Y-5934885D02*
X21149998Y-5920600D01*
X21149998Y-5920600D02*
X21164284Y-5906314D01*
X21164284Y-5906314D02*
X21164284Y-5934885D01*
X21449998Y-5634885D02*
X21307141Y-5634885D01*
X21307141Y-5634885D02*
X21292855Y-5777742D01*
X21292855Y-5777742D02*
X21307141Y-5763457D01*
X21307141Y-5763457D02*
X21335713Y-5749171D01*
X21335713Y-5749171D02*
X21407141Y-5749171D01*
X21407141Y-5749171D02*
X21435713Y-5763457D01*
X21435713Y-5763457D02*
X21449998Y-5777742D01*
X21449998Y-5777742D02*
X21464284Y-5806314D01*
X21464284Y-5806314D02*
X21464284Y-5877742D01*
X21464284Y-5877742D02*
X21449998Y-5906314D01*
X21449998Y-5906314D02*
X21435713Y-5920600D01*
X21435713Y-5920600D02*
X21407141Y-5934885D01*
X21407141Y-5934885D02*
X21335713Y-5934885D01*
X21335713Y-5934885D02*
X21307141Y-5920600D01*
X21307141Y-5920600D02*
X21292855Y-5906314D01*
X21592855Y-5934885D02*
X21592855Y-5634885D01*
X21592855Y-5634885D02*
X21692855Y-5849171D01*
X21692855Y-5849171D02*
X21792855Y-5634885D01*
X21792855Y-5634885D02*
X21792855Y-5934885D01*
X21978569Y-5934885D02*
X21949998Y-5920600D01*
X21949998Y-5920600D02*
X21935712Y-5906314D01*
X21935712Y-5906314D02*
X21921426Y-5877742D01*
X21921426Y-5877742D02*
X21921426Y-5792028D01*
X21921426Y-5792028D02*
X21935712Y-5763457D01*
X21935712Y-5763457D02*
X21949998Y-5749171D01*
X21949998Y-5749171D02*
X21978569Y-5734885D01*
X21978569Y-5734885D02*
X22021426Y-5734885D01*
X22021426Y-5734885D02*
X22049998Y-5749171D01*
X22049998Y-5749171D02*
X22064284Y-5763457D01*
X22064284Y-5763457D02*
X22078569Y-5792028D01*
X22078569Y-5792028D02*
X22078569Y-5877742D01*
X22078569Y-5877742D02*
X22064284Y-5906314D01*
X22064284Y-5906314D02*
X22049998Y-5920600D01*
X22049998Y-5920600D02*
X22021426Y-5934885D01*
X22021426Y-5934885D02*
X21978569Y-5934885D01*
X22335713Y-5734885D02*
X22335713Y-5934885D01*
X22207141Y-5734885D02*
X22207141Y-5892028D01*
X22207141Y-5892028D02*
X22221427Y-5920600D01*
X22221427Y-5920600D02*
X22249998Y-5934885D01*
X22249998Y-5934885D02*
X22292855Y-5934885D01*
X22292855Y-5934885D02*
X22321427Y-5920600D01*
X22321427Y-5920600D02*
X22335713Y-5906314D01*
X22478570Y-5734885D02*
X22478570Y-5934885D01*
X22478570Y-5763457D02*
X22492856Y-5749171D01*
X22492856Y-5749171D02*
X22521427Y-5734885D01*
X22521427Y-5734885D02*
X22564284Y-5734885D01*
X22564284Y-5734885D02*
X22592856Y-5749171D01*
X22592856Y-5749171D02*
X22607142Y-5777742D01*
X22607142Y-5777742D02*
X22607142Y-5934885D01*
X22707142Y-5734885D02*
X22821428Y-5734885D01*
X22749999Y-5634885D02*
X22749999Y-5892028D01*
X22749999Y-5892028D02*
X22764285Y-5920600D01*
X22764285Y-5920600D02*
X22792856Y-5934885D01*
X22792856Y-5934885D02*
X22821428Y-5934885D01*
X22921428Y-5934885D02*
X22921428Y-5734885D01*
X22921428Y-5634885D02*
X22907142Y-5649171D01*
X22907142Y-5649171D02*
X22921428Y-5663457D01*
X22921428Y-5663457D02*
X22935714Y-5649171D01*
X22935714Y-5649171D02*
X22921428Y-5634885D01*
X22921428Y-5634885D02*
X22921428Y-5663457D01*
X23064285Y-5734885D02*
X23064285Y-5934885D01*
X23064285Y-5763457D02*
X23078571Y-5749171D01*
X23078571Y-5749171D02*
X23107142Y-5734885D01*
X23107142Y-5734885D02*
X23149999Y-5734885D01*
X23149999Y-5734885D02*
X23178571Y-5749171D01*
X23178571Y-5749171D02*
X23192857Y-5777742D01*
X23192857Y-5777742D02*
X23192857Y-5934885D01*
X23464286Y-5734885D02*
X23464286Y-5977742D01*
X23464286Y-5977742D02*
X23450000Y-6006314D01*
X23450000Y-6006314D02*
X23435714Y-6020600D01*
X23435714Y-6020600D02*
X23407143Y-6034885D01*
X23407143Y-6034885D02*
X23364286Y-6034885D01*
X23364286Y-6034885D02*
X23335714Y-6020600D01*
X23464286Y-5920600D02*
X23435714Y-5934885D01*
X23435714Y-5934885D02*
X23378571Y-5934885D01*
X23378571Y-5934885D02*
X23350000Y-5920600D01*
X23350000Y-5920600D02*
X23335714Y-5906314D01*
X23335714Y-5906314D02*
X23321428Y-5877742D01*
X23321428Y-5877742D02*
X23321428Y-5792028D01*
X23321428Y-5792028D02*
X23335714Y-5763457D01*
X23335714Y-5763457D02*
X23350000Y-5749171D01*
X23350000Y-5749171D02*
X23378571Y-5734885D01*
X23378571Y-5734885D02*
X23435714Y-5734885D01*
X23435714Y-5734885D02*
X23464286Y-5749171D01*
X23607143Y-5934885D02*
X23607143Y-5634885D01*
X23607143Y-5777742D02*
X23778572Y-5777742D01*
X23778572Y-5934885D02*
X23778572Y-5634885D01*
X23964286Y-5934885D02*
X23935715Y-5920600D01*
X23935715Y-5920600D02*
X23921429Y-5906314D01*
X23921429Y-5906314D02*
X23907143Y-5877742D01*
X23907143Y-5877742D02*
X23907143Y-5792028D01*
X23907143Y-5792028D02*
X23921429Y-5763457D01*
X23921429Y-5763457D02*
X23935715Y-5749171D01*
X23935715Y-5749171D02*
X23964286Y-5734885D01*
X23964286Y-5734885D02*
X24007143Y-5734885D01*
X24007143Y-5734885D02*
X24035715Y-5749171D01*
X24035715Y-5749171D02*
X24050001Y-5763457D01*
X24050001Y-5763457D02*
X24064286Y-5792028D01*
X24064286Y-5792028D02*
X24064286Y-5877742D01*
X24064286Y-5877742D02*
X24050001Y-5906314D01*
X24050001Y-5906314D02*
X24035715Y-5920600D01*
X24035715Y-5920600D02*
X24007143Y-5934885D01*
X24007143Y-5934885D02*
X23964286Y-5934885D01*
X24235715Y-5934885D02*
X24207144Y-5920600D01*
X24207144Y-5920600D02*
X24192858Y-5892028D01*
X24192858Y-5892028D02*
X24192858Y-5634885D01*
X24464287Y-5920600D02*
X24435715Y-5934885D01*
X24435715Y-5934885D02*
X24378573Y-5934885D01*
X24378573Y-5934885D02*
X24350001Y-5920600D01*
X24350001Y-5920600D02*
X24335715Y-5892028D01*
X24335715Y-5892028D02*
X24335715Y-5777742D01*
X24335715Y-5777742D02*
X24350001Y-5749171D01*
X24350001Y-5749171D02*
X24378573Y-5734885D01*
X24378573Y-5734885D02*
X24435715Y-5734885D01*
X24435715Y-5734885D02*
X24464287Y-5749171D01*
X24464287Y-5749171D02*
X24478573Y-5777742D01*
X24478573Y-5777742D02*
X24478573Y-5806314D01*
X24478573Y-5806314D02*
X24335715Y-5834885D01*
X10821427Y-5634885D02*
X10678570Y-5634885D01*
X10678570Y-5634885D02*
X10678570Y-5334885D01*
X10921427Y-5634885D02*
X10921427Y-5434885D01*
X10921427Y-5334885D02*
X10907141Y-5349171D01*
X10907141Y-5349171D02*
X10921427Y-5363457D01*
X10921427Y-5363457D02*
X10935713Y-5349171D01*
X10935713Y-5349171D02*
X10921427Y-5334885D01*
X10921427Y-5334885D02*
X10921427Y-5363457D01*
X11064284Y-5434885D02*
X11064284Y-5634885D01*
X11064284Y-5463457D02*
X11078570Y-5449171D01*
X11078570Y-5449171D02*
X11107141Y-5434885D01*
X11107141Y-5434885D02*
X11149998Y-5434885D01*
X11149998Y-5434885D02*
X11178570Y-5449171D01*
X11178570Y-5449171D02*
X11192856Y-5477742D01*
X11192856Y-5477742D02*
X11192856Y-5634885D01*
X11449999Y-5620600D02*
X11421427Y-5634885D01*
X11421427Y-5634885D02*
X11364285Y-5634885D01*
X11364285Y-5634885D02*
X11335713Y-5620600D01*
X11335713Y-5620600D02*
X11321427Y-5592028D01*
X11321427Y-5592028D02*
X11321427Y-5477742D01*
X11321427Y-5477742D02*
X11335713Y-5449171D01*
X11335713Y-5449171D02*
X11364285Y-5434885D01*
X11364285Y-5434885D02*
X11421427Y-5434885D01*
X11421427Y-5434885D02*
X11449999Y-5449171D01*
X11449999Y-5449171D02*
X11464285Y-5477742D01*
X11464285Y-5477742D02*
X11464285Y-5506314D01*
X11464285Y-5506314D02*
X11321427Y-5534885D01*
X11721428Y-5634885D02*
X11721428Y-5477742D01*
X11721428Y-5477742D02*
X11707142Y-5449171D01*
X11707142Y-5449171D02*
X11678570Y-5434885D01*
X11678570Y-5434885D02*
X11621428Y-5434885D01*
X11621428Y-5434885D02*
X11592856Y-5449171D01*
X11721428Y-5620600D02*
X11692856Y-5634885D01*
X11692856Y-5634885D02*
X11621428Y-5634885D01*
X11621428Y-5634885D02*
X11592856Y-5620600D01*
X11592856Y-5620600D02*
X11578570Y-5592028D01*
X11578570Y-5592028D02*
X11578570Y-5563457D01*
X11578570Y-5563457D02*
X11592856Y-5534885D01*
X11592856Y-5534885D02*
X11621428Y-5520600D01*
X11621428Y-5520600D02*
X11692856Y-5520600D01*
X11692856Y-5520600D02*
X11721428Y-5506314D01*
X11864285Y-5634885D02*
X11864285Y-5434885D01*
X11864285Y-5492028D02*
X11878571Y-5463457D01*
X11878571Y-5463457D02*
X11892857Y-5449171D01*
X11892857Y-5449171D02*
X11921428Y-5434885D01*
X11921428Y-5434885D02*
X11949999Y-5434885D01*
X12049999Y-5634885D02*
X12049999Y-5334885D01*
X12049999Y-5477742D02*
X12221428Y-5477742D01*
X12221428Y-5634885D02*
X12221428Y-5334885D01*
X12492857Y-5634885D02*
X12492857Y-5477742D01*
X12492857Y-5477742D02*
X12478571Y-5449171D01*
X12478571Y-5449171D02*
X12449999Y-5434885D01*
X12449999Y-5434885D02*
X12392857Y-5434885D01*
X12392857Y-5434885D02*
X12364285Y-5449171D01*
X12492857Y-5620600D02*
X12464285Y-5634885D01*
X12464285Y-5634885D02*
X12392857Y-5634885D01*
X12392857Y-5634885D02*
X12364285Y-5620600D01*
X12364285Y-5620600D02*
X12349999Y-5592028D01*
X12349999Y-5592028D02*
X12349999Y-5563457D01*
X12349999Y-5563457D02*
X12364285Y-5534885D01*
X12364285Y-5534885D02*
X12392857Y-5520600D01*
X12392857Y-5520600D02*
X12464285Y-5520600D01*
X12464285Y-5520600D02*
X12492857Y-5506314D01*
X12678571Y-5634885D02*
X12650000Y-5620600D01*
X12650000Y-5620600D02*
X12635714Y-5592028D01*
X12635714Y-5592028D02*
X12635714Y-5334885D01*
X12835714Y-5634885D02*
X12807143Y-5620600D01*
X12807143Y-5620600D02*
X12792857Y-5592028D01*
X12792857Y-5592028D02*
X12792857Y-5334885D01*
X12935714Y-5620600D02*
X12978572Y-5634885D01*
X12978572Y-5634885D02*
X13050000Y-5634885D01*
X13050000Y-5634885D02*
X13078572Y-5620600D01*
X13078572Y-5620600D02*
X13092857Y-5606314D01*
X13092857Y-5606314D02*
X13107143Y-5577742D01*
X13107143Y-5577742D02*
X13107143Y-5549171D01*
X13107143Y-5549171D02*
X13092857Y-5520600D01*
X13092857Y-5520600D02*
X13078572Y-5506314D01*
X13078572Y-5506314D02*
X13050000Y-5492028D01*
X13050000Y-5492028D02*
X12992857Y-5477742D01*
X12992857Y-5477742D02*
X12964286Y-5463457D01*
X12964286Y-5463457D02*
X12950000Y-5449171D01*
X12950000Y-5449171D02*
X12935714Y-5420600D01*
X12935714Y-5420600D02*
X12935714Y-5392028D01*
X12935714Y-5392028D02*
X12950000Y-5363457D01*
X12950000Y-5363457D02*
X12964286Y-5349171D01*
X12964286Y-5349171D02*
X12992857Y-5334885D01*
X12992857Y-5334885D02*
X13064286Y-5334885D01*
X13064286Y-5334885D02*
X13107143Y-5349171D01*
X13350000Y-5620600D02*
X13321428Y-5634885D01*
X13321428Y-5634885D02*
X13264286Y-5634885D01*
X13264286Y-5634885D02*
X13235714Y-5620600D01*
X13235714Y-5620600D02*
X13221428Y-5592028D01*
X13221428Y-5592028D02*
X13221428Y-5477742D01*
X13221428Y-5477742D02*
X13235714Y-5449171D01*
X13235714Y-5449171D02*
X13264286Y-5434885D01*
X13264286Y-5434885D02*
X13321428Y-5434885D01*
X13321428Y-5434885D02*
X13350000Y-5449171D01*
X13350000Y-5449171D02*
X13364286Y-5477742D01*
X13364286Y-5477742D02*
X13364286Y-5506314D01*
X13364286Y-5506314D02*
X13221428Y-5534885D01*
X13492857Y-5434885D02*
X13492857Y-5634885D01*
X13492857Y-5463457D02*
X13507143Y-5449171D01*
X13507143Y-5449171D02*
X13535714Y-5434885D01*
X13535714Y-5434885D02*
X13578571Y-5434885D01*
X13578571Y-5434885D02*
X13607143Y-5449171D01*
X13607143Y-5449171D02*
X13621429Y-5477742D01*
X13621429Y-5477742D02*
X13621429Y-5634885D01*
X13750000Y-5620600D02*
X13778572Y-5634885D01*
X13778572Y-5634885D02*
X13835715Y-5634885D01*
X13835715Y-5634885D02*
X13864286Y-5620600D01*
X13864286Y-5620600D02*
X13878572Y-5592028D01*
X13878572Y-5592028D02*
X13878572Y-5577742D01*
X13878572Y-5577742D02*
X13864286Y-5549171D01*
X13864286Y-5549171D02*
X13835715Y-5534885D01*
X13835715Y-5534885D02*
X13792858Y-5534885D01*
X13792858Y-5534885D02*
X13764286Y-5520600D01*
X13764286Y-5520600D02*
X13750000Y-5492028D01*
X13750000Y-5492028D02*
X13750000Y-5477742D01*
X13750000Y-5477742D02*
X13764286Y-5449171D01*
X13764286Y-5449171D02*
X13792858Y-5434885D01*
X13792858Y-5434885D02*
X13835715Y-5434885D01*
X13835715Y-5434885D02*
X13864286Y-5449171D01*
X14050000Y-5634885D02*
X14021429Y-5620600D01*
X14021429Y-5620600D02*
X14007143Y-5606314D01*
X14007143Y-5606314D02*
X13992857Y-5577742D01*
X13992857Y-5577742D02*
X13992857Y-5492028D01*
X13992857Y-5492028D02*
X14007143Y-5463457D01*
X14007143Y-5463457D02*
X14021429Y-5449171D01*
X14021429Y-5449171D02*
X14050000Y-5434885D01*
X14050000Y-5434885D02*
X14092857Y-5434885D01*
X14092857Y-5434885D02*
X14121429Y-5449171D01*
X14121429Y-5449171D02*
X14135715Y-5463457D01*
X14135715Y-5463457D02*
X14150000Y-5492028D01*
X14150000Y-5492028D02*
X14150000Y-5577742D01*
X14150000Y-5577742D02*
X14135715Y-5606314D01*
X14135715Y-5606314D02*
X14121429Y-5620600D01*
X14121429Y-5620600D02*
X14092857Y-5634885D01*
X14092857Y-5634885D02*
X14050000Y-5634885D01*
X14278572Y-5634885D02*
X14278572Y-5434885D01*
X14278572Y-5492028D02*
X14292858Y-5463457D01*
X14292858Y-5463457D02*
X14307144Y-5449171D01*
X14307144Y-5449171D02*
X14335715Y-5434885D01*
X14335715Y-5434885D02*
X14364286Y-5434885D01*
D11*
X6765974Y-13832200D02*
X6908831Y-13879819D01*
X6908831Y-13879819D02*
X7146926Y-13879819D01*
X7146926Y-13879819D02*
X7242164Y-13832200D01*
X7242164Y-13832200D02*
X7289783Y-13784580D01*
X7289783Y-13784580D02*
X7337402Y-13689342D01*
X7337402Y-13689342D02*
X7337402Y-13594104D01*
X7337402Y-13594104D02*
X7289783Y-13498866D01*
X7289783Y-13498866D02*
X7242164Y-13451247D01*
X7242164Y-13451247D02*
X7146926Y-13403628D01*
X7146926Y-13403628D02*
X6956450Y-13356009D01*
X6956450Y-13356009D02*
X6861212Y-13308390D01*
X6861212Y-13308390D02*
X6813593Y-13260771D01*
X6813593Y-13260771D02*
X6765974Y-13165533D01*
X6765974Y-13165533D02*
X6765974Y-13070295D01*
X6765974Y-13070295D02*
X6813593Y-12975057D01*
X6813593Y-12975057D02*
X6861212Y-12927438D01*
X6861212Y-12927438D02*
X6956450Y-12879819D01*
X6956450Y-12879819D02*
X7194545Y-12879819D01*
X7194545Y-12879819D02*
X7337402Y-12927438D01*
X7623117Y-12879819D02*
X8194545Y-12879819D01*
X7908831Y-13879819D02*
X7908831Y-12879819D01*
X8527879Y-13879819D02*
X8527879Y-12879819D01*
X8527879Y-12879819D02*
X8861212Y-13594104D01*
X8861212Y-13594104D02*
X9194545Y-12879819D01*
X9194545Y-12879819D02*
X9194545Y-13879819D01*
X9575498Y-12879819D02*
X10194545Y-12879819D01*
X10194545Y-12879819D02*
X9861212Y-13260771D01*
X9861212Y-13260771D02*
X10004069Y-13260771D01*
X10004069Y-13260771D02*
X10099307Y-13308390D01*
X10099307Y-13308390D02*
X10146926Y-13356009D01*
X10146926Y-13356009D02*
X10194545Y-13451247D01*
X10194545Y-13451247D02*
X10194545Y-13689342D01*
X10194545Y-13689342D02*
X10146926Y-13784580D01*
X10146926Y-13784580D02*
X10099307Y-13832200D01*
X10099307Y-13832200D02*
X10004069Y-13879819D01*
X10004069Y-13879819D02*
X9718355Y-13879819D01*
X9718355Y-13879819D02*
X9623117Y-13832200D01*
X9623117Y-13832200D02*
X9575498Y-13784580D01*
X10575498Y-12975057D02*
X10623117Y-12927438D01*
X10623117Y-12927438D02*
X10718355Y-12879819D01*
X10718355Y-12879819D02*
X10956450Y-12879819D01*
X10956450Y-12879819D02*
X11051688Y-12927438D01*
X11051688Y-12927438D02*
X11099307Y-12975057D01*
X11099307Y-12975057D02*
X11146926Y-13070295D01*
X11146926Y-13070295D02*
X11146926Y-13165533D01*
X11146926Y-13165533D02*
X11099307Y-13308390D01*
X11099307Y-13308390D02*
X10527879Y-13879819D01*
X10527879Y-13879819D02*
X11146926Y-13879819D01*
X12099307Y-12927438D02*
X12004069Y-12879819D01*
X12004069Y-12879819D02*
X11861212Y-12879819D01*
X11861212Y-12879819D02*
X11718355Y-12927438D01*
X11718355Y-12927438D02*
X11623117Y-13022676D01*
X11623117Y-13022676D02*
X11575498Y-13117914D01*
X11575498Y-13117914D02*
X11527879Y-13308390D01*
X11527879Y-13308390D02*
X11527879Y-13451247D01*
X11527879Y-13451247D02*
X11575498Y-13641723D01*
X11575498Y-13641723D02*
X11623117Y-13736961D01*
X11623117Y-13736961D02*
X11718355Y-13832200D01*
X11718355Y-13832200D02*
X11861212Y-13879819D01*
X11861212Y-13879819D02*
X11956450Y-13879819D01*
X11956450Y-13879819D02*
X12099307Y-13832200D01*
X12099307Y-13832200D02*
X12146926Y-13784580D01*
X12146926Y-13784580D02*
X12146926Y-13451247D01*
X12146926Y-13451247D02*
X11956450Y-13451247D01*
X12765974Y-12879819D02*
X12861212Y-12879819D01*
X12861212Y-12879819D02*
X12956450Y-12927438D01*
X12956450Y-12927438D02*
X13004069Y-12975057D01*
X13004069Y-12975057D02*
X13051688Y-13070295D01*
X13051688Y-13070295D02*
X13099307Y-13260771D01*
X13099307Y-13260771D02*
X13099307Y-13498866D01*
X13099307Y-13498866D02*
X13051688Y-13689342D01*
X13051688Y-13689342D02*
X13004069Y-13784580D01*
X13004069Y-13784580D02*
X12956450Y-13832200D01*
X12956450Y-13832200D02*
X12861212Y-13879819D01*
X12861212Y-13879819D02*
X12765974Y-13879819D01*
X12765974Y-13879819D02*
X12670736Y-13832200D01*
X12670736Y-13832200D02*
X12623117Y-13784580D01*
X12623117Y-13784580D02*
X12575498Y-13689342D01*
X12575498Y-13689342D02*
X12527879Y-13498866D01*
X12527879Y-13498866D02*
X12527879Y-13260771D01*
X12527879Y-13260771D02*
X12575498Y-13070295D01*
X12575498Y-13070295D02*
X12623117Y-12975057D01*
X12623117Y-12975057D02*
X12670736Y-12927438D01*
X12670736Y-12927438D02*
X12765974Y-12879819D01*
X13432641Y-12879819D02*
X14051688Y-12879819D01*
X14051688Y-12879819D02*
X13718355Y-13260771D01*
X13718355Y-13260771D02*
X13861212Y-13260771D01*
X13861212Y-13260771D02*
X13956450Y-13308390D01*
X13956450Y-13308390D02*
X14004069Y-13356009D01*
X14004069Y-13356009D02*
X14051688Y-13451247D01*
X14051688Y-13451247D02*
X14051688Y-13689342D01*
X14051688Y-13689342D02*
X14004069Y-13784580D01*
X14004069Y-13784580D02*
X13956450Y-13832200D01*
X13956450Y-13832200D02*
X13861212Y-13879819D01*
X13861212Y-13879819D02*
X13575498Y-13879819D01*
X13575498Y-13879819D02*
X13480260Y-13832200D01*
X13480260Y-13832200D02*
X13432641Y-13784580D01*
X14670736Y-12879819D02*
X14765974Y-12879819D01*
X14765974Y-12879819D02*
X14861212Y-12927438D01*
X14861212Y-12927438D02*
X14908831Y-12975057D01*
X14908831Y-12975057D02*
X14956450Y-13070295D01*
X14956450Y-13070295D02*
X15004069Y-13260771D01*
X15004069Y-13260771D02*
X15004069Y-13498866D01*
X15004069Y-13498866D02*
X14956450Y-13689342D01*
X14956450Y-13689342D02*
X14908831Y-13784580D01*
X14908831Y-13784580D02*
X14861212Y-13832200D01*
X14861212Y-13832200D02*
X14765974Y-13879819D01*
X14765974Y-13879819D02*
X14670736Y-13879819D01*
X14670736Y-13879819D02*
X14575498Y-13832200D01*
X14575498Y-13832200D02*
X14527879Y-13784580D01*
X14527879Y-13784580D02*
X14480260Y-13689342D01*
X14480260Y-13689342D02*
X14432641Y-13498866D01*
X14432641Y-13498866D02*
X14432641Y-13260771D01*
X14432641Y-13260771D02*
X14480260Y-13070295D01*
X14480260Y-13070295D02*
X14527879Y-12975057D01*
X14527879Y-12975057D02*
X14575498Y-12927438D01*
X14575498Y-12927438D02*
X14670736Y-12879819D01*
X15765974Y-13356009D02*
X15432641Y-13356009D01*
X15432641Y-13879819D02*
X15432641Y-12879819D01*
X15432641Y-12879819D02*
X15908831Y-12879819D01*
X16718355Y-12879819D02*
X16527879Y-12879819D01*
X16527879Y-12879819D02*
X16432641Y-12927438D01*
X16432641Y-12927438D02*
X16385022Y-12975057D01*
X16385022Y-12975057D02*
X16289784Y-13117914D01*
X16289784Y-13117914D02*
X16242165Y-13308390D01*
X16242165Y-13308390D02*
X16242165Y-13689342D01*
X16242165Y-13689342D02*
X16289784Y-13784580D01*
X16289784Y-13784580D02*
X16337403Y-13832200D01*
X16337403Y-13832200D02*
X16432641Y-13879819D01*
X16432641Y-13879819D02*
X16623117Y-13879819D01*
X16623117Y-13879819D02*
X16718355Y-13832200D01*
X16718355Y-13832200D02*
X16765974Y-13784580D01*
X16765974Y-13784580D02*
X16813593Y-13689342D01*
X16813593Y-13689342D02*
X16813593Y-13451247D01*
X16813593Y-13451247D02*
X16765974Y-13356009D01*
X16765974Y-13356009D02*
X16718355Y-13308390D01*
X16718355Y-13308390D02*
X16623117Y-13260771D01*
X16623117Y-13260771D02*
X16432641Y-13260771D01*
X16432641Y-13260771D02*
X16337403Y-13308390D01*
X16337403Y-13308390D02*
X16289784Y-13356009D01*
X16289784Y-13356009D02*
X16242165Y-13451247D01*
X17242165Y-13879819D02*
X17242165Y-12879819D01*
X17242165Y-12879819D02*
X17623117Y-12879819D01*
X17623117Y-12879819D02*
X17718355Y-12927438D01*
X17718355Y-12927438D02*
X17765974Y-12975057D01*
X17765974Y-12975057D02*
X17813593Y-13070295D01*
X17813593Y-13070295D02*
X17813593Y-13213152D01*
X17813593Y-13213152D02*
X17765974Y-13308390D01*
X17765974Y-13308390D02*
X17718355Y-13356009D01*
X17718355Y-13356009D02*
X17623117Y-13403628D01*
X17623117Y-13403628D02*
X17242165Y-13403628D01*
X18670736Y-12879819D02*
X18480260Y-12879819D01*
X18480260Y-12879819D02*
X18385022Y-12927438D01*
X18385022Y-12927438D02*
X18337403Y-12975057D01*
X18337403Y-12975057D02*
X18242165Y-13117914D01*
X18242165Y-13117914D02*
X18194546Y-13308390D01*
X18194546Y-13308390D02*
X18194546Y-13689342D01*
X18194546Y-13689342D02*
X18242165Y-13784580D01*
X18242165Y-13784580D02*
X18289784Y-13832200D01*
X18289784Y-13832200D02*
X18385022Y-13879819D01*
X18385022Y-13879819D02*
X18575498Y-13879819D01*
X18575498Y-13879819D02*
X18670736Y-13832200D01*
X18670736Y-13832200D02*
X18718355Y-13784580D01*
X18718355Y-13784580D02*
X18765974Y-13689342D01*
X18765974Y-13689342D02*
X18765974Y-13451247D01*
X18765974Y-13451247D02*
X18718355Y-13356009D01*
X18718355Y-13356009D02*
X18670736Y-13308390D01*
X18670736Y-13308390D02*
X18575498Y-13260771D01*
X18575498Y-13260771D02*
X18385022Y-13260771D01*
X18385022Y-13260771D02*
X18289784Y-13308390D01*
X18289784Y-13308390D02*
X18242165Y-13356009D01*
X18242165Y-13356009D02*
X18194546Y-13451247D01*
D10*
X7171526Y-10804885D02*
X7000097Y-10804885D01*
X7085812Y-10804885D02*
X7085812Y-10504885D01*
X7085812Y-10504885D02*
X7057240Y-10547742D01*
X7057240Y-10547742D02*
X7028669Y-10576314D01*
X7028669Y-10576314D02*
X7000097Y-10590600D01*
X7285811Y-10533457D02*
X7300097Y-10519171D01*
X7300097Y-10519171D02*
X7328669Y-10504885D01*
X7328669Y-10504885D02*
X7400097Y-10504885D01*
X7400097Y-10504885D02*
X7428669Y-10519171D01*
X7428669Y-10519171D02*
X7442954Y-10533457D01*
X7442954Y-10533457D02*
X7457240Y-10562028D01*
X7457240Y-10562028D02*
X7457240Y-10590600D01*
X7457240Y-10590600D02*
X7442954Y-10633457D01*
X7442954Y-10633457D02*
X7271526Y-10804885D01*
X7271526Y-10804885D02*
X7457240Y-10804885D01*
X7642954Y-10504885D02*
X7671525Y-10504885D01*
X7671525Y-10504885D02*
X7700097Y-10519171D01*
X7700097Y-10519171D02*
X7714383Y-10533457D01*
X7714383Y-10533457D02*
X7728668Y-10562028D01*
X7728668Y-10562028D02*
X7742954Y-10619171D01*
X7742954Y-10619171D02*
X7742954Y-10690600D01*
X7742954Y-10690600D02*
X7728668Y-10747742D01*
X7728668Y-10747742D02*
X7714383Y-10776314D01*
X7714383Y-10776314D02*
X7700097Y-10790600D01*
X7700097Y-10790600D02*
X7671525Y-10804885D01*
X7671525Y-10804885D02*
X7642954Y-10804885D01*
X7642954Y-10804885D02*
X7614383Y-10790600D01*
X7614383Y-10790600D02*
X7600097Y-10776314D01*
X7600097Y-10776314D02*
X7585811Y-10747742D01*
X7585811Y-10747742D02*
X7571525Y-10690600D01*
X7571525Y-10690600D02*
X7571525Y-10619171D01*
X7571525Y-10619171D02*
X7585811Y-10562028D01*
X7585811Y-10562028D02*
X7600097Y-10533457D01*
X7600097Y-10533457D02*
X7614383Y-10519171D01*
X7614383Y-10519171D02*
X7642954Y-10504885D01*
X8042954Y-10804885D02*
X7942954Y-10662028D01*
X7871525Y-10804885D02*
X7871525Y-10504885D01*
X7871525Y-10504885D02*
X7985811Y-10504885D01*
X7985811Y-10504885D02*
X8014382Y-10519171D01*
X8014382Y-10519171D02*
X8028668Y-10533457D01*
X8028668Y-10533457D02*
X8042954Y-10562028D01*
X8042954Y-10562028D02*
X8042954Y-10604885D01*
X8042954Y-10604885D02*
X8028668Y-10633457D01*
X8028668Y-10633457D02*
X8014382Y-10647742D01*
X8014382Y-10647742D02*
X7985811Y-10662028D01*
X7985811Y-10662028D02*
X7871525Y-10662028D01*
X17057046Y-17549885D02*
X17057046Y-17749885D01*
X16985617Y-17435600D02*
X16914188Y-17649885D01*
X16914188Y-17649885D02*
X17099903Y-17649885D01*
X17214188Y-17721314D02*
X17228474Y-17735600D01*
X17228474Y-17735600D02*
X17214188Y-17749885D01*
X17214188Y-17749885D02*
X17199902Y-17735600D01*
X17199902Y-17735600D02*
X17214188Y-17721314D01*
X17214188Y-17721314D02*
X17214188Y-17749885D01*
X17328474Y-17449885D02*
X17528474Y-17449885D01*
X17528474Y-17449885D02*
X17399902Y-17749885D01*
X17771331Y-17549885D02*
X17771331Y-17749885D01*
X17642759Y-17549885D02*
X17642759Y-17707028D01*
X17642759Y-17707028D02*
X17657045Y-17735600D01*
X17657045Y-17735600D02*
X17685616Y-17749885D01*
X17685616Y-17749885D02*
X17728473Y-17749885D01*
X17728473Y-17749885D02*
X17757045Y-17735600D01*
X17757045Y-17735600D02*
X17771331Y-17721314D01*
X18014188Y-17592742D02*
X17914188Y-17592742D01*
X17914188Y-17749885D02*
X17914188Y-17449885D01*
X17914188Y-17449885D02*
X18057045Y-17449885D01*
X7196526Y-12814885D02*
X7025097Y-12814885D01*
X7110812Y-12814885D02*
X7110812Y-12514885D01*
X7110812Y-12514885D02*
X7082240Y-12557742D01*
X7082240Y-12557742D02*
X7053669Y-12586314D01*
X7053669Y-12586314D02*
X7025097Y-12600600D01*
X7310811Y-12543457D02*
X7325097Y-12529171D01*
X7325097Y-12529171D02*
X7353669Y-12514885D01*
X7353669Y-12514885D02*
X7425097Y-12514885D01*
X7425097Y-12514885D02*
X7453669Y-12529171D01*
X7453669Y-12529171D02*
X7467954Y-12543457D01*
X7467954Y-12543457D02*
X7482240Y-12572028D01*
X7482240Y-12572028D02*
X7482240Y-12600600D01*
X7482240Y-12600600D02*
X7467954Y-12643457D01*
X7467954Y-12643457D02*
X7296526Y-12814885D01*
X7296526Y-12814885D02*
X7482240Y-12814885D01*
X7667954Y-12514885D02*
X7696525Y-12514885D01*
X7696525Y-12514885D02*
X7725097Y-12529171D01*
X7725097Y-12529171D02*
X7739383Y-12543457D01*
X7739383Y-12543457D02*
X7753668Y-12572028D01*
X7753668Y-12572028D02*
X7767954Y-12629171D01*
X7767954Y-12629171D02*
X7767954Y-12700600D01*
X7767954Y-12700600D02*
X7753668Y-12757742D01*
X7753668Y-12757742D02*
X7739383Y-12786314D01*
X7739383Y-12786314D02*
X7725097Y-12800600D01*
X7725097Y-12800600D02*
X7696525Y-12814885D01*
X7696525Y-12814885D02*
X7667954Y-12814885D01*
X7667954Y-12814885D02*
X7639383Y-12800600D01*
X7639383Y-12800600D02*
X7625097Y-12786314D01*
X7625097Y-12786314D02*
X7610811Y-12757742D01*
X7610811Y-12757742D02*
X7596525Y-12700600D01*
X7596525Y-12700600D02*
X7596525Y-12629171D01*
X7596525Y-12629171D02*
X7610811Y-12572028D01*
X7610811Y-12572028D02*
X7625097Y-12543457D01*
X7625097Y-12543457D02*
X7639383Y-12529171D01*
X7639383Y-12529171D02*
X7667954Y-12514885D01*
X8067954Y-12814885D02*
X7967954Y-12672028D01*
X7896525Y-12814885D02*
X7896525Y-12514885D01*
X7896525Y-12514885D02*
X8010811Y-12514885D01*
X8010811Y-12514885D02*
X8039382Y-12529171D01*
X8039382Y-12529171D02*
X8053668Y-12543457D01*
X8053668Y-12543457D02*
X8067954Y-12572028D01*
X8067954Y-12572028D02*
X8067954Y-12614885D01*
X8067954Y-12614885D02*
X8053668Y-12643457D01*
X8053668Y-12643457D02*
X8039382Y-12657742D01*
X8039382Y-12657742D02*
X8010811Y-12672028D01*
X8010811Y-12672028D02*
X7896525Y-12672028D01*
X16996526Y-10789885D02*
X16825097Y-10789885D01*
X16910812Y-10789885D02*
X16910812Y-10489885D01*
X16910812Y-10489885D02*
X16882240Y-10532742D01*
X16882240Y-10532742D02*
X16853669Y-10561314D01*
X16853669Y-10561314D02*
X16825097Y-10575600D01*
X17110811Y-10518457D02*
X17125097Y-10504171D01*
X17125097Y-10504171D02*
X17153669Y-10489885D01*
X17153669Y-10489885D02*
X17225097Y-10489885D01*
X17225097Y-10489885D02*
X17253669Y-10504171D01*
X17253669Y-10504171D02*
X17267954Y-10518457D01*
X17267954Y-10518457D02*
X17282240Y-10547028D01*
X17282240Y-10547028D02*
X17282240Y-10575600D01*
X17282240Y-10575600D02*
X17267954Y-10618457D01*
X17267954Y-10618457D02*
X17096526Y-10789885D01*
X17096526Y-10789885D02*
X17282240Y-10789885D01*
X17467954Y-10489885D02*
X17496525Y-10489885D01*
X17496525Y-10489885D02*
X17525097Y-10504171D01*
X17525097Y-10504171D02*
X17539383Y-10518457D01*
X17539383Y-10518457D02*
X17553668Y-10547028D01*
X17553668Y-10547028D02*
X17567954Y-10604171D01*
X17567954Y-10604171D02*
X17567954Y-10675600D01*
X17567954Y-10675600D02*
X17553668Y-10732742D01*
X17553668Y-10732742D02*
X17539383Y-10761314D01*
X17539383Y-10761314D02*
X17525097Y-10775600D01*
X17525097Y-10775600D02*
X17496525Y-10789885D01*
X17496525Y-10789885D02*
X17467954Y-10789885D01*
X17467954Y-10789885D02*
X17439383Y-10775600D01*
X17439383Y-10775600D02*
X17425097Y-10761314D01*
X17425097Y-10761314D02*
X17410811Y-10732742D01*
X17410811Y-10732742D02*
X17396525Y-10675600D01*
X17396525Y-10675600D02*
X17396525Y-10604171D01*
X17396525Y-10604171D02*
X17410811Y-10547028D01*
X17410811Y-10547028D02*
X17425097Y-10518457D01*
X17425097Y-10518457D02*
X17439383Y-10504171D01*
X17439383Y-10504171D02*
X17467954Y-10489885D01*
X17867954Y-10789885D02*
X17767954Y-10647028D01*
X17696525Y-10789885D02*
X17696525Y-10489885D01*
X17696525Y-10489885D02*
X17810811Y-10489885D01*
X17810811Y-10489885D02*
X17839382Y-10504171D01*
X17839382Y-10504171D02*
X17853668Y-10518457D01*
X17853668Y-10518457D02*
X17867954Y-10547028D01*
X17867954Y-10547028D02*
X17867954Y-10589885D01*
X17867954Y-10589885D02*
X17853668Y-10618457D01*
X17853668Y-10618457D02*
X17839382Y-10632742D01*
X17839382Y-10632742D02*
X17810811Y-10647028D01*
X17810811Y-10647028D02*
X17696525Y-10647028D01*
X16985617Y-17779885D02*
X17014188Y-17779885D01*
X17014188Y-17779885D02*
X17042760Y-17794171D01*
X17042760Y-17794171D02*
X17057046Y-17808457D01*
X17057046Y-17808457D02*
X17071331Y-17837028D01*
X17071331Y-17837028D02*
X17085617Y-17894171D01*
X17085617Y-17894171D02*
X17085617Y-17965600D01*
X17085617Y-17965600D02*
X17071331Y-18022742D01*
X17071331Y-18022742D02*
X17057046Y-18051314D01*
X17057046Y-18051314D02*
X17042760Y-18065600D01*
X17042760Y-18065600D02*
X17014188Y-18079885D01*
X17014188Y-18079885D02*
X16985617Y-18079885D01*
X16985617Y-18079885D02*
X16957046Y-18065600D01*
X16957046Y-18065600D02*
X16942760Y-18051314D01*
X16942760Y-18051314D02*
X16928474Y-18022742D01*
X16928474Y-18022742D02*
X16914188Y-17965600D01*
X16914188Y-17965600D02*
X16914188Y-17894171D01*
X16914188Y-17894171D02*
X16928474Y-17837028D01*
X16928474Y-17837028D02*
X16942760Y-17808457D01*
X16942760Y-17808457D02*
X16957046Y-17794171D01*
X16957046Y-17794171D02*
X16985617Y-17779885D01*
X17214188Y-18051314D02*
X17228474Y-18065600D01*
X17228474Y-18065600D02*
X17214188Y-18079885D01*
X17214188Y-18079885D02*
X17199902Y-18065600D01*
X17199902Y-18065600D02*
X17214188Y-18051314D01*
X17214188Y-18051314D02*
X17214188Y-18079885D01*
X17514188Y-18079885D02*
X17342759Y-18079885D01*
X17428474Y-18079885D02*
X17428474Y-17779885D01*
X17428474Y-17779885D02*
X17399902Y-17822742D01*
X17399902Y-17822742D02*
X17371331Y-17851314D01*
X17371331Y-17851314D02*
X17342759Y-17865600D01*
X17771331Y-17879885D02*
X17771331Y-18079885D01*
X17642759Y-17879885D02*
X17642759Y-18037028D01*
X17642759Y-18037028D02*
X17657045Y-18065600D01*
X17657045Y-18065600D02*
X17685616Y-18079885D01*
X17685616Y-18079885D02*
X17728473Y-18079885D01*
X17728473Y-18079885D02*
X17757045Y-18065600D01*
X17757045Y-18065600D02*
X17771331Y-18051314D01*
X18014188Y-17922742D02*
X17914188Y-17922742D01*
X17914188Y-18079885D02*
X17914188Y-17779885D01*
X17914188Y-17779885D02*
X18057045Y-17779885D01*
X535713Y-25884885D02*
X535713Y-25584885D01*
X535713Y-25584885D02*
X635713Y-25799171D01*
X635713Y-25799171D02*
X735713Y-25584885D01*
X735713Y-25584885D02*
X735713Y-25884885D01*
X864284Y-25613457D02*
X878570Y-25599171D01*
X878570Y-25599171D02*
X907142Y-25584885D01*
X907142Y-25584885D02*
X978570Y-25584885D01*
X978570Y-25584885D02*
X1007142Y-25599171D01*
X1007142Y-25599171D02*
X1021427Y-25613457D01*
X1021427Y-25613457D02*
X1035713Y-25642028D01*
X1035713Y-25642028D02*
X1035713Y-25670600D01*
X1035713Y-25670600D02*
X1021427Y-25713457D01*
X1021427Y-25713457D02*
X849999Y-25884885D01*
X849999Y-25884885D02*
X1035713Y-25884885D01*
X1164284Y-25856314D02*
X1178570Y-25870600D01*
X1178570Y-25870600D02*
X1164284Y-25884885D01*
X1164284Y-25884885D02*
X1149998Y-25870600D01*
X1149998Y-25870600D02*
X1164284Y-25856314D01*
X1164284Y-25856314D02*
X1164284Y-25884885D01*
X1449998Y-25584885D02*
X1307141Y-25584885D01*
X1307141Y-25584885D02*
X1292855Y-25727742D01*
X1292855Y-25727742D02*
X1307141Y-25713457D01*
X1307141Y-25713457D02*
X1335713Y-25699171D01*
X1335713Y-25699171D02*
X1407141Y-25699171D01*
X1407141Y-25699171D02*
X1435713Y-25713457D01*
X1435713Y-25713457D02*
X1449998Y-25727742D01*
X1449998Y-25727742D02*
X1464284Y-25756314D01*
X1464284Y-25756314D02*
X1464284Y-25827742D01*
X1464284Y-25827742D02*
X1449998Y-25856314D01*
X1449998Y-25856314D02*
X1435713Y-25870600D01*
X1435713Y-25870600D02*
X1407141Y-25884885D01*
X1407141Y-25884885D02*
X1335713Y-25884885D01*
X1335713Y-25884885D02*
X1307141Y-25870600D01*
X1307141Y-25870600D02*
X1292855Y-25856314D01*
X1592855Y-25884885D02*
X1592855Y-25584885D01*
X1592855Y-25584885D02*
X1692855Y-25799171D01*
X1692855Y-25799171D02*
X1792855Y-25584885D01*
X1792855Y-25584885D02*
X1792855Y-25884885D01*
X1978569Y-25884885D02*
X1949998Y-25870600D01*
X1949998Y-25870600D02*
X1935712Y-25856314D01*
X1935712Y-25856314D02*
X1921426Y-25827742D01*
X1921426Y-25827742D02*
X1921426Y-25742028D01*
X1921426Y-25742028D02*
X1935712Y-25713457D01*
X1935712Y-25713457D02*
X1949998Y-25699171D01*
X1949998Y-25699171D02*
X1978569Y-25684885D01*
X1978569Y-25684885D02*
X2021426Y-25684885D01*
X2021426Y-25684885D02*
X2049998Y-25699171D01*
X2049998Y-25699171D02*
X2064284Y-25713457D01*
X2064284Y-25713457D02*
X2078569Y-25742028D01*
X2078569Y-25742028D02*
X2078569Y-25827742D01*
X2078569Y-25827742D02*
X2064284Y-25856314D01*
X2064284Y-25856314D02*
X2049998Y-25870600D01*
X2049998Y-25870600D02*
X2021426Y-25884885D01*
X2021426Y-25884885D02*
X1978569Y-25884885D01*
X2335713Y-25684885D02*
X2335713Y-25884885D01*
X2207141Y-25684885D02*
X2207141Y-25842028D01*
X2207141Y-25842028D02*
X2221427Y-25870600D01*
X2221427Y-25870600D02*
X2249998Y-25884885D01*
X2249998Y-25884885D02*
X2292855Y-25884885D01*
X2292855Y-25884885D02*
X2321427Y-25870600D01*
X2321427Y-25870600D02*
X2335713Y-25856314D01*
X2478570Y-25684885D02*
X2478570Y-25884885D01*
X2478570Y-25713457D02*
X2492856Y-25699171D01*
X2492856Y-25699171D02*
X2521427Y-25684885D01*
X2521427Y-25684885D02*
X2564284Y-25684885D01*
X2564284Y-25684885D02*
X2592856Y-25699171D01*
X2592856Y-25699171D02*
X2607142Y-25727742D01*
X2607142Y-25727742D02*
X2607142Y-25884885D01*
X2707142Y-25684885D02*
X2821428Y-25684885D01*
X2749999Y-25584885D02*
X2749999Y-25842028D01*
X2749999Y-25842028D02*
X2764285Y-25870600D01*
X2764285Y-25870600D02*
X2792856Y-25884885D01*
X2792856Y-25884885D02*
X2821428Y-25884885D01*
X2921428Y-25884885D02*
X2921428Y-25684885D01*
X2921428Y-25584885D02*
X2907142Y-25599171D01*
X2907142Y-25599171D02*
X2921428Y-25613457D01*
X2921428Y-25613457D02*
X2935714Y-25599171D01*
X2935714Y-25599171D02*
X2921428Y-25584885D01*
X2921428Y-25584885D02*
X2921428Y-25613457D01*
X3064285Y-25684885D02*
X3064285Y-25884885D01*
X3064285Y-25713457D02*
X3078571Y-25699171D01*
X3078571Y-25699171D02*
X3107142Y-25684885D01*
X3107142Y-25684885D02*
X3149999Y-25684885D01*
X3149999Y-25684885D02*
X3178571Y-25699171D01*
X3178571Y-25699171D02*
X3192857Y-25727742D01*
X3192857Y-25727742D02*
X3192857Y-25884885D01*
X3464286Y-25684885D02*
X3464286Y-25927742D01*
X3464286Y-25927742D02*
X3450000Y-25956314D01*
X3450000Y-25956314D02*
X3435714Y-25970600D01*
X3435714Y-25970600D02*
X3407143Y-25984885D01*
X3407143Y-25984885D02*
X3364286Y-25984885D01*
X3364286Y-25984885D02*
X3335714Y-25970600D01*
X3464286Y-25870600D02*
X3435714Y-25884885D01*
X3435714Y-25884885D02*
X3378571Y-25884885D01*
X3378571Y-25884885D02*
X3350000Y-25870600D01*
X3350000Y-25870600D02*
X3335714Y-25856314D01*
X3335714Y-25856314D02*
X3321428Y-25827742D01*
X3321428Y-25827742D02*
X3321428Y-25742028D01*
X3321428Y-25742028D02*
X3335714Y-25713457D01*
X3335714Y-25713457D02*
X3350000Y-25699171D01*
X3350000Y-25699171D02*
X3378571Y-25684885D01*
X3378571Y-25684885D02*
X3435714Y-25684885D01*
X3435714Y-25684885D02*
X3464286Y-25699171D01*
X3607143Y-25884885D02*
X3607143Y-25584885D01*
X3607143Y-25727742D02*
X3778572Y-25727742D01*
X3778572Y-25884885D02*
X3778572Y-25584885D01*
X3964286Y-25884885D02*
X3935715Y-25870600D01*
X3935715Y-25870600D02*
X3921429Y-25856314D01*
X3921429Y-25856314D02*
X3907143Y-25827742D01*
X3907143Y-25827742D02*
X3907143Y-25742028D01*
X3907143Y-25742028D02*
X3921429Y-25713457D01*
X3921429Y-25713457D02*
X3935715Y-25699171D01*
X3935715Y-25699171D02*
X3964286Y-25684885D01*
X3964286Y-25684885D02*
X4007143Y-25684885D01*
X4007143Y-25684885D02*
X4035715Y-25699171D01*
X4035715Y-25699171D02*
X4050001Y-25713457D01*
X4050001Y-25713457D02*
X4064286Y-25742028D01*
X4064286Y-25742028D02*
X4064286Y-25827742D01*
X4064286Y-25827742D02*
X4050001Y-25856314D01*
X4050001Y-25856314D02*
X4035715Y-25870600D01*
X4035715Y-25870600D02*
X4007143Y-25884885D01*
X4007143Y-25884885D02*
X3964286Y-25884885D01*
X4235715Y-25884885D02*
X4207144Y-25870600D01*
X4207144Y-25870600D02*
X4192858Y-25842028D01*
X4192858Y-25842028D02*
X4192858Y-25584885D01*
X4464287Y-25870600D02*
X4435715Y-25884885D01*
X4435715Y-25884885D02*
X4378573Y-25884885D01*
X4378573Y-25884885D02*
X4350001Y-25870600D01*
X4350001Y-25870600D02*
X4335715Y-25842028D01*
X4335715Y-25842028D02*
X4335715Y-25727742D01*
X4335715Y-25727742D02*
X4350001Y-25699171D01*
X4350001Y-25699171D02*
X4378573Y-25684885D01*
X4378573Y-25684885D02*
X4435715Y-25684885D01*
X4435715Y-25684885D02*
X4464287Y-25699171D01*
X4464287Y-25699171D02*
X4478573Y-25727742D01*
X4478573Y-25727742D02*
X4478573Y-25756314D01*
X4478573Y-25756314D02*
X4335715Y-25784885D01*
D12*
X6950000Y-23250000D03*
X8950000Y-23250000D03*
X10950000Y-23250000D03*
X12950000Y-23250000D03*
X22500000Y-2550000D03*
X2500000Y-22500000D03*
M02*
