%TF.GenerationSoftware,KiCad,Pcbnew,8.0.6-8.0.6-0~ubuntu24.04.1*%
%TF.CreationDate,2024-10-19T18:08:10+01:00*%
%TF.ProjectId,Distance,44697374-616e-4636-952e-6b696361645f,rev?*%
%TF.SameCoordinates,Original*%
%TF.FileFunction,Other,ECO2*%
%FSLAX46Y46*%
G04 Gerber Fmt 4.6, Leading zero omitted, Abs format (unit mm)*
G04 Created by KiCad (PCBNEW 8.0.6-8.0.6-0~ubuntu24.04.1) date 2024-10-19 18:08:10*
%MOMM*%
%LPD*%
G01*
G04 APERTURE LIST*
%ADD10C,0.150000*%
%ADD11C,0.350000*%
G04 APERTURE END LIST*
D10*
X1857200Y-26315475D02*
X1904819Y-26220237D01*
X1904819Y-26220237D02*
X1904819Y-26029761D01*
X1904819Y-26029761D02*
X1857200Y-25934523D01*
X1857200Y-25934523D02*
X1761961Y-25886904D01*
X1761961Y-25886904D02*
X1714342Y-25886904D01*
X1714342Y-25886904D02*
X1619104Y-25934523D01*
X1619104Y-25934523D02*
X1571485Y-26029761D01*
X1571485Y-26029761D02*
X1571485Y-26172618D01*
X1571485Y-26172618D02*
X1523866Y-26267856D01*
X1523866Y-26267856D02*
X1428628Y-26315475D01*
X1428628Y-26315475D02*
X1381009Y-26315475D01*
X1381009Y-26315475D02*
X1285771Y-26267856D01*
X1285771Y-26267856D02*
X1238152Y-26172618D01*
X1238152Y-26172618D02*
X1238152Y-26029761D01*
X1238152Y-26029761D02*
X1285771Y-25934523D01*
X1238152Y-25553570D02*
X1904819Y-25363094D01*
X1904819Y-25363094D02*
X1428628Y-25172618D01*
X1428628Y-25172618D02*
X1904819Y-24982142D01*
X1904819Y-24982142D02*
X1238152Y-24791666D01*
X1904819Y-23982142D02*
X904819Y-23982142D01*
X1857200Y-23982142D02*
X1904819Y-24077380D01*
X1904819Y-24077380D02*
X1904819Y-24267856D01*
X1904819Y-24267856D02*
X1857200Y-24363094D01*
X1857200Y-24363094D02*
X1809580Y-24410713D01*
X1809580Y-24410713D02*
X1714342Y-24458332D01*
X1714342Y-24458332D02*
X1428628Y-24458332D01*
X1428628Y-24458332D02*
X1333390Y-24410713D01*
X1333390Y-24410713D02*
X1285771Y-24363094D01*
X1285771Y-24363094D02*
X1238152Y-24267856D01*
X1238152Y-24267856D02*
X1238152Y-24077380D01*
X1238152Y-24077380D02*
X1285771Y-23982142D01*
X2000057Y-23744047D02*
X2000057Y-22982142D01*
X1238152Y-22315475D02*
X1904819Y-22315475D01*
X857200Y-22553570D02*
X1571485Y-22791665D01*
X1571485Y-22791665D02*
X1571485Y-22172618D01*
X1238152Y-21791665D02*
X2238152Y-21791665D01*
X1285771Y-21791665D02*
X1238152Y-21696427D01*
X1238152Y-21696427D02*
X1238152Y-21505951D01*
X1238152Y-21505951D02*
X1285771Y-21410713D01*
X1285771Y-21410713D02*
X1333390Y-21363094D01*
X1333390Y-21363094D02*
X1428628Y-21315475D01*
X1428628Y-21315475D02*
X1714342Y-21315475D01*
X1714342Y-21315475D02*
X1809580Y-21363094D01*
X1809580Y-21363094D02*
X1857200Y-21410713D01*
X1857200Y-21410713D02*
X1904819Y-21505951D01*
X1904819Y-21505951D02*
X1904819Y-21696427D01*
X1904819Y-21696427D02*
X1857200Y-21791665D01*
X1904819Y-20886903D02*
X1238152Y-20886903D01*
X904819Y-20886903D02*
X952438Y-20934522D01*
X952438Y-20934522D02*
X1000057Y-20886903D01*
X1000057Y-20886903D02*
X952438Y-20839284D01*
X952438Y-20839284D02*
X904819Y-20886903D01*
X904819Y-20886903D02*
X1000057Y-20886903D01*
X1238152Y-20410713D02*
X1904819Y-20410713D01*
X1333390Y-20410713D02*
X1285771Y-20363094D01*
X1285771Y-20363094D02*
X1238152Y-20267856D01*
X1238152Y-20267856D02*
X1238152Y-20124999D01*
X1238152Y-20124999D02*
X1285771Y-20029761D01*
X1285771Y-20029761D02*
X1381009Y-19982142D01*
X1381009Y-19982142D02*
X1904819Y-19982142D01*
X6973809Y9345180D02*
X7307142Y8345180D01*
X7307142Y8345180D02*
X7640475Y9345180D01*
X8449999Y8345180D02*
X7973809Y8345180D01*
X7973809Y8345180D02*
X7973809Y9345180D01*
X9259523Y9345180D02*
X8783333Y9345180D01*
X8783333Y9345180D02*
X8735714Y8868990D01*
X8735714Y8868990D02*
X8783333Y8916609D01*
X8783333Y8916609D02*
X8878571Y8964228D01*
X8878571Y8964228D02*
X9116666Y8964228D01*
X9116666Y8964228D02*
X9211904Y8916609D01*
X9211904Y8916609D02*
X9259523Y8868990D01*
X9259523Y8868990D02*
X9307142Y8773752D01*
X9307142Y8773752D02*
X9307142Y8535657D01*
X9307142Y8535657D02*
X9259523Y8440419D01*
X9259523Y8440419D02*
X9211904Y8392800D01*
X9211904Y8392800D02*
X9116666Y8345180D01*
X9116666Y8345180D02*
X8878571Y8345180D01*
X8878571Y8345180D02*
X8783333Y8392800D01*
X8783333Y8392800D02*
X8735714Y8440419D01*
X9640476Y9345180D02*
X10259523Y9345180D01*
X10259523Y9345180D02*
X9926190Y8964228D01*
X9926190Y8964228D02*
X10069047Y8964228D01*
X10069047Y8964228D02*
X10164285Y8916609D01*
X10164285Y8916609D02*
X10211904Y8868990D01*
X10211904Y8868990D02*
X10259523Y8773752D01*
X10259523Y8773752D02*
X10259523Y8535657D01*
X10259523Y8535657D02*
X10211904Y8440419D01*
X10211904Y8440419D02*
X10164285Y8392800D01*
X10164285Y8392800D02*
X10069047Y8345180D01*
X10069047Y8345180D02*
X9783333Y8345180D01*
X9783333Y8345180D02*
X9688095Y8392800D01*
X9688095Y8392800D02*
X9640476Y8440419D01*
X11164285Y8345180D02*
X10688095Y8345180D01*
X10688095Y8345180D02*
X10688095Y9345180D01*
X11402381Y9345180D02*
X12021428Y9345180D01*
X12021428Y9345180D02*
X11688095Y8964228D01*
X11688095Y8964228D02*
X11830952Y8964228D01*
X11830952Y8964228D02*
X11926190Y8916609D01*
X11926190Y8916609D02*
X11973809Y8868990D01*
X11973809Y8868990D02*
X12021428Y8773752D01*
X12021428Y8773752D02*
X12021428Y8535657D01*
X12021428Y8535657D02*
X11973809Y8440419D01*
X11973809Y8440419D02*
X11926190Y8392800D01*
X11926190Y8392800D02*
X11830952Y8345180D01*
X11830952Y8345180D02*
X11545238Y8345180D01*
X11545238Y8345180D02*
X11450000Y8392800D01*
X11450000Y8392800D02*
X11402381Y8440419D01*
X13021428Y8440419D02*
X12973809Y8392800D01*
X12973809Y8392800D02*
X12830952Y8345180D01*
X12830952Y8345180D02*
X12735714Y8345180D01*
X12735714Y8345180D02*
X12592857Y8392800D01*
X12592857Y8392800D02*
X12497619Y8488038D01*
X12497619Y8488038D02*
X12450000Y8583276D01*
X12450000Y8583276D02*
X12402381Y8773752D01*
X12402381Y8773752D02*
X12402381Y8916609D01*
X12402381Y8916609D02*
X12450000Y9107085D01*
X12450000Y9107085D02*
X12497619Y9202323D01*
X12497619Y9202323D02*
X12592857Y9297561D01*
X12592857Y9297561D02*
X12735714Y9345180D01*
X12735714Y9345180D02*
X12830952Y9345180D01*
X12830952Y9345180D02*
X12973809Y9297561D01*
X12973809Y9297561D02*
X13021428Y9249942D01*
X13354762Y9345180D02*
X14021428Y8345180D01*
X14021428Y9345180D02*
X13354762Y8345180D01*
X14259524Y9345180D02*
X14592857Y8345180D01*
X14592857Y8345180D02*
X14926190Y9345180D01*
X15450000Y9345180D02*
X15545238Y9345180D01*
X15545238Y9345180D02*
X15640476Y9297561D01*
X15640476Y9297561D02*
X15688095Y9249942D01*
X15688095Y9249942D02*
X15735714Y9154704D01*
X15735714Y9154704D02*
X15783333Y8964228D01*
X15783333Y8964228D02*
X15783333Y8726133D01*
X15783333Y8726133D02*
X15735714Y8535657D01*
X15735714Y8535657D02*
X15688095Y8440419D01*
X15688095Y8440419D02*
X15640476Y8392800D01*
X15640476Y8392800D02*
X15545238Y8345180D01*
X15545238Y8345180D02*
X15450000Y8345180D01*
X15450000Y8345180D02*
X15354762Y8392800D01*
X15354762Y8392800D02*
X15307143Y8440419D01*
X15307143Y8440419D02*
X15259524Y8535657D01*
X15259524Y8535657D02*
X15211905Y8726133D01*
X15211905Y8726133D02*
X15211905Y8964228D01*
X15211905Y8964228D02*
X15259524Y9154704D01*
X15259524Y9154704D02*
X15307143Y9249942D01*
X15307143Y9249942D02*
X15354762Y9297561D01*
X15354762Y9297561D02*
X15450000Y9345180D01*
X16211905Y8345180D02*
X16211905Y9345180D01*
X16211905Y9345180D02*
X16450000Y9345180D01*
X16450000Y9345180D02*
X16592857Y9297561D01*
X16592857Y9297561D02*
X16688095Y9202323D01*
X16688095Y9202323D02*
X16735714Y9107085D01*
X16735714Y9107085D02*
X16783333Y8916609D01*
X16783333Y8916609D02*
X16783333Y8773752D01*
X16783333Y8773752D02*
X16735714Y8583276D01*
X16735714Y8583276D02*
X16688095Y8488038D01*
X16688095Y8488038D02*
X16592857Y8392800D01*
X16592857Y8392800D02*
X16450000Y8345180D01*
X16450000Y8345180D02*
X16211905Y8345180D01*
X17211905Y8345180D02*
X17211905Y9345180D01*
X17211905Y8868990D02*
X17783333Y8868990D01*
X17783333Y8345180D02*
X17783333Y9345180D01*
D11*
X6950000Y-23250000D03*
X8950000Y-23250000D03*
X10950000Y-23250000D03*
X12950000Y-23250000D03*
X22500000Y-2550000D03*
X2500000Y-22500000D03*
M02*
