%TF.GenerationSoftware,KiCad,Pcbnew,8.0.6-8.0.6-0~ubuntu24.04.1*%
%TF.CreationDate,2024-10-19T18:08:10+01:00*%
%TF.ProjectId,Distance,44697374-616e-4636-952e-6b696361645f,rev?*%
%TF.SameCoordinates,Original*%
%TF.FileFunction,Copper,L1,Top*%
%TF.FilePolarity,Positive*%
%FSLAX46Y46*%
G04 Gerber Fmt 4.6, Leading zero omitted, Abs format (unit mm)*
G04 Created by KiCad (PCBNEW 8.0.6-8.0.6-0~ubuntu24.04.1) date 2024-10-19 18:08:10*
%MOMM*%
%LPD*%
G01*
G04 APERTURE LIST*
G04 Aperture macros list*
%AMRoundRect*
0 Rectangle with rounded corners*
0 $1 Rounding radius*
0 $2 $3 $4 $5 $6 $7 $8 $9 X,Y pos of 4 corners*
0 Add a 4 corners polygon primitive as box body*
4,1,4,$2,$3,$4,$5,$6,$7,$8,$9,$2,$3,0*
0 Add four circle primitives for the rounded corners*
1,1,$1+$1,$2,$3*
1,1,$1+$1,$4,$5*
1,1,$1+$1,$6,$7*
1,1,$1+$1,$8,$9*
0 Add four rect primitives between the rounded corners*
20,1,$1+$1,$2,$3,$4,$5,0*
20,1,$1+$1,$4,$5,$6,$7,0*
20,1,$1+$1,$6,$7,$8,$9,0*
20,1,$1+$1,$8,$9,$2,$3,0*%
G04 Aperture macros list end*
%TA.AperFunction,SMDPad,CuDef*%
%ADD10RoundRect,0.147500X-0.172500X0.147500X-0.172500X-0.147500X0.172500X-0.147500X0.172500X0.147500X0*%
%TD*%
%TA.AperFunction,SMDPad,CuDef*%
%ADD11R,2.000000X1.600000*%
%TD*%
%TA.AperFunction,SMDPad,CuDef*%
%ADD12R,1.250000X0.300000*%
%TD*%
%TA.AperFunction,SMDPad,CuDef*%
%ADD13RoundRect,0.147500X0.147500X0.172500X-0.147500X0.172500X-0.147500X-0.172500X0.147500X-0.172500X0*%
%TD*%
%TA.AperFunction,ComponentPad*%
%ADD14R,1.350000X1.350000*%
%TD*%
%TA.AperFunction,ComponentPad*%
%ADD15O,1.350000X1.350000*%
%TD*%
%TA.AperFunction,SMDPad,CuDef*%
%ADD16R,1.060000X0.650000*%
%TD*%
%TA.AperFunction,SMDPad,CuDef*%
%ADD17RoundRect,0.125000X0.125000X0.125000X-0.125000X0.125000X-0.125000X-0.125000X0.125000X-0.125000X0*%
%TD*%
%TA.AperFunction,SMDPad,CuDef*%
%ADD18RoundRect,0.147500X0.172500X-0.147500X0.172500X0.147500X-0.172500X0.147500X-0.172500X-0.147500X0*%
%TD*%
%TA.AperFunction,SMDPad,CuDef*%
%ADD19RoundRect,0.147500X-0.147500X-0.172500X0.147500X-0.172500X0.147500X0.172500X-0.147500X0.172500X0*%
%TD*%
%TA.AperFunction,SMDPad,CuDef*%
%ADD20RoundRect,0.100000X0.637500X0.100000X-0.637500X0.100000X-0.637500X-0.100000X0.637500X-0.100000X0*%
%TD*%
%TA.AperFunction,ViaPad*%
%ADD21C,0.600000*%
%TD*%
%TA.AperFunction,Conductor*%
%ADD22C,0.200000*%
%TD*%
%ADD23C,0.300000*%
%ADD24C,0.350000*%
G04 APERTURE END LIST*
D10*
%TO.P,C9,1*%
%TO.N,VDD*%
X17100000Y-21980000D03*
%TO.P,C9,2*%
%TO.N,GND*%
X17100000Y-22950000D03*
%TD*%
D11*
%TO.P,J1,*%
%TO.N,*%
X3000000Y-18100000D03*
X3000000Y-6900000D03*
D12*
%TO.P,J1,1,1*%
%TO.N,GND*%
X5655000Y-8750000D03*
%TO.P,J1,2,2*%
%TO.N,5V*%
X5655000Y-9250000D03*
%TO.P,J1,3,3*%
X5655000Y-9750000D03*
%TO.P,J1,4,4*%
%TO.N,GND*%
X5655000Y-10250000D03*
%TO.P,J1,5,5*%
%TO.N,PS*%
X5655000Y-10750000D03*
%TO.P,J1,6,6*%
%TO.N,GND*%
X5655000Y-11250000D03*
%TO.P,J1,7,7*%
%TO.N,SCLK*%
X5655000Y-11750000D03*
%TO.P,J1,8,8*%
%TO.N,GND*%
X5655000Y-12250000D03*
%TO.P,J1,9,9*%
%TO.N,MISO*%
X5655000Y-12750000D03*
%TO.P,J1,10,10*%
%TO.N,GND*%
X5655000Y-13250000D03*
%TO.P,J1,11,11*%
%TO.N,MOSI*%
X5655000Y-13750000D03*
%TO.P,J1,12,12*%
%TO.N,Interrupt{slash}CAN*%
X5655000Y-14250000D03*
%TO.P,J1,13,13*%
%TO.N,GND*%
X5655000Y-14750000D03*
%TO.P,J1,14,14*%
%TO.N,5V*%
X5655000Y-15250000D03*
%TO.P,J1,15,15*%
X5655000Y-15750000D03*
%TO.P,J1,16,16*%
%TO.N,GND*%
X5655000Y-16250000D03*
%TD*%
D11*
%TO.P,J3,*%
%TO.N,*%
X22000000Y-6900000D03*
X22000000Y-18100000D03*
D12*
%TO.P,J3,1,1*%
%TO.N,GND*%
X19345000Y-16250000D03*
%TO.P,J3,2,2*%
%TO.N,5V*%
X19345000Y-15750000D03*
%TO.P,J3,3,3*%
X19345000Y-15250000D03*
%TO.P,J3,4,4*%
%TO.N,GND*%
X19345000Y-14750000D03*
%TO.P,J3,5,5*%
%TO.N,Interrupt{slash}CAN*%
X19345000Y-14250000D03*
%TO.P,J3,6,6*%
%TO.N,MOSI*%
X19345000Y-13750000D03*
%TO.P,J3,7,7*%
%TO.N,GND*%
X19345000Y-13250000D03*
%TO.P,J3,8,8*%
%TO.N,MISO*%
X19345000Y-12750000D03*
%TO.P,J3,9,9*%
%TO.N,GND*%
X19345000Y-12250000D03*
%TO.P,J3,10,10*%
%TO.N,SCLK*%
X19345000Y-11750000D03*
%TO.P,J3,11,11*%
%TO.N,GND*%
X19345000Y-11250000D03*
%TO.P,J3,12,12*%
%TO.N,PS*%
X19345000Y-10750000D03*
%TO.P,J3,13,13*%
%TO.N,GND*%
X19345000Y-10250000D03*
%TO.P,J3,14,14*%
%TO.N,5V*%
X19345000Y-9750000D03*
%TO.P,J3,15,15*%
X19345000Y-9250000D03*
%TO.P,J3,16,16*%
%TO.N,GND*%
X19345000Y-8750000D03*
%TD*%
D13*
%TO.P,R5,1*%
%TO.N,SDA*%
X12785000Y-7100000D03*
%TO.P,R5,2*%
%TO.N,VDD*%
X11815000Y-7100000D03*
%TD*%
D10*
%TO.P,C8,1*%
%TO.N,5V*%
X22100000Y-21115000D03*
%TO.P,C8,2*%
%TO.N,GND*%
X22100000Y-22085000D03*
%TD*%
D14*
%TO.P,J4,1,Pin_1*%
%TO.N,5V*%
X6950000Y-23250000D03*
D15*
%TO.P,J4,2,Pin_2*%
%TO.N,GND*%
X8950000Y-23250000D03*
%TO.P,J4,3,Pin_3*%
%TO.N,SWDIO*%
X10950000Y-23250000D03*
%TO.P,J4,4,Pin_4*%
%TO.N,SWDCLK*%
X12950000Y-23250000D03*
%TD*%
D16*
%TO.P,U2,1,IN*%
%TO.N,5V*%
X20700000Y-22950000D03*
%TO.P,U2,2,GND*%
%TO.N,GND*%
X20700000Y-22000000D03*
%TO.P,U2,3,EN*%
%TO.N,5V*%
X20700000Y-21050000D03*
%TO.P,U2,4,NC*%
%TO.N,unconnected-(U2-NC-Pad4)*%
X18500000Y-21050000D03*
%TO.P,U2,5,OUT*%
%TO.N,VDD*%
X18500000Y-22950000D03*
%TD*%
D17*
%TO.P,U1,1,AVDDVCSEL*%
%TO.N,VDD*%
X10900000Y-2200000D03*
%TO.P,U1,2,AVSSVCSEL*%
%TO.N,GND*%
X11700000Y-2200000D03*
%TO.P,U1,3,GND*%
X12500000Y-2200000D03*
%TO.P,U1,4,GND*%
X13300000Y-2200000D03*
%TO.P,U1,5,XSHUT*%
%TO.N,XSHUT*%
X14100000Y-2200000D03*
%TO.P,U1,6,GND*%
%TO.N,GND*%
X14100000Y-3000000D03*
%TO.P,U1,7,GPIO1*%
%TO.N,unconnected-(U1-GPIO1-Pad7)*%
X14100000Y-3800000D03*
%TO.P,U1,8,DNC*%
%TO.N,unconnected-(U1-DNC-Pad8)*%
X13300000Y-3800000D03*
%TO.P,U1,9,SDA*%
%TO.N,SDA*%
X12500000Y-3800000D03*
%TO.P,U1,10,SCL*%
%TO.N,SCL*%
X11700000Y-3800000D03*
%TO.P,U1,11,AVDD*%
%TO.N,VDD*%
X10900000Y-3800000D03*
%TO.P,U1,12,GND*%
%TO.N,GND*%
X10900000Y-3000000D03*
%TD*%
D18*
%TO.P,R2,1*%
%TO.N,Net-(U3-PA7)*%
X7521526Y-16335000D03*
%TO.P,R2,2*%
%TO.N,MOSI*%
X7521526Y-15365000D03*
%TD*%
D19*
%TO.P,R6,1*%
%TO.N,SCL*%
X10765000Y-5950000D03*
%TO.P,R6,2*%
%TO.N,VDD*%
X11735000Y-5950000D03*
%TD*%
D20*
%TO.P,U3,1,PB7/PB8*%
%TO.N,SCL*%
X15628474Y-20550000D03*
%TO.P,U3,2,PC14/PB9*%
%TO.N,SDA*%
X15628474Y-19900000D03*
%TO.P,U3,3,PC15*%
%TO.N,unconnected-(U3-PC15-Pad3)*%
X15628474Y-19250000D03*
%TO.P,U3,4,VDD*%
%TO.N,VDD*%
X15628474Y-18600000D03*
%TO.P,U3,5,VSS*%
%TO.N,GND*%
X15628474Y-17950000D03*
%TO.P,U3,6,NRST*%
%TO.N,Net-(U3-NRST)*%
X15628474Y-17300000D03*
%TO.P,U3,7,PA0*%
%TO.N,unconnected-(U3-PA0-Pad7)*%
X15628474Y-16650000D03*
%TO.P,U3,8,PA1*%
%TO.N,Net-(U3-PA1)*%
X15628474Y-16000000D03*
%TO.P,U3,9,PA2*%
%TO.N,unconnected-(U3-PA2-Pad9)*%
X15628474Y-15350000D03*
%TO.P,U3,10,PA3*%
%TO.N,XSHUT*%
X15628474Y-14700000D03*
%TO.P,U3,11,PA4*%
%TO.N,unconnected-(U3-PA4-Pad11)*%
X9903474Y-14700000D03*
%TO.P,U3,12,PA5*%
%TO.N,Net-(U3-PA5)*%
X9903474Y-15350000D03*
%TO.P,U3,13,PA6*%
%TO.N,Net-(U3-PA6)*%
X9903474Y-16000000D03*
%TO.P,U3,14,PA7*%
%TO.N,Net-(U3-PA7)*%
X9903474Y-16650000D03*
%TO.P,U3,15,PB0/PB1/PB2/PA8*%
%TO.N,unconnected-(U3-PB0{slash}PB1{slash}PB2{slash}PA8-Pad15)*%
X9903474Y-17300000D03*
%TO.P,U3,16,PA11/PA9*%
%TO.N,unconnected-(U3-PA11{slash}PA9-Pad16)*%
X9903474Y-17950000D03*
%TO.P,U3,17,PA12/PA10*%
%TO.N,unconnected-(U3-PA12{slash}PA10-Pad17)*%
X9903474Y-18600000D03*
%TO.P,U3,18,PA13*%
%TO.N,SWDIO*%
X9903474Y-19250000D03*
%TO.P,U3,19,PA14/PA15*%
%TO.N,SWDCLK*%
X9903474Y-19900000D03*
%TO.P,U3,20,PB3/PB4/PB5/PB6*%
%TO.N,unconnected-(U3-PB3{slash}PB4{slash}PB5{slash}PB6-Pad20)*%
X9903474Y-20550000D03*
%TD*%
D18*
%TO.P,R3,1*%
%TO.N,Net-(U3-PA5)*%
X7521526Y-12325000D03*
%TO.P,R3,2*%
%TO.N,SCLK*%
X7521526Y-11355000D03*
%TD*%
%TO.P,C2,1*%
%TO.N,VDD*%
X17478474Y-19270000D03*
%TO.P,C2,2*%
%TO.N,GND*%
X17478474Y-18300000D03*
%TD*%
%TO.P,R4,1*%
%TO.N,Net-(U3-PA6)*%
X7546526Y-14335000D03*
%TO.P,R4,2*%
%TO.N,MISO*%
X7546526Y-13365000D03*
%TD*%
%TO.P,C3,1*%
%TO.N,VDD*%
X9600000Y-3950000D03*
%TO.P,C3,2*%
%TO.N,GND*%
X9600000Y-2980000D03*
%TD*%
%TO.P,R1,1*%
%TO.N,Net-(U3-PA1)*%
X17346526Y-12310000D03*
%TO.P,R1,2*%
%TO.N,PS*%
X17346526Y-11340000D03*
%TD*%
D10*
%TO.P,C1,1*%
%TO.N,Net-(U3-NRST)*%
X17478474Y-16290000D03*
%TO.P,C1,2*%
%TO.N,GND*%
X17478474Y-17260000D03*
%TD*%
D21*
%TO.N,VDD*%
X14550000Y-5950000D03*
X12600000Y-5900000D03*
X9550000Y-5750000D03*
%TO.N,GND*%
X19850000Y-17250000D03*
X20950000Y-10150000D03*
X5700000Y-7800000D03*
X15775000Y-21650000D03*
X18325000Y-19725000D03*
X21225000Y-24325000D03*
X7000000Y-17550000D03*
X5800000Y-21175000D03*
X18625000Y-1375000D03*
X2675000Y-12725000D03*
X22000000Y-14425000D03*
X5375000Y-24325000D03*
X15000000Y-4900000D03*
X23650000Y-8925000D03*
X2725000Y-8375000D03*
X6550000Y-1000000D03*
X22275000Y-11625000D03*
X2625000Y-3125000D03*
X11350000Y-9350000D03*
X2425000Y-10225000D03*
X12150000Y-1000000D03*
X11500000Y-20875000D03*
X9075000Y-9425000D03*
X23200000Y-22075000D03*
X19500000Y-7500000D03*
X11878474Y-16925000D03*
X23975000Y-16700000D03*
X1650000Y-15700000D03*
%TO.N,Interrupt{slash}CAN*%
X3433283Y-14492777D03*
X21175000Y-15100000D03*
%TO.N,5V*%
X17250000Y-9150000D03*
X7500000Y-10000000D03*
%TO.N,MOSI*%
X21203925Y-13850000D03*
X2925000Y-13875000D03*
%TO.N,MISO*%
X4011311Y-12750000D03*
X22100000Y-12825000D03*
%TO.N,SCLK*%
X21400000Y-11650000D03*
X2850000Y-11625000D03*
%TO.N,PS*%
X17375000Y-10350000D03*
X3725000Y-10575000D03*
%TD*%
D22*
%TO.N,VDD*%
X9200000Y-3950000D02*
X9600000Y-3950000D01*
X16821526Y-18600000D02*
X17478474Y-19256948D01*
X8500000Y-3250000D02*
X9200000Y-3950000D01*
X11815000Y-7100000D02*
X11815000Y-6030000D01*
X18500000Y-22950000D02*
X18070000Y-22950000D01*
X14890975Y-18600000D02*
X14550000Y-18259025D01*
X9600000Y-3950000D02*
X9600000Y-5700000D01*
X11815000Y-6030000D02*
X11735000Y-5950000D01*
X10900000Y-2200000D02*
X9423052Y-2200000D01*
X11735000Y-5950000D02*
X12550000Y-5950000D01*
X9600000Y-5700000D02*
X9550000Y-5750000D01*
X9600000Y-3950000D02*
X10750000Y-3950000D01*
X8500000Y-3123052D02*
X8500000Y-3250000D01*
X17478474Y-19256948D02*
X17478474Y-19270000D01*
X15628474Y-18600000D02*
X14890975Y-18600000D01*
X15628474Y-18600000D02*
X16821526Y-18600000D01*
X9423052Y-2200000D02*
X8500000Y-3123052D01*
X17100000Y-19648474D02*
X17478474Y-19270000D01*
X14550000Y-18259025D02*
X14550000Y-5950000D01*
X17100000Y-21980000D02*
X17100000Y-19648474D01*
X18070000Y-22950000D02*
X17100000Y-21980000D01*
X10750000Y-3950000D02*
X10900000Y-3800000D01*
X12550000Y-5950000D02*
X12600000Y-5900000D01*
%TO.N,GND*%
X4834314Y-14750000D02*
X4491537Y-15092777D01*
X3142777Y-15092777D02*
X2075000Y-14025000D01*
X4359840Y-12250000D02*
X4259840Y-12150000D01*
X17128474Y-17950000D02*
X17478474Y-18300000D01*
X2250000Y-11376471D02*
X2250000Y-11873529D01*
X11149999Y-3000000D02*
X10900000Y-3000000D01*
X2075000Y-14025000D02*
X2075000Y-13325000D01*
X5655000Y-12250000D02*
X4359840Y-12250000D01*
X3948529Y-11325000D02*
X3451471Y-11325000D01*
X21700000Y-11050000D02*
X20420000Y-11050000D01*
X2075000Y-13325000D02*
X2675000Y-12725000D01*
X5655000Y-14750000D02*
X4834314Y-14750000D01*
X3300000Y-13350000D02*
X2675000Y-12725000D01*
X21901471Y-13475000D02*
X22298529Y-13475000D01*
X4491537Y-15092777D02*
X3142777Y-15092777D01*
X3325000Y-12600000D02*
X3325000Y-12450000D01*
X3625000Y-12150000D02*
X3325000Y-12450000D01*
X3100000Y-10725000D02*
X3100000Y-10475000D01*
X4259840Y-12150000D02*
X3625000Y-12150000D01*
X10900000Y-3000000D02*
X14100000Y-3000000D01*
X19345000Y-13250000D02*
X21676471Y-13250000D01*
X22275000Y-11625000D02*
X22000000Y-11350000D01*
X3275000Y-13325000D02*
X2675000Y-12725000D01*
X19345000Y-14750000D02*
X18470000Y-14750000D01*
X20220000Y-11250000D02*
X19345000Y-11250000D01*
X18425000Y-13250000D02*
X19345000Y-13250000D01*
X4650000Y-13250000D02*
X4550000Y-13350000D01*
X5655000Y-13250000D02*
X4650000Y-13250000D01*
X3151471Y-11025000D02*
X2601471Y-11025000D01*
X15643474Y-17935000D02*
X15628474Y-17950000D01*
X3100000Y-10973529D02*
X3151471Y-11025000D01*
X17478474Y-17260000D02*
X17478474Y-18300000D01*
X20420000Y-11050000D02*
X20220000Y-11250000D01*
X2601471Y-11025000D02*
X2250000Y-11376471D01*
X5655000Y-11250000D02*
X4023529Y-11250000D01*
X11700000Y-2200000D02*
X11700000Y-2449999D01*
X21826471Y-12250000D02*
X22000000Y-12076471D01*
X10880000Y-2980000D02*
X10900000Y-3000000D01*
X22750000Y-12500000D02*
X22000000Y-11750000D01*
X22298529Y-13475000D02*
X22750000Y-13023529D01*
X9600000Y-2980000D02*
X10880000Y-2980000D01*
X22750000Y-13023529D02*
X22750000Y-12500000D01*
X2976471Y-12600000D02*
X3325000Y-12600000D01*
X3100000Y-10725000D02*
X3100000Y-10973529D01*
X3325000Y-12898529D02*
X3325000Y-12600000D01*
X3275000Y-13350000D02*
X3275000Y-13325000D01*
X19345000Y-12250000D02*
X21826471Y-12250000D01*
X22000000Y-11350000D02*
X21700000Y-11050000D01*
X21676471Y-13250000D02*
X21901471Y-13475000D01*
X4550000Y-13350000D02*
X3275000Y-13350000D01*
X11700000Y-2449999D02*
X11149999Y-3000000D01*
X3451471Y-11325000D02*
X3100000Y-10973529D01*
X22000000Y-12076471D02*
X22275000Y-11625000D01*
X4023529Y-11250000D02*
X3948529Y-11325000D01*
X2250000Y-11873529D02*
X2976471Y-12600000D01*
X15628474Y-17950000D02*
X17128474Y-17950000D01*
%TO.N,Net-(U3-NRST)*%
X16468474Y-17300000D02*
X17478474Y-16290000D01*
X15628474Y-17300000D02*
X16468474Y-17300000D01*
%TO.N,Interrupt{slash}CAN*%
X20325000Y-14250000D02*
X19345000Y-14250000D01*
X4750000Y-14250000D02*
X3676060Y-14250000D01*
X5655000Y-14250000D02*
X4750000Y-14250000D01*
X21175000Y-15100000D02*
X20325000Y-14250000D01*
X3676060Y-14250000D02*
X3433283Y-14492777D01*
%TO.N,5V*%
X17350000Y-9250000D02*
X18400000Y-9250000D01*
X7500000Y-9850000D02*
X7500000Y-10000000D01*
X7100000Y-9450000D02*
X6900000Y-9250000D01*
X1500000Y-14350000D02*
X2900000Y-15750000D01*
X2551471Y-9250000D02*
X1500000Y-10301471D01*
X20700000Y-21050000D02*
X22035000Y-21050000D01*
X5655000Y-9250000D02*
X2551471Y-9250000D01*
X18400000Y-9500000D02*
X18400000Y-9250000D01*
X19345000Y-15750000D02*
X20500000Y-15750000D01*
X7100000Y-9450000D02*
X7500000Y-9850000D01*
X17250000Y-9150000D02*
X17350000Y-9250000D01*
X19345000Y-9250000D02*
X21650000Y-9250000D01*
X6950000Y-23250000D02*
X6950000Y-19300000D01*
X5655000Y-9750000D02*
X6800000Y-9750000D01*
X23350000Y-10950000D02*
X23350000Y-14850000D01*
X23350000Y-14850000D02*
X22500000Y-15700000D01*
X20500000Y-15750000D02*
X20700000Y-15950000D01*
X22035000Y-21050000D02*
X22100000Y-21115000D01*
X6800000Y-9750000D02*
X7100000Y-9450000D01*
X22500000Y-15700000D02*
X20750000Y-15700000D01*
X1500000Y-10301471D02*
X1500000Y-14350000D01*
X20750000Y-15700000D02*
X20700000Y-15650000D01*
X20500000Y-15750000D02*
X20600000Y-15750000D01*
X21650000Y-9250000D02*
X23350000Y-10950000D01*
X19970000Y-22950000D02*
X19870000Y-22850000D01*
X20300000Y-15250000D02*
X19345000Y-15250000D01*
X4300000Y-16650000D02*
X4300000Y-15750000D01*
X18650000Y-9750000D02*
X18400000Y-9500000D01*
X4600000Y-15750000D02*
X5655000Y-15750000D01*
X6950000Y-19300000D02*
X4300000Y-16650000D01*
X20700000Y-22950000D02*
X19970000Y-22950000D01*
X19870000Y-21400000D02*
X20220000Y-21050000D01*
X4300000Y-15750000D02*
X4600000Y-15750000D01*
X20220000Y-21050000D02*
X20700000Y-21050000D01*
X20700000Y-15650000D02*
X20300000Y-15250000D01*
X6900000Y-9250000D02*
X5655000Y-9250000D01*
X20700000Y-15950000D02*
X20700000Y-21050000D01*
X18400000Y-9250000D02*
X19345000Y-9250000D01*
X19345000Y-9750000D02*
X18650000Y-9750000D01*
X5100000Y-15250000D02*
X4600000Y-15750000D01*
X2900000Y-15750000D02*
X4300000Y-15750000D01*
X5655000Y-15250000D02*
X5100000Y-15250000D01*
X20600000Y-15750000D02*
X20700000Y-15650000D01*
X19870000Y-22850000D02*
X19870000Y-21400000D01*
%TO.N,MOSI*%
X19345000Y-13750000D02*
X21103925Y-13750000D01*
X21103925Y-13750000D02*
X21203925Y-13850000D01*
X6725000Y-13945000D02*
X6725000Y-14568474D01*
X3050000Y-13750000D02*
X5655000Y-13750000D01*
X5655000Y-13750000D02*
X6530000Y-13750000D01*
X6530000Y-13750000D02*
X6725000Y-13945000D01*
X2925000Y-13875000D02*
X3050000Y-13750000D01*
X6725000Y-14568474D02*
X7521526Y-15365000D01*
%TO.N,MISO*%
X7145000Y-13365000D02*
X7546526Y-13365000D01*
X5655000Y-12750000D02*
X4011311Y-12750000D01*
X6530000Y-12750000D02*
X7145000Y-13365000D01*
X5655000Y-12750000D02*
X6530000Y-12750000D01*
X22100000Y-12825000D02*
X22025000Y-12750000D01*
X22025000Y-12750000D02*
X19345000Y-12750000D01*
%TO.N,SCLK*%
X7126526Y-11750000D02*
X7521526Y-11355000D01*
X4139214Y-11750000D02*
X5655000Y-11750000D01*
X21300000Y-11750000D02*
X19345000Y-11750000D01*
X5655000Y-11750000D02*
X7126526Y-11750000D01*
X2850000Y-11625000D02*
X2950000Y-11725000D01*
X21400000Y-11650000D02*
X21300000Y-11750000D01*
X2950000Y-11725000D02*
X4114214Y-11725000D01*
X4114214Y-11725000D02*
X4139214Y-11750000D01*
%TO.N,PS*%
X5655000Y-10750000D02*
X3725000Y-10750000D01*
X17346526Y-11340000D02*
X17936526Y-10750000D01*
X17196526Y-11190000D02*
X17346526Y-11340000D01*
X17936526Y-10750000D02*
X19345000Y-10750000D01*
X3725000Y-10750000D02*
X3700000Y-10725000D01*
X17196526Y-10350000D02*
X17196526Y-11190000D01*
%TO.N,SDA*%
X14000000Y-19009025D02*
X14000000Y-8315000D01*
X13200000Y-4600000D02*
X12500000Y-3900000D01*
X14890975Y-19900000D02*
X14000000Y-19009025D01*
X14000000Y-8315000D02*
X12785000Y-7100000D01*
X15628474Y-19900000D02*
X14890975Y-19900000D01*
X13200000Y-6685000D02*
X13200000Y-4600000D01*
X12500000Y-3900000D02*
X12500000Y-3800000D01*
X12785000Y-7100000D02*
X13200000Y-6685000D01*
%TO.N,SCL*%
X10765000Y-7215000D02*
X10765000Y-5950000D01*
X13350000Y-19009025D02*
X13350000Y-9800000D01*
X14890975Y-20550000D02*
X13350000Y-19009025D01*
X11700000Y-5015000D02*
X11700000Y-3800000D01*
X10765000Y-5950000D02*
X11700000Y-5015000D01*
X13350000Y-9800000D02*
X10765000Y-7215000D01*
X15628474Y-20550000D02*
X14890975Y-20550000D01*
%TO.N,SWDIO*%
X8400000Y-20015975D02*
X8400000Y-20925000D01*
X8400000Y-20925000D02*
X10725000Y-23250000D01*
X10725000Y-23250000D02*
X10950000Y-23250000D01*
X9165975Y-19250000D02*
X8400000Y-20015975D01*
X9903474Y-19250000D02*
X9165975Y-19250000D01*
%TO.N,SWDCLK*%
X9165975Y-19900000D02*
X9903474Y-19900000D01*
X8865974Y-20200001D02*
X9165975Y-19900000D01*
X12950000Y-23250000D02*
X11300000Y-21600000D01*
X11300000Y-21600000D02*
X9647518Y-21600000D01*
X9647518Y-21600000D02*
X8865974Y-20818456D01*
X8865974Y-20818456D02*
X8865974Y-20200001D01*
%TO.N,XSHUT*%
X14650000Y-2200000D02*
X14100000Y-2200000D01*
X15150000Y-7050000D02*
X15900000Y-6300000D01*
X15628474Y-14700000D02*
X15150000Y-14221526D01*
X15900000Y-6300000D02*
X15900000Y-3450000D01*
X15900000Y-3450000D02*
X14650000Y-2200000D01*
X15150000Y-14221526D02*
X15150000Y-7050000D01*
%TO.N,Net-(U3-PA1)*%
X17346526Y-12310000D02*
X17346526Y-14937904D01*
X17346526Y-14937904D02*
X16284430Y-16000000D01*
X16284430Y-16000000D02*
X15628474Y-16000000D01*
%TO.N,Net-(U3-PA5)*%
X9163204Y-15350000D02*
X9903474Y-15350000D01*
X8521526Y-14708322D02*
X9163204Y-15350000D01*
X7521526Y-12325000D02*
X8521526Y-13325000D01*
X8521526Y-13325000D02*
X8521526Y-14708322D01*
%TO.N,Net-(U3-PA6)*%
X9247518Y-16000000D02*
X9903474Y-16000000D01*
X7546526Y-14335000D02*
X7582518Y-14335000D01*
X7582518Y-14335000D02*
X9247518Y-16000000D01*
%TO.N,Net-(U3-PA7)*%
X7521526Y-16335000D02*
X7836526Y-16650000D01*
X7836526Y-16650000D02*
X9903474Y-16650000D01*
%TD*%
%TA.AperFunction,Conductor*%
%TO.N,GND*%
G36*
X6830412Y-15113223D02*
G01*
X6868482Y-15136927D01*
X6972030Y-15240475D01*
X6999807Y-15294992D01*
X7001026Y-15310479D01*
X7001026Y-15545528D01*
X7006085Y-15580252D01*
X7010881Y-15613171D01*
X7019674Y-15631157D01*
X7061890Y-15717511D01*
X7124377Y-15779998D01*
X7152153Y-15834513D01*
X7142582Y-15894945D01*
X7124378Y-15920000D01*
X7084990Y-15959389D01*
X7061890Y-15982489D01*
X7010881Y-16086828D01*
X7010881Y-16086830D01*
X7001026Y-16154472D01*
X7001026Y-16515528D01*
X7008164Y-16564521D01*
X7010881Y-16583171D01*
X7029112Y-16620463D01*
X7061890Y-16687511D01*
X7144015Y-16769636D01*
X7248356Y-16820645D01*
X7315998Y-16830500D01*
X7551047Y-16830500D01*
X7609238Y-16849407D01*
X7621050Y-16859495D01*
X7652015Y-16890460D01*
X7652017Y-16890461D01*
X7720533Y-16930019D01*
X7720537Y-16930021D01*
X7796961Y-16950499D01*
X7796963Y-16950500D01*
X7796964Y-16950500D01*
X8895716Y-16950500D01*
X8953907Y-16969407D01*
X8989871Y-17018907D01*
X8989871Y-17080093D01*
X8986281Y-17089487D01*
X8968389Y-17130008D01*
X8968388Y-17130011D01*
X8965474Y-17155130D01*
X8965474Y-17444859D01*
X8965475Y-17444864D01*
X8968388Y-17469990D01*
X9017474Y-17581157D01*
X9015100Y-17582205D01*
X9028511Y-17627757D01*
X9015451Y-17667949D01*
X9017474Y-17668843D01*
X9013768Y-17677234D01*
X9013768Y-17677235D01*
X9004783Y-17697585D01*
X8968388Y-17780011D01*
X8965474Y-17805130D01*
X8965474Y-18094859D01*
X8965475Y-18094864D01*
X8968388Y-18119990D01*
X9017474Y-18231157D01*
X9015100Y-18232205D01*
X9028511Y-18277757D01*
X9015451Y-18317949D01*
X9017474Y-18318843D01*
X9013768Y-18327234D01*
X9013768Y-18327235D01*
X9004783Y-18347585D01*
X8968388Y-18430011D01*
X8965474Y-18455130D01*
X8965474Y-18744859D01*
X8965475Y-18744864D01*
X8968388Y-18769990D01*
X8974731Y-18784355D01*
X9012059Y-18868895D01*
X9017474Y-18881157D01*
X9015098Y-18882205D01*
X9028511Y-18927744D01*
X9011224Y-18980947D01*
X9011000Y-18981274D01*
X8985836Y-19004576D01*
X8986613Y-19005589D01*
X8981467Y-19009537D01*
X8215489Y-19775515D01*
X8215488Y-19775514D01*
X8159539Y-19831464D01*
X8119980Y-19899982D01*
X8119978Y-19899986D01*
X8099500Y-19976410D01*
X8099500Y-20964564D01*
X8119978Y-21040988D01*
X8119979Y-21040989D01*
X8153168Y-21098475D01*
X8153170Y-21098479D01*
X8153171Y-21098479D01*
X8159536Y-21109505D01*
X8159538Y-21109508D01*
X8159540Y-21109511D01*
X9171005Y-22120976D01*
X9198781Y-22175491D01*
X9200000Y-22190978D01*
X9200000Y-22969670D01*
X9180255Y-22949925D01*
X9094745Y-22900556D01*
X8999370Y-22875000D01*
X8900630Y-22875000D01*
X8805255Y-22900556D01*
X8719745Y-22949925D01*
X8700000Y-22969670D01*
X8700000Y-22101379D01*
X8699999Y-22101379D01*
X8627073Y-22115011D01*
X8627067Y-22115013D01*
X8424013Y-22193677D01*
X8424008Y-22193680D01*
X8238873Y-22308311D01*
X8238870Y-22308313D01*
X8077944Y-22455015D01*
X7995383Y-22564343D01*
X7945227Y-22599386D01*
X7884052Y-22598255D01*
X7835225Y-22561382D01*
X7819283Y-22523999D01*
X7813867Y-22496769D01*
X7769552Y-22430448D01*
X7769548Y-22430445D01*
X7703233Y-22386134D01*
X7703231Y-22386133D01*
X7703228Y-22386132D01*
X7703227Y-22386132D01*
X7644758Y-22374501D01*
X7644748Y-22374500D01*
X7644747Y-22374500D01*
X7349500Y-22374500D01*
X7291309Y-22355593D01*
X7255345Y-22306093D01*
X7250500Y-22275500D01*
X7250500Y-19260437D01*
X7250499Y-19260435D01*
X7230021Y-19184011D01*
X7230019Y-19184007D01*
X7190460Y-19115489D01*
X7134511Y-19059539D01*
X7134511Y-19059540D01*
X5143975Y-17069004D01*
X5116198Y-17014487D01*
X5125769Y-16954055D01*
X5169034Y-16910790D01*
X5213979Y-16900000D01*
X5504999Y-16900000D01*
X5505000Y-16899999D01*
X5505000Y-16400001D01*
X5805000Y-16400001D01*
X5805000Y-16899999D01*
X5805001Y-16900000D01*
X6327824Y-16900000D01*
X6387370Y-16893598D01*
X6387381Y-16893596D01*
X6522088Y-16843353D01*
X6522090Y-16843352D01*
X6637184Y-16757192D01*
X6637192Y-16757184D01*
X6723352Y-16642090D01*
X6723353Y-16642088D01*
X6773596Y-16507381D01*
X6773598Y-16507370D01*
X6780000Y-16447824D01*
X6780000Y-16400001D01*
X6779999Y-16400000D01*
X5805001Y-16400000D01*
X5805000Y-16400001D01*
X5505000Y-16400001D01*
X5505000Y-16199500D01*
X5523907Y-16141309D01*
X5573407Y-16105345D01*
X5604000Y-16100500D01*
X6299744Y-16100500D01*
X6299748Y-16100500D01*
X6299751Y-16100499D01*
X6299988Y-16100476D01*
X6309689Y-16100000D01*
X6779999Y-16100000D01*
X6780000Y-16099999D01*
X6780000Y-16052175D01*
X6773598Y-15992629D01*
X6773596Y-15992618D01*
X6723353Y-15857911D01*
X6723352Y-15857909D01*
X6637192Y-15742815D01*
X6637184Y-15742807D01*
X6520171Y-15655210D01*
X6484918Y-15605201D01*
X6481866Y-15585000D01*
X6480976Y-15585088D01*
X6480500Y-15580261D01*
X6480500Y-15580252D01*
X6468867Y-15521769D01*
X6468379Y-15519315D01*
X6468379Y-15480685D01*
X6480498Y-15419758D01*
X6480499Y-15419751D01*
X6480500Y-15419748D01*
X6480500Y-15419737D01*
X6480976Y-15414912D01*
X6483388Y-15415149D01*
X6499407Y-15365850D01*
X6520171Y-15344788D01*
X6637184Y-15257192D01*
X6637188Y-15257188D01*
X6719224Y-15147602D01*
X6769233Y-15112349D01*
X6830412Y-15113223D01*
G37*
%TD.AperFunction*%
%TA.AperFunction,Conductor*%
G36*
X22502992Y-100681D02*
G01*
X22783256Y-117633D01*
X22795111Y-119073D01*
X22958223Y-148964D01*
X22983638Y-153622D01*
X23037468Y-182709D01*
X23063920Y-237880D01*
X23052891Y-298064D01*
X23008593Y-340270D01*
X22965793Y-350000D01*
X21999997Y-350000D01*
X21299998Y-650000D01*
X20799999Y-1050000D01*
X20600005Y-1349990D01*
X20599998Y-1350002D01*
X20400001Y-1749996D01*
X20300000Y-2050000D01*
X20300000Y-3050002D01*
X20599997Y-3749995D01*
X20600000Y-3750000D01*
X21032837Y-4269405D01*
X21100000Y-4350000D01*
X21900000Y-4750000D01*
X22899998Y-4750000D01*
X22900000Y-4750000D01*
X23500000Y-4650000D01*
X24100000Y-4150000D01*
X24500000Y-3650000D01*
X24700000Y-2950000D01*
X24700000Y-2478186D01*
X24718907Y-2419995D01*
X24768407Y-2384031D01*
X24829593Y-2384031D01*
X24879093Y-2419995D01*
X24897819Y-2472209D01*
X24899319Y-2497007D01*
X24899500Y-2502984D01*
X24899500Y-22497015D01*
X24899319Y-22502993D01*
X24882366Y-22783251D01*
X24880925Y-22795118D01*
X24830854Y-23068346D01*
X24827993Y-23079954D01*
X24745353Y-23345154D01*
X24741114Y-23356332D01*
X24627107Y-23609646D01*
X24621551Y-23620231D01*
X24477849Y-23857944D01*
X24471058Y-23867783D01*
X24299749Y-24086443D01*
X24291822Y-24095392D01*
X24095392Y-24291822D01*
X24086443Y-24299749D01*
X23867783Y-24471058D01*
X23857944Y-24477849D01*
X23620231Y-24621551D01*
X23609646Y-24627107D01*
X23356332Y-24741114D01*
X23345154Y-24745353D01*
X23079954Y-24827993D01*
X23068346Y-24830854D01*
X22795118Y-24880925D01*
X22783251Y-24882366D01*
X22527790Y-24897819D01*
X22502991Y-24899319D01*
X22497015Y-24899500D01*
X2502985Y-24899500D01*
X2497008Y-24899319D01*
X2472210Y-24897819D01*
X2415267Y-24875433D01*
X2382357Y-24823852D01*
X2386051Y-24762778D01*
X2424938Y-24715540D01*
X2478187Y-24700000D01*
X2899998Y-24700000D01*
X2900000Y-24700000D01*
X3500000Y-24600000D01*
X4100000Y-24100000D01*
X4500000Y-23600000D01*
X4700000Y-22900000D01*
X4700000Y-21900000D01*
X4500000Y-21400000D01*
X4100000Y-20900000D01*
X3600000Y-20500000D01*
X3000000Y-20300000D01*
X2000000Y-20300000D01*
X1999997Y-20300000D01*
X1299998Y-20600000D01*
X799999Y-21000000D01*
X600005Y-21299990D01*
X599998Y-21300002D01*
X400001Y-21699996D01*
X300000Y-22000000D01*
X300000Y-22521813D01*
X281093Y-22580004D01*
X231593Y-22615968D01*
X170407Y-22615968D01*
X120907Y-22580004D01*
X102181Y-22527790D01*
X100681Y-22502992D01*
X100500Y-22497015D01*
X100500Y-10261906D01*
X1199500Y-10261906D01*
X1199500Y-14389564D01*
X1219978Y-14465988D01*
X1226777Y-14477763D01*
X1248557Y-14515487D01*
X1248558Y-14515491D01*
X1248559Y-14515491D01*
X1259537Y-14534507D01*
X1259538Y-14534508D01*
X1259540Y-14534511D01*
X2659540Y-15934511D01*
X2659539Y-15934511D01*
X2715489Y-15990460D01*
X2784007Y-16030019D01*
X2784011Y-16030021D01*
X2860435Y-16050499D01*
X2860437Y-16050500D01*
X2860438Y-16050500D01*
X3900500Y-16050500D01*
X3958691Y-16069407D01*
X3994655Y-16118907D01*
X3999500Y-16149500D01*
X3999500Y-16689564D01*
X4019978Y-16765987D01*
X4019979Y-16765989D01*
X4051157Y-16819991D01*
X4059540Y-16834511D01*
X4169438Y-16944409D01*
X4197214Y-16998924D01*
X4187643Y-17059356D01*
X4144378Y-17102621D01*
X4083946Y-17112192D01*
X4080118Y-17111509D01*
X4078232Y-17111133D01*
X4078231Y-17111133D01*
X4019748Y-17099500D01*
X1980252Y-17099500D01*
X1980251Y-17099500D01*
X1980241Y-17099501D01*
X1921772Y-17111132D01*
X1921766Y-17111134D01*
X1855451Y-17155445D01*
X1855445Y-17155451D01*
X1811134Y-17221766D01*
X1811132Y-17221772D01*
X1799501Y-17280241D01*
X1799500Y-17280253D01*
X1799500Y-18919746D01*
X1799501Y-18919758D01*
X1811132Y-18978227D01*
X1811134Y-18978233D01*
X1828736Y-19004576D01*
X1855448Y-19044552D01*
X1921769Y-19088867D01*
X1966231Y-19097711D01*
X1980241Y-19100498D01*
X1980246Y-19100498D01*
X1980252Y-19100500D01*
X1980253Y-19100500D01*
X4019747Y-19100500D01*
X4019748Y-19100500D01*
X4078231Y-19088867D01*
X4144552Y-19044552D01*
X4188867Y-18978231D01*
X4200500Y-18919748D01*
X4200500Y-17280252D01*
X4200499Y-17280250D01*
X4200499Y-17280244D01*
X4194788Y-17251538D01*
X4188867Y-17221769D01*
X4188866Y-17221767D01*
X4188491Y-17219882D01*
X4195681Y-17159121D01*
X4237213Y-17114190D01*
X4297222Y-17102252D01*
X4352788Y-17127867D01*
X4355566Y-17130537D01*
X6620505Y-19395476D01*
X6648281Y-19449991D01*
X6649500Y-19465478D01*
X6649500Y-22275500D01*
X6630593Y-22333691D01*
X6581093Y-22369655D01*
X6550500Y-22374500D01*
X6255252Y-22374500D01*
X6255251Y-22374500D01*
X6255241Y-22374501D01*
X6196772Y-22386132D01*
X6196766Y-22386134D01*
X6130451Y-22430445D01*
X6130445Y-22430451D01*
X6086134Y-22496766D01*
X6086132Y-22496772D01*
X6074501Y-22555241D01*
X6074500Y-22555253D01*
X6074500Y-23944746D01*
X6074501Y-23944758D01*
X6086132Y-24003227D01*
X6086134Y-24003233D01*
X6092249Y-24012384D01*
X6130448Y-24069552D01*
X6196769Y-24113867D01*
X6241231Y-24122711D01*
X6255241Y-24125498D01*
X6255246Y-24125498D01*
X6255252Y-24125500D01*
X6255253Y-24125500D01*
X7644747Y-24125500D01*
X7644748Y-24125500D01*
X7703231Y-24113867D01*
X7769552Y-24069552D01*
X7813867Y-24003231D01*
X7819283Y-23976001D01*
X7849178Y-23922619D01*
X7904743Y-23897003D01*
X7964753Y-23908940D01*
X7995384Y-23935656D01*
X8077947Y-24044987D01*
X8238870Y-24191686D01*
X8238873Y-24191688D01*
X8424008Y-24306319D01*
X8424013Y-24306322D01*
X8627070Y-24384987D01*
X8699999Y-24398620D01*
X8700000Y-24398620D01*
X8700000Y-23530330D01*
X8719745Y-23550075D01*
X8805255Y-23599444D01*
X8900630Y-23625000D01*
X8999370Y-23625000D01*
X9094745Y-23599444D01*
X9180255Y-23550075D01*
X9200000Y-23530330D01*
X9200000Y-24398620D01*
X9272929Y-24384987D01*
X9475986Y-24306322D01*
X9475991Y-24306319D01*
X9661126Y-24191688D01*
X9661129Y-24191686D01*
X9822052Y-24044987D01*
X9953283Y-23871209D01*
X9953288Y-23871200D01*
X10030605Y-23715927D01*
X10073467Y-23672265D01*
X10133808Y-23662135D01*
X10188579Y-23689407D01*
X10204962Y-23710555D01*
X10237805Y-23767440D01*
X10331239Y-23871209D01*
X10354463Y-23897003D01*
X10360950Y-23904207D01*
X10509839Y-24012381D01*
X10509843Y-24012383D01*
X10509845Y-24012384D01*
X10565485Y-24037156D01*
X10677966Y-24087236D01*
X10857981Y-24125500D01*
X10857983Y-24125500D01*
X11042017Y-24125500D01*
X11042019Y-24125500D01*
X11222034Y-24087236D01*
X11390161Y-24012381D01*
X11539050Y-23904207D01*
X11662195Y-23767440D01*
X11744433Y-23625000D01*
X11754209Y-23608068D01*
X11754209Y-23608066D01*
X11754214Y-23608059D01*
X11811085Y-23433029D01*
X11830322Y-23250000D01*
X11811085Y-23066971D01*
X11754214Y-22891941D01*
X11754211Y-22891936D01*
X11754209Y-22891931D01*
X11694912Y-22789228D01*
X11662195Y-22732560D01*
X11539050Y-22595793D01*
X11390161Y-22487619D01*
X11390157Y-22487617D01*
X11390154Y-22487615D01*
X11240582Y-22421022D01*
X11222034Y-22412764D01*
X11222031Y-22412763D01*
X11222030Y-22412763D01*
X11140833Y-22395504D01*
X11042019Y-22374500D01*
X10857981Y-22374500D01*
X10760797Y-22395157D01*
X10677969Y-22412763D01*
X10677963Y-22412765D01*
X10509841Y-22487617D01*
X10509833Y-22487622D01*
X10507433Y-22489366D01*
X10506015Y-22489826D01*
X10505346Y-22490213D01*
X10505263Y-22490070D01*
X10449241Y-22508269D01*
X10391051Y-22489357D01*
X10379244Y-22479273D01*
X9969475Y-22069504D01*
X9941698Y-22014987D01*
X9951269Y-21954555D01*
X9994534Y-21911290D01*
X10039479Y-21900500D01*
X11134521Y-21900500D01*
X11192712Y-21919407D01*
X11204525Y-21929496D01*
X12108083Y-22833054D01*
X12135860Y-22887571D01*
X12132234Y-22933649D01*
X12126946Y-22949925D01*
X12095803Y-23045773D01*
X12088915Y-23066971D01*
X12069678Y-23250000D01*
X12087498Y-23419548D01*
X12088916Y-23433034D01*
X12145784Y-23608054D01*
X12145790Y-23608068D01*
X12198868Y-23700000D01*
X12237805Y-23767440D01*
X12331239Y-23871209D01*
X12354463Y-23897003D01*
X12360950Y-23904207D01*
X12509839Y-24012381D01*
X12509843Y-24012383D01*
X12509845Y-24012384D01*
X12565485Y-24037156D01*
X12677966Y-24087236D01*
X12857981Y-24125500D01*
X12857983Y-24125500D01*
X13042017Y-24125500D01*
X13042019Y-24125500D01*
X13222034Y-24087236D01*
X13390161Y-24012381D01*
X13539050Y-23904207D01*
X13662195Y-23767440D01*
X13744433Y-23625000D01*
X13754209Y-23608068D01*
X13754209Y-23608066D01*
X13754214Y-23608059D01*
X13811085Y-23433029D01*
X13830322Y-23250000D01*
X13825067Y-23200000D01*
X16283006Y-23200000D01*
X16328532Y-23356699D01*
X16328532Y-23356700D01*
X16411805Y-23497507D01*
X16527492Y-23613194D01*
X16668299Y-23696467D01*
X16668298Y-23696467D01*
X16825399Y-23742109D01*
X16825404Y-23742110D01*
X16850000Y-23744045D01*
X16850000Y-23200001D01*
X16849999Y-23200000D01*
X16283006Y-23200000D01*
X13825067Y-23200000D01*
X13811085Y-23066971D01*
X13754214Y-22891941D01*
X13754211Y-22891936D01*
X13754209Y-22891931D01*
X13694912Y-22789228D01*
X13662195Y-22732560D01*
X13539050Y-22595793D01*
X13390161Y-22487619D01*
X13390157Y-22487617D01*
X13390154Y-22487615D01*
X13240582Y-22421022D01*
X13222034Y-22412764D01*
X13222031Y-22412763D01*
X13222030Y-22412763D01*
X13140833Y-22395504D01*
X13042019Y-22374500D01*
X12857981Y-22374500D01*
X12760797Y-22395157D01*
X12677969Y-22412763D01*
X12677959Y-22412766D01*
X12643091Y-22428290D01*
X12582241Y-22434684D01*
X12532823Y-22407852D01*
X12024971Y-21900000D01*
X11484511Y-21359540D01*
X11468853Y-21350500D01*
X11433382Y-21330020D01*
X11433380Y-21330020D01*
X11415989Y-21319979D01*
X11415986Y-21319978D01*
X11339564Y-21299500D01*
X11339562Y-21299500D01*
X9812997Y-21299500D01*
X9754806Y-21280593D01*
X9742993Y-21270504D01*
X9591992Y-21119503D01*
X9564215Y-21064986D01*
X9573786Y-21004554D01*
X9617051Y-20961289D01*
X9661996Y-20950499D01*
X10585835Y-20950499D01*
X10585838Y-20950499D01*
X10610965Y-20947585D01*
X10713739Y-20902206D01*
X10793180Y-20822765D01*
X10838559Y-20719991D01*
X10841474Y-20694865D01*
X10841473Y-20405136D01*
X10838559Y-20380009D01*
X10793180Y-20277235D01*
X10793179Y-20277234D01*
X10789474Y-20268843D01*
X10791849Y-20267794D01*
X10778436Y-20222261D01*
X10791500Y-20182051D01*
X10789474Y-20181157D01*
X10793178Y-20172766D01*
X10793180Y-20172765D01*
X10838559Y-20069991D01*
X10841474Y-20044865D01*
X10841473Y-19755136D01*
X10838559Y-19730009D01*
X10793180Y-19627235D01*
X10793179Y-19627234D01*
X10789474Y-19618843D01*
X10791849Y-19617794D01*
X10778436Y-19572261D01*
X10791500Y-19532051D01*
X10789474Y-19531157D01*
X10793178Y-19522766D01*
X10793180Y-19522765D01*
X10838559Y-19419991D01*
X10841474Y-19394865D01*
X10841473Y-19105136D01*
X10838559Y-19080009D01*
X10793180Y-18977235D01*
X10793179Y-18977234D01*
X10789474Y-18968843D01*
X10791849Y-18967794D01*
X10778436Y-18922261D01*
X10791500Y-18882051D01*
X10789474Y-18881157D01*
X10793178Y-18872766D01*
X10793180Y-18872765D01*
X10838559Y-18769991D01*
X10841474Y-18744865D01*
X10841473Y-18455136D01*
X10838559Y-18430009D01*
X10793180Y-18327235D01*
X10793179Y-18327234D01*
X10789474Y-18318843D01*
X10791849Y-18317794D01*
X10778436Y-18272261D01*
X10791500Y-18232051D01*
X10789474Y-18231157D01*
X10793178Y-18222766D01*
X10793180Y-18222765D01*
X10838559Y-18119991D01*
X10841474Y-18094865D01*
X10841473Y-17805136D01*
X10838559Y-17780009D01*
X10793180Y-17677235D01*
X10793179Y-17677234D01*
X10789474Y-17668843D01*
X10791849Y-17667794D01*
X10778436Y-17622261D01*
X10791500Y-17582051D01*
X10789474Y-17581157D01*
X10793178Y-17572766D01*
X10793180Y-17572765D01*
X10838559Y-17469991D01*
X10841474Y-17444865D01*
X10841473Y-17155136D01*
X10838559Y-17130009D01*
X10793180Y-17027235D01*
X10793179Y-17027234D01*
X10789474Y-17018843D01*
X10791849Y-17017794D01*
X10778436Y-16972261D01*
X10791500Y-16932051D01*
X10789474Y-16931157D01*
X10793178Y-16922766D01*
X10793180Y-16922765D01*
X10838559Y-16819991D01*
X10841474Y-16794865D01*
X10841473Y-16505136D01*
X10838559Y-16480009D01*
X10793180Y-16377235D01*
X10793179Y-16377234D01*
X10789474Y-16368843D01*
X10791849Y-16367794D01*
X10778436Y-16322261D01*
X10791500Y-16282051D01*
X10789474Y-16281157D01*
X10793178Y-16272766D01*
X10793180Y-16272765D01*
X10838559Y-16169991D01*
X10841474Y-16144865D01*
X10841473Y-15855136D01*
X10838559Y-15830009D01*
X10793180Y-15727235D01*
X10793179Y-15727234D01*
X10789474Y-15718843D01*
X10791849Y-15717794D01*
X10778436Y-15672261D01*
X10791500Y-15632051D01*
X10789474Y-15631157D01*
X10793178Y-15622766D01*
X10793180Y-15622765D01*
X10838559Y-15519991D01*
X10841474Y-15494865D01*
X10841473Y-15205136D01*
X10838559Y-15180009D01*
X10793180Y-15077235D01*
X10793179Y-15077234D01*
X10789474Y-15068843D01*
X10791849Y-15067794D01*
X10778436Y-15022261D01*
X10791500Y-14982051D01*
X10789474Y-14981157D01*
X10793178Y-14972766D01*
X10793180Y-14972765D01*
X10838559Y-14869991D01*
X10841474Y-14844865D01*
X10841473Y-14555136D01*
X10838559Y-14530009D01*
X10793180Y-14427235D01*
X10713739Y-14347794D01*
X10610965Y-14302415D01*
X10610964Y-14302414D01*
X10610962Y-14302414D01*
X10585842Y-14299500D01*
X9221113Y-14299500D01*
X9221110Y-14299501D01*
X9195983Y-14302414D01*
X9093209Y-14347794D01*
X9013767Y-14427236D01*
X9011590Y-14432168D01*
X8970788Y-14477763D01*
X8910979Y-14490667D01*
X8855007Y-14465952D01*
X8824253Y-14413057D01*
X8822026Y-14392178D01*
X8822026Y-13285441D01*
X8822026Y-13285438D01*
X8821900Y-13284968D01*
X8821901Y-13284951D01*
X8821896Y-13284953D01*
X8801548Y-13209012D01*
X8801546Y-13209009D01*
X8801546Y-13209007D01*
X8761989Y-13140493D01*
X8761988Y-13140492D01*
X8761987Y-13140491D01*
X8761986Y-13140489D01*
X8071022Y-12449525D01*
X8043245Y-12395008D01*
X8042026Y-12379521D01*
X8042026Y-12144475D01*
X8039841Y-12129475D01*
X8032171Y-12076830D01*
X7981162Y-11972489D01*
X7918674Y-11910001D01*
X7890899Y-11855487D01*
X7900470Y-11795055D01*
X7918673Y-11769999D01*
X7981162Y-11707511D01*
X8032171Y-11603170D01*
X8042026Y-11535528D01*
X8042026Y-11174472D01*
X8032171Y-11106830D01*
X7981162Y-11002489D01*
X7899037Y-10920364D01*
X7794696Y-10869355D01*
X7794697Y-10869355D01*
X7777785Y-10866891D01*
X7727054Y-10859500D01*
X7315998Y-10859500D01*
X7275412Y-10865413D01*
X7248354Y-10869355D01*
X7144015Y-10920364D01*
X7061890Y-11002489D01*
X7010881Y-11106828D01*
X7006939Y-11133886D01*
X7002400Y-11165046D01*
X7001026Y-11174475D01*
X7001026Y-11350500D01*
X6982119Y-11408691D01*
X6932619Y-11444655D01*
X6902026Y-11449500D01*
X6870507Y-11449500D01*
X6812316Y-11430593D01*
X6800503Y-11420504D01*
X6779999Y-11400000D01*
X6309689Y-11400000D01*
X6299988Y-11399524D01*
X6299751Y-11399500D01*
X6299748Y-11399500D01*
X5010252Y-11399500D01*
X5010248Y-11399500D01*
X5010012Y-11399524D01*
X5000311Y-11400000D01*
X4530001Y-11400000D01*
X4509497Y-11420504D01*
X4454980Y-11448281D01*
X4439493Y-11449500D01*
X4260109Y-11449500D01*
X4234485Y-11446126D01*
X4153778Y-11424500D01*
X4153776Y-11424500D01*
X3372280Y-11424500D01*
X3314089Y-11405593D01*
X3282226Y-11366625D01*
X3275377Y-11351628D01*
X3275377Y-11351627D01*
X3181128Y-11242857D01*
X3181127Y-11242856D01*
X3181126Y-11242855D01*
X3060057Y-11165049D01*
X3060054Y-11165047D01*
X3060053Y-11165047D01*
X3060050Y-11165046D01*
X2921964Y-11124500D01*
X2921961Y-11124500D01*
X2778039Y-11124500D01*
X2778035Y-11124500D01*
X2639949Y-11165046D01*
X2639942Y-11165049D01*
X2518873Y-11242855D01*
X2424622Y-11351628D01*
X2364834Y-11482543D01*
X2344353Y-11624997D01*
X2344353Y-11625002D01*
X2364834Y-11767456D01*
X2398187Y-11840487D01*
X2424623Y-11898373D01*
X2493820Y-11978231D01*
X2518873Y-12007144D01*
X2639942Y-12084950D01*
X2639947Y-12084953D01*
X2746403Y-12116211D01*
X2778035Y-12125499D01*
X2778036Y-12125499D01*
X2778039Y-12125500D01*
X2778041Y-12125500D01*
X2921959Y-12125500D01*
X2921961Y-12125500D01*
X3060053Y-12084953D01*
X3128110Y-12041215D01*
X3181632Y-12025500D01*
X3993319Y-12025500D01*
X4018943Y-12028874D01*
X4065004Y-12041216D01*
X4099649Y-12050499D01*
X4099651Y-12050500D01*
X4099652Y-12050500D01*
X4178776Y-12050500D01*
X4439493Y-12050500D01*
X4497684Y-12069407D01*
X4509497Y-12079496D01*
X4530001Y-12100000D01*
X5000311Y-12100000D01*
X5010012Y-12100476D01*
X5010248Y-12100499D01*
X5010252Y-12100500D01*
X5010256Y-12100500D01*
X6299744Y-12100500D01*
X6299748Y-12100500D01*
X6299751Y-12100499D01*
X6299988Y-12100476D01*
X6309689Y-12100000D01*
X6779999Y-12100000D01*
X6800503Y-12079496D01*
X6855020Y-12051719D01*
X6870507Y-12050500D01*
X6902026Y-12050500D01*
X6960217Y-12069407D01*
X6996181Y-12118907D01*
X7001026Y-12149500D01*
X7001026Y-12505527D01*
X7007554Y-12550337D01*
X6997233Y-12610646D01*
X6953434Y-12653370D01*
X6892888Y-12662190D01*
X6839584Y-12634613D01*
X6800930Y-12595959D01*
X6773153Y-12541442D01*
X6774198Y-12513670D01*
X6772936Y-12513535D01*
X6779999Y-12447824D01*
X6780000Y-12447824D01*
X6780000Y-12400001D01*
X6779999Y-12400000D01*
X6309689Y-12400000D01*
X6299988Y-12399524D01*
X6299751Y-12399500D01*
X6299748Y-12399500D01*
X5010252Y-12399500D01*
X5010248Y-12399500D01*
X5010012Y-12399524D01*
X5000311Y-12400000D01*
X4529999Y-12400000D01*
X4519622Y-12410377D01*
X4465105Y-12438154D01*
X4404673Y-12428582D01*
X4374800Y-12405204D01*
X4370291Y-12400000D01*
X4342439Y-12367857D01*
X4274974Y-12324500D01*
X4221368Y-12290049D01*
X4221365Y-12290047D01*
X4221364Y-12290047D01*
X4221361Y-12290046D01*
X4083275Y-12249500D01*
X4083272Y-12249500D01*
X3939350Y-12249500D01*
X3939346Y-12249500D01*
X3801260Y-12290046D01*
X3801253Y-12290049D01*
X3680184Y-12367855D01*
X3585933Y-12476628D01*
X3526145Y-12607543D01*
X3505664Y-12749997D01*
X3505664Y-12750002D01*
X3526145Y-12892456D01*
X3585933Y-13023371D01*
X3585934Y-13023373D01*
X3669147Y-13119407D01*
X3680184Y-13132144D01*
X3801253Y-13209950D01*
X3801258Y-13209953D01*
X3907714Y-13241211D01*
X3939346Y-13250499D01*
X3939347Y-13250499D01*
X3939350Y-13250500D01*
X3939352Y-13250500D01*
X4083270Y-13250500D01*
X4083272Y-13250500D01*
X4221364Y-13209953D01*
X4342439Y-13132143D01*
X4374801Y-13094794D01*
X4427195Y-13063199D01*
X4488156Y-13068434D01*
X4519623Y-13089622D01*
X4530001Y-13100000D01*
X5000311Y-13100000D01*
X5010012Y-13100476D01*
X5010248Y-13100499D01*
X5010252Y-13100500D01*
X5010256Y-13100500D01*
X5706000Y-13100500D01*
X5764191Y-13119407D01*
X5800155Y-13168907D01*
X5805000Y-13199500D01*
X5805000Y-13300500D01*
X5786093Y-13358691D01*
X5736593Y-13394655D01*
X5706000Y-13399500D01*
X5010252Y-13399500D01*
X5010248Y-13399500D01*
X5010012Y-13399524D01*
X5000311Y-13400000D01*
X4530001Y-13400000D01*
X4509497Y-13420504D01*
X4454980Y-13448281D01*
X4439493Y-13449500D01*
X3217732Y-13449500D01*
X3164209Y-13433784D01*
X3135057Y-13415049D01*
X3135054Y-13415047D01*
X3135053Y-13415047D01*
X3135050Y-13415046D01*
X2996964Y-13374500D01*
X2996961Y-13374500D01*
X2853039Y-13374500D01*
X2853035Y-13374500D01*
X2714949Y-13415046D01*
X2714942Y-13415049D01*
X2593873Y-13492855D01*
X2499622Y-13601628D01*
X2439834Y-13732543D01*
X2419353Y-13874997D01*
X2419353Y-13875002D01*
X2439834Y-14017456D01*
X2499622Y-14148371D01*
X2499623Y-14148373D01*
X2581450Y-14242807D01*
X2593873Y-14257144D01*
X2712742Y-14333536D01*
X2714947Y-14334953D01*
X2853039Y-14375500D01*
X2853041Y-14375500D01*
X2858483Y-14377098D01*
X2908990Y-14411633D01*
X2929552Y-14469260D01*
X2928585Y-14486173D01*
X2927636Y-14492775D01*
X2927636Y-14492779D01*
X2948117Y-14635233D01*
X2985850Y-14717855D01*
X3007906Y-14766150D01*
X3097884Y-14869991D01*
X3102156Y-14874921D01*
X3215596Y-14947824D01*
X3223230Y-14952730D01*
X3307474Y-14977466D01*
X3361318Y-14993276D01*
X3361319Y-14993276D01*
X3361322Y-14993277D01*
X3361324Y-14993277D01*
X3505242Y-14993277D01*
X3505244Y-14993277D01*
X3643336Y-14952730D01*
X3764411Y-14874920D01*
X3858660Y-14766150D01*
X3918448Y-14635234D01*
X3918447Y-14635234D01*
X3918449Y-14635232D01*
X3920444Y-14628439D01*
X3921673Y-14628800D01*
X3945416Y-14580506D01*
X3999529Y-14551951D01*
X4016415Y-14550500D01*
X4439493Y-14550500D01*
X4497684Y-14569407D01*
X4509497Y-14579496D01*
X4530001Y-14600000D01*
X5000311Y-14600000D01*
X5010012Y-14600476D01*
X5010248Y-14600499D01*
X5010252Y-14600500D01*
X5010256Y-14600500D01*
X5706000Y-14600500D01*
X5764191Y-14619407D01*
X5800155Y-14668907D01*
X5805000Y-14699500D01*
X5805000Y-14800500D01*
X5786093Y-14858691D01*
X5736593Y-14894655D01*
X5706000Y-14899500D01*
X5010252Y-14899500D01*
X5010248Y-14899500D01*
X5010012Y-14899524D01*
X5000311Y-14900000D01*
X4530001Y-14900000D01*
X4530000Y-14900001D01*
X4530000Y-14947824D01*
X4529999Y-14947824D01*
X4536401Y-15007370D01*
X4536403Y-15007381D01*
X4586645Y-15142087D01*
X4619273Y-15185672D01*
X4639010Y-15243587D01*
X4620936Y-15302042D01*
X4610024Y-15315004D01*
X4504526Y-15420503D01*
X4450009Y-15448281D01*
X4434522Y-15449500D01*
X3065479Y-15449500D01*
X3007288Y-15430593D01*
X2995475Y-15420504D01*
X1829496Y-14254525D01*
X1801719Y-14200008D01*
X1800500Y-14184521D01*
X1800500Y-10574997D01*
X3219353Y-10574997D01*
X3219353Y-10575002D01*
X3239834Y-10717456D01*
X3281792Y-10809329D01*
X3299623Y-10848373D01*
X3393872Y-10957143D01*
X3393873Y-10957144D01*
X3514942Y-11034950D01*
X3514947Y-11034953D01*
X3621403Y-11066211D01*
X3653035Y-11075499D01*
X3653036Y-11075499D01*
X3653039Y-11075500D01*
X3653041Y-11075500D01*
X3796960Y-11075500D01*
X3796961Y-11075500D01*
X3868448Y-11054509D01*
X3896338Y-11050500D01*
X4439493Y-11050500D01*
X4497684Y-11069407D01*
X4509497Y-11079496D01*
X4530001Y-11100000D01*
X5000311Y-11100000D01*
X5010012Y-11100476D01*
X5010248Y-11100499D01*
X5010252Y-11100500D01*
X5010256Y-11100500D01*
X6299744Y-11100500D01*
X6299748Y-11100500D01*
X6299751Y-11100499D01*
X6299988Y-11100476D01*
X6309689Y-11100000D01*
X6779999Y-11100000D01*
X6780000Y-11099999D01*
X6780000Y-11052175D01*
X6773598Y-10992629D01*
X6773596Y-10992618D01*
X6723354Y-10857913D01*
X6686984Y-10809329D01*
X6667247Y-10751415D01*
X6685321Y-10692960D01*
X6686984Y-10690671D01*
X6723354Y-10642086D01*
X6773596Y-10507381D01*
X6773598Y-10507370D01*
X6780000Y-10447824D01*
X6780000Y-10400001D01*
X6779999Y-10400000D01*
X6309689Y-10400000D01*
X6299988Y-10399524D01*
X6299751Y-10399500D01*
X6299748Y-10399500D01*
X5010252Y-10399500D01*
X5010248Y-10399500D01*
X5010012Y-10399524D01*
X5000311Y-10400000D01*
X4530001Y-10400000D01*
X4509497Y-10420504D01*
X4454980Y-10448281D01*
X4439493Y-10449500D01*
X4281532Y-10449500D01*
X4223341Y-10430593D01*
X4191479Y-10391626D01*
X4150378Y-10301629D01*
X4150377Y-10301628D01*
X4150377Y-10301627D01*
X4056128Y-10192857D01*
X4056127Y-10192856D01*
X4056126Y-10192855D01*
X3935057Y-10115049D01*
X3935054Y-10115047D01*
X3935053Y-10115047D01*
X3935050Y-10115046D01*
X3796964Y-10074500D01*
X3796961Y-10074500D01*
X3653039Y-10074500D01*
X3653035Y-10074500D01*
X3514949Y-10115046D01*
X3514942Y-10115049D01*
X3393873Y-10192855D01*
X3299622Y-10301628D01*
X3239834Y-10432543D01*
X3219353Y-10574997D01*
X1800500Y-10574997D01*
X1800500Y-10466950D01*
X1819407Y-10408759D01*
X1829496Y-10396946D01*
X2646946Y-9579496D01*
X2701463Y-9551719D01*
X2716950Y-9550500D01*
X4632261Y-9550500D01*
X4690452Y-9569407D01*
X4726416Y-9618907D01*
X4726416Y-9680093D01*
X4691590Y-9728753D01*
X4672815Y-9742807D01*
X4672807Y-9742815D01*
X4586647Y-9857909D01*
X4586646Y-9857911D01*
X4536403Y-9992618D01*
X4536401Y-9992629D01*
X4530000Y-10052175D01*
X4530000Y-10099999D01*
X4530001Y-10100000D01*
X5000311Y-10100000D01*
X5010012Y-10100476D01*
X5010248Y-10100499D01*
X5010252Y-10100500D01*
X5010256Y-10100500D01*
X6299744Y-10100500D01*
X6299748Y-10100500D01*
X6299751Y-10100499D01*
X6299988Y-10100476D01*
X6309689Y-10100000D01*
X6779999Y-10100000D01*
X6807059Y-10072940D01*
X6851437Y-10047317D01*
X6887860Y-10037558D01*
X6948961Y-10040759D01*
X6996511Y-10079264D01*
X7011475Y-10119094D01*
X7014834Y-10142456D01*
X7074622Y-10273371D01*
X7074623Y-10273373D01*
X7167962Y-10381093D01*
X7168873Y-10382144D01*
X7282937Y-10455448D01*
X7289947Y-10459953D01*
X7396403Y-10491211D01*
X7428035Y-10500499D01*
X7428036Y-10500499D01*
X7428039Y-10500500D01*
X7428041Y-10500500D01*
X7571959Y-10500500D01*
X7571961Y-10500500D01*
X7710053Y-10459953D01*
X7831128Y-10382143D01*
X7925377Y-10273373D01*
X7985165Y-10142457D01*
X7996875Y-10061010D01*
X8005647Y-10000002D01*
X8005647Y-9999997D01*
X7985165Y-9857543D01*
X7940818Y-9760438D01*
X7925377Y-9726627D01*
X7831128Y-9617857D01*
X7831127Y-9617856D01*
X7831126Y-9617855D01*
X7710057Y-9540049D01*
X7710054Y-9540048D01*
X7710053Y-9540047D01*
X7599758Y-9507661D01*
X7557647Y-9482676D01*
X7284511Y-9209540D01*
X7284511Y-9209539D01*
X7084512Y-9009541D01*
X7084511Y-9009540D01*
X7081054Y-9007544D01*
X7081052Y-9007542D01*
X7081052Y-9007543D01*
X7015989Y-8969979D01*
X7015988Y-8969978D01*
X7015987Y-8969978D01*
X6939564Y-8949500D01*
X6939562Y-8949500D01*
X6870507Y-8949500D01*
X6812316Y-8930593D01*
X6800503Y-8920504D01*
X6779999Y-8900000D01*
X6309689Y-8900000D01*
X6299988Y-8899524D01*
X6299751Y-8899500D01*
X6299748Y-8899500D01*
X5010252Y-8899500D01*
X5010248Y-8899500D01*
X5010012Y-8899524D01*
X5000311Y-8900000D01*
X4530001Y-8900000D01*
X4509497Y-8920504D01*
X4454980Y-8948281D01*
X4439493Y-8949500D01*
X2591033Y-8949500D01*
X2511909Y-8949500D01*
X2465132Y-8962033D01*
X2435478Y-8969979D01*
X2366964Y-9009536D01*
X1315489Y-10061011D01*
X1315488Y-10061010D01*
X1259539Y-10116960D01*
X1219980Y-10185478D01*
X1219978Y-10185482D01*
X1199500Y-10261906D01*
X100500Y-10261906D01*
X100500Y-8552175D01*
X4530000Y-8552175D01*
X4530000Y-8599999D01*
X4530001Y-8600000D01*
X5504999Y-8600000D01*
X5505000Y-8599999D01*
X5505000Y-8100001D01*
X5805000Y-8100001D01*
X5805000Y-8599999D01*
X5805001Y-8600000D01*
X6779999Y-8600000D01*
X6780000Y-8599999D01*
X6780000Y-8552175D01*
X6773598Y-8492629D01*
X6773596Y-8492618D01*
X6723353Y-8357911D01*
X6723352Y-8357909D01*
X6637192Y-8242815D01*
X6637184Y-8242807D01*
X6522090Y-8156647D01*
X6522088Y-8156646D01*
X6387381Y-8106403D01*
X6387370Y-8106401D01*
X6327824Y-8100000D01*
X5805001Y-8100000D01*
X5805000Y-8100001D01*
X5505000Y-8100001D01*
X5504999Y-8100000D01*
X4982176Y-8100000D01*
X4922629Y-8106401D01*
X4922618Y-8106403D01*
X4787911Y-8156646D01*
X4787909Y-8156647D01*
X4672815Y-8242807D01*
X4672807Y-8242815D01*
X4586647Y-8357909D01*
X4586646Y-8357911D01*
X4536403Y-8492618D01*
X4536401Y-8492629D01*
X4530000Y-8552175D01*
X100500Y-8552175D01*
X100500Y-6080253D01*
X1799500Y-6080253D01*
X1799500Y-7719746D01*
X1799501Y-7719758D01*
X1811132Y-7778227D01*
X1811134Y-7778233D01*
X1855445Y-7844548D01*
X1855448Y-7844552D01*
X1921769Y-7888867D01*
X1966231Y-7897711D01*
X1980241Y-7900498D01*
X1980246Y-7900498D01*
X1980252Y-7900500D01*
X1980253Y-7900500D01*
X4019747Y-7900500D01*
X4019748Y-7900500D01*
X4078231Y-7888867D01*
X4144552Y-7844552D01*
X4188867Y-7778231D01*
X4200500Y-7719748D01*
X4200500Y-6080252D01*
X4188867Y-6021769D01*
X4144552Y-5955448D01*
X4136399Y-5950000D01*
X4078233Y-5911134D01*
X4078231Y-5911133D01*
X4078228Y-5911132D01*
X4078227Y-5911132D01*
X4019758Y-5899501D01*
X4019748Y-5899500D01*
X1980252Y-5899500D01*
X1980251Y-5899500D01*
X1980241Y-5899501D01*
X1921772Y-5911132D01*
X1921766Y-5911134D01*
X1855451Y-5955445D01*
X1855445Y-5955451D01*
X1811134Y-6021766D01*
X1811132Y-6021772D01*
X1799501Y-6080241D01*
X1799500Y-6080253D01*
X100500Y-6080253D01*
X100500Y-3083487D01*
X8199500Y-3083487D01*
X8199500Y-3289564D01*
X8219978Y-3365988D01*
X8219979Y-3365990D01*
X8242069Y-3404249D01*
X8242070Y-3404254D01*
X8242072Y-3404254D01*
X8259540Y-3434511D01*
X8959540Y-4134511D01*
X8959539Y-4134511D01*
X9015489Y-4190460D01*
X9086980Y-4231736D01*
X9126420Y-4273991D01*
X9140360Y-4302505D01*
X9140362Y-4302508D01*
X9140363Y-4302509D01*
X9140364Y-4302511D01*
X9222489Y-4384636D01*
X9243980Y-4395142D01*
X9287954Y-4437685D01*
X9299500Y-4484083D01*
X9299500Y-5261982D01*
X9280593Y-5320173D01*
X9254024Y-5345266D01*
X9218872Y-5367856D01*
X9124622Y-5476628D01*
X9064834Y-5607543D01*
X9044353Y-5749997D01*
X9044353Y-5750002D01*
X9064834Y-5892456D01*
X9123889Y-6021766D01*
X9124623Y-6023373D01*
X9218872Y-6132143D01*
X9218873Y-6132144D01*
X9286382Y-6175529D01*
X9339947Y-6209953D01*
X9446403Y-6241211D01*
X9478035Y-6250499D01*
X9478036Y-6250499D01*
X9478039Y-6250500D01*
X9478041Y-6250500D01*
X9621959Y-6250500D01*
X9621961Y-6250500D01*
X9760053Y-6209953D01*
X9881128Y-6132143D01*
X9975377Y-6023373D01*
X10035165Y-5892457D01*
X10055647Y-5750000D01*
X10054852Y-5744472D01*
X10035165Y-5607543D01*
X9994206Y-5517857D01*
X9975377Y-5476627D01*
X9951872Y-5449500D01*
X9924680Y-5418117D01*
X9900863Y-5361757D01*
X9900500Y-5353287D01*
X9900500Y-4484083D01*
X9919407Y-4425892D01*
X9956020Y-4395142D01*
X9977511Y-4384636D01*
X10059636Y-4302511D01*
X10059636Y-4302509D01*
X10059638Y-4302508D01*
X10064405Y-4295832D01*
X10066399Y-4297256D01*
X10100464Y-4262046D01*
X10146862Y-4250500D01*
X10830557Y-4250500D01*
X10830570Y-4250499D01*
X11063135Y-4250499D01*
X11063138Y-4250499D01*
X11110545Y-4244259D01*
X11110546Y-4244259D01*
X11200500Y-4202312D01*
X11214579Y-4195747D01*
X11229998Y-4180327D01*
X11284513Y-4152552D01*
X11344945Y-4162123D01*
X11370000Y-4180326D01*
X11370505Y-4180831D01*
X11398281Y-4235346D01*
X11399500Y-4250833D01*
X11399500Y-4849521D01*
X11380593Y-4907712D01*
X11370504Y-4919525D01*
X10889525Y-5400504D01*
X10835008Y-5428281D01*
X10819521Y-5429500D01*
X10584472Y-5429500D01*
X10543886Y-5435413D01*
X10516828Y-5439355D01*
X10412489Y-5490364D01*
X10330364Y-5572489D01*
X10279355Y-5676828D01*
X10279355Y-5676830D01*
X10269500Y-5744472D01*
X10269500Y-6155528D01*
X10276639Y-6204525D01*
X10279355Y-6223171D01*
X10292715Y-6250499D01*
X10330364Y-6327511D01*
X10412489Y-6409636D01*
X10412490Y-6409636D01*
X10412491Y-6409637D01*
X10419166Y-6414403D01*
X10417741Y-6416398D01*
X10452949Y-6450454D01*
X10464500Y-6496861D01*
X10464500Y-7254564D01*
X10484978Y-7330988D01*
X10484980Y-7330992D01*
X10524538Y-7399508D01*
X10524540Y-7399511D01*
X13020505Y-9895476D01*
X13048281Y-9949991D01*
X13049500Y-9965478D01*
X13049500Y-19048589D01*
X13068246Y-19118547D01*
X13069979Y-19125014D01*
X13086721Y-19154012D01*
X13109540Y-19193536D01*
X14706464Y-20790460D01*
X14706466Y-20790461D01*
X14706467Y-20790462D01*
X14711613Y-20794411D01*
X14710834Y-20795425D01*
X14735998Y-20818721D01*
X14738767Y-20822763D01*
X14738768Y-20822765D01*
X14818209Y-20902206D01*
X14920983Y-20947585D01*
X14946109Y-20950500D01*
X16310838Y-20950499D01*
X16335965Y-20947585D01*
X16438739Y-20902206D01*
X16518180Y-20822765D01*
X16563559Y-20719991D01*
X16566474Y-20694865D01*
X16566473Y-20405136D01*
X16563559Y-20380009D01*
X16518180Y-20277235D01*
X16518179Y-20277234D01*
X16514474Y-20268843D01*
X16516849Y-20267794D01*
X16503436Y-20222261D01*
X16516500Y-20182051D01*
X16514474Y-20181157D01*
X16518178Y-20172766D01*
X16518180Y-20172765D01*
X16563559Y-20069991D01*
X16566474Y-20044865D01*
X16566473Y-19755136D01*
X16563559Y-19730009D01*
X16518180Y-19627235D01*
X16518179Y-19627234D01*
X16514474Y-19618843D01*
X16516849Y-19617794D01*
X16503436Y-19572261D01*
X16516500Y-19532051D01*
X16514474Y-19531157D01*
X16518178Y-19522766D01*
X16518180Y-19522765D01*
X16563559Y-19419991D01*
X16566474Y-19394865D01*
X16566473Y-19105136D01*
X16563559Y-19080009D01*
X16545666Y-19039487D01*
X16539459Y-18978619D01*
X16570215Y-18925725D01*
X16626187Y-18901011D01*
X16636232Y-18900500D01*
X16656047Y-18900500D01*
X16714238Y-18919407D01*
X16726051Y-18929496D01*
X16928978Y-19132423D01*
X16956755Y-19186940D01*
X16957974Y-19202427D01*
X16957974Y-19324521D01*
X16939067Y-19382712D01*
X16928978Y-19394525D01*
X16915489Y-19408014D01*
X16915488Y-19408013D01*
X16859539Y-19463963D01*
X16819980Y-19532481D01*
X16819978Y-19532485D01*
X16799500Y-19608909D01*
X16799500Y-21445916D01*
X16780593Y-21504107D01*
X16743981Y-21534856D01*
X16722494Y-21545360D01*
X16722492Y-21545362D01*
X16722490Y-21545363D01*
X16722489Y-21545364D01*
X16667208Y-21600645D01*
X16640364Y-21627489D01*
X16589355Y-21731828D01*
X16579500Y-21799475D01*
X16579500Y-22160526D01*
X16582742Y-22182779D01*
X16572421Y-22243087D01*
X16535173Y-22282263D01*
X16527492Y-22286805D01*
X16411805Y-22402492D01*
X16328532Y-22543299D01*
X16328532Y-22543300D01*
X16283005Y-22700000D01*
X17251000Y-22700000D01*
X17309191Y-22718907D01*
X17345155Y-22768407D01*
X17350000Y-22799000D01*
X17350000Y-23744045D01*
X17374587Y-23742112D01*
X17374600Y-23742109D01*
X17531699Y-23696467D01*
X17531700Y-23696467D01*
X17672507Y-23613194D01*
X17792596Y-23493106D01*
X17793822Y-23494332D01*
X17837724Y-23464487D01*
X17884675Y-23462455D01*
X17891767Y-23463865D01*
X17891769Y-23463867D01*
X17924499Y-23470377D01*
X17950244Y-23475499D01*
X17950250Y-23475499D01*
X17950252Y-23475500D01*
X17950253Y-23475500D01*
X19049747Y-23475500D01*
X19049748Y-23475500D01*
X19108231Y-23463867D01*
X19174552Y-23419552D01*
X19218867Y-23353231D01*
X19230500Y-23294748D01*
X19230500Y-22605252D01*
X19228618Y-22595793D01*
X19225478Y-22580004D01*
X19218867Y-22546769D01*
X19174552Y-22480448D01*
X19163512Y-22473071D01*
X19108233Y-22436134D01*
X19108231Y-22436133D01*
X19108228Y-22436132D01*
X19108227Y-22436132D01*
X19049758Y-22424501D01*
X19049748Y-22424500D01*
X19049747Y-22424500D01*
X18010479Y-22424500D01*
X17952288Y-22405593D01*
X17940475Y-22395504D01*
X17649496Y-22104525D01*
X17621719Y-22050008D01*
X17620500Y-22034521D01*
X17620500Y-21799475D01*
X17620500Y-21799472D01*
X17610645Y-21731830D01*
X17559636Y-21627489D01*
X17477511Y-21545364D01*
X17477509Y-21545363D01*
X17477508Y-21545362D01*
X17477505Y-21545360D01*
X17456019Y-21534856D01*
X17412045Y-21492313D01*
X17400500Y-21445916D01*
X17400500Y-20705253D01*
X17769500Y-20705253D01*
X17769500Y-21394746D01*
X17769501Y-21394758D01*
X17781132Y-21453227D01*
X17781134Y-21453233D01*
X17825445Y-21519548D01*
X17825448Y-21519552D01*
X17891769Y-21563867D01*
X17936231Y-21572711D01*
X17950241Y-21575498D01*
X17950246Y-21575498D01*
X17950252Y-21575500D01*
X17950253Y-21575500D01*
X19049747Y-21575500D01*
X19049748Y-21575500D01*
X19108231Y-21563867D01*
X19174552Y-21519552D01*
X19218867Y-21453231D01*
X19230500Y-21394748D01*
X19230500Y-20705252D01*
X19218867Y-20646769D01*
X19174552Y-20580448D01*
X19174548Y-20580445D01*
X19108233Y-20536134D01*
X19108231Y-20536133D01*
X19108228Y-20536132D01*
X19108227Y-20536132D01*
X19049758Y-20524501D01*
X19049748Y-20524500D01*
X17950252Y-20524500D01*
X17950251Y-20524500D01*
X17950241Y-20524501D01*
X17891772Y-20536132D01*
X17891766Y-20536134D01*
X17825451Y-20580445D01*
X17825445Y-20580451D01*
X17781134Y-20646766D01*
X17781132Y-20646772D01*
X17769501Y-20705241D01*
X17769500Y-20705253D01*
X17400500Y-20705253D01*
X17400500Y-19864500D01*
X17419407Y-19806309D01*
X17468907Y-19770345D01*
X17499500Y-19765500D01*
X17683998Y-19765500D01*
X17684002Y-19765500D01*
X17751644Y-19755645D01*
X17855985Y-19704636D01*
X17938110Y-19622511D01*
X17989119Y-19518170D01*
X17998974Y-19450528D01*
X17998974Y-19089472D01*
X17995732Y-19067222D01*
X18006050Y-19006915D01*
X18043305Y-18967733D01*
X18050983Y-18963192D01*
X18166668Y-18847507D01*
X18249941Y-18706700D01*
X18249941Y-18706699D01*
X18295468Y-18550000D01*
X17327474Y-18550000D01*
X17269283Y-18531093D01*
X17233319Y-18481593D01*
X17228474Y-18451000D01*
X17228474Y-17510001D01*
X17728474Y-17510001D01*
X17728474Y-18049999D01*
X17728475Y-18050000D01*
X18295468Y-18050000D01*
X18249942Y-17893303D01*
X18249943Y-17893303D01*
X18212739Y-17830396D01*
X18199391Y-17770684D01*
X18212739Y-17729604D01*
X18249943Y-17666696D01*
X18295468Y-17510000D01*
X17728475Y-17510000D01*
X17728474Y-17510001D01*
X17228474Y-17510001D01*
X17228474Y-17109000D01*
X17247381Y-17050809D01*
X17296881Y-17014845D01*
X17327474Y-17010000D01*
X18295467Y-17010000D01*
X18265480Y-16906784D01*
X18267402Y-16845628D01*
X18304902Y-16797282D01*
X18363658Y-16780212D01*
X18419878Y-16799910D01*
X18477909Y-16843352D01*
X18477911Y-16843353D01*
X18612618Y-16893596D01*
X18612629Y-16893598D01*
X18672176Y-16900000D01*
X19194999Y-16900000D01*
X19195000Y-16899999D01*
X19195000Y-16400001D01*
X19194999Y-16400000D01*
X18220001Y-16400000D01*
X18220000Y-16400001D01*
X18220000Y-16447824D01*
X18219999Y-16447824D01*
X18226401Y-16507370D01*
X18227826Y-16513398D01*
X18225366Y-16513979D01*
X18227521Y-16564521D01*
X18193697Y-16615507D01*
X18136365Y-16636875D01*
X18077422Y-16620463D01*
X18062145Y-16607969D01*
X18050982Y-16596806D01*
X18043303Y-16592265D01*
X18002840Y-16546370D01*
X17995732Y-16492777D01*
X17998974Y-16470528D01*
X17998974Y-16109472D01*
X17989119Y-16041830D01*
X17938110Y-15937489D01*
X17855985Y-15855364D01*
X17751644Y-15804355D01*
X17751645Y-15804355D01*
X17734733Y-15801891D01*
X17684002Y-15794500D01*
X17272946Y-15794500D01*
X17237694Y-15799636D01*
X17205302Y-15804355D01*
X17205300Y-15804356D01*
X17150856Y-15830972D01*
X17090274Y-15839543D01*
X17036224Y-15810867D01*
X17009352Y-15755898D01*
X17019922Y-15695633D01*
X17037367Y-15672032D01*
X17586986Y-15122415D01*
X17599926Y-15100002D01*
X17626546Y-15053896D01*
X17626546Y-15053894D01*
X17626548Y-15053892D01*
X17647026Y-14977466D01*
X17647026Y-14898342D01*
X17647026Y-12844083D01*
X17665933Y-12785892D01*
X17702546Y-12755142D01*
X17724037Y-12744636D01*
X17806162Y-12662511D01*
X17857171Y-12558170D01*
X17867026Y-12490528D01*
X17867026Y-12447824D01*
X18219999Y-12447824D01*
X18226401Y-12507370D01*
X18226403Y-12507381D01*
X18276645Y-12642087D01*
X18313015Y-12690671D01*
X18332752Y-12748586D01*
X18314678Y-12807041D01*
X18313015Y-12809329D01*
X18276645Y-12857912D01*
X18226403Y-12992618D01*
X18226401Y-12992629D01*
X18220000Y-13052175D01*
X18220000Y-13099999D01*
X18220001Y-13100000D01*
X18690311Y-13100000D01*
X18700012Y-13100476D01*
X18700248Y-13100499D01*
X18700252Y-13100500D01*
X18700256Y-13100500D01*
X19989744Y-13100500D01*
X19989748Y-13100500D01*
X19989751Y-13100499D01*
X19989988Y-13100476D01*
X19999689Y-13100000D01*
X20469999Y-13100000D01*
X20490503Y-13079496D01*
X20545020Y-13051719D01*
X20560507Y-13050500D01*
X21589799Y-13050500D01*
X21647990Y-13069407D01*
X21673084Y-13095978D01*
X21674621Y-13098370D01*
X21674622Y-13098371D01*
X21674623Y-13098373D01*
X21768872Y-13207143D01*
X21768873Y-13207144D01*
X21773244Y-13209953D01*
X21889947Y-13284953D01*
X21996403Y-13316211D01*
X22028035Y-13325499D01*
X22028036Y-13325499D01*
X22028039Y-13325500D01*
X22028041Y-13325500D01*
X22171959Y-13325500D01*
X22171961Y-13325500D01*
X22310053Y-13284953D01*
X22431128Y-13207143D01*
X22525377Y-13098373D01*
X22585165Y-12967457D01*
X22600915Y-12857912D01*
X22605647Y-12825002D01*
X22605647Y-12824997D01*
X22585165Y-12682543D01*
X22545623Y-12595959D01*
X22525377Y-12551627D01*
X22431128Y-12442857D01*
X22431127Y-12442856D01*
X22431126Y-12442855D01*
X22310057Y-12365049D01*
X22310054Y-12365047D01*
X22310053Y-12365047D01*
X22310050Y-12365046D01*
X22171964Y-12324500D01*
X22171961Y-12324500D01*
X22028039Y-12324500D01*
X22028035Y-12324500D01*
X21889949Y-12365046D01*
X21889942Y-12365049D01*
X21782989Y-12433784D01*
X21729466Y-12449500D01*
X20560507Y-12449500D01*
X20502316Y-12430593D01*
X20490503Y-12420504D01*
X20469999Y-12400000D01*
X19999689Y-12400000D01*
X19989988Y-12399524D01*
X19989751Y-12399500D01*
X19989748Y-12399500D01*
X18700252Y-12399500D01*
X18700248Y-12399500D01*
X18700012Y-12399524D01*
X18690311Y-12400000D01*
X18220001Y-12400000D01*
X18220000Y-12400001D01*
X18220000Y-12447824D01*
X18219999Y-12447824D01*
X17867026Y-12447824D01*
X17867026Y-12129472D01*
X17857171Y-12061830D01*
X17806162Y-11957489D01*
X17743674Y-11895001D01*
X17715899Y-11840487D01*
X17725470Y-11780055D01*
X17743673Y-11754999D01*
X17806162Y-11692511D01*
X17857171Y-11588170D01*
X17867026Y-11520528D01*
X17867026Y-11447824D01*
X18219999Y-11447824D01*
X18226401Y-11507370D01*
X18226403Y-11507381D01*
X18276645Y-11642087D01*
X18313015Y-11690671D01*
X18332752Y-11748586D01*
X18314678Y-11807041D01*
X18313015Y-11809329D01*
X18276645Y-11857912D01*
X18226403Y-11992618D01*
X18226401Y-11992629D01*
X18220000Y-12052175D01*
X18220000Y-12099999D01*
X18220001Y-12100000D01*
X18690311Y-12100000D01*
X18700012Y-12100476D01*
X18700248Y-12100499D01*
X18700252Y-12100500D01*
X18700256Y-12100500D01*
X19989744Y-12100500D01*
X19989748Y-12100500D01*
X19989751Y-12100499D01*
X19989988Y-12100476D01*
X19999689Y-12100000D01*
X20469999Y-12100000D01*
X20490503Y-12079496D01*
X20545020Y-12051719D01*
X20560507Y-12050500D01*
X21068368Y-12050500D01*
X21121889Y-12066215D01*
X21189947Y-12109953D01*
X21256434Y-12129475D01*
X21328035Y-12150499D01*
X21328036Y-12150499D01*
X21328039Y-12150500D01*
X21328041Y-12150500D01*
X21471959Y-12150500D01*
X21471961Y-12150500D01*
X21610053Y-12109953D01*
X21731128Y-12032143D01*
X21825377Y-11923373D01*
X21885165Y-11792457D01*
X21897378Y-11707511D01*
X21905647Y-11650002D01*
X21905647Y-11649997D01*
X21885165Y-11507543D01*
X21858657Y-11449500D01*
X21825377Y-11376627D01*
X21731128Y-11267857D01*
X21731127Y-11267856D01*
X21731126Y-11267855D01*
X21610057Y-11190049D01*
X21610054Y-11190047D01*
X21610053Y-11190047D01*
X21610050Y-11190046D01*
X21471964Y-11149500D01*
X21471961Y-11149500D01*
X21328039Y-11149500D01*
X21328035Y-11149500D01*
X21189949Y-11190046D01*
X21189942Y-11190049D01*
X21068873Y-11267855D01*
X20974622Y-11376628D01*
X20967774Y-11391625D01*
X20926403Y-11436703D01*
X20877720Y-11449500D01*
X20560507Y-11449500D01*
X20502316Y-11430593D01*
X20490503Y-11420504D01*
X20469999Y-11400000D01*
X19999689Y-11400000D01*
X19989988Y-11399524D01*
X19989751Y-11399500D01*
X19989748Y-11399500D01*
X18700252Y-11399500D01*
X18700248Y-11399500D01*
X18700012Y-11399524D01*
X18690311Y-11400000D01*
X18220001Y-11400000D01*
X18220000Y-11400001D01*
X18220000Y-11447824D01*
X18219999Y-11447824D01*
X17867026Y-11447824D01*
X17867026Y-11285479D01*
X17885933Y-11227288D01*
X17896022Y-11215475D01*
X18032001Y-11079496D01*
X18086518Y-11051719D01*
X18102005Y-11050500D01*
X18129493Y-11050500D01*
X18187684Y-11069407D01*
X18199497Y-11079496D01*
X18220001Y-11100000D01*
X18690311Y-11100000D01*
X18700012Y-11100476D01*
X18700248Y-11100499D01*
X18700252Y-11100500D01*
X18700256Y-11100500D01*
X19989744Y-11100500D01*
X19989748Y-11100500D01*
X19989751Y-11100499D01*
X19989988Y-11100476D01*
X19999689Y-11100000D01*
X20469999Y-11100000D01*
X20470000Y-11099999D01*
X20470000Y-11052175D01*
X20463598Y-10992629D01*
X20463596Y-10992618D01*
X20413354Y-10857913D01*
X20376984Y-10809329D01*
X20357247Y-10751415D01*
X20375321Y-10692960D01*
X20376984Y-10690671D01*
X20413354Y-10642086D01*
X20463596Y-10507381D01*
X20463598Y-10507370D01*
X20470000Y-10447824D01*
X20470000Y-10400001D01*
X20469999Y-10400000D01*
X19999689Y-10400000D01*
X19989988Y-10399524D01*
X19989751Y-10399500D01*
X19989748Y-10399500D01*
X18700252Y-10399500D01*
X18700248Y-10399500D01*
X18700012Y-10399524D01*
X18690311Y-10400000D01*
X18220001Y-10400000D01*
X18199497Y-10420504D01*
X18144980Y-10448281D01*
X18129493Y-10449500D01*
X17979647Y-10449500D01*
X17921456Y-10430593D01*
X17885492Y-10381093D01*
X17881677Y-10357005D01*
X17881655Y-10357009D01*
X17881430Y-10355445D01*
X17880647Y-10350500D01*
X17880647Y-10349997D01*
X17860165Y-10207543D01*
X17819771Y-10119094D01*
X17800377Y-10076627D01*
X17706128Y-9967857D01*
X17706127Y-9967856D01*
X17706126Y-9967855D01*
X17585057Y-9890049D01*
X17585054Y-9890047D01*
X17585053Y-9890047D01*
X17585050Y-9890046D01*
X17446964Y-9849500D01*
X17446961Y-9849500D01*
X17303039Y-9849500D01*
X17303035Y-9849500D01*
X17164949Y-9890046D01*
X17164942Y-9890049D01*
X17043873Y-9967855D01*
X16949622Y-10076628D01*
X16889834Y-10207543D01*
X16869353Y-10349997D01*
X16869353Y-10350002D01*
X16889834Y-10492456D01*
X16891829Y-10499250D01*
X16889983Y-10499791D01*
X16896026Y-10527550D01*
X16896026Y-10945897D01*
X16885967Y-10989376D01*
X16879557Y-11002489D01*
X16835881Y-11091828D01*
X16832435Y-11115479D01*
X16826026Y-11159472D01*
X16826026Y-11520528D01*
X16833910Y-11574641D01*
X16835881Y-11588171D01*
X16853886Y-11625000D01*
X16886890Y-11692511D01*
X16949377Y-11754998D01*
X16977153Y-11809513D01*
X16967582Y-11869945D01*
X16949378Y-11895000D01*
X16886890Y-11957489D01*
X16835881Y-12061828D01*
X16833307Y-12079496D01*
X16826026Y-12129472D01*
X16826026Y-12490528D01*
X16835881Y-12558170D01*
X16886890Y-12662511D01*
X16969015Y-12744636D01*
X16990506Y-12755142D01*
X17034480Y-12797685D01*
X17046026Y-12844083D01*
X17046026Y-14772425D01*
X17027119Y-14830616D01*
X17017030Y-14842428D01*
X16701247Y-15158210D01*
X16646732Y-15185987D01*
X16586300Y-15176416D01*
X16543035Y-15133151D01*
X16540687Y-15128209D01*
X16518180Y-15077235D01*
X16518178Y-15077233D01*
X16514474Y-15068843D01*
X16516849Y-15067794D01*
X16503436Y-15022261D01*
X16516500Y-14982051D01*
X16514474Y-14981157D01*
X16518178Y-14972766D01*
X16518180Y-14972765D01*
X16563559Y-14869991D01*
X16566474Y-14844865D01*
X16566473Y-14555136D01*
X16563559Y-14530009D01*
X16518180Y-14427235D01*
X16438739Y-14347794D01*
X16335965Y-14302415D01*
X16335964Y-14302414D01*
X16335962Y-14302414D01*
X16310843Y-14299500D01*
X16310839Y-14299500D01*
X15693953Y-14299500D01*
X15635762Y-14280593D01*
X15623949Y-14270504D01*
X15479496Y-14126051D01*
X15451719Y-14071534D01*
X15450500Y-14056047D01*
X15450500Y-9149997D01*
X16744353Y-9149997D01*
X16744353Y-9150002D01*
X16764834Y-9292456D01*
X16824622Y-9423371D01*
X16824623Y-9423373D01*
X16918872Y-9532143D01*
X16918873Y-9532144D01*
X16992835Y-9579676D01*
X17039947Y-9609953D01*
X17121879Y-9634010D01*
X17178035Y-9650499D01*
X17178036Y-9650499D01*
X17178039Y-9650500D01*
X17178041Y-9650500D01*
X17321959Y-9650500D01*
X17321961Y-9650500D01*
X17460053Y-9609953D01*
X17528110Y-9566215D01*
X17581632Y-9550500D01*
X18026703Y-9550500D01*
X18084894Y-9569407D01*
X18118168Y-9611617D01*
X18119977Y-9615987D01*
X18130383Y-9634010D01*
X18130384Y-9634011D01*
X18159540Y-9684511D01*
X18246952Y-9771923D01*
X18274728Y-9826438D01*
X18269705Y-9876521D01*
X18226403Y-9992618D01*
X18226401Y-9992629D01*
X18220000Y-10052175D01*
X18220000Y-10099999D01*
X18220001Y-10100000D01*
X18690311Y-10100000D01*
X18700012Y-10100476D01*
X18700248Y-10100499D01*
X18700252Y-10100500D01*
X18700256Y-10100500D01*
X19989744Y-10100500D01*
X19989748Y-10100500D01*
X19989751Y-10100499D01*
X19989988Y-10100476D01*
X19999689Y-10100000D01*
X20469999Y-10100000D01*
X20470000Y-10099999D01*
X20470000Y-10052175D01*
X20463598Y-9992629D01*
X20463596Y-9992618D01*
X20413353Y-9857911D01*
X20413352Y-9857909D01*
X20327192Y-9742815D01*
X20327184Y-9742807D01*
X20308410Y-9728753D01*
X20273157Y-9678745D01*
X20274031Y-9617565D01*
X20310698Y-9568584D01*
X20367739Y-9550500D01*
X21484521Y-9550500D01*
X21542712Y-9569407D01*
X21554525Y-9579496D01*
X23020504Y-11045475D01*
X23048281Y-11099992D01*
X23049500Y-11115479D01*
X23049500Y-14684521D01*
X23030593Y-14742712D01*
X23020504Y-14754525D01*
X22404525Y-15370504D01*
X22350008Y-15398281D01*
X22334521Y-15399500D01*
X21742493Y-15399500D01*
X21684302Y-15380593D01*
X21648338Y-15331093D01*
X21648338Y-15269907D01*
X21652440Y-15259373D01*
X21660165Y-15242456D01*
X21680647Y-15100002D01*
X21680647Y-15099997D01*
X21660165Y-14957543D01*
X21633886Y-14900001D01*
X21600377Y-14826627D01*
X21506128Y-14717857D01*
X21506127Y-14717856D01*
X21506126Y-14717855D01*
X21385057Y-14640049D01*
X21385054Y-14640047D01*
X21385053Y-14640047D01*
X21385050Y-14640046D01*
X21246964Y-14599500D01*
X21246961Y-14599500D01*
X21140479Y-14599500D01*
X21082288Y-14580593D01*
X21070475Y-14570504D01*
X21007731Y-14507760D01*
X20979954Y-14453243D01*
X20989525Y-14392811D01*
X21032790Y-14349546D01*
X21093222Y-14339975D01*
X21105625Y-14342766D01*
X21131964Y-14350500D01*
X21131966Y-14350500D01*
X21275884Y-14350500D01*
X21275886Y-14350500D01*
X21413978Y-14309953D01*
X21535053Y-14232143D01*
X21629302Y-14123373D01*
X21689090Y-13992457D01*
X21699507Y-13920004D01*
X21709572Y-13850002D01*
X21709572Y-13849997D01*
X21689090Y-13707543D01*
X21668491Y-13662439D01*
X21629302Y-13576627D01*
X21535053Y-13467857D01*
X21535052Y-13467856D01*
X21535051Y-13467855D01*
X21413982Y-13390049D01*
X21413979Y-13390047D01*
X21413978Y-13390047D01*
X21413975Y-13390046D01*
X21275889Y-13349500D01*
X21275886Y-13349500D01*
X21131964Y-13349500D01*
X21131960Y-13349500D01*
X20993874Y-13390046D01*
X20993871Y-13390047D01*
X20978383Y-13400001D01*
X20925814Y-13433784D01*
X20872293Y-13449500D01*
X20560507Y-13449500D01*
X20502316Y-13430593D01*
X20490503Y-13420504D01*
X20469999Y-13400000D01*
X19999689Y-13400000D01*
X19989988Y-13399524D01*
X19989751Y-13399500D01*
X19989748Y-13399500D01*
X18700252Y-13399500D01*
X18700248Y-13399500D01*
X18700012Y-13399524D01*
X18690311Y-13400000D01*
X18220001Y-13400000D01*
X18220000Y-13400001D01*
X18220000Y-13447824D01*
X18219999Y-13447824D01*
X18226401Y-13507370D01*
X18226403Y-13507381D01*
X18276646Y-13642088D01*
X18276647Y-13642090D01*
X18362807Y-13757184D01*
X18362815Y-13757192D01*
X18479829Y-13844788D01*
X18515082Y-13894796D01*
X18518134Y-13914999D01*
X18519024Y-13914912D01*
X18519500Y-13919751D01*
X18531621Y-13980686D01*
X18531621Y-14019314D01*
X18519500Y-14080248D01*
X18519024Y-14085088D01*
X18516610Y-14084850D01*
X18500593Y-14134148D01*
X18479829Y-14155210D01*
X18362815Y-14242807D01*
X18362807Y-14242815D01*
X18276647Y-14357909D01*
X18276646Y-14357911D01*
X18226403Y-14492618D01*
X18226401Y-14492629D01*
X18220000Y-14552175D01*
X18220000Y-14599999D01*
X18220001Y-14600000D01*
X18690311Y-14600000D01*
X18700012Y-14600476D01*
X18700248Y-14600499D01*
X18700252Y-14600500D01*
X18700256Y-14600500D01*
X19396000Y-14600500D01*
X19454191Y-14619407D01*
X19490155Y-14668907D01*
X19495000Y-14699500D01*
X19495000Y-14800500D01*
X19476093Y-14858691D01*
X19426593Y-14894655D01*
X19396000Y-14899500D01*
X18700252Y-14899500D01*
X18700248Y-14899500D01*
X18700012Y-14899524D01*
X18690311Y-14900000D01*
X18220001Y-14900000D01*
X18220000Y-14900001D01*
X18220000Y-14947824D01*
X18219999Y-14947824D01*
X18226401Y-15007370D01*
X18226403Y-15007381D01*
X18276646Y-15142088D01*
X18276647Y-15142090D01*
X18362807Y-15257184D01*
X18362815Y-15257192D01*
X18479829Y-15344788D01*
X18515082Y-15394796D01*
X18518134Y-15414999D01*
X18519024Y-15414912D01*
X18519500Y-15419751D01*
X18531621Y-15480686D01*
X18531621Y-15519314D01*
X18519500Y-15580248D01*
X18519024Y-15585088D01*
X18516610Y-15584850D01*
X18500593Y-15634148D01*
X18479829Y-15655210D01*
X18362815Y-15742807D01*
X18362807Y-15742815D01*
X18276647Y-15857909D01*
X18276646Y-15857911D01*
X18226403Y-15992618D01*
X18226401Y-15992629D01*
X18220000Y-16052175D01*
X18220000Y-16099999D01*
X18220001Y-16100000D01*
X18690311Y-16100000D01*
X18700012Y-16100476D01*
X18700248Y-16100499D01*
X18700252Y-16100500D01*
X18700256Y-16100500D01*
X19396000Y-16100500D01*
X19454191Y-16119407D01*
X19490155Y-16168907D01*
X19495000Y-16199500D01*
X19495000Y-16899999D01*
X19495001Y-16900000D01*
X20017824Y-16900000D01*
X20077370Y-16893598D01*
X20077381Y-16893596D01*
X20212087Y-16843354D01*
X20241169Y-16821583D01*
X20299084Y-16801845D01*
X20357539Y-16819918D01*
X20394207Y-16868898D01*
X20399500Y-16900835D01*
X20399500Y-20425500D01*
X20380593Y-20483691D01*
X20331093Y-20519655D01*
X20300500Y-20524500D01*
X20150252Y-20524500D01*
X20150251Y-20524500D01*
X20150241Y-20524501D01*
X20091772Y-20536132D01*
X20091766Y-20536134D01*
X20025451Y-20580445D01*
X20025445Y-20580451D01*
X19981134Y-20646766D01*
X19981132Y-20646772D01*
X19969501Y-20705241D01*
X19969500Y-20705253D01*
X19969500Y-20834521D01*
X19950593Y-20892712D01*
X19940504Y-20904525D01*
X19685489Y-21159540D01*
X19685488Y-21159539D01*
X19629539Y-21215489D01*
X19589980Y-21284007D01*
X19589978Y-21284011D01*
X19569500Y-21360435D01*
X19569500Y-21360438D01*
X19569500Y-22889562D01*
X19570139Y-22891945D01*
X19589979Y-22965989D01*
X19589979Y-22965991D01*
X19592282Y-22969978D01*
X19592283Y-22969979D01*
X19629540Y-23034511D01*
X19629542Y-23034513D01*
X19729539Y-23134511D01*
X19785489Y-23190460D01*
X19854007Y-23230019D01*
X19854005Y-23230019D01*
X19854009Y-23230020D01*
X19854011Y-23230021D01*
X19902939Y-23243131D01*
X19954251Y-23276454D01*
X19974411Y-23319441D01*
X19979526Y-23345154D01*
X19981133Y-23353231D01*
X20025448Y-23419552D01*
X20091769Y-23463867D01*
X20136231Y-23472711D01*
X20150241Y-23475498D01*
X20150246Y-23475498D01*
X20150252Y-23475500D01*
X20150253Y-23475500D01*
X21249747Y-23475500D01*
X21249748Y-23475500D01*
X21308231Y-23463867D01*
X21374552Y-23419552D01*
X21418867Y-23353231D01*
X21430500Y-23294748D01*
X21430500Y-22864398D01*
X21449407Y-22806207D01*
X21498907Y-22770243D01*
X21560093Y-22770243D01*
X21579895Y-22779185D01*
X21668299Y-22831467D01*
X21668298Y-22831467D01*
X21825399Y-22877109D01*
X21825404Y-22877110D01*
X21850000Y-22879045D01*
X21850000Y-22335001D01*
X22350000Y-22335001D01*
X22350000Y-22879045D01*
X22374587Y-22877112D01*
X22374600Y-22877109D01*
X22531699Y-22831467D01*
X22531700Y-22831467D01*
X22672507Y-22748194D01*
X22788194Y-22632507D01*
X22871467Y-22491700D01*
X22871467Y-22491699D01*
X22916994Y-22335000D01*
X22350001Y-22335000D01*
X22350000Y-22335001D01*
X21850000Y-22335001D01*
X21849999Y-22335000D01*
X21336000Y-22335000D01*
X21277809Y-22316093D01*
X21241845Y-22266593D01*
X21239634Y-22252635D01*
X21236999Y-22250000D01*
X20549000Y-22250000D01*
X20490809Y-22231093D01*
X20454845Y-22181593D01*
X20450000Y-22151000D01*
X20450000Y-21849000D01*
X20468907Y-21790809D01*
X20518407Y-21754845D01*
X20549000Y-21750000D01*
X21674000Y-21750000D01*
X21732191Y-21768907D01*
X21768155Y-21818407D01*
X21770365Y-21832364D01*
X21773001Y-21835000D01*
X22916994Y-21835000D01*
X22871467Y-21678300D01*
X22871467Y-21678299D01*
X22788194Y-21537492D01*
X22672508Y-21421806D01*
X22664829Y-21417265D01*
X22624366Y-21371370D01*
X22617258Y-21317777D01*
X22620500Y-21295528D01*
X22620500Y-20934472D01*
X22610645Y-20866830D01*
X22559636Y-20762489D01*
X22477511Y-20680364D01*
X22373170Y-20629355D01*
X22373171Y-20629355D01*
X22356259Y-20626891D01*
X22305528Y-20619500D01*
X21894472Y-20619500D01*
X21853886Y-20625413D01*
X21826828Y-20629355D01*
X21722488Y-20680364D01*
X21682348Y-20720504D01*
X21627831Y-20748281D01*
X21612345Y-20749500D01*
X21520549Y-20749500D01*
X21462358Y-20730593D01*
X21426394Y-20681093D01*
X21423452Y-20669816D01*
X21421038Y-20657683D01*
X21418867Y-20646769D01*
X21374552Y-20580448D01*
X21374548Y-20580445D01*
X21308233Y-20536134D01*
X21308231Y-20536133D01*
X21308228Y-20536132D01*
X21308227Y-20536132D01*
X21249758Y-20524501D01*
X21249748Y-20524500D01*
X21249747Y-20524500D01*
X21099500Y-20524500D01*
X21041309Y-20505593D01*
X21005345Y-20456093D01*
X21000500Y-20425500D01*
X21000500Y-19199500D01*
X21019407Y-19141309D01*
X21068907Y-19105345D01*
X21099500Y-19100500D01*
X23019747Y-19100500D01*
X23019748Y-19100500D01*
X23078231Y-19088867D01*
X23144552Y-19044552D01*
X23188867Y-18978231D01*
X23200500Y-18919748D01*
X23200500Y-17280252D01*
X23188867Y-17221769D01*
X23144552Y-17155448D01*
X23144548Y-17155445D01*
X23078233Y-17111134D01*
X23078231Y-17111133D01*
X23078228Y-17111132D01*
X23078227Y-17111132D01*
X23019758Y-17099501D01*
X23019748Y-17099500D01*
X23019747Y-17099500D01*
X21099500Y-17099500D01*
X21041309Y-17080593D01*
X21005345Y-17031093D01*
X21000500Y-17000500D01*
X21000500Y-16099500D01*
X21019407Y-16041309D01*
X21068907Y-16005345D01*
X21099500Y-16000500D01*
X22539563Y-16000500D01*
X22539563Y-16000499D01*
X22615989Y-15980021D01*
X22684511Y-15940460D01*
X22740460Y-15884511D01*
X23590460Y-15034511D01*
X23623395Y-14977466D01*
X23630020Y-14965992D01*
X23630020Y-14965990D01*
X23630022Y-14965988D01*
X23650500Y-14889562D01*
X23650500Y-14810438D01*
X23650500Y-10910438D01*
X23630021Y-10834011D01*
X23590460Y-10765489D01*
X23576386Y-10751415D01*
X23534511Y-10709539D01*
X23534511Y-10709540D01*
X21834511Y-9009540D01*
X21831054Y-9007544D01*
X21831052Y-9007542D01*
X21831052Y-9007543D01*
X21765989Y-8969979D01*
X21765988Y-8969978D01*
X21765987Y-8969978D01*
X21689564Y-8949500D01*
X21689562Y-8949500D01*
X20560507Y-8949500D01*
X20502316Y-8930593D01*
X20490503Y-8920504D01*
X20469999Y-8900000D01*
X19999689Y-8900000D01*
X19989988Y-8899524D01*
X19989751Y-8899500D01*
X19989748Y-8899500D01*
X18700252Y-8899500D01*
X18700248Y-8899500D01*
X18700012Y-8899524D01*
X18690311Y-8900000D01*
X18220001Y-8900000D01*
X18199497Y-8920504D01*
X18144980Y-8948281D01*
X18129493Y-8949500D01*
X17772280Y-8949500D01*
X17714089Y-8930593D01*
X17682226Y-8891625D01*
X17675377Y-8876628D01*
X17675377Y-8876627D01*
X17581128Y-8767857D01*
X17581127Y-8767856D01*
X17581126Y-8767855D01*
X17460057Y-8690049D01*
X17460054Y-8690047D01*
X17460053Y-8690047D01*
X17460050Y-8690046D01*
X17321964Y-8649500D01*
X17321961Y-8649500D01*
X17178039Y-8649500D01*
X17178035Y-8649500D01*
X17039949Y-8690046D01*
X17039942Y-8690049D01*
X16918873Y-8767855D01*
X16824622Y-8876628D01*
X16764834Y-9007543D01*
X16744353Y-9149997D01*
X15450500Y-9149997D01*
X15450500Y-8552175D01*
X18220000Y-8552175D01*
X18220000Y-8599999D01*
X18220001Y-8600000D01*
X19194999Y-8600000D01*
X19195000Y-8599999D01*
X19195000Y-8100001D01*
X19495000Y-8100001D01*
X19495000Y-8599999D01*
X19495001Y-8600000D01*
X20469999Y-8600000D01*
X20470000Y-8599999D01*
X20470000Y-8552175D01*
X20463598Y-8492629D01*
X20463596Y-8492618D01*
X20413353Y-8357911D01*
X20413352Y-8357909D01*
X20327192Y-8242815D01*
X20327184Y-8242807D01*
X20212090Y-8156647D01*
X20212088Y-8156646D01*
X20077381Y-8106403D01*
X20077370Y-8106401D01*
X20017824Y-8100000D01*
X19495001Y-8100000D01*
X19495000Y-8100001D01*
X19195000Y-8100001D01*
X19194999Y-8100000D01*
X18672176Y-8100000D01*
X18612629Y-8106401D01*
X18612618Y-8106403D01*
X18477911Y-8156646D01*
X18477909Y-8156647D01*
X18362815Y-8242807D01*
X18362807Y-8242815D01*
X18276647Y-8357909D01*
X18276646Y-8357911D01*
X18226403Y-8492618D01*
X18226401Y-8492629D01*
X18220000Y-8552175D01*
X15450500Y-8552175D01*
X15450500Y-7215478D01*
X15469407Y-7157287D01*
X15479490Y-7145480D01*
X16140460Y-6484511D01*
X16163537Y-6444540D01*
X16180021Y-6415989D01*
X16200500Y-6339562D01*
X16200500Y-6080253D01*
X20799500Y-6080253D01*
X20799500Y-7719746D01*
X20799501Y-7719758D01*
X20811132Y-7778227D01*
X20811134Y-7778233D01*
X20855445Y-7844548D01*
X20855448Y-7844552D01*
X20921769Y-7888867D01*
X20966231Y-7897711D01*
X20980241Y-7900498D01*
X20980246Y-7900498D01*
X20980252Y-7900500D01*
X20980253Y-7900500D01*
X23019747Y-7900500D01*
X23019748Y-7900500D01*
X23078231Y-7888867D01*
X23144552Y-7844552D01*
X23188867Y-7778231D01*
X23200500Y-7719748D01*
X23200500Y-6080252D01*
X23188867Y-6021769D01*
X23144552Y-5955448D01*
X23136399Y-5950000D01*
X23078233Y-5911134D01*
X23078231Y-5911133D01*
X23078228Y-5911132D01*
X23078227Y-5911132D01*
X23019758Y-5899501D01*
X23019748Y-5899500D01*
X20980252Y-5899500D01*
X20980251Y-5899500D01*
X20980241Y-5899501D01*
X20921772Y-5911132D01*
X20921766Y-5911134D01*
X20855451Y-5955445D01*
X20855445Y-5955451D01*
X20811134Y-6021766D01*
X20811132Y-6021772D01*
X20799501Y-6080241D01*
X20799500Y-6080253D01*
X16200500Y-6080253D01*
X16200500Y-3410438D01*
X16180021Y-3334011D01*
X16154358Y-3289562D01*
X16140460Y-3265489D01*
X16084511Y-3209539D01*
X16084511Y-3209540D01*
X14834511Y-1959540D01*
X14834508Y-1959538D01*
X14776006Y-1925761D01*
X14776006Y-1925762D01*
X14765991Y-1919980D01*
X14765989Y-1919979D01*
X14765985Y-1919978D01*
X14689562Y-1899500D01*
X14689560Y-1899500D01*
X14550833Y-1899500D01*
X14492642Y-1880593D01*
X14480835Y-1870509D01*
X14414579Y-1804253D01*
X14310545Y-1755741D01*
X14263139Y-1749500D01*
X14263138Y-1749500D01*
X14015086Y-1749500D01*
X13956895Y-1730593D01*
X13929873Y-1700896D01*
X13922773Y-1688891D01*
X13811109Y-1577227D01*
X13675189Y-1496845D01*
X13550000Y-1460473D01*
X13550000Y-2749999D01*
X13550001Y-2750000D01*
X14734021Y-2750000D01*
X14792212Y-2768907D01*
X14804025Y-2778996D01*
X15570504Y-3545475D01*
X15598281Y-3599992D01*
X15599500Y-3615479D01*
X15599500Y-6134521D01*
X15580593Y-6192712D01*
X15570504Y-6204525D01*
X15019504Y-6755525D01*
X14964987Y-6783302D01*
X14904555Y-6773731D01*
X14861290Y-6730466D01*
X14850500Y-6685521D01*
X14850500Y-6403893D01*
X14869407Y-6345702D01*
X14876741Y-6337711D01*
X14876491Y-6337494D01*
X14883900Y-6328944D01*
X14975377Y-6223373D01*
X15035165Y-6092457D01*
X15045329Y-6021766D01*
X15055647Y-5950002D01*
X15055647Y-5949997D01*
X15035165Y-5807543D01*
X14975377Y-5676627D01*
X14881128Y-5567857D01*
X14881127Y-5567856D01*
X14881126Y-5567855D01*
X14760057Y-5490049D01*
X14760054Y-5490047D01*
X14760053Y-5490047D01*
X14760050Y-5490046D01*
X14621964Y-5449500D01*
X14621961Y-5449500D01*
X14478039Y-5449500D01*
X14478035Y-5449500D01*
X14339949Y-5490046D01*
X14339942Y-5490049D01*
X14218873Y-5567855D01*
X14124622Y-5676628D01*
X14064834Y-5807543D01*
X14044353Y-5949997D01*
X14044353Y-5950002D01*
X14064834Y-6092456D01*
X14084045Y-6134521D01*
X14124623Y-6223373D01*
X14214858Y-6327511D01*
X14223509Y-6337494D01*
X14221471Y-6339259D01*
X14246925Y-6381458D01*
X14249500Y-6403893D01*
X14249500Y-7900521D01*
X14230593Y-7958712D01*
X14181093Y-7994676D01*
X14119907Y-7994676D01*
X14080496Y-7970525D01*
X13309496Y-7199525D01*
X13281719Y-7145008D01*
X13280500Y-7129521D01*
X13280500Y-7070478D01*
X13299407Y-7012287D01*
X13309490Y-7000480D01*
X13440460Y-6869511D01*
X13465864Y-6825510D01*
X13480020Y-6800992D01*
X13480020Y-6800990D01*
X13480022Y-6800988D01*
X13500500Y-6724562D01*
X13500500Y-6645438D01*
X13500500Y-4560438D01*
X13480021Y-4484011D01*
X13440460Y-4415489D01*
X13439254Y-4414283D01*
X13438699Y-4413194D01*
X13436509Y-4410339D01*
X13437038Y-4409933D01*
X13411479Y-4359769D01*
X13421050Y-4299337D01*
X13464315Y-4256072D01*
X13496339Y-4246128D01*
X13510545Y-4244259D01*
X13510546Y-4244258D01*
X13510548Y-4244258D01*
X13600500Y-4202312D01*
X13614579Y-4195747D01*
X13629998Y-4180327D01*
X13684513Y-4152552D01*
X13744945Y-4162123D01*
X13770000Y-4180326D01*
X13785421Y-4195747D01*
X13889455Y-4244259D01*
X13936861Y-4250500D01*
X14263138Y-4250499D01*
X14310545Y-4244259D01*
X14310546Y-4244259D01*
X14400500Y-4202312D01*
X14414579Y-4195747D01*
X14495747Y-4114579D01*
X14544259Y-4010545D01*
X14550500Y-3963139D01*
X14550499Y-3715085D01*
X14569406Y-3656896D01*
X14599105Y-3629872D01*
X14611108Y-3622773D01*
X14722772Y-3511109D01*
X14803154Y-3375189D01*
X14839525Y-3250000D01*
X13360474Y-3250000D01*
X13351361Y-3262136D01*
X13350673Y-3284035D01*
X13313172Y-3332381D01*
X13257527Y-3349500D01*
X13136866Y-3349500D01*
X13136854Y-3349501D01*
X13089455Y-3355740D01*
X13089453Y-3355740D01*
X12985423Y-3404251D01*
X12985421Y-3404252D01*
X12985421Y-3404253D01*
X12970001Y-3419672D01*
X12915487Y-3447448D01*
X12855055Y-3437877D01*
X12829999Y-3419673D01*
X12814579Y-3404253D01*
X12710545Y-3355741D01*
X12663139Y-3349500D01*
X12663137Y-3349500D01*
X12336866Y-3349500D01*
X12336854Y-3349501D01*
X12289455Y-3355740D01*
X12289453Y-3355740D01*
X12185423Y-3404251D01*
X12185421Y-3404252D01*
X12185421Y-3404253D01*
X12170001Y-3419672D01*
X12115487Y-3447448D01*
X12055055Y-3437877D01*
X12029999Y-3419673D01*
X12014579Y-3404253D01*
X11910545Y-3355741D01*
X11863139Y-3349500D01*
X11863138Y-3349500D01*
X11742474Y-3349500D01*
X11684283Y-3330593D01*
X11648319Y-3281093D01*
X11648008Y-3261296D01*
X11639526Y-3250000D01*
X10168007Y-3250000D01*
X10109816Y-3231093D01*
X10108536Y-3230000D01*
X9449000Y-3230000D01*
X9390809Y-3211093D01*
X9354845Y-3161593D01*
X9350000Y-3131000D01*
X9350000Y-2829000D01*
X9368907Y-2770809D01*
X9418407Y-2734845D01*
X9449000Y-2730000D01*
X10401993Y-2730000D01*
X10460184Y-2748907D01*
X10461464Y-2750000D01*
X11449999Y-2750000D01*
X11450000Y-2749999D01*
X11450000Y-2450001D01*
X11950000Y-2450001D01*
X11950000Y-2939525D01*
X12072380Y-2903971D01*
X12127620Y-2903971D01*
X12249999Y-2939525D01*
X12250000Y-2939525D01*
X12250000Y-2450001D01*
X12750000Y-2450001D01*
X12750000Y-2939525D01*
X12872380Y-2903971D01*
X12927620Y-2903971D01*
X13049999Y-2939525D01*
X13050000Y-2939525D01*
X13050000Y-2450001D01*
X13049999Y-2450000D01*
X12750001Y-2450000D01*
X12750000Y-2450001D01*
X12250000Y-2450001D01*
X12249999Y-2450000D01*
X11950001Y-2450000D01*
X11950000Y-2450001D01*
X11450000Y-2450001D01*
X11450000Y-1460473D01*
X11950000Y-1460473D01*
X11950000Y-1949999D01*
X11950001Y-1950000D01*
X12249999Y-1950000D01*
X12250000Y-1949999D01*
X12250000Y-1460473D01*
X12750000Y-1460473D01*
X12750000Y-1949999D01*
X12750001Y-1950000D01*
X13049999Y-1950000D01*
X13050000Y-1949999D01*
X13050000Y-1460473D01*
X12927620Y-1496028D01*
X12872380Y-1496028D01*
X12750000Y-1460473D01*
X12250000Y-1460473D01*
X12127620Y-1496028D01*
X12072380Y-1496028D01*
X11950000Y-1460473D01*
X11450000Y-1460473D01*
X11324810Y-1496845D01*
X11188890Y-1577227D01*
X11077226Y-1688891D01*
X11070126Y-1700897D01*
X11024229Y-1741359D01*
X10984914Y-1749500D01*
X10736866Y-1749500D01*
X10736854Y-1749501D01*
X10689455Y-1755740D01*
X10689453Y-1755740D01*
X10585423Y-1804251D01*
X10585421Y-1804252D01*
X10585421Y-1804253D01*
X10519168Y-1870505D01*
X10464654Y-1898281D01*
X10449167Y-1899500D01*
X9462614Y-1899500D01*
X9383490Y-1899500D01*
X9336713Y-1912033D01*
X9307059Y-1919979D01*
X9238545Y-1959536D01*
X8315489Y-2882592D01*
X8315488Y-2882591D01*
X8259539Y-2938541D01*
X8219980Y-3007059D01*
X8219978Y-3007063D01*
X8199500Y-3083487D01*
X100500Y-3083487D01*
X100500Y-2502984D01*
X100681Y-2497007D01*
X107515Y-2384031D01*
X117633Y-2216741D01*
X119072Y-2204890D01*
X169146Y-1931646D01*
X172004Y-1920052D01*
X254650Y-1654832D01*
X258880Y-1643679D01*
X372895Y-1390346D01*
X378444Y-1379775D01*
X522159Y-1142040D01*
X528930Y-1132230D01*
X700257Y-913547D01*
X708169Y-904615D01*
X904615Y-708169D01*
X913547Y-700257D01*
X1132230Y-528930D01*
X1142040Y-522159D01*
X1379775Y-378444D01*
X1390346Y-372895D01*
X1643679Y-258880D01*
X1654832Y-254650D01*
X1920052Y-172004D01*
X1931646Y-169146D01*
X2204890Y-119072D01*
X2216741Y-117633D01*
X2497008Y-100681D01*
X2502985Y-100500D01*
X2526929Y-100500D01*
X22473071Y-100500D01*
X22497015Y-100500D01*
X22502992Y-100681D01*
G37*
%TD.AperFunction*%
%TD*%
D23*
X14550000Y-5950000D03*
X12600000Y-5900000D03*
X9550000Y-5750000D03*
X19850000Y-17250000D03*
X20950000Y-10150000D03*
X5700000Y-7800000D03*
X15775000Y-21650000D03*
X18325000Y-19725000D03*
X21225000Y-24325000D03*
X7000000Y-17550000D03*
X5800000Y-21175000D03*
X18625000Y-1375000D03*
X2675000Y-12725000D03*
X22000000Y-14425000D03*
X5375000Y-24325000D03*
X15000000Y-4900000D03*
X23650000Y-8925000D03*
X2725000Y-8375000D03*
X6550000Y-1000000D03*
X22275000Y-11625000D03*
X2625000Y-3125000D03*
X11350000Y-9350000D03*
X2425000Y-10225000D03*
X12150000Y-1000000D03*
X11500000Y-20875000D03*
X9075000Y-9425000D03*
X23200000Y-22075000D03*
X19500000Y-7500000D03*
X11878474Y-16925000D03*
X23975000Y-16700000D03*
X1650000Y-15700000D03*
X3433283Y-14492777D03*
X21175000Y-15100000D03*
X17250000Y-9150000D03*
X7500000Y-10000000D03*
X21203925Y-13850000D03*
X2925000Y-13875000D03*
X4011311Y-12750000D03*
X22100000Y-12825000D03*
X21400000Y-11650000D03*
X2850000Y-11625000D03*
X17375000Y-10350000D03*
X3725000Y-10575000D03*
D24*
X6950000Y-23250000D03*
X8950000Y-23250000D03*
X10950000Y-23250000D03*
X12950000Y-23250000D03*
X22500000Y-2550000D03*
X2500000Y-22500000D03*
M02*
