%TF.GenerationSoftware,KiCad,Pcbnew,8.0.7*%
%TF.CreationDate,2025-01-15T18:16:11+00:00*%
%TF.ProjectId,Button,42757474-6f6e-42e6-9b69-6361645f7063,rev?*%
%TF.SameCoordinates,Original*%
%TF.FileFunction,Copper,L4,Bot*%
%TF.FilePolarity,Positive*%
%FSLAX46Y46*%
G04 Gerber Fmt 4.6, Leading zero omitted, Abs format (unit mm)*
G04 Created by KiCad (PCBNEW 8.0.7) date 2025-01-15 18:16:11*
%MOMM*%
%LPD*%
G01*
G04 APERTURE LIST*
%TA.AperFunction,ComponentPad*%
%ADD10R,1.350000X1.350000*%
%TD*%
%TA.AperFunction,ComponentPad*%
%ADD11O,1.350000X1.350000*%
%TD*%
%TA.AperFunction,SMDPad,CuDef*%
%ADD12R,2.000000X1.000000*%
%TD*%
%TA.AperFunction,SMDPad,CuDef*%
%ADD13R,2.500000X1.000000*%
%TD*%
%TA.AperFunction,ViaPad*%
%ADD14C,0.600000*%
%TD*%
%TA.AperFunction,Conductor*%
%ADD15C,0.200000*%
%TD*%
%ADD16C,0.300000*%
%ADD17C,0.350000*%
G04 APERTURE END LIST*
D10*
%TO.P,J4,1,Pin_1*%
%TO.N,5V*%
X5850000Y-23600000D03*
D11*
%TO.P,J4,2,Pin_2*%
%TO.N,GND*%
X7850000Y-23600000D03*
%TO.P,J4,3,Pin_3*%
%TO.N,SWDIO*%
X9850000Y-23600000D03*
%TO.P,J4,4,Pin_4*%
%TO.N,SWDCLK*%
X11850000Y-23600000D03*
%TD*%
D12*
%TO.P,J5,1,Pin_1*%
%TO.N,MOSI*%
X18575000Y-18850000D03*
%TO.P,J5,2,Pin_2*%
%TO.N,MISO*%
X18575000Y-16310000D03*
%TO.P,J5,3,Pin_3*%
%TO.N,SCLK*%
X18575000Y-13770000D03*
%TO.P,J5,4,Pin_4*%
%TO.N,PS*%
X18575000Y-11230000D03*
%TO.P,J5,5,Pin_5*%
%TO.N,GND*%
X18575000Y-8690000D03*
%TO.P,J5,6,Pin_6*%
%TO.N,5V*%
X18575000Y-6150000D03*
%TD*%
D13*
%TO.P,J2,1,Pin_1*%
%TO.N,5V*%
X8025000Y-6150000D03*
%TO.P,J2,2,Pin_2*%
%TO.N,GND*%
X8025000Y-8690000D03*
%TO.P,J2,3,Pin_3*%
%TO.N,PS*%
X8025000Y-11230000D03*
%TO.P,J2,4,Pin_4*%
%TO.N,SCLK*%
X8025000Y-13770000D03*
%TO.P,J2,5,Pin_5*%
%TO.N,MISO*%
X8025000Y-16310000D03*
%TO.P,J2,6,Pin_6*%
%TO.N,MOSI*%
X8025000Y-18850000D03*
%TD*%
D14*
%TO.N,GND*%
X16200000Y-24100000D03*
X1470000Y-4610000D03*
X9450000Y-12400000D03*
X22050000Y-16050000D03*
X1800000Y-16300000D03*
X11750000Y-10000000D03*
X6500000Y-20350000D03*
X6400000Y-3850000D03*
X19100000Y-17650000D03*
X12650000Y-15600000D03*
X4050000Y-2600000D03*
X10600000Y-6900000D03*
X7150000Y-9800000D03*
X7150000Y-12450000D03*
X16800000Y-6850000D03*
X19349265Y-8099265D03*
X13800000Y-7150000D03*
X12000000Y-12500000D03*
X15050000Y-19025000D03*
X23700000Y-19650000D03*
X8750000Y-10050000D03*
X25300000Y-12900000D03*
X17000000Y-22125000D03*
X2300000Y-8650000D03*
X11650000Y-17400000D03*
X10850000Y-1100000D03*
X5600000Y-17050000D03*
X21500000Y-8950000D03*
X21100000Y-21975000D03*
X5200000Y-5400000D03*
X13500000Y-1400000D03*
X24350000Y-6200000D03*
X12250000Y-7800000D03*
X1900000Y-12400000D03*
X19500000Y-1050000D03*
%TO.N,5V*%
X3100000Y-4800000D03*
X20323554Y-8246446D03*
X4350000Y-9400000D03*
%TO.N,Interrupt5V*%
X14750000Y-14750000D03*
X14750000Y-9900000D03*
X18219998Y-10150000D03*
X6800000Y-14770002D03*
%TO.N,MOSI*%
X21050000Y-11350000D03*
X9758846Y-18531484D03*
%TO.N,MISO*%
X16550000Y-16310000D03*
X8025000Y-16310000D03*
%TO.N,SCLK*%
X9650000Y-13600000D03*
X17150000Y-13750000D03*
X15550000Y-13770000D03*
%TO.N,PS*%
X20900000Y-14200000D03*
X8025000Y-11230000D03*
%TO.N,SWDIO*%
X16500000Y-2050000D03*
%TO.N,SWDCLK*%
X17000000Y-1000000D03*
%TO.N,LED_DATA*%
X13700000Y-5200000D03*
X6700000Y-4875000D03*
%TD*%
D15*
%TO.N,GND*%
X8025000Y-8690000D02*
X18575000Y-8690000D01*
X7150000Y-9565000D02*
X8025000Y-8690000D01*
X19165735Y-8099265D02*
X18575000Y-8690000D01*
X7150000Y-9800000D02*
X7150000Y-9565000D01*
X19349265Y-8099265D02*
X19165735Y-8099265D01*
%TO.N,5V*%
X18575000Y-6150000D02*
X20323554Y-7898554D01*
X4350000Y-9400000D02*
X4350000Y-6250000D01*
X18575000Y-6150000D02*
X8025000Y-6150000D01*
X4450000Y-6150000D02*
X3100000Y-4800000D01*
X8025000Y-6150000D02*
X7600000Y-6150000D01*
X20323554Y-7898554D02*
X20323554Y-8246446D01*
X4350000Y-6250000D02*
X4450000Y-6150000D01*
X8025000Y-6150000D02*
X4450000Y-6150000D01*
%TO.N,Interrupt5V*%
X14750000Y-9900000D02*
X17969998Y-9900000D01*
X6800000Y-14770002D02*
X14729998Y-14770002D01*
X14729998Y-14770002D02*
X14750000Y-14750000D01*
X17969998Y-9900000D02*
X18219998Y-10150000D01*
%TO.N,MOSI*%
X21500000Y-11800000D02*
X21050000Y-11350000D01*
X18575000Y-18850000D02*
X18150000Y-18425000D01*
X21150000Y-17100000D02*
X21150000Y-15800000D01*
X9758846Y-18791154D02*
X9700000Y-18850000D01*
X21150000Y-15800000D02*
X21500000Y-15450000D01*
X18575000Y-18850000D02*
X19400000Y-18850000D01*
X9700000Y-18850000D02*
X8025000Y-18850000D01*
X18150000Y-18425000D02*
X10573529Y-18425000D01*
X10573529Y-18425000D02*
X10148529Y-18850000D01*
X19400000Y-18850000D02*
X21150000Y-17100000D01*
X10148529Y-18850000D02*
X9700000Y-18850000D01*
X9758846Y-18531484D02*
X9758846Y-18791154D01*
X21500000Y-15450000D02*
X21500000Y-11800000D01*
%TO.N,MISO*%
X16550000Y-16310000D02*
X8425000Y-16310000D01*
X18575000Y-16310000D02*
X16550000Y-16310000D01*
%TO.N,SCLK*%
X8025000Y-13770000D02*
X17130000Y-13770000D01*
X17150000Y-13750000D02*
X18555000Y-13750000D01*
X18555000Y-13750000D02*
X18575000Y-13770000D01*
X17130000Y-13770000D02*
X17150000Y-13750000D01*
%TO.N,PS*%
X20900000Y-14200000D02*
X20900000Y-12050000D01*
X18575000Y-11230000D02*
X20080000Y-11230000D01*
X8025000Y-11230000D02*
X18575000Y-11230000D01*
X20080000Y-11230000D02*
X20900000Y-12050000D01*
%TO.N,SWDIO*%
X9850000Y-23600000D02*
X12650000Y-20800000D01*
X22900000Y-17200000D02*
X22900000Y-8000000D01*
X22900000Y-8000000D02*
X16950000Y-2050000D01*
X16950000Y-2050000D02*
X16500000Y-2050000D01*
X19300000Y-20800000D02*
X22900000Y-17200000D01*
X12650000Y-20800000D02*
X19300000Y-20800000D01*
%TO.N,SWDCLK*%
X17000000Y-1000000D02*
X23774264Y-7774264D01*
X19575000Y-21525000D02*
X13925000Y-21525000D01*
X13925000Y-21525000D02*
X11850000Y-23600000D01*
X23774264Y-17325736D02*
X19575000Y-21525000D01*
X23774264Y-7774264D02*
X23774264Y-17325736D01*
%TO.N,LED_DATA*%
X13375000Y-4875000D02*
X8976471Y-4875000D01*
X13700000Y-5200000D02*
X13375000Y-4875000D01*
X8976471Y-4875000D02*
X6700000Y-4875000D01*
%TD*%
%TA.AperFunction,Conductor*%
%TO.N,GND*%
G36*
X22502992Y-100681D02*
G01*
X22783256Y-117633D01*
X22795111Y-119073D01*
X22958223Y-148964D01*
X22983638Y-153622D01*
X23037468Y-182709D01*
X23063920Y-237880D01*
X23052891Y-298064D01*
X23008593Y-340270D01*
X22965793Y-350000D01*
X21999997Y-350000D01*
X21299998Y-650000D01*
X20799999Y-1050000D01*
X20600005Y-1349990D01*
X20599998Y-1350002D01*
X20400001Y-1749996D01*
X20300000Y-2050000D01*
X20300000Y-3050002D01*
X20599997Y-3749995D01*
X20600000Y-3750000D01*
X21091707Y-4340049D01*
X21100000Y-4350000D01*
X21900000Y-4750000D01*
X22899998Y-4750000D01*
X22900000Y-4750000D01*
X23500000Y-4650000D01*
X24100000Y-4150000D01*
X24500000Y-3650000D01*
X24700000Y-2950000D01*
X24700000Y-2478186D01*
X24718907Y-2419995D01*
X24768407Y-2384031D01*
X24829593Y-2384031D01*
X24879093Y-2419995D01*
X24897819Y-2472209D01*
X24899319Y-2497007D01*
X24899500Y-2502984D01*
X24899500Y-5019991D01*
X24914798Y-5056926D01*
X24914799Y-5056927D01*
X24914800Y-5056929D01*
X24943071Y-5085200D01*
X24943072Y-5085200D01*
X24943073Y-5085201D01*
X24980008Y-5100500D01*
X24980009Y-5100500D01*
X25019991Y-5100500D01*
X25800500Y-5100500D01*
X25858691Y-5119407D01*
X25894655Y-5168907D01*
X25899500Y-5199500D01*
X25899500Y-19800500D01*
X25880593Y-19858691D01*
X25831093Y-19894655D01*
X25800500Y-19899500D01*
X24980008Y-19899500D01*
X24943073Y-19914798D01*
X24914798Y-19943073D01*
X24899500Y-19980008D01*
X24899500Y-22497015D01*
X24899319Y-22502993D01*
X24882366Y-22783251D01*
X24880925Y-22795118D01*
X24830854Y-23068346D01*
X24827993Y-23079954D01*
X24745353Y-23345154D01*
X24741114Y-23356332D01*
X24627107Y-23609646D01*
X24621551Y-23620231D01*
X24477849Y-23857944D01*
X24471058Y-23867783D01*
X24299749Y-24086443D01*
X24291822Y-24095392D01*
X24095392Y-24291822D01*
X24086443Y-24299749D01*
X23867783Y-24471058D01*
X23857944Y-24477849D01*
X23620231Y-24621551D01*
X23609646Y-24627107D01*
X23356332Y-24741114D01*
X23345154Y-24745353D01*
X23079954Y-24827993D01*
X23068346Y-24830854D01*
X22795118Y-24880925D01*
X22783251Y-24882366D01*
X22527790Y-24897819D01*
X22502991Y-24899319D01*
X22497015Y-24899500D01*
X8277877Y-24899500D01*
X8219686Y-24880593D01*
X8183722Y-24831093D01*
X8183722Y-24769907D01*
X8219686Y-24720407D01*
X8242114Y-24708185D01*
X8375986Y-24656322D01*
X8375991Y-24656319D01*
X8561126Y-24541688D01*
X8561129Y-24541686D01*
X8722052Y-24394987D01*
X8853283Y-24221209D01*
X8853288Y-24221200D01*
X8930605Y-24065927D01*
X8973467Y-24022265D01*
X9033808Y-24012135D01*
X9088579Y-24039407D01*
X9104962Y-24060555D01*
X9137805Y-24117440D01*
X9231239Y-24221209D01*
X9254463Y-24247003D01*
X9260950Y-24254207D01*
X9409839Y-24362381D01*
X9409843Y-24362383D01*
X9409845Y-24362384D01*
X9465485Y-24387156D01*
X9577966Y-24437236D01*
X9757981Y-24475500D01*
X9757983Y-24475500D01*
X9942017Y-24475500D01*
X9942019Y-24475500D01*
X10122034Y-24437236D01*
X10290161Y-24362381D01*
X10439050Y-24254207D01*
X10562195Y-24117440D01*
X10654214Y-23958059D01*
X10711085Y-23783029D01*
X10730322Y-23600000D01*
X10711085Y-23416971D01*
X10667765Y-23283649D01*
X10667765Y-23222465D01*
X10691914Y-23183055D01*
X12745475Y-21129496D01*
X12799992Y-21101719D01*
X12815479Y-21100500D01*
X13689783Y-21100500D01*
X13747974Y-21119407D01*
X13783938Y-21168907D01*
X13783938Y-21230093D01*
X13747974Y-21279593D01*
X13741220Y-21283978D01*
X13740495Y-21284534D01*
X12267175Y-22757852D01*
X12212658Y-22785629D01*
X12156905Y-22778289D01*
X12122040Y-22762766D01*
X12122035Y-22762764D01*
X12122034Y-22762764D01*
X12122031Y-22762763D01*
X12122030Y-22762763D01*
X12075135Y-22752795D01*
X11942019Y-22724500D01*
X11757981Y-22724500D01*
X11660797Y-22745157D01*
X11577969Y-22762763D01*
X11577963Y-22762765D01*
X11409845Y-22837615D01*
X11409842Y-22837617D01*
X11409839Y-22837618D01*
X11409839Y-22837619D01*
X11397245Y-22846769D01*
X11260948Y-22945794D01*
X11137803Y-23082562D01*
X11137803Y-23082563D01*
X11045790Y-23241931D01*
X11045784Y-23241945D01*
X10988916Y-23416965D01*
X10988915Y-23416969D01*
X10988915Y-23416971D01*
X10969678Y-23600000D01*
X10986483Y-23759893D01*
X10988916Y-23783034D01*
X11045784Y-23958054D01*
X11045790Y-23958068D01*
X11082855Y-24022265D01*
X11137805Y-24117440D01*
X11231239Y-24221209D01*
X11254463Y-24247003D01*
X11260950Y-24254207D01*
X11409839Y-24362381D01*
X11409843Y-24362383D01*
X11409845Y-24362384D01*
X11465485Y-24387156D01*
X11577966Y-24437236D01*
X11757981Y-24475500D01*
X11757983Y-24475500D01*
X11942017Y-24475500D01*
X11942019Y-24475500D01*
X12122034Y-24437236D01*
X12290161Y-24362381D01*
X12439050Y-24254207D01*
X12562195Y-24117440D01*
X12654214Y-23958059D01*
X12711085Y-23783029D01*
X12730322Y-23600000D01*
X12711085Y-23416971D01*
X12667765Y-23283649D01*
X12667765Y-23222465D01*
X12691914Y-23183055D01*
X14020475Y-21854496D01*
X14074992Y-21826719D01*
X14090479Y-21825500D01*
X19614563Y-21825500D01*
X19614563Y-21825499D01*
X19690989Y-21805021D01*
X19759511Y-21765460D01*
X19815460Y-21709511D01*
X24014724Y-17510247D01*
X24032175Y-17480021D01*
X24054285Y-17441725D01*
X24074764Y-17365298D01*
X24074764Y-7734702D01*
X24054285Y-7658275D01*
X24014724Y-7589753D01*
X24000484Y-7575513D01*
X23958775Y-7533803D01*
X23958775Y-7533804D01*
X17530546Y-1105575D01*
X17502769Y-1051058D01*
X17502558Y-1021482D01*
X17505647Y-1000000D01*
X17493218Y-913556D01*
X17485165Y-857543D01*
X17425377Y-726627D01*
X17331128Y-617857D01*
X17331127Y-617856D01*
X17331126Y-617855D01*
X17210057Y-540049D01*
X17210054Y-540047D01*
X17210053Y-540047D01*
X17210050Y-540046D01*
X17071964Y-499500D01*
X17071961Y-499500D01*
X16928039Y-499500D01*
X16928035Y-499500D01*
X16789949Y-540046D01*
X16789942Y-540049D01*
X16668873Y-617855D01*
X16574622Y-726628D01*
X16514834Y-857543D01*
X16494353Y-999997D01*
X16494353Y-1000002D01*
X16514834Y-1142456D01*
X16559431Y-1240107D01*
X16574623Y-1273373D01*
X16641022Y-1350002D01*
X16673509Y-1387494D01*
X16671914Y-1388875D01*
X16698335Y-1432698D01*
X16693094Y-1493658D01*
X16653023Y-1539896D01*
X16593426Y-1553749D01*
X16574015Y-1550103D01*
X16571964Y-1549500D01*
X16571961Y-1549500D01*
X16428039Y-1549500D01*
X16428035Y-1549500D01*
X16289949Y-1590046D01*
X16289942Y-1590049D01*
X16168873Y-1667855D01*
X16074622Y-1776628D01*
X16014834Y-1907543D01*
X15994353Y-2049997D01*
X15994353Y-2050002D01*
X16014834Y-2192456D01*
X16074622Y-2323371D01*
X16074623Y-2323373D01*
X16101126Y-2353959D01*
X16168873Y-2432144D01*
X16279103Y-2502984D01*
X16289947Y-2509953D01*
X16396403Y-2541211D01*
X16428035Y-2550499D01*
X16428036Y-2550499D01*
X16428039Y-2550500D01*
X16428041Y-2550500D01*
X16571959Y-2550500D01*
X16571961Y-2550500D01*
X16710053Y-2509953D01*
X16810307Y-2445523D01*
X16869480Y-2429969D01*
X16926497Y-2452168D01*
X16933833Y-2458804D01*
X19795132Y-5320103D01*
X19822909Y-5374620D01*
X19818100Y-5404984D01*
X19869156Y-5406990D01*
X19904896Y-5429867D01*
X22570504Y-8095475D01*
X22598281Y-8149992D01*
X22599500Y-8165479D01*
X22599500Y-17034521D01*
X22580593Y-17092712D01*
X22570504Y-17104525D01*
X19204525Y-20470504D01*
X19150008Y-20498281D01*
X19134521Y-20499500D01*
X12610435Y-20499500D01*
X12534011Y-20519978D01*
X12534007Y-20519980D01*
X12465491Y-20559538D01*
X10267175Y-22757852D01*
X10212658Y-22785629D01*
X10156905Y-22778289D01*
X10122040Y-22762766D01*
X10122035Y-22762764D01*
X10122034Y-22762764D01*
X10122031Y-22762763D01*
X10122030Y-22762763D01*
X10075135Y-22752795D01*
X9942019Y-22724500D01*
X9757981Y-22724500D01*
X9660797Y-22745157D01*
X9577969Y-22762763D01*
X9577963Y-22762765D01*
X9409845Y-22837615D01*
X9409842Y-22837617D01*
X9409839Y-22837618D01*
X9409839Y-22837619D01*
X9397245Y-22846769D01*
X9260948Y-22945794D01*
X9137804Y-23082561D01*
X9104962Y-23139445D01*
X9059492Y-23180385D01*
X8998642Y-23186780D01*
X8945654Y-23156187D01*
X8930605Y-23134072D01*
X8853288Y-22978799D01*
X8853283Y-22978790D01*
X8722052Y-22805012D01*
X8561129Y-22658313D01*
X8561126Y-22658311D01*
X8375991Y-22543680D01*
X8375986Y-22543677D01*
X8172932Y-22465013D01*
X8172926Y-22465011D01*
X8100000Y-22451379D01*
X8100000Y-23319670D01*
X8080255Y-23299925D01*
X7994745Y-23250556D01*
X7899370Y-23225000D01*
X7800630Y-23225000D01*
X7705255Y-23250556D01*
X7619745Y-23299925D01*
X7600000Y-23319670D01*
X7600000Y-22451379D01*
X7599999Y-22451379D01*
X7527073Y-22465011D01*
X7527067Y-22465013D01*
X7324013Y-22543677D01*
X7324008Y-22543680D01*
X7138873Y-22658311D01*
X7138870Y-22658313D01*
X6977944Y-22805015D01*
X6895383Y-22914343D01*
X6845227Y-22949386D01*
X6784052Y-22948255D01*
X6735225Y-22911382D01*
X6719283Y-22873999D01*
X6713867Y-22846769D01*
X6669552Y-22780448D01*
X6666321Y-22778289D01*
X6603233Y-22736134D01*
X6603231Y-22736133D01*
X6603228Y-22736132D01*
X6603227Y-22736132D01*
X6544758Y-22724501D01*
X6544748Y-22724500D01*
X5155252Y-22724500D01*
X5155251Y-22724500D01*
X5155241Y-22724501D01*
X5096772Y-22736132D01*
X5096766Y-22736134D01*
X5030451Y-22780445D01*
X5030445Y-22780451D01*
X4986134Y-22846766D01*
X4986132Y-22846772D01*
X4974501Y-22905241D01*
X4974500Y-22905253D01*
X4974500Y-24294746D01*
X4974501Y-24294758D01*
X4986132Y-24353227D01*
X4986134Y-24353233D01*
X4992249Y-24362384D01*
X5030448Y-24419552D01*
X5096769Y-24463867D01*
X5132921Y-24471058D01*
X5155241Y-24475498D01*
X5155246Y-24475498D01*
X5155252Y-24475500D01*
X5155253Y-24475500D01*
X6544747Y-24475500D01*
X6544748Y-24475500D01*
X6603231Y-24463867D01*
X6669552Y-24419552D01*
X6713867Y-24353231D01*
X6719283Y-24326001D01*
X6749178Y-24272619D01*
X6804743Y-24247003D01*
X6864753Y-24258940D01*
X6895384Y-24285656D01*
X6977947Y-24394987D01*
X7138870Y-24541686D01*
X7138873Y-24541688D01*
X7324008Y-24656319D01*
X7324013Y-24656322D01*
X7457886Y-24708185D01*
X7505317Y-24746837D01*
X7520971Y-24805986D01*
X7498868Y-24863040D01*
X7447451Y-24896205D01*
X7422123Y-24899500D01*
X2502985Y-24899500D01*
X2497008Y-24899319D01*
X2472210Y-24897819D01*
X2415267Y-24875433D01*
X2382357Y-24823852D01*
X2386051Y-24762778D01*
X2424938Y-24715540D01*
X2478187Y-24700000D01*
X2899998Y-24700000D01*
X2900000Y-24700000D01*
X3500000Y-24600000D01*
X4100000Y-24100000D01*
X4500000Y-23600000D01*
X4700000Y-22900000D01*
X4700000Y-21900000D01*
X4500000Y-21400000D01*
X4100000Y-20900000D01*
X3674423Y-20559538D01*
X3600000Y-20500000D01*
X3511512Y-20470504D01*
X3000000Y-20300000D01*
X2000000Y-20300000D01*
X1999997Y-20300000D01*
X1299998Y-20600000D01*
X799999Y-21000000D01*
X600005Y-21299990D01*
X599998Y-21300002D01*
X400001Y-21699996D01*
X300000Y-22000000D01*
X300000Y-22521813D01*
X281093Y-22580004D01*
X231593Y-22615968D01*
X170407Y-22615968D01*
X120907Y-22580004D01*
X102181Y-22527790D01*
X100681Y-22502992D01*
X100500Y-22497015D01*
X100500Y-19980008D01*
X85201Y-19943073D01*
X85200Y-19943072D01*
X85200Y-19943071D01*
X56929Y-19914800D01*
X56927Y-19914799D01*
X56926Y-19914798D01*
X19992Y-19899500D01*
X19991Y-19899500D01*
X-401000Y-19899500D01*
X-459191Y-19880593D01*
X-495155Y-19831093D01*
X-500000Y-19800500D01*
X-500000Y-15790253D01*
X6574500Y-15790253D01*
X6574500Y-16829746D01*
X6574501Y-16829758D01*
X6586132Y-16888227D01*
X6586134Y-16888233D01*
X6630445Y-16954548D01*
X6630448Y-16954552D01*
X6696769Y-16998867D01*
X6741231Y-17007711D01*
X6755241Y-17010498D01*
X6755246Y-17010498D01*
X6755252Y-17010500D01*
X6755253Y-17010500D01*
X9294747Y-17010500D01*
X9294748Y-17010500D01*
X9353231Y-16998867D01*
X9419552Y-16954552D01*
X9463867Y-16888231D01*
X9475500Y-16829748D01*
X9475500Y-16709500D01*
X9494407Y-16651309D01*
X9543907Y-16615345D01*
X9574500Y-16610500D01*
X16102917Y-16610500D01*
X16161108Y-16629407D01*
X16177733Y-16644667D01*
X16218872Y-16692143D01*
X16339947Y-16769953D01*
X16446403Y-16801211D01*
X16478035Y-16810499D01*
X16478036Y-16810499D01*
X16478039Y-16810500D01*
X16478041Y-16810500D01*
X16621959Y-16810500D01*
X16621961Y-16810500D01*
X16760053Y-16769953D01*
X16881128Y-16692143D01*
X16922264Y-16644668D01*
X16974660Y-16613073D01*
X16997083Y-16610500D01*
X17275500Y-16610500D01*
X17333691Y-16629407D01*
X17369655Y-16678907D01*
X17374500Y-16709500D01*
X17374500Y-16829746D01*
X17374501Y-16829758D01*
X17386132Y-16888227D01*
X17386134Y-16888233D01*
X17430445Y-16954548D01*
X17430448Y-16954552D01*
X17496769Y-16998867D01*
X17541231Y-17007711D01*
X17555241Y-17010498D01*
X17555246Y-17010498D01*
X17555252Y-17010500D01*
X17555253Y-17010500D01*
X19594747Y-17010500D01*
X19594748Y-17010500D01*
X19653231Y-16998867D01*
X19719552Y-16954552D01*
X19763867Y-16888231D01*
X19775500Y-16829748D01*
X19775500Y-15790252D01*
X19763867Y-15731769D01*
X19719552Y-15665448D01*
X19719548Y-15665445D01*
X19653233Y-15621134D01*
X19653231Y-15621133D01*
X19653228Y-15621132D01*
X19653227Y-15621132D01*
X19594758Y-15609501D01*
X19594748Y-15609500D01*
X17555252Y-15609500D01*
X17555251Y-15609500D01*
X17555241Y-15609501D01*
X17496772Y-15621132D01*
X17496766Y-15621134D01*
X17430451Y-15665445D01*
X17430445Y-15665451D01*
X17386134Y-15731766D01*
X17386132Y-15731772D01*
X17374501Y-15790241D01*
X17374500Y-15790253D01*
X17374500Y-15910500D01*
X17355593Y-15968691D01*
X17306093Y-16004655D01*
X17275500Y-16009500D01*
X16997083Y-16009500D01*
X16938892Y-15990593D01*
X16922264Y-15975331D01*
X16881128Y-15927857D01*
X16830739Y-15895474D01*
X16760057Y-15850049D01*
X16760054Y-15850047D01*
X16760053Y-15850047D01*
X16760050Y-15850046D01*
X16621964Y-15809500D01*
X16621961Y-15809500D01*
X16478039Y-15809500D01*
X16478035Y-15809500D01*
X16339949Y-15850046D01*
X16339942Y-15850049D01*
X16218876Y-15927854D01*
X16218873Y-15927856D01*
X16218872Y-15927857D01*
X16183490Y-15968691D01*
X16177736Y-15975331D01*
X16125340Y-16006927D01*
X16102917Y-16009500D01*
X9574500Y-16009500D01*
X9516309Y-15990593D01*
X9480345Y-15941093D01*
X9475500Y-15910500D01*
X9475500Y-15790253D01*
X9475498Y-15790241D01*
X9472711Y-15776231D01*
X9463867Y-15731769D01*
X9419552Y-15665448D01*
X9419548Y-15665445D01*
X9353233Y-15621134D01*
X9353231Y-15621133D01*
X9353228Y-15621132D01*
X9353227Y-15621132D01*
X9294758Y-15609501D01*
X9294748Y-15609500D01*
X6755252Y-15609500D01*
X6755251Y-15609500D01*
X6755241Y-15609501D01*
X6696772Y-15621132D01*
X6696766Y-15621134D01*
X6630451Y-15665445D01*
X6630445Y-15665451D01*
X6586134Y-15731766D01*
X6586132Y-15731772D01*
X6574501Y-15790241D01*
X6574500Y-15790253D01*
X-500000Y-15790253D01*
X-500000Y-14769999D01*
X6294353Y-14769999D01*
X6294353Y-14770004D01*
X6314834Y-14912458D01*
X6365487Y-15023371D01*
X6374623Y-15043375D01*
X6451541Y-15132144D01*
X6468873Y-15152146D01*
X6558823Y-15209953D01*
X6589947Y-15229955D01*
X6659918Y-15250500D01*
X6728035Y-15270501D01*
X6728036Y-15270501D01*
X6728039Y-15270502D01*
X6728041Y-15270502D01*
X6871959Y-15270502D01*
X6871961Y-15270502D01*
X7010053Y-15229955D01*
X7131128Y-15152145D01*
X7172264Y-15104670D01*
X7224660Y-15073075D01*
X7247083Y-15070502D01*
X14320249Y-15070502D01*
X14378440Y-15089409D01*
X14395061Y-15104664D01*
X14418872Y-15132143D01*
X14539947Y-15209953D01*
X14646403Y-15241211D01*
X14678035Y-15250499D01*
X14678036Y-15250499D01*
X14678039Y-15250500D01*
X14678041Y-15250500D01*
X14821959Y-15250500D01*
X14821961Y-15250500D01*
X14960053Y-15209953D01*
X15081128Y-15132143D01*
X15175377Y-15023373D01*
X15235165Y-14892457D01*
X15255647Y-14750000D01*
X15235165Y-14607543D01*
X15175377Y-14476627D01*
X15081128Y-14367857D01*
X15081127Y-14367856D01*
X15081126Y-14367855D01*
X14960057Y-14290049D01*
X14960054Y-14290047D01*
X14960053Y-14290047D01*
X14925682Y-14279955D01*
X14873013Y-14264490D01*
X14822506Y-14229954D01*
X14801944Y-14172327D01*
X14819182Y-14113620D01*
X14867635Y-14076257D01*
X14900904Y-14070500D01*
X15102917Y-14070500D01*
X15161108Y-14089407D01*
X15177733Y-14104667D01*
X15218872Y-14152143D01*
X15339947Y-14229953D01*
X15446403Y-14261211D01*
X15478035Y-14270499D01*
X15478036Y-14270499D01*
X15478039Y-14270500D01*
X15478041Y-14270500D01*
X15621959Y-14270500D01*
X15621961Y-14270500D01*
X15760053Y-14229953D01*
X15881128Y-14152143D01*
X15922264Y-14104668D01*
X15974660Y-14073073D01*
X15997083Y-14070500D01*
X16720247Y-14070500D01*
X16778438Y-14089407D01*
X16795064Y-14104667D01*
X16818872Y-14132143D01*
X16833135Y-14141309D01*
X16924604Y-14200093D01*
X16939947Y-14209953D01*
X17045164Y-14240847D01*
X17078035Y-14250499D01*
X17078036Y-14250499D01*
X17078039Y-14250500D01*
X17078041Y-14250500D01*
X17221959Y-14250500D01*
X17221961Y-14250500D01*
X17254836Y-14240847D01*
X17315995Y-14242593D01*
X17364449Y-14279955D01*
X17379825Y-14316518D01*
X17386133Y-14348231D01*
X17386134Y-14348232D01*
X17386134Y-14348233D01*
X17412611Y-14387858D01*
X17430448Y-14414552D01*
X17496769Y-14458867D01*
X17541231Y-14467711D01*
X17555241Y-14470498D01*
X17555246Y-14470498D01*
X17555252Y-14470500D01*
X17555253Y-14470500D01*
X19594747Y-14470500D01*
X19594748Y-14470500D01*
X19653231Y-14458867D01*
X19719552Y-14414552D01*
X19763867Y-14348231D01*
X19775500Y-14289748D01*
X19775500Y-13250252D01*
X19775350Y-13249500D01*
X19769056Y-13217855D01*
X19763867Y-13191769D01*
X19719552Y-13125448D01*
X19702472Y-13114035D01*
X19653233Y-13081134D01*
X19653231Y-13081133D01*
X19653228Y-13081132D01*
X19653227Y-13081132D01*
X19594758Y-13069501D01*
X19594748Y-13069500D01*
X17555252Y-13069500D01*
X17555251Y-13069500D01*
X17555241Y-13069501D01*
X17496772Y-13081132D01*
X17496766Y-13081134D01*
X17430451Y-13125445D01*
X17430445Y-13125451D01*
X17386134Y-13191766D01*
X17382403Y-13200776D01*
X17379553Y-13199595D01*
X17357444Y-13239071D01*
X17301877Y-13264684D01*
X17262356Y-13261360D01*
X17221966Y-13249501D01*
X17221962Y-13249500D01*
X17221961Y-13249500D01*
X17078039Y-13249500D01*
X17078035Y-13249500D01*
X16939949Y-13290046D01*
X16939942Y-13290049D01*
X16818872Y-13367856D01*
X16818870Y-13367858D01*
X16760405Y-13435331D01*
X16708009Y-13466927D01*
X16685586Y-13469500D01*
X15997083Y-13469500D01*
X15938892Y-13450593D01*
X15922264Y-13435331D01*
X15881128Y-13387857D01*
X15785854Y-13326628D01*
X15760057Y-13310049D01*
X15760054Y-13310047D01*
X15760053Y-13310047D01*
X15760050Y-13310046D01*
X15621964Y-13269500D01*
X15621961Y-13269500D01*
X15478039Y-13269500D01*
X15478035Y-13269500D01*
X15339949Y-13310046D01*
X15339942Y-13310049D01*
X15218876Y-13387854D01*
X15218871Y-13387858D01*
X15177736Y-13435331D01*
X15125340Y-13466927D01*
X15102917Y-13469500D01*
X10204249Y-13469500D01*
X10146058Y-13450593D01*
X10114196Y-13411627D01*
X10075377Y-13326628D01*
X10075377Y-13326627D01*
X9981128Y-13217857D01*
X9981127Y-13217856D01*
X9981126Y-13217855D01*
X9860057Y-13140049D01*
X9860054Y-13140047D01*
X9860053Y-13140047D01*
X9860050Y-13140046D01*
X9721964Y-13099500D01*
X9721961Y-13099500D01*
X9578039Y-13099500D01*
X9578037Y-13099500D01*
X9578033Y-13099501D01*
X9485364Y-13126710D01*
X9424204Y-13124962D01*
X9402472Y-13114035D01*
X9353233Y-13081134D01*
X9353231Y-13081133D01*
X9353228Y-13081132D01*
X9353227Y-13081132D01*
X9294758Y-13069501D01*
X9294748Y-13069500D01*
X6755252Y-13069500D01*
X6755251Y-13069500D01*
X6755241Y-13069501D01*
X6696772Y-13081132D01*
X6696766Y-13081134D01*
X6630451Y-13125445D01*
X6630445Y-13125451D01*
X6586134Y-13191766D01*
X6586132Y-13191772D01*
X6574501Y-13250241D01*
X6574500Y-13250253D01*
X6574500Y-14265917D01*
X6555593Y-14324108D01*
X6529024Y-14349201D01*
X6468872Y-14387858D01*
X6374622Y-14496630D01*
X6314834Y-14627545D01*
X6294353Y-14769999D01*
X-500000Y-14769999D01*
X-500000Y-5199500D01*
X-481093Y-5141309D01*
X-431593Y-5105345D01*
X-401000Y-5100500D01*
X19992Y-5100500D01*
X43283Y-5090852D01*
X56929Y-5085200D01*
X85200Y-5056929D01*
X100500Y-5019991D01*
X100500Y-4799997D01*
X2594353Y-4799997D01*
X2594353Y-4800002D01*
X2614834Y-4942456D01*
X2674622Y-5073371D01*
X2674623Y-5073373D01*
X2768872Y-5182143D01*
X2768873Y-5182144D01*
X2885576Y-5257144D01*
X2889947Y-5259953D01*
X2996403Y-5291211D01*
X3028035Y-5300499D01*
X3028036Y-5300499D01*
X3028039Y-5300500D01*
X3028041Y-5300500D01*
X3134521Y-5300500D01*
X3192712Y-5319407D01*
X3204525Y-5329496D01*
X4020504Y-6145475D01*
X4048281Y-6199992D01*
X4049500Y-6215479D01*
X4049500Y-8946105D01*
X4030593Y-9004296D01*
X4023258Y-9012289D01*
X4023509Y-9012506D01*
X3924622Y-9126628D01*
X3864834Y-9257543D01*
X3844353Y-9399997D01*
X3844353Y-9400002D01*
X3864834Y-9542456D01*
X3903275Y-9626628D01*
X3924623Y-9673373D01*
X3945796Y-9697808D01*
X4018873Y-9782144D01*
X4130419Y-9853830D01*
X4139947Y-9859953D01*
X4246403Y-9891211D01*
X4278035Y-9900499D01*
X4278036Y-9900499D01*
X4278039Y-9900500D01*
X4278041Y-9900500D01*
X4421959Y-9900500D01*
X4421961Y-9900500D01*
X4560053Y-9859953D01*
X4681128Y-9782143D01*
X4775377Y-9673373D01*
X4835165Y-9542457D01*
X4851033Y-9432090D01*
X4855647Y-9400002D01*
X4855647Y-9399997D01*
X4835165Y-9257543D01*
X4826160Y-9237824D01*
X6274999Y-9237824D01*
X6281401Y-9297370D01*
X6281403Y-9297381D01*
X6331646Y-9432088D01*
X6331647Y-9432090D01*
X6417807Y-9547184D01*
X6417815Y-9547192D01*
X6532909Y-9633352D01*
X6532911Y-9633353D01*
X6667618Y-9683596D01*
X6667629Y-9683598D01*
X6727176Y-9690000D01*
X7774999Y-9690000D01*
X7775000Y-9689999D01*
X7775000Y-8940001D01*
X8275000Y-8940001D01*
X8275000Y-9689999D01*
X8275001Y-9690000D01*
X9322824Y-9690000D01*
X9382370Y-9683598D01*
X9382381Y-9683596D01*
X9517088Y-9633353D01*
X9517090Y-9633352D01*
X9632184Y-9547192D01*
X9632192Y-9547184D01*
X9718352Y-9432090D01*
X9718353Y-9432088D01*
X9768596Y-9297381D01*
X9768598Y-9297370D01*
X9775000Y-9237824D01*
X9775000Y-8940001D01*
X9774999Y-8940000D01*
X8275001Y-8940000D01*
X8275000Y-8940001D01*
X7775000Y-8940001D01*
X7774999Y-8940000D01*
X6275001Y-8940000D01*
X6275000Y-8940001D01*
X6275000Y-9237824D01*
X6274999Y-9237824D01*
X4826160Y-9237824D01*
X4775377Y-9126627D01*
X4681128Y-9017857D01*
X4681127Y-9017856D01*
X4676491Y-9012506D01*
X4678524Y-9010743D01*
X4653067Y-8968505D01*
X4650500Y-8946105D01*
X4650500Y-8142175D01*
X6275000Y-8142175D01*
X6275000Y-8439999D01*
X6275001Y-8440000D01*
X7774999Y-8440000D01*
X7775000Y-8439999D01*
X7775000Y-7690001D01*
X8275000Y-7690001D01*
X8275000Y-8439999D01*
X8275001Y-8440000D01*
X9774999Y-8440000D01*
X9775000Y-8439999D01*
X9775000Y-8142175D01*
X17075000Y-8142175D01*
X17075000Y-8439999D01*
X17075001Y-8440000D01*
X18324999Y-8440000D01*
X18325000Y-8439999D01*
X18325000Y-7690001D01*
X18324999Y-7690000D01*
X17527176Y-7690000D01*
X17467629Y-7696401D01*
X17467618Y-7696403D01*
X17332911Y-7746646D01*
X17332909Y-7746647D01*
X17217815Y-7832807D01*
X17217807Y-7832815D01*
X17131647Y-7947909D01*
X17131646Y-7947911D01*
X17081403Y-8082618D01*
X17081401Y-8082629D01*
X17075000Y-8142175D01*
X9775000Y-8142175D01*
X9768598Y-8082629D01*
X9768596Y-8082618D01*
X9718353Y-7947911D01*
X9718352Y-7947909D01*
X9632192Y-7832815D01*
X9632184Y-7832807D01*
X9517090Y-7746647D01*
X9517088Y-7746646D01*
X9382381Y-7696403D01*
X9382370Y-7696401D01*
X9322824Y-7690000D01*
X8275001Y-7690000D01*
X8275000Y-7690001D01*
X7775000Y-7690001D01*
X7774999Y-7690000D01*
X6727176Y-7690000D01*
X6667629Y-7696401D01*
X6667618Y-7696403D01*
X6532911Y-7746646D01*
X6532909Y-7746647D01*
X6417815Y-7832807D01*
X6417807Y-7832815D01*
X6331647Y-7947909D01*
X6331646Y-7947911D01*
X6281403Y-8082618D01*
X6281401Y-8082629D01*
X6275000Y-8142175D01*
X4650500Y-8142175D01*
X4650500Y-6549500D01*
X4669407Y-6491309D01*
X4718907Y-6455345D01*
X4749500Y-6450500D01*
X6475500Y-6450500D01*
X6533691Y-6469407D01*
X6569655Y-6518907D01*
X6574500Y-6549500D01*
X6574500Y-6669746D01*
X6574501Y-6669758D01*
X6586132Y-6728227D01*
X6586133Y-6728231D01*
X6630448Y-6794552D01*
X6696769Y-6838867D01*
X6741231Y-6847711D01*
X6755241Y-6850498D01*
X6755246Y-6850498D01*
X6755252Y-6850500D01*
X6755253Y-6850500D01*
X9294747Y-6850500D01*
X9294748Y-6850500D01*
X9353231Y-6838867D01*
X9419552Y-6794552D01*
X9463867Y-6728231D01*
X9475500Y-6669748D01*
X9475500Y-6549500D01*
X9494407Y-6491309D01*
X9543907Y-6455345D01*
X9574500Y-6450500D01*
X17275500Y-6450500D01*
X17333691Y-6469407D01*
X17369655Y-6518907D01*
X17374500Y-6549500D01*
X17374500Y-6669746D01*
X17374501Y-6669758D01*
X17386132Y-6728227D01*
X17386133Y-6728231D01*
X17430448Y-6794552D01*
X17496769Y-6838867D01*
X17541231Y-6847711D01*
X17555241Y-6850498D01*
X17555246Y-6850498D01*
X17555252Y-6850500D01*
X18809521Y-6850500D01*
X18867712Y-6869407D01*
X18879525Y-6879496D01*
X19521025Y-7520996D01*
X19548802Y-7575513D01*
X19539231Y-7635945D01*
X19495966Y-7679210D01*
X19451021Y-7690000D01*
X18825001Y-7690000D01*
X18825000Y-7690001D01*
X18825000Y-8591000D01*
X18806093Y-8649191D01*
X18756593Y-8685155D01*
X18726000Y-8690000D01*
X18575001Y-8690000D01*
X18575000Y-8690001D01*
X18575000Y-8841000D01*
X18556093Y-8899191D01*
X18506593Y-8935155D01*
X18476000Y-8940000D01*
X17075001Y-8940000D01*
X17075000Y-8940001D01*
X17075000Y-9237824D01*
X17074999Y-9237824D01*
X17081401Y-9297370D01*
X17081403Y-9297381D01*
X17131646Y-9432088D01*
X17131647Y-9432090D01*
X17138445Y-9441171D01*
X17158182Y-9499085D01*
X17140108Y-9557540D01*
X17091127Y-9594208D01*
X17059192Y-9599500D01*
X15197083Y-9599500D01*
X15138892Y-9580593D01*
X15122264Y-9565331D01*
X15115513Y-9557540D01*
X15081128Y-9517857D01*
X15048182Y-9496684D01*
X14960057Y-9440049D01*
X14960054Y-9440047D01*
X14960053Y-9440047D01*
X14960050Y-9440046D01*
X14821964Y-9399500D01*
X14821961Y-9399500D01*
X14678039Y-9399500D01*
X14678035Y-9399500D01*
X14539949Y-9440046D01*
X14539942Y-9440049D01*
X14418873Y-9517855D01*
X14324622Y-9626628D01*
X14264834Y-9757543D01*
X14244353Y-9899997D01*
X14244353Y-9900002D01*
X14264834Y-10042456D01*
X14313947Y-10149997D01*
X14324623Y-10173373D01*
X14377736Y-10234669D01*
X14418873Y-10282144D01*
X14434922Y-10292458D01*
X14539947Y-10359953D01*
X14640147Y-10389374D01*
X14678035Y-10400499D01*
X14678036Y-10400499D01*
X14678039Y-10400500D01*
X14678041Y-10400500D01*
X14821959Y-10400500D01*
X14821961Y-10400500D01*
X14960053Y-10359953D01*
X15081128Y-10282143D01*
X15122264Y-10234668D01*
X15174660Y-10203073D01*
X15197083Y-10200500D01*
X17635827Y-10200500D01*
X17694018Y-10219407D01*
X17729982Y-10268907D01*
X17733819Y-10285409D01*
X17734832Y-10292454D01*
X17734834Y-10292461D01*
X17779093Y-10389374D01*
X17786068Y-10450160D01*
X17755982Y-10503437D01*
X17700325Y-10528855D01*
X17689040Y-10529500D01*
X17555252Y-10529500D01*
X17555251Y-10529500D01*
X17555241Y-10529501D01*
X17496772Y-10541132D01*
X17496766Y-10541134D01*
X17430451Y-10585445D01*
X17430445Y-10585451D01*
X17386134Y-10651766D01*
X17386132Y-10651772D01*
X17374501Y-10710241D01*
X17374500Y-10710253D01*
X17374500Y-10830500D01*
X17355593Y-10888691D01*
X17306093Y-10924655D01*
X17275500Y-10929500D01*
X9574500Y-10929500D01*
X9516309Y-10910593D01*
X9480345Y-10861093D01*
X9475500Y-10830500D01*
X9475500Y-10710253D01*
X9475498Y-10710241D01*
X9472711Y-10696231D01*
X9463867Y-10651769D01*
X9419552Y-10585448D01*
X9419548Y-10585445D01*
X9353233Y-10541134D01*
X9353231Y-10541133D01*
X9353228Y-10541132D01*
X9353227Y-10541132D01*
X9294758Y-10529501D01*
X9294748Y-10529500D01*
X6755252Y-10529500D01*
X6755251Y-10529500D01*
X6755241Y-10529501D01*
X6696772Y-10541132D01*
X6696766Y-10541134D01*
X6630451Y-10585445D01*
X6630445Y-10585451D01*
X6586134Y-10651766D01*
X6586132Y-10651772D01*
X6574501Y-10710241D01*
X6574500Y-10710253D01*
X6574500Y-11749746D01*
X6574501Y-11749758D01*
X6576626Y-11760438D01*
X6586133Y-11808231D01*
X6630448Y-11874552D01*
X6696769Y-11918867D01*
X6741231Y-11927711D01*
X6755241Y-11930498D01*
X6755246Y-11930498D01*
X6755252Y-11930500D01*
X6755253Y-11930500D01*
X9294747Y-11930500D01*
X9294748Y-11930500D01*
X9353231Y-11918867D01*
X9419552Y-11874552D01*
X9463867Y-11808231D01*
X9475500Y-11749748D01*
X9475500Y-11629500D01*
X9494407Y-11571309D01*
X9543907Y-11535345D01*
X9574500Y-11530500D01*
X17275500Y-11530500D01*
X17333691Y-11549407D01*
X17369655Y-11598907D01*
X17374500Y-11629500D01*
X17374500Y-11749746D01*
X17374501Y-11749758D01*
X17376626Y-11760438D01*
X17386133Y-11808231D01*
X17430448Y-11874552D01*
X17496769Y-11918867D01*
X17541231Y-11927711D01*
X17555241Y-11930498D01*
X17555246Y-11930498D01*
X17555252Y-11930500D01*
X17555253Y-11930500D01*
X19594747Y-11930500D01*
X19594748Y-11930500D01*
X19653231Y-11918867D01*
X19719552Y-11874552D01*
X19763867Y-11808231D01*
X19775500Y-11749748D01*
X19775500Y-11629500D01*
X19794407Y-11571309D01*
X19843907Y-11535345D01*
X19874500Y-11530500D01*
X19914521Y-11530500D01*
X19972712Y-11549407D01*
X19984525Y-11559496D01*
X20570504Y-12145475D01*
X20598281Y-12199992D01*
X20599500Y-12215479D01*
X20599500Y-13746105D01*
X20580593Y-13804296D01*
X20573258Y-13812289D01*
X20573509Y-13812506D01*
X20474622Y-13926628D01*
X20414834Y-14057543D01*
X20394353Y-14199997D01*
X20394353Y-14200002D01*
X20414834Y-14342456D01*
X20467997Y-14458865D01*
X20474623Y-14473373D01*
X20568872Y-14582143D01*
X20568873Y-14582144D01*
X20608395Y-14607543D01*
X20689947Y-14659953D01*
X20796403Y-14691211D01*
X20828035Y-14700499D01*
X20828036Y-14700499D01*
X20828039Y-14700500D01*
X20828041Y-14700500D01*
X20971959Y-14700500D01*
X20971961Y-14700500D01*
X21072610Y-14670947D01*
X21133769Y-14672694D01*
X21182222Y-14710057D01*
X21199500Y-14765937D01*
X21199500Y-15284521D01*
X21180593Y-15342712D01*
X21170504Y-15354525D01*
X20965489Y-15559540D01*
X20965488Y-15559539D01*
X20909539Y-15615489D01*
X20869980Y-15684007D01*
X20869978Y-15684011D01*
X20849500Y-15760435D01*
X20849500Y-16934520D01*
X20830593Y-16992711D01*
X20820504Y-17004524D01*
X19699543Y-18125484D01*
X19645026Y-18153261D01*
X19610227Y-18152578D01*
X19594755Y-18149500D01*
X19594748Y-18149500D01*
X18295895Y-18149500D01*
X18270271Y-18146126D01*
X18189564Y-18124500D01*
X18189562Y-18124500D01*
X10613091Y-18124500D01*
X10533967Y-18124500D01*
X10487190Y-18137033D01*
X10457536Y-18144979D01*
X10389022Y-18184536D01*
X10389021Y-18184537D01*
X10320330Y-18253227D01*
X10265813Y-18281003D01*
X10205381Y-18271431D01*
X10175509Y-18248054D01*
X10089974Y-18149341D01*
X10089973Y-18149340D01*
X10089972Y-18149339D01*
X9968903Y-18071533D01*
X9968900Y-18071531D01*
X9968899Y-18071531D01*
X9968896Y-18071530D01*
X9830810Y-18030984D01*
X9830807Y-18030984D01*
X9686885Y-18030984D01*
X9686881Y-18030984D01*
X9548795Y-18071530D01*
X9548793Y-18071531D01*
X9429729Y-18148048D01*
X9370553Y-18163601D01*
X9356892Y-18161861D01*
X9294750Y-18149500D01*
X9294748Y-18149500D01*
X6755252Y-18149500D01*
X6755251Y-18149500D01*
X6755241Y-18149501D01*
X6696772Y-18161132D01*
X6696766Y-18161134D01*
X6630451Y-18205445D01*
X6630445Y-18205451D01*
X6586134Y-18271766D01*
X6586132Y-18271772D01*
X6574501Y-18330241D01*
X6574500Y-18330253D01*
X6574500Y-19369746D01*
X6574501Y-19369758D01*
X6586132Y-19428227D01*
X6586133Y-19428231D01*
X6630448Y-19494552D01*
X6696769Y-19538867D01*
X6741231Y-19547711D01*
X6755241Y-19550498D01*
X6755246Y-19550498D01*
X6755252Y-19550500D01*
X6755253Y-19550500D01*
X9294747Y-19550500D01*
X9294748Y-19550500D01*
X9353231Y-19538867D01*
X9419552Y-19494552D01*
X9463867Y-19428231D01*
X9475500Y-19369748D01*
X9475500Y-19249500D01*
X9494407Y-19191309D01*
X9543907Y-19155345D01*
X9574500Y-19150500D01*
X10188092Y-19150500D01*
X10188092Y-19150499D01*
X10264518Y-19130021D01*
X10333040Y-19090460D01*
X10388989Y-19034511D01*
X10669004Y-18754496D01*
X10723521Y-18726719D01*
X10739008Y-18725500D01*
X17275500Y-18725500D01*
X17333691Y-18744407D01*
X17369655Y-18793907D01*
X17374500Y-18824500D01*
X17374500Y-19369746D01*
X17374501Y-19369758D01*
X17386132Y-19428227D01*
X17386133Y-19428231D01*
X17430448Y-19494552D01*
X17496769Y-19538867D01*
X17541231Y-19547711D01*
X17555241Y-19550498D01*
X17555246Y-19550498D01*
X17555252Y-19550500D01*
X17555253Y-19550500D01*
X19594747Y-19550500D01*
X19594748Y-19550500D01*
X19653231Y-19538867D01*
X19719552Y-19494552D01*
X19763867Y-19428231D01*
X19775500Y-19369748D01*
X19775500Y-18940478D01*
X19794407Y-18882287D01*
X19804490Y-18870480D01*
X21390460Y-17284511D01*
X21390463Y-17284506D01*
X21430020Y-17215992D01*
X21430020Y-17215990D01*
X21430022Y-17215988D01*
X21450500Y-17139562D01*
X21450500Y-17060438D01*
X21450500Y-15965478D01*
X21469407Y-15907287D01*
X21479490Y-15895480D01*
X21740460Y-15634511D01*
X21748184Y-15621133D01*
X21780020Y-15565992D01*
X21780020Y-15565990D01*
X21780022Y-15565988D01*
X21800500Y-15489562D01*
X21800500Y-15410438D01*
X21800500Y-11760438D01*
X21780021Y-11684011D01*
X21740460Y-11615489D01*
X21723878Y-11598907D01*
X21684511Y-11559539D01*
X21684511Y-11559540D01*
X21580546Y-11455575D01*
X21552769Y-11401058D01*
X21552558Y-11371482D01*
X21555647Y-11350000D01*
X21535165Y-11207543D01*
X21475377Y-11076627D01*
X21381128Y-10967857D01*
X21381127Y-10967856D01*
X21381126Y-10967855D01*
X21260057Y-10890049D01*
X21260054Y-10890047D01*
X21260053Y-10890047D01*
X21255435Y-10888691D01*
X21121964Y-10849500D01*
X21121961Y-10849500D01*
X20978039Y-10849500D01*
X20978035Y-10849500D01*
X20839949Y-10890046D01*
X20839942Y-10890049D01*
X20718873Y-10967855D01*
X20624622Y-11076628D01*
X20598259Y-11134354D01*
X20556887Y-11179431D01*
X20496920Y-11191582D01*
X20441264Y-11166164D01*
X20438203Y-11163231D01*
X20264510Y-10989539D01*
X20195992Y-10949980D01*
X20195988Y-10949978D01*
X20119564Y-10929500D01*
X20119562Y-10929500D01*
X19874500Y-10929500D01*
X19816309Y-10910593D01*
X19780345Y-10861093D01*
X19775500Y-10830500D01*
X19775500Y-10710253D01*
X19775498Y-10710241D01*
X19772711Y-10696231D01*
X19763867Y-10651769D01*
X19719552Y-10585448D01*
X19719548Y-10585445D01*
X19653233Y-10541134D01*
X19653231Y-10541133D01*
X19653228Y-10541132D01*
X19653227Y-10541132D01*
X19594758Y-10529501D01*
X19594748Y-10529500D01*
X19594747Y-10529500D01*
X18750956Y-10529500D01*
X18692765Y-10510593D01*
X18656801Y-10461093D01*
X18656801Y-10399907D01*
X18660903Y-10389374D01*
X18705163Y-10292458D01*
X18705163Y-10292456D01*
X18725645Y-10150002D01*
X18725645Y-10149997D01*
X18705163Y-10007543D01*
X18645375Y-9876627D01*
X18630927Y-9859953D01*
X18625622Y-9853830D01*
X18601805Y-9797471D01*
X18615664Y-9737876D01*
X18661905Y-9697808D01*
X18700442Y-9690000D01*
X19622824Y-9690000D01*
X19682370Y-9683598D01*
X19682381Y-9683596D01*
X19817088Y-9633353D01*
X19817090Y-9633352D01*
X19932184Y-9547192D01*
X19932192Y-9547184D01*
X20018352Y-9432090D01*
X20018353Y-9432088D01*
X20068596Y-9297381D01*
X20068598Y-9297370D01*
X20075000Y-9237824D01*
X20075000Y-8827342D01*
X20093907Y-8769151D01*
X20143407Y-8733187D01*
X20201889Y-8732352D01*
X20251593Y-8746946D01*
X20251595Y-8746946D01*
X20395513Y-8746946D01*
X20395515Y-8746946D01*
X20533607Y-8706399D01*
X20654682Y-8628589D01*
X20748931Y-8519819D01*
X20808719Y-8388903D01*
X20829201Y-8246446D01*
X20808719Y-8103989D01*
X20748931Y-7973073D01*
X20654682Y-7864303D01*
X20651595Y-7862319D01*
X20649657Y-7859948D01*
X20649332Y-7859667D01*
X20649380Y-7859610D01*
X20612866Y-7814952D01*
X20609497Y-7804667D01*
X20603576Y-7782566D01*
X20564014Y-7714043D01*
X19746950Y-6896979D01*
X19719173Y-6842462D01*
X19728744Y-6782030D01*
X19734639Y-6771973D01*
X19763867Y-6728231D01*
X19775500Y-6669748D01*
X19775500Y-5630252D01*
X19763867Y-5571769D01*
X19752576Y-5554871D01*
X19735968Y-5495986D01*
X19740774Y-5482957D01*
X19709641Y-5487888D01*
X19670126Y-5472422D01*
X19653233Y-5461134D01*
X19653231Y-5461133D01*
X19653228Y-5461132D01*
X19653227Y-5461132D01*
X19594758Y-5449501D01*
X19594748Y-5449500D01*
X17555252Y-5449500D01*
X17555251Y-5449500D01*
X17555241Y-5449501D01*
X17496772Y-5461132D01*
X17496766Y-5461134D01*
X17430451Y-5505445D01*
X17430445Y-5505451D01*
X17386134Y-5571766D01*
X17386132Y-5571772D01*
X17374501Y-5630241D01*
X17374500Y-5630253D01*
X17374500Y-5750500D01*
X17355593Y-5808691D01*
X17306093Y-5844655D01*
X17275500Y-5849500D01*
X13950098Y-5849500D01*
X13891907Y-5830593D01*
X13855943Y-5781093D01*
X13855943Y-5719907D01*
X13891907Y-5670407D01*
X13908974Y-5660446D01*
X13910053Y-5659953D01*
X14031126Y-5582144D01*
X14031125Y-5582144D01*
X14031128Y-5582143D01*
X14125377Y-5473373D01*
X14185165Y-5342457D01*
X14197431Y-5257143D01*
X14205647Y-5200002D01*
X14205647Y-5199997D01*
X14185165Y-5057543D01*
X14149756Y-4980009D01*
X14125377Y-4926627D01*
X14031128Y-4817857D01*
X14031127Y-4817856D01*
X14031126Y-4817855D01*
X13910057Y-4740049D01*
X13910054Y-4740047D01*
X13910053Y-4740047D01*
X13910050Y-4740046D01*
X13771964Y-4699500D01*
X13771961Y-4699500D01*
X13665479Y-4699500D01*
X13607288Y-4680593D01*
X13595476Y-4670504D01*
X13559510Y-4634539D01*
X13490992Y-4594980D01*
X13490988Y-4594978D01*
X13414564Y-4574500D01*
X13414562Y-4574500D01*
X9016033Y-4574500D01*
X7147083Y-4574500D01*
X7088892Y-4555593D01*
X7072264Y-4540331D01*
X7031128Y-4492857D01*
X6998182Y-4471684D01*
X6910057Y-4415049D01*
X6910054Y-4415047D01*
X6910053Y-4415047D01*
X6910050Y-4415046D01*
X6771964Y-4374500D01*
X6771961Y-4374500D01*
X6628039Y-4374500D01*
X6628035Y-4374500D01*
X6489949Y-4415046D01*
X6489942Y-4415049D01*
X6368873Y-4492855D01*
X6274622Y-4601628D01*
X6214834Y-4732543D01*
X6194353Y-4874997D01*
X6194353Y-4875002D01*
X6214834Y-5017456D01*
X6271397Y-5141309D01*
X6274623Y-5148373D01*
X6327736Y-5209669D01*
X6368873Y-5257144D01*
X6489942Y-5334950D01*
X6489947Y-5334953D01*
X6573359Y-5359444D01*
X6623865Y-5393979D01*
X6644427Y-5451606D01*
X6627783Y-5509435D01*
X6586134Y-5571767D01*
X6586132Y-5571772D01*
X6574501Y-5630241D01*
X6574500Y-5630253D01*
X6574500Y-5750500D01*
X6555593Y-5808691D01*
X6506093Y-5844655D01*
X6475500Y-5849500D01*
X4615479Y-5849500D01*
X4557288Y-5830593D01*
X4545475Y-5820504D01*
X3630546Y-4905575D01*
X3602769Y-4851058D01*
X3602558Y-4821482D01*
X3605647Y-4800000D01*
X3597027Y-4740049D01*
X3585165Y-4657543D01*
X3556593Y-4594980D01*
X3525377Y-4526627D01*
X3431128Y-4417857D01*
X3431127Y-4417856D01*
X3431126Y-4417855D01*
X3310057Y-4340049D01*
X3310054Y-4340047D01*
X3310053Y-4340047D01*
X3310050Y-4340046D01*
X3171964Y-4299500D01*
X3171961Y-4299500D01*
X3028039Y-4299500D01*
X3028035Y-4299500D01*
X2889949Y-4340046D01*
X2889942Y-4340049D01*
X2768873Y-4417855D01*
X2674622Y-4526628D01*
X2614834Y-4657543D01*
X2594353Y-4799997D01*
X100500Y-4799997D01*
X100500Y-2502984D01*
X100681Y-2497007D01*
X103795Y-2445524D01*
X117633Y-2216741D01*
X119072Y-2204890D01*
X169146Y-1931646D01*
X172004Y-1920052D01*
X254650Y-1654832D01*
X258880Y-1643679D01*
X372895Y-1390346D01*
X378444Y-1379775D01*
X522159Y-1142040D01*
X528930Y-1132230D01*
X700257Y-913547D01*
X708169Y-904615D01*
X904615Y-708169D01*
X913547Y-700257D01*
X1132230Y-528930D01*
X1142040Y-522159D01*
X1379775Y-378444D01*
X1390346Y-372895D01*
X1643679Y-258880D01*
X1654832Y-254650D01*
X1920052Y-172004D01*
X1931646Y-169146D01*
X2204890Y-119072D01*
X2216741Y-117633D01*
X2497008Y-100681D01*
X2502985Y-100500D01*
X2526929Y-100500D01*
X22473071Y-100500D01*
X22497015Y-100500D01*
X22502992Y-100681D01*
G37*
%TD.AperFunction*%
%TD*%
D16*
X16200000Y-24100000D03*
X1470000Y-4610000D03*
X9450000Y-12400000D03*
X22050000Y-16050000D03*
X1800000Y-16300000D03*
X11750000Y-10000000D03*
X6500000Y-20350000D03*
X6400000Y-3850000D03*
X19100000Y-17650000D03*
X12650000Y-15600000D03*
X4050000Y-2600000D03*
X10600000Y-6900000D03*
X7150000Y-9800000D03*
X7150000Y-12450000D03*
X16800000Y-6850000D03*
X19349265Y-8099265D03*
X13800000Y-7150000D03*
X12000000Y-12500000D03*
X15050000Y-19025000D03*
X23700000Y-19650000D03*
X8750000Y-10050000D03*
X25300000Y-12900000D03*
X17000000Y-22125000D03*
X2300000Y-8650000D03*
X11650000Y-17400000D03*
X10850000Y-1100000D03*
X5600000Y-17050000D03*
X21500000Y-8950000D03*
X21100000Y-21975000D03*
X5200000Y-5400000D03*
X13500000Y-1400000D03*
X24350000Y-6200000D03*
X12250000Y-7800000D03*
X1900000Y-12400000D03*
X19500000Y-1050000D03*
X3100000Y-4800000D03*
X20323554Y-8246446D03*
X4350000Y-9400000D03*
X14750000Y-14750000D03*
X14750000Y-9900000D03*
X18219998Y-10150000D03*
X6800000Y-14770002D03*
X21050000Y-11350000D03*
X9758846Y-18531484D03*
X16550000Y-16310000D03*
X8025000Y-16310000D03*
X9650000Y-13600000D03*
X17150000Y-13750000D03*
X15550000Y-13770000D03*
X20900000Y-14200000D03*
X8025000Y-11230000D03*
X16500000Y-2050000D03*
X17000000Y-1000000D03*
X13700000Y-5200000D03*
X6700000Y-4875000D03*
D17*
X5850000Y-23600000D03*
X7850000Y-23600000D03*
X9850000Y-23600000D03*
X11850000Y-23600000D03*
X22500000Y-2550000D03*
X2500000Y-22500000D03*
M02*
