%TF.GenerationSoftware,KiCad,Pcbnew,8.0.6-8.0.6-0~ubuntu24.04.1*%
%TF.CreationDate,2024-10-19T16:33:05+01:00*%
%TF.ProjectId,NFC,4e46432e-6b69-4636-9164-5f7063625858,rev?*%
%TF.SameCoordinates,Original*%
%TF.FileFunction,Legend,Top*%
%TF.FilePolarity,Positive*%
%FSLAX46Y46*%
G04 Gerber Fmt 4.6, Leading zero omitted, Abs format (unit mm)*
G04 Created by KiCad (PCBNEW 8.0.6-8.0.6-0~ubuntu24.04.1) date 2024-10-19 16:33:05*
%MOMM*%
%LPD*%
G01*
G04 APERTURE LIST*
%ADD10C,0.300000*%
%ADD11C,0.120000*%
%ADD12C,0.350000*%
G04 APERTURE END LIST*
D10*
X725000Y-30075000D02*
X2525000Y-30075000D01*
X700000Y-45075000D02*
X2500000Y-45075000D01*
X73550000Y-29175000D02*
X73550000Y-30825000D01*
X72650000Y-30000000D02*
X74450000Y-30000000D01*
X72650000Y-45000000D02*
X74450000Y-45000000D01*
X73550000Y-44175000D02*
X73550000Y-45825000D01*
D11*
%TO.C,Y1*%
X7150000Y-11925000D02*
X3150000Y-11925000D01*
X7150000Y-15225000D02*
X7150000Y-11925000D01*
%TO.C,U1*%
X4652500Y-17470000D02*
X5127500Y-17470000D01*
X4652500Y-17945000D02*
X4652500Y-17470000D01*
X4652500Y-22215000D02*
X4652500Y-22390000D01*
X5127500Y-22690000D02*
X4892500Y-22690000D01*
X9872500Y-17470000D02*
X9397500Y-17470000D01*
X9872500Y-17945000D02*
X9872500Y-17470000D01*
X9872500Y-22215000D02*
X9872500Y-22690000D01*
X9872500Y-22690000D02*
X9397500Y-22690000D01*
X4652500Y-22690000D02*
X4322500Y-22930000D01*
X4322500Y-22450000D01*
X4652500Y-22690000D01*
G36*
X4652500Y-22690000D02*
G01*
X4322500Y-22930000D01*
X4322500Y-22450000D01*
X4652500Y-22690000D01*
G37*
%TO.C,U3*%
X8947500Y-27255000D02*
X8707500Y-26925000D01*
X9187500Y-26925000D01*
X8947500Y-27255000D01*
G36*
X8947500Y-27255000D02*
G01*
X8707500Y-26925000D01*
X9187500Y-26925000D01*
X8947500Y-27255000D01*
G37*
%TO.C,L2*%
X13927500Y-20097224D02*
X13927500Y-19587776D01*
X14972500Y-20097224D02*
X14972500Y-19587776D01*
%TO.C,L1*%
X14027500Y-23100276D02*
X14027500Y-23609724D01*
X15072500Y-23100276D02*
X15072500Y-23609724D01*
%TD*%
D12*
X6950000Y-48250000D03*
X8950000Y-48250000D03*
X10950000Y-48250000D03*
X12950000Y-48250000D03*
X72500000Y-2550000D03*
X2500000Y-47500000D03*
M02*
