%TF.GenerationSoftware,KiCad,Pcbnew,8.0.7*%
%TF.CreationDate,2025-01-15T18:16:11+00:00*%
%TF.ProjectId,LED,4c45442e-6b69-4636-9164-5f7063625858,rev?*%
%TF.SameCoordinates,Original*%
%TF.FileFunction,Copper,L4,Bot*%
%TF.FilePolarity,Positive*%
%FSLAX46Y46*%
G04 Gerber Fmt 4.6, Leading zero omitted, Abs format (unit mm)*
G04 Created by KiCad (PCBNEW 8.0.7) date 2025-01-15 18:16:11*
%MOMM*%
%LPD*%
G01*
G04 APERTURE LIST*
%TA.AperFunction,ComponentPad*%
%ADD10R,1.350000X1.350000*%
%TD*%
%TA.AperFunction,ComponentPad*%
%ADD11O,1.350000X1.350000*%
%TD*%
%TA.AperFunction,ComponentPad*%
%ADD12R,2.200000X2.200000*%
%TD*%
%TA.AperFunction,ComponentPad*%
%ADD13C,2.200000*%
%TD*%
%TA.AperFunction,SMDPad,CuDef*%
%ADD14R,2.500000X1.000000*%
%TD*%
%TA.AperFunction,SMDPad,CuDef*%
%ADD15R,2.000000X1.000000*%
%TD*%
%TA.AperFunction,ViaPad*%
%ADD16C,0.600000*%
%TD*%
%TA.AperFunction,Conductor*%
%ADD17C,0.200000*%
%TD*%
%TA.AperFunction,Conductor*%
%ADD18C,0.400000*%
%TD*%
%ADD19C,0.300000*%
%ADD20C,0.350000*%
G04 APERTURE END LIST*
D10*
%TO.P,J4,1,Pin_1*%
%TO.N,5V*%
X5850000Y-23600000D03*
D11*
%TO.P,J4,2,Pin_2*%
%TO.N,GND*%
X7850000Y-23600000D03*
%TO.P,J4,3,Pin_3*%
%TO.N,SWDIO*%
X9850000Y-23600000D03*
%TO.P,J4,4,Pin_4*%
%TO.N,SWDCLK*%
X11850000Y-23600000D03*
%TD*%
D12*
%TO.P,J2,1,Pin_1*%
%TO.N,5V*%
X8815000Y-3870000D03*
D13*
%TO.P,J2,2,Pin_2*%
%TO.N,Net-(J2-Pin_2)*%
X12625000Y-3870000D03*
%TO.P,J2,3,Pin_3*%
%TO.N,GND*%
X16435000Y-3870000D03*
%TD*%
D14*
%TO.P,J1,1,Pin_1*%
%TO.N,5V*%
X8025000Y-6150000D03*
%TO.P,J1,2,Pin_2*%
%TO.N,GND*%
X8025000Y-8690000D03*
%TO.P,J1,3,Pin_3*%
%TO.N,PS*%
X8025000Y-11230000D03*
%TO.P,J1,4,Pin_4*%
%TO.N,SCLK*%
X8025000Y-13770000D03*
%TO.P,J1,5,Pin_5*%
%TO.N,MISO*%
X8025000Y-16310000D03*
%TO.P,J1,6,Pin_6*%
%TO.N,MOSI*%
X8025000Y-18850000D03*
%TD*%
D15*
%TO.P,J3,1,Pin_1*%
%TO.N,MOSI*%
X18575000Y-18850000D03*
%TO.P,J3,2,Pin_2*%
%TO.N,MISO*%
X18575000Y-16310000D03*
%TO.P,J3,3,Pin_3*%
%TO.N,SCLK*%
X18575000Y-13770000D03*
%TO.P,J3,4,Pin_4*%
%TO.N,PS*%
X18575000Y-11230000D03*
%TO.P,J3,5,Pin_5*%
%TO.N,GND*%
X18575000Y-8690000D03*
%TO.P,J3,6,Pin_6*%
%TO.N,5V*%
X18575000Y-6150000D03*
%TD*%
D16*
%TO.N,GND*%
X21325000Y-14800000D03*
X4497862Y-11057455D03*
X3300000Y-9525000D03*
X14150000Y-19600000D03*
X20575000Y-12927821D03*
X19900000Y-19900000D03*
X4450000Y-3125000D03*
X18250000Y-1700000D03*
X16700000Y-7375000D03*
X6300000Y-4500000D03*
X12025000Y-15100000D03*
X14150000Y-18075000D03*
X11500000Y-18000000D03*
X12550000Y-12900000D03*
X9850000Y-8625000D03*
X2850000Y-15500000D03*
X4236765Y-13238235D03*
X2025000Y-1750000D03*
X20578186Y-10546814D03*
X21000000Y-8750000D03*
X8900000Y-12230002D03*
X6150000Y-17175000D03*
X5475000Y-7250000D03*
X23625000Y-12500000D03*
X11600000Y-19625000D03*
X19800000Y-17500000D03*
X16050000Y-22975000D03*
X23175000Y-22150000D03*
X16200000Y-12450000D03*
X14125000Y-15100000D03*
%TO.N,5V*%
X8125000Y-7250000D03*
X18475000Y-7100000D03*
%TO.N,MOSI*%
X8025000Y-18850000D03*
X21875000Y-16175000D03*
%TO.N,MISO*%
X8025000Y-16310000D03*
X21175000Y-12275000D03*
%TO.N,SCLK*%
X7775000Y-12900000D03*
X18175000Y-12975000D03*
%TO.N,PS*%
X17075000Y-11230000D03*
X9800000Y-11230000D03*
%TO.N,Interrupt5V*%
X4375000Y-14225000D03*
X16961279Y-9850000D03*
%TD*%
D17*
%TO.N,5V*%
X18475000Y-6250000D02*
X18575000Y-6150000D01*
X18475000Y-7100000D02*
X18475000Y-6250000D01*
X8125000Y-6250000D02*
X8025000Y-6150000D01*
X8125000Y-7250000D02*
X8125000Y-6250000D01*
D18*
X8025000Y-6150000D02*
X18575000Y-6150000D01*
D17*
%TO.N,MOSI*%
X8025000Y-18850000D02*
X18575000Y-18850000D01*
X19950000Y-18850000D02*
X21875000Y-16925000D01*
X18575000Y-18850000D02*
X19950000Y-18850000D01*
X21875000Y-16925000D02*
X21875000Y-16175000D01*
%TO.N,MISO*%
X8025000Y-16310000D02*
X18575000Y-16310000D01*
X21175000Y-12275000D02*
X21175000Y-13710000D01*
X21175000Y-13710000D02*
X18575000Y-16310000D01*
%TO.N,SCLK*%
X8025000Y-13770000D02*
X18575000Y-13770000D01*
X18175000Y-13370000D02*
X18575000Y-13770000D01*
X18175000Y-12975000D02*
X18175000Y-13370000D01*
X7775000Y-12900000D02*
X7775000Y-13520000D01*
X7775000Y-13520000D02*
X8025000Y-13770000D01*
%TO.N,PS*%
X8025000Y-11230000D02*
X9800000Y-11230000D01*
X17075000Y-11230000D02*
X18575000Y-11230000D01*
X9800000Y-11230000D02*
X17075000Y-11230000D01*
%TO.N,Interrupt5V*%
X3350000Y-11300000D02*
X3350000Y-13200000D01*
X16025000Y-9850000D02*
X16961279Y-9850000D01*
X15750000Y-9575000D02*
X16025000Y-9850000D01*
X3350000Y-13200000D02*
X4375000Y-14225000D01*
X5075000Y-9575000D02*
X3350000Y-11300000D01*
X15750000Y-9575000D02*
X5075000Y-9575000D01*
%TD*%
%TA.AperFunction,Conductor*%
%TO.N,GND*%
G36*
X22502992Y-100681D02*
G01*
X22783256Y-117633D01*
X22795111Y-119073D01*
X22958223Y-148964D01*
X22983638Y-153622D01*
X23037468Y-182709D01*
X23063920Y-237880D01*
X23052891Y-298064D01*
X23008593Y-340270D01*
X22965793Y-350000D01*
X21999997Y-350000D01*
X21299998Y-650000D01*
X20799999Y-1050000D01*
X20600005Y-1349990D01*
X20599998Y-1350002D01*
X20400001Y-1749996D01*
X20300000Y-2050000D01*
X20300000Y-3050002D01*
X20599997Y-3749995D01*
X20600000Y-3750000D01*
X21100000Y-4350000D01*
X21900000Y-4750000D01*
X22899998Y-4750000D01*
X22900000Y-4750000D01*
X23500000Y-4650000D01*
X24100000Y-4150000D01*
X24500000Y-3650000D01*
X24700000Y-2950000D01*
X24700000Y-2478186D01*
X24718907Y-2419995D01*
X24768407Y-2384031D01*
X24829593Y-2384031D01*
X24879093Y-2419995D01*
X24897819Y-2472209D01*
X24899319Y-2497007D01*
X24899500Y-2502984D01*
X24899500Y-5044991D01*
X24914798Y-5081926D01*
X24914799Y-5081927D01*
X24914800Y-5081929D01*
X24943071Y-5110200D01*
X24943072Y-5110200D01*
X24943073Y-5110201D01*
X24980008Y-5125500D01*
X24980009Y-5125500D01*
X25800500Y-5125500D01*
X25858691Y-5144407D01*
X25894655Y-5193907D01*
X25899500Y-5224500D01*
X25899500Y-19825500D01*
X25880593Y-19883691D01*
X25831093Y-19919655D01*
X25800500Y-19924500D01*
X24980008Y-19924500D01*
X24943073Y-19939798D01*
X24914798Y-19968073D01*
X24899500Y-20005008D01*
X24899500Y-22497015D01*
X24899319Y-22502993D01*
X24882366Y-22783251D01*
X24880925Y-22795118D01*
X24830854Y-23068346D01*
X24827993Y-23079954D01*
X24745353Y-23345154D01*
X24741114Y-23356332D01*
X24627107Y-23609646D01*
X24621551Y-23620231D01*
X24477849Y-23857944D01*
X24471058Y-23867783D01*
X24299749Y-24086443D01*
X24291822Y-24095392D01*
X24095392Y-24291822D01*
X24086443Y-24299749D01*
X23867783Y-24471058D01*
X23857944Y-24477849D01*
X23620231Y-24621551D01*
X23609646Y-24627107D01*
X23356332Y-24741114D01*
X23345154Y-24745353D01*
X23079954Y-24827993D01*
X23068346Y-24830854D01*
X22795118Y-24880925D01*
X22783251Y-24882366D01*
X22527790Y-24897819D01*
X22502991Y-24899319D01*
X22497015Y-24899500D01*
X8277877Y-24899500D01*
X8219686Y-24880593D01*
X8183722Y-24831093D01*
X8183722Y-24769907D01*
X8219686Y-24720407D01*
X8242114Y-24708185D01*
X8375986Y-24656322D01*
X8375991Y-24656319D01*
X8561126Y-24541688D01*
X8561129Y-24541686D01*
X8722052Y-24394987D01*
X8853283Y-24221209D01*
X8853288Y-24221200D01*
X8930605Y-24065927D01*
X8973467Y-24022265D01*
X9033808Y-24012135D01*
X9088579Y-24039407D01*
X9104962Y-24060555D01*
X9137805Y-24117440D01*
X9231239Y-24221209D01*
X9254463Y-24247003D01*
X9260950Y-24254207D01*
X9409839Y-24362381D01*
X9409843Y-24362383D01*
X9409845Y-24362384D01*
X9465485Y-24387156D01*
X9577966Y-24437236D01*
X9757981Y-24475500D01*
X9757983Y-24475500D01*
X9942017Y-24475500D01*
X9942019Y-24475500D01*
X10122034Y-24437236D01*
X10290161Y-24362381D01*
X10439050Y-24254207D01*
X10562195Y-24117440D01*
X10654214Y-23958059D01*
X10711085Y-23783029D01*
X10730322Y-23600000D01*
X10969678Y-23600000D01*
X10986483Y-23759893D01*
X10988916Y-23783034D01*
X11045784Y-23958054D01*
X11045790Y-23958068D01*
X11082855Y-24022265D01*
X11137805Y-24117440D01*
X11231239Y-24221209D01*
X11254463Y-24247003D01*
X11260950Y-24254207D01*
X11409839Y-24362381D01*
X11409843Y-24362383D01*
X11409845Y-24362384D01*
X11465485Y-24387156D01*
X11577966Y-24437236D01*
X11757981Y-24475500D01*
X11757983Y-24475500D01*
X11942017Y-24475500D01*
X11942019Y-24475500D01*
X12122034Y-24437236D01*
X12290161Y-24362381D01*
X12439050Y-24254207D01*
X12562195Y-24117440D01*
X12654214Y-23958059D01*
X12711085Y-23783029D01*
X12730322Y-23600000D01*
X12711085Y-23416971D01*
X12654214Y-23241941D01*
X12654211Y-23241936D01*
X12654209Y-23241931D01*
X12604704Y-23156187D01*
X12562195Y-23082560D01*
X12439050Y-22945793D01*
X12290161Y-22837619D01*
X12290157Y-22837617D01*
X12290154Y-22837615D01*
X12122036Y-22762765D01*
X12122034Y-22762764D01*
X12122031Y-22762763D01*
X12122030Y-22762763D01*
X12075135Y-22752795D01*
X11942019Y-22724500D01*
X11757981Y-22724500D01*
X11660797Y-22745157D01*
X11577969Y-22762763D01*
X11577963Y-22762765D01*
X11409845Y-22837615D01*
X11409842Y-22837617D01*
X11409839Y-22837618D01*
X11409839Y-22837619D01*
X11397245Y-22846769D01*
X11260948Y-22945794D01*
X11137803Y-23082562D01*
X11137803Y-23082563D01*
X11045790Y-23241931D01*
X11045784Y-23241945D01*
X10988916Y-23416965D01*
X10988915Y-23416969D01*
X10988915Y-23416971D01*
X10969678Y-23600000D01*
X10730322Y-23600000D01*
X10711085Y-23416971D01*
X10654214Y-23241941D01*
X10654211Y-23241936D01*
X10654209Y-23241931D01*
X10604704Y-23156187D01*
X10562195Y-23082560D01*
X10439050Y-22945793D01*
X10290161Y-22837619D01*
X10290157Y-22837617D01*
X10290154Y-22837615D01*
X10122036Y-22762765D01*
X10122034Y-22762764D01*
X10122031Y-22762763D01*
X10122030Y-22762763D01*
X10075135Y-22752795D01*
X9942019Y-22724500D01*
X9757981Y-22724500D01*
X9660797Y-22745157D01*
X9577969Y-22762763D01*
X9577963Y-22762765D01*
X9409845Y-22837615D01*
X9409842Y-22837617D01*
X9409839Y-22837618D01*
X9409839Y-22837619D01*
X9397245Y-22846769D01*
X9260948Y-22945794D01*
X9137804Y-23082561D01*
X9104962Y-23139445D01*
X9059492Y-23180385D01*
X8998642Y-23186780D01*
X8945654Y-23156187D01*
X8930605Y-23134072D01*
X8853288Y-22978799D01*
X8853283Y-22978790D01*
X8722052Y-22805012D01*
X8561129Y-22658313D01*
X8561126Y-22658311D01*
X8375991Y-22543680D01*
X8375986Y-22543677D01*
X8172932Y-22465013D01*
X8172926Y-22465011D01*
X8100000Y-22451379D01*
X8100000Y-23319670D01*
X8080255Y-23299925D01*
X7994745Y-23250556D01*
X7899370Y-23225000D01*
X7800630Y-23225000D01*
X7705255Y-23250556D01*
X7619745Y-23299925D01*
X7600000Y-23319670D01*
X7600000Y-22451379D01*
X7599999Y-22451379D01*
X7527073Y-22465011D01*
X7527067Y-22465013D01*
X7324013Y-22543677D01*
X7324008Y-22543680D01*
X7138873Y-22658311D01*
X7138870Y-22658313D01*
X6977944Y-22805015D01*
X6895383Y-22914343D01*
X6845227Y-22949386D01*
X6784052Y-22948255D01*
X6735225Y-22911382D01*
X6719283Y-22873999D01*
X6713867Y-22846769D01*
X6669552Y-22780448D01*
X6643088Y-22762765D01*
X6603233Y-22736134D01*
X6603231Y-22736133D01*
X6603228Y-22736132D01*
X6603227Y-22736132D01*
X6544758Y-22724501D01*
X6544748Y-22724500D01*
X5155252Y-22724500D01*
X5155251Y-22724500D01*
X5155241Y-22724501D01*
X5096772Y-22736132D01*
X5096766Y-22736134D01*
X5030451Y-22780445D01*
X5030445Y-22780451D01*
X4986134Y-22846766D01*
X4986132Y-22846772D01*
X4974501Y-22905241D01*
X4974500Y-22905253D01*
X4974500Y-24294746D01*
X4974501Y-24294758D01*
X4986132Y-24353227D01*
X4986134Y-24353233D01*
X4992249Y-24362384D01*
X5030448Y-24419552D01*
X5096769Y-24463867D01*
X5132921Y-24471058D01*
X5155241Y-24475498D01*
X5155246Y-24475498D01*
X5155252Y-24475500D01*
X5155253Y-24475500D01*
X6544747Y-24475500D01*
X6544748Y-24475500D01*
X6603231Y-24463867D01*
X6669552Y-24419552D01*
X6713867Y-24353231D01*
X6719283Y-24326001D01*
X6749178Y-24272619D01*
X6804743Y-24247003D01*
X6864753Y-24258940D01*
X6895384Y-24285656D01*
X6977947Y-24394987D01*
X7138870Y-24541686D01*
X7138873Y-24541688D01*
X7324008Y-24656319D01*
X7324013Y-24656322D01*
X7457886Y-24708185D01*
X7505317Y-24746837D01*
X7520971Y-24805986D01*
X7498868Y-24863040D01*
X7447451Y-24896205D01*
X7422123Y-24899500D01*
X2502985Y-24899500D01*
X2497008Y-24899319D01*
X2472210Y-24897819D01*
X2415267Y-24875433D01*
X2382357Y-24823852D01*
X2386051Y-24762778D01*
X2424938Y-24715540D01*
X2478187Y-24700000D01*
X2899998Y-24700000D01*
X2900000Y-24700000D01*
X3500000Y-24600000D01*
X4100000Y-24100000D01*
X4500000Y-23600000D01*
X4700000Y-22900000D01*
X4700000Y-21900000D01*
X4500000Y-21400000D01*
X4100000Y-20900000D01*
X3600000Y-20500000D01*
X3000000Y-20300000D01*
X2000000Y-20300000D01*
X1999997Y-20300000D01*
X1299998Y-20600000D01*
X799999Y-21000000D01*
X600005Y-21299990D01*
X599998Y-21300002D01*
X400001Y-21699996D01*
X300000Y-22000000D01*
X300000Y-22521813D01*
X281093Y-22580004D01*
X231593Y-22615968D01*
X170407Y-22615968D01*
X120907Y-22580004D01*
X102181Y-22527790D01*
X100681Y-22502992D01*
X100500Y-22497015D01*
X100500Y-19980008D01*
X85201Y-19943073D01*
X85200Y-19943072D01*
X85200Y-19943071D01*
X56929Y-19914800D01*
X56927Y-19914799D01*
X56926Y-19914798D01*
X19992Y-19899500D01*
X19991Y-19899500D01*
X-800500Y-19899500D01*
X-858691Y-19880593D01*
X-894655Y-19831093D01*
X-899500Y-19800500D01*
X-899500Y-18330253D01*
X6574500Y-18330253D01*
X6574500Y-19369746D01*
X6574501Y-19369758D01*
X6586132Y-19428227D01*
X6586133Y-19428231D01*
X6630448Y-19494552D01*
X6696769Y-19538867D01*
X6741231Y-19547711D01*
X6755241Y-19550498D01*
X6755246Y-19550498D01*
X6755252Y-19550500D01*
X6755253Y-19550500D01*
X9294747Y-19550500D01*
X9294748Y-19550500D01*
X9353231Y-19538867D01*
X9419552Y-19494552D01*
X9463867Y-19428231D01*
X9475500Y-19369748D01*
X9475500Y-19249500D01*
X9494407Y-19191309D01*
X9543907Y-19155345D01*
X9574500Y-19150500D01*
X17275500Y-19150500D01*
X17333691Y-19169407D01*
X17369655Y-19218907D01*
X17374500Y-19249500D01*
X17374500Y-19369746D01*
X17374501Y-19369758D01*
X17386132Y-19428227D01*
X17386133Y-19428231D01*
X17430448Y-19494552D01*
X17496769Y-19538867D01*
X17541231Y-19547711D01*
X17555241Y-19550498D01*
X17555246Y-19550498D01*
X17555252Y-19550500D01*
X17555253Y-19550500D01*
X19594747Y-19550500D01*
X19594748Y-19550500D01*
X19653231Y-19538867D01*
X19719552Y-19494552D01*
X19763867Y-19428231D01*
X19775500Y-19369748D01*
X19775500Y-19249500D01*
X19794407Y-19191309D01*
X19843907Y-19155345D01*
X19874500Y-19150500D01*
X19989563Y-19150500D01*
X19989563Y-19150499D01*
X20065989Y-19130021D01*
X20134511Y-19090460D01*
X20190460Y-19034511D01*
X22115460Y-17109511D01*
X22155021Y-17040989D01*
X22175500Y-16964562D01*
X22175500Y-16628893D01*
X22194407Y-16570702D01*
X22201741Y-16562711D01*
X22201491Y-16562494D01*
X22206128Y-16557143D01*
X22300377Y-16448373D01*
X22360165Y-16317457D01*
X22380647Y-16175000D01*
X22360165Y-16032543D01*
X22300377Y-15901627D01*
X22206128Y-15792857D01*
X22206127Y-15792856D01*
X22206126Y-15792855D01*
X22085057Y-15715049D01*
X22085054Y-15715047D01*
X22085053Y-15715047D01*
X22085050Y-15715046D01*
X21946964Y-15674500D01*
X21946961Y-15674500D01*
X21803039Y-15674500D01*
X21803035Y-15674500D01*
X21664949Y-15715046D01*
X21664942Y-15715049D01*
X21543873Y-15792855D01*
X21449622Y-15901628D01*
X21389834Y-16032543D01*
X21369353Y-16174997D01*
X21369353Y-16175002D01*
X21389834Y-16317456D01*
X21449623Y-16448373D01*
X21548509Y-16562494D01*
X21546471Y-16564259D01*
X21571925Y-16606458D01*
X21574500Y-16628893D01*
X21574500Y-16759521D01*
X21555593Y-16817712D01*
X21545504Y-16829525D01*
X19944504Y-18430525D01*
X19889987Y-18458302D01*
X19829555Y-18448731D01*
X19786290Y-18405466D01*
X19775500Y-18360521D01*
X19775500Y-18330253D01*
X19775498Y-18330241D01*
X19772711Y-18316231D01*
X19763867Y-18271769D01*
X19719552Y-18205448D01*
X19719548Y-18205445D01*
X19653233Y-18161134D01*
X19653231Y-18161133D01*
X19653228Y-18161132D01*
X19653227Y-18161132D01*
X19594758Y-18149501D01*
X19594748Y-18149500D01*
X17555252Y-18149500D01*
X17555251Y-18149500D01*
X17555241Y-18149501D01*
X17496772Y-18161132D01*
X17496766Y-18161134D01*
X17430451Y-18205445D01*
X17430445Y-18205451D01*
X17386134Y-18271766D01*
X17386132Y-18271772D01*
X17374501Y-18330241D01*
X17374500Y-18330253D01*
X17374500Y-18450500D01*
X17355593Y-18508691D01*
X17306093Y-18544655D01*
X17275500Y-18549500D01*
X9574500Y-18549500D01*
X9516309Y-18530593D01*
X9480345Y-18481093D01*
X9475500Y-18450500D01*
X9475500Y-18330253D01*
X9475498Y-18330241D01*
X9472711Y-18316231D01*
X9463867Y-18271769D01*
X9419552Y-18205448D01*
X9419548Y-18205445D01*
X9353233Y-18161134D01*
X9353231Y-18161133D01*
X9353228Y-18161132D01*
X9353227Y-18161132D01*
X9294758Y-18149501D01*
X9294748Y-18149500D01*
X6755252Y-18149500D01*
X6755251Y-18149500D01*
X6755241Y-18149501D01*
X6696772Y-18161132D01*
X6696766Y-18161134D01*
X6630451Y-18205445D01*
X6630445Y-18205451D01*
X6586134Y-18271766D01*
X6586132Y-18271772D01*
X6574501Y-18330241D01*
X6574500Y-18330253D01*
X-899500Y-18330253D01*
X-899500Y-15790253D01*
X6574500Y-15790253D01*
X6574500Y-16829746D01*
X6574501Y-16829758D01*
X6586132Y-16888227D01*
X6586133Y-16888231D01*
X6630448Y-16954552D01*
X6696769Y-16998867D01*
X6741231Y-17007711D01*
X6755241Y-17010498D01*
X6755246Y-17010498D01*
X6755252Y-17010500D01*
X6755253Y-17010500D01*
X9294747Y-17010500D01*
X9294748Y-17010500D01*
X9353231Y-16998867D01*
X9419552Y-16954552D01*
X9463867Y-16888231D01*
X9475500Y-16829748D01*
X9475500Y-16709500D01*
X9494407Y-16651309D01*
X9543907Y-16615345D01*
X9574500Y-16610500D01*
X17275500Y-16610500D01*
X17333691Y-16629407D01*
X17369655Y-16678907D01*
X17374500Y-16709500D01*
X17374500Y-16829746D01*
X17374501Y-16829758D01*
X17386132Y-16888227D01*
X17386133Y-16888231D01*
X17430448Y-16954552D01*
X17496769Y-16998867D01*
X17541231Y-17007711D01*
X17555241Y-17010498D01*
X17555246Y-17010498D01*
X17555252Y-17010500D01*
X17555253Y-17010500D01*
X19594747Y-17010500D01*
X19594748Y-17010500D01*
X19653231Y-16998867D01*
X19719552Y-16954552D01*
X19763867Y-16888231D01*
X19775500Y-16829748D01*
X19775500Y-15790252D01*
X19763867Y-15731769D01*
X19734637Y-15688025D01*
X19718029Y-15629139D01*
X19739206Y-15571735D01*
X19746940Y-15563029D01*
X21415460Y-13894511D01*
X21445282Y-13842857D01*
X21455021Y-13825989D01*
X21475500Y-13749562D01*
X21475500Y-12728893D01*
X21494407Y-12670702D01*
X21501741Y-12662711D01*
X21501491Y-12662494D01*
X21532569Y-12626628D01*
X21600377Y-12548373D01*
X21660165Y-12417457D01*
X21680647Y-12275000D01*
X21660165Y-12132543D01*
X21600377Y-12001627D01*
X21506128Y-11892857D01*
X21506127Y-11892856D01*
X21506126Y-11892855D01*
X21385057Y-11815049D01*
X21385054Y-11815047D01*
X21385053Y-11815047D01*
X21385050Y-11815046D01*
X21246964Y-11774500D01*
X21246961Y-11774500D01*
X21103039Y-11774500D01*
X21103035Y-11774500D01*
X20964949Y-11815046D01*
X20964942Y-11815049D01*
X20843873Y-11892855D01*
X20749622Y-12001628D01*
X20689834Y-12132543D01*
X20669353Y-12274997D01*
X20669353Y-12275002D01*
X20689834Y-12417456D01*
X20749623Y-12548373D01*
X20848509Y-12662494D01*
X20846471Y-12664259D01*
X20871925Y-12706458D01*
X20874500Y-12728893D01*
X20874500Y-13544521D01*
X20855593Y-13602712D01*
X20845504Y-13614525D01*
X18879525Y-15580504D01*
X18825008Y-15608281D01*
X18809521Y-15609500D01*
X17555252Y-15609500D01*
X17555251Y-15609500D01*
X17555241Y-15609501D01*
X17496772Y-15621132D01*
X17496766Y-15621134D01*
X17430451Y-15665445D01*
X17430445Y-15665451D01*
X17386134Y-15731766D01*
X17386132Y-15731772D01*
X17374501Y-15790241D01*
X17374500Y-15790253D01*
X17374500Y-15910500D01*
X17355593Y-15968691D01*
X17306093Y-16004655D01*
X17275500Y-16009500D01*
X9574500Y-16009500D01*
X9516309Y-15990593D01*
X9480345Y-15941093D01*
X9475500Y-15910500D01*
X9475500Y-15790253D01*
X9475498Y-15790241D01*
X9472711Y-15776231D01*
X9463867Y-15731769D01*
X9419552Y-15665448D01*
X9419548Y-15665445D01*
X9353233Y-15621134D01*
X9353231Y-15621133D01*
X9353228Y-15621132D01*
X9353227Y-15621132D01*
X9294758Y-15609501D01*
X9294748Y-15609500D01*
X6755252Y-15609500D01*
X6755251Y-15609500D01*
X6755241Y-15609501D01*
X6696772Y-15621132D01*
X6696766Y-15621134D01*
X6630451Y-15665445D01*
X6630445Y-15665451D01*
X6586134Y-15731766D01*
X6586132Y-15731772D01*
X6574501Y-15790241D01*
X6574500Y-15790253D01*
X-899500Y-15790253D01*
X-899500Y-11260435D01*
X3049500Y-11260435D01*
X3049500Y-13239564D01*
X3069977Y-13315985D01*
X3069979Y-13315990D01*
X3093738Y-13357142D01*
X3109538Y-13384508D01*
X3109540Y-13384511D01*
X3490075Y-13765046D01*
X3844453Y-14119424D01*
X3872230Y-14173941D01*
X3872441Y-14203514D01*
X3869354Y-14224997D01*
X3869353Y-14225002D01*
X3889834Y-14367456D01*
X3931580Y-14458865D01*
X3949623Y-14498373D01*
X4043872Y-14607143D01*
X4043873Y-14607144D01*
X4164942Y-14684950D01*
X4164947Y-14684953D01*
X4271403Y-14716211D01*
X4303035Y-14725499D01*
X4303036Y-14725499D01*
X4303039Y-14725500D01*
X4303041Y-14725500D01*
X4446959Y-14725500D01*
X4446961Y-14725500D01*
X4585053Y-14684953D01*
X4706128Y-14607143D01*
X4800377Y-14498373D01*
X4860165Y-14367457D01*
X4880647Y-14225000D01*
X4872667Y-14169500D01*
X4860165Y-14082543D01*
X4800377Y-13951628D01*
X4800377Y-13951627D01*
X4706128Y-13842857D01*
X4706127Y-13842856D01*
X4706126Y-13842855D01*
X4585057Y-13765049D01*
X4585054Y-13765047D01*
X4585053Y-13765047D01*
X4585050Y-13765046D01*
X4446964Y-13724500D01*
X4446961Y-13724500D01*
X4340479Y-13724500D01*
X4282288Y-13705593D01*
X4270475Y-13695504D01*
X3825224Y-13250253D01*
X6574500Y-13250253D01*
X6574500Y-14289746D01*
X6574501Y-14289758D01*
X6586132Y-14348227D01*
X6586134Y-14348233D01*
X6630445Y-14414548D01*
X6630448Y-14414552D01*
X6696769Y-14458867D01*
X6741231Y-14467711D01*
X6755241Y-14470498D01*
X6755246Y-14470498D01*
X6755252Y-14470500D01*
X6755253Y-14470500D01*
X9294747Y-14470500D01*
X9294748Y-14470500D01*
X9353231Y-14458867D01*
X9419552Y-14414552D01*
X9463867Y-14348231D01*
X9475500Y-14289748D01*
X9475500Y-14169500D01*
X9494407Y-14111309D01*
X9543907Y-14075345D01*
X9574500Y-14070500D01*
X17275500Y-14070500D01*
X17333691Y-14089407D01*
X17369655Y-14138907D01*
X17374500Y-14169500D01*
X17374500Y-14289746D01*
X17374501Y-14289758D01*
X17386132Y-14348227D01*
X17386134Y-14348233D01*
X17430445Y-14414548D01*
X17430448Y-14414552D01*
X17496769Y-14458867D01*
X17541231Y-14467711D01*
X17555241Y-14470498D01*
X17555246Y-14470498D01*
X17555252Y-14470500D01*
X17555253Y-14470500D01*
X19594747Y-14470500D01*
X19594748Y-14470500D01*
X19653231Y-14458867D01*
X19719552Y-14414552D01*
X19763867Y-14348231D01*
X19775500Y-14289748D01*
X19775500Y-13250252D01*
X19763867Y-13191769D01*
X19719552Y-13125448D01*
X19719548Y-13125445D01*
X19653233Y-13081134D01*
X19653231Y-13081133D01*
X19653228Y-13081132D01*
X19653227Y-13081132D01*
X19594758Y-13069501D01*
X19594748Y-13069500D01*
X19594747Y-13069500D01*
X18779647Y-13069500D01*
X18721456Y-13050593D01*
X18685492Y-13001093D01*
X18682451Y-12981893D01*
X18681655Y-12982008D01*
X18660165Y-12832543D01*
X18600377Y-12701628D01*
X18600377Y-12701627D01*
X18506128Y-12592857D01*
X18506127Y-12592856D01*
X18506126Y-12592855D01*
X18385057Y-12515049D01*
X18385054Y-12515047D01*
X18385053Y-12515047D01*
X18385050Y-12515046D01*
X18246964Y-12474500D01*
X18246961Y-12474500D01*
X18103039Y-12474500D01*
X18103035Y-12474500D01*
X17964949Y-12515046D01*
X17964942Y-12515049D01*
X17843873Y-12592855D01*
X17749622Y-12701628D01*
X17689834Y-12832543D01*
X17668345Y-12982008D01*
X17665735Y-12981632D01*
X17650446Y-13028691D01*
X17600946Y-13064655D01*
X17570353Y-13069500D01*
X17555252Y-13069500D01*
X17555251Y-13069500D01*
X17555241Y-13069501D01*
X17496772Y-13081132D01*
X17496766Y-13081134D01*
X17430451Y-13125445D01*
X17430445Y-13125451D01*
X17386134Y-13191766D01*
X17386132Y-13191772D01*
X17374501Y-13250241D01*
X17374500Y-13250253D01*
X17374500Y-13370500D01*
X17355593Y-13428691D01*
X17306093Y-13464655D01*
X17275500Y-13469500D01*
X9574500Y-13469500D01*
X9516309Y-13450593D01*
X9480345Y-13401093D01*
X9475500Y-13370500D01*
X9475500Y-13250253D01*
X9475498Y-13250241D01*
X9472711Y-13236231D01*
X9463867Y-13191769D01*
X9419552Y-13125448D01*
X9419548Y-13125445D01*
X9353233Y-13081134D01*
X9353231Y-13081133D01*
X9353228Y-13081132D01*
X9353227Y-13081132D01*
X9294758Y-13069501D01*
X9294748Y-13069500D01*
X9294747Y-13069500D01*
X8370529Y-13069500D01*
X8312338Y-13050593D01*
X8276374Y-13001093D01*
X8272537Y-12956411D01*
X8280647Y-12900003D01*
X8280647Y-12899997D01*
X8260165Y-12757543D01*
X8223302Y-12676826D01*
X8200377Y-12626627D01*
X8106128Y-12517857D01*
X8106127Y-12517856D01*
X8106126Y-12517855D01*
X7985057Y-12440049D01*
X7985054Y-12440047D01*
X7985053Y-12440047D01*
X7985050Y-12440046D01*
X7846964Y-12399500D01*
X7846961Y-12399500D01*
X7703039Y-12399500D01*
X7703035Y-12399500D01*
X7564949Y-12440046D01*
X7564942Y-12440049D01*
X7443873Y-12517855D01*
X7349622Y-12626628D01*
X7289834Y-12757543D01*
X7269353Y-12899997D01*
X7269353Y-12900003D01*
X7277463Y-12956411D01*
X7267030Y-13016700D01*
X7223152Y-13059343D01*
X7179471Y-13069500D01*
X6755252Y-13069500D01*
X6755251Y-13069500D01*
X6755241Y-13069501D01*
X6696772Y-13081132D01*
X6696766Y-13081134D01*
X6630451Y-13125445D01*
X6630445Y-13125451D01*
X6586134Y-13191766D01*
X6586132Y-13191772D01*
X6574501Y-13250241D01*
X6574500Y-13250253D01*
X3825224Y-13250253D01*
X3679496Y-13104525D01*
X3651719Y-13050008D01*
X3650500Y-13034521D01*
X3650500Y-11465479D01*
X3669407Y-11407288D01*
X3679496Y-11395475D01*
X4364718Y-10710253D01*
X6574500Y-10710253D01*
X6574500Y-11749746D01*
X6574501Y-11749758D01*
X6586132Y-11808227D01*
X6586134Y-11808233D01*
X6630445Y-11874548D01*
X6630448Y-11874552D01*
X6696769Y-11918867D01*
X6741231Y-11927711D01*
X6755241Y-11930498D01*
X6755246Y-11930498D01*
X6755252Y-11930500D01*
X6755253Y-11930500D01*
X9294747Y-11930500D01*
X9294748Y-11930500D01*
X9353231Y-11918867D01*
X9419552Y-11874552D01*
X9463867Y-11808231D01*
X9471934Y-11767675D01*
X9501830Y-11714293D01*
X9557395Y-11688677D01*
X9596922Y-11692001D01*
X9728035Y-11730499D01*
X9728036Y-11730499D01*
X9728039Y-11730500D01*
X9728041Y-11730500D01*
X9871959Y-11730500D01*
X9871961Y-11730500D01*
X10010053Y-11689953D01*
X10131128Y-11612143D01*
X10172264Y-11564668D01*
X10224660Y-11533073D01*
X10247083Y-11530500D01*
X16627917Y-11530500D01*
X16686108Y-11549407D01*
X16702733Y-11564667D01*
X16743872Y-11612143D01*
X16832001Y-11668780D01*
X16862961Y-11688677D01*
X16864947Y-11689953D01*
X16971403Y-11721211D01*
X17003035Y-11730499D01*
X17003036Y-11730499D01*
X17003039Y-11730500D01*
X17003041Y-11730500D01*
X17146959Y-11730500D01*
X17146961Y-11730500D01*
X17254459Y-11698936D01*
X17315617Y-11700683D01*
X17364070Y-11738046D01*
X17379445Y-11774611D01*
X17386132Y-11808227D01*
X17386134Y-11808233D01*
X17430445Y-11874548D01*
X17430448Y-11874552D01*
X17496769Y-11918867D01*
X17541231Y-11927711D01*
X17555241Y-11930498D01*
X17555246Y-11930498D01*
X17555252Y-11930500D01*
X17555253Y-11930500D01*
X19594747Y-11930500D01*
X19594748Y-11930500D01*
X19653231Y-11918867D01*
X19719552Y-11874552D01*
X19763867Y-11808231D01*
X19775500Y-11749748D01*
X19775500Y-10710252D01*
X19763867Y-10651769D01*
X19719552Y-10585448D01*
X19719548Y-10585445D01*
X19653233Y-10541134D01*
X19653231Y-10541133D01*
X19653228Y-10541132D01*
X19653227Y-10541132D01*
X19594758Y-10529501D01*
X19594748Y-10529500D01*
X17555252Y-10529500D01*
X17555251Y-10529500D01*
X17555241Y-10529501D01*
X17496772Y-10541132D01*
X17496766Y-10541134D01*
X17430451Y-10585445D01*
X17430445Y-10585451D01*
X17386134Y-10651766D01*
X17386132Y-10651771D01*
X17379445Y-10685389D01*
X17349548Y-10738772D01*
X17293983Y-10764387D01*
X17254457Y-10761063D01*
X17146964Y-10729500D01*
X17146961Y-10729500D01*
X17003039Y-10729500D01*
X17003035Y-10729500D01*
X16864949Y-10770046D01*
X16864942Y-10770049D01*
X16743876Y-10847854D01*
X16743871Y-10847858D01*
X16702736Y-10895331D01*
X16650340Y-10926927D01*
X16627917Y-10929500D01*
X10247083Y-10929500D01*
X10188892Y-10910593D01*
X10172264Y-10895331D01*
X10131128Y-10847857D01*
X10098182Y-10826684D01*
X10010057Y-10770049D01*
X10010054Y-10770047D01*
X10010053Y-10770047D01*
X10003075Y-10767998D01*
X9871964Y-10729500D01*
X9871961Y-10729500D01*
X9728039Y-10729500D01*
X9728035Y-10729500D01*
X9596922Y-10767998D01*
X9535761Y-10766250D01*
X9487309Y-10728887D01*
X9471934Y-10692326D01*
X9463867Y-10651769D01*
X9419552Y-10585448D01*
X9419548Y-10585445D01*
X9353233Y-10541134D01*
X9353231Y-10541133D01*
X9353228Y-10541132D01*
X9353227Y-10541132D01*
X9294758Y-10529501D01*
X9294748Y-10529500D01*
X6755252Y-10529500D01*
X6755251Y-10529500D01*
X6755241Y-10529501D01*
X6696772Y-10541132D01*
X6696766Y-10541134D01*
X6630451Y-10585445D01*
X6630445Y-10585451D01*
X6586134Y-10651766D01*
X6586132Y-10651772D01*
X6574501Y-10710241D01*
X6574500Y-10710253D01*
X4364718Y-10710253D01*
X5170475Y-9904496D01*
X5224992Y-9876719D01*
X5240479Y-9875500D01*
X15584521Y-9875500D01*
X15642712Y-9894407D01*
X15654524Y-9904496D01*
X15840488Y-10090459D01*
X15840493Y-10090463D01*
X15909008Y-10130020D01*
X15909006Y-10130020D01*
X15909010Y-10130021D01*
X15909012Y-10130022D01*
X15985438Y-10150500D01*
X16064562Y-10150500D01*
X16514196Y-10150500D01*
X16572387Y-10169407D01*
X16589012Y-10184667D01*
X16630151Y-10232143D01*
X16751226Y-10309953D01*
X16857682Y-10341211D01*
X16889314Y-10350499D01*
X16889315Y-10350499D01*
X16889318Y-10350500D01*
X16889320Y-10350500D01*
X17033238Y-10350500D01*
X17033240Y-10350500D01*
X17171332Y-10309953D01*
X17292407Y-10232143D01*
X17386656Y-10123373D01*
X17446444Y-9992457D01*
X17460541Y-9894407D01*
X17466926Y-9850002D01*
X17466926Y-9849995D01*
X17460182Y-9803088D01*
X17470615Y-9742799D01*
X17514494Y-9700157D01*
X17558174Y-9690000D01*
X18324999Y-9690000D01*
X18325000Y-9689999D01*
X18325000Y-8940001D01*
X18825000Y-8940001D01*
X18825000Y-9689999D01*
X18825001Y-9690000D01*
X19622824Y-9690000D01*
X19682370Y-9683598D01*
X19682381Y-9683596D01*
X19817088Y-9633353D01*
X19817090Y-9633352D01*
X19932184Y-9547192D01*
X19932192Y-9547184D01*
X20018352Y-9432090D01*
X20018353Y-9432088D01*
X20068596Y-9297381D01*
X20068598Y-9297370D01*
X20075000Y-9237824D01*
X20075000Y-8940001D01*
X20074999Y-8940000D01*
X18825001Y-8940000D01*
X18825000Y-8940001D01*
X18325000Y-8940001D01*
X18324999Y-8940000D01*
X17075001Y-8940000D01*
X17075000Y-8940001D01*
X17075000Y-9237827D01*
X17075225Y-9239919D01*
X17075135Y-9240346D01*
X17075142Y-9240472D01*
X17075108Y-9240473D01*
X17062645Y-9299798D01*
X17017272Y-9340846D01*
X16976792Y-9349500D01*
X16889314Y-9349500D01*
X16751228Y-9390046D01*
X16751221Y-9390049D01*
X16630155Y-9467854D01*
X16630150Y-9467858D01*
X16589015Y-9515331D01*
X16536619Y-9546927D01*
X16514196Y-9549500D01*
X16190479Y-9549500D01*
X16132288Y-9530593D01*
X16120476Y-9520504D01*
X15934510Y-9334539D01*
X15865992Y-9294980D01*
X15865988Y-9294978D01*
X15789564Y-9274500D01*
X15789562Y-9274500D01*
X9874000Y-9274500D01*
X9815809Y-9255593D01*
X9779845Y-9206093D01*
X9775000Y-9175500D01*
X9775000Y-8940001D01*
X9774999Y-8940000D01*
X6275001Y-8940000D01*
X6275000Y-8940001D01*
X6275000Y-9175500D01*
X6256093Y-9233691D01*
X6206593Y-9269655D01*
X6176000Y-9274500D01*
X5035435Y-9274500D01*
X4959011Y-9294978D01*
X4959007Y-9294980D01*
X4890491Y-9334538D01*
X3165489Y-11059540D01*
X3165488Y-11059539D01*
X3109539Y-11115489D01*
X3069980Y-11184007D01*
X3069978Y-11184011D01*
X3049500Y-11260435D01*
X-899500Y-11260435D01*
X-899500Y-8142175D01*
X6275000Y-8142175D01*
X6275000Y-8439999D01*
X6275001Y-8440000D01*
X9774999Y-8440000D01*
X9775000Y-8439999D01*
X9775000Y-8142175D01*
X9768598Y-8082629D01*
X9768596Y-8082618D01*
X9718353Y-7947911D01*
X9718352Y-7947909D01*
X9632192Y-7832815D01*
X9632184Y-7832807D01*
X9517090Y-7746647D01*
X9517088Y-7746646D01*
X9382381Y-7696403D01*
X9382370Y-7696401D01*
X9322824Y-7690000D01*
X8622774Y-7690000D01*
X8564583Y-7671093D01*
X8528619Y-7621593D01*
X8528619Y-7560407D01*
X8547953Y-7526171D01*
X8548718Y-7525287D01*
X8550377Y-7523373D01*
X8610165Y-7392457D01*
X8630647Y-7250000D01*
X8629562Y-7242457D01*
X8610165Y-7107543D01*
X8556771Y-6990627D01*
X8549796Y-6929840D01*
X8579882Y-6876563D01*
X8635538Y-6851145D01*
X8646824Y-6850500D01*
X9294747Y-6850500D01*
X9294748Y-6850500D01*
X9353231Y-6838867D01*
X9419552Y-6794552D01*
X9463867Y-6728231D01*
X9475500Y-6669748D01*
X9475500Y-6649500D01*
X9494407Y-6591309D01*
X9543907Y-6555345D01*
X9574500Y-6550500D01*
X17275500Y-6550500D01*
X17333691Y-6569407D01*
X17369655Y-6618907D01*
X17374500Y-6649500D01*
X17374500Y-6669746D01*
X17374501Y-6669758D01*
X17386132Y-6728227D01*
X17386133Y-6728231D01*
X17430448Y-6794552D01*
X17496769Y-6838867D01*
X17541231Y-6847711D01*
X17555241Y-6850498D01*
X17555246Y-6850498D01*
X17555252Y-6850500D01*
X17890973Y-6850500D01*
X17949164Y-6869407D01*
X17985128Y-6918907D01*
X17988965Y-6963589D01*
X17969353Y-7099997D01*
X17969353Y-7100002D01*
X17989834Y-7242456D01*
X18049622Y-7373371D01*
X18049623Y-7373373D01*
X18143872Y-7482143D01*
X18143873Y-7482144D01*
X18183664Y-7507716D01*
X18222395Y-7555082D01*
X18225889Y-7616167D01*
X18192809Y-7667640D01*
X18135793Y-7689839D01*
X18130141Y-7690000D01*
X17527176Y-7690000D01*
X17467629Y-7696401D01*
X17467618Y-7696403D01*
X17332911Y-7746646D01*
X17332909Y-7746647D01*
X17217815Y-7832807D01*
X17217807Y-7832815D01*
X17131647Y-7947909D01*
X17131646Y-7947911D01*
X17081403Y-8082618D01*
X17081401Y-8082629D01*
X17075000Y-8142175D01*
X17075000Y-8439999D01*
X17075001Y-8440000D01*
X20074999Y-8440000D01*
X20075000Y-8439999D01*
X20075000Y-8142175D01*
X20068598Y-8082629D01*
X20068596Y-8082618D01*
X20018353Y-7947911D01*
X20018352Y-7947909D01*
X19932192Y-7832815D01*
X19932184Y-7832807D01*
X19817090Y-7746647D01*
X19817088Y-7746646D01*
X19682381Y-7696403D01*
X19682370Y-7696401D01*
X19622824Y-7690000D01*
X18819859Y-7690000D01*
X18761668Y-7671093D01*
X18725704Y-7621593D01*
X18725704Y-7560407D01*
X18761668Y-7510907D01*
X18766336Y-7507716D01*
X18806126Y-7482144D01*
X18806125Y-7482144D01*
X18806128Y-7482143D01*
X18900377Y-7373373D01*
X18960165Y-7242457D01*
X18966992Y-7194971D01*
X18980647Y-7100002D01*
X18980647Y-7099997D01*
X18961035Y-6963589D01*
X18971468Y-6903300D01*
X19015346Y-6860657D01*
X19059027Y-6850500D01*
X19594747Y-6850500D01*
X19594748Y-6850500D01*
X19653231Y-6838867D01*
X19719552Y-6794552D01*
X19763867Y-6728231D01*
X19775500Y-6669748D01*
X19775500Y-5630252D01*
X19763867Y-5571769D01*
X19719552Y-5505448D01*
X19673905Y-5474947D01*
X19653233Y-5461134D01*
X19653231Y-5461133D01*
X19653228Y-5461132D01*
X19653227Y-5461132D01*
X19594758Y-5449501D01*
X19594748Y-5449500D01*
X17555252Y-5449500D01*
X17555251Y-5449500D01*
X17555241Y-5449501D01*
X17496772Y-5461132D01*
X17496766Y-5461134D01*
X17430451Y-5505445D01*
X17430445Y-5505451D01*
X17386134Y-5571766D01*
X17386132Y-5571772D01*
X17374501Y-5630241D01*
X17374500Y-5630253D01*
X17374500Y-5650500D01*
X17355593Y-5708691D01*
X17306093Y-5744655D01*
X17275500Y-5749500D01*
X9574500Y-5749500D01*
X9516309Y-5730593D01*
X9480345Y-5681093D01*
X9475500Y-5650500D01*
X9475500Y-5630253D01*
X9475498Y-5630241D01*
X9472711Y-5616231D01*
X9463867Y-5571769D01*
X9419552Y-5505448D01*
X9373905Y-5474947D01*
X9353233Y-5461134D01*
X9353231Y-5461133D01*
X9353228Y-5461132D01*
X9353227Y-5461132D01*
X9294758Y-5449501D01*
X9294748Y-5449500D01*
X6755252Y-5449500D01*
X6755251Y-5449500D01*
X6755241Y-5449501D01*
X6696772Y-5461132D01*
X6696766Y-5461134D01*
X6630451Y-5505445D01*
X6630445Y-5505451D01*
X6586134Y-5571766D01*
X6586132Y-5571772D01*
X6574501Y-5630241D01*
X6574500Y-5630253D01*
X6574500Y-6669746D01*
X6574501Y-6669758D01*
X6586132Y-6728227D01*
X6586133Y-6728231D01*
X6630448Y-6794552D01*
X6696769Y-6838867D01*
X6741231Y-6847711D01*
X6755241Y-6850498D01*
X6755246Y-6850498D01*
X6755252Y-6850500D01*
X7603176Y-6850500D01*
X7661367Y-6869407D01*
X7697331Y-6918907D01*
X7697331Y-6980093D01*
X7693229Y-6990627D01*
X7639834Y-7107543D01*
X7619353Y-7249997D01*
X7619353Y-7250002D01*
X7639834Y-7392456D01*
X7699623Y-7523373D01*
X7702047Y-7526171D01*
X7703249Y-7529016D01*
X7703451Y-7529330D01*
X7703396Y-7529364D01*
X7725863Y-7582531D01*
X7712003Y-7642126D01*
X7665761Y-7682192D01*
X7627226Y-7690000D01*
X6727176Y-7690000D01*
X6667629Y-7696401D01*
X6667618Y-7696403D01*
X6532911Y-7746646D01*
X6532909Y-7746647D01*
X6417815Y-7832807D01*
X6417807Y-7832815D01*
X6331647Y-7947909D01*
X6331646Y-7947911D01*
X6281403Y-8082618D01*
X6281401Y-8082629D01*
X6275000Y-8142175D01*
X-899500Y-8142175D01*
X-899500Y-5199500D01*
X-880593Y-5141309D01*
X-831093Y-5105345D01*
X-800500Y-5100500D01*
X19992Y-5100500D01*
X43283Y-5090852D01*
X56929Y-5085200D01*
X85200Y-5056929D01*
X100500Y-5019991D01*
X100500Y-2750253D01*
X7514500Y-2750253D01*
X7514500Y-4989746D01*
X7514501Y-4989758D01*
X7526132Y-5048227D01*
X7526134Y-5048233D01*
X7570445Y-5114548D01*
X7570448Y-5114552D01*
X7636769Y-5158867D01*
X7681231Y-5167711D01*
X7695241Y-5170498D01*
X7695246Y-5170498D01*
X7695252Y-5170500D01*
X7695253Y-5170500D01*
X9934747Y-5170500D01*
X9934748Y-5170500D01*
X9993231Y-5158867D01*
X10059552Y-5114552D01*
X10103867Y-5048231D01*
X10115500Y-4989748D01*
X10115500Y-3869996D01*
X11319532Y-3869996D01*
X11319532Y-3870003D01*
X11339363Y-4096684D01*
X11398262Y-4316500D01*
X11494426Y-4522723D01*
X11494434Y-4522737D01*
X11624946Y-4709130D01*
X11624947Y-4709132D01*
X11624950Y-4709135D01*
X11624953Y-4709139D01*
X11785861Y-4870047D01*
X11785864Y-4870049D01*
X11785867Y-4870052D01*
X11785869Y-4870053D01*
X11890151Y-4943071D01*
X11972266Y-5000568D01*
X11972272Y-5000571D01*
X11972276Y-5000573D01*
X12178500Y-5096737D01*
X12178504Y-5096739D01*
X12398308Y-5155635D01*
X12398312Y-5155635D01*
X12398315Y-5155636D01*
X12624997Y-5175468D01*
X12625000Y-5175468D01*
X12625003Y-5175468D01*
X12851684Y-5155636D01*
X12851685Y-5155635D01*
X12851692Y-5155635D01*
X13071496Y-5096739D01*
X13277734Y-5000568D01*
X13464139Y-4870047D01*
X13625047Y-4709139D01*
X13755568Y-4522734D01*
X13851739Y-4316496D01*
X13910635Y-4096692D01*
X13930468Y-3870000D01*
X14830052Y-3870000D01*
X14849811Y-4121067D01*
X14908604Y-4365957D01*
X15004979Y-4598628D01*
X15004985Y-4598640D01*
X15136561Y-4813353D01*
X15136572Y-4813367D01*
X15137265Y-4814178D01*
X15870386Y-4081056D01*
X15875889Y-4101591D01*
X15954881Y-4238408D01*
X16066592Y-4350119D01*
X16203409Y-4429111D01*
X16223940Y-4434612D01*
X15490820Y-5167733D01*
X15491636Y-5168432D01*
X15706359Y-5300014D01*
X15706371Y-5300020D01*
X15939042Y-5396395D01*
X15939041Y-5396395D01*
X16183932Y-5455188D01*
X16435000Y-5474947D01*
X16686067Y-5455188D01*
X16930957Y-5396395D01*
X17163628Y-5300020D01*
X17163640Y-5300014D01*
X17378350Y-5168440D01*
X17378368Y-5168426D01*
X17379178Y-5167733D01*
X16646057Y-4434612D01*
X16666591Y-4429111D01*
X16803408Y-4350119D01*
X16915119Y-4238408D01*
X16994111Y-4101591D01*
X16999612Y-4081057D01*
X17732733Y-4814178D01*
X17733426Y-4813368D01*
X17733440Y-4813350D01*
X17865014Y-4598640D01*
X17865020Y-4598628D01*
X17961395Y-4365957D01*
X18020188Y-4121067D01*
X18039947Y-3870000D01*
X18020188Y-3618932D01*
X17961395Y-3374042D01*
X17865020Y-3141371D01*
X17865014Y-3141359D01*
X17733432Y-2926636D01*
X17732733Y-2925820D01*
X16999612Y-3658940D01*
X16994111Y-3638409D01*
X16915119Y-3501592D01*
X16803408Y-3389881D01*
X16666591Y-3310889D01*
X16646056Y-3305386D01*
X17379178Y-2572265D01*
X17378367Y-2571572D01*
X17378353Y-2571561D01*
X17163640Y-2439985D01*
X17163628Y-2439979D01*
X16930957Y-2343604D01*
X16930958Y-2343604D01*
X16686067Y-2284811D01*
X16435000Y-2265052D01*
X16183932Y-2284811D01*
X15939042Y-2343604D01*
X15706371Y-2439979D01*
X15706359Y-2439985D01*
X15491642Y-2571564D01*
X15491638Y-2571567D01*
X15490820Y-2572265D01*
X16223942Y-3305387D01*
X16203409Y-3310889D01*
X16066592Y-3389881D01*
X15954881Y-3501592D01*
X15875889Y-3638409D01*
X15870387Y-3658942D01*
X15137265Y-2925820D01*
X15136567Y-2926638D01*
X15136564Y-2926642D01*
X15004985Y-3141359D01*
X15004979Y-3141371D01*
X14908604Y-3374042D01*
X14849811Y-3618932D01*
X14830052Y-3870000D01*
X13930468Y-3870000D01*
X13930468Y-3869996D01*
X13910636Y-3643315D01*
X13910635Y-3643312D01*
X13910635Y-3643308D01*
X13851739Y-3423504D01*
X13851737Y-3423499D01*
X13755573Y-3217276D01*
X13755571Y-3217272D01*
X13755568Y-3217266D01*
X13625053Y-3030869D01*
X13625052Y-3030867D01*
X13625049Y-3030864D01*
X13625047Y-3030861D01*
X13464139Y-2869953D01*
X13464135Y-2869950D01*
X13464132Y-2869947D01*
X13464130Y-2869946D01*
X13277737Y-2739434D01*
X13277736Y-2739433D01*
X13277734Y-2739432D01*
X13277731Y-2739430D01*
X13277723Y-2739426D01*
X13071499Y-2643262D01*
X13071500Y-2643262D01*
X12998228Y-2623629D01*
X12851692Y-2584365D01*
X12851691Y-2584364D01*
X12851684Y-2584363D01*
X12625003Y-2564532D01*
X12624997Y-2564532D01*
X12398315Y-2584363D01*
X12178499Y-2643262D01*
X11972276Y-2739426D01*
X11972262Y-2739434D01*
X11785869Y-2869946D01*
X11785867Y-2869947D01*
X11624947Y-3030867D01*
X11624946Y-3030869D01*
X11494434Y-3217262D01*
X11494426Y-3217276D01*
X11398262Y-3423499D01*
X11339363Y-3643315D01*
X11319532Y-3869996D01*
X10115500Y-3869996D01*
X10115500Y-2750252D01*
X10103867Y-2691769D01*
X10059552Y-2625448D01*
X9998065Y-2584363D01*
X9993233Y-2581134D01*
X9993231Y-2581133D01*
X9993228Y-2581132D01*
X9993227Y-2581132D01*
X9934758Y-2569501D01*
X9934748Y-2569500D01*
X7695252Y-2569500D01*
X7695251Y-2569500D01*
X7695241Y-2569501D01*
X7636772Y-2581132D01*
X7636766Y-2581134D01*
X7570451Y-2625445D01*
X7570445Y-2625451D01*
X7526134Y-2691766D01*
X7526132Y-2691772D01*
X7514501Y-2750241D01*
X7514500Y-2750253D01*
X100500Y-2750253D01*
X100500Y-2502984D01*
X100681Y-2497007D01*
X104130Y-2439985D01*
X117633Y-2216741D01*
X119072Y-2204890D01*
X169146Y-1931646D01*
X172004Y-1920052D01*
X254650Y-1654832D01*
X258880Y-1643679D01*
X372895Y-1390346D01*
X378444Y-1379775D01*
X522159Y-1142040D01*
X528930Y-1132230D01*
X700257Y-913547D01*
X708169Y-904615D01*
X904615Y-708169D01*
X913547Y-700257D01*
X1132230Y-528930D01*
X1142040Y-522159D01*
X1379775Y-378444D01*
X1390346Y-372895D01*
X1643679Y-258880D01*
X1654832Y-254650D01*
X1920052Y-172004D01*
X1931646Y-169146D01*
X2204890Y-119072D01*
X2216741Y-117633D01*
X2497008Y-100681D01*
X2502985Y-100500D01*
X2526929Y-100500D01*
X22473071Y-100500D01*
X22497015Y-100500D01*
X22502992Y-100681D01*
G37*
%TD.AperFunction*%
%TD*%
D19*
X21325000Y-14800000D03*
X4497862Y-11057455D03*
X3300000Y-9525000D03*
X14150000Y-19600000D03*
X20575000Y-12927821D03*
X19900000Y-19900000D03*
X4450000Y-3125000D03*
X18250000Y-1700000D03*
X16700000Y-7375000D03*
X6300000Y-4500000D03*
X12025000Y-15100000D03*
X14150000Y-18075000D03*
X11500000Y-18000000D03*
X12550000Y-12900000D03*
X9850000Y-8625000D03*
X2850000Y-15500000D03*
X4236765Y-13238235D03*
X2025000Y-1750000D03*
X20578186Y-10546814D03*
X21000000Y-8750000D03*
X8900000Y-12230002D03*
X6150000Y-17175000D03*
X5475000Y-7250000D03*
X23625000Y-12500000D03*
X11600000Y-19625000D03*
X19800000Y-17500000D03*
X16050000Y-22975000D03*
X23175000Y-22150000D03*
X16200000Y-12450000D03*
X14125000Y-15100000D03*
X8125000Y-7250000D03*
X18475000Y-7100000D03*
X8025000Y-18850000D03*
X21875000Y-16175000D03*
X8025000Y-16310000D03*
X21175000Y-12275000D03*
X7775000Y-12900000D03*
X18175000Y-12975000D03*
X17075000Y-11230000D03*
X9800000Y-11230000D03*
X4375000Y-14225000D03*
X16961279Y-9850000D03*
D20*
X5850000Y-23600000D03*
X7850000Y-23600000D03*
X9850000Y-23600000D03*
X11850000Y-23600000D03*
X22500000Y-2550000D03*
X8815000Y-3870000D03*
X12625000Y-3870000D03*
X16435000Y-3870000D03*
X2500000Y-22500000D03*
M02*
