%TF.GenerationSoftware,KiCad,Pcbnew,8.0.7*%
%TF.CreationDate,2025-01-15T18:16:12+00:00*%
%TF.ProjectId,Servo,53657276-6f2e-46b6-9963-61645f706362,rev?*%
%TF.SameCoordinates,Original*%
%TF.FileFunction,Copper,L2,Bot*%
%TF.FilePolarity,Positive*%
%FSLAX46Y46*%
G04 Gerber Fmt 4.6, Leading zero omitted, Abs format (unit mm)*
G04 Created by KiCad (PCBNEW 8.0.7) date 2025-01-15 18:16:12*
%MOMM*%
%LPD*%
G01*
G04 APERTURE LIST*
%TA.AperFunction,ComponentPad*%
%ADD10R,1.700000X1.700000*%
%TD*%
%TA.AperFunction,ComponentPad*%
%ADD11O,1.700000X1.700000*%
%TD*%
%TA.AperFunction,ComponentPad*%
%ADD12R,1.350000X1.350000*%
%TD*%
%TA.AperFunction,ComponentPad*%
%ADD13O,1.350000X1.350000*%
%TD*%
%TA.AperFunction,SMDPad,CuDef*%
%ADD14R,2.500000X1.000000*%
%TD*%
%TA.AperFunction,SMDPad,CuDef*%
%ADD15R,2.000000X1.000000*%
%TD*%
%TA.AperFunction,ViaPad*%
%ADD16C,0.600000*%
%TD*%
%TA.AperFunction,Conductor*%
%ADD17C,0.200000*%
%TD*%
%TA.AperFunction,Conductor*%
%ADD18C,0.400000*%
%TD*%
%ADD19C,0.300000*%
%ADD20C,0.350000*%
G04 APERTURE END LIST*
D10*
%TO.P,J9,1,Pin_1*%
%TO.N,PWM6*%
X33000000Y-8350000D03*
D11*
%TO.P,J9,2,Pin_2*%
%TO.N,5V*%
X33000000Y-5810000D03*
%TO.P,J9,3,Pin_3*%
%TO.N,GND*%
X33000000Y-3270000D03*
%TD*%
D10*
%TO.P,J10,1,Pin_1*%
%TO.N,PWM7*%
X37500000Y-8325000D03*
D11*
%TO.P,J10,2,Pin_2*%
%TO.N,5V*%
X37500000Y-5785000D03*
%TO.P,J10,3,Pin_3*%
%TO.N,GND*%
X37500000Y-3245000D03*
%TD*%
D10*
%TO.P,J5,1,Pin_1*%
%TO.N,PWM2*%
X15000000Y-8350000D03*
D11*
%TO.P,J5,2,Pin_2*%
%TO.N,5V*%
X15000000Y-5810000D03*
%TO.P,J5,3,Pin_3*%
%TO.N,GND*%
X15000000Y-3270000D03*
%TD*%
D10*
%TO.P,J8,1,Pin_1*%
%TO.N,PWM5*%
X28500000Y-8350000D03*
D11*
%TO.P,J8,2,Pin_2*%
%TO.N,5V*%
X28500000Y-5810000D03*
%TO.P,J8,3,Pin_3*%
%TO.N,GND*%
X28500000Y-3270000D03*
%TD*%
D12*
%TO.P,J4,1,Pin_1*%
%TO.N,5V*%
X5850000Y-23600000D03*
D13*
%TO.P,J4,2,Pin_2*%
%TO.N,GND*%
X7850000Y-23600000D03*
%TO.P,J4,3,Pin_3*%
%TO.N,SWDIO*%
X9850000Y-23600000D03*
%TO.P,J4,4,Pin_4*%
%TO.N,SWDCLK*%
X11850000Y-23600000D03*
%TD*%
D10*
%TO.P,J2,1,Pin_1*%
%TO.N,PWM1*%
X10500000Y-8350000D03*
D11*
%TO.P,J2,2,Pin_2*%
%TO.N,5V*%
X10500000Y-5810000D03*
%TO.P,J2,3,Pin_3*%
%TO.N,GND*%
X10500000Y-3270000D03*
%TD*%
D10*
%TO.P,J6,1,Pin_1*%
%TO.N,PWM3*%
X19500000Y-8350000D03*
D11*
%TO.P,J6,2,Pin_2*%
%TO.N,5V*%
X19500000Y-5810000D03*
%TO.P,J6,3,Pin_3*%
%TO.N,GND*%
X19500000Y-3270000D03*
%TD*%
D10*
%TO.P,J11,1,Pin_1*%
%TO.N,PWM8*%
X42000000Y-8305000D03*
D11*
%TO.P,J11,2,Pin_2*%
%TO.N,5V*%
X42000000Y-5765000D03*
%TO.P,J11,3,Pin_3*%
%TO.N,GND*%
X42000000Y-3225000D03*
%TD*%
D10*
%TO.P,J7,1,Pin_1*%
%TO.N,PWM4*%
X24000000Y-8350000D03*
D11*
%TO.P,J7,2,Pin_2*%
%TO.N,5V*%
X24000000Y-5810000D03*
%TO.P,J7,3,Pin_3*%
%TO.N,GND*%
X24000000Y-3270000D03*
%TD*%
D14*
%TO.P,J1,1,Pin_1*%
%TO.N,5V*%
X8025000Y-6150000D03*
%TO.P,J1,2,Pin_2*%
%TO.N,GND*%
X8025000Y-8690000D03*
%TO.P,J1,3,Pin_3*%
%TO.N,PS*%
X8025000Y-11230000D03*
%TO.P,J1,4,Pin_4*%
%TO.N,SCLK*%
X8025000Y-13770000D03*
%TO.P,J1,5,Pin_5*%
%TO.N,MISO*%
X8025000Y-16310000D03*
%TO.P,J1,6,Pin_6*%
%TO.N,MOSI*%
X8025000Y-18850000D03*
%TD*%
D15*
%TO.P,J3,1,Pin_1*%
%TO.N,MOSI*%
X47575000Y-18850000D03*
%TO.P,J3,2,Pin_2*%
%TO.N,MISO*%
X47575000Y-16310000D03*
%TO.P,J3,3,Pin_3*%
%TO.N,SCLK*%
X47575000Y-13770000D03*
%TO.P,J3,4,Pin_4*%
%TO.N,PS*%
X47575000Y-11230000D03*
%TO.P,J3,5,Pin_5*%
%TO.N,GND*%
X47575000Y-8690000D03*
%TO.P,J3,6,Pin_6*%
%TO.N,5V*%
X47575000Y-6150000D03*
%TD*%
D16*
%TO.N,GND*%
X45875000Y-7200000D03*
X30725000Y-8625000D03*
X12700000Y-8875000D03*
X47600000Y-17700000D03*
X20000000Y-11725000D03*
X8000000Y-9950000D03*
X44550000Y-19700000D03*
X4975000Y-20050000D03*
X43275000Y-12425000D03*
X6025000Y-7300000D03*
X17750000Y-19375000D03*
X4200000Y-16075000D03*
X26500000Y-20000000D03*
X13875000Y-23875000D03*
X33250000Y-17665000D03*
X44625000Y-10150000D03*
X26450000Y-16575000D03*
X36000000Y-8625000D03*
X6675000Y-20125000D03*
X27850000Y-11900000D03*
X37450000Y-23170000D03*
X21775000Y-8800000D03*
X4225000Y-9100000D03*
X21550000Y-16525000D03*
X28500000Y-21925000D03*
X38300000Y-17250000D03*
X10750000Y-21150000D03*
X18200000Y-20850000D03*
X49325000Y-5250000D03*
X21275000Y-19950000D03*
X48785000Y-23100000D03*
X49925000Y-16525000D03*
X17200000Y-8725000D03*
X19525000Y-22625000D03*
X37650000Y-11650000D03*
X31175000Y-16500000D03*
X26350000Y-8650000D03*
X13850000Y-17825000D03*
X12600000Y-11325000D03*
X12500000Y-15725000D03*
X50025000Y-9950000D03*
X39800000Y-8675000D03*
X45975000Y-15325000D03*
%TO.N,5V*%
X7975000Y-7250000D03*
X49962500Y-8537500D03*
X48435000Y-21200000D03*
X51500000Y-15300000D03*
%TO.N,MOSI*%
X10075000Y-18850000D03*
X14850000Y-16975000D03*
X42900000Y-15975000D03*
%TO.N,MISO*%
X44093527Y-15170000D03*
X9795343Y-15195343D03*
X16750000Y-14775000D03*
%TO.N,SCLK*%
X33200000Y-13970000D03*
X46100000Y-13770000D03*
X9719494Y-13856976D03*
%TO.N,PS*%
X50200000Y-13950000D03*
X9875000Y-11550000D03*
X32675000Y-12425000D03*
%TO.N,Interrupt5V*%
X10650000Y-19975000D03*
X50800000Y-10850000D03*
%TD*%
D17*
%TO.N,GND*%
X45375000Y-12925000D02*
X48800000Y-12925000D01*
X6480000Y-14575000D02*
X7500000Y-14575000D01*
X32475000Y-14570000D02*
X32075000Y-14170000D01*
X12390000Y-17110000D02*
X14125000Y-15375000D01*
X45325000Y-17250000D02*
X49050000Y-17250000D01*
X48875000Y-14570000D02*
X32475000Y-14570000D01*
X7500000Y-14575000D02*
X6475000Y-15600000D01*
X48875000Y-13000000D02*
X48875000Y-14570000D01*
X10255000Y-14170000D02*
X9850000Y-14575000D01*
X6475000Y-10240000D02*
X6475000Y-14570000D01*
X8025000Y-8690000D02*
X6475000Y-10240000D01*
X9850000Y-14575000D02*
X7500000Y-14575000D01*
X44975000Y-16900000D02*
X45325000Y-17250000D01*
X6475000Y-15600000D02*
X6475000Y-17110000D01*
X6475000Y-14570000D02*
X6480000Y-14575000D01*
X48800000Y-12925000D02*
X48875000Y-13000000D01*
X14125000Y-15375000D02*
X43450000Y-15375000D01*
X6475000Y-17110000D02*
X12390000Y-17110000D01*
X10070000Y-13370000D02*
X44930000Y-13370000D01*
X43450000Y-15375000D02*
X44975000Y-16900000D01*
X44930000Y-13370000D02*
X45375000Y-12925000D01*
X32075000Y-14170000D02*
X10255000Y-14170000D01*
X9900000Y-13200000D02*
X10070000Y-13370000D01*
%TO.N,5V*%
X8025000Y-6150000D02*
X10160000Y-6150000D01*
D18*
X51500000Y-9350000D02*
X51500000Y-15300000D01*
D17*
X7975000Y-6200000D02*
X8025000Y-6150000D01*
D18*
X50775000Y-9350000D02*
X51500000Y-9350000D01*
X47190000Y-5765000D02*
X42000000Y-5765000D01*
X51500000Y-18135000D02*
X48435000Y-21200000D01*
X47575000Y-6150000D02*
X47190000Y-5765000D01*
D17*
X10160000Y-6150000D02*
X10500000Y-5810000D01*
D18*
X51500000Y-15300000D02*
X51500000Y-18135000D01*
X49962500Y-8537500D02*
X50775000Y-9350000D01*
X47575000Y-6150000D02*
X49962500Y-8537500D01*
D17*
X7975000Y-7250000D02*
X7975000Y-6200000D01*
%TO.N,MOSI*%
X8025000Y-18850000D02*
X10075000Y-18850000D01*
X14850000Y-16975000D02*
X14775000Y-16900000D01*
X14775000Y-16900000D02*
X14775000Y-15775000D01*
X14290686Y-15775000D02*
X14775000Y-15775000D01*
X10075000Y-18850000D02*
X11215686Y-18850000D01*
X11215686Y-18850000D02*
X14290686Y-15775000D01*
X43284314Y-15775000D02*
X46359314Y-18850000D01*
X42900000Y-15975000D02*
X43084314Y-15975000D01*
X14775000Y-15775000D02*
X43284314Y-15775000D01*
X43084314Y-15975000D02*
X43284314Y-15775000D01*
X46359314Y-18850000D02*
X47575000Y-18850000D01*
%TO.N,MISO*%
X16950000Y-14975000D02*
X43800000Y-14975000D01*
X16750000Y-14775000D02*
X16775000Y-14775000D01*
X13705000Y-14975000D02*
X16950000Y-14975000D01*
X16950000Y-14950000D02*
X16950000Y-14975000D01*
X9795343Y-15195343D02*
X10015686Y-14975000D01*
X8025000Y-16310000D02*
X8680685Y-16310000D01*
X10015686Y-14975000D02*
X10420686Y-14570000D01*
X43800000Y-14975000D02*
X45135000Y-16310000D01*
X8680685Y-16310000D02*
X9795343Y-15195343D01*
X16775000Y-14775000D02*
X16950000Y-14950000D01*
X13300000Y-14570000D02*
X13705000Y-14975000D01*
X10420686Y-14570000D02*
X13300000Y-14570000D01*
X45135000Y-16310000D02*
X47575000Y-16310000D01*
%TO.N,SCLK*%
X8111976Y-13856976D02*
X8025000Y-13770000D01*
X9719494Y-13856976D02*
X8111976Y-13856976D01*
X8025000Y-13770000D02*
X46100000Y-13770000D01*
X46100000Y-13770000D02*
X47575000Y-13770000D01*
%TO.N,PS*%
X50200000Y-11825000D02*
X49605000Y-11230000D01*
X41075000Y-12600000D02*
X42445000Y-11230000D01*
X42445000Y-11230000D02*
X47575000Y-11230000D01*
X8025000Y-11230000D02*
X9555000Y-11230000D01*
X50200000Y-13950000D02*
X50200000Y-11825000D01*
X10925000Y-12600000D02*
X41075000Y-12600000D01*
X9875000Y-11550000D02*
X10925000Y-12600000D01*
X49605000Y-11230000D02*
X47575000Y-11230000D01*
X9555000Y-11230000D02*
X9875000Y-11550000D01*
%TO.N,Interrupt5V*%
X11825000Y-19975000D02*
X15050000Y-23200000D01*
X16075000Y-24225000D02*
X29175000Y-24225000D01*
X29175000Y-24225000D02*
X44300000Y-24225000D01*
X50800000Y-17725000D02*
X50800000Y-10850000D01*
X10650000Y-19975000D02*
X11825000Y-19975000D01*
X15050000Y-23200000D02*
X16075000Y-24225000D01*
X44300000Y-24225000D02*
X50800000Y-17725000D01*
%TD*%
%TA.AperFunction,Conductor*%
%TO.N,GND*%
G36*
X51502992Y-100681D02*
G01*
X51783256Y-117633D01*
X51795111Y-119073D01*
X51958223Y-148964D01*
X51983638Y-153622D01*
X52037468Y-182709D01*
X52063920Y-237880D01*
X52052891Y-298064D01*
X52008593Y-340270D01*
X51965793Y-350000D01*
X50999997Y-350000D01*
X50299998Y-650000D01*
X49799999Y-1050000D01*
X49600005Y-1349990D01*
X49599998Y-1350002D01*
X49400001Y-1749996D01*
X49300000Y-2050000D01*
X49300000Y-3050002D01*
X49599997Y-3749995D01*
X49600000Y-3750000D01*
X49764647Y-3947577D01*
X50100000Y-4350000D01*
X50900000Y-4750000D01*
X51899998Y-4750000D01*
X51900000Y-4750000D01*
X52500000Y-4650000D01*
X53100000Y-4150000D01*
X53500000Y-3650000D01*
X53700000Y-2950000D01*
X53700000Y-2478186D01*
X53718907Y-2419995D01*
X53768407Y-2384031D01*
X53829593Y-2384031D01*
X53879093Y-2419995D01*
X53897819Y-2472209D01*
X53899319Y-2497007D01*
X53899500Y-2502984D01*
X53899500Y-5019991D01*
X53914798Y-5056926D01*
X53914799Y-5056927D01*
X53914800Y-5056929D01*
X53943071Y-5085200D01*
X53943072Y-5085200D01*
X53943073Y-5085201D01*
X53980008Y-5100500D01*
X53980009Y-5100500D01*
X54800500Y-5100500D01*
X54858691Y-5119407D01*
X54894655Y-5168907D01*
X54899500Y-5199500D01*
X54899500Y-19800500D01*
X54880593Y-19858691D01*
X54831093Y-19894655D01*
X54800500Y-19899500D01*
X53980008Y-19899500D01*
X53943073Y-19914798D01*
X53914798Y-19943073D01*
X53899500Y-19980008D01*
X53899500Y-22497015D01*
X53899319Y-22502992D01*
X53897819Y-22527790D01*
X53875433Y-22584733D01*
X53823852Y-22617643D01*
X53762778Y-22613949D01*
X53715540Y-22575062D01*
X53700000Y-22521813D01*
X53700000Y-21900000D01*
X53620200Y-21700500D01*
X53500000Y-21400000D01*
X53100000Y-20900000D01*
X52600000Y-20500000D01*
X52000000Y-20300000D01*
X51000000Y-20300000D01*
X50999997Y-20300000D01*
X50299998Y-20600000D01*
X49799999Y-21000000D01*
X49600005Y-21299990D01*
X49599998Y-21300002D01*
X49400001Y-21699996D01*
X49300000Y-22000000D01*
X49300000Y-23000002D01*
X49599997Y-23699995D01*
X49600000Y-23700000D01*
X50061837Y-24254205D01*
X50100000Y-24300000D01*
X50900000Y-24700000D01*
X51521813Y-24700000D01*
X51580004Y-24718907D01*
X51615968Y-24768407D01*
X51615968Y-24829593D01*
X51580004Y-24879093D01*
X51527790Y-24897819D01*
X51502992Y-24899319D01*
X51497015Y-24899500D01*
X8277877Y-24899500D01*
X8219686Y-24880593D01*
X8183722Y-24831093D01*
X8183722Y-24769907D01*
X8219686Y-24720407D01*
X8242114Y-24708185D01*
X8375986Y-24656322D01*
X8375991Y-24656319D01*
X8561126Y-24541688D01*
X8561129Y-24541686D01*
X8722052Y-24394987D01*
X8853283Y-24221209D01*
X8853288Y-24221200D01*
X8930605Y-24065927D01*
X8973467Y-24022265D01*
X9033808Y-24012135D01*
X9088579Y-24039407D01*
X9104962Y-24060555D01*
X9137805Y-24117440D01*
X9231239Y-24221209D01*
X9254463Y-24247003D01*
X9260950Y-24254207D01*
X9409839Y-24362381D01*
X9409843Y-24362383D01*
X9409845Y-24362384D01*
X9465485Y-24387156D01*
X9577966Y-24437236D01*
X9757981Y-24475500D01*
X9757983Y-24475500D01*
X9942017Y-24475500D01*
X9942019Y-24475500D01*
X10122034Y-24437236D01*
X10290161Y-24362381D01*
X10439050Y-24254207D01*
X10562195Y-24117440D01*
X10654214Y-23958059D01*
X10711085Y-23783029D01*
X10730322Y-23600000D01*
X10969678Y-23600000D01*
X10986483Y-23759893D01*
X10988916Y-23783034D01*
X11045784Y-23958054D01*
X11045790Y-23958068D01*
X11082855Y-24022265D01*
X11137805Y-24117440D01*
X11231239Y-24221209D01*
X11254463Y-24247003D01*
X11260950Y-24254207D01*
X11409839Y-24362381D01*
X11409843Y-24362383D01*
X11409845Y-24362384D01*
X11465485Y-24387156D01*
X11577966Y-24437236D01*
X11757981Y-24475500D01*
X11757983Y-24475500D01*
X11942017Y-24475500D01*
X11942019Y-24475500D01*
X12122034Y-24437236D01*
X12290161Y-24362381D01*
X12439050Y-24254207D01*
X12562195Y-24117440D01*
X12654214Y-23958059D01*
X12711085Y-23783029D01*
X12730322Y-23600000D01*
X12711085Y-23416971D01*
X12654214Y-23241941D01*
X12654211Y-23241936D01*
X12654209Y-23241931D01*
X12604704Y-23156187D01*
X12562195Y-23082560D01*
X12439050Y-22945793D01*
X12290161Y-22837619D01*
X12290157Y-22837617D01*
X12290154Y-22837615D01*
X12122036Y-22762765D01*
X12122034Y-22762764D01*
X12122031Y-22762763D01*
X12122030Y-22762763D01*
X12075135Y-22752795D01*
X11942019Y-22724500D01*
X11757981Y-22724500D01*
X11660797Y-22745157D01*
X11577969Y-22762763D01*
X11577963Y-22762765D01*
X11409845Y-22837615D01*
X11409842Y-22837617D01*
X11409839Y-22837618D01*
X11409839Y-22837619D01*
X11397245Y-22846769D01*
X11260948Y-22945794D01*
X11137803Y-23082562D01*
X11137803Y-23082563D01*
X11045790Y-23241931D01*
X11045784Y-23241945D01*
X10988916Y-23416965D01*
X10988915Y-23416969D01*
X10988915Y-23416971D01*
X10969678Y-23600000D01*
X10730322Y-23600000D01*
X10711085Y-23416971D01*
X10654214Y-23241941D01*
X10654211Y-23241936D01*
X10654209Y-23241931D01*
X10604704Y-23156187D01*
X10562195Y-23082560D01*
X10439050Y-22945793D01*
X10290161Y-22837619D01*
X10290157Y-22837617D01*
X10290154Y-22837615D01*
X10122036Y-22762765D01*
X10122034Y-22762764D01*
X10122031Y-22762763D01*
X10122030Y-22762763D01*
X10075135Y-22752795D01*
X9942019Y-22724500D01*
X9757981Y-22724500D01*
X9660797Y-22745157D01*
X9577969Y-22762763D01*
X9577963Y-22762765D01*
X9409845Y-22837615D01*
X9409842Y-22837617D01*
X9409839Y-22837618D01*
X9409839Y-22837619D01*
X9397245Y-22846769D01*
X9260948Y-22945794D01*
X9137804Y-23082561D01*
X9104962Y-23139445D01*
X9059492Y-23180385D01*
X8998642Y-23186780D01*
X8945654Y-23156187D01*
X8930605Y-23134072D01*
X8853288Y-22978799D01*
X8853283Y-22978790D01*
X8722052Y-22805012D01*
X8561129Y-22658313D01*
X8561126Y-22658311D01*
X8375991Y-22543680D01*
X8375986Y-22543677D01*
X8172932Y-22465013D01*
X8172926Y-22465011D01*
X8100000Y-22451379D01*
X8100000Y-23319670D01*
X8080255Y-23299925D01*
X7994745Y-23250556D01*
X7899370Y-23225000D01*
X7800630Y-23225000D01*
X7705255Y-23250556D01*
X7619745Y-23299925D01*
X7600000Y-23319670D01*
X7600000Y-22451379D01*
X7599999Y-22451379D01*
X7527073Y-22465011D01*
X7527067Y-22465013D01*
X7324013Y-22543677D01*
X7324008Y-22543680D01*
X7138873Y-22658311D01*
X7138870Y-22658313D01*
X6977944Y-22805015D01*
X6895383Y-22914343D01*
X6845227Y-22949386D01*
X6784052Y-22948255D01*
X6735225Y-22911382D01*
X6719283Y-22873999D01*
X6713867Y-22846769D01*
X6669552Y-22780448D01*
X6643088Y-22762765D01*
X6603233Y-22736134D01*
X6603231Y-22736133D01*
X6603228Y-22736132D01*
X6603227Y-22736132D01*
X6544758Y-22724501D01*
X6544748Y-22724500D01*
X5155252Y-22724500D01*
X5155251Y-22724500D01*
X5155241Y-22724501D01*
X5096772Y-22736132D01*
X5096766Y-22736134D01*
X5030451Y-22780445D01*
X5030445Y-22780451D01*
X4986134Y-22846766D01*
X4986132Y-22846772D01*
X4974501Y-22905241D01*
X4974500Y-22905253D01*
X4974500Y-24294746D01*
X4974501Y-24294758D01*
X4986132Y-24353227D01*
X4986134Y-24353233D01*
X5030445Y-24419548D01*
X5030448Y-24419552D01*
X5096769Y-24463867D01*
X5141231Y-24472711D01*
X5155241Y-24475498D01*
X5155246Y-24475498D01*
X5155252Y-24475500D01*
X5155253Y-24475500D01*
X6544747Y-24475500D01*
X6544748Y-24475500D01*
X6603231Y-24463867D01*
X6669552Y-24419552D01*
X6713867Y-24353231D01*
X6719283Y-24326001D01*
X6749178Y-24272619D01*
X6804743Y-24247003D01*
X6864753Y-24258940D01*
X6895384Y-24285656D01*
X6977947Y-24394987D01*
X7138870Y-24541686D01*
X7138873Y-24541688D01*
X7324008Y-24656319D01*
X7324013Y-24656322D01*
X7457886Y-24708185D01*
X7505317Y-24746837D01*
X7520971Y-24805986D01*
X7498868Y-24863040D01*
X7447451Y-24896205D01*
X7422123Y-24899500D01*
X2502985Y-24899500D01*
X2497008Y-24899319D01*
X2472210Y-24897819D01*
X2415267Y-24875433D01*
X2382357Y-24823852D01*
X2386051Y-24762778D01*
X2424938Y-24715540D01*
X2478187Y-24700000D01*
X2899998Y-24700000D01*
X2900000Y-24700000D01*
X3500000Y-24600000D01*
X4100000Y-24100000D01*
X4500000Y-23600000D01*
X4700000Y-22900000D01*
X4700000Y-21900000D01*
X4500000Y-21400000D01*
X4100000Y-20900000D01*
X3600000Y-20500000D01*
X3000000Y-20300000D01*
X2000000Y-20300000D01*
X1999997Y-20300000D01*
X1299998Y-20600000D01*
X799999Y-21000000D01*
X600005Y-21299990D01*
X599998Y-21300002D01*
X400001Y-21699996D01*
X300000Y-22000000D01*
X300000Y-22521813D01*
X281093Y-22580004D01*
X231593Y-22615968D01*
X170407Y-22615968D01*
X120907Y-22580004D01*
X102181Y-22527790D01*
X100681Y-22502992D01*
X100500Y-22497015D01*
X100500Y-19980008D01*
X85201Y-19943073D01*
X85200Y-19943072D01*
X85200Y-19943071D01*
X56929Y-19914800D01*
X56927Y-19914799D01*
X56926Y-19914798D01*
X19992Y-19899500D01*
X19991Y-19899500D01*
X-401000Y-19899500D01*
X-459191Y-19880593D01*
X-495155Y-19831093D01*
X-500000Y-19800500D01*
X-500000Y-15790253D01*
X6574500Y-15790253D01*
X6574500Y-16829746D01*
X6574501Y-16829758D01*
X6586132Y-16888227D01*
X6586133Y-16888231D01*
X6630448Y-16954552D01*
X6696769Y-16998867D01*
X6741231Y-17007711D01*
X6755241Y-17010498D01*
X6755246Y-17010498D01*
X6755252Y-17010500D01*
X6755253Y-17010500D01*
X9294747Y-17010500D01*
X9294748Y-17010500D01*
X9353231Y-16998867D01*
X9419552Y-16954552D01*
X9463867Y-16888231D01*
X9475500Y-16829748D01*
X9475500Y-15981164D01*
X9494407Y-15922973D01*
X9504496Y-15911160D01*
X9690817Y-15724839D01*
X9745334Y-15697062D01*
X9760821Y-15695843D01*
X9867302Y-15695843D01*
X9867304Y-15695843D01*
X10005396Y-15655296D01*
X10126471Y-15577486D01*
X10220720Y-15468716D01*
X10280508Y-15337800D01*
X10292410Y-15255019D01*
X10300990Y-15195345D01*
X10300990Y-15195341D01*
X10297901Y-15173859D01*
X10308334Y-15113570D01*
X10325886Y-15089769D01*
X10516161Y-14899496D01*
X10570678Y-14871719D01*
X10586164Y-14870500D01*
X13134521Y-14870500D01*
X13192712Y-14889407D01*
X13204525Y-14899496D01*
X13464540Y-15159511D01*
X13464539Y-15159511D01*
X13520489Y-15215460D01*
X13589007Y-15255019D01*
X13589011Y-15255021D01*
X13665435Y-15275499D01*
X13665437Y-15275500D01*
X13665438Y-15275500D01*
X13744562Y-15275500D01*
X16678039Y-15275500D01*
X16821961Y-15275500D01*
X16910438Y-15275500D01*
X16989562Y-15275500D01*
X43527861Y-15275500D01*
X43586052Y-15294407D01*
X43617914Y-15333374D01*
X43668148Y-15443370D01*
X43668149Y-15443371D01*
X43668150Y-15443373D01*
X43712866Y-15494978D01*
X43738471Y-15524528D01*
X43748098Y-15547309D01*
X43764759Y-15553660D01*
X43869751Y-15621134D01*
X43883474Y-15629953D01*
X43989930Y-15661211D01*
X44021562Y-15670499D01*
X44021563Y-15670499D01*
X44021566Y-15670500D01*
X44029521Y-15670500D01*
X44087712Y-15689407D01*
X44099525Y-15699496D01*
X44894540Y-16494511D01*
X44894539Y-16494511D01*
X44950489Y-16550460D01*
X45019007Y-16590019D01*
X45019011Y-16590021D01*
X45095435Y-16610499D01*
X45095437Y-16610500D01*
X45095438Y-16610500D01*
X46275500Y-16610500D01*
X46333691Y-16629407D01*
X46369655Y-16678907D01*
X46374500Y-16709500D01*
X46374500Y-16829746D01*
X46374501Y-16829758D01*
X46386132Y-16888227D01*
X46386133Y-16888231D01*
X46430448Y-16954552D01*
X46496769Y-16998867D01*
X46541231Y-17007711D01*
X46555241Y-17010498D01*
X46555246Y-17010498D01*
X46555252Y-17010500D01*
X46555253Y-17010500D01*
X48594747Y-17010500D01*
X48594748Y-17010500D01*
X48653231Y-16998867D01*
X48719552Y-16954552D01*
X48763867Y-16888231D01*
X48775500Y-16829748D01*
X48775500Y-15790252D01*
X48763867Y-15731769D01*
X48719552Y-15665448D01*
X48719548Y-15665445D01*
X48653233Y-15621134D01*
X48653231Y-15621133D01*
X48653228Y-15621132D01*
X48653227Y-15621132D01*
X48594758Y-15609501D01*
X48594748Y-15609500D01*
X46555252Y-15609500D01*
X46555251Y-15609500D01*
X46555241Y-15609501D01*
X46496772Y-15621132D01*
X46496766Y-15621134D01*
X46430451Y-15665445D01*
X46430445Y-15665451D01*
X46386134Y-15731766D01*
X46386132Y-15731772D01*
X46374501Y-15790241D01*
X46374500Y-15790253D01*
X46374500Y-15910500D01*
X46355593Y-15968691D01*
X46306093Y-16004655D01*
X46275500Y-16009500D01*
X45300479Y-16009500D01*
X45242288Y-15990593D01*
X45230475Y-15980504D01*
X44611688Y-15361717D01*
X44583911Y-15307200D01*
X44583700Y-15277623D01*
X44583774Y-15277114D01*
X44599174Y-15170000D01*
X44592676Y-15124808D01*
X44578692Y-15027543D01*
X44565162Y-14997917D01*
X44518904Y-14896627D01*
X44424655Y-14787857D01*
X44424654Y-14787856D01*
X44424653Y-14787855D01*
X44303584Y-14710049D01*
X44303581Y-14710047D01*
X44303580Y-14710047D01*
X44303577Y-14710046D01*
X44165491Y-14669500D01*
X44165488Y-14669500D01*
X44021566Y-14669500D01*
X44021564Y-14669500D01*
X44021560Y-14669501D01*
X43952485Y-14689782D01*
X43898972Y-14690419D01*
X43872934Y-14683442D01*
X43839562Y-14674500D01*
X43839561Y-14674500D01*
X17317949Y-14674500D01*
X17259758Y-14655593D01*
X17227896Y-14616628D01*
X17175377Y-14501627D01*
X17081128Y-14392857D01*
X17081127Y-14392856D01*
X17081126Y-14392855D01*
X16960057Y-14315049D01*
X16960054Y-14315047D01*
X16960053Y-14315047D01*
X16960050Y-14315046D01*
X16821964Y-14274500D01*
X16821961Y-14274500D01*
X16678039Y-14274500D01*
X16678035Y-14274500D01*
X16539949Y-14315046D01*
X16539942Y-14315049D01*
X16418873Y-14392855D01*
X16394532Y-14420947D01*
X16324623Y-14501627D01*
X16272103Y-14616627D01*
X16230732Y-14661704D01*
X16182051Y-14674500D01*
X13870479Y-14674500D01*
X13812288Y-14655593D01*
X13800476Y-14645504D01*
X13484510Y-14329539D01*
X13415992Y-14289980D01*
X13415988Y-14289978D01*
X13339564Y-14269500D01*
X13339562Y-14269500D01*
X10381124Y-14269500D01*
X10381121Y-14269500D01*
X10304697Y-14289978D01*
X10304693Y-14289980D01*
X10236174Y-14329539D01*
X10219352Y-14346362D01*
X10194080Y-14359237D01*
X10194047Y-14359831D01*
X10171796Y-14393917D01*
X9899868Y-14665846D01*
X9845351Y-14693624D01*
X9829864Y-14694843D01*
X9723378Y-14694843D01*
X9585292Y-14735389D01*
X9585285Y-14735392D01*
X9464216Y-14813198D01*
X9369965Y-14921971D01*
X9310177Y-15052886D01*
X9289696Y-15195340D01*
X9289696Y-15195346D01*
X9292784Y-15216825D01*
X9282350Y-15277114D01*
X9264796Y-15300916D01*
X8985210Y-15580503D01*
X8930693Y-15608281D01*
X8915206Y-15609500D01*
X6755252Y-15609500D01*
X6755251Y-15609500D01*
X6755241Y-15609501D01*
X6696772Y-15621132D01*
X6696766Y-15621134D01*
X6630451Y-15665445D01*
X6630445Y-15665451D01*
X6586134Y-15731766D01*
X6586132Y-15731772D01*
X6574501Y-15790241D01*
X6574500Y-15790253D01*
X-500000Y-15790253D01*
X-500000Y-13250253D01*
X6574500Y-13250253D01*
X6574500Y-14289746D01*
X6574501Y-14289758D01*
X6586132Y-14348227D01*
X6586134Y-14348233D01*
X6616660Y-14393917D01*
X6630448Y-14414552D01*
X6696769Y-14458867D01*
X6741231Y-14467711D01*
X6755241Y-14470498D01*
X6755246Y-14470498D01*
X6755252Y-14470500D01*
X6755253Y-14470500D01*
X9294747Y-14470500D01*
X9294748Y-14470500D01*
X9353231Y-14458867D01*
X9419552Y-14414552D01*
X9448414Y-14371356D01*
X9496464Y-14333478D01*
X9557602Y-14331076D01*
X9558604Y-14331364D01*
X9588881Y-14340254D01*
X9647529Y-14357475D01*
X9647530Y-14357475D01*
X9647533Y-14357476D01*
X9647535Y-14357476D01*
X9791453Y-14357476D01*
X9791455Y-14357476D01*
X9929547Y-14316929D01*
X10048272Y-14240628D01*
X10062759Y-14236820D01*
X10074531Y-14211526D01*
X10125987Y-14152143D01*
X10144871Y-14130349D01*
X10144872Y-14130347D01*
X10145776Y-14128369D01*
X10147002Y-14127032D01*
X10148699Y-14124393D01*
X10149155Y-14124686D01*
X10187150Y-14083294D01*
X10235827Y-14070500D01*
X32632051Y-14070500D01*
X32690242Y-14089407D01*
X32722103Y-14128371D01*
X32774623Y-14243373D01*
X32851542Y-14332143D01*
X32868873Y-14352144D01*
X32989942Y-14429950D01*
X32989947Y-14429953D01*
X33088420Y-14458867D01*
X33128035Y-14470499D01*
X33128036Y-14470499D01*
X33128039Y-14470500D01*
X33128041Y-14470500D01*
X33271959Y-14470500D01*
X33271961Y-14470500D01*
X33410053Y-14429953D01*
X33531128Y-14352143D01*
X33625377Y-14243373D01*
X33677896Y-14128372D01*
X33719268Y-14083296D01*
X33767949Y-14070500D01*
X45652917Y-14070500D01*
X45711108Y-14089407D01*
X45727733Y-14104667D01*
X45768872Y-14152143D01*
X45889947Y-14229953D01*
X45950113Y-14247619D01*
X46028035Y-14270499D01*
X46028036Y-14270499D01*
X46028039Y-14270500D01*
X46028041Y-14270500D01*
X46171959Y-14270500D01*
X46171961Y-14270500D01*
X46255837Y-14245872D01*
X46316996Y-14247619D01*
X46365449Y-14284982D01*
X46380824Y-14321545D01*
X46386132Y-14348228D01*
X46386134Y-14348233D01*
X46416660Y-14393917D01*
X46430448Y-14414552D01*
X46496769Y-14458867D01*
X46541231Y-14467711D01*
X46555241Y-14470498D01*
X46555246Y-14470498D01*
X46555252Y-14470500D01*
X46555253Y-14470500D01*
X48594747Y-14470500D01*
X48594748Y-14470500D01*
X48653231Y-14458867D01*
X48719552Y-14414552D01*
X48763867Y-14348231D01*
X48775500Y-14289748D01*
X48775500Y-13250252D01*
X48763867Y-13191769D01*
X48719552Y-13125448D01*
X48719548Y-13125445D01*
X48653233Y-13081134D01*
X48653231Y-13081133D01*
X48653228Y-13081132D01*
X48653227Y-13081132D01*
X48594758Y-13069501D01*
X48594748Y-13069500D01*
X46555252Y-13069500D01*
X46555251Y-13069500D01*
X46555241Y-13069501D01*
X46496772Y-13081132D01*
X46496766Y-13081134D01*
X46430451Y-13125445D01*
X46430445Y-13125451D01*
X46386134Y-13191766D01*
X46386132Y-13191771D01*
X46380824Y-13218455D01*
X46350926Y-13271837D01*
X46295359Y-13297451D01*
X46255836Y-13294127D01*
X46171964Y-13269500D01*
X46171961Y-13269500D01*
X46028039Y-13269500D01*
X46028035Y-13269500D01*
X45889949Y-13310046D01*
X45889942Y-13310049D01*
X45768876Y-13387854D01*
X45768873Y-13387856D01*
X45768872Y-13387857D01*
X45742030Y-13418835D01*
X45727736Y-13435331D01*
X45675340Y-13466927D01*
X45652917Y-13469500D01*
X10071392Y-13469500D01*
X10017870Y-13453784D01*
X9929547Y-13397023D01*
X9929544Y-13397022D01*
X9791458Y-13356476D01*
X9791455Y-13356476D01*
X9647533Y-13356476D01*
X9647531Y-13356476D01*
X9647527Y-13356477D01*
X9602390Y-13369730D01*
X9541230Y-13367982D01*
X9492778Y-13330619D01*
X9475500Y-13274740D01*
X9475500Y-13250253D01*
X9475498Y-13250241D01*
X9469175Y-13218455D01*
X9463867Y-13191769D01*
X9419552Y-13125448D01*
X9419548Y-13125445D01*
X9353233Y-13081134D01*
X9353231Y-13081133D01*
X9353228Y-13081132D01*
X9353227Y-13081132D01*
X9294758Y-13069501D01*
X9294748Y-13069500D01*
X6755252Y-13069500D01*
X6755251Y-13069500D01*
X6755241Y-13069501D01*
X6696772Y-13081132D01*
X6696766Y-13081134D01*
X6630451Y-13125445D01*
X6630445Y-13125451D01*
X6586134Y-13191766D01*
X6586132Y-13191772D01*
X6574501Y-13250241D01*
X6574500Y-13250253D01*
X-500000Y-13250253D01*
X-500000Y-10710253D01*
X6574500Y-10710253D01*
X6574500Y-11749746D01*
X6574501Y-11749758D01*
X6586132Y-11808227D01*
X6586134Y-11808233D01*
X6630445Y-11874548D01*
X6630448Y-11874552D01*
X6696769Y-11918867D01*
X6741231Y-11927711D01*
X6755241Y-11930498D01*
X6755246Y-11930498D01*
X6755252Y-11930500D01*
X6755253Y-11930500D01*
X9294747Y-11930500D01*
X9294748Y-11930500D01*
X9353231Y-11918867D01*
X9394058Y-11891586D01*
X9452945Y-11874977D01*
X9510349Y-11896153D01*
X9523880Y-11909071D01*
X9542446Y-11930498D01*
X9543872Y-11932143D01*
X9664947Y-12009953D01*
X9771403Y-12041211D01*
X9803035Y-12050499D01*
X9803036Y-12050499D01*
X9803039Y-12050500D01*
X9803041Y-12050500D01*
X9909521Y-12050500D01*
X9967712Y-12069407D01*
X9979525Y-12079496D01*
X10684540Y-12784511D01*
X10684539Y-12784511D01*
X10740489Y-12840460D01*
X10809007Y-12880019D01*
X10809011Y-12880021D01*
X10885435Y-12900499D01*
X10885437Y-12900500D01*
X10885438Y-12900500D01*
X10964562Y-12900500D01*
X32503662Y-12900500D01*
X32531551Y-12904509D01*
X32603039Y-12925500D01*
X32603040Y-12925500D01*
X32746960Y-12925500D01*
X32746961Y-12925500D01*
X32818448Y-12904509D01*
X32846338Y-12900500D01*
X41114563Y-12900500D01*
X41114563Y-12900499D01*
X41190989Y-12880021D01*
X41259511Y-12840460D01*
X41315460Y-12784511D01*
X42540475Y-11559496D01*
X42594992Y-11531719D01*
X42610479Y-11530500D01*
X46275500Y-11530500D01*
X46333691Y-11549407D01*
X46369655Y-11598907D01*
X46374500Y-11629500D01*
X46374500Y-11749746D01*
X46374501Y-11749758D01*
X46386132Y-11808227D01*
X46386134Y-11808233D01*
X46430445Y-11874548D01*
X46430448Y-11874552D01*
X46496769Y-11918867D01*
X46541231Y-11927711D01*
X46555241Y-11930498D01*
X46555246Y-11930498D01*
X46555252Y-11930500D01*
X46555253Y-11930500D01*
X48594747Y-11930500D01*
X48594748Y-11930500D01*
X48653231Y-11918867D01*
X48719552Y-11874552D01*
X48763867Y-11808231D01*
X48775500Y-11749748D01*
X48775500Y-11629500D01*
X48794407Y-11571309D01*
X48843907Y-11535345D01*
X48874500Y-11530500D01*
X49439521Y-11530500D01*
X49497712Y-11549407D01*
X49509525Y-11559496D01*
X49870504Y-11920475D01*
X49898281Y-11974992D01*
X49899500Y-11990479D01*
X49899500Y-13496105D01*
X49880593Y-13554296D01*
X49873258Y-13562289D01*
X49873509Y-13562506D01*
X49774622Y-13676628D01*
X49714834Y-13807543D01*
X49694353Y-13949997D01*
X49694353Y-13950002D01*
X49714834Y-14092456D01*
X49774622Y-14223371D01*
X49774623Y-14223373D01*
X49868201Y-14331369D01*
X49868873Y-14332144D01*
X49908289Y-14357475D01*
X49989947Y-14409953D01*
X50058062Y-14429953D01*
X50128035Y-14450499D01*
X50128036Y-14450499D01*
X50128039Y-14450500D01*
X50128041Y-14450500D01*
X50271959Y-14450500D01*
X50271961Y-14450500D01*
X50372610Y-14420947D01*
X50433769Y-14422694D01*
X50482222Y-14460057D01*
X50499500Y-14515937D01*
X50499500Y-17559521D01*
X50480593Y-17617712D01*
X50470504Y-17629525D01*
X48944504Y-19155525D01*
X48889987Y-19183302D01*
X48829555Y-19173731D01*
X48786290Y-19130466D01*
X48775500Y-19085521D01*
X48775500Y-18330253D01*
X48775498Y-18330241D01*
X48768372Y-18294418D01*
X48763867Y-18271769D01*
X48719552Y-18205448D01*
X48719548Y-18205445D01*
X48653233Y-18161134D01*
X48653231Y-18161133D01*
X48653228Y-18161132D01*
X48653227Y-18161132D01*
X48594758Y-18149501D01*
X48594748Y-18149500D01*
X46555252Y-18149500D01*
X46555251Y-18149500D01*
X46555241Y-18149501D01*
X46496772Y-18161132D01*
X46496766Y-18161134D01*
X46430451Y-18205445D01*
X46430444Y-18205452D01*
X46381021Y-18279417D01*
X46332971Y-18317296D01*
X46271833Y-18319697D01*
X46228703Y-18294418D01*
X44944783Y-17010498D01*
X43641230Y-15706945D01*
X43626196Y-15677439D01*
X43593649Y-15659364D01*
X43468825Y-15534540D01*
X43468822Y-15534538D01*
X43452073Y-15524868D01*
X43452072Y-15524868D01*
X43400304Y-15494979D01*
X43400303Y-15494978D01*
X43400302Y-15494978D01*
X43323876Y-15474500D01*
X14814562Y-15474500D01*
X14330248Y-15474500D01*
X14251124Y-15474500D01*
X14204347Y-15487033D01*
X14174693Y-15494979D01*
X14106179Y-15534536D01*
X11120211Y-18520504D01*
X11065694Y-18548281D01*
X11050207Y-18549500D01*
X10522083Y-18549500D01*
X10463892Y-18530593D01*
X10447264Y-18515331D01*
X10406128Y-18467857D01*
X10363116Y-18440215D01*
X10285057Y-18390049D01*
X10285054Y-18390047D01*
X10285053Y-18390047D01*
X10285050Y-18390046D01*
X10146964Y-18349500D01*
X10146961Y-18349500D01*
X10003039Y-18349500D01*
X10003035Y-18349500D01*
X9864949Y-18390046D01*
X9864942Y-18390049D01*
X9743876Y-18467854D01*
X9743871Y-18467858D01*
X9702736Y-18515331D01*
X9650340Y-18546927D01*
X9627917Y-18549500D01*
X9574500Y-18549500D01*
X9516309Y-18530593D01*
X9480345Y-18481093D01*
X9475500Y-18450500D01*
X9475500Y-18330253D01*
X9475498Y-18330241D01*
X9468372Y-18294418D01*
X9463867Y-18271769D01*
X9419552Y-18205448D01*
X9419548Y-18205445D01*
X9353233Y-18161134D01*
X9353231Y-18161133D01*
X9353228Y-18161132D01*
X9353227Y-18161132D01*
X9294758Y-18149501D01*
X9294748Y-18149500D01*
X6755252Y-18149500D01*
X6755251Y-18149500D01*
X6755241Y-18149501D01*
X6696772Y-18161132D01*
X6696766Y-18161134D01*
X6630451Y-18205445D01*
X6630445Y-18205451D01*
X6586134Y-18271766D01*
X6586132Y-18271772D01*
X6574501Y-18330241D01*
X6574500Y-18330253D01*
X6574500Y-19369746D01*
X6574501Y-19369758D01*
X6586132Y-19428227D01*
X6586133Y-19428231D01*
X6630448Y-19494552D01*
X6696769Y-19538867D01*
X6741231Y-19547711D01*
X6755241Y-19550498D01*
X6755246Y-19550498D01*
X6755252Y-19550500D01*
X6755253Y-19550500D01*
X9294747Y-19550500D01*
X9294748Y-19550500D01*
X9353231Y-19538867D01*
X9419552Y-19494552D01*
X9463867Y-19428231D01*
X9475500Y-19369748D01*
X9475500Y-19249500D01*
X9494407Y-19191309D01*
X9543907Y-19155345D01*
X9574500Y-19150500D01*
X9627917Y-19150500D01*
X9686108Y-19169407D01*
X9702733Y-19184667D01*
X9743872Y-19232143D01*
X9864947Y-19309953D01*
X9971403Y-19341211D01*
X10003035Y-19350499D01*
X10003036Y-19350499D01*
X10003039Y-19350500D01*
X10003041Y-19350500D01*
X10146959Y-19350500D01*
X10146961Y-19350500D01*
X10285053Y-19309953D01*
X10406128Y-19232143D01*
X10447264Y-19184668D01*
X10499660Y-19153073D01*
X10522083Y-19150500D01*
X11255249Y-19150500D01*
X11255249Y-19150499D01*
X11331675Y-19130021D01*
X11400197Y-19090460D01*
X11456146Y-19034511D01*
X14305496Y-16185161D01*
X14360013Y-16157384D01*
X14420445Y-16166955D01*
X14463710Y-16210220D01*
X14474500Y-16255165D01*
X14474500Y-16607139D01*
X14455593Y-16665330D01*
X14450321Y-16671968D01*
X14424623Y-16701626D01*
X14364834Y-16832543D01*
X14344353Y-16974997D01*
X14344353Y-16975002D01*
X14364834Y-17117456D01*
X14424622Y-17248371D01*
X14424623Y-17248373D01*
X14518872Y-17357143D01*
X14518873Y-17357144D01*
X14639942Y-17434950D01*
X14639947Y-17434953D01*
X14746403Y-17466211D01*
X14778035Y-17475499D01*
X14778036Y-17475499D01*
X14778039Y-17475500D01*
X14778041Y-17475500D01*
X14921959Y-17475500D01*
X14921961Y-17475500D01*
X15060053Y-17434953D01*
X15181128Y-17357143D01*
X15275377Y-17248373D01*
X15335165Y-17117457D01*
X15350543Y-17010498D01*
X15355647Y-16975002D01*
X15355647Y-16974997D01*
X15335165Y-16832543D01*
X15333888Y-16829746D01*
X15275377Y-16701627D01*
X15181128Y-16592857D01*
X15181127Y-16592856D01*
X15181126Y-16592855D01*
X15120977Y-16554200D01*
X15082245Y-16506834D01*
X15075500Y-16470916D01*
X15075500Y-16174500D01*
X15094407Y-16116309D01*
X15143907Y-16080345D01*
X15174500Y-16075500D01*
X42332051Y-16075500D01*
X42390242Y-16094407D01*
X42422103Y-16133371D01*
X42474623Y-16248373D01*
X42568872Y-16357143D01*
X42568873Y-16357144D01*
X42689942Y-16434950D01*
X42689947Y-16434953D01*
X42796403Y-16466211D01*
X42828035Y-16475499D01*
X42828036Y-16475499D01*
X42828039Y-16475500D01*
X42828041Y-16475500D01*
X42971959Y-16475500D01*
X42971961Y-16475500D01*
X43110053Y-16434953D01*
X43231128Y-16357143D01*
X43259151Y-16324801D01*
X43311544Y-16293207D01*
X43372505Y-16298442D01*
X43403973Y-16319630D01*
X46174803Y-19090460D01*
X46174805Y-19090461D01*
X46174806Y-19090462D01*
X46174807Y-19090463D01*
X46243322Y-19130020D01*
X46243323Y-19130021D01*
X46243325Y-19130021D01*
X46243326Y-19130022D01*
X46301123Y-19145508D01*
X46352436Y-19178830D01*
X46374364Y-19235951D01*
X46374500Y-19241134D01*
X46374500Y-19369746D01*
X46374501Y-19369758D01*
X46386132Y-19428227D01*
X46386133Y-19428231D01*
X46430448Y-19494552D01*
X46496769Y-19538867D01*
X46541231Y-19547711D01*
X46555241Y-19550498D01*
X46555246Y-19550498D01*
X46555252Y-19550500D01*
X48310521Y-19550500D01*
X48368712Y-19569407D01*
X48404676Y-19618907D01*
X48404676Y-19680093D01*
X48380525Y-19719504D01*
X44204525Y-23895504D01*
X44150008Y-23923281D01*
X44134521Y-23924500D01*
X16240479Y-23924500D01*
X16182288Y-23905593D01*
X16170475Y-23895504D01*
X15234511Y-22959540D01*
X13674971Y-21400000D01*
X12009511Y-19734540D01*
X12009508Y-19734538D01*
X11940992Y-19694980D01*
X11940988Y-19694978D01*
X11864564Y-19674500D01*
X11864562Y-19674500D01*
X11097083Y-19674500D01*
X11038892Y-19655593D01*
X11022264Y-19640331D01*
X11003700Y-19618907D01*
X10981128Y-19592857D01*
X10897115Y-19538865D01*
X10860057Y-19515049D01*
X10860054Y-19515047D01*
X10860053Y-19515047D01*
X10860050Y-19515046D01*
X10721964Y-19474500D01*
X10721961Y-19474500D01*
X10578039Y-19474500D01*
X10578035Y-19474500D01*
X10439949Y-19515046D01*
X10439942Y-19515049D01*
X10318873Y-19592855D01*
X10224622Y-19701628D01*
X10164834Y-19832543D01*
X10144353Y-19974997D01*
X10144353Y-19975002D01*
X10164834Y-20117456D01*
X10224622Y-20248371D01*
X10224623Y-20248373D01*
X10277736Y-20309669D01*
X10318873Y-20357144D01*
X10318875Y-20357145D01*
X10439947Y-20434953D01*
X10546403Y-20466211D01*
X10578035Y-20475499D01*
X10578036Y-20475499D01*
X10578039Y-20475500D01*
X10578041Y-20475500D01*
X10721959Y-20475500D01*
X10721961Y-20475500D01*
X10860053Y-20434953D01*
X10981128Y-20357143D01*
X11022264Y-20309668D01*
X11074660Y-20278073D01*
X11097083Y-20275500D01*
X11659521Y-20275500D01*
X11717712Y-20294407D01*
X11729525Y-20304496D01*
X15834540Y-24409511D01*
X15834539Y-24409511D01*
X15890489Y-24465460D01*
X15959007Y-24505019D01*
X15959011Y-24505021D01*
X16035435Y-24525499D01*
X16035437Y-24525500D01*
X16035438Y-24525500D01*
X44339563Y-24525500D01*
X44339563Y-24525499D01*
X44415989Y-24505021D01*
X44484511Y-24465460D01*
X44540460Y-24409511D01*
X47766955Y-21183014D01*
X47821470Y-21155239D01*
X47881902Y-21164810D01*
X47925167Y-21208075D01*
X47934949Y-21238930D01*
X47949834Y-21342456D01*
X48009622Y-21473370D01*
X48009623Y-21473373D01*
X48103872Y-21582143D01*
X48103873Y-21582144D01*
X48224942Y-21659950D01*
X48224947Y-21659953D01*
X48331403Y-21691211D01*
X48363035Y-21700499D01*
X48363036Y-21700499D01*
X48363039Y-21700500D01*
X48363041Y-21700500D01*
X48506959Y-21700500D01*
X48506961Y-21700500D01*
X48645053Y-21659953D01*
X48766128Y-21582143D01*
X48860377Y-21473373D01*
X48920165Y-21342457D01*
X48925757Y-21303560D01*
X48952749Y-21248656D01*
X48953611Y-21247780D01*
X51745910Y-18455481D01*
X51745913Y-18455480D01*
X51820480Y-18380913D01*
X51873207Y-18289587D01*
X51877981Y-18271769D01*
X51900501Y-18187727D01*
X51900501Y-18082273D01*
X51900501Y-18076211D01*
X51900500Y-18076193D01*
X51900500Y-15639008D01*
X51919407Y-15580817D01*
X51924684Y-15574173D01*
X51924807Y-15574029D01*
X51925377Y-15573373D01*
X51985165Y-15442457D01*
X52000212Y-15337800D01*
X52005647Y-15300002D01*
X52005647Y-15299997D01*
X51985165Y-15157543D01*
X51925795Y-15027543D01*
X51925377Y-15026627D01*
X51924679Y-15025821D01*
X51924332Y-15025001D01*
X51921549Y-15020670D01*
X51922298Y-15020188D01*
X51900863Y-14969461D01*
X51900500Y-14960992D01*
X51900500Y-9297274D01*
X51895398Y-9278233D01*
X51873207Y-9195413D01*
X51820480Y-9104087D01*
X51745913Y-9029520D01*
X51690371Y-8997453D01*
X51654589Y-8976794D01*
X51654588Y-8976793D01*
X51654587Y-8976793D01*
X51552727Y-8949500D01*
X51552725Y-8949500D01*
X50981899Y-8949500D01*
X50923708Y-8930593D01*
X50911895Y-8920503D01*
X50481245Y-8489852D01*
X50453468Y-8435336D01*
X50453268Y-8434020D01*
X50447665Y-8395043D01*
X50432230Y-8361246D01*
X50387878Y-8264129D01*
X50387877Y-8264128D01*
X50387877Y-8264127D01*
X50293628Y-8155357D01*
X50293627Y-8155356D01*
X50293626Y-8155355D01*
X50172557Y-8077549D01*
X50172554Y-8077548D01*
X50172553Y-8077547D01*
X50118854Y-8061780D01*
X50050115Y-8041596D01*
X50008003Y-8016610D01*
X48793943Y-6802550D01*
X48766166Y-6748033D01*
X48766849Y-6713235D01*
X48775500Y-6669748D01*
X48775500Y-5630252D01*
X48763867Y-5571769D01*
X48719552Y-5505448D01*
X48695915Y-5489654D01*
X48653233Y-5461134D01*
X48653231Y-5461133D01*
X48653228Y-5461132D01*
X48653227Y-5461132D01*
X48594758Y-5449501D01*
X48594748Y-5449500D01*
X48594747Y-5449500D01*
X47471066Y-5449500D01*
X47421566Y-5436236D01*
X47344591Y-5391794D01*
X47344593Y-5391794D01*
X47304475Y-5381045D01*
X47242727Y-5364500D01*
X47242725Y-5364500D01*
X43036416Y-5364500D01*
X42978225Y-5345593D01*
X42949106Y-5312169D01*
X42901736Y-5223547D01*
X42877685Y-5178550D01*
X42869771Y-5168907D01*
X42746414Y-5018595D01*
X42746410Y-5018590D01*
X42699399Y-4980009D01*
X42586452Y-4887316D01*
X42403954Y-4789768D01*
X42253671Y-4744180D01*
X42203474Y-4709195D01*
X42183428Y-4651387D01*
X42201189Y-4592836D01*
X42249974Y-4555907D01*
X42256786Y-4553816D01*
X42463490Y-4498430D01*
X42677577Y-4398600D01*
X42871073Y-4263113D01*
X43038113Y-4096073D01*
X43173600Y-3902577D01*
X43273430Y-3688489D01*
X43330636Y-3475000D01*
X42433012Y-3475000D01*
X42465925Y-3417993D01*
X42500000Y-3290826D01*
X42500000Y-3159174D01*
X42465925Y-3032007D01*
X42433012Y-2975000D01*
X43330636Y-2975000D01*
X43273429Y-2761505D01*
X43173605Y-2547432D01*
X43173601Y-2547424D01*
X43038113Y-2353926D01*
X42871073Y-2186886D01*
X42677577Y-2051399D01*
X42463489Y-1951569D01*
X42250000Y-1894364D01*
X42250000Y-2791988D01*
X42192993Y-2759075D01*
X42065826Y-2725000D01*
X41934174Y-2725000D01*
X41807007Y-2759075D01*
X41750000Y-2791988D01*
X41750000Y-1894364D01*
X41536505Y-1951570D01*
X41322432Y-2051394D01*
X41322424Y-2051398D01*
X41128926Y-2186886D01*
X40961886Y-2353926D01*
X40826398Y-2547424D01*
X40826394Y-2547432D01*
X40726570Y-2761505D01*
X40669364Y-2975000D01*
X41566988Y-2975000D01*
X41534075Y-3032007D01*
X41500000Y-3159174D01*
X41500000Y-3290826D01*
X41534075Y-3417993D01*
X41566988Y-3475000D01*
X40669364Y-3475000D01*
X40726569Y-3688489D01*
X40826399Y-3902577D01*
X40961886Y-4096073D01*
X41128926Y-4263113D01*
X41322422Y-4398600D01*
X41536509Y-4498430D01*
X41743213Y-4553816D01*
X41794527Y-4587140D01*
X41816454Y-4644261D01*
X41800619Y-4703362D01*
X41753069Y-4741867D01*
X41746329Y-4744180D01*
X41680399Y-4764180D01*
X41596046Y-4789768D01*
X41596044Y-4789768D01*
X41596044Y-4789769D01*
X41413547Y-4887316D01*
X41253595Y-5018585D01*
X41253585Y-5018595D01*
X41122316Y-5178547D01*
X41024768Y-5361045D01*
X40964699Y-5559065D01*
X40964698Y-5559070D01*
X40944417Y-5764996D01*
X40944417Y-5765003D01*
X40964698Y-5970929D01*
X40964699Y-5970934D01*
X41024768Y-6168954D01*
X41122316Y-6351452D01*
X41253585Y-6511404D01*
X41253590Y-6511410D01*
X41253595Y-6511414D01*
X41413547Y-6642683D01*
X41413548Y-6642683D01*
X41413550Y-6642685D01*
X41596046Y-6740232D01*
X41733997Y-6782078D01*
X41794065Y-6800300D01*
X41794070Y-6800301D01*
X41999997Y-6820583D01*
X42000000Y-6820583D01*
X42000003Y-6820583D01*
X42205929Y-6800301D01*
X42205934Y-6800300D01*
X42224896Y-6794548D01*
X42403954Y-6740232D01*
X42586450Y-6642685D01*
X42746410Y-6511410D01*
X42877685Y-6351450D01*
X42949106Y-6217830D01*
X42993212Y-6175425D01*
X43036416Y-6165500D01*
X46275500Y-6165500D01*
X46333691Y-6184407D01*
X46369655Y-6233907D01*
X46374500Y-6264500D01*
X46374500Y-6669746D01*
X46374501Y-6669758D01*
X46386132Y-6728227D01*
X46386134Y-6728233D01*
X46424220Y-6785232D01*
X46430448Y-6794552D01*
X46496769Y-6838867D01*
X46541231Y-6847711D01*
X46555241Y-6850498D01*
X46555246Y-6850498D01*
X46555252Y-6850500D01*
X47668099Y-6850500D01*
X47726290Y-6869407D01*
X47738103Y-6879496D01*
X48379603Y-7520996D01*
X48407380Y-7575513D01*
X48397809Y-7635945D01*
X48354544Y-7679210D01*
X48309599Y-7690000D01*
X47825001Y-7690000D01*
X47825000Y-7690001D01*
X47825000Y-8439999D01*
X47825001Y-8440000D01*
X49074999Y-8440000D01*
X49082412Y-8432586D01*
X49093907Y-8397210D01*
X49143407Y-8361246D01*
X49204593Y-8361246D01*
X49244004Y-8385397D01*
X49443754Y-8585147D01*
X49471531Y-8639664D01*
X49471742Y-8641062D01*
X49477334Y-8679956D01*
X49490556Y-8708907D01*
X49537123Y-8810873D01*
X49631372Y-8919643D01*
X49631373Y-8919644D01*
X49720299Y-8976793D01*
X49752447Y-8997453D01*
X49874883Y-9033403D01*
X49916996Y-9058389D01*
X50202473Y-9343865D01*
X50454518Y-9595910D01*
X50454520Y-9595913D01*
X50529087Y-9670480D01*
X50529089Y-9670481D01*
X50620407Y-9723204D01*
X50620408Y-9723204D01*
X50620413Y-9723207D01*
X50722274Y-9750501D01*
X50722276Y-9750501D01*
X50833790Y-9750501D01*
X50833806Y-9750500D01*
X51000500Y-9750500D01*
X51058691Y-9769407D01*
X51094655Y-9818907D01*
X51099500Y-9849500D01*
X51099500Y-10284062D01*
X51080593Y-10342253D01*
X51031093Y-10378217D01*
X50972609Y-10379052D01*
X50871964Y-10349500D01*
X50871961Y-10349500D01*
X50728039Y-10349500D01*
X50728035Y-10349500D01*
X50589949Y-10390046D01*
X50589942Y-10390049D01*
X50468873Y-10467855D01*
X50374622Y-10576628D01*
X50314834Y-10707543D01*
X50294353Y-10849997D01*
X50294353Y-10850002D01*
X50314834Y-10992456D01*
X50374623Y-11123373D01*
X50473509Y-11237494D01*
X50471471Y-11239259D01*
X50496925Y-11281458D01*
X50499500Y-11303893D01*
X50499500Y-11460521D01*
X50480593Y-11518712D01*
X50431093Y-11554676D01*
X50369907Y-11554676D01*
X50330496Y-11530525D01*
X50076598Y-11276627D01*
X49789511Y-10989540D01*
X49789508Y-10989538D01*
X49720992Y-10949980D01*
X49720988Y-10949978D01*
X49644564Y-10929500D01*
X49644562Y-10929500D01*
X48874500Y-10929500D01*
X48816309Y-10910593D01*
X48780345Y-10861093D01*
X48775500Y-10830500D01*
X48775500Y-10710253D01*
X48775498Y-10710241D01*
X48772711Y-10696231D01*
X48763867Y-10651769D01*
X48719552Y-10585448D01*
X48719548Y-10585445D01*
X48653233Y-10541134D01*
X48653231Y-10541133D01*
X48653228Y-10541132D01*
X48653227Y-10541132D01*
X48594758Y-10529501D01*
X48594748Y-10529500D01*
X46555252Y-10529500D01*
X46555251Y-10529500D01*
X46555241Y-10529501D01*
X46496772Y-10541132D01*
X46496766Y-10541134D01*
X46430451Y-10585445D01*
X46430445Y-10585451D01*
X46386134Y-10651766D01*
X46386132Y-10651772D01*
X46374501Y-10710241D01*
X46374500Y-10710253D01*
X46374500Y-10830500D01*
X46355593Y-10888691D01*
X46306093Y-10924655D01*
X46275500Y-10929500D01*
X42484562Y-10929500D01*
X42405438Y-10929500D01*
X42358661Y-10942033D01*
X42329007Y-10949979D01*
X42260493Y-10989536D01*
X40979525Y-12270504D01*
X40925008Y-12298281D01*
X40909521Y-12299500D01*
X33231532Y-12299500D01*
X33173341Y-12280593D01*
X33141479Y-12241626D01*
X33100378Y-12151629D01*
X33100377Y-12151628D01*
X33100377Y-12151627D01*
X33006128Y-12042857D01*
X33006127Y-12042856D01*
X33006126Y-12042855D01*
X32885057Y-11965049D01*
X32885054Y-11965047D01*
X32885053Y-11965047D01*
X32885050Y-11965046D01*
X32746964Y-11924500D01*
X32746961Y-11924500D01*
X32603039Y-11924500D01*
X32603035Y-11924500D01*
X32464949Y-11965046D01*
X32464942Y-11965049D01*
X32343873Y-12042855D01*
X32249621Y-12151629D01*
X32208521Y-12241626D01*
X32167149Y-12286704D01*
X32118468Y-12299500D01*
X11090479Y-12299500D01*
X11032288Y-12280593D01*
X11020475Y-12270504D01*
X10405546Y-11655575D01*
X10377769Y-11601058D01*
X10377558Y-11571482D01*
X10380647Y-11550000D01*
X10377843Y-11530500D01*
X10360165Y-11407543D01*
X10300377Y-11276628D01*
X10300377Y-11276627D01*
X10206128Y-11167857D01*
X10206127Y-11167856D01*
X10206126Y-11167855D01*
X10085057Y-11090049D01*
X10085054Y-11090047D01*
X10085053Y-11090047D01*
X10085050Y-11090046D01*
X9946964Y-11049500D01*
X9946961Y-11049500D01*
X9840479Y-11049500D01*
X9782288Y-11030593D01*
X9770476Y-11020505D01*
X9739511Y-10989540D01*
X9739508Y-10989538D01*
X9670992Y-10949980D01*
X9670988Y-10949978D01*
X9594564Y-10929500D01*
X9594562Y-10929500D01*
X9574500Y-10929500D01*
X9516309Y-10910593D01*
X9480345Y-10861093D01*
X9475500Y-10830500D01*
X9475500Y-10710253D01*
X9475498Y-10710241D01*
X9472711Y-10696231D01*
X9463867Y-10651769D01*
X9419552Y-10585448D01*
X9419548Y-10585445D01*
X9353233Y-10541134D01*
X9353231Y-10541133D01*
X9353228Y-10541132D01*
X9353227Y-10541132D01*
X9294758Y-10529501D01*
X9294748Y-10529500D01*
X6755252Y-10529500D01*
X6755251Y-10529500D01*
X6755241Y-10529501D01*
X6696772Y-10541132D01*
X6696766Y-10541134D01*
X6630451Y-10585445D01*
X6630445Y-10585451D01*
X6586134Y-10651766D01*
X6586132Y-10651772D01*
X6574501Y-10710241D01*
X6574500Y-10710253D01*
X-500000Y-10710253D01*
X-500000Y-9237824D01*
X6274999Y-9237824D01*
X6281401Y-9297370D01*
X6281403Y-9297381D01*
X6331646Y-9432088D01*
X6331647Y-9432090D01*
X6417807Y-9547184D01*
X6417815Y-9547192D01*
X6532909Y-9633352D01*
X6532911Y-9633353D01*
X6667618Y-9683596D01*
X6667629Y-9683598D01*
X6727176Y-9690000D01*
X7774999Y-9690000D01*
X7775000Y-9689999D01*
X7775000Y-8940001D01*
X7774999Y-8940000D01*
X6275001Y-8940000D01*
X6275000Y-8940001D01*
X6275000Y-9237824D01*
X6274999Y-9237824D01*
X-500000Y-9237824D01*
X-500000Y-8142175D01*
X6275000Y-8142175D01*
X6275000Y-8439999D01*
X6275001Y-8440000D01*
X7926000Y-8440000D01*
X7984191Y-8458907D01*
X8020155Y-8508407D01*
X8025000Y-8539000D01*
X8025000Y-8689999D01*
X8025001Y-8690000D01*
X8176000Y-8690000D01*
X8234191Y-8708907D01*
X8270155Y-8758407D01*
X8275000Y-8789000D01*
X8275000Y-9689999D01*
X8275001Y-9690000D01*
X9322824Y-9690000D01*
X9382370Y-9683598D01*
X9382381Y-9683596D01*
X9517088Y-9633353D01*
X9517090Y-9633352D01*
X9632184Y-9547192D01*
X9632189Y-9547187D01*
X9712304Y-9440170D01*
X9762313Y-9404918D01*
X9791557Y-9400500D01*
X11369747Y-9400500D01*
X11369748Y-9400500D01*
X11428231Y-9388867D01*
X11494552Y-9344552D01*
X11538867Y-9278231D01*
X11550500Y-9219748D01*
X11550500Y-7480253D01*
X13949500Y-7480253D01*
X13949500Y-9219746D01*
X13949501Y-9219758D01*
X13961132Y-9278227D01*
X13961134Y-9278233D01*
X14004989Y-9343865D01*
X14005448Y-9344552D01*
X14071769Y-9388867D01*
X14116231Y-9397711D01*
X14130241Y-9400498D01*
X14130246Y-9400498D01*
X14130252Y-9400500D01*
X14130253Y-9400500D01*
X15869747Y-9400500D01*
X15869748Y-9400500D01*
X15928231Y-9388867D01*
X15994552Y-9344552D01*
X16038867Y-9278231D01*
X16050500Y-9219748D01*
X16050500Y-7480253D01*
X18449500Y-7480253D01*
X18449500Y-9219746D01*
X18449501Y-9219758D01*
X18461132Y-9278227D01*
X18461134Y-9278233D01*
X18504989Y-9343865D01*
X18505448Y-9344552D01*
X18571769Y-9388867D01*
X18616231Y-9397711D01*
X18630241Y-9400498D01*
X18630246Y-9400498D01*
X18630252Y-9400500D01*
X18630253Y-9400500D01*
X20369747Y-9400500D01*
X20369748Y-9400500D01*
X20428231Y-9388867D01*
X20494552Y-9344552D01*
X20538867Y-9278231D01*
X20550500Y-9219748D01*
X20550500Y-7480253D01*
X22949500Y-7480253D01*
X22949500Y-9219746D01*
X22949501Y-9219758D01*
X22961132Y-9278227D01*
X22961134Y-9278233D01*
X23004989Y-9343865D01*
X23005448Y-9344552D01*
X23071769Y-9388867D01*
X23116231Y-9397711D01*
X23130241Y-9400498D01*
X23130246Y-9400498D01*
X23130252Y-9400500D01*
X23130253Y-9400500D01*
X24869747Y-9400500D01*
X24869748Y-9400500D01*
X24928231Y-9388867D01*
X24994552Y-9344552D01*
X25038867Y-9278231D01*
X25050500Y-9219748D01*
X25050500Y-7480253D01*
X27449500Y-7480253D01*
X27449500Y-9219746D01*
X27449501Y-9219758D01*
X27461132Y-9278227D01*
X27461134Y-9278233D01*
X27504989Y-9343865D01*
X27505448Y-9344552D01*
X27571769Y-9388867D01*
X27616231Y-9397711D01*
X27630241Y-9400498D01*
X27630246Y-9400498D01*
X27630252Y-9400500D01*
X27630253Y-9400500D01*
X29369747Y-9400500D01*
X29369748Y-9400500D01*
X29428231Y-9388867D01*
X29494552Y-9344552D01*
X29538867Y-9278231D01*
X29550500Y-9219748D01*
X29550500Y-7480253D01*
X31949500Y-7480253D01*
X31949500Y-9219746D01*
X31949501Y-9219758D01*
X31961132Y-9278227D01*
X31961134Y-9278233D01*
X32004989Y-9343865D01*
X32005448Y-9344552D01*
X32071769Y-9388867D01*
X32116231Y-9397711D01*
X32130241Y-9400498D01*
X32130246Y-9400498D01*
X32130252Y-9400500D01*
X32130253Y-9400500D01*
X33869747Y-9400500D01*
X33869748Y-9400500D01*
X33928231Y-9388867D01*
X33994552Y-9344552D01*
X34038867Y-9278231D01*
X34050500Y-9219748D01*
X34050500Y-7480252D01*
X34045527Y-7455253D01*
X36449500Y-7455253D01*
X36449500Y-9194746D01*
X36449501Y-9194758D01*
X36461132Y-9253227D01*
X36461134Y-9253233D01*
X36505445Y-9319548D01*
X36505448Y-9319552D01*
X36571769Y-9363867D01*
X36616231Y-9372711D01*
X36630241Y-9375498D01*
X36630246Y-9375498D01*
X36630252Y-9375500D01*
X36630253Y-9375500D01*
X38369747Y-9375500D01*
X38369748Y-9375500D01*
X38428231Y-9363867D01*
X38494552Y-9319552D01*
X38538867Y-9253231D01*
X38550500Y-9194748D01*
X38550500Y-7455252D01*
X38546522Y-7435253D01*
X40949500Y-7435253D01*
X40949500Y-9174746D01*
X40949501Y-9174758D01*
X40961132Y-9233227D01*
X40961134Y-9233233D01*
X40991203Y-9278233D01*
X41005448Y-9299552D01*
X41071769Y-9343867D01*
X41116231Y-9352711D01*
X41130241Y-9355498D01*
X41130246Y-9355498D01*
X41130252Y-9355500D01*
X41130253Y-9355500D01*
X42869747Y-9355500D01*
X42869748Y-9355500D01*
X42928231Y-9343867D01*
X42994552Y-9299552D01*
X43035798Y-9237824D01*
X46074999Y-9237824D01*
X46081401Y-9297370D01*
X46081403Y-9297381D01*
X46131646Y-9432088D01*
X46131647Y-9432090D01*
X46217807Y-9547184D01*
X46217815Y-9547192D01*
X46332909Y-9633352D01*
X46332911Y-9633353D01*
X46467618Y-9683596D01*
X46467629Y-9683598D01*
X46527176Y-9690000D01*
X47324999Y-9690000D01*
X47325000Y-9689999D01*
X47325000Y-8940001D01*
X47825000Y-8940001D01*
X47825000Y-9689999D01*
X47825001Y-9690000D01*
X48622824Y-9690000D01*
X48682370Y-9683598D01*
X48682381Y-9683596D01*
X48817088Y-9633353D01*
X48817090Y-9633352D01*
X48932184Y-9547192D01*
X48932192Y-9547184D01*
X49018352Y-9432090D01*
X49018353Y-9432088D01*
X49068596Y-9297381D01*
X49068598Y-9297370D01*
X49075000Y-9237824D01*
X49075000Y-8940001D01*
X49074999Y-8940000D01*
X47825001Y-8940000D01*
X47825000Y-8940001D01*
X47325000Y-8940001D01*
X47324999Y-8940000D01*
X46075001Y-8940000D01*
X46075000Y-8940001D01*
X46075000Y-9237824D01*
X46074999Y-9237824D01*
X43035798Y-9237824D01*
X43038867Y-9233231D01*
X43050500Y-9174748D01*
X43050500Y-8142175D01*
X46075000Y-8142175D01*
X46075000Y-8439999D01*
X46075001Y-8440000D01*
X47324999Y-8440000D01*
X47325000Y-8439999D01*
X47325000Y-7690001D01*
X47324999Y-7690000D01*
X46527176Y-7690000D01*
X46467629Y-7696401D01*
X46467618Y-7696403D01*
X46332911Y-7746646D01*
X46332909Y-7746647D01*
X46217815Y-7832807D01*
X46217807Y-7832815D01*
X46131647Y-7947909D01*
X46131646Y-7947911D01*
X46081403Y-8082618D01*
X46081401Y-8082629D01*
X46075000Y-8142175D01*
X43050500Y-8142175D01*
X43050500Y-7435252D01*
X43038867Y-7376769D01*
X42994552Y-7310448D01*
X42978169Y-7299501D01*
X42928233Y-7266134D01*
X42928231Y-7266133D01*
X42928228Y-7266132D01*
X42928227Y-7266132D01*
X42869758Y-7254501D01*
X42869748Y-7254500D01*
X41130252Y-7254500D01*
X41130251Y-7254500D01*
X41130241Y-7254501D01*
X41071772Y-7266132D01*
X41071766Y-7266134D01*
X41005451Y-7310445D01*
X41005445Y-7310451D01*
X40961134Y-7376766D01*
X40961132Y-7376772D01*
X40949501Y-7435241D01*
X40949500Y-7435253D01*
X38546522Y-7435253D01*
X38538867Y-7396769D01*
X38494552Y-7330448D01*
X38494548Y-7330445D01*
X38428233Y-7286134D01*
X38428231Y-7286133D01*
X38428228Y-7286132D01*
X38428227Y-7286132D01*
X38369758Y-7274501D01*
X38369748Y-7274500D01*
X36630252Y-7274500D01*
X36630251Y-7274500D01*
X36630241Y-7274501D01*
X36571772Y-7286132D01*
X36571766Y-7286134D01*
X36505451Y-7330445D01*
X36505445Y-7330451D01*
X36461134Y-7396766D01*
X36461132Y-7396772D01*
X36449501Y-7455241D01*
X36449500Y-7455253D01*
X34045527Y-7455253D01*
X34038867Y-7421769D01*
X33994552Y-7355448D01*
X33957142Y-7330451D01*
X33928233Y-7311134D01*
X33928231Y-7311133D01*
X33928228Y-7311132D01*
X33928227Y-7311132D01*
X33869758Y-7299501D01*
X33869748Y-7299500D01*
X32130252Y-7299500D01*
X32130251Y-7299500D01*
X32130241Y-7299501D01*
X32071772Y-7311132D01*
X32071766Y-7311134D01*
X32005451Y-7355445D01*
X32005445Y-7355451D01*
X31961134Y-7421766D01*
X31961132Y-7421772D01*
X31949501Y-7480241D01*
X31949500Y-7480253D01*
X29550500Y-7480253D01*
X29550500Y-7480252D01*
X29538867Y-7421769D01*
X29494552Y-7355448D01*
X29457142Y-7330451D01*
X29428233Y-7311134D01*
X29428231Y-7311133D01*
X29428228Y-7311132D01*
X29428227Y-7311132D01*
X29369758Y-7299501D01*
X29369748Y-7299500D01*
X27630252Y-7299500D01*
X27630251Y-7299500D01*
X27630241Y-7299501D01*
X27571772Y-7311132D01*
X27571766Y-7311134D01*
X27505451Y-7355445D01*
X27505445Y-7355451D01*
X27461134Y-7421766D01*
X27461132Y-7421772D01*
X27449501Y-7480241D01*
X27449500Y-7480253D01*
X25050500Y-7480253D01*
X25050500Y-7480252D01*
X25038867Y-7421769D01*
X24994552Y-7355448D01*
X24957142Y-7330451D01*
X24928233Y-7311134D01*
X24928231Y-7311133D01*
X24928228Y-7311132D01*
X24928227Y-7311132D01*
X24869758Y-7299501D01*
X24869748Y-7299500D01*
X23130252Y-7299500D01*
X23130251Y-7299500D01*
X23130241Y-7299501D01*
X23071772Y-7311132D01*
X23071766Y-7311134D01*
X23005451Y-7355445D01*
X23005445Y-7355451D01*
X22961134Y-7421766D01*
X22961132Y-7421772D01*
X22949501Y-7480241D01*
X22949500Y-7480253D01*
X20550500Y-7480253D01*
X20550500Y-7480252D01*
X20538867Y-7421769D01*
X20494552Y-7355448D01*
X20457142Y-7330451D01*
X20428233Y-7311134D01*
X20428231Y-7311133D01*
X20428228Y-7311132D01*
X20428227Y-7311132D01*
X20369758Y-7299501D01*
X20369748Y-7299500D01*
X18630252Y-7299500D01*
X18630251Y-7299500D01*
X18630241Y-7299501D01*
X18571772Y-7311132D01*
X18571766Y-7311134D01*
X18505451Y-7355445D01*
X18505445Y-7355451D01*
X18461134Y-7421766D01*
X18461132Y-7421772D01*
X18449501Y-7480241D01*
X18449500Y-7480253D01*
X16050500Y-7480253D01*
X16050500Y-7480252D01*
X16038867Y-7421769D01*
X15994552Y-7355448D01*
X15957142Y-7330451D01*
X15928233Y-7311134D01*
X15928231Y-7311133D01*
X15928228Y-7311132D01*
X15928227Y-7311132D01*
X15869758Y-7299501D01*
X15869748Y-7299500D01*
X14130252Y-7299500D01*
X14130251Y-7299500D01*
X14130241Y-7299501D01*
X14071772Y-7311132D01*
X14071766Y-7311134D01*
X14005451Y-7355445D01*
X14005445Y-7355451D01*
X13961134Y-7421766D01*
X13961132Y-7421772D01*
X13949501Y-7480241D01*
X13949500Y-7480253D01*
X11550500Y-7480253D01*
X11550500Y-7480252D01*
X11538867Y-7421769D01*
X11494552Y-7355448D01*
X11457142Y-7330451D01*
X11428233Y-7311134D01*
X11428231Y-7311133D01*
X11428228Y-7311132D01*
X11428227Y-7311132D01*
X11369758Y-7299501D01*
X11369748Y-7299500D01*
X9630252Y-7299500D01*
X9630251Y-7299500D01*
X9630241Y-7299501D01*
X9571772Y-7311132D01*
X9571766Y-7311134D01*
X9505451Y-7355445D01*
X9505445Y-7355451D01*
X9461134Y-7421766D01*
X9461132Y-7421772D01*
X9449501Y-7480241D01*
X9449500Y-7480253D01*
X9449500Y-7593404D01*
X9430593Y-7651595D01*
X9381093Y-7687559D01*
X9339921Y-7691837D01*
X9322831Y-7690000D01*
X8472774Y-7690000D01*
X8414583Y-7671093D01*
X8378619Y-7621593D01*
X8378619Y-7560407D01*
X8397953Y-7526171D01*
X8398718Y-7525287D01*
X8400377Y-7523373D01*
X8460165Y-7392457D01*
X8471857Y-7311134D01*
X8480647Y-7250002D01*
X8480647Y-7249997D01*
X8460165Y-7107543D01*
X8406771Y-6990627D01*
X8399796Y-6929840D01*
X8429882Y-6876563D01*
X8485538Y-6851145D01*
X8496824Y-6850500D01*
X9294747Y-6850500D01*
X9294748Y-6850500D01*
X9353231Y-6838867D01*
X9419552Y-6794552D01*
X9463867Y-6728231D01*
X9475500Y-6669748D01*
X9475500Y-6549500D01*
X9494407Y-6491309D01*
X9543907Y-6455345D01*
X9574500Y-6450500D01*
X9619848Y-6450500D01*
X9678039Y-6469407D01*
X9696376Y-6486695D01*
X9753587Y-6556407D01*
X9753588Y-6556408D01*
X9753590Y-6556410D01*
X9839642Y-6627030D01*
X9913547Y-6687683D01*
X9913548Y-6687683D01*
X9913550Y-6687685D01*
X10096046Y-6785232D01*
X10212584Y-6820583D01*
X10294065Y-6845300D01*
X10294070Y-6845301D01*
X10499997Y-6865583D01*
X10500000Y-6865583D01*
X10500003Y-6865583D01*
X10705929Y-6845301D01*
X10705934Y-6845300D01*
X10727141Y-6838867D01*
X10903954Y-6785232D01*
X11086450Y-6687685D01*
X11246410Y-6556410D01*
X11377685Y-6396450D01*
X11475232Y-6213954D01*
X11535300Y-6015934D01*
X11535301Y-6015929D01*
X11555583Y-5810003D01*
X11555583Y-5809996D01*
X11535301Y-5604070D01*
X11535300Y-5604065D01*
X11500594Y-5489654D01*
X11475232Y-5406046D01*
X11377685Y-5223550D01*
X11357168Y-5198550D01*
X11246414Y-5063595D01*
X11246410Y-5063590D01*
X11246404Y-5063585D01*
X11086452Y-4932316D01*
X10903954Y-4834768D01*
X10753671Y-4789180D01*
X10703474Y-4754195D01*
X10683428Y-4696387D01*
X10701189Y-4637836D01*
X10749974Y-4600907D01*
X10756786Y-4598816D01*
X10963490Y-4543430D01*
X11177577Y-4443600D01*
X11371073Y-4308113D01*
X11538113Y-4141073D01*
X11673600Y-3947577D01*
X11773430Y-3733489D01*
X11830636Y-3520000D01*
X10933012Y-3520000D01*
X10965925Y-3462993D01*
X11000000Y-3335826D01*
X11000000Y-3204174D01*
X10965925Y-3077007D01*
X10933012Y-3020000D01*
X11830636Y-3020000D01*
X13669364Y-3020000D01*
X14566988Y-3020000D01*
X14534075Y-3077007D01*
X14500000Y-3204174D01*
X14500000Y-3335826D01*
X14534075Y-3462993D01*
X14566988Y-3520000D01*
X13669364Y-3520000D01*
X13726569Y-3733489D01*
X13826399Y-3947577D01*
X13961886Y-4141073D01*
X14128926Y-4308113D01*
X14322422Y-4443600D01*
X14536509Y-4543430D01*
X14743213Y-4598816D01*
X14794527Y-4632140D01*
X14816454Y-4689261D01*
X14800619Y-4748362D01*
X14753069Y-4786867D01*
X14746329Y-4789180D01*
X14650637Y-4818208D01*
X14596046Y-4834768D01*
X14596044Y-4834768D01*
X14596044Y-4834769D01*
X14413547Y-4932316D01*
X14253595Y-5063585D01*
X14253585Y-5063595D01*
X14122316Y-5223547D01*
X14024768Y-5406045D01*
X13964699Y-5604065D01*
X13964698Y-5604070D01*
X13944417Y-5809996D01*
X13944417Y-5810003D01*
X13964698Y-6015929D01*
X13964699Y-6015934D01*
X14024768Y-6213954D01*
X14122316Y-6396452D01*
X14216663Y-6511414D01*
X14253590Y-6556410D01*
X14253595Y-6556414D01*
X14413547Y-6687683D01*
X14413548Y-6687683D01*
X14413550Y-6687685D01*
X14596046Y-6785232D01*
X14712584Y-6820583D01*
X14794065Y-6845300D01*
X14794070Y-6845301D01*
X14999997Y-6865583D01*
X15000000Y-6865583D01*
X15000003Y-6865583D01*
X15205929Y-6845301D01*
X15205934Y-6845300D01*
X15227141Y-6838867D01*
X15403954Y-6785232D01*
X15586450Y-6687685D01*
X15746410Y-6556410D01*
X15877685Y-6396450D01*
X15975232Y-6213954D01*
X16035300Y-6015934D01*
X16035301Y-6015929D01*
X16055583Y-5810003D01*
X16055583Y-5809996D01*
X16035301Y-5604070D01*
X16035300Y-5604065D01*
X16000594Y-5489654D01*
X15975232Y-5406046D01*
X15877685Y-5223550D01*
X15857168Y-5198550D01*
X15746414Y-5063595D01*
X15746410Y-5063590D01*
X15746404Y-5063585D01*
X15586452Y-4932316D01*
X15403954Y-4834768D01*
X15253671Y-4789180D01*
X15203474Y-4754195D01*
X15183428Y-4696387D01*
X15201189Y-4637836D01*
X15249974Y-4600907D01*
X15256786Y-4598816D01*
X15463490Y-4543430D01*
X15677577Y-4443600D01*
X15871073Y-4308113D01*
X16038113Y-4141073D01*
X16173600Y-3947577D01*
X16273430Y-3733489D01*
X16330636Y-3520000D01*
X15433012Y-3520000D01*
X15465925Y-3462993D01*
X15500000Y-3335826D01*
X15500000Y-3204174D01*
X15465925Y-3077007D01*
X15433012Y-3020000D01*
X16330636Y-3020000D01*
X18169364Y-3020000D01*
X19066988Y-3020000D01*
X19034075Y-3077007D01*
X19000000Y-3204174D01*
X19000000Y-3335826D01*
X19034075Y-3462993D01*
X19066988Y-3520000D01*
X18169364Y-3520000D01*
X18226569Y-3733489D01*
X18326399Y-3947577D01*
X18461886Y-4141073D01*
X18628926Y-4308113D01*
X18822422Y-4443600D01*
X19036509Y-4543430D01*
X19243213Y-4598816D01*
X19294527Y-4632140D01*
X19316454Y-4689261D01*
X19300619Y-4748362D01*
X19253069Y-4786867D01*
X19246329Y-4789180D01*
X19150637Y-4818208D01*
X19096046Y-4834768D01*
X19096044Y-4834768D01*
X19096044Y-4834769D01*
X18913547Y-4932316D01*
X18753595Y-5063585D01*
X18753585Y-5063595D01*
X18622316Y-5223547D01*
X18524768Y-5406045D01*
X18464699Y-5604065D01*
X18464698Y-5604070D01*
X18444417Y-5809996D01*
X18444417Y-5810003D01*
X18464698Y-6015929D01*
X18464699Y-6015934D01*
X18524768Y-6213954D01*
X18622316Y-6396452D01*
X18716663Y-6511414D01*
X18753590Y-6556410D01*
X18753595Y-6556414D01*
X18913547Y-6687683D01*
X18913548Y-6687683D01*
X18913550Y-6687685D01*
X19096046Y-6785232D01*
X19212584Y-6820583D01*
X19294065Y-6845300D01*
X19294070Y-6845301D01*
X19499997Y-6865583D01*
X19500000Y-6865583D01*
X19500003Y-6865583D01*
X19705929Y-6845301D01*
X19705934Y-6845300D01*
X19727141Y-6838867D01*
X19903954Y-6785232D01*
X20086450Y-6687685D01*
X20246410Y-6556410D01*
X20377685Y-6396450D01*
X20475232Y-6213954D01*
X20535300Y-6015934D01*
X20535301Y-6015929D01*
X20555583Y-5810003D01*
X20555583Y-5809996D01*
X20535301Y-5604070D01*
X20535300Y-5604065D01*
X20500594Y-5489654D01*
X20475232Y-5406046D01*
X20377685Y-5223550D01*
X20357168Y-5198550D01*
X20246414Y-5063595D01*
X20246410Y-5063590D01*
X20246404Y-5063585D01*
X20086452Y-4932316D01*
X19903954Y-4834768D01*
X19753671Y-4789180D01*
X19703474Y-4754195D01*
X19683428Y-4696387D01*
X19701189Y-4637836D01*
X19749974Y-4600907D01*
X19756786Y-4598816D01*
X19963490Y-4543430D01*
X20177577Y-4443600D01*
X20371073Y-4308113D01*
X20538113Y-4141073D01*
X20673600Y-3947577D01*
X20773430Y-3733489D01*
X20830636Y-3520000D01*
X19933012Y-3520000D01*
X19965925Y-3462993D01*
X20000000Y-3335826D01*
X20000000Y-3204174D01*
X19965925Y-3077007D01*
X19933012Y-3020000D01*
X20830636Y-3020000D01*
X22669364Y-3020000D01*
X23566988Y-3020000D01*
X23534075Y-3077007D01*
X23500000Y-3204174D01*
X23500000Y-3335826D01*
X23534075Y-3462993D01*
X23566988Y-3520000D01*
X22669364Y-3520000D01*
X22726569Y-3733489D01*
X22826399Y-3947577D01*
X22961886Y-4141073D01*
X23128926Y-4308113D01*
X23322422Y-4443600D01*
X23536509Y-4543430D01*
X23743213Y-4598816D01*
X23794527Y-4632140D01*
X23816454Y-4689261D01*
X23800619Y-4748362D01*
X23753069Y-4786867D01*
X23746329Y-4789180D01*
X23650637Y-4818208D01*
X23596046Y-4834768D01*
X23596044Y-4834768D01*
X23596044Y-4834769D01*
X23413547Y-4932316D01*
X23253595Y-5063585D01*
X23253585Y-5063595D01*
X23122316Y-5223547D01*
X23024768Y-5406045D01*
X22964699Y-5604065D01*
X22964698Y-5604070D01*
X22944417Y-5809996D01*
X22944417Y-5810003D01*
X22964698Y-6015929D01*
X22964699Y-6015934D01*
X23024768Y-6213954D01*
X23122316Y-6396452D01*
X23216663Y-6511414D01*
X23253590Y-6556410D01*
X23253595Y-6556414D01*
X23413547Y-6687683D01*
X23413548Y-6687683D01*
X23413550Y-6687685D01*
X23596046Y-6785232D01*
X23712584Y-6820583D01*
X23794065Y-6845300D01*
X23794070Y-6845301D01*
X23999997Y-6865583D01*
X24000000Y-6865583D01*
X24000003Y-6865583D01*
X24205929Y-6845301D01*
X24205934Y-6845300D01*
X24227141Y-6838867D01*
X24403954Y-6785232D01*
X24586450Y-6687685D01*
X24746410Y-6556410D01*
X24877685Y-6396450D01*
X24975232Y-6213954D01*
X25035300Y-6015934D01*
X25035301Y-6015929D01*
X25055583Y-5810003D01*
X25055583Y-5809996D01*
X25035301Y-5604070D01*
X25035300Y-5604065D01*
X25000594Y-5489654D01*
X24975232Y-5406046D01*
X24877685Y-5223550D01*
X24857168Y-5198550D01*
X24746414Y-5063595D01*
X24746410Y-5063590D01*
X24746404Y-5063585D01*
X24586452Y-4932316D01*
X24403954Y-4834768D01*
X24253671Y-4789180D01*
X24203474Y-4754195D01*
X24183428Y-4696387D01*
X24201189Y-4637836D01*
X24249974Y-4600907D01*
X24256786Y-4598816D01*
X24463490Y-4543430D01*
X24677577Y-4443600D01*
X24871073Y-4308113D01*
X25038113Y-4141073D01*
X25173600Y-3947577D01*
X25273430Y-3733489D01*
X25330636Y-3520000D01*
X24433012Y-3520000D01*
X24465925Y-3462993D01*
X24500000Y-3335826D01*
X24500000Y-3204174D01*
X24465925Y-3077007D01*
X24433012Y-3020000D01*
X25330636Y-3020000D01*
X27169364Y-3020000D01*
X28066988Y-3020000D01*
X28034075Y-3077007D01*
X28000000Y-3204174D01*
X28000000Y-3335826D01*
X28034075Y-3462993D01*
X28066988Y-3520000D01*
X27169364Y-3520000D01*
X27226569Y-3733489D01*
X27326399Y-3947577D01*
X27461886Y-4141073D01*
X27628926Y-4308113D01*
X27822422Y-4443600D01*
X28036509Y-4543430D01*
X28243213Y-4598816D01*
X28294527Y-4632140D01*
X28316454Y-4689261D01*
X28300619Y-4748362D01*
X28253069Y-4786867D01*
X28246329Y-4789180D01*
X28150637Y-4818208D01*
X28096046Y-4834768D01*
X28096044Y-4834768D01*
X28096044Y-4834769D01*
X27913547Y-4932316D01*
X27753595Y-5063585D01*
X27753585Y-5063595D01*
X27622316Y-5223547D01*
X27524768Y-5406045D01*
X27464699Y-5604065D01*
X27464698Y-5604070D01*
X27444417Y-5809996D01*
X27444417Y-5810003D01*
X27464698Y-6015929D01*
X27464699Y-6015934D01*
X27524768Y-6213954D01*
X27622316Y-6396452D01*
X27716663Y-6511414D01*
X27753590Y-6556410D01*
X27753595Y-6556414D01*
X27913547Y-6687683D01*
X27913548Y-6687683D01*
X27913550Y-6687685D01*
X28096046Y-6785232D01*
X28212584Y-6820583D01*
X28294065Y-6845300D01*
X28294070Y-6845301D01*
X28499997Y-6865583D01*
X28500000Y-6865583D01*
X28500003Y-6865583D01*
X28705929Y-6845301D01*
X28705934Y-6845300D01*
X28727141Y-6838867D01*
X28903954Y-6785232D01*
X29086450Y-6687685D01*
X29246410Y-6556410D01*
X29377685Y-6396450D01*
X29475232Y-6213954D01*
X29535300Y-6015934D01*
X29535301Y-6015929D01*
X29555583Y-5810003D01*
X29555583Y-5809996D01*
X29535301Y-5604070D01*
X29535300Y-5604065D01*
X29500594Y-5489654D01*
X29475232Y-5406046D01*
X29377685Y-5223550D01*
X29357168Y-5198550D01*
X29246414Y-5063595D01*
X29246410Y-5063590D01*
X29246404Y-5063585D01*
X29086452Y-4932316D01*
X28903954Y-4834768D01*
X28753671Y-4789180D01*
X28703474Y-4754195D01*
X28683428Y-4696387D01*
X28701189Y-4637836D01*
X28749974Y-4600907D01*
X28756786Y-4598816D01*
X28963490Y-4543430D01*
X29177577Y-4443600D01*
X29371073Y-4308113D01*
X29538113Y-4141073D01*
X29673600Y-3947577D01*
X29773430Y-3733489D01*
X29830636Y-3520000D01*
X28933012Y-3520000D01*
X28965925Y-3462993D01*
X29000000Y-3335826D01*
X29000000Y-3204174D01*
X28965925Y-3077007D01*
X28933012Y-3020000D01*
X29830636Y-3020000D01*
X31669364Y-3020000D01*
X32566988Y-3020000D01*
X32534075Y-3077007D01*
X32500000Y-3204174D01*
X32500000Y-3335826D01*
X32534075Y-3462993D01*
X32566988Y-3520000D01*
X31669364Y-3520000D01*
X31726569Y-3733489D01*
X31826399Y-3947577D01*
X31961886Y-4141073D01*
X32128926Y-4308113D01*
X32322422Y-4443600D01*
X32536509Y-4543430D01*
X32743213Y-4598816D01*
X32794527Y-4632140D01*
X32816454Y-4689261D01*
X32800619Y-4748362D01*
X32753069Y-4786867D01*
X32746329Y-4789180D01*
X32650637Y-4818208D01*
X32596046Y-4834768D01*
X32596044Y-4834768D01*
X32596044Y-4834769D01*
X32413547Y-4932316D01*
X32253595Y-5063585D01*
X32253585Y-5063595D01*
X32122316Y-5223547D01*
X32024768Y-5406045D01*
X31964699Y-5604065D01*
X31964698Y-5604070D01*
X31944417Y-5809996D01*
X31944417Y-5810003D01*
X31964698Y-6015929D01*
X31964699Y-6015934D01*
X32024768Y-6213954D01*
X32122316Y-6396452D01*
X32216663Y-6511414D01*
X32253590Y-6556410D01*
X32253595Y-6556414D01*
X32413547Y-6687683D01*
X32413548Y-6687683D01*
X32413550Y-6687685D01*
X32596046Y-6785232D01*
X32712584Y-6820583D01*
X32794065Y-6845300D01*
X32794070Y-6845301D01*
X32999997Y-6865583D01*
X33000000Y-6865583D01*
X33000003Y-6865583D01*
X33205929Y-6845301D01*
X33205934Y-6845300D01*
X33227141Y-6838867D01*
X33403954Y-6785232D01*
X33586450Y-6687685D01*
X33746410Y-6556410D01*
X33877685Y-6396450D01*
X33975232Y-6213954D01*
X34035300Y-6015934D01*
X34035301Y-6015929D01*
X34055583Y-5810003D01*
X34055583Y-5809996D01*
X34035301Y-5604070D01*
X34035300Y-5604065D01*
X34000594Y-5489654D01*
X33975232Y-5406046D01*
X33877685Y-5223550D01*
X33857168Y-5198550D01*
X33746414Y-5063595D01*
X33746410Y-5063590D01*
X33746404Y-5063585D01*
X33586452Y-4932316D01*
X33403954Y-4834768D01*
X33253671Y-4789180D01*
X33203474Y-4754195D01*
X33183428Y-4696387D01*
X33201189Y-4637836D01*
X33249974Y-4600907D01*
X33256786Y-4598816D01*
X33463490Y-4543430D01*
X33677577Y-4443600D01*
X33871073Y-4308113D01*
X34038113Y-4141073D01*
X34173600Y-3947577D01*
X34273430Y-3733489D01*
X34330636Y-3520000D01*
X33433012Y-3520000D01*
X33465925Y-3462993D01*
X33500000Y-3335826D01*
X33500000Y-3204174D01*
X33465925Y-3077007D01*
X33433012Y-3020000D01*
X34330636Y-3020000D01*
X34323937Y-2995000D01*
X36169364Y-2995000D01*
X37066988Y-2995000D01*
X37034075Y-3052007D01*
X37000000Y-3179174D01*
X37000000Y-3310826D01*
X37034075Y-3437993D01*
X37066988Y-3495000D01*
X36169364Y-3495000D01*
X36226569Y-3708489D01*
X36326399Y-3922577D01*
X36461886Y-4116073D01*
X36628926Y-4283113D01*
X36822422Y-4418600D01*
X37036509Y-4518430D01*
X37243213Y-4573816D01*
X37294527Y-4607140D01*
X37316454Y-4664261D01*
X37300619Y-4723362D01*
X37253069Y-4761867D01*
X37246329Y-4764180D01*
X37150637Y-4793208D01*
X37096046Y-4809768D01*
X37096044Y-4809768D01*
X37096044Y-4809769D01*
X36913547Y-4907316D01*
X36753595Y-5038585D01*
X36753585Y-5038595D01*
X36622316Y-5198547D01*
X36524768Y-5381045D01*
X36464699Y-5579065D01*
X36464698Y-5579070D01*
X36444417Y-5784996D01*
X36444417Y-5785003D01*
X36464698Y-5990929D01*
X36464699Y-5990934D01*
X36524768Y-6188954D01*
X36622316Y-6371452D01*
X36737180Y-6511414D01*
X36753590Y-6531410D01*
X36753595Y-6531414D01*
X36913547Y-6662683D01*
X36913548Y-6662683D01*
X36913550Y-6662685D01*
X37096046Y-6760232D01*
X37209192Y-6794554D01*
X37294065Y-6820300D01*
X37294070Y-6820301D01*
X37499997Y-6840583D01*
X37500000Y-6840583D01*
X37500003Y-6840583D01*
X37705929Y-6820301D01*
X37705934Y-6820300D01*
X37903954Y-6760232D01*
X38086450Y-6662685D01*
X38246410Y-6531410D01*
X38377685Y-6371450D01*
X38475232Y-6188954D01*
X38535300Y-5990934D01*
X38535301Y-5990929D01*
X38555583Y-5785003D01*
X38555583Y-5784996D01*
X38535301Y-5579070D01*
X38535300Y-5579065D01*
X38499526Y-5461133D01*
X38475232Y-5381046D01*
X38377685Y-5198550D01*
X38312734Y-5119407D01*
X38246414Y-5038595D01*
X38246410Y-5038590D01*
X38222034Y-5018585D01*
X38086452Y-4907316D01*
X37903954Y-4809768D01*
X37753671Y-4764180D01*
X37703474Y-4729195D01*
X37683428Y-4671387D01*
X37701189Y-4612836D01*
X37749974Y-4575907D01*
X37756786Y-4573816D01*
X37963490Y-4518430D01*
X38177577Y-4418600D01*
X38371073Y-4283113D01*
X38538113Y-4116073D01*
X38673600Y-3922577D01*
X38773430Y-3708489D01*
X38830636Y-3495000D01*
X37933012Y-3495000D01*
X37965925Y-3437993D01*
X38000000Y-3310826D01*
X38000000Y-3179174D01*
X37965925Y-3052007D01*
X37933012Y-2995000D01*
X38830636Y-2995000D01*
X38773429Y-2781505D01*
X38673605Y-2567432D01*
X38673601Y-2567424D01*
X38538113Y-2373926D01*
X38371073Y-2206886D01*
X38177577Y-2071399D01*
X37963489Y-1971569D01*
X37750000Y-1914364D01*
X37750000Y-2811988D01*
X37692993Y-2779075D01*
X37565826Y-2745000D01*
X37434174Y-2745000D01*
X37307007Y-2779075D01*
X37250000Y-2811988D01*
X37250000Y-1914364D01*
X37036505Y-1971570D01*
X36822432Y-2071394D01*
X36822424Y-2071398D01*
X36628926Y-2206886D01*
X36461886Y-2373926D01*
X36326398Y-2567424D01*
X36326394Y-2567432D01*
X36226570Y-2781505D01*
X36169364Y-2995000D01*
X34323937Y-2995000D01*
X34273429Y-2806505D01*
X34173605Y-2592432D01*
X34173601Y-2592424D01*
X34038113Y-2398926D01*
X33871073Y-2231886D01*
X33677577Y-2096399D01*
X33463489Y-1996569D01*
X33250000Y-1939364D01*
X33250000Y-2836988D01*
X33192993Y-2804075D01*
X33065826Y-2770000D01*
X32934174Y-2770000D01*
X32807007Y-2804075D01*
X32750000Y-2836988D01*
X32750000Y-1939364D01*
X32536505Y-1996570D01*
X32322432Y-2096394D01*
X32322424Y-2096398D01*
X32128926Y-2231886D01*
X31961886Y-2398926D01*
X31826398Y-2592424D01*
X31826394Y-2592432D01*
X31726570Y-2806505D01*
X31669364Y-3020000D01*
X29830636Y-3020000D01*
X29773429Y-2806505D01*
X29673605Y-2592432D01*
X29673601Y-2592424D01*
X29538113Y-2398926D01*
X29371073Y-2231886D01*
X29177577Y-2096399D01*
X28963489Y-1996569D01*
X28750000Y-1939364D01*
X28750000Y-2836988D01*
X28692993Y-2804075D01*
X28565826Y-2770000D01*
X28434174Y-2770000D01*
X28307007Y-2804075D01*
X28250000Y-2836988D01*
X28250000Y-1939364D01*
X28036505Y-1996570D01*
X27822432Y-2096394D01*
X27822424Y-2096398D01*
X27628926Y-2231886D01*
X27461886Y-2398926D01*
X27326398Y-2592424D01*
X27326394Y-2592432D01*
X27226570Y-2806505D01*
X27169364Y-3020000D01*
X25330636Y-3020000D01*
X25273429Y-2806505D01*
X25173605Y-2592432D01*
X25173601Y-2592424D01*
X25038113Y-2398926D01*
X24871073Y-2231886D01*
X24677577Y-2096399D01*
X24463489Y-1996569D01*
X24250000Y-1939364D01*
X24250000Y-2836988D01*
X24192993Y-2804075D01*
X24065826Y-2770000D01*
X23934174Y-2770000D01*
X23807007Y-2804075D01*
X23750000Y-2836988D01*
X23750000Y-1939364D01*
X23536505Y-1996570D01*
X23322432Y-2096394D01*
X23322424Y-2096398D01*
X23128926Y-2231886D01*
X22961886Y-2398926D01*
X22826398Y-2592424D01*
X22826394Y-2592432D01*
X22726570Y-2806505D01*
X22669364Y-3020000D01*
X20830636Y-3020000D01*
X20773429Y-2806505D01*
X20673605Y-2592432D01*
X20673601Y-2592424D01*
X20538113Y-2398926D01*
X20371073Y-2231886D01*
X20177577Y-2096399D01*
X19963489Y-1996569D01*
X19750000Y-1939364D01*
X19750000Y-2836988D01*
X19692993Y-2804075D01*
X19565826Y-2770000D01*
X19434174Y-2770000D01*
X19307007Y-2804075D01*
X19250000Y-2836988D01*
X19250000Y-1939364D01*
X19036505Y-1996570D01*
X18822432Y-2096394D01*
X18822424Y-2096398D01*
X18628926Y-2231886D01*
X18461886Y-2398926D01*
X18326398Y-2592424D01*
X18326394Y-2592432D01*
X18226570Y-2806505D01*
X18169364Y-3020000D01*
X16330636Y-3020000D01*
X16273429Y-2806505D01*
X16173605Y-2592432D01*
X16173601Y-2592424D01*
X16038113Y-2398926D01*
X15871073Y-2231886D01*
X15677577Y-2096399D01*
X15463489Y-1996569D01*
X15250000Y-1939364D01*
X15250000Y-2836988D01*
X15192993Y-2804075D01*
X15065826Y-2770000D01*
X14934174Y-2770000D01*
X14807007Y-2804075D01*
X14750000Y-2836988D01*
X14750000Y-1939364D01*
X14536505Y-1996570D01*
X14322432Y-2096394D01*
X14322424Y-2096398D01*
X14128926Y-2231886D01*
X13961886Y-2398926D01*
X13826398Y-2592424D01*
X13826394Y-2592432D01*
X13726570Y-2806505D01*
X13669364Y-3020000D01*
X11830636Y-3020000D01*
X11773429Y-2806505D01*
X11673605Y-2592432D01*
X11673601Y-2592424D01*
X11538113Y-2398926D01*
X11371073Y-2231886D01*
X11177577Y-2096399D01*
X10963489Y-1996569D01*
X10750000Y-1939364D01*
X10750000Y-2836988D01*
X10692993Y-2804075D01*
X10565826Y-2770000D01*
X10434174Y-2770000D01*
X10307007Y-2804075D01*
X10250000Y-2836988D01*
X10250000Y-1939364D01*
X10036505Y-1996570D01*
X9822432Y-2096394D01*
X9822424Y-2096398D01*
X9628926Y-2231886D01*
X9461886Y-2398926D01*
X9326398Y-2592424D01*
X9326394Y-2592432D01*
X9226570Y-2806505D01*
X9169364Y-3020000D01*
X10066988Y-3020000D01*
X10034075Y-3077007D01*
X10000000Y-3204174D01*
X10000000Y-3335826D01*
X10034075Y-3462993D01*
X10066988Y-3520000D01*
X9169364Y-3520000D01*
X9226569Y-3733489D01*
X9326399Y-3947577D01*
X9461886Y-4141073D01*
X9628926Y-4308113D01*
X9822422Y-4443600D01*
X10036509Y-4543430D01*
X10243213Y-4598816D01*
X10294527Y-4632140D01*
X10316454Y-4689261D01*
X10300619Y-4748362D01*
X10253069Y-4786867D01*
X10246329Y-4789180D01*
X10150637Y-4818208D01*
X10096046Y-4834768D01*
X10096044Y-4834768D01*
X10096044Y-4834769D01*
X9913547Y-4932316D01*
X9753595Y-5063585D01*
X9753585Y-5063595D01*
X9622316Y-5223547D01*
X9524770Y-5406041D01*
X9524766Y-5406051D01*
X9520712Y-5419415D01*
X9485725Y-5469610D01*
X9427916Y-5489654D01*
X9370975Y-5472989D01*
X9353233Y-5461134D01*
X9353231Y-5461133D01*
X9353228Y-5461132D01*
X9353227Y-5461132D01*
X9294758Y-5449501D01*
X9294748Y-5449500D01*
X6755252Y-5449500D01*
X6755251Y-5449500D01*
X6755241Y-5449501D01*
X6696772Y-5461132D01*
X6696766Y-5461134D01*
X6630451Y-5505445D01*
X6630445Y-5505451D01*
X6586134Y-5571766D01*
X6586132Y-5571772D01*
X6574501Y-5630241D01*
X6574500Y-5630253D01*
X6574500Y-6669746D01*
X6574501Y-6669758D01*
X6586132Y-6728227D01*
X6586134Y-6728233D01*
X6624220Y-6785232D01*
X6630448Y-6794552D01*
X6696769Y-6838867D01*
X6741231Y-6847711D01*
X6755241Y-6850498D01*
X6755246Y-6850498D01*
X6755252Y-6850500D01*
X7453176Y-6850500D01*
X7511367Y-6869407D01*
X7547331Y-6918907D01*
X7547331Y-6980093D01*
X7543229Y-6990627D01*
X7489834Y-7107543D01*
X7469353Y-7249997D01*
X7469353Y-7250002D01*
X7489834Y-7392456D01*
X7549623Y-7523373D01*
X7552047Y-7526171D01*
X7553249Y-7529016D01*
X7553451Y-7529330D01*
X7553396Y-7529364D01*
X7575863Y-7582531D01*
X7562003Y-7642126D01*
X7515761Y-7682192D01*
X7477226Y-7690000D01*
X6727176Y-7690000D01*
X6667629Y-7696401D01*
X6667618Y-7696403D01*
X6532911Y-7746646D01*
X6532909Y-7746647D01*
X6417815Y-7832807D01*
X6417807Y-7832815D01*
X6331647Y-7947909D01*
X6331646Y-7947911D01*
X6281403Y-8082618D01*
X6281401Y-8082629D01*
X6275000Y-8142175D01*
X-500000Y-8142175D01*
X-500000Y-5199500D01*
X-481093Y-5141309D01*
X-431593Y-5105345D01*
X-401000Y-5100500D01*
X19992Y-5100500D01*
X43283Y-5090852D01*
X56929Y-5085200D01*
X85200Y-5056929D01*
X100500Y-5019991D01*
X100500Y-2502984D01*
X100681Y-2497007D01*
X102181Y-2472209D01*
X124567Y-2415266D01*
X176148Y-2382356D01*
X237222Y-2386050D01*
X284460Y-2424937D01*
X300000Y-2478186D01*
X300000Y-3000002D01*
X599997Y-3699995D01*
X600000Y-3700000D01*
X1085927Y-4283113D01*
X1100000Y-4300000D01*
X1900000Y-4700000D01*
X2899998Y-4700000D01*
X2900000Y-4700000D01*
X3500000Y-4600000D01*
X4100000Y-4100000D01*
X4500000Y-3600000D01*
X4700000Y-2900000D01*
X4700000Y-1900000D01*
X4500000Y-1400000D01*
X4100000Y-900000D01*
X3631563Y-525250D01*
X3600000Y-500000D01*
X3000000Y-300000D01*
X2478187Y-300000D01*
X2419996Y-281093D01*
X2384032Y-231593D01*
X2384032Y-170407D01*
X2419996Y-120907D01*
X2472210Y-102181D01*
X2497008Y-100681D01*
X2502985Y-100500D01*
X2526929Y-100500D01*
X51473071Y-100500D01*
X51497015Y-100500D01*
X51502992Y-100681D01*
G37*
%TD.AperFunction*%
%TD*%
D19*
X45875000Y-7200000D03*
X30725000Y-8625000D03*
X12700000Y-8875000D03*
X47600000Y-17700000D03*
X20000000Y-11725000D03*
X8000000Y-9950000D03*
X44550000Y-19700000D03*
X4975000Y-20050000D03*
X43275000Y-12425000D03*
X6025000Y-7300000D03*
X17750000Y-19375000D03*
X4200000Y-16075000D03*
X26500000Y-20000000D03*
X13875000Y-23875000D03*
X33250000Y-17665000D03*
X44625000Y-10150000D03*
X26450000Y-16575000D03*
X36000000Y-8625000D03*
X6675000Y-20125000D03*
X27850000Y-11900000D03*
X37450000Y-23170000D03*
X21775000Y-8800000D03*
X4225000Y-9100000D03*
X21550000Y-16525000D03*
X28500000Y-21925000D03*
X38300000Y-17250000D03*
X10750000Y-21150000D03*
X18200000Y-20850000D03*
X49325000Y-5250000D03*
X21275000Y-19950000D03*
X48785000Y-23100000D03*
X49925000Y-16525000D03*
X17200000Y-8725000D03*
X19525000Y-22625000D03*
X37650000Y-11650000D03*
X31175000Y-16500000D03*
X26350000Y-8650000D03*
X13850000Y-17825000D03*
X12600000Y-11325000D03*
X12500000Y-15725000D03*
X50025000Y-9950000D03*
X39800000Y-8675000D03*
X45975000Y-15325000D03*
X7975000Y-7250000D03*
X49962500Y-8537500D03*
X48435000Y-21200000D03*
X51500000Y-15300000D03*
X10075000Y-18850000D03*
X14850000Y-16975000D03*
X42900000Y-15975000D03*
X44093527Y-15170000D03*
X9795343Y-15195343D03*
X16750000Y-14775000D03*
X33200000Y-13970000D03*
X46100000Y-13770000D03*
X9719494Y-13856976D03*
X50200000Y-13950000D03*
X9875000Y-11550000D03*
X32675000Y-12425000D03*
X10650000Y-19975000D03*
X50800000Y-10850000D03*
D20*
X33000000Y-8350000D03*
X33000000Y-5810000D03*
X33000000Y-3270000D03*
X37500000Y-8325000D03*
X37500000Y-5785000D03*
X37500000Y-3245000D03*
X2500000Y-2500000D03*
X15000000Y-8350000D03*
X15000000Y-5810000D03*
X15000000Y-3270000D03*
X51500000Y-22500000D03*
X28500000Y-8350000D03*
X28500000Y-5810000D03*
X28500000Y-3270000D03*
X5850000Y-23600000D03*
X7850000Y-23600000D03*
X9850000Y-23600000D03*
X11850000Y-23600000D03*
X10500000Y-8350000D03*
X10500000Y-5810000D03*
X10500000Y-3270000D03*
X51500000Y-2550000D03*
X2500000Y-22500000D03*
X19500000Y-8350000D03*
X19500000Y-5810000D03*
X19500000Y-3270000D03*
X42000000Y-8305000D03*
X42000000Y-5765000D03*
X42000000Y-3225000D03*
X24000000Y-8350000D03*
X24000000Y-5810000D03*
X24000000Y-3270000D03*
M02*
