%TF.GenerationSoftware,KiCad,Pcbnew,8.0.7*%
%TF.CreationDate,2025-01-15T18:16:12+00:00*%
%TF.ProjectId,Servo,53657276-6f2e-46b6-9963-61645f706362,rev?*%
%TF.SameCoordinates,Original*%
%TF.FileFunction,Soldermask,Bot*%
%TF.FilePolarity,Negative*%
%FSLAX46Y46*%
G04 Gerber Fmt 4.6, Leading zero omitted, Abs format (unit mm)*
G04 Created by KiCad (PCBNEW 8.0.7) date 2025-01-15 18:16:12*
%MOMM*%
%LPD*%
G01*
G04 APERTURE LIST*
%ADD10R,1.700000X1.700000*%
%ADD11O,1.700000X1.700000*%
%ADD12C,2.700000*%
%ADD13R,1.350000X1.350000*%
%ADD14O,1.350000X1.350000*%
%ADD15R,2.500000X1.000000*%
%ADD16R,2.000000X1.000000*%
G04 APERTURE END LIST*
D10*
%TO.C,J9*%
X33000000Y-8350000D03*
D11*
X33000000Y-5810000D03*
X33000000Y-3270000D03*
%TD*%
D10*
%TO.C,J10*%
X37500000Y-8325000D03*
D11*
X37500000Y-5785000D03*
X37500000Y-3245000D03*
%TD*%
D12*
%TO.C,H3*%
X2500000Y-2500000D03*
%TD*%
D10*
%TO.C,J5*%
X15000000Y-8350000D03*
D11*
X15000000Y-5810000D03*
X15000000Y-3270000D03*
%TD*%
D12*
%TO.C,H4*%
X51500000Y-22500000D03*
%TD*%
D10*
%TO.C,J8*%
X28500000Y-8350000D03*
D11*
X28500000Y-5810000D03*
X28500000Y-3270000D03*
%TD*%
D13*
%TO.C,J4*%
X5850000Y-23600000D03*
D14*
X7850000Y-23600000D03*
X9850000Y-23600000D03*
X11850000Y-23600000D03*
%TD*%
D10*
%TO.C,J2*%
X10500000Y-8350000D03*
D11*
X10500000Y-5810000D03*
X10500000Y-3270000D03*
%TD*%
D12*
%TO.C,H2*%
X51500000Y-2550000D03*
%TD*%
%TO.C,H1*%
X2500000Y-22500000D03*
%TD*%
D10*
%TO.C,J6*%
X19500000Y-8350000D03*
D11*
X19500000Y-5810000D03*
X19500000Y-3270000D03*
%TD*%
D10*
%TO.C,J11*%
X42000000Y-8305000D03*
D11*
X42000000Y-5765000D03*
X42000000Y-3225000D03*
%TD*%
D10*
%TO.C,J7*%
X24000000Y-8350000D03*
D11*
X24000000Y-5810000D03*
X24000000Y-3270000D03*
%TD*%
D15*
%TO.C,J1*%
X8025000Y-6150000D03*
X8025000Y-8690000D03*
X8025000Y-11230000D03*
X8025000Y-13770000D03*
X8025000Y-16310000D03*
X8025000Y-18850000D03*
%TD*%
D16*
%TO.C,J3*%
X47575000Y-18850000D03*
X47575000Y-16310000D03*
X47575000Y-13770000D03*
X47575000Y-11230000D03*
X47575000Y-8690000D03*
X47575000Y-6150000D03*
%TD*%
M02*
