%TF.GenerationSoftware,KiCad,Pcbnew,8.0.7*%
%TF.CreationDate,2025-01-15T18:16:12+00:00*%
%TF.ProjectId,Servo,53657276-6f2e-46b6-9963-61645f706362,rev?*%
%TF.SameCoordinates,Original*%
%TF.FileFunction,Copper,L1,Top*%
%TF.FilePolarity,Positive*%
%FSLAX46Y46*%
G04 Gerber Fmt 4.6, Leading zero omitted, Abs format (unit mm)*
G04 Created by KiCad (PCBNEW 8.0.7) date 2025-01-15 18:16:12*
%MOMM*%
%LPD*%
G01*
G04 APERTURE LIST*
G04 Aperture macros list*
%AMRoundRect*
0 Rectangle with rounded corners*
0 $1 Rounding radius*
0 $2 $3 $4 $5 $6 $7 $8 $9 X,Y pos of 4 corners*
0 Add a 4 corners polygon primitive as box body*
4,1,4,$2,$3,$4,$5,$6,$7,$8,$9,$2,$3,0*
0 Add four circle primitives for the rounded corners*
1,1,$1+$1,$2,$3*
1,1,$1+$1,$4,$5*
1,1,$1+$1,$6,$7*
1,1,$1+$1,$8,$9*
0 Add four rect primitives between the rounded corners*
20,1,$1+$1,$2,$3,$4,$5,0*
20,1,$1+$1,$4,$5,$6,$7,0*
20,1,$1+$1,$6,$7,$8,$9,0*
20,1,$1+$1,$8,$9,$2,$3,0*%
G04 Aperture macros list end*
%TA.AperFunction,SMDPad,CuDef*%
%ADD10RoundRect,0.147500X0.172500X-0.147500X0.172500X0.147500X-0.172500X0.147500X-0.172500X-0.147500X0*%
%TD*%
%TA.AperFunction,SMDPad,CuDef*%
%ADD11RoundRect,0.243750X-0.456250X0.243750X-0.456250X-0.243750X0.456250X-0.243750X0.456250X0.243750X0*%
%TD*%
%TA.AperFunction,ComponentPad*%
%ADD12R,1.700000X1.700000*%
%TD*%
%TA.AperFunction,ComponentPad*%
%ADD13O,1.700000X1.700000*%
%TD*%
%TA.AperFunction,SMDPad,CuDef*%
%ADD14RoundRect,0.147500X-0.147500X-0.172500X0.147500X-0.172500X0.147500X0.172500X-0.147500X0.172500X0*%
%TD*%
%TA.AperFunction,SMDPad,CuDef*%
%ADD15R,2.000000X1.600000*%
%TD*%
%TA.AperFunction,SMDPad,CuDef*%
%ADD16R,1.250000X0.300000*%
%TD*%
%TA.AperFunction,SMDPad,CuDef*%
%ADD17RoundRect,0.125000X0.625000X0.125000X-0.625000X0.125000X-0.625000X-0.125000X0.625000X-0.125000X0*%
%TD*%
%TA.AperFunction,SMDPad,CuDef*%
%ADD18RoundRect,0.125000X0.125000X0.625000X-0.125000X0.625000X-0.125000X-0.625000X0.125000X-0.625000X0*%
%TD*%
%TA.AperFunction,SMDPad,CuDef*%
%ADD19RoundRect,0.147500X-0.172500X0.147500X-0.172500X-0.147500X0.172500X-0.147500X0.172500X0.147500X0*%
%TD*%
%TA.AperFunction,ComponentPad*%
%ADD20R,1.350000X1.350000*%
%TD*%
%TA.AperFunction,ComponentPad*%
%ADD21O,1.350000X1.350000*%
%TD*%
%TA.AperFunction,SMDPad,CuDef*%
%ADD22R,1.060000X0.650000*%
%TD*%
%TA.AperFunction,SMDPad,CuDef*%
%ADD23RoundRect,0.147500X0.147500X0.172500X-0.147500X0.172500X-0.147500X-0.172500X0.147500X-0.172500X0*%
%TD*%
%TA.AperFunction,ViaPad*%
%ADD24C,0.600000*%
%TD*%
%TA.AperFunction,Conductor*%
%ADD25C,0.200000*%
%TD*%
%TA.AperFunction,Conductor*%
%ADD26C,0.400000*%
%TD*%
%ADD27C,0.300000*%
%ADD28C,0.350000*%
G04 APERTURE END LIST*
D10*
%TO.P,C9,1*%
%TO.N,VDD*%
X31125000Y-18725000D03*
%TO.P,C9,2*%
%TO.N,GND*%
X31125000Y-17755000D03*
%TD*%
D11*
%TO.P,C12,1*%
%TO.N,5V*%
X42710000Y-21250000D03*
%TO.P,C12,2*%
%TO.N,GND*%
X42710000Y-23125000D03*
%TD*%
%TO.P,C5,1*%
%TO.N,5V*%
X32060000Y-21237500D03*
%TO.P,C5,2*%
%TO.N,GND*%
X32060000Y-23112500D03*
%TD*%
D12*
%TO.P,J9,1,Pin_1*%
%TO.N,PWM6*%
X33000000Y-8350000D03*
D13*
%TO.P,J9,2,Pin_2*%
%TO.N,5V*%
X33000000Y-5810000D03*
%TO.P,J9,3,Pin_3*%
%TO.N,GND*%
X33000000Y-3270000D03*
%TD*%
D12*
%TO.P,J10,1,Pin_1*%
%TO.N,PWM7*%
X37500000Y-8325000D03*
D13*
%TO.P,J10,2,Pin_2*%
%TO.N,5V*%
X37500000Y-5785000D03*
%TO.P,J10,3,Pin_3*%
%TO.N,GND*%
X37500000Y-3245000D03*
%TD*%
D11*
%TO.P,C13,1*%
%TO.N,5V*%
X44810000Y-21275000D03*
%TO.P,C13,2*%
%TO.N,GND*%
X44810000Y-23150000D03*
%TD*%
D10*
%TO.P,C3,1*%
%TO.N,VDD*%
X29950000Y-18635000D03*
%TO.P,C3,2*%
%TO.N,GND*%
X29950000Y-17665000D03*
%TD*%
D14*
%TO.P,R5,1*%
%TO.N,Net-(U1-PA0)*%
X30230000Y-14325000D03*
%TO.P,R5,2*%
%TO.N,SCLK*%
X31200000Y-14325000D03*
%TD*%
D12*
%TO.P,J5,1,Pin_1*%
%TO.N,PWM2*%
X15000000Y-8350000D03*
D13*
%TO.P,J5,2,Pin_2*%
%TO.N,5V*%
X15000000Y-5810000D03*
%TO.P,J5,3,Pin_3*%
%TO.N,GND*%
X15000000Y-3270000D03*
%TD*%
D11*
%TO.P,C11,1*%
%TO.N,5V*%
X40585000Y-21250000D03*
%TO.P,C11,2*%
%TO.N,GND*%
X40585000Y-23125000D03*
%TD*%
D15*
%TO.P,J12,*%
%TO.N,*%
X3645000Y-18100000D03*
X3645000Y-6900000D03*
D16*
%TO.P,J12,1,1*%
%TO.N,GND*%
X6300000Y-8750000D03*
%TO.P,J12,2,2*%
%TO.N,5V*%
X6300000Y-9250000D03*
%TO.P,J12,3,3*%
X6300000Y-9750000D03*
%TO.P,J12,4,4*%
%TO.N,GND*%
X6300000Y-10250000D03*
%TO.P,J12,5,5*%
%TO.N,PS*%
X6300000Y-10750000D03*
%TO.P,J12,6,6*%
%TO.N,GND*%
X6300000Y-11250000D03*
%TO.P,J12,7,7*%
%TO.N,SCLK*%
X6300000Y-11750000D03*
%TO.P,J12,8,8*%
%TO.N,GND*%
X6300000Y-12250000D03*
%TO.P,J12,9,9*%
%TO.N,MISO*%
X6300000Y-12750000D03*
%TO.P,J12,10,10*%
%TO.N,GND*%
X6300000Y-13250000D03*
%TO.P,J12,11,11*%
%TO.N,MOSI*%
X6300000Y-13750000D03*
%TO.P,J12,12,12*%
%TO.N,Interrupt5V*%
X6300000Y-14250000D03*
%TO.P,J12,13,13*%
%TO.N,GND*%
X6300000Y-14750000D03*
%TO.P,J12,14,14*%
%TO.N,5V*%
X6300000Y-15250000D03*
%TO.P,J12,15,15*%
X6300000Y-15750000D03*
%TO.P,J12,16,16*%
%TO.N,GND*%
X6300000Y-16250000D03*
%TD*%
D14*
%TO.P,R6,1*%
%TO.N,Net-(U1-PA1)*%
X30330000Y-13075000D03*
%TO.P,R6,2*%
%TO.N,PS*%
X31300000Y-13075000D03*
%TD*%
D17*
%TO.P,U1,1,PB9*%
%TO.N,unconnected-(U1-PB9-Pad1)*%
X28125000Y-20175000D03*
%TO.P,U1,2,PC14*%
%TO.N,unconnected-(U1-PC14-Pad2)*%
X28125000Y-19375000D03*
%TO.P,U1,3,PC15*%
%TO.N,unconnected-(U1-PC15-Pad3)*%
X28125000Y-18575000D03*
%TO.P,U1,4,VDD*%
%TO.N,VDD*%
X28125000Y-17775000D03*
%TO.P,U1,5,VSS*%
%TO.N,GND*%
X28125000Y-16975000D03*
%TO.P,U1,6,NRST*%
%TO.N,Net-(U1-NRST)*%
X28125000Y-16175000D03*
%TO.P,U1,7,PA0*%
%TO.N,Net-(U1-PA0)*%
X28125000Y-15375000D03*
%TO.P,U1,8,PA1*%
%TO.N,Net-(U1-PA1)*%
X28125000Y-14575000D03*
D18*
%TO.P,U1,9,PA2*%
%TO.N,unconnected-(U1-PA2-Pad9)*%
X26750000Y-13200000D03*
%TO.P,U1,10,PA3*%
%TO.N,unconnected-(U1-PA3-Pad10)*%
X25950000Y-13200000D03*
%TO.P,U1,11,PA4*%
%TO.N,PWM8*%
X25150000Y-13200000D03*
%TO.P,U1,12,PA5*%
%TO.N,unconnected-(U1-PA5-Pad12)*%
X24350000Y-13200000D03*
%TO.P,U1,13,PA6*%
%TO.N,PWM7*%
X23550000Y-13200000D03*
%TO.P,U1,14,PA7*%
%TO.N,PWM6*%
X22750000Y-13200000D03*
%TO.P,U1,15,PB0*%
%TO.N,PWM5*%
X21950000Y-13200000D03*
%TO.P,U1,16,PB1*%
%TO.N,PWM4*%
X21150000Y-13200000D03*
D17*
%TO.P,U1,17,PB2*%
%TO.N,unconnected-(U1-PB2-Pad17)*%
X19775000Y-14575000D03*
%TO.P,U1,18,PA8*%
%TO.N,PWM3*%
X19775000Y-15375000D03*
%TO.P,U1,19,PA9/NC*%
%TO.N,Net-(U1-PA9{slash}NC)*%
X19775000Y-16175000D03*
%TO.P,U1,20,PC6*%
%TO.N,PWM2*%
X19775000Y-16975000D03*
%TO.P,U1,21,PA10/NC*%
%TO.N,Net-(U1-PA10{slash}NC)*%
X19775000Y-17775000D03*
%TO.P,U1,22,PA11/PA9*%
%TO.N,PWM1*%
X19775000Y-18575000D03*
%TO.P,U1,23,PA12/PA10*%
%TO.N,unconnected-(U1-PA12{slash}PA10-Pad23)*%
X19775000Y-19375000D03*
%TO.P,U1,24,PA13*%
%TO.N,SWDIO*%
X19775000Y-20175000D03*
D18*
%TO.P,U1,25,PA14*%
%TO.N,SWDCLK*%
X21150000Y-21550000D03*
%TO.P,U1,26,PA15*%
%TO.N,unconnected-(U1-PA15-Pad26)*%
X21950000Y-21550000D03*
%TO.P,U1,27,PB3*%
%TO.N,PWM9*%
X22750000Y-21550000D03*
%TO.P,U1,28,PB4*%
%TO.N,unconnected-(U1-PB4-Pad28)*%
X23550000Y-21550000D03*
%TO.P,U1,29,PB5*%
%TO.N,unconnected-(U1-PB5-Pad29)*%
X24350000Y-21550000D03*
%TO.P,U1,30,PB6*%
%TO.N,PWM10*%
X25150000Y-21550000D03*
%TO.P,U1,31,PB7*%
%TO.N,unconnected-(U1-PB7-Pad31)*%
X25950000Y-21550000D03*
%TO.P,U1,32,PB8*%
%TO.N,unconnected-(U1-PB8-Pad32)*%
X26750000Y-21550000D03*
%TD*%
D19*
%TO.P,C4,1*%
%TO.N,Net-(U1-NRST)*%
X29950000Y-15655000D03*
%TO.P,C4,2*%
%TO.N,GND*%
X29950000Y-16625000D03*
%TD*%
D11*
%TO.P,C10,1*%
%TO.N,5V*%
X38485000Y-21250000D03*
%TO.P,C10,2*%
%TO.N,GND*%
X38485000Y-23125000D03*
%TD*%
D19*
%TO.P,C8,1*%
%TO.N,5V*%
X36125000Y-16890000D03*
%TO.P,C8,2*%
%TO.N,GND*%
X36125000Y-17860000D03*
%TD*%
D11*
%TO.P,C6,1*%
%TO.N,5V*%
X34185000Y-21237500D03*
%TO.P,C6,2*%
%TO.N,GND*%
X34185000Y-23112500D03*
%TD*%
D15*
%TO.P,J13,*%
%TO.N,*%
X50900000Y-6900000D03*
X50900000Y-18100000D03*
D16*
%TO.P,J13,1,1*%
%TO.N,GND*%
X48245000Y-16250000D03*
%TO.P,J13,2,2*%
%TO.N,5V*%
X48245000Y-15750000D03*
%TO.P,J13,3,3*%
X48245000Y-15250000D03*
%TO.P,J13,4,4*%
%TO.N,GND*%
X48245000Y-14750000D03*
%TO.P,J13,5,5*%
%TO.N,PS*%
X48245000Y-14250000D03*
%TO.P,J13,6,6*%
%TO.N,GND*%
X48245000Y-13750000D03*
%TO.P,J13,7,7*%
%TO.N,SCLK*%
X48245000Y-13250000D03*
%TO.P,J13,8,8*%
%TO.N,GND*%
X48245000Y-12750000D03*
%TO.P,J13,9,9*%
%TO.N,MISO*%
X48245000Y-12250000D03*
%TO.P,J13,10,10*%
%TO.N,GND*%
X48245000Y-11750000D03*
%TO.P,J13,11,11*%
%TO.N,MOSI*%
X48245000Y-11250000D03*
%TO.P,J13,12,12*%
%TO.N,Interrupt5V*%
X48245000Y-10750000D03*
%TO.P,J13,13,13*%
%TO.N,GND*%
X48245000Y-10250000D03*
%TO.P,J13,14,14*%
%TO.N,5V*%
X48245000Y-9750000D03*
%TO.P,J13,15,15*%
X48245000Y-9250000D03*
%TO.P,J13,16,16*%
%TO.N,GND*%
X48245000Y-8750000D03*
%TD*%
D12*
%TO.P,J8,1,Pin_1*%
%TO.N,PWM5*%
X28500000Y-8350000D03*
D13*
%TO.P,J8,2,Pin_2*%
%TO.N,5V*%
X28500000Y-5810000D03*
%TO.P,J8,3,Pin_3*%
%TO.N,GND*%
X28500000Y-3270000D03*
%TD*%
D20*
%TO.P,J4,1,Pin_1*%
%TO.N,5V*%
X5850000Y-23600000D03*
D21*
%TO.P,J4,2,Pin_2*%
%TO.N,GND*%
X7850000Y-23600000D03*
%TO.P,J4,3,Pin_3*%
%TO.N,SWDIO*%
X9850000Y-23600000D03*
%TO.P,J4,4,Pin_4*%
%TO.N,SWDCLK*%
X11850000Y-23600000D03*
%TD*%
D22*
%TO.P,U2,1,IN*%
%TO.N,5V*%
X34725000Y-18725000D03*
%TO.P,U2,2,GND*%
%TO.N,GND*%
X34725000Y-17775000D03*
%TO.P,U2,3,EN*%
%TO.N,5V*%
X34725000Y-16825000D03*
%TO.P,U2,4,NC*%
%TO.N,unconnected-(U2-NC-Pad4)*%
X32525000Y-16825000D03*
%TO.P,U2,5,OUT*%
%TO.N,VDD*%
X32525000Y-18725000D03*
%TD*%
D23*
%TO.P,R8,1*%
%TO.N,Net-(U1-PA10{slash}NC)*%
X17820000Y-17900000D03*
%TO.P,R8,2*%
%TO.N,MOSI*%
X16850000Y-17900000D03*
%TD*%
D12*
%TO.P,J2,1,Pin_1*%
%TO.N,PWM1*%
X10500000Y-8350000D03*
D13*
%TO.P,J2,2,Pin_2*%
%TO.N,5V*%
X10500000Y-5810000D03*
%TO.P,J2,3,Pin_3*%
%TO.N,GND*%
X10500000Y-3270000D03*
%TD*%
D11*
%TO.P,C7,1*%
%TO.N,5V*%
X36335000Y-21250000D03*
%TO.P,C7,2*%
%TO.N,GND*%
X36335000Y-23125000D03*
%TD*%
D12*
%TO.P,J6,1,Pin_1*%
%TO.N,PWM3*%
X19500000Y-8350000D03*
D13*
%TO.P,J6,2,Pin_2*%
%TO.N,5V*%
X19500000Y-5810000D03*
%TO.P,J6,3,Pin_3*%
%TO.N,GND*%
X19500000Y-3270000D03*
%TD*%
D11*
%TO.P,C14,1*%
%TO.N,5V*%
X46910000Y-21275000D03*
%TO.P,C14,2*%
%TO.N,GND*%
X46910000Y-23150000D03*
%TD*%
D12*
%TO.P,J11,1,Pin_1*%
%TO.N,PWM8*%
X42000000Y-8305000D03*
D13*
%TO.P,J11,2,Pin_2*%
%TO.N,5V*%
X42000000Y-5765000D03*
%TO.P,J11,3,Pin_3*%
%TO.N,GND*%
X42000000Y-3225000D03*
%TD*%
D23*
%TO.P,R7,1*%
%TO.N,Net-(U1-PA9{slash}NC)*%
X17700000Y-16250000D03*
%TO.P,R7,2*%
%TO.N,MISO*%
X16730000Y-16250000D03*
%TD*%
D12*
%TO.P,J7,1,Pin_1*%
%TO.N,PWM4*%
X24000000Y-8350000D03*
D13*
%TO.P,J7,2,Pin_2*%
%TO.N,5V*%
X24000000Y-5810000D03*
%TO.P,J7,3,Pin_3*%
%TO.N,GND*%
X24000000Y-3270000D03*
%TD*%
D24*
%TO.N,GND*%
X45875000Y-7200000D03*
X30725000Y-8625000D03*
X12700000Y-8875000D03*
X47600000Y-17700000D03*
X20000000Y-11725000D03*
X8000000Y-9950000D03*
X44550000Y-19700000D03*
X4975000Y-20050000D03*
X43275000Y-12425000D03*
X6025000Y-7300000D03*
X17750000Y-19375000D03*
X4200000Y-16075000D03*
X26500000Y-20000000D03*
X13875000Y-23875000D03*
X33250000Y-17665000D03*
X44625000Y-10150000D03*
X26450000Y-16575000D03*
X36000000Y-8625000D03*
X6675000Y-20125000D03*
X27850000Y-11900000D03*
X37450000Y-23170000D03*
X21775000Y-8800000D03*
X4225000Y-9100000D03*
X21550000Y-16525000D03*
X28500000Y-21925000D03*
X38300000Y-17250000D03*
X10750000Y-21150000D03*
X18200000Y-20850000D03*
X49325000Y-5250000D03*
X21275000Y-19950000D03*
X48785000Y-23100000D03*
X49925000Y-16525000D03*
X17200000Y-8725000D03*
X19525000Y-22625000D03*
X37650000Y-11650000D03*
X31175000Y-16500000D03*
X26350000Y-8650000D03*
X13850000Y-17825000D03*
X12600000Y-11325000D03*
X12500000Y-15725000D03*
X50025000Y-9950000D03*
X39800000Y-8675000D03*
X45975000Y-15325000D03*
%TO.N,5V*%
X7975000Y-7250000D03*
X49962500Y-8537500D03*
X48435000Y-21200000D03*
X51500000Y-15300000D03*
%TO.N,MOSI*%
X10075000Y-18850000D03*
X14850000Y-16975000D03*
X42900000Y-15975000D03*
%TO.N,MISO*%
X44093527Y-15170000D03*
X9795343Y-15195343D03*
X16750000Y-14775000D03*
%TO.N,SCLK*%
X33200000Y-13970000D03*
X46100000Y-13770000D03*
X9719494Y-13856976D03*
%TO.N,PS*%
X50200000Y-13950000D03*
X9875000Y-11550000D03*
X32675000Y-12425000D03*
%TO.N,Interrupt5V*%
X10650000Y-19975000D03*
X50800000Y-10850000D03*
%TD*%
D25*
%TO.N,VDD*%
X29090000Y-17775000D02*
X29950000Y-18635000D01*
X28125000Y-17775000D02*
X29090000Y-17775000D01*
X32435000Y-18635000D02*
X32525000Y-18725000D01*
X29950000Y-18635000D02*
X32435000Y-18635000D01*
%TO.N,GND*%
X46271471Y-12750000D02*
X45350000Y-13671471D01*
X6300000Y-10250000D02*
X5425000Y-10250000D01*
X5375000Y-10300000D02*
X5375000Y-11275000D01*
X6300000Y-12250000D02*
X5475000Y-12250000D01*
X43844998Y-15770000D02*
X44342056Y-15770000D01*
X48245000Y-11750000D02*
X46009314Y-11750000D01*
X29610000Y-16625000D02*
X29260000Y-16975000D01*
X29260000Y-16975000D02*
X29950000Y-17665000D01*
X5375000Y-12150000D02*
X5375000Y-13200000D01*
X47425000Y-13750000D02*
X48245000Y-13750000D01*
X35750000Y-17900000D02*
X35790000Y-17860000D01*
X5375000Y-11275000D02*
X5375000Y-12150000D01*
X6300000Y-11250000D02*
X5400000Y-11250000D01*
X46009314Y-11750000D02*
X43493527Y-14265787D01*
X5425000Y-13250000D02*
X5375000Y-13200000D01*
X35515000Y-17665000D02*
X35750000Y-17900000D01*
X5475000Y-12250000D02*
X5375000Y-12150000D01*
X44342056Y-15770000D02*
X45150000Y-14962056D01*
X33250000Y-17665000D02*
X35515000Y-17665000D01*
X45350000Y-13868529D02*
X45881471Y-14400000D01*
X43493527Y-15418529D02*
X43844998Y-15770000D01*
X5425000Y-14750000D02*
X6300000Y-14750000D01*
X6300000Y-13250000D02*
X5425000Y-13250000D01*
X5425000Y-10250000D02*
X5375000Y-10300000D01*
X45881471Y-14400000D02*
X46775000Y-14400000D01*
X29950000Y-16625000D02*
X29610000Y-16625000D01*
X5400000Y-11250000D02*
X5375000Y-11275000D01*
X45350000Y-13671471D02*
X45350000Y-13868529D01*
X29950000Y-17665000D02*
X33250000Y-17665000D01*
X28125000Y-16975000D02*
X29260000Y-16975000D01*
X48245000Y-12750000D02*
X46271471Y-12750000D01*
X5375000Y-14700000D02*
X5425000Y-14750000D01*
X43493527Y-14265787D02*
X43493527Y-15418529D01*
X45150000Y-14962056D02*
X45150000Y-14575000D01*
X5375000Y-13200000D02*
X5375000Y-14700000D01*
X35790000Y-17860000D02*
X36125000Y-17860000D01*
X46775000Y-14400000D02*
X47425000Y-13750000D01*
%TO.N,5V*%
X4975000Y-15300000D02*
X5375000Y-15700000D01*
X7275000Y-9500000D02*
X7275000Y-9150000D01*
X7325000Y-9700000D02*
X7325000Y-9550000D01*
X5825000Y-15250000D02*
X5375000Y-15700000D01*
X7175000Y-9250000D02*
X7275000Y-9150000D01*
X6300000Y-9750000D02*
X5359314Y-9750000D01*
X49250000Y-9250000D02*
X49962500Y-8537500D01*
X6300000Y-15250000D02*
X5825000Y-15250000D01*
X48245000Y-15750000D02*
X48725000Y-15750000D01*
X48725000Y-15750000D02*
X49225000Y-15250000D01*
X49200000Y-9750000D02*
X49250000Y-9700000D01*
X36745000Y-18196948D02*
X36745000Y-17510000D01*
X7325000Y-9550000D02*
X7275000Y-9500000D01*
X36216948Y-18725000D02*
X36745000Y-18196948D01*
X7275000Y-9750000D02*
X7325000Y-9700000D01*
X36745000Y-17510000D02*
X36060000Y-16825000D01*
X5850000Y-17100000D02*
X5375000Y-16625000D01*
X36060000Y-16825000D02*
X34725000Y-16825000D01*
X6300000Y-15750000D02*
X5475000Y-15750000D01*
X34875000Y-18875000D02*
X34725000Y-18725000D01*
X46872500Y-21237500D02*
X46910000Y-21275000D01*
X4975000Y-10134314D02*
X4975000Y-15300000D01*
X6300000Y-9750000D02*
X7275000Y-9750000D01*
X49250000Y-9700000D02*
X49250000Y-9250000D01*
X6300000Y-9250000D02*
X7175000Y-9250000D01*
X32060000Y-21237500D02*
X46872500Y-21237500D01*
X49225000Y-15250000D02*
X51450000Y-15250000D01*
X48245000Y-15250000D02*
X49225000Y-15250000D01*
X34875000Y-21312500D02*
X34875000Y-18875000D01*
D26*
X48435000Y-21200000D02*
X48397500Y-21237500D01*
D25*
X7275000Y-9150000D02*
X7975000Y-8450000D01*
D26*
X48397500Y-21237500D02*
X32060000Y-21237500D01*
D25*
X48245000Y-9750000D02*
X49200000Y-9750000D01*
X5475000Y-15750000D02*
X5375000Y-15850000D01*
X48245000Y-9250000D02*
X49250000Y-9250000D01*
X34725000Y-18725000D02*
X36216948Y-18725000D01*
X5850000Y-23600000D02*
X5850000Y-17100000D01*
X51450000Y-15250000D02*
X51500000Y-15300000D01*
X5375000Y-15850000D02*
X5375000Y-16625000D01*
X5359314Y-9750000D02*
X4975000Y-10134314D01*
D26*
X10545000Y-5780000D02*
X42000000Y-5780000D01*
D25*
X7975000Y-8450000D02*
X7975000Y-7250000D01*
X5375000Y-15700000D02*
X5375000Y-15850000D01*
%TO.N,MOSI*%
X16850000Y-17900000D02*
X15775000Y-17900000D01*
X15775000Y-17900000D02*
X14850000Y-16975000D01*
X45943628Y-11250000D02*
X42900000Y-14293628D01*
X7175000Y-13750000D02*
X10075000Y-16650000D01*
X6300000Y-13750000D02*
X7175000Y-13750000D01*
X48245000Y-11250000D02*
X45943628Y-11250000D01*
X10075000Y-16650000D02*
X10075000Y-18850000D01*
X42900000Y-14293628D02*
X42900000Y-15975000D01*
%TO.N,MISO*%
X16730000Y-16250000D02*
X16730000Y-14795000D01*
X16730000Y-14795000D02*
X16750000Y-14775000D01*
X7175000Y-12750000D02*
X9620343Y-15195343D01*
X6300000Y-12750000D02*
X7175000Y-12750000D01*
X48245000Y-12250000D02*
X46075000Y-12250000D01*
X9620343Y-15195343D02*
X9795343Y-15195343D01*
X46075000Y-12250000D02*
X44093527Y-14231473D01*
X44093527Y-14231473D02*
X44093527Y-15170000D01*
%TO.N,SCLK*%
X32845000Y-14325000D02*
X33200000Y-13970000D01*
X31200000Y-14325000D02*
X32845000Y-14325000D01*
X46620000Y-13250000D02*
X46100000Y-13770000D01*
X7612518Y-11750000D02*
X9719494Y-13856976D01*
X48245000Y-13250000D02*
X46620000Y-13250000D01*
X6300000Y-11750000D02*
X7612518Y-11750000D01*
%TO.N,PS*%
X49420000Y-13950000D02*
X50200000Y-13950000D01*
X31300000Y-13075000D02*
X32025000Y-13075000D01*
X32025000Y-13075000D02*
X32675000Y-12425000D01*
X9075000Y-10750000D02*
X9875000Y-11550000D01*
X6300000Y-10750000D02*
X9075000Y-10750000D01*
X48245000Y-14250000D02*
X49120000Y-14250000D01*
X49120000Y-14250000D02*
X49420000Y-13950000D01*
%TO.N,SWDIO*%
X13275000Y-20175000D02*
X19775000Y-20175000D01*
X9850000Y-23600000D02*
X13275000Y-20175000D01*
%TO.N,SWDCLK*%
X11850000Y-23600000D02*
X13900000Y-21550000D01*
X13900000Y-21550000D02*
X21150000Y-21550000D01*
%TO.N,PWM6*%
X33000000Y-9000000D02*
X32100000Y-9900000D01*
X22750000Y-13200000D02*
X22750000Y-12450001D01*
X33000000Y-8350000D02*
X33000000Y-9000000D01*
X22750000Y-12450001D02*
X25300001Y-9900000D01*
X25300001Y-9900000D02*
X32100000Y-9900000D01*
%TO.N,PWM3*%
X18725000Y-15074999D02*
X19025001Y-15375000D01*
X19025001Y-15375000D02*
X19775000Y-15375000D01*
X18725000Y-10125000D02*
X18725000Y-15074999D01*
X19500000Y-9350000D02*
X18725000Y-10125000D01*
X19500000Y-8350000D02*
X19500000Y-9350000D01*
%TO.N,PWM5*%
X28500000Y-8350000D02*
X28500000Y-8625000D01*
X28500000Y-8625000D02*
X27625000Y-9500000D01*
X24900001Y-9500000D02*
X27625000Y-9500000D01*
X21950000Y-12450001D02*
X24900001Y-9500000D01*
X21950000Y-13200000D02*
X21950000Y-12450001D01*
%TO.N,PWM4*%
X24000000Y-9795494D02*
X21150000Y-12645494D01*
X21150000Y-12645494D02*
X21150000Y-13200000D01*
X24000000Y-8350000D02*
X24000000Y-9795494D01*
%TO.N,PWM2*%
X14700000Y-15176948D02*
X14700000Y-10700000D01*
X16498052Y-16975000D02*
X14700000Y-15176948D01*
X14700000Y-10700000D02*
X15000000Y-10400000D01*
X19775000Y-16975000D02*
X16498052Y-16975000D01*
X15000000Y-8350000D02*
X15000000Y-10400000D01*
%TO.N,PWM1*%
X19775000Y-18575000D02*
X12475000Y-18575000D01*
X10500000Y-8350000D02*
X10500000Y-8825000D01*
X10500000Y-8825000D02*
X11500000Y-9825000D01*
X12475000Y-18575000D02*
X11500000Y-17600000D01*
X11500000Y-17600000D02*
X11500000Y-9825000D01*
%TO.N,Net-(U1-NRST)*%
X28125000Y-16175000D02*
X29430000Y-16175000D01*
X29430000Y-16175000D02*
X29950000Y-15655000D01*
%TO.N,PWM7*%
X23550000Y-13200000D02*
X23550000Y-12450001D01*
X37500000Y-8725000D02*
X35925000Y-10300000D01*
X37500000Y-8325000D02*
X37500000Y-8725000D01*
X25700001Y-10300000D02*
X35925000Y-10300000D01*
X23550000Y-12450001D02*
X25700001Y-10300000D01*
%TO.N,PWM8*%
X26900001Y-10700000D02*
X40175000Y-10700000D01*
X42000000Y-8305000D02*
X42047500Y-8352500D01*
X25150000Y-13200000D02*
X25150000Y-12450001D01*
X42047500Y-8352500D02*
X42047500Y-8827500D01*
X25150000Y-12450001D02*
X26900001Y-10700000D01*
X42047500Y-8827500D02*
X40175000Y-10700000D01*
%TO.N,Net-(U1-PA0)*%
X28125000Y-15375000D02*
X29180000Y-15375000D01*
X29180000Y-15375000D02*
X30230000Y-14325000D01*
%TO.N,Net-(U1-PA1)*%
X29625000Y-13075000D02*
X30330000Y-13075000D01*
X28125000Y-14575000D02*
X29625000Y-13075000D01*
%TO.N,Net-(U1-PA9{slash}NC)*%
X17700000Y-16250000D02*
X19700000Y-16250000D01*
X19700000Y-16250000D02*
X19775000Y-16175000D01*
%TO.N,Net-(U1-PA10{slash}NC)*%
X17820000Y-17900000D02*
X19650000Y-17900000D01*
X19650000Y-17900000D02*
X19775000Y-17775000D01*
%TO.N,Interrupt5V*%
X7109314Y-14250000D02*
X9475000Y-16615686D01*
X9475000Y-16615686D02*
X9475000Y-19125000D01*
X50800000Y-10850000D02*
X50700000Y-10750000D01*
X10325000Y-19975000D02*
X10650000Y-19975000D01*
X50700000Y-10750000D02*
X48245000Y-10750000D01*
X9475000Y-19125000D02*
X10325000Y-19975000D01*
X6300000Y-14250000D02*
X7109314Y-14250000D01*
%TD*%
%TA.AperFunction,Conductor*%
%TO.N,GND*%
G36*
X51502992Y-100681D02*
G01*
X51783256Y-117633D01*
X51795111Y-119073D01*
X51958223Y-148964D01*
X51983638Y-153622D01*
X52037468Y-182709D01*
X52063920Y-237880D01*
X52052891Y-298064D01*
X52008593Y-340270D01*
X51965793Y-350000D01*
X50999997Y-350000D01*
X50299998Y-650000D01*
X49799999Y-1050000D01*
X49600005Y-1349990D01*
X49599998Y-1350002D01*
X49400001Y-1749996D01*
X49300000Y-2050000D01*
X49300000Y-3050002D01*
X49599997Y-3749995D01*
X49600000Y-3750000D01*
X49764647Y-3947577D01*
X50100000Y-4350000D01*
X50900000Y-4750000D01*
X51899998Y-4750000D01*
X51900000Y-4750000D01*
X52500000Y-4650000D01*
X53100000Y-4150000D01*
X53500000Y-3650000D01*
X53700000Y-2950000D01*
X53700000Y-2478186D01*
X53718907Y-2419995D01*
X53768407Y-2384031D01*
X53829593Y-2384031D01*
X53879093Y-2419995D01*
X53897819Y-2472209D01*
X53899319Y-2497007D01*
X53899500Y-2502984D01*
X53899500Y-5019991D01*
X53914798Y-5056926D01*
X53914799Y-5056927D01*
X53914800Y-5056929D01*
X53943071Y-5085200D01*
X53943072Y-5085200D01*
X53943073Y-5085201D01*
X53980008Y-5100500D01*
X53980009Y-5100500D01*
X54800500Y-5100500D01*
X54858691Y-5119407D01*
X54894655Y-5168907D01*
X54899500Y-5199500D01*
X54899500Y-19800500D01*
X54880593Y-19858691D01*
X54831093Y-19894655D01*
X54800500Y-19899500D01*
X53980008Y-19899500D01*
X53943073Y-19914798D01*
X53914798Y-19943073D01*
X53899500Y-19980008D01*
X53899500Y-22497015D01*
X53899319Y-22502992D01*
X53897819Y-22527790D01*
X53875433Y-22584733D01*
X53823852Y-22617643D01*
X53762778Y-22613949D01*
X53715540Y-22575062D01*
X53700000Y-22521813D01*
X53700000Y-21900000D01*
X53659571Y-21798928D01*
X53500000Y-21400000D01*
X53100000Y-20900000D01*
X52866963Y-20713570D01*
X52820088Y-20676070D01*
X52756873Y-20625498D01*
X52712268Y-20589814D01*
X52688433Y-20570746D01*
X52681018Y-20564814D01*
X52665393Y-20552314D01*
X52600000Y-20500000D01*
X52451500Y-20450500D01*
X52000000Y-20300000D01*
X51000000Y-20300000D01*
X50999997Y-20300000D01*
X50299998Y-20600000D01*
X49799999Y-21000000D01*
X49600005Y-21299990D01*
X49600001Y-21299998D01*
X49400001Y-21699996D01*
X49300000Y-22000000D01*
X49300000Y-23000002D01*
X49599997Y-23699995D01*
X49600000Y-23700000D01*
X50061837Y-24254205D01*
X50100000Y-24300000D01*
X50900000Y-24700000D01*
X51521813Y-24700000D01*
X51580004Y-24718907D01*
X51615968Y-24768407D01*
X51615968Y-24829593D01*
X51580004Y-24879093D01*
X51527790Y-24897819D01*
X51502992Y-24899319D01*
X51497015Y-24899500D01*
X8277877Y-24899500D01*
X8219686Y-24880593D01*
X8183722Y-24831093D01*
X8183722Y-24769907D01*
X8219686Y-24720407D01*
X8242114Y-24708185D01*
X8375986Y-24656322D01*
X8375991Y-24656319D01*
X8561126Y-24541688D01*
X8561129Y-24541686D01*
X8722052Y-24394987D01*
X8853283Y-24221209D01*
X8853288Y-24221200D01*
X8930605Y-24065927D01*
X8973467Y-24022265D01*
X9033808Y-24012135D01*
X9088579Y-24039407D01*
X9104962Y-24060555D01*
X9137805Y-24117440D01*
X9231239Y-24221209D01*
X9254463Y-24247003D01*
X9260950Y-24254207D01*
X9409839Y-24362381D01*
X9409843Y-24362383D01*
X9409845Y-24362384D01*
X9465485Y-24387156D01*
X9577966Y-24437236D01*
X9757981Y-24475500D01*
X9757983Y-24475500D01*
X9942017Y-24475500D01*
X9942019Y-24475500D01*
X10122034Y-24437236D01*
X10290161Y-24362381D01*
X10439050Y-24254207D01*
X10562195Y-24117440D01*
X10654214Y-23958059D01*
X10711085Y-23783029D01*
X10730322Y-23600000D01*
X10969678Y-23600000D01*
X10986483Y-23759893D01*
X10988916Y-23783034D01*
X11045784Y-23958054D01*
X11045790Y-23958068D01*
X11104962Y-24060555D01*
X11137805Y-24117440D01*
X11231239Y-24221209D01*
X11254463Y-24247003D01*
X11260950Y-24254207D01*
X11409839Y-24362381D01*
X11409843Y-24362383D01*
X11409845Y-24362384D01*
X11465485Y-24387156D01*
X11577966Y-24437236D01*
X11757981Y-24475500D01*
X11757983Y-24475500D01*
X11942017Y-24475500D01*
X11942019Y-24475500D01*
X12122034Y-24437236D01*
X12290161Y-24362381D01*
X12439050Y-24254207D01*
X12562195Y-24117440D01*
X12654214Y-23958059D01*
X12711085Y-23783029D01*
X12730322Y-23600000D01*
X12711085Y-23416971D01*
X12693386Y-23362501D01*
X30860000Y-23362501D01*
X30860000Y-23405816D01*
X30870406Y-23507670D01*
X30925095Y-23672712D01*
X31016368Y-23820688D01*
X31139311Y-23943631D01*
X31287287Y-24034904D01*
X31452329Y-24089593D01*
X31554184Y-24100000D01*
X31809999Y-24100000D01*
X31810000Y-24099999D01*
X31810000Y-23362501D01*
X32310000Y-23362501D01*
X32310000Y-24099999D01*
X32310001Y-24100000D01*
X32565816Y-24100000D01*
X32667670Y-24089593D01*
X32832712Y-24034904D01*
X32980688Y-23943631D01*
X33052496Y-23871824D01*
X33107013Y-23844047D01*
X33167445Y-23853618D01*
X33192504Y-23871824D01*
X33264311Y-23943631D01*
X33412287Y-24034904D01*
X33577329Y-24089593D01*
X33679184Y-24100000D01*
X33934999Y-24100000D01*
X33935000Y-24099999D01*
X33935000Y-23362501D01*
X34435000Y-23362501D01*
X34435000Y-24099999D01*
X34435001Y-24100000D01*
X34690816Y-24100000D01*
X34792670Y-24089593D01*
X34957712Y-24034904D01*
X35105688Y-23943631D01*
X35183746Y-23865574D01*
X35238263Y-23837797D01*
X35298695Y-23847368D01*
X35323754Y-23865574D01*
X35414311Y-23956131D01*
X35562287Y-24047404D01*
X35727329Y-24102093D01*
X35829184Y-24112500D01*
X36084999Y-24112500D01*
X36085000Y-24112499D01*
X36085000Y-23375001D01*
X36585000Y-23375001D01*
X36585000Y-24112499D01*
X36585001Y-24112500D01*
X36840816Y-24112500D01*
X36942670Y-24102093D01*
X37107712Y-24047404D01*
X37255688Y-23956131D01*
X37339996Y-23871824D01*
X37394513Y-23844047D01*
X37454945Y-23853618D01*
X37480004Y-23871824D01*
X37564311Y-23956131D01*
X37712287Y-24047404D01*
X37877329Y-24102093D01*
X37979184Y-24112500D01*
X38234999Y-24112500D01*
X38235000Y-24112499D01*
X38235000Y-23375001D01*
X38735000Y-23375001D01*
X38735000Y-24112499D01*
X38735001Y-24112500D01*
X38990816Y-24112500D01*
X39092670Y-24102093D01*
X39257712Y-24047404D01*
X39405688Y-23956131D01*
X39464996Y-23896824D01*
X39519513Y-23869047D01*
X39579945Y-23878618D01*
X39605004Y-23896824D01*
X39664311Y-23956131D01*
X39812287Y-24047404D01*
X39977329Y-24102093D01*
X40079184Y-24112500D01*
X40334999Y-24112500D01*
X40335000Y-24112499D01*
X40335000Y-23375001D01*
X40835000Y-23375001D01*
X40835000Y-24112499D01*
X40835001Y-24112500D01*
X41090816Y-24112500D01*
X41192670Y-24102093D01*
X41357712Y-24047404D01*
X41505688Y-23956131D01*
X41577496Y-23884324D01*
X41632013Y-23856547D01*
X41692445Y-23866118D01*
X41717504Y-23884324D01*
X41789311Y-23956131D01*
X41937287Y-24047404D01*
X42102329Y-24102093D01*
X42204184Y-24112500D01*
X42459999Y-24112500D01*
X42460000Y-24112499D01*
X42460000Y-23375001D01*
X42960000Y-23375001D01*
X42960000Y-24112499D01*
X42960001Y-24112500D01*
X43215816Y-24112500D01*
X43317670Y-24102093D01*
X43482715Y-24047403D01*
X43630691Y-23956129D01*
X43630694Y-23956127D01*
X43677496Y-23909325D01*
X43732012Y-23881547D01*
X43792444Y-23891118D01*
X43817504Y-23909324D01*
X43889311Y-23981131D01*
X44037287Y-24072404D01*
X44202329Y-24127093D01*
X44304184Y-24137500D01*
X44559999Y-24137500D01*
X44560000Y-24137499D01*
X44560000Y-23400001D01*
X45060000Y-23400001D01*
X45060000Y-24137499D01*
X45060001Y-24137500D01*
X45315816Y-24137500D01*
X45417670Y-24127093D01*
X45582712Y-24072404D01*
X45730688Y-23981131D01*
X45789996Y-23921824D01*
X45844513Y-23894047D01*
X45904945Y-23903618D01*
X45930004Y-23921824D01*
X45989311Y-23981131D01*
X46137287Y-24072404D01*
X46302329Y-24127093D01*
X46404184Y-24137500D01*
X46659999Y-24137500D01*
X46660000Y-24137499D01*
X46660000Y-23400001D01*
X47160000Y-23400001D01*
X47160000Y-24137499D01*
X47160001Y-24137500D01*
X47415816Y-24137500D01*
X47517670Y-24127093D01*
X47682712Y-24072404D01*
X47830688Y-23981131D01*
X47953631Y-23858188D01*
X48044904Y-23710212D01*
X48099593Y-23545170D01*
X48110000Y-23443316D01*
X48110000Y-23400001D01*
X48109999Y-23400000D01*
X47160001Y-23400000D01*
X47160000Y-23400001D01*
X46660000Y-23400001D01*
X46659999Y-23400000D01*
X45060001Y-23400000D01*
X45060000Y-23400001D01*
X44560000Y-23400001D01*
X44559999Y-23400000D01*
X43571007Y-23400000D01*
X43512816Y-23381093D01*
X43505682Y-23375000D01*
X42960001Y-23375000D01*
X42960000Y-23375001D01*
X42460000Y-23375001D01*
X42459999Y-23375000D01*
X40835001Y-23375000D01*
X40835000Y-23375001D01*
X40335000Y-23375001D01*
X40334999Y-23375000D01*
X38735001Y-23375000D01*
X38735000Y-23375001D01*
X38235000Y-23375001D01*
X38234999Y-23375000D01*
X36585001Y-23375000D01*
X36585000Y-23375001D01*
X36085000Y-23375001D01*
X36084999Y-23375000D01*
X35083507Y-23375000D01*
X35045035Y-23362500D01*
X34435001Y-23362500D01*
X34435000Y-23362501D01*
X33935000Y-23362501D01*
X33934999Y-23362500D01*
X32310001Y-23362500D01*
X32310000Y-23362501D01*
X31810000Y-23362501D01*
X31809999Y-23362500D01*
X30860001Y-23362500D01*
X30860000Y-23362501D01*
X12693386Y-23362501D01*
X12667765Y-23283649D01*
X12667765Y-23222465D01*
X12691914Y-23183055D01*
X13055787Y-22819183D01*
X30860000Y-22819183D01*
X30860000Y-22862499D01*
X30860001Y-22862500D01*
X31809999Y-22862500D01*
X31810000Y-22862499D01*
X31810000Y-22125001D01*
X32310000Y-22125001D01*
X32310000Y-22862499D01*
X32310001Y-22862500D01*
X33934999Y-22862500D01*
X33935000Y-22862499D01*
X33935000Y-22125001D01*
X34435000Y-22125001D01*
X34435000Y-22862499D01*
X34435001Y-22862500D01*
X35436493Y-22862500D01*
X35474965Y-22875000D01*
X36084999Y-22875000D01*
X36085000Y-22874999D01*
X36085000Y-22137501D01*
X36585000Y-22137501D01*
X36585000Y-22874999D01*
X36585001Y-22875000D01*
X38234999Y-22875000D01*
X38235000Y-22874999D01*
X38235000Y-22137501D01*
X38735000Y-22137501D01*
X38735000Y-22874999D01*
X38735001Y-22875000D01*
X40334999Y-22875000D01*
X40335000Y-22874999D01*
X40335000Y-22137501D01*
X40835000Y-22137501D01*
X40835000Y-22874999D01*
X40835001Y-22875000D01*
X42459999Y-22875000D01*
X42460000Y-22874999D01*
X42460000Y-22137501D01*
X42960000Y-22137501D01*
X42960000Y-22874999D01*
X42960001Y-22875000D01*
X43948993Y-22875000D01*
X44007184Y-22893907D01*
X44014318Y-22900000D01*
X44559999Y-22900000D01*
X44560000Y-22899999D01*
X44560000Y-22162501D01*
X45060000Y-22162501D01*
X45060000Y-22899999D01*
X45060001Y-22900000D01*
X46659999Y-22900000D01*
X46660000Y-22899999D01*
X46660000Y-22162501D01*
X47160000Y-22162501D01*
X47160000Y-22899999D01*
X47160001Y-22900000D01*
X48109999Y-22900000D01*
X48110000Y-22899999D01*
X48110000Y-22856683D01*
X48099593Y-22754829D01*
X48044904Y-22589787D01*
X47953631Y-22441811D01*
X47830688Y-22318868D01*
X47682712Y-22227595D01*
X47517670Y-22172906D01*
X47415816Y-22162500D01*
X47160001Y-22162500D01*
X47160000Y-22162501D01*
X46660000Y-22162501D01*
X46659999Y-22162500D01*
X46404184Y-22162500D01*
X46302329Y-22172906D01*
X46137287Y-22227595D01*
X45989311Y-22318868D01*
X45930004Y-22378176D01*
X45875487Y-22405953D01*
X45815055Y-22396382D01*
X45789996Y-22378176D01*
X45730688Y-22318868D01*
X45582712Y-22227595D01*
X45417670Y-22172906D01*
X45315816Y-22162500D01*
X45060001Y-22162500D01*
X45060000Y-22162501D01*
X44560000Y-22162501D01*
X44559999Y-22162500D01*
X44304184Y-22162500D01*
X44202329Y-22172906D01*
X44037287Y-22227595D01*
X43889308Y-22318870D01*
X43842501Y-22365676D01*
X43787984Y-22393452D01*
X43727552Y-22383880D01*
X43702495Y-22365675D01*
X43630688Y-22293868D01*
X43482712Y-22202595D01*
X43317670Y-22147906D01*
X43215816Y-22137500D01*
X42960001Y-22137500D01*
X42960000Y-22137501D01*
X42460000Y-22137501D01*
X42459999Y-22137500D01*
X42204184Y-22137500D01*
X42102329Y-22147906D01*
X41937287Y-22202595D01*
X41789311Y-22293868D01*
X41717504Y-22365676D01*
X41662987Y-22393453D01*
X41602555Y-22383882D01*
X41577496Y-22365676D01*
X41505688Y-22293868D01*
X41357712Y-22202595D01*
X41192670Y-22147906D01*
X41090816Y-22137500D01*
X40835001Y-22137500D01*
X40835000Y-22137501D01*
X40335000Y-22137501D01*
X40334999Y-22137500D01*
X40079184Y-22137500D01*
X39977329Y-22147906D01*
X39812287Y-22202595D01*
X39664311Y-22293868D01*
X39605004Y-22353176D01*
X39550487Y-22380953D01*
X39490055Y-22371382D01*
X39464996Y-22353176D01*
X39405688Y-22293868D01*
X39257712Y-22202595D01*
X39092670Y-22147906D01*
X38990816Y-22137500D01*
X38735001Y-22137500D01*
X38735000Y-22137501D01*
X38235000Y-22137501D01*
X38234999Y-22137500D01*
X37979184Y-22137500D01*
X37877329Y-22147906D01*
X37712287Y-22202595D01*
X37564311Y-22293868D01*
X37480004Y-22378176D01*
X37425487Y-22405953D01*
X37365055Y-22396382D01*
X37339996Y-22378176D01*
X37255688Y-22293868D01*
X37107712Y-22202595D01*
X36942670Y-22147906D01*
X36840816Y-22137500D01*
X36585001Y-22137500D01*
X36585000Y-22137501D01*
X36085000Y-22137501D01*
X36084999Y-22137500D01*
X35829184Y-22137500D01*
X35727329Y-22147906D01*
X35562287Y-22202595D01*
X35414311Y-22293868D01*
X35336254Y-22371926D01*
X35281737Y-22399703D01*
X35221305Y-22390132D01*
X35196246Y-22371926D01*
X35105688Y-22281368D01*
X34957712Y-22190095D01*
X34792670Y-22135406D01*
X34690816Y-22125000D01*
X34435001Y-22125000D01*
X34435000Y-22125001D01*
X33935000Y-22125001D01*
X33934999Y-22125000D01*
X33679184Y-22125000D01*
X33577329Y-22135406D01*
X33412287Y-22190095D01*
X33264311Y-22281368D01*
X33192504Y-22353176D01*
X33137987Y-22380953D01*
X33077555Y-22371382D01*
X33052496Y-22353176D01*
X32980688Y-22281368D01*
X32832712Y-22190095D01*
X32667670Y-22135406D01*
X32565816Y-22125000D01*
X32310001Y-22125000D01*
X32310000Y-22125001D01*
X31810000Y-22125001D01*
X31809999Y-22125000D01*
X31554184Y-22125000D01*
X31452329Y-22135406D01*
X31287287Y-22190095D01*
X31139311Y-22281368D01*
X31016368Y-22404311D01*
X30925095Y-22552287D01*
X30870406Y-22717329D01*
X30860000Y-22819183D01*
X13055787Y-22819183D01*
X13995475Y-21879496D01*
X14049992Y-21851719D01*
X14065479Y-21850500D01*
X20600501Y-21850500D01*
X20658692Y-21869407D01*
X20694656Y-21918907D01*
X20699501Y-21949500D01*
X20699501Y-22213145D01*
X20705740Y-22260544D01*
X20705740Y-22260546D01*
X20754251Y-22364576D01*
X20754252Y-22364577D01*
X20754253Y-22364579D01*
X20835421Y-22445747D01*
X20939455Y-22494259D01*
X20986861Y-22500500D01*
X21313138Y-22500499D01*
X21360545Y-22494259D01*
X21360546Y-22494259D01*
X21452501Y-22451379D01*
X21464579Y-22445747D01*
X21479998Y-22430327D01*
X21534513Y-22402552D01*
X21594945Y-22412123D01*
X21620000Y-22430326D01*
X21635421Y-22445747D01*
X21739455Y-22494259D01*
X21786861Y-22500500D01*
X22113138Y-22500499D01*
X22160545Y-22494259D01*
X22160546Y-22494259D01*
X22252501Y-22451379D01*
X22264579Y-22445747D01*
X22279998Y-22430327D01*
X22334513Y-22402552D01*
X22394945Y-22412123D01*
X22420000Y-22430326D01*
X22435421Y-22445747D01*
X22539455Y-22494259D01*
X22586861Y-22500500D01*
X22913138Y-22500499D01*
X22960545Y-22494259D01*
X22960546Y-22494259D01*
X23052501Y-22451379D01*
X23064579Y-22445747D01*
X23079998Y-22430327D01*
X23134513Y-22402552D01*
X23194945Y-22412123D01*
X23220000Y-22430326D01*
X23235421Y-22445747D01*
X23339455Y-22494259D01*
X23386861Y-22500500D01*
X23713138Y-22500499D01*
X23760545Y-22494259D01*
X23760546Y-22494259D01*
X23852501Y-22451379D01*
X23864579Y-22445747D01*
X23879998Y-22430327D01*
X23934513Y-22402552D01*
X23994945Y-22412123D01*
X24020000Y-22430326D01*
X24035421Y-22445747D01*
X24139455Y-22494259D01*
X24186861Y-22500500D01*
X24513138Y-22500499D01*
X24560545Y-22494259D01*
X24560546Y-22494259D01*
X24652501Y-22451379D01*
X24664579Y-22445747D01*
X24679998Y-22430327D01*
X24734513Y-22402552D01*
X24794945Y-22412123D01*
X24820000Y-22430326D01*
X24835421Y-22445747D01*
X24939455Y-22494259D01*
X24986861Y-22500500D01*
X25313138Y-22500499D01*
X25360545Y-22494259D01*
X25360546Y-22494259D01*
X25452501Y-22451379D01*
X25464579Y-22445747D01*
X25479998Y-22430327D01*
X25534513Y-22402552D01*
X25594945Y-22412123D01*
X25620000Y-22430326D01*
X25635421Y-22445747D01*
X25739455Y-22494259D01*
X25786861Y-22500500D01*
X26113138Y-22500499D01*
X26160545Y-22494259D01*
X26160546Y-22494259D01*
X26252501Y-22451379D01*
X26264579Y-22445747D01*
X26279998Y-22430327D01*
X26334513Y-22402552D01*
X26394945Y-22412123D01*
X26420000Y-22430326D01*
X26435421Y-22445747D01*
X26539455Y-22494259D01*
X26586861Y-22500500D01*
X26913138Y-22500499D01*
X26960545Y-22494259D01*
X26960546Y-22494259D01*
X27052501Y-22451379D01*
X27064579Y-22445747D01*
X27145747Y-22364579D01*
X27194259Y-22260545D01*
X27200500Y-22213139D01*
X27200499Y-20940226D01*
X31159500Y-20940226D01*
X31159500Y-21534773D01*
X31162313Y-21564768D01*
X31162315Y-21564777D01*
X31206543Y-21691175D01*
X31206544Y-21691176D01*
X31206545Y-21691179D01*
X31286070Y-21798930D01*
X31393821Y-21878455D01*
X31520226Y-21922686D01*
X31550226Y-21925499D01*
X31550230Y-21925500D01*
X31550236Y-21925500D01*
X32569770Y-21925500D01*
X32569772Y-21925499D01*
X32599774Y-21922686D01*
X32726179Y-21878455D01*
X32833930Y-21798930D01*
X32913455Y-21691179D01*
X32913456Y-21691177D01*
X32913684Y-21690746D01*
X32914002Y-21690436D01*
X32917861Y-21685209D01*
X32918728Y-21685849D01*
X32957588Y-21648131D01*
X33001214Y-21638000D01*
X33243786Y-21638000D01*
X33301977Y-21656907D01*
X33326758Y-21685489D01*
X33327139Y-21685209D01*
X33330708Y-21690044D01*
X33331316Y-21690746D01*
X33331543Y-21691177D01*
X33373207Y-21747629D01*
X33411070Y-21798930D01*
X33518821Y-21878455D01*
X33645226Y-21922686D01*
X33675226Y-21925499D01*
X33675230Y-21925500D01*
X33675236Y-21925500D01*
X34694770Y-21925500D01*
X34694772Y-21925499D01*
X34724774Y-21922686D01*
X34851179Y-21878455D01*
X34958930Y-21798930D01*
X35038455Y-21691179D01*
X35038456Y-21691177D01*
X35038684Y-21690746D01*
X35039002Y-21690436D01*
X35042861Y-21685209D01*
X35043728Y-21685849D01*
X35082588Y-21648131D01*
X35126214Y-21638000D01*
X35388319Y-21638000D01*
X35446510Y-21656907D01*
X35476890Y-21697751D01*
X35478080Y-21697123D01*
X35481543Y-21703676D01*
X35481544Y-21703678D01*
X35481545Y-21703679D01*
X35561070Y-21811430D01*
X35668821Y-21890955D01*
X35795226Y-21935186D01*
X35825226Y-21937999D01*
X35825230Y-21938000D01*
X35825236Y-21938000D01*
X36844770Y-21938000D01*
X36844772Y-21937999D01*
X36874774Y-21935186D01*
X37001179Y-21890955D01*
X37108930Y-21811430D01*
X37188455Y-21703679D01*
X37188456Y-21703675D01*
X37191920Y-21697123D01*
X37193191Y-21697795D01*
X37225301Y-21655623D01*
X37281681Y-21638000D01*
X37538319Y-21638000D01*
X37596510Y-21656907D01*
X37626890Y-21697751D01*
X37628080Y-21697123D01*
X37631543Y-21703676D01*
X37631544Y-21703678D01*
X37631545Y-21703679D01*
X37711070Y-21811430D01*
X37818821Y-21890955D01*
X37945226Y-21935186D01*
X37975226Y-21937999D01*
X37975230Y-21938000D01*
X37975236Y-21938000D01*
X38994770Y-21938000D01*
X38994772Y-21937999D01*
X39024774Y-21935186D01*
X39151179Y-21890955D01*
X39258930Y-21811430D01*
X39338455Y-21703679D01*
X39338456Y-21703675D01*
X39341920Y-21697123D01*
X39343191Y-21697795D01*
X39375301Y-21655623D01*
X39431681Y-21638000D01*
X39638319Y-21638000D01*
X39696510Y-21656907D01*
X39726890Y-21697751D01*
X39728080Y-21697123D01*
X39731543Y-21703676D01*
X39731544Y-21703678D01*
X39731545Y-21703679D01*
X39811070Y-21811430D01*
X39918821Y-21890955D01*
X40045226Y-21935186D01*
X40075226Y-21937999D01*
X40075230Y-21938000D01*
X40075236Y-21938000D01*
X41094770Y-21938000D01*
X41094772Y-21937999D01*
X41124774Y-21935186D01*
X41251179Y-21890955D01*
X41358930Y-21811430D01*
X41438455Y-21703679D01*
X41438456Y-21703675D01*
X41441920Y-21697123D01*
X41443191Y-21697795D01*
X41475301Y-21655623D01*
X41531681Y-21638000D01*
X41763319Y-21638000D01*
X41821510Y-21656907D01*
X41851890Y-21697751D01*
X41853080Y-21697123D01*
X41856543Y-21703676D01*
X41856544Y-21703678D01*
X41856545Y-21703679D01*
X41936070Y-21811430D01*
X42043821Y-21890955D01*
X42170226Y-21935186D01*
X42200226Y-21937999D01*
X42200230Y-21938000D01*
X42200236Y-21938000D01*
X43219770Y-21938000D01*
X43219772Y-21937999D01*
X43249774Y-21935186D01*
X43376179Y-21890955D01*
X43483930Y-21811430D01*
X43563455Y-21703679D01*
X43563456Y-21703675D01*
X43566920Y-21697123D01*
X43568191Y-21697795D01*
X43600301Y-21655623D01*
X43656681Y-21638000D01*
X43854571Y-21638000D01*
X43912762Y-21656907D01*
X43948014Y-21704301D01*
X43956545Y-21728679D01*
X44036070Y-21836430D01*
X44143821Y-21915955D01*
X44270226Y-21960186D01*
X44300226Y-21962999D01*
X44300230Y-21963000D01*
X44300236Y-21963000D01*
X45319770Y-21963000D01*
X45319772Y-21962999D01*
X45349774Y-21960186D01*
X45476179Y-21915955D01*
X45583930Y-21836430D01*
X45663455Y-21728679D01*
X45671985Y-21704301D01*
X45709049Y-21655622D01*
X45765429Y-21638000D01*
X45954571Y-21638000D01*
X46012762Y-21656907D01*
X46048014Y-21704301D01*
X46056545Y-21728679D01*
X46136070Y-21836430D01*
X46243821Y-21915955D01*
X46370226Y-21960186D01*
X46400226Y-21962999D01*
X46400230Y-21963000D01*
X46400236Y-21963000D01*
X47419770Y-21963000D01*
X47419772Y-21962999D01*
X47449774Y-21960186D01*
X47576179Y-21915955D01*
X47683930Y-21836430D01*
X47763455Y-21728679D01*
X47771985Y-21704301D01*
X47809049Y-21655622D01*
X47865429Y-21638000D01*
X48161719Y-21638000D01*
X48215239Y-21653714D01*
X48224947Y-21659953D01*
X48310962Y-21685209D01*
X48363035Y-21700499D01*
X48363036Y-21700499D01*
X48363039Y-21700500D01*
X48363041Y-21700500D01*
X48506959Y-21700500D01*
X48506961Y-21700500D01*
X48645053Y-21659953D01*
X48766128Y-21582143D01*
X48860377Y-21473373D01*
X48920165Y-21342457D01*
X48934227Y-21244655D01*
X48940647Y-21200002D01*
X48940647Y-21199997D01*
X48920165Y-21057543D01*
X48860377Y-20926627D01*
X48766128Y-20817857D01*
X48766127Y-20817856D01*
X48766126Y-20817855D01*
X48645057Y-20740049D01*
X48645054Y-20740047D01*
X48645053Y-20740047D01*
X48645050Y-20740046D01*
X48506964Y-20699500D01*
X48506961Y-20699500D01*
X48363039Y-20699500D01*
X48363035Y-20699500D01*
X48224949Y-20740046D01*
X48224942Y-20740049D01*
X48098539Y-20821284D01*
X48045016Y-20837000D01*
X47825004Y-20837000D01*
X47766813Y-20818093D01*
X47745349Y-20796789D01*
X47736098Y-20784254D01*
X47683930Y-20713570D01*
X47576179Y-20634045D01*
X47576176Y-20634044D01*
X47576175Y-20634043D01*
X47449777Y-20589815D01*
X47449776Y-20589814D01*
X47449774Y-20589814D01*
X47449771Y-20589813D01*
X47449768Y-20589813D01*
X47419773Y-20587000D01*
X47419764Y-20587000D01*
X46400236Y-20587000D01*
X46400226Y-20587000D01*
X46370231Y-20589813D01*
X46370222Y-20589815D01*
X46243824Y-20634043D01*
X46136071Y-20713569D01*
X46136069Y-20713571D01*
X46116529Y-20740047D01*
X46084220Y-20783824D01*
X46074651Y-20796789D01*
X46024883Y-20832381D01*
X45994996Y-20837000D01*
X45725004Y-20837000D01*
X45666813Y-20818093D01*
X45645349Y-20796789D01*
X45636098Y-20784254D01*
X45583930Y-20713570D01*
X45476179Y-20634045D01*
X45476176Y-20634044D01*
X45476175Y-20634043D01*
X45349777Y-20589815D01*
X45349776Y-20589814D01*
X45349774Y-20589814D01*
X45349771Y-20589813D01*
X45349768Y-20589813D01*
X45319773Y-20587000D01*
X45319764Y-20587000D01*
X44300236Y-20587000D01*
X44300226Y-20587000D01*
X44270231Y-20589813D01*
X44270222Y-20589815D01*
X44143824Y-20634043D01*
X44036071Y-20713569D01*
X44036069Y-20713571D01*
X44016529Y-20740047D01*
X43984220Y-20783824D01*
X43974651Y-20796789D01*
X43924883Y-20832381D01*
X43894996Y-20837000D01*
X43643455Y-20837000D01*
X43585264Y-20818093D01*
X43563800Y-20796789D01*
X43563455Y-20796321D01*
X43483930Y-20688570D01*
X43376179Y-20609045D01*
X43376176Y-20609044D01*
X43376175Y-20609043D01*
X43249777Y-20564815D01*
X43249776Y-20564814D01*
X43249774Y-20564814D01*
X43249771Y-20564813D01*
X43249768Y-20564813D01*
X43219773Y-20562000D01*
X43219764Y-20562000D01*
X42200236Y-20562000D01*
X42200226Y-20562000D01*
X42170231Y-20564813D01*
X42170222Y-20564815D01*
X42043824Y-20609043D01*
X41936071Y-20688569D01*
X41936069Y-20688571D01*
X41928003Y-20699500D01*
X41861365Y-20789791D01*
X41856200Y-20796789D01*
X41806432Y-20832381D01*
X41776545Y-20837000D01*
X41518455Y-20837000D01*
X41460264Y-20818093D01*
X41438800Y-20796789D01*
X41438455Y-20796321D01*
X41358930Y-20688570D01*
X41251179Y-20609045D01*
X41251176Y-20609044D01*
X41251175Y-20609043D01*
X41124777Y-20564815D01*
X41124776Y-20564814D01*
X41124774Y-20564814D01*
X41124771Y-20564813D01*
X41124768Y-20564813D01*
X41094773Y-20562000D01*
X41094764Y-20562000D01*
X40075236Y-20562000D01*
X40075226Y-20562000D01*
X40045231Y-20564813D01*
X40045222Y-20564815D01*
X39918824Y-20609043D01*
X39811071Y-20688569D01*
X39811069Y-20688571D01*
X39803003Y-20699500D01*
X39736365Y-20789791D01*
X39731200Y-20796789D01*
X39681432Y-20832381D01*
X39651545Y-20837000D01*
X39418455Y-20837000D01*
X39360264Y-20818093D01*
X39338800Y-20796789D01*
X39338455Y-20796321D01*
X39258930Y-20688570D01*
X39151179Y-20609045D01*
X39151176Y-20609044D01*
X39151175Y-20609043D01*
X39024777Y-20564815D01*
X39024776Y-20564814D01*
X39024774Y-20564814D01*
X39024771Y-20564813D01*
X39024768Y-20564813D01*
X38994773Y-20562000D01*
X38994764Y-20562000D01*
X37975236Y-20562000D01*
X37975226Y-20562000D01*
X37945231Y-20564813D01*
X37945222Y-20564815D01*
X37818824Y-20609043D01*
X37711071Y-20688569D01*
X37711069Y-20688571D01*
X37703003Y-20699500D01*
X37636365Y-20789791D01*
X37631200Y-20796789D01*
X37581432Y-20832381D01*
X37551545Y-20837000D01*
X37268455Y-20837000D01*
X37210264Y-20818093D01*
X37188800Y-20796789D01*
X37188455Y-20796321D01*
X37108930Y-20688570D01*
X37001179Y-20609045D01*
X37001176Y-20609044D01*
X37001175Y-20609043D01*
X36874777Y-20564815D01*
X36874776Y-20564814D01*
X36874774Y-20564814D01*
X36874771Y-20564813D01*
X36874768Y-20564813D01*
X36844773Y-20562000D01*
X36844764Y-20562000D01*
X35825236Y-20562000D01*
X35825226Y-20562000D01*
X35795231Y-20564813D01*
X35795222Y-20564815D01*
X35668824Y-20609043D01*
X35561071Y-20688569D01*
X35561069Y-20688571D01*
X35553003Y-20699500D01*
X35486365Y-20789791D01*
X35481200Y-20796789D01*
X35431432Y-20832381D01*
X35401545Y-20837000D01*
X35274500Y-20837000D01*
X35216309Y-20818093D01*
X35180345Y-20768593D01*
X35175500Y-20738000D01*
X35175500Y-19349500D01*
X35194407Y-19291309D01*
X35243907Y-19255345D01*
X35269936Y-19251222D01*
X35269912Y-19250976D01*
X35274094Y-19250564D01*
X35274500Y-19250500D01*
X35274747Y-19250500D01*
X35274748Y-19250500D01*
X35333231Y-19238867D01*
X35399552Y-19194552D01*
X35443867Y-19128231D01*
X35446367Y-19115662D01*
X35448452Y-19105184D01*
X35478350Y-19051800D01*
X35533915Y-19026186D01*
X35545549Y-19025500D01*
X36256511Y-19025500D01*
X36256511Y-19025499D01*
X36332937Y-19005021D01*
X36401459Y-18965460D01*
X36457408Y-18909511D01*
X36985460Y-18381459D01*
X37003911Y-18349500D01*
X37025021Y-18312937D01*
X37045500Y-18236510D01*
X37045500Y-17470438D01*
X37025021Y-17394011D01*
X37022986Y-17390487D01*
X36985460Y-17325489D01*
X36940225Y-17280253D01*
X49699500Y-17280253D01*
X49699500Y-18919743D01*
X49699501Y-18919758D01*
X49711132Y-18978227D01*
X49711134Y-18978233D01*
X49743176Y-19026186D01*
X49755448Y-19044552D01*
X49821769Y-19088867D01*
X49866231Y-19097711D01*
X49880241Y-19100498D01*
X49880246Y-19100498D01*
X49880252Y-19100500D01*
X49880253Y-19100500D01*
X51919747Y-19100500D01*
X51919748Y-19100500D01*
X51978231Y-19088867D01*
X52044552Y-19044552D01*
X52088867Y-18978231D01*
X52100500Y-18919748D01*
X52100500Y-17280252D01*
X52088867Y-17221769D01*
X52044552Y-17155448D01*
X52044548Y-17155445D01*
X51978233Y-17111134D01*
X51978231Y-17111133D01*
X51978228Y-17111132D01*
X51978227Y-17111132D01*
X51919758Y-17099501D01*
X51919748Y-17099500D01*
X49880252Y-17099500D01*
X49880251Y-17099500D01*
X49880241Y-17099501D01*
X49821772Y-17111132D01*
X49821766Y-17111134D01*
X49755451Y-17155445D01*
X49755445Y-17155451D01*
X49711134Y-17221766D01*
X49711132Y-17221772D01*
X49699501Y-17280241D01*
X49699500Y-17280253D01*
X36940225Y-17280253D01*
X36929511Y-17269539D01*
X36929511Y-17269540D01*
X36674496Y-17014525D01*
X36646719Y-16960008D01*
X36645500Y-16944521D01*
X36645500Y-16709475D01*
X36644357Y-16701627D01*
X36635645Y-16641830D01*
X36584636Y-16537489D01*
X36502511Y-16455364D01*
X36398170Y-16404355D01*
X36398171Y-16404355D01*
X36368278Y-16400000D01*
X36330528Y-16394500D01*
X35919472Y-16394500D01*
X35881722Y-16400000D01*
X35851828Y-16404355D01*
X35747488Y-16455364D01*
X35707348Y-16495504D01*
X35652831Y-16523281D01*
X35637345Y-16524500D01*
X35545549Y-16524500D01*
X35487358Y-16505593D01*
X35451394Y-16456093D01*
X35448452Y-16444816D01*
X35446038Y-16432683D01*
X35443867Y-16421769D01*
X35399552Y-16355448D01*
X35399548Y-16355445D01*
X35333233Y-16311134D01*
X35333231Y-16311133D01*
X35333228Y-16311132D01*
X35333227Y-16311132D01*
X35274758Y-16299501D01*
X35274748Y-16299500D01*
X34175252Y-16299500D01*
X34175251Y-16299500D01*
X34175241Y-16299501D01*
X34116772Y-16311132D01*
X34116766Y-16311134D01*
X34050451Y-16355445D01*
X34050445Y-16355451D01*
X34006134Y-16421766D01*
X34006132Y-16421772D01*
X33994501Y-16480241D01*
X33994500Y-16480253D01*
X33994500Y-16925957D01*
X33975593Y-16984148D01*
X33954829Y-17005210D01*
X33837815Y-17092807D01*
X33837807Y-17092815D01*
X33751647Y-17207909D01*
X33751646Y-17207911D01*
X33701403Y-17342618D01*
X33701401Y-17342629D01*
X33695000Y-17402175D01*
X33695000Y-17524999D01*
X33695001Y-17525000D01*
X35761000Y-17525000D01*
X35819191Y-17543907D01*
X35855155Y-17593407D01*
X35857365Y-17607364D01*
X35860001Y-17610000D01*
X36345500Y-17610000D01*
X36403691Y-17628907D01*
X36439655Y-17678407D01*
X36444500Y-17709000D01*
X36444500Y-18011000D01*
X36425593Y-18069191D01*
X36376093Y-18105155D01*
X36345500Y-18110000D01*
X35299000Y-18110000D01*
X35240809Y-18091093D01*
X35204845Y-18041593D01*
X35202634Y-18027635D01*
X35199999Y-18025000D01*
X33695001Y-18025000D01*
X33695000Y-18025001D01*
X33695000Y-18147824D01*
X33694999Y-18147824D01*
X33701401Y-18207370D01*
X33701403Y-18207381D01*
X33751646Y-18342088D01*
X33751647Y-18342090D01*
X33837807Y-18457184D01*
X33837815Y-18457192D01*
X33954829Y-18544788D01*
X33990082Y-18594796D01*
X33994500Y-18624041D01*
X33994500Y-19069746D01*
X33994501Y-19069758D01*
X34006132Y-19128227D01*
X34006134Y-19128233D01*
X34027117Y-19159636D01*
X34050448Y-19194552D01*
X34116769Y-19238867D01*
X34161231Y-19247711D01*
X34175241Y-19250498D01*
X34175246Y-19250498D01*
X34175252Y-19250500D01*
X34475500Y-19250500D01*
X34533691Y-19269407D01*
X34569655Y-19318907D01*
X34574500Y-19349500D01*
X34574500Y-20450500D01*
X34555593Y-20508691D01*
X34506093Y-20544655D01*
X34475500Y-20549500D01*
X33675226Y-20549500D01*
X33645231Y-20552313D01*
X33645222Y-20552315D01*
X33518824Y-20596543D01*
X33518821Y-20596544D01*
X33518821Y-20596545D01*
X33488045Y-20619259D01*
X33411071Y-20676069D01*
X33411069Y-20676071D01*
X33331543Y-20783822D01*
X33331316Y-20784254D01*
X33330997Y-20784563D01*
X33327139Y-20789791D01*
X33326271Y-20789150D01*
X33287412Y-20826869D01*
X33243786Y-20837000D01*
X33001214Y-20837000D01*
X32943023Y-20818093D01*
X32918241Y-20789510D01*
X32917861Y-20789791D01*
X32914291Y-20784955D01*
X32913684Y-20784254D01*
X32913456Y-20783822D01*
X32877735Y-20735423D01*
X32833930Y-20676070D01*
X32726179Y-20596545D01*
X32726176Y-20596544D01*
X32726175Y-20596543D01*
X32599777Y-20552315D01*
X32599776Y-20552314D01*
X32599774Y-20552314D01*
X32599771Y-20552313D01*
X32599768Y-20552313D01*
X32569773Y-20549500D01*
X32569764Y-20549500D01*
X31550236Y-20549500D01*
X31550226Y-20549500D01*
X31520231Y-20552313D01*
X31520222Y-20552315D01*
X31393824Y-20596543D01*
X31393821Y-20596544D01*
X31393821Y-20596545D01*
X31363045Y-20619259D01*
X31286071Y-20676069D01*
X31286069Y-20676071D01*
X31206543Y-20783824D01*
X31162315Y-20910222D01*
X31162313Y-20910231D01*
X31159500Y-20940226D01*
X27200499Y-20940226D01*
X27200499Y-20886862D01*
X27194259Y-20839455D01*
X27194259Y-20839453D01*
X27145748Y-20735423D01*
X27145747Y-20735422D01*
X27145747Y-20735421D01*
X27064579Y-20654253D01*
X26960545Y-20605741D01*
X26913139Y-20599500D01*
X26913137Y-20599500D01*
X26586866Y-20599500D01*
X26586854Y-20599501D01*
X26539455Y-20605740D01*
X26539453Y-20605740D01*
X26435423Y-20654251D01*
X26435421Y-20654252D01*
X26435421Y-20654253D01*
X26420001Y-20669672D01*
X26365487Y-20697448D01*
X26305055Y-20687877D01*
X26279999Y-20669673D01*
X26264579Y-20654253D01*
X26160545Y-20605741D01*
X26113139Y-20599500D01*
X26113137Y-20599500D01*
X25786866Y-20599500D01*
X25786854Y-20599501D01*
X25739455Y-20605740D01*
X25739453Y-20605740D01*
X25635423Y-20654251D01*
X25635421Y-20654252D01*
X25635421Y-20654253D01*
X25620001Y-20669672D01*
X25565487Y-20697448D01*
X25505055Y-20687877D01*
X25479999Y-20669673D01*
X25464579Y-20654253D01*
X25360545Y-20605741D01*
X25313139Y-20599500D01*
X25313137Y-20599500D01*
X24986866Y-20599500D01*
X24986854Y-20599501D01*
X24939455Y-20605740D01*
X24939453Y-20605740D01*
X24835423Y-20654251D01*
X24835421Y-20654252D01*
X24835421Y-20654253D01*
X24820001Y-20669672D01*
X24765487Y-20697448D01*
X24705055Y-20687877D01*
X24679999Y-20669673D01*
X24664579Y-20654253D01*
X24560545Y-20605741D01*
X24513139Y-20599500D01*
X24513137Y-20599500D01*
X24186866Y-20599500D01*
X24186854Y-20599501D01*
X24139455Y-20605740D01*
X24139453Y-20605740D01*
X24035423Y-20654251D01*
X24035421Y-20654252D01*
X24035421Y-20654253D01*
X24020001Y-20669672D01*
X23965487Y-20697448D01*
X23905055Y-20687877D01*
X23879999Y-20669673D01*
X23864579Y-20654253D01*
X23760545Y-20605741D01*
X23713139Y-20599500D01*
X23713137Y-20599500D01*
X23386866Y-20599500D01*
X23386854Y-20599501D01*
X23339455Y-20605740D01*
X23339453Y-20605740D01*
X23235423Y-20654251D01*
X23235421Y-20654252D01*
X23235421Y-20654253D01*
X23220001Y-20669672D01*
X23165487Y-20697448D01*
X23105055Y-20687877D01*
X23079999Y-20669673D01*
X23064579Y-20654253D01*
X22960545Y-20605741D01*
X22913139Y-20599500D01*
X22913137Y-20599500D01*
X22586866Y-20599500D01*
X22586854Y-20599501D01*
X22539455Y-20605740D01*
X22539453Y-20605740D01*
X22435423Y-20654251D01*
X22435421Y-20654252D01*
X22435421Y-20654253D01*
X22420001Y-20669672D01*
X22365487Y-20697448D01*
X22305055Y-20687877D01*
X22279999Y-20669673D01*
X22264579Y-20654253D01*
X22160545Y-20605741D01*
X22113139Y-20599500D01*
X22113137Y-20599500D01*
X21786866Y-20599500D01*
X21786854Y-20599501D01*
X21739455Y-20605740D01*
X21739453Y-20605740D01*
X21635423Y-20654251D01*
X21635421Y-20654252D01*
X21635421Y-20654253D01*
X21620001Y-20669672D01*
X21565487Y-20697448D01*
X21505055Y-20687877D01*
X21479999Y-20669673D01*
X21464579Y-20654253D01*
X21360545Y-20605741D01*
X21313139Y-20599500D01*
X21313137Y-20599500D01*
X20986866Y-20599500D01*
X20986854Y-20599501D01*
X20939455Y-20605740D01*
X20939453Y-20605740D01*
X20835423Y-20654251D01*
X20754253Y-20735421D01*
X20705741Y-20839455D01*
X20699500Y-20886862D01*
X20699500Y-21150500D01*
X20680593Y-21208691D01*
X20631093Y-21244655D01*
X20600500Y-21249500D01*
X13860435Y-21249500D01*
X13784012Y-21269978D01*
X13732013Y-21300000D01*
X13732012Y-21299999D01*
X13715489Y-21309539D01*
X12267174Y-22757852D01*
X12212658Y-22785629D01*
X12156905Y-22778289D01*
X12122040Y-22762766D01*
X12122035Y-22762764D01*
X12122034Y-22762764D01*
X12122031Y-22762763D01*
X12122030Y-22762763D01*
X12075135Y-22752795D01*
X11942019Y-22724500D01*
X11757981Y-22724500D01*
X11660797Y-22745157D01*
X11577969Y-22762763D01*
X11577963Y-22762765D01*
X11409845Y-22837615D01*
X11409842Y-22837617D01*
X11409839Y-22837618D01*
X11409839Y-22837619D01*
X11397245Y-22846769D01*
X11260948Y-22945794D01*
X11137803Y-23082562D01*
X11137803Y-23082563D01*
X11045790Y-23241931D01*
X11045784Y-23241945D01*
X10988916Y-23416965D01*
X10988915Y-23416969D01*
X10988915Y-23416971D01*
X10969678Y-23600000D01*
X10730322Y-23600000D01*
X10711085Y-23416971D01*
X10667765Y-23283649D01*
X10667765Y-23222465D01*
X10691914Y-23183055D01*
X13370475Y-20504496D01*
X13424992Y-20476719D01*
X13440479Y-20475500D01*
X18824167Y-20475500D01*
X18882358Y-20494407D01*
X18894164Y-20504490D01*
X18960421Y-20570747D01*
X19064455Y-20619259D01*
X19111861Y-20625500D01*
X20438138Y-20625499D01*
X20485545Y-20619259D01*
X20485546Y-20619259D01*
X20554724Y-20587000D01*
X20589579Y-20570747D01*
X20670747Y-20489579D01*
X20719259Y-20385545D01*
X20725500Y-20338139D01*
X20725499Y-20011862D01*
X20719259Y-19964455D01*
X20719259Y-19964453D01*
X20670748Y-19860423D01*
X20670747Y-19860422D01*
X20670747Y-19860421D01*
X20655327Y-19845001D01*
X20627552Y-19790487D01*
X20637123Y-19730055D01*
X20655326Y-19704999D01*
X20670747Y-19689579D01*
X20719259Y-19585545D01*
X20725500Y-19538139D01*
X20725499Y-19211862D01*
X20719259Y-19164455D01*
X20719259Y-19164453D01*
X20670748Y-19060423D01*
X20670747Y-19060422D01*
X20670747Y-19060421D01*
X20655327Y-19045001D01*
X20627552Y-18990487D01*
X20637123Y-18930055D01*
X20655326Y-18904999D01*
X20670747Y-18889579D01*
X20719259Y-18785545D01*
X20725500Y-18738139D01*
X20725499Y-18411862D01*
X20719259Y-18364455D01*
X20719259Y-18364453D01*
X20670748Y-18260423D01*
X20670747Y-18260422D01*
X20670747Y-18260421D01*
X20655327Y-18245001D01*
X20627552Y-18190487D01*
X20637123Y-18130055D01*
X20655326Y-18104999D01*
X20670747Y-18089579D01*
X20719259Y-17985545D01*
X20725500Y-17938139D01*
X20725499Y-17611862D01*
X20719259Y-17564455D01*
X20719259Y-17564453D01*
X20670748Y-17460423D01*
X20670747Y-17460422D01*
X20670747Y-17460421D01*
X20655327Y-17445001D01*
X20627552Y-17390487D01*
X20637123Y-17330055D01*
X20655326Y-17304999D01*
X20670747Y-17289579D01*
X20719259Y-17185545D01*
X20725500Y-17138139D01*
X20725499Y-16811862D01*
X20719259Y-16764455D01*
X20719259Y-16764453D01*
X20700861Y-16724999D01*
X26885474Y-16724999D01*
X26885475Y-16725000D01*
X28026000Y-16725000D01*
X28084191Y-16743907D01*
X28120155Y-16793407D01*
X28125000Y-16824000D01*
X28125000Y-17126000D01*
X28106093Y-17184191D01*
X28056593Y-17220155D01*
X28026000Y-17225000D01*
X26885474Y-17225000D01*
X26921845Y-17350189D01*
X27002227Y-17486109D01*
X27113891Y-17597773D01*
X27125892Y-17604870D01*
X27166356Y-17650764D01*
X27174500Y-17690085D01*
X27174500Y-17938133D01*
X27174501Y-17938145D01*
X27180740Y-17985544D01*
X27180740Y-17985546D01*
X27229251Y-18089576D01*
X27229252Y-18089577D01*
X27229253Y-18089579D01*
X27244672Y-18104998D01*
X27272448Y-18159513D01*
X27262877Y-18219945D01*
X27244673Y-18245000D01*
X27234229Y-18255445D01*
X27229253Y-18260421D01*
X27180741Y-18364455D01*
X27174500Y-18411862D01*
X27174500Y-18738133D01*
X27174501Y-18738145D01*
X27180740Y-18785544D01*
X27180740Y-18785546D01*
X27229251Y-18889576D01*
X27229252Y-18889577D01*
X27229253Y-18889579D01*
X27244672Y-18904998D01*
X27272448Y-18959513D01*
X27262877Y-19019945D01*
X27244673Y-19045000D01*
X27229253Y-19060421D01*
X27180741Y-19164455D01*
X27176779Y-19194554D01*
X27174500Y-19211862D01*
X27174500Y-19538133D01*
X27174501Y-19538145D01*
X27180740Y-19585544D01*
X27180740Y-19585546D01*
X27229251Y-19689576D01*
X27229252Y-19689577D01*
X27229253Y-19689579D01*
X27244672Y-19704998D01*
X27272448Y-19759513D01*
X27262877Y-19819945D01*
X27244673Y-19845000D01*
X27229253Y-19860421D01*
X27180741Y-19964455D01*
X27179353Y-19975002D01*
X27174500Y-20011862D01*
X27174500Y-20338133D01*
X27174501Y-20338145D01*
X27180740Y-20385544D01*
X27180740Y-20385546D01*
X27229251Y-20489576D01*
X27229252Y-20489577D01*
X27229253Y-20489579D01*
X27310421Y-20570747D01*
X27414455Y-20619259D01*
X27461861Y-20625500D01*
X28788138Y-20625499D01*
X28835545Y-20619259D01*
X28835546Y-20619259D01*
X28904724Y-20587000D01*
X28939579Y-20570747D01*
X29020747Y-20489579D01*
X29069259Y-20385545D01*
X29075500Y-20338139D01*
X29075499Y-20011862D01*
X29069259Y-19964455D01*
X29069259Y-19964453D01*
X29020748Y-19860423D01*
X29020747Y-19860422D01*
X29020747Y-19860421D01*
X29005327Y-19845001D01*
X28977552Y-19790487D01*
X28987123Y-19730055D01*
X29005326Y-19704999D01*
X29020747Y-19689579D01*
X29069259Y-19585545D01*
X29075500Y-19538139D01*
X29075499Y-19211862D01*
X29069259Y-19164455D01*
X29069259Y-19164453D01*
X29020748Y-19060423D01*
X29020747Y-19060422D01*
X29020747Y-19060421D01*
X29005327Y-19045001D01*
X28977552Y-18990487D01*
X28987123Y-18930055D01*
X29005326Y-18904999D01*
X29020747Y-18889579D01*
X29069259Y-18785545D01*
X29075500Y-18738139D01*
X29075499Y-18424477D01*
X29094406Y-18366288D01*
X29143906Y-18330324D01*
X29205091Y-18330323D01*
X29244503Y-18354474D01*
X29400504Y-18510475D01*
X29428281Y-18564992D01*
X29429500Y-18580479D01*
X29429500Y-18815528D01*
X29434523Y-18850002D01*
X29439355Y-18883171D01*
X29450025Y-18904996D01*
X29490364Y-18987511D01*
X29572489Y-19069636D01*
X29676830Y-19120645D01*
X29744472Y-19130500D01*
X29744475Y-19130500D01*
X30155524Y-19130500D01*
X30155528Y-19130500D01*
X30223170Y-19120645D01*
X30327511Y-19069636D01*
X30409636Y-18987511D01*
X30409636Y-18987509D01*
X30409638Y-18987508D01*
X30414405Y-18980832D01*
X30416399Y-18982256D01*
X30450464Y-18947046D01*
X30496862Y-18935500D01*
X30534140Y-18935500D01*
X30592331Y-18954407D01*
X30623080Y-18991018D01*
X30665364Y-19077511D01*
X30747489Y-19159636D01*
X30851830Y-19210645D01*
X30919472Y-19220500D01*
X30919475Y-19220500D01*
X31330524Y-19220500D01*
X31330528Y-19220500D01*
X31398170Y-19210645D01*
X31502511Y-19159636D01*
X31584636Y-19077511D01*
X31606684Y-19032409D01*
X31649226Y-18988435D01*
X31709492Y-18977865D01*
X31764460Y-19004737D01*
X31793136Y-19058786D01*
X31794148Y-19066181D01*
X31794499Y-19069752D01*
X31806132Y-19128227D01*
X31806134Y-19128233D01*
X31827117Y-19159636D01*
X31850448Y-19194552D01*
X31916769Y-19238867D01*
X31961231Y-19247711D01*
X31975241Y-19250498D01*
X31975246Y-19250498D01*
X31975252Y-19250500D01*
X31975253Y-19250500D01*
X33074747Y-19250500D01*
X33074748Y-19250500D01*
X33133231Y-19238867D01*
X33199552Y-19194552D01*
X33243867Y-19128231D01*
X33255500Y-19069748D01*
X33255500Y-18380252D01*
X33243867Y-18321769D01*
X33199552Y-18255448D01*
X33160719Y-18229500D01*
X33133233Y-18211134D01*
X33133231Y-18211133D01*
X33133228Y-18211132D01*
X33133227Y-18211132D01*
X33074758Y-18199501D01*
X33074748Y-18199500D01*
X32017342Y-18199500D01*
X31959151Y-18180593D01*
X31923187Y-18131093D01*
X31922273Y-18072880D01*
X31941994Y-18005000D01*
X30299000Y-18005000D01*
X30240809Y-17986093D01*
X30204845Y-17936593D01*
X30201693Y-17916694D01*
X30199999Y-17915000D01*
X30049000Y-17915000D01*
X29990809Y-17896093D01*
X29954845Y-17846593D01*
X29950000Y-17816000D01*
X29950000Y-17665001D01*
X29949999Y-17665000D01*
X29799000Y-17665000D01*
X29740809Y-17646093D01*
X29704845Y-17596593D01*
X29700000Y-17566000D01*
X29700000Y-16875001D01*
X30200000Y-16875001D01*
X30200000Y-17414999D01*
X30200001Y-17415000D01*
X30874999Y-17415000D01*
X30875000Y-17414999D01*
X30875000Y-16960953D01*
X31375000Y-16960953D01*
X31375000Y-17504999D01*
X31375001Y-17505000D01*
X31941994Y-17505000D01*
X31933894Y-17477120D01*
X31935816Y-17415965D01*
X31973317Y-17367619D01*
X32028963Y-17350500D01*
X33074747Y-17350500D01*
X33074748Y-17350500D01*
X33133231Y-17338867D01*
X33199552Y-17294552D01*
X33243867Y-17228231D01*
X33255500Y-17169748D01*
X33255500Y-16480252D01*
X33254256Y-16474000D01*
X33250481Y-16455021D01*
X33243867Y-16421769D01*
X33199552Y-16355448D01*
X33199548Y-16355445D01*
X33133233Y-16311134D01*
X33133231Y-16311133D01*
X33133228Y-16311132D01*
X33133227Y-16311132D01*
X33074758Y-16299501D01*
X33074748Y-16299500D01*
X31975252Y-16299500D01*
X31975251Y-16299500D01*
X31975241Y-16299501D01*
X31916772Y-16311132D01*
X31916766Y-16311134D01*
X31850451Y-16355445D01*
X31850445Y-16355451D01*
X31806134Y-16421766D01*
X31806132Y-16421772D01*
X31794501Y-16480241D01*
X31794500Y-16480253D01*
X31794500Y-16975601D01*
X31775593Y-17033792D01*
X31726093Y-17069756D01*
X31664907Y-17069756D01*
X31645105Y-17060815D01*
X31556696Y-17008531D01*
X31399596Y-16962889D01*
X31375000Y-16960953D01*
X30875000Y-16960953D01*
X30871876Y-16958065D01*
X30822211Y-16946140D01*
X30782476Y-16899612D01*
X30782125Y-16895152D01*
X30766994Y-16875000D01*
X30200001Y-16875000D01*
X30200000Y-16875001D01*
X29700000Y-16875001D01*
X29700000Y-16724000D01*
X29718907Y-16665809D01*
X29768407Y-16629845D01*
X29799000Y-16625000D01*
X29949999Y-16625000D01*
X29950000Y-16624999D01*
X29950000Y-16474000D01*
X29968907Y-16415809D01*
X30018407Y-16379845D01*
X30049000Y-16375000D01*
X30766994Y-16375000D01*
X30721467Y-16218300D01*
X30721467Y-16218299D01*
X30638194Y-16077492D01*
X30535699Y-15974997D01*
X42394353Y-15974997D01*
X42394353Y-15975002D01*
X42414834Y-16117456D01*
X42460889Y-16218300D01*
X42474623Y-16248373D01*
X42567401Y-16355445D01*
X42568873Y-16357144D01*
X42669432Y-16421769D01*
X42689947Y-16434953D01*
X42788499Y-16463890D01*
X42828035Y-16475499D01*
X42828036Y-16475499D01*
X42828039Y-16475500D01*
X42828041Y-16475500D01*
X42971959Y-16475500D01*
X42971961Y-16475500D01*
X43066218Y-16447824D01*
X47119999Y-16447824D01*
X47126401Y-16507370D01*
X47126403Y-16507381D01*
X47176646Y-16642088D01*
X47176647Y-16642090D01*
X47262806Y-16757183D01*
X47262815Y-16757192D01*
X47377909Y-16843352D01*
X47377911Y-16843353D01*
X47512618Y-16893596D01*
X47512629Y-16893598D01*
X47572176Y-16900000D01*
X48094999Y-16900000D01*
X48095000Y-16899999D01*
X48095000Y-16400001D01*
X48395000Y-16400001D01*
X48395000Y-16899999D01*
X48395001Y-16900000D01*
X48917824Y-16900000D01*
X48977370Y-16893598D01*
X48977381Y-16893596D01*
X49112088Y-16843353D01*
X49112090Y-16843352D01*
X49227184Y-16757192D01*
X49227194Y-16757183D01*
X49313352Y-16642090D01*
X49313353Y-16642088D01*
X49363596Y-16507381D01*
X49363598Y-16507370D01*
X49370000Y-16447824D01*
X49370000Y-16400001D01*
X49369999Y-16400000D01*
X48395001Y-16400000D01*
X48395000Y-16400001D01*
X48095000Y-16400001D01*
X48094999Y-16400000D01*
X47120001Y-16400000D01*
X47120000Y-16400001D01*
X47120000Y-16447824D01*
X47119999Y-16447824D01*
X43066218Y-16447824D01*
X43110053Y-16434953D01*
X43231128Y-16357143D01*
X43325377Y-16248373D01*
X43385165Y-16117457D01*
X43400973Y-16007511D01*
X43405647Y-15975002D01*
X43405647Y-15974997D01*
X43385165Y-15832543D01*
X43379412Y-15819945D01*
X43325377Y-15701627D01*
X43231128Y-15592857D01*
X43231127Y-15592856D01*
X43226491Y-15587506D01*
X43228524Y-15585743D01*
X43203067Y-15543505D01*
X43200500Y-15521105D01*
X43200500Y-15169997D01*
X43587880Y-15169997D01*
X43587880Y-15170002D01*
X43608361Y-15312456D01*
X43655644Y-15415989D01*
X43668150Y-15443373D01*
X43750263Y-15538137D01*
X43762400Y-15552144D01*
X43860922Y-15615460D01*
X43883474Y-15629953D01*
X43989930Y-15661211D01*
X44021562Y-15670499D01*
X44021563Y-15670499D01*
X44021566Y-15670500D01*
X44021568Y-15670500D01*
X44165486Y-15670500D01*
X44165488Y-15670500D01*
X44303580Y-15629953D01*
X44424655Y-15552143D01*
X44518904Y-15443373D01*
X44578692Y-15312457D01*
X44593155Y-15211862D01*
X44599174Y-15170002D01*
X44599174Y-15169997D01*
X44578692Y-15027543D01*
X44545767Y-14955448D01*
X44542285Y-14947824D01*
X47119999Y-14947824D01*
X47126401Y-15007370D01*
X47126403Y-15007381D01*
X47176646Y-15142088D01*
X47176647Y-15142090D01*
X47262807Y-15257184D01*
X47262815Y-15257192D01*
X47379829Y-15344788D01*
X47415082Y-15394796D01*
X47418134Y-15414999D01*
X47419024Y-15414912D01*
X47419500Y-15419751D01*
X47431621Y-15480686D01*
X47431621Y-15519314D01*
X47419500Y-15580248D01*
X47419024Y-15585088D01*
X47416610Y-15584850D01*
X47400593Y-15634148D01*
X47379829Y-15655210D01*
X47262815Y-15742807D01*
X47262807Y-15742815D01*
X47176647Y-15857909D01*
X47176646Y-15857911D01*
X47126403Y-15992618D01*
X47126401Y-15992629D01*
X47120000Y-16052175D01*
X47120000Y-16099999D01*
X47120001Y-16100000D01*
X47590311Y-16100000D01*
X47600012Y-16100476D01*
X47600248Y-16100499D01*
X47600252Y-16100500D01*
X47600256Y-16100500D01*
X48889744Y-16100500D01*
X48889748Y-16100500D01*
X48889751Y-16100499D01*
X48889988Y-16100476D01*
X48899689Y-16100000D01*
X49369999Y-16100000D01*
X49370000Y-16099999D01*
X49370000Y-16052175D01*
X49363598Y-15992629D01*
X49363596Y-15992618D01*
X49313354Y-15857912D01*
X49248617Y-15771436D01*
X49228880Y-15713521D01*
X49246954Y-15655066D01*
X49257857Y-15642113D01*
X49320476Y-15579495D01*
X49374993Y-15551719D01*
X49390478Y-15550500D01*
X51009592Y-15550500D01*
X51067783Y-15569407D01*
X51084406Y-15584664D01*
X51163116Y-15675500D01*
X51168873Y-15682144D01*
X51274301Y-15749898D01*
X51289947Y-15759953D01*
X51396403Y-15791211D01*
X51428035Y-15800499D01*
X51428036Y-15800499D01*
X51428039Y-15800500D01*
X51428041Y-15800500D01*
X51571959Y-15800500D01*
X51571961Y-15800500D01*
X51710053Y-15759953D01*
X51831128Y-15682143D01*
X51925377Y-15573373D01*
X51985165Y-15442457D01*
X52000212Y-15337800D01*
X52005647Y-15300002D01*
X52005647Y-15299997D01*
X51985165Y-15157543D01*
X51965536Y-15114563D01*
X51925377Y-15026627D01*
X51831128Y-14917857D01*
X51831127Y-14917856D01*
X51831126Y-14917855D01*
X51710057Y-14840049D01*
X51710054Y-14840047D01*
X51710053Y-14840047D01*
X51710050Y-14840046D01*
X51571964Y-14799500D01*
X51571961Y-14799500D01*
X51428039Y-14799500D01*
X51428035Y-14799500D01*
X51289949Y-14840046D01*
X51289942Y-14840049D01*
X51168871Y-14917856D01*
X51163520Y-14922494D01*
X51162031Y-14920776D01*
X51118659Y-14946928D01*
X51096241Y-14949500D01*
X49460507Y-14949500D01*
X49402316Y-14930593D01*
X49390503Y-14920504D01*
X49369999Y-14900000D01*
X48899689Y-14900000D01*
X48889988Y-14899524D01*
X48889751Y-14899500D01*
X48889748Y-14899500D01*
X47600252Y-14899500D01*
X47600248Y-14899500D01*
X47600012Y-14899524D01*
X47590311Y-14900000D01*
X47120001Y-14900000D01*
X47120000Y-14900001D01*
X47120000Y-14947824D01*
X47119999Y-14947824D01*
X44542285Y-14947824D01*
X44518904Y-14896627D01*
X44424655Y-14787857D01*
X44424654Y-14787856D01*
X44420018Y-14782506D01*
X44422051Y-14780743D01*
X44396594Y-14738505D01*
X44394027Y-14716105D01*
X44394027Y-14396952D01*
X44412934Y-14338761D01*
X44423023Y-14326948D01*
X44979974Y-13769997D01*
X45594353Y-13769997D01*
X45594353Y-13770002D01*
X45614834Y-13912456D01*
X45674622Y-14043371D01*
X45674623Y-14043373D01*
X45767448Y-14150500D01*
X45768873Y-14152144D01*
X45879705Y-14223371D01*
X45889947Y-14229953D01*
X45996403Y-14261211D01*
X46028035Y-14270499D01*
X46028036Y-14270499D01*
X46028039Y-14270500D01*
X46028041Y-14270500D01*
X46171959Y-14270500D01*
X46171961Y-14270500D01*
X46310053Y-14229953D01*
X46431128Y-14152143D01*
X46525377Y-14043373D01*
X46585165Y-13912457D01*
X46592256Y-13863137D01*
X46605647Y-13770002D01*
X46605647Y-13770000D01*
X46605647Y-13769997D01*
X46602558Y-13748517D01*
X46612990Y-13688228D01*
X46630547Y-13664423D01*
X46715475Y-13579496D01*
X46769992Y-13551719D01*
X46785478Y-13550500D01*
X47029493Y-13550500D01*
X47087684Y-13569407D01*
X47099497Y-13579496D01*
X47120001Y-13600000D01*
X47590311Y-13600000D01*
X47600012Y-13600476D01*
X47600248Y-13600499D01*
X47600252Y-13600500D01*
X47600256Y-13600500D01*
X48296000Y-13600500D01*
X48354191Y-13619407D01*
X48390155Y-13668907D01*
X48395000Y-13699500D01*
X48395000Y-13800500D01*
X48376093Y-13858691D01*
X48326593Y-13894655D01*
X48296000Y-13899500D01*
X47600252Y-13899500D01*
X47600248Y-13899500D01*
X47600012Y-13899524D01*
X47590311Y-13900000D01*
X47120001Y-13900000D01*
X47120000Y-13900001D01*
X47120000Y-13947824D01*
X47119999Y-13947824D01*
X47126401Y-14007370D01*
X47126403Y-14007381D01*
X47176645Y-14142087D01*
X47213015Y-14190671D01*
X47232752Y-14248586D01*
X47214678Y-14307041D01*
X47213015Y-14309329D01*
X47176645Y-14357912D01*
X47126403Y-14492618D01*
X47126401Y-14492629D01*
X47120000Y-14552175D01*
X47120000Y-14599999D01*
X47120001Y-14600000D01*
X47590311Y-14600000D01*
X47600012Y-14600476D01*
X47600248Y-14600499D01*
X47600252Y-14600500D01*
X47600256Y-14600500D01*
X48889744Y-14600500D01*
X48889748Y-14600500D01*
X48889751Y-14600499D01*
X48889988Y-14600476D01*
X48899689Y-14600000D01*
X49369999Y-14600000D01*
X49370000Y-14599999D01*
X49370000Y-14552175D01*
X49362936Y-14486466D01*
X49365463Y-14486194D01*
X49369602Y-14435841D01*
X49390931Y-14404040D01*
X49515476Y-14279496D01*
X49569992Y-14251719D01*
X49585479Y-14250500D01*
X49752917Y-14250500D01*
X49811108Y-14269407D01*
X49827733Y-14284667D01*
X49868872Y-14332143D01*
X49989947Y-14409953D01*
X50096403Y-14441211D01*
X50128035Y-14450499D01*
X50128036Y-14450499D01*
X50128039Y-14450500D01*
X50128041Y-14450500D01*
X50271959Y-14450500D01*
X50271961Y-14450500D01*
X50410053Y-14409953D01*
X50531128Y-14332143D01*
X50625377Y-14223373D01*
X50685165Y-14092457D01*
X50696362Y-14014578D01*
X50705647Y-13950002D01*
X50705647Y-13949997D01*
X50685165Y-13807543D01*
X50640408Y-13709540D01*
X50625377Y-13676627D01*
X50531128Y-13567857D01*
X50531127Y-13567856D01*
X50531126Y-13567855D01*
X50410057Y-13490049D01*
X50410054Y-13490047D01*
X50410053Y-13490047D01*
X50410050Y-13490046D01*
X50271964Y-13449500D01*
X50271961Y-13449500D01*
X50128039Y-13449500D01*
X50128035Y-13449500D01*
X49989949Y-13490046D01*
X49989942Y-13490049D01*
X49868876Y-13567854D01*
X49868875Y-13567855D01*
X49868872Y-13567857D01*
X49853460Y-13585644D01*
X49827736Y-13615331D01*
X49775340Y-13646927D01*
X49752917Y-13649500D01*
X49469000Y-13649500D01*
X49410809Y-13630593D01*
X49374845Y-13581093D01*
X49370680Y-13554794D01*
X49370142Y-13554823D01*
X49370000Y-13552175D01*
X49363598Y-13492629D01*
X49363596Y-13492618D01*
X49313354Y-13357913D01*
X49276984Y-13309329D01*
X49257247Y-13251415D01*
X49275321Y-13192960D01*
X49276984Y-13190671D01*
X49313354Y-13142086D01*
X49363596Y-13007381D01*
X49363598Y-13007370D01*
X49370000Y-12947820D01*
X49370000Y-12900001D01*
X49369999Y-12900000D01*
X48899689Y-12900000D01*
X48889988Y-12899524D01*
X48889751Y-12899500D01*
X48889748Y-12899500D01*
X47600252Y-12899500D01*
X47600248Y-12899500D01*
X47600012Y-12899524D01*
X47590311Y-12900000D01*
X47120001Y-12900000D01*
X47099497Y-12920504D01*
X47044980Y-12948281D01*
X47029493Y-12949500D01*
X46580435Y-12949500D01*
X46504011Y-12969978D01*
X46468539Y-12990459D01*
X46468538Y-12990459D01*
X46435489Y-13009539D01*
X46204524Y-13240504D01*
X46150008Y-13268281D01*
X46134521Y-13269500D01*
X46028035Y-13269500D01*
X45889949Y-13310046D01*
X45889942Y-13310049D01*
X45768873Y-13387855D01*
X45674622Y-13496628D01*
X45614834Y-13627543D01*
X45594353Y-13769997D01*
X44979974Y-13769997D01*
X46170475Y-12579496D01*
X46224992Y-12551719D01*
X46240479Y-12550500D01*
X47029493Y-12550500D01*
X47087684Y-12569407D01*
X47099497Y-12579496D01*
X47120001Y-12600000D01*
X47590311Y-12600000D01*
X47600012Y-12600476D01*
X47600248Y-12600499D01*
X47600252Y-12600500D01*
X47600256Y-12600500D01*
X48889744Y-12600500D01*
X48889748Y-12600500D01*
X48889751Y-12600499D01*
X48889988Y-12600476D01*
X48899689Y-12600000D01*
X49369999Y-12600000D01*
X49370000Y-12599999D01*
X49370000Y-12552175D01*
X49363598Y-12492629D01*
X49363596Y-12492618D01*
X49313354Y-12357913D01*
X49276984Y-12309329D01*
X49257247Y-12251415D01*
X49275321Y-12192960D01*
X49276984Y-12190671D01*
X49313354Y-12142086D01*
X49363596Y-12007381D01*
X49363598Y-12007370D01*
X49370000Y-11947820D01*
X49370000Y-11900001D01*
X49369999Y-11900000D01*
X48899689Y-11900000D01*
X48889988Y-11899524D01*
X48889751Y-11899500D01*
X48889748Y-11899500D01*
X47600252Y-11899500D01*
X47600248Y-11899500D01*
X47600012Y-11899524D01*
X47590311Y-11900000D01*
X47120001Y-11900000D01*
X47099497Y-11920504D01*
X47044980Y-11948281D01*
X47029493Y-11949500D01*
X46035435Y-11949500D01*
X45959011Y-11969978D01*
X45923539Y-11990459D01*
X45923538Y-11990459D01*
X45890491Y-12009538D01*
X43909016Y-13991013D01*
X43909015Y-13991012D01*
X43853066Y-14046962D01*
X43813507Y-14115480D01*
X43813505Y-14115484D01*
X43793027Y-14191908D01*
X43793027Y-14716105D01*
X43774120Y-14774296D01*
X43766785Y-14782289D01*
X43767036Y-14782506D01*
X43762399Y-14787856D01*
X43762399Y-14787857D01*
X43711395Y-14846719D01*
X43668149Y-14896628D01*
X43608361Y-15027543D01*
X43587880Y-15169997D01*
X43200500Y-15169997D01*
X43200500Y-14459107D01*
X43219407Y-14400916D01*
X43229496Y-14389103D01*
X46039103Y-11579496D01*
X46093620Y-11551719D01*
X46109107Y-11550500D01*
X47029493Y-11550500D01*
X47087684Y-11569407D01*
X47099497Y-11579496D01*
X47120001Y-11600000D01*
X47590311Y-11600000D01*
X47600012Y-11600476D01*
X47600248Y-11600499D01*
X47600252Y-11600500D01*
X47600256Y-11600500D01*
X48889744Y-11600500D01*
X48889748Y-11600500D01*
X48889751Y-11600499D01*
X48889988Y-11600476D01*
X48899689Y-11600000D01*
X49369999Y-11600000D01*
X49370000Y-11599999D01*
X49370000Y-11552175D01*
X49363598Y-11492629D01*
X49363596Y-11492618D01*
X49313353Y-11357911D01*
X49313352Y-11357909D01*
X49227192Y-11242815D01*
X49227184Y-11242807D01*
X49208410Y-11228753D01*
X49173157Y-11178745D01*
X49174031Y-11117565D01*
X49210698Y-11068584D01*
X49267739Y-11050500D01*
X50277720Y-11050500D01*
X50335911Y-11069407D01*
X50367773Y-11108374D01*
X50374623Y-11123373D01*
X50422603Y-11178745D01*
X50468873Y-11232144D01*
X50589942Y-11309950D01*
X50589947Y-11309953D01*
X50696403Y-11341211D01*
X50728035Y-11350499D01*
X50728036Y-11350499D01*
X50728039Y-11350500D01*
X50728041Y-11350500D01*
X50871959Y-11350500D01*
X50871961Y-11350500D01*
X51010053Y-11309953D01*
X51131128Y-11232143D01*
X51225377Y-11123373D01*
X51285165Y-10992457D01*
X51305647Y-10850000D01*
X51297807Y-10795474D01*
X51285165Y-10707543D01*
X51267520Y-10668907D01*
X51225377Y-10576627D01*
X51131128Y-10467857D01*
X51131127Y-10467856D01*
X51131126Y-10467855D01*
X51010057Y-10390049D01*
X51010054Y-10390047D01*
X51010053Y-10390047D01*
X51010050Y-10390046D01*
X50871964Y-10349500D01*
X50871961Y-10349500D01*
X50728039Y-10349500D01*
X50728035Y-10349500D01*
X50589949Y-10390046D01*
X50589946Y-10390047D01*
X50574458Y-10400001D01*
X50521889Y-10433784D01*
X50468368Y-10449500D01*
X49460507Y-10449500D01*
X49402316Y-10430593D01*
X49390503Y-10420504D01*
X49369999Y-10400000D01*
X48899689Y-10400000D01*
X48889988Y-10399524D01*
X48889751Y-10399500D01*
X48889748Y-10399500D01*
X47600252Y-10399500D01*
X47600248Y-10399500D01*
X47600012Y-10399524D01*
X47590311Y-10400000D01*
X47120001Y-10400000D01*
X47120000Y-10400001D01*
X47120000Y-10447820D01*
X47126401Y-10507370D01*
X47126403Y-10507381D01*
X47176646Y-10642088D01*
X47176647Y-10642090D01*
X47262807Y-10757184D01*
X47262815Y-10757192D01*
X47281590Y-10771247D01*
X47316843Y-10821255D01*
X47315969Y-10882435D01*
X47279302Y-10931416D01*
X47222261Y-10949500D01*
X45904063Y-10949500D01*
X45827639Y-10969978D01*
X45827635Y-10969980D01*
X45810246Y-10980019D01*
X45810247Y-10980020D01*
X45759118Y-11009539D01*
X42715489Y-14053168D01*
X42715488Y-14053167D01*
X42659539Y-14109117D01*
X42619980Y-14177635D01*
X42619978Y-14177639D01*
X42599500Y-14254063D01*
X42599500Y-15521105D01*
X42580593Y-15579296D01*
X42573258Y-15587289D01*
X42573509Y-15587506D01*
X42568872Y-15592856D01*
X42568872Y-15592857D01*
X42526202Y-15642101D01*
X42474622Y-15701628D01*
X42414834Y-15832543D01*
X42394353Y-15974997D01*
X30535699Y-15974997D01*
X30522508Y-15961806D01*
X30514829Y-15957265D01*
X30474366Y-15911370D01*
X30467258Y-15857777D01*
X30470500Y-15835528D01*
X30470500Y-15474472D01*
X30460645Y-15406830D01*
X30409636Y-15302489D01*
X30327511Y-15220364D01*
X30223170Y-15169355D01*
X30223171Y-15169355D01*
X30206259Y-15166891D01*
X30155528Y-15159500D01*
X30155525Y-15159500D01*
X30059479Y-15159500D01*
X30001288Y-15140593D01*
X29965324Y-15091093D01*
X29965324Y-15029907D01*
X29989475Y-14990496D01*
X30105475Y-14874496D01*
X30159992Y-14846719D01*
X30175479Y-14845500D01*
X30410524Y-14845500D01*
X30410528Y-14845500D01*
X30478170Y-14835645D01*
X30582511Y-14784636D01*
X30644998Y-14722148D01*
X30699513Y-14694373D01*
X30759945Y-14703944D01*
X30785000Y-14722147D01*
X30847489Y-14784636D01*
X30951830Y-14835645D01*
X31019472Y-14845500D01*
X31019475Y-14845500D01*
X31380524Y-14845500D01*
X31380528Y-14845500D01*
X31448170Y-14835645D01*
X31552511Y-14784636D01*
X31634636Y-14702511D01*
X31645142Y-14681019D01*
X31687685Y-14637046D01*
X31734083Y-14625500D01*
X32884563Y-14625500D01*
X32884563Y-14625499D01*
X32960989Y-14605021D01*
X33029511Y-14565460D01*
X33085460Y-14509511D01*
X33095475Y-14499495D01*
X33149991Y-14471719D01*
X33165478Y-14470500D01*
X33271959Y-14470500D01*
X33271961Y-14470500D01*
X33410053Y-14429953D01*
X33531128Y-14352143D01*
X33625377Y-14243373D01*
X33685165Y-14112457D01*
X33695098Y-14043371D01*
X33705647Y-13970002D01*
X33705647Y-13969997D01*
X33685165Y-13827543D01*
X33666394Y-13786441D01*
X33625377Y-13696627D01*
X33531128Y-13587857D01*
X33531127Y-13587856D01*
X33531126Y-13587855D01*
X33410057Y-13510049D01*
X33410054Y-13510047D01*
X33410053Y-13510047D01*
X33410050Y-13510046D01*
X33271964Y-13469500D01*
X33271961Y-13469500D01*
X33128039Y-13469500D01*
X33128035Y-13469500D01*
X32989949Y-13510046D01*
X32989942Y-13510049D01*
X32868873Y-13587855D01*
X32774622Y-13696628D01*
X32714834Y-13827543D01*
X32698725Y-13939589D01*
X32671729Y-13994497D01*
X32617615Y-14023050D01*
X32600733Y-14024500D01*
X31734083Y-14024500D01*
X31675892Y-14005593D01*
X31645142Y-13968980D01*
X31638614Y-13955627D01*
X31634636Y-13947489D01*
X31552511Y-13865364D01*
X31448170Y-13814355D01*
X31448171Y-13814355D01*
X31431259Y-13811891D01*
X31380528Y-13804500D01*
X31019472Y-13804500D01*
X30978886Y-13810413D01*
X30951828Y-13814355D01*
X30852044Y-13863137D01*
X30847489Y-13865364D01*
X30785001Y-13927851D01*
X30730487Y-13955627D01*
X30670055Y-13946056D01*
X30644999Y-13927852D01*
X30582511Y-13865364D01*
X30478170Y-13814355D01*
X30478171Y-13814355D01*
X30461259Y-13811891D01*
X30410528Y-13804500D01*
X30049472Y-13804500D01*
X30008886Y-13810413D01*
X29981828Y-13814355D01*
X29877489Y-13865364D01*
X29795364Y-13947489D01*
X29744355Y-14051828D01*
X29734501Y-14119466D01*
X29734500Y-14119475D01*
X29734500Y-14354521D01*
X29715593Y-14412712D01*
X29705503Y-14424525D01*
X29225793Y-14904234D01*
X29171277Y-14932011D01*
X29110845Y-14922440D01*
X29067580Y-14879175D01*
X29058009Y-14818743D01*
X29066066Y-14792392D01*
X29069259Y-14785545D01*
X29075500Y-14738139D01*
X29075499Y-14411862D01*
X29069259Y-14364455D01*
X29069259Y-14364453D01*
X29020748Y-14260423D01*
X29020747Y-14260422D01*
X29020747Y-14260421D01*
X29012649Y-14252323D01*
X28984874Y-14197809D01*
X28994445Y-14137377D01*
X29012652Y-14112318D01*
X29720476Y-13404496D01*
X29774992Y-13376719D01*
X29790479Y-13375500D01*
X29795917Y-13375500D01*
X29854108Y-13394407D01*
X29884857Y-13431019D01*
X29895364Y-13452511D01*
X29977489Y-13534636D01*
X30081830Y-13585645D01*
X30149472Y-13595500D01*
X30149475Y-13595500D01*
X30510524Y-13595500D01*
X30510528Y-13595500D01*
X30578170Y-13585645D01*
X30682511Y-13534636D01*
X30744998Y-13472148D01*
X30799513Y-13444373D01*
X30859945Y-13453944D01*
X30885000Y-13472147D01*
X30947489Y-13534636D01*
X31051830Y-13585645D01*
X31119472Y-13595500D01*
X31119475Y-13595500D01*
X31480524Y-13595500D01*
X31480528Y-13595500D01*
X31548170Y-13585645D01*
X31652511Y-13534636D01*
X31734636Y-13452511D01*
X31745142Y-13431019D01*
X31787685Y-13387046D01*
X31834083Y-13375500D01*
X32064563Y-13375500D01*
X32064563Y-13375499D01*
X32140989Y-13355021D01*
X32209511Y-13315460D01*
X32237485Y-13287485D01*
X32265461Y-13259511D01*
X32570473Y-12954497D01*
X32624990Y-12926719D01*
X32640477Y-12925500D01*
X32746959Y-12925500D01*
X32746961Y-12925500D01*
X32885053Y-12884953D01*
X33006128Y-12807143D01*
X33100377Y-12698373D01*
X33160165Y-12567457D01*
X33176269Y-12455448D01*
X33180647Y-12425002D01*
X33180647Y-12424997D01*
X33160165Y-12282543D01*
X33145075Y-12249501D01*
X33100377Y-12151627D01*
X33006128Y-12042857D01*
X33006127Y-12042856D01*
X33006126Y-12042855D01*
X32885057Y-11965049D01*
X32885054Y-11965047D01*
X32885053Y-11965047D01*
X32885050Y-11965046D01*
X32746964Y-11924500D01*
X32746961Y-11924500D01*
X32603039Y-11924500D01*
X32603035Y-11924500D01*
X32464949Y-11965046D01*
X32464942Y-11965049D01*
X32343873Y-12042855D01*
X32249622Y-12151628D01*
X32189834Y-12282543D01*
X32169353Y-12424996D01*
X32169353Y-12424997D01*
X32169353Y-12425000D01*
X32172442Y-12446483D01*
X32162007Y-12506772D01*
X32144453Y-12530574D01*
X31929526Y-12745503D01*
X31875009Y-12773281D01*
X31859522Y-12774500D01*
X31834083Y-12774500D01*
X31775892Y-12755593D01*
X31745142Y-12718980D01*
X31734636Y-12697490D01*
X31734636Y-12697489D01*
X31652511Y-12615364D01*
X31548170Y-12564355D01*
X31548171Y-12564355D01*
X31531259Y-12561891D01*
X31480528Y-12554500D01*
X31119472Y-12554500D01*
X31078886Y-12560413D01*
X31051828Y-12564355D01*
X30947489Y-12615364D01*
X30885001Y-12677851D01*
X30830487Y-12705627D01*
X30770055Y-12696056D01*
X30744999Y-12677852D01*
X30682511Y-12615364D01*
X30578170Y-12564355D01*
X30578171Y-12564355D01*
X30561259Y-12561891D01*
X30510528Y-12554500D01*
X30149472Y-12554500D01*
X30108886Y-12560413D01*
X30081828Y-12564355D01*
X29977489Y-12615364D01*
X29895363Y-12697490D01*
X29884858Y-12718980D01*
X29842315Y-12762954D01*
X29795917Y-12774500D01*
X29585435Y-12774500D01*
X29509012Y-12794978D01*
X29448344Y-12830005D01*
X29448343Y-12830004D01*
X29440489Y-12834539D01*
X28179522Y-14095504D01*
X28125006Y-14123281D01*
X28109519Y-14124500D01*
X27461865Y-14124500D01*
X27461854Y-14124501D01*
X27414455Y-14130740D01*
X27414453Y-14130740D01*
X27310423Y-14179251D01*
X27229253Y-14260421D01*
X27180741Y-14364455D01*
X27174500Y-14411862D01*
X27174500Y-14738133D01*
X27174501Y-14738145D01*
X27180740Y-14785544D01*
X27180740Y-14785546D01*
X27229251Y-14889576D01*
X27229252Y-14889577D01*
X27229253Y-14889579D01*
X27244672Y-14904998D01*
X27272448Y-14959513D01*
X27262877Y-15019945D01*
X27244673Y-15045000D01*
X27229253Y-15060421D01*
X27180741Y-15164455D01*
X27177249Y-15190984D01*
X27174500Y-15211862D01*
X27174500Y-15538133D01*
X27174501Y-15538145D01*
X27180740Y-15585544D01*
X27180740Y-15585546D01*
X27229251Y-15689576D01*
X27229252Y-15689577D01*
X27229253Y-15689579D01*
X27244672Y-15704998D01*
X27272448Y-15759513D01*
X27262877Y-15819945D01*
X27244673Y-15845000D01*
X27229253Y-15860421D01*
X27180741Y-15964455D01*
X27179353Y-15975002D01*
X27174500Y-16011862D01*
X27174500Y-16259914D01*
X27155593Y-16318105D01*
X27125897Y-16345126D01*
X27113891Y-16352226D01*
X27002227Y-16463890D01*
X26921845Y-16599810D01*
X26885474Y-16724999D01*
X20700861Y-16724999D01*
X20670748Y-16660423D01*
X20670747Y-16660422D01*
X20670747Y-16660421D01*
X20655327Y-16645001D01*
X20627552Y-16590487D01*
X20637123Y-16530055D01*
X20655326Y-16504999D01*
X20670747Y-16489579D01*
X20719259Y-16385545D01*
X20725500Y-16338139D01*
X20725499Y-16011862D01*
X20719259Y-15964455D01*
X20719259Y-15964453D01*
X20670748Y-15860423D01*
X20670747Y-15860422D01*
X20670747Y-15860421D01*
X20655327Y-15845001D01*
X20627552Y-15790487D01*
X20637123Y-15730055D01*
X20655326Y-15704999D01*
X20670747Y-15689579D01*
X20719259Y-15585545D01*
X20725500Y-15538139D01*
X20725499Y-15211862D01*
X20719259Y-15164455D01*
X20719259Y-15164453D01*
X20670748Y-15060423D01*
X20670747Y-15060422D01*
X20670747Y-15060421D01*
X20655327Y-15045001D01*
X20627552Y-14990487D01*
X20637123Y-14930055D01*
X20655326Y-14904999D01*
X20670747Y-14889579D01*
X20719259Y-14785545D01*
X20725500Y-14738139D01*
X20725499Y-14411862D01*
X20719259Y-14364455D01*
X20719259Y-14364453D01*
X20670748Y-14260423D01*
X20670747Y-14260422D01*
X20670747Y-14260421D01*
X20589579Y-14179253D01*
X20485545Y-14130741D01*
X20438139Y-14124500D01*
X20438138Y-14124500D01*
X19124500Y-14124500D01*
X19066309Y-14105593D01*
X19030345Y-14056093D01*
X19025500Y-14025500D01*
X19025500Y-12536862D01*
X20699500Y-12536862D01*
X20699500Y-13863134D01*
X20699501Y-13863145D01*
X20705740Y-13910544D01*
X20705740Y-13910546D01*
X20754251Y-14014576D01*
X20754252Y-14014577D01*
X20754253Y-14014579D01*
X20835421Y-14095747D01*
X20939455Y-14144259D01*
X20986861Y-14150500D01*
X21313138Y-14150499D01*
X21360545Y-14144259D01*
X21360546Y-14144259D01*
X21422253Y-14115484D01*
X21464579Y-14095747D01*
X21479998Y-14080327D01*
X21534513Y-14052552D01*
X21594945Y-14062123D01*
X21620000Y-14080326D01*
X21635421Y-14095747D01*
X21739455Y-14144259D01*
X21786861Y-14150500D01*
X22113138Y-14150499D01*
X22160545Y-14144259D01*
X22160546Y-14144259D01*
X22222253Y-14115484D01*
X22264579Y-14095747D01*
X22279998Y-14080327D01*
X22334513Y-14052552D01*
X22394945Y-14062123D01*
X22420000Y-14080326D01*
X22435421Y-14095747D01*
X22539455Y-14144259D01*
X22586861Y-14150500D01*
X22913138Y-14150499D01*
X22960545Y-14144259D01*
X22960546Y-14144259D01*
X23022253Y-14115484D01*
X23064579Y-14095747D01*
X23079998Y-14080327D01*
X23134513Y-14052552D01*
X23194945Y-14062123D01*
X23220000Y-14080326D01*
X23235421Y-14095747D01*
X23339455Y-14144259D01*
X23386861Y-14150500D01*
X23713138Y-14150499D01*
X23760545Y-14144259D01*
X23760546Y-14144259D01*
X23822253Y-14115484D01*
X23864579Y-14095747D01*
X23879998Y-14080327D01*
X23934513Y-14052552D01*
X23994945Y-14062123D01*
X24020000Y-14080326D01*
X24035421Y-14095747D01*
X24139455Y-14144259D01*
X24186861Y-14150500D01*
X24513138Y-14150499D01*
X24560545Y-14144259D01*
X24560546Y-14144259D01*
X24622253Y-14115484D01*
X24664579Y-14095747D01*
X24679998Y-14080327D01*
X24734513Y-14052552D01*
X24794945Y-14062123D01*
X24820000Y-14080326D01*
X24835421Y-14095747D01*
X24939455Y-14144259D01*
X24986861Y-14150500D01*
X25313138Y-14150499D01*
X25360545Y-14144259D01*
X25360546Y-14144259D01*
X25422253Y-14115484D01*
X25464579Y-14095747D01*
X25479998Y-14080327D01*
X25534513Y-14052552D01*
X25594945Y-14062123D01*
X25620000Y-14080326D01*
X25635421Y-14095747D01*
X25739455Y-14144259D01*
X25786861Y-14150500D01*
X26113138Y-14150499D01*
X26160545Y-14144259D01*
X26160546Y-14144259D01*
X26222253Y-14115484D01*
X26264579Y-14095747D01*
X26279998Y-14080327D01*
X26334513Y-14052552D01*
X26394945Y-14062123D01*
X26420000Y-14080326D01*
X26435421Y-14095747D01*
X26539455Y-14144259D01*
X26586861Y-14150500D01*
X26913138Y-14150499D01*
X26960545Y-14144259D01*
X26960546Y-14144259D01*
X27022253Y-14115484D01*
X27064579Y-14095747D01*
X27145747Y-14014579D01*
X27194259Y-13910545D01*
X27200500Y-13863139D01*
X27200499Y-12536862D01*
X27194259Y-12489455D01*
X27194259Y-12489453D01*
X27145748Y-12385423D01*
X27145747Y-12385422D01*
X27145747Y-12385421D01*
X27064579Y-12304253D01*
X26960545Y-12255741D01*
X26913139Y-12249500D01*
X26913137Y-12249500D01*
X26586866Y-12249500D01*
X26586854Y-12249501D01*
X26539455Y-12255740D01*
X26539453Y-12255740D01*
X26435423Y-12304251D01*
X26435421Y-12304252D01*
X26435421Y-12304253D01*
X26420001Y-12319672D01*
X26365487Y-12347448D01*
X26305055Y-12337877D01*
X26279999Y-12319673D01*
X26264579Y-12304253D01*
X26160545Y-12255741D01*
X26113139Y-12249500D01*
X26113138Y-12249500D01*
X26014478Y-12249500D01*
X25956287Y-12230593D01*
X25920323Y-12181093D01*
X25920323Y-12119907D01*
X25944472Y-12080498D01*
X26995476Y-11029496D01*
X27049993Y-11001719D01*
X27065480Y-11000500D01*
X40214563Y-11000500D01*
X40214563Y-11000499D01*
X40290989Y-10980021D01*
X40359511Y-10940460D01*
X40415460Y-10884511D01*
X41915475Y-9384496D01*
X41969992Y-9356719D01*
X41985479Y-9355500D01*
X42869747Y-9355500D01*
X42869748Y-9355500D01*
X42928231Y-9343867D01*
X42994552Y-9299552D01*
X43038867Y-9233231D01*
X43050500Y-9174748D01*
X43050500Y-8947824D01*
X47119999Y-8947824D01*
X47126401Y-9007370D01*
X47126403Y-9007381D01*
X47176646Y-9142088D01*
X47176647Y-9142090D01*
X47262807Y-9257184D01*
X47262815Y-9257192D01*
X47379829Y-9344788D01*
X47415082Y-9394796D01*
X47418134Y-9414999D01*
X47419024Y-9414912D01*
X47419500Y-9419751D01*
X47431621Y-9480686D01*
X47431621Y-9519314D01*
X47419500Y-9580248D01*
X47419024Y-9585088D01*
X47416610Y-9584850D01*
X47400593Y-9634148D01*
X47379829Y-9655210D01*
X47262815Y-9742807D01*
X47262807Y-9742815D01*
X47176647Y-9857909D01*
X47176646Y-9857911D01*
X47126403Y-9992618D01*
X47126401Y-9992629D01*
X47120000Y-10052175D01*
X47120000Y-10099999D01*
X47120001Y-10100000D01*
X47590311Y-10100000D01*
X47600012Y-10100476D01*
X47600248Y-10100499D01*
X47600252Y-10100500D01*
X47600256Y-10100500D01*
X48889744Y-10100500D01*
X48889748Y-10100500D01*
X48889751Y-10100499D01*
X48889988Y-10100476D01*
X48899689Y-10100000D01*
X49369999Y-10100000D01*
X49370000Y-10099999D01*
X49370000Y-10052186D01*
X49369962Y-10051481D01*
X49370000Y-10051338D01*
X49370000Y-10049521D01*
X49370484Y-10049521D01*
X49385714Y-9992358D01*
X49398816Y-9976155D01*
X49440461Y-9934511D01*
X49490459Y-9884512D01*
X49490463Y-9884506D01*
X49530020Y-9815992D01*
X49530020Y-9815990D01*
X49530022Y-9815988D01*
X49550500Y-9739562D01*
X49550500Y-9660438D01*
X49550500Y-9415477D01*
X49569407Y-9357286D01*
X49579484Y-9345486D01*
X49857975Y-9066994D01*
X49912490Y-9039219D01*
X49927977Y-9038000D01*
X50034459Y-9038000D01*
X50034461Y-9038000D01*
X50172553Y-8997453D01*
X50293628Y-8919643D01*
X50387877Y-8810873D01*
X50447665Y-8679957D01*
X50468147Y-8537500D01*
X50450242Y-8412970D01*
X50447665Y-8395043D01*
X50423766Y-8342712D01*
X50387877Y-8264127D01*
X50293628Y-8155357D01*
X50293627Y-8155356D01*
X50293626Y-8155355D01*
X50180702Y-8082784D01*
X50141971Y-8035418D01*
X50138477Y-7974333D01*
X50171557Y-7922860D01*
X50228573Y-7900661D01*
X50234225Y-7900500D01*
X51919747Y-7900500D01*
X51919748Y-7900500D01*
X51978231Y-7888867D01*
X52044552Y-7844552D01*
X52088867Y-7778231D01*
X52100500Y-7719748D01*
X52100500Y-6080252D01*
X52088867Y-6021769D01*
X52044552Y-5955448D01*
X52044548Y-5955445D01*
X51978233Y-5911134D01*
X51978231Y-5911133D01*
X51978228Y-5911132D01*
X51978227Y-5911132D01*
X51919758Y-5899501D01*
X51919748Y-5899500D01*
X49880252Y-5899500D01*
X49880251Y-5899500D01*
X49880241Y-5899501D01*
X49821772Y-5911132D01*
X49821766Y-5911134D01*
X49755451Y-5955445D01*
X49755445Y-5955451D01*
X49711134Y-6021766D01*
X49711132Y-6021772D01*
X49699501Y-6080241D01*
X49699500Y-6080253D01*
X49699500Y-7719746D01*
X49699501Y-7719758D01*
X49711132Y-7778227D01*
X49711133Y-7778231D01*
X49755448Y-7844552D01*
X49755451Y-7844554D01*
X49820709Y-7888159D01*
X49858588Y-7936209D01*
X49860990Y-7997348D01*
X49826997Y-8048221D01*
X49793599Y-8065463D01*
X49752447Y-8077547D01*
X49752442Y-8077549D01*
X49631373Y-8155355D01*
X49537122Y-8264128D01*
X49493982Y-8358590D01*
X49452610Y-8403667D01*
X49392643Y-8415818D01*
X49336987Y-8390400D01*
X49318609Y-8363106D01*
X49316746Y-8364124D01*
X49313352Y-8357909D01*
X49227192Y-8242815D01*
X49227184Y-8242807D01*
X49112090Y-8156647D01*
X49112088Y-8156646D01*
X48977381Y-8106403D01*
X48977370Y-8106401D01*
X48917824Y-8100000D01*
X48395001Y-8100000D01*
X48395000Y-8100001D01*
X48395000Y-8800500D01*
X48376093Y-8858691D01*
X48326593Y-8894655D01*
X48296000Y-8899500D01*
X47600252Y-8899500D01*
X47600248Y-8899500D01*
X47600012Y-8899524D01*
X47590311Y-8900000D01*
X47120001Y-8900000D01*
X47120000Y-8900001D01*
X47120000Y-8947824D01*
X47119999Y-8947824D01*
X43050500Y-8947824D01*
X43050500Y-8552175D01*
X47120000Y-8552175D01*
X47120000Y-8599999D01*
X47120001Y-8600000D01*
X48094999Y-8600000D01*
X48095000Y-8599999D01*
X48095000Y-8100001D01*
X48094999Y-8100000D01*
X47572176Y-8100000D01*
X47512629Y-8106401D01*
X47512618Y-8106403D01*
X47377911Y-8156646D01*
X47377909Y-8156647D01*
X47262815Y-8242807D01*
X47262807Y-8242815D01*
X47176647Y-8357909D01*
X47176646Y-8357911D01*
X47126403Y-8492618D01*
X47126401Y-8492629D01*
X47120000Y-8552175D01*
X43050500Y-8552175D01*
X43050500Y-7435252D01*
X43038867Y-7376769D01*
X42994552Y-7310448D01*
X42978169Y-7299501D01*
X42928233Y-7266134D01*
X42928231Y-7266133D01*
X42928228Y-7266132D01*
X42928227Y-7266132D01*
X42869758Y-7254501D01*
X42869748Y-7254500D01*
X41130252Y-7254500D01*
X41130251Y-7254500D01*
X41130241Y-7254501D01*
X41071772Y-7266132D01*
X41071766Y-7266134D01*
X41005451Y-7310445D01*
X41005445Y-7310451D01*
X40961134Y-7376766D01*
X40961132Y-7376772D01*
X40949501Y-7435241D01*
X40949500Y-7435253D01*
X40949500Y-9174746D01*
X40949501Y-9174758D01*
X40961132Y-9233227D01*
X40961134Y-9233233D01*
X40991203Y-9278233D01*
X41005448Y-9299552D01*
X41005451Y-9299554D01*
X41007958Y-9302061D01*
X41010634Y-9307313D01*
X41010865Y-9307659D01*
X41010824Y-9307686D01*
X41035735Y-9356578D01*
X41026164Y-9417010D01*
X41007958Y-9442068D01*
X40079525Y-10370503D01*
X40025008Y-10398281D01*
X40009521Y-10399500D01*
X36489479Y-10399500D01*
X36431288Y-10380593D01*
X36395324Y-10331093D01*
X36395324Y-10269907D01*
X36419475Y-10230496D01*
X37245475Y-9404496D01*
X37299992Y-9376719D01*
X37315479Y-9375500D01*
X38369747Y-9375500D01*
X38369748Y-9375500D01*
X38428231Y-9363867D01*
X38494552Y-9319552D01*
X38538867Y-9253231D01*
X38550500Y-9194748D01*
X38550500Y-7455252D01*
X38538867Y-7396769D01*
X38494552Y-7330448D01*
X38494548Y-7330445D01*
X38428233Y-7286134D01*
X38428231Y-7286133D01*
X38428228Y-7286132D01*
X38428227Y-7286132D01*
X38369758Y-7274501D01*
X38369748Y-7274500D01*
X36630252Y-7274500D01*
X36630251Y-7274500D01*
X36630241Y-7274501D01*
X36571772Y-7286132D01*
X36571766Y-7286134D01*
X36505451Y-7330445D01*
X36505445Y-7330451D01*
X36461134Y-7396766D01*
X36461132Y-7396772D01*
X36449501Y-7455241D01*
X36449500Y-7455253D01*
X36449500Y-9194750D01*
X36463035Y-9262794D01*
X36461724Y-9263054D01*
X36465708Y-9313688D01*
X36439448Y-9360578D01*
X35829525Y-9970503D01*
X35775008Y-9998281D01*
X35759521Y-9999500D01*
X32664479Y-9999500D01*
X32606288Y-9980593D01*
X32570324Y-9931093D01*
X32570324Y-9869907D01*
X32594475Y-9830496D01*
X32995475Y-9429496D01*
X33049992Y-9401719D01*
X33065479Y-9400500D01*
X33869747Y-9400500D01*
X33869748Y-9400500D01*
X33928231Y-9388867D01*
X33994552Y-9344552D01*
X34038867Y-9278231D01*
X34050500Y-9219748D01*
X34050500Y-7480252D01*
X34038867Y-7421769D01*
X33994552Y-7355448D01*
X33957142Y-7330451D01*
X33928233Y-7311134D01*
X33928231Y-7311133D01*
X33928228Y-7311132D01*
X33928227Y-7311132D01*
X33869758Y-7299501D01*
X33869748Y-7299500D01*
X32130252Y-7299500D01*
X32130251Y-7299500D01*
X32130241Y-7299501D01*
X32071772Y-7311132D01*
X32071766Y-7311134D01*
X32005451Y-7355445D01*
X32005445Y-7355451D01*
X31961134Y-7421766D01*
X31961132Y-7421772D01*
X31949501Y-7480241D01*
X31949500Y-7480253D01*
X31949500Y-9219746D01*
X31949501Y-9219758D01*
X31961132Y-9278227D01*
X31961134Y-9278233D01*
X32004989Y-9343865D01*
X32005448Y-9344552D01*
X32040041Y-9367667D01*
X32077920Y-9415715D01*
X32080322Y-9476853D01*
X32055043Y-9519984D01*
X32004525Y-9570503D01*
X31950009Y-9598281D01*
X31934521Y-9599500D01*
X28189479Y-9599500D01*
X28131288Y-9580593D01*
X28095324Y-9531093D01*
X28095324Y-9469907D01*
X28119475Y-9430496D01*
X28120475Y-9429496D01*
X28174992Y-9401719D01*
X28190479Y-9400500D01*
X29369747Y-9400500D01*
X29369748Y-9400500D01*
X29428231Y-9388867D01*
X29494552Y-9344552D01*
X29538867Y-9278231D01*
X29550500Y-9219748D01*
X29550500Y-7480252D01*
X29538867Y-7421769D01*
X29494552Y-7355448D01*
X29457142Y-7330451D01*
X29428233Y-7311134D01*
X29428231Y-7311133D01*
X29428228Y-7311132D01*
X29428227Y-7311132D01*
X29369758Y-7299501D01*
X29369748Y-7299500D01*
X27630252Y-7299500D01*
X27630251Y-7299500D01*
X27630241Y-7299501D01*
X27571772Y-7311132D01*
X27571766Y-7311134D01*
X27505451Y-7355445D01*
X27505445Y-7355451D01*
X27461134Y-7421766D01*
X27461132Y-7421772D01*
X27449501Y-7480241D01*
X27449500Y-7480253D01*
X27449500Y-9100500D01*
X27430593Y-9158691D01*
X27381093Y-9194655D01*
X27350500Y-9199500D01*
X25149500Y-9199500D01*
X25091309Y-9180593D01*
X25055345Y-9131093D01*
X25050500Y-9100500D01*
X25050500Y-7480253D01*
X25050498Y-7480241D01*
X25041549Y-7435252D01*
X25038867Y-7421769D01*
X24994552Y-7355448D01*
X24957142Y-7330451D01*
X24928233Y-7311134D01*
X24928231Y-7311133D01*
X24928228Y-7311132D01*
X24928227Y-7311132D01*
X24869758Y-7299501D01*
X24869748Y-7299500D01*
X23130252Y-7299500D01*
X23130251Y-7299500D01*
X23130241Y-7299501D01*
X23071772Y-7311132D01*
X23071766Y-7311134D01*
X23005451Y-7355445D01*
X23005445Y-7355451D01*
X22961134Y-7421766D01*
X22961132Y-7421772D01*
X22949501Y-7480241D01*
X22949500Y-7480253D01*
X22949500Y-9219746D01*
X22949501Y-9219758D01*
X22961132Y-9278227D01*
X22961134Y-9278233D01*
X23004989Y-9343865D01*
X23005448Y-9344552D01*
X23071769Y-9388867D01*
X23116231Y-9397711D01*
X23130241Y-9400498D01*
X23130246Y-9400498D01*
X23130252Y-9400500D01*
X23600500Y-9400500D01*
X23658691Y-9419407D01*
X23694655Y-9468907D01*
X23699500Y-9499500D01*
X23699500Y-9630014D01*
X23680593Y-9688205D01*
X23670504Y-9700018D01*
X21150017Y-12220504D01*
X21095500Y-12248281D01*
X21080014Y-12249500D01*
X20986866Y-12249500D01*
X20986854Y-12249501D01*
X20939455Y-12255740D01*
X20939453Y-12255740D01*
X20835423Y-12304251D01*
X20754253Y-12385421D01*
X20705741Y-12489455D01*
X20699500Y-12536862D01*
X19025500Y-12536862D01*
X19025500Y-10290478D01*
X19044407Y-10232287D01*
X19054490Y-10220480D01*
X19740460Y-9534511D01*
X19780022Y-9465988D01*
X19780023Y-9465981D01*
X19781830Y-9461622D01*
X19821563Y-9415093D01*
X19873297Y-9400500D01*
X20369747Y-9400500D01*
X20369748Y-9400500D01*
X20428231Y-9388867D01*
X20494552Y-9344552D01*
X20538867Y-9278231D01*
X20550500Y-9219748D01*
X20550500Y-7480252D01*
X20538867Y-7421769D01*
X20494552Y-7355448D01*
X20457142Y-7330451D01*
X20428233Y-7311134D01*
X20428231Y-7311133D01*
X20428228Y-7311132D01*
X20428227Y-7311132D01*
X20369758Y-7299501D01*
X20369748Y-7299500D01*
X18630252Y-7299500D01*
X18630251Y-7299500D01*
X18630241Y-7299501D01*
X18571772Y-7311132D01*
X18571766Y-7311134D01*
X18505451Y-7355445D01*
X18505445Y-7355451D01*
X18461134Y-7421766D01*
X18461132Y-7421772D01*
X18449501Y-7480241D01*
X18449500Y-7480253D01*
X18449500Y-9219746D01*
X18449501Y-9219758D01*
X18461132Y-9278227D01*
X18461134Y-9278233D01*
X18504989Y-9343865D01*
X18505448Y-9344552D01*
X18571769Y-9388867D01*
X18616231Y-9397711D01*
X18630241Y-9400498D01*
X18630246Y-9400498D01*
X18630252Y-9400500D01*
X18785521Y-9400500D01*
X18843712Y-9419407D01*
X18879676Y-9468907D01*
X18879676Y-9530093D01*
X18855525Y-9569504D01*
X18540489Y-9884540D01*
X18540488Y-9884539D01*
X18484539Y-9940489D01*
X18444980Y-10009007D01*
X18444978Y-10009011D01*
X18424500Y-10085435D01*
X18424500Y-15114563D01*
X18444977Y-15190984D01*
X18444979Y-15190989D01*
X18470360Y-15234951D01*
X18484539Y-15259509D01*
X18784540Y-15559511D01*
X18784541Y-15559511D01*
X18836018Y-15610988D01*
X18855738Y-15639152D01*
X18879251Y-15689576D01*
X18879252Y-15689577D01*
X18879253Y-15689579D01*
X18894672Y-15704998D01*
X18922448Y-15759513D01*
X18912877Y-15819945D01*
X18894673Y-15845000D01*
X18879253Y-15860421D01*
X18864368Y-15892340D01*
X18822641Y-15937087D01*
X18774645Y-15949500D01*
X18234083Y-15949500D01*
X18175892Y-15930593D01*
X18145142Y-15893980D01*
X18134636Y-15872490D01*
X18134636Y-15872489D01*
X18052511Y-15790364D01*
X17948170Y-15739355D01*
X17948171Y-15739355D01*
X17931259Y-15736891D01*
X17880528Y-15729500D01*
X17519472Y-15729500D01*
X17478886Y-15735413D01*
X17451828Y-15739355D01*
X17370217Y-15779253D01*
X17347489Y-15790364D01*
X17285001Y-15852851D01*
X17230487Y-15880627D01*
X17170055Y-15871056D01*
X17144999Y-15852852D01*
X17082511Y-15790364D01*
X17082509Y-15790363D01*
X17082508Y-15790362D01*
X17075832Y-15785595D01*
X17077256Y-15783600D01*
X17042046Y-15749536D01*
X17030500Y-15703138D01*
X17030500Y-15243737D01*
X17049407Y-15185546D01*
X17075978Y-15160452D01*
X17081128Y-15157143D01*
X17175377Y-15048373D01*
X17235165Y-14917457D01*
X17241992Y-14869971D01*
X17255647Y-14775002D01*
X17255647Y-14774997D01*
X17235165Y-14632543D01*
X17220302Y-14599999D01*
X17175377Y-14501627D01*
X17081128Y-14392857D01*
X17081127Y-14392856D01*
X17081126Y-14392855D01*
X16960057Y-14315049D01*
X16960054Y-14315047D01*
X16960053Y-14315047D01*
X16960050Y-14315046D01*
X16821964Y-14274500D01*
X16821961Y-14274500D01*
X16678039Y-14274500D01*
X16678035Y-14274500D01*
X16539949Y-14315046D01*
X16539942Y-14315049D01*
X16418873Y-14392855D01*
X16324622Y-14501628D01*
X16264834Y-14632543D01*
X16244353Y-14774997D01*
X16244353Y-14775002D01*
X16264834Y-14917456D01*
X16298187Y-14990487D01*
X16324623Y-15048373D01*
X16405319Y-15141502D01*
X16429137Y-15197860D01*
X16429500Y-15206332D01*
X16429500Y-15703138D01*
X16410593Y-15761329D01*
X16383242Y-15784299D01*
X16384168Y-15785595D01*
X16377492Y-15790362D01*
X16377490Y-15790363D01*
X16377489Y-15790364D01*
X16335404Y-15832449D01*
X16295364Y-15872489D01*
X16244355Y-15976828D01*
X16244355Y-15976830D01*
X16239251Y-16011866D01*
X16234500Y-16044475D01*
X16234500Y-16047469D01*
X16215593Y-16105660D01*
X16166093Y-16141624D01*
X16104907Y-16141624D01*
X16065496Y-16117473D01*
X15029496Y-15081473D01*
X15001719Y-15026956D01*
X15000500Y-15011469D01*
X15000500Y-10865478D01*
X15019407Y-10807287D01*
X15029490Y-10795480D01*
X15240460Y-10584511D01*
X15252934Y-10562905D01*
X15280021Y-10515989D01*
X15300500Y-10439562D01*
X15300500Y-9499500D01*
X15319407Y-9441309D01*
X15368907Y-9405345D01*
X15399500Y-9400500D01*
X15869747Y-9400500D01*
X15869748Y-9400500D01*
X15928231Y-9388867D01*
X15994552Y-9344552D01*
X16038867Y-9278231D01*
X16050500Y-9219748D01*
X16050500Y-7480252D01*
X16038867Y-7421769D01*
X15994552Y-7355448D01*
X15957142Y-7330451D01*
X15928233Y-7311134D01*
X15928231Y-7311133D01*
X15928228Y-7311132D01*
X15928227Y-7311132D01*
X15869758Y-7299501D01*
X15869748Y-7299500D01*
X14130252Y-7299500D01*
X14130251Y-7299500D01*
X14130241Y-7299501D01*
X14071772Y-7311132D01*
X14071766Y-7311134D01*
X14005451Y-7355445D01*
X14005445Y-7355451D01*
X13961134Y-7421766D01*
X13961132Y-7421772D01*
X13949501Y-7480241D01*
X13949500Y-7480253D01*
X13949500Y-9219746D01*
X13949501Y-9219758D01*
X13961132Y-9278227D01*
X13961134Y-9278233D01*
X14004989Y-9343865D01*
X14005448Y-9344552D01*
X14071769Y-9388867D01*
X14116231Y-9397711D01*
X14130241Y-9400498D01*
X14130246Y-9400498D01*
X14130252Y-9400500D01*
X14600500Y-9400500D01*
X14658691Y-9419407D01*
X14694655Y-9468907D01*
X14699500Y-9499500D01*
X14699500Y-10234521D01*
X14680593Y-10292712D01*
X14670504Y-10304525D01*
X14515489Y-10459540D01*
X14515488Y-10459539D01*
X14459539Y-10515489D01*
X14419980Y-10584007D01*
X14419978Y-10584011D01*
X14399500Y-10660435D01*
X14399500Y-15216512D01*
X14419978Y-15292936D01*
X14419980Y-15292940D01*
X14446899Y-15339564D01*
X14459540Y-15361459D01*
X16313541Y-17215460D01*
X16313543Y-17215461D01*
X16313545Y-17215463D01*
X16382060Y-17255020D01*
X16382058Y-17255020D01*
X16382062Y-17255021D01*
X16382064Y-17255022D01*
X16453642Y-17274201D01*
X16504955Y-17307524D01*
X16526882Y-17364645D01*
X16511047Y-17423746D01*
X16498022Y-17439830D01*
X16415365Y-17522487D01*
X16415363Y-17522490D01*
X16414137Y-17524999D01*
X16404894Y-17543907D01*
X16404858Y-17543980D01*
X16362315Y-17587954D01*
X16315917Y-17599500D01*
X15940479Y-17599500D01*
X15882288Y-17580593D01*
X15870475Y-17570504D01*
X15380546Y-17080575D01*
X15352769Y-17026058D01*
X15352558Y-16996482D01*
X15355647Y-16975000D01*
X15353627Y-16960953D01*
X15335165Y-16832543D01*
X15325720Y-16811862D01*
X15275377Y-16701627D01*
X15181128Y-16592857D01*
X15181127Y-16592856D01*
X15181126Y-16592855D01*
X15060057Y-16515049D01*
X15060054Y-16515047D01*
X15060053Y-16515047D01*
X15060050Y-16515046D01*
X14921964Y-16474500D01*
X14921961Y-16474500D01*
X14778039Y-16474500D01*
X14778035Y-16474500D01*
X14639949Y-16515046D01*
X14639942Y-16515049D01*
X14518873Y-16592855D01*
X14424622Y-16701628D01*
X14364834Y-16832543D01*
X14344353Y-16974997D01*
X14344353Y-16975002D01*
X14364834Y-17117456D01*
X14415424Y-17228231D01*
X14424623Y-17248373D01*
X14513114Y-17350498D01*
X14518873Y-17357144D01*
X14639942Y-17434950D01*
X14639947Y-17434953D01*
X14726684Y-17460421D01*
X14778035Y-17475499D01*
X14778036Y-17475499D01*
X14778039Y-17475500D01*
X14778041Y-17475500D01*
X14884521Y-17475500D01*
X14942712Y-17494407D01*
X14954525Y-17504496D01*
X15555527Y-18105498D01*
X15583303Y-18160013D01*
X15573732Y-18220445D01*
X15530467Y-18263710D01*
X15485522Y-18274500D01*
X12640479Y-18274500D01*
X12582288Y-18255593D01*
X12570475Y-18245504D01*
X11829496Y-17504525D01*
X11801719Y-17450008D01*
X11800500Y-17434521D01*
X11800500Y-9785435D01*
X11800499Y-9785434D01*
X11800122Y-9784023D01*
X11780022Y-9709012D01*
X11780020Y-9709008D01*
X11740463Y-9640493D01*
X11740459Y-9640488D01*
X11531963Y-9431991D01*
X11504186Y-9377475D01*
X11513757Y-9317043D01*
X11519641Y-9307002D01*
X11538867Y-9278231D01*
X11550500Y-9219748D01*
X11550500Y-7480252D01*
X11538867Y-7421769D01*
X11494552Y-7355448D01*
X11457142Y-7330451D01*
X11428233Y-7311134D01*
X11428231Y-7311133D01*
X11428228Y-7311132D01*
X11428227Y-7311132D01*
X11369758Y-7299501D01*
X11369748Y-7299500D01*
X9630252Y-7299500D01*
X9630251Y-7299500D01*
X9630241Y-7299501D01*
X9571772Y-7311132D01*
X9571766Y-7311134D01*
X9505451Y-7355445D01*
X9505445Y-7355451D01*
X9461134Y-7421766D01*
X9461132Y-7421772D01*
X9449501Y-7480241D01*
X9449500Y-7480253D01*
X9449500Y-9219746D01*
X9449501Y-9219758D01*
X9461132Y-9278227D01*
X9461134Y-9278233D01*
X9504989Y-9343865D01*
X9505448Y-9344552D01*
X9571769Y-9388867D01*
X9616231Y-9397711D01*
X9630241Y-9400498D01*
X9630246Y-9400498D01*
X9630252Y-9400500D01*
X10609521Y-9400500D01*
X10667712Y-9419407D01*
X10679525Y-9429496D01*
X11170504Y-9920475D01*
X11198281Y-9974992D01*
X11199500Y-9990479D01*
X11199500Y-17639564D01*
X11219978Y-17715988D01*
X11219979Y-17715989D01*
X11231208Y-17735438D01*
X11259540Y-17784511D01*
X12234540Y-18759511D01*
X12234539Y-18759511D01*
X12290489Y-18815460D01*
X12359007Y-18855019D01*
X12359011Y-18855021D01*
X12435435Y-18875499D01*
X12435437Y-18875500D01*
X12435438Y-18875500D01*
X12514562Y-18875500D01*
X18824167Y-18875500D01*
X18882358Y-18894407D01*
X18894164Y-18904490D01*
X18894672Y-18904998D01*
X18922448Y-18959513D01*
X18912877Y-19019945D01*
X18894673Y-19045000D01*
X18879253Y-19060421D01*
X18830741Y-19164455D01*
X18826779Y-19194554D01*
X18824500Y-19211862D01*
X18824500Y-19538133D01*
X18824501Y-19538145D01*
X18830740Y-19585544D01*
X18830740Y-19585546D01*
X18879251Y-19689576D01*
X18879252Y-19689577D01*
X18879253Y-19689579D01*
X18894672Y-19704998D01*
X18922448Y-19759513D01*
X18912877Y-19819945D01*
X18894673Y-19845000D01*
X18894168Y-19845505D01*
X18839654Y-19873281D01*
X18824167Y-19874500D01*
X13235435Y-19874500D01*
X13159012Y-19894978D01*
X13124680Y-19914800D01*
X13124679Y-19914799D01*
X13090490Y-19934539D01*
X10267175Y-22757852D01*
X10212658Y-22785629D01*
X10156905Y-22778289D01*
X10122040Y-22762766D01*
X10122035Y-22762764D01*
X10122034Y-22762764D01*
X10122031Y-22762763D01*
X10122030Y-22762763D01*
X10075135Y-22752795D01*
X9942019Y-22724500D01*
X9757981Y-22724500D01*
X9660797Y-22745157D01*
X9577969Y-22762763D01*
X9577963Y-22762765D01*
X9409845Y-22837615D01*
X9409842Y-22837617D01*
X9409839Y-22837618D01*
X9409839Y-22837619D01*
X9397245Y-22846769D01*
X9260948Y-22945794D01*
X9137804Y-23082561D01*
X9104962Y-23139445D01*
X9059492Y-23180385D01*
X8998642Y-23186780D01*
X8945654Y-23156187D01*
X8930605Y-23134072D01*
X8853288Y-22978799D01*
X8853283Y-22978790D01*
X8722052Y-22805012D01*
X8561129Y-22658313D01*
X8561126Y-22658311D01*
X8375991Y-22543680D01*
X8375986Y-22543677D01*
X8172932Y-22465013D01*
X8172926Y-22465011D01*
X8100000Y-22451379D01*
X8100000Y-23319670D01*
X8080255Y-23299925D01*
X7994745Y-23250556D01*
X7899370Y-23225000D01*
X7800630Y-23225000D01*
X7705255Y-23250556D01*
X7619745Y-23299925D01*
X7600000Y-23319670D01*
X7600000Y-22451379D01*
X7599999Y-22451379D01*
X7527073Y-22465011D01*
X7527067Y-22465013D01*
X7324013Y-22543677D01*
X7324008Y-22543680D01*
X7138873Y-22658311D01*
X7138870Y-22658313D01*
X6977944Y-22805015D01*
X6895383Y-22914343D01*
X6845227Y-22949386D01*
X6784052Y-22948255D01*
X6735225Y-22911382D01*
X6719283Y-22873999D01*
X6713867Y-22846769D01*
X6669552Y-22780448D01*
X6666321Y-22778289D01*
X6603233Y-22736134D01*
X6603231Y-22736133D01*
X6603228Y-22736132D01*
X6603227Y-22736132D01*
X6544758Y-22724501D01*
X6544748Y-22724500D01*
X6544747Y-22724500D01*
X6249500Y-22724500D01*
X6191309Y-22705593D01*
X6155345Y-22656093D01*
X6150500Y-22625500D01*
X6150500Y-17060437D01*
X6150499Y-17060435D01*
X6131283Y-16988721D01*
X6134484Y-16927620D01*
X6150000Y-16903727D01*
X6150000Y-16400001D01*
X6450000Y-16400001D01*
X6450000Y-16899999D01*
X6450001Y-16900000D01*
X6972824Y-16900000D01*
X7032370Y-16893598D01*
X7032381Y-16893596D01*
X7167088Y-16843353D01*
X7167090Y-16843352D01*
X7282184Y-16757192D01*
X7282194Y-16757183D01*
X7368352Y-16642090D01*
X7368353Y-16642088D01*
X7418596Y-16507381D01*
X7418598Y-16507370D01*
X7425000Y-16447824D01*
X7425000Y-16400001D01*
X7424999Y-16400000D01*
X6450001Y-16400000D01*
X6450000Y-16400001D01*
X6150000Y-16400001D01*
X6149999Y-16400000D01*
X5774500Y-16400000D01*
X5716309Y-16381093D01*
X5680345Y-16331593D01*
X5675500Y-16301000D01*
X5675500Y-16199500D01*
X5694407Y-16141309D01*
X5743907Y-16105345D01*
X5774500Y-16100500D01*
X6944744Y-16100500D01*
X6944748Y-16100500D01*
X6944751Y-16100499D01*
X6944988Y-16100476D01*
X6954689Y-16100000D01*
X7424999Y-16100000D01*
X7425000Y-16099999D01*
X7425000Y-16052175D01*
X7418598Y-15992629D01*
X7418596Y-15992618D01*
X7368353Y-15857911D01*
X7368352Y-15857909D01*
X7282192Y-15742815D01*
X7282184Y-15742807D01*
X7165171Y-15655210D01*
X7129918Y-15605201D01*
X7126866Y-15585000D01*
X7125976Y-15585088D01*
X7125500Y-15580261D01*
X7125500Y-15580252D01*
X7125349Y-15579495D01*
X7113379Y-15519315D01*
X7113379Y-15480685D01*
X7125498Y-15419758D01*
X7125499Y-15419751D01*
X7125500Y-15419748D01*
X7125500Y-15419737D01*
X7125976Y-15414912D01*
X7128388Y-15415149D01*
X7144407Y-15365850D01*
X7165171Y-15344788D01*
X7282184Y-15257192D01*
X7282192Y-15257184D01*
X7368352Y-15142090D01*
X7371044Y-15134874D01*
X7409093Y-15086959D01*
X7468040Y-15070559D01*
X7525368Y-15091939D01*
X7533807Y-15099464D01*
X9145504Y-16711161D01*
X9173281Y-16765678D01*
X9174500Y-16781165D01*
X9174500Y-19164564D01*
X9194978Y-19240988D01*
X9194980Y-19240992D01*
X9203267Y-19255345D01*
X9234540Y-19309511D01*
X10140489Y-20215460D01*
X10140491Y-20215461D01*
X10140493Y-20215463D01*
X10209008Y-20255020D01*
X10209009Y-20255020D01*
X10209012Y-20255022D01*
X10209014Y-20255022D01*
X10215004Y-20257504D01*
X10214411Y-20258935D01*
X10256722Y-20285418D01*
X10318872Y-20357143D01*
X10439947Y-20434953D01*
X10546403Y-20466211D01*
X10578035Y-20475499D01*
X10578036Y-20475499D01*
X10578039Y-20475500D01*
X10578041Y-20475500D01*
X10721959Y-20475500D01*
X10721961Y-20475500D01*
X10860053Y-20434953D01*
X10981128Y-20357143D01*
X11075377Y-20248373D01*
X11135165Y-20117457D01*
X11155647Y-19975000D01*
X11151056Y-19943071D01*
X11135165Y-19832543D01*
X11110828Y-19779253D01*
X11075377Y-19701627D01*
X10981128Y-19592857D01*
X10981127Y-19592856D01*
X10981126Y-19592855D01*
X10860057Y-19515049D01*
X10860054Y-19515047D01*
X10860053Y-19515047D01*
X10860050Y-19515046D01*
X10721964Y-19474500D01*
X10721961Y-19474500D01*
X10578039Y-19474500D01*
X10578035Y-19474500D01*
X10439945Y-19515047D01*
X10415788Y-19530572D01*
X10356612Y-19546125D01*
X10299596Y-19523926D01*
X10292262Y-19517291D01*
X10248334Y-19473363D01*
X10220557Y-19418846D01*
X10230128Y-19358414D01*
X10273393Y-19315149D01*
X10278681Y-19313046D01*
X10278612Y-19312894D01*
X10285045Y-19309955D01*
X10285053Y-19309953D01*
X10406128Y-19232143D01*
X10500377Y-19123373D01*
X10560165Y-18992457D01*
X10569137Y-18930055D01*
X10580647Y-18850002D01*
X10580647Y-18849997D01*
X10560165Y-18707543D01*
X10522030Y-18624041D01*
X10500377Y-18576627D01*
X10406128Y-18467857D01*
X10406127Y-18467856D01*
X10401491Y-18462506D01*
X10403524Y-18460743D01*
X10378067Y-18418505D01*
X10375500Y-18396105D01*
X10375500Y-16610437D01*
X10375499Y-16610435D01*
X10370788Y-16592855D01*
X10355021Y-16534011D01*
X10349523Y-16524489D01*
X10315460Y-16465489D01*
X10259511Y-16409539D01*
X10259511Y-16409540D01*
X9714818Y-15864847D01*
X9687041Y-15810330D01*
X9696612Y-15749898D01*
X9739877Y-15706633D01*
X9784822Y-15695843D01*
X9867302Y-15695843D01*
X9867304Y-15695843D01*
X10005396Y-15655296D01*
X10126471Y-15577486D01*
X10220720Y-15468716D01*
X10280508Y-15337800D01*
X10291764Y-15259510D01*
X10300990Y-15195345D01*
X10300990Y-15195340D01*
X10280508Y-15052886D01*
X10252011Y-14990487D01*
X10220720Y-14921970D01*
X10126471Y-14813200D01*
X10126470Y-14813199D01*
X10126469Y-14813198D01*
X10005400Y-14735392D01*
X10005397Y-14735390D01*
X10005396Y-14735390D01*
X10005393Y-14735389D01*
X9867307Y-14694843D01*
X9867304Y-14694843D01*
X9723382Y-14694843D01*
X9723380Y-14694843D01*
X9723376Y-14694844D01*
X9641703Y-14718824D01*
X9580542Y-14717076D01*
X9543809Y-14693838D01*
X7445930Y-12595959D01*
X7418153Y-12541442D01*
X7419198Y-12513670D01*
X7417936Y-12513535D01*
X7424999Y-12447824D01*
X7425000Y-12447824D01*
X7425000Y-12400001D01*
X7424999Y-12400000D01*
X6954689Y-12400000D01*
X6944988Y-12399524D01*
X6944751Y-12399500D01*
X6944748Y-12399500D01*
X6249000Y-12399500D01*
X6190809Y-12380593D01*
X6154845Y-12331093D01*
X6150000Y-12300500D01*
X6150000Y-12199500D01*
X6168907Y-12141309D01*
X6218407Y-12105345D01*
X6249000Y-12100500D01*
X6944744Y-12100500D01*
X6944748Y-12100500D01*
X6944751Y-12100499D01*
X6944988Y-12100476D01*
X6954689Y-12100000D01*
X7438216Y-12100000D01*
X7465786Y-12085953D01*
X7526218Y-12095524D01*
X7551277Y-12113730D01*
X9188947Y-13751400D01*
X9216724Y-13805917D01*
X9216935Y-13835490D01*
X9213848Y-13856973D01*
X9213847Y-13856978D01*
X9234328Y-13999432D01*
X9289151Y-14119475D01*
X9294117Y-14130349D01*
X9374722Y-14223373D01*
X9388367Y-14239120D01*
X9509436Y-14316926D01*
X9509441Y-14316929D01*
X9583795Y-14338761D01*
X9647529Y-14357475D01*
X9647530Y-14357475D01*
X9647533Y-14357476D01*
X9647535Y-14357476D01*
X9791453Y-14357476D01*
X9791455Y-14357476D01*
X9929547Y-14316929D01*
X10050622Y-14239119D01*
X10144871Y-14130349D01*
X10204659Y-13999433D01*
X10217164Y-13912456D01*
X10225141Y-13856978D01*
X10225141Y-13856973D01*
X10204659Y-13714519D01*
X10192652Y-13688228D01*
X10144871Y-13583603D01*
X10050622Y-13474833D01*
X10050621Y-13474832D01*
X10050620Y-13474831D01*
X9929551Y-13397025D01*
X9929548Y-13397023D01*
X9929547Y-13397023D01*
X9920638Y-13394407D01*
X9791458Y-13356476D01*
X9791455Y-13356476D01*
X9684973Y-13356476D01*
X9626782Y-13337569D01*
X9614969Y-13327480D01*
X8707237Y-12419748D01*
X7797029Y-11509540D01*
X7778671Y-11498941D01*
X7763982Y-11490460D01*
X7763980Y-11490459D01*
X7728507Y-11469979D01*
X7728504Y-11469978D01*
X7652082Y-11449500D01*
X7652080Y-11449500D01*
X7515507Y-11449500D01*
X7457316Y-11430593D01*
X7445503Y-11420504D01*
X7424999Y-11400000D01*
X6954689Y-11400000D01*
X6944988Y-11399524D01*
X6944751Y-11399500D01*
X6944748Y-11399500D01*
X6249000Y-11399500D01*
X6190809Y-11380593D01*
X6154845Y-11331093D01*
X6150000Y-11300500D01*
X6150000Y-11199500D01*
X6168907Y-11141309D01*
X6218407Y-11105345D01*
X6249000Y-11100500D01*
X6944744Y-11100500D01*
X6944748Y-11100500D01*
X6944751Y-11100499D01*
X6944988Y-11100476D01*
X6954689Y-11100000D01*
X7424999Y-11100000D01*
X7445503Y-11079496D01*
X7500020Y-11051719D01*
X7515507Y-11050500D01*
X8909521Y-11050500D01*
X8967712Y-11069407D01*
X8979525Y-11079496D01*
X9344453Y-11444424D01*
X9372230Y-11498941D01*
X9372441Y-11528514D01*
X9369354Y-11549997D01*
X9369353Y-11550002D01*
X9389834Y-11692456D01*
X9449622Y-11823371D01*
X9449623Y-11823373D01*
X9543872Y-11932143D01*
X9543873Y-11932144D01*
X9660945Y-12007381D01*
X9664947Y-12009953D01*
X9771403Y-12041211D01*
X9803035Y-12050499D01*
X9803036Y-12050499D01*
X9803039Y-12050500D01*
X9803041Y-12050500D01*
X9946959Y-12050500D01*
X9946961Y-12050500D01*
X10085053Y-12009953D01*
X10206128Y-11932143D01*
X10300377Y-11823373D01*
X10360165Y-11692457D01*
X10375059Y-11588867D01*
X10380647Y-11550002D01*
X10380647Y-11549997D01*
X10360165Y-11407543D01*
X10347857Y-11380593D01*
X10300377Y-11276627D01*
X10206128Y-11167857D01*
X10206127Y-11167856D01*
X10206126Y-11167855D01*
X10085057Y-11090049D01*
X10085054Y-11090047D01*
X10085053Y-11090047D01*
X10085050Y-11090046D01*
X9946964Y-11049500D01*
X9946961Y-11049500D01*
X9840479Y-11049500D01*
X9782288Y-11030593D01*
X9770475Y-11020504D01*
X9519475Y-10769504D01*
X9259511Y-10509540D01*
X9259508Y-10509538D01*
X9190992Y-10469980D01*
X9190988Y-10469978D01*
X9114564Y-10449500D01*
X9114562Y-10449500D01*
X7515507Y-10449500D01*
X7457316Y-10430593D01*
X7445503Y-10420504D01*
X7424999Y-10400000D01*
X6954689Y-10400000D01*
X6944988Y-10399524D01*
X6944751Y-10399500D01*
X6944748Y-10399500D01*
X6249000Y-10399500D01*
X6190809Y-10380593D01*
X6154845Y-10331093D01*
X6150000Y-10300500D01*
X6150000Y-10199500D01*
X6168907Y-10141309D01*
X6218407Y-10105345D01*
X6249000Y-10100500D01*
X6944744Y-10100500D01*
X6944748Y-10100500D01*
X6944751Y-10100499D01*
X6944988Y-10100476D01*
X6954689Y-10100000D01*
X7424999Y-10100000D01*
X7425000Y-10099999D01*
X7425000Y-10065762D01*
X7443907Y-10007571D01*
X7455524Y-9995649D01*
X7454923Y-9995048D01*
X7515461Y-9934511D01*
X7565459Y-9884512D01*
X7565463Y-9884506D01*
X7605020Y-9815992D01*
X7605020Y-9815990D01*
X7605022Y-9815988D01*
X7625500Y-9739562D01*
X7625500Y-9660438D01*
X7625500Y-9510438D01*
X7613590Y-9465989D01*
X7613590Y-9465988D01*
X7613590Y-9465987D01*
X7607878Y-9444671D01*
X7605022Y-9434012D01*
X7588762Y-9405848D01*
X7575500Y-9356350D01*
X7575500Y-9315478D01*
X7594407Y-9257287D01*
X7604490Y-9245480D01*
X8215460Y-8634511D01*
X8243792Y-8585438D01*
X8255021Y-8565989D01*
X8275500Y-8489562D01*
X8275500Y-7703893D01*
X8294407Y-7645702D01*
X8301741Y-7637711D01*
X8301491Y-7637494D01*
X8306128Y-7632143D01*
X8400377Y-7523373D01*
X8460165Y-7392457D01*
X8471857Y-7311134D01*
X8480647Y-7250002D01*
X8480647Y-7249997D01*
X8460165Y-7107543D01*
X8400377Y-6976628D01*
X8400377Y-6976627D01*
X8306128Y-6867857D01*
X8306127Y-6867856D01*
X8306126Y-6867855D01*
X8185057Y-6790049D01*
X8185054Y-6790047D01*
X8185053Y-6790047D01*
X8185050Y-6790046D01*
X8046964Y-6749500D01*
X8046961Y-6749500D01*
X7903039Y-6749500D01*
X7903035Y-6749500D01*
X7764949Y-6790046D01*
X7764942Y-6790049D01*
X7643873Y-6867855D01*
X7549622Y-6976628D01*
X7489834Y-7107543D01*
X7469353Y-7249997D01*
X7469353Y-7250002D01*
X7489834Y-7392456D01*
X7549623Y-7523373D01*
X7648509Y-7637494D01*
X7646471Y-7639259D01*
X7671925Y-7681458D01*
X7674500Y-7703893D01*
X7674500Y-8284521D01*
X7655593Y-8342712D01*
X7645503Y-8354525D01*
X7551650Y-8448377D01*
X7497133Y-8476154D01*
X7436701Y-8466582D01*
X7393437Y-8423318D01*
X7388889Y-8412970D01*
X7368352Y-8357909D01*
X7282192Y-8242815D01*
X7282184Y-8242807D01*
X7167090Y-8156647D01*
X7167088Y-8156646D01*
X7032381Y-8106403D01*
X7032370Y-8106401D01*
X6972824Y-8100000D01*
X6450001Y-8100000D01*
X6450000Y-8100001D01*
X6450000Y-8800500D01*
X6431093Y-8858691D01*
X6381593Y-8894655D01*
X6351000Y-8899500D01*
X5655252Y-8899500D01*
X5655248Y-8899500D01*
X5655012Y-8899524D01*
X5645311Y-8900000D01*
X5175001Y-8900000D01*
X5175000Y-8900001D01*
X5175000Y-8947824D01*
X5174999Y-8947824D01*
X5181401Y-9007370D01*
X5181403Y-9007381D01*
X5231646Y-9142088D01*
X5231647Y-9142090D01*
X5317807Y-9257184D01*
X5317815Y-9257192D01*
X5344354Y-9277059D01*
X5379607Y-9327067D01*
X5378733Y-9388246D01*
X5342066Y-9437228D01*
X5310650Y-9451938D01*
X5243324Y-9469979D01*
X5207853Y-9490459D01*
X5207852Y-9490459D01*
X5174803Y-9509539D01*
X4734539Y-9949803D01*
X4694980Y-10018321D01*
X4694978Y-10018325D01*
X4674500Y-10094749D01*
X4674500Y-15339564D01*
X4694978Y-15415988D01*
X4694979Y-15415989D01*
X4726450Y-15470498D01*
X4726451Y-15470502D01*
X4726452Y-15470502D01*
X4734537Y-15484507D01*
X4734538Y-15484508D01*
X4734540Y-15484511D01*
X5045505Y-15795476D01*
X5073281Y-15849991D01*
X5074500Y-15865478D01*
X5074500Y-16664564D01*
X5094977Y-16740985D01*
X5094981Y-16740993D01*
X5112015Y-16770499D01*
X5112016Y-16770499D01*
X5112017Y-16770500D01*
X5134540Y-16809511D01*
X5520505Y-17195476D01*
X5548281Y-17249991D01*
X5549500Y-17265478D01*
X5549500Y-22625500D01*
X5530593Y-22683691D01*
X5481093Y-22719655D01*
X5450500Y-22724500D01*
X5155252Y-22724500D01*
X5155251Y-22724500D01*
X5155241Y-22724501D01*
X5096772Y-22736132D01*
X5096766Y-22736134D01*
X5030451Y-22780445D01*
X5030445Y-22780451D01*
X4986134Y-22846766D01*
X4986132Y-22846772D01*
X4974501Y-22905241D01*
X4974500Y-22905253D01*
X4974500Y-24294746D01*
X4974501Y-24294758D01*
X4986132Y-24353227D01*
X4986134Y-24353233D01*
X4992249Y-24362384D01*
X5030448Y-24419552D01*
X5096769Y-24463867D01*
X5141231Y-24472711D01*
X5155241Y-24475498D01*
X5155246Y-24475498D01*
X5155252Y-24475500D01*
X5155253Y-24475500D01*
X6544747Y-24475500D01*
X6544748Y-24475500D01*
X6603231Y-24463867D01*
X6669552Y-24419552D01*
X6713867Y-24353231D01*
X6719283Y-24326001D01*
X6749178Y-24272619D01*
X6804743Y-24247003D01*
X6864753Y-24258940D01*
X6895384Y-24285656D01*
X6977947Y-24394987D01*
X7138870Y-24541686D01*
X7138873Y-24541688D01*
X7324008Y-24656319D01*
X7324013Y-24656322D01*
X7457886Y-24708185D01*
X7505317Y-24746837D01*
X7520971Y-24805986D01*
X7498868Y-24863040D01*
X7447451Y-24896205D01*
X7422123Y-24899500D01*
X2502985Y-24899500D01*
X2497008Y-24899319D01*
X2472210Y-24897819D01*
X2415267Y-24875433D01*
X2382357Y-24823852D01*
X2386051Y-24762778D01*
X2424938Y-24715540D01*
X2478187Y-24700000D01*
X2899998Y-24700000D01*
X2900000Y-24700000D01*
X3500000Y-24600000D01*
X4100000Y-24100000D01*
X4500000Y-23600000D01*
X4700000Y-22900000D01*
X4700000Y-21900000D01*
X4500000Y-21400000D01*
X4100000Y-20900000D01*
X3866963Y-20713570D01*
X3820088Y-20676070D01*
X3756873Y-20625498D01*
X3712268Y-20589814D01*
X3688433Y-20570746D01*
X3681018Y-20564814D01*
X3665393Y-20552314D01*
X3600000Y-20500000D01*
X3451500Y-20450500D01*
X3000000Y-20300000D01*
X2000000Y-20300000D01*
X1999997Y-20300000D01*
X1299998Y-20600000D01*
X799999Y-21000000D01*
X600005Y-21299990D01*
X600001Y-21299998D01*
X400001Y-21699996D01*
X300000Y-22000000D01*
X300000Y-22521813D01*
X281093Y-22580004D01*
X231593Y-22615968D01*
X170407Y-22615968D01*
X120907Y-22580004D01*
X102181Y-22527790D01*
X100681Y-22502992D01*
X100500Y-22497015D01*
X100500Y-19980008D01*
X85201Y-19943073D01*
X85200Y-19943072D01*
X85200Y-19943071D01*
X56929Y-19914800D01*
X56927Y-19914799D01*
X56926Y-19914798D01*
X19992Y-19899500D01*
X19991Y-19899500D01*
X-401000Y-19899500D01*
X-459191Y-19880593D01*
X-495155Y-19831093D01*
X-500000Y-19800500D01*
X-500000Y-17280253D01*
X2444500Y-17280253D01*
X2444500Y-18919743D01*
X2444501Y-18919758D01*
X2456132Y-18978227D01*
X2456134Y-18978233D01*
X2488176Y-19026186D01*
X2500448Y-19044552D01*
X2566769Y-19088867D01*
X2611231Y-19097711D01*
X2625241Y-19100498D01*
X2625246Y-19100498D01*
X2625252Y-19100500D01*
X2625253Y-19100500D01*
X4664747Y-19100500D01*
X4664748Y-19100500D01*
X4723231Y-19088867D01*
X4789552Y-19044552D01*
X4833867Y-18978231D01*
X4845500Y-18919748D01*
X4845500Y-17280252D01*
X4833867Y-17221769D01*
X4789552Y-17155448D01*
X4789548Y-17155445D01*
X4723233Y-17111134D01*
X4723231Y-17111133D01*
X4723228Y-17111132D01*
X4723227Y-17111132D01*
X4664758Y-17099501D01*
X4664748Y-17099500D01*
X2625252Y-17099500D01*
X2625251Y-17099500D01*
X2625241Y-17099501D01*
X2566772Y-17111132D01*
X2566766Y-17111134D01*
X2500451Y-17155445D01*
X2500445Y-17155451D01*
X2456134Y-17221766D01*
X2456132Y-17221772D01*
X2444501Y-17280241D01*
X2444500Y-17280253D01*
X-500000Y-17280253D01*
X-500000Y-8552175D01*
X5175000Y-8552175D01*
X5175000Y-8599999D01*
X5175001Y-8600000D01*
X6149999Y-8600000D01*
X6150000Y-8599999D01*
X6150000Y-8100001D01*
X6149999Y-8100000D01*
X5627176Y-8100000D01*
X5567629Y-8106401D01*
X5567618Y-8106403D01*
X5432911Y-8156646D01*
X5432909Y-8156647D01*
X5317815Y-8242807D01*
X5317807Y-8242815D01*
X5231647Y-8357909D01*
X5231646Y-8357911D01*
X5181403Y-8492618D01*
X5181401Y-8492629D01*
X5175000Y-8552175D01*
X-500000Y-8552175D01*
X-500000Y-6080253D01*
X2444500Y-6080253D01*
X2444500Y-7719746D01*
X2444501Y-7719758D01*
X2456132Y-7778227D01*
X2456133Y-7778231D01*
X2500448Y-7844552D01*
X2566769Y-7888867D01*
X2611231Y-7897711D01*
X2625241Y-7900498D01*
X2625246Y-7900498D01*
X2625252Y-7900500D01*
X2625253Y-7900500D01*
X4664747Y-7900500D01*
X4664748Y-7900500D01*
X4723231Y-7888867D01*
X4789552Y-7844552D01*
X4833867Y-7778231D01*
X4845500Y-7719748D01*
X4845500Y-6080252D01*
X4833867Y-6021769D01*
X4789552Y-5955448D01*
X4789548Y-5955445D01*
X4723233Y-5911134D01*
X4723231Y-5911133D01*
X4723228Y-5911132D01*
X4723227Y-5911132D01*
X4664758Y-5899501D01*
X4664748Y-5899500D01*
X2625252Y-5899500D01*
X2625251Y-5899500D01*
X2625241Y-5899501D01*
X2566772Y-5911132D01*
X2566766Y-5911134D01*
X2500451Y-5955445D01*
X2500445Y-5955451D01*
X2456134Y-6021766D01*
X2456132Y-6021772D01*
X2444501Y-6080241D01*
X2444500Y-6080253D01*
X-500000Y-6080253D01*
X-500000Y-5199500D01*
X-481093Y-5141309D01*
X-431593Y-5105345D01*
X-401000Y-5100500D01*
X19992Y-5100500D01*
X43283Y-5090852D01*
X56929Y-5085200D01*
X85200Y-5056929D01*
X100500Y-5019991D01*
X100500Y-2502984D01*
X100681Y-2497007D01*
X102181Y-2472209D01*
X124567Y-2415266D01*
X176148Y-2382356D01*
X237222Y-2386050D01*
X284460Y-2424937D01*
X300000Y-2478186D01*
X300000Y-3000002D01*
X599997Y-3699995D01*
X600000Y-3700000D01*
X1085927Y-4283113D01*
X1100000Y-4300000D01*
X1900000Y-4700000D01*
X2899998Y-4700000D01*
X2900000Y-4700000D01*
X3500000Y-4600000D01*
X4100000Y-4100000D01*
X4500000Y-3600000D01*
X4665714Y-3020000D01*
X9169364Y-3020000D01*
X10066988Y-3020000D01*
X10034075Y-3077007D01*
X10000000Y-3204174D01*
X10000000Y-3335826D01*
X10034075Y-3462993D01*
X10066988Y-3520000D01*
X9169364Y-3520000D01*
X9226569Y-3733489D01*
X9326399Y-3947577D01*
X9461886Y-4141073D01*
X9628926Y-4308113D01*
X9822422Y-4443600D01*
X10036509Y-4543430D01*
X10243213Y-4598816D01*
X10294527Y-4632140D01*
X10316454Y-4689261D01*
X10300619Y-4748362D01*
X10253069Y-4786867D01*
X10246329Y-4789180D01*
X10150637Y-4818208D01*
X10096046Y-4834768D01*
X10096044Y-4834768D01*
X10096044Y-4834769D01*
X9913547Y-4932316D01*
X9753595Y-5063585D01*
X9753585Y-5063595D01*
X9622316Y-5223547D01*
X9524768Y-5406045D01*
X9464699Y-5604065D01*
X9464698Y-5604070D01*
X9444417Y-5809996D01*
X9444417Y-5810003D01*
X9464698Y-6015929D01*
X9464699Y-6015934D01*
X9524768Y-6213954D01*
X9622316Y-6396452D01*
X9716663Y-6511414D01*
X9753590Y-6556410D01*
X9753595Y-6556414D01*
X9913547Y-6687683D01*
X9913548Y-6687683D01*
X9913550Y-6687685D01*
X10096046Y-6785232D01*
X10212584Y-6820583D01*
X10294065Y-6845300D01*
X10294070Y-6845301D01*
X10499997Y-6865583D01*
X10500000Y-6865583D01*
X10500003Y-6865583D01*
X10705929Y-6845301D01*
X10705934Y-6845300D01*
X10721484Y-6840583D01*
X10903954Y-6785232D01*
X11086450Y-6687685D01*
X11246410Y-6556410D01*
X11377685Y-6396450D01*
X11465142Y-6232831D01*
X11509248Y-6190425D01*
X11552452Y-6180500D01*
X13947548Y-6180500D01*
X14005739Y-6199407D01*
X14034858Y-6232831D01*
X14122316Y-6396452D01*
X14216663Y-6511414D01*
X14253590Y-6556410D01*
X14253595Y-6556414D01*
X14413547Y-6687683D01*
X14413548Y-6687683D01*
X14413550Y-6687685D01*
X14596046Y-6785232D01*
X14712584Y-6820583D01*
X14794065Y-6845300D01*
X14794070Y-6845301D01*
X14999997Y-6865583D01*
X15000000Y-6865583D01*
X15000003Y-6865583D01*
X15205929Y-6845301D01*
X15205934Y-6845300D01*
X15221484Y-6840583D01*
X15403954Y-6785232D01*
X15586450Y-6687685D01*
X15746410Y-6556410D01*
X15877685Y-6396450D01*
X15965142Y-6232831D01*
X16009248Y-6190425D01*
X16052452Y-6180500D01*
X18447548Y-6180500D01*
X18505739Y-6199407D01*
X18534858Y-6232831D01*
X18622316Y-6396452D01*
X18716663Y-6511414D01*
X18753590Y-6556410D01*
X18753595Y-6556414D01*
X18913547Y-6687683D01*
X18913548Y-6687683D01*
X18913550Y-6687685D01*
X19096046Y-6785232D01*
X19212584Y-6820583D01*
X19294065Y-6845300D01*
X19294070Y-6845301D01*
X19499997Y-6865583D01*
X19500000Y-6865583D01*
X19500003Y-6865583D01*
X19705929Y-6845301D01*
X19705934Y-6845300D01*
X19721484Y-6840583D01*
X19903954Y-6785232D01*
X20086450Y-6687685D01*
X20246410Y-6556410D01*
X20377685Y-6396450D01*
X20465142Y-6232831D01*
X20509248Y-6190425D01*
X20552452Y-6180500D01*
X22947548Y-6180500D01*
X23005739Y-6199407D01*
X23034858Y-6232831D01*
X23122316Y-6396452D01*
X23216663Y-6511414D01*
X23253590Y-6556410D01*
X23253595Y-6556414D01*
X23413547Y-6687683D01*
X23413548Y-6687683D01*
X23413550Y-6687685D01*
X23596046Y-6785232D01*
X23712584Y-6820583D01*
X23794065Y-6845300D01*
X23794070Y-6845301D01*
X23999997Y-6865583D01*
X24000000Y-6865583D01*
X24000003Y-6865583D01*
X24205929Y-6845301D01*
X24205934Y-6845300D01*
X24221484Y-6840583D01*
X24403954Y-6785232D01*
X24586450Y-6687685D01*
X24746410Y-6556410D01*
X24877685Y-6396450D01*
X24965142Y-6232831D01*
X25009248Y-6190425D01*
X25052452Y-6180500D01*
X27447548Y-6180500D01*
X27505739Y-6199407D01*
X27534858Y-6232831D01*
X27622316Y-6396452D01*
X27716663Y-6511414D01*
X27753590Y-6556410D01*
X27753595Y-6556414D01*
X27913547Y-6687683D01*
X27913548Y-6687683D01*
X27913550Y-6687685D01*
X28096046Y-6785232D01*
X28212584Y-6820583D01*
X28294065Y-6845300D01*
X28294070Y-6845301D01*
X28499997Y-6865583D01*
X28500000Y-6865583D01*
X28500003Y-6865583D01*
X28705929Y-6845301D01*
X28705934Y-6845300D01*
X28721484Y-6840583D01*
X28903954Y-6785232D01*
X29086450Y-6687685D01*
X29246410Y-6556410D01*
X29377685Y-6396450D01*
X29465142Y-6232831D01*
X29509248Y-6190425D01*
X29552452Y-6180500D01*
X31947548Y-6180500D01*
X32005739Y-6199407D01*
X32034858Y-6232831D01*
X32122316Y-6396452D01*
X32216663Y-6511414D01*
X32253590Y-6556410D01*
X32253595Y-6556414D01*
X32413547Y-6687683D01*
X32413548Y-6687683D01*
X32413550Y-6687685D01*
X32596046Y-6785232D01*
X32712584Y-6820583D01*
X32794065Y-6845300D01*
X32794070Y-6845301D01*
X32999997Y-6865583D01*
X33000000Y-6865583D01*
X33000003Y-6865583D01*
X33205929Y-6845301D01*
X33205934Y-6845300D01*
X33221484Y-6840583D01*
X33403954Y-6785232D01*
X33586450Y-6687685D01*
X33746410Y-6556410D01*
X33877685Y-6396450D01*
X33965142Y-6232831D01*
X34009248Y-6190425D01*
X34052452Y-6180500D01*
X36460912Y-6180500D01*
X36519103Y-6199407D01*
X36548220Y-6232830D01*
X36611623Y-6351447D01*
X36622314Y-6371448D01*
X36622316Y-6371452D01*
X36737180Y-6511414D01*
X36753590Y-6531410D01*
X36753595Y-6531414D01*
X36913547Y-6662683D01*
X36913548Y-6662683D01*
X36913550Y-6662685D01*
X37096046Y-6760232D01*
X37194341Y-6790049D01*
X37294065Y-6820300D01*
X37294070Y-6820301D01*
X37499997Y-6840583D01*
X37500000Y-6840583D01*
X37500003Y-6840583D01*
X37705929Y-6820301D01*
X37705934Y-6820300D01*
X37903954Y-6760232D01*
X38086450Y-6662685D01*
X38246410Y-6531410D01*
X38377685Y-6371450D01*
X38451779Y-6232830D01*
X38495884Y-6190425D01*
X38539088Y-6180500D01*
X40971602Y-6180500D01*
X41029793Y-6199407D01*
X41058912Y-6232832D01*
X41122312Y-6351447D01*
X41138728Y-6371450D01*
X41253590Y-6511410D01*
X41253595Y-6511414D01*
X41413547Y-6642683D01*
X41413548Y-6642683D01*
X41413550Y-6642685D01*
X41596046Y-6740232D01*
X41733997Y-6782078D01*
X41794065Y-6800300D01*
X41794070Y-6800301D01*
X41999997Y-6820583D01*
X42000000Y-6820583D01*
X42000003Y-6820583D01*
X42205929Y-6800301D01*
X42205934Y-6800300D01*
X42239727Y-6790049D01*
X42403954Y-6740232D01*
X42586450Y-6642685D01*
X42746410Y-6511410D01*
X42877685Y-6351450D01*
X42975232Y-6168954D01*
X43035300Y-5970934D01*
X43035301Y-5970929D01*
X43055583Y-5765003D01*
X43055583Y-5764996D01*
X43035301Y-5559070D01*
X43035300Y-5559065D01*
X42988882Y-5406045D01*
X42975232Y-5361046D01*
X42877685Y-5178550D01*
X42869771Y-5168907D01*
X42746414Y-5018595D01*
X42746410Y-5018590D01*
X42699399Y-4980009D01*
X42586452Y-4887316D01*
X42403954Y-4789768D01*
X42253671Y-4744180D01*
X42203474Y-4709195D01*
X42183428Y-4651387D01*
X42201189Y-4592836D01*
X42249974Y-4555907D01*
X42256786Y-4553816D01*
X42463490Y-4498430D01*
X42677577Y-4398600D01*
X42871073Y-4263113D01*
X43038113Y-4096073D01*
X43173600Y-3902577D01*
X43273430Y-3688489D01*
X43330636Y-3475000D01*
X42433012Y-3475000D01*
X42465925Y-3417993D01*
X42500000Y-3290826D01*
X42500000Y-3159174D01*
X42465925Y-3032007D01*
X42433012Y-2975000D01*
X43330636Y-2975000D01*
X43273429Y-2761505D01*
X43173605Y-2547432D01*
X43173601Y-2547424D01*
X43038113Y-2353926D01*
X42871073Y-2186886D01*
X42677577Y-2051399D01*
X42463489Y-1951569D01*
X42250000Y-1894364D01*
X42250000Y-2791988D01*
X42192993Y-2759075D01*
X42065826Y-2725000D01*
X41934174Y-2725000D01*
X41807007Y-2759075D01*
X41750000Y-2791988D01*
X41750000Y-1894364D01*
X41536505Y-1951570D01*
X41322432Y-2051394D01*
X41322424Y-2051398D01*
X41128926Y-2186886D01*
X40961886Y-2353926D01*
X40826398Y-2547424D01*
X40826394Y-2547432D01*
X40726570Y-2761505D01*
X40669364Y-2975000D01*
X41566988Y-2975000D01*
X41534075Y-3032007D01*
X41500000Y-3159174D01*
X41500000Y-3290826D01*
X41534075Y-3417993D01*
X41566988Y-3475000D01*
X40669364Y-3475000D01*
X40726569Y-3688489D01*
X40826399Y-3902577D01*
X40961886Y-4096073D01*
X41128926Y-4263113D01*
X41322422Y-4398600D01*
X41536509Y-4498430D01*
X41743213Y-4553816D01*
X41794527Y-4587140D01*
X41816454Y-4644261D01*
X41800619Y-4703362D01*
X41753069Y-4741867D01*
X41746329Y-4744180D01*
X41680399Y-4764180D01*
X41596046Y-4789768D01*
X41596044Y-4789768D01*
X41596044Y-4789769D01*
X41413547Y-4887316D01*
X41253595Y-5018585D01*
X41253585Y-5018595D01*
X41122316Y-5178547D01*
X41042876Y-5327169D01*
X40998770Y-5369575D01*
X40955566Y-5379500D01*
X38533744Y-5379500D01*
X38475553Y-5360593D01*
X38446434Y-5327169D01*
X38377685Y-5198550D01*
X38246414Y-5038595D01*
X38246410Y-5038590D01*
X38222034Y-5018585D01*
X38086452Y-4907316D01*
X37903954Y-4809768D01*
X37753671Y-4764180D01*
X37703474Y-4729195D01*
X37683428Y-4671387D01*
X37701189Y-4612836D01*
X37749974Y-4575907D01*
X37756786Y-4573816D01*
X37963490Y-4518430D01*
X38177577Y-4418600D01*
X38371073Y-4283113D01*
X38538113Y-4116073D01*
X38673600Y-3922577D01*
X38773430Y-3708489D01*
X38830636Y-3495000D01*
X37933012Y-3495000D01*
X37965925Y-3437993D01*
X38000000Y-3310826D01*
X38000000Y-3179174D01*
X37965925Y-3052007D01*
X37933012Y-2995000D01*
X38830636Y-2995000D01*
X38773429Y-2781505D01*
X38673605Y-2567432D01*
X38673601Y-2567424D01*
X38538113Y-2373926D01*
X38371073Y-2206886D01*
X38177577Y-2071399D01*
X37963489Y-1971569D01*
X37750000Y-1914364D01*
X37750000Y-2811988D01*
X37692993Y-2779075D01*
X37565826Y-2745000D01*
X37434174Y-2745000D01*
X37307007Y-2779075D01*
X37250000Y-2811988D01*
X37250000Y-1914364D01*
X37036505Y-1971570D01*
X36822432Y-2071394D01*
X36822424Y-2071398D01*
X36628926Y-2206886D01*
X36461886Y-2373926D01*
X36326398Y-2567424D01*
X36326394Y-2567432D01*
X36226570Y-2781505D01*
X36169364Y-2995000D01*
X37066988Y-2995000D01*
X37034075Y-3052007D01*
X37000000Y-3179174D01*
X37000000Y-3310826D01*
X37034075Y-3437993D01*
X37066988Y-3495000D01*
X36169364Y-3495000D01*
X36226569Y-3708489D01*
X36326399Y-3922577D01*
X36461886Y-4116073D01*
X36628926Y-4283113D01*
X36822422Y-4418600D01*
X37036509Y-4518430D01*
X37243213Y-4573816D01*
X37294527Y-4607140D01*
X37316454Y-4664261D01*
X37300619Y-4723362D01*
X37253069Y-4761867D01*
X37246329Y-4764180D01*
X37150637Y-4793208D01*
X37096046Y-4809768D01*
X37096044Y-4809768D01*
X37096044Y-4809769D01*
X36913547Y-4907316D01*
X36753595Y-5038585D01*
X36753585Y-5038595D01*
X36622314Y-5198550D01*
X36553566Y-5327169D01*
X36509460Y-5369575D01*
X36466256Y-5379500D01*
X34020381Y-5379500D01*
X33962190Y-5360593D01*
X33933071Y-5327169D01*
X33877685Y-5223550D01*
X33810192Y-5141309D01*
X33746410Y-5063590D01*
X33746404Y-5063585D01*
X33586452Y-4932316D01*
X33403954Y-4834768D01*
X33253671Y-4789180D01*
X33203474Y-4754195D01*
X33183428Y-4696387D01*
X33201189Y-4637836D01*
X33249974Y-4600907D01*
X33256786Y-4598816D01*
X33463490Y-4543430D01*
X33677577Y-4443600D01*
X33871073Y-4308113D01*
X34038113Y-4141073D01*
X34173600Y-3947577D01*
X34273430Y-3733489D01*
X34330636Y-3520000D01*
X33433012Y-3520000D01*
X33465925Y-3462993D01*
X33500000Y-3335826D01*
X33500000Y-3204174D01*
X33465925Y-3077007D01*
X33433012Y-3020000D01*
X34330636Y-3020000D01*
X34273429Y-2806505D01*
X34173605Y-2592432D01*
X34173601Y-2592424D01*
X34038113Y-2398926D01*
X33871073Y-2231886D01*
X33677577Y-2096399D01*
X33463489Y-1996569D01*
X33250000Y-1939364D01*
X33250000Y-2836988D01*
X33192993Y-2804075D01*
X33065826Y-2770000D01*
X32934174Y-2770000D01*
X32807007Y-2804075D01*
X32750000Y-2836988D01*
X32750000Y-1939364D01*
X32536505Y-1996570D01*
X32322432Y-2096394D01*
X32322424Y-2096398D01*
X32128926Y-2231886D01*
X31961886Y-2398926D01*
X31826398Y-2592424D01*
X31826394Y-2592432D01*
X31726570Y-2806505D01*
X31669364Y-3020000D01*
X32566988Y-3020000D01*
X32534075Y-3077007D01*
X32500000Y-3204174D01*
X32500000Y-3335826D01*
X32534075Y-3462993D01*
X32566988Y-3520000D01*
X31669364Y-3520000D01*
X31726569Y-3733489D01*
X31826399Y-3947577D01*
X31961886Y-4141073D01*
X32128926Y-4308113D01*
X32322422Y-4443600D01*
X32536509Y-4543430D01*
X32743213Y-4598816D01*
X32794527Y-4632140D01*
X32816454Y-4689261D01*
X32800619Y-4748362D01*
X32753069Y-4786867D01*
X32746329Y-4789180D01*
X32650637Y-4818208D01*
X32596046Y-4834768D01*
X32596044Y-4834768D01*
X32596044Y-4834769D01*
X32413547Y-4932316D01*
X32253595Y-5063585D01*
X32253585Y-5063595D01*
X32122314Y-5223550D01*
X32066929Y-5327169D01*
X32022823Y-5369575D01*
X31979619Y-5379500D01*
X29520381Y-5379500D01*
X29462190Y-5360593D01*
X29433071Y-5327169D01*
X29377685Y-5223550D01*
X29310192Y-5141309D01*
X29246410Y-5063590D01*
X29246404Y-5063585D01*
X29086452Y-4932316D01*
X28903954Y-4834768D01*
X28753671Y-4789180D01*
X28703474Y-4754195D01*
X28683428Y-4696387D01*
X28701189Y-4637836D01*
X28749974Y-4600907D01*
X28756786Y-4598816D01*
X28963490Y-4543430D01*
X29177577Y-4443600D01*
X29371073Y-4308113D01*
X29538113Y-4141073D01*
X29673600Y-3947577D01*
X29773430Y-3733489D01*
X29830636Y-3520000D01*
X28933012Y-3520000D01*
X28965925Y-3462993D01*
X29000000Y-3335826D01*
X29000000Y-3204174D01*
X28965925Y-3077007D01*
X28933012Y-3020000D01*
X29830636Y-3020000D01*
X29773429Y-2806505D01*
X29673605Y-2592432D01*
X29673601Y-2592424D01*
X29538113Y-2398926D01*
X29371073Y-2231886D01*
X29177577Y-2096399D01*
X28963489Y-1996569D01*
X28750000Y-1939364D01*
X28750000Y-2836988D01*
X28692993Y-2804075D01*
X28565826Y-2770000D01*
X28434174Y-2770000D01*
X28307007Y-2804075D01*
X28250000Y-2836988D01*
X28250000Y-1939364D01*
X28036505Y-1996570D01*
X27822432Y-2096394D01*
X27822424Y-2096398D01*
X27628926Y-2231886D01*
X27461886Y-2398926D01*
X27326398Y-2592424D01*
X27326394Y-2592432D01*
X27226570Y-2806505D01*
X27169364Y-3020000D01*
X28066988Y-3020000D01*
X28034075Y-3077007D01*
X28000000Y-3204174D01*
X28000000Y-3335826D01*
X28034075Y-3462993D01*
X28066988Y-3520000D01*
X27169364Y-3520000D01*
X27226569Y-3733489D01*
X27326399Y-3947577D01*
X27461886Y-4141073D01*
X27628926Y-4308113D01*
X27822422Y-4443600D01*
X28036509Y-4543430D01*
X28243213Y-4598816D01*
X28294527Y-4632140D01*
X28316454Y-4689261D01*
X28300619Y-4748362D01*
X28253069Y-4786867D01*
X28246329Y-4789180D01*
X28150637Y-4818208D01*
X28096046Y-4834768D01*
X28096044Y-4834768D01*
X28096044Y-4834769D01*
X27913547Y-4932316D01*
X27753595Y-5063585D01*
X27753585Y-5063595D01*
X27622314Y-5223550D01*
X27566929Y-5327169D01*
X27522823Y-5369575D01*
X27479619Y-5379500D01*
X25020381Y-5379500D01*
X24962190Y-5360593D01*
X24933071Y-5327169D01*
X24877685Y-5223550D01*
X24810192Y-5141309D01*
X24746410Y-5063590D01*
X24746404Y-5063585D01*
X24586452Y-4932316D01*
X24403954Y-4834768D01*
X24253671Y-4789180D01*
X24203474Y-4754195D01*
X24183428Y-4696387D01*
X24201189Y-4637836D01*
X24249974Y-4600907D01*
X24256786Y-4598816D01*
X24463490Y-4543430D01*
X24677577Y-4443600D01*
X24871073Y-4308113D01*
X25038113Y-4141073D01*
X25173600Y-3947577D01*
X25273430Y-3733489D01*
X25330636Y-3520000D01*
X24433012Y-3520000D01*
X24465925Y-3462993D01*
X24500000Y-3335826D01*
X24500000Y-3204174D01*
X24465925Y-3077007D01*
X24433012Y-3020000D01*
X25330636Y-3020000D01*
X25273429Y-2806505D01*
X25173605Y-2592432D01*
X25173601Y-2592424D01*
X25038113Y-2398926D01*
X24871073Y-2231886D01*
X24677577Y-2096399D01*
X24463489Y-1996569D01*
X24250000Y-1939364D01*
X24250000Y-2836988D01*
X24192993Y-2804075D01*
X24065826Y-2770000D01*
X23934174Y-2770000D01*
X23807007Y-2804075D01*
X23750000Y-2836988D01*
X23750000Y-1939364D01*
X23536505Y-1996570D01*
X23322432Y-2096394D01*
X23322424Y-2096398D01*
X23128926Y-2231886D01*
X22961886Y-2398926D01*
X22826398Y-2592424D01*
X22826394Y-2592432D01*
X22726570Y-2806505D01*
X22669364Y-3020000D01*
X23566988Y-3020000D01*
X23534075Y-3077007D01*
X23500000Y-3204174D01*
X23500000Y-3335826D01*
X23534075Y-3462993D01*
X23566988Y-3520000D01*
X22669364Y-3520000D01*
X22726569Y-3733489D01*
X22826399Y-3947577D01*
X22961886Y-4141073D01*
X23128926Y-4308113D01*
X23322422Y-4443600D01*
X23536509Y-4543430D01*
X23743213Y-4598816D01*
X23794527Y-4632140D01*
X23816454Y-4689261D01*
X23800619Y-4748362D01*
X23753069Y-4786867D01*
X23746329Y-4789180D01*
X23650637Y-4818208D01*
X23596046Y-4834768D01*
X23596044Y-4834768D01*
X23596044Y-4834769D01*
X23413547Y-4932316D01*
X23253595Y-5063585D01*
X23253585Y-5063595D01*
X23122314Y-5223550D01*
X23066929Y-5327169D01*
X23022823Y-5369575D01*
X22979619Y-5379500D01*
X20520381Y-5379500D01*
X20462190Y-5360593D01*
X20433071Y-5327169D01*
X20377685Y-5223550D01*
X20310192Y-5141309D01*
X20246410Y-5063590D01*
X20246404Y-5063585D01*
X20086452Y-4932316D01*
X19903954Y-4834768D01*
X19753671Y-4789180D01*
X19703474Y-4754195D01*
X19683428Y-4696387D01*
X19701189Y-4637836D01*
X19749974Y-4600907D01*
X19756786Y-4598816D01*
X19963490Y-4543430D01*
X20177577Y-4443600D01*
X20371073Y-4308113D01*
X20538113Y-4141073D01*
X20673600Y-3947577D01*
X20773430Y-3733489D01*
X20830636Y-3520000D01*
X19933012Y-3520000D01*
X19965925Y-3462993D01*
X20000000Y-3335826D01*
X20000000Y-3204174D01*
X19965925Y-3077007D01*
X19933012Y-3020000D01*
X20830636Y-3020000D01*
X20773429Y-2806505D01*
X20673605Y-2592432D01*
X20673601Y-2592424D01*
X20538113Y-2398926D01*
X20371073Y-2231886D01*
X20177577Y-2096399D01*
X19963489Y-1996569D01*
X19750000Y-1939364D01*
X19750000Y-2836988D01*
X19692993Y-2804075D01*
X19565826Y-2770000D01*
X19434174Y-2770000D01*
X19307007Y-2804075D01*
X19250000Y-2836988D01*
X19250000Y-1939364D01*
X19036505Y-1996570D01*
X18822432Y-2096394D01*
X18822424Y-2096398D01*
X18628926Y-2231886D01*
X18461886Y-2398926D01*
X18326398Y-2592424D01*
X18326394Y-2592432D01*
X18226570Y-2806505D01*
X18169364Y-3020000D01*
X19066988Y-3020000D01*
X19034075Y-3077007D01*
X19000000Y-3204174D01*
X19000000Y-3335826D01*
X19034075Y-3462993D01*
X19066988Y-3520000D01*
X18169364Y-3520000D01*
X18226569Y-3733489D01*
X18326399Y-3947577D01*
X18461886Y-4141073D01*
X18628926Y-4308113D01*
X18822422Y-4443600D01*
X19036509Y-4543430D01*
X19243213Y-4598816D01*
X19294527Y-4632140D01*
X19316454Y-4689261D01*
X19300619Y-4748362D01*
X19253069Y-4786867D01*
X19246329Y-4789180D01*
X19150637Y-4818208D01*
X19096046Y-4834768D01*
X19096044Y-4834768D01*
X19096044Y-4834769D01*
X18913547Y-4932316D01*
X18753595Y-5063585D01*
X18753585Y-5063595D01*
X18622314Y-5223550D01*
X18566929Y-5327169D01*
X18522823Y-5369575D01*
X18479619Y-5379500D01*
X16020381Y-5379500D01*
X15962190Y-5360593D01*
X15933071Y-5327169D01*
X15877685Y-5223550D01*
X15810192Y-5141309D01*
X15746410Y-5063590D01*
X15746404Y-5063585D01*
X15586452Y-4932316D01*
X15403954Y-4834768D01*
X15253671Y-4789180D01*
X15203474Y-4754195D01*
X15183428Y-4696387D01*
X15201189Y-4637836D01*
X15249974Y-4600907D01*
X15256786Y-4598816D01*
X15463490Y-4543430D01*
X15677577Y-4443600D01*
X15871073Y-4308113D01*
X16038113Y-4141073D01*
X16173600Y-3947577D01*
X16273430Y-3733489D01*
X16330636Y-3520000D01*
X15433012Y-3520000D01*
X15465925Y-3462993D01*
X15500000Y-3335826D01*
X15500000Y-3204174D01*
X15465925Y-3077007D01*
X15433012Y-3020000D01*
X16330636Y-3020000D01*
X16273429Y-2806505D01*
X16173605Y-2592432D01*
X16173601Y-2592424D01*
X16038113Y-2398926D01*
X15871073Y-2231886D01*
X15677577Y-2096399D01*
X15463489Y-1996569D01*
X15250000Y-1939364D01*
X15250000Y-2836988D01*
X15192993Y-2804075D01*
X15065826Y-2770000D01*
X14934174Y-2770000D01*
X14807007Y-2804075D01*
X14750000Y-2836988D01*
X14750000Y-1939364D01*
X14536505Y-1996570D01*
X14322432Y-2096394D01*
X14322424Y-2096398D01*
X14128926Y-2231886D01*
X13961886Y-2398926D01*
X13826398Y-2592424D01*
X13826394Y-2592432D01*
X13726570Y-2806505D01*
X13669364Y-3020000D01*
X14566988Y-3020000D01*
X14534075Y-3077007D01*
X14500000Y-3204174D01*
X14500000Y-3335826D01*
X14534075Y-3462993D01*
X14566988Y-3520000D01*
X13669364Y-3520000D01*
X13726569Y-3733489D01*
X13826399Y-3947577D01*
X13961886Y-4141073D01*
X14128926Y-4308113D01*
X14322422Y-4443600D01*
X14536509Y-4543430D01*
X14743213Y-4598816D01*
X14794527Y-4632140D01*
X14816454Y-4689261D01*
X14800619Y-4748362D01*
X14753069Y-4786867D01*
X14746329Y-4789180D01*
X14650637Y-4818208D01*
X14596046Y-4834768D01*
X14596044Y-4834768D01*
X14596044Y-4834769D01*
X14413547Y-4932316D01*
X14253595Y-5063585D01*
X14253585Y-5063595D01*
X14122314Y-5223550D01*
X14066929Y-5327169D01*
X14022823Y-5369575D01*
X13979619Y-5379500D01*
X11520381Y-5379500D01*
X11462190Y-5360593D01*
X11433071Y-5327169D01*
X11377685Y-5223550D01*
X11310192Y-5141309D01*
X11246410Y-5063590D01*
X11246404Y-5063585D01*
X11086452Y-4932316D01*
X10903954Y-4834768D01*
X10753671Y-4789180D01*
X10703474Y-4754195D01*
X10683428Y-4696387D01*
X10701189Y-4637836D01*
X10749974Y-4600907D01*
X10756786Y-4598816D01*
X10963490Y-4543430D01*
X11177577Y-4443600D01*
X11371073Y-4308113D01*
X11538113Y-4141073D01*
X11673600Y-3947577D01*
X11773430Y-3733489D01*
X11830636Y-3520000D01*
X10933012Y-3520000D01*
X10965925Y-3462993D01*
X11000000Y-3335826D01*
X11000000Y-3204174D01*
X10965925Y-3077007D01*
X10933012Y-3020000D01*
X11830636Y-3020000D01*
X11773429Y-2806505D01*
X11673605Y-2592432D01*
X11673601Y-2592424D01*
X11538113Y-2398926D01*
X11371073Y-2231886D01*
X11177577Y-2096399D01*
X10963489Y-1996569D01*
X10750000Y-1939364D01*
X10750000Y-2836988D01*
X10692993Y-2804075D01*
X10565826Y-2770000D01*
X10434174Y-2770000D01*
X10307007Y-2804075D01*
X10250000Y-2836988D01*
X10250000Y-1939364D01*
X10036505Y-1996570D01*
X9822432Y-2096394D01*
X9822424Y-2096398D01*
X9628926Y-2231886D01*
X9461886Y-2398926D01*
X9326398Y-2592424D01*
X9326394Y-2592432D01*
X9226570Y-2806505D01*
X9169364Y-3020000D01*
X4665714Y-3020000D01*
X4700000Y-2900000D01*
X4700000Y-1900000D01*
X4500000Y-1400000D01*
X4100000Y-900000D01*
X3631563Y-525250D01*
X3600000Y-500000D01*
X3000000Y-300000D01*
X2478187Y-300000D01*
X2419996Y-281093D01*
X2384032Y-231593D01*
X2384032Y-170407D01*
X2419996Y-120907D01*
X2472210Y-102181D01*
X2497008Y-100681D01*
X2502985Y-100500D01*
X2526929Y-100500D01*
X51473071Y-100500D01*
X51497015Y-100500D01*
X51502992Y-100681D01*
G37*
%TD.AperFunction*%
%TD*%
D27*
X45875000Y-7200000D03*
X30725000Y-8625000D03*
X12700000Y-8875000D03*
X47600000Y-17700000D03*
X20000000Y-11725000D03*
X8000000Y-9950000D03*
X44550000Y-19700000D03*
X4975000Y-20050000D03*
X43275000Y-12425000D03*
X6025000Y-7300000D03*
X17750000Y-19375000D03*
X4200000Y-16075000D03*
X26500000Y-20000000D03*
X13875000Y-23875000D03*
X33250000Y-17665000D03*
X44625000Y-10150000D03*
X26450000Y-16575000D03*
X36000000Y-8625000D03*
X6675000Y-20125000D03*
X27850000Y-11900000D03*
X37450000Y-23170000D03*
X21775000Y-8800000D03*
X4225000Y-9100000D03*
X21550000Y-16525000D03*
X28500000Y-21925000D03*
X38300000Y-17250000D03*
X10750000Y-21150000D03*
X18200000Y-20850000D03*
X49325000Y-5250000D03*
X21275000Y-19950000D03*
X48785000Y-23100000D03*
X49925000Y-16525000D03*
X17200000Y-8725000D03*
X19525000Y-22625000D03*
X37650000Y-11650000D03*
X31175000Y-16500000D03*
X26350000Y-8650000D03*
X13850000Y-17825000D03*
X12600000Y-11325000D03*
X12500000Y-15725000D03*
X50025000Y-9950000D03*
X39800000Y-8675000D03*
X45975000Y-15325000D03*
X7975000Y-7250000D03*
X49962500Y-8537500D03*
X48435000Y-21200000D03*
X51500000Y-15300000D03*
X10075000Y-18850000D03*
X14850000Y-16975000D03*
X42900000Y-15975000D03*
X44093527Y-15170000D03*
X9795343Y-15195343D03*
X16750000Y-14775000D03*
X33200000Y-13970000D03*
X46100000Y-13770000D03*
X9719494Y-13856976D03*
X50200000Y-13950000D03*
X9875000Y-11550000D03*
X32675000Y-12425000D03*
X10650000Y-19975000D03*
X50800000Y-10850000D03*
D28*
X33000000Y-8350000D03*
X33000000Y-5810000D03*
X33000000Y-3270000D03*
X37500000Y-8325000D03*
X37500000Y-5785000D03*
X37500000Y-3245000D03*
X2500000Y-2500000D03*
X15000000Y-8350000D03*
X15000000Y-5810000D03*
X15000000Y-3270000D03*
X51500000Y-22500000D03*
X28500000Y-8350000D03*
X28500000Y-5810000D03*
X28500000Y-3270000D03*
X5850000Y-23600000D03*
X7850000Y-23600000D03*
X9850000Y-23600000D03*
X11850000Y-23600000D03*
X10500000Y-8350000D03*
X10500000Y-5810000D03*
X10500000Y-3270000D03*
X51500000Y-2550000D03*
X2500000Y-22500000D03*
X19500000Y-8350000D03*
X19500000Y-5810000D03*
X19500000Y-3270000D03*
X42000000Y-8305000D03*
X42000000Y-5765000D03*
X42000000Y-3225000D03*
X24000000Y-8350000D03*
X24000000Y-5810000D03*
X24000000Y-3270000D03*
M02*
