M48
; DRILL file {KiCad 8.0.7} date 2025-01-15T18:16:12+0000
; FORMAT={-:-/ absolute / inch / decimal}
; #@! TF.CreationDate,2025-01-15T18:16:12+00:00
; #@! TF.GenerationSoftware,Kicad,Pcbnew,8.0.7
; #@! TF.FileFunction,Plated,1,2,PTH
FMAT,2
INCH
; #@! TA.AperFunction,Plated,PTH,ViaDrill
T1C0.0118
; #@! TA.AperFunction,Plated,PTH,ComponentDrill
T2C0.0295
; #@! TA.AperFunction,Plated,PTH,ComponentDrill
T3C0.0394
%
G90
G05
T1
X0.1654Y-0.6329
X0.1663Y-0.3583
X0.1959Y-0.7894
X0.2372Y-0.2874
X0.2628Y-0.7923
X0.314Y-0.2854
X0.315Y-0.3917
X0.3827Y-0.5456
X0.3856Y-0.5982
X0.3888Y-0.4547
X0.3967Y-0.7421
X0.4193Y-0.7864
X0.4232Y-0.8327
X0.4921Y-0.6191
X0.4961Y-0.4459
X0.5Y-0.3494
X0.5453Y-0.7018
X0.5463Y-0.94
X0.5846Y-0.6683
X0.6594Y-0.5817
X0.6772Y-0.3435
X0.6988Y-0.7628
X0.7165Y-0.8209
X0.7687Y-0.8907
X0.7874Y-0.4616
X0.8376Y-0.7854
X0.8484Y-0.6506
X0.8573Y-0.3465
X1.0374Y-0.3406
X1.0413Y-0.6526
X1.0433Y-0.7874
X1.0965Y-0.4685
X1.122Y-0.8632
X1.2096Y-0.3396
X1.2274Y-0.6496
X1.2864Y-0.4892
X1.3071Y-0.55
X1.3091Y-0.6955
X1.4173Y-0.3396
X1.4744Y-0.9122
X1.4823Y-0.4587
X1.5079Y-0.6791
X1.5669Y-0.3415
X1.689Y-0.6289
X1.7037Y-0.4892
X1.736Y-0.5972
X1.7539Y-0.7756
X1.7569Y-0.3996
X1.8061Y-0.2835
X1.81Y-0.6033
X1.815Y-0.5421
X1.874Y-0.6969
X1.9069Y-0.8346
X1.9207Y-0.9094
X1.9419Y-0.2067
X1.9656Y-0.6506
X1.967Y-0.3361
X1.9695Y-0.3917
X1.9764Y-0.5492
X2.0Y-0.4272
X2.0276Y-0.6024
T2
X0.2303Y-0.9291
X0.3091Y-0.9291
X0.3878Y-0.9291
X0.4665Y-0.9291
T3
X0.4134Y-0.1287
X0.4134Y-0.2287
X0.4134Y-0.3287
X0.5906Y-0.1287
X0.5906Y-0.2287
X0.5906Y-0.3287
X0.7677Y-0.1287
X0.7677Y-0.2287
X0.7677Y-0.3287
X0.9449Y-0.1287
X0.9449Y-0.2287
X0.9449Y-0.3287
X1.122Y-0.1287
X1.122Y-0.2287
X1.122Y-0.3287
X1.2992Y-0.1287
X1.2992Y-0.2287
X1.2992Y-0.3287
X1.4764Y-0.1278
X1.4764Y-0.2278
X1.4764Y-0.3278
X1.6535Y-0.127
X1.6535Y-0.227
X1.6535Y-0.327
M30
