%TF.GenerationSoftware,KiCad,Pcbnew,8.0.7*%
%TF.CreationDate,2025-01-15T18:16:12+00:00*%
%TF.ProjectId,Servo,53657276-6f2e-46b6-9963-61645f706362,rev?*%
%TF.SameCoordinates,Original*%
%TF.FileFunction,Other,ECO1*%
%FSLAX46Y46*%
G04 Gerber Fmt 4.6, Leading zero omitted, Abs format (unit mm)*
G04 Created by KiCad (PCBNEW 8.0.7) date 2025-01-15 18:16:12*
%MOMM*%
%LPD*%
G01*
G04 APERTURE LIST*
%ADD10C,0.075000*%
%ADD11C,0.150000*%
%ADD12C,0.350000*%
G04 APERTURE END LIST*
D10*
X30703572Y-17004885D02*
X30703572Y-17204885D01*
X30632143Y-16890600D02*
X30560714Y-17104885D01*
X30560714Y-17104885D02*
X30746429Y-17104885D01*
X30860714Y-17176314D02*
X30875000Y-17190600D01*
X30875000Y-17190600D02*
X30860714Y-17204885D01*
X30860714Y-17204885D02*
X30846428Y-17190600D01*
X30846428Y-17190600D02*
X30860714Y-17176314D01*
X30860714Y-17176314D02*
X30860714Y-17204885D01*
X30975000Y-16904885D02*
X31175000Y-16904885D01*
X31175000Y-16904885D02*
X31046428Y-17204885D01*
X31417857Y-17004885D02*
X31417857Y-17204885D01*
X31289285Y-17004885D02*
X31289285Y-17162028D01*
X31289285Y-17162028D02*
X31303571Y-17190600D01*
X31303571Y-17190600D02*
X31332142Y-17204885D01*
X31332142Y-17204885D02*
X31374999Y-17204885D01*
X31374999Y-17204885D02*
X31403571Y-17190600D01*
X31403571Y-17190600D02*
X31417857Y-17176314D01*
X31660714Y-17047742D02*
X31560714Y-17047742D01*
X31560714Y-17204885D02*
X31560714Y-16904885D01*
X31560714Y-16904885D02*
X31703571Y-16904885D01*
X41688571Y-23700957D02*
X41702857Y-23686671D01*
X41702857Y-23686671D02*
X41731429Y-23672385D01*
X41731429Y-23672385D02*
X41802857Y-23672385D01*
X41802857Y-23672385D02*
X41831429Y-23686671D01*
X41831429Y-23686671D02*
X41845714Y-23700957D01*
X41845714Y-23700957D02*
X41860000Y-23729528D01*
X41860000Y-23729528D02*
X41860000Y-23758100D01*
X41860000Y-23758100D02*
X41845714Y-23800957D01*
X41845714Y-23800957D02*
X41674286Y-23972385D01*
X41674286Y-23972385D02*
X41860000Y-23972385D01*
X41974285Y-23700957D02*
X41988571Y-23686671D01*
X41988571Y-23686671D02*
X42017143Y-23672385D01*
X42017143Y-23672385D02*
X42088571Y-23672385D01*
X42088571Y-23672385D02*
X42117143Y-23686671D01*
X42117143Y-23686671D02*
X42131428Y-23700957D01*
X42131428Y-23700957D02*
X42145714Y-23729528D01*
X42145714Y-23729528D02*
X42145714Y-23758100D01*
X42145714Y-23758100D02*
X42131428Y-23800957D01*
X42131428Y-23800957D02*
X41960000Y-23972385D01*
X41960000Y-23972385D02*
X42145714Y-23972385D01*
X42402857Y-23772385D02*
X42402857Y-23972385D01*
X42274285Y-23772385D02*
X42274285Y-23929528D01*
X42274285Y-23929528D02*
X42288571Y-23958100D01*
X42288571Y-23958100D02*
X42317142Y-23972385D01*
X42317142Y-23972385D02*
X42359999Y-23972385D01*
X42359999Y-23972385D02*
X42388571Y-23958100D01*
X42388571Y-23958100D02*
X42402857Y-23943814D01*
X42645714Y-23815242D02*
X42545714Y-23815242D01*
X42545714Y-23972385D02*
X42545714Y-23672385D01*
X42545714Y-23672385D02*
X42688571Y-23672385D01*
X42731429Y-24000957D02*
X42960000Y-24000957D01*
X43017142Y-23700957D02*
X43031428Y-23686671D01*
X43031428Y-23686671D02*
X43060000Y-23672385D01*
X43060000Y-23672385D02*
X43131428Y-23672385D01*
X43131428Y-23672385D02*
X43160000Y-23686671D01*
X43160000Y-23686671D02*
X43174285Y-23700957D01*
X43174285Y-23700957D02*
X43188571Y-23729528D01*
X43188571Y-23729528D02*
X43188571Y-23758100D01*
X43188571Y-23758100D02*
X43174285Y-23800957D01*
X43174285Y-23800957D02*
X43002857Y-23972385D01*
X43002857Y-23972385D02*
X43188571Y-23972385D01*
X43459999Y-23672385D02*
X43317142Y-23672385D01*
X43317142Y-23672385D02*
X43302856Y-23815242D01*
X43302856Y-23815242D02*
X43317142Y-23800957D01*
X43317142Y-23800957D02*
X43345714Y-23786671D01*
X43345714Y-23786671D02*
X43417142Y-23786671D01*
X43417142Y-23786671D02*
X43445714Y-23800957D01*
X43445714Y-23800957D02*
X43459999Y-23815242D01*
X43459999Y-23815242D02*
X43474285Y-23843814D01*
X43474285Y-23843814D02*
X43474285Y-23915242D01*
X43474285Y-23915242D02*
X43459999Y-23943814D01*
X43459999Y-23943814D02*
X43445714Y-23958100D01*
X43445714Y-23958100D02*
X43417142Y-23972385D01*
X43417142Y-23972385D02*
X43345714Y-23972385D01*
X43345714Y-23972385D02*
X43317142Y-23958100D01*
X43317142Y-23958100D02*
X43302856Y-23943814D01*
X43559999Y-23672385D02*
X43659999Y-23972385D01*
X43659999Y-23972385D02*
X43759999Y-23672385D01*
X31038571Y-23688457D02*
X31052857Y-23674171D01*
X31052857Y-23674171D02*
X31081429Y-23659885D01*
X31081429Y-23659885D02*
X31152857Y-23659885D01*
X31152857Y-23659885D02*
X31181429Y-23674171D01*
X31181429Y-23674171D02*
X31195714Y-23688457D01*
X31195714Y-23688457D02*
X31210000Y-23717028D01*
X31210000Y-23717028D02*
X31210000Y-23745600D01*
X31210000Y-23745600D02*
X31195714Y-23788457D01*
X31195714Y-23788457D02*
X31024286Y-23959885D01*
X31024286Y-23959885D02*
X31210000Y-23959885D01*
X31324285Y-23688457D02*
X31338571Y-23674171D01*
X31338571Y-23674171D02*
X31367143Y-23659885D01*
X31367143Y-23659885D02*
X31438571Y-23659885D01*
X31438571Y-23659885D02*
X31467143Y-23674171D01*
X31467143Y-23674171D02*
X31481428Y-23688457D01*
X31481428Y-23688457D02*
X31495714Y-23717028D01*
X31495714Y-23717028D02*
X31495714Y-23745600D01*
X31495714Y-23745600D02*
X31481428Y-23788457D01*
X31481428Y-23788457D02*
X31310000Y-23959885D01*
X31310000Y-23959885D02*
X31495714Y-23959885D01*
X31752857Y-23759885D02*
X31752857Y-23959885D01*
X31624285Y-23759885D02*
X31624285Y-23917028D01*
X31624285Y-23917028D02*
X31638571Y-23945600D01*
X31638571Y-23945600D02*
X31667142Y-23959885D01*
X31667142Y-23959885D02*
X31709999Y-23959885D01*
X31709999Y-23959885D02*
X31738571Y-23945600D01*
X31738571Y-23945600D02*
X31752857Y-23931314D01*
X31995714Y-23802742D02*
X31895714Y-23802742D01*
X31895714Y-23959885D02*
X31895714Y-23659885D01*
X31895714Y-23659885D02*
X32038571Y-23659885D01*
X32081429Y-23988457D02*
X32310000Y-23988457D01*
X32367142Y-23688457D02*
X32381428Y-23674171D01*
X32381428Y-23674171D02*
X32410000Y-23659885D01*
X32410000Y-23659885D02*
X32481428Y-23659885D01*
X32481428Y-23659885D02*
X32510000Y-23674171D01*
X32510000Y-23674171D02*
X32524285Y-23688457D01*
X32524285Y-23688457D02*
X32538571Y-23717028D01*
X32538571Y-23717028D02*
X32538571Y-23745600D01*
X32538571Y-23745600D02*
X32524285Y-23788457D01*
X32524285Y-23788457D02*
X32352857Y-23959885D01*
X32352857Y-23959885D02*
X32538571Y-23959885D01*
X32809999Y-23659885D02*
X32667142Y-23659885D01*
X32667142Y-23659885D02*
X32652856Y-23802742D01*
X32652856Y-23802742D02*
X32667142Y-23788457D01*
X32667142Y-23788457D02*
X32695714Y-23774171D01*
X32695714Y-23774171D02*
X32767142Y-23774171D01*
X32767142Y-23774171D02*
X32795714Y-23788457D01*
X32795714Y-23788457D02*
X32809999Y-23802742D01*
X32809999Y-23802742D02*
X32824285Y-23831314D01*
X32824285Y-23831314D02*
X32824285Y-23902742D01*
X32824285Y-23902742D02*
X32809999Y-23931314D01*
X32809999Y-23931314D02*
X32795714Y-23945600D01*
X32795714Y-23945600D02*
X32767142Y-23959885D01*
X32767142Y-23959885D02*
X32695714Y-23959885D01*
X32695714Y-23959885D02*
X32667142Y-23945600D01*
X32667142Y-23945600D02*
X32652856Y-23931314D01*
X32909999Y-23659885D02*
X33009999Y-23959885D01*
X33009999Y-23959885D02*
X33109999Y-23659885D01*
X535713Y-5884885D02*
X535713Y-5584885D01*
X535713Y-5584885D02*
X635713Y-5799171D01*
X635713Y-5799171D02*
X735713Y-5584885D01*
X735713Y-5584885D02*
X735713Y-5884885D01*
X864284Y-5613457D02*
X878570Y-5599171D01*
X878570Y-5599171D02*
X907142Y-5584885D01*
X907142Y-5584885D02*
X978570Y-5584885D01*
X978570Y-5584885D02*
X1007142Y-5599171D01*
X1007142Y-5599171D02*
X1021427Y-5613457D01*
X1021427Y-5613457D02*
X1035713Y-5642028D01*
X1035713Y-5642028D02*
X1035713Y-5670600D01*
X1035713Y-5670600D02*
X1021427Y-5713457D01*
X1021427Y-5713457D02*
X849999Y-5884885D01*
X849999Y-5884885D02*
X1035713Y-5884885D01*
X1164284Y-5856314D02*
X1178570Y-5870600D01*
X1178570Y-5870600D02*
X1164284Y-5884885D01*
X1164284Y-5884885D02*
X1149998Y-5870600D01*
X1149998Y-5870600D02*
X1164284Y-5856314D01*
X1164284Y-5856314D02*
X1164284Y-5884885D01*
X1449998Y-5584885D02*
X1307141Y-5584885D01*
X1307141Y-5584885D02*
X1292855Y-5727742D01*
X1292855Y-5727742D02*
X1307141Y-5713457D01*
X1307141Y-5713457D02*
X1335713Y-5699171D01*
X1335713Y-5699171D02*
X1407141Y-5699171D01*
X1407141Y-5699171D02*
X1435713Y-5713457D01*
X1435713Y-5713457D02*
X1449998Y-5727742D01*
X1449998Y-5727742D02*
X1464284Y-5756314D01*
X1464284Y-5756314D02*
X1464284Y-5827742D01*
X1464284Y-5827742D02*
X1449998Y-5856314D01*
X1449998Y-5856314D02*
X1435713Y-5870600D01*
X1435713Y-5870600D02*
X1407141Y-5884885D01*
X1407141Y-5884885D02*
X1335713Y-5884885D01*
X1335713Y-5884885D02*
X1307141Y-5870600D01*
X1307141Y-5870600D02*
X1292855Y-5856314D01*
X1592855Y-5884885D02*
X1592855Y-5584885D01*
X1592855Y-5584885D02*
X1692855Y-5799171D01*
X1692855Y-5799171D02*
X1792855Y-5584885D01*
X1792855Y-5584885D02*
X1792855Y-5884885D01*
X1978569Y-5884885D02*
X1949998Y-5870600D01*
X1949998Y-5870600D02*
X1935712Y-5856314D01*
X1935712Y-5856314D02*
X1921426Y-5827742D01*
X1921426Y-5827742D02*
X1921426Y-5742028D01*
X1921426Y-5742028D02*
X1935712Y-5713457D01*
X1935712Y-5713457D02*
X1949998Y-5699171D01*
X1949998Y-5699171D02*
X1978569Y-5684885D01*
X1978569Y-5684885D02*
X2021426Y-5684885D01*
X2021426Y-5684885D02*
X2049998Y-5699171D01*
X2049998Y-5699171D02*
X2064284Y-5713457D01*
X2064284Y-5713457D02*
X2078569Y-5742028D01*
X2078569Y-5742028D02*
X2078569Y-5827742D01*
X2078569Y-5827742D02*
X2064284Y-5856314D01*
X2064284Y-5856314D02*
X2049998Y-5870600D01*
X2049998Y-5870600D02*
X2021426Y-5884885D01*
X2021426Y-5884885D02*
X1978569Y-5884885D01*
X2335713Y-5684885D02*
X2335713Y-5884885D01*
X2207141Y-5684885D02*
X2207141Y-5842028D01*
X2207141Y-5842028D02*
X2221427Y-5870600D01*
X2221427Y-5870600D02*
X2249998Y-5884885D01*
X2249998Y-5884885D02*
X2292855Y-5884885D01*
X2292855Y-5884885D02*
X2321427Y-5870600D01*
X2321427Y-5870600D02*
X2335713Y-5856314D01*
X2478570Y-5684885D02*
X2478570Y-5884885D01*
X2478570Y-5713457D02*
X2492856Y-5699171D01*
X2492856Y-5699171D02*
X2521427Y-5684885D01*
X2521427Y-5684885D02*
X2564284Y-5684885D01*
X2564284Y-5684885D02*
X2592856Y-5699171D01*
X2592856Y-5699171D02*
X2607142Y-5727742D01*
X2607142Y-5727742D02*
X2607142Y-5884885D01*
X2707142Y-5684885D02*
X2821428Y-5684885D01*
X2749999Y-5584885D02*
X2749999Y-5842028D01*
X2749999Y-5842028D02*
X2764285Y-5870600D01*
X2764285Y-5870600D02*
X2792856Y-5884885D01*
X2792856Y-5884885D02*
X2821428Y-5884885D01*
X2921428Y-5884885D02*
X2921428Y-5684885D01*
X2921428Y-5584885D02*
X2907142Y-5599171D01*
X2907142Y-5599171D02*
X2921428Y-5613457D01*
X2921428Y-5613457D02*
X2935714Y-5599171D01*
X2935714Y-5599171D02*
X2921428Y-5584885D01*
X2921428Y-5584885D02*
X2921428Y-5613457D01*
X3064285Y-5684885D02*
X3064285Y-5884885D01*
X3064285Y-5713457D02*
X3078571Y-5699171D01*
X3078571Y-5699171D02*
X3107142Y-5684885D01*
X3107142Y-5684885D02*
X3149999Y-5684885D01*
X3149999Y-5684885D02*
X3178571Y-5699171D01*
X3178571Y-5699171D02*
X3192857Y-5727742D01*
X3192857Y-5727742D02*
X3192857Y-5884885D01*
X3464286Y-5684885D02*
X3464286Y-5927742D01*
X3464286Y-5927742D02*
X3450000Y-5956314D01*
X3450000Y-5956314D02*
X3435714Y-5970600D01*
X3435714Y-5970600D02*
X3407143Y-5984885D01*
X3407143Y-5984885D02*
X3364286Y-5984885D01*
X3364286Y-5984885D02*
X3335714Y-5970600D01*
X3464286Y-5870600D02*
X3435714Y-5884885D01*
X3435714Y-5884885D02*
X3378571Y-5884885D01*
X3378571Y-5884885D02*
X3350000Y-5870600D01*
X3350000Y-5870600D02*
X3335714Y-5856314D01*
X3335714Y-5856314D02*
X3321428Y-5827742D01*
X3321428Y-5827742D02*
X3321428Y-5742028D01*
X3321428Y-5742028D02*
X3335714Y-5713457D01*
X3335714Y-5713457D02*
X3350000Y-5699171D01*
X3350000Y-5699171D02*
X3378571Y-5684885D01*
X3378571Y-5684885D02*
X3435714Y-5684885D01*
X3435714Y-5684885D02*
X3464286Y-5699171D01*
X3607143Y-5884885D02*
X3607143Y-5584885D01*
X3607143Y-5727742D02*
X3778572Y-5727742D01*
X3778572Y-5884885D02*
X3778572Y-5584885D01*
X3964286Y-5884885D02*
X3935715Y-5870600D01*
X3935715Y-5870600D02*
X3921429Y-5856314D01*
X3921429Y-5856314D02*
X3907143Y-5827742D01*
X3907143Y-5827742D02*
X3907143Y-5742028D01*
X3907143Y-5742028D02*
X3921429Y-5713457D01*
X3921429Y-5713457D02*
X3935715Y-5699171D01*
X3935715Y-5699171D02*
X3964286Y-5684885D01*
X3964286Y-5684885D02*
X4007143Y-5684885D01*
X4007143Y-5684885D02*
X4035715Y-5699171D01*
X4035715Y-5699171D02*
X4050001Y-5713457D01*
X4050001Y-5713457D02*
X4064286Y-5742028D01*
X4064286Y-5742028D02*
X4064286Y-5827742D01*
X4064286Y-5827742D02*
X4050001Y-5856314D01*
X4050001Y-5856314D02*
X4035715Y-5870600D01*
X4035715Y-5870600D02*
X4007143Y-5884885D01*
X4007143Y-5884885D02*
X3964286Y-5884885D01*
X4235715Y-5884885D02*
X4207144Y-5870600D01*
X4207144Y-5870600D02*
X4192858Y-5842028D01*
X4192858Y-5842028D02*
X4192858Y-5584885D01*
X4464287Y-5870600D02*
X4435715Y-5884885D01*
X4435715Y-5884885D02*
X4378573Y-5884885D01*
X4378573Y-5884885D02*
X4350001Y-5870600D01*
X4350001Y-5870600D02*
X4335715Y-5842028D01*
X4335715Y-5842028D02*
X4335715Y-5727742D01*
X4335715Y-5727742D02*
X4350001Y-5699171D01*
X4350001Y-5699171D02*
X4378573Y-5684885D01*
X4378573Y-5684885D02*
X4435715Y-5684885D01*
X4435715Y-5684885D02*
X4464287Y-5699171D01*
X4464287Y-5699171D02*
X4478573Y-5727742D01*
X4478573Y-5727742D02*
X4478573Y-5756314D01*
X4478573Y-5756314D02*
X4335715Y-5784885D01*
X43788571Y-23725957D02*
X43802857Y-23711671D01*
X43802857Y-23711671D02*
X43831429Y-23697385D01*
X43831429Y-23697385D02*
X43902857Y-23697385D01*
X43902857Y-23697385D02*
X43931429Y-23711671D01*
X43931429Y-23711671D02*
X43945714Y-23725957D01*
X43945714Y-23725957D02*
X43960000Y-23754528D01*
X43960000Y-23754528D02*
X43960000Y-23783100D01*
X43960000Y-23783100D02*
X43945714Y-23825957D01*
X43945714Y-23825957D02*
X43774286Y-23997385D01*
X43774286Y-23997385D02*
X43960000Y-23997385D01*
X44074285Y-23725957D02*
X44088571Y-23711671D01*
X44088571Y-23711671D02*
X44117143Y-23697385D01*
X44117143Y-23697385D02*
X44188571Y-23697385D01*
X44188571Y-23697385D02*
X44217143Y-23711671D01*
X44217143Y-23711671D02*
X44231428Y-23725957D01*
X44231428Y-23725957D02*
X44245714Y-23754528D01*
X44245714Y-23754528D02*
X44245714Y-23783100D01*
X44245714Y-23783100D02*
X44231428Y-23825957D01*
X44231428Y-23825957D02*
X44060000Y-23997385D01*
X44060000Y-23997385D02*
X44245714Y-23997385D01*
X44502857Y-23797385D02*
X44502857Y-23997385D01*
X44374285Y-23797385D02*
X44374285Y-23954528D01*
X44374285Y-23954528D02*
X44388571Y-23983100D01*
X44388571Y-23983100D02*
X44417142Y-23997385D01*
X44417142Y-23997385D02*
X44459999Y-23997385D01*
X44459999Y-23997385D02*
X44488571Y-23983100D01*
X44488571Y-23983100D02*
X44502857Y-23968814D01*
X44745714Y-23840242D02*
X44645714Y-23840242D01*
X44645714Y-23997385D02*
X44645714Y-23697385D01*
X44645714Y-23697385D02*
X44788571Y-23697385D01*
X44831429Y-24025957D02*
X45060000Y-24025957D01*
X45117142Y-23725957D02*
X45131428Y-23711671D01*
X45131428Y-23711671D02*
X45160000Y-23697385D01*
X45160000Y-23697385D02*
X45231428Y-23697385D01*
X45231428Y-23697385D02*
X45260000Y-23711671D01*
X45260000Y-23711671D02*
X45274285Y-23725957D01*
X45274285Y-23725957D02*
X45288571Y-23754528D01*
X45288571Y-23754528D02*
X45288571Y-23783100D01*
X45288571Y-23783100D02*
X45274285Y-23825957D01*
X45274285Y-23825957D02*
X45102857Y-23997385D01*
X45102857Y-23997385D02*
X45288571Y-23997385D01*
X45559999Y-23697385D02*
X45417142Y-23697385D01*
X45417142Y-23697385D02*
X45402856Y-23840242D01*
X45402856Y-23840242D02*
X45417142Y-23825957D01*
X45417142Y-23825957D02*
X45445714Y-23811671D01*
X45445714Y-23811671D02*
X45517142Y-23811671D01*
X45517142Y-23811671D02*
X45545714Y-23825957D01*
X45545714Y-23825957D02*
X45559999Y-23840242D01*
X45559999Y-23840242D02*
X45574285Y-23868814D01*
X45574285Y-23868814D02*
X45574285Y-23940242D01*
X45574285Y-23940242D02*
X45559999Y-23968814D01*
X45559999Y-23968814D02*
X45545714Y-23983100D01*
X45545714Y-23983100D02*
X45517142Y-23997385D01*
X45517142Y-23997385D02*
X45445714Y-23997385D01*
X45445714Y-23997385D02*
X45417142Y-23983100D01*
X45417142Y-23983100D02*
X45402856Y-23968814D01*
X45659999Y-23697385D02*
X45759999Y-23997385D01*
X45759999Y-23997385D02*
X45859999Y-23697385D01*
X29528572Y-16914885D02*
X29528572Y-17114885D01*
X29457143Y-16800600D02*
X29385714Y-17014885D01*
X29385714Y-17014885D02*
X29571429Y-17014885D01*
X29685714Y-17086314D02*
X29700000Y-17100600D01*
X29700000Y-17100600D02*
X29685714Y-17114885D01*
X29685714Y-17114885D02*
X29671428Y-17100600D01*
X29671428Y-17100600D02*
X29685714Y-17086314D01*
X29685714Y-17086314D02*
X29685714Y-17114885D01*
X29800000Y-16814885D02*
X30000000Y-16814885D01*
X30000000Y-16814885D02*
X29871428Y-17114885D01*
X30242857Y-16914885D02*
X30242857Y-17114885D01*
X30114285Y-16914885D02*
X30114285Y-17072028D01*
X30114285Y-17072028D02*
X30128571Y-17100600D01*
X30128571Y-17100600D02*
X30157142Y-17114885D01*
X30157142Y-17114885D02*
X30199999Y-17114885D01*
X30199999Y-17114885D02*
X30228571Y-17100600D01*
X30228571Y-17100600D02*
X30242857Y-17086314D01*
X30485714Y-16957742D02*
X30385714Y-16957742D01*
X30385714Y-17114885D02*
X30385714Y-16814885D01*
X30385714Y-16814885D02*
X30528571Y-16814885D01*
X31719885Y-14717856D02*
X31719885Y-14517856D01*
X31719885Y-14517856D02*
X32019885Y-14646428D01*
X31719885Y-14260714D02*
X31719885Y-14403571D01*
X31719885Y-14403571D02*
X31862742Y-14417857D01*
X31862742Y-14417857D02*
X31848457Y-14403571D01*
X31848457Y-14403571D02*
X31834171Y-14375000D01*
X31834171Y-14375000D02*
X31834171Y-14303571D01*
X31834171Y-14303571D02*
X31848457Y-14275000D01*
X31848457Y-14275000D02*
X31862742Y-14260714D01*
X31862742Y-14260714D02*
X31891314Y-14246428D01*
X31891314Y-14246428D02*
X31962742Y-14246428D01*
X31962742Y-14246428D02*
X31991314Y-14260714D01*
X31991314Y-14260714D02*
X32005600Y-14275000D01*
X32005600Y-14275000D02*
X32019885Y-14303571D01*
X32019885Y-14303571D02*
X32019885Y-14375000D01*
X32019885Y-14375000D02*
X32005600Y-14403571D01*
X32005600Y-14403571D02*
X31991314Y-14417857D01*
X32019885Y-13946428D02*
X31877028Y-14046428D01*
X32019885Y-14117857D02*
X31719885Y-14117857D01*
X31719885Y-14117857D02*
X31719885Y-14003571D01*
X31719885Y-14003571D02*
X31734171Y-13975000D01*
X31734171Y-13975000D02*
X31748457Y-13960714D01*
X31748457Y-13960714D02*
X31777028Y-13946428D01*
X31777028Y-13946428D02*
X31819885Y-13946428D01*
X31819885Y-13946428D02*
X31848457Y-13960714D01*
X31848457Y-13960714D02*
X31862742Y-13975000D01*
X31862742Y-13975000D02*
X31877028Y-14003571D01*
X31877028Y-14003571D02*
X31877028Y-14117857D01*
X49535713Y-25884885D02*
X49535713Y-25584885D01*
X49535713Y-25584885D02*
X49635713Y-25799171D01*
X49635713Y-25799171D02*
X49735713Y-25584885D01*
X49735713Y-25584885D02*
X49735713Y-25884885D01*
X49864284Y-25613457D02*
X49878570Y-25599171D01*
X49878570Y-25599171D02*
X49907142Y-25584885D01*
X49907142Y-25584885D02*
X49978570Y-25584885D01*
X49978570Y-25584885D02*
X50007142Y-25599171D01*
X50007142Y-25599171D02*
X50021427Y-25613457D01*
X50021427Y-25613457D02*
X50035713Y-25642028D01*
X50035713Y-25642028D02*
X50035713Y-25670600D01*
X50035713Y-25670600D02*
X50021427Y-25713457D01*
X50021427Y-25713457D02*
X49849999Y-25884885D01*
X49849999Y-25884885D02*
X50035713Y-25884885D01*
X50164284Y-25856314D02*
X50178570Y-25870600D01*
X50178570Y-25870600D02*
X50164284Y-25884885D01*
X50164284Y-25884885D02*
X50149998Y-25870600D01*
X50149998Y-25870600D02*
X50164284Y-25856314D01*
X50164284Y-25856314D02*
X50164284Y-25884885D01*
X50449998Y-25584885D02*
X50307141Y-25584885D01*
X50307141Y-25584885D02*
X50292855Y-25727742D01*
X50292855Y-25727742D02*
X50307141Y-25713457D01*
X50307141Y-25713457D02*
X50335713Y-25699171D01*
X50335713Y-25699171D02*
X50407141Y-25699171D01*
X50407141Y-25699171D02*
X50435713Y-25713457D01*
X50435713Y-25713457D02*
X50449998Y-25727742D01*
X50449998Y-25727742D02*
X50464284Y-25756314D01*
X50464284Y-25756314D02*
X50464284Y-25827742D01*
X50464284Y-25827742D02*
X50449998Y-25856314D01*
X50449998Y-25856314D02*
X50435713Y-25870600D01*
X50435713Y-25870600D02*
X50407141Y-25884885D01*
X50407141Y-25884885D02*
X50335713Y-25884885D01*
X50335713Y-25884885D02*
X50307141Y-25870600D01*
X50307141Y-25870600D02*
X50292855Y-25856314D01*
X50592855Y-25884885D02*
X50592855Y-25584885D01*
X50592855Y-25584885D02*
X50692855Y-25799171D01*
X50692855Y-25799171D02*
X50792855Y-25584885D01*
X50792855Y-25584885D02*
X50792855Y-25884885D01*
X50978569Y-25884885D02*
X50949998Y-25870600D01*
X50949998Y-25870600D02*
X50935712Y-25856314D01*
X50935712Y-25856314D02*
X50921426Y-25827742D01*
X50921426Y-25827742D02*
X50921426Y-25742028D01*
X50921426Y-25742028D02*
X50935712Y-25713457D01*
X50935712Y-25713457D02*
X50949998Y-25699171D01*
X50949998Y-25699171D02*
X50978569Y-25684885D01*
X50978569Y-25684885D02*
X51021426Y-25684885D01*
X51021426Y-25684885D02*
X51049998Y-25699171D01*
X51049998Y-25699171D02*
X51064284Y-25713457D01*
X51064284Y-25713457D02*
X51078569Y-25742028D01*
X51078569Y-25742028D02*
X51078569Y-25827742D01*
X51078569Y-25827742D02*
X51064284Y-25856314D01*
X51064284Y-25856314D02*
X51049998Y-25870600D01*
X51049998Y-25870600D02*
X51021426Y-25884885D01*
X51021426Y-25884885D02*
X50978569Y-25884885D01*
X51335713Y-25684885D02*
X51335713Y-25884885D01*
X51207141Y-25684885D02*
X51207141Y-25842028D01*
X51207141Y-25842028D02*
X51221427Y-25870600D01*
X51221427Y-25870600D02*
X51249998Y-25884885D01*
X51249998Y-25884885D02*
X51292855Y-25884885D01*
X51292855Y-25884885D02*
X51321427Y-25870600D01*
X51321427Y-25870600D02*
X51335713Y-25856314D01*
X51478570Y-25684885D02*
X51478570Y-25884885D01*
X51478570Y-25713457D02*
X51492856Y-25699171D01*
X51492856Y-25699171D02*
X51521427Y-25684885D01*
X51521427Y-25684885D02*
X51564284Y-25684885D01*
X51564284Y-25684885D02*
X51592856Y-25699171D01*
X51592856Y-25699171D02*
X51607142Y-25727742D01*
X51607142Y-25727742D02*
X51607142Y-25884885D01*
X51707142Y-25684885D02*
X51821428Y-25684885D01*
X51749999Y-25584885D02*
X51749999Y-25842028D01*
X51749999Y-25842028D02*
X51764285Y-25870600D01*
X51764285Y-25870600D02*
X51792856Y-25884885D01*
X51792856Y-25884885D02*
X51821428Y-25884885D01*
X51921428Y-25884885D02*
X51921428Y-25684885D01*
X51921428Y-25584885D02*
X51907142Y-25599171D01*
X51907142Y-25599171D02*
X51921428Y-25613457D01*
X51921428Y-25613457D02*
X51935714Y-25599171D01*
X51935714Y-25599171D02*
X51921428Y-25584885D01*
X51921428Y-25584885D02*
X51921428Y-25613457D01*
X52064285Y-25684885D02*
X52064285Y-25884885D01*
X52064285Y-25713457D02*
X52078571Y-25699171D01*
X52078571Y-25699171D02*
X52107142Y-25684885D01*
X52107142Y-25684885D02*
X52149999Y-25684885D01*
X52149999Y-25684885D02*
X52178571Y-25699171D01*
X52178571Y-25699171D02*
X52192857Y-25727742D01*
X52192857Y-25727742D02*
X52192857Y-25884885D01*
X52464286Y-25684885D02*
X52464286Y-25927742D01*
X52464286Y-25927742D02*
X52450000Y-25956314D01*
X52450000Y-25956314D02*
X52435714Y-25970600D01*
X52435714Y-25970600D02*
X52407143Y-25984885D01*
X52407143Y-25984885D02*
X52364286Y-25984885D01*
X52364286Y-25984885D02*
X52335714Y-25970600D01*
X52464286Y-25870600D02*
X52435714Y-25884885D01*
X52435714Y-25884885D02*
X52378571Y-25884885D01*
X52378571Y-25884885D02*
X52350000Y-25870600D01*
X52350000Y-25870600D02*
X52335714Y-25856314D01*
X52335714Y-25856314D02*
X52321428Y-25827742D01*
X52321428Y-25827742D02*
X52321428Y-25742028D01*
X52321428Y-25742028D02*
X52335714Y-25713457D01*
X52335714Y-25713457D02*
X52350000Y-25699171D01*
X52350000Y-25699171D02*
X52378571Y-25684885D01*
X52378571Y-25684885D02*
X52435714Y-25684885D01*
X52435714Y-25684885D02*
X52464286Y-25699171D01*
X52607143Y-25884885D02*
X52607143Y-25584885D01*
X52607143Y-25727742D02*
X52778572Y-25727742D01*
X52778572Y-25884885D02*
X52778572Y-25584885D01*
X52964286Y-25884885D02*
X52935715Y-25870600D01*
X52935715Y-25870600D02*
X52921429Y-25856314D01*
X52921429Y-25856314D02*
X52907143Y-25827742D01*
X52907143Y-25827742D02*
X52907143Y-25742028D01*
X52907143Y-25742028D02*
X52921429Y-25713457D01*
X52921429Y-25713457D02*
X52935715Y-25699171D01*
X52935715Y-25699171D02*
X52964286Y-25684885D01*
X52964286Y-25684885D02*
X53007143Y-25684885D01*
X53007143Y-25684885D02*
X53035715Y-25699171D01*
X53035715Y-25699171D02*
X53050001Y-25713457D01*
X53050001Y-25713457D02*
X53064286Y-25742028D01*
X53064286Y-25742028D02*
X53064286Y-25827742D01*
X53064286Y-25827742D02*
X53050001Y-25856314D01*
X53050001Y-25856314D02*
X53035715Y-25870600D01*
X53035715Y-25870600D02*
X53007143Y-25884885D01*
X53007143Y-25884885D02*
X52964286Y-25884885D01*
X53235715Y-25884885D02*
X53207144Y-25870600D01*
X53207144Y-25870600D02*
X53192858Y-25842028D01*
X53192858Y-25842028D02*
X53192858Y-25584885D01*
X53464287Y-25870600D02*
X53435715Y-25884885D01*
X53435715Y-25884885D02*
X53378573Y-25884885D01*
X53378573Y-25884885D02*
X53350001Y-25870600D01*
X53350001Y-25870600D02*
X53335715Y-25842028D01*
X53335715Y-25842028D02*
X53335715Y-25727742D01*
X53335715Y-25727742D02*
X53350001Y-25699171D01*
X53350001Y-25699171D02*
X53378573Y-25684885D01*
X53378573Y-25684885D02*
X53435715Y-25684885D01*
X53435715Y-25684885D02*
X53464287Y-25699171D01*
X53464287Y-25699171D02*
X53478573Y-25727742D01*
X53478573Y-25727742D02*
X53478573Y-25756314D01*
X53478573Y-25756314D02*
X53335715Y-25784885D01*
X39563571Y-23700957D02*
X39577857Y-23686671D01*
X39577857Y-23686671D02*
X39606429Y-23672385D01*
X39606429Y-23672385D02*
X39677857Y-23672385D01*
X39677857Y-23672385D02*
X39706429Y-23686671D01*
X39706429Y-23686671D02*
X39720714Y-23700957D01*
X39720714Y-23700957D02*
X39735000Y-23729528D01*
X39735000Y-23729528D02*
X39735000Y-23758100D01*
X39735000Y-23758100D02*
X39720714Y-23800957D01*
X39720714Y-23800957D02*
X39549286Y-23972385D01*
X39549286Y-23972385D02*
X39735000Y-23972385D01*
X39849285Y-23700957D02*
X39863571Y-23686671D01*
X39863571Y-23686671D02*
X39892143Y-23672385D01*
X39892143Y-23672385D02*
X39963571Y-23672385D01*
X39963571Y-23672385D02*
X39992143Y-23686671D01*
X39992143Y-23686671D02*
X40006428Y-23700957D01*
X40006428Y-23700957D02*
X40020714Y-23729528D01*
X40020714Y-23729528D02*
X40020714Y-23758100D01*
X40020714Y-23758100D02*
X40006428Y-23800957D01*
X40006428Y-23800957D02*
X39835000Y-23972385D01*
X39835000Y-23972385D02*
X40020714Y-23972385D01*
X40277857Y-23772385D02*
X40277857Y-23972385D01*
X40149285Y-23772385D02*
X40149285Y-23929528D01*
X40149285Y-23929528D02*
X40163571Y-23958100D01*
X40163571Y-23958100D02*
X40192142Y-23972385D01*
X40192142Y-23972385D02*
X40234999Y-23972385D01*
X40234999Y-23972385D02*
X40263571Y-23958100D01*
X40263571Y-23958100D02*
X40277857Y-23943814D01*
X40520714Y-23815242D02*
X40420714Y-23815242D01*
X40420714Y-23972385D02*
X40420714Y-23672385D01*
X40420714Y-23672385D02*
X40563571Y-23672385D01*
X40606429Y-24000957D02*
X40835000Y-24000957D01*
X40892142Y-23700957D02*
X40906428Y-23686671D01*
X40906428Y-23686671D02*
X40935000Y-23672385D01*
X40935000Y-23672385D02*
X41006428Y-23672385D01*
X41006428Y-23672385D02*
X41035000Y-23686671D01*
X41035000Y-23686671D02*
X41049285Y-23700957D01*
X41049285Y-23700957D02*
X41063571Y-23729528D01*
X41063571Y-23729528D02*
X41063571Y-23758100D01*
X41063571Y-23758100D02*
X41049285Y-23800957D01*
X41049285Y-23800957D02*
X40877857Y-23972385D01*
X40877857Y-23972385D02*
X41063571Y-23972385D01*
X41334999Y-23672385D02*
X41192142Y-23672385D01*
X41192142Y-23672385D02*
X41177856Y-23815242D01*
X41177856Y-23815242D02*
X41192142Y-23800957D01*
X41192142Y-23800957D02*
X41220714Y-23786671D01*
X41220714Y-23786671D02*
X41292142Y-23786671D01*
X41292142Y-23786671D02*
X41320714Y-23800957D01*
X41320714Y-23800957D02*
X41334999Y-23815242D01*
X41334999Y-23815242D02*
X41349285Y-23843814D01*
X41349285Y-23843814D02*
X41349285Y-23915242D01*
X41349285Y-23915242D02*
X41334999Y-23943814D01*
X41334999Y-23943814D02*
X41320714Y-23958100D01*
X41320714Y-23958100D02*
X41292142Y-23972385D01*
X41292142Y-23972385D02*
X41220714Y-23972385D01*
X41220714Y-23972385D02*
X41192142Y-23958100D01*
X41192142Y-23958100D02*
X41177856Y-23943814D01*
X41434999Y-23672385D02*
X41534999Y-23972385D01*
X41534999Y-23972385D02*
X41634999Y-23672385D01*
X1201901Y-20519382D02*
X1101901Y-20519382D01*
X1101901Y-20676525D02*
X1101901Y-20376525D01*
X1101901Y-20376525D02*
X1244758Y-20376525D01*
X1459044Y-20519382D02*
X1359044Y-20519382D01*
X1359044Y-20676525D02*
X1359044Y-20376525D01*
X1359044Y-20376525D02*
X1501901Y-20376525D01*
X1787616Y-20647954D02*
X1773330Y-20662240D01*
X1773330Y-20662240D02*
X1730473Y-20676525D01*
X1730473Y-20676525D02*
X1701901Y-20676525D01*
X1701901Y-20676525D02*
X1659044Y-20662240D01*
X1659044Y-20662240D02*
X1630473Y-20633668D01*
X1630473Y-20633668D02*
X1616187Y-20605097D01*
X1616187Y-20605097D02*
X1601901Y-20547954D01*
X1601901Y-20547954D02*
X1601901Y-20505097D01*
X1601901Y-20505097D02*
X1616187Y-20447954D01*
X1616187Y-20447954D02*
X1630473Y-20419382D01*
X1630473Y-20419382D02*
X1659044Y-20390811D01*
X1659044Y-20390811D02*
X1701901Y-20376525D01*
X1701901Y-20376525D02*
X1730473Y-20376525D01*
X1730473Y-20376525D02*
X1773330Y-20390811D01*
X1773330Y-20390811D02*
X1787616Y-20405097D01*
X1844759Y-20705097D02*
X2073330Y-20705097D01*
X2273330Y-20662240D02*
X2244758Y-20676525D01*
X2244758Y-20676525D02*
X2187615Y-20676525D01*
X2187615Y-20676525D02*
X2159044Y-20662240D01*
X2159044Y-20662240D02*
X2144758Y-20647954D01*
X2144758Y-20647954D02*
X2130472Y-20619382D01*
X2130472Y-20619382D02*
X2130472Y-20533668D01*
X2130472Y-20533668D02*
X2144758Y-20505097D01*
X2144758Y-20505097D02*
X2159044Y-20490811D01*
X2159044Y-20490811D02*
X2187615Y-20476525D01*
X2187615Y-20476525D02*
X2244758Y-20476525D01*
X2244758Y-20476525D02*
X2273330Y-20490811D01*
X2444758Y-20676525D02*
X2416187Y-20662240D01*
X2416187Y-20662240D02*
X2401901Y-20647954D01*
X2401901Y-20647954D02*
X2387615Y-20619382D01*
X2387615Y-20619382D02*
X2387615Y-20533668D01*
X2387615Y-20533668D02*
X2401901Y-20505097D01*
X2401901Y-20505097D02*
X2416187Y-20490811D01*
X2416187Y-20490811D02*
X2444758Y-20476525D01*
X2444758Y-20476525D02*
X2487615Y-20476525D01*
X2487615Y-20476525D02*
X2516187Y-20490811D01*
X2516187Y-20490811D02*
X2530473Y-20505097D01*
X2530473Y-20505097D02*
X2544758Y-20533668D01*
X2544758Y-20533668D02*
X2544758Y-20619382D01*
X2544758Y-20619382D02*
X2530473Y-20647954D01*
X2530473Y-20647954D02*
X2516187Y-20662240D01*
X2516187Y-20662240D02*
X2487615Y-20676525D01*
X2487615Y-20676525D02*
X2444758Y-20676525D01*
X2673330Y-20476525D02*
X2673330Y-20676525D01*
X2673330Y-20505097D02*
X2687616Y-20490811D01*
X2687616Y-20490811D02*
X2716187Y-20476525D01*
X2716187Y-20476525D02*
X2759044Y-20476525D01*
X2759044Y-20476525D02*
X2787616Y-20490811D01*
X2787616Y-20490811D02*
X2801902Y-20519382D01*
X2801902Y-20519382D02*
X2801902Y-20676525D01*
X2944759Y-20476525D02*
X2944759Y-20676525D01*
X2944759Y-20505097D02*
X2959045Y-20490811D01*
X2959045Y-20490811D02*
X2987616Y-20476525D01*
X2987616Y-20476525D02*
X3030473Y-20476525D01*
X3030473Y-20476525D02*
X3059045Y-20490811D01*
X3059045Y-20490811D02*
X3073331Y-20519382D01*
X3073331Y-20519382D02*
X3073331Y-20676525D01*
X3330474Y-20662240D02*
X3301902Y-20676525D01*
X3301902Y-20676525D02*
X3244760Y-20676525D01*
X3244760Y-20676525D02*
X3216188Y-20662240D01*
X3216188Y-20662240D02*
X3201902Y-20633668D01*
X3201902Y-20633668D02*
X3201902Y-20519382D01*
X3201902Y-20519382D02*
X3216188Y-20490811D01*
X3216188Y-20490811D02*
X3244760Y-20476525D01*
X3244760Y-20476525D02*
X3301902Y-20476525D01*
X3301902Y-20476525D02*
X3330474Y-20490811D01*
X3330474Y-20490811D02*
X3344760Y-20519382D01*
X3344760Y-20519382D02*
X3344760Y-20547954D01*
X3344760Y-20547954D02*
X3201902Y-20576525D01*
X3601903Y-20662240D02*
X3573331Y-20676525D01*
X3573331Y-20676525D02*
X3516188Y-20676525D01*
X3516188Y-20676525D02*
X3487617Y-20662240D01*
X3487617Y-20662240D02*
X3473331Y-20647954D01*
X3473331Y-20647954D02*
X3459045Y-20619382D01*
X3459045Y-20619382D02*
X3459045Y-20533668D01*
X3459045Y-20533668D02*
X3473331Y-20505097D01*
X3473331Y-20505097D02*
X3487617Y-20490811D01*
X3487617Y-20490811D02*
X3516188Y-20476525D01*
X3516188Y-20476525D02*
X3573331Y-20476525D01*
X3573331Y-20476525D02*
X3601903Y-20490811D01*
X3687617Y-20476525D02*
X3801903Y-20476525D01*
X3730474Y-20376525D02*
X3730474Y-20633668D01*
X3730474Y-20633668D02*
X3744760Y-20662240D01*
X3744760Y-20662240D02*
X3773331Y-20676525D01*
X3773331Y-20676525D02*
X3801903Y-20676525D01*
X3944760Y-20676525D02*
X3916189Y-20662240D01*
X3916189Y-20662240D02*
X3901903Y-20647954D01*
X3901903Y-20647954D02*
X3887617Y-20619382D01*
X3887617Y-20619382D02*
X3887617Y-20533668D01*
X3887617Y-20533668D02*
X3901903Y-20505097D01*
X3901903Y-20505097D02*
X3916189Y-20490811D01*
X3916189Y-20490811D02*
X3944760Y-20476525D01*
X3944760Y-20476525D02*
X3987617Y-20476525D01*
X3987617Y-20476525D02*
X4016189Y-20490811D01*
X4016189Y-20490811D02*
X4030475Y-20505097D01*
X4030475Y-20505097D02*
X4044760Y-20533668D01*
X4044760Y-20533668D02*
X4044760Y-20619382D01*
X4044760Y-20619382D02*
X4030475Y-20647954D01*
X4030475Y-20647954D02*
X4016189Y-20662240D01*
X4016189Y-20662240D02*
X3987617Y-20676525D01*
X3987617Y-20676525D02*
X3944760Y-20676525D01*
X4173332Y-20676525D02*
X4173332Y-20476525D01*
X4173332Y-20533668D02*
X4187618Y-20505097D01*
X4187618Y-20505097D02*
X4201904Y-20490811D01*
X4201904Y-20490811D02*
X4230475Y-20476525D01*
X4230475Y-20476525D02*
X4259046Y-20476525D01*
X4287618Y-20705097D02*
X4516189Y-20705097D01*
X4744760Y-20676525D02*
X4573331Y-20676525D01*
X4659046Y-20676525D02*
X4659046Y-20376525D01*
X4659046Y-20376525D02*
X4630474Y-20419382D01*
X4630474Y-20419382D02*
X4601903Y-20447954D01*
X4601903Y-20447954D02*
X4573331Y-20462240D01*
X5001903Y-20376525D02*
X4944760Y-20376525D01*
X4944760Y-20376525D02*
X4916188Y-20390811D01*
X4916188Y-20390811D02*
X4901903Y-20405097D01*
X4901903Y-20405097D02*
X4873331Y-20447954D01*
X4873331Y-20447954D02*
X4859045Y-20505097D01*
X4859045Y-20505097D02*
X4859045Y-20619382D01*
X4859045Y-20619382D02*
X4873331Y-20647954D01*
X4873331Y-20647954D02*
X4887617Y-20662240D01*
X4887617Y-20662240D02*
X4916188Y-20676525D01*
X4916188Y-20676525D02*
X4973331Y-20676525D01*
X4973331Y-20676525D02*
X5001903Y-20662240D01*
X5001903Y-20662240D02*
X5016188Y-20647954D01*
X5016188Y-20647954D02*
X5030474Y-20619382D01*
X5030474Y-20619382D02*
X5030474Y-20547954D01*
X5030474Y-20547954D02*
X5016188Y-20519382D01*
X5016188Y-20519382D02*
X5001903Y-20505097D01*
X5001903Y-20505097D02*
X4973331Y-20490811D01*
X4973331Y-20490811D02*
X4916188Y-20490811D01*
X4916188Y-20490811D02*
X4887617Y-20505097D01*
X4887617Y-20505097D02*
X4873331Y-20519382D01*
X4873331Y-20519382D02*
X4859045Y-20547954D01*
X5159045Y-20476525D02*
X5159045Y-20776525D01*
X5159045Y-20490811D02*
X5187617Y-20476525D01*
X5187617Y-20476525D02*
X5244759Y-20476525D01*
X5244759Y-20476525D02*
X5273331Y-20490811D01*
X5273331Y-20490811D02*
X5287617Y-20505097D01*
X5287617Y-20505097D02*
X5301902Y-20533668D01*
X5301902Y-20533668D02*
X5301902Y-20619382D01*
X5301902Y-20619382D02*
X5287617Y-20647954D01*
X5287617Y-20647954D02*
X5273331Y-20662240D01*
X5273331Y-20662240D02*
X5244759Y-20676525D01*
X5244759Y-20676525D02*
X5187617Y-20676525D01*
X5187617Y-20676525D02*
X5159045Y-20662240D01*
X5359046Y-20705097D02*
X5587617Y-20705097D01*
X5659045Y-20676525D02*
X5659045Y-20376525D01*
X5787617Y-20676525D02*
X5787617Y-20519382D01*
X5787617Y-20519382D02*
X5773331Y-20490811D01*
X5773331Y-20490811D02*
X5744759Y-20476525D01*
X5744759Y-20476525D02*
X5701902Y-20476525D01*
X5701902Y-20476525D02*
X5673331Y-20490811D01*
X5673331Y-20490811D02*
X5659045Y-20505097D01*
X5930474Y-20676525D02*
X5930474Y-20476525D01*
X5930474Y-20376525D02*
X5916188Y-20390811D01*
X5916188Y-20390811D02*
X5930474Y-20405097D01*
X5930474Y-20405097D02*
X5944760Y-20390811D01*
X5944760Y-20390811D02*
X5930474Y-20376525D01*
X5930474Y-20376525D02*
X5930474Y-20405097D01*
X6073331Y-20476525D02*
X6073331Y-20676525D01*
X6073331Y-20505097D02*
X6087617Y-20490811D01*
X6087617Y-20490811D02*
X6116188Y-20476525D01*
X6116188Y-20476525D02*
X6159045Y-20476525D01*
X6159045Y-20476525D02*
X6187617Y-20490811D01*
X6187617Y-20490811D02*
X6201903Y-20519382D01*
X6201903Y-20519382D02*
X6201903Y-20676525D01*
X6473332Y-20476525D02*
X6473332Y-20719382D01*
X6473332Y-20719382D02*
X6459046Y-20747954D01*
X6459046Y-20747954D02*
X6444760Y-20762240D01*
X6444760Y-20762240D02*
X6416189Y-20776525D01*
X6416189Y-20776525D02*
X6373332Y-20776525D01*
X6373332Y-20776525D02*
X6344760Y-20762240D01*
X6473332Y-20662240D02*
X6444760Y-20676525D01*
X6444760Y-20676525D02*
X6387617Y-20676525D01*
X6387617Y-20676525D02*
X6359046Y-20662240D01*
X6359046Y-20662240D02*
X6344760Y-20647954D01*
X6344760Y-20647954D02*
X6330474Y-20619382D01*
X6330474Y-20619382D02*
X6330474Y-20533668D01*
X6330474Y-20533668D02*
X6344760Y-20505097D01*
X6344760Y-20505097D02*
X6359046Y-20490811D01*
X6359046Y-20490811D02*
X6387617Y-20476525D01*
X6387617Y-20476525D02*
X6444760Y-20476525D01*
X6444760Y-20476525D02*
X6473332Y-20490811D01*
X6730475Y-20662240D02*
X6701903Y-20676525D01*
X6701903Y-20676525D02*
X6644761Y-20676525D01*
X6644761Y-20676525D02*
X6616189Y-20662240D01*
X6616189Y-20662240D02*
X6601903Y-20633668D01*
X6601903Y-20633668D02*
X6601903Y-20519382D01*
X6601903Y-20519382D02*
X6616189Y-20490811D01*
X6616189Y-20490811D02*
X6644761Y-20476525D01*
X6644761Y-20476525D02*
X6701903Y-20476525D01*
X6701903Y-20476525D02*
X6730475Y-20490811D01*
X6730475Y-20490811D02*
X6744761Y-20519382D01*
X6744761Y-20519382D02*
X6744761Y-20547954D01*
X6744761Y-20547954D02*
X6601903Y-20576525D01*
X6801904Y-20705097D02*
X7030475Y-20705097D01*
X7144760Y-20676525D02*
X7116189Y-20662240D01*
X7116189Y-20662240D02*
X7101903Y-20633668D01*
X7101903Y-20633668D02*
X7101903Y-20376525D01*
X7301903Y-20676525D02*
X7273332Y-20662240D01*
X7273332Y-20662240D02*
X7259046Y-20647954D01*
X7259046Y-20647954D02*
X7244760Y-20619382D01*
X7244760Y-20619382D02*
X7244760Y-20533668D01*
X7244760Y-20533668D02*
X7259046Y-20505097D01*
X7259046Y-20505097D02*
X7273332Y-20490811D01*
X7273332Y-20490811D02*
X7301903Y-20476525D01*
X7301903Y-20476525D02*
X7344760Y-20476525D01*
X7344760Y-20476525D02*
X7373332Y-20490811D01*
X7373332Y-20490811D02*
X7387618Y-20505097D01*
X7387618Y-20505097D02*
X7401903Y-20533668D01*
X7401903Y-20533668D02*
X7401903Y-20619382D01*
X7401903Y-20619382D02*
X7387618Y-20647954D01*
X7387618Y-20647954D02*
X7373332Y-20662240D01*
X7373332Y-20662240D02*
X7344760Y-20676525D01*
X7344760Y-20676525D02*
X7301903Y-20676525D01*
X7659047Y-20662240D02*
X7630475Y-20676525D01*
X7630475Y-20676525D02*
X7573332Y-20676525D01*
X7573332Y-20676525D02*
X7544761Y-20662240D01*
X7544761Y-20662240D02*
X7530475Y-20647954D01*
X7530475Y-20647954D02*
X7516189Y-20619382D01*
X7516189Y-20619382D02*
X7516189Y-20533668D01*
X7516189Y-20533668D02*
X7530475Y-20505097D01*
X7530475Y-20505097D02*
X7544761Y-20490811D01*
X7544761Y-20490811D02*
X7573332Y-20476525D01*
X7573332Y-20476525D02*
X7630475Y-20476525D01*
X7630475Y-20476525D02*
X7659047Y-20490811D01*
X7787618Y-20676525D02*
X7787618Y-20376525D01*
X7816190Y-20562240D02*
X7901904Y-20676525D01*
X7901904Y-20476525D02*
X7787618Y-20590811D01*
X31819885Y-13467856D02*
X31819885Y-13267856D01*
X31819885Y-13267856D02*
X32119885Y-13396428D01*
X31819885Y-13010714D02*
X31819885Y-13153571D01*
X31819885Y-13153571D02*
X31962742Y-13167857D01*
X31962742Y-13167857D02*
X31948457Y-13153571D01*
X31948457Y-13153571D02*
X31934171Y-13125000D01*
X31934171Y-13125000D02*
X31934171Y-13053571D01*
X31934171Y-13053571D02*
X31948457Y-13025000D01*
X31948457Y-13025000D02*
X31962742Y-13010714D01*
X31962742Y-13010714D02*
X31991314Y-12996428D01*
X31991314Y-12996428D02*
X32062742Y-12996428D01*
X32062742Y-12996428D02*
X32091314Y-13010714D01*
X32091314Y-13010714D02*
X32105600Y-13025000D01*
X32105600Y-13025000D02*
X32119885Y-13053571D01*
X32119885Y-13053571D02*
X32119885Y-13125000D01*
X32119885Y-13125000D02*
X32105600Y-13153571D01*
X32105600Y-13153571D02*
X32091314Y-13167857D01*
X32119885Y-12696428D02*
X31977028Y-12796428D01*
X32119885Y-12867857D02*
X31819885Y-12867857D01*
X31819885Y-12867857D02*
X31819885Y-12753571D01*
X31819885Y-12753571D02*
X31834171Y-12725000D01*
X31834171Y-12725000D02*
X31848457Y-12710714D01*
X31848457Y-12710714D02*
X31877028Y-12696428D01*
X31877028Y-12696428D02*
X31919885Y-12696428D01*
X31919885Y-12696428D02*
X31948457Y-12710714D01*
X31948457Y-12710714D02*
X31962742Y-12725000D01*
X31962742Y-12725000D02*
X31977028Y-12753571D01*
X31977028Y-12753571D02*
X31977028Y-12867857D01*
X29457143Y-17144885D02*
X29485714Y-17144885D01*
X29485714Y-17144885D02*
X29514286Y-17159171D01*
X29514286Y-17159171D02*
X29528572Y-17173457D01*
X29528572Y-17173457D02*
X29542857Y-17202028D01*
X29542857Y-17202028D02*
X29557143Y-17259171D01*
X29557143Y-17259171D02*
X29557143Y-17330600D01*
X29557143Y-17330600D02*
X29542857Y-17387742D01*
X29542857Y-17387742D02*
X29528572Y-17416314D01*
X29528572Y-17416314D02*
X29514286Y-17430600D01*
X29514286Y-17430600D02*
X29485714Y-17444885D01*
X29485714Y-17444885D02*
X29457143Y-17444885D01*
X29457143Y-17444885D02*
X29428572Y-17430600D01*
X29428572Y-17430600D02*
X29414286Y-17416314D01*
X29414286Y-17416314D02*
X29400000Y-17387742D01*
X29400000Y-17387742D02*
X29385714Y-17330600D01*
X29385714Y-17330600D02*
X29385714Y-17259171D01*
X29385714Y-17259171D02*
X29400000Y-17202028D01*
X29400000Y-17202028D02*
X29414286Y-17173457D01*
X29414286Y-17173457D02*
X29428572Y-17159171D01*
X29428572Y-17159171D02*
X29457143Y-17144885D01*
X29685714Y-17416314D02*
X29700000Y-17430600D01*
X29700000Y-17430600D02*
X29685714Y-17444885D01*
X29685714Y-17444885D02*
X29671428Y-17430600D01*
X29671428Y-17430600D02*
X29685714Y-17416314D01*
X29685714Y-17416314D02*
X29685714Y-17444885D01*
X29985714Y-17444885D02*
X29814285Y-17444885D01*
X29900000Y-17444885D02*
X29900000Y-17144885D01*
X29900000Y-17144885D02*
X29871428Y-17187742D01*
X29871428Y-17187742D02*
X29842857Y-17216314D01*
X29842857Y-17216314D02*
X29814285Y-17230600D01*
X30242857Y-17244885D02*
X30242857Y-17444885D01*
X30114285Y-17244885D02*
X30114285Y-17402028D01*
X30114285Y-17402028D02*
X30128571Y-17430600D01*
X30128571Y-17430600D02*
X30157142Y-17444885D01*
X30157142Y-17444885D02*
X30199999Y-17444885D01*
X30199999Y-17444885D02*
X30228571Y-17430600D01*
X30228571Y-17430600D02*
X30242857Y-17416314D01*
X30485714Y-17287742D02*
X30385714Y-17287742D01*
X30385714Y-17444885D02*
X30385714Y-17144885D01*
X30385714Y-17144885D02*
X30528571Y-17144885D01*
X37463571Y-23700957D02*
X37477857Y-23686671D01*
X37477857Y-23686671D02*
X37506429Y-23672385D01*
X37506429Y-23672385D02*
X37577857Y-23672385D01*
X37577857Y-23672385D02*
X37606429Y-23686671D01*
X37606429Y-23686671D02*
X37620714Y-23700957D01*
X37620714Y-23700957D02*
X37635000Y-23729528D01*
X37635000Y-23729528D02*
X37635000Y-23758100D01*
X37635000Y-23758100D02*
X37620714Y-23800957D01*
X37620714Y-23800957D02*
X37449286Y-23972385D01*
X37449286Y-23972385D02*
X37635000Y-23972385D01*
X37749285Y-23700957D02*
X37763571Y-23686671D01*
X37763571Y-23686671D02*
X37792143Y-23672385D01*
X37792143Y-23672385D02*
X37863571Y-23672385D01*
X37863571Y-23672385D02*
X37892143Y-23686671D01*
X37892143Y-23686671D02*
X37906428Y-23700957D01*
X37906428Y-23700957D02*
X37920714Y-23729528D01*
X37920714Y-23729528D02*
X37920714Y-23758100D01*
X37920714Y-23758100D02*
X37906428Y-23800957D01*
X37906428Y-23800957D02*
X37735000Y-23972385D01*
X37735000Y-23972385D02*
X37920714Y-23972385D01*
X38177857Y-23772385D02*
X38177857Y-23972385D01*
X38049285Y-23772385D02*
X38049285Y-23929528D01*
X38049285Y-23929528D02*
X38063571Y-23958100D01*
X38063571Y-23958100D02*
X38092142Y-23972385D01*
X38092142Y-23972385D02*
X38134999Y-23972385D01*
X38134999Y-23972385D02*
X38163571Y-23958100D01*
X38163571Y-23958100D02*
X38177857Y-23943814D01*
X38420714Y-23815242D02*
X38320714Y-23815242D01*
X38320714Y-23972385D02*
X38320714Y-23672385D01*
X38320714Y-23672385D02*
X38463571Y-23672385D01*
X38506429Y-24000957D02*
X38735000Y-24000957D01*
X38792142Y-23700957D02*
X38806428Y-23686671D01*
X38806428Y-23686671D02*
X38835000Y-23672385D01*
X38835000Y-23672385D02*
X38906428Y-23672385D01*
X38906428Y-23672385D02*
X38935000Y-23686671D01*
X38935000Y-23686671D02*
X38949285Y-23700957D01*
X38949285Y-23700957D02*
X38963571Y-23729528D01*
X38963571Y-23729528D02*
X38963571Y-23758100D01*
X38963571Y-23758100D02*
X38949285Y-23800957D01*
X38949285Y-23800957D02*
X38777857Y-23972385D01*
X38777857Y-23972385D02*
X38963571Y-23972385D01*
X39234999Y-23672385D02*
X39092142Y-23672385D01*
X39092142Y-23672385D02*
X39077856Y-23815242D01*
X39077856Y-23815242D02*
X39092142Y-23800957D01*
X39092142Y-23800957D02*
X39120714Y-23786671D01*
X39120714Y-23786671D02*
X39192142Y-23786671D01*
X39192142Y-23786671D02*
X39220714Y-23800957D01*
X39220714Y-23800957D02*
X39234999Y-23815242D01*
X39234999Y-23815242D02*
X39249285Y-23843814D01*
X39249285Y-23843814D02*
X39249285Y-23915242D01*
X39249285Y-23915242D02*
X39234999Y-23943814D01*
X39234999Y-23943814D02*
X39220714Y-23958100D01*
X39220714Y-23958100D02*
X39192142Y-23972385D01*
X39192142Y-23972385D02*
X39120714Y-23972385D01*
X39120714Y-23972385D02*
X39092142Y-23958100D01*
X39092142Y-23958100D02*
X39077856Y-23943814D01*
X39334999Y-23672385D02*
X39434999Y-23972385D01*
X39434999Y-23972385D02*
X39534999Y-23672385D01*
X35703572Y-18479885D02*
X35703572Y-18679885D01*
X35632143Y-18365600D02*
X35560714Y-18579885D01*
X35560714Y-18579885D02*
X35746429Y-18579885D01*
X35860714Y-18651314D02*
X35875000Y-18665600D01*
X35875000Y-18665600D02*
X35860714Y-18679885D01*
X35860714Y-18679885D02*
X35846428Y-18665600D01*
X35846428Y-18665600D02*
X35860714Y-18651314D01*
X35860714Y-18651314D02*
X35860714Y-18679885D01*
X35975000Y-18379885D02*
X36175000Y-18379885D01*
X36175000Y-18379885D02*
X36046428Y-18679885D01*
X36417857Y-18479885D02*
X36417857Y-18679885D01*
X36289285Y-18479885D02*
X36289285Y-18637028D01*
X36289285Y-18637028D02*
X36303571Y-18665600D01*
X36303571Y-18665600D02*
X36332142Y-18679885D01*
X36332142Y-18679885D02*
X36374999Y-18679885D01*
X36374999Y-18679885D02*
X36403571Y-18665600D01*
X36403571Y-18665600D02*
X36417857Y-18651314D01*
X36660714Y-18522742D02*
X36560714Y-18522742D01*
X36560714Y-18679885D02*
X36560714Y-18379885D01*
X36560714Y-18379885D02*
X36703571Y-18379885D01*
X33163571Y-23688457D02*
X33177857Y-23674171D01*
X33177857Y-23674171D02*
X33206429Y-23659885D01*
X33206429Y-23659885D02*
X33277857Y-23659885D01*
X33277857Y-23659885D02*
X33306429Y-23674171D01*
X33306429Y-23674171D02*
X33320714Y-23688457D01*
X33320714Y-23688457D02*
X33335000Y-23717028D01*
X33335000Y-23717028D02*
X33335000Y-23745600D01*
X33335000Y-23745600D02*
X33320714Y-23788457D01*
X33320714Y-23788457D02*
X33149286Y-23959885D01*
X33149286Y-23959885D02*
X33335000Y-23959885D01*
X33449285Y-23688457D02*
X33463571Y-23674171D01*
X33463571Y-23674171D02*
X33492143Y-23659885D01*
X33492143Y-23659885D02*
X33563571Y-23659885D01*
X33563571Y-23659885D02*
X33592143Y-23674171D01*
X33592143Y-23674171D02*
X33606428Y-23688457D01*
X33606428Y-23688457D02*
X33620714Y-23717028D01*
X33620714Y-23717028D02*
X33620714Y-23745600D01*
X33620714Y-23745600D02*
X33606428Y-23788457D01*
X33606428Y-23788457D02*
X33435000Y-23959885D01*
X33435000Y-23959885D02*
X33620714Y-23959885D01*
X33877857Y-23759885D02*
X33877857Y-23959885D01*
X33749285Y-23759885D02*
X33749285Y-23917028D01*
X33749285Y-23917028D02*
X33763571Y-23945600D01*
X33763571Y-23945600D02*
X33792142Y-23959885D01*
X33792142Y-23959885D02*
X33834999Y-23959885D01*
X33834999Y-23959885D02*
X33863571Y-23945600D01*
X33863571Y-23945600D02*
X33877857Y-23931314D01*
X34120714Y-23802742D02*
X34020714Y-23802742D01*
X34020714Y-23959885D02*
X34020714Y-23659885D01*
X34020714Y-23659885D02*
X34163571Y-23659885D01*
X34206429Y-23988457D02*
X34435000Y-23988457D01*
X34492142Y-23688457D02*
X34506428Y-23674171D01*
X34506428Y-23674171D02*
X34535000Y-23659885D01*
X34535000Y-23659885D02*
X34606428Y-23659885D01*
X34606428Y-23659885D02*
X34635000Y-23674171D01*
X34635000Y-23674171D02*
X34649285Y-23688457D01*
X34649285Y-23688457D02*
X34663571Y-23717028D01*
X34663571Y-23717028D02*
X34663571Y-23745600D01*
X34663571Y-23745600D02*
X34649285Y-23788457D01*
X34649285Y-23788457D02*
X34477857Y-23959885D01*
X34477857Y-23959885D02*
X34663571Y-23959885D01*
X34934999Y-23659885D02*
X34792142Y-23659885D01*
X34792142Y-23659885D02*
X34777856Y-23802742D01*
X34777856Y-23802742D02*
X34792142Y-23788457D01*
X34792142Y-23788457D02*
X34820714Y-23774171D01*
X34820714Y-23774171D02*
X34892142Y-23774171D01*
X34892142Y-23774171D02*
X34920714Y-23788457D01*
X34920714Y-23788457D02*
X34934999Y-23802742D01*
X34934999Y-23802742D02*
X34949285Y-23831314D01*
X34949285Y-23831314D02*
X34949285Y-23902742D01*
X34949285Y-23902742D02*
X34934999Y-23931314D01*
X34934999Y-23931314D02*
X34920714Y-23945600D01*
X34920714Y-23945600D02*
X34892142Y-23959885D01*
X34892142Y-23959885D02*
X34820714Y-23959885D01*
X34820714Y-23959885D02*
X34792142Y-23945600D01*
X34792142Y-23945600D02*
X34777856Y-23931314D01*
X35034999Y-23659885D02*
X35134999Y-23959885D01*
X35134999Y-23959885D02*
X35234999Y-23659885D01*
X46757381Y-4436102D02*
X46657381Y-4436102D01*
X46657381Y-4593245D02*
X46657381Y-4293245D01*
X46657381Y-4293245D02*
X46800238Y-4293245D01*
X47014524Y-4436102D02*
X46914524Y-4436102D01*
X46914524Y-4593245D02*
X46914524Y-4293245D01*
X46914524Y-4293245D02*
X47057381Y-4293245D01*
X47343096Y-4564674D02*
X47328810Y-4578960D01*
X47328810Y-4578960D02*
X47285953Y-4593245D01*
X47285953Y-4593245D02*
X47257381Y-4593245D01*
X47257381Y-4593245D02*
X47214524Y-4578960D01*
X47214524Y-4578960D02*
X47185953Y-4550388D01*
X47185953Y-4550388D02*
X47171667Y-4521817D01*
X47171667Y-4521817D02*
X47157381Y-4464674D01*
X47157381Y-4464674D02*
X47157381Y-4421817D01*
X47157381Y-4421817D02*
X47171667Y-4364674D01*
X47171667Y-4364674D02*
X47185953Y-4336102D01*
X47185953Y-4336102D02*
X47214524Y-4307531D01*
X47214524Y-4307531D02*
X47257381Y-4293245D01*
X47257381Y-4293245D02*
X47285953Y-4293245D01*
X47285953Y-4293245D02*
X47328810Y-4307531D01*
X47328810Y-4307531D02*
X47343096Y-4321817D01*
X47400239Y-4621817D02*
X47628810Y-4621817D01*
X47828810Y-4578960D02*
X47800238Y-4593245D01*
X47800238Y-4593245D02*
X47743095Y-4593245D01*
X47743095Y-4593245D02*
X47714524Y-4578960D01*
X47714524Y-4578960D02*
X47700238Y-4564674D01*
X47700238Y-4564674D02*
X47685952Y-4536102D01*
X47685952Y-4536102D02*
X47685952Y-4450388D01*
X47685952Y-4450388D02*
X47700238Y-4421817D01*
X47700238Y-4421817D02*
X47714524Y-4407531D01*
X47714524Y-4407531D02*
X47743095Y-4393245D01*
X47743095Y-4393245D02*
X47800238Y-4393245D01*
X47800238Y-4393245D02*
X47828810Y-4407531D01*
X48000238Y-4593245D02*
X47971667Y-4578960D01*
X47971667Y-4578960D02*
X47957381Y-4564674D01*
X47957381Y-4564674D02*
X47943095Y-4536102D01*
X47943095Y-4536102D02*
X47943095Y-4450388D01*
X47943095Y-4450388D02*
X47957381Y-4421817D01*
X47957381Y-4421817D02*
X47971667Y-4407531D01*
X47971667Y-4407531D02*
X48000238Y-4393245D01*
X48000238Y-4393245D02*
X48043095Y-4393245D01*
X48043095Y-4393245D02*
X48071667Y-4407531D01*
X48071667Y-4407531D02*
X48085953Y-4421817D01*
X48085953Y-4421817D02*
X48100238Y-4450388D01*
X48100238Y-4450388D02*
X48100238Y-4536102D01*
X48100238Y-4536102D02*
X48085953Y-4564674D01*
X48085953Y-4564674D02*
X48071667Y-4578960D01*
X48071667Y-4578960D02*
X48043095Y-4593245D01*
X48043095Y-4593245D02*
X48000238Y-4593245D01*
X48228810Y-4393245D02*
X48228810Y-4593245D01*
X48228810Y-4421817D02*
X48243096Y-4407531D01*
X48243096Y-4407531D02*
X48271667Y-4393245D01*
X48271667Y-4393245D02*
X48314524Y-4393245D01*
X48314524Y-4393245D02*
X48343096Y-4407531D01*
X48343096Y-4407531D02*
X48357382Y-4436102D01*
X48357382Y-4436102D02*
X48357382Y-4593245D01*
X48500239Y-4393245D02*
X48500239Y-4593245D01*
X48500239Y-4421817D02*
X48514525Y-4407531D01*
X48514525Y-4407531D02*
X48543096Y-4393245D01*
X48543096Y-4393245D02*
X48585953Y-4393245D01*
X48585953Y-4393245D02*
X48614525Y-4407531D01*
X48614525Y-4407531D02*
X48628811Y-4436102D01*
X48628811Y-4436102D02*
X48628811Y-4593245D01*
X48885954Y-4578960D02*
X48857382Y-4593245D01*
X48857382Y-4593245D02*
X48800240Y-4593245D01*
X48800240Y-4593245D02*
X48771668Y-4578960D01*
X48771668Y-4578960D02*
X48757382Y-4550388D01*
X48757382Y-4550388D02*
X48757382Y-4436102D01*
X48757382Y-4436102D02*
X48771668Y-4407531D01*
X48771668Y-4407531D02*
X48800240Y-4393245D01*
X48800240Y-4393245D02*
X48857382Y-4393245D01*
X48857382Y-4393245D02*
X48885954Y-4407531D01*
X48885954Y-4407531D02*
X48900240Y-4436102D01*
X48900240Y-4436102D02*
X48900240Y-4464674D01*
X48900240Y-4464674D02*
X48757382Y-4493245D01*
X49157383Y-4578960D02*
X49128811Y-4593245D01*
X49128811Y-4593245D02*
X49071668Y-4593245D01*
X49071668Y-4593245D02*
X49043097Y-4578960D01*
X49043097Y-4578960D02*
X49028811Y-4564674D01*
X49028811Y-4564674D02*
X49014525Y-4536102D01*
X49014525Y-4536102D02*
X49014525Y-4450388D01*
X49014525Y-4450388D02*
X49028811Y-4421817D01*
X49028811Y-4421817D02*
X49043097Y-4407531D01*
X49043097Y-4407531D02*
X49071668Y-4393245D01*
X49071668Y-4393245D02*
X49128811Y-4393245D01*
X49128811Y-4393245D02*
X49157383Y-4407531D01*
X49243097Y-4393245D02*
X49357383Y-4393245D01*
X49285954Y-4293245D02*
X49285954Y-4550388D01*
X49285954Y-4550388D02*
X49300240Y-4578960D01*
X49300240Y-4578960D02*
X49328811Y-4593245D01*
X49328811Y-4593245D02*
X49357383Y-4593245D01*
X49500240Y-4593245D02*
X49471669Y-4578960D01*
X49471669Y-4578960D02*
X49457383Y-4564674D01*
X49457383Y-4564674D02*
X49443097Y-4536102D01*
X49443097Y-4536102D02*
X49443097Y-4450388D01*
X49443097Y-4450388D02*
X49457383Y-4421817D01*
X49457383Y-4421817D02*
X49471669Y-4407531D01*
X49471669Y-4407531D02*
X49500240Y-4393245D01*
X49500240Y-4393245D02*
X49543097Y-4393245D01*
X49543097Y-4393245D02*
X49571669Y-4407531D01*
X49571669Y-4407531D02*
X49585955Y-4421817D01*
X49585955Y-4421817D02*
X49600240Y-4450388D01*
X49600240Y-4450388D02*
X49600240Y-4536102D01*
X49600240Y-4536102D02*
X49585955Y-4564674D01*
X49585955Y-4564674D02*
X49571669Y-4578960D01*
X49571669Y-4578960D02*
X49543097Y-4593245D01*
X49543097Y-4593245D02*
X49500240Y-4593245D01*
X49728812Y-4593245D02*
X49728812Y-4393245D01*
X49728812Y-4450388D02*
X49743098Y-4421817D01*
X49743098Y-4421817D02*
X49757384Y-4407531D01*
X49757384Y-4407531D02*
X49785955Y-4393245D01*
X49785955Y-4393245D02*
X49814526Y-4393245D01*
X49843098Y-4621817D02*
X50071669Y-4621817D01*
X50300240Y-4593245D02*
X50128811Y-4593245D01*
X50214526Y-4593245D02*
X50214526Y-4293245D01*
X50214526Y-4293245D02*
X50185954Y-4336102D01*
X50185954Y-4336102D02*
X50157383Y-4364674D01*
X50157383Y-4364674D02*
X50128811Y-4378960D01*
X50557383Y-4293245D02*
X50500240Y-4293245D01*
X50500240Y-4293245D02*
X50471668Y-4307531D01*
X50471668Y-4307531D02*
X50457383Y-4321817D01*
X50457383Y-4321817D02*
X50428811Y-4364674D01*
X50428811Y-4364674D02*
X50414525Y-4421817D01*
X50414525Y-4421817D02*
X50414525Y-4536102D01*
X50414525Y-4536102D02*
X50428811Y-4564674D01*
X50428811Y-4564674D02*
X50443097Y-4578960D01*
X50443097Y-4578960D02*
X50471668Y-4593245D01*
X50471668Y-4593245D02*
X50528811Y-4593245D01*
X50528811Y-4593245D02*
X50557383Y-4578960D01*
X50557383Y-4578960D02*
X50571668Y-4564674D01*
X50571668Y-4564674D02*
X50585954Y-4536102D01*
X50585954Y-4536102D02*
X50585954Y-4464674D01*
X50585954Y-4464674D02*
X50571668Y-4436102D01*
X50571668Y-4436102D02*
X50557383Y-4421817D01*
X50557383Y-4421817D02*
X50528811Y-4407531D01*
X50528811Y-4407531D02*
X50471668Y-4407531D01*
X50471668Y-4407531D02*
X50443097Y-4421817D01*
X50443097Y-4421817D02*
X50428811Y-4436102D01*
X50428811Y-4436102D02*
X50414525Y-4464674D01*
X50714525Y-4393245D02*
X50714525Y-4693245D01*
X50714525Y-4407531D02*
X50743097Y-4393245D01*
X50743097Y-4393245D02*
X50800239Y-4393245D01*
X50800239Y-4393245D02*
X50828811Y-4407531D01*
X50828811Y-4407531D02*
X50843097Y-4421817D01*
X50843097Y-4421817D02*
X50857382Y-4450388D01*
X50857382Y-4450388D02*
X50857382Y-4536102D01*
X50857382Y-4536102D02*
X50843097Y-4564674D01*
X50843097Y-4564674D02*
X50828811Y-4578960D01*
X50828811Y-4578960D02*
X50800239Y-4593245D01*
X50800239Y-4593245D02*
X50743097Y-4593245D01*
X50743097Y-4593245D02*
X50714525Y-4578960D01*
X50914526Y-4621817D02*
X51143097Y-4621817D01*
X51214525Y-4593245D02*
X51214525Y-4293245D01*
X51343097Y-4593245D02*
X51343097Y-4436102D01*
X51343097Y-4436102D02*
X51328811Y-4407531D01*
X51328811Y-4407531D02*
X51300239Y-4393245D01*
X51300239Y-4393245D02*
X51257382Y-4393245D01*
X51257382Y-4393245D02*
X51228811Y-4407531D01*
X51228811Y-4407531D02*
X51214525Y-4421817D01*
X51485954Y-4593245D02*
X51485954Y-4393245D01*
X51485954Y-4293245D02*
X51471668Y-4307531D01*
X51471668Y-4307531D02*
X51485954Y-4321817D01*
X51485954Y-4321817D02*
X51500240Y-4307531D01*
X51500240Y-4307531D02*
X51485954Y-4293245D01*
X51485954Y-4293245D02*
X51485954Y-4321817D01*
X51628811Y-4393245D02*
X51628811Y-4593245D01*
X51628811Y-4421817D02*
X51643097Y-4407531D01*
X51643097Y-4407531D02*
X51671668Y-4393245D01*
X51671668Y-4393245D02*
X51714525Y-4393245D01*
X51714525Y-4393245D02*
X51743097Y-4407531D01*
X51743097Y-4407531D02*
X51757383Y-4436102D01*
X51757383Y-4436102D02*
X51757383Y-4593245D01*
X52028812Y-4393245D02*
X52028812Y-4636102D01*
X52028812Y-4636102D02*
X52014526Y-4664674D01*
X52014526Y-4664674D02*
X52000240Y-4678960D01*
X52000240Y-4678960D02*
X51971669Y-4693245D01*
X51971669Y-4693245D02*
X51928812Y-4693245D01*
X51928812Y-4693245D02*
X51900240Y-4678960D01*
X52028812Y-4578960D02*
X52000240Y-4593245D01*
X52000240Y-4593245D02*
X51943097Y-4593245D01*
X51943097Y-4593245D02*
X51914526Y-4578960D01*
X51914526Y-4578960D02*
X51900240Y-4564674D01*
X51900240Y-4564674D02*
X51885954Y-4536102D01*
X51885954Y-4536102D02*
X51885954Y-4450388D01*
X51885954Y-4450388D02*
X51900240Y-4421817D01*
X51900240Y-4421817D02*
X51914526Y-4407531D01*
X51914526Y-4407531D02*
X51943097Y-4393245D01*
X51943097Y-4393245D02*
X52000240Y-4393245D01*
X52000240Y-4393245D02*
X52028812Y-4407531D01*
X52285955Y-4578960D02*
X52257383Y-4593245D01*
X52257383Y-4593245D02*
X52200241Y-4593245D01*
X52200241Y-4593245D02*
X52171669Y-4578960D01*
X52171669Y-4578960D02*
X52157383Y-4550388D01*
X52157383Y-4550388D02*
X52157383Y-4436102D01*
X52157383Y-4436102D02*
X52171669Y-4407531D01*
X52171669Y-4407531D02*
X52200241Y-4393245D01*
X52200241Y-4393245D02*
X52257383Y-4393245D01*
X52257383Y-4393245D02*
X52285955Y-4407531D01*
X52285955Y-4407531D02*
X52300241Y-4436102D01*
X52300241Y-4436102D02*
X52300241Y-4464674D01*
X52300241Y-4464674D02*
X52157383Y-4493245D01*
X52357384Y-4621817D02*
X52585955Y-4621817D01*
X52700240Y-4593245D02*
X52671669Y-4578960D01*
X52671669Y-4578960D02*
X52657383Y-4550388D01*
X52657383Y-4550388D02*
X52657383Y-4293245D01*
X52857383Y-4593245D02*
X52828812Y-4578960D01*
X52828812Y-4578960D02*
X52814526Y-4564674D01*
X52814526Y-4564674D02*
X52800240Y-4536102D01*
X52800240Y-4536102D02*
X52800240Y-4450388D01*
X52800240Y-4450388D02*
X52814526Y-4421817D01*
X52814526Y-4421817D02*
X52828812Y-4407531D01*
X52828812Y-4407531D02*
X52857383Y-4393245D01*
X52857383Y-4393245D02*
X52900240Y-4393245D01*
X52900240Y-4393245D02*
X52928812Y-4407531D01*
X52928812Y-4407531D02*
X52943098Y-4421817D01*
X52943098Y-4421817D02*
X52957383Y-4450388D01*
X52957383Y-4450388D02*
X52957383Y-4536102D01*
X52957383Y-4536102D02*
X52943098Y-4564674D01*
X52943098Y-4564674D02*
X52928812Y-4578960D01*
X52928812Y-4578960D02*
X52900240Y-4593245D01*
X52900240Y-4593245D02*
X52857383Y-4593245D01*
X53214527Y-4578960D02*
X53185955Y-4593245D01*
X53185955Y-4593245D02*
X53128812Y-4593245D01*
X53128812Y-4593245D02*
X53100241Y-4578960D01*
X53100241Y-4578960D02*
X53085955Y-4564674D01*
X53085955Y-4564674D02*
X53071669Y-4536102D01*
X53071669Y-4536102D02*
X53071669Y-4450388D01*
X53071669Y-4450388D02*
X53085955Y-4421817D01*
X53085955Y-4421817D02*
X53100241Y-4407531D01*
X53100241Y-4407531D02*
X53128812Y-4393245D01*
X53128812Y-4393245D02*
X53185955Y-4393245D01*
X53185955Y-4393245D02*
X53214527Y-4407531D01*
X53343098Y-4593245D02*
X53343098Y-4293245D01*
X53371670Y-4478960D02*
X53457384Y-4593245D01*
X53457384Y-4393245D02*
X53343098Y-4507531D01*
X36659885Y-19824999D02*
X36359885Y-19824999D01*
X36359885Y-19824999D02*
X36574171Y-19724999D01*
X36574171Y-19724999D02*
X36359885Y-19624999D01*
X36359885Y-19624999D02*
X36659885Y-19624999D01*
X36502742Y-19482142D02*
X36502742Y-19382142D01*
X36659885Y-19339285D02*
X36659885Y-19482142D01*
X36659885Y-19482142D02*
X36359885Y-19482142D01*
X36359885Y-19482142D02*
X36359885Y-19339285D01*
X36359885Y-19082142D02*
X36359885Y-19139284D01*
X36359885Y-19139284D02*
X36374171Y-19167856D01*
X36374171Y-19167856D02*
X36388457Y-19182142D01*
X36388457Y-19182142D02*
X36431314Y-19210713D01*
X36431314Y-19210713D02*
X36488457Y-19224999D01*
X36488457Y-19224999D02*
X36602742Y-19224999D01*
X36602742Y-19224999D02*
X36631314Y-19210713D01*
X36631314Y-19210713D02*
X36645600Y-19196427D01*
X36645600Y-19196427D02*
X36659885Y-19167856D01*
X36659885Y-19167856D02*
X36659885Y-19110713D01*
X36659885Y-19110713D02*
X36645600Y-19082142D01*
X36645600Y-19082142D02*
X36631314Y-19067856D01*
X36631314Y-19067856D02*
X36602742Y-19053570D01*
X36602742Y-19053570D02*
X36531314Y-19053570D01*
X36531314Y-19053570D02*
X36502742Y-19067856D01*
X36502742Y-19067856D02*
X36488457Y-19082142D01*
X36488457Y-19082142D02*
X36474171Y-19110713D01*
X36474171Y-19110713D02*
X36474171Y-19167856D01*
X36474171Y-19167856D02*
X36488457Y-19196427D01*
X36488457Y-19196427D02*
X36502742Y-19210713D01*
X36502742Y-19210713D02*
X36531314Y-19224999D01*
X36388457Y-18939285D02*
X36374171Y-18924999D01*
X36374171Y-18924999D02*
X36359885Y-18896428D01*
X36359885Y-18896428D02*
X36359885Y-18824999D01*
X36359885Y-18824999D02*
X36374171Y-18796428D01*
X36374171Y-18796428D02*
X36388457Y-18782142D01*
X36388457Y-18782142D02*
X36417028Y-18767856D01*
X36417028Y-18767856D02*
X36445600Y-18767856D01*
X36445600Y-18767856D02*
X36488457Y-18782142D01*
X36488457Y-18782142D02*
X36659885Y-18953570D01*
X36659885Y-18953570D02*
X36659885Y-18767856D01*
X36659885Y-18482142D02*
X36659885Y-18653571D01*
X36659885Y-18567856D02*
X36359885Y-18567856D01*
X36359885Y-18567856D02*
X36402742Y-18596428D01*
X36402742Y-18596428D02*
X36431314Y-18624999D01*
X36431314Y-18624999D02*
X36445600Y-18653571D01*
X36659885Y-18196428D02*
X36659885Y-18367857D01*
X36659885Y-18282142D02*
X36359885Y-18282142D01*
X36359885Y-18282142D02*
X36402742Y-18310714D01*
X36402742Y-18310714D02*
X36431314Y-18339285D01*
X36431314Y-18339285D02*
X36445600Y-18367857D01*
X36631314Y-17896428D02*
X36645600Y-17910714D01*
X36645600Y-17910714D02*
X36659885Y-17953571D01*
X36659885Y-17953571D02*
X36659885Y-17982143D01*
X36659885Y-17982143D02*
X36645600Y-18025000D01*
X36645600Y-18025000D02*
X36617028Y-18053571D01*
X36617028Y-18053571D02*
X36588457Y-18067857D01*
X36588457Y-18067857D02*
X36531314Y-18082143D01*
X36531314Y-18082143D02*
X36488457Y-18082143D01*
X36488457Y-18082143D02*
X36431314Y-18067857D01*
X36431314Y-18067857D02*
X36402742Y-18053571D01*
X36402742Y-18053571D02*
X36374171Y-18025000D01*
X36374171Y-18025000D02*
X36359885Y-17982143D01*
X36359885Y-17982143D02*
X36359885Y-17953571D01*
X36359885Y-17953571D02*
X36374171Y-17910714D01*
X36374171Y-17910714D02*
X36388457Y-17896428D01*
X36359885Y-17796428D02*
X36359885Y-17610714D01*
X36359885Y-17610714D02*
X36474171Y-17710714D01*
X36474171Y-17710714D02*
X36474171Y-17667857D01*
X36474171Y-17667857D02*
X36488457Y-17639286D01*
X36488457Y-17639286D02*
X36502742Y-17625000D01*
X36502742Y-17625000D02*
X36531314Y-17610714D01*
X36531314Y-17610714D02*
X36602742Y-17610714D01*
X36602742Y-17610714D02*
X36631314Y-17625000D01*
X36631314Y-17625000D02*
X36645600Y-17639286D01*
X36645600Y-17639286D02*
X36659885Y-17667857D01*
X36659885Y-17667857D02*
X36659885Y-17753571D01*
X36659885Y-17753571D02*
X36645600Y-17782143D01*
X36645600Y-17782143D02*
X36631314Y-17796428D01*
X36359885Y-17510714D02*
X36359885Y-17325000D01*
X36359885Y-17325000D02*
X36474171Y-17425000D01*
X36474171Y-17425000D02*
X36474171Y-17382143D01*
X36474171Y-17382143D02*
X36488457Y-17353572D01*
X36488457Y-17353572D02*
X36502742Y-17339286D01*
X36502742Y-17339286D02*
X36531314Y-17325000D01*
X36531314Y-17325000D02*
X36602742Y-17325000D01*
X36602742Y-17325000D02*
X36631314Y-17339286D01*
X36631314Y-17339286D02*
X36645600Y-17353572D01*
X36645600Y-17353572D02*
X36659885Y-17382143D01*
X36659885Y-17382143D02*
X36659885Y-17467857D01*
X36659885Y-17467857D02*
X36645600Y-17496429D01*
X36645600Y-17496429D02*
X36631314Y-17510714D01*
X36659885Y-17196429D02*
X36359885Y-17196429D01*
X36359885Y-17196429D02*
X36574171Y-17096429D01*
X36574171Y-17096429D02*
X36359885Y-16996429D01*
X36359885Y-16996429D02*
X36659885Y-16996429D01*
X36359885Y-16710715D02*
X36359885Y-16853572D01*
X36359885Y-16853572D02*
X36502742Y-16867858D01*
X36502742Y-16867858D02*
X36488457Y-16853572D01*
X36488457Y-16853572D02*
X36474171Y-16825001D01*
X36474171Y-16825001D02*
X36474171Y-16753572D01*
X36474171Y-16753572D02*
X36488457Y-16725001D01*
X36488457Y-16725001D02*
X36502742Y-16710715D01*
X36502742Y-16710715D02*
X36531314Y-16696429D01*
X36531314Y-16696429D02*
X36602742Y-16696429D01*
X36602742Y-16696429D02*
X36631314Y-16710715D01*
X36631314Y-16710715D02*
X36645600Y-16725001D01*
X36645600Y-16725001D02*
X36659885Y-16753572D01*
X36659885Y-16753572D02*
X36659885Y-16825001D01*
X36659885Y-16825001D02*
X36645600Y-16853572D01*
X36645600Y-16853572D02*
X36631314Y-16867858D01*
X36374171Y-16410715D02*
X36359885Y-16439287D01*
X36359885Y-16439287D02*
X36359885Y-16482144D01*
X36359885Y-16482144D02*
X36374171Y-16525001D01*
X36374171Y-16525001D02*
X36402742Y-16553572D01*
X36402742Y-16553572D02*
X36431314Y-16567858D01*
X36431314Y-16567858D02*
X36488457Y-16582144D01*
X36488457Y-16582144D02*
X36531314Y-16582144D01*
X36531314Y-16582144D02*
X36588457Y-16567858D01*
X36588457Y-16567858D02*
X36617028Y-16553572D01*
X36617028Y-16553572D02*
X36645600Y-16525001D01*
X36645600Y-16525001D02*
X36659885Y-16482144D01*
X36659885Y-16482144D02*
X36659885Y-16453572D01*
X36659885Y-16453572D02*
X36645600Y-16410715D01*
X36645600Y-16410715D02*
X36631314Y-16396429D01*
X36631314Y-16396429D02*
X36531314Y-16396429D01*
X36531314Y-16396429D02*
X36531314Y-16453572D01*
X36545600Y-16267858D02*
X36545600Y-16039287D01*
X36659885Y-15896429D02*
X36359885Y-15896429D01*
X36359885Y-15896429D02*
X36659885Y-15725000D01*
X36659885Y-15725000D02*
X36359885Y-15725000D01*
X15999885Y-18292856D02*
X15999885Y-18092856D01*
X15999885Y-18092856D02*
X16299885Y-18221428D01*
X15999885Y-17835714D02*
X15999885Y-17978571D01*
X15999885Y-17978571D02*
X16142742Y-17992857D01*
X16142742Y-17992857D02*
X16128457Y-17978571D01*
X16128457Y-17978571D02*
X16114171Y-17950000D01*
X16114171Y-17950000D02*
X16114171Y-17878571D01*
X16114171Y-17878571D02*
X16128457Y-17850000D01*
X16128457Y-17850000D02*
X16142742Y-17835714D01*
X16142742Y-17835714D02*
X16171314Y-17821428D01*
X16171314Y-17821428D02*
X16242742Y-17821428D01*
X16242742Y-17821428D02*
X16271314Y-17835714D01*
X16271314Y-17835714D02*
X16285600Y-17850000D01*
X16285600Y-17850000D02*
X16299885Y-17878571D01*
X16299885Y-17878571D02*
X16299885Y-17950000D01*
X16299885Y-17950000D02*
X16285600Y-17978571D01*
X16285600Y-17978571D02*
X16271314Y-17992857D01*
X16299885Y-17521428D02*
X16157028Y-17621428D01*
X16299885Y-17692857D02*
X15999885Y-17692857D01*
X15999885Y-17692857D02*
X15999885Y-17578571D01*
X15999885Y-17578571D02*
X16014171Y-17550000D01*
X16014171Y-17550000D02*
X16028457Y-17535714D01*
X16028457Y-17535714D02*
X16057028Y-17521428D01*
X16057028Y-17521428D02*
X16099885Y-17521428D01*
X16099885Y-17521428D02*
X16128457Y-17535714D01*
X16128457Y-17535714D02*
X16142742Y-17550000D01*
X16142742Y-17550000D02*
X16157028Y-17578571D01*
X16157028Y-17578571D02*
X16157028Y-17692857D01*
X49535713Y-5934885D02*
X49535713Y-5634885D01*
X49535713Y-5634885D02*
X49635713Y-5849171D01*
X49635713Y-5849171D02*
X49735713Y-5634885D01*
X49735713Y-5634885D02*
X49735713Y-5934885D01*
X49864284Y-5663457D02*
X49878570Y-5649171D01*
X49878570Y-5649171D02*
X49907142Y-5634885D01*
X49907142Y-5634885D02*
X49978570Y-5634885D01*
X49978570Y-5634885D02*
X50007142Y-5649171D01*
X50007142Y-5649171D02*
X50021427Y-5663457D01*
X50021427Y-5663457D02*
X50035713Y-5692028D01*
X50035713Y-5692028D02*
X50035713Y-5720600D01*
X50035713Y-5720600D02*
X50021427Y-5763457D01*
X50021427Y-5763457D02*
X49849999Y-5934885D01*
X49849999Y-5934885D02*
X50035713Y-5934885D01*
X50164284Y-5906314D02*
X50178570Y-5920600D01*
X50178570Y-5920600D02*
X50164284Y-5934885D01*
X50164284Y-5934885D02*
X50149998Y-5920600D01*
X50149998Y-5920600D02*
X50164284Y-5906314D01*
X50164284Y-5906314D02*
X50164284Y-5934885D01*
X50449998Y-5634885D02*
X50307141Y-5634885D01*
X50307141Y-5634885D02*
X50292855Y-5777742D01*
X50292855Y-5777742D02*
X50307141Y-5763457D01*
X50307141Y-5763457D02*
X50335713Y-5749171D01*
X50335713Y-5749171D02*
X50407141Y-5749171D01*
X50407141Y-5749171D02*
X50435713Y-5763457D01*
X50435713Y-5763457D02*
X50449998Y-5777742D01*
X50449998Y-5777742D02*
X50464284Y-5806314D01*
X50464284Y-5806314D02*
X50464284Y-5877742D01*
X50464284Y-5877742D02*
X50449998Y-5906314D01*
X50449998Y-5906314D02*
X50435713Y-5920600D01*
X50435713Y-5920600D02*
X50407141Y-5934885D01*
X50407141Y-5934885D02*
X50335713Y-5934885D01*
X50335713Y-5934885D02*
X50307141Y-5920600D01*
X50307141Y-5920600D02*
X50292855Y-5906314D01*
X50592855Y-5934885D02*
X50592855Y-5634885D01*
X50592855Y-5634885D02*
X50692855Y-5849171D01*
X50692855Y-5849171D02*
X50792855Y-5634885D01*
X50792855Y-5634885D02*
X50792855Y-5934885D01*
X50978569Y-5934885D02*
X50949998Y-5920600D01*
X50949998Y-5920600D02*
X50935712Y-5906314D01*
X50935712Y-5906314D02*
X50921426Y-5877742D01*
X50921426Y-5877742D02*
X50921426Y-5792028D01*
X50921426Y-5792028D02*
X50935712Y-5763457D01*
X50935712Y-5763457D02*
X50949998Y-5749171D01*
X50949998Y-5749171D02*
X50978569Y-5734885D01*
X50978569Y-5734885D02*
X51021426Y-5734885D01*
X51021426Y-5734885D02*
X51049998Y-5749171D01*
X51049998Y-5749171D02*
X51064284Y-5763457D01*
X51064284Y-5763457D02*
X51078569Y-5792028D01*
X51078569Y-5792028D02*
X51078569Y-5877742D01*
X51078569Y-5877742D02*
X51064284Y-5906314D01*
X51064284Y-5906314D02*
X51049998Y-5920600D01*
X51049998Y-5920600D02*
X51021426Y-5934885D01*
X51021426Y-5934885D02*
X50978569Y-5934885D01*
X51335713Y-5734885D02*
X51335713Y-5934885D01*
X51207141Y-5734885D02*
X51207141Y-5892028D01*
X51207141Y-5892028D02*
X51221427Y-5920600D01*
X51221427Y-5920600D02*
X51249998Y-5934885D01*
X51249998Y-5934885D02*
X51292855Y-5934885D01*
X51292855Y-5934885D02*
X51321427Y-5920600D01*
X51321427Y-5920600D02*
X51335713Y-5906314D01*
X51478570Y-5734885D02*
X51478570Y-5934885D01*
X51478570Y-5763457D02*
X51492856Y-5749171D01*
X51492856Y-5749171D02*
X51521427Y-5734885D01*
X51521427Y-5734885D02*
X51564284Y-5734885D01*
X51564284Y-5734885D02*
X51592856Y-5749171D01*
X51592856Y-5749171D02*
X51607142Y-5777742D01*
X51607142Y-5777742D02*
X51607142Y-5934885D01*
X51707142Y-5734885D02*
X51821428Y-5734885D01*
X51749999Y-5634885D02*
X51749999Y-5892028D01*
X51749999Y-5892028D02*
X51764285Y-5920600D01*
X51764285Y-5920600D02*
X51792856Y-5934885D01*
X51792856Y-5934885D02*
X51821428Y-5934885D01*
X51921428Y-5934885D02*
X51921428Y-5734885D01*
X51921428Y-5634885D02*
X51907142Y-5649171D01*
X51907142Y-5649171D02*
X51921428Y-5663457D01*
X51921428Y-5663457D02*
X51935714Y-5649171D01*
X51935714Y-5649171D02*
X51921428Y-5634885D01*
X51921428Y-5634885D02*
X51921428Y-5663457D01*
X52064285Y-5734885D02*
X52064285Y-5934885D01*
X52064285Y-5763457D02*
X52078571Y-5749171D01*
X52078571Y-5749171D02*
X52107142Y-5734885D01*
X52107142Y-5734885D02*
X52149999Y-5734885D01*
X52149999Y-5734885D02*
X52178571Y-5749171D01*
X52178571Y-5749171D02*
X52192857Y-5777742D01*
X52192857Y-5777742D02*
X52192857Y-5934885D01*
X52464286Y-5734885D02*
X52464286Y-5977742D01*
X52464286Y-5977742D02*
X52450000Y-6006314D01*
X52450000Y-6006314D02*
X52435714Y-6020600D01*
X52435714Y-6020600D02*
X52407143Y-6034885D01*
X52407143Y-6034885D02*
X52364286Y-6034885D01*
X52364286Y-6034885D02*
X52335714Y-6020600D01*
X52464286Y-5920600D02*
X52435714Y-5934885D01*
X52435714Y-5934885D02*
X52378571Y-5934885D01*
X52378571Y-5934885D02*
X52350000Y-5920600D01*
X52350000Y-5920600D02*
X52335714Y-5906314D01*
X52335714Y-5906314D02*
X52321428Y-5877742D01*
X52321428Y-5877742D02*
X52321428Y-5792028D01*
X52321428Y-5792028D02*
X52335714Y-5763457D01*
X52335714Y-5763457D02*
X52350000Y-5749171D01*
X52350000Y-5749171D02*
X52378571Y-5734885D01*
X52378571Y-5734885D02*
X52435714Y-5734885D01*
X52435714Y-5734885D02*
X52464286Y-5749171D01*
X52607143Y-5934885D02*
X52607143Y-5634885D01*
X52607143Y-5777742D02*
X52778572Y-5777742D01*
X52778572Y-5934885D02*
X52778572Y-5634885D01*
X52964286Y-5934885D02*
X52935715Y-5920600D01*
X52935715Y-5920600D02*
X52921429Y-5906314D01*
X52921429Y-5906314D02*
X52907143Y-5877742D01*
X52907143Y-5877742D02*
X52907143Y-5792028D01*
X52907143Y-5792028D02*
X52921429Y-5763457D01*
X52921429Y-5763457D02*
X52935715Y-5749171D01*
X52935715Y-5749171D02*
X52964286Y-5734885D01*
X52964286Y-5734885D02*
X53007143Y-5734885D01*
X53007143Y-5734885D02*
X53035715Y-5749171D01*
X53035715Y-5749171D02*
X53050001Y-5763457D01*
X53050001Y-5763457D02*
X53064286Y-5792028D01*
X53064286Y-5792028D02*
X53064286Y-5877742D01*
X53064286Y-5877742D02*
X53050001Y-5906314D01*
X53050001Y-5906314D02*
X53035715Y-5920600D01*
X53035715Y-5920600D02*
X53007143Y-5934885D01*
X53007143Y-5934885D02*
X52964286Y-5934885D01*
X53235715Y-5934885D02*
X53207144Y-5920600D01*
X53207144Y-5920600D02*
X53192858Y-5892028D01*
X53192858Y-5892028D02*
X53192858Y-5634885D01*
X53464287Y-5920600D02*
X53435715Y-5934885D01*
X53435715Y-5934885D02*
X53378573Y-5934885D01*
X53378573Y-5934885D02*
X53350001Y-5920600D01*
X53350001Y-5920600D02*
X53335715Y-5892028D01*
X53335715Y-5892028D02*
X53335715Y-5777742D01*
X53335715Y-5777742D02*
X53350001Y-5749171D01*
X53350001Y-5749171D02*
X53378573Y-5734885D01*
X53378573Y-5734885D02*
X53435715Y-5734885D01*
X53435715Y-5734885D02*
X53464287Y-5749171D01*
X53464287Y-5749171D02*
X53478573Y-5777742D01*
X53478573Y-5777742D02*
X53478573Y-5806314D01*
X53478573Y-5806314D02*
X53335715Y-5834885D01*
X35313571Y-23700957D02*
X35327857Y-23686671D01*
X35327857Y-23686671D02*
X35356429Y-23672385D01*
X35356429Y-23672385D02*
X35427857Y-23672385D01*
X35427857Y-23672385D02*
X35456429Y-23686671D01*
X35456429Y-23686671D02*
X35470714Y-23700957D01*
X35470714Y-23700957D02*
X35485000Y-23729528D01*
X35485000Y-23729528D02*
X35485000Y-23758100D01*
X35485000Y-23758100D02*
X35470714Y-23800957D01*
X35470714Y-23800957D02*
X35299286Y-23972385D01*
X35299286Y-23972385D02*
X35485000Y-23972385D01*
X35599285Y-23700957D02*
X35613571Y-23686671D01*
X35613571Y-23686671D02*
X35642143Y-23672385D01*
X35642143Y-23672385D02*
X35713571Y-23672385D01*
X35713571Y-23672385D02*
X35742143Y-23686671D01*
X35742143Y-23686671D02*
X35756428Y-23700957D01*
X35756428Y-23700957D02*
X35770714Y-23729528D01*
X35770714Y-23729528D02*
X35770714Y-23758100D01*
X35770714Y-23758100D02*
X35756428Y-23800957D01*
X35756428Y-23800957D02*
X35585000Y-23972385D01*
X35585000Y-23972385D02*
X35770714Y-23972385D01*
X36027857Y-23772385D02*
X36027857Y-23972385D01*
X35899285Y-23772385D02*
X35899285Y-23929528D01*
X35899285Y-23929528D02*
X35913571Y-23958100D01*
X35913571Y-23958100D02*
X35942142Y-23972385D01*
X35942142Y-23972385D02*
X35984999Y-23972385D01*
X35984999Y-23972385D02*
X36013571Y-23958100D01*
X36013571Y-23958100D02*
X36027857Y-23943814D01*
X36270714Y-23815242D02*
X36170714Y-23815242D01*
X36170714Y-23972385D02*
X36170714Y-23672385D01*
X36170714Y-23672385D02*
X36313571Y-23672385D01*
X36356429Y-24000957D02*
X36585000Y-24000957D01*
X36642142Y-23700957D02*
X36656428Y-23686671D01*
X36656428Y-23686671D02*
X36685000Y-23672385D01*
X36685000Y-23672385D02*
X36756428Y-23672385D01*
X36756428Y-23672385D02*
X36785000Y-23686671D01*
X36785000Y-23686671D02*
X36799285Y-23700957D01*
X36799285Y-23700957D02*
X36813571Y-23729528D01*
X36813571Y-23729528D02*
X36813571Y-23758100D01*
X36813571Y-23758100D02*
X36799285Y-23800957D01*
X36799285Y-23800957D02*
X36627857Y-23972385D01*
X36627857Y-23972385D02*
X36813571Y-23972385D01*
X37084999Y-23672385D02*
X36942142Y-23672385D01*
X36942142Y-23672385D02*
X36927856Y-23815242D01*
X36927856Y-23815242D02*
X36942142Y-23800957D01*
X36942142Y-23800957D02*
X36970714Y-23786671D01*
X36970714Y-23786671D02*
X37042142Y-23786671D01*
X37042142Y-23786671D02*
X37070714Y-23800957D01*
X37070714Y-23800957D02*
X37084999Y-23815242D01*
X37084999Y-23815242D02*
X37099285Y-23843814D01*
X37099285Y-23843814D02*
X37099285Y-23915242D01*
X37099285Y-23915242D02*
X37084999Y-23943814D01*
X37084999Y-23943814D02*
X37070714Y-23958100D01*
X37070714Y-23958100D02*
X37042142Y-23972385D01*
X37042142Y-23972385D02*
X36970714Y-23972385D01*
X36970714Y-23972385D02*
X36942142Y-23958100D01*
X36942142Y-23958100D02*
X36927856Y-23943814D01*
X37184999Y-23672385D02*
X37284999Y-23972385D01*
X37284999Y-23972385D02*
X37384999Y-23672385D01*
X535713Y-25884885D02*
X535713Y-25584885D01*
X535713Y-25584885D02*
X635713Y-25799171D01*
X635713Y-25799171D02*
X735713Y-25584885D01*
X735713Y-25584885D02*
X735713Y-25884885D01*
X864284Y-25613457D02*
X878570Y-25599171D01*
X878570Y-25599171D02*
X907142Y-25584885D01*
X907142Y-25584885D02*
X978570Y-25584885D01*
X978570Y-25584885D02*
X1007142Y-25599171D01*
X1007142Y-25599171D02*
X1021427Y-25613457D01*
X1021427Y-25613457D02*
X1035713Y-25642028D01*
X1035713Y-25642028D02*
X1035713Y-25670600D01*
X1035713Y-25670600D02*
X1021427Y-25713457D01*
X1021427Y-25713457D02*
X849999Y-25884885D01*
X849999Y-25884885D02*
X1035713Y-25884885D01*
X1164284Y-25856314D02*
X1178570Y-25870600D01*
X1178570Y-25870600D02*
X1164284Y-25884885D01*
X1164284Y-25884885D02*
X1149998Y-25870600D01*
X1149998Y-25870600D02*
X1164284Y-25856314D01*
X1164284Y-25856314D02*
X1164284Y-25884885D01*
X1449998Y-25584885D02*
X1307141Y-25584885D01*
X1307141Y-25584885D02*
X1292855Y-25727742D01*
X1292855Y-25727742D02*
X1307141Y-25713457D01*
X1307141Y-25713457D02*
X1335713Y-25699171D01*
X1335713Y-25699171D02*
X1407141Y-25699171D01*
X1407141Y-25699171D02*
X1435713Y-25713457D01*
X1435713Y-25713457D02*
X1449998Y-25727742D01*
X1449998Y-25727742D02*
X1464284Y-25756314D01*
X1464284Y-25756314D02*
X1464284Y-25827742D01*
X1464284Y-25827742D02*
X1449998Y-25856314D01*
X1449998Y-25856314D02*
X1435713Y-25870600D01*
X1435713Y-25870600D02*
X1407141Y-25884885D01*
X1407141Y-25884885D02*
X1335713Y-25884885D01*
X1335713Y-25884885D02*
X1307141Y-25870600D01*
X1307141Y-25870600D02*
X1292855Y-25856314D01*
X1592855Y-25884885D02*
X1592855Y-25584885D01*
X1592855Y-25584885D02*
X1692855Y-25799171D01*
X1692855Y-25799171D02*
X1792855Y-25584885D01*
X1792855Y-25584885D02*
X1792855Y-25884885D01*
X1978569Y-25884885D02*
X1949998Y-25870600D01*
X1949998Y-25870600D02*
X1935712Y-25856314D01*
X1935712Y-25856314D02*
X1921426Y-25827742D01*
X1921426Y-25827742D02*
X1921426Y-25742028D01*
X1921426Y-25742028D02*
X1935712Y-25713457D01*
X1935712Y-25713457D02*
X1949998Y-25699171D01*
X1949998Y-25699171D02*
X1978569Y-25684885D01*
X1978569Y-25684885D02*
X2021426Y-25684885D01*
X2021426Y-25684885D02*
X2049998Y-25699171D01*
X2049998Y-25699171D02*
X2064284Y-25713457D01*
X2064284Y-25713457D02*
X2078569Y-25742028D01*
X2078569Y-25742028D02*
X2078569Y-25827742D01*
X2078569Y-25827742D02*
X2064284Y-25856314D01*
X2064284Y-25856314D02*
X2049998Y-25870600D01*
X2049998Y-25870600D02*
X2021426Y-25884885D01*
X2021426Y-25884885D02*
X1978569Y-25884885D01*
X2335713Y-25684885D02*
X2335713Y-25884885D01*
X2207141Y-25684885D02*
X2207141Y-25842028D01*
X2207141Y-25842028D02*
X2221427Y-25870600D01*
X2221427Y-25870600D02*
X2249998Y-25884885D01*
X2249998Y-25884885D02*
X2292855Y-25884885D01*
X2292855Y-25884885D02*
X2321427Y-25870600D01*
X2321427Y-25870600D02*
X2335713Y-25856314D01*
X2478570Y-25684885D02*
X2478570Y-25884885D01*
X2478570Y-25713457D02*
X2492856Y-25699171D01*
X2492856Y-25699171D02*
X2521427Y-25684885D01*
X2521427Y-25684885D02*
X2564284Y-25684885D01*
X2564284Y-25684885D02*
X2592856Y-25699171D01*
X2592856Y-25699171D02*
X2607142Y-25727742D01*
X2607142Y-25727742D02*
X2607142Y-25884885D01*
X2707142Y-25684885D02*
X2821428Y-25684885D01*
X2749999Y-25584885D02*
X2749999Y-25842028D01*
X2749999Y-25842028D02*
X2764285Y-25870600D01*
X2764285Y-25870600D02*
X2792856Y-25884885D01*
X2792856Y-25884885D02*
X2821428Y-25884885D01*
X2921428Y-25884885D02*
X2921428Y-25684885D01*
X2921428Y-25584885D02*
X2907142Y-25599171D01*
X2907142Y-25599171D02*
X2921428Y-25613457D01*
X2921428Y-25613457D02*
X2935714Y-25599171D01*
X2935714Y-25599171D02*
X2921428Y-25584885D01*
X2921428Y-25584885D02*
X2921428Y-25613457D01*
X3064285Y-25684885D02*
X3064285Y-25884885D01*
X3064285Y-25713457D02*
X3078571Y-25699171D01*
X3078571Y-25699171D02*
X3107142Y-25684885D01*
X3107142Y-25684885D02*
X3149999Y-25684885D01*
X3149999Y-25684885D02*
X3178571Y-25699171D01*
X3178571Y-25699171D02*
X3192857Y-25727742D01*
X3192857Y-25727742D02*
X3192857Y-25884885D01*
X3464286Y-25684885D02*
X3464286Y-25927742D01*
X3464286Y-25927742D02*
X3450000Y-25956314D01*
X3450000Y-25956314D02*
X3435714Y-25970600D01*
X3435714Y-25970600D02*
X3407143Y-25984885D01*
X3407143Y-25984885D02*
X3364286Y-25984885D01*
X3364286Y-25984885D02*
X3335714Y-25970600D01*
X3464286Y-25870600D02*
X3435714Y-25884885D01*
X3435714Y-25884885D02*
X3378571Y-25884885D01*
X3378571Y-25884885D02*
X3350000Y-25870600D01*
X3350000Y-25870600D02*
X3335714Y-25856314D01*
X3335714Y-25856314D02*
X3321428Y-25827742D01*
X3321428Y-25827742D02*
X3321428Y-25742028D01*
X3321428Y-25742028D02*
X3335714Y-25713457D01*
X3335714Y-25713457D02*
X3350000Y-25699171D01*
X3350000Y-25699171D02*
X3378571Y-25684885D01*
X3378571Y-25684885D02*
X3435714Y-25684885D01*
X3435714Y-25684885D02*
X3464286Y-25699171D01*
X3607143Y-25884885D02*
X3607143Y-25584885D01*
X3607143Y-25727742D02*
X3778572Y-25727742D01*
X3778572Y-25884885D02*
X3778572Y-25584885D01*
X3964286Y-25884885D02*
X3935715Y-25870600D01*
X3935715Y-25870600D02*
X3921429Y-25856314D01*
X3921429Y-25856314D02*
X3907143Y-25827742D01*
X3907143Y-25827742D02*
X3907143Y-25742028D01*
X3907143Y-25742028D02*
X3921429Y-25713457D01*
X3921429Y-25713457D02*
X3935715Y-25699171D01*
X3935715Y-25699171D02*
X3964286Y-25684885D01*
X3964286Y-25684885D02*
X4007143Y-25684885D01*
X4007143Y-25684885D02*
X4035715Y-25699171D01*
X4035715Y-25699171D02*
X4050001Y-25713457D01*
X4050001Y-25713457D02*
X4064286Y-25742028D01*
X4064286Y-25742028D02*
X4064286Y-25827742D01*
X4064286Y-25827742D02*
X4050001Y-25856314D01*
X4050001Y-25856314D02*
X4035715Y-25870600D01*
X4035715Y-25870600D02*
X4007143Y-25884885D01*
X4007143Y-25884885D02*
X3964286Y-25884885D01*
X4235715Y-25884885D02*
X4207144Y-25870600D01*
X4207144Y-25870600D02*
X4192858Y-25842028D01*
X4192858Y-25842028D02*
X4192858Y-25584885D01*
X4464287Y-25870600D02*
X4435715Y-25884885D01*
X4435715Y-25884885D02*
X4378573Y-25884885D01*
X4378573Y-25884885D02*
X4350001Y-25870600D01*
X4350001Y-25870600D02*
X4335715Y-25842028D01*
X4335715Y-25842028D02*
X4335715Y-25727742D01*
X4335715Y-25727742D02*
X4350001Y-25699171D01*
X4350001Y-25699171D02*
X4378573Y-25684885D01*
X4378573Y-25684885D02*
X4435715Y-25684885D01*
X4435715Y-25684885D02*
X4464287Y-25699171D01*
X4464287Y-25699171D02*
X4478573Y-25727742D01*
X4478573Y-25727742D02*
X4478573Y-25756314D01*
X4478573Y-25756314D02*
X4335715Y-25784885D01*
X45888571Y-23725957D02*
X45902857Y-23711671D01*
X45902857Y-23711671D02*
X45931429Y-23697385D01*
X45931429Y-23697385D02*
X46002857Y-23697385D01*
X46002857Y-23697385D02*
X46031429Y-23711671D01*
X46031429Y-23711671D02*
X46045714Y-23725957D01*
X46045714Y-23725957D02*
X46060000Y-23754528D01*
X46060000Y-23754528D02*
X46060000Y-23783100D01*
X46060000Y-23783100D02*
X46045714Y-23825957D01*
X46045714Y-23825957D02*
X45874286Y-23997385D01*
X45874286Y-23997385D02*
X46060000Y-23997385D01*
X46174285Y-23725957D02*
X46188571Y-23711671D01*
X46188571Y-23711671D02*
X46217143Y-23697385D01*
X46217143Y-23697385D02*
X46288571Y-23697385D01*
X46288571Y-23697385D02*
X46317143Y-23711671D01*
X46317143Y-23711671D02*
X46331428Y-23725957D01*
X46331428Y-23725957D02*
X46345714Y-23754528D01*
X46345714Y-23754528D02*
X46345714Y-23783100D01*
X46345714Y-23783100D02*
X46331428Y-23825957D01*
X46331428Y-23825957D02*
X46160000Y-23997385D01*
X46160000Y-23997385D02*
X46345714Y-23997385D01*
X46602857Y-23797385D02*
X46602857Y-23997385D01*
X46474285Y-23797385D02*
X46474285Y-23954528D01*
X46474285Y-23954528D02*
X46488571Y-23983100D01*
X46488571Y-23983100D02*
X46517142Y-23997385D01*
X46517142Y-23997385D02*
X46559999Y-23997385D01*
X46559999Y-23997385D02*
X46588571Y-23983100D01*
X46588571Y-23983100D02*
X46602857Y-23968814D01*
X46845714Y-23840242D02*
X46745714Y-23840242D01*
X46745714Y-23997385D02*
X46745714Y-23697385D01*
X46745714Y-23697385D02*
X46888571Y-23697385D01*
X46931429Y-24025957D02*
X47160000Y-24025957D01*
X47217142Y-23725957D02*
X47231428Y-23711671D01*
X47231428Y-23711671D02*
X47260000Y-23697385D01*
X47260000Y-23697385D02*
X47331428Y-23697385D01*
X47331428Y-23697385D02*
X47360000Y-23711671D01*
X47360000Y-23711671D02*
X47374285Y-23725957D01*
X47374285Y-23725957D02*
X47388571Y-23754528D01*
X47388571Y-23754528D02*
X47388571Y-23783100D01*
X47388571Y-23783100D02*
X47374285Y-23825957D01*
X47374285Y-23825957D02*
X47202857Y-23997385D01*
X47202857Y-23997385D02*
X47388571Y-23997385D01*
X47659999Y-23697385D02*
X47517142Y-23697385D01*
X47517142Y-23697385D02*
X47502856Y-23840242D01*
X47502856Y-23840242D02*
X47517142Y-23825957D01*
X47517142Y-23825957D02*
X47545714Y-23811671D01*
X47545714Y-23811671D02*
X47617142Y-23811671D01*
X47617142Y-23811671D02*
X47645714Y-23825957D01*
X47645714Y-23825957D02*
X47659999Y-23840242D01*
X47659999Y-23840242D02*
X47674285Y-23868814D01*
X47674285Y-23868814D02*
X47674285Y-23940242D01*
X47674285Y-23940242D02*
X47659999Y-23968814D01*
X47659999Y-23968814D02*
X47645714Y-23983100D01*
X47645714Y-23983100D02*
X47617142Y-23997385D01*
X47617142Y-23997385D02*
X47545714Y-23997385D01*
X47545714Y-23997385D02*
X47517142Y-23983100D01*
X47517142Y-23983100D02*
X47502856Y-23968814D01*
X47759999Y-23697385D02*
X47859999Y-23997385D01*
X47859999Y-23997385D02*
X47959999Y-23697385D01*
X15879885Y-16642856D02*
X15879885Y-16442856D01*
X15879885Y-16442856D02*
X16179885Y-16571428D01*
X15879885Y-16185714D02*
X15879885Y-16328571D01*
X15879885Y-16328571D02*
X16022742Y-16342857D01*
X16022742Y-16342857D02*
X16008457Y-16328571D01*
X16008457Y-16328571D02*
X15994171Y-16300000D01*
X15994171Y-16300000D02*
X15994171Y-16228571D01*
X15994171Y-16228571D02*
X16008457Y-16200000D01*
X16008457Y-16200000D02*
X16022742Y-16185714D01*
X16022742Y-16185714D02*
X16051314Y-16171428D01*
X16051314Y-16171428D02*
X16122742Y-16171428D01*
X16122742Y-16171428D02*
X16151314Y-16185714D01*
X16151314Y-16185714D02*
X16165600Y-16200000D01*
X16165600Y-16200000D02*
X16179885Y-16228571D01*
X16179885Y-16228571D02*
X16179885Y-16300000D01*
X16179885Y-16300000D02*
X16165600Y-16328571D01*
X16165600Y-16328571D02*
X16151314Y-16342857D01*
X16179885Y-15871428D02*
X16037028Y-15971428D01*
X16179885Y-16042857D02*
X15879885Y-16042857D01*
X15879885Y-16042857D02*
X15879885Y-15928571D01*
X15879885Y-15928571D02*
X15894171Y-15900000D01*
X15894171Y-15900000D02*
X15908457Y-15885714D01*
X15908457Y-15885714D02*
X15937028Y-15871428D01*
X15937028Y-15871428D02*
X15979885Y-15871428D01*
X15979885Y-15871428D02*
X16008457Y-15885714D01*
X16008457Y-15885714D02*
X16022742Y-15900000D01*
X16022742Y-15900000D02*
X16037028Y-15928571D01*
X16037028Y-15928571D02*
X16037028Y-16042857D01*
D11*
X1222857Y-20774819D02*
X1318095Y-20774819D01*
X1318095Y-20774819D02*
X1413333Y-20822438D01*
X1413333Y-20822438D02*
X1460952Y-20870057D01*
X1460952Y-20870057D02*
X1508571Y-20965295D01*
X1508571Y-20965295D02*
X1556190Y-21155771D01*
X1556190Y-21155771D02*
X1556190Y-21393866D01*
X1556190Y-21393866D02*
X1508571Y-21584342D01*
X1508571Y-21584342D02*
X1460952Y-21679580D01*
X1460952Y-21679580D02*
X1413333Y-21727200D01*
X1413333Y-21727200D02*
X1318095Y-21774819D01*
X1318095Y-21774819D02*
X1222857Y-21774819D01*
X1222857Y-21774819D02*
X1127619Y-21727200D01*
X1127619Y-21727200D02*
X1080000Y-21679580D01*
X1080000Y-21679580D02*
X1032381Y-21584342D01*
X1032381Y-21584342D02*
X984762Y-21393866D01*
X984762Y-21393866D02*
X984762Y-21155771D01*
X984762Y-21155771D02*
X1032381Y-20965295D01*
X1032381Y-20965295D02*
X1080000Y-20870057D01*
X1080000Y-20870057D02*
X1127619Y-20822438D01*
X1127619Y-20822438D02*
X1222857Y-20774819D01*
X2508571Y-21774819D02*
X1937143Y-21774819D01*
X2222857Y-21774819D02*
X2222857Y-20774819D01*
X2222857Y-20774819D02*
X2127619Y-20917676D01*
X2127619Y-20917676D02*
X2032381Y-21012914D01*
X2032381Y-21012914D02*
X1937143Y-21060533D01*
X2841905Y-21774819D02*
X3365714Y-21108152D01*
X2841905Y-21108152D02*
X3365714Y-21774819D01*
X3937143Y-20774819D02*
X4032381Y-20774819D01*
X4032381Y-20774819D02*
X4127619Y-20822438D01*
X4127619Y-20822438D02*
X4175238Y-20870057D01*
X4175238Y-20870057D02*
X4222857Y-20965295D01*
X4222857Y-20965295D02*
X4270476Y-21155771D01*
X4270476Y-21155771D02*
X4270476Y-21393866D01*
X4270476Y-21393866D02*
X4222857Y-21584342D01*
X4222857Y-21584342D02*
X4175238Y-21679580D01*
X4175238Y-21679580D02*
X4127619Y-21727200D01*
X4127619Y-21727200D02*
X4032381Y-21774819D01*
X4032381Y-21774819D02*
X3937143Y-21774819D01*
X3937143Y-21774819D02*
X3841905Y-21727200D01*
X3841905Y-21727200D02*
X3794286Y-21679580D01*
X3794286Y-21679580D02*
X3746667Y-21584342D01*
X3746667Y-21584342D02*
X3699048Y-21393866D01*
X3699048Y-21393866D02*
X3699048Y-21155771D01*
X3699048Y-21155771D02*
X3746667Y-20965295D01*
X3746667Y-20965295D02*
X3794286Y-20870057D01*
X3794286Y-20870057D02*
X3841905Y-20822438D01*
X3841905Y-20822438D02*
X3937143Y-20774819D01*
X5127619Y-20774819D02*
X4937143Y-20774819D01*
X4937143Y-20774819D02*
X4841905Y-20822438D01*
X4841905Y-20822438D02*
X4794286Y-20870057D01*
X4794286Y-20870057D02*
X4699048Y-21012914D01*
X4699048Y-21012914D02*
X4651429Y-21203390D01*
X4651429Y-21203390D02*
X4651429Y-21584342D01*
X4651429Y-21584342D02*
X4699048Y-21679580D01*
X4699048Y-21679580D02*
X4746667Y-21727200D01*
X4746667Y-21727200D02*
X4841905Y-21774819D01*
X4841905Y-21774819D02*
X5032381Y-21774819D01*
X5032381Y-21774819D02*
X5127619Y-21727200D01*
X5127619Y-21727200D02*
X5175238Y-21679580D01*
X5175238Y-21679580D02*
X5222857Y-21584342D01*
X5222857Y-21584342D02*
X5222857Y-21346247D01*
X5222857Y-21346247D02*
X5175238Y-21251009D01*
X5175238Y-21251009D02*
X5127619Y-21203390D01*
X5127619Y-21203390D02*
X5032381Y-21155771D01*
X5032381Y-21155771D02*
X4841905Y-21155771D01*
X4841905Y-21155771D02*
X4746667Y-21203390D01*
X4746667Y-21203390D02*
X4699048Y-21251009D01*
X4699048Y-21251009D02*
X4651429Y-21346247D01*
X5413334Y-21870057D02*
X6175238Y-21870057D01*
X6365715Y-20870057D02*
X6413334Y-20822438D01*
X6413334Y-20822438D02*
X6508572Y-20774819D01*
X6508572Y-20774819D02*
X6746667Y-20774819D01*
X6746667Y-20774819D02*
X6841905Y-20822438D01*
X6841905Y-20822438D02*
X6889524Y-20870057D01*
X6889524Y-20870057D02*
X6937143Y-20965295D01*
X6937143Y-20965295D02*
X6937143Y-21060533D01*
X6937143Y-21060533D02*
X6889524Y-21203390D01*
X6889524Y-21203390D02*
X6318096Y-21774819D01*
X6318096Y-21774819D02*
X6937143Y-21774819D01*
X7365715Y-21679580D02*
X7413334Y-21727200D01*
X7413334Y-21727200D02*
X7365715Y-21774819D01*
X7365715Y-21774819D02*
X7318096Y-21727200D01*
X7318096Y-21727200D02*
X7365715Y-21679580D01*
X7365715Y-21679580D02*
X7365715Y-21774819D01*
X8318095Y-20774819D02*
X7841905Y-20774819D01*
X7841905Y-20774819D02*
X7794286Y-21251009D01*
X7794286Y-21251009D02*
X7841905Y-21203390D01*
X7841905Y-21203390D02*
X7937143Y-21155771D01*
X7937143Y-21155771D02*
X8175238Y-21155771D01*
X8175238Y-21155771D02*
X8270476Y-21203390D01*
X8270476Y-21203390D02*
X8318095Y-21251009D01*
X8318095Y-21251009D02*
X8365714Y-21346247D01*
X8365714Y-21346247D02*
X8365714Y-21584342D01*
X8365714Y-21584342D02*
X8318095Y-21679580D01*
X8318095Y-21679580D02*
X8270476Y-21727200D01*
X8270476Y-21727200D02*
X8175238Y-21774819D01*
X8175238Y-21774819D02*
X7937143Y-21774819D01*
X7937143Y-21774819D02*
X7841905Y-21727200D01*
X7841905Y-21727200D02*
X7794286Y-21679580D01*
X9222857Y-21108152D02*
X9222857Y-21774819D01*
X8984762Y-20727200D02*
X8746667Y-21441485D01*
X8746667Y-21441485D02*
X9365714Y-21441485D01*
X9746667Y-21774819D02*
X9746667Y-21108152D01*
X9746667Y-21203390D02*
X9794286Y-21155771D01*
X9794286Y-21155771D02*
X9889524Y-21108152D01*
X9889524Y-21108152D02*
X10032381Y-21108152D01*
X10032381Y-21108152D02*
X10127619Y-21155771D01*
X10127619Y-21155771D02*
X10175238Y-21251009D01*
X10175238Y-21251009D02*
X10175238Y-21774819D01*
X10175238Y-21251009D02*
X10222857Y-21155771D01*
X10222857Y-21155771D02*
X10318095Y-21108152D01*
X10318095Y-21108152D02*
X10460952Y-21108152D01*
X10460952Y-21108152D02*
X10556191Y-21155771D01*
X10556191Y-21155771D02*
X10603810Y-21251009D01*
X10603810Y-21251009D02*
X10603810Y-21774819D01*
X11080000Y-21774819D02*
X11080000Y-21108152D01*
X11080000Y-21203390D02*
X11127619Y-21155771D01*
X11127619Y-21155771D02*
X11222857Y-21108152D01*
X11222857Y-21108152D02*
X11365714Y-21108152D01*
X11365714Y-21108152D02*
X11460952Y-21155771D01*
X11460952Y-21155771D02*
X11508571Y-21251009D01*
X11508571Y-21251009D02*
X11508571Y-21774819D01*
X11508571Y-21251009D02*
X11556190Y-21155771D01*
X11556190Y-21155771D02*
X11651428Y-21108152D01*
X11651428Y-21108152D02*
X11794285Y-21108152D01*
X11794285Y-21108152D02*
X11889524Y-21155771D01*
X11889524Y-21155771D02*
X11937143Y-21251009D01*
X11937143Y-21251009D02*
X11937143Y-21774819D01*
X12175238Y-21870057D02*
X12937142Y-21870057D01*
X13175238Y-21774819D02*
X13175238Y-20774819D01*
X13175238Y-20774819D02*
X13508571Y-21489104D01*
X13508571Y-21489104D02*
X13841904Y-20774819D01*
X13841904Y-20774819D02*
X13841904Y-21774819D01*
X14746666Y-21774819D02*
X14746666Y-21251009D01*
X14746666Y-21251009D02*
X14699047Y-21155771D01*
X14699047Y-21155771D02*
X14603809Y-21108152D01*
X14603809Y-21108152D02*
X14413333Y-21108152D01*
X14413333Y-21108152D02*
X14318095Y-21155771D01*
X14746666Y-21727200D02*
X14651428Y-21774819D01*
X14651428Y-21774819D02*
X14413333Y-21774819D01*
X14413333Y-21774819D02*
X14318095Y-21727200D01*
X14318095Y-21727200D02*
X14270476Y-21631961D01*
X14270476Y-21631961D02*
X14270476Y-21536723D01*
X14270476Y-21536723D02*
X14318095Y-21441485D01*
X14318095Y-21441485D02*
X14413333Y-21393866D01*
X14413333Y-21393866D02*
X14651428Y-21393866D01*
X14651428Y-21393866D02*
X14746666Y-21346247D01*
X15365714Y-21774819D02*
X15270476Y-21727200D01*
X15270476Y-21727200D02*
X15222857Y-21631961D01*
X15222857Y-21631961D02*
X15222857Y-20774819D01*
X16127619Y-21727200D02*
X16032381Y-21774819D01*
X16032381Y-21774819D02*
X15841905Y-21774819D01*
X15841905Y-21774819D02*
X15746667Y-21727200D01*
X15746667Y-21727200D02*
X15699048Y-21631961D01*
X15699048Y-21631961D02*
X15699048Y-21251009D01*
X15699048Y-21251009D02*
X15746667Y-21155771D01*
X15746667Y-21155771D02*
X15841905Y-21108152D01*
X15841905Y-21108152D02*
X16032381Y-21108152D01*
X16032381Y-21108152D02*
X16127619Y-21155771D01*
X16127619Y-21155771D02*
X16175238Y-21251009D01*
X16175238Y-21251009D02*
X16175238Y-21346247D01*
X16175238Y-21346247D02*
X15699048Y-21441485D01*
X38610476Y-3134819D02*
X38705714Y-3134819D01*
X38705714Y-3134819D02*
X38800952Y-3182438D01*
X38800952Y-3182438D02*
X38848571Y-3230057D01*
X38848571Y-3230057D02*
X38896190Y-3325295D01*
X38896190Y-3325295D02*
X38943809Y-3515771D01*
X38943809Y-3515771D02*
X38943809Y-3753866D01*
X38943809Y-3753866D02*
X38896190Y-3944342D01*
X38896190Y-3944342D02*
X38848571Y-4039580D01*
X38848571Y-4039580D02*
X38800952Y-4087200D01*
X38800952Y-4087200D02*
X38705714Y-4134819D01*
X38705714Y-4134819D02*
X38610476Y-4134819D01*
X38610476Y-4134819D02*
X38515238Y-4087200D01*
X38515238Y-4087200D02*
X38467619Y-4039580D01*
X38467619Y-4039580D02*
X38420000Y-3944342D01*
X38420000Y-3944342D02*
X38372381Y-3753866D01*
X38372381Y-3753866D02*
X38372381Y-3515771D01*
X38372381Y-3515771D02*
X38420000Y-3325295D01*
X38420000Y-3325295D02*
X38467619Y-3230057D01*
X38467619Y-3230057D02*
X38515238Y-3182438D01*
X38515238Y-3182438D02*
X38610476Y-3134819D01*
X39896190Y-4134819D02*
X39324762Y-4134819D01*
X39610476Y-4134819D02*
X39610476Y-3134819D01*
X39610476Y-3134819D02*
X39515238Y-3277676D01*
X39515238Y-3277676D02*
X39420000Y-3372914D01*
X39420000Y-3372914D02*
X39324762Y-3420533D01*
X40229524Y-4134819D02*
X40753333Y-3468152D01*
X40229524Y-3468152D02*
X40753333Y-4134819D01*
X41324762Y-3134819D02*
X41420000Y-3134819D01*
X41420000Y-3134819D02*
X41515238Y-3182438D01*
X41515238Y-3182438D02*
X41562857Y-3230057D01*
X41562857Y-3230057D02*
X41610476Y-3325295D01*
X41610476Y-3325295D02*
X41658095Y-3515771D01*
X41658095Y-3515771D02*
X41658095Y-3753866D01*
X41658095Y-3753866D02*
X41610476Y-3944342D01*
X41610476Y-3944342D02*
X41562857Y-4039580D01*
X41562857Y-4039580D02*
X41515238Y-4087200D01*
X41515238Y-4087200D02*
X41420000Y-4134819D01*
X41420000Y-4134819D02*
X41324762Y-4134819D01*
X41324762Y-4134819D02*
X41229524Y-4087200D01*
X41229524Y-4087200D02*
X41181905Y-4039580D01*
X41181905Y-4039580D02*
X41134286Y-3944342D01*
X41134286Y-3944342D02*
X41086667Y-3753866D01*
X41086667Y-3753866D02*
X41086667Y-3515771D01*
X41086667Y-3515771D02*
X41134286Y-3325295D01*
X41134286Y-3325295D02*
X41181905Y-3230057D01*
X41181905Y-3230057D02*
X41229524Y-3182438D01*
X41229524Y-3182438D02*
X41324762Y-3134819D01*
X42515238Y-3134819D02*
X42324762Y-3134819D01*
X42324762Y-3134819D02*
X42229524Y-3182438D01*
X42229524Y-3182438D02*
X42181905Y-3230057D01*
X42181905Y-3230057D02*
X42086667Y-3372914D01*
X42086667Y-3372914D02*
X42039048Y-3563390D01*
X42039048Y-3563390D02*
X42039048Y-3944342D01*
X42039048Y-3944342D02*
X42086667Y-4039580D01*
X42086667Y-4039580D02*
X42134286Y-4087200D01*
X42134286Y-4087200D02*
X42229524Y-4134819D01*
X42229524Y-4134819D02*
X42420000Y-4134819D01*
X42420000Y-4134819D02*
X42515238Y-4087200D01*
X42515238Y-4087200D02*
X42562857Y-4039580D01*
X42562857Y-4039580D02*
X42610476Y-3944342D01*
X42610476Y-3944342D02*
X42610476Y-3706247D01*
X42610476Y-3706247D02*
X42562857Y-3611009D01*
X42562857Y-3611009D02*
X42515238Y-3563390D01*
X42515238Y-3563390D02*
X42420000Y-3515771D01*
X42420000Y-3515771D02*
X42229524Y-3515771D01*
X42229524Y-3515771D02*
X42134286Y-3563390D01*
X42134286Y-3563390D02*
X42086667Y-3611009D01*
X42086667Y-3611009D02*
X42039048Y-3706247D01*
X42800953Y-4230057D02*
X43562857Y-4230057D01*
X43753334Y-3230057D02*
X43800953Y-3182438D01*
X43800953Y-3182438D02*
X43896191Y-3134819D01*
X43896191Y-3134819D02*
X44134286Y-3134819D01*
X44134286Y-3134819D02*
X44229524Y-3182438D01*
X44229524Y-3182438D02*
X44277143Y-3230057D01*
X44277143Y-3230057D02*
X44324762Y-3325295D01*
X44324762Y-3325295D02*
X44324762Y-3420533D01*
X44324762Y-3420533D02*
X44277143Y-3563390D01*
X44277143Y-3563390D02*
X43705715Y-4134819D01*
X43705715Y-4134819D02*
X44324762Y-4134819D01*
X44753334Y-4039580D02*
X44800953Y-4087200D01*
X44800953Y-4087200D02*
X44753334Y-4134819D01*
X44753334Y-4134819D02*
X44705715Y-4087200D01*
X44705715Y-4087200D02*
X44753334Y-4039580D01*
X44753334Y-4039580D02*
X44753334Y-4134819D01*
X45705714Y-3134819D02*
X45229524Y-3134819D01*
X45229524Y-3134819D02*
X45181905Y-3611009D01*
X45181905Y-3611009D02*
X45229524Y-3563390D01*
X45229524Y-3563390D02*
X45324762Y-3515771D01*
X45324762Y-3515771D02*
X45562857Y-3515771D01*
X45562857Y-3515771D02*
X45658095Y-3563390D01*
X45658095Y-3563390D02*
X45705714Y-3611009D01*
X45705714Y-3611009D02*
X45753333Y-3706247D01*
X45753333Y-3706247D02*
X45753333Y-3944342D01*
X45753333Y-3944342D02*
X45705714Y-4039580D01*
X45705714Y-4039580D02*
X45658095Y-4087200D01*
X45658095Y-4087200D02*
X45562857Y-4134819D01*
X45562857Y-4134819D02*
X45324762Y-4134819D01*
X45324762Y-4134819D02*
X45229524Y-4087200D01*
X45229524Y-4087200D02*
X45181905Y-4039580D01*
X46610476Y-3468152D02*
X46610476Y-4134819D01*
X46372381Y-3087200D02*
X46134286Y-3801485D01*
X46134286Y-3801485D02*
X46753333Y-3801485D01*
X47134286Y-4134819D02*
X47134286Y-3468152D01*
X47134286Y-3563390D02*
X47181905Y-3515771D01*
X47181905Y-3515771D02*
X47277143Y-3468152D01*
X47277143Y-3468152D02*
X47420000Y-3468152D01*
X47420000Y-3468152D02*
X47515238Y-3515771D01*
X47515238Y-3515771D02*
X47562857Y-3611009D01*
X47562857Y-3611009D02*
X47562857Y-4134819D01*
X47562857Y-3611009D02*
X47610476Y-3515771D01*
X47610476Y-3515771D02*
X47705714Y-3468152D01*
X47705714Y-3468152D02*
X47848571Y-3468152D01*
X47848571Y-3468152D02*
X47943810Y-3515771D01*
X47943810Y-3515771D02*
X47991429Y-3611009D01*
X47991429Y-3611009D02*
X47991429Y-4134819D01*
X48467619Y-4134819D02*
X48467619Y-3468152D01*
X48467619Y-3563390D02*
X48515238Y-3515771D01*
X48515238Y-3515771D02*
X48610476Y-3468152D01*
X48610476Y-3468152D02*
X48753333Y-3468152D01*
X48753333Y-3468152D02*
X48848571Y-3515771D01*
X48848571Y-3515771D02*
X48896190Y-3611009D01*
X48896190Y-3611009D02*
X48896190Y-4134819D01*
X48896190Y-3611009D02*
X48943809Y-3515771D01*
X48943809Y-3515771D02*
X49039047Y-3468152D01*
X49039047Y-3468152D02*
X49181904Y-3468152D01*
X49181904Y-3468152D02*
X49277143Y-3515771D01*
X49277143Y-3515771D02*
X49324762Y-3611009D01*
X49324762Y-3611009D02*
X49324762Y-4134819D01*
X49562857Y-4230057D02*
X50324761Y-4230057D01*
X50896190Y-3611009D02*
X50562857Y-3611009D01*
X50562857Y-4134819D02*
X50562857Y-3134819D01*
X50562857Y-3134819D02*
X51039047Y-3134819D01*
X51800952Y-4087200D02*
X51705714Y-4134819D01*
X51705714Y-4134819D02*
X51515238Y-4134819D01*
X51515238Y-4134819D02*
X51420000Y-4087200D01*
X51420000Y-4087200D02*
X51372381Y-3991961D01*
X51372381Y-3991961D02*
X51372381Y-3611009D01*
X51372381Y-3611009D02*
X51420000Y-3515771D01*
X51420000Y-3515771D02*
X51515238Y-3468152D01*
X51515238Y-3468152D02*
X51705714Y-3468152D01*
X51705714Y-3468152D02*
X51800952Y-3515771D01*
X51800952Y-3515771D02*
X51848571Y-3611009D01*
X51848571Y-3611009D02*
X51848571Y-3706247D01*
X51848571Y-3706247D02*
X51372381Y-3801485D01*
X52277143Y-4134819D02*
X52277143Y-3468152D01*
X52277143Y-3563390D02*
X52324762Y-3515771D01*
X52324762Y-3515771D02*
X52420000Y-3468152D01*
X52420000Y-3468152D02*
X52562857Y-3468152D01*
X52562857Y-3468152D02*
X52658095Y-3515771D01*
X52658095Y-3515771D02*
X52705714Y-3611009D01*
X52705714Y-3611009D02*
X52705714Y-4134819D01*
X52705714Y-3611009D02*
X52753333Y-3515771D01*
X52753333Y-3515771D02*
X52848571Y-3468152D01*
X52848571Y-3468152D02*
X52991428Y-3468152D01*
X52991428Y-3468152D02*
X53086667Y-3515771D01*
X53086667Y-3515771D02*
X53134286Y-3611009D01*
X53134286Y-3611009D02*
X53134286Y-4134819D01*
X54039047Y-4134819D02*
X54039047Y-3611009D01*
X54039047Y-3611009D02*
X53991428Y-3515771D01*
X53991428Y-3515771D02*
X53896190Y-3468152D01*
X53896190Y-3468152D02*
X53705714Y-3468152D01*
X53705714Y-3468152D02*
X53610476Y-3515771D01*
X54039047Y-4087200D02*
X53943809Y-4134819D01*
X53943809Y-4134819D02*
X53705714Y-4134819D01*
X53705714Y-4134819D02*
X53610476Y-4087200D01*
X53610476Y-4087200D02*
X53562857Y-3991961D01*
X53562857Y-3991961D02*
X53562857Y-3896723D01*
X53562857Y-3896723D02*
X53610476Y-3801485D01*
X53610476Y-3801485D02*
X53705714Y-3753866D01*
X53705714Y-3753866D02*
X53943809Y-3753866D01*
X53943809Y-3753866D02*
X54039047Y-3706247D01*
X54658095Y-4134819D02*
X54562857Y-4087200D01*
X54562857Y-4087200D02*
X54515238Y-3991961D01*
X54515238Y-3991961D02*
X54515238Y-3134819D01*
X55420000Y-4087200D02*
X55324762Y-4134819D01*
X55324762Y-4134819D02*
X55134286Y-4134819D01*
X55134286Y-4134819D02*
X55039048Y-4087200D01*
X55039048Y-4087200D02*
X54991429Y-3991961D01*
X54991429Y-3991961D02*
X54991429Y-3611009D01*
X54991429Y-3611009D02*
X55039048Y-3515771D01*
X55039048Y-3515771D02*
X55134286Y-3468152D01*
X55134286Y-3468152D02*
X55324762Y-3468152D01*
X55324762Y-3468152D02*
X55420000Y-3515771D01*
X55420000Y-3515771D02*
X55467619Y-3611009D01*
X55467619Y-3611009D02*
X55467619Y-3706247D01*
X55467619Y-3706247D02*
X54991429Y-3801485D01*
D12*
X33000000Y-8350000D03*
X33000000Y-5810000D03*
X33000000Y-3270000D03*
X37500000Y-8325000D03*
X37500000Y-5785000D03*
X37500000Y-3245000D03*
X2500000Y-2500000D03*
X15000000Y-8350000D03*
X15000000Y-5810000D03*
X15000000Y-3270000D03*
X51500000Y-22500000D03*
X28500000Y-8350000D03*
X28500000Y-5810000D03*
X28500000Y-3270000D03*
X5850000Y-23600000D03*
X7850000Y-23600000D03*
X9850000Y-23600000D03*
X11850000Y-23600000D03*
X10500000Y-8350000D03*
X10500000Y-5810000D03*
X10500000Y-3270000D03*
X51500000Y-2550000D03*
X2500000Y-22500000D03*
X19500000Y-8350000D03*
X19500000Y-5810000D03*
X19500000Y-3270000D03*
X42000000Y-8305000D03*
X42000000Y-5765000D03*
X42000000Y-3225000D03*
X24000000Y-8350000D03*
X24000000Y-5810000D03*
X24000000Y-3270000D03*
M02*
